<svg width="841" height="841" viewBox="0 0 841 841" fill="none" xmlns="http://www.w3.org/2000/svg">
<path d="M744.387 426.198C744.387 468.67 736.022 510.726 719.768 549.965C703.515 589.203 679.692 624.857 649.66 654.889C619.628 684.921 583.975 708.744 544.736 724.997C505.497 741.25 463.441 749.615 420.97 749.615C378.498 749.615 336.442 741.25 297.203 724.997C257.964 708.744 222.311 684.921 192.279 654.889C162.247 624.857 138.424 589.203 122.171 549.965C105.918 510.726 97.5525 468.67 97.5525 426.198C97.5525 340.423 131.627 258.16 192.279 197.508C252.932 136.855 335.194 102.781 420.97 102.781C463.441 102.781 505.497 111.146 544.736 127.4C583.975 143.653 619.628 167.476 649.66 197.508C679.692 227.54 703.515 263.193 719.768 302.432C736.022 341.671 744.387 383.726 744.387 426.198Z" fill="white" stroke="black" stroke-width="1.16547"/>
<path d="M362.147 263.314L362.186 263.184C364.656 254.864 355.273 247.54 341.227 246.826L316.186 242.374L288.29 239.342L262.745 237.226L236.5 238.287C222.455 237.573 208.328 246.917 205.858 255.238L205.82 255.368C203.835 262.053 209.502 268.095 219.092 270.582C223.989 271.852 229.167 272.542 233.893 274.158L237.326 275.332C241.846 276.877 246.668 277.815 251.697 278.129L273.256 279.472L332.244 277.087C346.289 277.801 359.677 271.635 362.147 263.314Z" fill="#D9D9D9"/>
<path d="M269.68 261.804C275.114 262.036 280.339 259.413 281.352 255.944C282.365 252.475 278.781 249.474 273.348 249.242L266.193 248.935C260.759 248.702 255.534 251.326 254.521 254.795C253.509 258.264 257.092 261.265 262.526 261.497L269.68 261.804Z" fill="#D9D9D9"/>
<path d="M290.17 264.686L290.182 264.528C290.981 254.386 280.715 244.809 267.251 243.138L166.156 230.586C152.693 228.915 141.131 235.781 140.332 245.923L140.32 246.081C139.521 256.223 149.787 265.799 163.251 267.471L264.346 280.023C277.809 281.694 289.371 274.828 290.17 264.686Z" fill="#D9D9D9"/>
<path d="M181.323 257.559L181.674 251.099C182.346 238.718 170.247 227.173 154.648 225.311L140.79 223.658C125.192 221.796 112.002 230.324 111.329 242.704L110.978 249.164C110.306 261.545 122.406 273.09 138.004 274.952L151.862 276.605C167.46 278.467 180.651 269.939 181.323 257.559Z" fill="#D9D9D9"/>
<path d="M245.723 278.492C262.577 280.465 276.755 272.677 277.391 261.098C278.027 249.519 264.879 238.533 248.025 236.56L224.061 233.755C207.207 231.782 193.029 239.569 192.393 251.148C191.757 262.727 204.905 273.714 221.759 275.687L245.723 278.492Z" fill="#D9D9D9"/>
<path d="M252.421 276.448C255.508 276.789 258.105 275.42 258.22 273.392C258.336 271.363 255.927 269.442 252.84 269.102L232.576 266.867C229.489 266.527 226.892 267.895 226.777 269.924C226.661 271.953 229.07 273.873 232.157 274.214L252.421 276.448Z" fill="#D9D9D9"/>
<path d="M141.755 256.78C151.796 254.783 157.286 245.446 154.017 235.927C150.748 226.408 139.959 220.311 129.918 222.308L102.494 227.765C92.4534 229.762 86.9636 239.098 90.2323 248.617C93.501 258.137 104.29 264.234 114.331 262.236L141.755 256.78Z" fill="#D9D9D9"/>
<path d="M145.948 277.994C152.856 278.797 158.697 275.089 158.993 269.711C159.29 264.332 153.93 259.321 147.022 258.518L128.153 256.324C121.244 255.521 115.404 259.229 115.107 264.607C114.811 269.986 120.171 274.997 127.079 275.8L145.948 277.994Z" fill="#D9D9D9"/>
<path d="M462.662 259.395L462.631 259.269C460.666 251.197 470.51 244.415 484.619 244.12L509.967 240.535L538.088 238.398L563.797 237.075L590.014 238.827C604.123 238.532 617.697 247.914 619.662 255.985L619.693 256.112C621.29 262.672 615.086 268.381 605.131 270.447C600.351 271.439 595.37 271.948 590.746 273.309L586.622 274.523C582.2 275.825 577.533 276.559 572.705 276.713L550.689 277.415L491.765 273.476C477.657 273.771 464.626 267.467 462.662 259.395Z" fill="#D9D9D9"/>
<path d="M551.743 262.396L551.73 262.235C550.922 251.914 561.182 242.188 574.647 240.511L675.752 227.917C689.217 226.24 700.788 233.247 701.596 243.568L701.609 243.729C702.418 254.05 692.158 263.776 678.693 265.454L577.587 278.047C564.122 279.725 552.552 272.717 551.743 262.396Z" fill="#D9D9D9"/>
<path d="M660.589 255.301L660.232 248.73C659.548 236.138 671.643 224.42 687.247 222.557L701.109 220.901C716.713 219.038 729.916 227.736 730.6 240.328L730.957 246.898C731.64 259.49 719.545 271.209 703.942 273.072L690.08 274.727C674.476 276.59 661.273 267.893 660.589 255.301Z" fill="#D9D9D9"/>
<path d="M596.215 276.524C579.357 278.499 565.167 270.551 564.521 258.772C563.875 246.992 577.017 235.841 593.874 233.866L617.844 231.057C634.702 229.082 648.892 237.03 649.538 248.809C650.185 260.589 637.043 271.74 620.185 273.715L596.215 276.524Z" fill="#D9D9D9"/>
<path d="M589.521 274.424C586.433 274.765 583.835 273.368 583.718 271.303C583.6 269.239 586.008 267.288 589.096 266.947L609.362 264.709C612.449 264.368 615.048 265.765 615.165 267.829C615.283 269.894 612.875 271.844 609.787 272.185L589.521 274.424Z" fill="#D9D9D9"/>
<path d="M700.171 254.541C690.128 252.49 684.631 243 687.892 233.344C691.154 223.688 701.939 217.523 711.982 219.574L739.411 225.175C749.454 227.226 754.951 236.716 751.69 246.371C748.428 256.027 737.643 262.192 727.6 260.142L700.171 254.541Z" fill="#D9D9D9"/>
<path d="M696.002 276.135C689.093 276.939 683.247 273.155 682.945 267.684C682.644 262.212 688.001 257.125 694.911 256.32L713.784 254.123C720.693 253.319 726.539 257.102 726.841 262.574C727.142 268.045 721.785 273.133 714.875 273.938L696.002 276.135Z" fill="#D9D9D9"/>
<path d="M391.049 570.915L385.758 570.915C373.803 570.915 364.112 580.606 364.112 592.561L364.111 646.871L364.112 686.138L359.793 726.385C359.793 735.179 368.619 742.308 379.507 742.308H384.104C394.992 742.308 403.818 735.179 403.818 726.385V667.654C403.818 663.543 404.841 659.497 406.795 655.88C408.749 652.263 409.772 648.217 409.772 644.106V636.423C409.772 631.889 409.198 627.373 408.063 622.983C406.928 618.593 406.354 614.077 406.354 609.543V586.22C406.354 585.301 406.271 584.383 406.106 583.478C404.781 576.203 398.444 570.915 391.049 570.915Z" fill="#D9D9D9"/>
<path d="M387.129 411.606H357.629C356.218 411.606 355.074 412.75 355.074 414.161L345.617 500.378V530.202C345.617 534.199 345.951 538.189 346.616 542.13L348.699 554.479C349.911 561.666 352.393 568.58 356.028 574.898L362.192 585.609C363.516 587.91 364.213 590.518 364.213 593.174C364.213 601.55 371.003 608.341 379.38 608.341H390.027C399.003 608.341 406.28 601.064 406.28 592.087C406.28 590.126 406.635 588.181 407.328 586.346L409.538 580.492C410.492 577.966 411.241 575.368 411.78 572.723L415.141 556.212L418.352 535.308C418.905 531.705 419.183 528.065 419.183 524.42V487.812V443.661C419.183 425.958 404.832 411.606 387.129 411.606Z" fill="#D9D9D9"/>
<path d="M391.217 708.607H372.706C362.031 708.607 353.377 716.152 353.377 725.458C353.377 734.764 362.031 742.308 372.706 742.308H391.217C401.892 742.308 410.546 734.764 410.546 725.458C410.546 716.152 401.892 708.607 391.217 708.607Z" fill="#D9D9D9"/>
<path d="M404.145 723.849H359.778C356.243 723.849 353.377 726.347 353.377 729.429V736.727C353.377 739.809 356.243 742.307 359.778 742.307H404.145C407.68 742.307 410.546 739.809 410.546 736.727V729.429C410.546 726.347 407.68 723.849 404.145 723.849Z" fill="#D9D9D9"/>
<path d="M491.975 330.49C491.975 286.982 456.186 270.198 419.872 270.198C383.558 270.198 350.405 286.982 350.405 330.49L354.12 405.892C354.12 449.399 383.558 484.67 419.872 484.67C456.186 484.67 485.624 459.308 485.624 415.8L491.975 330.49Z" fill="#D9D9D9"/>
<path d="M510.039 232.625H328.592C308.951 232.625 293.028 248.189 293.028 267.387C293.028 286.585 308.951 302.148 328.592 302.148H510.039C529.68 302.148 545.603 286.585 545.603 267.387C545.603 248.189 529.68 232.625 510.039 232.625Z" fill="#D9D9D9"/>
<path d="M516.229 285.285C516.229 244.956 473.093 212.264 419.882 212.264C366.67 212.264 323.534 244.956 323.534 285.285C323.534 325.613 366.67 358.306 419.882 358.306C473.093 358.306 516.229 325.613 516.229 285.285Z" fill="#D9D9D9"/>
<path d="M425.2 332.347H414.557C389.177 332.347 368.603 350.549 368.603 373.003V402.377C368.603 424.831 389.177 443.034 414.557 443.034H425.2C450.581 443.034 471.155 424.831 471.155 402.377V373.003C471.155 350.549 450.581 332.347 425.2 332.347Z" fill="#D9D9D9"/>
<path d="M469.694 232.459H370.074C344.372 232.459 323.536 250.384 323.536 272.495V296.625C323.536 318.736 344.372 336.661 370.074 336.661H469.694C495.396 336.661 516.231 318.736 516.231 296.625V272.495C516.231 250.384 495.396 232.459 469.694 232.459Z" fill="#D9D9D9"/>
<path d="M478.385 232.459H361.379C340.478 232.459 323.534 249.117 323.534 269.665V292.089C323.534 312.637 340.478 329.295 361.379 329.295H478.385C499.286 329.295 516.229 312.637 516.229 292.089V269.665C516.229 249.117 499.286 232.459 478.385 232.459Z" fill="#D9D9D9"/>
<path d="M427.747 313.941C427.747 311.404 424.113 309.348 419.631 309.348C415.149 309.348 411.516 311.404 411.516 313.941V322.849C411.516 325.385 415.149 327.441 419.631 327.441C424.113 327.441 427.747 325.385 427.747 322.849V313.941Z" fill="#D9D9D9"/>
<path d="M461.981 299.938H443.065C437.632 299.938 433.228 303.825 433.228 308.619C433.228 313.413 437.632 317.299 443.065 317.299H461.981C467.414 317.299 471.818 313.413 471.818 308.619C471.818 303.825 467.414 299.938 461.981 299.938Z" fill="#D9D9D9"/>
<path d="M395.212 299.938H376.295C370.862 299.938 366.458 303.825 366.458 308.619C366.458 313.413 370.862 317.299 376.295 317.299H395.212C400.645 317.299 405.049 313.413 405.049 308.619C405.049 303.825 400.645 299.938 395.212 299.938Z" fill="#D9D9D9"/>
<path d="M454.311 202.561C454.311 180.309 438.897 162.27 419.882 162.27C400.867 162.27 385.452 180.309 385.452 202.561V219.091C385.452 241.343 400.867 259.382 419.882 259.382C438.897 259.382 454.311 241.343 454.311 219.091V202.561Z" fill="#D9D9D9"/>
<path d="M368.043 317.751H361.155C358.407 317.751 356.18 319.717 356.18 322.142C356.18 324.566 358.407 326.532 361.155 326.532H368.043C370.791 326.532 373.018 324.566 373.018 322.142C373.018 319.717 370.791 317.751 368.043 317.751Z" fill="#D9D9D9"/>
<path d="M480.646 317.751H473.757C471.01 317.751 468.782 319.717 468.782 322.142C468.782 324.566 471.01 326.532 473.757 326.532H480.646C483.393 326.532 485.621 324.566 485.621 322.142C485.621 319.717 483.393 317.751 480.646 317.751Z" fill="#D9D9D9"/>
<path d="M426.558 162.27H413.205C397.878 162.27 385.452 174.415 385.452 189.397V200.526C385.452 215.507 397.878 227.652 413.205 227.652H426.558C441.886 227.652 454.311 215.507 454.311 200.526V189.397C454.311 174.415 441.886 162.27 426.558 162.27Z" fill="#D9D9D9"/>
<path d="M332.274 238.326H328.101C316.96 238.326 307.929 247.153 307.929 258.042C307.929 268.932 316.96 277.759 328.101 277.759H332.274C343.415 277.759 352.446 268.932 352.446 258.042C352.446 247.153 343.415 238.326 332.274 238.326Z" fill="#D9D9D9"/>
<path d="M512.292 240.248H508.118C496.978 240.248 487.946 249.075 487.946 259.964C487.946 270.853 496.978 279.681 508.118 279.681H512.292C523.432 279.681 532.464 270.853 532.464 259.964C532.464 249.075 523.432 240.248 512.292 240.248Z" fill="#D9D9D9"/>
<path d="M331.987 244.952H325.727C322.27 244.952 319.467 247.691 319.467 251.071C319.467 254.45 322.27 257.19 325.727 257.19H331.987C335.445 257.19 338.248 254.45 338.248 251.071C338.248 247.691 335.445 244.952 331.987 244.952Z" fill="#D9D9D9"/>
<path d="M519.876 245.433H513.616C510.158 245.433 507.355 248.172 507.355 251.552C507.355 254.931 510.158 257.671 513.616 257.671H519.876C523.333 257.671 526.136 254.931 526.136 251.552C526.136 248.172 523.333 245.433 519.876 245.433Z" fill="#D9D9D9"/>
<path d="M451.463 566.4L456.499 566.4C468.434 566.4 478.109 576.075 478.109 588.009L478.11 643.953L478.109 684.047L482.428 725.14C482.428 734.119 473.601 741.398 462.713 741.398H458.117C447.229 741.398 438.402 734.119 438.402 725.14V664.041C438.402 660.089 437.377 656.205 435.425 652.769C433.474 649.332 432.449 645.448 432.449 641.496V633.115C432.449 628.598 433.009 624.098 434.118 619.72L434.158 619.563C435.293 615.08 435.867 610.473 435.867 605.849V581.995C435.867 581.077 435.948 580.161 436.109 579.257C437.436 571.817 443.906 566.399 451.463 566.4Z" fill="#D9D9D9"/>
<path d="M457.618 411.606H474.863C479.193 411.606 483.052 414.338 484.492 418.421C484.71 419.041 484.868 419.68 484.964 420.331L495.847 494.348C496.354 497.802 496.609 501.289 496.609 504.78V528.964C496.609 532.998 496.269 537.025 495.592 541.003L493.531 553.107C492.317 560.236 489.834 567.09 486.201 573.344L480.043 583.944C478.714 586.232 478.014 588.831 478.014 591.478C478.014 599.76 471.299 606.475 463.017 606.475H452.023C443.144 606.475 435.946 599.277 435.946 590.397C435.946 588.441 435.589 586.5 434.892 584.672L432.687 578.888C431.735 576.388 430.985 573.815 430.447 571.194L427.085 554.84L423.89 534.236C423.326 530.6 423.043 526.926 423.043 523.247V487.089V446.181C423.043 427.086 438.523 411.606 457.618 411.606Z" fill="#D9D9D9"/>
<path d="M453.051 707.816H471.563C482.238 707.816 490.892 715.334 490.892 724.608C490.892 733.881 482.238 741.399 471.563 741.399H453.051C442.376 741.399 433.723 733.881 433.723 724.608C433.723 715.334 442.376 707.816 453.051 707.816Z" fill="#D9D9D9"/>
<path d="M440.123 714.729H484.491C488.026 714.729 490.892 718.338 490.892 722.791V733.335C490.892 737.788 488.026 741.397 484.491 741.397H440.123C436.588 741.397 433.723 737.788 433.723 733.335V722.791C433.723 718.338 436.588 714.729 440.123 714.729Z" fill="#D9D9D9"/>
<path d="M470.46 138.689H375.036C364.127 138.689 355.282 147.669 355.282 158.746C355.282 169.823 364.127 178.803 375.036 178.803H470.46C481.37 178.803 490.214 169.823 490.214 158.746C490.214 147.669 481.37 138.689 470.46 138.689Z" fill="#D9D9D9"/>
<path d="M468.807 141.947H372.907C364.609 141.947 357.883 148.644 357.883 156.905C357.883 165.166 364.609 171.862 372.907 171.862H468.807C477.104 171.862 483.831 165.166 483.831 156.905C483.831 148.644 477.104 141.947 468.807 141.947Z" fill="#D9D9D9"/>
<path d="M435.224 80.4727H406.505C382.709 80.4727 363.418 99.3279 363.418 122.587V172.494C363.418 195.753 382.709 214.608 406.505 214.608H435.224C459.02 214.608 478.311 195.753 478.311 172.494V122.587C478.311 99.3279 459.02 80.4727 435.224 80.4727Z" fill="#D9D9D9"/>
<path d="M434.175 209.071H407.338C404.437 209.071 402.084 211.37 402.084 214.207C402.084 217.043 404.437 219.343 407.338 219.343H434.175C437.077 219.343 439.43 217.043 439.43 214.207C439.43 211.37 437.077 209.071 434.175 209.071Z" fill="#D9D9D9"/>
<path d="M408.515 346.035H396.312C390.492 346.035 385.773 350.056 385.773 355.015C385.773 359.975 390.492 363.995 396.312 363.995H408.515C414.336 363.995 419.054 359.975 419.054 355.015C419.054 350.056 414.336 346.035 408.515 346.035Z" fill="#D9D9D9"/>
<path d="M408.515 367.208H396.312C390.492 367.208 385.773 371.229 385.773 376.189C385.773 381.148 390.492 385.169 396.312 385.169H408.515C414.336 385.169 419.054 381.148 419.054 376.189C419.054 371.229 414.336 367.208 408.515 367.208Z" fill="#D9D9D9"/>
<path d="M408.515 388.386H396.312C390.492 388.386 385.773 392.406 385.773 397.366C385.773 402.325 390.492 406.346 396.312 406.346H408.515C414.336 406.346 419.054 402.325 419.054 397.366C419.054 392.406 414.336 388.386 408.515 388.386Z" fill="#D9D9D9"/>
<path d="M445.787 346.035H433.584C427.763 346.035 423.045 350.056 423.045 355.015C423.045 359.975 427.763 363.995 433.584 363.995H445.787C451.607 363.995 456.326 359.975 456.326 355.015C456.326 350.056 451.607 346.035 445.787 346.035Z" fill="#D9D9D9"/>
<path d="M445.787 367.208H433.584C427.763 367.208 423.045 371.229 423.045 376.189C423.045 381.148 427.763 385.169 433.584 385.169H445.787C451.607 385.169 456.326 381.148 456.326 376.189C456.326 371.229 451.607 367.208 445.787 367.208Z" fill="#D9D9D9"/>
<path d="M445.787 388.386H433.584C427.763 388.386 423.045 392.406 423.045 397.366C423.045 402.325 427.763 406.346 433.584 406.346H445.787C451.607 406.346 456.326 402.325 456.326 397.366C456.326 392.406 451.607 388.386 445.787 388.386Z" fill="#D9D9D9"/>
<path d="M407.594 249.421L388.8 240.591C386.709 239.608 384.199 240.469 383.193 242.513C382.188 244.557 383.068 247.011 385.16 247.993L403.953 256.824C406.045 257.806 408.555 256.946 409.56 254.902C410.566 252.857 409.685 250.404 407.594 249.421Z" fill="#D9D9D9"/>
<path d="M429.976 249.421L448.77 240.591C450.861 239.608 453.372 240.469 454.377 242.513C455.382 244.557 454.502 247.011 452.411 247.993L433.617 256.824C431.526 257.806 429.015 256.946 428.01 254.902C427.005 252.857 427.885 250.404 429.976 249.421Z" fill="#D9D9D9"/>
<path d="M364.236 415.975C360.778 415.975 357.442 416.517 354.285 417.512C357.981 457.085 385.84 487.656 419.89 487.656C454.38 487.656 482.52 456.291 485.628 415.975C485.624 415.975 485.621 415.975 485.618 415.975H364.236Z" fill="#D9D9D9"/>
<rect x="167.386" y="366.21" width="522.622" height="161.295" rx="66.3264" fill="black" stroke="black" stroke-width="2.7072"/>
<path d="M261.491 465.437C257.52 465.437 254.109 464.643 251.258 463.055C248.442 461.43 246.276 459.156 244.76 456.232C243.244 453.273 242.486 449.789 242.486 445.783C242.486 441.776 243.244 438.311 244.76 435.387C246.276 432.463 248.442 430.207 251.258 428.619C254.109 426.995 257.52 426.183 261.491 426.183C264.054 426.183 266.472 426.58 268.746 427.374C271.056 428.168 272.951 429.305 274.431 430.785L272.157 436.307C270.533 434.936 268.872 433.943 267.176 433.33C265.479 432.68 263.657 432.355 261.707 432.355C257.845 432.355 254.903 433.528 252.882 435.874C250.861 438.184 249.85 441.487 249.85 445.783C249.85 450.078 250.861 453.399 252.882 455.745C254.903 458.091 257.845 459.265 261.707 459.265C263.657 459.265 265.479 458.958 267.176 458.344C268.872 457.694 270.533 456.684 272.157 455.312L274.431 460.835C272.951 462.279 271.056 463.416 268.746 464.246C266.472 465.04 264.054 465.437 261.491 465.437ZM296.32 465.437C292.638 465.437 289.408 464.625 286.628 463C283.885 461.376 281.756 459.102 280.239 456.178C278.723 453.218 277.965 449.753 277.965 445.783C277.965 441.776 278.723 438.311 280.239 435.387C281.756 432.463 283.885 430.207 286.628 428.619C289.372 426.995 292.602 426.183 296.32 426.183C300.038 426.183 303.269 426.995 306.012 428.619C308.755 430.207 310.885 432.463 312.401 435.387C313.917 438.311 314.675 441.758 314.675 445.729C314.675 449.735 313.917 453.218 312.401 456.178C310.885 459.102 308.755 461.376 306.012 463C303.269 464.625 300.038 465.437 296.32 465.437ZM296.32 459.481C299.822 459.481 302.547 458.272 304.496 455.853C306.445 453.435 307.42 450.078 307.42 445.783C307.42 441.451 306.445 438.094 304.496 435.712C302.583 433.33 299.858 432.138 296.32 432.138C292.819 432.138 290.094 433.33 288.145 435.712C286.195 438.094 285.221 441.451 285.221 445.783C285.221 450.078 286.195 453.435 288.145 455.853C290.094 458.272 292.819 459.481 296.32 459.481ZM321.831 464.896V426.724H327.624L341.16 451.684L354.642 426.724H360.327V464.896H354.046V439.177L343.109 459.102H339.048L328.111 439.285V464.896H321.831ZM368.728 464.896V426.724H375.659V464.896H368.728ZM383.956 464.896V426.724H389.154L409.675 453.363V426.724H416.118V464.896H410.974L390.399 438.148V464.896H383.956ZM442.813 465.437C438.59 465.437 435.017 464.643 432.093 463.055C429.205 461.466 427.003 459.21 425.487 456.287C423.971 453.363 423.213 449.898 423.213 445.891C423.213 441.848 423.989 438.365 425.541 435.441C427.093 432.481 429.331 430.207 432.255 428.619C435.179 426.995 438.68 426.183 442.759 426.183C445.43 426.183 447.939 426.58 450.285 427.374C452.631 428.132 454.581 429.197 456.133 430.568L453.805 435.983C452.108 434.647 450.375 433.69 448.607 433.113C446.838 432.535 444.889 432.247 442.759 432.247C438.716 432.247 435.648 433.42 433.555 435.766C431.497 438.112 430.468 441.487 430.468 445.891C430.468 450.331 431.533 453.706 433.663 456.016C435.793 458.326 438.951 459.481 443.138 459.481C444.329 459.481 445.539 459.391 446.766 459.21C448.029 458.994 449.274 458.687 450.502 458.29V449.41H441.73V444.267H456.295V462.621C454.526 463.488 452.433 464.174 450.014 464.679C447.596 465.184 445.196 465.437 442.813 465.437ZM492.077 465.437C489.081 465.437 486.301 465.058 483.739 464.3C481.176 463.506 479.01 462.441 477.241 461.105L479.353 455.637C481.122 456.9 483.053 457.875 485.146 458.561C487.276 459.246 489.586 459.589 492.077 459.589C494.928 459.589 497.004 459.12 498.303 458.182C499.603 457.207 500.252 455.962 500.252 454.446C500.252 453.182 499.783 452.19 498.845 451.468C497.942 450.746 496.372 450.15 494.134 449.681L488.178 448.436C481.392 446.992 477.999 443.509 477.999 437.986C477.999 435.604 478.631 433.528 479.894 431.759C481.158 429.991 482.908 428.619 485.146 427.644C487.384 426.67 489.965 426.183 492.889 426.183C495.488 426.183 497.924 426.58 500.198 427.374C502.472 428.132 504.367 429.215 505.883 430.622L503.772 435.82C500.776 433.293 497.13 432.03 492.835 432.03C490.344 432.03 488.395 432.553 486.987 433.6C485.579 434.647 484.876 436.019 484.876 437.715C484.876 439.015 485.309 440.061 486.175 440.856C487.041 441.614 488.521 442.209 490.615 442.642L496.517 443.888C500.09 444.646 502.743 445.837 504.476 447.461C506.244 449.085 507.129 451.251 507.129 453.958C507.129 456.232 506.515 458.236 505.288 459.968C504.061 461.701 502.31 463.055 500.036 464.029C497.798 464.968 495.145 465.437 492.077 465.437ZM530.187 465.437C526.505 465.437 523.274 464.625 520.495 463C517.751 461.376 515.622 459.102 514.106 456.178C512.59 453.218 511.832 449.753 511.832 445.783C511.832 441.776 512.59 438.311 514.106 435.387C515.622 432.463 517.751 430.207 520.495 428.619C523.238 426.995 526.469 426.183 530.187 426.183C533.904 426.183 537.135 426.995 539.878 428.619C542.622 430.207 544.751 432.463 546.267 435.387C547.783 438.311 548.541 441.758 548.541 445.729C548.541 449.735 547.783 453.218 546.267 456.178C544.751 459.102 542.622 461.376 539.878 463C537.135 464.625 533.904 465.437 530.187 465.437ZM530.187 459.481C533.688 459.481 536.413 458.272 538.362 455.853C540.311 453.435 541.286 450.078 541.286 445.783C541.286 441.451 540.311 438.094 538.362 435.712C536.449 433.33 533.724 432.138 530.187 432.138C526.685 432.138 523.96 433.33 522.011 435.712C520.062 438.094 519.087 441.451 519.087 445.783C519.087 450.078 520.062 453.435 522.011 455.853C523.96 458.272 526.685 459.481 530.187 459.481ZM572.698 465.437C569.016 465.437 565.786 464.625 563.006 463C560.263 461.376 558.133 459.102 556.617 456.178C555.101 453.218 554.343 449.753 554.343 445.783C554.343 441.776 555.101 438.311 556.617 435.387C558.133 432.463 560.263 430.207 563.006 428.619C565.75 426.995 568.98 426.183 572.698 426.183C576.416 426.183 579.647 426.995 582.39 428.619C585.133 430.207 587.263 432.463 588.779 435.387C590.295 438.311 591.053 441.758 591.053 445.729C591.053 449.735 590.295 453.218 588.779 456.178C587.263 459.102 585.133 461.376 582.39 463C579.647 464.625 576.416 465.437 572.698 465.437ZM572.698 459.481C576.199 459.481 578.925 458.272 580.874 455.853C582.823 453.435 583.798 450.078 583.798 445.783C583.798 441.451 582.823 438.094 580.874 435.712C578.961 433.33 576.235 432.138 572.698 432.138C569.197 432.138 566.472 433.33 564.522 435.712C562.573 438.094 561.599 441.451 561.599 445.783C561.599 450.078 562.573 453.435 564.522 455.853C566.472 458.272 569.197 459.481 572.698 459.481ZM598.1 464.896V426.724H603.298L623.818 453.363V426.724H630.262V464.896H625.118L604.543 438.148V464.896H598.1Z" fill="white"/>
</svg>
