<svg width="301" height="301" viewBox="0 0 301 301" fill="none" xmlns="http://www.w3.org/2000/svg">
<g clip-path="url(#clip0_2002_21561)">
<path d="M263.757 161.606C263.757 176.607 260.763 191.461 254.945 205.32C249.128 219.179 240.601 231.772 229.852 242.379C219.102 252.986 206.341 261.4 192.296 267.141C178.252 272.882 163.199 275.836 147.997 275.836C132.795 275.836 117.742 272.882 103.697 267.141C89.6524 261.4 76.8911 252.986 66.1418 242.379C55.3924 231.772 46.8656 219.179 41.0481 205.32C35.2306 191.461 32.2363 176.607 32.2363 161.606C32.2363 131.31 44.4325 102.255 66.1418 80.8327C87.851 59.4103 117.295 47.3754 147.997 47.3754C178.698 47.3754 208.142 59.4103 229.852 80.8327C251.561 102.255 263.757 131.31 263.757 161.606Z" fill="#9AB3C2"/>
<path d="M105.742 80.0792C99.9507 80.0792 95.2876 84.7423 95.2876 90.5339V91.8083H95.2493C94.8687 88.074 91.7318 85.1793 87.8937 85.1793H84.8337C80.9956 85.1793 77.8587 88.074 77.4782 91.8083H62.4812C59.185 91.8083 56.5312 94.4621 56.5312 97.7583V105.237C56.5312 108.533 59.185 111.187 62.4812 111.187H113.203C113.614 114.077 116.08 116.287 119.086 116.287H161.752C165.049 116.287 167.702 113.633 167.702 110.337V107.958C167.702 104.662 165.049 102.008 161.752 102.008H149.853V97.7583C149.853 94.4621 147.2 91.8083 143.904 91.8083H120.276V90.5339C120.276 84.7423 115.613 80.0792 109.822 80.0792H105.742ZM220.482 93.8484C215.123 93.8484 210.733 97.8423 210.108 103.028H192.01C188.714 103.028 186.061 105.681 186.061 108.977V110.337C186.061 113.633 188.714 116.287 192.01 116.287H233.656C236.952 116.287 239.606 113.633 239.606 110.337V108.977C239.606 105.681 236.952 103.028 233.656 103.028H232.897C232.271 97.8423 227.882 93.8484 222.522 93.8484H220.482Z" fill="#A4BAC8"/>
<path d="M81.9315 143.162H115.827C142.996 143.162 164.868 165.034 164.868 192.203C164.868 219.371 142.996 241.244 115.827 241.244H81.9315C54.7628 241.244 32.8906 219.371 32.8906 192.203C32.8906 165.034 54.7628 143.162 81.9315 143.162Z" fill="#8E999B"/>
<path d="M67.9787 174.865C92.6989 174.865 112.6 194.766 112.6 219.486V230.195C112.6 254.915 92.6989 274.816 67.9787 274.816C43.2585 274.816 23.3574 254.915 23.3574 230.195V219.486C23.3574 194.766 43.2585 174.865 67.9787 174.865Z" fill="#E8F5FF"/>
<path d="M171.179 122.88H205.479C231.226 122.88 251.953 143.607 251.953 169.354C251.953 195.101 231.226 215.828 205.479 215.828H171.179C145.433 215.828 124.705 195.101 124.705 169.354C124.705 143.607 145.433 122.88 171.179 122.88Z" fill="#8E999B"/>
<path d="M168.654 164.798H172.26C182.748 164.798 191.191 173.241 191.191 183.729C191.191 194.217 182.748 202.66 172.26 202.66H168.654C158.166 202.66 149.723 194.217 149.723 183.729C149.723 173.241 158.166 164.798 168.654 164.798Z" fill="#CAE8FE"/>
<path d="M149.723 183.909H163.426C168.62 183.909 172.801 188.091 172.801 193.285C172.801 198.479 168.62 202.66 163.426 202.66H149.723C144.529 202.66 140.348 198.479 140.348 193.285C140.348 188.091 144.529 183.909 149.723 183.909Z" fill="#CAE8FE"/>
<path d="M119.626 194.753H161.162C187.09 194.753 207.963 212.948 207.963 235.55C207.963 258.151 187.09 276.346 161.162 276.346H119.626C93.6976 276.346 72.8242 258.151 72.8242 235.55C72.8242 212.948 93.6976 194.753 119.626 194.753Z" fill="#E8F5FF"/>
<path d="M216.63 139.168H226.83C252.256 139.168 272.726 159.637 272.726 185.064V235.04C272.726 260.466 252.256 280.936 226.83 280.936H216.63C191.204 280.936 170.734 260.466 170.734 235.04V185.064C170.734 159.637 191.204 139.168 216.63 139.168Z" fill="#E3F3FF"/>
<path d="M231.784 209.6H250.935C263.146 209.6 272.977 219.431 272.977 231.642V241.257C272.977 253.468 263.146 263.299 250.935 263.299H231.784C219.573 263.299 209.742 253.468 209.742 241.257V231.642C209.742 219.431 219.573 209.6 231.784 209.6Z" fill="#C8DFEF"/>
<path d="M175.292 211.434H190.455C200.125 211.434 207.909 219.218 207.909 228.888V236.501C207.909 246.17 200.125 253.955 190.455 253.955H175.292C165.622 253.955 157.838 246.17 157.838 236.501V228.888C157.838 219.218 165.622 211.434 175.292 211.434Z" fill="#CAE8FE"/>
<path d="M223.798 184.621C245.834 184.621 263.575 202.475 263.575 224.652C263.575 246.83 245.834 264.684 223.798 264.684C201.762 264.684 184.021 246.83 184.021 224.652C184.021 202.475 201.762 184.621 223.798 184.621Z" fill="#D3F7FB"/>
<path d="M218.929 188.825C238.469 188.825 254.199 204.656 254.199 224.321C254.199 243.985 238.469 259.816 218.929 259.816C199.39 259.816 183.66 243.985 183.66 224.321C183.66 204.656 199.39 188.825 218.929 188.825Z" fill="#F4FDFE"/>
<path d="M208.185 187.801C207.101 188.264 206.043 188.776 205.012 189.331H215.08V196.095H204.973C204.979 196.06 204.984 196.025 204.984 195.989V189.345C204.497 189.608 204.016 189.881 203.541 190.163V195.989C203.541 196.025 203.547 196.06 203.552 196.095H195.876C195.374 196.592 194.884 197.101 194.409 197.625H198.259C198.251 197.667 198.245 197.71 198.245 197.754V204.966C198.245 205.077 198.272 205.18 198.316 205.274H188.956C188.68 205.777 188.414 206.288 188.16 206.804H192.656V213.981C192.656 214.057 192.671 214.129 192.693 214.198H185.383C185.253 214.687 185.13 215.179 185.018 215.675C185.104 215.708 185.198 215.728 185.296 215.728H189.556C189.53 215.803 189.513 215.881 189.513 215.964V223.176C189.513 223.351 189.578 223.508 189.68 223.633H187.336C186.912 223.633 186.571 223.974 186.571 224.397C186.571 224.821 186.912 225.162 187.336 225.162H195.721V231.83C195.721 232.23 196.043 232.551 196.442 232.551C196.842 232.551 197.163 232.23 197.163 231.83V225.162H206.616V231.83C206.616 232.23 206.937 232.551 207.337 232.551C207.736 232.551 208.059 232.23 208.059 231.83V225.162H217.511V231.83C217.511 232.23 217.833 232.551 218.232 232.551C218.632 232.551 218.954 232.23 218.954 231.83V225.162H228.407V231.83C228.407 232.23 228.728 232.551 229.127 232.551C229.527 232.551 229.848 232.23 229.848 231.83V225.162H239.301V231.83C239.301 232.23 239.623 232.551 240.023 232.551C240.422 232.551 240.744 232.23 240.744 231.83V225.162H250.196V231.83C250.196 232.23 250.518 232.551 250.917 232.551C251.317 232.551 251.639 232.23 251.639 231.83V225.162H261.092V231.83C261.092 232.23 261.413 232.551 261.813 232.551C262.212 232.551 262.534 232.23 262.534 231.83V225.162H263.568C263.57 224.992 263.574 224.823 263.574 224.653C263.574 224.312 263.57 223.971 263.562 223.633H256.16C256.262 223.508 256.326 223.351 256.326 223.176V215.964C256.326 215.881 256.309 215.803 256.284 215.728H262.589C262.474 215.214 262.347 214.704 262.212 214.198H259.432C259.453 214.129 259.469 214.057 259.469 213.981V206.87C259.204 206.331 258.927 205.799 258.64 205.274H254.092C254.136 205.18 254.163 205.077 254.163 204.966V198.742C253.388 197.823 252.574 196.94 251.72 196.095H237.617V189.331H242.584C241.552 188.776 240.494 188.264 239.41 187.801H208.185ZM216.523 189.331H224.636V196.095H216.523V189.331ZM226.079 189.331H236.175V196.095H226.079V189.331ZM199.675 197.625H209.153C209.146 197.667 209.14 197.71 209.14 197.754V204.966C209.14 205.077 209.167 205.18 209.211 205.274H199.616C199.66 205.18 199.687 205.077 199.687 204.966V197.754C199.687 197.71 199.682 197.667 199.675 197.625ZM210.569 197.625H220.048C220.041 197.667 220.035 197.71 220.035 197.754V204.966C220.035 205.077 220.062 205.18 220.106 205.274H210.511C210.556 205.18 210.582 205.077 210.582 204.966V197.754C210.582 197.71 210.577 197.667 210.569 197.625ZM221.464 197.625H230.944C230.936 197.667 230.93 197.71 230.93 197.754V204.966C230.93 205.077 230.957 205.18 231.002 205.274H221.407C221.451 205.18 221.478 205.077 221.478 204.966V197.754C221.478 197.71 221.472 197.667 221.464 197.625ZM232.36 197.625H241.839C241.831 197.667 241.826 197.71 241.826 197.754V204.966C241.826 205.077 241.853 205.18 241.897 205.274H232.302C232.346 205.18 232.373 205.077 232.373 204.966V197.754C232.373 197.71 232.367 197.667 232.36 197.625ZM243.255 197.625H252.733C252.726 197.667 252.72 197.71 252.72 197.754V204.966C252.72 205.077 252.747 205.18 252.791 205.274H243.196C243.241 205.18 243.268 205.077 243.268 204.966V197.754C243.268 197.71 243.263 197.667 243.255 197.625H243.255ZM194.098 206.804H203.551V213.981C203.551 214.057 203.566 214.129 203.588 214.198H194.061C194.083 214.129 194.098 214.057 194.098 213.981V206.804ZM204.994 206.804H214.446V213.981C214.446 214.057 214.462 214.129 214.483 214.198H204.957C204.978 214.129 204.994 214.057 204.994 213.981V206.804ZM215.888 206.804H225.341V213.981C225.341 214.057 225.356 214.129 225.378 214.198H215.851C215.873 214.129 215.888 214.057 215.888 213.981V206.804ZM226.783 206.804H236.236V213.981C236.236 214.057 236.251 214.129 236.273 214.198H226.746C226.768 214.129 226.783 214.057 226.783 213.981V206.804ZM237.679 206.804H247.131V213.981C247.131 214.057 247.147 214.129 247.168 214.198H237.642C237.663 214.129 237.679 214.057 237.679 213.981V206.804ZM248.574 206.804H258.027V213.981C258.027 214.057 258.042 214.129 258.064 214.198H248.537C248.559 214.129 248.574 214.057 248.574 213.981V206.804ZM190.913 215.728H200.451C200.426 215.803 200.409 215.881 200.409 215.964V223.176C200.409 223.351 200.473 223.508 200.575 223.633H190.789C190.892 223.508 190.956 223.351 190.956 223.176V215.964C190.956 215.881 190.939 215.803 190.913 215.728ZM201.809 215.728H211.347C211.321 215.803 211.304 215.881 211.304 215.964V223.176C211.304 223.351 211.368 223.508 211.471 223.633H201.684C201.787 223.508 201.851 223.351 201.851 223.176V215.964C201.851 215.881 201.834 215.803 201.809 215.728ZM212.703 215.728H222.241C222.215 215.803 222.199 215.881 222.199 215.964V223.176C222.199 223.351 222.263 223.508 222.366 223.633H212.579C212.682 223.508 212.746 223.351 212.746 223.176V215.964C212.746 215.881 212.729 215.803 212.703 215.728ZM223.599 215.728H233.136C233.111 215.803 233.094 215.881 233.094 215.964V223.176C233.094 223.351 233.158 223.508 233.26 223.633H223.474C223.577 223.508 223.641 223.351 223.641 223.176V215.964C223.641 215.881 223.624 215.803 223.599 215.728ZM234.494 215.728H244.032C244.006 215.803 243.989 215.881 243.989 215.964V223.176C243.989 223.351 244.053 223.508 244.156 223.633H234.37C234.472 223.508 234.536 223.351 234.536 223.176V215.964C234.536 215.881 234.52 215.803 234.494 215.728ZM245.389 215.728H254.927C254.901 215.803 254.884 215.881 254.884 215.964V223.176C254.884 223.351 254.948 223.508 255.051 223.633H245.264C245.367 223.508 245.432 223.351 245.432 223.176V215.964C245.432 215.881 245.415 215.803 245.389 215.728ZM185.547 223.898C185.148 223.898 184.826 224.219 184.826 224.618V231.83C184.826 232.23 185.148 232.551 185.547 232.551C185.947 232.551 186.268 232.23 186.268 231.83V224.618C186.268 224.219 185.947 223.898 185.547 223.898Z" fill="#CAE8FE"/>
<path d="M218.93 188.825C216.893 188.825 214.897 189 212.956 189.331H215.08V196.095H204.973C204.979 196.06 204.984 196.025 204.984 195.989V191.691C204.497 191.901 204.016 192.12 203.541 192.351V195.989C203.541 196.025 203.547 196.06 203.552 196.095H197.496C196.86 196.584 196.241 197.094 195.641 197.625H198.259C198.251 197.667 198.245 197.71 198.245 197.754V204.966C198.245 205.077 198.272 205.18 198.316 205.274H189.133C188.816 205.775 188.512 206.286 188.221 206.804H192.656V213.981C192.656 214.057 192.671 214.129 192.693 214.198H185.383C185.253 214.687 185.13 215.179 185.018 215.675C185.104 215.708 185.198 215.728 185.296 215.728H189.556C189.53 215.803 189.513 215.881 189.513 215.964V223.176C189.513 223.351 189.578 223.508 189.68 223.633H187.336C186.912 223.633 186.571 223.974 186.571 224.397C186.571 224.821 186.912 225.162 187.336 225.162H195.721V231.83C195.721 232.23 196.043 232.551 196.442 232.551C196.842 232.551 197.163 232.23 197.163 231.83V225.162H206.616V231.83C206.616 232.23 206.937 232.551 207.337 232.551C207.736 232.551 208.059 232.23 208.059 231.83V225.162H217.511V231.83C217.511 232.23 217.833 232.551 218.232 232.551C218.632 232.551 218.954 232.23 218.954 231.83V225.162H228.407V231.83C228.407 232.23 228.728 232.551 229.127 232.551C229.527 232.551 229.848 232.23 229.848 231.83V225.162H239.301V231.83C239.301 232.23 239.623 232.551 240.023 232.551C240.422 232.551 240.744 232.23 240.744 231.83V225.162H250.196V231.83C250.196 232.23 250.518 232.551 250.917 232.551C251.317 232.551 251.639 232.23 251.639 231.83V225.162H254.189C254.195 224.882 254.199 224.602 254.199 224.321C254.199 224.091 254.195 223.862 254.191 223.633H245.264C245.367 223.508 245.432 223.351 245.432 223.176V215.964C245.432 215.881 245.415 215.803 245.389 215.728H253.164C253.038 215.214 252.901 214.704 252.752 214.198H248.537C248.559 214.129 248.574 214.057 248.574 213.981V206.804H249.639C249.347 206.286 249.043 205.775 248.727 205.274H243.196C243.241 205.18 243.268 205.077 243.268 204.966V198.587C242.346 197.704 241.377 196.873 240.364 196.095H237.617V194.183C237.144 193.886 236.663 193.6 236.175 193.325V196.095H226.079V189.549C223.771 189.074 221.381 188.825 218.93 188.825H218.93ZM216.523 189.331H224.636V196.095H216.523V189.331ZM199.675 197.625H209.153C209.146 197.667 209.14 197.71 209.14 197.754V204.966C209.14 205.077 209.167 205.18 209.211 205.274H199.616C199.66 205.18 199.687 205.077 199.687 204.966V197.754C199.687 197.71 199.682 197.667 199.675 197.625ZM210.569 197.625H220.048C220.041 197.667 220.035 197.71 220.035 197.754V204.966C220.035 205.077 220.062 205.18 220.106 205.274H210.511C210.556 205.18 210.582 205.077 210.582 204.966V197.754C210.582 197.71 210.577 197.667 210.569 197.625ZM221.464 197.625H230.944C230.936 197.667 230.93 197.71 230.93 197.754V204.966C230.93 205.077 230.957 205.18 231.002 205.274H221.407C221.451 205.18 221.478 205.077 221.478 204.966V197.754C221.478 197.71 221.472 197.667 221.464 197.625ZM232.36 197.625H241.839C241.831 197.667 241.826 197.71 241.826 197.754V204.966C241.826 205.077 241.853 205.18 241.897 205.274H232.302C232.346 205.18 232.373 205.077 232.373 204.966V197.754C232.373 197.71 232.367 197.667 232.36 197.625ZM194.098 206.804H203.551V213.981C203.551 214.057 203.566 214.129 203.588 214.198H194.061C194.083 214.129 194.098 214.057 194.098 213.981V206.804ZM204.994 206.804H214.446V213.981C214.446 214.057 214.462 214.129 214.483 214.198H204.957C204.978 214.129 204.994 214.057 204.994 213.981V206.804ZM215.888 206.804H225.341V213.981C225.341 214.057 225.356 214.129 225.378 214.198H215.851C215.873 214.129 215.888 214.057 215.888 213.981V206.804ZM226.783 206.804H236.236V213.981C236.236 214.057 236.251 214.129 236.273 214.198H226.746C226.768 214.129 226.783 214.057 226.783 213.981V206.804ZM237.679 206.804H247.131V213.981C247.131 214.057 247.147 214.129 247.168 214.198H237.642C237.663 214.129 237.679 214.057 237.679 213.981V206.804ZM190.913 215.728H200.451C200.426 215.803 200.409 215.881 200.409 215.964V223.176C200.409 223.351 200.473 223.508 200.575 223.633H190.789C190.892 223.508 190.956 223.351 190.956 223.176V215.964C190.956 215.881 190.939 215.803 190.913 215.728ZM201.809 215.728H211.347C211.321 215.803 211.304 215.881 211.304 215.964V223.176C211.304 223.351 211.368 223.508 211.471 223.633H201.684C201.787 223.508 201.851 223.351 201.851 223.176V215.964C201.851 215.881 201.834 215.803 201.809 215.728ZM212.703 215.728H222.241C222.215 215.803 222.199 215.881 222.199 215.964V223.176C222.199 223.351 222.263 223.508 222.366 223.633H212.579C212.682 223.508 212.746 223.351 212.746 223.176V215.964C212.746 215.881 212.729 215.803 212.703 215.728ZM223.599 215.728H233.136C233.111 215.803 233.094 215.881 233.094 215.964V223.176C233.094 223.351 233.158 223.508 233.26 223.633H223.474C223.577 223.508 223.641 223.351 223.641 223.176V215.964C223.641 215.881 223.624 215.803 223.599 215.728ZM234.494 215.728H244.032C244.006 215.803 243.989 215.881 243.989 215.964V223.176C243.989 223.351 244.053 223.508 244.156 223.633H234.37C234.472 223.508 234.536 223.351 234.536 223.176V215.964C234.536 215.881 234.52 215.803 234.494 215.728ZM185.547 223.898C185.148 223.898 184.826 224.219 184.826 224.618V231.83C184.826 232.23 185.148 232.551 185.547 232.551C185.947 232.551 186.268 232.23 186.268 231.83V224.618C186.268 224.219 185.947 223.898 185.547 223.898Z" fill="#D2ECFF"/>
<path d="M187.043 215.641H197.23C206.22 215.641 213.457 222.879 213.457 231.868C213.457 240.858 206.22 248.095 197.23 248.095H187.043C178.054 248.095 170.816 240.858 170.816 231.868C170.816 222.879 178.054 215.641 187.043 215.641Z" fill="#E5F8FA"/>
<path d="M187.043 215.641C185.481 215.641 183.975 215.864 182.548 216.272V222.925C182.548 222.961 182.554 222.996 182.559 223.031H173.421C173.102 223.523 172.809 224.033 172.544 224.56H177.265C177.257 224.603 177.252 224.646 177.252 224.69V231.902C177.252 232.013 177.279 232.116 177.323 232.21H170.824C170.835 232.726 170.869 233.237 170.926 233.74H171.662V237.057C172.033 238.164 172.517 239.217 173.105 240.201V233.74H182.558V240.917C182.558 240.993 182.573 241.065 182.594 241.134H173.708C174.079 241.668 174.481 242.179 174.913 242.664H179.458C179.432 242.738 179.415 242.817 179.415 242.9V246.203C179.883 246.451 180.364 246.677 180.858 246.88V242.9C180.858 242.817 180.841 242.738 180.815 242.664H190.353C190.327 242.738 190.31 242.817 190.31 242.9V248.095H191.752V242.9C191.752 242.817 191.735 242.738 191.71 242.664H201.248C201.222 242.738 201.205 242.817 201.205 242.9V247.606C201.695 247.483 202.176 247.338 202.648 247.172V242.9C202.648 242.817 202.631 242.738 202.605 242.664H209.36C209.791 242.179 210.193 241.668 210.564 241.134H205.753C205.775 241.065 205.79 240.993 205.79 240.917V233.74H213.347C213.404 233.237 213.437 232.726 213.448 232.21H211.308C211.353 232.116 211.379 232.013 211.379 231.902V224.69C211.379 224.646 211.374 224.603 211.365 224.56H211.366H211.728C211.463 224.033 211.17 223.523 210.851 223.031H205.085V217.656C204.618 217.398 204.137 217.163 203.642 216.951V223.031H195.529V216.267H201.704C200.283 215.862 198.784 215.641 197.23 215.641H187.043ZM183.99 216.267H194.087V223.031H183.98C183.985 222.996 183.991 222.961 183.991 222.925L183.99 216.267ZM178.681 224.56H188.16C188.151 224.603 188.146 224.646 188.146 224.69V231.902C188.146 232.013 188.173 232.116 188.217 232.21H178.622C178.667 232.116 178.694 232.013 178.694 231.902V224.69C178.694 224.646 178.688 224.603 178.681 224.56H178.681ZM189.575 224.56H189.576H199.055C199.047 224.603 199.042 224.646 199.042 224.69V231.902C199.042 232.013 199.068 232.116 199.113 232.21H189.518C189.562 232.116 189.589 232.013 189.589 231.902V224.69C189.589 224.646 189.583 224.603 189.575 224.56H189.575ZM200.47 224.56H200.471H209.95C209.942 224.603 209.937 224.646 209.937 224.69V231.902C209.937 232.013 209.964 232.116 210.008 232.21H200.413C200.457 232.116 200.484 232.013 200.484 231.902V224.69C200.484 224.646 200.478 224.603 200.47 224.56ZM184 233.74H193.453V240.917C193.453 240.993 193.468 241.065 193.49 241.134H183.963C183.985 241.065 184 240.993 184 240.917V233.74ZM194.895 233.74H204.347V240.917C204.347 240.993 204.363 241.065 204.384 241.134H194.858C194.879 241.065 194.895 240.993 194.895 240.917V233.74Z" fill="#CAE8FE"/>
<path d="M179.831 215.641C184.825 215.641 188.846 222.879 188.846 231.868C188.846 240.858 184.825 248.095 179.831 248.095C174.837 248.095 170.816 240.858 170.816 231.868C170.816 222.879 174.837 215.641 179.831 215.641Z" fill="#F4FDFE"/>
<path d="M179.066 220.282C182.083 220.282 184.511 225.052 184.511 230.976C184.511 236.9 182.083 241.67 179.066 241.67C176.05 241.67 173.621 236.9 173.621 230.976C173.621 225.052 176.05 220.282 179.066 220.282Z" fill="#89C4EF"/>
<path d="M37.4096 233.067H268.42C277.602 233.067 284.994 241.937 284.994 252.955C284.994 263.973 277.602 272.844 268.42 272.844H37.4096C28.2278 272.844 20.8359 263.973 20.8359 252.955C20.8359 241.937 28.2278 233.067 37.4096 233.067Z" fill="#AFD6F3"/>
<path d="M37.4096 233.067H268.42C277.602 233.067 284.994 240.329 284.994 249.349C284.994 258.37 277.602 265.632 268.42 265.632H37.4096C28.2278 265.632 20.8359 258.37 20.8359 249.349C20.8359 240.329 28.2278 233.067 37.4096 233.067Z" fill="#E0F2FE"/>
<path d="M57.3579 258.674H238.632C247.327 258.674 254.326 265.674 254.326 274.368C254.326 283.062 247.327 290.062 238.632 290.062H57.3579C48.6635 290.062 41.6641 283.062 41.6641 274.368C41.6641 265.674 48.6635 258.674 57.3579 258.674Z" fill="#AFD6F3"/>
<path d="M53.5716 257.232H242.419C249.015 257.232 254.326 262.864 254.326 269.861C254.326 276.857 249.015 282.489 242.419 282.489H53.5716C46.9748 282.489 41.6641 276.857 41.6641 269.861C41.6641 262.864 46.9748 257.232 53.5716 257.232Z" fill="#F4FDFE"/>
<path d="M94.0218 264.148H205.4C208.964 264.148 211.834 267.017 211.834 270.582C211.834 274.146 208.964 277.016 205.4 277.016H94.0218C90.4574 277.016 87.5879 274.146 87.5879 270.582C87.5879 267.017 90.4574 264.148 94.0218 264.148Z" fill="#CAE8FE"/>
<path d="M102.414 266.953H197.004C199.015 266.953 200.633 268.571 200.633 270.582C200.633 272.592 199.015 274.211 197.004 274.211H102.414C100.404 274.211 98.7852 272.592 98.7852 270.582C98.7852 268.571 100.404 266.953 102.414 266.953Z" fill="#AFD6F3"/>
<path d="M147.177 227.967H151.002C153.474 227.967 155.464 229.957 155.464 232.429C155.464 234.901 153.474 236.891 151.002 236.891H147.177C144.705 236.891 142.715 234.901 142.715 232.429C142.715 229.957 144.705 227.967 147.177 227.967Z" fill="#CAE8FE"/>
<path d="M46.0573 235.649H148.827C153.421 235.649 157.12 239.348 157.12 243.943C157.12 248.538 153.421 252.237 148.827 252.237H46.0573C41.4626 252.237 37.7637 248.538 37.7637 243.943C37.7637 239.348 41.4626 235.649 46.0573 235.649Z" fill="#57C1E2"/>
<path d="M236.638 236.855H265.666C267.763 236.855 269.452 238.543 269.452 240.641C269.452 242.738 267.763 244.427 265.666 244.427H236.638C234.54 244.427 232.852 242.738 232.852 240.641C232.852 238.543 234.54 236.855 236.638 236.855Z" fill="#F4FDFE"/>
<path d="M266.646 247.154H269.711C271.808 247.154 273.497 248.843 273.497 250.94V252.743C273.497 254.841 271.808 256.53 269.711 256.53H266.646C264.548 256.53 262.859 254.841 262.859 252.743V250.94C262.859 248.843 264.548 247.154 266.646 247.154Z" fill="#F4FDFE"/>
<path d="M226.001 237.576C227.1 237.576 227.984 238.46 227.984 239.559V239.92C227.984 241.018 227.1 241.903 226.001 241.903C224.902 241.903 224.018 241.018 224.018 239.92V239.559C224.018 238.46 224.902 237.576 226.001 237.576Z" fill="#F4FDFE"/>
<path d="M230.598 247.492H248.087C250.034 247.492 251.602 249.06 251.602 251.008C251.602 252.956 250.034 254.524 248.087 254.524H230.598C228.65 254.524 227.082 252.956 227.082 251.008C227.082 249.06 228.65 247.492 230.598 247.492Z" fill="#F4FDFE"/>
<path d="M38.3008 255.25H51.5597C55.1618 255.25 58.0616 258.15 58.0616 261.752C58.0616 265.354 55.1618 268.254 51.5597 268.254H38.3008C34.6987 268.254 31.7988 265.354 31.7988 261.752C31.7988 258.15 34.6987 255.25 38.3008 255.25Z" fill="#F4FDFE"/>
<path d="M69.1525 105.322C71.4832 105.322 73.3596 107.199 73.3596 109.529V110.039C73.3596 112.37 71.4832 114.247 69.1525 114.247C66.8217 114.247 64.9453 112.37 64.9453 110.039V109.529C64.9453 107.199 66.8217 105.322 69.1525 105.322Z" fill="#F4FDFE"/>
<path d="M79.6059 122.661C80.9478 122.661 82.0282 123.741 82.0282 125.083C82.0282 126.425 80.9478 127.505 79.6059 127.505C78.2639 127.505 77.1836 126.425 77.1836 125.083C77.1836 123.741 78.2639 122.661 79.6059 122.661Z" fill="#F4FDFE"/>
<path d="M46.0763 158.528C47.6301 158.528 48.881 159.779 48.881 161.333V161.673C48.881 163.226 47.6301 164.477 46.0763 164.477C44.5224 164.477 43.2715 163.226 43.2715 161.673V161.333C43.2715 159.779 44.5224 158.528 46.0763 158.528Z" fill="#F4FDFE"/>
<path d="M66.8559 158.358C68.1978 158.358 69.2782 159.438 69.2782 160.78C69.2782 162.122 68.1978 163.203 66.8559 163.203C65.5139 163.203 64.4336 162.122 64.4336 160.78C64.4336 159.438 65.5139 158.358 66.8559 158.358Z" fill="#F4FDFE"/>
<path d="M65.1993 135.835C66.7531 135.835 68.0041 137.086 68.0041 138.639V138.979C68.0041 140.533 66.7531 141.784 65.1993 141.784C63.6455 141.784 62.3945 140.533 62.3945 138.979V138.639C62.3945 137.086 63.6455 135.835 65.1993 135.835Z" fill="#F4FDFE"/>
<path d="M81.6793 147.734C82.5739 147.734 83.2941 148.455 83.2941 149.349V149.545C83.2941 150.44 82.5739 151.16 81.6793 151.16C80.7847 151.16 80.0645 150.44 80.0645 149.545V149.349C80.0645 148.455 80.7847 147.734 81.6793 147.734Z" fill="#F4FDFE"/>
<path d="M92.4957 95.0875C93.3903 95.0875 94.1105 95.8077 94.1105 96.7023V96.8981C94.1105 97.7927 93.3903 98.5129 92.4957 98.5129C91.6011 98.5129 90.8809 97.7927 90.8809 96.8981V96.7023C90.8809 95.8077 91.6011 95.0875 92.4957 95.0875Z" fill="#F4FDFE"/>
<path d="M232.85 115.012C235.18 115.012 237.057 116.888 237.057 119.219V119.729C237.057 122.059 235.18 123.936 232.85 123.936C230.519 123.936 228.643 122.059 228.643 119.729V119.219C228.643 116.888 230.519 115.012 232.85 115.012Z" fill="#F4FDFE"/>
<path d="M243.303 132.35C244.645 132.35 245.725 133.431 245.725 134.773C245.725 136.114 244.645 137.195 243.303 137.195C241.961 137.195 240.881 136.114 240.881 134.773C240.881 133.431 241.961 132.35 243.303 132.35Z" fill="#F4FDFE"/>
<path d="M241.008 157.338C243.339 157.338 245.215 159.214 245.215 161.545V162.055C245.215 164.386 243.339 166.262 241.008 166.262C238.677 166.262 236.801 164.386 236.801 162.055V161.545C236.801 159.214 238.677 157.338 241.008 157.338Z" fill="#F4FDFE"/>
<path d="M251.461 174.677C252.803 174.677 253.884 175.757 253.884 177.099C253.884 178.441 252.803 179.521 251.461 179.521C250.119 179.521 249.039 178.441 249.039 177.099C249.039 175.757 250.119 174.677 251.461 174.677Z" fill="#F4FDFE"/>
<path d="M65.5841 179.776C67.9149 179.776 69.7913 181.653 69.7913 183.983V184.493C69.7913 186.824 67.9149 188.701 65.5841 188.701C63.2533 188.701 61.377 186.824 61.377 184.493V183.983C61.377 181.653 63.2533 179.776 65.5841 179.776Z" fill="#F4FDFE"/>
<path d="M76.0375 197.115C77.3795 197.115 78.4598 198.195 78.4598 199.537C78.4598 200.879 77.3795 201.959 76.0375 201.959C74.6956 201.959 73.6152 200.879 73.6152 199.537C73.6152 198.195 74.6956 197.115 76.0375 197.115Z" fill="#F4FDFE"/>
<path d="M170.467 75.1818C168.136 75.1818 166.26 77.0581 166.26 79.3889V79.8989C166.26 82.2296 168.136 84.106 170.467 84.106C172.797 84.106 174.674 82.2296 174.674 79.8989V79.3889C174.674 77.0581 172.797 75.1818 170.467 75.1818Z" fill="#F4FDFE"/>
<path d="M160.013 92.5204C158.671 92.5204 157.591 93.6007 157.591 94.9427C157.591 96.2846 158.671 97.365 160.013 97.365C161.355 97.365 162.436 96.2846 162.436 94.9427C162.436 93.6007 161.355 92.5204 160.013 92.5204Z" fill="#F4FDFE"/>
<path d="M193.541 128.387C191.987 128.387 190.736 129.638 190.736 131.192V131.532C190.736 133.086 191.987 134.337 193.541 134.337C195.095 134.337 196.346 133.086 196.346 131.532V131.192C196.346 129.638 195.095 128.387 193.541 128.387Z" fill="#F4FDFE"/>
<path d="M172.761 128.217C171.419 128.217 170.339 129.298 170.339 130.64C170.339 131.982 171.419 133.062 172.761 133.062C174.103 133.062 175.184 131.982 175.184 130.64C175.184 129.298 174.103 128.217 172.761 128.217Z" fill="#F4FDFE"/>
<path d="M174.418 105.694C172.864 105.694 171.613 106.945 171.613 108.499V108.839C171.613 110.393 172.864 111.644 174.418 111.644C175.972 111.644 177.223 110.393 177.223 108.839V108.499C177.223 106.945 175.972 105.694 174.418 105.694Z" fill="#F4FDFE"/>
<path d="M157.938 117.594C157.043 117.594 156.323 118.314 156.323 119.209V119.405C156.323 120.299 157.043 121.019 157.938 121.019C158.833 121.019 159.553 120.299 159.553 119.405V119.209C159.553 118.314 158.833 117.594 157.938 117.594Z" fill="#F4FDFE"/>
<path d="M147.122 64.9471C146.227 64.9471 145.507 65.6673 145.507 66.5619V66.7577C145.507 67.6523 146.227 68.3725 147.122 68.3725C148.016 68.3725 148.736 67.6523 148.736 66.7577V66.5619C148.736 65.6673 148.016 64.9471 147.122 64.9471Z" fill="#F4FDFE"/>
<path d="M124.156 125.024C121.99 125.024 120.247 126.767 120.247 128.932V129.406C120.247 131.572 121.99 133.315 124.156 133.315C126.321 133.315 128.064 131.572 128.064 129.406V128.932C128.064 126.767 126.321 125.024 124.156 125.024Z" fill="#F4FDFE"/>
<path d="M114.443 141.132C113.196 141.132 112.192 142.136 112.192 143.383C112.192 144.63 113.196 145.633 114.443 145.633C115.69 145.633 116.693 144.63 116.693 143.383C116.693 142.136 115.69 141.132 114.443 141.132Z" fill="#F4FDFE"/>
<path d="M145.595 174.455C144.152 174.455 142.99 175.618 142.99 177.061V177.377C142.99 178.821 144.152 179.983 145.595 179.983C147.039 179.983 148.201 178.821 148.201 177.377V177.061C148.201 175.618 147.039 174.455 145.595 174.455Z" fill="#F4FDFE"/>
<path d="M126.289 174.298C125.042 174.298 124.038 175.301 124.038 176.548C124.038 177.795 125.042 178.799 126.289 178.799C127.535 178.799 128.539 177.795 128.539 176.548C128.539 175.301 127.535 174.298 126.289 174.298Z" fill="#F4FDFE"/>
<path d="M127.828 153.372C126.384 153.372 125.222 154.534 125.222 155.978V156.294C125.222 157.737 126.384 158.899 127.828 158.899C129.271 158.899 130.434 157.737 130.434 156.294V155.978C130.434 154.534 129.271 153.372 127.828 153.372Z" fill="#F4FDFE"/>
<path d="M112.517 164.428C111.686 164.428 111.017 165.097 111.017 165.928V166.11C111.017 166.941 111.686 167.61 112.517 167.61C113.348 167.61 114.018 166.941 114.018 166.11V165.928C114.018 165.097 113.348 164.428 112.517 164.428Z" fill="#F4FDFE"/>
<path d="M102.468 115.515C101.637 115.515 100.968 116.184 100.968 117.015V117.197C100.968 118.028 101.637 118.697 102.468 118.697C103.3 118.697 103.969 118.028 103.969 117.197V117.015C103.969 116.184 103.3 115.515 102.468 115.515Z" fill="#F4FDFE"/>
<path d="M96.805 192.383H136.651C139.897 192.383 142.51 194.997 142.51 198.243C142.51 201.489 139.897 204.102 136.651 204.102H96.805C93.5587 204.102 90.9453 201.489 90.9453 198.243C90.9453 194.997 93.5587 192.383 96.805 192.383Z" fill="#F4FDFE"/>
<path d="M152.878 195.628H156.484C158.632 195.628 160.361 197.357 160.361 199.505C160.361 201.652 158.632 203.381 156.484 203.381H152.878C150.731 203.381 149.002 201.652 149.002 199.505C149.002 197.357 150.731 195.628 152.878 195.628Z" fill="#F4FDFE"/>
<path d="M164.688 185.712H178.391C181.687 185.712 184.34 188.366 184.34 191.662C184.34 194.958 181.687 197.612 178.391 197.612H164.688C161.392 197.612 158.738 194.958 158.738 191.662C158.738 188.366 161.392 185.712 164.688 185.712Z" fill="#E3F3FF"/>
<path d="M165.789 246.581H212.705C216.59 246.581 219.717 249.708 219.717 253.592C219.717 257.477 216.59 260.604 212.705 260.604H165.789C161.905 260.604 158.777 257.477 158.777 253.592C158.777 249.708 161.905 246.581 165.789 246.581Z" fill="#F4FDFE"/>
<path d="M179.388 238.593H214.919C217.861 238.593 220.229 240.961 220.229 243.903C220.229 246.845 217.861 249.214 214.919 249.214H179.388C176.447 249.214 174.078 246.845 174.078 243.903C174.078 240.961 176.447 238.593 179.388 238.593Z" fill="#F4FDFE"/>
<path d="M74.6419 235.649L63.375 252.236H74.9138L86.1807 235.649H74.6419ZM90.8687 235.649L79.6018 252.236H83.2078L94.4746 235.649H90.8687ZM104.21 235.649L92.9436 252.236H96.5495L107.816 235.649H104.21Z" fill="#8DD5EB"/>
<path d="M167.569 96.4211C164.145 98.6685 163.449 103.619 166.008 107.521L179.864 128.651C182.423 132.553 187.24 133.885 190.664 131.638C194.088 129.39 194.785 124.44 192.226 120.538L178.369 99.4078C175.81 95.5058 170.993 94.1738 167.569 96.4211Z" fill="#C98F62"/>
<path d="M180.172 109.77C178.519 110.855 178.062 113.06 179.146 114.713L180.825 117.271C181.91 118.925 184.114 119.382 185.767 118.297C187.42 117.212 187.877 115.008 186.793 113.354L185.114 110.796C184.03 109.143 181.825 108.685 180.172 109.77Z" fill="#D09D75"/>
<path d="M184.84 121.235L184.002 121.785C180.102 124.345 179.022 129.547 181.581 133.449L186.607 141.108C189.166 145.01 194.367 146.089 198.268 143.529L199.106 142.979C203.006 140.419 204.086 135.217 201.526 131.316L196.501 123.656C193.941 119.755 188.741 118.675 184.84 121.235Z" fill="#D09D75"/>
<path d="M192.773 134.723C189.58 136.819 188.927 141.431 191.31 145.063L195.574 151.563C197.957 155.196 202.446 156.433 205.64 154.337C208.833 152.241 209.485 147.629 207.102 143.997L202.838 137.497C200.455 133.864 195.966 132.628 192.773 134.723Z" fill="#D09D75"/>
<path d="M190.389 122.902C188.736 123.987 188.279 126.191 189.363 127.844L191.042 130.403C192.126 132.056 194.33 132.514 195.984 131.429C197.637 130.344 198.094 128.139 197.009 126.486L195.331 123.928C194.246 122.274 192.042 121.817 190.389 122.902Z" fill="#D5A884"/>
<path d="M196.512 139.922C193.191 142.102 192.436 146.78 194.819 150.412L195.575 151.564C197.958 155.196 202.55 156.366 205.871 154.186C209.192 152.007 209.947 147.328 207.563 143.696L206.808 142.545C204.424 138.913 199.832 137.743 196.512 139.922Z" fill="#C98F62"/>
<path d="M137.892 92.8457H156.109C164.343 92.8457 170.972 99.4746 170.972 107.709V124.451C170.972 132.685 164.343 139.313 156.109 139.313H137.892C129.658 139.313 123.029 132.685 123.029 124.451V107.709C123.029 99.4746 129.658 92.8457 137.892 92.8457Z" fill="#C68858"/>
<path d="M146.999 87.2338C158.109 87.2338 167.053 97.2173 167.053 109.618V134.833C167.053 147.234 158.109 157.217 146.999 157.217C135.889 157.217 126.945 147.234 126.945 134.833V109.618C126.945 97.2173 135.889 87.2338 146.999 87.2338Z" fill="#C68858"/>
<path d="M146.411 129.728H147.263C161.368 129.728 169.389 141.262 171.704 155.188L172.724 161.323C175.037 175.238 161.368 186.784 147.263 186.784H146.411C132.306 186.784 118.638 175.238 120.951 161.323L121.971 155.188C124.286 141.262 132.306 129.728 146.411 129.728Z" fill="#C98F62"/>
<path d="M146.838 134.697C156.329 134.697 163.97 143.24 163.97 153.852V158.468C163.97 169.08 156.329 177.623 146.838 177.623C137.348 177.623 129.707 169.08 129.707 158.468V153.852C129.707 143.24 137.348 134.697 146.838 134.697Z" fill="#D09D75"/>
<path d="M147.155 64.5378C152.424 64.5378 156.666 72.2053 156.666 81.7295V88.7824C156.666 98.3066 152.424 105.974 147.155 105.974C141.886 105.974 137.645 98.3066 137.645 88.7824V81.7295C137.645 72.2053 141.886 64.5378 147.155 64.5378Z" fill="#D09D75"/>
<path d="M130.526 105.717C131.719 101.815 129.087 97.5818 124.624 96.2266L100.455 88.8882C95.9914 87.5331 91.4372 89.5839 90.2436 93.4865C89.05 97.3891 91.6822 101.622 96.1454 102.977L120.315 110.315C124.778 111.671 129.332 109.62 130.526 105.717Z" fill="#C98F62"/>
<path d="M96.5879 101.591L97.5426 101.293C101.987 99.9088 104.452 95.2111 103.07 90.7603L100.358 82.0217C98.976 77.571 94.2862 75.1025 89.8423 76.487L88.8876 76.7845C84.4436 78.169 81.9783 82.8667 83.3599 87.3175L86.0725 96.0561C87.4541 100.507 92.144 102.975 96.5879 101.591Z" fill="#D09D75"/>
<path d="M92.1165 86.9161C95.8112 85.7645 97.7508 81.5004 96.4652 77.3553L94.0246 69.4858C92.7391 65.3407 88.7297 62.9307 85.0349 64.0823C81.3402 65.2338 79.4006 69.498 80.6862 73.6431L83.1268 81.5126C84.4123 85.6577 88.4217 88.0677 92.1165 86.9161Z" fill="#D09D75"/>
<path d="M99.2142 96.5882C101.098 96.0014 102.142 94.0106 101.557 92.1244L100.651 89.2061C100.065 87.32 98.0776 86.2739 96.1942 86.8606C94.3108 87.4474 93.2659 89.4382 93.8515 91.3244L94.7575 94.2427C95.343 96.1289 97.3307 97.175 99.2142 96.5882Z" fill="#D5A884"/>
<path d="M88.6714 76.4925L89.3871 76.27C92.8082 75.206 94.706 71.5963 93.6422 68.1765C92.5784 64.7567 88.9678 62.8601 85.5466 63.9241L84.831 64.1467C81.4099 65.2107 79.5121 68.8204 80.5759 72.2402C81.6397 75.66 85.2503 77.5565 88.6714 76.4925Z" fill="#C98F62"/>
<path d="M87.8829 71.9717L89.931 71.3343C93.8686 70.1089 96.0528 65.9516 94.8284 62.0131L93.7439 58.5249C92.5195 54.5863 88.3638 52.4021 84.4263 53.6276L82.3782 54.265C78.4406 55.4904 76.2564 59.6477 77.4808 63.5862L78.5652 67.0744C79.7897 71.013 83.9453 73.1972 87.8829 71.9717Z" fill="#D09D75"/>
<path d="M85.7695 65.7164C89.0853 64.1587 92.4058 60.2683 91.2056 57.6717L87.9379 50.6014C86.7377 48.0048 81.4849 47.7143 78.1692 49.272C74.8535 50.8297 73.1503 54.1742 74.3504 56.7709L77.6182 63.8412C78.8183 66.4378 82.4538 67.2742 85.7695 65.7164L85.7695 65.7164Z" fill="#D09D75"/>
<path d="M93.1453 65.1122C94.9729 65.3223 96.6135 64.0183 96.8236 62.1887L97.3959 57.2068C97.606 55.3771 96.3038 53.735 94.4762 53.5249C92.6485 53.3148 91.008 54.6187 90.7978 56.4484L90.2256 61.4303C90.0154 63.26 91.3176 64.9021 93.1453 65.1122Z" fill="#D5A884"/>
<path d="M123.433 94.0327H170.566C175.237 94.0327 178.998 97.7932 178.998 102.464C178.998 107.135 175.237 110.896 170.566 110.896H123.433C118.762 110.896 115.002 107.135 115.002 102.464C115.002 97.7932 118.762 94.0327 123.433 94.0327Z" fill="#D09D75"/>
<path d="M145.435 65.8254H148.876C152.838 65.8254 156.028 70.285 156.028 75.8244V79.9266C156.028 85.466 152.838 89.9256 148.876 89.9256H145.435C141.473 89.9256 138.283 85.466 138.283 79.9266V75.8244C138.283 70.285 141.473 65.8254 145.435 65.8254Z" fill="#C68858"/>
<path d="M139.056 92.8457H154.946C163.825 92.8457 170.972 99.9934 170.972 108.872C170.972 117.75 163.825 124.898 154.946 124.898H139.056C130.177 124.898 123.029 117.75 123.029 108.872C123.029 99.9934 130.177 92.8457 139.056 92.8457Z" fill="#D09D75"/>
<path d="M129.655 56.4556H165.366C169.462 56.4556 172.759 59.7528 172.759 63.8485C172.759 67.9442 169.462 71.2415 165.366 71.2415H129.655C125.559 71.2415 122.262 67.9442 122.262 63.8485C122.262 59.7528 125.559 56.4556 129.655 56.4556Z" fill="#D09D75"/>
<path d="M146.757 151.912C147.346 151.912 147.82 152.386 147.82 152.975V154.595C147.82 155.184 147.346 155.659 146.757 155.659C146.168 155.659 145.693 155.184 145.693 154.595V152.975C145.693 152.386 146.168 151.912 146.757 151.912Z" fill="#C98F62"/>
<path d="M147.496 116.388C149.933 116.388 151.894 118.35 151.894 120.787V124.866C151.894 127.303 149.933 129.265 147.496 129.265C145.059 129.265 143.098 127.303 143.098 124.866V120.787C143.098 118.35 145.059 116.388 147.496 116.388Z" fill="#C98F62"/>
<path d="M136.387 109.44C135.223 109.44 134.144 109.789 133.245 110.384C130.258 110.579 127.459 111.879 125.413 114.021C123.367 116.164 122.229 118.989 122.229 121.925C122.229 124.992 123.472 127.934 125.684 130.104C127.896 132.273 130.897 133.491 134.025 133.491C136.875 133.488 139.628 132.473 141.774 130.635C143.92 128.796 145.315 126.257 145.7 123.488C145.779 123.109 145.822 122.715 145.822 122.312V121.925V115.123C145.822 111.975 143.287 109.44 140.139 109.44H136.387ZM153.859 109.44C150.711 109.44 148.176 111.975 148.176 115.123V121.925V122.312C148.176 122.715 148.219 123.109 148.298 123.488C148.684 126.257 150.079 128.796 152.225 130.635C154.371 132.473 157.123 133.488 159.973 133.491C163.102 133.491 166.102 132.273 168.314 130.104C170.527 127.934 171.77 124.992 171.77 121.925C171.769 118.989 170.631 116.164 168.585 114.021C166.54 111.879 163.74 110.579 160.753 110.384C159.854 109.789 158.776 109.44 157.612 109.44H153.859Z" fill="#D09D75"/>
<path d="M134.542 94.6055H142.33C143.059 94.6055 143.647 95.1929 143.647 95.9226C143.647 96.6522 143.059 97.2396 142.33 97.2396H134.542C133.812 97.2396 133.225 96.6522 133.225 95.9226C133.225 95.1929 133.812 94.6055 134.542 94.6055Z" fill="#C98F62"/>
<path d="M143.347 95.0503L145.524 96.6369C146.115 97.068 146.244 97.8911 145.813 98.4826C145.382 99.074 144.559 99.2031 143.968 98.772L141.791 97.1854C141.199 96.7543 141.07 95.9312 141.501 95.3398C141.932 94.7483 142.755 94.6192 143.347 95.0503Z" fill="#C98F62"/>
<path d="M137.012 112.562C139.518 112.562 141.536 114.58 141.536 117.086V117.659C141.536 120.165 139.518 122.183 137.012 122.183C134.506 122.183 132.488 120.165 132.488 117.659V117.086C132.488 114.58 134.506 112.562 137.012 112.562Z" fill="#D5A884"/>
<path d="M159.458 94.6055H151.67C150.941 94.6055 150.353 95.1929 150.353 95.9226C150.353 96.6522 150.941 97.2396 151.67 97.2396H159.458C160.188 97.2396 160.775 96.6522 160.775 95.9226C160.775 95.1929 160.188 94.6055 159.458 94.6055Z" fill="#C98F62"/>
<path d="M150.653 95.0503L148.476 96.6369C147.885 97.068 147.756 97.8911 148.187 98.4826C148.618 99.074 149.441 99.2031 150.032 98.772L152.209 97.1854C152.801 96.7543 152.93 95.9312 152.499 95.3398C152.068 94.7483 151.245 94.6192 150.653 95.0503Z" fill="#C98F62"/>
<path d="M157.347 112.562C154.841 112.562 152.823 114.58 152.823 117.086V117.659C152.823 120.165 154.841 122.183 157.347 122.183C159.853 122.183 161.871 120.165 161.871 117.659V117.086C161.871 114.58 159.853 112.562 157.347 112.562Z" fill="#D5A884"/>
<path d="M129.914 58.3351H165.105C168.16 58.3351 170.619 60.7941 170.619 63.8485C170.619 66.9029 168.16 69.3619 165.105 69.3619H129.914C126.859 69.3619 124.4 66.9029 124.4 63.8485C124.4 60.7941 126.859 58.3351 129.914 58.3351Z" fill="#BF7943"/>
<path d="M143.598 35.6755H151.421C157.923 35.6755 168.207 45.0292 168.207 54.2279V67.2802C168.207 76.4789 158.568 86.5465 151.663 86.5465H143.356C136.451 86.5465 126.812 76.4789 126.812 67.2802V54.2279C126.812 45.0292 137.096 35.6755 143.598 35.6755Z" fill="#D09D75"/>
<path d="M134.376 207.997C128.616 207.997 123.979 212.054 123.979 217.093V227.878C124.735 233.201 126.688 234.206 126.688 239.448C126.688 247.082 128.273 252.877 129.806 263.243L139.651 263.953C140.308 264.001 140.949 263.878 141.563 263.746C142.885 263.459 143.851 262.023 143.851 260.343L144.477 230.275C144.67 229.437 144.774 228.625 144.774 227.878V217.093C144.774 212.054 140.136 207.997 134.376 207.997Z" fill="url(#paint0_linear_2002_21561)"/>
<path d="M134.451 169.498C126.33 169.498 119.68 183.309 119.68 188.305V198.882C119.68 203.878 126.331 217.688 134.451 217.688H137.956C138.833 217.688 139.685 217.606 140.502 217.46C142.263 217.146 143.548 215.571 143.548 213.729V173.457C143.548 171.614 142.263 170.039 140.502 169.725C139.685 169.579 138.833 169.498 137.956 169.498H134.451Z" fill="#C98F62"/>
<path d="M131.4 157.877C138.343 157.877 143.932 163.259 143.932 169.944V189.156C143.932 195.841 138.343 201.223 131.4 201.223C124.458 201.223 118.869 195.841 118.869 189.156V169.944C118.869 163.259 124.458 157.877 131.4 157.877Z" fill="#D09D74" fill-opacity="0.996078"/>
<path d="M139.662 182.183C141.499 182.183 142.977 183.476 142.977 185.083V190.213C142.977 191.819 141.499 193.112 139.662 193.112C137.826 193.112 136.348 191.819 136.348 190.213V185.083C136.348 183.476 137.826 182.183 139.662 182.183Z" fill="#D5A884"/>
<path d="M136.034 207.551C139.43 207.551 142.165 209.943 142.165 212.914V215.437C142.165 218.408 139.43 220.8 136.034 220.8C132.638 220.8 129.904 218.408 129.904 215.437V212.914C129.904 209.943 132.638 207.551 136.034 207.551Z" fill="#D09D73"/>
<path d="M130.421 253.631H137.474C141.553 253.631 144.838 257.155 144.838 261.532C144.838 265.909 141.553 269.432 137.474 269.432H130.421C126.341 269.432 123.057 265.909 123.057 261.532C123.057 257.155 126.341 253.631 130.421 253.631Z" fill="#D09D75"/>
<path d="M125.495 260.778H142.399C143.75 260.778 144.838 261.945 144.838 263.394V266.816C144.838 268.265 143.75 269.432 142.399 269.432H125.495C124.144 269.432 123.057 268.265 123.057 266.816V263.394C123.057 261.945 124.144 260.778 125.495 260.778Z" fill="#D09D75"/>
<path d="M137.597 256.398H139.21C140.511 256.398 141.557 257.521 141.557 258.916C141.557 260.311 140.511 261.434 139.21 261.434H137.597C136.297 261.434 135.25 260.311 135.25 258.916C135.25 257.521 136.297 256.398 137.597 256.398Z" fill="#D5A884"/>
<path d="M159.618 207.997C165.379 207.997 170.016 212.054 170.016 217.093V227.878C169.259 233.201 167.306 234.206 167.306 239.448C167.306 247.082 165.721 252.877 164.188 263.243L154.343 263.953C153.686 264.001 153.045 263.878 152.431 263.746C151.109 263.459 150.143 262.023 150.143 260.343L149.517 230.275C149.324 229.437 149.22 228.625 149.22 227.878V217.093C149.22 212.054 153.858 207.997 159.618 207.997Z" fill="url(#paint1_linear_2002_21561)"/>
<path d="M159.545 169.497C167.666 169.497 174.316 183.309 174.316 188.305V198.882C174.316 203.878 167.665 217.688 159.545 217.688H156.04C155.163 217.688 154.311 217.606 153.494 217.46C151.734 217.146 150.448 215.571 150.448 213.728V173.457C150.448 171.614 151.734 170.039 153.494 169.725C154.311 169.579 155.163 169.497 156.04 169.497H159.545Z" fill="#C98F62"/>
<path d="M162.596 157.877C155.653 157.877 150.064 163.259 150.064 169.944V189.156C150.064 195.841 155.653 201.223 162.596 201.223C169.538 201.223 175.127 195.841 175.127 189.156V169.944C175.127 163.259 169.538 157.877 162.596 157.877Z" fill="#D09D74" fill-opacity="0.996078"/>
<path d="M169.888 181.673C168.052 181.673 166.574 182.966 166.574 184.573V189.703C166.574 191.309 168.052 192.602 169.888 192.602C171.725 192.602 173.203 191.309 173.203 189.703V184.573C173.203 182.966 171.725 181.673 169.888 181.673Z" fill="#D5A884"/>
<path d="M157.962 207.551C154.566 207.551 151.832 209.943 151.832 212.914V215.437C151.832 218.408 154.566 220.8 157.962 220.8C161.358 220.8 164.092 218.408 164.092 215.437V212.914C164.092 209.943 161.358 207.551 157.962 207.551Z" fill="#D09D73"/>
<path d="M163.575 253.631H156.522C152.443 253.631 149.158 257.155 149.158 261.532C149.158 265.909 152.443 269.432 156.522 269.432H163.575C167.655 269.432 170.939 265.909 170.939 261.532C170.939 257.155 167.655 253.631 163.575 253.631Z" fill="#D09D75"/>
<path d="M168.501 260.778H151.597C150.246 260.778 149.158 261.945 149.158 263.394V266.816C149.158 268.265 150.246 269.432 151.597 269.432H168.501C169.852 269.432 170.939 268.265 170.939 266.816V263.394C170.939 261.945 169.852 260.778 168.501 260.778Z" fill="#D09D75"/>
<path d="M165.198 255.633H163.585C162.284 255.633 161.238 256.756 161.238 258.151C161.238 259.546 162.284 260.669 163.585 260.669H165.198C166.498 260.669 167.545 259.546 167.545 258.151C167.545 256.756 166.498 255.633 165.198 255.633Z" fill="#D5A884"/>
<path d="M121.999 158.883C120.905 158.883 120.023 159.809 120.023 160.96C121.006 174.978 137.664 188.252 147.516 188.537C161.825 184.851 173.952 175.304 173.952 161.028C173.96 160.94 173.971 160.853 173.978 160.764H173.974H173.942C173.849 159.706 173.007 158.883 171.975 158.883H121.999Z" fill="#4F4F4F"/>
<path d="M203.249 142.861L208.102 143.944C210.791 144.543 212.472 147.19 211.873 149.879L210.124 157.718C209.524 160.407 206.877 162.088 204.189 161.488L199.336 160.406C196.647 159.806 194.966 157.159 195.565 154.471L197.314 146.632C197.914 143.943 200.561 142.261 203.249 142.861Z" fill="#D09D75"/>
<path d="M201.153 143.449C202.655 144.112 203.33 145.856 202.667 147.358L201.972 148.932C201.308 150.434 199.565 151.11 198.063 150.446C196.561 149.783 195.885 148.04 196.549 146.537L197.244 144.963C197.907 143.461 199.651 142.786 201.153 143.449Z" fill="#D5A884"/>
<path d="M109.968 94.1211H112.492C113.94 94.1211 115.106 95.2871 115.106 96.7354C115.106 98.1837 113.94 99.3497 112.492 99.3497H109.968C108.52 99.3497 107.354 98.1837 107.354 96.7354C107.354 95.2871 108.52 94.1211 109.968 94.1211Z" fill="#D09D75"/>
<path d="M123.13 97.1862H125.834C127.283 97.1862 128.449 98.3521 128.449 99.8005V100.251C128.449 101.7 127.283 102.866 125.834 102.866H123.13C121.682 102.866 120.516 101.7 120.516 100.251V99.8005C120.516 98.3521 121.682 97.1862 123.13 97.1862Z" fill="#D5A884"/>
<path d="M169.153 95.7838H171.858C173.306 95.7838 174.472 96.9498 174.472 98.3981V98.8489C174.472 100.297 173.306 101.463 171.858 101.463H169.153C167.705 101.463 166.539 100.297 166.539 98.8489V98.3981C166.539 96.9498 167.705 95.7838 169.153 95.7838Z" fill="#D5A884"/>
<path d="M126.099 117.179C124.79 116.69 123.369 119.612 122.146 120.093C122.037 120.716 121.98 121.346 121.975 121.978C121.975 128.436 127.311 133.672 133.893 133.672C137.221 133.664 140.394 132.29 142.645 129.884C142.526 124.026 137.407 121.404 131.896 119.345L126.099 117.179ZM161.778 119.345C156.378 121.362 151.337 123.837 151.038 129.528C153.296 132.148 156.612 133.663 160.108 133.672C166.69 133.672 172.026 128.436 172.026 121.978C172.021 121.395 171.972 120.813 171.878 120.238C170.561 119.665 169.01 116.643 167.574 117.179L161.778 119.345Z" fill="#444444"/>
<path d="M142.332 127.491H152.158C152.757 127.491 153.24 127.973 153.24 128.572C153.24 129.172 152.757 129.654 152.158 129.654H142.332C141.732 129.654 141.25 129.172 141.25 128.572C141.25 127.973 141.732 127.491 142.332 127.491Z" fill="#444444"/>
<path d="M132.833 93.9122H132.023L124.779 121.833H125.98H127.182L133.642 93.9122H132.833ZM161.168 93.9122H160.359L166.82 121.833H168.021H169.222L161.978 93.9122H161.168Z" fill="#4F4F4F"/>
<path d="M167.631 117.119C167.541 117.126 167.452 117.146 167.363 117.179L161.626 119.321C157.098 121.011 152.825 123.028 151.446 127.028C153.659 129.316 156.738 130.627 159.973 130.636C165.97 130.636 170.918 126.247 171.668 120.567C171.653 120.446 171.643 120.324 171.624 120.204C170.401 119.672 168.975 117.012 167.631 117.119H167.631ZM126.067 117.127C124.84 117.047 123.533 119.615 122.398 120.061C122.371 120.218 122.347 120.375 122.326 120.533C123.061 126.23 128.017 130.636 134.025 130.636C137.132 130.628 140.101 129.419 142.297 127.286C140.999 123.165 136.664 121.044 132.049 119.321L126.311 117.179C126.23 117.149 126.149 117.132 126.067 117.127Z" fill="#4F4F4F"/>
<path d="M152.143 139.048C149.637 139.048 147.619 141.066 147.619 143.572V144.145C147.619 146.651 149.637 148.669 152.143 148.669C154.649 148.669 156.667 146.651 156.667 144.145V143.572C156.667 141.066 154.649 139.048 152.143 139.048Z" fill="#D5A884"/>
<path d="M145.833 81.1521H148.145C148.33 81.1521 148.479 81.2825 148.479 81.4445V81.6167C148.479 81.7787 148.33 81.909 148.145 81.909H145.833C145.647 81.909 145.498 81.7787 145.498 81.6167V81.4445C145.498 81.2825 145.647 81.1521 145.833 81.1521Z" fill="#C68858"/>
<path d="M147.509 61.1027C148.926 61.1027 150.067 62.3087 150.067 63.8069V68.5791C150.067 70.0772 148.926 71.2833 147.509 71.2833C146.092 71.2833 144.951 70.0772 144.951 68.5791V63.8069C144.951 62.3087 146.092 61.1027 147.509 61.1027Z" fill="#C68858"/>
<path d="M156.688 58.1512H153.883C152.841 58.1512 152.003 58.9899 152.003 60.0317C152.003 61.0735 152.841 61.9122 153.883 61.9122H156.688C157.73 61.9122 158.568 61.0735 158.568 60.0317C158.568 58.9899 157.73 58.1512 156.688 58.1512Z" fill="#C68858"/>
<path d="M160.853 61.5832L155.712 60.6402C155.286 60.5622 154.881 60.8419 154.803 61.2674C154.725 61.6929 155.004 62.0983 155.43 62.1763L160.571 63.1194C160.997 63.1974 161.402 62.9177 161.48 62.4922C161.558 62.0667 161.279 61.6613 160.853 61.5832Z" fill="#61534B"/>
<path d="M153.166 62.467L154.926 60.8457C155.274 60.5246 155.814 60.5467 156.135 60.8952C156.456 61.2437 156.434 61.7828 156.085 62.1039L154.325 63.7252C153.977 64.0463 153.438 64.0242 153.117 63.6757C152.796 63.3272 152.818 62.7881 153.166 62.467Z" fill="#61534B"/>
<path d="M158.615 55.0217L153.061 56.6989C152.457 56.8813 152.117 57.5144 152.3 58.1184C152.482 58.7224 153.115 59.0619 153.719 58.8795L159.274 57.2023C159.878 57.0199 160.217 56.3868 160.035 55.7828C159.852 55.1787 159.219 54.8393 158.615 55.0217Z" fill="#4D4D4D"/>
<path d="M150.185 81.1003C152.394 81.1003 154.173 78.2399 154.173 74.6859V73.6478H140.744V74.6859C140.744 78.2399 142.523 81.1003 144.732 81.1003H150.185Z" fill="#CB8868"/>
<path d="M150.185 80.0099C152.394 80.0099 154.173 77.5679 154.173 74.534V73.6478H140.744V74.534C140.744 77.5679 142.523 80.0099 144.732 80.0099H150.185Z" fill="#4D4D4D"/>
<path d="M138.158 58.1512H140.963C142.004 58.1512 142.843 58.9899 142.843 60.0317C142.843 61.0735 142.004 61.9122 140.963 61.9122H138.158C137.116 61.9122 136.277 61.0735 136.277 60.0317C136.277 58.9899 137.116 58.1512 138.158 58.1512Z" fill="#C68858"/>
<path d="M136.231 55.0217L141.785 56.6989C142.389 56.8813 142.728 57.5144 142.546 58.1184C142.364 58.7224 141.731 59.0619 141.126 58.8795L135.572 57.2023C134.968 57.0199 134.629 56.3868 134.811 55.7828C134.993 55.1787 135.627 54.8393 136.231 55.0217Z" fill="#4D4D4D"/>
<path d="M133.993 61.5834L139.134 60.6403C139.559 60.5623 139.965 60.842 140.043 61.2675C140.121 61.693 139.841 62.0984 139.416 62.1764L134.274 63.1195C133.849 63.1975 133.444 62.9178 133.365 62.4923C133.287 62.0668 133.567 61.6614 133.993 61.5834Z" fill="#61534B"/>
<path d="M141.68 62.4672L139.92 60.8458C139.571 60.5247 139.032 60.5468 138.711 60.8953C138.39 61.2439 138.412 61.7829 138.761 62.104L140.52 63.7253C140.869 64.0464 141.408 64.0244 141.729 63.6758C142.05 63.3273 142.028 62.7883 141.68 62.4672Z" fill="#61534B"/>
<path d="M132.625 67.2412C132.025 67.2412 131.541 67.7243 131.541 68.3247C131.541 68.925 132.025 69.4088 132.625 69.4088H134.792C135.392 69.4088 135.876 68.925 135.876 68.3247C135.876 67.7243 135.392 67.2412 134.792 67.2412H132.625ZM160.226 67.2412C159.626 67.2412 159.143 67.7243 159.143 68.3247C159.143 68.925 159.626 69.4088 160.226 69.4088H162.394C162.994 69.4088 163.477 68.925 163.477 68.3247C163.477 67.7243 162.994 67.2412 162.394 67.2412H160.226Z" fill="#CB8868"/>
<path d="M151.771 68.5771C151.771 69.5703 150.762 70.3699 149.507 70.3699H145.512C144.258 70.3699 143.248 69.5703 143.248 68.5771C143.248 67.5838 144.258 66.7842 145.512 66.7842H149.507C150.762 66.7842 151.771 67.5838 151.771 68.5771Z" fill="#C68858"/>
<path d="M147.927 67.0436H148.246C148.996 67.0436 149.6 67.6477 149.6 68.3982C149.6 69.1486 148.996 69.7527 148.246 69.7527H147.927C147.176 69.7527 146.572 69.1486 146.572 68.3982C146.572 67.6477 147.176 67.0436 147.927 67.0436Z" fill="#D09D75"/>
<path d="M144.765 76.7224H149.543C150.392 76.7224 151.075 77.4059 151.075 78.2549C151.075 79.104 150.392 79.7875 149.543 79.7875H144.765C143.916 79.7875 143.232 79.104 143.232 78.2549C143.232 77.4059 143.916 76.7224 144.765 76.7224Z" fill="#FE7757" fill-opacity="0.996078"/>
<path d="M141.084 73.6478C141.088 74.9868 142.167 76.0637 143.507 76.0637H151.411C152.751 76.0637 153.83 74.9868 153.833 73.6478H141.084ZM142.358 78.932C143.021 79.6066 143.84 80.0098 144.732 80.0098H150.185C151.077 80.0098 151.896 79.6066 152.559 78.932H142.358Z" fill="white"/>
<path d="M135.344 66.6708H135.885C136.31 66.6708 136.652 67.0125 136.652 67.437C136.652 67.8615 136.31 68.2033 135.885 68.2033H135.344C134.92 68.2033 134.578 67.8615 134.578 67.437C134.578 67.0125 134.92 66.6708 135.344 66.6708Z" fill="white"/>
<path d="M162.479 66.6708H163.02C163.445 66.6708 163.786 67.0125 163.786 67.437C163.786 67.8615 163.445 68.2033 163.02 68.2033H162.479C162.055 68.2033 161.713 67.8615 161.713 67.437C161.713 67.0125 162.055 66.6708 162.479 66.6708Z" fill="white"/>
<path d="M140.685 61.7875L141.609 61.054C141.837 60.8727 142.166 60.9105 142.347 61.1386C142.529 61.3667 142.491 61.6963 142.263 61.8775L141.339 62.611C141.111 62.7923 140.782 62.7545 140.601 62.5264C140.419 62.2983 140.457 61.9687 140.685 61.7875Z" fill="#61534B"/>
<path d="M159.435 61.3367L160.359 60.6031C160.587 60.4219 160.916 60.4597 161.097 60.6878C161.279 60.9159 161.241 61.2455 161.013 61.4267L160.089 62.1602C159.861 62.3415 159.532 62.3037 159.351 62.0756C159.169 61.8475 159.207 61.5179 159.435 61.3367Z" fill="#61534B"/>
<path d="M144.104 33.5459C132.501 33.5459 123.16 42.8865 123.16 54.4893C123.16 58.8937 124.509 62.9703 126.814 66.3356V57.435C126.814 49.1492 137.097 40.7236 143.599 40.7236H151.422C157.924 40.7236 168.208 49.1492 168.208 57.435V66.3356C170.513 62.9703 171.861 58.8937 171.861 54.4893C171.861 42.8865 162.52 33.5459 150.917 33.5459H144.104Z" fill="#444444"/>
<path d="M147.651 34.2123C148.35 34.2123 148.913 34.9261 148.913 35.8129V39.2427C148.913 40.1294 148.35 40.8433 147.651 40.8433C146.952 40.8433 146.389 40.1294 146.389 39.2427V35.8129C146.389 34.9261 146.952 34.2123 147.651 34.2123Z" fill="#3B3B3B"/>
<path d="M146.032 37.3708C141.512 37.3708 137.873 41.01 137.873 45.5303V46.2951C137.873 46.5302 137.885 46.7624 137.904 46.9923C137.886 47.0584 137.873 47.1266 137.873 47.1987V53.6778C137.873 54.1079 138.22 54.4545 138.65 54.4545H146.032H149.475H156.857C157.287 54.4545 157.634 54.1079 157.634 53.6778V47.1987C157.634 47.1266 157.621 47.0584 157.603 46.9923C157.622 46.7624 157.634 46.5302 157.634 46.2951V45.5303C157.634 41.01 153.995 37.3708 149.475 37.3708H146.032Z" fill="#4F4F4F"/>
<path d="M167.355 70.5905C166.876 75.2452 163.462 80.0066 159.43 83.021C161.87 83.6829 164.582 83.1302 166.611 81.3078C169.732 78.5044 170.04 73.7738 167.355 70.5905ZM127.748 71.1106C125.507 74.2712 125.941 78.6535 128.895 81.3078C130.829 83.0443 133.382 83.6282 135.73 83.1068C131.797 80.2085 128.423 75.6429 127.748 71.1106Z" fill="#444444"/>
<path d="M127.56 82.1578C125.455 80.288 122.196 80.4811 120.326 82.5863L119.321 83.7176C119.085 83.9838 118.964 84.333 118.985 84.6883C119.006 85.0437 119.167 85.3762 119.433 85.6126L125.089 90.6357C125.355 90.872 125.704 90.993 126.06 90.972C126.415 90.9509 126.748 90.7896 126.984 90.5234L127.989 89.3922C129.859 87.2868 129.665 84.0275 127.56 82.1578Z" fill="#444444"/>
<path d="M127.315 79.4623L130.335 82.2057C130.923 82.74 130.966 83.6436 130.432 84.2317C129.898 84.8198 128.994 84.8631 128.406 84.3288L125.386 81.5854C124.798 81.051 124.755 80.1474 125.289 79.5593C125.824 78.9712 126.727 78.928 127.315 79.4623Z" fill="#E0D7CC"/>
<path d="M167.947 82.1578C170.052 80.288 173.311 80.4811 175.181 82.5863L176.185 83.7176C176.422 83.9838 176.543 84.333 176.522 84.6883C176.501 85.0437 176.339 85.3762 176.073 85.6126L170.418 90.6357C170.151 90.872 169.802 90.993 169.447 90.972C169.091 90.9509 168.759 90.7896 168.522 90.5234L167.518 89.3922C165.648 87.2868 165.841 84.0275 167.947 82.1578H167.947Z" fill="#444444"/>
<path d="M168.19 79.4623L165.171 82.2057C164.583 82.74 164.54 83.6436 165.074 84.2317C165.608 84.8198 166.512 84.8631 167.1 84.3288L170.119 81.5854C170.707 81.051 170.751 80.1474 170.216 79.5593C169.682 78.9712 168.779 78.928 168.19 79.4623Z" fill="#E0D7CC"/>
<path d="M152.34 41.2039C154.288 41.2039 155.856 42.7719 155.856 44.7197V45.9817C155.856 47.9295 154.288 49.4975 152.34 49.4975C150.392 49.4975 148.824 47.9295 148.824 45.9817V44.7197C148.824 42.7719 150.392 41.2039 152.34 41.2039Z" fill="#595959"/>
<path d="M161.936 95.4456C166.84 91.6469 173.956 92.6791 177.892 97.7599L206.404 134.562C210.34 139.643 209.562 146.791 204.659 150.59C199.755 154.388 192.639 153.356 188.703 148.275L160.191 111.474C156.255 106.393 157.033 99.2442 161.936 95.4456Z" fill="#AC9C8B" fill-opacity="0.996078"/>
<path d="M129.804 104.534C128.075 110.541 121.71 113.946 115.534 112.169L95.2772 106.338C89.1008 104.56 85.5206 98.2919 87.2499 92.2843C88.9792 86.2767 95.3437 82.8716 101.52 84.6495L121.777 90.4805C127.953 92.2584 131.534 98.5261 129.804 104.534Z" fill="#AC9C8B" fill-opacity="0.996078"/>
<path d="M159.23 220.438H158.769C153.303 220.438 148.902 224.838 148.902 230.304V253.193C148.902 258.659 153.303 263.06 158.769 263.06H159.23C164.695 263.06 169.096 258.659 169.096 253.193V230.304C169.096 224.838 164.695 220.438 159.23 220.438Z" fill="#86796A"/>
<path d="M162.443 220.438H155.555C151.869 220.438 148.902 223.405 148.902 227.09V242.524C148.902 246.21 151.869 249.177 155.555 249.177H162.443C166.129 249.177 169.096 246.21 169.096 242.524V227.09C169.096 223.405 166.129 220.438 162.443 220.438Z" fill="#918474"/>
<path d="M134.528 220.438H134.989C140.455 220.438 144.855 224.838 144.855 230.304V253.193C144.855 258.659 140.455 263.06 134.989 263.06H134.528C129.062 263.06 124.662 258.659 124.662 253.193V230.304C124.662 224.838 129.062 220.438 134.528 220.438Z" fill="#86796A"/>
<path d="M131.315 220.438H138.203C141.888 220.438 144.855 223.405 144.855 227.09V242.524C144.855 246.21 141.888 249.177 138.203 249.177H131.315C127.629 249.177 124.662 246.21 124.662 242.524V227.09C124.662 223.405 127.629 220.438 131.315 220.438Z" fill="#918474"/>
<path d="M131.373 179.011C123.931 179.011 117.939 184.731 117.939 191.836V215.513C117.939 222.618 123.931 228.338 131.373 228.338H138.515C139.791 228.338 141.024 228.167 142.192 227.852C143.36 228.167 144.592 228.338 145.868 228.338H162.385C169.828 228.338 175.82 222.618 175.82 215.513V191.836C175.82 184.731 169.828 179.011 162.385 179.011H145.868C144.592 179.011 143.36 179.183 142.192 179.498C141.024 179.183 139.791 179.011 138.515 179.011H131.373Z" fill="#6D635B"/>
<path d="M162.883 252.871H155.648C150.911 252.871 147.097 256.685 147.097 261.422C147.097 266.159 150.911 269.972 155.648 269.972H162.883C167.62 269.972 171.434 266.159 171.434 261.422C171.434 256.685 167.62 252.871 162.883 252.871Z" fill="#786564"/>
<path d="M167.388 259.794H151.143C148.902 259.794 147.097 261.598 147.097 263.839V265.927C147.097 268.168 148.902 269.972 151.143 269.972H167.388C169.629 269.972 171.434 268.168 171.434 265.927V263.839C171.434 261.598 169.629 259.794 167.388 259.794Z" fill="#786564"/>
<path d="M164.048 255.542H160.482C158.743 255.542 157.343 256.942 157.343 258.682C157.343 260.421 158.743 261.821 160.482 261.821H164.048C165.787 261.821 167.188 260.421 167.188 258.682C167.188 256.942 165.787 255.542 164.048 255.542Z" fill="#806C6B"/>
<path d="M166.405 224.27H151.616C149.462 224.27 147.727 226.004 147.727 228.158C147.727 230.312 149.462 232.047 151.616 232.047H166.405C168.559 232.047 170.293 230.312 170.293 228.158C170.293 226.004 168.559 224.27 166.405 224.27Z" fill="#918474"/>
<path d="M195.899 121L178.477 135.075L185.661 144.348L203.084 130.274L195.899 121Z" fill="#CCBDAB"/>
<path d="M139.826 88.7123C128.674 88.7123 120.665 98.2174 119.695 109.926C119.695 109.926 115.533 129.314 114.723 139.168C113.924 148.883 114.851 168.411 114.851 168.411V171.711V186.659C114.851 190.13 117.964 192.924 121.832 192.924H138.488H156.529H173.186C177.053 192.924 180.167 190.13 180.167 186.659V171.711V168.411C180.167 168.411 181.093 148.883 180.294 139.168C179.484 129.314 175.322 109.926 175.322 109.926C173.353 98.3436 166.344 88.7123 155.191 88.7123H139.826Z" fill="#918474"/>
<path d="M139.826 88.7123C128.673 88.7123 120.664 98.2174 119.695 109.926L118.85 120.125C123.949 130.378 134.518 137.392 146.787 137.392H148.229C160.499 137.392 171.068 130.378 176.167 120.125L175.322 109.926C174.352 98.2174 166.344 88.7123 155.191 88.7123H139.826Z" fill="#8C7F6F"/>
<path d="M130.873 252.871H138.108C142.845 252.871 146.658 256.685 146.658 261.422C146.658 266.159 142.845 269.972 138.108 269.972H130.873C126.136 269.972 122.322 266.159 122.322 261.422C122.322 256.685 126.136 252.871 130.873 252.871Z" fill="#786564"/>
<path d="M126.368 259.794H142.613C144.854 259.794 146.658 261.598 146.658 263.839V265.927C146.658 268.168 144.854 269.972 142.613 269.972H126.368C124.126 269.972 122.322 268.168 122.322 265.927V263.839C122.322 261.598 124.126 259.794 126.368 259.794Z" fill="#786564"/>
<path d="M136.198 255.723H139.764C141.503 255.723 142.903 257.123 142.903 258.862C142.903 260.601 141.503 262.001 139.764 262.001H136.198C134.459 262.001 133.059 260.601 133.059 258.862C133.059 257.123 134.459 255.723 136.198 255.723Z" fill="#806C6B"/>
<path d="M127.353 224.27H142.142C144.296 224.27 146.03 226.004 146.03 228.158C146.03 230.312 144.296 232.047 142.142 232.047H127.353C125.199 232.047 123.465 230.312 123.465 228.158C123.465 226.004 125.199 224.27 127.353 224.27Z" fill="#918474"/>
<path d="M118.522 182.228H175.584C175.714 182.228 175.819 182.333 175.819 182.463V204.951C175.819 205.082 175.714 205.186 175.584 205.186H118.522C118.392 205.186 118.287 205.082 118.287 204.951V182.463C118.287 182.333 118.392 182.228 118.522 182.228Z" fill="#635A52"/>
<path d="M116.19 179.933H178.828C182.515 179.933 185.483 182.901 185.483 186.588V190.882C185.483 194.569 182.515 197.537 178.828 197.537H116.19C112.503 197.537 109.535 194.569 109.535 190.882V186.588C109.535 182.901 112.503 179.933 116.19 179.933Z" fill="#C0AE9C"/>
<path d="M147.561 24.5161C128.512 24.5161 113.176 40.5867 113.176 60.5491V65.6409C113.176 85.6033 128.512 101.674 147.561 101.674C166.611 101.674 181.948 85.6033 181.948 65.6409V60.5491C181.948 40.5867 166.611 24.5161 147.561 24.5161ZM147.561 39.2742C159.324 39.2742 168.793 49.1974 168.793 61.5232V64.6668C168.793 76.9926 159.324 86.9157 147.561 86.9157C135.799 86.9157 126.33 76.9926 126.33 64.6668V61.5232C126.33 49.1974 135.799 39.2742 147.561 39.2742Z" fill="#C6B59F"/>
<path d="M147.562 87.6302C151.607 87.6302 154.864 91.1475 154.864 95.5164V123.556C154.864 127.925 151.607 131.442 147.562 131.442C143.516 131.442 140.26 127.925 140.26 123.556V95.5164C140.26 91.1475 143.516 87.6302 147.562 87.6302Z" fill="#C6B59F"/>
<path d="M135.575 96.9001C136.075 96.9001 136.477 97.3022 136.477 97.8016V127.551C136.477 128.05 136.075 128.452 135.575 128.452C135.076 128.452 134.674 128.05 134.674 127.551V97.8016C134.674 97.3022 135.076 96.9001 135.575 96.9001Z" fill="#CCBDAB"/>
<path d="M159.542 96.9001C160.042 96.9001 160.444 97.3022 160.444 97.8016V127.551C160.444 128.05 160.042 128.452 159.542 128.452C159.043 128.452 158.641 128.05 158.641 127.551V97.8016C158.641 97.3022 159.043 96.9001 159.542 96.9001Z" fill="#CCBDAB"/>
<path d="M147.561 24.5161C128.512 24.5161 113.176 40.5867 113.176 60.5491V63.214C115.577 68.8706 119.281 73.8521 123.973 77.7353C128.664 81.6185 134.204 84.2887 140.123 85.5192C132.052 82.3733 126.33 74.2472 126.33 64.6668V61.5232C126.33 49.1974 135.799 39.2742 147.561 39.2742C159.324 39.2742 168.793 49.1974 168.793 61.5232V64.6668C168.793 74.1621 163.171 82.2265 155.213 85.4319C161.078 84.1852 166.565 81.5237 171.216 77.6699C175.868 73.8162 179.547 68.8821 181.948 63.2801V60.5491C181.948 40.5867 166.611 24.5161 147.561 24.5161Z" fill="#CCBDAB"/>
<path d="M99.2952 103.997C93.3258 105.854 86.9832 102.408 85.0742 96.2711L78.8132 76.1431C76.9041 70.0059 80.173 63.5703 86.1424 61.7134C92.1118 59.8566 98.4543 63.3025 100.363 69.4397L106.624 89.5677C108.533 95.7049 105.265 102.14 99.2952 103.997Z" fill="#AC9C8B" fill-opacity="0.996078"/>
<path d="M145.967 193.035C147.132 193.035 148.07 193.973 148.07 195.138V219.106C148.07 220.272 147.132 221.21 145.967 221.21C144.801 221.21 143.863 220.272 143.863 219.106V195.138C143.863 193.973 144.801 193.035 145.967 193.035Z" fill="#635A52"/>
<path d="M124.123 179.933H170.895C174.582 179.933 177.55 182.901 177.55 186.588V190.882C177.55 194.569 174.582 197.537 170.895 197.537H124.123C120.437 197.537 117.469 194.569 117.469 190.882V186.588C117.469 182.901 120.437 179.933 124.123 179.933Z" fill="#CCBDAB"/>
<path d="M114.532 154.278C114.52 158.888 114.633 163.577 114.851 168.411V168.812H180.167V168.411C180.536 163.577 180.696 158.887 180.673 154.278H114.532Z" fill="#CCBDAB"/>
<path d="M75.2442 48.9873L79.1568 46.8947C83.7717 44.4265 89.474 46.1547 91.9423 50.7696L95.115 56.7016C97.5832 61.3165 95.855 67.0188 91.2401 69.4871L87.3275 71.5797C82.7126 74.0479 77.0103 72.3197 74.542 67.7048L71.3693 61.7728C68.9011 57.1579 70.6293 51.4556 75.2442 48.9873Z" fill="#786564"/>
<path d="M95.7998 51.2667C97.9893 51.2667 99.752 53.0294 99.752 55.2189V63.2507C99.752 65.4402 97.9893 67.2029 95.7998 67.2029C93.6103 67.2029 91.8477 65.4402 91.8477 63.2507V55.2189C91.8477 53.0294 93.6103 51.2667 95.7998 51.2667Z" fill="#786564"/>
<path d="M76.0426 65.7843L98.1574 58.7614C100.311 58.0773 102.596 59.2608 103.28 61.4149L105.21 67.4904C105.894 69.6445 104.71 71.9294 102.556 72.6135L80.4415 79.6364C78.2874 80.3204 76.0025 79.137 75.3184 76.9828L73.3891 70.9074C72.705 68.7532 73.8885 66.4683 76.0426 65.7843Z" fill="#CCBDAB"/>
<path d="M209.374 135.154L213.209 137.765C217.897 140.958 219.101 147.302 215.909 151.99L211.719 158.143C208.526 162.831 202.182 164.035 197.494 160.843L193.659 158.231C188.971 155.039 187.767 148.695 190.96 144.007L195.15 137.854C198.342 133.166 204.686 131.961 209.374 135.154Z" fill="#CCBDAB"/>
<path d="M281.606 154.897C283.184 156.687 282.932 159.472 281.04 161.142L273.286 167.987C271.394 169.657 268.6 169.56 267.022 167.771C265.444 165.981 265.697 163.196 267.589 161.526L275.343 154.681C277.235 153.011 280.028 153.108 281.606 154.897Z" fill="#84B4B3"/>
<path d="M259.546 161.841L257.349 157.985C255.91 155.461 252.719 154.586 250.194 156.024C247.669 157.462 246.795 160.652 248.233 163.176L250.431 167.031C251.869 169.556 255.06 170.43 257.585 168.992C260.11 167.555 260.985 164.365 259.546 161.841Z" fill="#84B4B3"/>
<path d="M257.229 166.344L252.293 157.689C251.613 156.495 250.102 156.082 248.907 156.762L247.794 157.395C246.599 158.075 246.185 159.584 246.866 160.778L251.801 169.433C252.482 170.627 253.992 171.04 255.187 170.36L256.301 169.727C257.496 169.047 257.91 167.538 257.229 166.344Z" fill="#84B4B3"/>
<path d="M265.81 146.878C267.276 148.54 267.118 151.058 265.457 152.524L261.8 155.752C260.138 157.218 257.621 157.06 256.155 155.399C254.689 153.737 254.847 151.218 256.508 149.752L260.165 146.525C261.827 145.058 264.344 145.216 265.81 146.878Z" fill="#84B4B3"/>
<path d="M268.036 144.015C267.964 145.278 266.891 146.236 265.63 146.164L261.393 145.922C260.132 145.85 259.175 144.775 259.247 143.513C259.319 142.25 260.392 141.292 261.653 141.364L265.89 141.606C267.151 141.678 268.108 142.753 268.036 144.015Z" fill="#769E9D"/>
<path d="M281.143 142.712C285.215 147.328 284.777 154.323 280.162 158.396L273.831 163.983C269.216 168.056 262.222 167.618 258.151 163.002C254.079 158.386 254.516 151.391 259.131 147.318L265.462 141.731C270.078 137.659 277.071 138.096 281.143 142.712Z" fill="#4F697E"/>
<path d="M281.071 142.63C285.103 147.201 284.634 154.159 280.018 158.231L277.034 160.865C272.418 164.937 265.457 164.536 261.425 159.966C257.393 155.395 257.862 148.437 262.478 144.365L265.462 141.731C270.077 137.659 277.039 138.06 281.071 142.63Z" fill="#62829C"/>
<path d="M279.736 140.559L283.133 144.265C285.965 147.354 285.669 152.019 282.471 154.725C279.272 157.431 274.418 157.124 271.587 154.036L268.189 150.33C265.358 147.241 265.653 142.576 268.852 139.87C272.05 137.164 276.904 137.471 279.736 140.559Z" fill="#76A2A1"/>
<path d="M278.848 137.905C281.415 139.745 282 143.292 280.16 145.859L280.044 146.021C278.204 148.587 274.656 149.172 272.09 147.332C269.523 145.493 268.938 141.945 270.778 139.378L270.894 139.217C272.734 136.65 276.281 136.065 278.848 137.905Z" fill="#76A2A1"/>
<path d="M266.254 148.884C267.448 149.295 268.078 150.587 267.667 151.78L266.285 155.791C265.874 156.985 264.582 157.615 263.389 157.204C262.195 156.793 261.565 155.501 261.976 154.308L263.358 150.297C263.769 149.103 265.061 148.473 266.254 148.884Z" fill="#84B4B3"/>
<path d="M283.104 145.246L283.415 145.479C284.524 146.309 284.747 147.87 283.917 148.978C283.087 150.087 281.526 150.31 280.418 149.48L280.107 149.247C278.998 148.417 278.775 146.856 279.605 145.748C280.435 144.64 281.996 144.416 283.104 145.246Z" fill="#84B4B3"/>
<path d="M277.881 136.503C279.112 136.999 279.703 138.39 279.207 139.621L278.031 142.536C277.534 143.767 276.143 144.358 274.912 143.862C273.681 143.365 273.09 141.974 273.586 140.743L274.762 137.829C275.258 136.598 276.649 136.006 277.881 136.503Z" fill="#84B4B3"/>
<path d="M268.873 157.1C269.443 157.746 269.382 158.725 268.736 159.295L268.486 159.516C267.84 160.086 266.86 160.025 266.29 159.378C265.72 158.732 265.781 157.753 266.427 157.183L266.677 156.962C267.324 156.392 268.303 156.453 268.873 157.1Z" fill="#6893B7"/>
<path d="M269.458 161.622C269.947 162.176 269.894 163.016 269.341 163.504L268.882 163.909C268.329 164.397 267.489 164.345 267.001 163.791C266.512 163.237 266.564 162.398 267.118 161.909L267.576 161.505C268.13 161.016 268.97 161.068 269.458 161.622Z" fill="#6893B7"/>
<path d="M263.497 157.81C263.955 158.329 263.906 159.116 263.387 159.574L263.303 159.647C262.784 160.106 261.997 160.056 261.539 159.537C261.081 159.018 261.13 158.231 261.649 157.773L261.733 157.699C262.252 157.241 263.039 157.29 263.497 157.81Z" fill="#6893B7"/>
<path d="M260.79 150.334C261.248 150.854 261.199 151.641 260.68 152.099L260.596 152.172C260.077 152.63 259.29 152.581 258.832 152.062C258.374 151.543 258.423 150.756 258.942 150.298L259.026 150.224C259.545 149.766 260.332 149.815 260.79 150.334Z" fill="#6893B7"/>
<path d="M255.743 166.64C256.571 168.172 256.003 170.072 254.471 170.899L253.642 171.347C252.109 172.175 250.21 171.608 249.382 170.075C248.555 168.543 249.122 166.643 250.655 165.815L251.484 165.367C253.017 164.54 254.916 165.107 255.743 166.64Z" fill="#84B4B3"/>
<path d="M281.637 145.645L281.812 145.776C282.433 146.241 282.559 147.116 282.093 147.738C281.628 148.359 280.753 148.485 280.131 148.019L279.957 147.889C279.335 147.423 279.21 146.548 279.675 145.926C280.141 145.305 281.016 145.179 281.637 145.645Z" fill="#62829C"/>
<path d="M253.073 159.643L254.939 162.604C255.563 163.593 255.268 164.892 254.278 165.515C253.288 166.138 251.989 165.843 251.365 164.854L249.499 161.893C248.875 160.904 249.17 159.605 250.16 158.982C251.15 158.359 252.449 158.653 253.073 159.643Z" fill="#8CC7C6"/>
<path d="M255.456 164.84L255.636 164.969C256.587 165.651 256.803 166.964 256.122 167.915L255.151 169.269C254.47 170.22 253.156 170.436 252.206 169.755L252.025 169.626C251.075 168.944 250.858 167.631 251.54 166.68L252.51 165.326C253.192 164.375 254.505 164.158 255.456 164.84Z" fill="#8CC7C6"/>
<path d="M272.855 166.585C273.073 167.078 272.851 167.651 272.358 167.868L271.85 168.092C271.357 168.31 270.785 168.088 270.568 167.595C270.35 167.102 270.572 166.53 271.065 166.312L271.573 166.088C272.066 165.871 272.638 166.092 272.855 166.585Z" fill="#8CC7C6"/>
<path d="M275.984 164.317C276.202 164.81 275.98 165.382 275.487 165.599L274.979 165.824C274.486 166.041 273.914 165.819 273.696 165.326C273.479 164.833 273.701 164.261 274.194 164.044L274.702 163.819C275.195 163.602 275.767 163.824 275.984 164.317Z" fill="#8CC7C6"/>
<path d="M275.795 142.536C275.959 143.461 275.346 144.339 274.421 144.503L273.928 144.591C273.003 144.755 272.126 144.142 271.962 143.217C271.798 142.292 272.41 141.414 273.335 141.25L273.828 141.162C274.753 140.998 275.63 141.611 275.795 142.536Z" fill="#84B4B3"/>
<path d="M270.773 147.475L275.386 152.288C275.801 152.721 275.786 153.404 275.353 153.819C274.919 154.234 274.236 154.219 273.821 153.786L269.208 148.973C268.793 148.54 268.807 147.857 269.241 147.442C269.674 147.027 270.358 147.042 270.773 147.475Z" fill="#6F9998"/>
<path d="M281.776 147.412C282.164 147.69 282.252 148.226 281.974 148.614L281.909 148.704C281.631 149.092 281.096 149.18 280.708 148.902C280.32 148.624 280.232 148.088 280.51 147.701L280.575 147.61C280.852 147.223 281.388 147.134 281.776 147.412Z" fill="#B5D2D2"/>
<path d="M277.197 157.697C277.636 158.213 277.574 158.983 277.057 159.422L276.4 159.981C275.883 160.42 275.114 160.358 274.675 159.842C274.236 159.326 274.298 158.556 274.815 158.117L275.472 157.558C275.989 157.119 276.758 157.181 277.197 157.697Z" fill="#6893B7"/>
<path d="M273.222 158.246L273.315 158.356C273.599 158.69 273.559 159.187 273.225 159.471C272.891 159.756 272.393 159.715 272.109 159.381L272.016 159.272C271.732 158.938 271.772 158.44 272.106 158.156C272.44 157.872 272.938 157.912 273.222 158.246Z" fill="#6893B7"/>
<path d="M276.823 71.8155C276.548 71.8067 276.275 71.8528 276.026 71.95C251.912 82.9052 229.933 106.116 215.177 124.48C181.814 166.435 177.473 213.145 177.473 213.145C176.975 217.687 183.835 218.33 184.189 213.775C184.189 213.775 188.433 168.95 220.457 128.679C236.288 106.911 260.277 82.0666 277.44 74.6425C279.155 74.0263 278.685 71.8752 276.823 71.8155V71.8155Z" fill="#89560A" fill-opacity="0.996078"/>
<path d="M210.604 140.517C215.23 143.388 216.642 149.423 213.771 154.048L211.203 158.184C208.332 162.809 202.298 164.221 197.673 161.35C193.047 158.479 191.635 152.445 194.506 147.82L197.074 143.684C199.945 139.059 205.979 137.646 210.604 140.517Z" fill="#786564"/>
<path d="M203.807 136.085C206.226 137.586 206.964 140.742 205.463 143.161L203.466 146.378C201.965 148.796 198.809 149.535 196.39 148.034C193.972 146.532 193.233 143.376 194.735 140.958L196.731 137.741C198.233 135.322 201.389 134.584 203.807 136.085Z" fill="#806C6B"/>
<path d="M102.466 76.2002L81.0762 83.4191L84.5608 94.6218L105.95 87.4029L102.466 76.2002Z" fill="#CCBDAB"/>
<path d="M147.561 90.0234C150.74 90.0234 153.298 92.5822 153.298 95.7605V104.175C153.298 107.353 150.74 109.912 147.561 109.912C144.383 109.912 141.824 107.353 141.824 104.175V95.7605C141.824 92.5822 144.383 90.0234 147.561 90.0234Z" fill="#CCBDAB"/>
<path d="M161.263 31.7303L166.093 35.276C168.114 36.7597 168.547 39.5813 167.063 41.6026C165.58 43.6238 162.758 44.0566 160.737 42.5729L155.907 39.0272C153.885 37.5435 153.453 34.7218 154.936 32.7006C156.42 30.6793 159.242 30.2466 161.263 31.7303Z" fill="#DACFC1"/>
<path d="M174.418 45.4074L175.173 46.435C176.636 48.4277 176.209 51.2096 174.217 52.6726C172.224 54.1355 169.442 53.7091 167.979 51.7165L167.225 50.6888C165.762 48.6961 166.188 45.9142 168.181 44.4512C170.174 42.9883 172.956 43.4147 174.418 45.4074Z" fill="#DACFC1"/>
<path d="M116.263 155.319C115.851 155.306 115.438 155.473 115.145 155.809L114.475 156.575C114.504 158.074 114.539 159.48 114.577 160.805L116.418 158.699L123.267 166.535C123.598 166.912 124.08 167.074 124.54 167.01C125.001 167.074 125.483 166.912 125.813 166.535L132.662 158.699L139.511 166.535C139.842 166.912 140.324 167.074 140.785 167.01C141.246 167.074 141.727 166.912 142.058 166.535L148.907 158.699L155.756 166.535C156.087 166.912 156.569 167.074 157.029 167.01C157.49 167.074 157.972 166.912 158.302 166.535L165.152 158.699L172.001 166.535C172.332 166.912 172.813 167.074 173.274 167.01C173.735 167.074 174.217 166.912 174.547 166.535L180.47 159.76C180.507 158.397 180.537 156.979 180.562 155.471C180.4 155.551 180.251 155.664 180.124 155.809L173.275 163.644L166.426 155.809C166.095 155.431 165.613 155.269 165.152 155.333C164.691 155.27 164.21 155.431 163.879 155.809L157.029 163.644L150.181 155.809C149.851 155.431 149.369 155.269 148.908 155.332C148.447 155.268 147.965 155.431 147.634 155.809L140.785 163.644L133.936 155.809C133.605 155.431 133.123 155.269 132.662 155.333C132.201 155.27 131.72 155.431 131.39 155.809L124.54 163.644L117.691 155.809C117.36 155.431 116.878 155.269 116.418 155.333C116.366 155.324 116.315 155.319 116.263 155.319V155.319Z" fill="#918474"/>
<path d="M103.485 79.4827L101.249 85.0645L95.3015 81.6977C95.0149 81.5353 94.6813 81.5401 94.4098 81.6796C94.11 81.7398 93.8463 81.9451 93.7237 82.2513L91.1824 88.5959L85.2338 85.2297C84.9469 85.0675 84.6131 85.0718 84.3414 85.2116C84.0421 85.2724 83.7786 85.4774 83.656 85.7833L82.6172 88.3769L83.5019 91.2208L85.0728 87.2977L91.0213 90.6645C91.3082 90.8268 91.6427 90.8224 91.9145 90.6826C92.2138 90.6218 92.4766 90.4168 92.5991 90.1109L95.1411 83.7656L101.089 87.1324C101.376 87.2947 101.71 87.2902 101.981 87.1506C102.281 87.09 102.544 86.8848 102.667 86.5788L104.37 82.3266L103.485 79.4827Z" fill="#AC9C8A"/>
<path d="M197.16 122.846C196.925 122.861 196.707 122.964 196.548 123.129C196.283 123.281 196.098 123.559 196.079 123.888L195.687 130.712L188.977 129.411C188.654 129.348 188.339 129.459 188.126 129.677C187.861 129.83 187.676 130.109 187.657 130.438L187.266 137.262L180.555 135.961C180.231 135.899 179.916 136.009 179.703 136.228C179.626 136.272 179.559 136.33 179.498 136.394L181.037 138.38L181.06 137.974L187.77 139.274C188.094 139.336 188.409 139.226 188.622 139.007C188.887 138.854 189.072 138.576 189.091 138.247L189.483 131.423L196.193 132.724C196.516 132.787 196.832 132.676 197.045 132.457C197.309 132.305 197.494 132.026 197.512 131.697L197.904 124.874L199.075 125.1L197.337 122.857C197.278 122.85 197.218 122.842 197.16 122.846V122.846Z" fill="#AC9C8A"/>
<path d="M164.134 181.688H168.341C170.53 181.688 172.293 183.451 172.293 185.641C172.293 187.83 170.53 189.593 168.341 189.593H164.134C161.944 189.593 160.182 187.83 160.182 185.641C160.182 183.451 161.944 181.688 164.134 181.688Z" fill="#DACFC1"/>
<path d="M95.2588 63.0197H95.8284C98.0179 63.0197 99.7806 64.7823 99.7806 66.9718V67.9021C99.7806 70.0916 98.0179 71.8542 95.8284 71.8542H95.2588C93.0693 71.8542 91.3066 70.0916 91.3066 67.9021V66.9718C91.3066 64.7823 93.0693 63.0197 95.2588 63.0197Z" fill="#DACFC1"/>
<path d="M277.539 72.164C277.416 72.1662 277.297 72.2017 277.193 72.2666C277.089 72.3316 277.005 72.4236 276.95 72.5327C276.894 72.6418 276.869 72.764 276.878 72.8861C276.887 73.0083 276.928 73.1257 276.999 73.226C283.839 83.2238 283.728 99.4123 281.8 113.093C279.871 126.773 276.192 137.902 276.192 137.902C276.163 137.987 276.15 138.076 276.156 138.166C276.161 138.255 276.184 138.343 276.223 138.423C276.263 138.503 276.318 138.575 276.386 138.634C276.453 138.693 276.532 138.738 276.617 138.766C276.702 138.794 276.792 138.805 276.881 138.798C276.97 138.791 277.057 138.767 277.137 138.726C277.217 138.685 277.287 138.628 277.345 138.56C277.403 138.491 277.446 138.412 277.473 138.326C277.473 138.326 281.188 127.097 283.136 113.282C285.083 99.4674 285.333 83.0204 278.111 72.4644C278.048 72.3705 277.963 72.2938 277.863 72.2413C277.763 72.1889 277.652 72.1623 277.539 72.164Z" fill="#DACFC1"/>
<path d="M167.831 210.286C169.784 210.286 171.357 211.859 171.357 213.812V215.094C171.357 217.048 169.784 218.62 167.831 218.62C165.877 218.62 164.305 217.048 164.305 215.094V213.812C164.305 211.859 165.877 210.286 167.831 210.286Z" fill="#80746B"/>
<path d="M174.419 97.126L173.923 97.4854C172.825 98.2797 172.58 99.8134 173.374 100.911L174.565 102.557C175.36 103.654 176.893 103.9 177.991 103.106L178.487 102.746C179.585 101.952 179.831 100.418 179.036 99.3209L177.845 97.6747C177.05 96.5773 175.517 96.3316 174.419 97.126Z" fill="#B3A494"/>
<path d="M213.458 151.326C214.263 150.258 214.05 148.739 212.981 147.933C211.913 147.128 210.394 147.341 209.589 148.41L208.898 149.326C208.093 150.394 208.306 151.913 209.374 152.718C210.443 153.524 211.962 153.31 212.767 152.242L213.458 151.326Z" fill="#806C6B"/>
</g>
<defs>
<linearGradient id="paint0_linear_2002_21561" x1="157.245" y1="230.007" x2="156.356" y2="253.46" gradientUnits="userSpaceOnUse">
<stop stop-color="#C68858"/>
<stop offset="1" stop-color="#C3804D"/>
</linearGradient>
<linearGradient id="paint1_linear_2002_21561" x1="157.248" y1="230.007" x2="156.358" y2="253.46" gradientUnits="userSpaceOnUse">
<stop stop-color="#C68858"/>
<stop offset="1" stop-color="#C3804D"/>
</linearGradient>
<clipPath id="clip0_2002_21561">
<rect width="300" height="300" fill="white" transform="translate(0.4375 0.381104)"/>
</clipPath>
</defs>
</svg>
