    <svg
      xmlns="http://www.w3.org/2000/svg"
      width="89"
      height="318"
      fill="none"
      viewBox="0 0 89 318"
    >
      <path
        fill="#AD6F4B"
        d="M53.038 236.92h1.667c4.182 0 7.572 4.333 7.572 9.677v44.323l1.516 18.861c0 4.123-3.098 7.463-6.92 7.463h-1.614c-3.821 0-6.92-3.34-6.92-7.463v-28.058c0-1.805-.89-24.572-.89-26.692v-10.968c0-.411.028-.822.084-1.227.465-3.42 2.79-5.916 5.505-5.916z"
      ></path>
      <path
        fill="#AD6F4B"
        d="M56.638 165.359h6.03c1.554 0 2.937 1.261 3.444 3.139.074.277.129.564.16.855l1.398 34.09c.17 1.515.255 3.045.255 4.576v11.331c0 1.77-.114 3.537-.34 5.283l-.742 5.694c-.425 3.261-1.296 6.401-2.573 9.275 0 0-1.836 5.033-1.836 6.23 0 3.817.397 9.061-4.008 8.973H54.86c-3.199 0-7.403.016-7.403-4.073 0-.882-.13-10.919-.32-12.12l-1.18-7.508-1.135-9.568a41.02 41.02 0 01-.284-4.821v-35.892c0-8.54 5.417-15.464 12.099-15.464zM52.799 301.789h6.498c3.747 0 6.785 3.452 6.785 7.708 0 4.257-3.038 7.707-6.785 7.707h-6.498c-3.747 0-6.785-3.45-6.785-7.707 0-4.256 3.038-7.708 6.785-7.708z"
      ></path>
      <path
        fill="#AD6F4B"
        d="M48.26 304.603h15.575c1.24 0 2.247 1.655 2.247 3.7v4.84c0 2.043-1.007 3.7-2.247 3.7H48.26c-1.24 0-2.246-1.657-2.246-3.7v-4.84c0-2.045 1.006-3.7 2.246-3.7zM34.927 236.92H33.26c-4.182 0-7.572 4.333-7.572 9.677v44.323l-1.516 18.861c0 4.123 3.097 7.463 6.92 7.463h1.614c3.821 0 6.92-3.34 6.92-7.463v-28.058c0-1.805.89-24.572.89-26.692v-10.968c0-.411-.028-.822-.084-1.227-.466-3.42-2.79-5.916-5.505-5.916z"
      ></path>
      <path
        fill="#AD6F4B"
        d="M31.327 165.359h-6.03c-1.554 0-2.937 1.261-3.444 3.139a5.71 5.71 0 00-.161.855l-1.397 34.09a41.115 41.115 0 00-.256 4.576v11.331c0 1.77.115 3.537.341 5.283l.742 5.694c.425 3.261 1.296 6.401 2.573 9.275 0 0 1.836 5.033 1.836 6.23 0 3.817-.397 9.061 4.008 8.973h3.565c3.199 0 7.403.016 7.403-4.073 0-.882.13-10.919.32-12.12l1.18-7.508 1.135-9.568c.188-1.595.284-3.207.284-4.821v-35.892c0-8.54-5.417-15.464-12.099-15.464zM35.176 301.789h-6.499c-3.747 0-6.784 3.463-6.784 7.735 0 4.271 3.037 7.734 6.784 7.734h6.499c3.746 0 6.784-3.463 6.784-7.734 0-4.272-3.038-7.735-6.784-7.735z"
      ></path>
      <path
        fill="#AD6F4B"
        d="M39.713 308.776H24.14c-1.24 0-2.246 1.148-2.246 2.562v3.35c0 1.415 1.006 2.561 2.246 2.561h15.574c1.241 0 2.247-1.146 2.247-2.561v-3.35c0-1.414-1.006-2.562-2.247-2.562zM44.04 80.068c1.06 0 2.116.076 3.162.224 12.62 1.777 23.869 13.95 23.869 28.797l-1.982 15.895-4.474 31.079c0 16.078-6.734 14.735-20.574 14.735-13.84 0-19.608-.633-19.608-16.711l-5.374-29.103v-15.895c0-16.078 11.142-29.02 24.982-29.02z"
      ></path>
      <path
        fill="#AD6F4B"
        d="M43.867 145.153h.77c12.773 0 16.92-8.969 19.016 3.187l2.43 20.474c2.094 12.146-8.672 26.145-21.445 26.145h-.771c-12.773 0-24.021-14.714-21.927-26.86l3.337-19.759c2.096-12.156 5.817-3.187 18.59-3.187zM15.687 95.676c-3.863-1.024-8.84 6.617-9.69 12.65 0 0-2.515 31.225-2.49 33.644.042 4.238 1.451 7.346 4.499 8.154 3.327.883 5.538-1.389 6.63-5.891.372-1.528 2.585-28.288 2.638-29.909.146-4.457 1.32-17.877-1.587-18.648z"
      ></path>
      <path
        fill="#AD6F4B"
        d="M9.639 130.156l-.05-.002c-3.166-.134-5.912 4.685-6.133 10.763l-1.66 45.643c-.22 6.079 2.167 11.115 5.334 11.249l.05.003c3.166.134 5.912-4.686 6.133-10.764l1.66-45.644c.22-6.079-2.168-11.115-5.334-11.248z"
      ></path>
      <path
        fill="#AD6F4B"
        d="M10.265 178.207l-1.99-.015c-3.814-.028-7.086 5.646-7.308 12.672l-.197 6.243c-.223 7.026 2.689 12.745 6.503 12.773l1.99.015c3.814.028 7.085-5.646 7.308-12.672l.197-6.243c.222-7.027-2.69-12.746-6.503-12.773z"
      ></path>
      <path
        fill="#AD6F4B"
        d="M10.757 195.963c-.83-4.47-3.755-6.732-6.534-5.055-2.779 1.677-4.36 6.66-3.53 11.128l2.267 12.205c.83 4.469 3.755 6.731 6.534 5.054 2.78-1.677 4.359-6.659 3.53-11.128l-2.267-12.204z"
      ></path>
      <path
        fill="#9A5731"
        d="M17.262 193.576c.094-3.115-1.18-5.651-2.846-5.666-1.664-.014-3.09 2.5-3.184 5.616l-.256 8.507c-.095 3.115 1.18 5.652 2.845 5.667 1.665.013 3.091-2.501 3.185-5.616l.256-8.508z"
      ></path>
      <path
        fill="#AD6F4B"
        d="M72.641 96.7c3.863-1.025 8.84 6.617 9.69 12.65 0 0 2.515 31.224 2.49 33.644-.042 4.238-1.451 7.346-4.499 8.153-3.327.883-5.538-1.389-6.63-5.891-.372-1.528-2.585-28.287-2.638-29.908-.146-4.457-1.32-17.878 1.587-18.648z"
      ></path>
      <path
        fill="#AD6F4B"
        d="M78.69 131.18l.05-.002c3.166-.135 5.911 4.685 6.132 10.763l1.66 45.643c.22 6.079-2.167 11.115-5.334 11.249l-.05.002c-3.166.134-5.912-4.685-6.133-10.764l-1.659-45.643c-.221-6.079 2.167-11.115 5.333-11.248z"
      ></path>
      <path
        fill="#AD6F4B"
        d="M78.76 178.207l1.989-.015c3.814-.028 7.086 5.646 7.308 12.672l.198 6.243c.222 7.026-2.69 12.745-6.503 12.773l-1.99.015c-3.815.028-7.086-5.646-7.309-12.672l-.197-6.243c-.222-7.027 2.69-12.746 6.503-12.773z"
      ></path>
      <path
        fill="#AD6F4B"
        d="M78.267 195.963c.829-4.47 3.755-6.732 6.533-5.055 2.78 1.677 4.36 6.66 3.53 11.128l-2.266 12.205c-.83 4.469-3.756 6.731-6.534 5.054-2.779-1.677-4.36-6.659-3.53-11.128l2.267-12.204z"
      ></path>
      <path
        fill="#9A5731"
        d="M71.76 193.576c-.093-3.115 1.181-5.651 2.847-5.666 1.665-.014 3.091 2.5 3.184 5.616l.256 8.507c.094 3.115-1.18 5.652-2.845 5.667-1.665.013-3.091-2.501-3.185-5.616l-.256-8.508z"
      ></path>
      <path
        fill="#AD6F4B"
        d="M15.21 89.022h57.688c5.717 0 10.32 5.88 10.32 13.184 0 7.304-4.603 13.183-10.32 13.183H15.21c-5.717 0-10.32-5.879-10.32-13.183s4.603-13.184 10.32-13.184z"
      ></path>
      <path
        fill="#AD6F4B"
        d="M35.006 87.459h17.988c10.052 0 18.143 10.123 18.143 22.699 0 12.574-8.09 22.698-18.143 22.698H35.006c-10.05 0-18.143-10.124-18.143-22.698 0-12.576 8.092-22.699 18.143-22.699z"
      ></path>
      <path
        fill="#815848"
        fillOpacity="0.99"
        d="M44.477 115.389c2.34 0 4.225 2.584 4.225 5.792v5.372c0 3.209-1.884 5.792-4.224 5.792-2.342 0-4.226-2.583-4.226-5.792v-5.372c0-3.208 1.884-5.792 4.225-5.792z"
      ></path>
      <path
        fill="#AD6F4B"
        d="M33.807 109.312a4.996 4.996 0 00-3.018 1.028c-2.869.211-5.558 1.628-7.523 3.961-1.965 2.334-3.059 5.411-3.059 8.608 0 3.341 1.194 6.546 3.32 8.908 2.124 2.363 5.006 3.69 8.012 3.69 2.738-.003 5.381-1.109 7.443-3.111 2.061-2.003 3.401-4.767 3.772-7.784.076-.413.117-.842.117-1.282v-7.829c0-3.429-2.435-6.189-5.46-6.189h-3.604zm16.784 0c-3.023 0-5.459 2.76-5.459 6.189v7.829c0 .44.041.869.117 1.282.37 3.017 1.71 5.781 3.772 7.784 2.061 2.002 4.706 3.108 7.443 3.111 3.006 0 5.888-1.327 8.013-3.69 2.125-2.362 3.32-5.567 3.32-8.908-.001-3.197-1.094-6.274-3.06-8.608-1.965-2.333-4.654-3.75-7.523-3.961a4.997 4.997 0 00-3.018-1.028H50.59z"
      ></path>
      <path
        fill="#444"
        d="M39.384 130.009h9.717c.593 0 1.07.634 1.07 1.424 0 .789-.477 1.424-1.07 1.424h-9.717c-.593 0-1.07-.635-1.07-1.424 0-.79.477-1.424 1.07-1.424z"
      ></path>
      <path
        fill="#4F4F4F"
        d="M64.4 116.351a.761.761 0 00-.264.079l-5.673 2.82c-4.477 2.227-8.702 4.883-10.066 10.15 2.189 3.013 5.233 4.739 8.432 4.75 5.93 0 10.823-5.779 11.564-13.259-.015-.159-.025-.32-.044-.477-1.208-.701-2.619-4.203-3.948-4.063zm-41.097.01c-1.213-.104-2.506 3.276-3.629 3.864-.026.207-.05.414-.07.622.726 7.501 5.626 13.303 11.567 13.303 3.072-.011 6.008-1.602 8.18-4.411-1.284-5.426-5.57-8.22-10.134-10.489l-5.673-2.82a.663.663 0 00-.241-.069z"
      ></path>
      <path
        fill="#9A5731"
        d="M40.396 142.267H36.11a2.337 2.337 0 00-2.327 2.347v2.717a2.337 2.337 0 002.327 2.348h4.286a2.337 2.337 0 002.327-2.348v-2.717a2.337 2.337 0 00-2.327-2.347zM40.396 151.329H36.11a2.336 2.336 0 00-2.327 2.347v2.718a2.338 2.338 0 002.327 2.348h4.286a2.338 2.338 0 002.327-2.348v-2.718a2.336 2.336 0 00-2.327-2.347zM47.282 142.267h4.287a2.337 2.337 0 012.327 2.347v2.717a2.338 2.338 0 01-2.327 2.348h-4.287a2.338 2.338 0 01-2.327-2.348v-2.717a2.337 2.337 0 012.327-2.347zM47.282 151.329h4.287a2.337 2.337 0 012.327 2.347v2.718a2.338 2.338 0 01-2.327 2.348h-4.287a2.338 2.338 0 01-2.327-2.348v-2.718a2.337 2.337 0 012.327-2.347z"
      ></path>
      <path
        fill="#4F4F4F"
        d="M22.305 165.109c1.206 23.264 9.554 41.275 20.671 41.275 11.263 0 21.682-17.323 22.696-41.025l-43.367-.25z"
      ></path>
      <path
        fill="#4B4B4B"
        d="M65.692 165.359l-21.954 4.314.843 36.944c-.42 5.239-.255 10.477.414 15.716h22.932c1.21-29.684 2.63-39.461-2.235-56.974zM22.278 165.359l21.09 4.298v36.627c.16 5.443.076 10.849-.353 16.201l-22.932-.186c-.156-29.783-2.813-39.37 2.195-56.94zM35.517 86.106h17.988c10.052 0 18.143 10.169 18.143 22.801 0 12.631-.35 29.258-17.77 26.24H35.516c-18.002 2.781-18.144-13.609-18.144-26.24 0-12.632 8.092-22.801 18.143-22.801z"
      ></path>
      <path
        fill="#4B4B4B"
        fillOpacity="0.99"
        d="M44.413 78.684c1.009 0 2.015.075 3.012.224 12.02 1.785 22.514 11.285 22.735 28.926l-.43 16.215-49.114-.248v-15.967c-.214-18.183 10.614-29.15 23.797-29.15z"
      ></path>
      <path
        fill="#4F4F4F"
        d="M22.305 165.109c1.206 23.264 9.554 41.275 20.671 41.275 11.263 0 21.682-17.323 22.696-41.025l-43.367-.25z"
      ></path>
      <path
        fill="#4B4B4B"
        d="M65.692 165.359l-21.954 4.314.843 36.944c-.42 5.239-.255 10.477.414 15.716h22.932c1.21-29.684 2.63-39.461-2.235-56.974zM22.278 165.359l21.09 4.298v36.627c.16 5.443.076 10.849-.353 16.201l-22.932-.186c-.156-29.783-2.813-39.37 2.195-56.94z"
      ></path>
      <path
        fill="#fff"
        d="M38.825 284.719H26.39c-.66 0-1.197.935-1.197 2.091v18.324c0 1.156.536 2.091 1.197 2.091h12.435c.66 0 1.197-.935 1.197-2.091V286.81c0-1.156-.536-2.091-1.197-2.091z"
      ></path>
      <path
        fill="#4B4B4B"
        d="M34.12 291.173h-4.343c-1.032 0-1.869 1.341-1.869 2.994v2.686c0 1.655.837 2.996 1.868 2.996h4.343c1.033 0 1.869-1.341 1.869-2.996v-2.686c0-1.653-.836-2.994-1.869-2.994z"
      ></path>
      <path
        fill="#4F4F4F"
        d="M35.307 295.786h-6.403c-3.692 0-6.685 4.797-6.685 10.715s2.993 10.714 6.685 10.714h6.403c3.692 0 6.685-4.796 6.685-10.714s-2.993-10.715-6.685-10.715z"
      ></path>
      <path
        fill="#4F4F4F"
        d="M40.416 305.52H23.581c-1.341 0-2.429 1.589-2.429 3.547v4.641c0 1.96 1.087 3.55 2.429 3.55h16.835c1.342 0 2.43-1.59 2.43-3.55v-4.641c0-1.958-1.088-3.547-2.43-3.547z"
      ></path>
      <path
        fill="#fff"
        d="M41.932 312.768H22.067c-.506 0-.915.597-.915 1.334v1.746c0 .737.41 1.335.915 1.335h19.865c.505 0 .913-.598.913-1.335v-1.746c0-.737-.408-1.334-.913-1.334zM34.578 296.324H29.5c-.265 0-.48.344-.48.768 0 .424.215.768.48.768h5.077c.264 0 .479-.344.479-.768 0-.424-.215-.768-.48-.768z"
      ></path>
      <path
        fill="#585858"
        d="M29.14 301.267H26.7c-.86 0-1.557 1.117-1.557 2.497 0 1.379.698 2.497 1.558 2.497h2.439c.86 0 1.557-1.118 1.557-2.497 0-1.38-.697-2.497-1.557-2.497z"
      ></path>
      <path
        fill="#fff"
        d="M34.578 298.781H29.5c-.265 0-.48.344-.48.767 0 .424.215.768.48.768h5.077c.264 0 .479-.344.479-.768 0-.423-.215-.767-.48-.767zM61.747 284.718H49.45c-.654 0-1.184.944-1.184 2.11v18.487c0 1.165.53 2.11 1.184 2.11h12.297c.653 0 1.183-.945 1.183-2.11v-18.487c0-1.166-.53-2.11-1.183-2.11z"
      ></path>
      <path
        fill="#4B4B4B"
        d="M57.917 291.26h-4.252c-1.01 0-1.83 1.338-1.83 2.986v2.68c0 1.649.82 2.986 1.83 2.986h4.252c1.01 0 1.829-1.337 1.829-2.986v-2.68c0-1.648-.82-2.986-1.83-2.986z"
      ></path>
      <path
        fill="#4F4F4F"
        d="M59.033 295.83h-6.267c-3.615 0-6.545 4.784-6.545 10.686s2.93 10.685 6.545 10.685h6.267c3.615 0 6.809-4.698 6.809-10.6 0-5.903-3.194-10.771-6.809-10.771z"
      ></path>
      <path
        fill="#4F4F4F"
        d="M64.243 305.538H47.794c-1.31 0-2.372 1.585-2.372 3.538v4.628c0 1.955 1.063 3.54 2.372 3.54h16.449c1.31 0 2.372-1.585 2.372-3.54v-4.628c0-1.953-1.062-3.538-2.372-3.538z"
      ></path>
      <path
        fill="#fff"
        d="M65.722 312.766H46.316c-.493 0-.893.595-.893 1.33v1.741c0 .735.4 1.332.893 1.332h19.407c.493 0 .893-.597.893-1.332v-1.741c0-.735-.4-1.33-.892-1.33zM59.096 296.367h-4.97c-.26 0-.47.343-.47.766s.21.765.47.765h4.97c.258 0 .469-.342.469-.765s-.21-.766-.47-.766z"
      ></path>
      <path
        fill="#585858"
        d="M60.783 301.326h-2.387c-.842 0-1.525 1.115-1.525 2.491 0 1.375.683 2.49 1.525 2.49h2.387c.843 0 1.525-1.115 1.525-2.49 0-1.376-.682-2.491-1.525-2.491z"
      ></path>
      <path
        fill="#fff"
        d="M59.096 298.847h-4.97c-.26 0-.47.343-.47.765 0 .423.21.766.47.766h4.97c.258 0 .469-.343.469-.766 0-.422-.21-.765-.47-.765z"
      ></path>
      <path
        fill="#AD6F4B"
        d="M44.716 54.17c8.332 0 15.041 9.517 15.041 21.34v8.756c0 11.823-6.403 15.151-14.735 15.123-8.766-.029-15.348-3.3-15.348-15.123V75.51c0-11.823 6.708-21.34 15.042-21.34z"
      ></path>
      <path
        fill="#815848"
        d="M42.449 55.865h4.531c5.217 0 9.417 5.872 9.417 13.167v5.402c0 7.294-4.2 13.167-9.417 13.167H42.45c-5.218 0-9.418-5.873-9.418-13.167v-5.402c0-7.294 4.2-13.167 9.418-13.167z"
      ></path>
      <path
        fill="#9A5731"
        d="M34.712 93.362c-.586 0-1.058.55-1.058 1.231 0 .682.472 1.23 1.058 1.23h5.88l1.689 1.433c.475.403 1.136.282 1.482-.27.346-.553.243-1.322-.232-1.725l-1.748-1.483c-.018-.016-.038-.024-.057-.038a.986.986 0 00-.76-.378h-6.254zm13.754 0c-.3 0-.57.145-.761.378-.019.014-.039.022-.057.038L45.9 95.26c-.475.403-.578 1.172-.232 1.724.346.553 1.007.674 1.482.27l1.688-1.432h5.881c.586 0 1.058-.548 1.058-1.23 0-.682-.472-1.23-1.058-1.23h-6.253z"
      ></path>
      <path
        fill="#AD6F4B"
        d="M21.672 43.526h47.026a9.714 9.714 0 019.734 9.736 9.713 9.713 0 01-9.734 9.734H21.672a9.713 9.713 0 01-9.735-9.734 9.714 9.714 0 019.735-9.736z"
      ></path>
      <path
        fill="#9A5731"
        d="M22.014 46.002h46.34a7.244 7.244 0 017.26 7.26 7.244 7.244 0 01-7.26 7.26h-46.34a7.244 7.244 0 01-7.26-7.26 7.244 7.244 0 017.26-7.26zM42.804 77.054h3.044c.245 0 .441.172.441.385v.227c0 .213-.197.385-.441.385h-3.044c-.244 0-.44-.172-.44-.385v-.227c0-.213.196-.385.44-.385z"
      ></path>
      <path
        fill="#4F4F4F"
        d="M42.268.535a8.835 8.835 0 015.83 0l4.018 1.4a8.84 8.84 0 002.706.492l4.267.1a8.96 8.96 0 015.738 2.278l2.502 2.222a9.067 9.067 0 002.617 1.628l3.075 1.246c2.259.916 4.073 2.724 5.041 5.026l.75 1.782a9.482 9.482 0 002.047 3.042l1.286 1.279c2.008 1.995 3.027 4.832 2.767 7.701l-.08.882a9.763 9.763 0 00.499 4.088l.276.791a9.736 9.736 0 01-.975 8.417l-.635.994a9.662 9.662 0 00-1.397 3.69l-.2 1.275c-.422 2.675-1.934 5.032-4.149 6.476l-2.163 1.41a9.273 9.273 0 00-2.43 2.315l-1.566 2.152c-1.352 1.858-3.319 3.136-5.524 3.587l-3.825.784a8.91 8.91 0 00-2.688 1.023l-3.37 1.952a8.874 8.874 0 01-5.814 1.1l-4.332-.673a8.783 8.783 0 00-2.71 0l-4.332.672a8.874 8.874 0 01-5.813-1.099l-3.372-1.952a8.91 8.91 0 00-2.688-1.023l-3.823-.784c-2.206-.452-4.172-1.729-5.525-3.587l-1.565-2.152a9.258 9.258 0 00-2.432-2.316l-2.162-1.41C9.9 53.9 8.39 51.544 7.968 48.869l-.2-1.275a9.638 9.638 0 00-1.397-3.69l-.634-.994a9.732 9.732 0 01-.976-8.416l.275-.792a9.784 9.784 0 00.5-4.088l-.08-.882c-.26-2.87.758-5.706 2.766-7.701l1.287-1.28a9.457 9.457 0 002.045-3.041l.75-1.782c.97-2.302 2.783-4.11 5.043-5.026l3.075-1.246a9.067 9.067 0 002.617-1.628l2.502-2.222a8.956 8.956 0 015.739-2.277l4.266-.1a8.847 8.847 0 002.707-.493l4.015-1.4z"
      ></path>
      <path
        fill="#AD6F4B"
        d="M39.897 16.164h10.57c8.787 0 22.682 12.405 22.682 24.603v17.309c0 12.199-13.023 25.55-22.354 25.55H39.571c-9.33 0-22.354-13.351-22.354-25.55V40.767c0-12.198 13.894-24.603 22.68-24.603z"
      ></path>
      <path
        fill="#4F4F4F"
        d="M40.715 13.358a27.518 27.518 0 00-27.578 27.579c0 5.8 1.775 11.167 4.81 15.6V44.814c0-4.37 2.175-8.768 5.33-12.473l11.97-.02a8.688 8.688 0 008.659-9.533h2.563a8.688 8.688 0 008.66 9.533l11.996.02c3.155 3.705 5.33 8.104 5.33 12.473v11.721a27.508 27.508 0 004.811-15.6 27.518 27.518 0 00-27.579-27.578h-8.972z"
      ></path>
      <path
        fill="#4F4F4F"
        d="M53.566 7.179h-16.77a7.759 7.759 0 00-7.759 7.76v3.947a7.76 7.76 0 007.76 7.76h16.769a7.76 7.76 0 007.76-7.76v-3.948a7.76 7.76 0 00-7.76-7.76z"
      ></path>
      <path
        fill="#4F4F4F"
        d="M22.426 19.037c6.701-3.38 16.446-5.217 20.546-5.604.886-.084 1.764.007 2.638.177l12.502 2.417a14.251 14.251 0 018.09 4.717l6.252 7.265a14.943 14.943 0 013.596 9.747v4.088c0 .587.138 1.165.401 1.688 1.9 3.754-2.888 7.273-5.739 4.217l-5.736-6.153a4.71 4.71 0 00-2.487-1.407l-18.572-3.871a13.971 13.971 0 00-2.873-.295l-9.673.015c-2.088.003-4.12.842-5.362 2.564-1.544 2.142-3.037 4.77-4.156 7.343-1.23 2.829-5.411 4.516-7.825 2.658a3.722 3.722 0 01-1.296-3.938c.093-.33.14-.67.14-1.015l-.001-3.08c-.002-1.074.886-4.713 1.165-5.748 1.583-5.846 3.086-13.11 8.39-15.785z"
      ></path>
      <path
        fill="#9A5731"
        d="M45.18 49.645c1.866 0 3.368 1.589 3.368 3.56v6.285c0 1.973-1.502 3.56-3.367 3.56-1.866 0-3.368-1.587-3.368-3.56v-6.284c0-1.972 1.502-3.56 3.367-3.56z"
      ></path>
      <path
        fill="#9A5731"
        d="M50.794 59.013c0 1.572-1.33 2.835-2.982 2.835h-5.26c-1.652 0-2.982-1.264-2.982-2.835s1.33-2.835 2.981-2.835h5.26c1.652 0 2.983 1.264 2.983 2.835zM36.691 69.63a4.03 4.03 0 00-1.041.123c-.278.078-.432.184-.432.295v.314c0 .62-.388 1.614.726 2.047 1.116.433 3.82.315 5.75.315h6.843c1.93 0 4.422.229 5.538-.205 1.115-.433.94-1.537.94-2.157v-.314c0-.11-.156-.217-.433-.295a4.037 4.037 0 00-1.043-.122H36.691z"
      ></path>
      <path
        fill="#4D4D4D"
        d="M28.429 42.227l9.503.193c1.034.02 1.849.87 1.828 1.903a1.862 1.862 0 01-1.903 1.827l-9.504-.192a1.862 1.862 0 01-1.828-1.904 1.862 1.862 0 011.904-1.827zM61.985 42.35l-9.505-.055a1.862 1.862 0 00-1.877 1.854 1.862 1.862 0 001.854 1.877l9.506.056a1.862 1.862 0 001.877-1.855 1.863 1.863 0 00-1.855-1.877z"
      ></path>
      <path
        fill="#61534B"
        d="M33.016 47.14h1.24c1.125 0 2.03.907 2.03 2.032v2.86c0 1.125-.905 2.03-2.03 2.03h-1.24a2.026 2.026 0 01-2.032-2.03v-2.86c0-1.125.906-2.031 2.032-2.031zM57.343 47.14h-1.24a2.027 2.027 0 00-2.03 2.032v2.86c0 1.125.905 2.03 2.03 2.03h1.24a2.026 2.026 0 002.031-2.03v-2.86a2.027 2.027 0 00-2.031-2.031z"
      ></path>
    </svg>