    <svg
      xmlns="http://www.w3.org/2000/svg"
      width="89"
      height="312"
      fill="none"
      viewBox="0 0 89 312"
    >
      <path
        fill="#F6D2AF"
        d="M53.075 231.195h1.667c4.182 0 7.572 4.333 7.572 9.677v44.324l1.517 18.861c0 4.122-3.099 7.462-6.921 7.462h-1.613c-3.822 0-6.92-3.34-6.92-7.462v-28.059c0-1.805-.89-24.571-.89-26.692v-10.967c0-.412.027-.822.083-1.227.466-3.421 2.79-5.917 5.505-5.917z"
      ></path>
      <path
        fill="#F6D2AF"
        d="M56.675 159.635h6.03c1.554 0 2.937 1.261 3.444 3.139.074.277.129.563.16.854l1.398 34.09a41.17 41.17 0 01.256 4.577v11.331c0 1.769-.115 3.537-.341 5.283l-.742 5.694c-.425 3.26-1.296 6.4-2.573 9.275 0 0-1.836 5.033-1.836 6.229 0 3.817.397 9.061-4.008 8.973h-3.565c-3.199 0-7.403.017-7.403-4.073 0-.882-.13-10.918-.32-12.12l-1.18-7.507-1.135-9.568a41.032 41.032 0 01-.284-4.821v-35.893c0-8.54 5.417-15.463 12.099-15.463zM52.836 296.064h6.498c3.747 0 6.785 3.452 6.785 7.709 0 4.256-3.038 7.707-6.785 7.707h-6.498c-3.746 0-6.785-3.451-6.785-7.707 0-4.257 3.038-7.709 6.785-7.709z"
      ></path>
      <path
        fill="#F6D2AF"
        d="M48.298 298.878h15.574c1.24 0 2.247 1.656 2.247 3.701v4.839c0 2.044-1.007 3.701-2.247 3.701H48.298c-1.24 0-2.247-1.657-2.247-3.701v-4.839c0-2.045 1.006-3.701 2.247-3.701zM34.964 231.195h-1.667c-4.182 0-7.572 4.333-7.572 9.677v44.324l-1.516 18.861c0 4.122 3.098 7.462 6.92 7.462h1.614c3.821 0 6.92-3.34 6.92-7.462v-28.059c0-1.805.89-24.571.89-26.692v-10.967c0-.412-.028-.822-.084-1.227-.466-3.421-2.79-5.917-5.505-5.917z"
      ></path>
      <path
        fill="#F6D2AF"
        d="M31.364 159.635h-6.03c-1.554 0-2.937 1.261-3.444 3.139a5.696 5.696 0 00-.16.854l-1.398 34.09a41.17 41.17 0 00-.256 4.577v11.331c0 1.769.115 3.537.342 5.283l.741 5.694c.425 3.26 1.296 6.4 2.573 9.275 0 0 1.836 5.033 1.836 6.229 0 3.817-.397 9.061 4.008 8.973h3.565c3.199 0 7.403.017 7.403-4.073 0-.882.13-10.918.32-12.12l1.18-7.507 1.135-9.568a41.01 41.01 0 00.284-4.821v-35.893c0-8.54-5.417-15.463-12.099-15.463zM35.213 296.064h-6.499c-3.747 0-6.784 3.464-6.784 7.735 0 4.272 3.037 7.734 6.784 7.734h6.499c3.746 0 6.784-3.462 6.784-7.734 0-4.271-3.038-7.735-6.784-7.735z"
      ></path>
      <path
        fill="#F6D2AF"
        d="M39.75 303.052H24.177c-1.24 0-2.247 1.147-2.247 2.562v3.35c0 1.415 1.006 2.561 2.247 2.561H39.75c1.241 0 2.247-1.146 2.247-2.561v-3.35c0-1.415-1.006-2.562-2.247-2.562zM19.096 103.365c0-16.078 52.012-14.847 52.012 0l-1.982 15.895-2.744 45.232c0 16.077-8.464.582-22.304.582-6.295 0-11.8 2.149-15.932 2.979-4.952.996-6.422 3.45-6.422-5.314l-2.628-43.479v-15.895z"
      ></path>
      <path
        fill="#F6D2AF"
        d="M44.158 74.344c.977 0 1.951.076 2.917.223 11.642 1.778 22.019 13.951 22.019 28.798l-1.828 15.895-2.532 45.232c0 16.077-7.808.582-20.576.582-5.807 0-10.886 2.149-14.698 2.979-4.568.996-5.924 3.45-5.924-5.314l-2.425-43.479v-15.895c0-16.078 10.28-29.02 23.047-29.02z"
      ></path>
      <path
        fill="#F6D2AF"
        d="M43.904 139.429h.77c12.774 0 16.92-8.969 19.016 3.187l2.43 20.474c2.094 12.145-8.672 26.144-21.445 26.144h-.771c-12.773 0-24.021-14.714-21.927-26.86l3.337-19.758c2.096-12.156 5.817-3.187 18.59-3.187zM15.724 89.952c-3.863-1.025-8.84 6.617-9.69 12.65 0 0-2.515 31.225-2.49 33.644.042 4.238 1.451 7.346 4.499 8.153 3.327.884 5.538-1.388 6.63-5.89.372-1.528 2.585-28.288 2.638-29.909.146-4.457 1.32-17.877-1.587-18.648z"
      ></path>
      <path
        fill="#F6D2AF"
        d="M9.676 124.432l-.05-.002c-3.166-.134-5.912 4.685-6.133 10.763l-1.66 45.643c-.22 6.079 2.168 11.115 5.334 11.249l.05.002c3.166.134 5.912-4.685 6.133-10.764l1.66-45.643c.22-6.079-2.168-11.115-5.334-11.248z"
      ></path>
      <path
        fill="#F6D2AF"
        d="M10.302 172.482l-1.99-.015c-3.814-.028-7.086 5.646-7.308 12.673l-.197 6.242c-.223 7.027 2.689 12.746 6.503 12.773l1.99.016c3.814.027 7.085-5.646 7.308-12.673l.198-6.243c.221-7.026-2.69-12.745-6.504-12.773z"
      ></path>
      <path
        fill="#F6D2AF"
        d="M10.794 190.238c-.83-4.469-3.755-6.732-6.534-5.055-2.778 1.678-4.359 6.661-3.53 11.129l2.267 12.205c.83 4.468 3.755 6.731 6.534 5.053 2.78-1.677 4.36-6.659 3.53-11.128l-2.267-12.204z"
      ></path>
      <path
        fill="#F2BF92"
        d="M17.3 187.852c.093-3.116-1.18-5.652-2.846-5.666-1.665-.014-3.091 2.5-3.185 5.615l-.256 8.508c-.094 3.115 1.18 5.652 2.846 5.666 1.664.014 3.09-2.5 3.184-5.615l.256-8.508z"
      ></path>
      <path
        fill="#F6D2AF"
        d="M72.678 90.975c3.864-1.024 8.84 6.618 9.69 12.651 0 0 2.515 31.224 2.491 33.644-.042 4.237-1.452 7.345-4.5 8.153-3.327.883-5.537-1.389-6.63-5.891-.371-1.528-2.585-28.287-2.638-29.908-.146-4.457-1.32-17.878 1.587-18.649z"
      ></path>
      <path
        fill="#F6D2AF"
        d="M78.727 125.455l.05-.002c3.166-.134 5.912 4.685 6.132 10.763l1.66 45.644c.22 6.079-2.167 11.115-5.334 11.249l-.05.002c-3.166.134-5.912-4.685-6.133-10.764l-1.659-45.643c-.22-6.079 2.167-11.115 5.334-11.249z"
      ></path>
      <path
        fill="#F6D2AF"
        d="M78.796 172.482l1.99-.015c3.814-.028 7.086 5.646 7.308 12.673l.198 6.242c.222 7.027-2.69 12.746-6.503 12.773l-1.99.016c-3.815.027-7.086-5.646-7.309-12.673l-.197-6.243c-.222-7.026 2.69-12.745 6.503-12.773z"
      ></path>
      <path
        fill="#F6D2AF"
        d="M78.304 190.238c.83-4.469 3.755-6.732 6.534-5.055 2.779 1.678 4.359 6.661 3.53 11.129L86.1 208.517c-.83 4.468-3.755 6.731-6.534 5.053-2.779-1.677-4.36-6.659-3.53-11.128l2.267-12.204z"
      ></path>
      <path
        fill="#F2BF92"
        d="M71.798 187.852c-.094-3.116 1.18-5.652 2.846-5.666 1.665-.014 3.091 2.5 3.184 5.615l.257 8.508c.094 3.115-1.18 5.652-2.846 5.666-1.665.014-3.091-2.5-3.185-5.615l-.256-8.508z"
      ></path>
      <path
        fill="#F6D2AF"
        d="M15.247 83.298h57.688c5.718 0 10.32 5.88 10.32 13.183 0 7.304-4.602 13.184-10.32 13.184H15.247c-5.717 0-10.32-5.88-10.32-13.184 0-7.304 4.603-13.183 10.32-13.183z"
      ></path>
      <path
        fill="#F6D2AF"
        d="M35.043 81.734h17.989c10.051 0 18.142 10.123 18.142 22.699 0 12.574-8.09 22.698-18.143 22.698H35.044c-10.05 0-18.143-10.124-18.143-22.698 0-12.576 8.092-22.7 18.143-22.7z"
      ></path>
      <path
        fill="#F2BF92"
        d="M44.515 109.665c2.34 0 4.224 2.584 4.224 5.792v5.372c0 3.209-1.884 5.792-4.224 5.792-2.342 0-4.226-2.583-4.226-5.792v-5.372c0-3.208 1.884-5.792 4.226-5.792z"
      ></path>
      <path
        fill="#F6D2AF"
        d="M33.844 103.586a4.99 4.99 0 00-3.017 1.029c-2.87.211-5.56 1.627-7.524 3.961-1.965 2.334-3.059 5.411-3.059 8.608 0 3.341 1.194 6.546 3.32 8.908 2.124 2.363 5.006 3.69 8.012 3.69 2.738-.003 5.381-1.109 7.443-3.112 2.062-2.002 3.402-4.767 3.772-7.783.076-.413.117-.842.117-1.282v-7.829c0-3.429-2.435-6.19-5.46-6.19h-3.604zm16.784 0c-3.023 0-5.459 2.761-5.459 6.19v7.829c0 .44.042.869.118 1.282.37 3.016 1.71 5.781 3.771 7.783 2.062 2.003 4.706 3.109 7.443 3.112 3.006 0 5.888-1.327 8.013-3.69 2.125-2.362 3.32-5.567 3.32-8.908-.001-3.197-1.094-6.274-3.06-8.608-1.965-2.334-4.654-3.75-7.523-3.961a4.991 4.991 0 00-3.018-1.029h-3.605z"
      ></path>
      <path
        fill="#F2BF92"
        fillRule="evenodd"
        d="M45.374 153.3a1.291 1.291 0 00-2.581 0v2.402a1.29 1.29 0 002.581 0V153.3z"
        clipRule="evenodd"
      ></path>
      <path
        fill="#4B4B4B"
        d="M35.554 80.381h17.988c10.052 0 18.143 10.17 18.143 22.801 0 12.632-.35 29.258-17.77 26.241H35.553c-18.001 2.78-18.144-13.609-18.144-26.241 0-12.631 8.092-22.8 18.144-22.8z"
      ></path>
      <path
        fill="#4B4B4B"
        fillOpacity="0.99"
        d="M44.45 72.959c1.01 0 2.015.075 3.012.224 12.021 1.785 22.515 11.285 22.735 28.927l-.43 16.214-49.113-.248V102.11c-.215-18.184 10.613-29.151 23.796-29.151z"
      ></path>
      <path
        fill="#4F4F4F"
        d="M21.727 159.281c1.206 23.264 10.17 41.378 21.286 41.378 11.263 0 22.355-17.323 23.37-41.025l-44.656-.353z"
      ></path>
      <path
        fill="#4B4B4B"
        d="M66.383 159.635l-22.902 4.381s.882 48.77 1.552 52.592h22.932c1.21-21.654-.114-44.942-1.582-56.973zM21.726 159.281l21.678 4.651v36.627c.16 5.443.076 10.849-.352 16.201l-22.932-.186c-1.587-29.831.178-39.178 1.606-57.293z"
      ></path>
      <path
        fill="#fff"
        d="M38.86 278.995H26.425c-.66 0-1.197.935-1.197 2.09v18.325c0 1.156.536 2.091 1.197 2.091H38.86c.66 0 1.197-.935 1.197-2.091v-18.325c0-1.155-.536-2.09-1.197-2.09z"
      ></path>
      <path
        fill="#4B4B4B"
        d="M34.156 285.448h-4.342c-1.032 0-1.869 1.34-1.869 2.994v2.686c0 1.655.837 2.995 1.869 2.995h4.342c1.033 0 1.869-1.34 1.869-2.995v-2.686c0-1.654-.836-2.994-1.869-2.994z"
      ></path>
      <path
        fill="#4F4F4F"
        d="M35.342 290.061H28.94c-3.692 0-6.685 4.797-6.685 10.715s2.993 10.714 6.685 10.714h6.403c3.692 0 6.685-4.796 6.685-10.714s-2.993-10.715-6.685-10.715z"
      ></path>
      <path
        fill="#4F4F4F"
        d="M40.197 299.795H24.232c-1.271 0-2.302 1.589-2.302 3.548v4.64c0 1.961 1.03 3.55 2.302 3.55h15.965c1.272 0 2.303-1.589 2.303-3.55v-4.64c0-1.959-1.03-3.548-2.303-3.548z"
      ></path>
      <path
        fill="#fff"
        d="M41.194 307.043H23.087c-.46 0-.833.597-.833 1.334v1.746c0 .737.373 1.335.833 1.335h18.107c.46 0 .833-.598.833-1.335v-1.746c0-.737-.373-1.334-.833-1.334zM34.613 290.6h-5.077c-.265 0-.48.343-.48.768 0 .423.215.767.48.767h5.077c.264 0 .479-.344.479-.767 0-.425-.215-.768-.48-.768z"
      ></path>
      <path
        fill="#585858"
        d="M29.175 295.542h-2.44c-.86 0-1.557 1.117-1.557 2.497 0 1.379.698 2.497 1.558 2.497h2.44c.86 0 1.556-1.118 1.556-2.497 0-1.38-.696-2.497-1.557-2.497z"
      ></path>
      <path
        fill="#fff"
        d="M34.613 293.056h-5.077c-.265 0-.48.344-.48.767 0 .424.215.767.48.767h5.077c.264 0 .479-.343.479-.767 0-.423-.215-.767-.48-.767zM61.784 278.993H49.487c-.654 0-1.184.945-1.184 2.111v18.486c0 1.166.53 2.11 1.184 2.11h12.297c.653 0 1.183-.944 1.183-2.11v-18.486c0-1.166-.53-2.111-1.183-2.111z"
      ></path>
      <path
        fill="#4B4B4B"
        d="M57.954 285.535h-4.252c-1.01 0-1.829 1.338-1.829 2.986v2.68c0 1.649.819 2.986 1.829 2.986h4.252c1.01 0 1.829-1.337 1.829-2.986v-2.68c0-1.648-.82-2.986-1.83-2.986z"
      ></path>
      <path
        fill="#4F4F4F"
        d="M59.068 290.106h-6.267c-3.615 0-6.545 4.783-6.545 10.686 0 5.902 2.93 10.685 6.545 10.685h6.267c3.615 0 6.81-4.699 6.81-10.6 0-5.903-3.195-10.771-6.81-10.771z"
      ></path>
      <path
        fill="#4F4F4F"
        d="M63.865 299.813H48.236c-1.244 0-2.254 1.585-2.254 3.538v4.628c0 1.955 1.01 3.54 2.254 3.54h15.629c1.245 0 2.254-1.585 2.254-3.54v-4.628c0-1.953-1.01-3.538-2.254-3.538z"
      ></path>
      <path
        fill="#fff"
        d="M64.797 307.042H47.072c-.45 0-.816.595-.816 1.33v1.741c0 .735.365 1.332.816 1.332h17.725c.45 0 .816-.597.816-1.332v-1.741c0-.735-.365-1.33-.816-1.33zM59.131 290.643h-4.97c-.26 0-.47.342-.47.766 0 .422.21.765.47.765h4.97c.258 0 .469-.343.469-.765 0-.424-.21-.766-.469-.766z"
      ></path>
      <path
        fill="#585858"
        d="M60.819 295.602H58.43c-.842 0-1.525 1.115-1.525 2.49 0 1.375.683 2.49 1.525 2.49h2.388c.842 0 1.525-1.115 1.525-2.49 0-1.375-.683-2.49-1.526-2.49z"
      ></path>
      <path
        fill="#fff"
        d="M59.131 293.122h-4.97c-.26 0-.47.343-.47.765 0 .423.21.766.47.766h4.97c.258 0 .469-.343.469-.766 0-.422-.21-.765-.469-.765z"
      ></path>
      <path
        fill="#4F4F4F"
        d="M21.727 159.281c1.206 23.264 10.17 41.378 21.286 41.378 11.263 0 22.355-17.323 23.37-41.025l-44.656-.353z"
      ></path>
      <path
        fill="#4B4B4B"
        d="M66.383 159.635l-22.902 4.381s.882 48.77 1.552 52.592h22.932c1.21-21.654-.114-44.942-1.582-56.973zM21.726 159.281l21.678 4.651v36.627c.16 5.443.076 10.849-.352 16.201l-22.932-.186c-1.587-29.831.178-39.178 1.606-57.293z"
      ></path>
      <path
        fill="#F6D2AF"
        d="M44.757 47.95c8.332 0 15.041 9.377 15.041 21.024V77.6c0 11.648-6.403 14.927-14.735 14.9-8.766-.03-15.348-3.252-15.348-14.9v-8.625c0-11.647 6.708-21.023 15.042-21.023z"
      ></path>
      <path
        fill="#F2BF92"
        d="M42.49 49.647h4.531c5.217 0 9.417 5.872 9.417 13.166v5.402c0 7.295-4.2 13.167-9.417 13.167H42.49c-5.217 0-9.417-5.872-9.417-13.167v-5.402c0-7.294 4.2-13.166 9.417-13.166zM34.438 86.525c-.592 0-1.069.549-1.069 1.23 0 .683.477 1.231 1.07 1.231h5.943l1.707 1.432c.48.403 1.148.283 1.498-.27.35-.553.245-1.322-.235-1.725l-1.767-1.483c-.018-.015-.038-.024-.057-.037a1 1 0 00-.77-.378h-6.32zm13.902 0a1 1 0 00-.77.377c-.018.014-.038.023-.056.038l-1.767 1.483c-.48.403-.585 1.172-.235 1.725.35.553 1.018.673 1.498.27l1.706-1.432h5.944c.593 0 1.07-.548 1.07-1.23 0-.682-.477-1.231-1.07-1.231h-6.32z"
      ></path>
      <path
        fill="#F6D2AF"
        d="M21.711 37.307h47.026a9.714 9.714 0 019.734 9.736 9.713 9.713 0 01-9.734 9.734H21.71a9.713 9.713 0 01-9.734-9.734 9.714 9.714 0 019.734-9.736z"
      ></path>
      <path
        fill="#F2BF92"
        d="M22.053 39.783h46.34a7.244 7.244 0 017.26 7.26 7.244 7.244 0 01-7.26 7.26h-46.34a7.244 7.244 0 01-7.26-7.26 7.244 7.244 0 017.26-7.26zM42.845 70.835h3.044c.244 0 .441.171.441.384v.228c0 .212-.197.384-.441.384h-3.044c-.244 0-.44-.172-.44-.385v-.227c0-.213.196-.384.44-.384z"
      ></path>
      <path
        fill="#F6D2AF"
        d="M39.938 9.945h10.57c8.787 0 22.682 12.404 22.682 24.603v17.309c0 12.199-13.023 25.55-22.354 25.55H39.612c-9.33 0-22.354-13.351-22.354-25.55V34.548c0-12.199 13.894-24.603 22.68-24.603z"
      ></path>
      <path
        fill="#A27B5F"
        d="M40.754 7.139a27.518 27.518 0 00-27.578 27.578c0 5.8 1.775 11.167 4.81 15.6V38.596c0-4.37 2.175-8.769 5.33-12.473l11.97-.02a8.688 8.688 0 008.66-9.534h2.562a8.688 8.688 0 008.66 9.533l11.996.02c3.155 3.705 5.33 8.104 5.33 12.474v11.72a27.507 27.507 0 004.812-15.599 27.519 27.519 0 00-27.58-27.578h-8.972z"
      ></path>
      <path
        fill="#A27B5F"
        d="M53.605.96h-16.77a7.759 7.759 0 00-7.759 7.759v3.948a7.76 7.76 0 007.76 7.76h16.769a7.76 7.76 0 007.76-7.76V8.72a7.76 7.76 0 00-7.76-7.76z"
      ></path>
      <path
        fill="#F2BF92"
        d="M45.22 43.426c1.865 0 3.367 1.589 3.367 3.56v6.285c0 1.972-1.502 3.56-3.368 3.56-1.865 0-3.367-1.588-3.367-3.56v-6.284c0-1.972 1.502-3.56 3.367-3.56z"
      ></path>
      <path
        fill="#F2BF92"
        d="M50.833 52.793c0 1.572-1.33 2.836-2.982 2.836h-5.26c-1.652 0-2.982-1.264-2.982-2.836 0-1.57 1.33-2.834 2.981-2.834h5.26c1.652 0 2.983 1.263 2.983 2.834z"
      ></path>
      <path
        fill="#fff"
        d="M36.73 59.715c-.391 0-.766.126-1.042.35-.278.222-.432.526-.432.843v.897c0 1.772.63 3.395 1.745 4.632a6.388 6.388 0 004.73 2.114h6.844c1.93 0 3.617-.876 4.731-2.114 1.116-1.237 1.746-2.86 1.746-4.632v-.897c0-.317-.155-.62-.431-.844a1.671 1.671 0 00-1.043-.349H36.729z"
      ></path>
      <path
        fill="#4D4D4D"
        d="M28.664 38.39l8.1-2.874c.88-.313 2.095-.267 2.723.103.629.37.425.92-.455 1.232l-8.1 2.875c-.88.313-2.096.267-2.725-.103-.628-.37-.424-.92.457-1.232zM61.522 38.39l-8.1-2.874c-.88-.313-2.096-.267-2.724.103-.628.37-.425.92.456 1.232l8.1 2.875c.88.313 2.096.267 2.724-.103.629-.37.425-.92-.456-1.232z"
      ></path>
      <path
        fill="#61534B"
        d="M33.057 40.922h1.24c1.125 0 2.03.907 2.03 2.031v2.86c0 1.125-.905 2.031-2.03 2.031h-1.24a2.026 2.026 0 01-2.032-2.03v-2.86c0-1.125.906-2.032 2.032-2.032zM57.384 40.922h-1.24a2.027 2.027 0 00-2.03 2.031v2.86c0 1.125.905 2.031 2.03 2.031h1.24a2.026 2.026 0 002.032-2.03v-2.86a2.027 2.027 0 00-2.032-2.032z"
      ></path>
    </svg>