    <svg
      xmlns="http://www.w3.org/2000/svg"
      width="89"
      height="323"
      fill="none"
      viewBox="0 0 89 323"
    >
      <path
        fill="#966D5D"
        d="M54.954 241.82h1.996c5.007 0 9.066 4.333 9.066 9.677l.001 25.92v18.404l1.815 18.861c0 4.122-3.71 7.462-8.286 7.462h-1.932c-4.577 0-8.286-3.34-8.286-7.462v-28.059c0-1.805-1.066-24.571-1.066-26.692v-10.967c0-.412.033-.822.1-1.227.557-3.421 3.34-5.917 6.592-5.917z"
      ></path>
      <path
        fill="#966D5D"
        d="M59.264 170.26h7.221c1.861 0 6.947.167 6.986.457.902 8.066 2.125 7.819 2.487 29.831 0 0-.107 11.501-1.359 21.206-.94 7.281-4.667 19.874-6.196 22.749 0 0-2.198 5.033-2.198 6.229 0 3.817.475 9.061-4.8 8.973h-4.268c-3.83 0-8.865.017-8.865-4.073 0-.882-.156-10.918-.383-12.12l-1.413-7.507-1.358-9.568a34.341 34.341 0 01-.34-4.821v-35.893c0-8.54 6.486-15.463 14.486-15.463zM54.668 306.689h7.78c4.487 0 8.125 3.452 8.125 7.709 0 4.256-3.638 7.707-8.125 7.707h-7.78c-4.486 0-8.125-3.451-8.125-7.707 0-4.257 3.639-7.709 8.125-7.709z"
      ></path>
      <path
        fill="#966D5D"
        d="M49.233 309.503h18.65c1.485 0 2.69 1.656 2.69 3.701v4.839c0 2.044-1.205 3.701-2.69 3.701h-18.65c-1.485 0-2.69-1.657-2.69-3.701v-4.839c0-2.045 1.205-3.701 2.69-3.701zM33.269 240.797h-1.996c-5.007 0-9.067 4.333-9.067 9.677v44.323l-1.816 18.861c0 4.123 3.71 7.463 8.287 7.463h1.932c4.576 0 8.286-3.34 8.286-7.463V285.6c0-1.805 1.066-24.572 1.066-26.692V247.94c0-.411-.034-.822-.1-1.227-.558-3.42-3.34-5.916-6.592-5.916z"
      ></path>
      <path
        fill="#966D5D"
        d="M29.25 170.26h-7.221c-1.861 0-6.948.167-6.986.457-.902 8.066-2.126 7.819-2.487 29.831 0 0 .106 11.501 1.359 21.206.94 7.281 4.667 19.874 6.195 22.749 0 0 2.199 5.033 2.199 6.229 0 3.817-.475 9.061 4.8 8.973h4.268c3.83 0 8.865.017 8.865-4.073 0-.882.156-10.918.382-12.12l1.413-7.507 1.359-9.568c.226-1.596.34-3.207.34-4.821v-35.893c0-8.54-6.486-15.463-14.487-15.463zM26.285 306.328h7.78c4.487 0 8.125 3.452 8.125 7.708 0 4.257-3.638 7.707-8.125 7.707h-7.78c-4.486 0-8.125-3.45-8.125-7.707 0-4.256 3.639-7.708 8.125-7.708z"
      ></path>
      <path
        fill="#966D5D"
        d="M20.85 309.142H39.5c1.485 0 2.69 1.655 2.69 3.7v4.84c0 2.044-1.205 3.7-2.69 3.7H20.85c-1.485 0-2.69-1.656-2.69-3.7v-4.84c0-2.045 1.205-3.7 2.69-3.7z"
      ></path>
      <path
        fill="#7B5A4C"
        d="M44.171 83.945c1.06 0 2.116.076 3.162.223 12.62 1.778 23.868 13.951 23.868 28.798l-1.981 15.895 4.252 40.375c0 16.077-15.46 5.439-29.3 5.439s-29.399 10.638-29.399-5.439l4.416-40.375v-15.895c0-16.078 11.142-29.02 24.982-29.02z"
      ></path>
      <path
        fill="#9D6B5A"
        fillOpacity="0.99"
        d="M44.117 83.945c1.002 0 2 .076 2.989.223 11.93 1.778 22.562 13.951 22.562 28.798l-1.873 15.895 4.02 40.375c0 16.077-14.615 5.439-27.698 5.439-13.082 0-27.789 10.638-27.789-5.439l4.174-40.375v-15.895c0-16.078 10.533-29.02 23.615-29.02z"
      ></path>
      <path
        fill="#966D5D"
        d="M43.957 149.03h1.002c11.286 0 16.709-4.155 19.88-2.976 1.488.554 2.48 2.282 3.35 6.163l1.213 16.77c.56 2.5-11.274 29.849-24.444 29.849h-1c-8.381 0-24.827-26.373-24.048-29.849l1.827-16.77c2.722-12.156 5.638-3.187 22.22-3.187z"
      ></path>
      <path
        fill="#966D5D"
        d="M43.943 138.026c13.298 0 24.246 14.158 24.246 30.96H19.91c0-16.802 10.734-30.96 24.033-30.96zM15.818 99.553c-3.864-1.024-8.84 6.617-9.69 12.65 0 0-2.515 31.225-2.49 33.644.042 4.238 1.451 7.346 4.499 8.154 3.327.883 5.538-1.389 6.63-5.891.372-1.528 2.585-28.288 2.638-29.909.146-4.457 1.32-17.877-1.587-18.648z"
      ></path>
      <path
        fill="#966D5D"
        d="M9.77 134.033l-.05-.002c-3.167-.134-5.912 4.685-6.133 10.763l-1.66 45.643c-.22 6.079 2.167 11.115 5.334 11.249l.05.002c3.166.135 5.912-4.685 6.133-10.764l1.659-45.643c.221-6.079-2.167-11.115-5.333-11.248z"
      ></path>
      <path
        fill="#966D5D"
        d="M10.396 182.084l-1.99-.016c-3.814-.027-7.086 5.647-7.308 12.673L.9 200.984c-.223 7.026 2.689 12.745 6.503 12.773l1.99.015c3.814.028 7.085-5.646 7.307-12.673l.198-6.242c.222-7.027-2.69-12.746-6.503-12.773z"
      ></path>
      <path
        fill="#966D5D"
        d="M10.888 199.84c-.83-4.47-3.755-6.732-6.534-5.055-2.779 1.677-4.36 6.66-3.53 11.128l2.267 12.205c.83 4.468 3.755 6.731 6.534 5.054 2.78-1.677 4.359-6.659 3.53-11.128l-2.267-12.204z"
      ></path>
      <path
        fill="#856152"
        d="M17.393 197.453c.093-3.116-1.18-5.652-2.846-5.666-1.665-.014-3.09 2.5-3.184 5.616l-.256 8.507c-.095 3.115 1.18 5.652 2.845 5.667 1.665.013 3.091-2.501 3.185-5.616l.256-8.508z"
      ></path>
      <path
        fill="#966D5D"
        d="M72.772 100.576c3.863-1.024 8.84 6.618 9.69 12.651 0 0 2.515 31.224 2.49 33.644-.042 4.237-1.451 7.346-4.499 8.153-3.327.883-5.538-1.389-6.63-5.891-.372-1.528-2.585-28.287-2.638-29.908-.146-4.457-1.32-17.878 1.587-18.649z"
      ></path>
      <path
        fill="#966D5D"
        d="M78.82 135.057l.05-.003c3.166-.134 5.912 4.686 6.133 10.763l1.66 45.644c.22 6.079-2.167 11.115-5.334 11.249l-.05.002c-3.166.134-5.912-4.685-6.133-10.764l-1.66-45.643c-.22-6.079 2.168-11.115 5.334-11.248z"
      ></path>
      <path
        fill="#966D5D"
        d="M78.89 182.084l1.99-.016c3.814-.027 7.086 5.647 7.308 12.673l.198 6.243c.221 7.026-2.69 12.745-6.504 12.773l-1.99.015c-3.814.028-7.085-5.646-7.308-12.673l-.197-6.242c-.222-7.027 2.689-12.746 6.503-12.773z"
      ></path>
      <path
        fill="#966D5D"
        d="M78.397 199.84c.83-4.47 3.756-6.732 6.534-5.055 2.78 1.677 4.36 6.66 3.53 11.128l-2.266 12.205c-.83 4.468-3.756 6.731-6.534 5.054-2.78-1.677-4.36-6.659-3.53-11.128l2.266-12.204z"
      ></path>
      <path
        fill="#856152"
        d="M71.891 197.453c-.093-3.116 1.18-5.652 2.846-5.666 1.666-.014 3.092 2.5 3.185 5.616l.256 8.507c.094 3.115-1.18 5.652-2.845 5.667-1.665.013-3.091-2.501-3.185-5.616l-.257-8.508z"
      ></path>
      <path
        fill="#966D5D"
        d="M15.341 92.9H73.03c5.717 0 10.32 5.879 10.32 13.183s-4.603 13.183-10.32 13.183H15.341c-5.717 0-10.32-5.879-10.32-13.183s4.603-13.184 10.32-13.184z"
      ></path>
      <path
        fill="#966D5D"
        d="M35.137 91.335h17.988c2.783 0 5.416.776 7.768 2.166 6.144 3.627 10.375 11.439 10.375 20.533 0 12.574-8.091 22.698-18.143 22.698H35.137c-10.05 0-18.143-10.124-18.143-22.698 0-12.576 8.092-22.699 18.143-22.699z"
      ></path>
      <path
        fill="#7B5A4C"
        d="M44.608 119.266c2.34 0 4.225 2.584 4.225 5.792v5.372c0 3.209-1.884 5.792-4.225 5.792-2.34 0-4.225-2.583-4.225-5.792v-5.372c0-3.208 1.884-5.792 4.225-5.792z"
      ></path>
      <path
        fill="#966D5D"
        d="M33.938 113.188c-1.118 0-2.154.397-3.018 1.077-2.869.221-5.559 1.705-7.524 4.15-1.964 2.445-3.058 5.669-3.058 9.018 0 3.5 1.194 6.858 3.32 9.332 2.124 2.476 5.006 3.866 8.012 3.866 2.737-.003 5.381-1.162 7.443-3.26 2.061-2.098 3.401-4.994 3.772-8.154.076-.433.117-.882.117-1.343v-8.202c0-3.592-2.435-6.484-5.46-6.484h-3.604zm16.784 0c-3.023 0-5.459 2.892-5.459 6.484v8.202c0 .461.041.91.117 1.343.37 3.16 1.71 6.056 3.772 8.154 2.061 2.098 4.706 3.257 7.443 3.26 3.006 0 5.888-1.39 8.013-3.866 2.125-2.474 3.32-5.832 3.32-9.332-.002-3.349-1.094-6.573-3.06-9.018-1.965-2.445-4.654-3.929-7.523-4.15-.864-.68-1.9-1.077-3.019-1.077h-3.604z"
      ></path>
      <path
        fill="#4F4F4F"
        fillOpacity="0.99"
        d="M44.173 83.945c1.06 0 2.116.076 3.162.223 12.62 1.778 23.869 13.951 23.869 28.798l-7.923 15.895H26.474l-7.283-15.895c0-16.078 11.143-29.02 24.982-29.02z"
      ></path>
      <path
        fill="#4F4F4F"
        d="M35.137 91.335h17.988c10.052 0 18.143 10.123 18.143 22.699 0 5.327.912 10.963-2.114 14.827-3.834 4.894-10.235 7.871-16.029 7.871H35.137c-5.513 0-12.624-3.046-15.947-7.871-2.734-3.972-2.196-9.149-2.196-14.827 0-12.576 8.092-22.699 18.143-22.699zM15.366 168.986c-2.253 23.524 13.087 41.275 27.505 41.275 14.607 0 33.057-17.703 30.098-41.275H15.366z"
      ></path>
      <path
        fill="#4B4B4B"
        d="M73.471 168.986l-29.578 4.564.978 36.944c-.487 5.239-.44 10.63.338 15.868l28.596.099c2.2-12.465 1.968-20.911 2.153-28.89.234-10.112.148-17.512-2.487-28.585z"
      ></path>
      <path
        fill="#4B4B4B"
        d="M14.775 168.986l30.004 4.564-.978 36.944c.487 5.239.44 10.63-.338 15.868l-28.596.099c-2.2-12.465-1.969-20.911-2.153-28.89-.234-10.112-.575-17.512 2.06-28.585z"
      ></path>
      <path
        fill="#7B5A4C"
        fillRule="evenodd"
        d="M45.468 160.279a1.291 1.291 0 00-2.581 0v2.402a1.29 1.29 0 002.58 0v-2.402z"
        clipRule="evenodd"
      ></path>
      <path
        fill="#7B5A4C"
        d="M63.706 153.372c-19.02-4.993-38.567 0-38.567 0 0-1.13 9.141-4.993 19.546-4.993s19.021 3.863 19.021 4.993z"
      ></path>
      <path
        fill="#4F4F4F"
        d="M15.366 168.985c-2.253 23.524 13.087 41.275 27.505 41.275 14.607 0 33.057-17.703 30.098-41.275H15.366z"
      ></path>
      <path
        fill="#4B4B4B"
        d="M73.471 168.985l-29.578 4.564.978 36.944c-.487 5.239-.44 10.63.338 15.868l28.596.099c2.2-12.465 1.968-20.911 2.153-28.89.234-10.112.148-17.512-2.487-28.585z"
      ></path>
      <path
        fill="#4B4B4B"
        d="M14.775 168.985l30.004 4.564-.978 36.944c.487 5.239.44 10.63-.338 15.868l-28.596.099c-2.2-12.465-1.969-20.911-2.153-28.89-.234-10.112-.575-17.512 2.06-28.585z"
      ></path>
      <path
        fill="#fff"
        d="M37.935 289.618h-14.89c-.79 0-1.432.936-1.432 2.091l-.18 10.964.18 7.361c0 1.155.642 2.091 1.433 2.091h14.89c.79 0 1.433-.936 1.433-2.091v-18.325c0-1.155-.643-2.091-1.434-2.091z"
      ></path>
      <path
        fill="#4B4B4B"
        d="M32.302 296.072h-5.2c-1.235 0-2.237 1.341-2.237 2.994v2.687c0 1.654 1.002 2.995 2.237 2.995h5.2c1.236 0 2.237-1.341 2.237-2.995v-2.687c0-1.653-1-2.994-2.237-2.994z"
      ></path>
      <path
        fill="#4F4F4F"
        d="M33.722 300.686h-7.666c-4.42 0-8.005 4.796-8.005 10.715 0 5.917 3.584 10.714 8.005 10.714h7.666c4.42 0 8.004-4.797 8.004-10.714 0-5.919-3.583-10.715-8.004-10.715z"
      ></path>
      <path
        fill="#4F4F4F"
        d="M39.534 310.419H20.42c-1.523 0-2.757 1.589-2.757 3.547v4.641c0 1.96 1.235 3.55 2.757 3.55h19.115c1.524 0 2.758-1.59 2.758-3.55v-4.641c0-4.177-1.234-3.547-2.758-3.547z"
      ></path>
      <path
        fill="#fff"
        d="M40.73 317.667H19.048c-.552 0-.998.597-.998 1.334v1.746c0 .737.446 1.335.998 1.335h21.68c.551 0 .997-.598.997-1.335v-1.746c0-.737-.446-1.334-.997-1.334zM32.85 301.224h-6.08c-.316 0-.573.343-.573.768 0 .423.257.767.574.767h6.079c.316 0 .573-.344.573-.767 0-.425-.257-.768-.573-.768z"
      ></path>
      <path
        fill="#585858"
        d="M26.337 306.166h-2.92c-1.03 0-1.866 1.117-1.866 2.497 0 1.379.836 2.497 1.865 2.497h2.921c1.03 0 1.864-1.118 1.864-2.497 0-1.38-.834-2.497-1.864-2.497z"
      ></path>
      <path
        fill="#fff"
        d="M32.85 303.681h-6.08c-.316 0-.573.343-.573.767 0 .423.257.767.574.767h6.079c.316 0 .573-.344.573-.767 0-.424-.257-.767-.573-.767zM64.965 289.617H50.619c-.762 0-1.38.945-1.38 2.111v18.486c0 1.166.618 2.111 1.38 2.111h14.346c.762 0 1.38-.945 1.38-2.111l.308-7.621-.308-10.865c0-1.166-.618-2.111-1.38-2.111z"
      ></path>
      <path
        fill="#4B4B4B"
        d="M60.795 296.159h-5.092c-1.209 0-2.19 1.338-2.19 2.986v2.68c0 1.649.981 2.986 2.19 2.986h5.092c1.209 0 2.19-1.337 2.19-2.986v-2.68c0-1.648-.981-2.986-2.19-2.986z"
      ></path>
      <path
        fill="#4F4F4F"
        d="M62.13 300.729h-7.504c-4.328 0-7.837 4.784-7.837 10.687 0 5.901 3.509 10.685 7.837 10.685h7.504c4.328 0 8.153-4.699 8.153-10.601 0-5.902-3.825-10.771-8.153-10.771z"
      ></path>
      <path
        fill="#4F4F4F"
        d="M67.875 310.438H49.163c-1.49 0-2.828.266-2.7 3.538v4.627c0 1.956 1.21 3.541 2.7 3.541h18.712c1.49 0 2.7-1.585 2.7-3.541v-4.627c.128-3.272-1.21-3.538-2.7-3.538z"
      ></path>
      <path
        fill="#fff"
        d="M68.99 317.665H47.766c-.54 0-.977.596-.977 1.331v1.741c0 .735.438 1.332.977 1.332H68.99c.54 0 .976-.597.976-1.332v-1.741c0-.735-.437-1.331-.976-1.331zM62.205 301.267h-5.952c-.31 0-.562.342-.562.766 0 .422.252.765.562.765h5.952c.309 0 .561-.343.561-.765 0-.424-.252-.766-.561-.766z"
      ></path>
      <path
        fill="#585858"
        d="M64.227 306.226H61.37c-1.009 0-1.826 1.115-1.826 2.49 0 1.375.817 2.49 1.826 2.49h2.858c1.009 0 1.826-1.115 1.826-2.49 0-1.375-.817-2.49-1.826-2.49z"
      ></path>
      <path
        fill="#fff"
        d="M62.205 303.746h-5.952c-.31 0-.562.344-.562.765 0 .423.252.766.562.766h5.952c.309 0 .561-.343.561-.766 0-.421-.252-.765-.561-.765z"
      ></path>
      <path
        fill="#966D5D"
        d="M44.85 54.93c8.333 0 15.042 10.095 15.042 22.637v9.287c0 12.542-6.403 16.073-14.736 16.043-8.765-.031-15.347-3.5-15.347-16.043v-9.287c0-12.541 6.708-22.637 15.041-22.637z"
      ></path>
      <path
        fill="#856152"
        d="M42.583 56.625h4.532c5.217 0 9.417 5.872 9.417 13.167v5.401c0 7.295-4.2 13.167-9.417 13.167h-4.532c-5.217 0-9.417-5.872-9.417-13.167v-5.401c0-7.295 4.2-13.167 9.417-13.167z"
      ></path>
      <path
        fill="#7B5A4C"
        d="M32.868 94.122c-.701 0-1.266.55-1.266 1.231 0 .682.565 1.23 1.266 1.23h7.045l2.022 1.432c.568.403 1.36.283 1.775-.27a1.209 1.209 0 00-.278-1.725l-2.094-1.483c-.022-.015-.046-.024-.068-.037a1.275 1.275 0 00-.911-.378h-7.49zm16.475 0c-.36 0-.682.145-.911.378-.023.013-.047.022-.068.037L46.27 96.02a1.209 1.209 0 00-.278 1.725 1.291 1.291 0 001.774.27l2.023-1.432h7.044c.702 0 1.267-.548 1.267-1.23 0-.682-.565-1.23-1.267-1.23h-7.49z"
      ></path>
      <path
        fill="#966D5D"
        d="M21.807 44.286h47.026a9.714 9.714 0 019.734 9.736 9.713 9.713 0 01-9.734 9.734H21.807a9.713 9.713 0 01-9.735-9.734 9.714 9.714 0 019.735-9.736z"
      ></path>
      <path
        fill="#7B5A4C"
        d="M22.149 46.762h46.34a7.244 7.244 0 017.26 7.26 7.244 7.244 0 01-7.26 7.26h-46.34a7.244 7.244 0 01-7.26-7.26 7.244 7.244 0 017.26-7.26z"
      ></path>
      <path
        fill="#856152"
        d="M42.94 77.814h3.043c.244 0 .44.171.44.384v.228c0 .212-.196.384-.44.384h-3.044c-.245 0-.441-.172-.441-.385v-.227c0-.213.197-.384.441-.384z"
      ></path>
      <path
        fill="#A27B5F"
        d="M42.403 1.295a8.835 8.835 0 015.83 0l4.017 1.4a8.84 8.84 0 002.707.492l4.266.1a8.96 8.96 0 015.74 2.278l2.5 2.222a9.067 9.067 0 002.618 1.628l3.075 1.246c2.258.916 4.072 2.724 5.041 5.026l.75 1.782a9.482 9.482 0 002.047 3.042l1.285 1.279c2.009 1.995 3.028 4.832 2.767 7.7l-.08.882a9.762 9.762 0 00.5 4.089l.276.791a9.737 9.737 0 01-.976 8.417l-.634.993a9.66 9.66 0 00-1.398 3.691l-.2 1.275c-.421 2.674-1.933 5.032-4.148 6.475l-2.163 1.41a9.273 9.273 0 00-2.43 2.315l-1.566 2.152c-1.353 1.859-3.319 3.136-5.525 3.588l-3.825.784a8.906 8.906 0 00-2.688 1.023l-3.37 1.952a8.873 8.873 0 01-5.813 1.099l-4.333-.672c-.899-.14-1.81-.14-2.709 0l-4.332.672a8.873 8.873 0 01-5.814-1.1l-3.371-1.951a8.907 8.907 0 00-2.688-1.023l-3.824-.784c-2.205-.452-4.172-1.73-5.524-3.587l-1.566-2.153a9.258 9.258 0 00-2.431-2.315l-2.162-1.41c-2.217-1.443-3.727-3.8-4.149-6.475l-.2-1.275a9.638 9.638 0 00-1.397-3.69l-.635-.994a9.732 9.732 0 01-.975-8.417l.275-.791a9.785 9.785 0 00.5-4.089l-.08-.881c-.261-2.87.757-5.706 2.766-7.701l1.287-1.28a9.457 9.457 0 002.045-3.041l.75-1.782c.97-2.302 2.783-4.11 5.043-5.026l3.075-1.246a9.067 9.067 0 002.617-1.628l2.502-2.222a8.957 8.957 0 015.738-2.277l4.267-.101a8.846 8.846 0 002.706-.492l4.016-1.4z"
      ></path>
      <path
        fill="#966D5D"
        d="M40.032 16.924h10.57c8.786 0 22.682 12.404 22.682 24.603v17.309c0 12.199-13.024 25.55-22.354 25.55H39.706c-9.33 0-22.354-13.351-22.354-25.55V41.527c0-12.199 13.894-24.603 22.68-24.603z"
      ></path>
      <path
        fill="#A27B5F"
        d="M40.85 14.118A27.518 27.518 0 0013.27 41.696c0 5.8 1.776 11.168 4.81 15.6v-11.72c0-4.37 2.176-8.77 5.331-12.474l11.969-.02a8.688 8.688 0 008.66-9.533h2.562a8.688 8.688 0 008.66 9.533l11.996.02c3.156 3.705 5.331 8.103 5.331 12.473v11.721a27.507 27.507 0 004.811-15.6 27.518 27.518 0 00-27.58-27.578H40.85z"
      ></path>
      <path
        fill="#A27B5F"
        d="M53.7 7.938H36.931a7.759 7.759 0 00-7.76 7.76v3.948a7.76 7.76 0 007.76 7.76h16.77a7.76 7.76 0 007.759-7.76v-3.948a7.76 7.76 0 00-7.76-7.76z"
      ></path>
      <path
        fill="#7B5A4C"
        d="M45.315 50.405c1.866 0 3.368 1.589 3.368 3.56v6.285c0 1.972-1.502 3.56-3.368 3.56-1.865 0-3.368-1.588-3.368-3.56v-6.284c0-1.972 1.503-3.56 3.368-3.56z"
      ></path>
      <path
        fill="#7B5A4C"
        d="M50.929 59.772c0 1.572-1.33 2.836-2.983 2.836h-5.26c-1.651 0-2.98-1.264-2.98-2.836 0-1.57 1.328-2.834 2.98-2.834h5.26c1.652 0 2.983 1.263 2.983 2.834z"
      ></path>
      <path
        fill="#fff"
        d="M36.825 66.694c-.39 0-.765.126-1.042.35-.277.222-.431.526-.431.843v.897c0 1.772.63 3.395 1.744 4.632a6.388 6.388 0 004.732 2.114h6.843c1.93 0 3.617-.876 4.731-2.114 1.116-1.237 1.746-2.86 1.746-4.632v-.897c0-.317-.156-.62-.432-.844a1.671 1.671 0 00-1.043-.349H36.825z"
      ></path>
      <path
        fill="#4D4D4D"
        d="M28.694 42.692l9.474.773a1.862 1.862 0 011.708 2.01 1.862 1.862 0 01-2.011 1.709l-9.475-.773a1.862 1.862 0 01-1.708-2.011 1.862 1.862 0 012.012-1.708zM61.936 42.692l-9.474.773a1.862 1.862 0 00-1.708 2.01 1.862 1.862 0 002.011 1.709l9.475-.773a1.862 1.862 0 001.708-2.011 1.863 1.863 0 00-2.012-1.708z"
      ></path>
      <path
        fill="#61534B"
        d="M33.15 47.9h1.24c1.126 0 2.031.907 2.031 2.032v2.86c0 1.125-.905 2.03-2.031 2.03h-1.24a2.026 2.026 0 01-2.03-2.03v-2.86c0-1.125.905-2.032 2.03-2.032zM57.478 47.9h-1.24a2.027 2.027 0 00-2.031 2.032v2.86c0 1.125.906 2.03 2.032 2.03h1.239a2.026 2.026 0 002.031-2.03v-2.86a2.027 2.027 0 00-2.031-2.032z"
      ></path>
    </svg>