    <svg
      xmlns="http://www.w3.org/2000/svg"
      width="132"
      height="324"
      fill="none"
      viewBox="0 0 132 324"
    >
      <path
        fill="#FAE4D0"
        d="M107.334 94.027l4.688-4.993c3.492-3.401 8.287-3.247 10.012.323l5.73 11.868a16.05 16.05 0 011.362 4.366l1.119 6.763c.593 3.585.566 7.412-.083 11.315l-1.169 7.027a18.553 18.553 0 00-.257 3.035v2.418c0 1.159-.275 2.373-.801 3.532-.709 1.563-.906 3.201-.875 4.755.12 5.968-2.976 11.819-6.234 13.256l-.058.025c-3.684 1.626-7.6-2.49-8.746-9.192l-1.987-6.431-3.529-13.458c-.956-3.644-1.222-7.618-.786-11.729l.62-5.829.547-5.848c.121-1.289-.168-2.477-.819-3.372-1.503-2.069-.954-5.466 1.266-7.83z"
      ></path>
      <path
        fill="#FAE4D0"
        d="M120.367 120.082l.068.003c4.394.208 8.036 5.681 8.135 12.226l.744 49.14c.099 6.544-3.382 11.682-7.776 11.474l-.068-.003c-4.394-.208-8.035-5.681-8.135-12.225l-.743-49.14c-.1-6.545 3.382-11.682 7.775-11.475z"
      ></path>
      <path
        fill="#FAE4D0"
        d="M117.807 172.447l2.89.222c5.538.426 10.108 6.936 10.208 14.54l.088 6.755c.1 7.604-4.31 13.422-9.848 12.995l-2.889-.223c-5.539-.427-10.108-6.937-10.208-14.54l-.089-6.754c-.1-7.604 4.31-13.422 9.848-12.995z"
      ></path>
      <path
        fill="#FAE4D0"
        d="M115.916 191.423c1.405-4.665 5.995-6.69 10.254-4.525 4.259 2.167 6.572 7.705 5.167 12.371l-3.836 12.741c-1.404 4.665-5.995 6.69-10.253 4.524-4.258-2.167-6.572-7.705-5.167-12.37l3.835-12.741z"
      ></path>
      <path
        fill="#F4D1B0"
        d="M106.864 188.214c-.033-3.36 1.866-5.938 4.24-5.76 2.374.178 4.325 3.047 4.357 6.407l.087 9.177c.032 3.36-1.866 5.939-4.24 5.759-2.374-.178-4.325-3.047-4.357-6.407l-.087-9.176z"
      ></path>
      <path
        fill="#FAE4D0"
        d="M24.914 94.027l-4.688-4.993c-3.491-3.401-8.288-3.247-10.01.323l-5.731 11.868a16.082 16.082 0 00-1.363 4.366l-1.119 6.763c-.594 3.585-.565 7.412.084 11.315l1.169 7.027c.17 1.024.255 2.04.255 3.035v2.418c0 1.159.276 2.373.803 3.532.708 1.563.905 3.201.874 4.755-.119 5.968 2.976 11.819 6.234 13.256l.057.025c3.685 1.626 7.602-2.49 8.748-9.192l1.986-6.431 3.53-13.458c.955-3.644 1.221-7.618.785-11.729l-.62-5.829-.546-5.848c-.121-1.289.168-2.477.818-3.372 1.503-2.069.954-5.466-1.266-7.83z"
      ></path>
      <path
        fill="#FAE4D0"
        d="M11.88 120.082l-.069.003c-4.393.208-8.034 5.681-8.134 12.226l-.743 49.14c-.1 6.544 3.381 11.682 7.775 11.474l.068-.003c4.394-.208 8.036-5.681 8.136-12.225l.743-49.14c.1-6.545-3.382-11.682-7.776-11.475z"
      ></path>
      <path
        fill="#FAE4D0"
        d="M14.44 172.447l-2.89.222c-5.538.426-10.108 6.936-10.208 14.54l-.088 6.755c-.1 7.604 4.309 13.422 9.847 12.995l2.89-.223c3.51-.27 6.631-2.984 8.471-6.871 1.064-2.247 1.7-4.885 1.737-7.669l.088-6.754c.1-7.604-4.309-13.422-9.847-12.995z"
      ></path>
      <path
        fill="#FAE4D0"
        d="M16.33 191.423c-1.405-4.665-5.996-6.69-10.254-4.525-4.258 2.167-6.572 7.705-5.167 12.371l3.835 12.741c1.405 4.665 5.996 6.69 10.254 4.524 4.259-2.167 6.572-7.705 5.168-12.37l-3.837-12.741z"
      ></path>
      <path
        fill="#F4D1B0"
        d="M25.384 188.214c.032-3.36-1.866-5.938-4.24-5.76-2.374.178-4.325 3.047-4.357 6.407l-.087 9.177c-.033 3.36 1.866 5.939 4.24 5.759 2.374-.178 4.325-3.047 4.357-6.407l.087-9.176z"
      ></path>
      <path
        fill="#FAE4D0"
        d="M52.91 238.882h-2.256c-5.372 0-9.727 4.638-9.727 10.36v46.165l-1.945 19.742c0 4.315 3.974 7.812 8.875 7.812h2.07c4.902 0 8.875-3.497 8.875-7.812v-28.827c0-2.007.46-3.983 1.34-5.76a12.968 12.968 0 001.341-5.759v-3.79c0-2.221-.26-4.434-.77-6.588a28.532 28.532 0 01-.77-6.588v-11.463c0-.44-.036-.879-.108-1.312-.598-3.575-3.516-6.18-6.926-6.18z"
      ></path>
      <path
        fill="#FAE4D0"
        d="M51.016 160.757H37.76c-.65 0-1.176.561-1.176 1.253l-4.257 42.294v14.762c0 1.873.143 3.745.43 5.593l.96 6.205a31.862 31.862 0 003.3 10.002l2.78 5.266c.59 1.119.9 2.38.9 3.664 0 4.125 3.142 7.47 7.015 7.47h4.414c4.148 0 7.51-3.582 7.51-8 0-.945.157-1.882.464-2.769l1.002-2.89c.43-1.24.767-2.515 1.01-3.811l1.513-8.102 1.463-10.371c.237-1.691.357-3.396.357-5.105v-40.091c0-8.489-6.46-15.37-14.43-15.37zM52.809 306.534h-8.334c-4.806 0-8.702 3.701-8.702 8.267 0 4.565 3.895 8.265 8.701 8.265h8.335c4.805 0 8.7-3.7 8.7-8.265 0-4.566-3.895-8.267-8.7-8.267z"
      ></path>
      <path
        fill="#FAE4D0"
        d="M58.628 314.002H38.655c-1.59 0-2.882 1.226-2.882 2.738v3.581c0 1.511 1.291 2.736 2.882 2.736h19.973c1.592 0 2.882-1.225 2.882-2.736v-3.581c0-1.512-1.29-2.738-2.882-2.738zM79.654 237.206h2.139c5.362 0 9.71 4.631 9.71 10.343l.001 27.701-.001 19.669 1.945 20.158c0 4.405-3.973 7.975-8.876 7.975h-2.069c-4.901 0-8.874-3.57-8.874-7.975v-29.988a11.95 11.95 0 00-1.342-5.514 11.967 11.967 0 01-1.34-5.514v-4.133c0-2.213.253-4.417.752-6.565l.019-.078c.51-2.199.769-4.457.769-6.723V244.84c0-.439.035-.878.106-1.311.598-3.655 3.578-6.323 7.061-6.323z"
      ></path>
      <path
        fill="#FAE4D0"
        d="M82.96 160.726h7.734c1.993 0 3.766 1.347 4.416 3.354.096.297.166.603.207.913l4.917 36.434c.217 1.62.327 3.255.327 4.892v12.11c0 1.891-.147 3.78-.437 5.645l-.951 6.086a31.427 31.427 0 01-3.3 9.913l-2.778 5.21a7.77 7.77 0 00-.905 3.649c0 4.08-3.105 7.388-6.937 7.388h-4.572c-4.102 0-7.43-3.542-7.43-7.913 0-.943-.158-1.879-.467-2.762l-.998-2.855a26.054 26.054 0 01-1.01-3.776l-1.513-8.024-1.455-10.225a36.636 36.636 0 01-.365-5.153v-38.36c0-9.127 6.947-16.526 15.517-16.526zM80.661 306.534h8.334c4.805 0 8.701 3.689 8.701 8.238 0 4.549-3.896 8.237-8.701 8.237H80.66c-4.805 0-8.702-3.688-8.702-8.237 0-4.549 3.897-8.238 8.702-8.238z"
      ></path>
      <path
        fill="#FAE4D0"
        d="M74.84 309.541h19.975c1.59 0 2.882 1.77 2.882 3.955v5.172c0 2.185-1.291 3.955-2.882 3.955H74.841c-1.591 0-2.882-1.77-2.882-3.955v-5.172c0-2.185 1.29-3.955 2.882-3.955zM98.496 120.974c0-21.343-16.112-29.577-32.46-29.577-16.348 0-31.272 8.234-31.272 29.577l1.671 36.988c0 21.343 13.253 38.645 29.601 38.645s29.601-12.441 29.601-33.783l2.859-41.85z"
      ></path>
      <path
        fill="#FAE4D0"
        d="M106.494 72.886H24.809c-8.841 0-16.01 7.634-16.01 17.052s7.169 17.052 16.01 17.052h81.685c8.842 0 16.01-7.634 16.01-17.052s-7.168-17.052-16.01-17.052z"
      ></path>
      <path
        fill="#FAE4D0"
        d="M109.211 98.803c0-19.784-19.42-35.822-43.373-35.822-23.956 0-43.375 16.038-43.375 35.822 0 19.783 19.419 35.82 43.375 35.82 8.927 0 17.224-2.228 24.122-6.046 11.609-6.428 19.251-17.364 19.251-29.774z"
      ></path>
      <path
        fill="#FAE4D0"
        d="M68.326 125.149h-4.792c-11.425 0-20.688 8.93-20.688 19.945 0 0 .166 13.075.238 13.052l23.546 11.283c-.073-.065 23.175-11.119 22.877-11.283-.248-.136.009.041 0 0l-.494-13.052c0-11.015-9.262-19.945-20.688-19.945z"
      ></path>
      <path
        fill="#F4D1B0"
        d="M88.26 72.886H43.413c-11.57 0-20.95 8.792-20.95 19.64v11.837c0 10.845 9.38 19.639 20.95 19.639H88.26c11.572 0 20.951-8.794 20.951-19.639V92.526c0-10.848-9.38-19.64-20.95-19.64z"
      ></path>
      <path
        fill="#FAE4D0"
        d="M92.174 72.886H39.5c-9.41 0-17.037 8.17-17.037 18.251v11c0 10.08 7.628 18.252 17.037 18.252h52.674c9.409 0 17.037-8.172 17.037-18.252v-11c0-10.08-7.628-18.251-17.037-18.251z"
      ></path>
      <path
        fill="#F4D1B0"
        d="M69.46 112.889c0-1.245-1.634-2.253-3.653-2.253-2.017 0-3.653 1.008-3.653 2.253v4.369c0 1.244 1.636 2.254 3.653 2.254 2.019 0 3.654-1.01 3.654-2.254v-4.369zM42.6 114.748h-3.102c-1.237 0-2.24.965-2.24 2.155 0 1.188 1.003 2.152 2.24 2.152H42.6c1.236 0 2.239-.964 2.239-2.152 0-1.19-1.003-2.155-2.24-2.155zM93.103 114.748H90c-1.237 0-2.24.965-2.24 2.155 0 1.188 1.003 2.152 2.24 2.152h3.102c1.237 0 2.24-.964 2.24-2.152 0-1.19-1.003-2.155-2.24-2.155zM60.809 130.765h-5.494c-2.621 0-4.745 1.972-4.745 4.405 0 2.433 2.124 4.405 4.745 4.405h5.494c2.62 0 4.744-1.972 4.744-4.405 0-2.433-2.124-4.405-4.744-4.405zM60.809 141.238h-5.494c-2.621 0-4.745 1.973-4.745 4.405 0 2.433 2.124 4.407 4.745 4.407h5.494c2.62 0 4.744-1.974 4.744-4.407 0-2.432-2.124-4.405-4.744-4.405zM60.809 151.522h-5.494c-2.621 0-4.745 1.973-4.745 4.405 0 2.434 2.124 4.406 4.745 4.406h5.494c2.62 0 4.744-1.972 4.744-4.406 0-2.432-2.124-4.405-4.744-4.405zM77.684 130.765H72.19c-2.621 0-4.745 1.972-4.745 4.404 0 2.434 2.124 4.406 4.745 4.406h5.494c.656 0 1.281-.124 1.85-.348 1.7-.669 2.893-2.233 2.893-4.058 0-2.432-2.124-4.404-4.743-4.404zM77.684 141.238H72.19c-2.621 0-4.745 1.973-4.745 4.405 0 2.433 2.124 4.407 4.745 4.407h5.494c2.62 0 4.743-1.974 4.743-4.407 0-2.432-2.124-4.405-4.743-4.405zM77.684 151.521H72.19c-2.621 0-4.745 1.973-4.745 4.406s2.124 4.405 4.745 4.405h5.494c2.62 0 4.743-1.972 4.743-4.405 0-2.433-2.124-4.406-4.743-4.406z"
      ></path>
      <path
        fill="#4F4F4F"
        d="M41.136 163.004c-1.559 0-4.839.093-4.927.036 1.667 19.413 14.668 35.127 30.02 35.127 15.552 0 28.006-15.394 29.406-35.172l-54.499.009z"
      ></path>
      <path
        fill="#4B4B4B"
        d="M95.636 162.995l-29.1 6.032v51.316h36c.275-15.424-4.295-39.407-6.9-57.348zM36.209 162.995l29.91 6.032v51.316H31.117c-.275-15.424 2.487-39.407 5.092-57.348z"
      ></path>
      <path
        fill="#FAE4D0"
        d="M82.537 58.736c0-10.916-7.389-19.764-16.506-19.764-9.119 0-16.51 8.848-16.51 19.764v8.109c0 10.915 7.391 19.765 16.51 19.765 9.117 0 16.506-8.85 16.506-19.765v-8.11z"
      ></path>
      <path
        fill="#F4D1B0"
        d="M59.96 81.822l-9.01-4.33a2.015 2.015 0 10-1.745 3.63l9.011 4.332a2.014 2.014 0 101.745-3.632zM70.913 81.822l9.011-4.33a2.016 2.016 0 012.69.941 2.016 2.016 0 01-.944 2.689l-9.01 4.332a2.015 2.015 0 01-1.747-3.632zM68.851 40.3h-6.403c-7.35 0-13.307 5.958-13.307 13.307v5.46c0 7.35 5.957 13.307 13.307 13.307h6.403c7.349 0 13.307-5.958 13.307-13.307v-5.46c0-7.349-5.958-13.306-13.307-13.306z"
      ></path>
      <path
        fill="#FAE4D0"
        d="M88.67 28.719H42.92c-5.23 0-9.472 4.404-9.472 9.838 0 5.435 4.241 9.84 9.472 9.84H88.67c5.23 0 9.473-4.405 9.473-9.84 0-5.434-4.242-9.838-9.473-9.838z"
      ></path>
      <path
        fill="#F4D1B0"
        d="M88.952 30.206H42.9c-3.985 0-7.215 3.285-7.215 7.337s3.23 7.338 7.215 7.338h46.052c3.984 0 7.214-3.286 7.214-7.338s-3.23-7.337-7.214-7.337z"
      ></path>
      <path
        fill="#FAE4D0"
        d="M72.813.114H59.042c-11.41 0-20.66 9.249-20.66 20.659v24.482c0 11.412 9.25 20.661 20.66 20.661h13.771c11.409 0 20.659-9.25 20.659-20.66V20.772c0-11.41-9.25-20.659-20.659-20.659z"
      ></path>
      <path
        fill="#FAE4D0"
        d="M72.375 63.115H59.507a2.52 2.52 0 000 5.04h12.868a2.52 2.52 0 000-5.04z"
      ></path>
      <path
        fill="#F4D1B0"
        d="M68.019 60.299h-3.721a.539.539 0 00-.538.539v.317c0 .298.24.54.538.54h3.72a.54.54 0 00.539-.54v-.317a.54.54 0 00-.538-.54zM69.952 36.499a4.045 4.045 0 10-8.09 0v7.138a4.046 4.046 0 008.09 0v-7.138z"
      ></path>
      <path
        fill="#F4D1B0"
        d="M65.463 44.577L61.7 41.38a1.478 1.478 0 10-1.913 2.251l3.762 3.197a1.478 1.478 0 001.913-2.25zM66.496 44.577l3.761-3.197a1.477 1.477 0 111.913 2.251l-3.762 3.197a1.478 1.478 0 01-1.912-2.25zM63.37 29.094a1.134 1.134 0 10-2.267 0v1.373a1.135 1.135 0 002.268 0v-1.373zM70.9 29.094a1.133 1.133 0 10-2.267 0v1.373a1.134 1.134 0 002.267 0v-1.373z"
      ></path>
      <path
        fill="#61534B"
        d="M56.104 31.44a2.53 2.53 0 10-5.063 0v1.014a2.531 2.531 0 005.063 0V31.44zM80.723 31.44a2.53 2.53 0 10-5.063 0v1.013a2.531 2.531 0 105.063 0V31.44z"
      ></path>
      <path
        fill="#F4D1B0"
        fillRule="evenodd"
        d="M74.17 52.627a.681.681 0 00-.681-.682H58.746a.682.682 0 00-.682.682v1.362c0 .377.305.682.682.682h14.742a.681.681 0 00.68-.681v-1.363z"
        clipRule="evenodd"
      ></path>
      <path
        fill="#A27B5F"
        fillRule="evenodd"
        d="M83.686 26.51c0-.3-.245-.544-.546-.544h-7.634c-.301 0-.545.244-.545.544v1.091c0 .302.244.546.545.546h7.634c.3 0 .546-.244.546-.546v-1.09zM57.486 26.48c0-.302-.245-.545-.546-.545h-7.634c-.301 0-.546.244-.546.544v1.092c0 .3.245.544.546.544h7.634c.3 0 .546-.243.546-.544v-1.092z"
        clipRule="evenodd"
      ></path>
      <path
        fill="#DCB491"
        d="M57.393 43.435a8.027 8.027 0 00-8.034 8.055v9.422a8.026 8.026 0 008.034 8.054h17.236c4.45 0 8.033-3.59 8.033-8.054V51.49a8.027 8.027 0 00-8.034-8.055h-1.685c.06.492-.121 1-.527 1.346l-.681.58c.404.38.705.871.835 1.431h2.339a4.488 4.488 0 014.492 4.503v4.053a4.49 4.49 0 01-.785 2.545v1.111c0 3.562-2.859 6.43-6.412 6.43H59.818a6.406 6.406 0 01-6.413-6.43v-1.111a4.49 4.49 0 01-.784-2.545v-4.053a4.488 4.488 0 014.492-4.503h1.47a2.862 2.862 0 011.29-1.781l-.268-.23a1.524 1.524 0 01-.526-1.346h-1.686z"
      ></path>
      <path
        fill="#DCB491"
        fillRule="evenodd"
        d="M92.044 44.444c2.96 2.248 2.497 8.017-1.03 12.876-3.53 4.857-8.797 6.976-11.756 4.73 2.38-1.38 5.451-4.07 8.001-7.581s4.181-7.296 4.785-10.025zM39.76 44.254c-2.959 2.248-2.498 8.017 1.031 12.876 3.529 4.858 8.795 6.977 11.754 4.729-2.378-1.38-5.45-4.07-8-7.58-2.551-3.512-4.181-7.296-4.785-10.025z"
        clipRule="evenodd"
      ></path>
      <path
        fill="#DCB491"
        fillRule="evenodd"
        d="M40.234 55.213c0 22.088 11.508 40.02 25.685 40.02 14.174 0 25.685-17.932 25.685-40.02-5.994 6.627-15.44 12.006-25.685 12.006-10.247 0-19.692-5.38-25.685-12.006z"
        clipRule="evenodd"
      ></path>
      <path
        fill="#A27B5F"
        d="M57.06 75.235h2.262c.792 0 1.432.673 1.432 1.502v7.425c0 .83-.64 1.502-1.432 1.502h-2.263c-.792 0-1.432-.671-1.432-1.502v-7.425c0-.829.64-1.502 1.432-1.502zM71.4 75.204h2.262c.791 0 1.432.673 1.432 1.502v7.424c0 .83-.64 1.502-1.432 1.502H71.4c-.793 0-1.433-.672-1.433-1.502v-7.424c0-.83.64-1.502 1.433-1.502z"
      ></path>
      <path
        fill="#DCB491"
        d="M57.398 43.435a8.03 8.03 0 00-8.039 8.055v9.422a8.028 8.028 0 008.039 8.054h17.246a8.028 8.028 0 008.04-8.054V51.49a8.03 8.03 0 00-8.04-8.055h-1.686c.059.492-.121 1-.527 1.346l-.682.58c.405.38.705.871.835 1.431h2.34a4.49 4.49 0 014.496 4.503v4.053c0 .946-.29 1.822-.785 2.545v1.111a6.408 6.408 0 01-6.417 6.43H59.824a6.408 6.408 0 01-6.416-6.43v-1.111a4.489 4.489 0 01-.785-2.545v-4.053a4.49 4.49 0 014.495-4.503h1.472a2.862 2.862 0 011.289-1.781l-.267-.23a1.524 1.524 0 01-.527-1.346h-1.687z"
      ></path>
      <path
        fill="#DCB491"
        fillRule="evenodd"
        d="M92.044 44.444c2.96 2.248 2.497 8.017-1.03 12.876-3.53 4.857-8.797 6.976-11.756 4.73 2.38-1.38 5.451-4.07 8.001-7.581s4.181-7.296 4.785-10.025zM39.76 44.254c-2.959 2.248-2.498 8.017 1.031 12.876 3.529 4.858 8.795 6.977 11.754 4.729-2.378-1.38-5.45-4.07-8-7.58-2.551-3.512-4.181-7.296-4.785-10.025z"
        clipRule="evenodd"
      ></path>
      <path
        fill="#DCB491"
        fillRule="evenodd"
        d="M45.014 60.466c0 11.854 9.308 21.479 20.775 21.479 11.464 0 20.775-9.625 20.775-21.48-5.195 2.964-12.715 5.37-20.775 5.37-8.06 0-15.583-2.406-20.775-5.37z"
        clipRule="evenodd"
      ></path>
      <path
        fill="#A27B5F"
        d="M56.007 70.014h2.261c.793 0 1.433.436 1.433.974v4.817c0 .54-.64.975-1.433.975h-2.261c-.792 0-1.433-.436-1.433-.975v-4.817c0-.538.64-.974 1.433-.974zM72.456 69.982h2.262c.792 0 1.433.463 1.433 1.032v5.095c0 .57-.64 1.03-1.433 1.03h-2.262c-.792 0-1.433-.46-1.433-1.03v-5.095c0-.569.64-1.032 1.433-1.032z"
      ></path>
      <path
        fill="#DCB491"
        fillRule="evenodd"
        d="M50.116 64.858c-7.127-5.603-11.45-11.503-10.554-18.988L51.297 61.16M80.772 64.858C88.557 59.255 93.278 53.355 92.3 45.87L79.482 61.16"
        clipRule="evenodd"
      ></path>
      <path
        fill="#DCB491"
        d="M57.314 43.466a8.03 8.03 0 00-8.039 8.055v9.422a8.029 8.029 0 008.04 8.054H74.56a8.029 8.029 0 008.038-8.054V51.52a8.03 8.03 0 00-8.038-8.055h-1.687c.059.49-.121 1-.527 1.346l-.682.581c.405.38.706.87.835 1.43h2.34a4.489 4.489 0 014.495 4.504v4.052c0 .946-.29 1.822-.784 2.545v1.111a6.408 6.408 0 01-6.417 6.43H59.74a6.408 6.408 0 01-6.416-6.43v-1.11a4.49 4.49 0 01-.785-2.546v-4.052a4.49 4.49 0 014.495-4.503h1.472a2.863 2.863 0 011.289-1.782l-.267-.23A1.522 1.522 0 0159 43.466h-1.687z"
      ></path>
      <path
        fill="#A27B5F"
        d="M56.004 66.249h2.177c.762 0 1.38.11 1.38.244v1.206c0 .135-.618.244-1.38.244h-2.177c-.762 0-1.379-.11-1.379-.244v-1.206c0-.135.617-.244 1.379-.244zM72.642 66.249h2.178c.762 0 1.379.11 1.379.244v1.206c0 .135-.617.244-1.38.244h-2.177c-.762 0-1.378-.11-1.378-.244v-1.206c0-.135.616-.244 1.379-.244z"
      ></path>
      <path
        fill="#4F4F4F"
        d="M41.136 163.004c-1.559 0-4.839.093-4.927.036 1.667 19.413 14.668 35.127 30.02 35.127 15.552 0 28.006-15.394 29.406-35.172l-54.499.009z"
      ></path>
      <path
        fill="#4B4B4B"
        d="M95.636 162.995l-29.1 6.032v51.316h36c.275-15.424-4.295-39.407-6.9-57.348zM36.209 162.995l29.91 6.032v51.316H31.117c-.275-15.424 2.487-39.407 5.092-57.348z"
      ></path>
      <path
        fill="#fff"
        d="M57.79 289.354H41.685c-.855 0-1.55.999-1.55 2.234v19.585c0 1.235.695 2.234 1.55 2.234h16.107c.855 0 1.55-.999 1.55-2.234v-19.585c0-1.235-.695-2.234-1.55-2.234z"
      ></path>
      <path
        fill="#4B4B4B"
        d="M51.416 296.251H45.84c-1.324 0-2.399 1.416-2.399 3.163v2.838c0 1.748 1.075 3.165 2.4 3.165h5.575c1.326 0 2.4-1.417 2.4-3.165v-2.838c0-1.747-1.074-3.163-2.4-3.163z"
      ></path>
      <path
        fill="#4F4F4F"
        d="M52.938 301.125h-8.221c-4.74 0-8.584 5.067-8.584 11.32 0 6.252 3.844 11.32 8.584 11.32h8.221c4.74 0 8.583-5.068 8.583-11.32 0-6.253-3.843-11.32-8.583-11.32z"
      ></path>
      <path
        fill="#4F4F4F"
        d="M59.437 311.408H37.76c-1.727 0-3.126 1.679-3.126 3.748v4.903c0 2.071 1.4 3.75 3.126 3.75h21.676c1.727 0 3.127-1.679 3.127-3.75v-4.903c0-2.069-1.4-3.748-3.127-3.748z"
      ></path>
      <path
        fill="#fff"
        d="M61.374 319.065H35.81c-.65 0-1.176.632-1.176 1.41v1.844c0 .779.526 1.411 1.176 1.411h25.563c.649 0 1.175-.632 1.175-1.411v-1.844c0-.778-.526-1.41-1.175-1.41zM52.003 301.693h-6.519c-.34 0-.615.363-.615.812 0 .447.275.81.615.81h6.52c.338 0 .614-.363.614-.81 0-.449-.276-.812-.615-.812z"
      ></path>
      <path
        fill="#585858"
        d="M54.218 306.915h-3.132c-1.104 0-2 1.18-2 2.638 0 1.457.896 2.638 2 2.638h3.133c1.104 0 1.999-1.181 1.999-2.638 0-1.458-.895-2.638-2-2.638z"
      ></path>
      <path
        fill="#fff"
        d="M52.003 304.289h-6.519c-.34 0-.615.363-.615.811 0 .447.275.81.615.81h6.52c.338 0 .614-.363.614-.81 0-.448-.276-.811-.615-.811zM90.59 289.353H74.56c-.852 0-1.543 1-1.543 2.235v19.584c0 1.235.691 2.235 1.543 2.235h16.032c.851 0 1.542-1 1.542-2.235v-19.584c0-1.235-.69-2.235-1.542-2.235z"
      ></path>
      <path
        fill="#4B4B4B"
        d="M87.304 296.282h-5.577c-1.325 0-2.399 1.418-2.399 3.163v2.84c0 1.746 1.074 3.163 2.399 3.163h5.577c1.325 0 2.399-1.417 2.399-3.163v-2.84c0-1.745-1.074-3.163-2.399-3.163z"
      ></path>
      <path
        fill="#4F4F4F"
        d="M88.996 301.125h-8.333c-4.806 0-8.702 5.067-8.702 11.32 0 6.252 3.896 11.32 8.702 11.32h8.333c4.806 0 8.701-5.068 8.701-11.32 0-6.253-3.895-11.32-8.7-11.32z"
      ></path>
      <path
        fill="#4F4F4F"
        d="M95.451 311.408H74.04c-1.704 0-3.088 1.679-3.088 3.748v4.903c0 2.071 1.384 3.75 3.088 3.75h21.412c1.706 0 3.088-1.679 3.088-3.75v-4.903c0-2.069-1.382-3.748-3.088-3.748z"
      ></path>
      <path
        fill="#fff"
        d="M97.378 319.065H72.114c-.642 0-1.163.632-1.163 1.41v1.844c0 .779.521 1.411 1.163 1.411h25.264c.641 0 1.161-.632 1.161-1.411v-1.844c0-.778-.52-1.41-1.161-1.41zM87.832 301.693h-6.52c-.34 0-.615.363-.615.812 0 .447.275.81.615.81h6.52c.34 0 .615-.363.615-.81 0-.449-.276-.812-.615-.812z"
      ></path>
      <path
        fill="#585858"
        d="M90.046 306.946h-3.132c-1.105 0-2 1.182-2 2.638 0 1.457.895 2.639 2 2.639h3.132c1.104 0 2-1.182 2-2.639 0-1.456-.896-2.638-2-2.638z"
      ></path>
      <path
        fill="#fff"
        d="M87.832 304.319h-6.52c-.34 0-.615.365-.615.811 0 .448.275.811.615.811h6.52c.34 0 .615-.363.615-.811 0-.446-.276-.811-.615-.811z"
      ></path>
    </svg>