<svg width="351" height="350" viewBox="0 0 351 350" fill="none" xmlns="http://www.w3.org/2000/svg">
<path d="M186.328 267.875H188.311C193.162 267.875 197.094 272.311 197.094 277.785L197.094 303.943L197.094 322.591L198.851 341.702C198.851 345.879 195.26 349.264 190.83 349.264H188.96C184.529 349.264 180.938 345.879 180.938 341.702V313.278C180.938 311.445 180.521 309.643 179.727 308.044C178.933 306.445 178.516 304.642 178.516 302.81V298.9C178.516 296.801 178.744 294.71 179.195 292.674L179.211 292.6C179.673 290.516 179.907 288.375 179.907 286.224V275.12C179.907 274.698 179.94 274.278 180.004 273.864C180.545 270.4 183.211 267.875 186.328 267.875Z" fill="#906253"/>
<path d="M188.981 198.188H194.041C196.888 198.188 199.443 200.162 200.474 203.156C200.672 203.733 200.808 204.336 200.881 204.95L204.62 236.779V250.591C204.62 252.383 204.487 254.173 204.224 255.941L203.365 261.704C202.873 265.014 201.863 268.198 200.384 271.108L197.875 276.044C197.337 277.103 197.054 278.302 197.054 279.523C197.054 283.384 194.28 286.514 190.857 286.514H186.577C182.911 286.514 179.937 283.16 179.937 279.022C179.937 278.122 179.793 277.228 179.512 276.385L178.612 273.685C178.224 272.522 177.919 271.324 177.7 270.106L176.332 262.499L175.017 252.804C174.798 251.188 174.688 249.556 174.688 247.921V214.314C174.688 205.408 181.087 198.188 188.981 198.188Z" fill="#81584A"/>
<path d="M186.895 333.646H194.428C198.771 333.646 202.292 337.141 202.292 341.454C202.292 345.768 198.771 349.264 194.428 349.264H186.895C182.552 349.264 179.031 345.768 179.031 341.454C179.031 337.141 182.552 333.646 186.895 333.646Z" fill="#9D6B5A"/>
<path d="M181.635 336.86H199.688C201.126 336.86 202.292 338.54 202.292 340.61V345.514C202.292 347.585 201.126 349.264 199.688 349.264H181.635C180.198 349.264 179.031 347.585 179.031 345.514V340.61C179.031 338.54 180.198 336.86 181.635 336.86Z" fill="#9D6B5A"/>
<path d="M158.127 267.874H156.144C151.293 267.874 147.36 272.31 147.36 277.784V303.943V322.59L145.604 341.701C145.604 345.878 149.194 349.263 153.624 349.263H155.495C159.925 349.263 163.517 345.878 163.517 341.701V313.277C163.517 311.444 163.933 309.642 164.727 308.043C165.522 306.444 165.938 304.641 165.938 302.809V298.899C165.938 296.8 165.711 294.709 165.26 292.673L165.244 292.599C164.781 290.514 164.548 288.374 164.548 286.223V275.119C164.548 274.697 164.515 274.277 164.451 273.863C163.91 270.4 161.244 267.874 158.127 267.874Z" fill="#906253"/>
<path d="M156.724 198.187H148.855C145.998 198.187 143.682 200.8 143.682 204.025L139.834 236.778V250.59C139.834 252.382 139.966 254.172 140.229 255.94L141.088 261.703C141.581 265.013 142.59 268.197 144.07 271.107L146.579 276.043C147.117 277.102 147.4 278.302 147.4 279.522C147.4 283.383 150.174 286.513 153.596 286.513H157.877C161.543 286.513 164.516 283.159 164.516 279.022C164.516 278.121 164.66 277.227 164.941 276.384L165.841 273.684C166.23 272.521 166.534 271.323 166.754 270.105L168.121 262.499L169.437 252.803C169.656 251.187 169.766 249.555 169.766 247.92V212.902C169.766 204.775 163.927 198.187 156.724 198.187Z" fill="#81584A"/>
<path d="M157.56 333.645H150.028C145.685 333.645 142.164 337.14 142.164 341.453C142.164 345.767 145.685 349.262 150.028 349.262H157.56C161.904 349.262 165.424 345.767 165.424 341.453C165.424 337.14 161.904 333.645 157.56 333.645Z" fill="#9D6B5A"/>
<path d="M162.82 336.859H144.768C143.33 336.859 142.164 338.539 142.164 340.609V345.513C142.164 347.585 143.33 349.263 144.768 349.263H162.82C164.259 349.263 165.424 347.585 165.424 345.513V340.609C165.424 338.539 164.259 336.859 162.82 336.859Z" fill="#9D6B5A"/>
<path d="M171.53 109.344C172.756 109.344 173.978 109.419 175.189 109.567C189.794 111.344 202.811 123.518 202.811 138.364L200.518 154.259L196.045 181.624C196.045 197.701 187.547 200.074 171.53 200.074C155.514 200.074 148.016 197.701 148.016 181.624L142.619 154.259V138.364C142.619 122.287 155.514 109.344 171.53 109.344Z" fill="#815848" fill-opacity="0.99"/>
<path d="M171.493 174.428H172.421C187.789 174.428 192.776 165.459 195.299 177.615L200.161 202.008C202.68 214.154 187.789 224.233 172.421 224.233H171.493C156.125 224.233 141.233 214.154 143.753 202.008L149.126 177.615C151.649 165.459 156.125 174.428 171.493 174.428Z" fill="#815848"/>
<path d="M171.463 163.425C182.538 163.425 191.456 176.952 191.456 193.754H151.469C151.469 176.952 160.386 163.425 171.463 163.425Z" fill="#8E6051"/>
<path d="M136.853 125.975C132.159 124.95 126.508 127.097 125.474 133.13L122.263 144.024C121.274 147.379 120.913 150.93 121.202 154.451L122.067 165.012C122.264 167.421 122.024 169.85 122.053 172.269C122.105 176.507 123.818 179.615 127.52 180.422C131.564 181.305 134.25 179.034 135.577 174.532C136.027 173.004 136.379 171.435 136.908 169.939L139.31 163.147C140.631 159.412 141.153 155.377 140.834 151.37L140.338 145.158C140.209 143.541 140.224 141.917 140.289 140.296C140.465 135.839 140.385 126.745 136.853 125.975Z" fill="#9D6B5A"/>
<path d="M129.504 160.455L129.444 160.453C125.596 160.319 122.26 165.138 121.992 171.216L119.976 216.859C119.708 222.938 122.608 227.974 126.456 228.108L126.516 228.11C130.364 228.244 133.7 223.425 133.968 217.346L135.984 171.703C136.252 165.624 133.351 160.588 129.504 160.455Z" fill="#9D6B5A"/>
<path d="M129.42 207.481L127.002 207.466C122.368 207.438 118.393 213.112 118.123 220.139L117.884 226.381C117.613 233.408 121.151 239.127 125.785 239.154L128.202 239.17C132.836 239.197 136.811 233.524 137.081 226.497L137.321 220.254C137.591 213.228 134.053 207.509 129.42 207.481Z" fill="#906253"/>
<path d="M130.017 225.237C129.009 220.768 125.454 218.505 122.078 220.182C118.702 221.86 116.782 226.843 117.79 231.311L120.543 243.516C121.551 247.984 125.106 250.247 128.482 248.569C131.859 246.892 133.778 241.91 132.77 237.441L130.017 225.237Z" fill="#906253"/>
<path d="M137.919 222.851C138.033 219.736 136.485 217.2 134.462 217.186C132.439 217.171 130.707 219.686 130.592 222.801L130.281 231.308C130.167 234.424 131.715 236.961 133.739 236.975C135.762 236.988 137.494 234.475 137.608 231.36L137.919 222.851Z" fill="#9D6B5A"/>
<path d="M206.445 125.975C211.139 124.95 216.791 127.097 217.825 133.13L221.035 144.024C222.024 147.379 222.386 150.93 222.097 154.451L221.232 165.012C221.034 167.421 221.273 169.85 221.244 172.269C221.193 176.507 219.48 179.615 215.778 180.422C211.735 181.305 209.049 179.034 207.721 174.532C207.271 173.004 206.92 171.435 206.391 169.939L203.988 163.147C202.667 159.412 202.145 155.377 202.464 151.37L202.96 145.158C203.089 143.541 203.075 141.917 203.01 140.296C202.833 135.839 202.913 126.745 206.445 125.975Z" fill="#9D6B5A"/>
<path d="M213.794 160.455L213.855 160.453C217.701 160.319 221.038 165.138 221.306 171.216L223.322 216.859C223.59 222.938 220.689 227.974 216.842 228.108L216.782 228.11C212.935 228.244 209.598 223.425 209.33 217.346L207.314 171.703C207.046 165.624 209.947 160.588 213.794 160.455Z" fill="#9D6B5A"/>
<path d="M213.879 207.481L216.296 207.466C220.93 207.438 224.905 213.112 225.175 220.139L225.415 226.381C225.685 233.408 222.147 239.127 217.514 239.154L215.096 239.17C210.462 239.197 206.487 233.524 206.217 226.497L205.977 220.254C205.707 213.228 209.245 207.509 213.879 207.481Z" fill="#906253"/>
<path d="M213.282 225.237C214.289 220.768 217.844 218.505 221.22 220.182C224.597 221.86 226.516 226.843 225.509 231.311L222.755 243.516C221.747 247.984 218.192 250.247 214.816 248.569C211.44 246.892 209.52 241.91 210.528 237.441L213.282 225.237Z" fill="#906253"/>
<path d="M205.377 222.851C205.264 219.736 206.811 217.2 208.835 217.186C210.858 217.171 212.591 219.686 212.704 222.801L213.015 231.308C213.129 234.424 211.581 236.961 209.558 236.975C207.535 236.988 205.802 234.475 205.688 231.36L205.377 222.851Z" fill="#9D6B5A"/>
<path d="M136.671 118.297H206.759C213.705 118.297 219.297 124.176 219.297 131.48C219.297 138.784 213.705 144.664 206.759 144.664H136.671C129.725 144.664 124.133 138.784 124.133 131.48C124.133 124.176 129.725 118.297 136.671 118.297Z" fill="#906253"/>
<path d="M160.721 116.733H182.576C194.788 116.733 204.618 126.857 204.618 139.432C204.618 152.007 194.788 162.13 182.576 162.13H160.721C148.509 162.13 138.678 152.007 138.678 139.432C138.678 126.857 148.509 116.733 160.721 116.733Z" fill="#9D6B5A"/>
<path d="M172.23 144.664C175.073 144.664 177.362 147.248 177.362 150.456V155.828C177.362 159.038 175.073 161.621 172.23 161.621C169.385 161.621 167.096 159.038 167.096 155.828V150.456C167.096 147.248 169.385 144.664 172.23 144.664Z" fill="#815848" fill-opacity="0.99"/>
<path d="M159.264 138.586C157.906 138.586 156.647 138.983 155.597 139.664C152.112 139.885 148.844 141.369 146.456 143.813C144.069 146.258 142.74 149.482 142.74 152.832C142.74 156.332 144.191 159.689 146.773 162.164C149.354 164.639 152.856 166.029 156.508 166.029C159.834 166.026 163.046 164.868 165.551 162.77C168.056 160.672 169.684 157.776 170.134 154.615C170.226 154.182 170.276 153.733 170.276 153.273V145.07C170.276 141.478 167.317 138.586 163.643 138.586H159.264ZM179.656 138.586C175.982 138.586 173.023 141.478 173.023 145.07V153.273C173.023 153.733 173.073 154.182 173.166 154.615C173.616 157.776 175.244 160.672 177.748 162.77C180.253 164.868 183.465 166.026 186.791 166.029C190.443 166.029 193.944 164.639 196.527 162.164C199.108 159.689 200.559 156.332 200.559 152.832C200.558 149.482 199.231 146.258 196.842 143.813C194.455 141.369 191.188 139.885 187.702 139.664C186.653 138.983 185.394 138.586 184.035 138.586H179.656Z" fill="#9D6B5A"/>
<path d="M146.539 145.706C144.966 145.061 143.259 148.909 141.79 149.543C141.659 150.362 141.59 151.192 141.584 152.024C141.585 160.529 147.995 167.422 155.902 167.422C159.901 167.412 163.713 165.604 166.416 162.434C166.274 154.721 160.125 151.268 153.503 148.557L146.539 145.706ZM189.402 148.557C182.915 151.214 176.859 154.473 176.499 161.967C179.212 165.416 183.195 167.411 187.396 167.422C195.303 167.422 201.713 160.529 201.713 152.024C201.707 151.257 201.648 150.491 201.536 149.733C199.954 148.978 198.09 144.999 196.364 145.706L189.402 148.557Z" fill="#444444"/>
<path d="M166.042 159.283H177.847C178.567 159.283 179.147 159.918 179.147 160.708C179.147 161.497 178.567 162.131 177.847 162.131H166.042C165.322 162.131 164.742 161.497 164.742 160.708C164.742 159.918 165.322 159.283 166.042 159.283Z" fill="#444444"/>
<path d="M196.437 145.625C196.329 145.634 196.222 145.66 196.115 145.704L189.223 148.524C183.782 150.751 178.65 153.407 176.992 158.674C179.652 161.687 183.351 163.414 187.237 163.424C194.442 163.424 200.387 157.645 201.287 150.165C201.268 150.006 201.257 149.846 201.233 149.688C199.765 148.987 198.052 145.485 196.437 145.625ZM146.504 145.635C145.03 145.531 143.459 148.911 142.096 149.5C142.063 149.706 142.035 149.913 142.01 150.121C142.892 157.622 148.846 163.424 156.064 163.424C159.797 163.414 163.363 161.822 166.002 159.013C164.443 153.587 159.234 150.793 153.69 148.524L146.797 145.704C146.7 145.664 146.602 145.643 146.504 145.635Z" fill="#4F4F4F"/>
<path d="M167.269 168.447H163.851C162.289 168.447 161.023 169.498 161.023 170.794V173.512C161.023 174.809 162.289 175.86 163.851 175.86H167.269C168.83 175.86 170.097 174.809 170.097 173.512V170.794C170.097 169.498 168.83 168.447 167.269 168.447Z" fill="#9D6B5A"/>
<path d="M167.271 176.658H162.064C160.502 176.658 159.236 177.709 159.236 179.006V181.723C159.236 183.02 160.502 184.071 162.064 184.071H167.271C168.833 184.071 170.098 183.02 170.098 181.723V179.006C170.098 177.709 168.833 176.658 167.271 176.658Z" fill="#9D6B5A"/>
<path d="M167.271 184.696H162.064C160.502 184.696 159.236 185.746 159.236 187.043V189.761C159.236 191.058 160.502 192.109 162.064 192.109H167.271C168.833 192.109 170.098 191.058 170.098 189.761V187.043C170.098 185.746 168.833 184.696 167.271 184.696Z" fill="#9D6B5A"/>
<path d="M175.638 168.447H179.056C180.617 168.447 181.884 169.498 181.884 170.794V173.512C181.884 174.809 180.617 175.86 179.056 175.86H175.638C174.076 175.86 172.811 174.809 172.811 173.512V170.794C172.811 169.498 174.076 168.447 175.638 168.447Z" fill="#9D6B5A"/>
<path d="M175.636 176.658H180.844C182.405 176.658 183.671 177.709 183.671 179.006V181.723C183.671 183.02 182.405 184.071 180.844 184.071H175.636C174.075 184.071 172.809 183.02 172.809 181.723V179.006C172.809 177.709 174.075 176.658 175.636 176.658Z" fill="#9D6B5A"/>
<path d="M175.636 184.696H180.844C182.405 184.696 183.671 185.746 183.671 187.043V189.761C183.671 191.058 182.405 192.109 180.844 192.109H175.636C174.075 192.109 172.809 191.058 172.809 189.761V187.043C172.809 185.746 174.075 184.696 175.636 184.696Z" fill="#9D6B5A"/>
<path d="M171.854 79.457C180.187 79.457 186.896 89.5528 186.896 102.094V111.382C186.896 123.923 180.187 134.02 171.854 134.02C163.521 134.02 156.812 123.923 156.812 111.382V102.094C156.812 89.5528 163.521 79.457 171.854 79.457Z" fill="#9D6B5A"/>
<path d="M169.587 81.1523H174.119C179.336 81.1523 183.536 87.0246 183.536 94.3193V99.7208C183.536 107.016 179.336 112.888 174.119 112.888H169.587C164.37 112.888 160.17 107.016 160.17 99.7208V94.3193C160.17 87.0246 164.37 81.1523 169.587 81.1523Z" fill="#815848"/>
<path d="M155.246 119.051C154.285 119.051 153.512 119.824 153.512 120.785C153.512 121.746 154.285 122.519 155.246 122.519H164.891L167.659 124.537C168.438 125.105 169.522 124.935 170.09 124.156C170.658 123.378 170.488 122.294 169.709 121.726L166.842 119.636C166.813 119.615 166.78 119.602 166.749 119.583C166.435 119.255 165.994 119.051 165.502 119.051H155.246ZM177.802 119.051C177.31 119.051 176.869 119.255 176.554 119.583C176.524 119.602 176.491 119.615 176.461 119.636L173.595 121.726C172.816 122.294 172.646 123.378 173.214 124.156C173.782 124.935 174.866 125.105 175.644 124.537L178.413 122.519H188.057C189.018 122.519 189.792 121.746 189.792 120.785C189.792 119.824 189.018 119.051 188.057 119.051H177.802Z" fill="#815747"/>
<path d="M148.809 68.8135H195.835C201.228 68.8135 205.569 73.1557 205.569 78.549C205.569 83.9423 201.228 88.2835 195.835 88.2835H148.809C143.415 88.2835 139.074 83.9423 139.074 78.549C139.074 73.1557 143.415 68.8135 148.809 68.8135Z" fill="#8E6051"/>
<path d="M149.151 71.2891H195.491C199.513 71.2891 202.751 74.5271 202.751 78.549C202.751 82.5709 199.513 85.8089 195.491 85.8089H149.151C145.129 85.8089 141.891 82.5709 141.891 78.549C141.891 74.5271 145.129 71.2891 149.151 71.2891Z" fill="#815848"/>
<path d="M167.036 41.4512H177.606C186.392 41.4512 200.288 53.8557 200.288 66.0545V83.3632C200.288 95.562 187.264 108.913 177.934 108.913H166.709C157.379 108.913 144.355 95.562 144.355 83.3632V66.0545C144.355 53.8557 158.25 41.4512 167.036 41.4512Z" fill="#9D6B5A"/>
<path d="M169.943 102.341H172.987C173.231 102.341 173.428 102.513 173.428 102.726V102.953C173.428 103.166 173.231 103.338 172.987 103.338H169.943C169.698 103.338 169.502 103.166 169.502 102.953V102.726C169.502 102.513 169.698 102.341 169.943 102.341Z" fill="#815848"/>
<path d="M172.317 74.9326C174.183 74.9326 175.685 76.5209 175.685 78.493V84.7776C175.685 86.7497 174.183 88.338 172.317 88.338C170.452 88.338 168.949 86.7497 168.949 84.7776V78.493C168.949 76.5209 170.452 74.9326 172.317 74.9326Z" fill="#8E6051"/>
<path d="M177.931 84.2996C177.931 85.8716 176.6 87.1355 174.948 87.1355H169.688C168.036 87.1355 166.707 85.8716 166.707 84.2996C166.707 82.7287 168.036 81.4648 169.688 81.4648H174.948C176.6 81.4648 177.931 82.7287 177.931 84.2996Z" fill="#8E6051"/>
<path d="M163.829 91.2217C163.438 91.2217 163.064 91.3476 162.787 91.5707C162.51 91.7938 162.355 92.0977 162.355 92.4139V93.3114C162.355 95.0829 162.986 96.706 164.1 97.9433C165.216 99.1816 166.902 100.058 168.831 100.058H175.675C177.604 100.058 179.292 99.1816 180.406 97.9433C181.522 96.706 182.152 95.0829 182.152 93.3114V92.4139C182.152 92.0977 181.996 91.7938 181.72 91.5707C181.444 91.3476 181.068 91.2217 180.677 91.2217H163.829Z" fill="white"/>
<path d="M155.698 67.2192L165.172 67.9919C166.202 68.0758 166.963 68.9733 166.88 70.0028C166.796 71.0334 165.898 71.7948 164.869 71.7109L155.394 70.9382C154.365 70.8543 153.602 69.9578 153.686 68.9273C153.77 67.8967 154.667 67.1353 155.698 67.2192Z" fill="#4D4D4D"/>
<path d="M152.491 68.8985L154.355 67.6612C155.111 67.1597 156.122 67.3644 156.625 68.1197C157.126 68.876 156.921 69.8881 156.166 70.3896L154.301 71.6269C153.546 72.1283 152.534 71.9236 152.033 71.1684C151.531 70.4121 151.735 69.3999 152.491 68.8985Z" fill="#4D4D4D"/>
<path d="M188.94 67.2192L179.466 67.9919C178.436 68.0758 177.674 68.9733 177.758 70.0028C177.842 71.0334 178.74 71.7948 179.769 71.7109L189.244 70.9382C190.273 70.8543 191.036 69.9578 190.952 68.9273C190.867 67.8967 189.97 67.1353 188.94 67.2192Z" fill="#4D4D4D"/>
<path d="M192.146 68.8985L190.283 67.6612C189.526 67.1597 188.514 67.3644 188.013 68.1197C187.511 68.876 187.716 69.8881 188.471 70.3896L190.336 71.6269C191.091 72.1283 192.103 71.9236 192.605 71.1684C193.106 70.4121 192.903 69.3999 192.146 68.8985Z" fill="#4D4D4D"/>
<!-- <path d="M163.828 94.918C163.437 94.918 163.063 94.962 162.786 95.0401C162.509 95.1182 162.354 95.2246 162.354 95.3353V95.6495C162.354 96.2696 161.967 97.2627 163.081 97.6962C164.196 98.1297 166.901 98.0111 168.83 98.0111H175.674C177.603 98.0111 180.096 98.24 181.211 97.8065C182.327 97.373 182.151 96.2696 182.151 95.6495V95.3353C182.151 95.2246 181.995 95.1182 181.719 95.0401C181.443 94.962 181.067 94.918 180.676 94.918H163.828Z" fill="#815747"/> -->
<path d="M155.698 67.2192L165.172 67.9919C166.202 68.0758 166.963 68.9733 166.88 70.0028C166.796 71.0334 165.898 71.7948 164.869 71.7109L155.394 70.9382C154.365 70.8543 153.602 69.9578 153.686 68.9273C153.77 67.8967 154.667 67.1353 155.698 67.2192Z" fill="#4D4D4D"/>
<path d="M188.94 67.2192L179.466 67.9919C178.436 68.0758 177.674 68.9733 177.758 70.0028C177.842 71.0334 178.74 71.7948 179.769 71.7109L189.244 70.9382C190.273 70.8543 191.036 69.9578 190.952 68.9273C190.867 67.8967 189.97 67.1353 188.94 67.2192Z" fill="#4D4D4D"/>
<path d="M160.154 72.4287H161.394C162.52 72.4287 163.425 73.3354 163.425 74.4601V77.3205C163.425 78.4452 162.52 79.3509 161.394 79.3509H160.154C159.029 79.3509 158.123 78.4452 158.123 77.3205V74.4601C158.123 73.3354 159.029 72.4287 160.154 72.4287Z" fill="#61534B"/>
<path d="M184.482 72.4287H183.242C182.117 72.4287 181.211 73.3354 181.211 74.4601V77.3205C181.211 78.4452 182.117 79.3509 183.242 79.3509H184.482C185.607 79.3509 186.513 78.4452 186.513 77.3205V74.4601C186.513 73.3354 185.607 72.4287 184.482 72.4287Z" fill="#61534B"/>
<path d="M167.852 38.6455C152.574 38.6455 140.273 50.9446 140.273 66.2239C140.273 72.0234 142.049 77.3911 145.083 81.8234V70.1025C145.083 65.7326 147.259 61.3341 150.414 57.6294L162.383 57.609C167.204 57.5997 171.084 53.7272 171.084 48.9071C171.084 48.6266 171.068 48.3493 171.043 48.0761H173.605C173.58 48.3493 173.564 48.6266 173.564 48.9071C173.564 53.7272 177.444 57.5997 182.265 57.609L194.261 57.6294C197.417 61.3341 199.592 65.7326 199.592 70.1025V81.8234C202.627 77.3911 204.403 72.0234 204.403 66.2239C204.403 50.9446 192.102 38.6455 176.824 38.6455H167.852Z" fill="#444444"/>
<path d="M180.702 32.4658H163.933C159.647 32.4658 156.174 35.9392 156.174 40.2252V44.1734C156.174 48.4594 159.647 51.9338 163.933 51.9338H180.702C184.987 51.9338 188.462 48.4594 188.462 44.1734V40.2252C188.462 35.9392 184.987 32.4658 180.702 32.4658Z" fill="#3B3B3B"/>
<path d="M145.416 194.389C146.882 217.652 158.141 235.659 171.648 235.659C185.331 235.659 197.392 218.09 198.625 194.389H145.416Z" fill="#4F4F4F"/>
<path d="M198.649 194.385L172.573 198.948L172.354 235.562L174.801 251.608H204.683C204.866 221.924 204.561 211.897 198.649 194.385Z" fill="#4B4B4B"/>
<path d="M145.43 194.352L172.123 198.931V235.558L169.634 251.604H139.82C139.631 221.821 139.346 211.921 145.43 194.352Z" fill="#4B4B4B"/>
<path d="M185.888 137.83H159.291C152.559 137.83 137.871 127.637 137.871 137.83L140.117 147.027C140.117 160.286 141.74 167.407 152.745 167.407H190.434C200.223 167.407 202.624 162.02 202.624 148.952L206.829 138.354C206.829 128.161 192.62 137.83 185.888 137.83Z" fill="#974444"/>
<path d="M136.738 118.279C128.622 118.279 124.086 125.64 124.086 131.259C124.086 140.724 127.838 144.622 138.909 144.622H204.036C215.386 144.622 219.545 141.976 219.545 131.27C219.545 125.65 214.701 118.279 206.713 118.279H193.573C193.287 124.488 188.275 129.422 178.492 129.422H166.577C155.105 129.422 150.136 124.488 149.851 118.279H136.738Z" fill="#974444"/>
<path d="M193.025 118.279C192.84 118.276 192.659 118.327 192.524 118.42C192.389 118.513 192.309 118.642 192.305 118.778C191.97 124.424 185.666 128.885 177.857 128.885H165.662C157.854 128.885 151.55 124.424 151.216 118.778C151.211 118.71 151.189 118.644 151.151 118.582C151.112 118.522 151.057 118.467 150.989 118.421C150.921 118.376 150.842 118.341 150.756 118.317C150.669 118.294 150.577 118.284 150.485 118.287C150.393 118.29 150.302 118.306 150.219 118.335C150.135 118.363 150.06 118.403 149.998 118.453C149.937 118.503 149.888 118.561 149.856 118.624C149.825 118.688 149.811 118.754 149.815 118.822C150.182 125.003 157.122 129.91 165.662 129.91H177.857C186.398 129.91 193.339 125.003 193.705 118.822C193.71 118.753 193.697 118.685 193.665 118.62C193.634 118.556 193.585 118.496 193.522 118.446C193.458 118.395 193.381 118.355 193.296 118.327C193.211 118.298 193.118 118.281 193.025 118.279Z" fill="#693030"/>
<path d="M145.416 194.389C146.882 217.652 158.141 235.659 171.648 235.659C185.331 235.659 197.392 218.09 198.625 194.389H145.416Z" fill="#4F4F4F"/>
<path d="M198.649 194.385L172.573 198.948L172.354 235.562L174.801 251.608H204.683C204.866 221.924 204.561 211.897 198.649 194.385Z" fill="#4B4B4B"/>
<path d="M145.43 194.352L172.123 198.931V235.558L169.634 251.604H139.82C139.631 221.821 139.346 211.921 145.43 194.352Z" fill="#4B4B4B"/>
<path d="M162.795 317.063H146.867C146.02 317.063 145.334 317.999 145.334 319.154V337.479C145.334 338.635 146.02 339.57 146.867 339.57H162.795C163.641 339.57 164.328 338.635 164.328 337.479V319.154C164.328 317.999 163.641 317.063 162.795 317.063Z" fill="white"/>
<path d="M156.364 323.517H151.32C150.122 323.517 149.15 324.842 149.15 326.476V329.132C149.15 330.767 150.122 332.093 151.32 332.093H156.364C157.563 332.093 158.533 330.767 158.533 329.132V326.476C158.533 324.842 157.563 323.517 156.364 323.517Z" fill="#4B4B4B"/>
<path d="M157.741 328.077H150.305C146.018 328.077 142.541 332.819 142.541 338.669C142.541 344.519 146.018 349.26 150.305 349.26H157.741C162.029 349.26 165.504 344.519 165.504 338.669C165.504 332.819 162.029 328.077 157.741 328.077Z" fill="#4F4F4F"/>
<path d="M163.378 337.699H144.838C143.361 337.699 142.164 339.27 142.164 341.206V345.793C142.164 347.732 143.361 349.302 144.838 349.302H163.378C164.856 349.302 166.053 347.732 166.053 345.793V341.206C166.053 339.27 164.856 337.699 163.378 337.699Z" fill="#4F4F4F"/>
<path d="M164.537 344.864H143.509C142.974 344.864 142.541 345.455 142.541 346.183V347.909C142.541 348.638 142.974 349.229 143.509 349.229H164.537C165.071 349.229 165.504 348.638 165.504 347.909V346.183C165.504 345.455 165.071 344.864 164.537 344.864Z" fill="white"/>
<path d="M156.894 328.609H150.998C150.69 328.609 150.441 328.949 150.441 329.369C150.441 329.787 150.69 330.127 150.998 330.127H156.894C157.2 330.127 157.45 329.787 157.45 329.369C157.45 328.949 157.2 328.609 156.894 328.609Z" fill="white"/>
<path d="M158.898 333.495H156.065C155.067 333.495 154.256 334.599 154.256 335.964C154.256 337.327 155.067 338.432 156.065 338.432H158.898C159.898 338.432 160.707 337.327 160.707 335.964C160.707 334.599 159.898 333.495 158.898 333.495Z" fill="#585858"/>
<path d="M156.894 331.038H150.998C150.69 331.038 150.441 331.378 150.441 331.796C150.441 332.215 150.69 332.555 150.998 332.555H156.894C157.2 332.555 157.45 332.215 157.45 331.796C157.45 331.378 157.2 331.038 156.894 331.038Z" fill="white"/>
<path d="M197.49 317.062H180.649C179.754 317.062 179.027 317.999 179.027 319.154V337.478C179.027 338.634 179.754 339.57 180.649 339.57H197.49C198.384 339.57 199.11 338.634 199.11 337.478V319.154C199.11 317.999 198.384 317.062 197.49 317.062Z" fill="white"/>
<path d="M192.728 323.547H187.748C186.565 323.547 185.605 324.873 185.605 326.507V329.163C185.605 330.798 186.565 332.123 187.748 332.123H192.728C193.911 332.123 194.87 330.798 194.87 329.163V326.507C194.87 324.873 193.911 323.547 192.728 323.547Z" fill="#4B4B4B"/>
<path d="M194.034 328.077H186.693C182.46 328.077 179.027 332.819 179.027 338.669C179.027 344.519 182.46 349.26 186.693 349.26H194.034C198.267 349.26 202.009 344.603 202.009 338.753C202.009 332.902 198.267 328.077 194.034 328.077Z" fill="#4F4F4F"/>
<path d="M199.654 337.699H181.349C179.892 337.699 178.709 339.27 178.709 341.206V345.793C178.709 347.732 179.892 349.302 181.349 349.302H199.654C201.112 349.302 202.294 347.732 202.294 345.793V341.206C202.294 339.27 201.112 337.699 199.654 337.699Z" fill="#4F4F4F"/>
<path d="M200.744 344.864H179.983C179.456 344.864 179.027 345.455 179.027 346.183V347.909C179.027 348.638 179.456 349.229 179.983 349.229H200.744C201.272 349.229 201.699 348.638 201.699 347.909V346.183C201.699 345.455 201.272 344.864 200.744 344.864Z" fill="white"/>
<path d="M194.108 328.609H188.286C187.982 328.609 187.736 328.949 187.736 329.369C187.736 329.787 187.982 330.127 188.286 330.127H194.108C194.41 330.127 194.657 329.787 194.657 329.369C194.657 328.949 194.41 328.609 194.108 328.609Z" fill="white"/>
<path d="M196.084 333.524H193.288C192.302 333.524 191.502 334.63 191.502 335.993C191.502 337.356 192.302 338.461 193.288 338.461H196.084C197.071 338.461 197.87 337.356 197.87 335.993C197.87 334.63 197.071 333.524 196.084 333.524Z" fill="#585858"/>
<path d="M194.108 331.066H188.286C187.982 331.066 187.736 331.407 187.736 331.825C187.736 332.244 187.982 332.584 188.286 332.584H194.108C194.41 332.584 194.657 332.244 194.657 331.825C194.657 331.407 194.41 331.066 194.108 331.066Z" fill="white"/>
</svg>
