    <svg
      xmlns="http://www.w3.org/2000/svg"
      width="108"
      height="325"
      fill="none"
      viewBox="0 0 108 325"
    >
      <path
        fill="#966D5D"
        d="M68.352 244.045h1.969c4.816 0 8.72 4.404 8.72 9.839v44.486l1.745 18.975c0 4.147-3.566 7.508-7.964 7.508h-1.857c-4.4 0-7.965-3.361-7.965-7.508v-28.221c0-1.82-.414-3.609-1.202-5.197a11.71 11.71 0 01-1.202-5.196v-3.882c0-2.084.226-4.161.674-6.182l.016-.074c.458-2.069.69-4.194.69-6.33v-11.025c0-.419.034-.836.097-1.247.537-3.439 3.184-5.946 6.279-5.946z"
      ></path>
      <path
        fill="#966D5D"
        d="M70.986 174.855h5.024c2.826 0 5.363 1.96 6.387 4.933.197.573.331 1.172.404 1.781l3.712 31.602v13.714c0 1.779-.132 3.556-.393 5.311l-.853 5.722a30.528 30.528 0 01-2.96 9.337l-2.49 4.901A7.643 7.643 0 0079 255.61c0 3.834-2.754 6.941-6.153 6.941H68.6c-3.64 0-6.593-3.33-6.593-7.438 0-.894-.142-1.782-.422-2.619l-.893-2.68a25.495 25.495 0 01-.906-3.554l-1.358-7.552-1.305-9.626a36.105 36.105 0 01-.327-4.848v-33.368c0-8.842 6.353-16.011 14.19-16.011zM68.915 309.347h7.48c4.312 0 7.807 3.47 7.807 7.752 0 4.283-3.495 7.754-7.808 7.754h-7.479c-4.312 0-7.808-3.471-7.808-7.754 0-4.282 3.496-7.752 7.808-7.752z"
      ></path>
      <path
        fill="#966D5D"
        d="M63.693 312.538h17.924c1.428 0 2.585 1.668 2.585 3.723v4.869c0 2.057-1.157 3.724-2.585 3.724H63.693c-1.427 0-2.586-1.667-2.586-3.724v-4.869c0-2.055 1.16-3.723 2.586-3.723zM40.352 244.044h-1.97c-4.816 0-8.72 4.404-8.72 9.839v44.486l-1.744 18.975c0 4.147 3.564 7.508 7.963 7.508h1.857c4.399 0 7.965-3.361 7.965-7.508v-28.221c0-1.82.413-3.609 1.201-5.197a11.698 11.698 0 001.203-5.196v-3.882c0-2.084-.225-4.161-.673-6.182l-.016-.073a29.222 29.222 0 01-.691-6.331v-11.025c0-.419-.033-.836-.096-1.247-.538-3.438-3.185-5.946-6.28-5.946z"
      ></path>
      <path
        fill="#966D5D"
        d="M38.959 174.854h-7.813c-2.837 0-5.136 2.595-5.136 5.797l-3.82 32.519v13.714c0 1.779.13 3.556.392 5.311l.852 5.722a30.53 30.53 0 002.961 9.337l2.491 4.901a7.646 7.646 0 01.816 3.454c0 3.834 2.754 6.941 6.151 6.941h4.25c3.64 0 6.592-3.33 6.592-7.437a8.3 8.3 0 01.422-2.62l.894-2.68c.386-1.155.688-2.344.906-3.554l1.358-7.551 1.306-9.627c.218-1.605.327-3.225.327-4.848v-34.769c0-8.069-5.797-14.61-12.95-14.61zM39.788 309.346H32.31c-4.312 0-7.808 3.47-7.808 7.752 0 4.283 3.496 7.753 7.808 7.753h7.478c4.313 0 7.808-3.47 7.808-7.753 0-4.282-3.495-7.752-7.808-7.752z"
      ></path>
      <path
        fill="#966D5D"
        d="M45.01 312.537H27.088c-1.427 0-2.585 1.668-2.585 3.723v4.869c0 2.058 1.158 3.724 2.585 3.724h17.924c1.428 0 2.585-1.666 2.585-3.724v-4.869c0-2.055-1.157-3.723-2.585-3.723z"
      ></path>
      <path
        fill="#9D6B5A"
        fillOpacity="0.99"
        d="M53.66 86.645c1.217 0 2.43.075 3.633.222 14.5 1.764 27.425 13.851 27.425 28.591L82.44 131.24 78 158.41c0 15.962-8.438 18.318-24.34 18.318s-23.346-2.356-23.346-18.318l-5.359-27.17v-15.782c0-15.962 12.803-28.813 28.705-28.813z"
      ></path>
      <path
        fill="#966D5D"
        d="M53.623 151.265h.922c15.258 0 20.21-8.905 22.714 3.165l4.828 24.219c2.5 12.059-12.284 22.066-27.543 22.066h-.92c-15.26 0-30.045-10.007-27.543-22.066l5.335-24.219c2.505-12.07 6.949-3.165 22.207-3.165z"
      ></path>
      <path
        fill="#966D5D"
        d="M53.593 140.341c10.996 0 19.85 13.43 19.85 30.112h-39.7c0-16.682 8.853-30.112 19.85-30.112zM19.23 103.158c-4.66-1.018-10.27 1.114-11.297 7.104l-3.188 10.816a28.462 28.462 0 00-1.053 10.353l.858 10.485c.196 2.392-.042 4.804-.013 7.205.051 4.208 1.752 7.294 5.428 8.095 4.015.877 6.681-1.378 7.999-5.848.447-1.517.796-3.075 1.322-4.56l2.384-6.743a28.402 28.402 0 001.513-11.693l-.492-6.168c-.128-1.606-.113-3.218-.049-4.827.175-4.426.096-13.455-3.411-14.219z"
      ></path>
      <path
        fill="#966D5D"
        d="M11.934 137.391l-.06-.002c-3.82-.133-7.132 4.652-7.398 10.687l-2.002 45.317c-.266 6.036 2.613 11.036 6.434 11.169l.06.002c3.82.133 7.132-4.652 7.398-10.688l2.002-45.317c.266-6.035-2.614-11.036-6.434-11.168z"
      ></path>
      <path
        fill="#966D5D"
        d="M11.851 184.082l-2.4-.015C4.848 184.04.902 189.673.634 196.65l-.238 6.198c-.269 6.976 3.244 12.655 7.845 12.681l2.4.016c4.6.027 8.547-5.605 8.815-12.582l.239-6.199c.268-6.976-3.245-12.654-7.845-12.682z"
      ></path>
      <path
        fill="#966D5D"
        d="M12.443 201.712c-1-4.437-4.53-6.684-7.882-5.019-3.352 1.666-5.258 6.613-4.258 11.05l2.734 12.117c1 4.437 4.53 6.683 7.882 5.017 3.353-1.665 5.258-6.611 4.258-11.048l-2.734-12.117z"
      ></path>
      <path
        fill="#7B5A4C"
        d="M20.289 199.342c.113-3.092-1.424-5.61-3.433-5.624-2.008-.015-3.728 2.482-3.842 5.575l-.309 8.446c-.113 3.094 1.424 5.613 3.433 5.627 2.009.013 3.729-2.483 3.842-5.575l.309-8.449z"
      ></path>
      <path
        fill="#966D5D"
        d="M88.326 103.158c4.66-1.018 10.272 1.114 11.299 7.104l3.187 10.816a28.46 28.46 0 011.054 10.353l-.858 10.485c-.197 2.392.04 4.804.012 7.205-.051 4.208-1.752 7.294-5.427 8.095-4.015.877-6.681-1.378-8-5.848-.447-1.517-.795-3.075-1.32-4.56l-2.386-6.743a28.404 28.404 0 01-1.513-11.693l.492-6.168c.128-1.606.114-3.218.05-4.827-.176-4.426-.097-13.455 3.41-14.219z"
      ></path>
      <path
        fill="#966D5D"
        d="M95.623 137.391l.06-.002c3.819-.133 7.132 4.652 7.398 10.687l2.002 45.317c.266 6.036-2.615 11.036-6.434 11.169l-.06.002c-3.82.133-7.132-4.652-7.398-10.688l-2.002-45.317c-.266-6.035 2.614-11.036 6.434-11.168z"
      ></path>
      <path
        fill="#966D5D"
        d="M95.708 184.082l2.4-.015c4.6-.027 8.547 5.606 8.815 12.583l.238 6.198c.268 6.976-3.244 12.655-7.844 12.681l-2.401.016c-4.601.027-8.548-5.605-8.816-12.582l-.238-6.199c-.268-6.976 3.245-12.654 7.846-12.682z"
      ></path>
      <path
        fill="#966D5D"
        d="M95.114 201.712c1-4.437 4.53-6.684 7.881-5.019 3.353 1.666 5.259 6.613 4.259 11.05l-2.735 12.117c-1 4.437-4.53 6.683-7.882 5.017-3.352-1.665-5.258-6.611-4.257-11.048l2.734-12.117z"
      ></path>
      <path
        fill="#7B5A4C"
        d="M87.266 199.342c-.113-3.092 1.423-5.61 3.433-5.624 2.008-.015 3.73 2.482 3.841 5.575l.309 8.446c.113 3.094-1.424 5.613-3.432 5.627-2.009.013-3.73-2.483-3.843-5.575l-.308-8.449z"
      ></path>
      <path
        fill="#966D5D"
        d="M19.05 95.534h69.588c6.896 0 12.448 5.837 12.448 13.089 0 7.252-5.552 13.09-12.448 13.09H19.05c-6.896 0-12.448-5.838-12.448-13.09s5.552-13.089 12.448-13.089z"
      ></path>
      <path
        fill="#966D5D"
        d="M42.929 93.981h21.699c12.125 0 21.884 10.052 21.884 22.537 0 12.486-9.76 22.537-21.884 22.537h-21.7c-12.124 0-21.885-10.051-21.885-22.537 0-12.485 9.76-22.537 21.886-22.537z"
      ></path>
      <path
        fill="#815848"
        fillOpacity="0.99"
        d="M54.355 121.714c2.823 0 5.096 2.565 5.096 5.751v5.333c0 3.187-2.273 5.752-5.096 5.752-2.824 0-5.097-2.565-5.097-5.752v-5.333c0-3.186 2.273-5.751 5.097-5.751z"
      ></path>
      <path
        fill="#966D5D"
        d="M41.482 115.679a6.668 6.668 0 00-3.64 1.07c-3.46.219-6.705 1.693-9.076 4.119-2.37 2.428-3.69 5.629-3.69 8.955 0 3.475 1.44 6.808 4.004 9.265 2.563 2.458 6.04 3.838 9.666 3.838 3.302-.003 6.491-1.153 8.978-3.236 2.488-2.083 4.104-4.958 4.55-8.097.092-.43.142-.875.142-1.332v-8.145c0-3.566-2.938-6.437-6.586-6.437h-4.348zm20.247 0c-3.648 0-6.586 2.871-6.586 6.437v8.145c0 .457.05.902.142 1.332.447 3.139 2.063 6.014 4.55 8.097 2.486 2.083 5.676 3.233 8.978 3.236 3.626 0 7.102-1.38 9.666-3.838 2.563-2.457 4.004-5.79 4.004-9.265-.001-3.326-1.319-6.527-3.69-8.955-2.37-2.426-5.615-3.9-9.076-4.119a6.663 6.663 0 00-3.64-1.07h-4.348z"
      ></path>
      <path
        fill="#7B5A4C"
        d="M49.428 145.327h-3.394c-1.55 0-2.807 1.044-2.807 2.33v2.699c0 1.288 1.257 2.331 2.807 2.331h3.394c1.55 0 2.808-1.043 2.808-2.331v-2.699c0-1.286-1.258-2.33-2.808-2.33zM49.43 153.479h-5.17c-1.55 0-2.807 1.044-2.807 2.332v2.697c0 1.288 1.257 2.332 2.808 2.332h5.17c1.55 0 2.807-1.044 2.807-2.332v-2.697c0-1.288-1.256-2.332-2.807-2.332zM49.43 161.46h-5.17c-1.55 0-2.807 1.042-2.807 2.33v2.699c0 1.288 1.257 2.331 2.808 2.331h5.17c1.55 0 2.807-1.043 2.807-2.331v-2.699c0-1.288-1.256-2.33-2.807-2.33zM57.739 145.327h3.393c1.55 0 2.808 1.044 2.808 2.33v2.699c0 1.288-1.258 2.331-2.808 2.331H57.74c-1.551 0-2.807-1.043-2.807-2.331v-2.699c0-1.286 1.256-2.33 2.806-2.33zM57.736 153.479h5.171c1.55 0 2.807 1.044 2.807 2.332v2.697c0 1.288-1.257 2.332-2.807 2.332h-5.17c-1.55 0-2.807-1.044-2.807-2.332v-2.697c0-1.288 1.257-2.332 2.806-2.332zM57.736 161.46h5.171c1.55 0 2.807 1.042 2.807 2.33v2.699c0 1.288-1.257 2.331-2.807 2.331h-5.17c-1.55 0-2.807-1.043-2.807-2.331v-2.699c0-1.288 1.257-2.33 2.806-2.33z"
      ></path>
      <path
        fill="#4B4B4B"
        d="M42.929 93.981h21.699c12.125 0 21.884 10.052 21.884 22.537 0 12.486-.422 28.92-21.436 25.937H42.93c-21.714 2.748-21.886-13.451-21.886-25.937 0-12.485 9.76-22.537 21.886-22.537z"
      ></path>
      <path
        fill="#4B4B4B"
        fillOpacity="0.99"
        d="M53.66 86.645c1.217 0 2.43.075 3.633.222 14.5 1.764 27.425 13.851 27.425 28.591L82.44 131.24H24.955v-15.782c0-15.962 12.803-28.813 28.705-28.813z"
      ></path>
      <path
        fill="#4F4F4F"
        d="M27.732 171.084c1.456 23.097 12.635 40.975 26.045 40.975 13.586 0 25.56-17.443 26.785-40.975h-52.83z"
      ></path>
      <path
        fill="#4B4B4B"
        d="M80.586 171.08l-25.89 4.531-.218 36.352 2.43 15.932h29.669c.181-29.472-.121-39.428-5.991-56.815zM27.747 171.047l26.502 4.546v36.366l-2.47 15.931H22.176c-.188-29.57-.47-39.399 5.57-56.843z"
      ></path>
      <path
        fill="#4F4F4F"
        d="M27.732 171.084c1.456 23.097 12.635 40.975 26.045 40.975 13.586 0 25.56-17.443 26.785-40.975h-52.83z"
      ></path>
      <path
        fill="#4B4B4B"
        d="M80.586 171.08l-25.89 4.531-.218 36.352 2.43 15.932h29.669c.181-29.472-.121-39.428-5.991-56.815zM27.747 171.047l26.502 4.546v36.366l-2.47 15.931H22.176c-.188-29.57-.47-39.399 5.57-56.843z"
      ></path>
      <path
        fill="#fff"
        d="M45.654 292.882l-15.882-.04c-.72 0-.834 12.544-.834 12.544l.723 7.767c0 1.148.584 2.076 1.305 2.076h13.556c.72 0 1.304-.928 1.304-2.076-.342-.049.29-20.307-.172-20.271z"
      ></path>
      <path
        fill="#4B4B4B"
        d="M38.604 299.29h-5.008c-1.19 0-2.155 1.316-2.155 2.938v2.637c0 1.623.966 2.94 2.155 2.94h5.008c1.19 0 2.154-1.317 2.154-2.94v-2.637c0-1.622-.964-2.938-2.154-2.938z"
      ></path>
      <path
        fill="#4F4F4F"
        d="M39.97 303.818h-7.383c-4.256 0-7.708 4.709-7.708 10.517s3.452 10.515 7.708 10.515h7.383c4.258 0 7.708-4.707 7.708-10.515 0-5.808-3.45-10.517-7.708-10.517z"
      ></path>
      <path
        fill="#4F4F4F"
        d="M45.568 313.371H27.16c-1.467 0-2.696-.107-2.655 3.482v4.555c0 1.925 1.188 3.484 2.655 3.484h18.408c1.467 0 2.655-1.559 2.655-3.484v-4.555c0-1.922-1.188-3.482-2.655-3.482z"
      ></path>
      <path
        fill="#fff"
        d="M46.718 320.485H25.84c-.531 0-.961.587-.961 1.31v1.714c0 .723.43 1.31.961 1.31h20.878c.53 0 .96-.587.96-1.31v-1.714c0-.723-.43-1.31-.96-1.31zM39.13 304.346h-5.854c-.306 0-.553.337-.553.754 0 .415.247.753.553.753h5.854c.303 0 .552-.338.552-.753 0-.417-.249-.754-.552-.754z"
      ></path>
      <path
        fill="#585858"
        d="M41.119 309.197h-2.813c-.991 0-1.796 1.096-1.796 2.452 0 1.353.805 2.45 1.796 2.45h2.813c.992 0 1.796-1.097 1.796-2.45 0-1.356-.803-2.452-1.796-2.452z"
      ></path>
      <path
        fill="#fff"
        d="M39.13 306.758h-5.854c-.306 0-.553.337-.553.752 0 .416.247.754.553.754h5.854c.303 0 .552-.338.552-.754 0-.415-.249-.752-.552-.752zM78.931 292.842H63.124c-.724 0-.186 20.31-.186 20.31 0 1.148.588 2.077 1.312 2.077h13.62c.723 0 1.31-.929 1.31-2.077l.58-7.716c-.248.287-.374-12.282-.829-12.594z"
      ></path>
      <path
        fill="#4B4B4B"
        d="M74.709 299.32h-4.945c-1.174 0-2.127 1.317-2.127 2.939v2.637c0 1.624.953 2.939 2.127 2.939h4.945c1.174 0 2.127-1.315 2.127-2.939v-2.637c0-1.622-.953-2.939-2.127-2.939z"
      ></path>
      <path
        fill="#4F4F4F"
        d="M76.005 303.818h-7.288c-4.203 0-7.611 4.709-7.611 10.517s3.408 10.515 7.61 10.515h7.29c4.202 0 7.918-4.624 7.918-10.432 0-5.809-3.716-10.6-7.919-10.6z"
      ></path>
      <path
        fill="#4F4F4F"
        d="M81.585 313.371H63.41c-1.446 0-2.62 1.56-2.62 3.482v4.554c0 1.926 1.174 3.484 2.62 3.484h18.175c1.447 0 2.62-1.558 2.62-3.484v-4.554c-.02-3.856-1.173-3.482-2.62-3.482z"
      ></path>
      <path
        fill="#fff"
        d="M82.668 320.485H62.055c-.524 0-.95.587-.95 1.31v1.714c0 .723.426 1.31.95 1.31h20.613c.524 0 .948-.587.948-1.31v-1.714c0-.723-.424-1.31-.948-1.31zM76.079 304.346h-5.781c-.302 0-.546.337-.546.754 0 .415.244.753.546.753h5.78c.3 0 .546-.338.546-.753 0-.417-.246-.754-.545-.754z"
      ></path>
      <path
        fill="#585858"
        d="M78.04 309.226h-2.777c-.979 0-1.773 1.098-1.773 2.451s.794 2.45 1.773 2.45h2.776c.98 0 1.774-1.097 1.774-2.45 0-1.353-.794-2.451-1.773-2.451z"
      ></path>
      <path
        fill="#fff"
        d="M76.079 306.785h-5.781c-.302 0-.546.339-.546.754 0 .416.244.753.546.753h5.78c.3 0 .546-.337.546-.753 0-.415-.246-.754-.545-.754z"
      ></path>
      <path
        fill="#966D5D"
        d="M53.983 54.883c8.333 0 15.042 10.096 15.042 22.637v9.288c0 12.541-6.403 16.072-14.736 16.042-8.765-.03-15.348-3.5-15.348-16.042V77.52c0-12.541 6.709-22.637 15.042-22.637z"
      ></path>
      <path
        fill="#815848"
        d="M51.716 56.578h4.532c5.217 0 9.417 5.872 9.417 13.167v5.402c0 7.294-4.2 13.166-9.417 13.166h-4.532c-5.217 0-9.417-5.872-9.417-13.166v-5.402c0-7.295 4.2-13.167 9.417-13.167z"
      ></path>
      <path
        fill="#815747"
        d="M42.001 94.075c-.701 0-1.267.55-1.267 1.231 0 .682.566 1.23 1.267 1.23h7.044l2.022 1.432c.57.403 1.36.283 1.776-.27a1.21 1.21 0 00-.278-1.724L50.47 94.49c-.022-.016-.046-.024-.068-.038a1.275 1.275 0 00-.911-.378h-7.49zm16.475 0c-.36 0-.682.145-.912.378-.022.014-.046.022-.068.038l-2.093 1.483a1.21 1.21 0 00-.278 1.724 1.291 1.291 0 001.774.27l2.023-1.432h7.044c.702 0 1.267-.548 1.267-1.23 0-.682-.565-1.23-1.267-1.23h-7.49z"
      ></path>
      <path
        fill="#966D5D"
        d="M30.94 44.24h47.026a9.714 9.714 0 019.734 9.735 9.713 9.713 0 01-9.734 9.734H30.94a9.713 9.713 0 01-9.735-9.734 9.714 9.714 0 019.735-9.736z"
      ></path>
      <path
        fill="#7B5A4C"
        d="M31.281 46.715h46.34a7.244 7.244 0 017.26 7.26 7.244 7.244 0 01-7.26 7.26h-46.34a7.244 7.244 0 01-7.26-7.26 7.244 7.244 0 017.26-7.26z"
      ></path>
      <path
        fill="#815848"
        d="M52.072 77.767h3.043c.245 0 .442.172.442.384v.228c0 .212-.197.384-.442.384h-3.043c-.245 0-.441-.172-.441-.384v-.228c0-.212.196-.384.44-.384z"
      ></path>
      <path
        fill="#4F4F4F"
        d="M51.536 1.248a8.835 8.835 0 015.83 0l4.017 1.4c.873.304 1.785.47 2.707.492l4.266.1a8.96 8.96 0 015.739 2.278l2.501 2.222a9.067 9.067 0 002.617 1.628l3.076 1.246c2.258.916 4.072 2.724 5.04 5.026l.751 1.782a9.48 9.48 0 002.047 3.042l1.285 1.279c2.009 1.995 3.027 4.832 2.767 7.701l-.08.882a9.762 9.762 0 00.5 4.088l.275.791a9.736 9.736 0 01-.975 8.417l-.635.993a9.662 9.662 0 00-1.397 3.691l-.2 1.275c-.422 2.675-1.933 5.032-4.148 6.476l-2.163 1.409a9.274 9.274 0 00-2.43 2.315l-1.566 2.153c-1.353 1.858-3.32 3.135-5.525 3.587l-3.825.784a8.91 8.91 0 00-2.688 1.023l-3.37 1.952a8.874 8.874 0 01-5.813 1.1l-4.333-.673c-.899-.14-1.811-.14-2.709 0l-4.332.672a8.874 8.874 0 01-5.814-1.1l-3.371-1.951a8.91 8.91 0 00-2.688-1.023l-3.824-.784c-2.205-.452-4.172-1.729-5.524-3.587l-1.566-2.153a9.258 9.258 0 00-2.431-2.315l-2.163-1.41c-2.216-1.443-3.726-3.8-4.148-6.475l-.201-1.275a9.637 9.637 0 00-1.396-3.69l-.635-.994a9.732 9.732 0 01-.975-8.417l.275-.791a9.783 9.783 0 00.5-4.088l-.08-.882c-.261-2.87.757-5.706 2.766-7.701l1.287-1.28a9.456 9.456 0 002.045-3.041l.75-1.782c.969-2.302 2.783-4.11 5.042-5.026l3.076-1.246a9.067 9.067 0 002.617-1.628l2.501-2.222a8.957 8.957 0 015.74-2.277l4.266-.1a8.845 8.845 0 002.706-.493l4.016-1.4z"
      ></path>
      <path
        fill="#966D5D"
        d="M49.165 16.877h10.57c8.786 0 22.682 12.405 22.682 24.603V58.79c0 12.199-13.024 25.55-22.354 25.55H48.838c-9.33 0-22.354-13.351-22.354-25.55V41.48c0-12.198 13.895-24.603 22.68-24.603z"
      ></path>
      <path
        fill="#4F4F4F"
        fillRule="evenodd"
        d="M57.405 33.421a10.863 10.863 0 00-6.063 0l-1.802.534a10.85 10.85 0 01-4.018.388l-2.86-.258c-2.097-.188-4.195.326-5.712 1.4-1.12.793-2.569 1.29-4.117 1.41l-3.297.258c-1.546.121-2.794.981-3.05 2.104l-.002.003V25.427c18.49-14.606 37.13-14.956 55.934 0V39.93l-.155-.672c-.258-1.123-1.504-1.983-3.051-2.104l-3.297-.257c-1.548-.121-2.998-.618-4.117-1.41-1.517-1.075-3.616-1.59-5.71-1.4l-2.863.257a10.85 10.85 0 01-4.018-.388l-1.802-.534z"
        clipRule="evenodd"
      ></path>
      <path
        fill="#7B5A4C"
        d="M54.448 50.358c1.866 0 3.368 1.589 3.368 3.56v6.285c0 1.972-1.502 3.56-3.368 3.56-1.866 0-3.368-1.587-3.368-3.56V53.92c0-1.972 1.502-3.56 3.368-3.56z"
      ></path>
      <path
        fill="#7B5A4C"
        d="M60.061 59.725c0 1.572-1.33 2.836-2.982 2.836h-5.26c-1.652 0-2.981-1.264-2.981-2.836 0-1.57 1.33-2.834 2.981-2.834h5.26c1.652 0 2.982 1.264 2.982 2.834z"
      ></path>
      <path
        fill="#fff"
        d="M45.958 66.647c-.39 0-.765.126-1.042.35-.277.222-.432.526-.432.843v.897c0 1.772.63 3.395 1.745 4.632a6.388 6.388 0 004.731 2.114h6.844c1.929 0 3.616-.876 4.731-2.114 1.116-1.237 1.746-2.86 1.746-4.632v-.897c0-.317-.156-.62-.432-.844a1.671 1.671 0 00-1.043-.349H45.958z"
      ></path>
      <path
        fill="#4D4D4D"
        d="M37.827 42.645l9.473.773a1.862 1.862 0 011.709 2.01 1.862 1.862 0 01-2.011 1.709l-9.475-.773a1.862 1.862 0 01-1.708-2.011 1.862 1.862 0 012.012-1.708zM71.069 42.645l-9.474.773a1.862 1.862 0 00-1.708 2.01 1.862 1.862 0 002.011 1.709l9.475-.773a1.862 1.862 0 001.708-2.011 1.863 1.863 0 00-2.012-1.708z"
      ></path>
      <path
        fill="#61534B"
        d="M42.283 47.853h1.24c1.125 0 2.031.907 2.031 2.032v2.86c0 1.125-.906 2.03-2.031 2.03h-1.24a2.026 2.026 0 01-2.031-2.03v-2.86c0-1.125.906-2.032 2.031-2.032zM66.61 47.853h-1.239a2.027 2.027 0 00-2.031 2.032v2.86c0 1.125.906 2.03 2.031 2.03h1.24a2.026 2.026 0 002.031-2.03v-2.86a2.027 2.027 0 00-2.031-2.032z"
      ></path>
    </svg>