    <svg
      xmlns="http://www.w3.org/2000/svg"
      width="89"
      height="318"
      fill="none"
      viewBox="0 0 89 318"
    >
      <path
        fill="#C89F7B"
        d="M54.415 236.907h1.842c4.619 0 8.364 4.333 8.364 9.677l.001 25.92v18.404l1.675 18.861c0 4.122-3.423 7.462-7.646 7.462H56.87c-4.223 0-7.645-3.34-7.645-7.462V281.71c0-1.805-.984-24.571-.984-26.692V244.05c0-.411.031-.821.092-1.227.515-3.42 3.082-5.916 6.083-5.916z"
      ></path>
      <path
        fill="#C89F7B"
        d="M58.392 165.347h6.662c1.717 0 6.41 3.636 6.445 3.926l-.637 50.065c0 1.769-.127 3.537-.377 5.283l-.82 5.694a31.19 31.19 0 01-2.841 9.275s-2.029 5.033-2.029 6.229c0 3.817.438 9.061-4.428 8.973h-3.938c-3.534 0-8.18.017-8.18-4.073 0-.882-.143-10.919-.352-12.12l-1.304-7.508-1.254-9.567a37.2 37.2 0 01-.314-4.821V180.81c0-8.54 5.985-15.463 13.367-15.463zM54.15 301.776h7.179c4.14 0 7.496 3.452 7.496 7.709 0 4.256-3.356 7.707-7.496 7.707H54.15c-4.139 0-7.496-3.451-7.496-7.707 0-4.257 3.357-7.709 7.496-7.709z"
      ></path>
      <path
        fill="#C89F7B"
        d="M49.136 304.59h17.207c1.37 0 2.482 1.656 2.482 3.7v4.84c0 2.044-1.112 3.701-2.482 3.701H49.136c-1.37 0-2.482-1.657-2.482-3.701v-4.84c0-2.044 1.112-3.7 2.482-3.7zM27.963 301.776h7.178c4.14 0 7.497 3.452 7.497 7.709 0 4.256-3.357 7.707-7.497 7.707h-7.178c-4.14 0-7.496-3.451-7.496-7.707 0-4.257 3.357-7.709 7.496-7.709z"
      ></path>
      <path
        fill="#C89F7B"
        d="M22.949 304.59h17.206c1.37 0 2.483 1.656 2.483 3.7v4.84c0 2.044-1.112 3.701-2.483 3.701H22.95c-1.37 0-2.482-1.657-2.482-3.701v-4.84c0-2.044 1.112-3.7 2.482-3.7z"
      ></path>
      <path
        fill="#C89F7B"
        d="M34.406 236.907h-1.842c-4.62 0-8.365 4.333-8.365 9.677v44.324l-1.675 18.861c0 4.122 3.422 7.462 7.645 7.462h1.783c4.222 0 7.644-3.34 7.644-7.462V281.71c0-1.805.984-24.571.984-26.692V244.05c0-.411-.03-.821-.092-1.227-.515-3.42-3.082-5.916-6.082-5.916z"
      ></path>
      <path
        fill="#C89F7B"
        d="M30.429 165.347h-6.662c-1.717 0-6.39 3.676-6.425 3.966l.899 34.117c-.188 1.516-.156 19.445.094 21.191l.82 5.694a31.19 31.19 0 002.842 9.275s2.028 5.033 2.028 6.229c0 3.817-.438 9.061 4.428 8.973h3.939c3.533 0 8.179.017 8.179-4.073 0-.882.144-10.919.352-12.12l1.304-7.508 1.254-9.567a37.2 37.2 0 00.314-4.821V180.81c0-8.54-5.984-15.463-13.366-15.463z"
      ></path>
      <path
        fill="#BD8B60"
        d="M19.486 109.076c0-16.078 52.012-14.847 52.012 0l-1.981 15.895 1.981 40.378c0 16.077-13.19 5.436-27.03 5.436-13.84 0-27.033 10.641-27.033-5.436l2.05-40.378v-15.895z"
      ></path>
      <path
        fill="#C89F7B"
        d="M44.468 80.056c1 0 1.996.075 2.984.223 11.91 1.777 22.524 13.95 22.524 28.797l-1.87 15.895 1.87 40.378c0 16.078-12.447 5.436-25.508 5.436s-25.511 10.642-25.511-5.436l1.935-40.378v-15.895c0-16.077 10.515-29.02 23.576-29.02z"
      ></path>
      <path
        fill="#C89F7B"
        d="M44.267 145.14h.924c15.3 0 19.404-9.068 21.915 3.088l.404 16.868c.516 2.501-10.169 29.85-22.32 29.85h-.923c-7.732 0-23.052-26.373-22.334-29.85L22 148.327c2.512-12.156 6.968-3.187 22.267-3.187zM16.115 95.663c-3.864-1.024-8.84 6.618-9.69 12.651 0 0-2.515 31.224-2.491 33.644.043 4.237 1.452 7.345 4.5 8.153 3.327.883 5.537-1.389 6.63-5.891.371-1.528 2.585-28.287 2.638-29.908.146-4.457 1.32-17.878-1.587-18.649z"
      ></path>
      <path
        fill="#C89F7B"
        d="M10.066 130.143l-.05-.002c-3.166-.134-5.912 4.685-6.133 10.763l-1.66 45.644c-.22 6.079 2.168 11.115 5.335 11.249l.05.002c3.166.134 5.912-4.685 6.133-10.764l1.659-45.643c.22-6.079-2.167-11.116-5.334-11.249z"
      ></path>
      <path
        fill="#C89F7B"
        d="M10.693 178.194l-1.99-.015c-3.815-.028-7.086 5.646-7.308 12.672l-.198 6.243c-.222 7.027 2.69 12.745 6.504 12.773l1.99.015c3.813.028 7.085-5.646 7.307-12.672l.198-6.243c.222-7.026-2.69-12.745-6.503-12.773z"
      ></path>
      <path
        fill="#C89F7B"
        d="M11.185 195.95c-.83-4.469-3.755-6.732-6.534-5.055-2.779 1.678-4.36 6.661-3.53 11.129l2.267 12.205c.83 4.468 3.755 6.731 6.534 5.053 2.779-1.677 4.359-6.659 3.53-11.128l-2.267-12.204z"
      ></path>
      <path
        fill="#BD8B60"
        d="M17.69 193.563c.093-3.115-1.18-5.651-2.846-5.665-1.665-.015-3.09 2.5-3.185 5.615l-.256 8.507c-.094 3.116 1.18 5.653 2.846 5.667 1.665.013 3.091-2.5 3.185-5.615l.256-8.509z"
      ></path>
      <path
        fill="#C89F7B"
        d="M73.069 96.687c3.863-1.025 8.839 6.617 9.69 12.65 0 0 2.514 31.225 2.49 33.644-.042 4.238-1.451 7.346-4.499 8.153-3.327.884-5.538-1.388-6.63-5.89-.372-1.528-2.585-28.288-2.638-29.909-.146-4.457-1.32-17.878 1.587-18.648z"
      ></path>
      <path
        fill="#C89F7B"
        d="M79.117 131.167l.05-.002c3.166-.134 5.912 4.685 6.133 10.763l1.66 45.643c.22 6.079-2.167 11.115-5.334 11.249l-.05.002c-3.166.134-5.912-4.685-6.133-10.764l-1.66-45.643c-.22-6.079 2.168-11.115 5.334-11.248z"
      ></path>
      <path
        fill="#C89F7B"
        d="M79.187 178.194l1.99-.015c3.814-.028 7.086 5.646 7.308 12.672l.198 6.243c.221 7.027-2.69 12.745-6.504 12.773l-1.99.015c-3.814.028-7.086-5.646-7.308-12.672l-.197-6.243c-.223-7.026 2.689-12.745 6.503-12.773z"
      ></path>
      <path
        fill="#C89F7B"
        d="M78.694 195.95c.83-4.469 3.755-6.732 6.534-5.055 2.78 1.678 4.36 6.661 3.53 11.129l-2.267 12.205c-.83 4.468-3.755 6.731-6.534 5.053-2.778-1.677-4.359-6.659-3.53-11.128l2.267-12.204z"
      ></path>
      <path
        fill="#BD8B60"
        d="M72.188 193.563c-.093-3.115 1.18-5.651 2.846-5.665 1.666-.015 3.092 2.5 3.185 5.615l.256 8.507c.094 3.116-1.18 5.653-2.845 5.667-1.665.013-3.091-2.5-3.185-5.615l-.257-8.509z"
      ></path>
      <path
        fill="#C89F7B"
        d="M15.638 89.01h57.688c5.717 0 10.32 5.88 10.32 13.183 0 7.304-4.603 13.183-10.32 13.183H15.638c-5.717 0-10.32-5.879-10.32-13.183S9.921 89.01 15.638 89.01z"
      ></path>
      <path
        fill="#C89F7B"
        d="M35.434 87.446h17.988c10.052 0 18.143 9.711 18.143 21.774s-8.091 21.774-18.143 21.774H35.434c-10.051 0-18.143-9.711-18.143-21.774s8.092-21.774 18.143-21.774z"
      ></path>
      <path
        fill="#BD8B60"
        d="M44.905 115.376c2.34 0 4.225 2.38 4.225 5.335v4.947c0 2.956-1.884 5.335-4.225 5.335-2.341 0-4.225-2.379-4.225-5.335v-4.947c0-2.955 1.884-5.335 4.225-5.335z"
      ></path>
      <path
        fill="#C89F7B"
        d="M34.235 109.299a5.693 5.693 0 00-3.018.852c-2.869.174-5.559 1.348-7.524 3.28-1.965 1.933-3.058 4.482-3.058 7.129 0 2.767 1.193 5.422 3.319 7.378 2.125 1.957 5.007 3.056 8.013 3.056 2.737-.003 5.38-.919 7.443-2.577 2.061-1.659 3.401-3.948 3.772-6.446a4.89 4.89 0 00.117-1.062v-6.484c0-2.84-2.435-5.126-5.46-5.126h-3.604zm16.784 0c-3.024 0-5.459 2.286-5.459 5.126v6.484c0 .364.041.719.117 1.062.37 2.498 1.71 4.787 3.772 6.446 2.061 1.658 4.705 2.574 7.443 2.577 3.006 0 5.887-1.099 8.013-3.056 2.125-1.956 3.32-4.611 3.32-7.378-.002-2.647-1.095-5.196-3.06-7.129-1.965-1.932-4.654-3.106-7.523-3.28a5.693 5.693 0 00-3.019-.852H51.02z"
      ></path>
      <path
        fill="#BD8B60"
        fillRule="evenodd"
        d="M45.765 159.012a1.29 1.29 0 00-2.581 0v2.402a1.291 1.291 0 002.58 0v-2.402z"
        clipRule="evenodd"
      ></path>
      <path
        fill="#BD8B60"
        d="M61.725 153.128c-16.775-4.993-34.014 0-34.014 0 0-1.13 8.062-4.993 17.24-4.993 9.176 0 16.774 3.863 16.774 4.993z"
      ></path>
      <path
        fill="#4F4F4F"
        d="M17.436 165.097c-2.114 23.523 12.283 41.274 25.815 41.274 13.71 0 31.025-17.703 28.248-41.274H17.436z"
      ></path>
      <path
        fill="#4B4B4B"
        d="M71.5 165.097l-27.29 4.563.919 36.944c-.457 5.239-.412 10.63.318 15.868l25.306-.152c1.317-29.684 1.926-38.165.747-57.223zM17.436 165.097l26.37 4.547v36.627c.175 5.443.035 10.849-.432 16.201l-25.16-.316c-1.14-29.765-1.804-39.335-.778-57.059zM35.944 84.753h17.989c10.052 0 18.143 9.685 18.143 21.714 0 12.03-.351 27.864-17.771 24.99h-18.36c-18.002 2.648-18.144-12.96-18.144-24.99 0-12.03 8.092-21.714 18.143-21.714z"
      ></path>
      <path
        fill="#4B4B4B"
        fillOpacity="0.99"
        d="M44.84 78.67c1.01 0 2.016.063 3.012.184 12.022 1.463 22.515 9.248 22.736 23.703l-.43 13.286-49.114-.203v-13.083c-.214-14.9 10.614-23.886 23.797-23.886z"
      ></path>
      <path
        fill="#4F4F4F"
        d="M17.434 165.097c-2.114 23.523 12.283 41.274 25.815 41.274 13.71 0 31.025-17.703 28.248-41.274H17.434z"
      ></path>
      <path
        fill="#4B4B4B"
        d="M71.498 165.097l-27.289 4.563.918 36.944c-.457 5.239-.412 10.63.318 15.868l24.668-.152c1.317-29.684 2.564-38.165 1.385-57.223zM17.436 165.097l26.37 4.547v36.627c.175 5.443.035 10.849-.432 16.201l-24.697-.183c-1.14-29.765-2.267-39.468-1.241-57.192z"
      ></path>
      <path
        fill="#fff"
        d="M38.71 284.706H24.972c-.73 0-1.322.935-1.322 2.091v18.325c0 1.155.592 2.09 1.322 2.09H38.71c.73 0 1.322-.935 1.322-2.09v-18.325c0-1.156-.592-2.091-1.322-2.091z"
      ></path>
      <path
        fill="#4B4B4B"
        d="M33.512 291.16h-4.798c-1.14 0-2.064 1.341-2.064 2.994v2.687c0 1.654.925 2.995 2.064 2.995h4.798c1.14 0 2.064-1.341 2.064-2.995v-2.687c0-1.653-.923-2.994-2.064-2.994z"
      ></path>
      <path
        fill="#4F4F4F"
        d="M34.823 295.773h-7.074c-4.079 0-7.386 4.797-7.386 10.716 0 5.917 3.307 10.714 7.386 10.714h7.074c4.078 0 7.384-4.797 7.384-10.714 0-5.919-3.306-10.716-7.384-10.716z"
      ></path>
      <path
        fill="#4F4F4F"
        d="M40.63 305.507H22.04c-1.48 0-2.68 1.589-2.68 3.548v4.64c0 1.961 1.2 3.55 2.68 3.55h18.59c1.482 0 2.683-1.589 2.683-3.55v-4.64c0-1.959-1.2-3.548-2.682-3.548z"
      ></path>
      <path
        fill="#fff"
        d="M42.304 312.755H20.37c-.558 0-1.01.597-1.01 1.334v1.746c0 .737.452 1.335 1.01 1.335h21.935c.557 0 1.009-.598 1.009-1.335v-1.746c0-.737-.452-1.334-1.009-1.334zM34.019 296.312H28.41c-.292 0-.53.343-.53.768 0 .423.238.767.53.767h5.609c.291 0 .53-.344.53-.767 0-.425-.239-.768-.53-.768z"
      ></path>
      <path
        fill="#585858"
        d="M28.01 301.254h-2.695c-.95 0-1.721 1.117-1.721 2.497 0 1.379.771 2.497 1.72 2.497h2.696c.95 0 1.72-1.118 1.72-2.497 0-1.38-.77-2.497-1.72-2.497z"
      ></path>
      <path
        fill="#fff"
        d="M34.019 298.769H28.41c-.292 0-.53.343-.53.767 0 .423.238.767.53.767h5.609c.291 0 .53-.344.53-.767 0-.424-.239-.767-.53-.767zM64.034 284.705H50.448c-.721 0-1.307.945-1.307 2.11v18.487c0 1.166.586 2.11 1.308 2.11h13.585c.722 0 1.307-.944 1.307-2.11v-18.487c0-1.165-.585-2.11-1.307-2.11z"
      ></path>
      <path
        fill="#4B4B4B"
        d="M59.802 291.247h-4.698c-1.115 0-2.02 1.338-2.02 2.986v2.68c0 1.649.905 2.986 2.02 2.986h4.698c1.115 0 2.02-1.337 2.02-2.986v-2.68c0-1.648-.905-2.986-2.02-2.986z"
      ></path>
      <path
        fill="#4F4F4F"
        d="M61.033 295.817H54.11c-3.994 0-7.231 4.784-7.231 10.687 0 5.901 3.237 10.685 7.23 10.685h6.924c3.993 0 7.522-4.699 7.522-10.601 0-5.902-3.529-10.771-7.522-10.771z"
      ></path>
      <path
        fill="#4F4F4F"
        d="M66.757 305.525H48.504c-1.453 0-2.633 1.585-2.633 3.539v4.627c0 1.956 1.18 3.541 2.633 3.541h18.253c1.453 0 2.632-1.585 2.632-3.541v-4.627c0-1.954-1.179-3.539-2.632-3.539z"
      ></path>
      <path
        fill="#fff"
        d="M68.399 312.753H46.862c-.547 0-.99.596-.99 1.331v1.741c0 .735.443 1.331.99 1.331H68.4c.547 0 .99-.596.99-1.331v-1.741c0-.735-.443-1.331-.99-1.331zM61.103 296.354h-5.491c-.287 0-.518.343-.518.767 0 .422.231.765.518.765h5.491c.286 0 .518-.343.518-.765 0-.424-.232-.767-.518-.767z"
      ></path>
      <path
        fill="#585858"
        d="M62.968 301.313h-2.637c-.93 0-1.684 1.116-1.684 2.491s.754 2.49 1.684 2.49h2.637c.931 0 1.685-1.115 1.685-2.49 0-1.375-.754-2.491-1.685-2.491z"
      ></path>
      <path
        fill="#fff"
        d="M61.103 298.834h-5.491c-.287 0-.518.344-.518.765 0 .423.231.766.518.766h5.491c.286 0 .518-.343.518-.766 0-.421-.232-.765-.518-.765z"
      ></path>
      <path
        fill="#C89F7B"
        d="M45.143 54.157c8.333 0 15.042 9.518 15.042 21.34v8.756c0 11.823-6.403 15.151-14.736 15.123-8.765-.029-15.347-3.3-15.347-15.123v-8.755c0-11.823 6.708-21.34 15.041-21.34z"
      ></path>
      <path
        fill="#BD8B60"
        d="M42.876 55.852h4.532c5.217 0 9.417 5.873 9.417 13.167v5.402c0 7.295-4.2 13.167-9.417 13.167h-4.532c-5.217 0-9.417-5.872-9.417-13.167v-5.402c0-7.294 4.2-13.167 9.417-13.167zM35.14 93.35c-.586 0-1.058.549-1.058 1.23 0 .682.472 1.23 1.058 1.23h5.88l1.689 1.433c.474.403 1.135.282 1.482-.27.346-.553.242-1.322-.232-1.725l-1.748-1.483c-.018-.015-.038-.024-.057-.038a.986.986 0 00-.76-.377H35.14zm13.753 0c-.3 0-.569.145-.76.377-.019.014-.039.023-.057.038l-1.748 1.483c-.475.403-.578 1.172-.232 1.725.346.552 1.007.673 1.481.27l1.689-1.432h5.88c.587 0 1.059-.549 1.059-1.23 0-.682-.472-1.231-1.058-1.231h-6.254z"
      ></path>
      <path
        fill="#C89F7B"
        d="M22.1 43.514h47.026a9.714 9.714 0 019.734 9.735 9.713 9.713 0 01-9.734 9.735H22.1a9.713 9.713 0 01-9.735-9.735 9.714 9.714 0 019.735-9.735z"
      ></path>
      <path
        fill="#BD8B60"
        d="M22.442 45.99h46.34a7.244 7.244 0 017.26 7.26 7.244 7.244 0 01-7.26 7.26h-46.34a7.244 7.244 0 01-7.26-7.26 7.244 7.244 0 017.26-7.26zM43.232 77.041h3.044c.244 0 .44.172.44.385v.227c0 .213-.196.385-.44.385h-3.044c-.245 0-.441-.172-.441-.385v-.227c0-.213.197-.385.441-.385z"
      ></path>
      <path
        fill="#DCB491"
        d="M42.696.522a8.835 8.835 0 015.83 0l4.017 1.4a8.84 8.84 0 002.707.493l4.266.1a8.96 8.96 0 015.74 2.278l2.5 2.221a9.07 9.07 0 002.617 1.629l3.076 1.246c2.258.915 4.072 2.723 5.04 5.025l.751 1.782a9.482 9.482 0 002.047 3.042l1.285 1.279c2.009 1.996 3.028 4.832 2.767 7.701l-.08.882a9.762 9.762 0 00.5 4.088l.276.792a9.737 9.737 0 01-.976 8.417l-.635.993a9.662 9.662 0 00-1.397 3.69l-.2 1.275c-.421 2.675-1.933 5.033-4.148 6.476l-2.163 1.41a9.275 9.275 0 00-2.43 2.315l-1.566 2.152c-1.353 1.858-3.319 3.136-5.525 3.588l-3.825.783a8.909 8.909 0 00-2.688 1.023l-3.37 1.952a8.874 8.874 0 01-5.813 1.1l-4.333-.672c-.899-.14-1.81-.14-2.709 0l-4.332.672a8.874 8.874 0 01-5.814-1.1l-3.371-1.952a8.909 8.909 0 00-2.688-1.023l-3.824-.783c-2.205-.452-4.172-1.73-5.524-3.588l-1.566-2.152a9.26 9.26 0 00-2.431-2.316l-2.163-1.409c-2.216-1.443-3.726-3.801-4.148-6.476l-.2-1.274a9.638 9.638 0 00-1.397-3.691l-.635-.993a9.732 9.732 0 01-.975-8.417l.275-.792a9.784 9.784 0 00.5-4.088l-.08-.882c-.261-2.869.757-5.705 2.766-7.701l1.287-1.279a9.458 9.458 0 002.045-3.042l.75-1.782c.97-2.302 2.783-4.11 5.043-5.025l3.075-1.246a9.07 9.07 0 002.617-1.629l2.502-2.221a8.957 8.957 0 015.738-2.278l4.267-.1a8.847 8.847 0 002.706-.493l4.016-1.4z"
      ></path>
      <path
        fill="#C89F7B"
        d="M40.325 16.151h10.57c8.786 0 22.682 12.405 22.682 24.604v17.308c0 12.2-13.024 25.55-22.354 25.55H39.999c-9.33 0-22.355-13.35-22.355-25.55V40.755c0-12.2 13.895-24.604 22.68-24.604z"
      ></path>
      <path
        fill="#DCB491"
        fillRule="evenodd"
        d="M48.565 32.696a10.863 10.863 0 00-6.062 0l-1.803.534a10.85 10.85 0 01-4.018.387l-2.86-.257c-2.097-.19-4.195.326-5.712 1.4-1.12.792-2.569 1.289-4.117 1.41l-3.297.258c-1.546.12-2.794.98-3.05 2.103l-.002.003V24.702c18.49-14.607 37.13-14.957 55.934 0v14.501l-.155-.672c-.257-1.122-1.504-1.982-3.051-2.103l-3.297-.258c-1.548-.121-2.998-.618-4.117-1.41-1.517-1.074-3.615-1.59-5.71-1.4l-2.862.257a10.849 10.849 0 01-4.018-.387l-1.803-.534z"
        clipRule="evenodd"
      ></path>
      <path
        fill="#BD8B60"
        d="M45.608 49.633c1.866 0 3.368 1.588 3.368 3.56v6.285c0 1.972-1.502 3.56-3.368 3.56-1.865 0-3.368-1.588-3.368-3.56v-6.285c0-1.972 1.503-3.56 3.368-3.56z"
      ></path>
      <path
        fill="#BD8B60"
        d="M51.222 59c0 1.572-1.33 2.836-2.983 2.836h-5.26c-1.652 0-2.981-1.264-2.981-2.836 0-1.571 1.33-2.835 2.981-2.835h5.26c1.652 0 2.983 1.264 2.983 2.835z"
      ></path>
      <path
        fill="#fff"
        d="M37.118 65.922c-.39 0-.765.126-1.042.349-.277.223-.431.527-.431.843v.898c0 1.771.63 3.394 1.744 4.632a6.388 6.388 0 004.732 2.114h6.843c1.93 0 3.617-.876 4.731-2.114 1.116-1.238 1.746-2.86 1.746-4.632v-.898c0-.316-.156-.62-.432-.843a1.671 1.671 0 00-1.043-.35H37.118z"
      ></path>
      <path
        fill="#4D4D4D"
        d="M29.052 44.598l8.1-2.875c.881-.313 2.096-.267 2.724.103.629.37.425.92-.456 1.232l-8.1 2.875c-.88.313-2.095.267-2.724-.103s-.425-.92.456-1.232zM61.91 44.598l-8.1-2.875c-.88-.313-2.095-.267-2.723.103-.629.37-.425.92.455 1.232l8.1 2.875c.881.313 2.096.267 2.725-.103s.425-.92-.456-1.232z"
      ></path>
      <path
        fill="#61534B"
        d="M33.444 47.128h1.239c1.126 0 2.031.907 2.031 2.031v2.86c0 1.125-.905 2.031-2.031 2.031h-1.24a2.026 2.026 0 01-2.03-2.03v-2.86c0-1.125.905-2.032 2.03-2.032zM57.77 47.128h-1.239a2.027 2.027 0 00-2.031 2.031v2.86c0 1.125.906 2.031 2.031 2.031h1.24a2.026 2.026 0 002.031-2.03v-2.86a2.027 2.027 0 00-2.031-2.032z"
      ></path>
    </svg>