    <svg
      xmlns="http://www.w3.org/2000/svg"
      width="148"
      height="338"
      fill="none"
      viewBox="0 0 148 338"
    >
      <path
        fill="#C89F7B"
        d="M120.35 108.214l5.274-4.993c3.928-3.402 9.323-3.248 11.263.322l6.446 11.869a14.758 14.758 0 011.532 4.366l1.259 6.763c.668 3.585.637 7.412-.093 11.314l-1.315 7.028a16.471 16.471 0 00-.289 3.035v2.417c0 1.159-.309 2.374-.901 3.533-.798 1.563-1.02 3.2-.984 4.754.134 5.969-3.348 11.82-7.014 13.257l-.064.025c-4.146 1.625-8.551-2.491-9.84-9.192l-2.235-6.431-3.971-13.459c-1.076-3.643-1.375-7.618-.884-11.728l.698-5.83.615-5.847c.136-1.29-.189-2.477-.921-3.372-1.691-2.069-1.073-5.467 1.424-7.831z"
      ></path>
      <path
        fill="#C89F7B"
        d="M135.011 134.269l.077.003c4.942.208 9.04 5.681 9.151 12.226l.838 49.14c.11 6.544-3.806 11.681-8.748 11.473l-.078-.003c-4.942-.208-9.038-5.681-9.151-12.225l-.836-49.14c-.112-6.545 3.804-11.681 8.747-11.474z"
      ></path>
      <path
        fill="#C89F7B"
        d="M132.13 186.633l3.251.222c6.23.427 11.372 6.937 11.484 14.541l.1 6.755c.112 7.603-4.849 13.421-11.079 12.995l-3.251-.224c-6.231-.426-11.372-6.936-11.484-14.54l-.1-6.754c-.112-7.604 4.848-13.421 11.079-12.995z"
      ></path>
      <path
        fill="#C89F7B"
        d="M130.004 205.61c1.58-4.665 6.744-6.691 11.535-4.525 4.791 2.167 7.394 7.704 5.814 12.37l-4.317 12.741c-1.579 4.665-6.744 6.691-11.534 4.524-4.791-2.167-7.394-7.704-5.813-12.369l4.315-12.741z"
      ></path>
      <path
        fill="#BD8B60"
        d="M119.821 202.4c-.037-3.36 2.099-5.938 4.77-5.759 2.671.178 4.866 3.047 4.902 6.407l.098 9.176c.036 3.36-2.099 5.939-4.77 5.76-2.671-.178-4.866-3.047-4.902-6.407l-.098-9.177z"
      ></path>
      <path
        fill="#C89F7B"
        d="M27.63 108.214l-5.274-4.993c-3.928-3.402-9.324-3.248-11.262.322l-6.447 11.869a14.8 14.8 0 00-1.533 4.366l-1.26 6.763c-.667 3.585-.635 7.412.096 11.314l1.314 7.028c.192 1.023.288 2.04.288 3.035v2.417c0 1.159.31 2.374.902 3.533.797 1.563 1.02 3.2.985 4.754-.134 5.969 3.348 11.82 7.012 13.257l.065.025c4.145 1.625 8.551-2.491 9.84-9.192l2.235-6.431 3.971-13.459c1.075-3.643 1.374-7.618.883-11.728l-.697-5.83-.614-5.847c-.136-1.29.188-2.477.92-3.372 1.69-2.069 1.073-5.467-1.424-7.831z"
      ></path>
      <path
        fill="#C89F7B"
        d="M12.964 134.269l-.078.003c-4.942.208-9.039 5.681-9.15 12.226l-.837 49.14c-.112 6.544 3.804 11.681 8.748 11.473l.076-.003c4.943-.208 9.04-5.681 9.152-12.225l.836-49.14c.112-6.545-3.804-11.681-8.747-11.474z"
      ></path>
      <path
        fill="#C89F7B"
        d="M15.845 186.633l-3.251.222c-6.23.427-11.373 6.937-11.485 14.541l-.1 6.755c-.111 7.603 4.848 13.421 11.079 12.995l3.25-.224c3.95-.27 7.461-2.983 9.531-6.871a16.893 16.893 0 001.954-7.669l.1-6.754c.112-7.604-4.848-13.421-11.078-12.995z"
      ></path>
      <path
        fill="#C89F7B"
        d="M17.97 205.61c-1.58-4.665-6.744-6.691-11.534-4.525-4.791 2.167-7.394 7.704-5.814 12.37l4.315 12.741c1.58 4.665 6.745 6.691 11.536 4.524 4.79-2.167 7.393-7.704 5.813-12.369L17.97 205.61z"
      ></path>
      <path
        fill="#BD8B60"
        d="M28.155 202.4c.036-3.36-2.099-5.938-4.77-5.759-2.67.178-4.866 3.047-4.902 6.407l-.098 9.176c-.037 3.36 2.1 5.939 4.77 5.76 2.671-.178 4.866-3.047 4.902-6.407l.098-9.177z"
      ></path>
      <path
        fill="#C89F7B"
        d="M59.123 253.068h-2.537c-6.043 0-10.943 4.639-10.943 10.36l-.001 26.901.001 19.264-2.188 19.743c0 4.314 4.47 7.811 9.984 7.811h2.329c5.514 0 9.984-3.497 9.984-7.811v-28.827c0-2.007.519-3.984 1.508-5.76a11.804 11.804 0 001.508-5.76v-3.79c0-2.221-.292-4.434-.866-6.587a25.534 25.534 0 01-.865-6.589v-11.462c0-.44-.042-.88-.123-1.313-.672-3.574-3.956-6.18-7.791-6.18z"
      ></path>
      <path
        fill="#C89F7B"
        d="M56.992 174.943h-14.91c-.732 0-1.325.561-1.325 1.254l-4.788 42.294v14.761c0 1.874.16 3.745.484 5.594l1.079 6.205a29.475 29.475 0 003.713 10.002l3.127 5.265a7.168 7.168 0 011.013 3.664c0 4.126 3.534 7.471 7.892 7.471h4.965c4.667 0 8.45-3.582 8.45-8 0-.945.176-1.882.521-2.769l1.128-2.89c.483-1.24.863-2.516 1.135-3.812l1.703-8.101 1.645-10.371c.267-1.691.402-3.396.402-5.106v-40.09c0-8.49-7.267-15.371-16.234-15.371zM59.009 320.721h-9.377c-5.406 0-9.788 3.701-9.788 8.266 0 4.566 4.382 8.266 9.788 8.266h9.377c5.405 0 9.788-3.7 9.788-8.266 0-4.565-4.383-8.266-9.788-8.266z"
      ></path>
      <path
        fill="#C89F7B"
        d="M65.555 328.188h-22.47c-1.79 0-3.241 1.227-3.241 2.738v3.581c0 1.512 1.452 2.737 3.241 2.737h22.47c1.791 0 3.242-1.225 3.242-2.737v-3.581c0-1.511-1.45-2.738-3.242-2.738zM89.212 251.393h2.405c6.033 0 10.924 4.631 10.924 10.342l.001 27.701-.001 19.669 2.188 20.158c0 4.406-4.47 7.976-9.985 7.976h-2.328c-5.514 0-9.984-3.57-9.984-7.976v-29.987c0-1.93-.52-3.827-1.508-5.515a10.907 10.907 0 01-1.508-5.513v-4.134c0-2.212.284-4.416.846-6.564l.02-.078c.576-2.2.866-4.457.866-6.723v-11.722c0-.44.04-.878.12-1.311.672-3.656 4.025-6.323 7.944-6.323z"
      ></path>
      <path
        fill="#C89F7B"
        d="M92.929 174.912h8.7c2.243 0 4.238 1.348 4.969 3.355.107.296.186.602.232.913l5.532 36.434a32.71 32.71 0 01.368 4.891v12.11c0 1.891-.165 3.78-.492 5.646l-1.07 6.086a29.069 29.069 0 01-3.712 9.912l-3.126 5.211a7.082 7.082 0 00-1.018 3.649c0 4.079-3.493 7.388-7.803 7.388h-5.144c-4.615 0-8.358-3.543-8.358-7.913 0-.943-.178-1.879-.526-2.762l-1.123-2.856a23.74 23.74 0 01-1.135-3.775l-1.703-8.024-1.637-10.226a32.615 32.615 0 01-.41-5.152v-38.36c0-9.128 7.815-16.527 17.456-16.527zM90.343 320.721h9.375c5.406 0 9.789 3.689 9.789 8.238 0 4.549-4.383 8.237-9.79 8.237h-9.374c-5.406 0-9.79-3.688-9.79-8.237 0-4.549 4.384-8.238 9.79-8.238z"
      ></path>
      <path
        fill="#C89F7B"
        d="M83.794 323.728h22.472c1.789 0 3.241 1.769 3.241 3.955v5.172c0 2.184-1.452 3.955-3.241 3.955H83.794c-1.79 0-3.241-1.771-3.241-3.955v-5.172c0-2.186 1.452-3.955 3.241-3.955zM110.406 135.16c0-21.342-18.127-29.576-36.517-29.576-18.392 0-35.182 8.234-35.182 29.576l1.88 36.989c0 21.343 14.91 38.645 33.302 38.645 18.39 0 33.3-12.441 33.3-33.784l3.217-41.85z"
      ></path>
      <path
        fill="#C89F7B"
        d="M119.405 87.072H27.51c-9.947 0-18.012 7.635-18.012 17.053 0 9.417 8.065 17.051 18.012 17.051h91.895c9.947 0 18.011-7.634 18.011-17.051 0-9.418-8.064-17.053-18.011-17.053z"
      ></path>
      <path
        fill="#C89F7B"
        d="M122.463 112.989c0-19.783-21.848-35.821-48.795-35.821-26.95 0-48.797 16.038-48.797 35.821 0 19.783 21.846 35.821 48.797 35.821 10.042 0 19.377-2.228 27.137-6.047 13.06-6.428 21.658-17.364 21.658-29.774z"
      ></path>
      <path
        fill="#C89F7B"
        d="M76.465 139.336h-5.39c-12.854 0-23.274 8.929-23.274 19.944 0 0 .187 13.075.268 13.052l26.49 11.283c-.083-.064 26.071-11.119 25.735-11.283-.278-.135.01.042 0 0l-.556-13.052c0-11.015-10.419-19.944-23.273-19.944z"
      ></path>
      <path
        fill="#BD8B60"
        d="M98.893 87.072H48.44c-13.017 0-23.569 8.793-23.569 19.641v11.836c0 10.846 10.552 19.64 23.569 19.64h50.453c13.018 0 23.57-8.794 23.57-19.64v-11.836c0-10.848-10.552-19.64-23.57-19.64z"
      ></path>
      <path
        fill="#C89F7B"
        d="M103.296 87.072H44.038c-10.585 0-19.167 8.17-19.167 18.252v11c0 10.08 8.582 18.252 19.167 18.252h59.258c10.585 0 19.167-8.172 19.167-18.252v-11c0-10.081-8.582-18.252-19.167-18.252z"
      ></path>
      <path
        fill="#BD8B60"
        d="M77.743 127.075c0-1.244-1.839-2.253-4.11-2.253-2.27 0-4.11 1.009-4.11 2.253v4.37c0 1.244 1.84 2.253 4.11 2.253 2.271 0 4.11-1.009 4.11-2.253v-4.37zM47.525 128.935h-3.49c-1.39 0-2.52.964-2.52 2.154 0 1.188 1.13 2.153 2.52 2.153h3.49c1.391 0 2.519-.965 2.519-2.153 0-1.19-1.128-2.154-2.519-2.154zM104.343 128.935h-3.489c-1.392 0-2.52.964-2.52 2.154 0 1.188 1.127 2.153 2.52 2.153h3.489c1.392 0 2.519-.965 2.519-2.153 0-1.19-1.127-2.154-2.519-2.154zM68.008 144.951h-6.18c-2.949 0-5.338 1.972-5.338 4.406 0 2.432 2.39 4.404 5.338 4.404h6.18c2.949 0 5.338-1.972 5.338-4.404 0-2.434-2.39-4.406-5.338-4.406zM68.008 155.425h-6.18c-2.949 0-5.338 1.973-5.338 4.404 0 2.434 2.39 4.407 5.338 4.407h6.18c2.949 0 5.338-1.973 5.338-4.407 0-2.431-2.39-4.404-5.338-4.404zM68.008 165.709h-6.18c-2.949 0-5.338 1.972-5.338 4.405 0 2.433 2.39 4.405 5.338 4.405h6.18c2.949 0 5.338-1.972 5.338-4.405 0-2.433-2.39-4.405-5.338-4.405zM86.993 144.951h-6.181c-2.948 0-5.337 1.972-5.337 4.405 0 2.433 2.389 4.405 5.337 4.405h6.18c.739 0 1.442-.123 2.081-.347 1.914-.67 3.256-2.234 3.256-4.058 0-2.433-2.39-4.405-5.336-4.405zM86.993 155.425h-6.181c-2.948 0-5.337 1.973-5.337 4.404 0 2.434 2.389 4.407 5.337 4.407h6.18c2.948 0 5.337-1.973 5.337-4.407 0-2.431-2.39-4.404-5.336-4.404zM86.993 165.708h-6.181c-2.948 0-5.337 1.972-5.337 4.406 0 2.432 2.389 4.404 5.337 4.404h6.18c2.948 0 5.337-1.972 5.337-4.404 0-2.434-2.39-4.406-5.336-4.406z"
      ></path>
      <path
        fill="#4F4F4F"
        d="M45.878 177.19c-1.754 0-5.612.15-5.519.081 1.875 19.413 16.478 35.082 33.748 35.082 17.496 0 31.456-15.384 33.032-35.163H45.878z"
      ></path>
      <path
        fill="#4B4B4B"
        d="M107.143 177.19l-32.692 6.024v51.315h40.501c.309-15.424-4.878-39.398-7.809-57.339zM40.357 178.386l33.626 4.828v51.315H34.605c-.308-15.424 2.821-38.202 5.752-56.143z"
      ></path>
      <path
        fill="#C89F7B"
        d="M90.403 72.55c0-10.915-7.39-19.764-16.507-19.764-9.119 0-16.51 8.849-16.51 19.764v8.11c0 10.915 7.391 19.764 16.51 19.764 9.117 0 16.507-8.85 16.507-19.765V72.55z"
      ></path>
      <path
        fill="#BD8B60"
        d="M67.826 95.636l-9.01-4.33a2.015 2.015 0 10-1.746 3.63l9.012 4.332a2.014 2.014 0 101.744-3.632zM78.778 95.636l9.011-4.33a2.016 2.016 0 012.69.942 2.016 2.016 0 01-.944 2.688l-9.01 4.332a2.015 2.015 0 01-1.747-3.632zM76.716 54.115h-6.402c-7.35 0-13.308 5.958-13.308 13.307v5.46c0 7.349 5.958 13.306 13.308 13.306h6.402c7.35 0 13.307-5.957 13.307-13.306v-5.46c0-7.35-5.958-13.307-13.307-13.307z"
      ></path>
      <path
        fill="#C89F7B"
        d="M96.535 42.533H50.784c-5.23 0-9.471 4.405-9.471 9.838 0 5.435 4.24 9.84 9.47 9.84h45.752c5.231 0 9.473-4.405 9.473-9.84 0-5.433-4.242-9.838-9.473-9.838z"
      ></path>
      <path
        fill="#BD8B60"
        d="M96.817 44.02H50.765c-3.985 0-7.214 3.285-7.214 7.337 0 4.053 3.229 7.338 7.214 7.338h46.052c3.984 0 7.214-3.285 7.214-7.338 0-4.052-3.23-7.337-7.214-7.337z"
      ></path>
      <path
        fill="#C89F7B"
        d="M80.676 13.929H66.905c-11.41 0-20.659 9.248-20.659 20.658V59.07c0 11.411 9.25 20.66 20.659 20.66h13.771c11.41 0 20.659-9.249 20.659-20.66V34.587c0-11.41-9.25-20.658-20.659-20.658z"
      ></path>
      <path
        fill="#C89F7B"
        d="M80.24 76.93H67.372a2.52 2.52 0 000 5.04H80.24a2.52 2.52 0 000-5.04z"
      ></path>
      <path
        fill="#BD8B60"
        d="M75.884 74.113h-3.72a.539.539 0 00-.539.54v.317c0 .297.24.539.538.539h3.721a.54.54 0 00.538-.54v-.316a.54.54 0 00-.538-.54zM77.815 50.313a4.045 4.045 0 10-8.09 0v7.138a4.046 4.046 0 008.09 0v-7.138z"
      ></path>
      <path
        fill="#BD8B60"
        d="M73.326 58.392l-3.761-3.198a1.478 1.478 0 00-1.913 2.251l3.761 3.197a1.478 1.478 0 001.913-2.25zM74.359 58.392l3.761-3.198a1.477 1.477 0 111.913 2.251l-3.762 3.197a1.478 1.478 0 01-1.912-2.25zM71.234 42.909a1.134 1.134 0 10-2.267 0v1.372a1.135 1.135 0 002.267 0V42.91zM78.763 42.909a1.133 1.133 0 10-2.267 0v1.372a1.134 1.134 0 002.267 0V42.91z"
      ></path>
      <path
        fill="#61534B"
        d="M63.967 45.255a2.531 2.531 0 00-5.063 0v1.014a2.531 2.531 0 005.063 0v-1.014zM88.586 45.255a2.531 2.531 0 10-5.063 0v1.012a2.531 2.531 0 105.063 0v-1.012z"
      ></path>
      <path
        fill="#fff"
        d="M78.561 71.29c3.727 0 6.726-3.204 6.726-7.184v-1.163H62.639v1.163c0 3.98 3 7.184 6.725 7.184h9.197z"
      ></path>
      <path
        fill="#61534B"
        fillRule="evenodd"
        d="M91.551 40.325c0-.3-.245-.545-.546-.545h-7.634c-.3 0-.545.244-.545.545v1.09c0 .302.244.546.545.546h7.634c.301 0 .546-.244.546-.546v-1.09zM65.35 40.294c0-.301-.244-.545-.545-.545h-7.634c-.301 0-.546.244-.546.545v1.091c0 .301.245.545.546.545h7.634c.3 0 .546-.244.546-.545v-1.091z"
        clipRule="evenodd"
      ></path>
      <path
        fill="#A27B5F"
        d="M102.141 39.222a1.72 1.72 0 00-.652.07l-.238.075c-.772.24-1.256.974-1.238 1.767a1.827 1.827 0 00-.26-.298v2.455c3.345 1.43 5.688 4.828 5.688 8.81 0 4.003-2.368 7.413-5.743 8.83a20.61 20.61 0 01-.71 4.146v1.372a2.283 2.283 0 00-.3-.389c-1.683 5.05-5.258 8.858-9.862 11.16v3.394c0 1.237.966 2.234 2.166 2.234h1c1.2 0 2.165-.997 2.165-2.234v-.603c.325.81 1.096 1.375 2 1.375h.998c1.201 0 2.167-.995 2.167-2.235v-.708a2.14 2.14 0 001.831 1.052c1.2 0 2.166-.996 2.166-2.234V64.705l.446 1.53c.278.957 1.251 1.498 2.178 1.21.929-.289 1.451-1.29 1.173-2.25l-2.376-8.163c.438.508 1.132.74 1.807.532l.239-.076c.929-.287 1.452-1.29 1.172-2.247l-4.29-14.738a1.757 1.757 0 00-1.527-1.281zm-56.306.121a1.756 1.756 0 00-1.527 1.281l-4.29 14.738c-.278.958.244 1.96 1.173 2.248l.239.075a1.709 1.709 0 001.806-.532l-2.375 8.164c-.28.959.243 1.961 1.171 2.25.93.287 1.9-.253 2.179-1.21l.09-.309v11.213c0 1.238.965 2.234 2.165 2.234a2.14 2.14 0 001.833-1.052v.708c0 1.238.965 2.235 2.165 2.235h1c.903 0 1.673-.563 1.998-1.371v.599c0 1.237.966 2.234 2.167 2.234h1c1.199 0 2.165-.997 2.165-2.234V77.22c-4.562-2.335-8.092-6.231-9.74-11.276a2.222 2.222 0 00-.423.505v-1.982a20.762 20.762 0 01-.55-3.535c-4.357-2.85-5.913-5.08-5.742-8.832.184-3.978 2.343-7.378 5.688-8.81v-2.114c-.02.026-.044.052-.063.08.017-.792-.468-1.528-1.24-1.768l-.238-.074a1.693 1.693 0 00-.65-.07z"
      ></path>
      <path
        fill="#A27B5F"
        d="M62.408 13.929c-9.797 0-17.683 8.344-17.683 18.713 0 .485.022.965.056 1.444a5.329 5.329 0 00-.056.746v11.462c0 2.461 1.642 4.5 3.836 4.961v-14.96c0-10.708 8.147-19.33 18.267-19.33H81.12c10.12 0 18.267 8.622 18.267 19.33v14.979c2.255-.407 3.965-2.472 3.965-4.98V34.832c0-.254-.025-.503-.058-.746.034-.479.058-.96.058-1.444 0-10.37-7.888-18.713-17.684-18.713h-23.26z"
      ></path>
      <path
        fill="#A27B5F"
        d="M67.538 3.385c-12.406 0-22.393 10.01-22.393 22.443v10.588c0 3.765.92 7.304 2.541 10.414V34.209c0-10.975 8.816-19.809 19.765-19.809h13.174c10.948 0 19.763 8.834 19.763 19.809v12.62a22.443 22.443 0 002.541-10.413V25.828c0-12.433-9.987-22.443-22.393-22.443H67.538z"
      ></path>
      <path
        fill="#A27B5F"
        d="M53.684 23.627c0-2.467-1.696-4.468-3.787-4.468-2.092 0-3.788 2-3.788 4.468v6.358c0 2.469 1.696 4.47 3.788 4.47 2.091 0 3.787-2.001 3.787-4.47v-6.358zM102.807 23.627c0-2.467-1.696-4.468-3.788-4.468-2.09 0-3.787 2-3.787 4.468v6.358c0 2.469 1.696 4.47 3.787 4.47 2.092 0 3.788-2.001 3.788-4.47v-6.358z"
      ></path>
      <path
        fill="#A27B5F"
        d="M84.813 3.83H63.26c-6.419 0-11.623 5.215-11.623 11.649v5.496c0 6.433 5.204 11.65 11.623 11.65h21.553c6.42 0 11.623-5.217 11.623-11.65v-5.496c0-6.434-5.204-11.65-11.623-11.65z"
      ></path>
      <path
        fill="#A27B5F"
        d="M49.037.07a2.906 2.906 0 00-1.961.5 2.452 2.452 0 00-1.024 1.608c-.044.274-.08.549-.108.822-.827 8.256 5.842 15.72 14.854 16.627l10.525 1.058c9.012.907 17.028-5.082 17.854-13.337.03-.294.044-.57.054-.823a2.455 2.455 0 00-.683-1.783 2.91 2.91 0 00-1.823-.882L49.037.07z"
      ></path>
      <path
        fill="#A27B5F"
        d="M73.087 15.849h1.715c1.01 0 1.831.868 1.831 1.938v7.081c0 1.07-.82 1.938-1.831 1.938h-1.715c-1.013 0-1.833-.868-1.833-1.938v-7.081c0-1.07.82-1.938 1.833-1.938zM65.73 16.041h2.263c.792 0 1.433.68 1.433 1.517v7.501c0 .839-.64 1.519-1.433 1.519h-2.264c-.793 0-1.434-.68-1.434-1.519v-7.5c0-.838.64-1.518 1.434-1.518zM82.346 16.073H80.08c-.791 0-1.434.68-1.434 1.517v7.503c0 .838.643 1.517 1.434 1.517h2.264c.792 0 1.434-.679 1.434-1.517V17.59c0-.837-.642-1.517-1.433-1.517z"
      ></path>
      <path
        fill="#4F4F4F"
        d="M45.878 177.189c-1.754 0-5.612.15-5.519.081 1.875 19.413 16.478 35.082 33.748 35.082 17.496 0 31.456-15.384 33.032-35.163H45.878z"
      ></path>
      <path
        fill="#4B4B4B"
        d="M107.143 177.189l-32.692 6.024v51.315h40.501c.309-15.424-4.878-39.398-7.809-57.339zM40.357 178.385l33.626 4.828v51.315H34.605c-.308-15.424 2.821-38.202 5.752-56.143z"
      ></path>
      <path
        fill="#fff"
        d="M64.471 303.539h-17.92c-.953 0-1.725 1-1.725 2.235v19.584c0 1.235.772 2.235 1.724 2.235h17.921c.952 0 1.726-1 1.726-2.235v-19.584c0-1.235-.774-2.235-1.726-2.235z"
      ></path>
      <path
        fill="#4B4B4B"
        d="M57.44 310.437h-6.273c-1.49 0-2.698 1.416-2.698 3.163v2.838c0 1.748 1.208 3.164 2.698 3.164h6.274c1.491 0 2.698-1.416 2.698-3.164V313.6c0-1.747-1.207-3.163-2.698-3.163z"
      ></path>
      <path
        fill="#4F4F4F"
        d="M58.995 315.311h-9.4c-5.42 0-9.816 5.067-9.816 11.32 0 6.252 4.395 11.319 9.815 11.319h9.401c5.42 0 9.814-5.067 9.814-11.319 0-6.253-4.394-11.32-9.814-11.32z"
      ></path>
      <path
        fill="#4F4F4F"
        d="M66.775 325.594h-24.32c-1.937 0-3.508 1.679-3.508 3.748v4.902c0 2.072 1.57 3.751 3.508 3.751h24.32c1.939 0 3.51-1.679 3.51-3.751v-4.902c0-2.069-1.571-3.748-3.51-3.748z"
      ></path>
      <path
        fill="#fff"
        d="M68.942 333.251H40.265c-.73 0-1.32.631-1.32 1.41v1.844c0 .779.59 1.411 1.32 1.411h28.677c.728 0 1.319-.632 1.319-1.411v-1.844c0-.779-.59-1.41-1.32-1.41zM58.102 315.879h-7.334c-.382 0-.692.363-.692.811 0 .448.31.811.692.811h7.334c.381 0 .692-.363.692-.811 0-.448-.31-.811-.692-.811z"
      ></path>
      <path
        fill="#585858"
        d="M60.592 321.101H57.07c-1.242 0-2.25 1.18-2.25 2.638 0 1.457 1.008 2.638 2.25 2.638h3.523c1.244 0 2.25-1.181 2.25-2.638 0-1.458-1.006-2.638-2.25-2.638z"
      ></path>
      <path
        fill="#fff"
        d="M58.102 318.475h-7.334c-.382 0-.692.363-.692.81 0 .447.31.811.692.811h7.334c.381 0 .692-.364.692-.811 0-.447-.31-.81-.692-.81zM101.649 303.538H83.936c-.941 0-1.706 1.001-1.706 2.236v19.583c0 1.235.765 2.236 1.706 2.236h17.713c.941 0 1.704-1.001 1.704-2.236v-19.583c0-1.235-.763-2.236-1.704-2.236z"
      ></path>
      <path
        fill="#4B4B4B"
        d="M97.815 310.468H91.54c-1.49 0-2.698 1.417-2.698 3.163v2.839c0 1.747 1.208 3.163 2.698 3.163h6.275c1.49 0 2.699-1.416 2.699-3.163v-2.839c0-1.746-1.209-3.163-2.7-3.163z"
      ></path>
      <path
        fill="#4F4F4F"
        d="M99.46 315.311h-9.247c-5.334 0-9.658 5.067-9.658 11.32 0 6.252 4.324 11.319 9.658 11.319h9.248c5.334 0 10.03-5.067 10.03-11.319 0-6.253-4.696-11.32-10.03-11.32z"
      ></path>
      <path
        fill="#4F4F4F"
        d="M106.863 325.594H82.744c-1.92 0-3.478 1.679-3.478 3.748v4.902c0 2.072 1.558 3.751 3.478 3.751h24.119c1.921 0 3.479-1.679 3.479-3.751v-4.902c0-2.069-1.558-3.748-3.479-3.748z"
      ></path>
      <path
        fill="#fff"
        d="M109.033 333.251H80.575c-.722 0-1.31.631-1.31 1.41v1.844c0 .779.588 1.411 1.31 1.411h28.458c.723 0 1.309-.632 1.309-1.411v-1.844c0-.779-.586-1.41-1.309-1.41zM98.408 315.879h-7.335c-.382 0-.692.363-.692.811 0 .448.31.811.692.811h7.335c.38 0 .692-.363.692-.811 0-.448-.311-.811-.692-.811z"
      ></path>
      <path
        fill="#585858"
        d="M100.898 321.132h-3.522c-1.244 0-2.251 1.181-2.251 2.638 0 1.457 1.007 2.638 2.25 2.638h3.523c1.243 0 2.25-1.181 2.25-2.638 0-1.457-1.007-2.638-2.25-2.638z"
      ></path>
      <path
        fill="#fff"
        d="M98.408 318.505h-7.335c-.382 0-.692.364-.692.81 0 .449.31.812.692.812h7.335c.38 0 .692-.363.692-.812 0-.446-.311-.81-.692-.81z"
      ></path>
    </svg>