<?xml version="1.0" encoding="UTF-8" standalone="no"?>
<!DOCTYPE svg PUBLIC "-//W3C//DTD SVG 1.1//EN" "http://www.w3.org/Graphics/SVG/1.1/DTD/svg11.dtd">
<svg width="100%" height="100%" viewBox="0 0 351 351" version="1.1" xmlns="http://www.w3.org/2000/svg" xmlns:xlink="http://www.w3.org/1999/xlink" xml:space="preserve" xmlns:serif="http://www.serif.com/" style="fill-rule:evenodd;clip-rule:evenodd;stroke-linejoin:round;stroke-miterlimit:2;">
    <g id="arms">
        <g id="arm-left" transform="matrix(0.860651,0,0,1,25.0255,0.582454)">
            <path id="bicep-left" d="M214.969,114.213L219.534,109.648C222.934,106.538 227.604,106.679 229.283,109.943L234.863,120.794C235.492,122.017 235.938,123.359 236.189,124.786L237.279,130.969C237.857,134.247 237.83,137.746 237.198,141.314L236.06,147.739C235.894,148.675 235.81,149.604 235.81,150.514L235.81,152.724C235.81,153.784 235.542,154.894 235.03,155.954C234.339,157.383 234.147,158.88 234.178,160.301C234.294,165.758 231.28,171.107 228.107,172.421L228.051,172.444C224.463,173.93 220.65,170.167 219.534,164.04L217.599,158.16L214.162,145.855C213.231,142.524 212.972,138.89 213.397,135.132L214.001,129.802L214.533,124.456C214.651,123.277 214.37,122.191 213.736,121.373C212.272,119.481 212.807,116.375 214.969,114.213Z" style="fill:rgb(157,107,90);fill-rule:nonzero;"/>
            <path id="forearm-left" d="M227.659,138.035L227.726,138.038C232.004,138.228 235.551,143.232 235.647,149.216L236.372,194.144C236.468,200.127 233.078,204.824 228.8,204.634L228.733,204.631C224.455,204.441 220.909,199.437 220.812,193.454L220.088,148.526C219.991,142.542 223.381,137.846 227.659,138.035Z" style="fill:rgb(157,107,90);fill-rule:nonzero;"/>
            <g id="hand-left">
                <path d="M225.166,185.911L227.98,186.114C233.373,186.504 237.824,192.456 237.921,199.408L238.007,205.584C238.104,212.536 233.81,217.855 228.417,217.465L225.603,217.261C220.21,216.871 215.76,210.919 215.663,203.967L215.576,197.792C215.479,190.84 219.773,185.521 225.166,185.911Z" style="fill:rgb(144,98,83);fill-rule:nonzero;"/>
                <path id="color" d="M223.326,203.261C224.694,198.996 229.164,197.144 233.311,199.124C237.458,201.105 239.711,206.168 238.343,210.434L234.607,222.083C233.24,226.348 228.769,228.2 224.623,226.219C220.476,224.238 218.223,219.175 219.591,214.91L223.326,203.261Z" style="fill:rgb(144,98,83);fill-rule:nonzero;"/>
            </g>
            <path id="thumb-left" d="M214.51,200.326C214.478,197.254 216.327,194.897 218.639,195.06C220.951,195.223 222.851,197.846 222.882,200.918L222.967,209.308C222.998,212.38 221.15,214.738 218.838,214.574C216.526,214.411 214.626,211.788 214.595,208.716L214.51,200.326Z" style="fill:rgb(157,107,90);fill-rule:nonzero;"/>
        </g>
        <g id="arm-right" transform="matrix(0.860651,0,0,1,25.0255,0.582454)">
            <path id="bicep-right" d="M134.71,114.213L130.145,109.648C126.745,106.538 122.074,106.679 120.396,109.943L114.816,120.794C114.187,122.017 113.741,123.359 113.489,124.786L112.399,130.969C111.821,134.247 111.849,137.746 112.481,141.314L113.619,147.739C113.785,148.675 113.868,149.604 113.868,150.514L113.868,152.724C113.868,153.784 114.136,154.894 114.649,155.954C115.339,157.383 115.531,158.88 115.501,160.301C115.385,165.758 118.399,171.107 121.571,172.421L121.627,172.444C125.215,173.93 129.029,170.167 130.145,164.04L132.079,158.16L135.517,145.855C136.447,142.524 136.706,138.89 136.281,135.132L135.678,129.802L135.146,124.456C135.028,123.277 135.309,122.191 135.942,121.373C137.406,119.481 136.871,116.375 134.71,114.213Z" style="fill:rgb(157,107,90);fill-rule:nonzero;"/>
            <path id="forearm-right" d="M122.016,138.035L121.949,138.038C117.671,138.228 114.125,143.232 114.028,149.216L113.304,194.144C113.207,200.127 116.597,204.824 120.876,204.634L120.942,204.631C125.221,204.441 128.767,199.437 128.864,193.454L129.588,148.526C129.685,142.542 126.295,137.846 122.016,138.035Z" style="fill:rgb(157,107,90);fill-rule:nonzero;"/>
            <g id="hand-right">
                <path id="color3" d="M124.51,185.911L121.696,186.114C116.303,186.504 111.852,192.456 111.755,199.408L111.669,205.584C111.572,212.536 115.865,217.855 121.258,217.465L124.072,217.261C127.49,217.014 130.53,214.533 132.322,210.979C133.358,208.925 133.977,206.513 134.013,203.967L134.099,197.792C134.196,190.84 129.903,185.521 124.51,185.911Z" style="fill:rgb(144,98,83);fill-rule:nonzero;"/>
                <path id="color31" serif:id="color3" d="M126.349,203.261C124.982,198.996 120.511,197.144 116.365,199.124C112.218,201.105 109.965,206.168 111.333,210.434L115.068,222.083C116.436,226.348 120.906,228.2 125.053,226.219C129.2,224.238 131.453,219.175 130.085,214.91L126.349,203.261Z" style="fill:rgb(144,98,83);fill-rule:nonzero;"/>
            </g>
            <path id="thumb-right" d="M135.166,200.326C135.197,197.254 133.349,194.897 131.037,195.06C128.725,195.223 126.825,197.846 126.794,200.918L126.709,209.308C126.677,212.38 128.526,214.738 130.838,214.574C133.15,214.411 135.05,211.788 135.081,208.716L135.166,200.326Z" style="fill:rgb(157,107,90);fill-rule:nonzero;"/>
        </g>
    </g>
    <g id="legs">
        <g id="leg-right" transform="matrix(0.860651,0,0,1,25.0255,0.582454)">
            <path id="tibia-right" d="M161.971,246.652L159.775,246.652C154.544,246.652 150.303,250.893 150.303,256.124L150.302,280.719L150.303,298.332L148.409,316.382C148.409,320.327 152.278,323.524 157.051,323.524L159.067,323.524C163.84,323.524 167.709,320.327 167.709,316.382L167.709,290.026C167.709,288.191 168.158,286.384 169.014,284.76C169.872,283.137 170.32,281.329 170.32,279.494L170.32,276.029C170.32,273.998 170.067,271.975 169.57,270.006C169.072,268.036 168.821,266.013 168.821,263.982L168.821,253.502C168.821,253.1 168.785,252.698 168.715,252.302C168.133,249.034 165.291,246.652 161.971,246.652Z" style="fill:rgb(144,98,83);fill-rule:nonzero;"/>
            <path id="thigh-right" d="M160.127,175.223L147.22,175.223C146.587,175.223 146.074,175.736 146.074,176.369L141.929,215.038L141.929,228.534C141.929,230.247 142.068,231.958 142.348,233.648L143.282,239.321C143.812,242.533 144.899,245.628 146.496,248.466L149.203,253.28C149.778,254.303 150.08,255.456 150.08,256.63C150.08,260.402 153.139,263.46 156.911,263.46L161.209,263.46C165.248,263.46 168.523,260.185 168.523,256.146C168.523,255.282 168.675,254.425 168.974,253.614L169.95,250.972C170.368,249.838 170.697,248.672 170.933,247.487L172.407,240.08L173.831,230.598C174.062,229.052 174.179,227.493 174.179,225.93L174.179,189.276C174.179,181.514 167.888,175.223 160.127,175.223Z" style="fill:rgb(129,88,74);fill-rule:nonzero;"/>
            <g id="foot-right">
                <path id="color32" serif:id="color3" d="M161.873,308.505L153.757,308.505C149.077,308.505 145.284,311.889 145.284,316.063C145.284,320.237 149.077,323.62 153.757,323.62L161.873,323.62C166.552,323.62 170.346,320.237 170.346,316.063C170.346,311.889 166.552,308.505 161.873,308.505Z" style="fill:rgb(157,107,90);fill-rule:nonzero;"/>
                <path id="color33" serif:id="color3" d="M167.54,315.333L148.09,315.333C146.541,315.333 145.284,316.454 145.284,317.836L145.284,321.11C145.284,322.492 146.541,323.612 148.09,323.612L167.54,323.612C169.09,323.612 170.346,322.492 170.346,321.11L170.346,317.836C170.346,316.454 169.09,315.333 167.54,315.333Z" style="fill:rgb(157,107,90);fill-rule:nonzero;"/>
            </g>
        </g>
        <g id="leg-left" transform="matrix(0.860651,0,0,1,25.0255,0.582454)">
            <path id="tibia-left" d="M188.016,245.119L190.098,245.119C195.32,245.119 199.554,249.353 199.554,254.575L199.555,279.902L199.554,297.885L201.448,316.315C201.448,320.343 197.579,323.607 192.805,323.607L190.79,323.607C186.017,323.607 182.148,320.343 182.148,316.315L182.148,288.898C182.148,287.134 181.698,285.399 180.842,283.856C179.987,282.313 179.537,280.578 179.537,278.815L179.537,275.036C179.537,273.013 179.783,270.998 180.269,269.034L180.287,268.963C180.785,266.952 181.036,264.888 181.036,262.816L181.036,252.099C181.036,251.697 181.071,251.296 181.14,250.9C181.722,247.558 184.624,245.119 188.016,245.119Z" style="fill:rgb(144,98,83);fill-rule:nonzero;"/>
            <path id="thigh-left" d="M191.234,175.194L198.765,175.194C200.706,175.194 202.433,176.426 203.066,178.261C203.159,178.532 203.227,178.812 203.267,179.096L208.055,212.407C208.267,213.888 208.374,215.383 208.374,216.879L208.374,227.951C208.374,229.68 208.231,231.407 207.948,233.113L207.022,238.677C206.491,241.863 205.403,244.931 203.809,247.74L201.103,252.504C200.525,253.522 200.222,254.671 200.222,255.84C200.222,259.57 197.198,262.595 193.467,262.595L189.015,262.595C185.02,262.595 181.78,259.356 181.78,255.36C181.78,254.498 181.626,253.642 181.325,252.835L180.353,250.224C179.934,249.101 179.606,247.946 179.37,246.772L177.896,239.436L176.479,230.087C176.243,228.528 176.124,226.953 176.124,225.376L176.124,190.304C176.124,181.959 182.889,175.194 191.234,175.194Z" style="fill:rgb(129,88,74);fill-rule:nonzero;"/>
            <g id="foot-left">
                <path id="color34" serif:id="color3" d="M188.995,308.505L197.11,308.505C201.79,308.505 205.584,311.878 205.584,316.037C205.584,320.196 201.79,323.568 197.11,323.568L188.995,323.568C184.316,323.568 180.521,320.196 180.521,316.037C180.521,311.878 184.316,308.505 188.995,308.505Z" style="fill:rgb(157,107,90);fill-rule:nonzero;"/>
                <path id="color35" serif:id="color3" d="M183.327,311.254L202.778,311.254C204.327,311.254 205.584,312.872 205.584,314.87L205.584,319.599C205.584,321.596 204.327,323.215 202.778,323.215L183.327,323.215C181.778,323.215 180.521,321.596 180.521,319.599L180.521,314.87C180.521,312.872 181.778,311.254 183.327,311.254Z" style="fill:rgb(157,107,90);fill-rule:nonzero;"/>
            </g>
        </g>
    </g>
    <g id="torso">
        <g id="trunk" transform="matrix(0.860651,0,0,1,25.0255,0.582454)">
            <path d="M206.362,138.849C206.362,119.336 190.672,111.808 174.753,111.808C158.833,111.808 144.3,119.336 144.3,138.849L145.928,172.667C145.928,192.181 158.833,208 174.753,208C190.672,208 203.578,196.625 203.578,177.112L206.362,138.849Z" style="fill:rgb(129,88,74);fill-rule:nonzero;"/>
        </g>
        <g id="shoulders" transform="matrix(0.860651,0,0,1,25.0255,0.582454)">
            <path d="M214.151,94.883L134.607,94.883C125.997,94.883 119.016,101.863 119.016,110.474C119.016,119.084 125.997,126.064 134.607,126.064L214.151,126.064C222.761,126.064 229.741,119.084 229.741,110.474C229.741,101.863 222.761,94.883 214.151,94.883Z" style="fill:rgb(144,98,83);fill-rule:nonzero;"/>
        </g>
        <g id="deltoids" transform="matrix(0.860651,0,0,1,25.0255,0.582454)">
            <path d="M216.797,118.579C216.797,100.491 197.886,85.828 174.56,85.828C151.232,85.828 132.322,100.491 132.322,118.579C132.322,136.666 151.232,151.329 174.56,151.329C183.253,151.329 191.333,149.292 198.05,145.801C209.355,139.924 216.797,129.925 216.797,118.579Z" style="fill:rgb(129,88,74);fill-rule:nonzero;"/>
        </g>
        <g id="abs-back" transform="matrix(0.860651,0,0,1,25.0255,3.58245)">
            <path d="M176.982,139.667L172.316,139.667C161.19,139.667 152.17,147.831 152.17,157.902C152.17,157.902 152.332,169.856 152.402,169.835L175.331,180.151C175.26,180.092 197.899,169.985 197.608,169.835C197.367,169.711 197.617,169.873 197.608,169.835L197.127,157.902C197.127,147.831 188.108,139.667 176.982,139.667Z" style="fill:rgb(144,98,83);fill-rule:nonzero;"/>
        </g>
        <g id="torso-shadow" transform="matrix(0.860651,0,0,1,25.0255,0.582454)">
            <path d="M196.395,94.883L152.723,94.883C141.456,94.883 132.322,102.922 132.322,112.84L132.322,123.662C132.322,133.578 141.456,141.618 152.723,141.618L196.395,141.618C207.663,141.618 216.797,133.578 216.797,123.662L216.797,112.84C216.797,102.922 207.663,94.883 196.395,94.883Z" style="fill:rgb(144,98,83);fill-rule:nonzero;"/>
        </g>
        <g id="torso1" serif:id="torso" transform="matrix(0.860651,0,0,1,25.0255,0.582454)">
            <path d="M200.206,94.883L148.913,94.883C139.75,94.883 132.322,102.353 132.322,111.57L132.322,121.627C132.322,130.843 139.75,138.315 148.913,138.315L200.206,138.315C209.369,138.315 216.797,130.843 216.797,121.627L216.797,111.57C216.797,102.353 209.369,94.883 200.206,94.883Z" style="fill:rgb(157,107,90);fill-rule:nonzero;"/>
        </g>
        <g id="nipples" transform="matrix(0.860651,0,0,1,25.0255,0.582454)">
            <path id="nipples1" serif:id="nipples" d="M178.089,131.458C178.089,130.32 176.497,129.398 174.531,129.398C172.567,129.398 170.974,130.32 170.974,131.458L170.974,135.453C170.974,136.59 172.567,137.513 174.531,137.513C176.497,137.513 178.089,136.59 178.089,135.453L178.089,131.458Z" style="fill:rgb(129,88,74);fill-rule:nonzero;"/>
            <path id="color36" serif:id="color3" d="M151.932,133.158L148.911,133.158C147.707,133.158 146.73,134.04 146.73,135.128C146.73,136.214 147.707,137.096 148.911,137.096L151.932,137.096C153.136,137.096 154.112,136.214 154.112,135.128C154.112,134.04 153.136,133.158 151.932,133.158Z" style="fill:rgb(129,88,74);fill-rule:nonzero;"/>
            <path id="color37" serif:id="color3" d="M201.112,133.158L198.092,133.158C196.887,133.158 195.911,134.04 195.911,135.128C195.911,136.214 196.887,137.096 198.092,137.096L201.112,137.096C202.317,137.096 203.293,136.214 203.293,135.128C203.293,134.04 202.317,133.158 201.112,133.158Z" style="fill:rgb(129,88,74);fill-rule:nonzero;"/>
        </g>
        <g transform="matrix(0.860651,0,0,1,25.0255,2.58245)">
            <g id="abs">
                <g id="abs-tablet">
                    <path d="M169.662,145.801L164.312,145.801C161.76,145.801 159.692,147.604 159.692,149.829C159.692,152.053 161.76,153.856 164.312,153.856L169.662,153.856C172.214,153.856 174.282,152.053 174.282,149.829C174.282,147.604 172.214,145.801 169.662,145.801Z" style="fill:rgb(157,107,90);fill-rule:nonzero;"/>
                    <path d="M169.662,155.377L164.312,155.377C161.76,155.377 159.692,157.181 159.692,159.404C159.692,161.629 161.76,163.433 164.312,163.433L169.662,163.433C172.214,163.433 174.282,161.629 174.282,159.404C174.282,157.181 172.214,155.377 169.662,155.377Z" style="fill:rgb(157,107,90);fill-rule:nonzero;"/>
                    <path d="M169.662,164.78L164.312,164.78C161.76,164.78 159.692,166.583 159.692,168.807C159.692,171.032 161.76,172.835 164.312,172.835L169.662,172.835C172.214,172.835 174.282,171.032 174.282,168.807C174.282,166.583 172.214,164.78 169.662,164.78Z" style="fill:rgb(157,107,90);fill-rule:nonzero;"/>
                    <path d="M186.094,145.801L180.744,145.801C178.192,145.801 176.124,147.604 176.124,149.828C176.124,152.053 178.192,153.856 180.744,153.856L186.094,153.856C186.733,153.856 187.342,153.743 187.895,153.538C189.551,152.926 190.713,151.496 190.713,149.828C190.713,147.604 188.645,145.801 186.094,145.801Z" style="fill:rgb(157,107,90);fill-rule:nonzero;"/>
                    <path d="M186.094,155.377L180.744,155.377C178.192,155.377 176.124,157.181 176.124,159.404C176.124,161.629 178.192,163.433 180.744,163.433L186.094,163.433C188.645,163.433 190.713,161.629 190.713,159.404C190.713,157.181 188.645,155.377 186.094,155.377Z" style="fill:rgb(157,107,90);fill-rule:nonzero;"/>
                    <path d="M186.094,164.779L180.744,164.779C178.192,164.779 176.124,166.582 176.124,168.807C176.124,171.031 178.192,172.834 180.744,172.834L186.094,172.834C188.645,172.834 190.713,171.031 190.713,168.807C190.713,166.582 188.645,164.779 186.094,164.779Z" style="fill:rgb(157,107,90);fill-rule:nonzero;"/>
                </g>
            </g>
        </g>
    </g>
    <g id="head-container" transform="matrix(1,0,0,1,127.396,0)">
        <g id="neck">
            <g transform="matrix(1,0,0,1,-128.151,0)">
                <path d="M189.823,81.332C189.823,71.352 183.067,63.262 174.731,63.262C166.394,63.262 159.637,71.352 159.637,81.332L159.637,88.746C159.637,98.726 166.394,106.817 174.731,106.817C183.067,106.817 189.823,98.726 189.823,88.746L189.823,81.332Z" style="fill:rgb(157,107,90);fill-rule:nonzero;"/>
            </g>
            <g transform="matrix(1,0,0,1,-128.151,0)">
                <path d="M169.181,102.439L160.943,98.48C160.026,98.039 158.926,98.425 158.485,99.341C158.044,100.259 158.43,101.358 159.347,101.799L167.586,105.76C168.502,106.201 169.603,105.815 170.044,104.897C170.485,103.981 170.099,102.88 169.181,102.439Z" style="fill:rgb(129,88,74);fill-rule:nonzero;"/>
            </g>
            <g transform="matrix(1,0,0,1,-128.151,0)">
                <path d="M179.194,102.439L187.433,98.48C188.35,98.039 189.451,98.425 189.892,99.341C190.331,100.259 189.946,101.358 189.029,101.799L180.791,105.76C179.873,106.201 178.773,105.815 178.333,104.897C177.892,103.981 178.278,102.88 179.194,102.439Z" style="fill:rgb(129,88,74);fill-rule:nonzero;"/>
            </g>
            <g transform="matrix(1,0,0,1,-128.151,0)">
                <path d="M177.31,64.477L171.456,64.477C164.736,64.477 159.289,69.924 159.289,76.643L159.289,81.635C159.289,88.354 164.736,93.801 171.456,93.801L177.31,93.801C184.029,93.801 189.476,88.354 189.476,81.635L189.476,76.643C189.476,69.924 184.029,64.477 177.31,64.477Z" style="fill:rgb(129,88,74);fill-rule:nonzero;"/>
            </g>
        </g>
        <g id="ears">
            <g transform="matrix(1,0,0,1,-128.151,0)">
                <path d="M196.283,53.888L153.746,53.888C148.883,53.888 144.94,57.915 144.94,62.883C144.94,67.852 148.883,71.879 153.746,71.879L196.283,71.879C201.146,71.879 205.09,67.852 205.09,62.883C205.09,57.915 201.146,53.888 196.283,53.888Z" style="fill:rgb(157,107,90);fill-rule:nonzero;"/>
            </g>
            <g transform="matrix(1,0,0,1,-128.151,0)">
                <path d="M195.649,55.248L153.607,55.248C149.969,55.248 147.021,58.251 147.021,61.956C147.021,65.661 149.969,68.665 153.607,68.665L195.649,68.665C199.286,68.665 202.235,65.661 202.235,61.956C202.235,58.251 199.286,55.248 195.649,55.248Z" style="fill:rgb(129,88,74);fill-rule:nonzero;"/>
            </g>
        </g>
        <g id="head" transform="matrix(1,0,0,1,-128.151,0)">
            <path d="M180.931,27.735L168.34,27.735C157.909,27.735 149.452,36.191 149.452,46.623L149.452,69.007C149.452,79.44 157.909,87.897 168.34,87.897L180.931,87.897C191.362,87.897 199.819,79.44 199.819,69.007L199.819,46.623C199.819,36.191 191.362,27.735 180.931,27.735Z" style="fill:rgb(157,107,90);fill-rule:nonzero;"/>
        </g>
        <g id="chin">
            <g transform="matrix(1,0,0,1,-128.151,0)">
                <path d="M180.532,85.336L168.767,85.336C167.495,85.336 166.464,86.368 166.464,87.639C166.464,88.912 167.495,89.944 168.767,89.944L180.532,89.944C181.804,89.944 182.835,88.912 182.835,87.639C182.835,86.368 181.804,85.336 180.532,85.336Z" style="fill:rgb(157,107,90);fill-rule:nonzero;"/>
            </g>
            <g transform="matrix(1,0,0,1,-128.151,0)">
                <path d="M176.549,82.761L173.147,82.761C172.875,82.761 172.655,82.982 172.655,83.254L172.655,83.544C172.655,83.816 172.875,84.037 173.147,84.037L176.549,84.037C176.82,84.037 177.041,83.816 177.041,83.544L177.041,83.254C177.041,82.982 176.82,82.761 176.549,82.761Z" style="fill:rgb(129,88,74);fill-rule:nonzero;"/>
            </g>
        </g>
        <g id="nose">
            <g transform="matrix(1,0,0,1,-128.151,0)">
                <path d="M178.315,61.001C178.315,58.958 176.66,57.302 174.616,57.302C172.574,57.302 170.918,58.958 170.918,61.001L170.918,67.527C170.918,69.569 172.574,71.226 174.616,71.226C176.66,71.226 178.315,69.569 178.315,67.527L178.315,61.001Z" style="fill:rgb(129,88,74);fill-rule:nonzero;"/>
            </g>
            <g transform="matrix(1,0,0,1,-128.151,0)">
                <path d="M174.211,68.387L170.772,65.464C170.203,64.981 169.351,65.05 168.868,65.618C168.386,66.187 168.454,67.039 169.023,67.522L172.462,70.445C173.03,70.927 173.883,70.858 174.365,70.29C174.848,69.722 174.779,68.869 174.211,68.387Z" style="fill:rgb(129,88,74);fill-rule:nonzero;"/>
            </g>
            <g transform="matrix(1,0,0,1,-128.151,0)">
                <path d="M175.155,68.387L178.594,65.464C179.162,64.981 180.014,65.05 180.497,65.618C180.98,66.187 180.91,67.039 180.343,67.522L176.903,70.445C176.334,70.927 175.483,70.858 175,70.29C174.517,69.722 174.586,68.869 175.155,68.387Z" style="fill:rgb(129,88,74);fill-rule:nonzero;"/>
            </g>
            <g transform="matrix(1,0,0,1,-128.151,0)">
                <path d="M172.298,54.231C172.298,53.658 171.834,53.194 171.262,53.194C170.689,53.194 170.225,53.658 170.225,54.231L170.225,55.486C170.225,56.058 170.689,56.523 171.262,56.523C171.834,56.523 172.298,56.058 172.298,55.486L172.298,54.231Z" style="fill:rgb(129,88,74);fill-rule:nonzero;"/>
            </g>
            <g transform="matrix(1,0,0,1,-128.151,0)">
                <path d="M179.182,54.231C179.182,53.658 178.719,53.194 178.145,53.194C177.573,53.194 177.109,53.658 177.109,54.231L177.109,55.486C177.109,56.058 177.573,56.523 178.145,56.523C178.719,56.523 179.182,56.058 179.182,55.486L179.182,54.231Z" style="fill:rgb(129,88,74);fill-rule:nonzero;"/>
            </g>
        </g>
        <g id="eyes">
            <g id="eye-right" transform="matrix(1,0,0,1,-128.151,0)">
                <path d="M165.654,56.376C165.654,55.098 164.618,54.062 163.34,54.062C162.061,54.062 161.025,55.098 161.025,56.376L161.025,57.303C161.025,58.581 162.061,59.617 163.34,59.617C164.618,59.617 165.654,58.581 165.654,57.303L165.654,56.376Z" style="fill:rgb(97,83,75);fill-rule:nonzero;"/>
            </g>
            <g id="eye-left" transform="matrix(1,0,0,1,-128.151,0)">
                <path d="M188.163,56.376C188.163,55.098 187.127,54.062 185.849,54.062C184.57,54.062 183.534,55.098 183.534,56.376L183.534,57.302C183.534,58.581 184.57,59.617 185.849,59.617C187.127,59.617 188.163,58.581 188.163,57.302L188.163,56.376Z" style="fill:rgb(97,83,75);fill-rule:nonzero;"/>
            </g>
        </g>
        <g id="faces">
            <!-- <g id="sad">
                <g transform="matrix(1,0,0,1,-128.151,0)">
                    <path d="M183.615,48.093C183.027,49.459 184.275,51.115 186.402,51.791C188.529,52.466 190.733,51.906 191.322,50.54C190.246,50.664 188.686,50.547 187.149,50.059C185.611,49.571 184.338,48.788 183.615,48.093Z" style="fill:rgb(97,83,75);"/>
                </g>
                <g transform="matrix(1,0,0,1,-128.151,0)">
                    <path d="M158.8,50.737C159.409,52.109 161.624,52.649 163.745,51.941C165.866,51.234 167.093,49.547 166.485,48.174C165.77,48.884 164.506,49.69 162.973,50.201C161.44,50.712 159.879,50.849 158.8,50.737Z" style="fill:rgb(97,83,75);"/>
                </g>
                <g transform="matrix(1,0,0,1,-128.151,0)">
                    <path d="M184.227,79.982C184.227,75.304 179.982,71.506 174.754,71.506C169.526,71.506 165.281,75.304 165.281,79.982C167.491,78.578 170.974,77.439 174.754,77.439C178.533,77.439 182.016,78.578 184.227,79.982Z" style="fill:white;"/>
                </g>
            </g> -->
            <g id="smiling">
                <g transform="matrix(1,0,0,1,-128.151,0)">
                    <path d="M178.996,80.179C182.403,80.179 185.145,77.25 185.145,73.611L185.145,72.548L164.438,72.548L164.438,73.611C164.438,77.25 167.181,80.179 170.587,80.179L178.996,80.179Z" style="fill:white;fill-rule:nonzero;"/>
                </g>
                <g transform="matrix(1,0,0,1,-128.151,0)">
                    <path d="M190.872,51.869C190.872,51.594 190.648,51.371 190.373,51.371L183.393,51.371C183.118,51.371 182.895,51.594 182.895,51.869L182.895,52.866C182.895,53.142 183.118,53.365 183.393,53.365L190.373,53.365C190.648,53.365 190.872,53.142 190.872,52.866L190.872,51.869Z" style="fill:rgb(97,83,75);"/>
                </g>
                <g transform="matrix(1,0,0,1,-128.151,0)">
                    <path d="M166.918,51.84C166.918,51.565 166.694,51.342 166.419,51.342L159.439,51.342C159.164,51.342 158.94,51.565 158.94,51.84L158.94,52.838C158.94,53.113 159.164,53.336 159.439,53.336L166.419,53.336C166.694,53.336 166.918,53.113 166.918,52.838L166.918,51.84Z" style="fill:rgb(97,83,75);"/>
                </g>
            </g>
            <!-- <g id="neutral">
                <g transform="matrix(1,0,0,1,-128.151,0)">
                    <path d="M182.172,75.746C182.172,75.402 181.893,75.123 181.549,75.123L168.071,75.123C167.726,75.123 167.447,75.402 167.447,75.746L167.447,76.992C167.447,77.336 167.726,77.615 168.071,77.615L181.549,77.615C181.893,77.615 182.172,77.336 182.172,76.992L182.172,75.746Z" style="fill:white;"/>
                </g>
                <g transform="matrix(1,0,0,1,-128.151,0)">
                    <path d="M190.872,51.869C190.872,51.594 190.648,51.371 190.373,51.371L183.393,51.371C183.118,51.371 182.895,51.594 182.895,51.869L182.895,52.866C182.895,53.142 183.118,53.365 183.393,53.365L190.373,53.365C190.648,53.365 190.872,53.142 190.872,52.866L190.872,51.869Z" style="fill:rgb(97,83,75);"/>
                </g>
                <g transform="matrix(1,0,0,1,-128.151,0)">
                    <path d="M166.918,51.84C166.918,51.565 166.694,51.342 166.419,51.342L159.439,51.342C159.164,51.342 158.94,51.565 158.94,51.84L158.94,52.838C158.94,53.113 159.164,53.336 159.439,53.336L166.419,53.336C166.694,53.336 166.918,53.113 166.918,52.838L166.918,51.84Z" style="fill:rgb(97,83,75);"/>
                </g>
            </g> -->
        </g>
        <g id="hairs">
            <g id="large-hair">
                <g transform="matrix(1,0,0,1,-128.151,0)">
                    <path d="M164.531,28.084C155.407,28.084 148.062,35.635 148.062,45.018C148.062,45.457 148.083,45.892 148.115,46.325C148.083,46.545 148.062,46.77 148.062,47L148.062,57.373C148.062,59.6 149.592,61.444 151.635,61.862L151.635,48.324C151.635,38.634 159.223,30.832 168.648,30.832L181.958,30.832C191.382,30.832 198.971,38.634 198.971,48.324L198.971,61.879C201.071,61.511 202.663,59.642 202.663,57.373L202.663,47C202.663,46.77 202.64,46.545 202.609,46.325C202.641,45.892 202.663,45.457 202.663,45.018C202.663,35.635 195.317,28.084 186.193,28.084L164.531,28.084Z" style="fill:rgb(77,77,77);fill-rule:nonzero;"/>
                </g>
                <g transform="matrix(1,0,0,1,-128.151,0)">
                    <path d="M183.234,26.029L168.396,26.029C163.398,26.029 159.346,30.195 159.346,35.336C159.346,40.475 163.398,44.641 168.396,44.641L183.234,44.641C188.232,44.641 192.284,40.475 192.284,35.336C192.284,30.195 188.232,26.029 183.234,26.029Z" style="fill:rgb(77,77,77);fill-rule:nonzero;"/>
                </g>
                <g transform="matrix(1,0,0,1,-128.151,0)">
                    <path d="M164.465,31.901C164.465,30.448 163.319,29.27 161.905,29.27C160.492,29.27 159.346,30.448 159.346,31.901L159.346,38.004C159.346,39.456 160.492,40.635 161.905,40.635C163.319,40.635 164.465,39.456 164.465,38.004L164.465,31.901Z" style="fill:rgb(77,77,77);fill-rule:nonzero;"/>
                </g>
                <g transform="matrix(1,0,0,1,-128.151,0)">
                    <path d="M193.511,32.248C193.511,30.794 192.366,29.617 190.952,29.617C189.538,29.617 188.393,30.794 188.393,32.248L188.393,38.35C188.393,39.804 189.538,40.981 190.952,40.981C192.366,40.981 193.511,39.804 193.511,38.35L193.511,32.248Z" style="fill:rgb(77,77,77);fill-rule:nonzero;"/>
                </g>
                <g transform="matrix(1,0,0,1,-128.151,0)">
                    <path d="M158.286,34.883C158.152,33.924 157.287,33.258 156.355,33.396C155.422,33.533 154.774,34.423 154.908,35.382L155.341,38.477C155.474,39.437 156.339,40.103 157.272,39.964C158.205,39.827 158.852,38.938 158.718,37.979L158.286,34.883Z" style="fill:rgb(77,77,77);fill-rule:nonzero;"/>
                </g>
                <g transform="matrix(1,0,0,1,-128.151,0)">
                    <path d="M194.34,35.721C194.473,34.762 195.338,34.097 196.271,34.234C197.204,34.372 197.851,35.261 197.717,36.221L197.285,39.316C197.151,40.275 196.286,40.941 195.354,40.803C194.421,40.665 193.773,39.777 193.907,38.817L194.34,35.721Z" style="fill:rgb(77,77,77);fill-rule:nonzero;"/>
                </g>
                <g transform="matrix(1,0,0,1,-128.151,0)">
                    <path d="M174.014,30.629L175.611,30.629C176.553,30.629 177.317,31.415 177.317,32.383L177.317,38.791C177.317,39.759 176.553,40.545 175.611,40.545L174.014,40.545C173.071,40.545 172.307,39.759 172.307,38.791L172.307,32.383C172.307,31.415 173.071,30.629 174.014,30.629Z" style="fill:rgb(86,86,86);fill-rule:nonzero;"/>
                </g>
                <g transform="matrix(1,0,0,1,-128.151,0)">
                    <path d="M167.161,30.803L169.27,30.803C170.008,30.803 170.605,31.418 170.605,32.176L170.605,38.964C170.605,39.723 170.008,40.338 169.27,40.338L167.161,40.338C166.423,40.338 165.826,39.723 165.826,38.964L165.826,32.176C165.826,31.418 166.423,30.803 167.161,30.803Z" style="fill:rgb(86,86,86);fill-rule:nonzero;"/>
                </g>
                <g transform="matrix(1,0,0,1,-128.151,0)">
                    <path d="M182.638,30.833L180.529,30.833C179.792,30.833 179.193,31.448 179.193,32.206L179.193,38.994C179.193,39.753 179.792,40.367 180.529,40.367L182.638,40.367C183.375,40.367 183.973,39.753 183.973,38.994L183.973,32.206C183.973,31.448 183.375,30.833 182.638,30.833Z" style="fill:rgb(86,86,86);fill-rule:nonzero;"/>
                </g>
                <g transform="matrix(1,0,0,1,-128.151,0)">
                    <path d="M201.535,50.973C201.442,50.966 201.348,50.965 201.254,50.974C201.147,50.983 201.036,51.005 200.928,51.037L200.706,51.104C199.987,51.321 199.536,51.986 199.553,52.703C199.483,52.603 199.399,52.515 199.311,52.434L199.311,54.655C202.426,55.95 204.608,59.024 204.608,62.627C204.608,66.25 202.403,69.336 199.26,70.619C199.171,71.913 198.942,73.166 198.598,74.37L198.598,75.612C198.518,75.484 198.423,75.367 198.318,75.26C196.751,79.83 193.422,83.276 189.134,85.359L189.134,88.43C189.134,89.55 190.034,90.452 191.151,90.452L192.082,90.452C193.2,90.452 194.099,89.55 194.099,88.43L194.099,87.885C194.402,88.618 195.12,89.129 195.961,89.129L196.891,89.129C198.01,89.129 198.909,88.228 198.909,87.106L198.909,86.466C199.265,87.037 199.892,87.418 200.615,87.418C201.732,87.418 202.632,86.516 202.632,85.396L202.632,74.034L203.047,75.418C203.306,76.284 204.212,76.774 205.076,76.513C205.941,76.252 206.427,75.345 206.168,74.477L203.955,67.09C204.363,67.55 205.01,67.76 205.638,67.571L205.861,67.503C206.726,67.243 207.213,66.336 206.952,65.469L202.957,52.132C202.759,51.468 202.182,51.027 201.535,50.973ZM149.095,51.083C148.447,51.137 147.87,51.578 147.672,52.242L143.677,65.579C143.418,66.446 143.904,67.353 144.769,67.613L144.992,67.681C145.62,67.869 146.266,67.66 146.674,67.2L144.462,74.587C144.202,75.455 144.688,76.362 145.553,76.623C146.418,76.883 147.323,76.395 147.582,75.529L147.666,75.249L147.666,85.396C147.666,86.516 148.565,87.418 149.682,87.418C150.406,87.418 151.033,87.037 151.389,86.466L151.389,87.106C151.389,88.227 152.288,89.129 153.406,89.129L154.337,89.129C155.178,89.129 155.895,88.619 156.198,87.888L156.198,88.43C156.198,89.55 157.098,90.452 158.216,90.452L159.147,90.452C160.264,90.452 161.164,89.55 161.164,88.43L161.164,85.359C156.915,83.246 153.627,79.72 152.093,75.155C151.941,75.287 151.806,75.44 151.699,75.612L151.699,73.818C151.439,72.784 151.263,71.716 151.187,70.619C147.129,68.04 145.679,66.022 145.839,62.627C146.01,59.027 148.021,55.95 151.136,54.655L151.136,52.741C151.117,52.765 151.095,52.788 151.077,52.813C151.093,52.097 150.642,51.431 149.923,51.214L149.701,51.147C149.593,51.115 149.484,51.093 149.376,51.084C149.281,51.075 149.187,51.075 149.095,51.083Z" style="fill:rgb(77,77,77);fill-rule:nonzero;"/>
                </g>
                <g transform="matrix(1,0,0,1,-128.151,0)">
                    <path d="M193.51,32.248C193.51,30.794 192.365,29.616 190.951,29.616C189.537,29.616 188.392,30.794 188.392,32.248L188.392,38.349C188.392,39.803 189.537,40.981 190.951,40.981C192.365,40.981 193.51,39.803 193.51,38.349L193.51,32.248Z" style="fill:rgb(77,77,77);fill-rule:nonzero;"/>
                </g>
                <g transform="matrix(1,0,0,1,-128.151,0)">
                    <path d="M158.284,34.882C158.15,33.924 157.285,33.258 156.353,33.395C155.42,33.533 154.772,34.423 154.906,35.382L155.339,38.477C155.472,39.436 156.337,40.102 157.27,39.964C158.203,39.826 158.85,38.938 158.716,37.978L158.284,34.882Z" style="fill:rgb(77,77,77);fill-rule:nonzero;"/>
                </g>
                <g transform="matrix(1,0,0,1,-128.151,0)">
                    <path d="M194.339,35.721C194.472,34.762 195.337,34.097 196.27,34.234C197.203,34.372 197.85,35.261 197.716,36.221L197.284,39.316C197.15,40.275 196.285,40.941 195.353,40.803C194.42,40.665 193.772,39.777 193.906,38.817L194.339,35.721Z" style="fill:rgb(77,77,77);fill-rule:nonzero;"/>
                </g>
                <g transform="matrix(1,0,0,1,-128.151,0)">
                    <path d="M174.013,30.629L175.61,30.629C176.552,30.629 177.316,31.415 177.316,32.383L177.316,38.791C177.316,39.759 176.552,40.545 175.61,40.545L174.013,40.545C173.07,40.545 172.306,39.759 172.306,38.791L172.306,32.383C172.306,31.415 173.07,30.629 174.013,30.629Z" style="fill:rgb(86,86,86);fill-rule:nonzero;"/>
                </g>
                <g transform="matrix(1,0,0,1,-128.151,0)">
                    <path d="M167.161,30.803L169.269,30.803C170.007,30.803 170.604,31.418 170.604,32.176L170.604,38.964C170.604,39.723 170.007,40.338 169.269,40.338L167.161,40.338C166.422,40.338 165.825,39.723 165.825,38.964L165.825,32.176C165.825,31.418 166.422,30.803 167.161,30.803Z" style="fill:rgb(86,86,86);fill-rule:nonzero;"/>
                </g>
                <g transform="matrix(1,0,0,1,-128.151,0)">
                    <path d="M182.636,30.832L180.527,30.832C179.79,30.832 179.191,31.447 179.191,32.205L179.191,38.994C179.191,39.753 179.79,40.367 180.527,40.367L182.636,40.367C183.373,40.367 183.971,39.753 183.971,38.994L183.971,32.205C183.971,31.447 183.373,30.832 182.636,30.832Z" style="fill:rgb(86,86,86);fill-rule:nonzero;"/>
                </g>
                <g transform="matrix(1,0,0,1,-128.151,0)">
                    <path d="M164.53,28.084C155.406,28.084 148.061,35.635 148.061,45.018C148.061,45.457 148.082,45.892 148.114,46.325C148.082,46.545 148.061,46.77 148.061,47L148.061,57.373C148.061,59.6 149.591,61.444 151.634,61.862L151.634,48.324C151.634,38.634 159.222,30.832 168.647,30.832L181.957,30.832C191.381,30.832 198.97,38.634 198.97,48.324L198.97,61.879C201.07,61.511 202.662,59.642 202.662,57.373L202.662,47C202.662,46.77 202.639,46.545 202.608,46.325C202.64,45.892 202.662,45.457 202.662,45.018C202.662,35.635 195.316,28.084 186.192,28.084L164.53,28.084Z" style="fill:rgb(77,77,77);fill-rule:nonzero;"/>
                </g>
                <g transform="matrix(1,0,0,1,-128.151,0)">
                    <path d="M183.233,26.029L168.395,26.029C163.397,26.029 159.345,30.195 159.345,35.336C159.345,40.475 163.397,44.641 168.395,44.641L183.233,44.641C188.231,44.641 192.283,40.475 192.283,35.336C192.283,30.195 188.231,26.029 183.233,26.029Z" style="fill:rgb(77,77,77);fill-rule:nonzero;"/>
                </g>
                <g transform="matrix(1,0,0,1,-128.151,0)">
                    <path d="M164.464,31.901C164.464,30.448 163.318,29.27 161.904,29.27C160.491,29.27 159.345,30.448 159.345,31.901L159.345,38.004C159.345,39.456 160.491,40.635 161.904,40.635C163.318,40.635 164.464,39.456 164.464,38.004L164.464,31.901Z" style="fill:rgb(77,77,77);fill-rule:nonzero;"/>
                </g>
                <g transform="matrix(1,0,0,1,-128.151,0)">
                    <path d="M167.161,30.803L169.269,30.803C170.007,30.803 170.604,31.418 170.604,32.176L170.604,38.964C170.604,39.723 170.007,40.338 169.269,40.338L167.161,40.338C166.422,40.338 165.825,39.723 165.825,38.964L165.825,32.176C165.825,31.418 166.422,30.803 167.161,30.803Z" style="fill:rgb(86,86,86);fill-rule:nonzero;"/>
                </g>
                <g transform="matrix(1,0,0,1,-128.151,0)">
                    <path d="M182.636,30.832L180.527,30.832C179.79,30.832 179.191,31.447 179.191,32.205L179.191,38.994C179.191,39.753 179.79,40.367 180.527,40.367L182.636,40.367C183.373,40.367 183.971,39.753 183.971,38.994L183.971,32.205C183.971,31.447 183.373,30.832 182.636,30.832Z" style="fill:rgb(86,86,86);fill-rule:nonzero;"/>
                </g>
                <g transform="matrix(1,0,0,1,-128.151,0)">
                    <path d="M174.013,30.629L175.61,30.629C176.552,30.629 177.316,31.415 177.316,32.383L177.316,38.791C177.316,39.759 176.552,40.545 175.61,40.545L174.013,40.545C173.07,40.545 172.306,39.759 172.306,38.791L172.306,32.383C172.306,31.415 173.07,30.629 174.013,30.629Z" style="fill:rgb(86,86,86);fill-rule:nonzero;"/>
                </g>
            </g>
            <g id="medium-hair">
                <g transform="matrix(1,0,0,1,-128.151,0)">
                    <path d="M164.53,28.084C155.406,28.084 148.061,35.635 148.061,45.018C148.061,45.457 148.082,45.892 148.114,46.325C148.082,46.545 148.061,46.77 148.061,47L148.061,57.373C148.061,59.6 149.591,61.444 151.634,61.862L151.634,48.324C151.634,38.634 159.222,30.832 168.647,30.832L181.957,30.832C191.381,30.832 198.97,38.634 198.97,48.324L198.97,61.879C201.07,61.511 202.662,59.642 202.662,57.373L202.662,47C202.662,46.77 202.639,46.545 202.608,46.325C202.64,45.892 202.662,45.457 202.662,45.018C202.662,35.635 195.316,28.084 186.192,28.084L164.53,28.084Z" style="fill:rgb(77,77,77);fill-rule:nonzero;"/>
                </g>
                <g transform="matrix(1,0,0,1,-128.151,0)">
                    <path d="M183.233,26.029L168.395,26.029C163.397,26.029 159.345,30.195 159.345,35.336C159.345,40.475 163.397,44.641 168.395,44.641L183.233,44.641C188.231,44.641 192.283,40.475 192.283,35.336C192.283,30.195 188.231,26.029 183.233,26.029Z" style="fill:rgb(77,77,77);fill-rule:nonzero;"/>
                </g>
                <g transform="matrix(1,0,0,1,-128.151,0)">
                    <path d="M164.464,31.901C164.464,30.448 163.318,29.27 161.904,29.27C160.491,29.27 159.345,30.448 159.345,31.901L159.345,38.004C159.345,39.456 160.491,40.635 161.904,40.635C163.318,40.635 164.464,39.456 164.464,38.004L164.464,31.901Z" style="fill:rgb(77,77,77);fill-rule:nonzero;"/>
                </g>
                <g transform="matrix(1,0,0,1,-128.151,0)">
                    <path d="M193.51,32.248C193.51,30.794 192.365,29.616 190.951,29.616C189.537,29.616 188.392,30.794 188.392,32.248L188.392,38.349C188.392,39.803 189.537,40.981 190.951,40.981C192.365,40.981 193.51,39.803 193.51,38.349L193.51,32.248Z" style="fill:rgb(77,77,77);fill-rule:nonzero;"/>
                </g>
                <g transform="matrix(1,0,0,1,-128.151,0)">
                    <path d="M158.284,34.882C158.15,33.924 157.285,33.258 156.353,33.395C155.42,33.533 154.772,34.423 154.906,35.382L155.339,38.477C155.472,39.436 156.337,40.102 157.27,39.964C158.203,39.826 158.85,38.938 158.716,37.978L158.284,34.882Z" style="fill:rgb(77,77,77);fill-rule:nonzero;"/>
                </g>
                <g transform="matrix(1,0,0,1,-128.151,0)">
                    <path d="M194.339,35.721C194.472,34.762 195.337,34.097 196.27,34.234C197.203,34.372 197.85,35.261 197.716,36.221L197.284,39.316C197.15,40.275 196.285,40.941 195.353,40.803C194.42,40.665 193.772,39.777 193.906,38.817L194.339,35.721Z" style="fill:rgb(77,77,77);fill-rule:nonzero;"/>
                </g>
                <g transform="matrix(1,0,0,1,-128.151,0)">
                    <path d="M174.013,30.629L175.61,30.629C176.552,30.629 177.316,31.415 177.316,32.383L177.316,38.791C177.316,39.759 176.552,40.545 175.61,40.545L174.013,40.545C173.07,40.545 172.306,39.759 172.306,38.791L172.306,32.383C172.306,31.415 173.07,30.629 174.013,30.629Z" style="fill:rgb(86,86,86);fill-rule:nonzero;"/>
                </g>
                <g transform="matrix(1,0,0,1,-128.151,0)">
                    <path d="M167.161,30.803L169.269,30.803C170.007,30.803 170.604,31.418 170.604,32.176L170.604,38.964C170.604,39.723 170.007,40.338 169.269,40.338L167.161,40.338C166.422,40.338 165.825,39.723 165.825,38.964L165.825,32.176C165.825,31.418 166.422,30.803 167.161,30.803Z" style="fill:rgb(86,86,86);fill-rule:nonzero;"/>
                </g>
                <g transform="matrix(1,0,0,1,-128.151,0)">
                    <path d="M182.636,30.832L180.527,30.832C179.79,30.832 179.191,31.447 179.191,32.205L179.191,38.994C179.191,39.753 179.79,40.367 180.527,40.367L182.636,40.367C183.373,40.367 183.971,39.753 183.971,38.994L183.971,32.205C183.971,31.447 183.373,30.832 182.636,30.832Z" style="fill:rgb(86,86,86);fill-rule:nonzero;"/>
                </g>
            </g>
        </g>
        <g id="beards">
            <!-- <g id="large">
                <g transform="matrix(1,0,0,1,-128.151,0)">
                    <path d="M167.181,67.342C163.033,67.342 159.693,70.626 159.693,74.707L159.693,83.321C159.693,87.402 163.033,90.685 167.181,90.685L183.246,90.685C187.394,90.685 190.734,87.402 190.734,83.321L190.734,74.707C190.734,70.626 187.394,67.342 183.246,67.342L181.675,67.342C181.73,67.792 181.562,68.257 181.184,68.573L180.549,69.104C180.926,69.451 181.206,69.9 181.327,70.412L183.507,70.412C185.826,70.412 187.694,72.248 187.694,74.529L187.694,78.234C187.694,79.099 187.424,79.9 186.963,80.561L186.963,81.577C186.963,84.834 184.298,87.455 180.986,87.455L169.441,87.455C166.129,87.455 163.464,84.834 163.464,81.577L163.464,80.561C163.003,79.9 162.733,79.099 162.733,78.234L162.733,74.529C162.733,72.248 164.601,70.412 166.92,70.412L168.291,70.412C168.455,69.722 168.898,69.143 169.492,68.783L169.243,68.573C168.865,68.257 168.697,67.792 168.752,67.342L167.181,67.342Z" style="fill:rgb(86,86,86);fill-rule:nonzero;"/>
                </g>
                <g transform="matrix(1,0,0,1,-128.151,0)">
                    <path d="M199.48,68.265C202.238,70.32 201.807,75.595 198.519,80.037C195.23,84.478 190.32,86.415 187.562,84.361C189.78,83.1 192.643,80.64 195.02,77.43C197.397,74.22 198.917,70.76 199.48,68.265Z" style="fill:rgb(86,86,86);"/>
                </g>
                <g transform="matrix(1,0,0,1,-128.151,0)">
                    <path d="M150.746,68.091C147.988,70.146 148.418,75.421 151.707,79.863C154.996,84.305 159.905,86.242 162.663,84.187C160.446,82.926 157.582,80.466 155.206,77.256C152.828,74.046 151.309,70.586 150.746,68.091Z" style="fill:rgb(86,86,86);"/>
                </g>
                <g transform="matrix(1,0,0,1,-128.151,0)">
                    <path d="M151.188,78.111C151.188,98.306 161.914,114.701 175.128,114.701C188.34,114.701 199.069,98.306 199.069,78.111C193.482,84.17 184.677,89.088 175.128,89.088C165.577,89.088 156.774,84.17 151.188,78.111Z" style="fill:rgb(86,86,86);"/>
                </g>
                <g transform="matrix(1,0,0,1,-128.151,0)">
                    <path d="M166.87,96.417L168.979,96.417C169.717,96.417 170.314,97.032 170.314,97.79L170.314,104.579C170.314,105.338 169.717,105.952 168.979,105.952L166.87,105.952C166.132,105.952 165.535,105.338 165.535,104.579L165.535,97.79C165.535,97.032 166.132,96.417 166.87,96.417Z" style="fill:rgb(77,77,77);fill-rule:nonzero;"/>
                </g>
                <g transform="matrix(1,0,0,1,-128.151,0)">
                    <path d="M180.238,96.388L182.346,96.388C183.084,96.388 183.681,97.003 183.681,97.761L183.681,104.549C183.681,105.308 183.084,105.922 182.346,105.922L180.238,105.922C179.499,105.922 178.902,105.308 178.902,104.549L178.902,97.761C178.902,97.003 179.499,96.388 180.238,96.388Z" style="fill:rgb(77,77,77);fill-rule:nonzero;"/>
                </g>
            </g>
            <g id="medium-beard">
                <g transform="matrix(1,0,0,1,-128.151,0)">
                    <path d="M167.181,67.342C163.033,67.342 159.693,70.626 159.693,74.707L159.693,83.321C159.693,87.402 163.033,90.685 167.181,90.685L183.246,90.685C187.394,90.685 190.734,87.402 190.734,83.321L190.734,74.707C190.734,70.626 187.394,67.342 183.246,67.342L181.675,67.342C181.73,67.792 181.562,68.257 181.184,68.573L180.549,69.104C180.926,69.451 181.206,69.9 181.327,70.412L183.507,70.412C185.826,70.412 187.694,72.248 187.694,74.529L187.694,78.234C187.694,79.099 187.424,79.9 186.963,80.561L186.963,81.577C186.963,84.834 184.298,87.455 180.986,87.455L169.441,87.455C166.129,87.455 163.464,84.834 163.464,81.577L163.464,80.561C163.003,79.9 162.733,79.099 162.733,78.234L162.733,74.529C162.733,72.248 164.601,70.412 166.92,70.412L168.291,70.412C168.455,69.722 168.898,69.143 169.492,68.783L169.243,68.573C168.865,68.257 168.697,67.792 168.752,67.342L167.181,67.342Z" style="fill:rgb(86,86,86);fill-rule:nonzero;"/>
                </g>
                <g transform="matrix(1,0,0,1,-128.151,0)">
                    <path d="M199.48,68.265C202.238,70.32 201.807,75.595 198.519,80.037C195.23,84.478 190.32,86.415 187.562,84.361C189.78,83.1 192.643,80.64 195.02,77.43C197.397,74.22 198.917,70.76 199.48,68.265Z" style="fill:rgb(86,86,86);"/>
                </g>
                <g transform="matrix(1,0,0,1,-128.151,0)">
                    <path d="M150.746,68.091C147.988,70.146 148.418,75.421 151.707,79.863C154.996,84.305 159.905,86.242 162.663,84.187C160.446,82.926 157.582,80.466 155.206,77.256C152.828,74.046 151.309,70.586 150.746,68.091Z" style="fill:rgb(86,86,86);"/>
                </g>
                <g transform="matrix(1,0,0,1,-128.151,0)">
                    <path d="M155.642,82.913C155.642,93.751 164.318,102.551 175.006,102.551C185.692,102.551 194.37,93.751 194.37,82.913C189.528,85.622 182.519,87.822 175.006,87.822C167.493,87.822 160.482,85.622 155.642,82.913Z" style="fill:rgb(86,86,86);"/>
                </g>
                <g transform="matrix(1,0,0,1,-128.151,0)">
                    <path d="M165.889,91.643L167.997,91.643C168.736,91.643 169.333,92.042 169.333,92.534L169.333,96.938C169.333,97.431 168.736,97.829 167.997,97.829L165.889,97.829C165.151,97.829 164.554,97.431 164.554,96.938L164.554,92.534C164.554,92.042 165.151,91.643 165.889,91.643Z" style="fill:rgb(77,77,77);fill-rule:nonzero;"/>
                </g>
                <g transform="matrix(1,0,0,1,-128.151,0)">
                    <path d="M181.221,91.614L183.33,91.614C184.068,91.614 184.665,92.037 184.665,92.557L184.665,97.215C184.665,97.736 184.068,98.158 183.33,98.158L181.221,98.158C180.483,98.158 179.886,97.736 179.886,97.215L179.886,92.557C179.886,92.037 180.483,91.614 181.221,91.614Z" style="fill:rgb(77,77,77);fill-rule:nonzero;"/>
                </g>
            </g>
            <g id="light-beard">
                <g transform="matrix(1,0,0,1,-128.151,0)">
                    <path d="M159.502,84.929C153.485,80.397 149.836,75.624 150.592,69.569L160.499,81.937" style="fill:rgb(86,86,86);"/>
                </g>
                <g transform="matrix(1,0,0,1,-128.151,0)">
                    <path d="M190.421,84.928C195.98,81.666 201.243,74.032 199.331,69.569L189.424,81.937" style="fill:rgb(86,86,86);"/>
                </g>
                <g transform="matrix(1,0,0,1,-128.151,0)">
                    <path d="M166.891,67.371C162.743,67.371 159.403,70.655 159.403,74.736L159.403,83.35C159.403,87.43 162.743,90.714 166.891,90.714L182.956,90.714C187.104,90.714 190.444,87.43 190.444,83.35L190.444,74.736C190.444,70.655 187.104,67.371 182.956,67.371L181.385,67.371C181.44,67.82 181.272,68.286 180.894,68.602L180.259,69.133C180.636,69.48 180.916,69.928 181.037,70.441L183.217,70.441C185.536,70.441 187.403,72.277 187.403,74.558L187.403,78.263C187.403,79.128 187.134,79.929 186.673,80.59L186.673,81.606C186.673,84.863 184.008,87.484 180.696,87.484L169.151,87.484C165.839,87.484 163.174,84.863 163.174,81.606L163.174,80.59C162.713,79.929 162.443,79.128 162.443,78.263L162.443,74.558C162.443,72.277 164.311,70.441 166.63,70.441L168.001,70.441C168.165,69.751 168.608,69.172 169.202,68.812L168.953,68.602C168.574,68.286 168.407,67.82 168.462,67.371L166.891,67.371Z" style="fill:rgb(86,86,86);fill-rule:nonzero;"/>
                </g>
                <g transform="matrix(1,0,0,1,-128.151,0)">
                    <path d="M165.883,88.201L167.98,88.201C168.714,88.201 169.308,88.301 169.308,88.424L169.308,89.527C169.308,89.65 168.714,89.75 167.98,89.75L165.883,89.75C165.149,89.75 164.555,89.65 164.555,89.527L164.555,88.424C164.555,88.301 165.149,88.201 165.883,88.201Z" style="fill:rgb(77,77,77);fill-rule:nonzero;"/>
                </g>
                <g transform="matrix(1,0,0,1,-128.151,0)">
                    <path d="M181.909,88.201L184.006,88.201C184.74,88.201 185.334,88.301 185.334,88.424L185.334,89.527C185.334,89.65 184.74,89.75 184.006,89.75L181.909,89.75C181.175,89.75 180.581,89.65 180.581,89.527L180.581,88.424C180.581,88.301 181.175,88.201 181.909,88.201Z" style="fill:rgb(77,77,77);fill-rule:nonzero;"/>
                </g>
            </g> -->
        </g>
    </g>
    <g id="clothes">
        <!-- <g id="tshirt" transform="matrix(0.860651,0,0,1,25.0255,0.582454)">
            <path d="M206.306,138.059C206.306,119.333 190.256,118.808 174.336,118.808C158.417,118.808 144.243,119.333 144.243,138.059L145.751,178.37L203.444,178.37L206.306,138.059Z" style="fill:rgb(151,68,68);fill-rule:nonzero;"/>
            <path d="M216.799,118.659C216.799,100.572 194.896,118.659 171.57,118.659C148.243,118.659 132.324,100.572 132.324,118.659C132.324,136.747 151.234,151.41 174.562,151.41C197.888,151.41 216.799,136.747 216.799,118.659Z" style="fill:rgb(151,68,68);fill-rule:nonzero;"/>
            <path d="M201.383,115.82L151.728,117.814C140.461,117.814 132.324,102.919 132.324,112.837L132.324,123.659C132.324,133.575 141.458,141.615 152.725,141.615L196.397,141.615C207.665,141.615 216.799,133.575 216.799,123.659L216.799,112.837C216.799,102.919 212.651,115.82 201.383,115.82Z" style="fill:rgb(151,68,68);fill-rule:nonzero;"/>
            <path d="M199.211,118.94L148.915,118.94C139.752,118.94 132.324,102.504 132.324,111.721L132.324,121.778C132.324,130.993 139.752,138.465 148.915,138.465L200.208,138.465C209.371,138.465 216.799,130.993 216.799,121.778L216.799,111.721C216.799,102.504 208.374,118.94 199.211,118.94Z" style="fill:rgb(151,68,68);fill-rule:nonzero;"/>
            <path d="M134.272,94.883C125.597,94.883 118.612,101.976 118.612,110.786C118.612,119.596 125.597,126.69 134.272,126.69L214.163,126.69C222.838,126.69 229.822,119.596 229.822,110.786C229.822,101.976 222.838,94.883 214.163,94.883L204.42,94.883C204.084,104.616 190.709,112.35 181.041,112.35L166.694,112.35C157.026,112.35 145.217,104.616 144.882,94.883L134.272,94.883Z" style="fill:rgb(151,68,68);fill-rule:nonzero;"/>
            <path d="M204.203,94.044C203.948,94.037 203.701,94.119 203.516,94.27C203.33,94.421 203.222,94.629 203.214,94.848C202.755,103.978 194.11,111.192 183.401,111.192L166.675,111.192C155.965,111.192 147.32,103.978 146.861,94.848C146.855,94.74 146.825,94.632 146.773,94.533C146.719,94.436 146.644,94.346 146.55,94.272C146.457,94.199 146.348,94.142 146.23,94.105C146.111,94.067 145.985,94.05 145.858,94.055C145.733,94.06 145.609,94.086 145.494,94.132C145.379,94.179 145.276,94.243 145.191,94.324C145.107,94.404 145.04,94.498 144.997,94.601C144.954,94.703 144.935,94.811 144.941,94.92C145.442,104.915 154.962,112.85 166.675,112.85L183.401,112.85C195.114,112.85 204.633,104.915 205.135,94.92C205.143,94.809 205.124,94.699 205.081,94.595C205.038,94.49 204.971,94.393 204.884,94.312C204.797,94.23 204.692,94.165 204.574,94.119C204.457,94.072 204.331,94.047 204.203,94.044Z" style="fill:rgb(105,48,48);fill-rule:nonzero;"/>
        </g> -->
        <g id="short" transform="matrix(0.860651,0,0,1,114.193,7.49819)">
            <g transform="matrix(1,0,0,1,-103.451,-6.91574)">
                <path d="M150.351,177.277C148.833,177.277 147.368,177.521 145.981,177.967C147.604,195.716 159.837,209.426 174.786,209.426C189.931,209.426 202.286,195.36 203.65,177.277L150.351,177.277Z" style="fill:rgb(79,79,79);fill-rule:nonzero;"/>
            </g>
            <g transform="matrix(1,0,0,1,-103.451,-6.91574)">
                <path d="M203.332,179.475L175.084,182.784L175.084,229.701L210.141,229.701C210.409,215.599 205.869,195.878 203.332,179.475Z" style="fill:rgb(75,75,75);fill-rule:nonzero;"/>
            </g>
            <g transform="matrix(1,0,0,1,-103.451,-6.91574)">
                <path d="M145.814,179.476L174.679,182.784L174.679,229.701L140.594,229.701C140.327,215.599 143.277,195.879 145.814,179.476Z" style="fill:rgb(75,75,75);fill-rule:nonzero;"/>
            </g>
        </g>
        <g id="shoes" transform="matrix(0.860651,0,0,1,25.0255,0.582454)">
            <path d="M167.44,292.797L150.291,292.797C149.38,292.797 148.641,293.711 148.641,294.84L148.641,312.746C148.641,313.875 149.38,314.789 150.291,314.789L167.44,314.789C168.351,314.789 169.091,313.875 169.091,312.746L169.091,294.84C169.091,293.711 168.351,292.797 167.44,292.797Z" style="fill:white;fill-rule:nonzero;"/>
            <path d="M160.515,299.103L155.085,299.103C153.795,299.103 152.749,300.398 152.749,301.995L152.749,304.59C152.749,306.188 153.795,307.483 155.085,307.483L160.515,307.483C161.806,307.483 162.851,306.188 162.851,304.59L162.851,301.995C162.851,300.398 161.806,299.103 160.515,299.103Z" style="fill:rgb(75,75,75);fill-rule:nonzero;"/>
            <path d="M161.998,303.559L153.992,303.559C149.376,303.559 145.633,308.192 145.633,313.909C145.633,319.625 149.376,324.258 153.992,324.258L161.998,324.258C166.614,324.258 170.356,319.625 170.356,313.909C170.356,308.192 166.614,303.559 161.998,303.559Z" style="fill:rgb(79,79,79);fill-rule:nonzero;"/>
            <path d="M168.068,312.961L148.107,312.961C146.517,312.961 145.228,314.496 145.228,316.388L145.228,320.87C145.228,322.764 146.517,324.299 148.107,324.299L168.068,324.299C169.659,324.299 170.948,322.764 170.948,320.87L170.948,316.388C170.948,314.496 169.659,312.961 168.068,312.961Z" style="fill:rgb(79,79,79);fill-rule:nonzero;"/>
            <path d="M169.315,319.962L146.675,319.962C146.099,319.962 145.633,320.539 145.633,321.251L145.633,322.937C145.633,323.649 146.099,324.227 146.675,324.227L169.315,324.227C169.89,324.227 170.356,323.649 170.356,322.937L170.356,321.251C170.356,320.539 169.89,319.962 169.315,319.962Z" style="fill:white;fill-rule:nonzero;"/>
            <path d="M161.087,304.079L154.739,304.079C154.408,304.079 154.14,304.411 154.14,304.821C154.14,305.23 154.408,305.562 154.739,305.562L161.087,305.562C161.417,305.562 161.686,305.23 161.686,304.821C161.686,304.411 161.417,304.079 161.087,304.079Z" style="fill:white;fill-rule:nonzero;"/>
            <path d="M163.244,308.853L160.194,308.853C159.119,308.853 158.246,309.932 158.246,311.265C158.246,312.597 159.119,313.677 160.194,313.677L163.244,313.677C164.32,313.677 165.191,312.597 165.191,311.265C165.191,309.932 164.32,308.853 163.244,308.853Z" style="fill:rgb(88,88,88);fill-rule:nonzero;"/>
            <path d="M161.087,306.452L154.739,306.452C154.408,306.452 154.14,306.784 154.14,307.193C154.14,307.602 154.408,307.934 154.739,307.934L161.087,307.934C161.417,307.934 161.686,307.602 161.686,307.193C161.686,306.784 161.417,306.452 161.087,306.452Z" style="fill:white;fill-rule:nonzero;"/>
            <path d="M199.322,292.796L182.173,292.796C181.262,292.796 180.522,293.711 180.522,294.84L180.522,312.745C180.522,313.874 181.262,314.789 182.173,314.789L199.322,314.789C200.233,314.789 200.972,313.874 200.972,312.745L200.972,294.84C200.972,293.711 200.233,292.796 199.322,292.796Z" style="fill:white;fill-rule:nonzero;"/>
            <path d="M195.463,299.132L190.032,299.132C188.742,299.132 187.696,300.428 187.696,302.024L187.696,304.62C187.696,306.217 188.742,307.512 190.032,307.512L195.463,307.512C196.753,307.512 197.799,306.217 197.799,304.62L197.799,302.024C197.799,300.428 196.753,299.132 195.463,299.132Z" style="fill:rgb(75,75,75);fill-rule:nonzero;"/>
            <path d="M196.887,303.559L188.882,303.559C184.265,303.559 180.522,308.192 180.522,313.909C180.522,319.625 184.265,324.258 188.882,324.258L196.887,324.258C201.504,324.258 205.246,319.625 205.246,313.909C205.246,308.192 201.504,303.559 196.887,303.559Z" style="fill:rgb(79,79,79);fill-rule:nonzero;"/>
            <path d="M203.015,312.961L183.053,312.961C181.464,312.961 180.174,314.496 180.174,316.388L180.174,320.87C180.174,322.764 181.464,324.299 183.053,324.299L203.015,324.299C204.605,324.299 205.894,322.764 205.894,320.87L205.894,316.388C205.894,314.496 204.605,312.961 203.015,312.961Z" style="fill:rgb(79,79,79);fill-rule:nonzero;"/>
            <path d="M204.205,319.962L181.564,319.962C180.989,319.962 180.522,320.539 180.522,321.251L180.522,322.937C180.522,323.649 180.989,324.227 181.564,324.227L204.205,324.227C204.78,324.227 205.246,323.649 205.246,322.937L205.246,321.251C205.246,320.539 204.78,319.962 204.205,319.962Z" style="fill:white;fill-rule:nonzero;"/>
            <path d="M195.976,304.079L189.627,304.079C189.296,304.079 189.028,304.411 189.028,304.821C189.028,305.23 189.296,305.562 189.627,305.562L195.976,305.562C196.306,305.562 196.575,305.23 196.575,304.821C196.575,304.411 196.306,304.079 195.976,304.079Z" style="fill:white;fill-rule:nonzero;"/>
            <path d="M198.132,308.882L195.083,308.882C194.007,308.882 193.135,309.962 193.135,311.294C193.135,312.626 194.007,313.706 195.083,313.706L198.132,313.706C199.208,313.706 200.08,312.626 200.08,311.294C200.08,309.962 199.208,308.882 198.132,308.882Z" style="fill:rgb(88,88,88);fill-rule:nonzero;"/>
            <path d="M195.976,306.48L189.627,306.48C189.296,306.48 189.028,306.813 189.028,307.221C189.028,307.631 189.296,307.963 189.627,307.963L195.976,307.963C196.306,307.963 196.575,307.631 196.575,307.221C196.575,306.813 196.306,306.48 195.976,306.48Z" style="fill:white;fill-rule:nonzero;"/>
        </g>
    </g>
    <g id="underwear">
        <g transform="matrix(0.860651,0,0,1,25.1581,0.582454)">
            <path d="M150.351,177.277C148.833,177.277 147.368,177.521 145.981,177.967C147.604,195.716 159.837,209.426 174.786,209.426C189.931,209.426 202.286,195.36 203.65,177.277L150.351,177.277Z" style="fill:rgb(79,79,79);fill-rule:nonzero;"/>
        </g>
        <g transform="matrix(0.860651,0,0,1,25.1581,0.582454)">
            <path d="M203.332,179.475L175.084,182.784L175.084,229.701L210.141,229.701C210.409,215.599 205.869,195.878 203.332,179.475Z" style="fill:rgb(75,75,75);fill-rule:nonzero;"/>
        </g>
        <g transform="matrix(0.860651,0,0,1,25.1581,0.582454)">
            <path d="M145.814,179.476L174.679,182.784L174.679,229.701L140.594,229.701C140.327,215.599 143.277,195.879 145.814,179.476Z" style="fill:rgb(75,75,75);fill-rule:nonzero;"/>
        </g>
    </g>
</svg>
