    <svg
      xmlns="http://www.w3.org/2000/svg"
      width="133"
      height="325"
      fill="none"
      viewBox="0 0 133 325"
    >
      <path
        fill="#D9B392"
        d="M109.839 102.534c.144-1.289 19.89-14.336 20.195-12.775 0 0 2.104 26.45 1.336 30.353l-.381 7.128a15.69 15.69 0 00-.304 3.035v2.417c0 1.16-.086 12.917-.035 12.846 0 0-17.606.103-17.803-.19l-1.263-20.873c-1.131-3.643-2.17-20.596-2.17-20.596l.425-1.345z"
      ></path>
      <path
        fill="#D9B392"
        d="M120.784 116.626l.081.003c5.197.208 9.506 5.681 9.622 12.226l.881 49.14c.117 6.544-4.001 11.682-9.198 11.474l-.082-.003c-5.197-.208-9.504-5.681-9.622-12.225l-.88-49.14c-.117-6.545 4.001-11.682 9.198-11.475z"
      ></path>
      <path
        fill="#D9B392"
        d="M119.88 168.991l2.751.222c5.269.426 9.618 6.936 9.713 14.54l.084 6.755c.095 7.604-4.101 13.422-9.371 12.995l-2.749-.223c-5.156-.417-9.428-6.655-9.701-14.043a16.4 16.4 0 01-.013-.497l-.085-6.754c-.094-7.604 4.102-13.422 9.371-12.995z"
      ></path>
      <path
        fill="#D9B392"
        d="M116.989 187.967c1.336-4.665 5.704-6.69 9.757-4.525 4.052 2.167 6.253 7.705 4.917 12.371l-3.651 12.741c-1.336 4.665-5.705 6.69-9.756 4.524-4.053-2.167-6.254-7.705-4.918-12.37l3.651-12.741z"
      ></path>
      <path
        fill="#C49D7A"
        d="M109.467 184.757c-.031-3.36 1.776-5.938 4.036-5.76 2.258.178 4.115 3.047 4.146 6.407l.082 9.177c.031 3.36-1.776 5.939-4.034 5.759-2.259-.178-4.116-3.047-4.146-6.407l-.084-9.176z"
      ></path>
      <path
        fill="#D9B392"
        d="M24.549 103.879L2.196 90.949c-.728 1.337-.094 24.828.638 28.731l.364 7.128c.192 1.024.29 2.04.29 3.035v2.417c0 1.16.082 12.917.033 12.846 0 0 16.784.103 16.971-.19l1.205-20.873c1.078-3.643 2.852-20.164 2.852-20.164z"
      ></path>
      <path
        fill="#D9B392"
        d="M12.927 116.195l-.077.003c-4.954.208-9.062 5.681-9.173 12.226l-.84 49.14c-.11 6.544 3.815 11.681 8.769 11.473l.078-.003c4.954-.208 9.06-5.681 9.173-12.225l.838-49.14c.112-6.545-3.814-11.681-8.768-11.474z"
      ></path>
      <path
        fill="#D9B392"
        d="M12.829 168.558l-2.622.222c-5.023.427-9.17 6.937-9.26 14.541l-.08 6.755c-.091 7.603 3.909 13.421 8.934 12.994l2.62-.223c5.024-.426 9.17-6.936 9.26-14.54l.081-6.754c.09-7.604-3.91-13.421-8.933-12.995z"
      ></path>
      <path
        fill="#D9B392"
        d="M16.023 187.535c-1.274-4.665-5.438-6.691-9.301-4.525-3.864 2.166-5.962 7.704-4.688 12.37l3.48 12.741c1.274 4.665 5.44 6.691 9.301 4.524 3.864-2.167 5.962-7.704 4.687-12.369l-3.479-12.741z"
      ></path>
      <path
        fill="#C49D7A"
        d="M24.236 184.325c.029-3.36-1.693-5.938-3.847-5.76-2.154.179-3.924 3.048-3.953 6.408l-.078 9.176c-.03 3.36 1.692 5.939 3.846 5.76 2.154-.178 3.923-3.047 3.952-6.407l.08-9.177z"
      ></path>
      <path
        fill="#D9B392"
        d="M52.062 239.893h-2.497c-5.947 0-10.769 4.638-10.769 10.36l-.001 26.9.001 19.265-2.153 19.742c0 4.315 4.398 7.811 9.825 7.811h2.292c5.427 0 9.826-3.496 9.826-7.811v-28.827c0-2.007.51-3.984 1.483-5.76a11.948 11.948 0 001.485-5.759v-3.79c0-2.222-.287-4.434-.852-6.588a25.915 25.915 0 01-.852-6.589v-11.462c0-.44-.04-.88-.12-1.313-.662-3.574-3.893-6.179-7.668-6.179z"
      ></path>
      <path
        fill="#D9B392"
        d="M49.966 161.768H35.29c-.72 0-1.303.561-1.303 1.253l-4.713 42.294v14.761c0 1.874.158 3.745.477 5.594l1.062 6.205a29.772 29.772 0 003.654 10.002l3.078 5.265a7.257 7.257 0 01.997 3.664c0 4.126 3.478 7.471 7.766 7.471h4.887c4.592 0 8.316-3.582 8.316-8 0-.945.172-1.882.512-2.769l1.11-2.89c.475-1.24.85-2.516 1.118-3.812l1.675-8.101 1.62-10.371c.262-1.691.395-3.396.395-5.106v-40.09c0-8.49-7.152-15.37-15.976-15.37zM51.95 307.545h-9.227c-5.32 0-9.633 3.701-9.633 8.266 0 4.566 4.312 8.266 9.633 8.266h9.228c5.32 0 9.633-3.7 9.633-8.266 0-4.565-4.313-8.266-9.633-8.266z"
      ></path>
      <path
        fill="#D9B392"
        d="M58.394 315.013H36.28c-1.761 0-3.19 1.226-3.19 2.737v3.581c0 1.512 1.429 2.737 3.19 2.737h22.114c1.762 0 3.19-1.225 3.19-2.737v-3.581c0-1.511-1.428-2.737-3.19-2.737zM81.675 238.217h2.368c5.937 0 10.75 4.631 10.75 10.342l.002 27.702-.002 19.669 2.154 20.157c0 4.406-4.399 7.976-9.827 7.976h-2.29c-5.427 0-9.826-3.57-9.826-7.976V286.1c0-1.929-.512-3.827-1.485-5.515a11.038 11.038 0 01-1.484-5.513v-4.133c0-2.213.28-4.417.832-6.565l.02-.078c.567-2.199.852-4.457.852-6.723v-11.722c0-.44.04-.878.119-1.311.661-3.656 3.96-6.323 7.817-6.323z"
      ></path>
      <path
        fill="#D9B392"
        d="M85.334 161.736h8.562c2.207 0 4.17 1.348 4.89 3.355.106.296.183.603.229.913l5.443 36.434c.241 1.62.363 3.255.363 4.891v12.11c0 1.891-.163 3.78-.484 5.646l-1.053 6.086a29.395 29.395 0 01-3.653 9.913l-3.077 5.21a7.172 7.172 0 00-1.001 3.649c0 4.08-3.438 7.388-7.68 7.388H82.81c-4.542 0-8.226-3.542-8.226-7.913 0-.943-.175-1.879-.517-2.762l-1.105-2.856a24.033 24.033 0 01-1.118-3.775l-1.676-8.024-1.611-10.225a33.16 33.16 0 01-.404-5.153v-38.36c0-9.127 7.692-16.527 17.18-16.527zM82.789 307.545h9.226c5.321 0 9.635 3.689 9.635 8.238 0 4.549-4.314 8.237-9.635 8.237H82.79c-5.32 0-9.635-3.688-9.635-8.237 0-4.549 4.315-8.238 9.635-8.238z"
      ></path>
      <path
        fill="#D9B392"
        d="M76.345 310.552H98.46c1.761 0 3.19 1.769 3.19 3.955v5.172c0 2.184-1.429 3.955-3.19 3.955H76.345c-1.762 0-3.19-1.771-3.19-3.955v-5.172c0-2.186 1.428-3.955 3.19-3.955z"
      ></path>
      <path
        fill="#C49D7A"
        d="M101.781 121.984c0-21.342-17.465-29.576-35.184-29.576-17.72 0-33.897 8.234-33.897 29.576l-3.919 41.681c0 21.343 20.096 33.953 37.816 33.953 17.72 0 38.225-12.612 38.225-33.954l-3.041-41.68z"
      ></path>
      <path
        fill="#D9B392"
        d="M98.579 121.984c0-21.342-15.867-29.576-31.965-29.576-16.099 0-30.796 8.234-30.796 29.576l-3.56 41.681c0 21.343 18.257 33.953 34.356 33.953 16.098 0 34.728-12.612 34.728-33.954l-2.763-41.68z"
      ></path>
      <path
        fill="#D9B392"
        d="M112.104 73.897H20.209c-9.947 0-18.012 7.634-18.012 17.052 0 9.417 8.065 17.052 18.012 17.052h91.895c5.042 0 9.599-1.961 12.869-5.122 3.18-3.075 5.142-7.286 5.142-11.93 0-9.418-8.064-17.052-18.011-17.052z"
      ></path>
      <path
        fill="#D9B392"
        d="M111.452 92.258c0-15.61-20.186-28.266-45.086-28.266-24.901 0-45.087 12.655-45.087 28.266 0 15.61 20.186 28.265 45.087 28.265 9.28 0 17.905-1.758 25.075-4.771 12.067-5.072 20.011-13.702 20.011-23.494z"
      ></path>
      <path
        fill="#C49D7A"
        d="M91.592 73.897H41.14c-13.016 0-23.569 8.792-23.569 19.64v11.837c0 10.845 10.553 19.639 23.569 19.639h50.453c13.018 0 23.57-8.794 23.57-19.639V93.537c0-10.848-10.552-19.64-23.57-19.64z"
      ></path>
      <path
        fill="#D9B392"
        d="M95.995 73.897H36.737c-10.585 0-19.167 8.17-19.167 18.25v11.001c0 10.08 8.582 18.252 19.167 18.252h59.258c10.586 0 19.167-8.172 19.167-18.252v-11c0-10.081-8.581-18.251-19.167-18.251z"
      ></path>
      <path
        fill="#C49D7A"
        d="M70.442 113.9c0-1.245-1.839-2.254-4.11-2.254-2.269 0-4.11 1.009-4.11 2.254v4.369c0 1.244 1.841 2.253 4.11 2.253 2.271 0 4.11-1.009 4.11-2.253V113.9zM40.225 115.759h-3.49c-1.392 0-2.52.964-2.52 2.154 0 1.188 1.128 2.153 2.52 2.153h3.49c1.39 0 2.518-.965 2.518-2.153 0-1.19-1.128-2.154-2.518-2.154zM97.042 115.759h-3.49c-1.391 0-2.519.964-2.519 2.154 0 1.188 1.128 2.153 2.52 2.153h3.489c1.392 0 2.52-.965 2.52-2.153 0-1.19-1.128-2.154-2.52-2.154zM96.332 138.772c-27.886-5.336-56.543 0-56.543 0 0-1.208 13.402-5.336 28.657-5.336s27.886 4.128 27.886 5.336z"
      ></path>
      <path
        fill="#C49D7A"
        fillRule="evenodd"
        d="M69.376 157.237a1.38 1.38 0 10-2.759 0v2.567a1.38 1.38 0 002.759 0v-2.567z"
        clipRule="evenodd"
      ></path>
      <path
        fill="#4F4F4F"
        d="M104.823 163.664s-22.875.185-36.908.124c-14.122-.061-38.529-.34-39.134-.095 1.414 19.413 25.855 35.392 38.874 35.392 13.19 0 35.98-15.642 37.168-35.421z"
      ></path>
      <path
        fill="#4B4B4B"
        d="M104.819 163.664l-36.905 6.281.168 51.316h37.972c.233-15.424 3.101-51.089-1.235-57.597zM28.78 163.692l38.781 6.253v51.316H28.015c-.232-15.424-3.439-40.154.766-57.569z"
      ></path>
      <path
        fill="#D9B392"
        d="M83.42 59.233c0-10.916-7.39-19.764-16.507-19.764-9.118 0-16.509 8.848-16.509 19.764v8.109c0 10.915 7.39 19.765 16.51 19.765 9.117 0 16.506-8.85 16.506-19.765v-8.11z"
      ></path>
      <path
        fill="#C49D7A"
        d="M60.844 82.319l-9.01-4.33a2.015 2.015 0 10-1.746 3.63l9.011 4.332a2.014 2.014 0 101.745-3.632zM71.796 82.319l9.011-4.33a2.016 2.016 0 012.69.941 2.016 2.016 0 01-.944 2.689l-9.01 4.332a2.015 2.015 0 01-1.747-3.632zM69.734 40.798H63.33c-7.35 0-13.308 5.957-13.308 13.306v5.46c0 7.35 5.958 13.307 13.308 13.307h6.403c7.349 0 13.306-5.958 13.306-13.307v-5.46c0-7.349-5.957-13.306-13.306-13.306z"
      ></path>
      <path
        fill="#D9B392"
        d="M89.553 29.216H43.8c-5.23 0-9.47 4.404-9.47 9.838 0 5.435 4.24 9.84 9.47 9.84h45.752c5.23 0 9.472-4.405 9.472-9.84 0-5.434-4.242-9.838-9.472-9.838z"
      ></path>
      <path
        fill="#C49D7A"
        d="M89.834 30.703H43.782c-3.984 0-7.214 3.285-7.214 7.337s3.23 7.338 7.215 7.338h46.051c3.984 0 7.215-3.286 7.215-7.338s-3.23-7.337-7.215-7.337z"
      ></path>
      <path
        fill="#D9B392"
        d="M73.696.611H59.924c-11.408 0-20.658 9.25-20.658 20.66v24.482c0 11.41 9.25 20.66 20.658 20.66h13.772c11.409 0 20.659-9.25 20.659-20.66V21.27c0-11.41-9.25-20.659-20.66-20.659z"
      ></path>
      <path
        fill="#D9B392"
        d="M73.258 63.612H60.39a2.52 2.52 0 000 5.04h12.868a2.52 2.52 0 000-5.04z"
      ></path>
      <path
        fill="#C49D7A"
        d="M68.902 60.796H65.18a.539.539 0 00-.538.54v.316c0 .298.24.54.538.54h3.72a.54.54 0 00.539-.54v-.317a.54.54 0 00-.538-.54zM70.835 36.996a4.045 4.045 0 10-8.09 0v7.138a4.046 4.046 0 008.09 0v-7.138z"
      ></path>
      <path
        fill="#C49D7A"
        d="M66.346 45.074l-3.762-3.197a1.478 1.478 0 00-1.913 2.251l3.762 3.197a1.478 1.478 0 001.912-2.25zM67.379 45.074l3.761-3.197a1.477 1.477 0 111.913 2.251l-3.763 3.197a1.478 1.478 0 01-1.911-2.25zM64.254 29.591a1.134 1.134 0 10-2.268 0v1.373a1.135 1.135 0 002.268 0V29.59zM71.783 29.591a1.133 1.133 0 10-2.267 0v1.373a1.134 1.134 0 002.267 0V29.59z"
      ></path>
      <path
        fill="#61534B"
        d="M56.987 31.937a2.531 2.531 0 10-5.063 0v1.014a2.531 2.531 0 005.063 0v-1.014zM81.606 31.937a2.531 2.531 0 10-5.063 0v1.013a2.531 2.531 0 105.063 0v-1.013z"
      ></path>
      <path
        fill="#fff"
        fillRule="evenodd"
        d="M75.053 53.124a.681.681 0 00-.682-.682H59.63a.682.682 0 00-.683.682v1.363c0 .376.305.681.683.681H74.37a.681.681 0 00.682-.681v-1.363z"
        clipRule="evenodd"
      ></path>
      <path
        fill="#61534B"
        fillRule="evenodd"
        d="M84.569 27.008c0-.301-.245-.545-.546-.545h-7.635c-.3 0-.544.244-.544.545v1.09c0 .302.244.546.544.546h7.635c.3 0 .546-.244.546-.546v-1.09z"
        clipRule="evenodd"
      ></path>
      <path
        fill="#4D4D4D"
        fillRule="evenodd"
        d="M58.368 26.976c0-.3-.245-.544-.545-.544h-7.635c-.3 0-.545.244-.545.544v1.092c0 .3.245.545.545.545h7.635c.3 0 .545-.244.545-.545v-1.092z"
        clipRule="evenodd"
      ></path>
      <path
        fill="#fff"
        d="M72.07 57.704c3.727 0 6.726-3.204 6.726-7.184v-1.163h-22.65v1.163c0 3.98 3.002 7.184 6.727 7.184h9.197z"
      ></path>
      <path
        fill="#61534B"
        fillRule="evenodd"
        d="M84.83 25.843c-.09-.24-.395-.38-.681-.315l-7.291 1.683c-.288.067-.45.316-.361.556l.32.87c.087.24.392.38.68.314l7.29-1.683c.287-.067.449-.315.361-.556l-.319-.87zM58.568 27.794c.088-.24-.073-.489-.36-.555l-7.291-1.684c-.288-.066-.593.076-.68.315l-.32.87c-.089.24.073.489.36.555l7.292 1.684c.286.065.591-.075.68-.315l.32-.87z"
        clipRule="evenodd"
      ></path>
      <path
        fill="#A27B5F"
        d="M55.427.611c-9.796 0-17.683 8.345-17.683 18.713 0 .485.023.966.057 1.444a5.33 5.33 0 00-.057.746v11.463c0 2.461 1.643 4.499 3.837 4.96v-14.96c0-10.707 8.147-19.329 18.267-19.329h14.29c10.12 0 18.268 8.622 18.268 19.33v14.978c2.255-.406 3.964-2.472 3.964-4.979V21.514c0-.254-.025-.502-.058-.745.035-.479.058-.96.058-1.445C96.37 8.956 88.483.611 78.686.611H55.427z"
      ></path>
      <path
        fill="#A27B5F"
        fillRule="evenodd"
        d="M48.61 3.213c-1.791 1.123-2.734 2.397-2.734 3.693 0 4.079 9.141 7.389 20.401 7.389s20.4-3.31 20.4-7.389c0-1.296-.942-2.57-2.733-3.693H48.61z"
        clipRule="evenodd"
      ></path>
      <path
        fill="#565656"
        d="M58.28 43.932a8.03 8.03 0 00-8.038 8.055v9.422a8.028 8.028 0 008.039 8.054h17.246a8.028 8.028 0 008.039-8.054v-9.422a8.03 8.03 0 00-8.039-8.055h-1.686c.059.492-.122 1-.527 1.346l-.682.58c.405.38.705.872.835 1.431h2.34a4.49 4.49 0 014.495 4.503v4.053c0 .946-.29 1.822-.784 2.545V59.5a6.408 6.408 0 01-6.417 6.43H60.707a6.408 6.408 0 01-6.416-6.43V58.39a4.489 4.489 0 01-.785-2.545v-4.053A4.49 4.49 0 0158 47.29h1.471a2.863 2.863 0 011.29-1.781l-.267-.23a1.524 1.524 0 01-.528-1.346h-1.686z"
      ></path>
      <path
        fill="#565656"
        fillRule="evenodd"
        d="M92.927 44.941c2.959 2.248 2.497 8.018-1.031 12.876-3.529 4.857-8.796 6.976-11.755 4.73 2.38-1.38 5.45-4.07 8.001-7.581 2.55-3.511 4.181-7.296 4.785-10.025zM40.643 44.751c-2.96 2.248-2.498 8.017 1.03 12.876 3.53 4.858 8.796 6.977 11.755 4.729-2.378-1.38-5.451-4.07-8-7.58-2.551-3.512-4.181-7.296-4.785-10.025z"
        clipRule="evenodd"
      ></path>
      <path
        fill="#565656"
        fillRule="evenodd"
        d="M45.897 60.963c0 11.854 9.308 21.479 20.774 21.479 11.465 0 20.775-9.625 20.775-21.48-5.195 2.964-12.714 5.37-20.775 5.37-8.06 0-15.582-2.406-20.775-5.37z"
        clipRule="evenodd"
      ></path>
      <path
        fill="#4D4D4D"
        d="M56.89 70.51h2.26c.794 0 1.434.437 1.434.975v4.817c0 .54-.64.975-1.433.975h-2.262c-.792 0-1.432-.436-1.432-.975v-4.817c0-.538.64-.974 1.432-.974zM73.338 70.48h2.263c.792 0 1.433.462 1.433 1.03v5.096c0 .57-.641 1.031-1.433 1.031h-2.263c-.791 0-1.432-.462-1.432-1.031V71.51c0-.569.64-1.031 1.432-1.031z"
      ></path>
      <path
        fill="#565656"
        fillRule="evenodd"
        d="M51 65.355c-7.128-5.603-11.45-11.503-10.555-18.988l11.735 15.29M81.655 65.355c7.785-5.603 12.506-11.503 11.528-18.988l-12.818 15.29"
        clipRule="evenodd"
      ></path>
      <path
        fill="#565656"
        d="M58.197 43.963a8.03 8.03 0 00-8.039 8.055v9.422a8.029 8.029 0 008.039 8.054h17.246a8.029 8.029 0 008.039-8.054v-9.422a8.03 8.03 0 00-8.039-8.055h-1.686c.059.491-.122 1-.527 1.346l-.682.581c.405.38.705.87.835 1.43h2.34a4.488 4.488 0 014.494 4.504v4.052c0 .946-.288 1.822-.783 2.545v1.111a6.408 6.408 0 01-6.417 6.43H60.623a6.408 6.408 0 01-6.416-6.43v-1.11a4.49 4.49 0 01-.785-2.546v-4.052a4.49 4.49 0 014.495-4.503h1.471a2.863 2.863 0 011.29-1.782l-.267-.23a1.522 1.522 0 01-.528-1.346h-1.686z"
      ></path>
      <path
        fill="#4D4D4D"
        d="M56.887 66.746h2.177c.762 0 1.379.11 1.379.244v1.206c0 .135-.617.244-1.379.244h-2.177c-.762 0-1.38-.11-1.38-.244V66.99c0-.134.618-.244 1.38-.244zM73.525 66.746h2.178c.762 0 1.379.11 1.379.244v1.206c0 .135-.617.244-1.38.244h-2.177c-.762 0-1.379-.11-1.379-.244V66.99c0-.134.617-.244 1.38-.244z"
      ></path>
      <path
        fill="#4F4F4F"
        d="M104.822 163.665s-22.874.185-36.907.123c-14.122-.061-38.529-.368-39.134-.123 1.414 19.413 25.855 35.421 38.874 35.421 13.19 0 35.979-15.643 37.167-35.421z"
      ></path>
      <path
        fill="#4B4B4B"
        d="M104.821 163.812l-36.907 6.134.168 51.316h37.972c.233-15.424 3.103-50.943-1.233-57.45zM28.78 163.67l38.781 6.276v51.315H28.015c-.232-15.424-3.439-40.176.766-57.591z"
      ></path>
      <path
        fill="#fff"
        d="M57.462 290.272H39.664c-.946 0-1.713 1-1.713 2.235v19.585c0 1.235.767 2.234 1.713 2.234h17.798c.946 0 1.714-.999 1.714-2.234v-19.585c0-1.235-.768-2.235-1.714-2.235z"
      ></path>
      <path
        fill="#4B4B4B"
        d="M50.764 297.17h-6.05c-1.437 0-2.603 1.416-2.603 3.163v2.838c0 1.748 1.166 3.165 2.603 3.165h6.05c1.438 0 2.603-1.417 2.603-3.165v-2.838c0-1.747-1.164-3.163-2.603-3.163z"
      ></path>
      <path
        fill="#4F4F4F"
        d="M52.088 302.044h-9.233c-5.324 0-9.64 5.067-9.64 11.32 0 6.252 4.316 11.319 9.64 11.319h9.233c5.323 0 9.639-5.067 9.639-11.319 0-6.253-4.316-11.32-9.64-11.32z"
      ></path>
      <path
        fill="#4F4F4F"
        d="M58.968 312.327H35.263c-1.889 0-3.42 1.679-3.42 3.748v4.903c0 2.071 1.531 3.75 3.42 3.75h23.705c1.89 0 3.42-1.679 3.42-3.75v-4.903c0-2.069-1.53-3.748-3.42-3.748z"
      ></path>
      <path
        fill="#fff"
        d="M61.102 319.984h-27.97c-.712 0-1.288.631-1.288 1.41v1.844c0 .779.575 1.411 1.287 1.411h27.97c.711 0 1.287-.632 1.287-1.411v-1.844c0-.779-.576-1.41-1.286-1.41zM51.4 302.612h-7.072c-.37 0-.668.363-.668.812 0 .447.299.81.668.81H51.4c.368 0 .668-.363.668-.81 0-.449-.3-.812-.668-.812z"
      ></path>
      <path
        fill="#585858"
        d="M53.803 307.834h-3.398c-1.198 0-2.17 1.18-2.17 2.638 0 1.457.972 2.638 2.17 2.638h3.398c1.199 0 2.17-1.181 2.17-2.638 0-1.458-.971-2.638-2.17-2.638z"
      ></path>
      <path
        fill="#fff"
        d="M51.4 305.208h-7.072c-.37 0-.668.363-.668.81 0 .448.299.811.668.811H51.4c.368 0 .668-.363.668-.811 0-.447-.3-.81-.668-.81zM93.823 290.271H76.234c-.934 0-1.693 1.001-1.693 2.236v19.584c0 1.235.759 2.235 1.693 2.235h17.59c.934 0 1.692-1 1.692-2.235v-19.584c0-1.235-.758-2.236-1.693-2.236z"
      ></path>
      <path
        fill="#4B4B4B"
        d="M90.021 297.201H83.97c-1.437 0-2.603 1.418-2.603 3.163v2.84c0 1.746 1.166 3.163 2.603 3.163h6.051c1.437 0 2.603-1.417 2.603-3.163v-2.84c0-1.745-1.166-3.163-2.603-3.163z"
      ></path>
      <path
        fill="#4F4F4F"
        d="M91.665 302.044h-9.19c-5.3 0-9.598 5.067-9.598 11.32 0 6.252 4.297 11.319 9.598 11.319h9.19c5.3 0 9.984-4.977 9.984-11.229 0-6.253-4.684-11.41-9.984-11.41z"
      ></path>
      <path
        fill="#4F4F4F"
        d="M98.895 312.327H75.53c-1.86 0-3.37 1.679-3.37 3.748v4.903c0 2.071 1.51 3.75 3.37 3.75h23.365c1.861 0 3.37-1.679 3.37-3.75v-4.903c0-2.069-1.509-3.748-3.37-3.748z"
      ></path>
      <path
        fill="#fff"
        d="M100.999 319.984H73.431c-.7 0-1.269.631-1.269 1.41v1.844c0 .779.569 1.411 1.269 1.411h27.568c.7 0 1.268-.632 1.268-1.411v-1.844c0-.779-.568-1.41-1.268-1.41zM91.696 302.612h-7.073c-.37 0-.668.363-.668.812 0 .447.299.81.668.81h7.073c.368 0 .668-.363.668-.81 0-.449-.3-.812-.668-.812z"
      ></path>
      <path
        fill="#585858"
        d="M94.099 307.865h-3.397c-1.2 0-2.17 1.182-2.17 2.638 0 1.457.97 2.638 2.17 2.638h3.397c1.199 0 2.17-1.181 2.17-2.638 0-1.456-.971-2.638-2.17-2.638z"
      ></path>
      <path
        fill="#fff"
        d="M91.696 305.238h-7.073c-.37 0-.668.364-.668.811 0 .448.299.811.668.811h7.073c.368 0 .668-.363.668-.811 0-.447-.3-.811-.668-.811z"
      ></path>
    </svg>