    <svg
      xmlns="http://www.w3.org/2000/svg"
      width="90"
      height="312"
      fill="none"
      viewBox="0 0 90 312"
    >
      <path
        fill="#C89F7B"
        d="M57.03 230.216h1.632c3.992 0 7.229 4.436 7.229 9.909v44.806l1.446 19.112c0 4.177-2.955 7.562-6.602 7.562h-1.539c-3.647 0-6.602-3.385-6.602-7.562v-28.424c0-1.833-.344-3.635-.997-5.234-.654-1.6-.997-3.402-.997-5.235v-3.909c0-2.099.188-4.19.559-6.226l.013-.074c.38-2.085.573-4.226.573-6.376V237.46c0-.421.027-.841.08-1.255.445-3.464 2.64-5.989 5.205-5.989z"
      ></path>
      <path
        fill="#C89F7B"
        d="M59.214 160.528h4.165c2.343 0 4.446 1.974 5.294 4.969.164.577.276 1.18.335 1.794l3.078 31.828v13.813c0 1.792-.11 3.582-.326 5.349l-.707 5.764c-.405 3.31-1.236 6.494-2.454 9.404l-2.065 4.936a9.078 9.078 0 00-.675 3.478c0 3.862-2.284 6.992-5.1 6.992h-3.524c-3.017 0-5.465-3.354-5.465-7.492 0-.901-.118-1.794-.35-2.637l-.74-2.7a30.366 30.366 0 01-.752-3.579l-1.125-7.607-1.083-9.695a44.172 44.172 0 01-.27-4.883v-33.607c0-8.907 5.266-16.127 11.764-16.127zM57.498 295.986h6.2c3.575 0 6.473 3.496 6.473 7.809 0 4.313-2.898 7.809-6.473 7.809h-6.2c-3.575 0-6.473-3.496-6.473-7.809 0-4.313 2.898-7.809 6.473-7.809z"
      ></path>
      <path
        fill="#C89F7B"
        d="M53.169 299.201h14.859c1.183 0 2.143 1.68 2.143 3.75v4.904c0 2.071-.96 3.75-2.144 3.75H53.17c-1.183 0-2.144-1.679-2.144-3.75v-4.904c0-2.07.96-3.75 2.144-3.75zM33.82 230.215h-1.633c-3.992 0-7.23 4.436-7.23 9.909v44.806l-1.445 19.112c0 4.177 2.955 7.562 6.601 7.562h1.54c3.646 0 6.602-3.385 6.602-7.562v-28.424c0-1.833.343-3.635.997-5.234.654-1.6.997-3.402.997-5.235v-3.909c0-2.099-.188-4.19-.559-6.226l-.013-.074a35.554 35.554 0 01-.573-6.376v-11.105c0-.421-.026-.841-.08-1.255-.444-3.463-2.64-5.989-5.205-5.989z"
      ></path>
      <path
        fill="#C89F7B"
        d="M32.665 160.527H26.19c-2.352 0-4.258 2.614-4.258 5.839l-3.167 32.752v13.813c0 1.792.108 3.582.325 5.349l.706 5.764c.406 3.31 1.237 6.494 2.455 9.404l2.065 4.936a9.082 9.082 0 01.676 3.478c0 3.862 2.283 6.992 5.1 6.992h3.523c3.018 0 5.465-3.354 5.465-7.491 0-.902.118-1.795.35-2.638l.74-2.7c.32-1.164.571-2.361.752-3.579l1.125-7.607 1.083-9.695c.18-1.616.271-3.249.271-4.883v-35.018c0-8.127-4.806-14.716-10.735-14.716zM33.354 295.985h-6.2c-3.574 0-6.472 3.496-6.472 7.809 0 4.313 2.898 7.809 6.472 7.809h6.2c3.575 0 6.472-3.496 6.472-7.809 0-4.313-2.897-7.809-6.472-7.809z"
      ></path>
      <path
        fill="#C89F7B"
        d="M37.683 299.2H22.825c-1.184 0-2.143 1.68-2.143 3.75v4.904c0 2.071.959 3.75 2.143 3.75h14.858c1.184 0 2.143-1.679 2.143-3.75v-4.904c0-2.07-.959-3.75-2.143-3.75zM44.99 71.684c1.06 0 2.115.075 3.162.223 12.62 1.777 23.868 13.95 23.868 28.797l-1.981 15.895-5.006 28.583c0 16.077-6.203 17.231-20.043 17.231s-19.06-2.6-19.06-18.678l-5.922-27.136v-15.895c0-16.078 11.142-29.02 24.982-29.02z"
      ></path>
      <path
        fill="#C89F7B"
        d="M44.82 136.769h.764c12.65 0 16.754-8.969 18.83 3.187l4.002 24.393c2.074 12.146-10.183 22.225-22.832 22.225h-.764c-12.648 0-24.905-10.079-22.832-22.225l4.423-24.393c2.076-12.156 5.76-3.187 18.41-3.187zM16.309 88.315c-3.864-1.025-8.515 1.122-9.366 7.155L4.3 106.364a34.58 34.58 0 00-.873 10.426l.712 10.562c.162 2.409-.035 4.837-.011 7.257.043 4.238 1.452 7.346 4.5 8.153 3.328.883 5.538-1.389 6.63-5.891.371-1.527.661-3.096 1.096-4.593l1.977-6.791c1.088-3.735 1.517-7.77 1.254-11.777l-.408-6.212c-.106-1.617-.093-3.241-.04-4.862.145-4.457.079-13.55-2.828-14.321z"
      ></path>
      <path
        fill="#C89F7B"
        d="M10.26 122.795l-.049-.002c-3.167-.134-5.913 4.685-6.134 10.763l-1.659 45.643c-.22 6.079 2.167 11.115 5.334 11.249l.05.002c3.166.134 5.912-4.685 6.133-10.764l1.659-45.643c.22-6.079-2.167-11.115-5.334-11.248z"
      ></path>
      <path
        fill="#C89F7B"
        d="M10.191 169.821l-1.99-.015c-3.814-.028-7.086 5.646-7.308 12.672l-.197 6.243c-.223 7.027 2.689 12.745 6.503 12.773l1.99.015c3.813.028 7.085-5.646 7.307-12.672l.198-6.243c.222-7.027-2.69-12.745-6.503-12.773z"
      ></path>
      <path
        fill="#C89F7B"
        d="M10.683 187.577c-.83-4.469-3.755-6.732-6.534-5.055-2.779 1.678-4.36 6.661-3.53 11.129l2.267 12.205c.83 4.468 3.755 6.731 6.534 5.053 2.779-1.677 4.359-6.659 3.53-11.128l-2.267-12.204z"
      ></path>
      <path
        fill="#BD8B60"
        d="M17.188 185.191c.094-3.115-1.18-5.651-2.846-5.666-1.665-.014-3.09 2.501-3.185 5.616l-.256 8.507c-.094 3.115 1.18 5.652 2.846 5.667 1.665.013 3.091-2.5 3.185-5.616l.256-8.508z"
      ></path>
      <path
        fill="#C89F7B"
        d="M73.59 88.315c3.863-1.025 8.515 1.122 9.366 7.155l2.642 10.894a34.582 34.582 0 01.875 10.426l-.713 10.562c-.162 2.409.035 4.837.01 7.257-.042 4.238-1.451 7.346-4.499 8.153-3.327.883-5.538-1.389-6.63-5.891-.372-1.527-.66-3.096-1.096-4.593l-1.977-6.791c-1.088-3.735-1.517-7.77-1.255-11.777l.409-6.212c.106-1.617.094-3.241.04-4.862-.145-4.457-.08-13.55 2.828-14.321z"
      ></path>
      <path
        fill="#C89F7B"
        d="M79.639 122.795l.05-.002c3.166-.134 5.912 4.685 6.133 10.763l1.66 45.643c.22 6.079-2.168 11.115-5.335 11.249l-.05.002c-3.165.134-5.912-4.685-6.133-10.764l-1.659-45.643c-.22-6.079 2.167-11.115 5.334-11.248z"
      ></path>
      <path
        fill="#C89F7B"
        d="M79.709 169.821l1.99-.015c3.813-.028 7.085 5.646 7.307 12.672l.198 6.243c.222 7.027-2.69 12.745-6.503 12.773l-1.99.015c-3.815.028-7.086-5.646-7.309-12.672l-.197-6.243c-.222-7.027 2.69-12.745 6.504-12.773z"
      ></path>
      <path
        fill="#C89F7B"
        d="M79.216 187.577c.83-4.469 3.755-6.732 6.534-5.055 2.78 1.678 4.359 6.661 3.53 11.129l-2.267 12.205c-.83 4.468-3.755 6.731-6.534 5.053-2.779-1.677-4.36-6.659-3.53-11.128l2.267-12.204z"
      ></path>
      <path
        fill="#BD8B60"
        d="M72.71 185.191c-.093-3.115 1.18-5.651 2.846-5.666 1.665-.014 3.091 2.501 3.185 5.616l.256 8.507c.094 3.115-1.18 5.652-2.846 5.667-1.665.013-3.091-2.5-3.185-5.616l-.256-8.508z"
      ></path>
      <path
        fill="#C89F7B"
        d="M16.16 80.638h57.688c5.717 0 10.32 5.88 10.32 13.183 0 7.304-4.603 13.183-10.32 13.183H16.16c-5.718 0-10.32-5.879-10.32-13.183s4.602-13.183 10.32-13.183z"
      ></path>
      <path
        fill="#C89F7B"
        d="M35.955 79.073h17.989c10.051 0 18.142 10.124 18.142 22.699 0 12.574-8.09 22.698-18.142 22.698H35.955c-10.05 0-18.142-10.124-18.142-22.698 0-12.575 8.091-22.699 18.142-22.699z"
      ></path>
      <path
        fill="#815848"
        fillOpacity="0.99"
        d="M45.427 107.004c2.34 0 4.224 2.584 4.224 5.792v5.372c0 3.209-1.884 5.792-4.224 5.792-2.341 0-4.226-2.583-4.226-5.792v-5.372c0-3.208 1.885-5.792 4.226-5.792z"
      ></path>
      <path
        fill="#C89F7B"
        d="M34.756 100.926c-1.117 0-2.154.397-3.017 1.077-2.87.221-5.56 1.705-7.524 4.15-1.965 2.445-3.059 5.669-3.059 9.018 0 3.5 1.194 6.858 3.32 9.333 2.124 2.475 5.007 3.865 8.012 3.865 2.738-.003 5.381-1.161 7.443-3.259 2.062-2.098 3.402-4.995 3.772-8.155.076-.433.117-.882.117-1.343v-8.202c0-3.592-2.435-6.484-5.46-6.484h-3.604zm16.784 0c-3.023 0-5.458 2.892-5.458 6.484v8.202c0 .461.04.91.117 1.343.37 3.16 1.71 6.057 3.771 8.155 2.062 2.098 4.706 3.256 7.444 3.259 3.005 0 5.887-1.39 8.012-3.865 2.125-2.475 3.32-5.833 3.32-9.333-.001-3.349-1.094-6.573-3.06-9.018-1.965-2.445-4.654-3.929-7.523-4.15-.864-.68-1.9-1.077-3.018-1.077H51.54z"
      ></path>
      <path
        fill="#BD8B60"
        d="M41.344 130.787H38.53a2.337 2.337 0 00-2.327 2.347v2.718a2.337 2.337 0 002.327 2.348h2.814a2.338 2.338 0 002.327-2.348v-2.718a2.337 2.337 0 00-2.327-2.347zM41.345 138.998H37.06a2.337 2.337 0 00-2.327 2.348v2.717a2.337 2.337 0 002.327 2.347h4.286a2.337 2.337 0 002.328-2.347v-2.717a2.337 2.337 0 00-2.328-2.348zM41.345 147.036H37.06a2.336 2.336 0 00-2.327 2.347v2.718a2.337 2.337 0 002.327 2.348h4.286a2.337 2.337 0 002.328-2.348v-2.718a2.336 2.336 0 00-2.328-2.347zM48.233 130.787h2.814a2.337 2.337 0 012.327 2.347v2.718a2.338 2.338 0 01-2.327 2.348h-2.814a2.337 2.337 0 01-2.327-2.348v-2.718a2.337 2.337 0 012.327-2.347zM48.231 138.998h4.287a2.338 2.338 0 012.327 2.348v2.717a2.337 2.337 0 01-2.327 2.347h-4.287a2.337 2.337 0 01-2.327-2.347v-2.717a2.338 2.338 0 012.327-2.348zM48.231 147.036h4.287a2.337 2.337 0 012.327 2.347v2.718a2.338 2.338 0 01-2.327 2.348h-4.287a2.338 2.338 0 01-2.327-2.348v-2.718a2.337 2.337 0 012.327-2.347z"
      ></path>
      <path
        fill="#4F4F4F"
        d="M23.357 156.729c1.207 23.263 10.474 41.27 21.59 41.27 11.264 0 21.19-17.569 22.205-41.27H23.357z"
      ></path>
      <path
        fill="#4B4B4B"
        d="M67.172 156.725l-21.462 4.563-.18 36.614 2.014 16.046h24.595c.15-29.684-.1-39.711-4.967-57.223zM23.37 156.691l21.97 4.58v36.627l-2.049 16.046H18.752c-.156-29.783-.39-39.683 4.618-57.253zM35.954 79.106h17.989c10.051 0 18.142 10.169 18.142 22.801 0 12.631-.35 29.258-17.77 26.24H35.954c-18.001 2.781-18.143-13.609-18.143-26.24 0-12.632 8.091-22.801 18.143-22.801z"
      ></path>
      <path
        fill="#4B4B4B"
        fillOpacity="0.99"
        d="M44.85 71.684c1.01 0 2.015.075 3.012.224 12.021 1.785 22.515 11.285 22.736 28.926l-.43 16.215-49.114-.248v-15.967c-.214-18.183 10.614-29.15 23.796-29.15z"
      ></path>
      <path
        fill="#4F4F4F"
        d="M23.357 156.729c1.207 23.263 10.474 41.27 21.59 41.27 11.264 0 21.19-17.569 22.205-41.27H23.357z"
      ></path>
      <path
        fill="#4B4B4B"
        d="M67.172 156.725l-21.462 4.563-.18 36.614 2.014 16.046h24.595c.15-29.684-.1-39.711-4.967-57.223zM23.37 156.691l21.97 4.58v36.627l-2.049 16.046H18.752c-.156-29.783-.39-39.683 4.618-57.253z"
      ></path>
      <path
        fill="#fff"
        d="M37.756 279.404H25.63c-.645 0-1.167.936-1.167 2.091v18.325c0 1.155.522 2.091 1.167 2.091h12.126c.644 0 1.167-.936 1.167-2.091v-18.325c0-1.155-.523-2.091-1.167-2.091z"
      ></path>
      <path
        fill="#4B4B4B"
        d="M32.367 285.857h-4.151c-.987 0-1.786 1.326-1.786 2.96v2.656c0 1.635.8 2.96 1.785 2.96h4.152c.987 0 1.786-1.325 1.786-2.96v-2.656c0-1.634-.8-2.96-1.786-2.96z"
      ></path>
      <path
        fill="#4F4F4F"
        d="M33.501 290.418h-6.12c-3.53 0-6.39 4.741-6.39 10.592 0 5.85 2.86 10.591 6.39 10.591h6.12c3.529 0 6.39-4.741 6.39-10.591 0-5.851-2.861-10.592-6.39-10.592z"
      ></path>
      <path
        fill="#4F4F4F"
        d="M38.14 300.04H22.88c-1.215 0-2.2 1.571-2.2 3.507v4.587c0 1.938.985 3.509 2.2 3.509h15.26c1.217 0 2.202-1.571 2.202-3.509v-4.587c0-1.936-.985-3.507-2.201-3.507z"
      ></path>
      <path
        fill="#fff"
        d="M39.424 307.205h-17.92c-.456 0-.824.591-.824 1.319v1.726c0 .728.369 1.32.825 1.32h17.92c.455 0 .823-.592.823-1.32v-1.726c0-.728-.368-1.319-.824-1.319zM32.805 290.95h-4.853c-.253 0-.458.34-.458.76 0 .418.205.758.458.758h4.853c.252 0 .458-.34.458-.758 0-.42-.206-.76-.458-.76z"
      ></path>
      <path
        fill="#585858"
        d="M34.454 295.836h-2.332c-.822 0-1.49 1.104-1.49 2.468 0 1.364.668 2.469 1.49 2.469h2.332c.822 0 1.488-1.105 1.488-2.469 0-1.364-.666-2.468-1.488-2.468z"
      ></path>
      <path
        fill="#fff"
        d="M32.805 293.379h-4.853c-.253 0-.458.34-.458.758 0 .419.205.759.458.759h4.853c.252 0 .458-.34.458-.759 0-.418-.206-.758-.458-.758zM65.355 279.403H53.46c-.632 0-1.145.937-1.145 2.092v18.324c0 1.155.513 2.092 1.145 2.092h11.895c.631 0 1.144-.937 1.144-2.092v-18.324c0-1.155-.513-2.092-1.144-2.092z"
      ></path>
      <path
        fill="#4B4B4B"
        d="M62.298 285.888h-4.1c-.973 0-1.763 1.326-1.763 2.959v2.657c0 1.634.79 2.96 1.764 2.96h4.099c.973 0 1.763-1.326 1.763-2.96v-2.657c0-1.633-.79-2.959-1.763-2.959z"
      ></path>
      <path
        fill="#4F4F4F"
        d="M63.373 290.418H57.33c-3.485 0-6.31 4.741-6.31 10.592 0 5.85 2.825 10.591 6.31 10.591h6.042c3.485 0 6.564-4.657 6.564-10.507 0-5.851-3.08-10.676-6.564-10.676z"
      ></path>
      <path
        fill="#4F4F4F"
        d="M67.997 300.04H52.93c-1.2 0-2.173 1.571-2.173 3.507v4.587c0 1.938.973 3.509 2.173 3.509h15.066c1.2 0 2.173-1.571 2.173-3.509v-4.587c0-1.936-.973-3.507-2.173-3.507z"
      ></path>
      <path
        fill="#fff"
        d="M69.346 307.205H51.424c-.455 0-.824.591-.824 1.319v1.726c0 .728.37 1.32.824 1.32h17.922c.455 0 .824-.592.824-1.32v-1.726c0-.728-.37-1.319-.824-1.319zM63.433 290.95h-4.791c-.25 0-.453.34-.453.76 0 .418.203.758.453.758h4.791c.25 0 .453-.34.453-.758 0-.42-.204-.76-.453-.76z"
      ></path>
      <path
        fill="#585858"
        d="M65.06 295.865h-2.3c-.813 0-1.47 1.106-1.47 2.469 0 1.363.657 2.468 1.47 2.468h2.3c.813 0 1.47-1.105 1.47-2.468s-.657-2.469-1.47-2.469z"
      ></path>
      <path
        fill="#fff"
        d="M63.433 293.407h-4.791c-.25 0-.453.341-.453.759 0 .419.203.759.453.759h4.791c.25 0 .453-.34.453-.759 0-.418-.204-.759-.453-.759z"
      ></path>
      <path
        fill="#C89F7B"
        d="M45.155 47.17c8.332 0 15.042 9.517 15.042 21.34v8.756c0 11.823-6.404 15.151-14.736 15.123-8.765-.029-15.348-3.3-15.348-15.123V68.51c0-11.823 6.709-21.34 15.042-21.34z"
      ></path>
      <path
        fill="#BD8B60"
        d="M42.888 48.865h4.532c5.217 0 9.417 5.872 9.417 13.167v5.402c0 7.294-4.2 13.167-9.418 13.167h-4.531c-5.217 0-9.417-5.873-9.417-13.167v-5.402c0-7.294 4.2-13.167 9.417-13.167zM35.151 86.362c-.586 0-1.057.55-1.057 1.231 0 .682.471 1.23 1.057 1.23h5.881l1.688 1.433c.475.403 1.136.282 1.483-.27.346-.553.242-1.322-.233-1.725l-1.748-1.483c-.018-.016-.038-.024-.056-.038a.986.986 0 00-.761-.378H35.15zm13.754 0c-.3 0-.569.145-.76.378-.02.014-.04.022-.057.038L46.34 88.26c-.475.403-.579 1.172-.232 1.724.346.553 1.007.674 1.481.27l1.689-1.432h5.88c.587 0 1.058-.548 1.058-1.23 0-.682-.471-1.23-1.057-1.23h-6.254z"
      ></path>
      <path
        fill="#C89F7B"
        d="M22.11 36.526h47.025a9.714 9.714 0 019.735 9.736 9.713 9.713 0 01-9.735 9.734H22.11a9.713 9.713 0 01-9.734-9.734 9.714 9.714 0 019.735-9.736z"
      ></path>
      <path
        fill="#BD8B60"
        d="M22.451 39.002h46.34a7.244 7.244 0 017.26 7.26 7.244 7.244 0 01-7.26 7.26h-46.34a7.244 7.244 0 01-7.26-7.26 7.244 7.244 0 017.26-7.26z"
      ></path>
      <path
        fill="#815848"
        d="M43.244 70.054h3.043c.245 0 .441.172.441.385v.227c0 .213-.196.385-.44.385h-3.044c-.245 0-.441-.172-.441-.385v-.227c0-.213.196-.385.44-.385z"
      ></path>
      <path
        fill="#757575"
        d="M34.957 84.934l.178 1.266a21.532 21.532 0 003.386 8.919 21.59 21.59 0 013.602 11.958v3.417c0 2.324-.245 4.641-.731 6.912l-1.638 7.662c-.081.385-.123.78-.123 1.176v5.121c0 3.609-4.47 5.149-6.59 2.27a3.785 3.785 0 01-.63-1.343l-.675-2.723a18.15 18.15 0 01-.188-7.884l.58-2.935c.31-1.563.465-3.154.465-4.75v-3.587c0-2.61-.788-5.154-2.258-7.284a12.799 12.799 0 01-2.17-5.77l-.04-.334a14.19 14.19 0 00-1.542-4.966l-1.518-2.876a22.092 22.092 0 00-1.926-3.023l-1.518-2.001a14.828 14.828 0 01-2.995-8.956c0-2.133-.456-4.24-1.336-6.175l-1.814-3.98a5.61 5.61 0 01-.501-2.318c0-3.024 2.387-5.473 5.33-5.473h7.511l1.657 3.762a8.141 8.141 0 01.238 5.953 8.145 8.145 0 00.512 6.512l2.528 4.706a20.247 20.247 0 012.206 6.744z"
      ></path>
      <path
        fill="#C89F7B"
        d="M40.337 9.164h10.57c8.786 0 22.682 12.405 22.682 24.603v17.309c0 12.199-13.024 25.55-22.354 25.55H40.01c-9.33 0-22.354-13.351-22.354-25.55V33.767c0-12.198 13.895-24.603 22.68-24.603z"
      ></path>
      <path
        fill="#757575"
        d="M41.153 6.358a27.518 27.518 0 00-27.579 27.579c0 5.8 1.776 11.167 4.81 15.6V37.814c0-4.37 2.176-8.768 5.331-12.473l11.969-.02a8.688 8.688 0 008.66-9.533h2.562a8.688 8.688 0 008.66 9.533l11.996.02c3.155 3.705 5.331 8.104 5.331 12.473v11.721a27.508 27.508 0 004.811-15.6 27.518 27.518 0 00-27.58-27.578h-8.971z"
      ></path>
      <path
        fill="#757575"
        d="M54.003.179H37.234a7.759 7.759 0 00-7.76 7.76v3.947a7.76 7.76 0 007.76 7.76h16.77a7.76 7.76 0 007.759-7.76V7.938a7.76 7.76 0 00-7.76-7.76z"
      ></path>
      <path
        fill="#757575"
        d="M22.864 12.037c6.7-3.38 16.445-5.217 20.546-5.604.886-.084 1.763.007 2.638.177l12.501 2.417a14.251 14.251 0 018.09 4.717l6.253 7.265a14.943 14.943 0 013.596 9.747v4.088c0 .587.137 1.165.401 1.688 1.9 3.754-2.889 7.273-5.74 4.217l-5.735-6.153a4.71 4.71 0 00-2.488-1.407l-18.572-3.871a13.971 13.971 0 00-2.873-.295l-9.673.015c-2.087.003-4.12.842-5.362 2.564-1.544 2.142-3.036 4.77-4.156 7.342-1.23 2.83-5.41 4.517-7.825 2.659a3.722 3.722 0 01-1.296-3.938c.093-.33.14-.67.14-1.015v-3.08c-.002-1.074.885-4.713 1.165-5.748 1.582-5.846 3.085-13.11 8.39-15.785z"
      ></path>
      <path
        fill="#BD8B60"
        d="M45.618 42.645c1.866 0 3.368 1.589 3.368 3.56v6.285c0 1.973-1.502 3.56-3.368 3.56-1.866 0-3.368-1.587-3.368-3.56v-6.284c0-1.972 1.502-3.56 3.368-3.56z"
      ></path>
      <path
        fill="#BD8B60"
        d="M51.231 52.013c0 1.572-1.33 2.835-2.982 2.835h-5.26c-1.652 0-2.981-1.264-2.981-2.835s1.33-2.835 2.981-2.835h5.26c1.652 0 2.982 1.264 2.982 2.835z"
      ></path>
      <path
        fill="#fff"
        d="M37.13 58.935c-.391 0-.766.125-1.042.348-.277.224-.432.528-.432.844v.897c0 1.772.63 3.395 1.745 4.632a6.388 6.388 0 004.731 2.114h6.844c1.929 0 3.616-.876 4.73-2.114 1.116-1.237 1.747-2.86 1.747-4.632v-.897c0-.316-.156-.62-.432-.844a1.671 1.671 0 00-1.043-.348H37.13z"
      ></path>
      <path
        fill="#4D4D4D"
        d="M28.999 34.932l9.473.773a1.862 1.862 0 011.708 2.01 1.862 1.862 0 01-2.01 1.709l-9.475-.773a1.862 1.862 0 01-1.708-2.01 1.862 1.862 0 012.012-1.709zM62.24 34.932l-9.473.773a1.862 1.862 0 00-1.708 2.01 1.862 1.862 0 002.011 1.709l9.475-.773a1.862 1.862 0 001.708-2.01 1.863 1.863 0 00-2.012-1.709z"
      ></path>
      <path
        fill="#61534B"
        d="M33.455 40.142h1.24c1.125 0 2.031.906 2.031 2.031v2.86c0 1.125-.906 2.03-2.031 2.03h-1.24a2.026 2.026 0 01-2.031-2.03v-2.86c0-1.125.906-2.031 2.031-2.031zM57.782 40.142h-1.239a2.027 2.027 0 00-2.031 2.031v2.86c0 1.125.905 2.03 2.031 2.03h1.24a2.026 2.026 0 002.03-2.03v-2.86a2.027 2.027 0 00-2.03-2.031z"
      ></path>
    </svg>