<svg width="575" height="576" viewBox="0 0 575 576" fill="none" xmlns="http://www.w3.org/2000/svg">
<path d="M283.321 540.54C283.321 538.04 283.32 538.04 283.319 538.04H283.312H283.282L283.162 538.04L283.007 538.04C282.918 538.039 282.811 538.039 282.685 538.039C282.474 538.038 282.212 538.037 281.901 538.036C281.587 538.034 281.222 538.032 280.808 538.029C279.16 538.019 276.732 537.997 273.62 537.954C267.395 537.868 258.434 537.695 247.497 537.351C225.619 536.661 195.846 535.282 164.252 532.525C132.647 529.767 99.2728 525.634 70.1751 519.449C41.8462 513.427 17.9321 505.529 3.57494 495.301C45.4544 314.597 99.8485 150.818 285.612 4.17856C468.257 150.997 519.591 325.824 561.868 469.806C564.359 478.289 566.819 486.666 569.272 494.923C568.617 495.196 567.801 495.53 566.824 495.92C563.828 497.113 559.32 498.825 553.303 500.883C541.271 505 523.208 510.5 499.157 516.005C451.056 527.013 378.997 538.04 283.321 538.04V540.54Z" fill="white" stroke="black" stroke-width="5"/>
<path d="M546.556 502.965L305.302 363.851L325.21 351.683L325.21 329.904L346.736 341.291L560.725 466.022L568.319 494.582L546.556 502.965Z" fill="#DCB051"/>
<path d="M283.321 540.54C283.321 538.04 283.32 538.04 283.319 538.04H283.312H283.282L283.162 538.04L283.007 538.04C282.918 538.039 282.811 538.039 282.685 538.039C282.474 538.038 282.212 538.037 281.901 538.036C281.587 538.034 281.222 538.032 280.808 538.029C279.16 538.019 276.732 537.997 273.62 537.954C267.395 537.868 258.434 537.695 247.497 537.351C225.619 536.661 195.846 535.282 164.252 532.525C132.647 529.767 99.2728 525.634 70.1751 519.449C41.8462 513.427 17.9321 505.529 3.57494 495.301C45.4544 314.597 99.8485 150.818 285.612 4.17856C468.257 150.997 519.591 325.824 561.868 469.806C564.359 478.289 566.819 486.666 569.272 494.923C568.617 495.196 567.801 495.53 566.824 495.92C563.828 497.113 559.32 498.825 553.303 500.883C541.271 505 523.208 510.5 499.157 516.005C451.056 527.013 378.997 538.04 283.321 538.04V540.54Z" stroke="black" stroke-width="5"/>
<path d="M266.451 19.0625L266.451 536.246" stroke="black" stroke-width="5"/>
<path d="M304.588 19.0625L304.588 536.245" stroke="black" stroke-width="5"/>
<path d="M459.348 203.706L8.54592 469.666" stroke="black" stroke-width="5"/>
<path d="M475.064 238.433L26.1793 506.329" stroke="black" stroke-width="5"/>
<path d="M545.898 502.564L91.9308 237.284" stroke="black" stroke-width="5"/>
<path d="M560.927 466.133L108.437 203.309" stroke="black" stroke-width="5"/>
<path d="M246.37 305.87L285.853 283.075L325.335 305.87V351.46L285.853 374.255L246.37 351.46V305.87Z" fill="white" stroke="black" stroke-width="5.60993"/>
<path d="M122.038 432.254L115.527 419.747L120.991 416.903C122.304 416.219 123.472 415.98 124.495 416.184C125.512 416.376 126.285 416.98 126.814 417.998C127.165 418.672 127.295 419.34 127.205 420.004C127.114 420.667 126.826 421.268 126.34 421.807C127.154 421.639 127.889 421.707 128.544 422.013C129.204 422.3 129.735 422.828 130.135 423.597C130.714 424.709 130.785 425.769 130.348 426.778C129.917 427.769 129.033 428.612 127.697 429.308L122.038 432.254ZM120.47 423.916L123.362 422.41C124.911 421.604 125.375 420.603 124.753 419.409C124.131 418.214 123.046 418.02 121.496 418.827L118.605 420.332L120.47 423.916ZM123.324 429.397L126.517 427.735C128.078 426.922 128.532 425.889 127.88 424.636C127.227 423.382 126.12 423.161 124.559 423.974L121.366 425.636L123.324 429.397ZM134.251 425.896L127.741 413.389L136.061 409.058L137.003 410.867L130.865 414.063L132.656 417.504L138.404 414.512L139.346 416.322L133.598 419.314L135.491 422.951L141.629 419.755L142.571 421.565L134.251 425.896ZM144.624 420.496L140.108 411.822L142.272 410.695L142.974 412.043C143.011 411.392 143.21 410.808 143.571 410.289C143.945 409.764 144.445 409.338 145.071 409.012C147.117 407.947 148.759 408.603 149.997 410.98L152.749 416.267L150.531 417.421L147.835 412.241C147.484 411.567 147.098 411.144 146.678 410.972C146.269 410.794 145.799 410.843 145.267 411.12C144.616 411.459 144.204 411.937 144.029 412.554C143.86 413.153 143.951 413.789 144.302 414.464L146.841 419.342L144.624 420.496Z" fill="black"/>
<path d="M157.872 488.133V474.033H167.252V476.073H160.332V479.953H166.812V481.993H160.332V486.093H167.252V488.133H157.872ZM174.027 488.333C173 488.333 172.107 488.127 171.347 487.713C170.587 487.287 170 486.687 169.587 485.913C169.174 485.14 168.967 484.233 168.967 483.193C168.967 482.153 169.174 481.26 169.587 480.513C170 479.753 170.587 479.173 171.347 478.773C172.107 478.36 173 478.153 174.027 478.153C174.654 478.153 175.274 478.253 175.887 478.453C176.5 478.653 177.007 478.933 177.407 479.293L176.667 481.033C176.32 480.727 175.927 480.493 175.487 480.333C175.06 480.173 174.647 480.093 174.247 480.093C173.38 480.093 172.707 480.367 172.227 480.913C171.76 481.447 171.527 482.213 171.527 483.213C171.527 484.2 171.76 484.98 172.227 485.553C172.707 486.113 173.38 486.393 174.247 486.393C174.634 486.393 175.047 486.313 175.487 486.153C175.927 485.993 176.32 485.753 176.667 485.433L177.407 487.193C177.007 487.54 176.494 487.82 175.867 488.033C175.254 488.233 174.64 488.333 174.027 488.333ZM179.181 488.133V474.033H188.561V476.073H181.641V479.953H188.121V481.993H181.641V486.093H188.561V488.133H179.181ZM190.874 488.133V478.353H193.314V479.873C193.648 479.313 194.094 478.887 194.654 478.593C195.228 478.3 195.868 478.153 196.574 478.153C198.881 478.153 200.034 479.493 200.034 482.173V488.133H197.534V482.293C197.534 481.533 197.388 480.98 197.094 480.633C196.814 480.287 196.374 480.113 195.774 480.113C195.041 480.113 194.454 480.347 194.014 480.813C193.588 481.267 193.374 481.873 193.374 482.633V488.133H190.874Z" fill="black"/>
<path d="M98.2323 336.686V322.586H100.372L105.372 331.806L110.352 322.586H112.452V336.686H110.132V327.186L106.092 334.546H104.592L100.552 327.226V336.686H98.2323ZM115.556 336.686V322.586H124.936V324.626H118.016V328.506H124.496V330.546H118.016V334.646H124.936V336.686H115.556ZM127.249 336.686V326.906H129.689V328.426C130.023 327.866 130.469 327.439 131.029 327.146C131.603 326.853 132.243 326.706 132.949 326.706C135.256 326.706 136.409 328.046 136.409 330.726V336.686H133.909V330.846C133.909 330.086 133.763 329.533 133.469 329.186C133.189 328.839 132.749 328.666 132.149 328.666C131.416 328.666 130.829 328.899 130.389 329.366C129.963 329.819 129.749 330.426 129.749 331.186V336.686H127.249Z" fill="black"/>
<path d="M293.037 476.9H278.937V467.52H280.977V474.44H284.857V467.96H286.897V474.44H290.997V467.52H293.037V476.9ZM293.037 465.206H283.257L283.257 462.766H284.777C284.217 462.433 283.79 461.986 283.497 461.426C283.204 460.853 283.057 460.213 283.057 459.506C283.057 457.2 284.397 456.046 287.077 456.046H293.037V458.546H287.197C286.437 458.546 285.884 458.693 285.537 458.986C285.19 459.266 285.017 459.706 285.017 460.306C285.017 461.04 285.25 461.626 285.717 462.066C286.17 462.493 286.777 462.706 287.537 462.706H293.037V465.206ZM288.677 453.447H286.677V447.487H288.677V453.447ZM293.037 444.595H278.937V435.215H280.977V442.135H284.857V435.655H286.897V442.135H290.997V435.215H293.037V444.595ZM293.237 428.44C293.237 429.467 293.03 430.36 292.617 431.12C292.19 431.88 291.59 432.467 290.817 432.88C290.044 433.294 289.137 433.5 288.097 433.5C287.057 433.5 286.164 433.294 285.417 432.88C284.657 432.467 284.077 431.88 283.677 431.12C283.264 430.36 283.057 429.467 283.057 428.44C283.057 427.814 283.157 427.194 283.357 426.58C283.557 425.967 283.837 425.46 284.197 425.06L285.937 425.8C285.63 426.147 285.397 426.54 285.237 426.98C285.077 427.407 284.997 427.82 284.997 428.22C284.997 429.087 285.27 429.76 285.817 430.24C286.35 430.707 287.117 430.94 288.117 430.94C289.104 430.94 289.884 430.707 290.457 430.24C291.017 429.76 291.297 429.087 291.297 428.22C291.297 427.834 291.217 427.42 291.057 426.98C290.897 426.54 290.657 426.147 290.337 425.8L292.097 425.06C292.444 425.46 292.724 425.974 292.937 426.6C293.137 427.214 293.237 427.827 293.237 428.44Z" fill="black"/>
<path d="M374.229 283.833L367.179 271.622L369.032 270.552L377.972 276.037L377.675 265.562L379.494 264.512L386.544 276.723L384.534 277.883L379.784 269.656L379.966 278.05L378.667 278.8L371.508 274.48L376.238 282.673L374.229 283.833ZM386.895 271.485L385.895 269.753L391.057 266.773L392.057 268.505L386.895 271.485ZM396.741 270.835L389.691 258.624L397.814 253.934L398.834 255.701L392.842 259.161L394.782 262.521L400.393 259.281L401.413 261.048L395.802 264.288L397.852 267.839L403.844 264.379L404.864 266.145L396.741 270.835ZM410.832 262.931C409.943 263.444 409.066 263.712 408.201 263.734C407.329 263.745 406.521 263.518 405.777 263.055C405.032 262.592 404.4 261.91 403.88 261.01C403.36 260.109 403.092 259.232 403.077 258.379C403.055 257.514 403.273 256.718 403.731 255.992C404.182 255.254 404.853 254.628 405.742 254.115C406.284 253.802 406.871 253.578 407.503 253.445C408.134 253.311 408.713 253.3 409.239 253.412L409.468 255.289C409.015 255.197 408.557 255.191 408.096 255.273C407.647 255.348 407.249 255.485 406.902 255.685C406.152 256.118 405.705 256.692 405.563 257.405C405.425 258.1 405.607 258.881 406.107 259.747C406.6 260.601 407.192 261.16 407.883 261.423C408.579 261.668 409.302 261.574 410.052 261.141C410.387 260.948 410.705 260.672 411.006 260.313C411.307 259.954 411.528 259.55 411.668 259.1L413.189 260.254C413.016 260.754 412.711 261.253 412.275 261.751C411.844 262.231 411.363 262.624 410.832 262.931Z" fill="black"/>
<path d="M155.167 258.188L162.217 245.977L164.071 247.047L163.791 257.532L172.714 252.037L174.532 253.087L167.482 265.298L165.473 264.138L170.223 255.911L163.044 260.265L161.745 259.515L161.907 251.156L157.177 259.348L155.167 258.188ZM172.194 262.984L173.194 261.252L178.355 264.232L177.355 265.964L172.194 262.984ZM177.68 271.186L184.73 258.975L192.853 263.665L191.833 265.432L185.84 261.972L183.9 265.332L189.512 268.572L188.492 270.338L182.88 267.098L180.83 270.649L186.823 274.109L185.803 275.876L177.68 271.186ZM187.807 277.033L192.697 268.563L194.81 269.783L194.05 271.099C194.619 270.781 195.219 270.635 195.85 270.661C196.494 270.693 197.121 270.886 197.733 271.24C199.731 272.393 200.06 274.13 198.72 276.451L195.74 281.613L193.575 280.363L196.495 275.305C196.875 274.647 197.024 274.094 196.943 273.647C196.874 273.207 196.58 272.837 196.06 272.537C195.425 272.17 194.8 272.079 194.186 272.263C193.59 272.443 193.102 272.861 192.722 273.52L189.972 278.283L187.807 277.033Z" fill="black"/>
<path d="M354.657 487.133V473.033H364.037V475.073H357.117V478.953H363.597V480.993H357.117V485.093H364.037V487.133H354.657ZM366.351 487.133V477.353H368.791V478.873C369.124 478.313 369.571 477.887 370.131 477.593C370.704 477.3 371.344 477.153 372.051 477.153C374.357 477.153 375.511 478.493 375.511 481.173V487.133H373.011V481.293C373.011 480.533 372.864 479.98 372.571 479.633C372.291 479.287 371.851 479.113 371.251 479.113C370.517 479.113 369.931 479.347 369.491 479.813C369.064 480.267 368.851 480.873 368.851 481.633V487.133H366.351ZM378.29 487.133V473.033H387.67V475.073H380.75V478.953H387.23V480.993H380.75V485.093H387.67V487.133H378.29ZM394.445 487.333C393.418 487.333 392.525 487.127 391.765 486.713C391.005 486.287 390.418 485.687 390.005 484.913C389.592 484.14 389.385 483.233 389.385 482.193C389.385 481.153 389.592 480.26 390.005 479.513C390.418 478.753 391.005 478.173 391.765 477.773C392.525 477.36 393.418 477.153 394.445 477.153C395.072 477.153 395.692 477.253 396.305 477.453C396.918 477.653 397.425 477.933 397.825 478.293L397.085 480.033C396.738 479.727 396.345 479.493 395.905 479.333C395.478 479.173 395.065 479.093 394.665 479.093C393.798 479.093 393.125 479.367 392.645 479.913C392.178 480.447 391.945 481.213 391.945 482.213C391.945 483.2 392.178 483.98 392.645 484.553C393.125 485.113 393.798 485.393 394.665 485.393C395.052 485.393 395.465 485.313 395.905 485.153C396.345 484.993 396.738 484.753 397.085 484.433L397.825 486.193C397.425 486.54 396.912 486.82 396.285 487.033C395.672 487.233 395.058 487.333 394.445 487.333Z" fill="black"/>
<path d="M433.799 333.718V319.618H435.939L440.939 328.838L445.919 319.618H448.019V333.718H445.699V324.218L441.659 331.578H440.159L436.119 324.258V333.718H433.799ZM451.122 333.718V319.618H460.502V321.658H453.582V325.538H460.062V327.578H453.582V331.678H460.502V333.718H451.122ZM467.277 333.918C466.25 333.918 465.357 333.711 464.597 333.298C463.837 332.871 463.25 332.271 462.837 331.498C462.424 330.724 462.217 329.818 462.217 328.778C462.217 327.738 462.424 326.844 462.837 326.098C463.25 325.338 463.837 324.758 464.597 324.358C465.357 323.944 466.25 323.738 467.277 323.738C467.904 323.738 468.524 323.838 469.137 324.038C469.75 324.238 470.257 324.518 470.657 324.878L469.917 326.618C469.57 326.311 469.177 326.078 468.737 325.918C468.31 325.758 467.897 325.678 467.497 325.678C466.63 325.678 465.957 325.951 465.477 326.498C465.01 327.031 464.777 327.798 464.777 328.798C464.777 329.784 465.01 330.564 465.477 331.138C465.957 331.698 466.63 331.978 467.497 331.978C467.884 331.978 468.297 331.898 468.737 331.738C469.177 331.578 469.57 331.338 469.917 331.018L470.657 332.778C470.257 333.124 469.744 333.404 469.117 333.618C468.504 333.818 467.89 333.918 467.277 333.918Z" fill="black"/>
<path d="M336.386 171.531V157.431H345.766V159.471H338.846V163.351H345.326V165.391H338.846V169.491H345.766V171.531H336.386ZM352.541 171.731C351.514 171.731 350.621 171.525 349.861 171.111C349.101 170.685 348.514 170.085 348.101 169.311C347.687 168.538 347.481 167.631 347.481 166.591C347.481 165.551 347.687 164.658 348.101 163.911C348.514 163.151 349.101 162.571 349.861 162.171C350.621 161.758 351.514 161.551 352.541 161.551C353.167 161.551 353.787 161.651 354.401 161.851C355.014 162.051 355.521 162.331 355.921 162.691L355.181 164.431C354.834 164.125 354.441 163.891 354.001 163.731C353.574 163.571 353.161 163.491 352.761 163.491C351.894 163.491 351.221 163.765 350.741 164.311C350.274 164.845 350.041 165.611 350.041 166.611C350.041 167.598 350.274 168.378 350.741 168.951C351.221 169.511 351.894 169.791 352.761 169.791C353.147 169.791 353.561 169.711 354.001 169.551C354.441 169.391 354.834 169.151 355.181 168.831L355.921 170.591C355.521 170.938 355.007 171.218 354.381 171.431C353.767 171.631 353.154 171.731 352.541 171.731ZM357.734 171.531V157.431H359.874L364.874 166.651L369.854 157.431H371.954V171.531H369.634V162.031L365.594 169.391H364.094L360.054 162.071V171.531H357.734Z" fill="black"/>
<path d="M182.345 171.531V157.431H191.725V159.471H184.805V163.351H191.285V165.391H184.805V169.491H191.725V171.531H182.345ZM194.038 171.531V161.751H196.478V163.271C196.812 162.711 197.258 162.285 197.818 161.991C198.392 161.698 199.032 161.551 199.738 161.551C202.045 161.551 203.198 162.891 203.198 165.571V171.531H200.698V165.691C200.698 164.931 200.552 164.378 200.258 164.031C199.978 163.685 199.538 163.511 198.938 163.511C198.205 163.511 197.618 163.745 197.178 164.211C196.752 164.665 196.538 165.271 196.538 166.031V171.531H194.038ZM206.018 171.531V157.431H208.158L213.158 166.651L218.138 157.431H220.238V171.531H217.918V162.031L213.878 169.391H212.378L208.338 162.071V171.531H206.018Z" fill="black"/>
<path d="M292.184 179.058H278.084V172.898C278.084 171.418 278.41 170.271 279.064 169.458C279.704 168.645 280.597 168.238 281.744 168.238C282.504 168.238 283.157 168.431 283.704 168.818C284.25 169.205 284.65 169.738 284.904 170.418C285.13 169.618 285.53 168.998 286.104 168.558C286.664 168.105 287.377 167.878 288.244 167.878C289.497 167.878 290.47 168.305 291.164 169.158C291.844 169.998 292.184 171.171 292.184 172.678V179.058ZM284.064 176.598V173.338C284.064 171.591 283.39 170.718 282.044 170.718C280.697 170.718 280.024 171.591 280.024 173.338V176.598H284.064ZM290.244 176.598V172.998C290.244 171.238 289.537 170.358 288.124 170.358C286.71 170.358 286.004 171.238 286.004 172.998V176.598H290.244ZM292.184 165.249H278.084V163.109L287.304 158.109L278.084 153.129V151.029H292.184V153.349H282.684L290.044 157.389V158.889L282.724 162.929H292.184V165.249Z" fill="black"/>
<path d="M287.186 333.918C285.719 333.918 284.459 333.624 283.406 333.038C282.366 332.438 281.566 331.598 281.006 330.518C280.446 329.424 280.166 328.138 280.166 326.658C280.166 325.178 280.446 323.898 281.006 322.818C281.566 321.738 282.366 320.904 283.406 320.318C284.459 319.718 285.719 319.418 287.186 319.418C288.133 319.418 289.026 319.564 289.866 319.858C290.719 320.151 291.419 320.571 291.966 321.118L291.126 323.158C290.526 322.651 289.913 322.284 289.286 322.058C288.659 321.818 287.986 321.698 287.266 321.698C285.839 321.698 284.753 322.131 284.006 322.998C283.259 323.851 282.886 325.071 282.886 326.658C282.886 328.244 283.259 329.471 284.006 330.338C284.753 331.204 285.839 331.638 287.266 331.638C287.986 331.638 288.659 331.524 289.286 331.298C289.913 331.058 290.526 330.684 291.126 330.178L291.966 332.218C291.419 332.751 290.719 333.171 289.866 333.478C289.026 333.771 288.133 333.918 287.186 333.918Z" fill="black"/>
<path d="M411.977 410.694L419.027 398.483L424.362 401.563C425.643 402.303 426.473 403.159 426.851 404.131C427.235 405.092 427.141 406.069 426.567 407.062C426.187 407.721 425.693 408.19 425.085 408.47C424.477 408.75 423.815 408.83 423.099 408.709C423.679 409.305 424.016 409.962 424.11 410.678C424.223 411.39 424.063 412.121 423.629 412.872C423.003 413.957 422.146 414.587 421.061 414.76C419.993 414.929 418.807 414.637 417.502 413.884L411.977 410.694ZM418.167 404.892L420.991 406.522C422.503 407.395 423.596 407.248 424.27 406.082C424.943 404.916 424.523 403.896 423.011 403.023L420.187 401.393L418.167 404.892ZM415.077 410.244L418.195 412.044C419.719 412.924 420.835 412.752 421.541 411.528C422.248 410.304 421.839 409.252 420.315 408.372L417.197 406.572L415.077 410.244ZM423.902 417.578L430.952 405.367L439.075 410.057L438.055 411.824L432.062 408.364L430.122 411.724L435.734 414.964L434.714 416.731L429.102 413.491L427.052 417.042L433.045 420.502L432.025 422.268L423.902 417.578ZM437.792 425.829C436.903 425.316 436.233 424.69 435.781 423.952C435.337 423.203 435.129 422.39 435.157 421.513C435.186 420.637 435.46 419.748 435.98 418.848C436.5 417.947 437.126 417.277 437.857 416.837C438.595 416.385 439.393 416.176 440.251 416.21C441.116 416.232 441.993 416.5 442.882 417.013C443.425 417.326 443.912 417.723 444.343 418.203C444.774 418.683 445.073 419.178 445.24 419.69L443.729 420.827C443.582 420.388 443.358 419.989 443.057 419.631C442.767 419.279 442.449 419.003 442.103 418.803C441.352 418.37 440.633 418.27 439.944 418.503C439.273 418.732 438.687 419.279 438.187 420.145C437.694 421 437.506 421.792 437.624 422.522C437.759 423.247 438.202 423.826 438.953 424.259C439.288 424.452 439.686 424.59 440.147 424.671C440.608 424.753 441.068 424.741 441.529 424.638L441.29 426.532C440.77 426.632 440.185 426.618 439.536 426.489C438.905 426.356 438.324 426.136 437.792 425.829Z" fill="white"/>
</svg>
