<svg width="573" height="540" viewBox="0 0 573 540" fill="none" xmlns="http://www.w3.org/2000/svg">
<path d="M283.186 539.555C283.186 537.055 283.185 537.055 283.184 537.055H283.177H283.147L283.027 537.055L282.873 537.055C282.784 537.055 282.676 537.054 282.55 537.054C282.339 537.053 282.077 537.052 281.766 537.051C281.452 537.049 281.087 537.047 280.673 537.044C279.025 537.034 276.597 537.012 273.485 536.969C267.26 536.883 258.3 536.711 247.362 536.366C225.484 535.676 195.711 534.297 164.117 531.54C132.512 528.782 99.138 524.65 70.0404 518.464C41.7114 512.442 17.7973 504.544 3.44018 494.316C45.3196 313.612 99.7138 149.834 285.478 3.19369C468.122 150.012 519.456 324.839 561.733 468.821C564.224 477.305 566.684 485.681 569.137 493.939C568.482 494.212 567.666 494.546 566.69 494.935C563.694 496.128 559.185 497.84 553.169 499.898C541.136 504.015 523.073 509.515 499.022 515.02C450.921 526.028 378.863 537.055 283.186 537.055V539.555Z" fill="white" stroke="black" stroke-width="5"/>
<path d="M244.753 328.895L246.573 350.051L263.83 360.54L188.103 408.381L144.627 435.17L101.59 459.762L24.6872 505.253L3.21875 492.69L11.5528 466.161L127.5 398.496L244.753 328.895Z" fill="#6C4D7B"/>
<path d="M283.186 539.555C283.186 537.055 283.185 537.055 283.184 537.055H283.177H283.147L283.027 537.055L282.873 537.055C282.784 537.055 282.676 537.054 282.55 537.054C282.339 537.053 282.077 537.052 281.766 537.051C281.452 537.049 281.087 537.047 280.673 537.044C279.025 537.034 276.597 537.012 273.485 536.969C267.26 536.883 258.3 536.711 247.362 536.366C225.484 535.676 195.711 534.297 164.117 531.54C132.512 528.782 99.138 524.65 70.0404 518.464C41.7114 512.442 17.7973 504.544 3.44018 494.316C45.3196 313.612 99.7138 149.834 285.478 3.19369C468.122 150.012 519.456 324.839 561.733 468.821C564.224 477.305 566.684 485.681 569.137 493.939C568.482 494.212 567.666 494.546 566.69 494.935C563.694 496.128 559.185 497.84 553.169 499.898C541.136 504.015 523.073 509.515 499.022 515.02C450.921 526.028 378.863 537.055 283.186 537.055V539.555Z" stroke="black" stroke-width="5"/>
<path d="M266.316 18.0774L266.316 535.261" stroke="black" stroke-width="5"/>
<path d="M304.453 18.0774L304.453 535.26" stroke="black" stroke-width="5"/>
<path d="M459.213 202.721L8.41115 468.681" stroke="black" stroke-width="5"/>
<path d="M474.93 237.448L26.0445 505.344" stroke="black" stroke-width="5"/>
<path d="M545.763 501.579L91.796 236.299" stroke="black" stroke-width="5"/>
<path d="M560.792 465.149L108.303 202.324" stroke="black" stroke-width="5"/>
<path d="M246.235 304.885L285.718 282.09L325.2 304.885V350.475L285.718 373.27L246.235 350.475V304.885Z" fill="white" stroke="black" stroke-width="5.60993"/>
<path d="M121.903 431.269L115.392 418.762L120.856 415.918C122.169 415.235 123.337 414.995 124.36 415.199C125.377 415.391 126.15 415.996 126.68 417.013C127.031 417.687 127.161 418.356 127.07 419.019C126.98 419.682 126.691 420.284 126.205 420.822C127.019 420.654 127.754 420.722 128.409 421.028C129.07 421.315 129.6 421.843 130 422.612C130.579 423.724 130.65 424.784 130.213 425.793C129.782 426.784 128.898 427.628 127.562 428.323L121.903 431.269ZM120.335 422.931L123.227 421.425C124.776 420.619 125.24 419.618 124.618 418.424C123.997 417.229 122.911 417.035 121.362 417.842L118.47 419.347L120.335 422.931ZM123.189 428.412L126.382 426.75C127.943 425.937 128.398 424.904 127.745 423.651C127.093 422.397 125.986 422.177 124.424 422.989L121.231 424.652L123.189 428.412ZM134.117 424.911L127.606 412.404L135.926 408.073L136.868 409.883L130.73 413.078L132.521 416.519L138.269 413.527L139.211 415.337L133.463 418.329L135.357 421.966L141.495 418.77L142.437 420.58L134.117 424.911ZM144.489 419.512L139.973 410.837L142.137 409.71L142.839 411.058C142.876 410.408 143.075 409.823 143.437 409.304C143.81 408.779 144.31 408.354 144.937 408.027C146.983 406.962 148.624 407.618 149.862 409.995L152.614 415.282L150.396 416.436L147.7 411.256C147.349 410.582 146.963 410.159 146.543 409.987C146.135 409.809 145.664 409.858 145.132 410.135C144.482 410.474 144.069 410.952 143.894 411.569C143.725 412.168 143.816 412.805 144.167 413.479L146.706 418.357L144.489 419.512Z" fill="white"/>
<path d="M157.737 487.148V473.048H167.117V475.088H160.197V478.968H166.677V481.008H160.197V485.108H167.117V487.148H157.737ZM173.892 487.348C172.866 487.348 171.972 487.142 171.212 486.728C170.452 486.302 169.866 485.702 169.452 484.928C169.039 484.155 168.832 483.248 168.832 482.208C168.832 481.168 169.039 480.275 169.452 479.528C169.866 478.768 170.452 478.188 171.212 477.788C171.972 477.375 172.866 477.168 173.892 477.168C174.519 477.168 175.139 477.268 175.752 477.468C176.366 477.668 176.872 477.948 177.272 478.308L176.532 480.048C176.186 479.742 175.792 479.508 175.352 479.348C174.926 479.188 174.512 479.108 174.112 479.108C173.246 479.108 172.572 479.382 172.092 479.928C171.626 480.462 171.392 481.228 171.392 482.228C171.392 483.215 171.626 483.995 172.092 484.568C172.572 485.128 173.246 485.408 174.112 485.408C174.499 485.408 174.912 485.328 175.352 485.168C175.792 485.008 176.186 484.768 176.532 484.448L177.272 486.208C176.872 486.555 176.359 486.835 175.732 487.048C175.119 487.248 174.506 487.348 173.892 487.348ZM179.046 487.148V473.048H188.426V475.088H181.506V478.968H187.986V481.008H181.506V485.108H188.426V487.148H179.046ZM190.739 487.148V477.368H193.179V478.888C193.513 478.328 193.959 477.902 194.519 477.608C195.093 477.315 195.733 477.168 196.439 477.168C198.746 477.168 199.899 478.508 199.899 481.188V487.148H197.399V481.308C197.399 480.548 197.253 479.995 196.959 479.648C196.679 479.302 196.239 479.128 195.639 479.128C194.906 479.128 194.319 479.362 193.879 479.828C193.453 480.282 193.239 480.888 193.239 481.648V487.148H190.739Z" fill="black"/>
<path d="M98.0976 335.701V321.601H100.238L105.238 330.821L110.218 321.601H112.318V335.701H109.998V326.201L105.958 333.561H104.458L100.418 326.241V335.701H98.0976ZM115.421 335.701V321.601H124.801V323.641H117.881V327.521H124.361V329.561H117.881V333.661H124.801V335.701H115.421ZM127.114 335.701V325.921H129.554V327.441C129.888 326.881 130.334 326.455 130.894 326.161C131.468 325.868 132.108 325.721 132.814 325.721C135.121 325.721 136.274 327.061 136.274 329.741V335.701H133.774V329.861C133.774 329.101 133.628 328.548 133.334 328.201C133.054 327.855 132.614 327.681 132.014 327.681C131.281 327.681 130.694 327.915 130.254 328.381C129.828 328.835 129.614 329.441 129.614 330.201V335.701H127.114Z" fill="black"/>
<path d="M292.902 475.915H278.802V466.535H280.842V473.455H284.722V466.975H286.762V473.455H290.862V466.535H292.902V475.915ZM292.902 464.221H283.122L283.122 461.781H284.642C284.082 461.448 283.656 461.001 283.362 460.441C283.069 459.868 282.922 459.228 282.922 458.521C282.922 456.215 284.262 455.061 286.942 455.061H292.902V457.561H287.062C286.302 457.561 285.749 457.708 285.402 458.001C285.056 458.281 284.882 458.721 284.882 459.321C284.882 460.055 285.116 460.641 285.582 461.081C286.036 461.508 286.642 461.721 287.402 461.721H292.902V464.221ZM288.542 452.462H286.542V446.502H288.542V452.462ZM292.902 443.61H278.802V434.23H280.842V441.15H284.722V434.67H286.762V441.15H290.862V434.23H292.902V443.61ZM293.102 427.455C293.102 428.482 292.896 429.375 292.482 430.135C292.056 430.895 291.456 431.482 290.682 431.895C289.909 432.309 289.002 432.515 287.962 432.515C286.922 432.515 286.029 432.309 285.282 431.895C284.522 431.482 283.942 430.895 283.542 430.135C283.129 429.375 282.922 428.482 282.922 427.455C282.922 426.829 283.022 426.209 283.222 425.595C283.422 424.982 283.702 424.475 284.062 424.075L285.802 424.815C285.496 425.162 285.262 425.555 285.102 425.995C284.942 426.422 284.862 426.835 284.862 427.235C284.862 428.102 285.136 428.775 285.682 429.255C286.216 429.722 286.982 429.955 287.982 429.955C288.969 429.955 289.749 429.722 290.322 429.255C290.882 428.775 291.162 428.102 291.162 427.235C291.162 426.849 291.082 426.435 290.922 425.995C290.762 425.555 290.522 425.162 290.202 424.815L291.962 424.075C292.309 424.475 292.589 424.989 292.802 425.615C293.002 426.229 293.102 426.842 293.102 427.455Z" fill="black"/>
<path d="M374.094 282.848L367.044 270.637L368.897 269.567L377.837 275.052L377.54 264.577L379.359 263.527L386.409 275.738L384.4 276.898L379.65 268.671L379.831 277.065L378.532 277.815L371.373 273.495L376.103 281.688L374.094 282.848ZM386.76 270.5L385.76 268.768L390.922 265.788L391.922 267.52L386.76 270.5ZM396.606 269.85L389.556 257.639L397.68 252.949L398.7 254.716L392.707 258.176L394.647 261.536L400.259 258.296L401.279 260.063L395.667 263.303L397.717 266.854L403.71 263.394L404.73 265.16L396.606 269.85ZM410.697 261.946C409.808 262.459 408.931 262.727 408.066 262.749C407.195 262.76 406.386 262.533 405.642 262.07C404.897 261.607 404.265 260.925 403.745 260.025C403.225 259.124 402.957 258.247 402.942 257.394C402.92 256.529 403.138 255.733 403.596 255.007C404.048 254.269 404.718 253.643 405.607 253.13C406.15 252.817 406.737 252.593 407.368 252.46C407.999 252.326 408.578 252.315 409.104 252.427L409.333 254.304C408.88 254.212 408.422 254.206 407.961 254.288C407.512 254.363 407.114 254.5 406.768 254.7C406.017 255.133 405.571 255.707 405.428 256.42C405.291 257.115 405.472 257.896 405.972 258.762C406.465 259.617 407.057 260.175 407.748 260.439C408.444 260.684 409.167 260.589 409.918 260.156C410.252 259.963 410.57 259.687 410.871 259.328C411.172 258.97 411.393 258.565 411.533 258.115L413.054 259.269C412.881 259.769 412.577 260.268 412.14 260.766C411.709 261.246 411.228 261.639 410.697 261.946Z" fill="black"/>
<path d="M155.033 257.203L162.083 244.992L163.936 246.062L163.656 256.547L172.579 251.052L174.397 252.102L167.347 264.313L165.338 263.153L170.088 254.926L162.91 259.28L161.611 258.53L161.772 250.171L157.042 258.363L155.033 257.203ZM172.059 261.999L173.059 260.267L178.221 263.247L177.221 264.979L172.059 261.999ZM177.545 270.201L184.595 257.99L192.718 262.68L191.698 264.447L185.705 260.987L183.765 264.347L189.377 267.587L188.357 269.354L182.745 266.114L180.695 269.664L186.688 273.124L185.668 274.891L177.545 270.201ZM187.672 276.048L192.562 267.578L194.675 268.798L193.915 270.114C194.484 269.796 195.084 269.65 195.716 269.676C196.359 269.709 196.986 269.902 197.598 270.255C199.596 271.408 199.925 273.145 198.585 275.466L195.605 280.628L193.44 279.378L196.36 274.32C196.74 273.662 196.889 273.109 196.809 272.663C196.74 272.222 196.445 271.852 195.926 271.552C195.29 271.186 194.666 271.094 194.051 271.278C193.455 271.458 192.967 271.876 192.587 272.535L189.837 277.298L187.672 276.048Z" fill="black"/>
<path d="M354.522 486.148V472.048H363.902V474.088H356.982V477.968H363.462V480.008H356.982V484.108H363.902V486.148H354.522ZM366.216 486.148V476.368H368.656V477.888C368.989 477.328 369.436 476.902 369.996 476.608C370.569 476.315 371.209 476.168 371.916 476.168C374.223 476.168 375.376 477.508 375.376 480.188V486.148H372.876V480.308C372.876 479.548 372.729 478.995 372.436 478.648C372.156 478.302 371.716 478.128 371.116 478.128C370.383 478.128 369.796 478.362 369.356 478.828C368.929 479.282 368.716 479.888 368.716 480.648V486.148H366.216ZM378.155 486.148V472.048H387.535V474.088H380.615V477.968H387.095V480.008H380.615V484.108H387.535V486.148H378.155ZM394.31 486.348C393.284 486.348 392.39 486.142 391.63 485.728C390.87 485.302 390.284 484.702 389.87 483.928C389.457 483.155 389.25 482.248 389.25 481.208C389.25 480.168 389.457 479.275 389.87 478.528C390.284 477.768 390.87 477.188 391.63 476.788C392.39 476.375 393.284 476.168 394.31 476.168C394.937 476.168 395.557 476.268 396.17 476.468C396.784 476.668 397.29 476.948 397.69 477.308L396.95 479.048C396.604 478.742 396.21 478.508 395.77 478.348C395.344 478.188 394.93 478.108 394.53 478.108C393.664 478.108 392.99 478.382 392.51 478.928C392.044 479.462 391.81 480.228 391.81 481.228C391.81 482.215 392.044 482.995 392.51 483.568C392.99 484.128 393.664 484.408 394.53 484.408C394.917 484.408 395.33 484.328 395.77 484.168C396.21 484.008 396.604 483.768 396.95 483.448L397.69 485.208C397.29 485.555 396.777 485.835 396.15 486.048C395.537 486.248 394.924 486.348 394.31 486.348Z" fill="black"/>
<path d="M433.664 332.733V318.633H435.804L440.804 327.853L445.784 318.633H447.884V332.733H445.564V323.233L441.524 330.593H440.024L435.984 323.273V332.733H433.664ZM450.987 332.733V318.633H460.367V320.673H453.447V324.553H459.927V326.593H453.447V330.693H460.367V332.733H450.987ZM467.142 332.933C466.116 332.933 465.222 332.726 464.462 332.313C463.702 331.886 463.116 331.286 462.702 330.513C462.289 329.74 462.082 328.833 462.082 327.793C462.082 326.753 462.289 325.86 462.702 325.113C463.116 324.353 463.702 323.773 464.462 323.373C465.222 322.96 466.116 322.753 467.142 322.753C467.769 322.753 468.389 322.853 469.002 323.053C469.616 323.253 470.122 323.533 470.522 323.893L469.782 325.633C469.436 325.326 469.042 325.093 468.602 324.933C468.176 324.773 467.762 324.693 467.362 324.693C466.496 324.693 465.822 324.966 465.342 325.513C464.876 326.046 464.642 326.813 464.642 327.813C464.642 328.8 464.876 329.58 465.342 330.153C465.822 330.713 466.496 330.993 467.362 330.993C467.749 330.993 468.162 330.913 468.602 330.753C469.042 330.593 469.436 330.353 469.782 330.033L470.522 331.793C470.122 332.14 469.609 332.42 468.982 332.633C468.369 332.833 467.756 332.933 467.142 332.933Z" fill="black"/>
<path d="M336.251 170.546V156.446H345.631V158.486H338.711V162.366H345.191V164.406H338.711V168.506H345.631V170.546H336.251ZM352.406 170.746C351.379 170.746 350.486 170.54 349.726 170.126C348.966 169.7 348.379 169.1 347.966 168.326C347.553 167.553 347.346 166.646 347.346 165.606C347.346 164.566 347.553 163.673 347.966 162.926C348.379 162.166 348.966 161.586 349.726 161.186C350.486 160.773 351.379 160.566 352.406 160.566C353.033 160.566 353.653 160.666 354.266 160.866C354.879 161.066 355.386 161.346 355.786 161.706L355.046 163.446C354.699 163.14 354.306 162.906 353.866 162.746C353.439 162.586 353.026 162.506 352.626 162.506C351.759 162.506 351.086 162.78 350.606 163.326C350.139 163.86 349.906 164.626 349.906 165.626C349.906 166.613 350.139 167.393 350.606 167.966C351.086 168.526 351.759 168.806 352.626 168.806C353.013 168.806 353.426 168.726 353.866 168.566C354.306 168.406 354.699 168.166 355.046 167.846L355.786 169.606C355.386 169.953 354.873 170.233 354.246 170.446C353.633 170.646 353.019 170.746 352.406 170.746ZM357.6 170.546V156.446H359.74L364.74 165.666L369.72 156.446H371.82V170.546H369.5V161.046L365.46 168.406H363.96L359.92 161.086V170.546H357.6Z" fill="black"/>
<path d="M182.21 170.546V156.446H191.59V158.486H184.67V162.366H191.15V164.406H184.67V168.506H191.59V170.546H182.21ZM193.904 170.546V160.766H196.344V162.286C196.677 161.726 197.124 161.3 197.684 161.006C198.257 160.713 198.897 160.566 199.604 160.566C201.91 160.566 203.064 161.906 203.064 164.586V170.546H200.564V164.706C200.564 163.946 200.417 163.393 200.124 163.046C199.844 162.7 199.404 162.526 198.804 162.526C198.07 162.526 197.484 162.76 197.044 163.226C196.617 163.68 196.404 164.286 196.404 165.046V170.546H193.904ZM205.883 170.546V156.446H208.023L213.023 165.666L218.003 156.446H220.103V170.546H217.783V161.046L213.743 168.406H212.243L208.203 161.086V170.546H205.883Z" fill="black"/>
<path d="M292.049 178.073H277.949V171.913C277.949 170.433 278.275 169.287 278.929 168.473C279.569 167.66 280.462 167.253 281.609 167.253C282.369 167.253 283.022 167.447 283.569 167.833C284.115 168.22 284.515 168.753 284.769 169.433C284.995 168.633 285.395 168.013 285.969 167.573C286.529 167.12 287.242 166.893 288.109 166.893C289.362 166.893 290.335 167.32 291.029 168.173C291.709 169.013 292.049 170.187 292.049 171.693V178.073ZM283.929 175.613V172.353C283.929 170.607 283.255 169.733 281.909 169.733C280.562 169.733 279.889 170.607 279.889 172.353V175.613H283.929ZM290.109 175.613V172.013C290.109 170.253 289.402 169.373 287.989 169.373C286.575 169.373 285.869 170.253 285.869 172.013V175.613H290.109ZM292.049 164.264H277.949V162.124L287.169 157.124L277.949 152.144V150.044H292.049V152.364H282.549L289.909 156.404V157.904L282.589 161.944H292.049V164.264Z" fill="black"/>
<path d="M287.051 332.933C285.585 332.933 284.325 332.64 283.271 332.053C282.231 331.453 281.431 330.613 280.871 329.533C280.311 328.44 280.031 327.153 280.031 325.673C280.031 324.193 280.311 322.913 280.871 321.833C281.431 320.753 282.231 319.92 283.271 319.333C284.325 318.733 285.585 318.433 287.051 318.433C287.998 318.433 288.891 318.58 289.731 318.873C290.585 319.166 291.285 319.586 291.831 320.133L290.991 322.173C290.391 321.666 289.778 321.3 289.151 321.073C288.525 320.833 287.851 320.713 287.131 320.713C285.705 320.713 284.618 321.146 283.871 322.013C283.125 322.866 282.751 324.086 282.751 325.673C282.751 327.26 283.125 328.486 283.871 329.353C284.618 330.22 285.705 330.653 287.131 330.653C287.851 330.653 288.525 330.54 289.151 330.313C289.778 330.073 290.391 329.7 290.991 329.193L291.831 331.233C291.285 331.766 290.585 332.186 289.731 332.493C288.891 332.786 287.998 332.933 287.051 332.933Z" fill="black"/>
<path d="M411.842 409.709L418.892 397.498L424.227 400.578C425.509 401.318 426.338 402.174 426.716 403.147C427.1 404.107 427.006 405.084 426.433 406.077C426.053 406.736 425.559 407.205 424.95 407.485C424.342 407.765 423.68 407.845 422.965 407.724C423.544 408.32 423.881 408.977 423.976 409.693C424.088 410.405 423.928 411.136 423.494 411.887C422.868 412.972 422.012 413.602 420.926 413.775C419.858 413.944 418.672 413.652 417.367 412.899L411.842 409.709ZM418.033 403.907L420.856 405.537C422.369 406.41 423.462 406.264 424.135 405.097C424.808 403.931 424.389 402.911 422.876 402.038L420.053 400.408L418.033 403.907ZM414.943 409.259L418.06 411.059C419.585 411.939 420.7 411.767 421.407 410.543C422.113 409.319 421.705 408.267 420.18 407.387L417.063 405.587L414.943 409.259ZM423.767 416.594L430.817 404.383L438.94 409.073L437.92 410.839L431.927 407.379L429.987 410.739L435.599 413.979L434.579 415.746L428.967 412.506L426.917 416.057L432.91 419.517L431.89 421.284L423.767 416.594ZM437.658 424.844C436.769 424.331 436.098 423.705 435.647 422.967C435.202 422.218 434.994 421.405 435.022 420.528C435.051 419.652 435.326 418.764 435.846 417.863C436.366 416.962 436.991 416.292 437.722 415.852C438.46 415.4 439.259 415.191 440.117 415.225C440.982 415.247 441.859 415.515 442.748 416.028C443.29 416.341 443.777 416.738 444.208 417.218C444.64 417.698 444.938 418.194 445.105 418.705L443.594 419.842C443.447 419.403 443.223 419.005 442.922 418.646C442.633 418.294 442.315 418.018 441.968 417.818C441.218 417.385 440.498 417.285 439.809 417.518C439.138 417.747 438.553 418.294 438.053 419.16C437.559 420.015 437.371 420.807 437.489 421.537C437.624 422.262 438.068 422.841 438.818 423.274C439.153 423.468 439.551 423.605 440.012 423.686C440.473 423.768 440.934 423.757 441.394 423.653L441.155 425.547C440.635 425.647 440.051 425.633 439.401 425.504C438.77 425.371 438.189 425.151 437.658 424.844Z" fill="black"/>
</svg>
