<svg width="572" height="541" viewBox="0 0 572 541" fill="none" xmlns="http://www.w3.org/2000/svg">
<path d="M282.831 540.286C282.831 537.786 282.83 537.786 282.828 537.786H282.821H282.792L282.672 537.786L282.517 537.786C282.428 537.786 282.32 537.785 282.194 537.785C281.984 537.784 281.722 537.783 281.41 537.782C281.096 537.78 280.732 537.778 280.318 537.775C278.669 537.765 276.241 537.743 273.129 537.7C266.905 537.614 257.944 537.442 247.007 537.097C225.129 536.407 195.356 535.028 163.761 532.271C132.157 529.513 98.7826 525.38 69.6849 519.195C41.356 513.173 17.4418 505.275 3.08471 495.047C44.9642 314.343 99.3583 150.565 285.122 3.92465C467.767 150.743 519.101 325.57 561.378 469.552C563.869 478.035 566.329 486.412 568.782 494.67C568.127 494.943 567.311 495.277 566.334 495.666C563.338 496.859 558.829 498.571 552.813 500.629C540.781 504.746 522.718 510.246 498.666 515.751C450.566 526.759 378.507 537.786 282.831 537.786V540.286Z" fill="white" stroke="black" stroke-width="5"/>
<path d="M265.41 20.8763L285.615 3.36523L304.604 20.8763L304.134 293.043L286.127 282.239L265.409 295.189L265.408 170.998L265.41 20.8763Z" fill="#B76060"/>
<path d="M282.831 540.286C282.831 537.786 282.83 537.786 282.828 537.786H282.821H282.792L282.672 537.786L282.517 537.786C282.428 537.786 282.32 537.785 282.194 537.785C281.984 537.784 281.722 537.783 281.41 537.782C281.096 537.78 280.732 537.778 280.318 537.775C278.669 537.765 276.241 537.743 273.129 537.7C266.905 537.614 257.944 537.442 247.007 537.097C225.129 536.407 195.356 535.028 163.761 532.271C132.157 529.513 98.7826 525.38 69.6849 519.195C41.356 513.173 17.4418 505.275 3.08471 495.047C44.9642 314.343 99.3583 150.565 285.122 3.92465C467.767 150.743 519.101 325.57 561.378 469.552C563.869 478.035 566.329 486.412 568.782 494.67C568.127 494.943 567.311 495.277 566.334 495.666C563.338 496.859 558.829 498.571 552.813 500.629C540.781 504.746 522.718 510.246 498.666 515.751C450.566 526.759 378.507 537.786 282.831 537.786V540.286Z" stroke="black" stroke-width="5"/>
<path d="M265.961 18.8083L265.961 535.992" stroke="black" stroke-width="5"/>
<path d="M304.098 18.8083L304.098 535.991" stroke="black" stroke-width="5"/>
<path d="M458.857 203.452L8.05568 469.412" stroke="black" stroke-width="5"/>
<path d="M474.574 238.179L25.689 506.075" stroke="black" stroke-width="5"/>
<path d="M545.408 502.31L91.4405 237.03" stroke="black" stroke-width="5"/>
<path d="M560.437 465.879L107.947 203.055" stroke="black" stroke-width="5"/>
<path d="M245.88 305.616L285.362 282.821L324.845 305.616V351.206L285.362 374.001L245.88 351.206V305.616Z" fill="white" stroke="black" stroke-width="5.60993"/>
<path d="M121.547 432L115.037 419.493L120.501 416.649C121.813 415.966 122.981 415.726 124.005 415.93C125.021 416.122 125.795 416.727 126.324 417.744C126.675 418.418 126.805 419.087 126.715 419.75C126.624 420.413 126.336 421.014 125.85 421.553C126.664 421.385 127.399 421.453 128.054 421.759C128.714 422.046 129.245 422.574 129.645 423.343C130.224 424.455 130.295 425.515 129.858 426.524C129.427 427.515 128.543 428.358 127.206 429.054L121.547 432ZM119.98 423.662L122.872 422.156C124.421 421.35 124.885 420.349 124.263 419.155C123.641 417.96 122.555 417.766 121.006 418.573L118.115 420.078L119.98 423.662ZM122.834 429.143L126.027 427.481C127.588 426.668 128.042 425.635 127.39 424.382C126.737 423.128 125.63 422.908 124.069 423.72L120.876 425.382L122.834 429.143ZM133.761 425.642L127.25 413.135L135.571 408.804L136.513 410.614L130.374 413.809L132.166 417.25L137.914 414.258L138.856 416.068L133.108 419.06L135.001 422.697L141.139 419.501L142.081 421.311L133.761 425.642ZM144.133 420.243L139.618 411.568L141.782 410.441L142.484 411.789C142.521 411.139 142.72 410.554 143.081 410.035C143.454 409.51 143.954 409.085 144.581 408.758C146.627 407.693 148.269 408.349 149.506 410.726L152.258 416.013L150.041 417.167L147.344 411.987C146.993 411.313 146.608 410.89 146.188 410.718C145.779 410.54 145.309 410.589 144.777 410.866C144.126 411.205 143.713 411.683 143.539 412.3C143.369 412.899 143.46 413.536 143.811 414.21L146.351 419.088L144.133 420.243Z" fill="black"/>
<path d="M157.382 487.879V473.779H166.762V475.819H159.842V479.699H166.322V481.739H159.842V485.839H166.762V487.879H157.382ZM173.537 488.079C172.51 488.079 171.617 487.873 170.857 487.459C170.097 487.033 169.51 486.433 169.097 485.659C168.683 484.886 168.477 483.979 168.477 482.939C168.477 481.899 168.683 481.006 169.097 480.259C169.51 479.499 170.097 478.919 170.857 478.519C171.617 478.106 172.51 477.899 173.537 477.899C174.163 477.899 174.783 477.999 175.397 478.199C176.01 478.399 176.517 478.679 176.917 479.039L176.177 480.779C175.83 480.473 175.437 480.239 174.997 480.079C174.57 479.919 174.157 479.839 173.757 479.839C172.89 479.839 172.217 480.113 171.737 480.659C171.27 481.193 171.037 481.959 171.037 482.959C171.037 483.946 171.27 484.726 171.737 485.299C172.217 485.859 172.89 486.139 173.757 486.139C174.143 486.139 174.557 486.059 174.997 485.899C175.437 485.739 175.83 485.499 176.177 485.179L176.917 486.939C176.517 487.286 176.003 487.566 175.377 487.779C174.763 487.979 174.15 488.079 173.537 488.079ZM178.69 487.879V473.779H188.07V475.819H181.15V479.699H187.63V481.739H181.15V485.839H188.07V487.879H178.69ZM190.384 487.879V478.099H192.824V479.619C193.157 479.059 193.604 478.633 194.164 478.339C194.737 478.046 195.377 477.899 196.084 477.899C198.391 477.899 199.544 479.239 199.544 481.919V487.879H197.044V482.039C197.044 481.279 196.897 480.726 196.604 480.379C196.324 480.033 195.884 479.859 195.284 479.859C194.551 479.859 193.964 480.093 193.524 480.559C193.097 481.013 192.884 481.619 192.884 482.379V487.879H190.384Z" fill="black"/>
<path d="M97.7421 336.432V322.332H99.8821L104.882 331.552L109.862 322.332H111.962V336.432H109.642V326.932L105.602 334.292H104.102L100.062 326.972V336.432H97.7421ZM115.065 336.432V322.332H124.445V324.372H117.525V328.252H124.005V330.292H117.525V334.392H124.445V336.432H115.065ZM126.759 336.432V326.652H129.199V328.172C129.532 327.612 129.979 327.185 130.539 326.892C131.112 326.599 131.752 326.452 132.459 326.452C134.766 326.452 135.919 327.792 135.919 330.472V336.432H133.419V330.592C133.419 329.832 133.272 329.279 132.979 328.932C132.699 328.585 132.259 328.412 131.659 328.412C130.926 328.412 130.339 328.645 129.899 329.112C129.472 329.565 129.259 330.172 129.259 330.932V336.432H126.759Z" fill="black"/>
<path d="M292.547 476.646H278.447V467.266H280.487V474.186H284.367V467.706H286.407V474.186H290.507V467.266H292.547V476.646ZM292.547 464.952H282.767L282.767 462.512H284.287C283.727 462.179 283.3 461.732 283.007 461.172C282.714 460.599 282.567 459.959 282.567 459.252C282.567 456.946 283.907 455.792 286.587 455.792H292.547V458.292H286.707C285.947 458.292 285.394 458.439 285.047 458.732C284.7 459.012 284.527 459.452 284.527 460.052C284.527 460.786 284.76 461.372 285.227 461.812C285.68 462.239 286.287 462.452 287.047 462.452H292.547V464.952ZM288.187 453.193H286.187V447.233H288.187V453.193ZM292.547 444.341H278.447V434.961H280.487V441.881H284.367V435.401H286.407V441.881H290.507V434.961H292.547V444.341ZM292.747 428.186C292.747 429.213 292.54 430.106 292.127 430.866C291.7 431.626 291.1 432.213 290.327 432.626C289.554 433.04 288.647 433.246 287.607 433.246C286.567 433.246 285.674 433.04 284.927 432.626C284.167 432.213 283.587 431.626 283.187 430.866C282.774 430.106 282.567 429.213 282.567 428.186C282.567 427.56 282.667 426.94 282.867 426.326C283.067 425.713 283.347 425.206 283.707 424.806L285.447 425.546C285.14 425.893 284.907 426.286 284.747 426.726C284.587 427.153 284.507 427.566 284.507 427.966C284.507 428.833 284.78 429.506 285.327 429.986C285.86 430.453 286.627 430.686 287.627 430.686C288.614 430.686 289.394 430.453 289.967 429.986C290.527 429.506 290.807 428.833 290.807 427.966C290.807 427.58 290.727 427.166 290.567 426.726C290.407 426.286 290.167 425.893 289.847 425.546L291.607 424.806C291.954 425.206 292.234 425.72 292.447 426.346C292.647 426.96 292.747 427.573 292.747 428.186Z" fill="black"/>
<path d="M373.738 283.579L366.688 271.368L368.542 270.298L377.482 275.783L377.185 265.308L379.003 264.258L386.053 276.469L384.044 277.629L379.294 269.402L379.475 277.796L378.176 278.546L371.018 274.226L375.748 282.419L373.738 283.579ZM386.405 271.231L385.405 269.499L390.566 266.519L391.566 268.251L386.405 271.231ZM396.251 270.581L389.201 258.37L397.324 253.68L398.344 255.447L392.351 258.907L394.291 262.267L399.903 259.027L400.923 260.794L395.311 264.034L397.361 267.585L403.354 264.125L404.374 265.891L396.251 270.581ZM410.342 262.677C409.452 263.19 408.575 263.458 407.711 263.48C406.839 263.491 406.031 263.264 405.286 262.801C404.542 262.338 403.909 261.656 403.389 260.756C402.869 259.855 402.602 258.978 402.586 258.125C402.564 257.26 402.782 256.464 403.241 255.738C403.692 255 404.362 254.374 405.252 253.861C405.794 253.548 406.381 253.324 407.012 253.191C407.644 253.057 408.222 253.046 408.749 253.158L408.978 255.035C408.524 254.943 408.067 254.937 407.606 255.019C407.156 255.094 406.758 255.231 406.412 255.431C405.662 255.864 405.215 256.438 405.073 257.151C404.935 257.846 405.116 258.627 405.616 259.493C406.11 260.348 406.702 260.906 407.393 261.17C408.088 261.415 408.812 261.32 409.562 260.887C409.897 260.694 410.215 260.418 410.516 260.059C410.817 259.701 411.038 259.296 411.178 258.846L412.699 260C412.526 260.5 412.221 260.999 411.785 261.497C411.354 261.977 410.873 262.37 410.342 262.677Z" fill="black"/>
<path d="M154.677 257.934L161.727 245.723L163.58 246.793L163.301 257.278L172.223 251.783L174.042 252.833L166.992 265.044L164.983 263.884L169.733 255.657L162.554 260.011L161.255 259.261L161.416 250.902L156.686 259.094L154.677 257.934ZM171.704 262.73L172.704 260.998L177.865 263.978L176.865 265.71L171.704 262.73ZM177.19 270.932L184.24 258.721L192.363 263.411L191.343 265.178L185.35 261.718L183.41 265.078L189.022 268.318L188.002 270.085L182.39 266.845L180.34 270.395L186.333 273.855L185.313 275.622L177.19 270.932ZM187.317 276.779L192.207 268.309L194.32 269.529L193.56 270.845C194.128 270.527 194.728 270.381 195.36 270.407C196.003 270.439 196.631 270.632 197.243 270.986C199.241 272.139 199.569 273.876 198.229 276.197L195.249 281.359L193.084 280.109L196.004 275.051C196.384 274.393 196.534 273.84 196.453 273.394C196.384 272.953 196.09 272.583 195.57 272.283C194.935 271.917 194.31 271.825 193.696 272.009C193.1 272.189 192.612 272.607 192.232 273.266L189.482 278.029L187.317 276.779Z" fill="black"/>
<path d="M354.167 486.879V472.779H363.547V474.819H356.627V478.699H363.107V480.739H356.627V484.839H363.547V486.879H354.167ZM365.861 486.879V477.099H368.301V478.619C368.634 478.059 369.081 477.633 369.641 477.339C370.214 477.046 370.854 476.899 371.561 476.899C373.867 476.899 375.021 478.239 375.021 480.919V486.879H372.521V481.039C372.521 480.279 372.374 479.726 372.081 479.379C371.801 479.033 371.361 478.859 370.761 478.859C370.027 478.859 369.441 479.093 369.001 479.559C368.574 480.013 368.361 480.619 368.361 481.379V486.879H365.861ZM377.8 486.879V472.779H387.18V474.819H380.26V478.699H386.74V480.739H380.26V484.839H387.18V486.879H377.8ZM393.955 487.079C392.928 487.079 392.035 486.873 391.275 486.459C390.515 486.033 389.928 485.433 389.515 484.659C389.101 483.886 388.895 482.979 388.895 481.939C388.895 480.899 389.101 480.006 389.515 479.259C389.928 478.499 390.515 477.919 391.275 477.519C392.035 477.106 392.928 476.899 393.955 476.899C394.581 476.899 395.201 476.999 395.815 477.199C396.428 477.399 396.935 477.679 397.335 478.039L396.595 479.779C396.248 479.473 395.855 479.239 395.415 479.079C394.988 478.919 394.575 478.839 394.175 478.839C393.308 478.839 392.635 479.113 392.155 479.659C391.688 480.193 391.455 480.959 391.455 481.959C391.455 482.946 391.688 483.726 392.155 484.299C392.635 484.859 393.308 485.139 394.175 485.139C394.561 485.139 394.975 485.059 395.415 484.899C395.855 484.739 396.248 484.499 396.595 484.179L397.335 485.939C396.935 486.286 396.421 486.566 395.795 486.779C395.181 486.979 394.568 487.079 393.955 487.079Z" fill="black"/>
<path d="M433.309 333.464V319.364H435.449L440.449 328.584L445.429 319.364H447.529V333.464H445.209V323.964L441.169 331.324H439.669L435.629 324.004V333.464H433.309ZM450.632 333.464V319.364H460.012V321.404H453.092V325.284H459.572V327.324H453.092V331.424H460.012V333.464H450.632ZM466.787 333.664C465.76 333.664 464.867 333.457 464.107 333.044C463.347 332.617 462.76 332.017 462.347 331.244C461.933 330.471 461.727 329.564 461.727 328.524C461.727 327.484 461.933 326.591 462.347 325.844C462.76 325.084 463.347 324.504 464.107 324.104C464.867 323.691 465.76 323.484 466.787 323.484C467.413 323.484 468.033 323.584 468.647 323.784C469.26 323.984 469.767 324.264 470.167 324.624L469.427 326.364C469.08 326.057 468.687 325.824 468.247 325.664C467.82 325.504 467.407 325.424 467.007 325.424C466.14 325.424 465.467 325.697 464.987 326.244C464.52 326.777 464.287 327.544 464.287 328.544C464.287 329.531 464.52 330.311 464.987 330.884C465.467 331.444 466.14 331.724 467.007 331.724C467.393 331.724 467.807 331.644 468.247 331.484C468.687 331.324 469.08 331.084 469.427 330.764L470.167 332.524C469.767 332.871 469.253 333.151 468.627 333.364C468.013 333.564 467.4 333.664 466.787 333.664Z" fill="black"/>
<path d="M335.895 171.277V157.177H345.275V159.217H338.355V163.097H344.835V165.137H338.355V169.237H345.275V171.277H335.895ZM352.05 171.477C351.024 171.477 350.13 171.271 349.37 170.857C348.61 170.431 348.024 169.831 347.61 169.057C347.197 168.284 346.99 167.377 346.99 166.337C346.99 165.297 347.197 164.404 347.61 163.657C348.024 162.897 348.61 162.317 349.37 161.917C350.13 161.504 351.024 161.297 352.05 161.297C352.677 161.297 353.297 161.397 353.91 161.597C354.524 161.797 355.03 162.077 355.43 162.437L354.69 164.177C354.344 163.871 353.95 163.637 353.51 163.477C353.084 163.317 352.67 163.237 352.27 163.237C351.404 163.237 350.73 163.511 350.25 164.057C349.784 164.591 349.55 165.357 349.55 166.357C349.55 167.344 349.784 168.124 350.25 168.697C350.73 169.257 351.404 169.537 352.27 169.537C352.657 169.537 353.07 169.457 353.51 169.297C353.95 169.137 354.344 168.897 354.69 168.577L355.43 170.337C355.03 170.684 354.517 170.964 353.89 171.177C353.277 171.377 352.664 171.477 352.05 171.477ZM357.244 171.277V157.177H359.384L364.384 166.397L369.364 157.177H371.464V171.277H369.144V161.777L365.104 169.137H363.604L359.564 161.817V171.277H357.244Z" fill="black"/>
<path d="M181.854 171.277V157.177H191.234V159.217H184.314V163.097H190.794V165.137H184.314V169.237H191.234V171.277H181.854ZM193.548 171.277V161.497H195.988V163.017C196.321 162.457 196.768 162.031 197.328 161.737C197.901 161.444 198.541 161.297 199.248 161.297C201.555 161.297 202.708 162.637 202.708 165.317V171.277H200.208V165.437C200.208 164.677 200.061 164.124 199.768 163.777C199.488 163.431 199.048 163.257 198.448 163.257C197.715 163.257 197.128 163.491 196.688 163.957C196.261 164.411 196.048 165.017 196.048 165.777V171.277H193.548ZM205.527 171.277V157.177H207.667L212.667 166.397L217.647 157.177H219.747V171.277H217.427V161.777L213.387 169.137H211.887L207.847 161.817V171.277H205.527Z" fill="black"/>
<path d="M291.693 178.804H277.593V172.644C277.593 171.164 277.92 170.018 278.573 169.204C279.213 168.391 280.107 167.984 281.253 167.984C282.013 167.984 282.667 168.178 283.213 168.564C283.76 168.951 284.16 169.484 284.413 170.164C284.64 169.364 285.04 168.744 285.613 168.304C286.173 167.851 286.887 167.624 287.753 167.624C289.007 167.624 289.98 168.051 290.673 168.904C291.353 169.744 291.693 170.918 291.693 172.424V178.804ZM283.573 176.344V173.084C283.573 171.338 282.9 170.464 281.553 170.464C280.207 170.464 279.533 171.338 279.533 173.084V176.344H283.573ZM289.753 176.344V172.744C289.753 170.984 289.047 170.104 287.633 170.104C286.22 170.104 285.513 170.984 285.513 172.744V176.344H289.753ZM291.693 164.995H277.593V162.855L286.813 157.855L277.593 152.875V150.775H291.693V153.095H282.193L289.553 157.135V158.635L282.233 162.675H291.693V164.995Z" fill="white"/>
<path d="M286.696 333.664C285.229 333.664 283.969 333.371 282.916 332.784C281.876 332.184 281.076 331.344 280.516 330.264C279.956 329.171 279.676 327.884 279.676 326.404C279.676 324.924 279.956 323.644 280.516 322.564C281.076 321.484 281.876 320.651 282.916 320.064C283.969 319.464 285.229 319.164 286.696 319.164C287.642 319.164 288.536 319.311 289.376 319.604C290.229 319.897 290.929 320.317 291.476 320.864L290.636 322.904C290.036 322.397 289.422 322.031 288.796 321.804C288.169 321.564 287.496 321.444 286.776 321.444C285.349 321.444 284.262 321.877 283.516 322.744C282.769 323.597 282.396 324.817 282.396 326.404C282.396 327.991 282.769 329.217 283.516 330.084C284.262 330.951 285.349 331.384 286.776 331.384C287.496 331.384 288.169 331.271 288.796 331.044C289.422 330.804 290.036 330.431 290.636 329.924L291.476 331.964C290.929 332.497 290.229 332.917 289.376 333.224C288.536 333.517 287.642 333.664 286.696 333.664Z" fill="black"/>
<path d="M411.487 410.44L418.537 398.229L423.871 401.309C425.153 402.049 425.983 402.905 426.361 403.877C426.745 404.838 426.65 405.815 426.077 406.808C425.697 407.467 425.203 407.936 424.595 408.216C423.987 408.496 423.325 408.576 422.609 408.455C423.189 409.051 423.526 409.708 423.62 410.424C423.733 411.136 423.572 411.867 423.139 412.618C422.512 413.703 421.656 414.333 420.57 414.506C419.503 414.675 418.317 414.383 417.012 413.63L411.487 410.44ZM417.677 404.638L420.5 406.268C422.013 407.141 423.106 406.994 423.779 405.828C424.453 404.662 424.033 403.642 422.52 402.769L419.697 401.139L417.677 404.638ZM414.587 409.99L417.705 411.79C419.229 412.67 420.345 412.498 421.051 411.274C421.758 410.05 421.349 408.998 419.825 408.118L416.707 406.318L414.587 409.99ZM423.412 417.325L430.462 405.114L438.585 409.804L437.565 411.57L431.572 408.11L429.632 411.47L435.244 414.71L434.224 416.477L428.612 413.237L426.562 416.788L432.555 420.248L431.535 422.015L423.412 417.325ZM437.302 425.575C436.413 425.062 435.743 424.436 435.291 423.698C434.846 422.949 434.638 422.136 434.667 421.259C434.696 420.383 434.97 419.495 435.49 418.594C436.01 417.693 436.636 417.023 437.367 416.583C438.105 416.131 438.903 415.922 439.761 415.956C440.626 415.978 441.503 416.246 442.392 416.759C442.935 417.072 443.422 417.469 443.853 417.949C444.284 418.429 444.583 418.925 444.749 419.436L443.238 420.573C443.092 420.134 442.868 419.736 442.567 419.377C442.277 419.025 441.959 418.749 441.613 418.549C440.862 418.116 440.142 418.016 439.453 418.249C438.783 418.478 438.197 419.025 437.697 419.891C437.204 420.746 437.016 421.538 437.133 422.268C437.269 422.993 437.712 423.572 438.463 424.005C438.798 424.198 439.196 424.336 439.657 424.417C440.118 424.499 440.578 424.488 441.038 424.384L440.799 426.278C440.28 426.378 439.695 426.364 439.046 426.235C438.415 426.102 437.833 425.882 437.302 425.575Z" fill="black"/>
</svg>
