<svg width="573" height="540" viewBox="0 0 573 540" fill="none" xmlns="http://www.w3.org/2000/svg">
<path d="M283.528 539.888C283.528 537.388 283.527 537.388 283.526 537.388H283.519H283.489L283.369 537.388L283.214 537.387C283.125 537.387 283.018 537.387 282.892 537.386C282.681 537.386 282.419 537.385 282.108 537.383C281.794 537.382 281.429 537.38 281.015 537.377C279.367 537.366 276.939 537.345 273.827 537.302C267.602 537.215 258.641 537.043 247.704 536.698C225.826 536.009 196.053 534.63 164.459 531.873C132.854 529.115 99.4798 524.982 70.3821 518.797C42.0532 512.775 18.1391 504.877 3.78198 494.648C45.6614 313.945 100.056 150.166 285.819 3.52621C468.464 150.345 519.798 325.172 562.075 469.153C564.566 477.637 567.026 486.014 569.479 494.271C568.824 494.544 568.008 494.878 567.031 495.267C564.035 496.461 559.527 498.173 553.51 500.231C541.478 504.347 523.415 509.848 499.364 515.352C451.263 526.361 379.204 537.388 283.528 537.388V539.888Z" fill="white" stroke="black" stroke-width="5"/>
<path d="M266.658 18.4099L266.658 535.594" stroke="black" stroke-width="5"/>
<path d="M304.795 18.4099L304.795 535.593" stroke="black" stroke-width="5"/>
<path d="M459.555 203.054L8.75295 469.014" stroke="black" stroke-width="5"/>
<path d="M475.271 237.78L26.3863 505.677" stroke="black" stroke-width="5"/>
<path d="M546.105 501.911L92.1378 236.631" stroke="black" stroke-width="5"/>
<path d="M561.134 465.481L108.645 202.656" stroke="black" stroke-width="5"/>
<path d="M246.577 305.218L286.06 282.422L325.542 305.218V350.808L286.06 373.603L246.577 350.808V305.218Z" fill="#4298B4" stroke="black" stroke-width="5.60993"/>
<path d="M122.245 431.602L115.734 419.095L121.198 416.25C122.511 415.567 123.679 415.327 124.702 415.531C125.719 415.723 126.492 416.328 127.021 417.345C127.372 418.019 127.503 418.688 127.412 419.352C127.321 420.015 127.033 420.616 126.547 421.155C127.361 420.986 128.096 421.055 128.751 421.36C129.411 421.648 129.942 422.176 130.342 422.945C130.921 424.056 130.992 425.117 130.555 426.126C130.124 427.117 129.24 427.96 127.904 428.656L122.245 431.602ZM120.677 423.263L123.569 421.758C125.118 420.951 125.582 419.951 124.96 418.756C124.338 417.562 123.253 417.368 121.703 418.174L118.812 419.68L120.677 423.263ZM123.531 428.745L126.724 427.083C128.285 426.27 128.74 425.237 128.087 423.983C127.434 422.73 126.327 422.509 124.766 423.322L121.573 424.984L123.531 428.745ZM134.458 425.244L127.948 412.737L136.268 408.406L137.21 410.215L131.072 413.41L132.863 416.852L138.611 413.86L139.553 415.669L133.805 418.661L135.698 422.298L141.837 419.103L142.778 420.912L134.458 425.244ZM144.831 419.844L140.315 411.169L142.479 410.042L143.181 411.391C143.218 410.74 143.417 410.155 143.778 409.637C144.152 409.112 144.652 408.686 145.278 408.36C147.324 407.295 148.966 407.951 150.204 410.328L152.956 415.615L150.738 416.769L148.042 411.589C147.691 410.915 147.305 410.492 146.885 410.319C146.476 410.141 146.006 410.191 145.474 410.468C144.823 410.806 144.411 411.284 144.236 411.901C144.067 412.5 144.158 413.137 144.509 413.811L147.048 418.69L144.831 419.844Z" fill="black"/>
<path d="M158.079 487.481V473.381H167.459V475.421H160.539V479.301H167.019V481.341H160.539V485.441H167.459V487.481H158.079ZM174.234 487.681C173.207 487.681 172.314 487.474 171.554 487.061C170.794 486.634 170.207 486.034 169.794 485.261C169.381 484.488 169.174 483.581 169.174 482.541C169.174 481.501 169.381 480.608 169.794 479.861C170.207 479.101 170.794 478.521 171.554 478.121C172.314 477.708 173.207 477.501 174.234 477.501C174.861 477.501 175.481 477.601 176.094 477.801C176.707 478.001 177.214 478.281 177.614 478.641L176.874 480.381C176.527 480.074 176.134 479.841 175.694 479.681C175.267 479.521 174.854 479.441 174.454 479.441C173.587 479.441 172.914 479.714 172.434 480.261C171.967 480.794 171.734 481.561 171.734 482.561C171.734 483.548 171.967 484.328 172.434 484.901C172.914 485.461 173.587 485.741 174.454 485.741C174.841 485.741 175.254 485.661 175.694 485.501C176.134 485.341 176.527 485.101 176.874 484.781L177.614 486.541C177.214 486.888 176.701 487.168 176.074 487.381C175.461 487.581 174.847 487.681 174.234 487.681ZM179.388 487.481V473.381H188.768V475.421H181.848V479.301H188.328V481.341H181.848V485.441H188.768V487.481H179.388ZM191.081 487.481V477.701H193.521V479.221C193.855 478.661 194.301 478.234 194.861 477.941C195.435 477.648 196.075 477.501 196.781 477.501C199.088 477.501 200.241 478.841 200.241 481.521V487.481H197.741V481.641C197.741 480.881 197.595 480.328 197.301 479.981C197.021 479.634 196.581 479.461 195.981 479.461C195.248 479.461 194.661 479.694 194.221 480.161C193.795 480.614 193.581 481.221 193.581 481.981V487.481H191.081Z" fill="black"/>
<path d="M98.4394 336.034V321.934H100.579L105.579 331.154L110.559 321.934H112.659V336.034H110.339V326.534L106.299 333.894H104.799L100.759 326.574V336.034H98.4394ZM115.763 336.034V321.934H125.143V323.974H118.223V327.854H124.703V329.894H118.223V333.994H125.143V336.034H115.763ZM127.456 336.034V326.254H129.896V327.774C130.23 327.214 130.676 326.787 131.236 326.494C131.81 326.2 132.45 326.054 133.156 326.054C135.463 326.054 136.616 327.394 136.616 330.074V336.034H134.116V330.194C134.116 329.434 133.97 328.88 133.676 328.534C133.396 328.187 132.956 328.014 132.356 328.014C131.623 328.014 131.036 328.247 130.596 328.714C130.17 329.167 129.956 329.774 129.956 330.534V336.034H127.456Z" fill="black"/>
<path d="M293.244 476.248H279.144V466.868H281.184V473.788H285.064V467.308H287.104V473.788H291.204V466.868H293.244V476.248ZM293.244 464.554H283.464L283.464 462.114H284.984C284.424 461.781 283.997 461.334 283.704 460.774C283.411 460.201 283.264 459.561 283.264 458.854C283.264 456.547 284.604 455.394 287.284 455.394H293.244V457.894H287.404C286.644 457.894 286.091 458.041 285.744 458.334C285.397 458.614 285.224 459.054 285.224 459.654C285.224 460.387 285.457 460.974 285.924 461.414C286.377 461.841 286.984 462.054 287.744 462.054H293.244V464.554ZM288.884 452.795H286.884V446.835H288.884V452.795ZM293.244 443.943H279.144V434.563H281.184V441.483H285.064V435.003H287.104V441.483H291.204V434.563H293.244V443.943ZM293.444 427.788C293.444 428.815 293.237 429.708 292.824 430.468C292.397 431.228 291.797 431.815 291.024 432.228C290.251 432.641 289.344 432.848 288.304 432.848C287.264 432.848 286.371 432.641 285.624 432.228C284.864 431.815 284.284 431.228 283.884 430.468C283.471 429.708 283.264 428.815 283.264 427.788C283.264 427.161 283.364 426.541 283.564 425.928C283.764 425.315 284.044 424.808 284.404 424.408L286.144 425.148C285.837 425.495 285.604 425.888 285.444 426.328C285.284 426.755 285.204 427.168 285.204 427.568C285.204 428.435 285.477 429.108 286.024 429.588C286.557 430.055 287.324 430.288 288.324 430.288C289.311 430.288 290.091 430.055 290.664 429.588C291.224 429.108 291.504 428.435 291.504 427.568C291.504 427.181 291.424 426.768 291.264 426.328C291.104 425.888 290.864 425.495 290.544 425.148L292.304 424.408C292.651 424.808 292.931 425.321 293.144 425.948C293.344 426.561 293.444 427.175 293.444 427.788Z" fill="black"/>
<path d="M374.436 283.181L367.386 270.97L369.239 269.9L378.179 275.384L377.882 264.91L379.701 263.86L386.751 276.071L384.741 277.231L379.991 269.003L380.173 277.397L378.874 278.147L371.715 273.828L376.445 282.021L374.436 283.181ZM387.102 270.833L386.102 269.101L391.264 266.121L392.264 267.853L387.102 270.833ZM396.948 270.183L389.898 257.972L398.021 253.282L399.041 255.049L393.049 258.509L394.989 261.869L400.6 258.629L401.62 260.396L396.009 263.636L398.059 267.186L404.051 263.726L405.071 265.493L396.948 270.183ZM411.039 262.279C410.15 262.792 409.273 263.06 408.408 263.082C407.536 263.092 406.728 262.866 405.984 262.403C405.239 261.94 404.607 261.258 404.087 260.357C403.567 259.457 403.299 258.58 403.284 257.726C403.262 256.861 403.48 256.066 403.938 255.339C404.389 254.601 405.06 253.976 405.949 253.463C406.492 253.149 407.078 252.926 407.71 252.792C408.341 252.659 408.92 252.648 409.446 252.76L409.675 254.637C409.222 254.544 408.764 254.539 408.303 254.62C407.854 254.695 407.456 254.833 407.109 255.033C406.359 255.466 405.912 256.039 405.77 256.753C405.632 257.448 405.814 258.229 406.314 259.095C406.807 259.949 407.399 260.508 408.09 260.771C408.786 261.016 409.509 260.922 410.259 260.489C410.594 260.295 410.912 260.019 411.213 259.661C411.514 259.302 411.735 258.898 411.875 258.447L413.396 259.601C413.223 260.102 412.918 260.601 412.482 261.099C412.051 261.579 411.57 261.972 411.039 262.279Z" fill="black"/>
<path d="M155.374 257.536L162.424 245.325L164.278 246.395L163.998 256.88L172.921 251.385L174.739 252.435L167.689 264.646L165.68 263.486L170.43 255.259L163.251 259.613L161.952 258.863L162.114 250.503L157.384 258.696L155.374 257.536ZM172.401 262.332L173.401 260.6L178.562 263.58L177.562 265.312L172.401 262.332ZM177.887 270.534L184.937 258.323L193.06 263.013L192.04 264.779L186.047 261.319L184.107 264.679L189.719 267.919L188.699 269.686L183.087 266.446L181.037 269.997L187.03 273.457L186.01 275.224L177.887 270.534ZM188.014 276.38L192.904 267.911L195.017 269.131L194.257 270.447C194.826 270.129 195.426 269.982 196.057 270.008C196.701 270.041 197.328 270.234 197.94 270.587C199.938 271.741 200.267 273.478 198.927 275.799L195.947 280.96L193.782 279.71L196.702 274.653C197.082 273.995 197.231 273.442 197.15 272.995C197.081 272.555 196.787 272.185 196.267 271.885C195.632 271.518 195.008 271.427 194.393 271.611C193.797 271.79 193.309 272.209 192.929 272.867L190.179 277.63L188.014 276.38Z" fill="black"/>
<path d="M354.864 486.481V472.381H364.244V474.421H357.324V478.301H363.804V480.341H357.324V484.441H364.244V486.481H354.864ZM366.558 486.481V476.701H368.998V478.221C369.331 477.661 369.778 477.234 370.338 476.941C370.911 476.648 371.551 476.501 372.258 476.501C374.564 476.501 375.718 477.841 375.718 480.521V486.481H373.218V480.641C373.218 479.881 373.071 479.328 372.778 478.981C372.498 478.634 372.058 478.461 371.458 478.461C370.724 478.461 370.138 478.694 369.698 479.161C369.271 479.614 369.058 480.221 369.058 480.981V486.481H366.558ZM378.497 486.481V472.381H387.877V474.421H380.957V478.301H387.437V480.341H380.957V484.441H387.877V486.481H378.497ZM394.652 486.681C393.625 486.681 392.732 486.474 391.972 486.061C391.212 485.634 390.625 485.034 390.212 484.261C389.799 483.488 389.592 482.581 389.592 481.541C389.592 480.501 389.799 479.608 390.212 478.861C390.625 478.101 391.212 477.521 391.972 477.121C392.732 476.708 393.625 476.501 394.652 476.501C395.279 476.501 395.899 476.601 396.512 476.801C397.125 477.001 397.632 477.281 398.032 477.641L397.292 479.381C396.945 479.074 396.552 478.841 396.112 478.681C395.685 478.521 395.272 478.441 394.872 478.441C394.005 478.441 393.332 478.714 392.852 479.261C392.385 479.794 392.152 480.561 392.152 481.561C392.152 482.548 392.385 483.328 392.852 483.901C393.332 484.461 394.005 484.741 394.872 484.741C395.259 484.741 395.672 484.661 396.112 484.501C396.552 484.341 396.945 484.101 397.292 483.781L398.032 485.541C397.632 485.888 397.119 486.168 396.492 486.381C395.879 486.581 395.265 486.681 394.652 486.681Z" fill="black"/>
<path d="M434.006 333.065V318.965H436.146L441.146 328.185L446.126 318.965H448.226V333.065H445.906V323.565L441.866 330.925H440.366L436.326 323.605V333.065H434.006ZM451.329 333.065V318.965H460.709V321.005H453.789V324.885H460.269V326.925H453.789V331.025H460.709V333.065H451.329ZM467.484 333.265C466.457 333.265 465.564 333.059 464.804 332.645C464.044 332.219 463.457 331.619 463.044 330.845C462.631 330.072 462.424 329.165 462.424 328.125C462.424 327.085 462.631 326.192 463.044 325.445C463.457 324.685 464.044 324.105 464.804 323.705C465.564 323.292 466.457 323.085 467.484 323.085C468.111 323.085 468.731 323.185 469.344 323.385C469.957 323.585 470.464 323.865 470.864 324.225L470.124 325.965C469.777 325.659 469.384 325.425 468.944 325.265C468.517 325.105 468.104 325.025 467.704 325.025C466.837 325.025 466.164 325.299 465.684 325.845C465.217 326.379 464.984 327.145 464.984 328.145C464.984 329.132 465.217 329.912 465.684 330.485C466.164 331.045 466.837 331.325 467.704 331.325C468.091 331.325 468.504 331.245 468.944 331.085C469.384 330.925 469.777 330.685 470.124 330.365L470.864 332.125C470.464 332.472 469.951 332.752 469.324 332.965C468.711 333.165 468.097 333.265 467.484 333.265Z" fill="black"/>
<path d="M336.593 170.879V156.779H345.973V158.819H339.053V162.699H345.533V164.739H339.053V168.839H345.973V170.879H336.593ZM352.748 171.079C351.721 171.079 350.828 170.872 350.068 170.459C349.308 170.032 348.721 169.432 348.308 168.659C347.894 167.886 347.688 166.979 347.688 165.939C347.688 164.899 347.894 164.006 348.308 163.259C348.721 162.499 349.308 161.919 350.068 161.519C350.828 161.106 351.721 160.899 352.748 160.899C353.374 160.899 353.994 160.999 354.608 161.199C355.221 161.399 355.728 161.679 356.128 162.039L355.388 163.779C355.041 163.472 354.648 163.239 354.208 163.079C353.781 162.919 353.368 162.839 352.968 162.839C352.101 162.839 351.428 163.112 350.948 163.659C350.481 164.192 350.248 164.959 350.248 165.959C350.248 166.946 350.481 167.726 350.948 168.299C351.428 168.859 352.101 169.139 352.968 169.139C353.354 169.139 353.768 169.059 354.208 168.899C354.648 168.739 355.041 168.499 355.388 168.179L356.128 169.939C355.728 170.286 355.214 170.566 354.588 170.779C353.974 170.979 353.361 171.079 352.748 171.079ZM357.941 170.879V156.779H360.081L365.081 165.999L370.061 156.779H372.161V170.879H369.841V161.379L365.801 168.739H364.301L360.261 161.419V170.879H357.941Z" fill="black"/>
<path d="M182.552 170.879V156.779H191.932V158.819H185.012V162.699H191.492V164.739H185.012V168.839H191.932V170.879H182.552ZM194.245 170.879V161.099H196.685V162.619C197.019 162.059 197.465 161.632 198.025 161.339C198.599 161.046 199.239 160.899 199.945 160.899C202.252 160.899 203.405 162.239 203.405 164.919V170.879H200.905V165.039C200.905 164.279 200.759 163.726 200.465 163.379C200.185 163.032 199.745 162.859 199.145 162.859C198.412 162.859 197.825 163.092 197.385 163.559C196.959 164.012 196.745 164.619 196.745 165.379V170.879H194.245ZM206.225 170.879V156.779H208.365L213.365 165.999L218.345 156.779H220.445V170.879H218.125V161.379L214.085 168.739H212.585L208.545 161.419V170.879H206.225Z" fill="black"/>
<path d="M292.391 178.406H278.291V172.246C278.291 170.766 278.617 169.619 279.271 168.806C279.911 167.992 280.804 167.586 281.951 167.586C282.711 167.586 283.364 167.779 283.911 168.166C284.457 168.552 284.857 169.086 285.111 169.766C285.337 168.966 285.737 168.346 286.311 167.906C286.871 167.452 287.584 167.226 288.451 167.226C289.704 167.226 290.677 167.652 291.371 168.506C292.051 169.346 292.391 170.519 292.391 172.026V178.406ZM284.271 175.946V172.686C284.271 170.939 283.597 170.066 282.251 170.066C280.904 170.066 280.231 170.939 280.231 172.686V175.946H284.271ZM290.451 175.946V172.346C290.451 170.586 289.744 169.706 288.331 169.706C286.917 169.706 286.211 170.586 286.211 172.346V175.946H290.451ZM292.391 164.596H278.291V162.456L287.511 157.456L278.291 152.476V150.376H292.391V152.696H282.891L290.251 156.736V158.236L282.931 162.276H292.391V164.596Z" fill="black"/>
<path d="M287.393 333.265C285.926 333.265 284.666 332.972 283.613 332.385C282.573 331.785 281.773 330.945 281.213 329.865C280.653 328.772 280.373 327.485 280.373 326.005C280.373 324.525 280.653 323.245 281.213 322.165C281.773 321.085 282.573 320.252 283.613 319.665C284.666 319.065 285.926 318.765 287.393 318.765C288.34 318.765 289.233 318.912 290.073 319.205C290.926 319.499 291.626 319.919 292.173 320.465L291.333 322.505C290.733 321.999 290.12 321.632 289.493 321.405C288.866 321.165 288.193 321.045 287.473 321.045C286.046 321.045 284.96 321.479 284.213 322.345C283.466 323.199 283.093 324.419 283.093 326.005C283.093 327.592 283.466 328.819 284.213 329.685C284.96 330.552 286.046 330.985 287.473 330.985C288.193 330.985 288.866 330.872 289.493 330.645C290.12 330.405 290.733 330.032 291.333 329.525L292.173 331.565C291.626 332.099 290.926 332.519 290.073 332.825C289.233 333.119 288.34 333.265 287.393 333.265Z" fill="white"/>
<path d="M412.184 410.041L419.234 397.83L424.569 400.91C425.85 401.65 426.68 402.507 427.058 403.479C427.442 404.44 427.348 405.417 426.774 406.41C426.394 407.068 425.9 407.537 425.292 407.817C424.684 408.098 424.022 408.177 423.306 408.057C423.886 408.653 424.223 409.309 424.317 410.026C424.43 410.738 424.27 411.469 423.836 412.219C423.21 413.305 422.353 413.934 421.268 414.108C420.2 414.277 419.014 413.985 417.709 413.231L412.184 410.041ZM418.374 404.239L421.198 405.869C422.71 406.743 423.803 406.596 424.477 405.43C425.15 404.264 424.73 403.244 423.218 402.37L420.394 400.74L418.374 404.239ZM415.284 409.591L418.402 411.391C419.926 412.271 421.042 412.099 421.748 410.875C422.455 409.651 422.046 408.599 420.522 407.719L417.404 405.919L415.284 409.591ZM424.109 416.926L431.159 404.715L439.282 409.405L438.262 411.172L432.269 407.712L430.329 411.072L435.941 414.312L434.921 416.079L429.309 412.839L427.259 416.389L433.252 419.849L432.232 421.616L424.109 416.926ZM437.999 425.177C437.11 424.663 436.44 424.038 435.988 423.3C435.544 422.55 435.336 421.737 435.364 420.861C435.393 419.985 435.667 419.096 436.187 418.195C436.707 417.295 437.333 416.624 438.064 416.184C438.802 415.733 439.6 415.524 440.458 415.558C441.323 415.58 442.2 415.847 443.089 416.361C443.632 416.674 444.119 417.071 444.55 417.55C444.981 418.03 445.28 418.526 445.447 419.038L443.936 420.175C443.789 419.736 443.565 419.337 443.264 418.979C442.974 418.627 442.656 418.351 442.31 418.151C441.559 417.717 440.84 417.617 440.151 417.851C439.48 418.079 438.894 418.627 438.394 419.493C437.901 420.347 437.713 421.139 437.831 421.869C437.966 422.594 438.409 423.173 439.16 423.607C439.495 423.8 439.893 423.937 440.354 424.019C440.815 424.1 441.276 424.089 441.736 423.985L441.497 425.88C440.977 425.98 440.392 425.966 439.743 425.837C439.112 425.704 438.531 425.483 437.999 425.177Z" fill="black"/>
</svg>
