<svg width="573" height="540" viewBox="0 0 573 540" fill="none" xmlns="http://www.w3.org/2000/svg">
<path d="M283.133 539.943C283.133 537.443 283.133 537.443 283.131 537.443H283.124H283.094L282.975 537.443L282.82 537.442C282.731 537.442 282.623 537.442 282.497 537.442C282.287 537.441 282.025 537.44 281.713 537.438C281.399 537.437 281.034 537.435 280.621 537.432C278.972 537.421 276.544 537.4 273.432 537.357C267.208 537.271 258.247 537.098 247.309 536.754C225.432 536.064 195.659 534.685 164.064 531.928C132.459 529.17 99.0853 525.037 69.9876 518.852C41.6587 512.83 17.7446 504.932 3.38744 494.704C45.2669 314 99.661 150.221 285.425 3.58139C468.07 150.4 519.404 325.227 561.681 469.209C564.172 477.692 566.631 486.069 569.085 494.326C568.43 494.599 567.614 494.933 566.637 495.322C563.641 496.516 559.132 498.228 553.116 500.286C541.083 504.402 523.02 509.903 498.969 515.407C450.868 526.416 378.81 537.443 283.133 537.443V539.943Z" fill="white" stroke="black" stroke-width="5"/>
<path d="M155.993 428.531L265.983 359.829V448.708V536.011L201.663 533.281L140.735 527.921L67.6226 519.184L24.6348 505.641L155.993 428.531Z" fill="#6C4D7B"/>
<path d="M283.133 539.943C283.133 537.443 283.133 537.443 283.131 537.443H283.124H283.094L282.975 537.443L282.82 537.442C282.731 537.442 282.623 537.442 282.497 537.442C282.287 537.441 282.025 537.44 281.713 537.438C281.399 537.437 281.034 537.435 280.621 537.432C278.972 537.421 276.544 537.4 273.432 537.357C267.208 537.271 258.247 537.098 247.309 536.754C225.432 536.064 195.659 534.685 164.064 531.928C132.459 529.17 99.0853 525.037 69.9876 518.852C41.6587 512.83 17.7446 504.932 3.38744 494.704C45.2669 314 99.661 150.221 285.425 3.58139C468.07 150.4 519.404 325.227 561.681 469.209C564.172 477.692 566.631 486.069 569.085 494.326C568.43 494.599 567.614 494.933 566.637 495.322C563.641 496.516 559.132 498.228 553.116 500.286C541.083 504.402 523.02 509.903 498.969 515.407C450.868 526.416 378.81 537.443 283.133 537.443V539.943Z" stroke="black" stroke-width="5"/>
<path d="M266.264 18.4651L266.264 535.649" stroke="black" stroke-width="5"/>
<path d="M304.4 18.4651L304.4 535.648" stroke="black" stroke-width="5"/>
<path d="M459.16 203.108L8.35842 469.069" stroke="black" stroke-width="5"/>
<path d="M474.877 237.835L25.9918 505.732" stroke="black" stroke-width="5"/>
<path d="M545.711 501.966L91.7433 236.687" stroke="black" stroke-width="5"/>
<path d="M560.739 465.536L108.25 202.712" stroke="black" stroke-width="5"/>
<path d="M246.183 305.273L285.665 282.478L325.147 305.273V350.863L285.665 373.658L246.183 350.863V305.273Z" fill="white" stroke="black" stroke-width="5.60993"/>
<path d="M121.85 431.657L115.339 419.15L120.803 416.306C122.116 415.622 123.284 415.383 124.307 415.586C125.324 415.779 126.097 416.383 126.627 417.4C126.978 418.074 127.108 418.743 127.017 419.407C126.927 420.07 126.639 420.671 126.152 421.21C126.967 421.042 127.701 421.11 128.356 421.415C129.017 421.703 129.547 422.231 129.948 423C130.526 424.111 130.597 425.172 130.161 426.181C129.729 427.172 128.846 428.015 127.509 428.711L121.85 431.657ZM120.283 423.318L123.174 421.813C124.724 421.007 125.187 420.006 124.566 418.812C123.944 417.617 122.858 417.423 121.309 418.23L118.417 419.735L120.283 423.318ZM123.136 428.8L126.33 427.138C127.891 426.325 128.345 425.292 127.692 424.038C127.04 422.785 125.933 422.564 124.372 423.377L121.179 425.039L123.136 428.8ZM134.064 425.299L127.553 412.792L135.873 408.461L136.815 410.27L130.677 413.466L132.469 416.907L138.217 413.915L139.159 415.725L133.411 418.717L135.304 422.353L141.442 419.158L142.384 420.968L134.064 425.299ZM144.436 419.899L139.92 411.224L142.085 410.098L142.786 411.446C142.823 410.795 143.023 410.211 143.384 409.692C143.757 409.167 144.257 408.741 144.884 408.415C146.93 407.35 148.572 408.006 149.809 410.383L152.561 415.67L150.344 416.824L147.647 411.644C147.296 410.97 146.91 410.547 146.49 410.375C146.082 410.196 145.611 410.246 145.079 410.523C144.429 410.862 144.016 411.339 143.841 411.956C143.672 412.556 143.763 413.192 144.114 413.866L146.654 418.745L144.436 419.899Z" fill="black"/>
<path d="M157.685 487.536V473.436H167.065V475.476H160.145V479.356H166.625V481.396H160.145V485.496H167.065V487.536H157.685ZM173.84 487.736C172.813 487.736 171.92 487.529 171.16 487.116C170.4 486.689 169.813 486.089 169.4 485.316C168.986 484.543 168.78 483.636 168.78 482.596C168.78 481.556 168.986 480.663 169.4 479.916C169.813 479.156 170.4 478.576 171.16 478.176C171.92 477.763 172.813 477.556 173.84 477.556C174.466 477.556 175.086 477.656 175.7 477.856C176.313 478.056 176.82 478.336 177.22 478.696L176.48 480.436C176.133 480.129 175.74 479.896 175.3 479.736C174.873 479.576 174.46 479.496 174.06 479.496C173.193 479.496 172.52 479.769 172.04 480.316C171.573 480.849 171.34 481.616 171.34 482.616C171.34 483.603 171.573 484.383 172.04 484.956C172.52 485.516 173.193 485.796 174.06 485.796C174.446 485.796 174.86 485.716 175.3 485.556C175.74 485.396 176.133 485.156 176.48 484.836L177.22 486.596C176.82 486.943 176.306 487.223 175.68 487.436C175.066 487.636 174.453 487.736 173.84 487.736ZM178.993 487.536V473.436H188.373V475.476H181.453V479.356H187.933V481.396H181.453V485.496H188.373V487.536H178.993ZM190.687 487.536V477.756H193.127V479.276C193.46 478.716 193.907 478.289 194.467 477.996C195.04 477.703 195.68 477.556 196.387 477.556C198.693 477.556 199.847 478.896 199.847 481.576V487.536H197.347V481.696C197.347 480.936 197.2 480.383 196.907 480.036C196.627 479.689 196.187 479.516 195.587 479.516C194.853 479.516 194.267 479.749 193.827 480.216C193.4 480.669 193.187 481.276 193.187 482.036V487.536H190.687Z" fill="white"/>
<path d="M98.0448 336.089V321.989H100.185L105.185 331.209L110.165 321.989H112.265V336.089H109.945V326.589L105.905 333.949H104.405L100.365 326.629V336.089H98.0448ZM115.368 336.089V321.989H124.748V324.029H117.828V327.909H124.308V329.949H117.828V334.049H124.748V336.089H115.368ZM127.062 336.089V326.309H129.502V327.829C129.835 327.269 130.282 326.842 130.842 326.549C131.415 326.256 132.055 326.109 132.762 326.109C135.068 326.109 136.222 327.449 136.222 330.129V336.089H133.722V330.249C133.722 329.489 133.575 328.936 133.282 328.589C133.002 328.242 132.562 328.069 131.962 328.069C131.228 328.069 130.642 328.302 130.202 328.769C129.775 329.222 129.562 329.829 129.562 330.589V336.089H127.062Z" fill="black"/>
<path d="M292.85 476.303H278.75V466.923H280.79V473.843H284.67V467.363H286.71V473.843H290.81V466.923H292.85V476.303ZM292.85 464.609H283.07L283.07 462.169H284.59C284.03 461.836 283.603 461.389 283.31 460.829C283.016 460.256 282.87 459.616 282.87 458.909C282.87 456.603 284.21 455.449 286.89 455.449H292.85V457.949H287.01C286.25 457.949 285.696 458.096 285.35 458.389C285.003 458.669 284.83 459.109 284.83 459.709C284.83 460.443 285.063 461.029 285.53 461.469C285.983 461.896 286.59 462.109 287.35 462.109H292.85V464.609ZM288.49 452.85H286.49V446.89H288.49V452.85ZM292.85 443.998H278.75V434.618H280.79V441.538H284.67V435.058H286.71V441.538H290.81V434.618H292.85V443.998ZM293.05 427.843C293.05 428.87 292.843 429.763 292.43 430.523C292.003 431.283 291.403 431.87 290.63 432.283C289.856 432.696 288.95 432.903 287.91 432.903C286.87 432.903 285.976 432.696 285.23 432.283C284.47 431.87 283.89 431.283 283.49 430.523C283.076 429.763 282.87 428.87 282.87 427.843C282.87 427.216 282.97 426.596 283.17 425.983C283.37 425.37 283.65 424.863 284.01 424.463L285.75 425.203C285.443 425.55 285.21 425.943 285.05 426.383C284.89 426.81 284.81 427.223 284.81 427.623C284.81 428.49 285.083 429.163 285.63 429.643C286.163 430.11 286.93 430.343 287.93 430.343C288.916 430.343 289.696 430.11 290.27 429.643C290.83 429.163 291.11 428.49 291.11 427.623C291.11 427.236 291.03 426.823 290.87 426.383C290.71 425.943 290.47 425.55 290.15 425.203L291.91 424.463C292.256 424.863 292.536 425.376 292.75 426.003C292.95 426.616 293.05 427.23 293.05 427.843Z" fill="black"/>
<path d="M374.041 283.236L366.991 271.025L368.844 269.955L377.785 275.44L377.487 264.965L379.306 263.915L386.356 276.126L384.347 277.286L379.597 269.058L379.778 277.452L378.479 278.202L371.32 273.883L376.05 282.076L374.041 283.236ZM386.708 270.888L385.708 269.156L390.869 266.176L391.869 267.908L386.708 270.888ZM396.554 270.238L389.504 258.027L397.627 253.337L398.647 255.104L392.654 258.564L394.594 261.924L400.206 258.684L401.226 260.451L395.614 263.691L397.664 267.241L403.657 263.781L404.677 265.548L396.554 270.238ZM410.644 262.334C409.755 262.847 408.878 263.115 408.013 263.137C407.142 263.147 406.334 262.921 405.589 262.458C404.844 261.995 404.212 261.313 403.692 260.412C403.172 259.512 402.904 258.635 402.889 257.782C402.867 256.917 403.085 256.121 403.543 255.395C403.995 254.657 404.665 254.031 405.554 253.518C406.097 253.204 406.684 252.981 407.315 252.847C407.946 252.714 408.525 252.703 409.051 252.815L409.281 254.692C408.827 254.6 408.37 254.594 407.909 254.676C407.459 254.75 407.061 254.888 406.715 255.088C405.964 255.521 405.518 256.094 405.375 256.808C405.238 257.503 405.419 258.284 405.919 259.15C406.413 260.004 407.005 260.563 407.695 260.826C408.391 261.071 409.114 260.977 409.865 260.544C410.2 260.35 410.518 260.074 410.819 259.716C411.12 259.357 411.34 258.953 411.481 258.502L413.001 259.657C412.828 260.157 412.524 260.656 412.088 261.154C411.657 261.634 411.175 262.027 410.644 262.334Z" fill="black"/>
<path d="M154.98 257.591L162.03 245.38L163.883 246.45L163.603 256.935L172.526 251.44L174.345 252.49L167.295 264.701L165.286 263.541L170.036 255.314L162.857 259.668L161.558 258.918L161.719 250.558L156.989 258.751L154.98 257.591ZM172.006 262.387L173.006 260.655L178.168 263.635L177.168 265.367L172.006 262.387ZM177.492 270.589L184.542 258.378L192.666 263.068L191.646 264.834L185.653 261.374L183.713 264.735L189.325 267.975L188.305 269.741L182.693 266.501L180.643 270.052L186.636 273.512L185.616 275.279L177.492 270.589ZM187.619 276.435L192.509 267.966L194.622 269.186L193.862 270.502C194.431 270.184 195.031 270.038 195.663 270.064C196.306 270.096 196.934 270.289 197.546 270.643C199.543 271.796 199.872 273.533 198.532 275.854L195.552 281.015L193.387 279.765L196.307 274.708C196.687 274.05 196.837 273.497 196.756 273.05C196.687 272.61 196.392 272.24 195.873 271.94C195.238 271.573 194.613 271.482 193.999 271.666C193.402 271.845 192.914 272.264 192.534 272.922L189.784 277.685L187.619 276.435Z" fill="black"/>
<path d="M354.47 486.536V472.436H363.85V474.476H356.93V478.356H363.41V480.396H356.93V484.496H363.85V486.536H354.47ZM366.163 486.536V476.756H368.603V478.276C368.937 477.716 369.383 477.289 369.943 476.996C370.517 476.703 371.157 476.556 371.863 476.556C374.17 476.556 375.323 477.896 375.323 480.576V486.536H372.823V480.696C372.823 479.936 372.677 479.383 372.383 479.036C372.103 478.689 371.663 478.516 371.063 478.516C370.33 478.516 369.743 478.749 369.303 479.216C368.877 479.669 368.663 480.276 368.663 481.036V486.536H366.163ZM378.103 486.536V472.436H387.483V474.476H380.563V478.356H387.043V480.396H380.563V484.496H387.483V486.536H378.103ZM394.258 486.736C393.231 486.736 392.338 486.529 391.578 486.116C390.818 485.689 390.231 485.089 389.818 484.316C389.404 483.543 389.198 482.636 389.198 481.596C389.198 480.556 389.404 479.663 389.818 478.916C390.231 478.156 390.818 477.576 391.578 477.176C392.338 476.763 393.231 476.556 394.258 476.556C394.884 476.556 395.504 476.656 396.118 476.856C396.731 477.056 397.238 477.336 397.638 477.696L396.898 479.436C396.551 479.129 396.158 478.896 395.718 478.736C395.291 478.576 394.878 478.496 394.478 478.496C393.611 478.496 392.938 478.769 392.458 479.316C391.991 479.849 391.758 480.616 391.758 481.616C391.758 482.603 391.991 483.383 392.458 483.956C392.938 484.516 393.611 484.796 394.478 484.796C394.864 484.796 395.278 484.716 395.718 484.556C396.158 484.396 396.551 484.156 396.898 483.836L397.638 485.596C397.238 485.943 396.724 486.223 396.098 486.436C395.484 486.636 394.871 486.736 394.258 486.736Z" fill="black"/>
<path d="M433.611 333.121V319.021H435.751L440.751 328.241L445.731 319.021H447.831V333.121H445.511V323.621L441.471 330.981H439.971L435.931 323.661V333.121H433.611ZM450.935 333.121V319.021H460.315V321.061H453.395V324.941H459.875V326.981H453.395V331.081H460.315V333.121H450.935ZM467.09 333.321C466.063 333.321 465.17 333.114 464.41 332.701C463.65 332.274 463.063 331.674 462.65 330.901C462.236 330.127 462.03 329.221 462.03 328.181C462.03 327.141 462.236 326.247 462.65 325.501C463.063 324.741 463.65 324.161 464.41 323.761C465.17 323.347 466.063 323.141 467.09 323.141C467.716 323.141 468.336 323.241 468.95 323.441C469.563 323.641 470.07 323.921 470.47 324.281L469.73 326.021C469.383 325.714 468.99 325.481 468.55 325.321C468.123 325.161 467.71 325.081 467.31 325.081C466.443 325.081 465.77 325.354 465.29 325.901C464.823 326.434 464.59 327.201 464.59 328.201C464.59 329.187 464.823 329.967 465.29 330.541C465.77 331.101 466.443 331.381 467.31 331.381C467.696 331.381 468.11 331.301 468.55 331.141C468.99 330.981 469.383 330.741 469.73 330.421L470.47 332.181C470.07 332.527 469.556 332.807 468.93 333.021C468.316 333.221 467.703 333.321 467.09 333.321Z" fill="black"/>
<path d="M336.198 170.934V156.834H345.578V158.874H338.658V162.754H345.138V164.794H338.658V168.894H345.578V170.934H336.198ZM352.353 171.134C351.327 171.134 350.433 170.927 349.673 170.514C348.913 170.087 348.327 169.487 347.913 168.714C347.5 167.941 347.293 167.034 347.293 165.994C347.293 164.954 347.5 164.061 347.913 163.314C348.327 162.554 348.913 161.974 349.673 161.574C350.433 161.161 351.327 160.954 352.353 160.954C352.98 160.954 353.6 161.054 354.213 161.254C354.827 161.454 355.333 161.734 355.733 162.094L354.993 163.834C354.647 163.527 354.253 163.294 353.813 163.134C353.387 162.974 352.973 162.894 352.573 162.894C351.707 162.894 351.033 163.167 350.553 163.714C350.087 164.247 349.853 165.014 349.853 166.014C349.853 167.001 350.087 167.781 350.553 168.354C351.033 168.914 351.707 169.194 352.573 169.194C352.96 169.194 353.373 169.114 353.813 168.954C354.253 168.794 354.647 168.554 354.993 168.234L355.733 169.994C355.333 170.341 354.82 170.621 354.193 170.834C353.58 171.034 352.967 171.134 352.353 171.134ZM357.547 170.934V156.834H359.687L364.687 166.054L369.667 156.834H371.767V170.934H369.447V161.434L365.407 168.794H363.907L359.867 161.474V170.934H357.547Z" fill="black"/>
<path d="M182.157 170.934V156.834H191.537V158.874H184.617V162.754H191.097V164.794H184.617V168.894H191.537V170.934H182.157ZM193.851 170.934V161.154H196.291V162.674C196.624 162.114 197.071 161.687 197.631 161.394C198.204 161.101 198.844 160.954 199.551 160.954C201.857 160.954 203.011 162.294 203.011 164.974V170.934H200.511V165.094C200.511 164.334 200.364 163.781 200.071 163.434C199.791 163.087 199.351 162.914 198.751 162.914C198.017 162.914 197.431 163.147 196.991 163.614C196.564 164.067 196.351 164.674 196.351 165.434V170.934H193.851ZM205.83 170.934V156.834H207.97L212.97 166.054L217.95 156.834H220.05V170.934H217.73V161.434L213.69 168.794H212.19L208.15 161.474V170.934H205.83Z" fill="black"/>
<path d="M291.996 178.461H277.896V172.301C277.896 170.821 278.223 169.674 278.876 168.861C279.516 168.048 280.409 167.641 281.556 167.641C282.316 167.641 282.969 167.834 283.516 168.221C284.063 168.608 284.463 169.141 284.716 169.821C284.943 169.021 285.343 168.401 285.916 167.961C286.476 167.508 287.189 167.281 288.056 167.281C289.309 167.281 290.283 167.708 290.976 168.561C291.656 169.401 291.996 170.574 291.996 172.081V178.461ZM283.876 176.001V172.741C283.876 170.994 283.203 170.121 281.856 170.121C280.509 170.121 279.836 170.994 279.836 172.741V176.001H283.876ZM290.056 176.001V172.401C290.056 170.641 289.349 169.761 287.936 169.761C286.523 169.761 285.816 170.641 285.816 172.401V176.001H290.056ZM291.996 164.651H277.896V162.511L287.116 157.511L277.896 152.531V150.431H291.996V152.751H282.496L289.856 156.791V158.291L282.536 162.331H291.996V164.651Z" fill="black"/>
<path d="M286.998 333.321C285.532 333.321 284.272 333.027 283.218 332.441C282.178 331.841 281.378 331.001 280.818 329.921C280.258 328.827 279.978 327.541 279.978 326.061C279.978 324.581 280.258 323.301 280.818 322.221C281.378 321.141 282.178 320.307 283.218 319.721C284.272 319.121 285.532 318.821 286.998 318.821C287.945 318.821 288.838 318.967 289.678 319.261C290.532 319.554 291.232 319.974 291.778 320.521L290.938 322.561C290.338 322.054 289.725 321.687 289.098 321.461C288.472 321.221 287.798 321.101 287.078 321.101C285.652 321.101 284.565 321.534 283.818 322.401C283.072 323.254 282.698 324.474 282.698 326.061C282.698 327.647 283.072 328.874 283.818 329.741C284.565 330.607 285.652 331.041 287.078 331.041C287.798 331.041 288.472 330.927 289.098 330.701C289.725 330.461 290.338 330.087 290.938 329.581L291.778 331.621C291.232 332.154 290.532 332.574 289.678 332.881C288.838 333.174 287.945 333.321 286.998 333.321Z" fill="black"/>
<path d="M411.79 410.096L418.84 397.886L424.174 400.966C425.456 401.706 426.286 402.562 426.663 403.534C427.048 404.495 426.953 405.472 426.38 406.465C426 407.123 425.506 407.592 424.898 407.873C424.289 408.153 423.628 408.232 422.912 408.112C423.491 408.708 423.828 409.365 423.923 410.081C424.035 410.793 423.875 411.524 423.442 412.274C422.815 413.36 421.959 413.989 420.873 414.163C419.806 414.332 418.62 414.04 417.315 413.286L411.79 410.096ZM417.98 404.294L420.803 405.924C422.316 406.798 423.409 406.651 424.082 405.485C424.755 404.319 424.336 403.299 422.823 402.426L420 400.796L417.98 404.294ZM414.89 409.646L418.008 411.446C419.532 412.326 420.647 412.154 421.354 410.93C422.061 409.706 421.652 408.654 420.128 407.774L417.01 405.974L414.89 409.646ZM423.714 416.981L430.764 404.77L438.888 409.46L437.868 411.227L431.875 407.767L429.935 411.127L435.547 414.367L434.527 416.134L428.915 412.894L426.865 416.445L432.858 419.905L431.838 421.671L423.714 416.981ZM437.605 425.232C436.716 424.719 436.045 424.093 435.594 423.355C435.149 422.606 434.941 421.793 434.97 420.916C434.998 420.04 435.273 419.151 435.793 418.251C436.313 417.35 436.938 416.68 437.67 416.24C438.408 415.788 439.206 415.579 440.064 415.613C440.929 415.635 441.806 415.902 442.695 416.416C443.238 416.729 443.725 417.126 444.156 417.606C444.587 418.085 444.886 418.581 445.052 419.093L443.541 420.23C443.394 419.791 443.17 419.392 442.869 419.034C442.58 418.682 442.262 418.406 441.915 418.206C441.165 417.773 440.445 417.673 439.756 417.906C439.085 418.135 438.5 418.682 438 419.548C437.507 420.402 437.319 421.195 437.436 421.924C437.572 422.649 438.015 423.229 438.765 423.662C439.1 423.855 439.498 423.993 439.959 424.074C440.42 424.155 440.881 424.144 441.341 424.04L441.102 425.935C440.582 426.035 439.998 426.021 439.348 425.892C438.717 425.759 438.136 425.539 437.605 425.232Z" fill="black"/>
</svg>
