<svg width="572" height="541" viewBox="0 0 572 541" fill="none" xmlns="http://www.w3.org/2000/svg">
<path d="M282.832 540.338C282.832 537.838 282.832 537.838 282.83 537.838H282.823H282.794L282.674 537.838L282.519 537.837C282.43 537.837 282.322 537.837 282.196 537.837C281.986 537.836 281.724 537.835 281.412 537.833C281.098 537.832 280.734 537.83 280.32 537.827C278.671 537.816 276.243 537.795 273.131 537.752C266.907 537.666 257.946 537.493 247.009 537.149C225.131 536.459 195.358 535.08 163.763 532.323C132.159 529.565 98.7845 525.432 69.6868 519.247C41.3579 513.225 17.4438 505.327 3.08666 495.099C44.9661 314.395 99.3602 150.616 285.124 3.97641C467.769 150.795 519.103 325.622 561.38 469.604C563.871 478.087 566.331 486.464 568.784 494.721C568.129 494.994 567.313 495.328 566.336 495.717C563.34 496.911 558.831 498.623 552.815 500.681C540.783 504.797 522.719 510.298 498.668 515.802C450.568 526.811 378.509 537.838 282.832 537.838V540.338Z" fill="white" stroke="black" stroke-width="5"/>
<path d="M304.745 21.0567L361.963 73.8188L414.529 138.588L456.701 204.317L371.686 255.386L304.744 293.915H304.745L304.745 21.0567Z" fill="#B76060"/>
<path d="M282.832 540.338C282.832 537.838 282.832 537.838 282.83 537.838H282.823H282.794L282.674 537.838L282.519 537.837C282.43 537.837 282.322 537.837 282.196 537.837C281.986 537.836 281.724 537.835 281.412 537.833C281.098 537.832 280.734 537.83 280.32 537.827C278.671 537.816 276.243 537.795 273.131 537.752C266.907 537.666 257.946 537.493 247.009 537.149C225.131 536.459 195.358 535.08 163.763 532.323C132.159 529.565 98.7845 525.432 69.6868 519.247C41.3579 513.225 17.4438 505.327 3.08666 495.099C44.9661 314.395 99.3602 150.616 285.124 3.97641C467.769 150.795 519.103 325.622 561.38 469.604C563.871 478.087 566.331 486.464 568.784 494.721C568.129 494.994 567.313 495.328 566.336 495.717C563.34 496.911 558.831 498.623 552.815 500.681C540.783 504.797 522.719 510.298 498.668 515.802C450.568 526.811 378.509 537.838 282.832 537.838V540.338Z" stroke="black" stroke-width="5"/>
<path d="M265.963 18.8603L265.963 536.044" stroke="black" stroke-width="5"/>
<path d="M304.1 18.8603L304.1 536.043" stroke="black" stroke-width="5"/>
<path d="M458.859 203.504L8.05764 469.464" stroke="black" stroke-width="5"/>
<path d="M474.576 238.23L25.691 506.127" stroke="black" stroke-width="5"/>
<path d="M545.41 502.362L91.4425 237.082" stroke="black" stroke-width="5"/>
<path d="M560.438 465.931L107.949 203.107" stroke="black" stroke-width="5"/>
<path d="M245.882 305.668L285.364 282.873L324.847 305.668V351.258L285.364 374.053L245.882 351.258V305.668Z" fill="white" stroke="black" stroke-width="5.60993"/>
<path d="M121.549 432.052L115.039 419.545L120.503 416.701C121.815 416.017 122.983 415.778 124.006 415.982C125.023 416.174 125.797 416.778 126.326 417.795C126.677 418.469 126.807 419.138 126.717 419.802C126.626 420.465 126.338 421.066 125.852 421.605C126.666 421.437 127.4 421.505 128.055 421.81C128.716 422.098 129.247 422.626 129.647 423.395C130.226 424.506 130.296 425.567 129.86 426.576C129.429 427.567 128.545 428.41 127.208 429.106L121.549 432.052ZM119.982 423.713L122.874 422.208C124.423 421.402 124.887 420.401 124.265 419.207C123.643 418.012 122.557 417.818 121.008 418.625L118.116 420.13L119.982 423.713ZM122.836 429.195L126.029 427.533C127.59 426.72 128.044 425.687 127.392 424.433C126.739 423.18 125.632 422.959 124.071 423.772L120.878 425.434L122.836 429.195ZM133.763 425.694L127.252 413.187L135.573 408.856L136.514 410.665L130.376 413.861L132.168 417.302L137.916 414.31L138.858 416.12L133.11 419.112L135.003 422.748L141.141 419.553L142.083 421.363L133.763 425.694ZM144.135 420.294L139.619 411.619L141.784 410.493L142.486 411.841C142.523 411.19 142.722 410.606 143.083 410.087C143.456 409.562 143.956 409.136 144.583 408.81C146.629 407.745 148.271 408.401 149.508 410.778L152.26 416.065L150.043 417.219L147.346 412.039C146.995 411.365 146.61 410.942 146.189 410.77C145.781 410.591 145.311 410.641 144.778 410.918C144.128 411.257 143.715 411.734 143.541 412.352C143.371 412.951 143.462 413.587 143.813 414.261L146.353 419.14L144.135 420.294Z" fill="black"/>
<path d="M157.384 487.931V473.831H166.764V475.871H159.844V479.751H166.324V481.791H159.844V485.891H166.764V487.931H157.384ZM173.539 488.131C172.512 488.131 171.619 487.924 170.859 487.511C170.099 487.084 169.512 486.484 169.099 485.711C168.685 484.938 168.479 484.031 168.479 482.991C168.479 481.951 168.685 481.058 169.099 480.311C169.512 479.551 170.099 478.971 170.859 478.571C171.619 478.158 172.512 477.951 173.539 477.951C174.165 477.951 174.785 478.051 175.399 478.251C176.012 478.451 176.519 478.731 176.919 479.091L176.179 480.831C175.832 480.524 175.439 480.291 174.999 480.131C174.572 479.971 174.159 479.891 173.759 479.891C172.892 479.891 172.219 480.164 171.739 480.711C171.272 481.244 171.039 482.011 171.039 483.011C171.039 483.998 171.272 484.778 171.739 485.351C172.219 485.911 172.892 486.191 173.759 486.191C174.145 486.191 174.559 486.111 174.999 485.951C175.439 485.791 175.832 485.551 176.179 485.231L176.919 486.991C176.519 487.338 176.005 487.618 175.379 487.831C174.765 488.031 174.152 488.131 173.539 488.131ZM178.692 487.931V473.831H188.072V475.871H181.152V479.751H187.632V481.791H181.152V485.891H188.072V487.931H178.692ZM190.386 487.931V478.151H192.826V479.671C193.159 479.111 193.606 478.684 194.166 478.391C194.739 478.098 195.379 477.951 196.086 477.951C198.393 477.951 199.546 479.291 199.546 481.971V487.931H197.046V482.091C197.046 481.331 196.899 480.778 196.606 480.431C196.326 480.084 195.886 479.911 195.286 479.911C194.553 479.911 193.966 480.144 193.526 480.611C193.099 481.064 192.886 481.671 192.886 482.431V487.931H190.386Z" fill="black"/>
<path d="M97.7441 336.484V322.384H99.8841L104.884 331.604L109.864 322.384H111.964V336.484H109.644V326.984L105.604 334.344H104.104L100.064 327.024V336.484H97.7441ZM115.067 336.484V322.384H124.447V324.424H117.527V328.304H124.007V330.344H117.527V334.444H124.447V336.484H115.067ZM126.761 336.484V326.704H129.201V328.224C129.534 327.664 129.981 327.237 130.541 326.944C131.114 326.651 131.754 326.504 132.461 326.504C134.768 326.504 135.921 327.844 135.921 330.524V336.484H133.421V330.644C133.421 329.884 133.274 329.331 132.981 328.984C132.701 328.637 132.261 328.464 131.661 328.464C130.928 328.464 130.341 328.697 129.901 329.164C129.474 329.617 129.261 330.224 129.261 330.984V336.484H126.761Z" fill="black"/>
<path d="M292.549 476.698H278.449V467.318H280.489V474.238H284.369V467.758H286.409V474.238H290.509V467.318H292.549V476.698ZM292.549 465.004H282.769L282.769 462.564H284.289C283.729 462.231 283.302 461.784 283.009 461.224C282.715 460.651 282.569 460.011 282.569 459.304C282.569 456.998 283.909 455.844 286.589 455.844H292.549V458.344H286.709C285.949 458.344 285.395 458.491 285.049 458.784C284.702 459.064 284.529 459.504 284.529 460.104C284.529 460.838 284.762 461.424 285.229 461.864C285.682 462.291 286.289 462.504 287.049 462.504H292.549V465.004ZM288.189 453.245H286.189V447.285H288.189V453.245ZM292.549 444.393H278.449V435.013H280.489V441.933H284.369V435.453H286.409V441.933H290.509V435.013H292.549V444.393ZM292.749 428.238C292.749 429.265 292.542 430.158 292.129 430.918C291.702 431.678 291.102 432.265 290.329 432.678C289.555 433.091 288.649 433.298 287.609 433.298C286.569 433.298 285.675 433.091 284.929 432.678C284.169 432.265 283.589 431.678 283.189 430.918C282.775 430.158 282.569 429.265 282.569 428.238C282.569 427.611 282.669 426.991 282.869 426.378C283.069 425.765 283.349 425.258 283.709 424.858L285.449 425.598C285.142 425.945 284.909 426.338 284.749 426.778C284.589 427.205 284.509 427.618 284.509 428.018C284.509 428.885 284.782 429.558 285.329 430.038C285.862 430.505 286.629 430.738 287.629 430.738C288.615 430.738 289.395 430.505 289.969 430.038C290.529 429.558 290.809 428.885 290.809 428.018C290.809 427.631 290.729 427.218 290.569 426.778C290.409 426.338 290.169 425.945 289.849 425.598L291.609 424.858C291.955 425.258 292.235 425.771 292.449 426.398C292.649 427.011 292.749 427.625 292.749 428.238Z" fill="black"/>
<path d="M373.74 283.631L366.69 271.42L368.544 270.35L377.484 275.835L377.187 265.36L379.005 264.31L386.055 276.521L384.046 277.681L379.296 269.453L379.477 277.847L378.178 278.597L371.02 274.278L375.75 282.471L373.74 283.631ZM386.407 271.283L385.407 269.551L390.568 266.571L391.568 268.303L386.407 271.283ZM396.253 270.633L389.203 258.422L397.326 253.732L398.346 255.499L392.353 258.959L394.293 262.319L399.905 259.079L400.925 260.846L395.313 264.086L397.363 267.636L403.356 264.176L404.376 265.943L396.253 270.633ZM410.343 262.729C409.454 263.242 408.577 263.51 407.713 263.532C406.841 263.542 406.033 263.316 405.288 262.853C404.544 262.39 403.911 261.708 403.391 260.807C402.871 259.907 402.604 259.03 402.588 258.177C402.566 257.312 402.784 256.516 403.243 255.79C403.694 255.052 404.364 254.426 405.253 253.913C405.796 253.599 406.383 253.376 407.014 253.243C407.645 253.109 408.224 253.098 408.751 253.21L408.98 255.087C408.526 254.995 408.069 254.989 407.608 255.071C407.158 255.145 406.76 255.283 406.414 255.483C405.663 255.916 405.217 256.49 405.075 257.203C404.937 257.898 405.118 258.679 405.618 259.545C406.112 260.399 406.704 260.958 407.395 261.221C408.09 261.466 408.813 261.372 409.564 260.939C409.899 260.745 410.217 260.469 410.518 260.111C410.819 259.752 411.04 259.348 411.18 258.897L412.701 260.052C412.528 260.552 412.223 261.051 411.787 261.549C411.356 262.029 410.875 262.422 410.343 262.729Z" fill="black"/>
<path d="M154.679 257.986L161.729 245.775L163.582 246.845L163.303 257.33L172.225 251.835L174.044 252.885L166.994 265.096L164.985 263.936L169.735 255.709L162.556 260.063L161.257 259.313L161.418 250.954L156.688 259.146L154.679 257.986ZM171.706 262.782L172.706 261.05L177.867 264.03L176.867 265.762L171.706 262.782ZM177.192 270.984L184.242 258.773L192.365 263.463L191.345 265.229L185.352 261.769L183.412 265.13L189.024 268.37L188.004 270.136L182.392 266.896L180.342 270.447L186.335 273.907L185.315 275.674L177.192 270.984ZM187.319 276.83L192.209 268.361L194.322 269.581L193.562 270.897C194.13 270.579 194.73 270.433 195.362 270.459C196.005 270.491 196.633 270.684 197.245 271.038C199.242 272.191 199.571 273.928 198.231 276.249L195.251 281.41L193.086 280.16L196.006 275.103C196.386 274.445 196.536 273.892 196.455 273.445C196.386 273.005 196.092 272.635 195.572 272.335C194.937 271.968 194.312 271.877 193.698 272.061C193.102 272.24 192.614 272.659 192.234 273.317L189.484 278.08L187.319 276.83Z" fill="black"/>
<path d="M354.169 486.931V472.831H363.549V474.871H356.629V478.751H363.109V480.791H356.629V484.891H363.549V486.931H354.169ZM365.863 486.931V477.151H368.303V478.671C368.636 478.111 369.083 477.684 369.643 477.391C370.216 477.098 370.856 476.951 371.563 476.951C373.869 476.951 375.023 478.291 375.023 480.971V486.931H372.523V481.091C372.523 480.331 372.376 479.778 372.083 479.431C371.803 479.084 371.363 478.911 370.763 478.911C370.029 478.911 369.443 479.144 369.003 479.611C368.576 480.064 368.363 480.671 368.363 481.431V486.931H365.863ZM377.802 486.931V472.831H387.182V474.871H380.262V478.751H386.742V480.791H380.262V484.891H387.182V486.931H377.802ZM393.957 487.131C392.93 487.131 392.037 486.924 391.277 486.511C390.517 486.084 389.93 485.484 389.517 484.711C389.103 483.938 388.897 483.031 388.897 481.991C388.897 480.951 389.103 480.058 389.517 479.311C389.93 478.551 390.517 477.971 391.277 477.571C392.037 477.158 392.93 476.951 393.957 476.951C394.583 476.951 395.203 477.051 395.817 477.251C396.43 477.451 396.937 477.731 397.337 478.091L396.597 479.831C396.25 479.524 395.857 479.291 395.417 479.131C394.99 478.971 394.577 478.891 394.177 478.891C393.31 478.891 392.637 479.164 392.157 479.711C391.69 480.244 391.457 481.011 391.457 482.011C391.457 482.998 391.69 483.778 392.157 484.351C392.637 484.911 393.31 485.191 394.177 485.191C394.563 485.191 394.977 485.111 395.417 484.951C395.857 484.791 396.25 484.551 396.597 484.231L397.337 485.991C396.937 486.338 396.423 486.618 395.797 486.831C395.183 487.031 394.57 487.131 393.957 487.131Z" fill="black"/>
<path d="M433.31 333.516V319.416H435.45L440.45 328.636L445.43 319.416H447.53V333.516H445.21V324.016L441.17 331.376H439.67L435.63 324.056V333.516H433.31ZM450.634 333.516V319.416H460.014V321.456H453.094V325.336H459.574V327.376H453.094V331.476H460.014V333.516H450.634ZM466.789 333.716C465.762 333.716 464.869 333.509 464.109 333.096C463.349 332.669 462.762 332.069 462.349 331.296C461.935 330.522 461.729 329.616 461.729 328.576C461.729 327.536 461.935 326.642 462.349 325.896C462.762 325.136 463.349 324.556 464.109 324.156C464.869 323.742 465.762 323.536 466.789 323.536C467.415 323.536 468.035 323.636 468.649 323.836C469.262 324.036 469.769 324.316 470.169 324.676L469.429 326.416C469.082 326.109 468.689 325.876 468.249 325.716C467.822 325.556 467.409 325.476 467.009 325.476C466.142 325.476 465.469 325.749 464.989 326.296C464.522 326.829 464.289 327.596 464.289 328.596C464.289 329.582 464.522 330.362 464.989 330.936C465.469 331.496 466.142 331.776 467.009 331.776C467.395 331.776 467.809 331.696 468.249 331.536C468.689 331.376 469.082 331.136 469.429 330.816L470.169 332.576C469.769 332.922 469.255 333.202 468.629 333.416C468.015 333.616 467.402 333.716 466.789 333.716Z" fill="black"/>
<path d="M335.897 171.329V157.229H345.277V159.269H338.357V163.149H344.837V165.189H338.357V169.289H345.277V171.329H335.897ZM352.052 171.529C351.026 171.529 350.132 171.322 349.372 170.909C348.612 170.482 348.026 169.882 347.612 169.109C347.199 168.336 346.992 167.429 346.992 166.389C346.992 165.349 347.199 164.456 347.612 163.709C348.026 162.949 348.612 162.369 349.372 161.969C350.132 161.556 351.026 161.349 352.052 161.349C352.679 161.349 353.299 161.449 353.912 161.649C354.526 161.849 355.032 162.129 355.432 162.489L354.692 164.229C354.346 163.922 353.952 163.689 353.512 163.529C353.086 163.369 352.672 163.289 352.272 163.289C351.406 163.289 350.732 163.562 350.252 164.109C349.786 164.642 349.552 165.409 349.552 166.409C349.552 167.396 349.786 168.176 350.252 168.749C350.732 169.309 351.406 169.589 352.272 169.589C352.659 169.589 353.072 169.509 353.512 169.349C353.952 169.189 354.346 168.949 354.692 168.629L355.432 170.389C355.032 170.736 354.519 171.016 353.892 171.229C353.279 171.429 352.666 171.529 352.052 171.529ZM357.246 171.329V157.229H359.386L364.386 166.449L369.366 157.229H371.466V171.329H369.146V161.829L365.106 169.189H363.606L359.566 161.869V171.329H357.246Z" fill="white"/>
<path d="M181.856 171.329V157.229H191.236V159.269H184.316V163.149H190.796V165.189H184.316V169.289H191.236V171.329H181.856ZM193.55 171.329V161.549H195.99V163.069C196.323 162.509 196.77 162.082 197.33 161.789C197.903 161.496 198.543 161.349 199.25 161.349C201.557 161.349 202.71 162.689 202.71 165.369V171.329H200.21V165.489C200.21 164.729 200.063 164.176 199.77 163.829C199.49 163.482 199.05 163.309 198.45 163.309C197.717 163.309 197.13 163.542 196.69 164.009C196.263 164.462 196.05 165.069 196.05 165.829V171.329H193.55ZM205.529 171.329V157.229H207.669L212.669 166.449L217.649 157.229H219.749V171.329H217.429V161.829L213.389 169.189H211.889L207.849 161.869V171.329H205.529Z" fill="black"/>
<path d="M291.695 178.856H277.595V172.696C277.595 171.216 277.922 170.069 278.575 169.256C279.215 168.443 280.109 168.036 281.255 168.036C282.015 168.036 282.669 168.229 283.215 168.616C283.762 169.003 284.162 169.536 284.415 170.216C284.642 169.416 285.042 168.796 285.615 168.356C286.175 167.903 286.889 167.676 287.755 167.676C289.009 167.676 289.982 168.103 290.675 168.956C291.355 169.796 291.695 170.969 291.695 172.476V178.856ZM283.575 176.396V173.136C283.575 171.389 282.902 170.516 281.555 170.516C280.209 170.516 279.535 171.389 279.535 173.136V176.396H283.575ZM289.755 176.396V172.796C289.755 171.036 289.049 170.156 287.635 170.156C286.222 170.156 285.515 171.036 285.515 172.796V176.396H289.755ZM291.695 165.046H277.595V162.906L286.815 157.906L277.595 152.926V150.826H291.695V153.146H282.195L289.555 157.186V158.686L282.235 162.726H291.695V165.046Z" fill="black"/>
<path d="M286.698 333.716C285.231 333.716 283.971 333.422 282.918 332.836C281.878 332.236 281.078 331.396 280.518 330.316C279.958 329.222 279.678 327.936 279.678 326.456C279.678 324.976 279.958 323.696 280.518 322.616C281.078 321.536 281.878 320.702 282.918 320.116C283.971 319.516 285.231 319.216 286.698 319.216C287.644 319.216 288.538 319.362 289.378 319.656C290.231 319.949 290.931 320.369 291.478 320.916L290.638 322.956C290.038 322.449 289.424 322.082 288.798 321.856C288.171 321.616 287.498 321.496 286.778 321.496C285.351 321.496 284.264 321.929 283.518 322.796C282.771 323.649 282.398 324.869 282.398 326.456C282.398 328.042 282.771 329.269 283.518 330.136C284.264 331.002 285.351 331.436 286.778 331.436C287.498 331.436 288.171 331.322 288.798 331.096C289.424 330.856 290.038 330.482 290.638 329.976L291.478 332.016C290.931 332.549 290.231 332.969 289.378 333.276C288.538 333.569 287.644 333.716 286.698 333.716Z" fill="black"/>
<path d="M411.489 410.492L418.539 398.281L423.873 401.361C425.155 402.101 425.985 402.957 426.363 403.929C426.747 404.89 426.652 405.867 426.079 406.86C425.699 407.518 425.205 407.988 424.597 408.268C423.989 408.548 423.327 408.627 422.611 408.507C423.191 409.103 423.528 409.76 423.622 410.476C423.735 411.188 423.574 411.919 423.141 412.669C422.514 413.755 421.658 414.384 420.572 414.558C419.505 414.727 418.319 414.435 417.014 413.682L411.489 410.492ZM417.679 404.689L420.502 406.319C422.015 407.193 423.108 407.046 423.781 405.88C424.455 404.714 424.035 403.694 422.522 402.821L419.699 401.191L417.679 404.689ZM414.589 410.041L417.707 411.841C419.231 412.721 420.346 412.549 421.053 411.325C421.76 410.101 421.351 409.049 419.827 408.169L416.709 406.369L414.589 410.041ZM423.413 417.376L430.463 405.165L438.587 409.855L437.567 411.622L431.574 408.162L429.634 411.522L435.246 414.762L434.226 416.529L428.614 413.289L426.564 416.84L432.557 420.3L431.537 422.066L423.413 417.376ZM437.304 425.627C436.415 425.114 435.745 424.488 435.293 423.75C434.848 423.001 434.64 422.188 434.669 421.311C434.698 420.435 434.972 419.546 435.492 418.646C436.012 417.745 436.638 417.075 437.369 416.635C438.107 416.183 438.905 415.974 439.763 416.008C440.628 416.03 441.505 416.298 442.394 416.811C442.937 417.124 443.424 417.521 443.855 418.001C444.286 418.481 444.585 418.976 444.751 419.488L443.24 420.625C443.094 420.186 442.87 419.787 442.569 419.429C442.279 419.077 441.961 418.801 441.615 418.601C440.864 418.168 440.144 418.068 439.455 418.301C438.784 418.53 438.199 419.077 437.699 419.943C437.206 420.797 437.018 421.59 437.135 422.319C437.271 423.044 437.714 423.624 438.465 424.057C438.8 424.25 439.197 424.388 439.659 424.469C440.12 424.55 440.58 424.539 441.04 424.436L440.801 426.33C440.282 426.43 439.697 426.416 439.048 426.287C438.416 426.154 437.835 425.934 437.304 425.627Z" fill="black"/>
</svg>
