<svg width="572" height="540" viewBox="0 0 572 540" fill="none" xmlns="http://www.w3.org/2000/svg">
<path d="M282.803 539.818C282.803 537.318 282.803 537.318 282.801 537.318H282.794H282.764L282.645 537.318L282.49 537.318C282.401 537.318 282.293 537.317 282.167 537.317C281.956 537.316 281.695 537.315 281.383 537.314C281.069 537.312 280.704 537.31 280.291 537.308C278.642 537.297 276.214 537.275 273.102 537.232C266.878 537.146 257.917 536.974 246.979 536.629C225.101 535.939 195.328 534.56 163.734 531.803C132.129 529.045 98.7552 524.913 69.6575 518.727C41.3286 512.705 17.4145 504.807 3.05737 494.579C44.9368 313.875 99.3309 150.097 285.095 3.45688C467.74 150.276 519.074 325.102 561.351 469.084C563.842 477.568 566.301 485.944 568.754 494.202C568.099 494.475 567.284 494.809 566.307 495.198C563.311 496.391 558.802 498.104 552.786 500.162C540.753 504.278 522.69 509.778 498.639 515.283C450.538 526.292 378.48 537.318 282.803 537.318V539.818Z" fill="white" stroke="black" stroke-width="5"/>
<path d="M267.28 535.83L268.127 363.106L285.821 374.373L286.093 374.546L286.363 374.37L303.579 363.131L300.58 535.83H267.28Z" fill="#56A278" stroke="black"/>
<path d="M282.803 539.818C282.803 537.318 282.803 537.318 282.801 537.318H282.794H282.764L282.645 537.318L282.49 537.318C282.401 537.318 282.293 537.317 282.167 537.317C281.956 537.316 281.695 537.315 281.383 537.314C281.069 537.312 280.704 537.31 280.291 537.308C278.642 537.297 276.214 537.275 273.102 537.232C266.878 537.146 257.917 536.974 246.979 536.629C225.101 535.939 195.328 534.56 163.734 531.803C132.129 529.045 98.7552 524.913 69.6575 518.727C41.3286 512.705 17.4145 504.807 3.05737 494.579C44.9368 313.875 99.3309 150.097 285.095 3.45688C467.74 150.276 519.074 325.102 561.351 469.084C563.842 477.568 566.301 485.944 568.754 494.202C568.099 494.475 567.284 494.809 566.307 495.198C563.311 496.391 558.802 498.104 552.786 500.162C540.753 504.278 522.69 509.778 498.639 515.283C450.538 526.292 378.48 537.318 282.803 537.318V539.818Z" stroke="black" stroke-width="5"/>
<path d="M265.934 18.3408L265.934 535.525" stroke="black" stroke-width="5"/>
<path d="M304.07 18.3408L304.07 535.524" stroke="black" stroke-width="5"/>
<path d="M458.83 202.984L8.02834 468.944" stroke="black" stroke-width="5"/>
<path d="M474.547 237.711L25.6617 505.608" stroke="black" stroke-width="5"/>
<path d="M545.381 501.842L91.4132 236.562" stroke="black" stroke-width="5"/>
<path d="M560.409 465.412L107.92 202.587" stroke="black" stroke-width="5"/>
<path d="M245.853 305.148L285.335 282.353L324.817 305.148V350.738L285.335 373.534L245.853 350.738V305.148Z" fill="white" stroke="black" stroke-width="5.60993"/>
<path d="M121.52 431.532L115.009 419.025L120.473 416.181C121.786 415.498 122.954 415.258 123.977 415.462C124.994 415.654 125.767 416.259 126.297 417.276C126.648 417.95 126.778 418.619 126.687 419.282C126.597 419.946 126.308 420.547 125.822 421.085C126.637 420.917 127.371 420.986 128.026 421.291C128.687 421.578 129.217 422.106 129.617 422.875C130.196 423.987 130.267 425.047 129.83 426.056C129.399 427.047 128.516 427.891 127.179 428.586L121.52 431.532ZM119.953 423.194L122.844 421.689C124.394 420.882 124.857 419.882 124.236 418.687C123.614 417.493 122.528 417.299 120.979 418.105L118.087 419.61L119.953 423.194ZM122.806 428.676L125.999 427.013C127.561 426.201 128.015 425.168 127.362 423.914C126.71 422.66 125.603 422.44 124.042 423.252L120.848 424.915L122.806 428.676ZM133.734 425.174L127.223 412.667L135.543 408.336L136.485 410.146L130.347 413.341L132.139 416.783L137.886 413.791L138.828 415.6L133.081 418.592L134.974 422.229L141.112 419.034L142.054 420.843L133.734 425.174ZM144.106 419.775L139.59 411.1L141.754 409.973L142.456 411.321C142.493 410.671 142.693 410.086 143.054 409.567C143.427 409.042 143.927 408.617 144.554 408.29C146.6 407.225 148.242 407.881 149.479 410.259L152.231 415.545L150.014 416.7L147.317 411.519C146.966 410.845 146.58 410.422 146.16 410.25C145.752 410.072 145.281 410.121 144.749 410.398C144.099 410.737 143.686 411.215 143.511 411.832C143.342 412.431 143.433 413.068 143.784 413.742L146.324 418.62L144.106 419.775Z" fill="black"/>
<path d="M157.354 487.412V473.312H166.734V475.352H159.814V479.232H166.294V481.272H159.814V485.372H166.734V487.412H157.354ZM173.509 487.612C172.483 487.612 171.589 487.405 170.829 486.992C170.069 486.565 169.483 485.965 169.069 485.192C168.656 484.418 168.449 483.512 168.449 482.472C168.449 481.432 168.656 480.538 169.069 479.792C169.483 479.032 170.069 478.452 170.829 478.052C171.589 477.638 172.483 477.432 173.509 477.432C174.136 477.432 174.756 477.532 175.369 477.732C175.983 477.932 176.489 478.212 176.889 478.572L176.149 480.312C175.803 480.005 175.409 479.772 174.969 479.612C174.543 479.452 174.129 479.372 173.729 479.372C172.863 479.372 172.189 479.645 171.709 480.192C171.243 480.725 171.009 481.492 171.009 482.492C171.009 483.478 171.243 484.258 171.709 484.832C172.189 485.392 172.863 485.672 173.729 485.672C174.116 485.672 174.529 485.592 174.969 485.432C175.409 485.272 175.803 485.032 176.149 484.712L176.889 486.472C176.489 486.818 175.976 487.098 175.349 487.312C174.736 487.512 174.123 487.612 173.509 487.612ZM178.663 487.412V473.312H188.043V475.352H181.123V479.232H187.603V481.272H181.123V485.372H188.043V487.412H178.663ZM190.357 487.412V477.632H192.797V479.152C193.13 478.592 193.577 478.165 194.137 477.872C194.71 477.578 195.35 477.432 196.057 477.432C198.363 477.432 199.517 478.772 199.517 481.452V487.412H197.017V481.572C197.017 480.812 196.87 480.258 196.577 479.912C196.297 479.565 195.857 479.392 195.257 479.392C194.523 479.392 193.937 479.625 193.497 480.092C193.07 480.545 192.857 481.152 192.857 481.912V487.412H190.357Z" fill="black"/>
<path d="M97.7148 335.964V321.864H99.8548L104.855 331.084L109.835 321.864H111.935V335.964H109.615V326.464L105.575 333.824H104.075L100.035 326.504V335.964H97.7148ZM115.038 335.964V321.864H124.418V323.904H117.498V327.784H123.978V329.824H117.498V333.924H124.418V335.964H115.038ZM126.732 335.964V326.184H129.172V327.704C129.505 327.144 129.952 326.718 130.512 326.424C131.085 326.131 131.725 325.984 132.432 325.984C134.738 325.984 135.892 327.324 135.892 330.004V335.964H133.392V330.124C133.392 329.364 133.245 328.811 132.952 328.464C132.672 328.118 132.232 327.944 131.632 327.944C130.898 327.944 130.312 328.178 129.872 328.644C129.445 329.098 129.232 329.704 129.232 330.464V335.964H126.732Z" fill="black"/>
<path d="M292.52 476.178H278.42V466.798H280.46V473.718H284.34V467.238H286.38V473.718H290.48V466.798H292.52V476.178ZM292.52 464.485H282.74L282.74 462.045H284.26C283.7 461.711 283.273 461.265 282.98 460.705C282.686 460.131 282.54 459.491 282.54 458.785C282.54 456.478 283.88 455.325 286.56 455.325H292.52V457.825H286.68C285.92 457.825 285.366 457.971 285.02 458.265C284.673 458.545 284.5 458.985 284.5 459.585C284.5 460.318 284.733 460.905 285.2 461.345C285.653 461.771 286.26 461.985 287.02 461.985H292.52V464.485ZM288.16 452.725H286.16V446.765H288.16V452.725ZM292.52 443.874H278.42V434.494H280.46V441.414H284.34V434.934H286.38V441.414H290.48V434.494H292.52V443.874ZM292.72 427.719C292.72 428.745 292.513 429.639 292.1 430.399C291.673 431.159 291.073 431.745 290.3 432.159C289.526 432.572 288.62 432.779 287.58 432.779C286.54 432.779 285.646 432.572 284.9 432.159C284.14 431.745 283.56 431.159 283.16 430.399C282.746 429.639 282.54 428.745 282.54 427.719C282.54 427.092 282.64 426.472 282.84 425.859C283.04 425.245 283.32 424.739 283.68 424.339L285.42 425.079C285.113 425.425 284.88 425.819 284.72 426.259C284.56 426.685 284.48 427.099 284.48 427.499C284.48 428.365 284.753 429.039 285.3 429.519C285.833 429.985 286.6 430.219 287.6 430.219C288.586 430.219 289.366 429.985 289.94 429.519C290.5 429.039 290.78 428.365 290.78 427.499C290.78 427.112 290.7 426.699 290.54 426.259C290.38 425.819 290.14 425.425 289.82 425.079L291.58 424.339C291.926 424.739 292.206 425.252 292.42 425.879C292.62 426.492 292.72 427.105 292.72 427.719Z" fill="white"/>
<path d="M373.711 283.111L366.661 270.9L368.514 269.83L377.455 275.315L377.157 264.84L378.976 263.79L386.026 276.001L384.017 277.161L379.267 268.934L379.448 277.328L378.149 278.078L370.99 273.759L375.72 281.951L373.711 283.111ZM386.378 270.764L385.378 269.032L390.539 266.052L391.539 267.784L386.378 270.764ZM396.224 270.114L389.174 257.903L397.297 253.213L398.317 254.979L392.324 258.439L394.264 261.8L399.876 258.56L400.896 260.326L395.284 263.566L397.334 267.117L403.327 263.657L404.347 265.424L396.224 270.114ZM410.314 262.209C409.425 262.723 408.548 262.99 407.683 263.012C406.812 263.023 406.004 262.797 405.259 262.334C404.514 261.87 403.882 261.189 403.362 260.288C402.842 259.387 402.574 258.51 402.559 257.657C402.537 256.792 402.755 255.997 403.213 255.27C403.665 254.532 404.335 253.907 405.224 253.393C405.767 253.08 406.354 252.856 406.985 252.723C407.616 252.59 408.195 252.579 408.721 252.69L408.95 254.567C408.497 254.475 408.04 254.47 407.579 254.551C407.129 254.626 406.731 254.763 406.385 254.963C405.634 255.397 405.188 255.97 405.045 256.683C404.908 257.379 405.089 258.159 405.589 259.025C406.082 259.88 406.675 260.439 407.365 260.702C408.061 260.947 408.784 260.853 409.535 260.419C409.87 260.226 410.188 259.95 410.489 259.591C410.79 259.233 411.01 258.828 411.15 258.378L412.671 259.532C412.498 260.032 412.194 260.531 411.758 261.03C411.327 261.509 410.845 261.903 410.314 262.209Z" fill="black"/>
<path d="M154.65 257.467L161.7 245.256L163.553 246.326L163.273 256.81L172.196 251.316L174.015 252.366L166.965 264.577L164.955 263.417L169.705 255.189L162.527 259.543L161.228 258.793L161.389 250.434L156.659 258.627L154.65 257.467ZM171.676 262.262L172.676 260.53L177.838 263.51L176.838 265.242L171.676 262.262ZM177.162 270.464L184.212 258.253L192.336 262.943L191.316 264.71L185.323 261.25L183.383 264.61L188.995 267.85L187.975 269.617L182.363 266.377L180.313 269.927L186.306 273.387L185.286 275.154L177.162 270.464ZM187.289 276.311L192.179 267.841L194.292 269.061L193.532 270.378C194.101 270.059 194.701 269.913 195.333 269.939C195.976 269.972 196.604 270.165 197.216 270.518C199.213 271.671 199.542 273.409 198.202 275.729L195.222 280.891L193.057 279.641L195.977 274.583C196.357 273.925 196.507 273.373 196.426 272.926C196.357 272.486 196.062 272.115 195.543 271.815C194.908 271.449 194.283 271.358 193.669 271.542C193.072 271.721 192.584 272.14 192.204 272.798L189.454 277.561L187.289 276.311Z" fill="black"/>
<path d="M354.14 486.412V472.312H363.52V474.352H356.6V478.232H363.08V480.272H356.6V484.372H363.52V486.412H354.14ZM365.833 486.412V476.632H368.273V478.152C368.607 477.592 369.053 477.165 369.613 476.872C370.187 476.578 370.827 476.432 371.533 476.432C373.84 476.432 374.993 477.772 374.993 480.452V486.412H372.493V480.572C372.493 479.812 372.347 479.258 372.053 478.912C371.773 478.565 371.333 478.392 370.733 478.392C370 478.392 369.413 478.625 368.973 479.092C368.547 479.545 368.333 480.152 368.333 480.912V486.412H365.833ZM377.772 486.412V472.312H387.152V474.352H380.232V478.232H386.712V480.272H380.232V484.372H387.152V486.412H377.772ZM393.927 486.612C392.901 486.612 392.007 486.405 391.247 485.992C390.487 485.565 389.901 484.965 389.487 484.192C389.074 483.418 388.867 482.512 388.867 481.472C388.867 480.432 389.074 479.538 389.487 478.792C389.901 478.032 390.487 477.452 391.247 477.052C392.007 476.638 392.901 476.432 393.927 476.432C394.554 476.432 395.174 476.532 395.787 476.732C396.401 476.932 396.907 477.212 397.307 477.572L396.567 479.312C396.221 479.005 395.827 478.772 395.387 478.612C394.961 478.452 394.547 478.372 394.147 478.372C393.281 478.372 392.607 478.645 392.127 479.192C391.661 479.725 391.427 480.492 391.427 481.492C391.427 482.478 391.661 483.258 392.127 483.832C392.607 484.392 393.281 484.672 394.147 484.672C394.534 484.672 394.947 484.592 395.387 484.432C395.827 484.272 396.221 484.032 396.567 483.712L397.307 485.472C396.907 485.818 396.394 486.098 395.767 486.312C395.154 486.512 394.541 486.612 393.927 486.612Z" fill="black"/>
<path d="M433.281 332.996V318.896H435.421L440.421 328.116L445.401 318.896H447.501V332.996H445.181V323.496L441.141 330.856H439.641L435.601 323.536V332.996H433.281ZM450.604 332.996V318.896H459.984V320.936H453.064V324.816H459.544V326.856H453.064V330.956H459.984V332.996H450.604ZM466.759 333.196C465.733 333.196 464.839 332.989 464.079 332.576C463.319 332.149 462.733 331.549 462.319 330.776C461.906 330.003 461.699 329.096 461.699 328.056C461.699 327.016 461.906 326.123 462.319 325.376C462.733 324.616 463.319 324.036 464.079 323.636C464.839 323.223 465.733 323.016 466.759 323.016C467.386 323.016 468.006 323.116 468.619 323.316C469.233 323.516 469.739 323.796 470.139 324.156L469.399 325.896C469.053 325.589 468.659 325.356 468.219 325.196C467.793 325.036 467.379 324.956 466.979 324.956C466.113 324.956 465.439 325.229 464.959 325.776C464.493 326.309 464.259 327.076 464.259 328.076C464.259 329.063 464.493 329.843 464.959 330.416C465.439 330.976 466.113 331.256 466.979 331.256C467.366 331.256 467.779 331.176 468.219 331.016C468.659 330.856 469.053 330.616 469.399 330.296L470.139 332.056C469.739 332.403 469.226 332.683 468.599 332.896C467.986 333.096 467.373 333.196 466.759 333.196Z" fill="black"/>
<path d="M335.868 170.81V156.71H345.248V158.75H338.328V162.63H344.808V164.67H338.328V168.77H345.248V170.81H335.868ZM352.023 171.01C350.996 171.01 350.103 170.803 349.343 170.39C348.583 169.963 347.996 169.363 347.583 168.59C347.17 167.816 346.963 166.91 346.963 165.87C346.963 164.83 347.17 163.936 347.583 163.19C347.996 162.43 348.583 161.85 349.343 161.45C350.103 161.036 350.996 160.83 352.023 160.83C352.65 160.83 353.27 160.93 353.883 161.13C354.496 161.33 355.003 161.61 355.403 161.97L354.663 163.71C354.316 163.403 353.923 163.17 353.483 163.01C353.056 162.85 352.643 162.77 352.243 162.77C351.376 162.77 350.703 163.043 350.223 163.59C349.756 164.123 349.523 164.89 349.523 165.89C349.523 166.876 349.756 167.656 350.223 168.23C350.703 168.79 351.376 169.07 352.243 169.07C352.63 169.07 353.043 168.99 353.483 168.83C353.923 168.67 354.316 168.43 354.663 168.11L355.403 169.87C355.003 170.216 354.49 170.496 353.863 170.71C353.25 170.91 352.636 171.01 352.023 171.01ZM357.217 170.81V156.71H359.357L364.357 165.93L369.337 156.71H371.437V170.81H369.117V161.31L365.077 168.67H363.577L359.537 161.35V170.81H357.217Z" fill="black"/>
<path d="M181.827 170.81V156.71H191.207V158.75H184.287V162.63H190.767V164.67H184.287V168.77H191.207V170.81H181.827ZM193.521 170.81V161.03H195.961V162.55C196.294 161.99 196.741 161.563 197.301 161.27C197.874 160.976 198.514 160.83 199.221 160.83C201.527 160.83 202.681 162.17 202.681 164.85V170.81H200.181V164.97C200.181 164.21 200.034 163.656 199.741 163.31C199.461 162.963 199.021 162.79 198.421 162.79C197.687 162.79 197.101 163.023 196.661 163.49C196.234 163.943 196.021 164.55 196.021 165.31V170.81H193.521ZM205.5 170.81V156.71H207.64L212.64 165.93L217.62 156.71H219.72V170.81H217.4V161.31L213.36 168.67H211.86L207.82 161.35V170.81H205.5Z" fill="black"/>
<path d="M291.666 178.336H277.566V172.176C277.566 170.696 277.893 169.55 278.546 168.736C279.186 167.923 280.079 167.516 281.226 167.516C281.986 167.516 282.639 167.71 283.186 168.096C283.733 168.483 284.133 169.016 284.386 169.696C284.613 168.896 285.013 168.276 285.586 167.836C286.146 167.383 286.859 167.156 287.726 167.156C288.979 167.156 289.953 167.583 290.646 168.436C291.326 169.276 291.666 170.45 291.666 171.956V178.336ZM283.546 175.876V172.616C283.546 170.87 282.873 169.996 281.526 169.996C280.179 169.996 279.506 170.87 279.506 172.616V175.876H283.546ZM289.726 175.876V172.276C289.726 170.516 289.019 169.636 287.606 169.636C286.193 169.636 285.486 170.516 285.486 172.276V175.876H289.726ZM291.666 164.527H277.566V162.387L286.786 157.387L277.566 152.407V150.307H291.666V152.627H282.166L289.526 156.667V158.167L282.206 162.207H291.666V164.527Z" fill="black"/>
<path d="M286.668 333.196C285.202 333.196 283.942 332.903 282.888 332.316C281.848 331.716 281.048 330.876 280.488 329.796C279.928 328.703 279.648 327.416 279.648 325.936C279.648 324.456 279.928 323.176 280.488 322.096C281.048 321.016 281.848 320.183 282.888 319.596C283.942 318.996 285.202 318.696 286.668 318.696C287.615 318.696 288.508 318.843 289.348 319.136C290.202 319.429 290.902 319.849 291.448 320.396L290.608 322.436C290.008 321.929 289.395 321.563 288.768 321.336C288.142 321.096 287.468 320.976 286.748 320.976C285.322 320.976 284.235 321.409 283.488 322.276C282.742 323.129 282.368 324.349 282.368 325.936C282.368 327.523 282.742 328.749 283.488 329.616C284.235 330.483 285.322 330.916 286.748 330.916C287.468 330.916 288.142 330.803 288.768 330.576C289.395 330.336 290.008 329.963 290.608 329.456L291.448 331.496C290.902 332.029 290.202 332.449 289.348 332.756C288.508 333.049 287.615 333.196 286.668 333.196Z" fill="black"/>
<path d="M411.459 409.972L418.509 397.761L423.844 400.841C425.126 401.581 425.956 402.437 426.333 403.41C426.718 404.371 426.623 405.348 426.05 406.341C425.67 406.999 425.176 407.468 424.568 407.748C423.959 408.028 423.297 408.108 422.582 407.987C423.161 408.584 423.498 409.24 423.593 409.957C423.705 410.668 423.545 411.399 423.112 412.15C422.485 413.235 421.629 413.865 420.543 414.039C419.476 414.208 418.289 413.915 416.985 413.162L411.459 409.972ZM417.65 404.17L420.473 405.8C421.986 406.673 423.079 406.527 423.752 405.36C424.425 404.194 424.006 403.174 422.493 402.301L419.67 400.671L417.65 404.17ZM414.56 409.522L417.678 411.322C419.202 412.202 420.317 412.03 421.024 410.806C421.731 409.582 421.322 408.53 419.798 407.65L416.68 405.85L414.56 409.522ZM423.384 416.857L430.434 404.646L438.558 409.336L437.538 411.102L431.545 407.642L429.605 411.003L435.216 414.243L434.196 416.009L428.585 412.769L426.535 416.32L432.528 419.78L431.508 421.547L423.384 416.857ZM437.275 425.107C436.386 424.594 435.715 423.968 435.264 423.231C434.819 422.481 434.611 421.668 434.64 420.792C434.668 419.915 434.943 419.027 435.463 418.126C435.983 417.225 436.608 416.555 437.34 416.115C438.078 415.664 438.876 415.455 439.734 415.488C440.599 415.51 441.476 415.778 442.365 416.291C442.908 416.605 443.394 417.001 443.826 417.481C444.257 417.961 444.556 418.457 444.722 418.969L443.211 420.105C443.064 419.667 442.84 419.268 442.539 418.909C442.25 418.557 441.932 418.281 441.585 418.081C440.835 417.648 440.115 417.548 439.426 417.782C438.755 418.01 438.17 418.557 437.67 419.423C437.176 420.278 436.989 421.07 437.106 421.8C437.242 422.525 437.685 423.104 438.435 423.537C438.77 423.731 439.168 423.868 439.629 423.95C440.09 424.031 440.551 424.02 441.011 423.916L440.772 425.81C440.252 425.91 439.668 425.896 439.018 425.768C438.387 425.634 437.806 425.414 437.275 425.107Z" fill="black"/>
</svg>
