<svg width="573" height="613" viewBox="0 0 573 613" fill="none" xmlns="http://www.w3.org/2000/svg">
<path d="M283.424 539.933C283.424 537.433 283.424 537.433 283.422 537.433H283.415H283.385L283.266 537.432L283.111 537.432C283.022 537.432 282.914 537.432 282.788 537.431C282.578 537.431 282.316 537.43 282.004 537.428C281.69 537.427 281.325 537.425 280.912 537.422C279.263 537.411 276.835 537.39 273.723 537.347C267.499 537.26 258.538 537.088 247.6 536.743C225.723 536.054 195.95 534.675 164.355 531.917C132.751 529.159 99.3763 525.027 70.2786 518.842C41.9497 512.82 18.0356 504.921 3.67846 494.693C45.5579 313.99 99.952 150.211 285.716 3.57114C468.361 150.39 519.695 325.216 561.972 469.198C564.463 477.682 566.922 486.059 569.376 494.316C568.721 494.589 567.905 494.923 566.928 495.312C563.932 496.506 559.423 498.218 553.407 500.276C541.374 504.392 523.311 509.893 499.26 515.397C451.159 526.406 379.101 537.433 283.424 537.433V539.933Z" fill="white" stroke="black" stroke-width="5"/>
<path d="M305.404 536.003L305.405 363.244L546.658 502.358L488.424 516.477L438.611 526.163L390.527 532.044L305.404 536.003Z" fill="#DCB051"/>
<path d="M283.424 539.933C283.424 537.433 283.424 537.433 283.422 537.433H283.415H283.385L283.266 537.432L283.111 537.432C283.022 537.432 282.914 537.432 282.788 537.431C282.578 537.431 282.316 537.43 282.004 537.428C281.69 537.427 281.325 537.425 280.912 537.422C279.263 537.411 276.835 537.39 273.723 537.347C267.499 537.26 258.538 537.088 247.6 536.743C225.723 536.054 195.95 534.675 164.355 531.917C132.751 529.159 99.3763 525.027 70.2786 518.842C41.9497 512.82 18.0356 504.921 3.67846 494.693C45.5579 313.99 99.952 150.211 285.716 3.57114C468.361 150.39 519.695 325.216 561.972 469.198C564.463 477.682 566.922 486.059 569.376 494.316C568.721 494.589 567.905 494.923 566.928 495.312C563.932 496.506 559.423 498.218 553.407 500.276C541.374 504.392 523.311 509.893 499.26 515.397C451.159 526.406 379.101 537.433 283.424 537.433V539.933Z" stroke="black" stroke-width="5"/>
<path d="M266.555 18.4548L266.555 535.639" stroke="black" stroke-width="5"/>
<path d="M304.691 18.4548L304.691 535.638" stroke="black" stroke-width="5"/>
<path d="M459.451 203.099L8.64943 469.059" stroke="black" stroke-width="5"/>
<path d="M475.168 237.825L26.2828 505.722" stroke="black" stroke-width="5"/>
<path d="M546.002 501.956L92.0343 236.676" stroke="black" stroke-width="5"/>
<path d="M561.03 465.526L108.541 202.701" stroke="black" stroke-width="5"/>
<path d="M246.474 305.263L285.956 282.467L325.438 305.263V350.853L285.956 373.648L246.474 350.853V305.263Z" fill="white" stroke="black" stroke-width="5.60993"/>
<path d="M122.141 431.647L115.63 419.14L121.094 416.295C122.407 415.612 123.575 415.372 124.598 415.576C125.615 415.768 126.388 416.373 126.918 417.39C127.269 418.064 127.399 418.733 127.308 419.396C127.218 420.06 126.93 420.661 126.443 421.2C127.258 421.031 127.992 421.1 128.647 421.405C129.308 421.693 129.838 422.221 130.239 422.989C130.817 424.101 130.888 425.162 130.452 426.171C130.02 427.162 129.137 428.005 127.8 428.701L122.141 431.647ZM120.574 423.308L123.465 421.803C125.015 420.996 125.478 419.996 124.857 418.801C124.235 417.607 123.149 417.413 121.6 418.219L118.708 419.725L120.574 423.308ZM123.427 428.79L126.621 427.128C128.182 426.315 128.636 425.282 127.983 424.028C127.331 422.774 126.224 422.554 124.663 423.367L121.47 425.029L123.427 428.79ZM134.355 425.289L127.844 412.782L136.164 408.45L137.106 410.26L130.968 413.455L132.76 416.897L138.508 413.905L139.45 415.714L133.702 418.706L135.595 422.343L141.733 419.148L142.675 420.957L134.355 425.289ZM144.727 419.889L140.211 411.214L142.376 410.087L143.077 411.436C143.115 410.785 143.314 410.2 143.675 409.682C144.048 409.157 144.548 408.731 145.175 408.405C147.221 407.34 148.863 407.996 150.1 410.373L152.852 415.659L150.635 416.814L147.938 411.634C147.587 410.96 147.202 410.536 146.781 410.364C146.373 410.186 145.902 410.236 145.37 410.513C144.72 410.851 144.307 411.329 144.132 411.946C143.963 412.545 144.054 413.182 144.405 413.856L146.945 418.735L144.727 419.889Z" fill="black"/>
<path d="M157.976 487.526V473.426H167.356V475.466H160.436V479.346H166.916V481.386H160.436V485.486H167.356V487.526H157.976ZM174.131 487.726C173.104 487.726 172.211 487.519 171.451 487.106C170.691 486.679 170.104 486.079 169.691 485.306C169.277 484.533 169.071 483.626 169.071 482.586C169.071 481.546 169.277 480.653 169.691 479.906C170.104 479.146 170.691 478.566 171.451 478.166C172.211 477.753 173.104 477.546 174.131 477.546C174.757 477.546 175.377 477.646 175.991 477.846C176.604 478.046 177.111 478.326 177.511 478.686L176.771 480.426C176.424 480.119 176.031 479.886 175.591 479.726C175.164 479.566 174.751 479.486 174.351 479.486C173.484 479.486 172.811 479.759 172.331 480.306C171.864 480.839 171.631 481.606 171.631 482.606C171.631 483.593 171.864 484.373 172.331 484.946C172.811 485.506 173.484 485.786 174.351 485.786C174.737 485.786 175.151 485.706 175.591 485.546C176.031 485.386 176.424 485.146 176.771 484.826L177.511 486.586C177.111 486.933 176.597 487.213 175.971 487.426C175.357 487.626 174.744 487.726 174.131 487.726ZM179.284 487.526V473.426H188.664V475.466H181.744V479.346H188.224V481.386H181.744V485.486H188.664V487.526H179.284ZM190.978 487.526V477.746H193.418V479.266C193.751 478.706 194.198 478.279 194.758 477.986C195.331 477.693 195.971 477.546 196.678 477.546C198.984 477.546 200.138 478.886 200.138 481.566V487.526H197.638V481.686C197.638 480.926 197.491 480.373 197.198 480.026C196.918 479.679 196.478 479.506 195.878 479.506C195.144 479.506 194.558 479.739 194.118 480.206C193.691 480.659 193.478 481.266 193.478 482.026V487.526H190.978Z" fill="black"/>
<path d="M98.3359 336.079V321.979H100.476L105.476 331.199L110.456 321.979H112.556V336.079H110.236V326.579L106.196 333.939H104.696L100.656 326.619V336.079H98.3359ZM115.659 336.079V321.979H125.039V324.019H118.119V327.899H124.599V329.939H118.119V334.039H125.039V336.079H115.659ZM127.353 336.079V326.299H129.793V327.819C130.126 327.259 130.573 326.832 131.133 326.539C131.706 326.245 132.346 326.099 133.053 326.099C135.359 326.099 136.513 327.439 136.513 330.119V336.079H134.013V330.239C134.013 329.479 133.866 328.925 133.573 328.579C133.293 328.232 132.853 328.059 132.253 328.059C131.519 328.059 130.933 328.292 130.493 328.759C130.066 329.212 129.853 329.819 129.853 330.579V336.079H127.353Z" fill="black"/>
<path d="M293.141 476.293H279.041V466.913H281.081V473.833H284.961V467.353H287.001V473.833H291.101V466.913H293.141V476.293ZM293.141 464.599H283.361L283.361 462.159H284.881C284.321 461.826 283.894 461.379 283.601 460.819C283.307 460.246 283.161 459.606 283.161 458.899C283.161 456.592 284.501 455.439 287.181 455.439H293.141V457.939H287.301C286.541 457.939 285.987 458.086 285.641 458.379C285.294 458.659 285.121 459.099 285.121 459.699C285.121 460.432 285.354 461.019 285.821 461.459C286.274 461.886 286.881 462.099 287.641 462.099H293.141V464.599ZM288.781 452.84H286.781V446.88H288.781V452.84ZM293.141 443.988H279.041V434.608H281.081V441.528H284.961V435.048H287.001V441.528H291.101V434.608H293.141V443.988ZM293.341 427.833C293.341 428.859 293.134 429.753 292.721 430.513C292.294 431.273 291.694 431.859 290.921 432.273C290.147 432.686 289.241 432.893 288.201 432.893C287.161 432.893 286.267 432.686 285.521 432.273C284.761 431.859 284.181 431.273 283.781 430.513C283.367 429.753 283.161 428.859 283.161 427.833C283.161 427.206 283.261 426.586 283.461 425.973C283.661 425.359 283.941 424.853 284.301 424.453L286.041 425.193C285.734 425.539 285.501 425.933 285.341 426.373C285.181 426.799 285.101 427.213 285.101 427.613C285.101 428.479 285.374 429.153 285.921 429.633C286.454 430.099 287.221 430.333 288.221 430.333C289.207 430.333 289.987 430.099 290.561 429.633C291.121 429.153 291.401 428.479 291.401 427.613C291.401 427.226 291.321 426.813 291.161 426.373C291.001 425.933 290.761 425.539 290.441 425.193L292.201 424.453C292.547 424.853 292.827 425.366 293.041 425.993C293.241 426.606 293.341 427.219 293.341 427.833Z" fill="black"/>
<path d="M374.332 283.225L367.282 271.014L369.135 269.944L378.076 275.429L377.778 264.954L379.597 263.904L386.647 276.115L384.638 277.275L379.888 269.048L380.069 277.442L378.77 278.192L371.611 273.873L376.341 282.065L374.332 283.225ZM386.999 270.878L385.999 269.146L391.16 266.166L392.16 267.898L386.999 270.878ZM396.845 270.228L389.795 258.017L397.918 253.327L398.938 255.094L392.945 258.554L394.885 261.914L400.497 258.674L401.517 260.44L395.905 263.68L397.955 267.231L403.948 263.771L404.968 265.538L396.845 270.228ZM410.935 262.324C410.046 262.837 409.169 263.105 408.304 263.127C407.433 263.137 406.625 262.911 405.88 262.448C405.136 261.985 404.503 261.303 403.983 260.402C403.463 259.502 403.196 258.625 403.18 257.771C403.158 256.906 403.376 256.111 403.834 255.384C404.286 254.646 404.956 254.021 405.845 253.507C406.388 253.194 406.975 252.971 407.606 252.837C408.237 252.704 408.816 252.693 409.342 252.805L409.572 254.682C409.118 254.589 408.661 254.584 408.2 254.665C407.75 254.74 407.352 254.878 407.006 255.078C406.255 255.511 405.809 256.084 405.666 256.798C405.529 257.493 405.71 258.273 406.21 259.14C406.704 259.994 407.296 260.553 407.986 260.816C408.682 261.061 409.405 260.967 410.156 260.533C410.491 260.34 410.809 260.064 411.11 259.706C411.411 259.347 411.631 258.943 411.772 258.492L413.292 259.646C413.119 260.147 412.815 260.646 412.379 261.144C411.948 261.624 411.466 262.017 410.935 262.324Z" fill="black"/>
<path d="M155.271 257.581L162.321 245.37L164.174 246.44L163.894 256.925L172.817 251.43L174.636 252.48L167.586 264.691L165.577 263.531L170.327 255.304L163.148 259.658L161.849 258.908L162.01 250.548L157.28 258.741L155.271 257.581ZM172.297 262.377L173.297 260.645L178.459 263.625L177.459 265.357L172.297 262.377ZM177.783 270.578L184.833 258.367L192.957 263.057L191.937 264.824L185.944 261.364L184.004 264.724L189.616 267.964L188.596 269.731L182.984 266.491L180.934 270.042L186.927 273.502L185.907 275.268L177.783 270.578ZM187.91 276.425L192.8 267.955L194.913 269.175L194.153 270.492C194.722 270.174 195.322 270.027 195.954 270.053C196.597 270.086 197.225 270.279 197.837 270.632C199.834 271.786 200.163 273.523 198.823 275.844L195.843 281.005L193.678 279.755L196.598 274.698C196.978 274.039 197.128 273.487 197.047 273.04C196.978 272.6 196.683 272.23 196.164 271.93C195.529 271.563 194.904 271.472 194.29 271.656C193.693 271.835 193.205 272.254 192.825 272.912L190.075 277.675L187.91 276.425Z" fill="black"/>
<path d="M354.761 486.526V472.426H364.141V474.466H357.221V478.346H363.701V480.386H357.221V484.486H364.141V486.526H354.761ZM366.454 486.526V476.746H368.894V478.266C369.228 477.706 369.674 477.279 370.234 476.986C370.808 476.693 371.448 476.546 372.154 476.546C374.461 476.546 375.614 477.886 375.614 480.566V486.526H373.114V480.686C373.114 479.926 372.968 479.373 372.674 479.026C372.394 478.679 371.954 478.506 371.354 478.506C370.621 478.506 370.034 478.739 369.594 479.206C369.168 479.659 368.954 480.266 368.954 481.026V486.526H366.454ZM378.394 486.526V472.426H387.774V474.466H380.854V478.346H387.334V480.386H380.854V484.486H387.774V486.526H378.394ZM394.549 486.726C393.522 486.726 392.629 486.519 391.869 486.106C391.109 485.679 390.522 485.079 390.109 484.306C389.695 483.533 389.489 482.626 389.489 481.586C389.489 480.546 389.695 479.653 390.109 478.906C390.522 478.146 391.109 477.566 391.869 477.166C392.629 476.753 393.522 476.546 394.549 476.546C395.175 476.546 395.795 476.646 396.409 476.846C397.022 477.046 397.529 477.326 397.929 477.686L397.189 479.426C396.842 479.119 396.449 478.886 396.009 478.726C395.582 478.566 395.169 478.486 394.769 478.486C393.902 478.486 393.229 478.759 392.749 479.306C392.282 479.839 392.049 480.606 392.049 481.606C392.049 482.593 392.282 483.373 392.749 483.946C393.229 484.506 393.902 484.786 394.769 484.786C395.155 484.786 395.569 484.706 396.009 484.546C396.449 484.386 396.842 484.146 397.189 483.826L397.929 485.586C397.529 485.933 397.015 486.213 396.389 486.426C395.775 486.626 395.162 486.726 394.549 486.726Z" fill="white"/>
<path d="M433.902 333.11V319.01H436.042L441.042 328.23L446.022 319.01H448.122V333.11H445.802V323.61L441.762 330.97H440.262L436.222 323.65V333.11H433.902ZM451.226 333.11V319.01H460.606V321.05H453.686V324.93H460.166V326.97H453.686V331.07H460.606V333.11H451.226ZM467.381 333.31C466.354 333.31 465.461 333.104 464.701 332.69C463.941 332.264 463.354 331.664 462.941 330.89C462.527 330.117 462.321 329.21 462.321 328.17C462.321 327.13 462.527 326.237 462.941 325.49C463.354 324.73 463.941 324.15 464.701 323.75C465.461 323.337 466.354 323.13 467.381 323.13C468.007 323.13 468.627 323.23 469.241 323.43C469.854 323.63 470.361 323.91 470.761 324.27L470.021 326.01C469.674 325.704 469.281 325.47 468.841 325.31C468.414 325.15 468.001 325.07 467.601 325.07C466.734 325.07 466.061 325.344 465.581 325.89C465.114 326.424 464.881 327.19 464.881 328.19C464.881 329.177 465.114 329.957 465.581 330.53C466.061 331.09 466.734 331.37 467.601 331.37C467.987 331.37 468.401 331.29 468.841 331.13C469.281 330.97 469.674 330.73 470.021 330.41L470.761 332.17C470.361 332.517 469.847 332.797 469.221 333.01C468.607 333.21 467.994 333.31 467.381 333.31Z" fill="black"/>
<path d="M336.489 170.924V156.824H345.869V158.864H338.949V162.744H345.429V164.784H338.949V168.884H345.869V170.924H336.489ZM352.644 171.124C351.618 171.124 350.724 170.917 349.964 170.504C349.204 170.077 348.618 169.477 348.204 168.704C347.791 167.93 347.584 167.024 347.584 165.984C347.584 164.944 347.791 164.05 348.204 163.304C348.618 162.544 349.204 161.964 349.964 161.564C350.724 161.15 351.618 160.944 352.644 160.944C353.271 160.944 353.891 161.044 354.504 161.244C355.118 161.444 355.624 161.724 356.024 162.084L355.284 163.824C354.938 163.517 354.544 163.284 354.104 163.124C353.678 162.964 353.264 162.884 352.864 162.884C351.998 162.884 351.324 163.157 350.844 163.704C350.378 164.237 350.144 165.004 350.144 166.004C350.144 166.99 350.378 167.77 350.844 168.344C351.324 168.904 351.998 169.184 352.864 169.184C353.251 169.184 353.664 169.104 354.104 168.944C354.544 168.784 354.938 168.544 355.284 168.224L356.024 169.984C355.624 170.33 355.111 170.61 354.484 170.824C353.871 171.024 353.258 171.124 352.644 171.124ZM357.838 170.924V156.824H359.978L364.978 166.044L369.958 156.824H372.058V170.924H369.738V161.424L365.698 168.784H364.198L360.158 161.464V170.924H357.838Z" fill="black"/>
<path d="M182.448 170.924V156.824H191.828V158.864H184.908V162.744H191.388V164.784H184.908V168.884H191.828V170.924H182.448ZM194.142 170.924V161.144H196.582V162.664C196.915 162.104 197.362 161.677 197.922 161.384C198.495 161.09 199.135 160.944 199.842 160.944C202.148 160.944 203.302 162.284 203.302 164.964V170.924H200.802V165.084C200.802 164.324 200.655 163.77 200.362 163.424C200.082 163.077 199.642 162.904 199.042 162.904C198.308 162.904 197.722 163.137 197.282 163.604C196.855 164.057 196.642 164.664 196.642 165.424V170.924H194.142ZM206.121 170.924V156.824H208.261L213.261 166.044L218.241 156.824H220.341V170.924H218.021V161.424L213.981 168.784H212.481L208.441 161.464V170.924H206.121Z" fill="black"/>
<path d="M292.287 178.451H278.187V172.291C278.187 170.811 278.514 169.664 279.167 168.851C279.807 168.037 280.7 167.631 281.847 167.631C282.607 167.631 283.26 167.824 283.807 168.211C284.354 168.597 284.754 169.131 285.007 169.811C285.234 169.011 285.634 168.391 286.207 167.951C286.767 167.497 287.48 167.271 288.347 167.271C289.6 167.271 290.574 167.697 291.267 168.551C291.947 169.391 292.287 170.564 292.287 172.071V178.451ZM284.167 175.991V172.731C284.167 170.984 283.494 170.111 282.147 170.111C280.8 170.111 280.127 170.984 280.127 172.731V175.991H284.167ZM290.347 175.991V172.391C290.347 170.631 289.64 169.751 288.227 169.751C286.814 169.751 286.107 170.631 286.107 172.391V175.991H290.347ZM292.287 164.641H278.187V162.501L287.407 157.501L278.187 152.521V150.421H292.287V152.741H282.787L290.147 156.781V158.281L282.827 162.321H292.287V164.641Z" fill="black"/>
<path d="M287.289 333.31C285.823 333.31 284.563 333.017 283.509 332.43C282.469 331.83 281.669 330.99 281.109 329.91C280.549 328.817 280.269 327.53 280.269 326.05C280.269 324.57 280.549 323.29 281.109 322.21C281.669 321.13 282.469 320.297 283.509 319.71C284.563 319.11 285.823 318.81 287.289 318.81C288.236 318.81 289.129 318.957 289.969 319.25C290.823 319.544 291.523 319.964 292.069 320.51L291.229 322.55C290.629 322.044 290.016 321.677 289.389 321.45C288.763 321.21 288.089 321.09 287.369 321.09C285.943 321.09 284.856 321.524 284.109 322.39C283.363 323.244 282.989 324.464 282.989 326.05C282.989 327.637 283.363 328.864 284.109 329.73C284.856 330.597 285.943 331.03 287.369 331.03C288.089 331.03 288.763 330.917 289.389 330.69C290.016 330.45 290.629 330.077 291.229 329.57L292.069 331.61C291.523 332.144 290.823 332.564 289.969 332.87C289.129 333.164 288.236 333.31 287.289 333.31Z" fill="black"/>
<path d="M412.081 410.086L419.131 397.875L424.465 400.955C425.747 401.695 426.577 402.552 426.954 403.524C427.339 404.485 427.244 405.462 426.671 406.455C426.291 407.113 425.797 407.582 425.189 407.862C424.58 408.142 423.919 408.222 423.203 408.102C423.782 408.698 424.119 409.354 424.214 410.071C424.326 410.782 424.166 411.514 423.733 412.264C423.106 413.35 422.25 413.979 421.164 414.153C420.097 414.322 418.911 414.03 417.606 413.276L412.081 410.086ZM418.271 404.284L421.094 405.914C422.607 406.787 423.7 406.641 424.373 405.475C425.047 404.308 424.627 403.289 423.114 402.415L420.291 400.785L418.271 404.284ZM415.181 409.636L418.299 411.436C419.823 412.316 420.938 412.144 421.645 410.92C422.352 409.696 421.943 408.644 420.419 407.764L417.301 405.964L415.181 409.636ZM424.005 416.971L431.055 404.76L439.179 409.45L438.159 411.217L432.166 407.757L430.226 411.117L435.838 414.357L434.818 416.124L429.206 412.884L427.156 416.434L433.149 419.894L432.129 421.661L424.005 416.971ZM437.896 425.222C437.007 424.708 436.336 424.083 435.885 423.345C435.44 422.595 435.232 421.782 435.261 420.906C435.289 420.03 435.564 419.141 436.084 418.24C436.604 417.34 437.229 416.669 437.961 416.229C438.699 415.778 439.497 415.569 440.355 415.603C441.22 415.625 442.097 415.892 442.986 416.406C443.529 416.719 444.016 417.116 444.447 417.595C444.878 418.075 445.177 418.571 445.343 419.083L443.832 420.22C443.685 419.781 443.461 419.382 443.16 419.024C442.871 418.672 442.553 418.396 442.206 418.196C441.456 417.762 440.736 417.662 440.047 417.896C439.376 418.124 438.791 418.672 438.291 419.538C437.798 420.392 437.61 421.184 437.727 421.914C437.863 422.639 438.306 423.218 439.056 423.652C439.391 423.845 439.789 423.982 440.25 424.064C440.711 424.145 441.172 424.134 441.632 424.03L441.393 425.924C440.873 426.025 440.289 426.01 439.639 425.882C439.008 425.748 438.427 425.528 437.896 425.222Z" fill="black"/>
</svg>
