<svg width="573" height="541" viewBox="0 0 573 541" fill="none" xmlns="http://www.w3.org/2000/svg">
<path d="M283.237 540.295C283.237 537.795 283.236 537.795 283.235 537.795H283.228H283.198L283.078 537.795L282.923 537.795C282.834 537.795 282.727 537.794 282.601 537.794C282.39 537.793 282.128 537.792 281.817 537.791C281.503 537.789 281.138 537.787 280.724 537.785C279.076 537.774 276.648 537.752 273.536 537.709C267.311 537.623 258.35 537.451 247.413 537.106C225.535 536.416 195.762 535.037 164.168 532.28C132.563 529.522 99.1888 525.39 70.0911 519.204C41.7622 513.182 17.8481 505.284 3.49096 495.056C45.3704 314.353 99.7645 150.574 285.528 3.93393C468.173 150.753 519.507 325.579 561.784 469.561C564.275 478.045 566.735 486.421 569.188 494.679C568.533 494.952 567.717 495.286 566.74 495.675C563.744 496.869 559.236 498.581 553.219 500.639C541.187 504.755 523.124 510.255 499.073 515.76C450.972 526.769 378.913 537.795 283.237 537.795V540.295Z" fill="white" stroke="black" stroke-width="5"/>
<path d="M185.892 98.8083L234.391 48.1192L265.815 18.0562V292.737L108.787 202.957L144.751 149.01L185.892 98.8083Z" fill="#B76060"/>
<path d="M283.237 540.295C283.237 537.795 283.236 537.795 283.235 537.795H283.228H283.198L283.078 537.795L282.923 537.795C282.834 537.795 282.727 537.794 282.601 537.794C282.39 537.793 282.128 537.792 281.817 537.791C281.503 537.789 281.138 537.787 280.724 537.785C279.076 537.774 276.648 537.752 273.536 537.709C267.311 537.623 258.35 537.451 247.413 537.106C225.535 536.416 195.762 535.037 164.168 532.28C132.563 529.522 99.1888 525.39 70.0911 519.204C41.7622 513.182 17.8481 505.284 3.49096 495.056C45.3704 314.353 99.7645 150.574 285.528 3.93393C468.173 150.753 519.507 325.579 561.784 469.561C564.275 478.045 566.735 486.421 569.188 494.679C568.533 494.952 567.717 495.286 566.74 495.675C563.744 496.869 559.236 498.581 553.219 500.639C541.187 504.755 523.124 510.255 499.073 515.76C450.972 526.769 378.913 537.795 283.237 537.795V540.295Z" stroke="black" stroke-width="5"/>
<path d="M266.367 18.8176L266.367 536.002" stroke="black" stroke-width="5"/>
<path d="M304.504 18.8176L304.504 536" stroke="black" stroke-width="5"/>
<path d="M459.264 203.461L8.46193 469.421" stroke="black" stroke-width="5"/>
<path d="M474.98 238.188L26.0953 506.085" stroke="black" stroke-width="5"/>
<path d="M545.814 502.319L91.8468 237.039" stroke="black" stroke-width="5"/>
<path d="M560.843 465.889L108.353 203.064" stroke="black" stroke-width="5"/>
<path d="M121.954 432.009L115.443 419.503L120.907 416.658C122.22 415.975 123.388 415.735 124.411 415.939C125.428 416.131 126.201 416.736 126.73 417.753C127.081 418.427 127.212 419.096 127.121 419.759C127.03 420.423 126.742 421.024 126.256 421.562C127.07 421.394 127.805 421.463 128.46 421.768C129.12 422.055 129.651 422.583 130.051 423.352C130.63 424.464 130.701 425.524 130.264 426.533C129.833 427.524 128.949 428.368 127.613 429.063L121.954 432.009ZM120.386 423.671L123.278 422.166C124.827 421.359 125.291 420.359 124.669 419.164C124.047 417.97 122.962 417.776 121.412 418.582L118.521 420.087L120.386 423.671ZM123.24 429.153L126.433 427.49C127.994 426.678 128.448 425.645 127.796 424.391C127.143 423.137 126.036 422.917 124.475 423.729L121.282 425.392L123.24 429.153ZM134.167 425.651L127.657 413.144L135.977 408.813L136.919 410.623L130.781 413.818L132.572 417.26L138.32 414.268L139.262 416.077L133.514 419.069L135.407 422.706L141.546 419.511L142.487 421.32L134.167 425.651ZM144.54 420.252L140.024 411.577L142.188 410.45L142.89 411.798C142.927 411.148 143.126 410.563 143.487 410.044C143.861 409.519 144.361 409.094 144.987 408.768C147.033 407.702 148.675 408.358 149.913 410.736L152.665 416.022L150.447 417.177L147.751 411.996C147.4 411.322 147.014 410.899 146.594 410.727C146.185 410.549 145.715 410.598 145.183 410.875C144.532 411.214 144.12 411.692 143.945 412.309C143.776 412.908 143.867 413.545 144.218 414.219L146.757 419.097L144.54 420.252Z" fill="black"/>
<path d="M157.788 487.889V473.789H167.168V475.829H160.248V479.709H166.728V481.749H160.248V485.849H167.168V487.889H157.788ZM173.943 488.089C172.916 488.089 172.023 487.882 171.263 487.469C170.503 487.042 169.916 486.442 169.503 485.669C169.09 484.895 168.883 483.989 168.883 482.949C168.883 481.909 169.09 481.015 169.503 480.269C169.916 479.509 170.503 478.929 171.263 478.529C172.023 478.115 172.916 477.909 173.943 477.909C174.57 477.909 175.19 478.009 175.803 478.209C176.416 478.409 176.923 478.689 177.323 479.049L176.583 480.789C176.236 480.482 175.843 480.249 175.403 480.089C174.976 479.929 174.563 479.849 174.163 479.849C173.296 479.849 172.623 480.122 172.143 480.669C171.676 481.202 171.443 481.969 171.443 482.969C171.443 483.955 171.676 484.735 172.143 485.309C172.623 485.869 173.296 486.149 174.163 486.149C174.55 486.149 174.963 486.069 175.403 485.909C175.843 485.749 176.236 485.509 176.583 485.189L177.323 486.949C176.923 487.295 176.41 487.575 175.783 487.789C175.17 487.989 174.556 488.089 173.943 488.089ZM179.097 487.889V473.789H188.477V475.829H181.557V479.709H188.037V481.749H181.557V485.849H188.477V487.889H179.097ZM190.79 487.889V478.109H193.23V479.629C193.564 479.069 194.01 478.642 194.57 478.349C195.144 478.055 195.784 477.909 196.49 477.909C198.797 477.909 199.95 479.249 199.95 481.929V487.889H197.45V482.049C197.45 481.289 197.304 480.735 197.01 480.389C196.73 480.042 196.29 479.869 195.69 479.869C194.957 479.869 194.37 480.102 193.93 480.569C193.504 481.022 193.29 481.629 193.29 482.389V487.889H190.79Z" fill="black"/>
<path d="M98.1484 336.441V322.341H100.288L105.288 331.561L110.268 322.341H112.368V336.441H110.048V326.941L106.008 334.301H104.508L100.468 326.981V336.441H98.1484ZM115.472 336.441V322.341H124.852V324.381H117.932V328.261H124.412V330.301H117.932V334.401H124.852V336.441H115.472ZM127.165 336.441V326.661H129.605V328.181C129.939 327.621 130.385 327.195 130.945 326.901C131.519 326.608 132.159 326.461 132.865 326.461C135.172 326.461 136.325 327.801 136.325 330.481V336.441H133.825V330.601C133.825 329.841 133.679 329.288 133.385 328.941C133.105 328.595 132.665 328.421 132.065 328.421C131.332 328.421 130.745 328.655 130.305 329.121C129.879 329.575 129.665 330.181 129.665 330.941V336.441H127.165Z" fill="black"/>
<path d="M292.953 476.655H278.853V467.275H280.893V474.195H284.773V467.715H286.813V474.195H290.913V467.275H292.953V476.655ZM292.953 464.962H283.173L283.173 462.522H284.693C284.133 462.188 283.706 461.742 283.413 461.182C283.12 460.608 282.973 459.968 282.973 459.262C282.973 456.955 284.313 455.802 286.993 455.802H292.953V458.302H287.113C286.353 458.302 285.8 458.448 285.453 458.742C285.106 459.022 284.933 459.462 284.933 460.062C284.933 460.795 285.166 461.382 285.633 461.822C286.086 462.248 286.693 462.462 287.453 462.462H292.953V464.962ZM288.593 453.202H286.593V447.242H288.593V453.202ZM292.953 444.351H278.853V434.971H280.893V441.891H284.773V435.411H286.813V441.891H290.913V434.971H292.953V444.351ZM293.153 428.196C293.153 429.222 292.946 430.116 292.533 430.876C292.106 431.636 291.506 432.222 290.733 432.636C289.96 433.049 289.053 433.256 288.013 433.256C286.973 433.256 286.08 433.049 285.333 432.636C284.573 432.222 283.993 431.636 283.593 430.876C283.18 430.116 282.973 429.222 282.973 428.196C282.973 427.569 283.073 426.949 283.273 426.336C283.473 425.722 283.753 425.216 284.113 424.816L285.853 425.556C285.546 425.902 285.313 426.296 285.153 426.736C284.993 427.162 284.913 427.576 284.913 427.976C284.913 428.842 285.186 429.516 285.733 429.996C286.266 430.462 287.033 430.696 288.033 430.696C289.02 430.696 289.8 430.462 290.373 429.996C290.933 429.516 291.213 428.842 291.213 427.976C291.213 427.589 291.133 427.176 290.973 426.736C290.813 426.296 290.573 425.902 290.253 425.556L292.013 424.816C292.36 425.216 292.64 425.729 292.853 426.356C293.053 426.969 293.153 427.582 293.153 428.196Z" fill="black"/>
<path d="M374.145 283.588L367.095 271.377L368.948 270.307L377.888 275.792L377.591 265.317L379.41 264.267L386.46 276.478L384.45 277.638L379.7 269.411L379.882 277.805L378.583 278.555L371.424 274.236L376.154 282.428L374.145 283.588ZM386.811 271.241L385.811 269.509L390.973 266.529L391.973 268.261L386.811 271.241ZM396.657 270.591L389.607 258.38L397.73 253.69L398.75 255.456L392.758 258.916L394.698 262.277L400.309 259.037L401.329 260.803L395.718 264.043L397.768 267.594L403.76 264.134L404.78 265.901L396.657 270.591ZM410.748 262.686C409.859 263.2 408.982 263.467 408.117 263.489C407.245 263.5 406.437 263.274 405.693 262.811C404.948 262.348 404.316 261.666 403.796 260.765C403.276 259.864 403.008 258.987 402.993 258.134C402.971 257.269 403.189 256.474 403.647 255.747C404.098 255.009 404.769 254.384 405.658 253.87C406.2 253.557 406.787 253.333 407.419 253.2C408.05 253.067 408.629 253.056 409.155 253.167L409.384 255.044C408.931 254.952 408.473 254.947 408.012 255.028C407.563 255.103 407.165 255.24 406.818 255.44C406.068 255.874 405.621 256.447 405.479 257.16C405.341 257.856 405.523 258.636 406.023 259.502C406.516 260.357 407.108 260.916 407.799 261.179C408.495 261.424 409.218 261.33 409.968 260.896C410.303 260.703 410.621 260.427 410.922 260.068C411.223 259.71 411.444 259.305 411.584 258.855L413.105 260.009C412.932 260.509 412.627 261.008 412.191 261.507C411.76 261.986 411.279 262.38 410.748 262.686Z" fill="black"/>
<path d="M155.083 257.944L162.133 245.733L163.987 246.803L163.707 257.287L172.63 251.793L174.448 252.843L167.398 265.054L165.389 263.894L170.139 255.666L162.96 260.02L161.661 259.27L161.823 250.911L157.093 259.104L155.083 257.944ZM172.11 262.739L173.11 261.007L178.271 263.987L177.271 265.719L172.11 262.739ZM177.596 270.941L184.646 258.73L192.769 263.42L191.749 265.187L185.756 261.727L183.816 265.087L189.428 268.327L188.408 270.094L182.796 266.854L180.746 270.405L186.739 273.865L185.719 275.631L177.596 270.941ZM187.723 276.788L192.613 268.318L194.726 269.538L193.966 270.855C194.535 270.536 195.135 270.39 195.766 270.416C196.41 270.449 197.037 270.642 197.649 270.995C199.647 272.148 199.976 273.886 198.636 276.207L195.656 281.368L193.491 280.118L196.411 275.06C196.791 274.402 196.94 273.85 196.859 273.403C196.79 272.963 196.496 272.592 195.976 272.292C195.341 271.926 194.717 271.835 194.102 272.019C193.506 272.198 193.018 272.617 192.638 273.275L189.888 278.038L187.723 276.788Z" fill="black"/>
<path d="M354.573 486.889V472.789H363.953V474.829H357.033V478.709H363.513V480.749H357.033V484.849H363.953V486.889H354.573ZM366.267 486.889V477.109H368.707V478.629C369.04 478.069 369.487 477.642 370.047 477.349C370.62 477.055 371.26 476.909 371.967 476.909C374.273 476.909 375.427 478.249 375.427 480.929V486.889H372.927V481.049C372.927 480.289 372.78 479.735 372.487 479.389C372.207 479.042 371.767 478.869 371.167 478.869C370.433 478.869 369.847 479.102 369.407 479.569C368.98 480.022 368.767 480.629 368.767 481.389V486.889H366.267ZM378.206 486.889V472.789H387.586V474.829H380.666V478.709H387.146V480.749H380.666V484.849H387.586V486.889H378.206ZM394.361 487.089C393.334 487.089 392.441 486.882 391.681 486.469C390.921 486.042 390.334 485.442 389.921 484.669C389.508 483.895 389.301 482.989 389.301 481.949C389.301 480.909 389.508 480.015 389.921 479.269C390.334 478.509 390.921 477.929 391.681 477.529C392.441 477.115 393.334 476.909 394.361 476.909C394.988 476.909 395.608 477.009 396.221 477.209C396.834 477.409 397.341 477.689 397.741 478.049L397.001 479.789C396.654 479.482 396.261 479.249 395.821 479.089C395.394 478.929 394.981 478.849 394.581 478.849C393.714 478.849 393.041 479.122 392.561 479.669C392.094 480.202 391.861 480.969 391.861 481.969C391.861 482.955 392.094 483.735 392.561 484.309C393.041 484.869 393.714 485.149 394.581 485.149C394.968 485.149 395.381 485.069 395.821 484.909C396.261 484.749 396.654 484.509 397.001 484.189L397.741 485.949C397.341 486.295 396.828 486.575 396.201 486.789C395.588 486.989 394.974 487.089 394.361 487.089Z" fill="black"/>
<path d="M433.715 333.473V319.373H435.855L440.855 328.593L445.835 319.373H447.935V333.473H445.615V323.973L441.575 331.333H440.075L436.035 324.013V333.473H433.715ZM451.038 333.473V319.373H460.418V321.413H453.498V325.293H459.978V327.333H453.498V331.433H460.418V333.473H451.038ZM467.193 333.673C466.166 333.673 465.273 333.466 464.513 333.053C463.753 332.626 463.166 332.026 462.753 331.253C462.34 330.48 462.133 329.573 462.133 328.533C462.133 327.493 462.34 326.6 462.753 325.853C463.166 325.093 463.753 324.513 464.513 324.113C465.273 323.7 466.166 323.493 467.193 323.493C467.82 323.493 468.44 323.593 469.053 323.793C469.666 323.993 470.173 324.273 470.573 324.633L469.833 326.373C469.486 326.066 469.093 325.833 468.653 325.673C468.226 325.513 467.813 325.433 467.413 325.433C466.546 325.433 465.873 325.706 465.393 326.253C464.926 326.786 464.693 327.553 464.693 328.553C464.693 329.54 464.926 330.32 465.393 330.893C465.873 331.453 466.546 331.733 467.413 331.733C467.8 331.733 468.213 331.653 468.653 331.493C469.093 331.333 469.486 331.093 469.833 330.773L470.573 332.533C470.173 332.88 469.66 333.16 469.033 333.373C468.42 333.573 467.806 333.673 467.193 333.673Z" fill="black"/>
<path d="M336.302 171.287V157.187H345.682V159.227H338.762V163.107H345.242V165.147H338.762V169.247H345.682V171.287H336.302ZM352.457 171.487C351.43 171.487 350.537 171.28 349.777 170.867C349.017 170.44 348.43 169.84 348.017 169.067C347.603 168.293 347.397 167.387 347.397 166.347C347.397 165.307 347.603 164.413 348.017 163.667C348.43 162.907 349.017 162.327 349.777 161.927C350.537 161.513 351.43 161.307 352.457 161.307C353.083 161.307 353.703 161.407 354.317 161.607C354.93 161.807 355.437 162.087 355.837 162.447L355.097 164.187C354.75 163.88 354.357 163.647 353.917 163.487C353.49 163.327 353.077 163.247 352.677 163.247C351.81 163.247 351.137 163.52 350.657 164.067C350.19 164.6 349.957 165.367 349.957 166.367C349.957 167.353 350.19 168.133 350.657 168.707C351.137 169.267 351.81 169.547 352.677 169.547C353.063 169.547 353.477 169.467 353.917 169.307C354.357 169.147 354.75 168.907 355.097 168.587L355.837 170.347C355.437 170.693 354.923 170.973 354.297 171.187C353.683 171.387 353.07 171.487 352.457 171.487ZM357.65 171.287V157.187H359.79L364.79 166.407L369.77 157.187H371.87V171.287H369.55V161.787L365.51 169.147H364.01L359.97 161.827V171.287H357.65Z" fill="black"/>
<path d="M182.261 171.287V157.187H191.641V159.227H184.721V163.107H191.201V165.147H184.721V169.247H191.641V171.287H182.261ZM193.954 171.287V161.507H196.394V163.027C196.728 162.467 197.174 162.04 197.734 161.747C198.308 161.453 198.948 161.307 199.654 161.307C201.961 161.307 203.114 162.647 203.114 165.327V171.287H200.614V165.447C200.614 164.687 200.468 164.133 200.174 163.787C199.894 163.44 199.454 163.267 198.854 163.267C198.121 163.267 197.534 163.5 197.094 163.967C196.668 164.42 196.454 165.027 196.454 165.787V171.287H193.954ZM205.934 171.287V157.187H208.074L213.074 166.407L218.054 157.187H220.154V171.287H217.834V161.787L213.794 169.147H212.294L208.254 161.827V171.287H205.934Z" fill="white"/>
<path d="M292.1 178.814H278V172.654C278 171.174 278.326 170.027 278.98 169.214C279.62 168.4 280.513 167.994 281.66 167.994C282.42 167.994 283.073 168.187 283.62 168.574C284.166 168.96 284.566 169.494 284.82 170.174C285.046 169.374 285.446 168.754 286.02 168.314C286.58 167.86 287.293 167.634 288.16 167.634C289.413 167.634 290.386 168.06 291.08 168.914C291.76 169.754 292.1 170.927 292.1 172.434V178.814ZM283.98 176.354V173.094C283.98 171.347 283.306 170.474 281.96 170.474C280.613 170.474 279.94 171.347 279.94 173.094V176.354H283.98ZM290.16 176.354V172.754C290.16 170.994 289.453 170.114 288.04 170.114C286.626 170.114 285.92 170.994 285.92 172.754V176.354H290.16ZM292.1 165.004H278V162.864L287.22 157.864L278 152.884V150.784H292.1V153.104H282.6L289.96 157.144V158.644L282.64 162.684H292.1V165.004Z" fill="black"/>
<path d="M245.948 305.624L285.431 282.829L324.913 305.624V351.215L285.431 374.01L245.948 351.215V305.624Z" fill="white" stroke="black" stroke-width="5.60993"/>
<path d="M287.102 333.673C285.635 333.673 284.375 333.38 283.322 332.793C282.282 332.193 281.482 331.353 280.922 330.273C280.362 329.18 280.082 327.893 280.082 326.413C280.082 324.933 280.362 323.653 280.922 322.573C281.482 321.493 282.282 320.66 283.322 320.073C284.375 319.473 285.635 319.173 287.102 319.173C288.049 319.173 288.942 319.32 289.782 319.613C290.635 319.906 291.335 320.326 291.882 320.873L291.042 322.913C290.442 322.406 289.829 322.04 289.202 321.813C288.575 321.573 287.902 321.453 287.182 321.453C285.755 321.453 284.669 321.886 283.922 322.753C283.175 323.606 282.802 324.826 282.802 326.413C282.802 328 283.175 329.226 283.922 330.093C284.669 330.96 285.755 331.393 287.182 331.393C287.902 331.393 288.575 331.28 289.202 331.053C289.829 330.813 290.442 330.44 291.042 329.933L291.882 331.973C291.335 332.506 290.635 332.926 289.782 333.233C288.942 333.526 288.049 333.673 287.102 333.673Z" fill="black"/>
<path d="M411.893 410.449L418.943 398.238L424.278 401.318C425.559 402.058 426.389 402.914 426.767 403.887C427.151 404.848 427.057 405.825 426.483 406.818C426.103 407.476 425.609 407.945 425.001 408.225C424.393 408.505 423.731 408.585 423.015 408.464C423.595 409.061 423.932 409.717 424.026 410.434C424.139 411.145 423.979 411.876 423.545 412.627C422.919 413.712 422.062 414.342 420.977 414.516C419.909 414.685 418.723 414.392 417.418 413.639L411.893 410.449ZM418.083 404.647L420.907 406.277C422.419 407.15 423.512 407.004 424.186 405.838C424.859 404.671 424.439 403.651 422.927 402.778L420.103 401.148L418.083 404.647ZM414.993 409.999L418.111 411.799C419.635 412.679 420.751 412.507 421.457 411.283C422.164 410.059 421.755 409.007 420.231 408.127L417.113 406.327L414.993 409.999ZM423.818 417.334L430.868 405.123L438.991 409.813L437.971 411.58L431.978 408.12L430.038 411.48L435.65 414.72L434.63 416.486L429.018 413.246L426.968 416.797L432.961 420.257L431.941 422.024L423.818 417.334ZM437.708 425.584C436.819 425.071 436.149 424.446 435.697 423.708C435.253 422.958 435.045 422.145 435.073 421.269C435.102 420.392 435.376 419.504 435.896 418.603C436.416 417.702 437.042 417.032 437.773 416.592C438.511 416.141 439.309 415.932 440.167 415.965C441.032 415.987 441.909 416.255 442.798 416.768C443.341 417.082 443.828 417.478 444.259 417.958C444.69 418.438 444.989 418.934 445.156 419.446L443.645 420.583C443.498 420.144 443.274 419.745 442.973 419.386C442.683 419.034 442.365 418.758 442.019 418.558C441.268 418.125 440.549 418.025 439.86 418.259C439.189 418.487 438.603 419.034 438.103 419.9C437.61 420.755 437.422 421.547 437.54 422.277C437.675 423.002 438.118 423.581 438.869 424.014C439.204 424.208 439.602 424.345 440.063 424.427C440.524 424.508 440.985 424.497 441.445 424.393L441.206 426.287C440.686 426.387 440.101 426.373 439.452 426.245C438.821 426.111 438.24 425.891 437.708 425.584Z" fill="black"/>
</svg>
