<svg width="573" height="541" viewBox="0 0 573 541" fill="none" xmlns="http://www.w3.org/2000/svg">
<path d="M283.5 540.127C283.5 537.627 283.5 537.627 283.498 537.627H283.491H283.462L283.342 537.627L283.187 537.627C283.098 537.626 282.99 537.626 282.864 537.626C282.654 537.625 282.392 537.624 282.08 537.622C281.766 537.621 281.402 537.619 280.988 537.616C279.339 537.605 276.911 537.584 273.799 537.541C267.575 537.455 258.614 537.282 247.677 536.938C225.799 536.248 196.026 534.869 164.431 532.112C132.827 529.354 99.4525 525.221 70.3548 519.036C42.0259 513.014 18.1118 505.116 3.75463 494.888C45.6341 314.184 100.028 150.405 285.792 3.76547C468.437 150.584 519.771 325.411 562.048 469.393C564.539 477.876 566.999 486.253 569.452 494.51C568.797 494.783 567.981 495.117 567.004 495.507C564.008 496.7 559.499 498.412 553.483 500.47C541.451 504.586 523.387 510.087 499.336 515.591C451.235 526.6 379.177 537.627 283.5 537.627V540.127Z" fill="white" stroke="black" stroke-width="5"/>
<path d="M474.953 236.688L325.581 325.924V304.853V304.559L325.323 304.416L306.862 294.205L457.513 204.978L474.953 236.688Z" fill="#56A278" stroke="black"/>
<path d="M283.5 540.127C283.5 537.627 283.5 537.627 283.498 537.627H283.491H283.462L283.342 537.627L283.187 537.627C283.098 537.626 282.99 537.626 282.864 537.626C282.654 537.625 282.392 537.624 282.08 537.622C281.766 537.621 281.402 537.619 280.988 537.616C279.339 537.605 276.911 537.584 273.799 537.541C267.575 537.455 258.614 537.282 247.677 536.938C225.799 536.248 196.026 534.869 164.431 532.112C132.827 529.354 99.4525 525.221 70.3548 519.036C42.0259 513.014 18.1118 505.116 3.75463 494.888C45.6341 314.184 100.028 150.405 285.792 3.76547C468.437 150.584 519.771 325.411 562.048 469.393C564.539 477.876 566.999 486.253 569.452 494.51C568.797 494.783 567.981 495.117 567.004 495.507C564.008 496.7 559.499 498.412 553.483 500.47C541.451 504.586 523.387 510.087 499.336 515.591C451.235 526.6 379.177 537.627 283.5 537.627V540.127Z" stroke="black" stroke-width="5"/>
<path d="M266.631 18.6494L266.631 535.833" stroke="black" stroke-width="5"/>
<path d="M304.768 18.6494L304.768 535.832" stroke="black" stroke-width="5"/>
<path d="M459.527 203.293L8.7256 469.253" stroke="black" stroke-width="5"/>
<path d="M475.244 238.02L26.359 505.916" stroke="black" stroke-width="5"/>
<path d="M546.078 502.151L92.1104 236.871" stroke="black" stroke-width="5"/>
<path d="M561.106 465.72L108.617 202.896" stroke="black" stroke-width="5"/>
<path d="M246.55 305.457L286.032 282.662L325.515 305.457V351.047L286.032 373.842L246.55 351.047V305.457Z" fill="white" stroke="black" stroke-width="5.60993"/>
<path d="M122.217 431.841L115.707 419.334L121.171 416.49C122.483 415.806 123.651 415.567 124.674 415.771C125.691 415.963 126.465 416.567 126.994 417.584C127.345 418.259 127.475 418.927 127.385 419.591C127.294 420.254 127.006 420.855 126.52 421.394C127.334 421.226 128.068 421.294 128.723 421.6C129.384 421.887 129.915 422.415 130.315 423.184C130.893 424.295 130.964 425.356 130.528 426.365C130.097 427.356 129.213 428.199 127.876 428.895L122.217 431.841ZM120.65 423.503L123.542 421.997C125.091 421.191 125.555 420.19 124.933 418.996C124.311 417.801 123.225 417.607 121.676 418.414L118.784 419.919L120.65 423.503ZM123.504 428.984L126.697 427.322C128.258 426.509 128.712 425.476 128.06 424.222C127.407 422.969 126.3 422.748 124.739 423.561L121.546 425.223L123.504 428.984ZM134.431 425.483L127.92 412.976L136.24 408.645L137.182 410.454L131.044 413.65L132.836 417.091L138.584 414.099L139.526 415.909L133.778 418.901L135.671 422.537L141.809 419.342L142.751 421.152L134.431 425.483ZM144.803 420.083L140.287 411.408L142.452 410.282L143.154 411.63C143.191 410.979 143.39 410.395 143.751 409.876C144.124 409.351 144.624 408.925 145.251 408.599C147.297 407.534 148.939 408.19 150.176 410.567L152.928 415.854L150.711 417.008L148.014 411.828C147.663 411.154 147.278 410.731 146.857 410.559C146.449 410.381 145.979 410.43 145.446 410.707C144.796 411.046 144.383 411.523 144.209 412.141C144.039 412.74 144.13 413.376 144.481 414.05L147.021 418.929L144.803 420.083Z" fill="black"/>
<path d="M158.052 487.72V473.62H167.432V475.66H160.512V479.54H166.992V481.58H160.512V485.68H167.432V487.72H158.052ZM174.207 487.92C173.18 487.92 172.287 487.714 171.527 487.3C170.767 486.874 170.18 486.274 169.767 485.5C169.353 484.727 169.147 483.82 169.147 482.78C169.147 481.74 169.353 480.847 169.767 480.1C170.18 479.34 170.767 478.76 171.527 478.36C172.287 477.947 173.18 477.74 174.207 477.74C174.833 477.74 175.453 477.84 176.067 478.04C176.68 478.24 177.187 478.52 177.587 478.88L176.847 480.62C176.5 480.314 176.107 480.08 175.667 479.92C175.24 479.76 174.827 479.68 174.427 479.68C173.56 479.68 172.887 479.954 172.407 480.5C171.94 481.034 171.707 481.8 171.707 482.8C171.707 483.787 171.94 484.567 172.407 485.14C172.887 485.7 173.56 485.98 174.427 485.98C174.813 485.98 175.227 485.9 175.667 485.74C176.107 485.58 176.5 485.34 176.847 485.02L177.587 486.78C177.187 487.127 176.673 487.407 176.047 487.62C175.433 487.82 174.82 487.92 174.207 487.92ZM179.36 487.72V473.62H188.74V475.66H181.82V479.54H188.3V481.58H181.82V485.68H188.74V487.72H179.36ZM191.054 487.72V477.94H193.494V479.46C193.827 478.9 194.274 478.474 194.834 478.18C195.407 477.887 196.047 477.74 196.754 477.74C199.061 477.74 200.214 479.08 200.214 481.76V487.72H197.714V481.88C197.714 481.12 197.567 480.567 197.274 480.22C196.994 479.874 196.554 479.7 195.954 479.7C195.221 479.7 194.634 479.934 194.194 480.4C193.767 480.854 193.554 481.46 193.554 482.22V487.72H191.054Z" fill="black"/>
<path d="M98.412 336.273V322.173H100.552L105.552 331.393L110.532 322.173H112.632V336.273H110.312V326.773L106.272 334.133H104.772L100.732 326.813V336.273H98.412ZM115.735 336.273V322.173H125.115V324.213H118.195V328.093H124.675V330.133H118.195V334.233H125.115V336.273H115.735ZM127.429 336.273V326.493H129.869V328.013C130.202 327.453 130.649 327.026 131.209 326.733C131.782 326.44 132.422 326.293 133.129 326.293C135.436 326.293 136.589 327.633 136.589 330.313V336.273H134.089V330.433C134.089 329.673 133.942 329.12 133.649 328.773C133.369 328.426 132.929 328.253 132.329 328.253C131.596 328.253 131.009 328.486 130.569 328.953C130.142 329.406 129.929 330.013 129.929 330.773V336.273H127.429Z" fill="black"/>
<path d="M293.217 476.487H279.117V467.107H281.157V474.027H285.037V467.547H287.077V474.027H291.177V467.107H293.217V476.487ZM293.217 464.793H283.437L283.437 462.353H284.957C284.397 462.02 283.97 461.573 283.677 461.013C283.383 460.44 283.237 459.8 283.237 459.093C283.237 456.787 284.577 455.633 287.257 455.633H293.217V458.133H287.377C286.617 458.133 286.063 458.28 285.717 458.573C285.37 458.853 285.197 459.293 285.197 459.893C285.197 460.627 285.43 461.213 285.897 461.653C286.35 462.08 286.957 462.293 287.717 462.293H293.217V464.793ZM288.857 453.034H286.857V447.074H288.857V453.034ZM293.217 444.182H279.117V434.802H281.157V441.722H285.037V435.242H287.077V441.722H291.177V434.802H293.217V444.182ZM293.417 428.027C293.417 429.054 293.21 429.947 292.797 430.707C292.37 431.467 291.77 432.054 290.997 432.467C290.223 432.88 289.317 433.087 288.277 433.087C287.237 433.087 286.343 432.88 285.597 432.467C284.837 432.054 284.257 431.467 283.857 430.707C283.443 429.947 283.237 429.054 283.237 428.027C283.237 427.4 283.337 426.78 283.537 426.167C283.737 425.554 284.017 425.047 284.377 424.647L286.117 425.387C285.81 425.734 285.577 426.127 285.417 426.567C285.257 426.994 285.177 427.407 285.177 427.807C285.177 428.674 285.45 429.347 285.997 429.827C286.53 430.294 287.297 430.527 288.297 430.527C289.283 430.527 290.063 430.294 290.637 429.827C291.197 429.347 291.477 428.674 291.477 427.807C291.477 427.42 291.397 427.007 291.237 426.567C291.077 426.127 290.837 425.734 290.517 425.387L292.277 424.647C292.623 425.047 292.903 425.56 293.117 426.187C293.317 426.8 293.417 427.414 293.417 428.027Z" fill="black"/>
<path d="M374.408 283.42L367.358 271.209L369.212 270.139L378.152 275.624L377.855 265.149L379.673 264.099L386.723 276.31L384.714 277.47L379.964 269.243L380.145 277.636L378.846 278.386L371.688 274.067L376.418 282.26L374.408 283.42ZM387.075 271.072L386.075 269.34L391.236 266.36L392.236 268.092L387.075 271.072ZM396.921 270.422L389.871 258.211L397.994 253.521L399.014 255.288L393.021 258.748L394.961 262.108L400.573 258.868L401.593 260.635L395.981 263.875L398.031 267.426L404.024 263.966L405.044 265.732L396.921 270.422ZM411.011 262.518C410.122 263.031 409.245 263.299 408.381 263.321C407.509 263.331 406.701 263.105 405.956 262.642C405.212 262.179 404.579 261.497 404.059 260.597C403.539 259.696 403.272 258.819 403.256 257.966C403.234 257.101 403.452 256.305 403.911 255.579C404.362 254.841 405.032 254.215 405.921 253.702C406.464 253.388 407.051 253.165 407.682 253.032C408.313 252.898 408.892 252.887 409.419 252.999L409.648 254.876C409.194 254.784 408.737 254.778 408.276 254.86C407.826 254.934 407.428 255.072 407.082 255.272C406.331 255.705 405.885 256.279 405.743 256.992C405.605 257.687 405.786 258.468 406.286 259.334C406.78 260.188 407.372 260.747 408.063 261.01C408.758 261.255 409.481 261.161 410.232 260.728C410.567 260.534 410.885 260.259 411.186 259.9C411.487 259.541 411.708 259.137 411.848 258.686L413.369 259.841C413.196 260.341 412.891 260.84 412.455 261.338C412.024 261.818 411.543 262.211 411.011 262.518Z" fill="white"/>
<path d="M155.347 257.775L162.397 245.564L164.25 246.634L163.97 257.119L172.893 251.624L174.712 252.674L167.662 264.885L165.653 263.725L170.403 255.498L163.224 259.852L161.925 259.102L162.086 250.743L157.356 258.935L155.347 257.775ZM172.374 262.571L173.374 260.839L178.535 263.819L177.535 265.551L172.374 262.571ZM177.86 270.773L184.91 258.562L193.033 263.252L192.013 265.018L186.02 261.558L184.08 264.919L189.692 268.159L188.672 269.925L183.06 266.685L181.01 270.236L187.003 273.696L185.983 275.463L177.86 270.773ZM187.986 276.62L192.876 268.15L194.99 269.37L194.23 270.686C194.798 270.368 195.398 270.222 196.03 270.248C196.673 270.28 197.301 270.473 197.913 270.827C199.91 271.98 200.239 273.717 198.899 276.038L195.919 281.2L193.754 279.95L196.674 274.892C197.054 274.234 197.204 273.681 197.123 273.234C197.054 272.794 196.76 272.424 196.24 272.124C195.605 271.757 194.98 271.666 194.366 271.85C193.77 272.03 193.282 272.448 192.902 273.106L190.152 277.87L187.986 276.62Z" fill="black"/>
<path d="M354.837 486.72V472.62H364.217V474.66H357.297V478.54H363.777V480.58H357.297V484.68H364.217V486.72H354.837ZM366.53 486.72V476.94H368.97V478.46C369.304 477.9 369.75 477.474 370.31 477.18C370.884 476.887 371.524 476.74 372.23 476.74C374.537 476.74 375.69 478.08 375.69 480.76V486.72H373.19V480.88C373.19 480.12 373.044 479.567 372.75 479.22C372.47 478.874 372.03 478.7 371.43 478.7C370.697 478.7 370.11 478.934 369.67 479.4C369.244 479.854 369.03 480.46 369.03 481.22V486.72H366.53ZM378.47 486.72V472.62H387.85V474.66H380.93V478.54H387.41V480.58H380.93V484.68H387.85V486.72H378.47ZM394.625 486.92C393.598 486.92 392.705 486.714 391.945 486.3C391.185 485.874 390.598 485.274 390.185 484.5C389.771 483.727 389.565 482.82 389.565 481.78C389.565 480.74 389.771 479.847 390.185 479.1C390.598 478.34 391.185 477.76 391.945 477.36C392.705 476.947 393.598 476.74 394.625 476.74C395.251 476.74 395.871 476.84 396.485 477.04C397.098 477.24 397.605 477.52 398.005 477.88L397.265 479.62C396.918 479.314 396.525 479.08 396.085 478.92C395.658 478.76 395.245 478.68 394.845 478.68C393.978 478.68 393.305 478.954 392.825 479.5C392.358 480.034 392.125 480.8 392.125 481.8C392.125 482.787 392.358 483.567 392.825 484.14C393.305 484.7 393.978 484.98 394.845 484.98C395.231 484.98 395.645 484.9 396.085 484.74C396.525 484.58 396.918 484.34 397.265 484.02L398.005 485.78C397.605 486.127 397.091 486.407 396.465 486.62C395.851 486.82 395.238 486.92 394.625 486.92Z" fill="black"/>
<path d="M433.978 333.305V319.205H436.118L441.118 328.425L446.098 319.205H448.198V333.305H445.878V323.805L441.838 331.165H440.338L436.298 323.845V333.305H433.978ZM451.302 333.305V319.205H460.682V321.245H453.762V325.125H460.242V327.165H453.762V331.265H460.682V333.305H451.302ZM467.457 333.505C466.43 333.505 465.537 333.298 464.777 332.885C464.017 332.458 463.43 331.858 463.017 331.085C462.603 330.311 462.397 329.405 462.397 328.365C462.397 327.325 462.603 326.431 463.017 325.685C463.43 324.925 464.017 324.345 464.777 323.945C465.537 323.531 466.43 323.325 467.457 323.325C468.083 323.325 468.703 323.425 469.317 323.625C469.93 323.825 470.437 324.105 470.837 324.465L470.097 326.205C469.75 325.898 469.357 325.665 468.917 325.505C468.49 325.345 468.077 325.265 467.677 325.265C466.81 325.265 466.137 325.538 465.657 326.085C465.19 326.618 464.957 327.385 464.957 328.385C464.957 329.371 465.19 330.151 465.657 330.725C466.137 331.285 466.81 331.565 467.677 331.565C468.063 331.565 468.477 331.485 468.917 331.325C469.357 331.165 469.75 330.925 470.097 330.605L470.837 332.365C470.437 332.711 469.923 332.991 469.297 333.205C468.683 333.405 468.07 333.505 467.457 333.505Z" fill="black"/>
<path d="M336.565 171.118V157.018H345.945V159.058H339.025V162.938H345.505V164.978H339.025V169.078H345.945V171.118H336.565ZM352.72 171.318C351.694 171.318 350.8 171.111 350.04 170.698C349.28 170.271 348.694 169.671 348.28 168.898C347.867 168.125 347.66 167.218 347.66 166.178C347.66 165.138 347.867 164.245 348.28 163.498C348.694 162.738 349.28 162.158 350.04 161.758C350.8 161.345 351.694 161.138 352.72 161.138C353.347 161.138 353.967 161.238 354.58 161.438C355.194 161.638 355.7 161.918 356.1 162.278L355.36 164.018C355.014 163.711 354.62 163.478 354.18 163.318C353.754 163.158 353.34 163.078 352.94 163.078C352.074 163.078 351.4 163.351 350.92 163.898C350.454 164.431 350.22 165.198 350.22 166.198C350.22 167.185 350.454 167.965 350.92 168.538C351.4 169.098 352.074 169.378 352.94 169.378C353.327 169.378 353.74 169.298 354.18 169.138C354.62 168.978 355.014 168.738 355.36 168.418L356.1 170.178C355.7 170.525 355.187 170.805 354.56 171.018C353.947 171.218 353.334 171.318 352.72 171.318ZM357.914 171.118V157.018H360.054L365.054 166.238L370.034 157.018H372.134V171.118H369.814V161.618L365.774 168.978H364.274L360.234 161.658V171.118H357.914Z" fill="black"/>
<path d="M182.524 171.118V157.018H191.904V159.058H184.984V162.938H191.464V164.978H184.984V169.078H191.904V171.118H182.524ZM194.218 171.118V161.338H196.658V162.858C196.991 162.298 197.438 161.871 197.998 161.578C198.571 161.285 199.211 161.138 199.918 161.138C202.225 161.138 203.378 162.478 203.378 165.158V171.118H200.878V165.278C200.878 164.518 200.731 163.965 200.438 163.618C200.158 163.271 199.718 163.098 199.118 163.098C198.385 163.098 197.798 163.331 197.358 163.798C196.931 164.251 196.718 164.858 196.718 165.618V171.118H194.218ZM206.197 171.118V157.018H208.337L213.337 166.238L218.317 157.018H220.417V171.118H218.097V161.618L214.057 168.978H212.557L208.517 161.658V171.118H206.197Z" fill="black"/>
<path d="M292.363 178.645H278.263V172.485C278.263 171.005 278.59 169.858 279.243 169.045C279.883 168.232 280.777 167.825 281.923 167.825C282.683 167.825 283.337 168.018 283.883 168.405C284.43 168.792 284.83 169.325 285.083 170.005C285.31 169.205 285.71 168.585 286.283 168.145C286.843 167.692 287.557 167.465 288.423 167.465C289.677 167.465 290.65 167.892 291.343 168.745C292.023 169.585 292.363 170.758 292.363 172.265V178.645ZM284.243 176.185V172.925C284.243 171.178 283.57 170.305 282.223 170.305C280.877 170.305 280.203 171.178 280.203 172.925V176.185H284.243ZM290.423 176.185V172.585C290.423 170.825 289.717 169.945 288.303 169.945C286.89 169.945 286.183 170.825 286.183 172.585V176.185H290.423ZM292.363 164.836H278.263V162.696L287.483 157.696L278.263 152.716V150.616H292.363V152.936H282.863L290.223 156.976V158.476L282.903 162.516H292.363V164.836Z" fill="black"/>
<path d="M287.366 333.505C285.899 333.505 284.639 333.211 283.586 332.625C282.546 332.025 281.746 331.185 281.186 330.105C280.626 329.011 280.346 327.725 280.346 326.245C280.346 324.765 280.626 323.485 281.186 322.405C281.746 321.325 282.546 320.491 283.586 319.905C284.639 319.305 285.899 319.005 287.366 319.005C288.312 319.005 289.206 319.151 290.046 319.445C290.899 319.738 291.599 320.158 292.146 320.705L291.306 322.745C290.706 322.238 290.092 321.871 289.466 321.645C288.839 321.405 288.166 321.285 287.446 321.285C286.019 321.285 284.932 321.718 284.186 322.585C283.439 323.438 283.066 324.658 283.066 326.245C283.066 327.831 283.439 329.058 284.186 329.925C284.932 330.791 286.019 331.225 287.446 331.225C288.166 331.225 288.839 331.111 289.466 330.885C290.092 330.645 290.706 330.271 291.306 329.765L292.146 331.805C291.599 332.338 290.899 332.758 290.046 333.065C289.206 333.358 288.312 333.505 287.366 333.505Z" fill="black"/>
<path d="M412.157 410.281L419.207 398.07L424.541 401.15C425.823 401.89 426.653 402.746 427.031 403.718C427.415 404.679 427.32 405.656 426.747 406.649C426.367 407.307 425.873 407.777 425.265 408.057C424.657 408.337 423.995 408.417 423.279 408.296C423.859 408.892 424.196 409.549 424.29 410.265C424.403 410.977 424.242 411.708 423.809 412.458C423.182 413.544 422.326 414.173 421.24 414.347C420.173 414.516 418.987 414.224 417.682 413.471L412.157 410.281ZM418.347 404.478L421.17 406.108C422.683 406.982 423.776 406.835 424.449 405.669C425.123 404.503 424.703 403.483 423.19 402.61L420.367 400.98L418.347 404.478ZM415.257 409.83L418.375 411.63C419.899 412.51 421.014 412.338 421.721 411.115C422.428 409.891 422.019 408.839 420.495 407.959L417.377 406.159L415.257 409.83ZM424.081 417.165L431.131 404.954L439.255 409.644L438.235 411.411L432.242 407.951L430.302 411.311L435.914 414.551L434.894 416.318L429.282 413.078L427.232 416.629L433.225 420.089L432.205 421.855L424.081 417.165ZM437.972 425.416C437.083 424.903 436.413 424.277 435.961 423.539C435.516 422.79 435.308 421.977 435.337 421.1C435.366 420.224 435.64 419.335 436.16 418.435C436.68 417.534 437.306 416.864 438.037 416.424C438.775 415.972 439.573 415.763 440.431 415.797C441.296 415.819 442.173 416.087 443.062 416.6C443.605 416.913 444.092 417.31 444.523 417.79C444.954 418.27 445.253 418.765 445.419 419.277L443.908 420.414C443.762 419.975 443.538 419.576 443.236 419.218C442.947 418.866 442.629 418.59 442.283 418.39C441.532 417.957 440.812 417.857 440.123 418.09C439.452 418.319 438.867 418.866 438.367 419.732C437.874 420.586 437.686 421.379 437.803 422.108C437.939 422.833 438.382 423.413 439.133 423.846C439.467 424.039 439.865 424.177 440.326 424.258C440.788 424.34 441.248 424.328 441.708 424.225L441.469 426.119C440.95 426.219 440.365 426.205 439.716 426.076C439.084 425.943 438.503 425.723 437.972 425.416Z" fill="black"/>
</svg>
