<svg width="572" height="540" viewBox="0 0 572 540" fill="none" xmlns="http://www.w3.org/2000/svg">
<path d="M282.786 539.794C282.786 537.294 282.785 537.294 282.784 537.294H282.776H282.747L282.627 537.294L282.472 537.294C282.383 537.293 282.276 537.293 282.149 537.293C281.939 537.292 281.677 537.291 281.366 537.289C281.051 537.288 280.687 537.286 280.273 537.283C278.624 537.272 276.197 537.251 273.084 537.208C266.86 537.122 257.899 536.949 246.962 536.605C225.084 535.915 195.311 534.536 163.716 531.779C132.112 529.021 98.7377 524.888 69.64 518.703C41.311 512.681 17.3969 504.783 3.03979 494.555C44.9192 313.851 99.3134 150.072 285.077 3.43246C467.722 150.251 519.056 325.078 561.333 469.06C563.824 477.543 566.284 485.92 568.737 494.177C568.082 494.45 567.266 494.784 566.289 495.174C563.293 496.367 558.785 498.079 552.768 500.137C540.736 504.253 522.673 509.754 498.622 515.258C450.521 526.267 378.462 537.294 282.786 537.294V539.794Z" fill="white" stroke="black" stroke-width="5"/>
<path d="M246.572 304.618L243.769 324.023L91.8146 235.356L108.465 204.228L262.029 293.541L246.779 304.28L246.603 304.404L246.572 304.618Z" fill="#56A278" stroke="black"/>
<path d="M282.786 539.794C282.786 537.294 282.785 537.294 282.784 537.294H282.776H282.747L282.627 537.294L282.472 537.294C282.383 537.293 282.276 537.293 282.149 537.293C281.939 537.292 281.677 537.291 281.366 537.289C281.051 537.288 280.687 537.286 280.273 537.283C278.624 537.272 276.197 537.251 273.084 537.208C266.86 537.122 257.899 536.949 246.962 536.605C225.084 535.915 195.311 534.536 163.716 531.779C132.112 529.021 98.7377 524.888 69.64 518.703C41.311 512.681 17.3969 504.783 3.03979 494.555C44.9192 313.851 99.3134 150.072 285.077 3.43246C467.722 150.251 519.056 325.078 561.333 469.06C563.824 477.543 566.284 485.92 568.737 494.177C568.082 494.45 567.266 494.784 566.289 495.174C563.293 496.367 558.785 498.079 552.768 500.137C540.736 504.253 522.673 509.754 498.622 515.258C450.521 526.267 378.462 537.294 282.786 537.294V539.794Z" stroke="black" stroke-width="5"/>
<path d="M265.916 18.3161L265.916 535.5" stroke="black" stroke-width="5"/>
<path d="M304.053 18.3161L304.053 535.499" stroke="black" stroke-width="5"/>
<path d="M458.812 202.96L8.01076 468.92" stroke="black" stroke-width="5"/>
<path d="M474.529 237.687L25.6441 505.583" stroke="black" stroke-width="5"/>
<path d="M545.363 501.818L91.3956 236.538" stroke="black" stroke-width="5"/>
<path d="M560.392 465.387L107.902 202.562" stroke="black" stroke-width="5"/>
<path d="M245.835 305.124L285.317 282.329L324.8 305.124V350.714L285.317 373.509L245.835 350.714V305.124Z" fill="white" stroke="black" stroke-width="5.60993"/>
<path d="M121.502 431.508L114.992 419.001L120.456 416.157C121.769 415.473 122.936 415.234 123.96 415.438C124.977 415.63 125.75 416.234 126.279 417.251C126.63 417.926 126.76 418.594 126.67 419.258C126.579 419.921 126.291 420.522 125.805 421.061C126.619 420.893 127.354 420.961 128.009 421.267C128.669 421.554 129.2 422.082 129.6 422.851C130.179 423.962 130.25 425.023 129.813 426.032C129.382 427.023 128.498 427.866 127.162 428.562L121.502 431.508ZM119.935 423.17L122.827 421.664C124.376 420.858 124.84 419.857 124.218 418.663C123.596 417.468 122.511 417.274 120.961 418.081L118.07 419.586L119.935 423.17ZM122.789 428.651L125.982 426.989C127.543 426.176 127.997 425.143 127.345 423.889C126.692 422.636 125.585 422.415 124.024 423.228L120.831 424.89L122.789 428.651ZM133.716 425.15L127.205 412.643L135.526 408.312L136.468 410.121L130.33 413.317L132.121 416.758L137.869 413.766L138.811 415.576L133.063 418.568L134.956 422.204L141.094 419.009L142.036 420.819L133.716 425.15ZM144.088 419.75L139.573 411.075L141.737 409.949L142.439 411.297C142.476 410.646 142.675 410.062 143.036 409.543C143.409 409.018 143.909 408.592 144.536 408.266C146.582 407.201 148.224 407.857 149.461 410.234L152.214 415.521L149.996 416.675L147.299 411.495C146.948 410.821 146.563 410.398 146.143 410.226C145.734 410.048 145.264 410.097 144.732 410.374C144.081 410.713 143.669 411.19 143.494 411.808C143.325 412.407 143.415 413.043 143.766 413.717L146.306 418.596L144.088 419.75Z" fill="black"/>
<path d="M157.337 487.387V473.287H166.717V475.327H159.797V479.207H166.277V481.247H159.797V485.347H166.717V487.387H157.337ZM173.492 487.587C172.465 487.587 171.572 487.381 170.812 486.967C170.052 486.541 169.465 485.941 169.052 485.167C168.639 484.394 168.432 483.487 168.432 482.447C168.432 481.407 168.639 480.514 169.052 479.767C169.465 479.007 170.052 478.427 170.812 478.027C171.572 477.614 172.465 477.407 173.492 477.407C174.119 477.407 174.739 477.507 175.352 477.707C175.965 477.907 176.472 478.187 176.872 478.547L176.132 480.287C175.785 479.981 175.392 479.747 174.952 479.587C174.525 479.427 174.112 479.347 173.712 479.347C172.845 479.347 172.172 479.621 171.692 480.167C171.225 480.701 170.992 481.467 170.992 482.467C170.992 483.454 171.225 484.234 171.692 484.807C172.172 485.367 172.845 485.647 173.712 485.647C174.099 485.647 174.512 485.567 174.952 485.407C175.392 485.247 175.785 485.007 176.132 484.687L176.872 486.447C176.472 486.794 175.959 487.074 175.332 487.287C174.719 487.487 174.105 487.587 173.492 487.587ZM178.645 487.387V473.287H188.025V475.327H181.105V479.207H187.585V481.247H181.105V485.347H188.025V487.387H178.645ZM190.339 487.387V477.607H192.779V479.127C193.112 478.567 193.559 478.141 194.119 477.847C194.692 477.554 195.332 477.407 196.039 477.407C198.346 477.407 199.499 478.747 199.499 481.427V487.387H196.999V481.547C196.999 480.787 196.852 480.234 196.559 479.887C196.279 479.541 195.839 479.367 195.239 479.367C194.506 479.367 193.919 479.601 193.479 480.067C193.052 480.521 192.839 481.127 192.839 481.887V487.387H190.339Z" fill="black"/>
<path d="M97.6972 335.94V321.84H99.8372L104.837 331.06L109.817 321.84H111.917V335.94H109.597V326.44L105.557 333.8H104.057L100.017 326.48V335.94H97.6972ZM115.02 335.94V321.84H124.4V323.88H117.48V327.76H123.96V329.8H117.48V333.9H124.4V335.94H115.02ZM126.714 335.94V326.16H129.154V327.68C129.487 327.12 129.934 326.693 130.494 326.4C131.067 326.107 131.707 325.96 132.414 325.96C134.721 325.96 135.874 327.3 135.874 329.98V335.94H133.374V330.1C133.374 329.34 133.227 328.787 132.934 328.44C132.654 328.093 132.214 327.92 131.614 327.92C130.881 327.92 130.294 328.153 129.854 328.62C129.427 329.073 129.214 329.68 129.214 330.44V335.94H126.714Z" fill="black"/>
<path d="M292.502 476.154H278.402V466.774H280.442V473.694H284.322V467.214H286.362V473.694H290.462V466.774H292.502V476.154ZM292.502 464.46H282.722L282.722 462.02H284.242C283.682 461.687 283.255 461.24 282.962 460.68C282.669 460.107 282.522 459.467 282.522 458.76C282.522 456.454 283.862 455.3 286.542 455.3H292.502V457.8H286.662C285.902 457.8 285.349 457.947 285.002 458.24C284.655 458.52 284.482 458.96 284.482 459.56C284.482 460.294 284.715 460.88 285.182 461.32C285.635 461.747 286.242 461.96 287.002 461.96H292.502V464.46ZM288.142 452.701H286.142V446.741H288.142V452.701ZM292.502 443.849H278.402V434.469H280.442V441.389H284.322V434.909H286.362V441.389H290.462V434.469H292.502V443.849ZM292.702 427.694C292.702 428.721 292.495 429.614 292.082 430.374C291.655 431.134 291.055 431.721 290.282 432.134C289.509 432.547 288.602 432.754 287.562 432.754C286.522 432.754 285.629 432.547 284.882 432.134C284.122 431.721 283.542 431.134 283.142 430.374C282.729 429.614 282.522 428.721 282.522 427.694C282.522 427.067 282.622 426.447 282.822 425.834C283.022 425.221 283.302 424.714 283.662 424.314L285.402 425.054C285.095 425.401 284.862 425.794 284.702 426.234C284.542 426.661 284.462 427.074 284.462 427.474C284.462 428.341 284.735 429.014 285.282 429.494C285.815 429.961 286.582 430.194 287.582 430.194C288.569 430.194 289.349 429.961 289.922 429.494C290.482 429.014 290.762 428.341 290.762 427.474C290.762 427.087 290.682 426.674 290.522 426.234C290.362 425.794 290.122 425.401 289.802 425.054L291.562 424.314C291.909 424.714 292.189 425.227 292.402 425.854C292.602 426.467 292.702 427.081 292.702 427.694Z" fill="black"/>
<path d="M373.694 283.087L366.644 270.876L368.497 269.806L377.437 275.291L377.14 264.816L378.958 263.766L386.008 275.977L383.999 277.137L379.249 268.91L379.43 277.303L378.131 278.053L370.973 273.734L375.703 281.927L373.694 283.087ZM386.36 270.739L385.36 269.007L390.522 266.027L391.522 267.759L386.36 270.739ZM396.206 270.089L389.156 257.878L397.279 253.188L398.299 254.955L392.306 258.415L394.246 261.775L399.858 258.535L400.878 260.302L395.266 263.542L397.316 267.093L403.309 263.633L404.329 265.399L396.206 270.089ZM410.297 262.185C409.407 262.698 408.531 262.966 407.666 262.988C406.794 262.998 405.986 262.772 405.241 262.309C404.497 261.846 403.865 261.164 403.345 260.264C402.825 259.363 402.557 258.486 402.541 257.633C402.519 256.768 402.737 255.972 403.196 255.246C403.647 254.508 404.317 253.882 405.207 253.369C405.749 253.055 406.336 252.832 406.967 252.699C407.599 252.565 408.177 252.554 408.704 252.666L408.933 254.543C408.479 254.451 408.022 254.445 407.561 254.527C407.112 254.601 406.714 254.739 406.367 254.939C405.617 255.372 405.17 255.946 405.028 256.659C404.89 257.354 405.072 258.135 405.572 259.001C406.065 259.855 406.657 260.414 407.348 260.677C408.043 260.922 408.767 260.828 409.517 260.395C409.852 260.201 410.17 259.926 410.471 259.567C410.772 259.208 410.993 258.804 411.133 258.353L412.654 259.508C412.481 260.008 412.176 260.507 411.74 261.005C411.309 261.485 410.828 261.878 410.297 262.185Z" fill="black"/>
<path d="M154.632 257.442L161.682 245.231L163.536 246.301L163.256 256.786L172.178 251.291L173.997 252.341L166.947 264.552L164.938 263.392L169.688 255.165L162.509 259.519L161.21 258.769L161.371 250.41L156.641 258.602L154.632 257.442ZM171.659 262.238L172.659 260.506L177.82 263.486L176.82 265.218L171.659 262.238ZM177.145 270.44L184.195 258.229L192.318 262.919L191.298 264.685L185.305 261.225L183.365 264.586L188.977 267.826L187.957 269.592L182.345 266.352L180.295 269.903L186.288 273.363L185.268 275.13L177.145 270.44ZM187.272 276.287L192.162 267.817L194.275 269.037L193.515 270.353C194.083 270.035 194.684 269.889 195.315 269.915C195.958 269.947 196.586 270.14 197.198 270.494C199.196 271.647 199.524 273.384 198.184 275.705L195.204 280.867L193.039 279.617L195.959 274.559C196.339 273.901 196.489 273.348 196.408 272.901C196.339 272.461 196.045 272.091 195.525 271.791C194.89 271.424 194.265 271.333 193.651 271.517C193.055 271.697 192.567 272.115 192.187 272.773L189.437 277.537L187.272 276.287Z" fill="white"/>
<path d="M354.122 486.387V472.287H363.502V474.327H356.582V478.207H363.062V480.247H356.582V484.347H363.502V486.387H354.122ZM365.816 486.387V476.607H368.256V478.127C368.589 477.567 369.036 477.141 369.596 476.847C370.169 476.554 370.809 476.407 371.516 476.407C373.822 476.407 374.976 477.747 374.976 480.427V486.387H372.476V480.547C372.476 479.787 372.329 479.234 372.036 478.887C371.756 478.541 371.316 478.367 370.716 478.367C369.982 478.367 369.396 478.601 368.956 479.067C368.529 479.521 368.316 480.127 368.316 480.887V486.387H365.816ZM377.755 486.387V472.287H387.135V474.327H380.215V478.207H386.695V480.247H380.215V484.347H387.135V486.387H377.755ZM393.91 486.587C392.883 486.587 391.99 486.381 391.23 485.967C390.47 485.541 389.883 484.941 389.47 484.167C389.057 483.394 388.85 482.487 388.85 481.447C388.85 480.407 389.057 479.514 389.47 478.767C389.883 478.007 390.47 477.427 391.23 477.027C391.99 476.614 392.883 476.407 393.91 476.407C394.537 476.407 395.157 476.507 395.77 476.707C396.383 476.907 396.89 477.187 397.29 477.547L396.55 479.287C396.203 478.981 395.81 478.747 395.37 478.587C394.943 478.427 394.53 478.347 394.13 478.347C393.263 478.347 392.59 478.621 392.11 479.167C391.643 479.701 391.41 480.467 391.41 481.467C391.41 482.454 391.643 483.234 392.11 483.807C392.59 484.367 393.263 484.647 394.13 484.647C394.517 484.647 394.93 484.567 395.37 484.407C395.81 484.247 396.203 484.007 396.55 483.687L397.29 485.447C396.89 485.794 396.377 486.074 395.75 486.287C395.137 486.487 394.523 486.587 393.91 486.587Z" fill="black"/>
<path d="M433.264 332.972V318.872H435.404L440.404 328.092L445.384 318.872H447.484V332.972H445.164V323.472L441.124 330.832H439.624L435.584 323.512V332.972H433.264ZM450.587 332.972V318.872H459.967V320.912H453.047V324.792H459.527V326.832H453.047V330.932H459.967V332.972H450.587ZM466.742 333.172C465.715 333.172 464.822 332.965 464.062 332.552C463.302 332.125 462.715 331.525 462.302 330.752C461.889 329.978 461.682 329.072 461.682 328.032C461.682 326.992 461.889 326.098 462.302 325.352C462.715 324.592 463.302 324.012 464.062 323.612C464.822 323.198 465.715 322.992 466.742 322.992C467.369 322.992 467.989 323.092 468.602 323.292C469.215 323.492 469.722 323.772 470.122 324.132L469.382 325.872C469.035 325.565 468.642 325.332 468.202 325.172C467.775 325.012 467.362 324.932 466.962 324.932C466.095 324.932 465.422 325.205 464.942 325.752C464.475 326.285 464.242 327.052 464.242 328.052C464.242 329.038 464.475 329.818 464.942 330.392C465.422 330.952 466.095 331.232 466.962 331.232C467.349 331.232 467.762 331.152 468.202 330.992C468.642 330.832 469.035 330.592 469.382 330.272L470.122 332.032C469.722 332.378 469.209 332.658 468.582 332.872C467.969 333.072 467.355 333.172 466.742 333.172Z" fill="black"/>
<path d="M335.851 170.785V156.685H345.231V158.725H338.311V162.605H344.791V164.645H338.311V168.745H345.231V170.785H335.851ZM352.006 170.985C350.979 170.985 350.086 170.778 349.326 170.365C348.566 169.938 347.979 169.338 347.566 168.565C347.152 167.792 346.946 166.885 346.946 165.845C346.946 164.805 347.152 163.912 347.566 163.165C347.979 162.405 348.566 161.825 349.326 161.425C350.086 161.012 350.979 160.805 352.006 160.805C352.632 160.805 353.252 160.905 353.866 161.105C354.479 161.305 354.986 161.585 355.386 161.945L354.646 163.685C354.299 163.378 353.906 163.145 353.466 162.985C353.039 162.825 352.626 162.745 352.226 162.745C351.359 162.745 350.686 163.018 350.206 163.565C349.739 164.098 349.506 164.865 349.506 165.865C349.506 166.852 349.739 167.632 350.206 168.205C350.686 168.765 351.359 169.045 352.226 169.045C352.612 169.045 353.026 168.965 353.466 168.805C353.906 168.645 354.299 168.405 354.646 168.085L355.386 169.845C354.986 170.192 354.472 170.472 353.846 170.685C353.232 170.885 352.619 170.985 352.006 170.985ZM357.199 170.785V156.685H359.339L364.339 165.905L369.319 156.685H371.419V170.785H369.099V161.285L365.059 168.645H363.559L359.519 161.325V170.785H357.199Z" fill="black"/>
<path d="M181.81 170.785V156.685H191.19V158.725H184.27V162.605H190.75V164.645H184.27V168.745H191.19V170.785H181.81ZM193.503 170.785V161.005H195.943V162.525C196.276 161.965 196.723 161.538 197.283 161.245C197.856 160.952 198.496 160.805 199.203 160.805C201.51 160.805 202.663 162.145 202.663 164.825V170.785H200.163V164.945C200.163 164.185 200.016 163.632 199.723 163.285C199.443 162.938 199.003 162.765 198.403 162.765C197.67 162.765 197.083 162.998 196.643 163.465C196.216 163.918 196.003 164.525 196.003 165.285V170.785H193.503ZM205.482 170.785V156.685H207.622L212.622 165.905L217.602 156.685H219.702V170.785H217.382V161.285L213.342 168.645H211.842L207.802 161.325V170.785H205.482Z" fill="black"/>
<path d="M291.648 178.312H277.548V172.152C277.548 170.672 277.875 169.525 278.528 168.712C279.168 167.899 280.062 167.492 281.208 167.492C281.968 167.492 282.622 167.685 283.168 168.072C283.715 168.459 284.115 168.992 284.368 169.672C284.595 168.872 284.995 168.252 285.568 167.812C286.128 167.359 286.842 167.132 287.708 167.132C288.962 167.132 289.935 167.559 290.628 168.412C291.308 169.252 291.648 170.425 291.648 171.932V178.312ZM283.528 175.852V172.592C283.528 170.845 282.855 169.972 281.508 169.972C280.162 169.972 279.488 170.845 279.488 172.592V175.852H283.528ZM289.708 175.852V172.252C289.708 170.492 289.002 169.612 287.588 169.612C286.175 169.612 285.468 170.492 285.468 172.252V175.852H289.708ZM291.648 164.503H277.548V162.363L286.768 157.363L277.548 152.383V150.283H291.648V152.603H282.148L289.508 156.643V158.143L282.188 162.183H291.648V164.503Z" fill="black"/>
<path d="M286.651 333.172C285.184 333.172 283.924 332.878 282.871 332.292C281.831 331.692 281.031 330.852 280.471 329.772C279.911 328.678 279.631 327.392 279.631 325.912C279.631 324.432 279.911 323.152 280.471 322.072C281.031 320.992 281.831 320.158 282.871 319.572C283.924 318.972 285.184 318.672 286.651 318.672C287.597 318.672 288.491 318.818 289.331 319.112C290.184 319.405 290.884 319.825 291.431 320.372L290.591 322.412C289.991 321.905 289.377 321.538 288.751 321.312C288.124 321.072 287.451 320.952 286.731 320.952C285.304 320.952 284.217 321.385 283.471 322.252C282.724 323.105 282.351 324.325 282.351 325.912C282.351 327.498 282.724 328.725 283.471 329.592C284.217 330.458 285.304 330.892 286.731 330.892C287.451 330.892 288.124 330.778 288.751 330.552C289.377 330.312 289.991 329.938 290.591 329.432L291.431 331.472C290.884 332.005 290.184 332.425 289.331 332.732C288.491 333.025 287.597 333.172 286.651 333.172Z" fill="black"/>
<path d="M411.442 409.948L418.492 397.737L423.827 400.817C425.108 401.557 425.938 402.413 426.316 403.385C426.7 404.346 426.606 405.323 426.032 406.316C425.652 406.974 425.158 407.444 424.55 407.724C423.942 408.004 423.28 408.084 422.564 407.963C423.144 408.559 423.481 409.216 423.575 409.932C423.688 410.644 423.527 411.375 423.094 412.125C422.467 413.211 421.611 413.84 420.525 414.014C419.458 414.183 418.272 413.891 416.967 413.138L411.442 409.948ZM417.632 404.145L420.456 405.775C421.968 406.649 423.061 406.502 423.734 405.336C424.408 404.17 423.988 403.15 422.476 402.277L419.652 400.647L417.632 404.145ZM414.542 409.497L417.66 411.297C419.184 412.177 420.3 412.005 421.006 410.781C421.713 409.558 421.304 408.506 419.78 407.626L416.662 405.826L414.542 409.497ZM423.367 416.832L430.417 404.621L438.54 409.311L437.52 411.078L431.527 407.618L429.587 410.978L435.199 414.218L434.179 415.985L428.567 412.745L426.517 416.296L432.51 419.756L431.49 421.522L423.367 416.832ZM437.257 425.083C436.368 424.57 435.698 423.944 435.246 423.206C434.801 422.457 434.593 421.644 434.622 420.767C434.651 419.891 434.925 419.002 435.445 418.102C435.965 417.201 436.591 416.531 437.322 416.091C438.06 415.639 438.858 415.43 439.716 415.464C440.581 415.486 441.458 415.754 442.347 416.267C442.89 416.58 443.377 416.977 443.808 417.457C444.239 417.937 444.538 418.432 444.704 418.944L443.194 420.081C443.047 419.642 442.823 419.243 442.522 418.885C442.232 418.533 441.914 418.257 441.568 418.057C440.817 417.624 440.097 417.524 439.408 417.757C438.738 417.986 438.152 418.533 437.652 419.399C437.159 420.253 436.971 421.046 437.088 421.775C437.224 422.5 437.667 423.08 438.418 423.513C438.753 423.706 439.151 423.844 439.612 423.925C440.073 424.007 440.533 423.995 440.994 423.892L440.754 425.786C440.235 425.886 439.65 425.872 439.001 425.743C438.37 425.61 437.788 425.39 437.257 425.083Z" fill="black"/>
</svg>
