<svg width="592" height="541" viewBox="0 0 592 541" fill="none" xmlns="http://www.w3.org/2000/svg">
<path d="M282.829 540.381C282.829 537.881 282.828 537.881 282.827 537.881H282.819H282.79L282.67 537.881L282.515 537.88C282.426 537.88 282.319 537.88 282.192 537.88C281.982 537.879 281.72 537.878 281.408 537.876C281.094 537.875 280.73 537.873 280.316 537.87C278.667 537.859 276.24 537.838 273.127 537.795C266.903 537.709 257.942 537.536 247.005 537.192C225.127 536.502 195.354 535.123 163.759 532.366C132.155 529.608 98.7806 525.475 69.6829 519.29C41.354 513.268 17.4399 505.37 3.08276 495.142C44.9622 314.438 99.3563 150.659 285.12 4.01938C467.765 150.838 519.099 325.665 561.376 469.647C563.867 478.13 566.327 486.507 568.78 494.764C568.125 495.037 567.309 495.371 566.332 495.76C563.336 496.954 558.828 498.666 552.811 500.724C540.779 504.84 522.716 510.341 498.664 515.845C450.564 526.854 378.505 537.881 282.829 537.881V540.381Z" fill="white" stroke="black" stroke-width="5"/>
<path d="M324.775 327.866L475.2 235.984L520.97 341.132L548.285 427.966L558.439 463.656L324.775 327.866Z" fill="#DCB051"/>
<path d="M282.829 540.381C282.829 537.881 282.828 537.881 282.827 537.881H282.819H282.79L282.67 537.881L282.515 537.88C282.426 537.88 282.319 537.88 282.192 537.88C281.982 537.879 281.72 537.878 281.408 537.876C281.094 537.875 280.73 537.873 280.316 537.87C278.667 537.859 276.24 537.838 273.127 537.795C266.903 537.709 257.942 537.536 247.005 537.192C225.127 536.502 195.354 535.123 163.759 532.366C132.155 529.608 98.7806 525.475 69.6829 519.29C41.354 513.268 17.4399 505.37 3.08276 495.142C44.9622 314.438 99.3563 150.659 285.12 4.01938C467.765 150.838 519.099 325.665 561.376 469.647C563.867 478.13 566.327 486.507 568.78 494.764C568.125 495.037 567.309 495.371 566.332 495.76C563.336 496.954 558.828 498.666 552.811 500.724C540.779 504.84 522.716 510.341 498.664 515.845C450.564 526.854 378.505 537.881 282.829 537.881V540.381Z" stroke="black" stroke-width="5"/>
<path d="M265.959 18.9033L265.959 536.087" stroke="black" stroke-width="5"/>
<path d="M304.096 18.9033L304.096 536.086" stroke="black" stroke-width="5"/>
<path d="M458.855 203.547L8.05373 469.507" stroke="black" stroke-width="5"/>
<path d="M474.572 238.273L25.6871 506.17" stroke="black" stroke-width="5"/>
<path d="M545.406 502.404L91.4386 237.124" stroke="black" stroke-width="5"/>
<path d="M560.435 465.974L107.945 203.15" stroke="black" stroke-width="5"/>
<path d="M245.878 305.711L285.36 282.916L324.843 305.711V351.301L285.36 374.096L245.878 351.301V305.711Z" fill="white" stroke="black" stroke-width="5.60993"/>
<path d="M121.545 432.095L115.035 419.588L120.499 416.744C121.811 416.06 122.979 415.821 124.003 416.024C125.02 416.217 125.793 416.821 126.322 417.838C126.673 418.512 126.803 419.181 126.713 419.845C126.622 420.508 126.334 421.109 125.848 421.648C126.662 421.48 127.397 421.548 128.052 421.853C128.712 422.141 129.243 422.669 129.643 423.438C130.222 424.549 130.293 425.61 129.856 426.619C129.425 427.61 128.541 428.453 127.205 429.149L121.545 432.095ZM119.978 423.756L122.87 422.251C124.419 421.445 124.883 420.444 124.261 419.25C123.639 418.055 122.554 417.861 121.004 418.668L118.113 420.173L119.978 423.756ZM122.832 429.238L126.025 427.576C127.586 426.763 128.04 425.73 127.388 424.476C126.735 423.223 125.628 423.002 124.067 423.815L120.874 425.477L122.832 429.238ZM133.759 425.737L127.248 413.23L135.569 408.899L136.511 410.708L130.372 413.904L132.164 417.345L137.912 414.353L138.854 416.163L133.106 419.155L134.999 422.791L141.137 419.596L142.079 421.406L133.759 425.737ZM144.131 420.337L139.616 411.662L141.78 410.536L142.482 411.884C142.519 411.233 142.718 410.649 143.079 410.13C143.452 409.605 143.952 409.179 144.579 408.853C146.625 407.788 148.267 408.444 149.504 410.821L152.256 416.108L150.039 417.262L147.342 412.082C146.991 411.408 146.606 410.985 146.186 410.813C145.777 410.634 145.307 410.684 144.775 410.961C144.124 411.3 143.711 411.777 143.537 412.394C143.368 412.994 143.458 413.63 143.809 414.304L146.349 419.183L144.131 420.337Z" fill="black"/>
<path d="M157.38 487.974V473.874H166.76V475.914H159.84V479.794H166.32V481.834H159.84V485.934H166.76V487.974H157.38ZM173.535 488.174C172.508 488.174 171.615 487.967 170.855 487.554C170.095 487.127 169.508 486.527 169.095 485.754C168.682 484.981 168.475 484.074 168.475 483.034C168.475 481.994 168.682 481.101 169.095 480.354C169.508 479.594 170.095 479.014 170.855 478.614C171.615 478.201 172.508 477.994 173.535 477.994C174.162 477.994 174.782 478.094 175.395 478.294C176.008 478.494 176.515 478.774 176.915 479.134L176.175 480.874C175.828 480.567 175.435 480.334 174.995 480.174C174.568 480.014 174.155 479.934 173.755 479.934C172.888 479.934 172.215 480.207 171.735 480.754C171.268 481.287 171.035 482.054 171.035 483.054C171.035 484.041 171.268 484.821 171.735 485.394C172.215 485.954 172.888 486.234 173.755 486.234C174.142 486.234 174.555 486.154 174.995 485.994C175.435 485.834 175.828 485.594 176.175 485.274L176.915 487.034C176.515 487.381 176.002 487.661 175.375 487.874C174.762 488.074 174.148 488.174 173.535 488.174ZM178.688 487.974V473.874H188.068V475.914H181.148V479.794H187.628V481.834H181.148V485.934H188.068V487.974H178.688ZM190.382 487.974V478.194H192.822V479.714C193.155 479.154 193.602 478.727 194.162 478.434C194.735 478.141 195.375 477.994 196.082 477.994C198.389 477.994 199.542 479.334 199.542 482.014V487.974H197.042V482.134C197.042 481.374 196.895 480.821 196.602 480.474C196.322 480.127 195.882 479.954 195.282 479.954C194.549 479.954 193.962 480.187 193.522 480.654C193.095 481.107 192.882 481.714 192.882 482.474V487.974H190.382Z" fill="black"/>
<path d="M97.7402 336.527V322.427H99.8802L104.88 331.647L109.86 322.427H111.96V336.527H109.64V327.027L105.6 334.387H104.1L100.06 327.067V336.527H97.7402ZM115.063 336.527V322.427H124.443V324.467H117.523V328.347H124.003V330.387H117.523V334.487H124.443V336.527H115.063ZM126.757 336.527V326.747H129.197V328.267C129.53 327.707 129.977 327.28 130.537 326.987C131.11 326.694 131.75 326.547 132.457 326.547C134.764 326.547 135.917 327.887 135.917 330.567V336.527H133.417V330.687C133.417 329.927 133.27 329.374 132.977 329.027C132.697 328.68 132.257 328.507 131.657 328.507C130.924 328.507 130.337 328.74 129.897 329.207C129.47 329.66 129.257 330.267 129.257 331.027V336.527H126.757Z" fill="black"/>
<path d="M292.545 476.741H278.445V467.361H280.485V474.281H284.365V467.801H286.405V474.281H290.505V467.361H292.545V476.741ZM292.545 465.047H282.765L282.765 462.607H284.285C283.725 462.274 283.298 461.827 283.005 461.267C282.712 460.694 282.565 460.054 282.565 459.347C282.565 457.04 283.905 455.887 286.585 455.887H292.545V458.387H286.705C285.945 458.387 285.392 458.534 285.045 458.827C284.698 459.107 284.525 459.547 284.525 460.147C284.525 460.88 284.758 461.467 285.225 461.907C285.678 462.334 286.285 462.547 287.045 462.547H292.545V465.047ZM288.185 453.288H286.185V447.328H288.185V453.288ZM292.545 444.436H278.445V435.056H280.485V441.976H284.365V435.496H286.405V441.976H290.505V435.056H292.545V444.436ZM292.745 428.281C292.745 429.308 292.538 430.201 292.125 430.961C291.698 431.721 291.098 432.308 290.325 432.721C289.552 433.134 288.645 433.341 287.605 433.341C286.565 433.341 285.672 433.134 284.925 432.721C284.165 432.308 283.585 431.721 283.185 430.961C282.772 430.201 282.565 429.308 282.565 428.281C282.565 427.654 282.665 427.034 282.865 426.421C283.065 425.808 283.345 425.301 283.705 424.901L285.445 425.641C285.138 425.988 284.905 426.381 284.745 426.821C284.585 427.248 284.505 427.661 284.505 428.061C284.505 428.928 284.778 429.601 285.325 430.081C285.858 430.548 286.625 430.781 287.625 430.781C288.612 430.781 289.392 430.548 289.965 430.081C290.525 429.601 290.805 428.928 290.805 428.061C290.805 427.674 290.725 427.261 290.565 426.821C290.405 426.381 290.165 425.988 289.845 425.641L291.605 424.901C291.952 425.301 292.232 425.814 292.445 426.441C292.645 427.054 292.745 427.668 292.745 428.281Z" fill="black"/>
<path d="M373.736 283.674L366.686 271.463L368.54 270.393L377.48 275.877L377.183 265.403L379.001 264.353L386.051 276.564L384.042 277.724L379.292 269.496L379.473 277.89L378.174 278.64L371.016 274.321L375.746 282.514L373.736 283.674ZM386.403 271.326L385.403 269.594L390.565 266.614L391.565 268.346L386.403 271.326ZM396.249 270.676L389.199 258.465L397.322 253.775L398.342 255.542L392.349 259.002L394.289 262.362L399.901 259.122L400.921 260.889L395.309 264.129L397.359 267.679L403.352 264.219L404.372 265.986L396.249 270.676ZM410.34 262.772C409.45 263.285 408.573 263.553 407.709 263.575C406.837 263.585 406.029 263.359 405.284 262.896C404.54 262.433 403.907 261.751 403.387 260.85C402.867 259.95 402.6 259.073 402.584 258.219C402.562 257.355 402.78 256.559 403.239 255.833C403.69 255.095 404.36 254.469 405.25 253.956C405.792 253.642 406.379 253.419 407.01 253.285C407.642 253.152 408.22 253.141 408.747 253.253L408.976 255.13C408.522 255.038 408.065 255.032 407.604 255.114C407.154 255.188 406.757 255.326 406.41 255.526C405.66 255.959 405.213 256.532 405.071 257.246C404.933 257.941 405.115 258.722 405.615 259.588C406.108 260.442 406.7 261.001 407.391 261.264C408.086 261.509 408.81 261.415 409.56 260.982C409.895 260.788 410.213 260.512 410.514 260.154C410.815 259.795 411.036 259.391 411.176 258.94L412.697 260.095C412.524 260.595 412.219 261.094 411.783 261.592C411.352 262.072 410.871 262.465 410.34 262.772Z" fill="black"/>
<path d="M154.675 258.029L161.725 245.818L163.578 246.888L163.299 257.373L172.221 251.878L174.04 252.928L166.99 265.139L164.981 263.979L169.731 255.752L162.552 260.106L161.253 259.356L161.414 250.996L156.684 259.189L154.675 258.029ZM171.702 262.825L172.702 261.093L177.863 264.073L176.863 265.805L171.702 262.825ZM177.188 271.027L184.238 258.816L192.361 263.506L191.341 265.272L185.348 261.812L183.408 265.173L189.02 268.413L188 270.179L182.388 266.939L180.338 270.49L186.331 273.95L185.311 275.717L177.188 271.027ZM187.315 276.873L192.205 268.404L194.318 269.624L193.558 270.94C194.126 270.622 194.727 270.476 195.358 270.502C196.001 270.534 196.629 270.727 197.241 271.081C199.239 272.234 199.567 273.971 198.227 276.292L195.247 281.453L193.082 280.203L196.002 275.146C196.382 274.488 196.532 273.935 196.451 273.488C196.382 273.048 196.088 272.678 195.568 272.378C194.933 272.011 194.308 271.92 193.694 272.104C193.098 272.283 192.61 272.702 192.23 273.36L189.48 278.123L187.315 276.873Z" fill="black"/>
<path d="M354.165 486.974V472.874H363.545V474.914H356.625V478.794H363.105V480.834H356.625V484.934H363.545V486.974H354.165ZM365.859 486.974V477.194H368.299V478.714C368.632 478.154 369.079 477.727 369.639 477.434C370.212 477.141 370.852 476.994 371.559 476.994C373.865 476.994 375.019 478.334 375.019 481.014V486.974H372.519V481.134C372.519 480.374 372.372 479.821 372.079 479.474C371.799 479.127 371.359 478.954 370.759 478.954C370.025 478.954 369.439 479.187 368.999 479.654C368.572 480.107 368.359 480.714 368.359 481.474V486.974H365.859ZM377.798 486.974V472.874H387.178V474.914H380.258V478.794H386.738V480.834H380.258V484.934H387.178V486.974H377.798ZM393.953 487.174C392.926 487.174 392.033 486.967 391.273 486.554C390.513 486.127 389.926 485.527 389.513 484.754C389.099 483.981 388.893 483.074 388.893 482.034C388.893 480.994 389.099 480.101 389.513 479.354C389.926 478.594 390.513 478.014 391.273 477.614C392.033 477.201 392.926 476.994 393.953 476.994C394.579 476.994 395.199 477.094 395.813 477.294C396.426 477.494 396.933 477.774 397.333 478.134L396.593 479.874C396.246 479.567 395.853 479.334 395.413 479.174C394.986 479.014 394.573 478.934 394.173 478.934C393.306 478.934 392.633 479.207 392.153 479.754C391.686 480.287 391.453 481.054 391.453 482.054C391.453 483.041 391.686 483.821 392.153 484.394C392.633 484.954 393.306 485.234 394.173 485.234C394.559 485.234 394.973 485.154 395.413 484.994C395.853 484.834 396.246 484.594 396.593 484.274L397.333 486.034C396.933 486.381 396.419 486.661 395.793 486.874C395.179 487.074 394.566 487.174 393.953 487.174Z" fill="black"/>
<path d="M433.307 333.559V319.459H435.447L440.447 328.679L445.427 319.459H447.527V333.559H445.207V324.059L441.167 331.419H439.667L435.627 324.099V333.559H433.307ZM450.63 333.559V319.459H460.01V321.499H453.09V325.379H459.57V327.419H453.09V331.519H460.01V333.559H450.63ZM466.785 333.759C465.758 333.759 464.865 333.552 464.105 333.139C463.345 332.712 462.758 332.112 462.345 331.339C461.932 330.565 461.725 329.659 461.725 328.619C461.725 327.579 461.932 326.685 462.345 325.939C462.758 325.179 463.345 324.599 464.105 324.199C464.865 323.785 465.758 323.579 466.785 323.579C467.412 323.579 468.032 323.679 468.645 323.879C469.258 324.079 469.765 324.359 470.165 324.719L469.425 326.459C469.078 326.152 468.685 325.919 468.245 325.759C467.818 325.599 467.405 325.519 467.005 325.519C466.138 325.519 465.465 325.792 464.985 326.339C464.518 326.872 464.285 327.639 464.285 328.639C464.285 329.625 464.518 330.405 464.985 330.979C465.465 331.539 466.138 331.819 467.005 331.819C467.392 331.819 467.805 331.739 468.245 331.579C468.685 331.419 469.078 331.179 469.425 330.859L470.165 332.619C469.765 332.965 469.252 333.245 468.625 333.459C468.012 333.659 467.398 333.759 466.785 333.759Z" fill="white"/>
<path d="M335.894 171.372V157.272H345.274V159.312H338.354V163.192H344.834V165.232H338.354V169.332H345.274V171.372H335.894ZM352.049 171.572C351.022 171.572 350.129 171.365 349.369 170.952C348.609 170.525 348.022 169.925 347.609 169.152C347.195 168.379 346.989 167.472 346.989 166.432C346.989 165.392 347.195 164.499 347.609 163.752C348.022 162.992 348.609 162.412 349.369 162.012C350.129 161.599 351.022 161.392 352.049 161.392C352.675 161.392 353.295 161.492 353.909 161.692C354.522 161.892 355.029 162.172 355.429 162.532L354.689 164.272C354.342 163.965 353.949 163.732 353.509 163.572C353.082 163.412 352.669 163.332 352.269 163.332C351.402 163.332 350.729 163.605 350.249 164.152C349.782 164.685 349.549 165.452 349.549 166.452C349.549 167.439 349.782 168.219 350.249 168.792C350.729 169.352 351.402 169.632 352.269 169.632C352.655 169.632 353.069 169.552 353.509 169.392C353.949 169.232 354.342 168.992 354.689 168.672L355.429 170.432C355.029 170.779 354.515 171.059 353.889 171.272C353.275 171.472 352.662 171.572 352.049 171.572ZM357.242 171.372V157.272H359.382L364.382 166.492L369.362 157.272H371.462V171.372H369.142V161.872L365.102 169.232H363.602L359.562 161.912V171.372H357.242Z" fill="black"/>
<path d="M181.853 171.372V157.272H191.233V159.312H184.313V163.192H190.793V165.232H184.313V169.332H191.233V171.372H181.853ZM193.546 171.372V161.592H195.986V163.112C196.319 162.552 196.766 162.125 197.326 161.832C197.899 161.539 198.539 161.392 199.246 161.392C201.553 161.392 202.706 162.732 202.706 165.412V171.372H200.206V165.532C200.206 164.772 200.059 164.219 199.766 163.872C199.486 163.525 199.046 163.352 198.446 163.352C197.713 163.352 197.126 163.585 196.686 164.052C196.259 164.505 196.046 165.112 196.046 165.872V171.372H193.546ZM205.525 171.372V157.272H207.665L212.665 166.492L217.645 157.272H219.745V171.372H217.425V161.872L213.385 169.232H211.885L207.845 161.912V171.372H205.525Z" fill="black"/>
<path d="M291.691 178.899H277.591V172.739C277.591 171.259 277.918 170.112 278.571 169.299C279.211 168.486 280.105 168.079 281.251 168.079C282.011 168.079 282.665 168.272 283.211 168.659C283.758 169.046 284.158 169.579 284.411 170.259C284.638 169.459 285.038 168.839 285.611 168.399C286.171 167.946 286.885 167.719 287.751 167.719C289.005 167.719 289.978 168.146 290.671 168.999C291.351 169.839 291.691 171.012 291.691 172.519V178.899ZM283.571 176.439V173.179C283.571 171.432 282.898 170.559 281.551 170.559C280.205 170.559 279.531 171.432 279.531 173.179V176.439H283.571ZM289.751 176.439V172.839C289.751 171.079 289.045 170.199 287.631 170.199C286.218 170.199 285.511 171.079 285.511 172.839V176.439H289.751ZM291.691 165.089H277.591V162.949L286.811 157.949L277.591 152.969V150.869H291.691V153.189H282.191L289.551 157.229V158.729L282.231 162.769H291.691V165.089Z" fill="black"/>
<path d="M286.694 333.759C285.227 333.759 283.967 333.465 282.914 332.879C281.874 332.279 281.074 331.439 280.514 330.359C279.954 329.265 279.674 327.979 279.674 326.499C279.674 325.019 279.954 323.739 280.514 322.659C281.074 321.579 281.874 320.745 282.914 320.159C283.967 319.559 285.227 319.259 286.694 319.259C287.64 319.259 288.534 319.405 289.374 319.699C290.227 319.992 290.927 320.412 291.474 320.959L290.634 322.999C290.034 322.492 289.42 322.125 288.794 321.899C288.167 321.659 287.494 321.539 286.774 321.539C285.347 321.539 284.26 321.972 283.514 322.839C282.767 323.692 282.394 324.912 282.394 326.499C282.394 328.085 282.767 329.312 283.514 330.179C284.26 331.045 285.347 331.479 286.774 331.479C287.494 331.479 288.167 331.365 288.794 331.139C289.42 330.899 290.034 330.525 290.634 330.019L291.474 332.059C290.927 332.592 290.227 333.012 289.374 333.319C288.534 333.612 287.64 333.759 286.694 333.759Z" fill="black"/>
<path d="M411.485 410.534L418.535 398.324L423.87 401.404C425.151 402.144 425.981 403 426.359 403.972C426.743 404.933 426.649 405.91 426.075 406.903C425.695 407.561 425.201 408.03 424.593 408.311C423.985 408.591 423.323 408.67 422.607 408.55C423.187 409.146 423.524 409.803 423.618 410.519C423.731 411.231 423.57 411.962 423.137 412.712C422.51 413.798 421.654 414.427 420.568 414.601C419.501 414.77 418.315 414.478 417.01 413.724L411.485 410.534ZM417.675 404.732L420.498 406.362C422.011 407.236 423.104 407.089 423.777 405.923C424.451 404.757 424.031 403.737 422.518 402.864L419.695 401.234L417.675 404.732ZM414.585 410.084L417.703 411.884C419.227 412.764 420.343 412.592 421.049 411.368C421.756 410.144 421.347 409.092 419.823 408.212L416.705 406.412L414.585 410.084ZM423.41 417.419L430.46 405.208L438.583 409.898L437.563 411.665L431.57 408.205L429.63 411.565L435.242 414.805L434.222 416.572L428.61 413.332L426.56 416.883L432.553 420.343L431.533 422.109L423.41 417.419ZM437.3 425.67C436.411 425.157 435.741 424.531 435.289 423.793C434.844 423.044 434.636 422.231 434.665 421.354C434.694 420.478 434.968 419.589 435.488 418.689C436.008 417.788 436.634 417.118 437.365 416.678C438.103 416.226 438.901 416.017 439.759 416.051C440.624 416.073 441.501 416.34 442.39 416.854C442.933 417.167 443.42 417.564 443.851 418.044C444.282 418.523 444.581 419.019 444.747 419.531L443.237 420.668C443.09 420.229 442.866 419.83 442.565 419.472C442.275 419.12 441.957 418.844 441.611 418.644C440.86 418.211 440.14 418.111 439.451 418.344C438.781 418.573 438.195 419.12 437.695 419.986C437.202 420.84 437.014 421.633 437.131 422.362C437.267 423.087 437.71 423.667 438.461 424.1C438.796 424.293 439.194 424.431 439.655 424.512C440.116 424.593 440.576 424.582 441.037 424.478L440.797 426.373C440.278 426.473 439.693 426.459 439.044 426.33C438.413 426.197 437.831 425.977 437.3 425.67Z" fill="black"/>
</svg>
