<svg width="573" height="540" viewBox="0 0 573 540" fill="none" xmlns="http://www.w3.org/2000/svg">
<path d="M283.073 539.773C283.073 537.273 283.072 537.273 283.071 537.273H283.063H283.034L282.914 537.273L282.759 537.273C282.67 537.273 282.563 537.273 282.437 537.272C282.226 537.271 281.964 537.27 281.653 537.269C281.339 537.267 280.974 537.265 280.56 537.263C278.911 537.252 276.484 537.23 273.372 537.187C267.147 537.101 258.186 536.929 247.249 536.584C225.371 535.894 195.598 534.515 164.003 531.758C132.399 529 99.0248 524.868 69.9271 518.682C41.5982 512.661 17.684 504.762 3.3269 494.534C45.2063 313.831 99.6005 150.052 285.364 3.41196C468.009 150.231 519.343 325.057 561.62 469.039C564.111 477.523 566.571 485.899 569.024 494.157C568.369 494.43 567.553 494.764 566.576 495.153C563.58 496.347 559.072 498.059 553.055 500.117C541.023 504.233 522.96 509.733 498.909 515.238C450.808 526.247 378.749 537.273 283.073 537.273V539.773Z" fill="white" stroke="black" stroke-width="5"/>
<path d="M90.4406 235.772L245.281 326.726L11.4844 466.647L24.5736 418.536L43.7416 349.507L90.4406 235.772Z" fill="#6C4D7B"/>
<path d="M283.073 539.773C283.073 537.273 283.072 537.273 283.071 537.273H283.063H283.034L282.914 537.273L282.759 537.273C282.67 537.273 282.563 537.273 282.437 537.272C282.226 537.271 281.964 537.27 281.653 537.269C281.339 537.267 280.974 537.265 280.56 537.263C278.911 537.252 276.484 537.23 273.372 537.187C267.147 537.101 258.186 536.929 247.249 536.584C225.371 535.894 195.598 534.515 164.003 531.758C132.399 529 99.0248 524.868 69.9271 518.682C41.5982 512.661 17.684 504.762 3.3269 494.534C45.2063 313.831 99.6005 150.052 285.364 3.41196C468.009 150.231 519.343 325.057 561.62 469.039C564.111 477.523 566.571 485.899 569.024 494.157C568.369 494.43 567.553 494.764 566.576 495.153C563.58 496.347 559.072 498.059 553.055 500.117C541.023 504.233 522.96 509.733 498.909 515.238C450.808 526.247 378.749 537.273 283.073 537.273V539.773Z" stroke="black" stroke-width="5"/>
<path d="M266.203 18.2959L266.203 535.48" stroke="black" stroke-width="5"/>
<path d="M304.34 18.2959L304.34 535.479" stroke="black" stroke-width="5"/>
<path d="M459.1 202.939L8.29787 468.899" stroke="black" stroke-width="5"/>
<path d="M474.816 237.666L25.9312 505.563" stroke="black" stroke-width="5"/>
<path d="M545.65 501.797L91.6827 236.517" stroke="black" stroke-width="5"/>
<path d="M560.678 465.367L108.188 202.542" stroke="black" stroke-width="5"/>
<path d="M246.122 305.103L285.604 282.308L325.087 305.103V350.694L285.604 373.489L246.122 350.694V305.103Z" fill="white" stroke="black" stroke-width="5.60993"/>
<path d="M121.79 431.487L115.279 418.981L120.743 416.136C122.056 415.453 123.224 415.213 124.247 415.417C125.264 415.609 126.037 416.214 126.566 417.231C126.917 417.905 127.047 418.574 126.957 419.237C126.866 419.901 126.578 420.502 126.092 421.04C126.906 420.872 127.641 420.941 128.296 421.246C128.956 421.533 129.487 422.062 129.887 422.83C130.466 423.942 130.537 425.002 130.1 426.011C129.669 427.002 128.785 427.846 127.449 428.541L121.79 431.487ZM120.222 423.149L123.114 421.644C124.663 420.837 125.127 419.837 124.505 418.642C123.883 417.448 122.798 417.254 121.248 418.06L118.357 419.565L120.222 423.149ZM123.076 428.631L126.269 426.968C127.83 426.156 128.284 425.123 127.632 423.869C126.979 422.615 125.872 422.395 124.311 423.208L121.118 424.87L123.076 428.631ZM134.003 425.129L127.493 412.623L135.813 408.291L136.755 410.101L130.617 413.296L132.408 416.738L138.156 413.746L139.098 415.555L133.35 418.547L135.243 422.184L141.381 418.989L142.323 420.798L134.003 425.129ZM144.376 419.73L139.86 411.055L142.024 409.928L142.726 411.276C142.763 410.626 142.962 410.041 143.323 409.522C143.697 408.997 144.196 408.572 144.823 408.246C146.869 407.18 148.511 407.836 149.749 410.214L152.501 415.5L150.283 416.655L147.586 411.474C147.236 410.8 146.85 410.377 146.43 410.205C146.021 410.027 145.551 410.076 145.019 410.353C144.368 410.692 143.956 411.17 143.781 411.787C143.612 412.386 143.703 413.023 144.054 413.697L146.593 418.575L144.376 419.73Z" fill="black"/>
<path d="M157.624 487.367V473.267H167.004V475.307H160.084V479.187H166.564V481.227H160.084V485.327H167.004V487.367H157.624ZM173.779 487.567C172.752 487.567 171.859 487.36 171.099 486.947C170.339 486.52 169.752 485.92 169.339 485.147C168.926 484.373 168.719 483.467 168.719 482.427C168.719 481.387 168.926 480.493 169.339 479.747C169.752 478.987 170.339 478.407 171.099 478.007C171.859 477.593 172.752 477.387 173.779 477.387C174.406 477.387 175.026 477.487 175.639 477.687C176.252 477.887 176.759 478.167 177.159 478.527L176.419 480.267C176.072 479.96 175.679 479.727 175.239 479.567C174.812 479.407 174.399 479.327 173.999 479.327C173.132 479.327 172.459 479.6 171.979 480.147C171.512 480.68 171.279 481.447 171.279 482.447C171.279 483.433 171.512 484.213 171.979 484.787C172.459 485.347 173.132 485.627 173.999 485.627C174.386 485.627 174.799 485.547 175.239 485.387C175.679 485.227 176.072 484.987 176.419 484.667L177.159 486.427C176.759 486.773 176.246 487.053 175.619 487.267C175.006 487.467 174.392 487.567 173.779 487.567ZM178.933 487.367V473.267H188.313V475.307H181.393V479.187H187.873V481.227H181.393V485.327H188.313V487.367H178.933ZM190.626 487.367V477.587H193.066V479.107C193.4 478.547 193.846 478.12 194.406 477.827C194.98 477.533 195.62 477.387 196.326 477.387C198.633 477.387 199.786 478.727 199.786 481.407V487.367H197.286V481.527C197.286 480.767 197.14 480.213 196.846 479.867C196.566 479.52 196.126 479.347 195.526 479.347C194.793 479.347 194.206 479.58 193.766 480.047C193.34 480.5 193.126 481.107 193.126 481.867V487.367H190.626Z" fill="black"/>
<path d="M97.9843 335.919V321.819H100.124L105.124 331.039L110.104 321.819H112.204V335.919H109.884V326.419L105.844 333.779H104.344L100.304 326.459V335.919H97.9843ZM115.308 335.919V321.819H124.688V323.859H117.768V327.739H124.248V329.779H117.768V333.879H124.688V335.919H115.308ZM127.001 335.919V326.139H129.441V327.659C129.775 327.099 130.221 326.673 130.781 326.379C131.355 326.086 131.995 325.939 132.701 325.939C135.008 325.939 136.161 327.279 136.161 329.959V335.919H133.661V330.079C133.661 329.319 133.515 328.766 133.221 328.419C132.941 328.073 132.501 327.899 131.901 327.899C131.168 327.899 130.581 328.133 130.141 328.599C129.715 329.053 129.501 329.659 129.501 330.419V335.919H127.001Z" fill="white"/>
<path d="M292.789 476.133H278.689V466.753H280.729V473.673H284.609V467.193H286.649V473.673H290.749V466.753H292.789V476.133ZM292.789 464.44H283.009L283.009 462H284.529C283.969 461.666 283.542 461.22 283.249 460.66C282.956 460.086 282.809 459.446 282.809 458.74C282.809 456.433 284.149 455.28 286.829 455.28H292.789V457.78H286.949C286.189 457.78 285.636 457.926 285.289 458.22C284.942 458.5 284.769 458.94 284.769 459.54C284.769 460.273 285.002 460.86 285.469 461.3C285.922 461.726 286.529 461.94 287.289 461.94H292.789V464.44ZM288.429 452.681H286.429V446.721H288.429V452.681ZM292.789 443.829H278.689V434.449H280.729V441.369H284.609V434.889H286.649V441.369H290.749V434.449H292.789V443.829ZM292.989 427.674C292.989 428.7 292.782 429.594 292.369 430.354C291.942 431.114 291.342 431.7 290.569 432.114C289.796 432.527 288.889 432.734 287.849 432.734C286.809 432.734 285.916 432.527 285.169 432.114C284.409 431.7 283.829 431.114 283.429 430.354C283.016 429.594 282.809 428.7 282.809 427.674C282.809 427.047 282.909 426.427 283.109 425.814C283.309 425.2 283.589 424.694 283.949 424.294L285.689 425.034C285.382 425.38 285.149 425.774 284.989 426.214C284.829 426.64 284.749 427.054 284.749 427.454C284.749 428.32 285.022 428.994 285.569 429.474C286.102 429.94 286.869 430.174 287.869 430.174C288.856 430.174 289.636 429.94 290.209 429.474C290.769 428.994 291.049 428.32 291.049 427.454C291.049 427.067 290.969 426.654 290.809 426.214C290.649 425.774 290.409 425.38 290.089 425.034L291.849 424.294C292.196 424.694 292.476 425.207 292.689 425.834C292.889 426.447 292.989 427.06 292.989 427.674Z" fill="black"/>
<path d="M373.981 283.066L366.931 270.855L368.784 269.785L377.724 275.27L377.427 264.795L379.245 263.745L386.295 275.956L384.286 277.116L379.536 268.889L379.718 277.283L378.419 278.033L371.26 273.714L375.99 281.906L373.981 283.066ZM386.647 270.719L385.647 268.987L390.809 266.007L391.809 267.739L386.647 270.719ZM396.493 270.069L389.443 257.858L397.566 253.168L398.586 254.934L392.594 258.394L394.534 261.755L400.145 258.515L401.165 260.281L395.554 263.521L397.604 267.072L403.596 263.612L404.616 265.379L396.493 270.069ZM410.584 262.164C409.695 262.678 408.818 262.945 407.953 262.967C407.081 262.978 406.273 262.752 405.529 262.289C404.784 261.826 404.152 261.144 403.632 260.243C403.112 259.342 402.844 258.465 402.829 257.612C402.807 256.747 403.025 255.952 403.483 255.225C403.934 254.487 404.605 253.862 405.494 253.348C406.036 253.035 406.623 252.812 407.255 252.678C407.886 252.545 408.464 252.534 408.991 252.646L409.22 254.522C408.766 254.43 408.309 254.425 407.848 254.506C407.399 254.581 407.001 254.718 406.654 254.918C405.904 255.352 405.457 255.925 405.315 256.638C405.177 257.334 405.359 258.114 405.859 258.98C406.352 259.835 406.944 260.394 407.635 260.657C408.331 260.902 409.054 260.808 409.804 260.374C410.139 260.181 410.457 259.905 410.758 259.546C411.059 259.188 411.28 258.783 411.42 258.333L412.941 259.487C412.768 259.987 412.463 260.487 412.027 260.985C411.596 261.464 411.115 261.858 410.584 262.164Z" fill="black"/>
<path d="M154.92 257.422L161.97 245.211L163.824 246.281L163.544 256.765L172.467 251.271L174.285 252.321L167.235 264.532L165.226 263.372L169.976 255.144L162.797 259.498L161.498 258.748L161.659 250.389L156.929 258.582L154.92 257.422ZM171.947 262.217L172.947 260.485L178.108 263.465L177.108 265.197L171.947 262.217ZM177.433 270.419L184.483 258.208L192.606 262.898L191.586 264.665L185.593 261.205L183.653 264.565L189.265 267.805L188.245 269.572L182.633 266.332L180.583 269.883L186.576 273.343L185.556 275.109L177.433 270.419ZM187.56 276.266L192.45 267.796L194.563 269.016L193.803 270.333C194.371 270.014 194.972 269.868 195.603 269.894C196.246 269.927 196.874 270.12 197.486 270.473C199.484 271.626 199.813 273.364 198.473 275.685L195.493 280.846L193.327 279.596L196.247 274.538C196.627 273.88 196.777 273.328 196.696 272.881C196.627 272.441 196.333 272.071 195.813 271.771C195.178 271.404 194.553 271.313 193.939 271.497C193.343 271.676 192.855 272.095 192.475 272.753L189.725 277.516L187.56 276.266Z" fill="black"/>
<path d="M354.409 486.367V472.267H363.789V474.307H356.869V478.187H363.349V480.227H356.869V484.327H363.789V486.367H354.409ZM366.103 486.367V476.587H368.543V478.107C368.876 477.547 369.323 477.12 369.883 476.827C370.456 476.533 371.096 476.387 371.803 476.387C374.109 476.387 375.263 477.727 375.263 480.407V486.367H372.763V480.527C372.763 479.767 372.616 479.213 372.323 478.867C372.043 478.52 371.603 478.347 371.003 478.347C370.269 478.347 369.683 478.58 369.243 479.047C368.816 479.5 368.603 480.107 368.603 480.867V486.367H366.103ZM378.042 486.367V472.267H387.422V474.307H380.502V478.187H386.982V480.227H380.502V484.327H387.422V486.367H378.042ZM394.197 486.567C393.17 486.567 392.277 486.36 391.517 485.947C390.757 485.52 390.17 484.92 389.757 484.147C389.344 483.373 389.137 482.467 389.137 481.427C389.137 480.387 389.344 479.493 389.757 478.747C390.17 477.987 390.757 477.407 391.517 477.007C392.277 476.593 393.17 476.387 394.197 476.387C394.824 476.387 395.444 476.487 396.057 476.687C396.67 476.887 397.177 477.167 397.577 477.527L396.837 479.267C396.49 478.96 396.097 478.727 395.657 478.567C395.23 478.407 394.817 478.327 394.417 478.327C393.55 478.327 392.877 478.6 392.397 479.147C391.93 479.68 391.697 480.447 391.697 481.447C391.697 482.433 391.93 483.213 392.397 483.787C392.877 484.347 393.55 484.627 394.417 484.627C394.804 484.627 395.217 484.547 395.657 484.387C396.097 484.227 396.49 483.987 396.837 483.667L397.577 485.427C397.177 485.773 396.664 486.053 396.037 486.267C395.424 486.467 394.81 486.567 394.197 486.567Z" fill="black"/>
<path d="M433.551 332.951V318.851H435.691L440.691 328.071L445.671 318.851H447.771V332.951H445.451V323.451L441.411 330.811H439.911L435.871 323.491V332.951H433.551ZM450.874 332.951V318.851H460.254V320.891H453.334V324.771H459.814V326.811H453.334V330.911H460.254V332.951H450.874ZM467.029 333.151C466.002 333.151 465.109 332.945 464.349 332.531C463.589 332.105 463.002 331.505 462.589 330.731C462.176 329.958 461.969 329.051 461.969 328.011C461.969 326.971 462.176 326.078 462.589 325.331C463.002 324.571 463.589 323.991 464.349 323.591C465.109 323.178 466.002 322.971 467.029 322.971C467.656 322.971 468.276 323.071 468.889 323.271C469.502 323.471 470.009 323.751 470.409 324.111L469.669 325.851C469.322 325.545 468.929 325.311 468.489 325.151C468.062 324.991 467.649 324.911 467.249 324.911C466.382 324.911 465.709 325.185 465.229 325.731C464.762 326.265 464.529 327.031 464.529 328.031C464.529 329.018 464.762 329.798 465.229 330.371C465.709 330.931 466.382 331.211 467.249 331.211C467.636 331.211 468.049 331.131 468.489 330.971C468.929 330.811 469.322 330.571 469.669 330.251L470.409 332.011C470.009 332.358 469.496 332.638 468.869 332.851C468.256 333.051 467.642 333.151 467.029 333.151Z" fill="black"/>
<path d="M336.138 170.765V156.665H345.518V158.705H338.598V162.585H345.078V164.625H338.598V168.725H345.518V170.765H336.138ZM352.293 170.965C351.266 170.965 350.373 170.758 349.613 170.345C348.853 169.918 348.266 169.318 347.853 168.545C347.439 167.771 347.233 166.865 347.233 165.825C347.233 164.785 347.439 163.891 347.853 163.145C348.266 162.385 348.853 161.805 349.613 161.405C350.373 160.991 351.266 160.785 352.293 160.785C352.919 160.785 353.539 160.885 354.153 161.085C354.766 161.285 355.273 161.565 355.673 161.925L354.933 163.665C354.586 163.358 354.193 163.125 353.753 162.965C353.326 162.805 352.913 162.725 352.513 162.725C351.646 162.725 350.973 162.998 350.493 163.545C350.026 164.078 349.793 164.845 349.793 165.845C349.793 166.831 350.026 167.611 350.493 168.185C350.973 168.745 351.646 169.025 352.513 169.025C352.899 169.025 353.313 168.945 353.753 168.785C354.193 168.625 354.586 168.385 354.933 168.065L355.673 169.825C355.273 170.171 354.759 170.451 354.133 170.665C353.519 170.865 352.906 170.965 352.293 170.965ZM357.486 170.765V156.665H359.626L364.626 165.885L369.606 156.665H371.706V170.765H369.386V161.265L365.346 168.625H363.846L359.806 161.305V170.765H357.486Z" fill="black"/>
<path d="M182.097 170.765V156.665H191.477V158.705H184.557V162.585H191.037V164.625H184.557V168.725H191.477V170.765H182.097ZM193.79 170.765V160.985H196.23V162.505C196.564 161.945 197.01 161.518 197.57 161.225C198.144 160.931 198.784 160.785 199.49 160.785C201.797 160.785 202.95 162.125 202.95 164.805V170.765H200.45V164.925C200.45 164.165 200.304 163.611 200.01 163.265C199.73 162.918 199.29 162.745 198.69 162.745C197.957 162.745 197.37 162.978 196.93 163.445C196.504 163.898 196.29 164.505 196.29 165.265V170.765H193.79ZM205.769 170.765V156.665H207.909L212.909 165.885L217.889 156.665H219.989V170.765H217.669V161.265L213.629 168.625H212.129L208.089 161.305V170.765H205.769Z" fill="black"/>
<path d="M291.936 178.292H277.836V172.132C277.836 170.652 278.162 169.505 278.816 168.692C279.456 167.878 280.349 167.472 281.496 167.472C282.256 167.472 282.909 167.665 283.456 168.052C284.002 168.438 284.402 168.972 284.656 169.652C284.882 168.852 285.282 168.232 285.856 167.792C286.416 167.338 287.129 167.112 287.996 167.112C289.249 167.112 290.222 167.538 290.916 168.392C291.596 169.232 291.936 170.405 291.936 171.912V178.292ZM283.816 175.832V172.572C283.816 170.825 283.142 169.952 281.796 169.952C280.449 169.952 279.776 170.825 279.776 172.572V175.832H283.816ZM289.996 175.832V172.232C289.996 170.472 289.289 169.592 287.876 169.592C286.462 169.592 285.756 170.472 285.756 172.232V175.832H289.996ZM291.936 164.482H277.836V162.342L287.056 157.342L277.836 152.362V150.262H291.936V152.582H282.436L289.796 156.622V158.122L282.476 162.162H291.936V164.482Z" fill="black"/>
<path d="M286.938 333.151C285.471 333.151 284.211 332.858 283.158 332.271C282.118 331.671 281.318 330.831 280.758 329.751C280.198 328.658 279.918 327.371 279.918 325.891C279.918 324.411 280.198 323.131 280.758 322.051C281.318 320.971 282.118 320.138 283.158 319.551C284.211 318.951 285.471 318.651 286.938 318.651C287.885 318.651 288.778 318.798 289.618 319.091C290.471 319.385 291.171 319.805 291.718 320.351L290.878 322.391C290.278 321.885 289.665 321.518 289.038 321.291C288.411 321.051 287.738 320.931 287.018 320.931C285.591 320.931 284.505 321.365 283.758 322.231C283.011 323.085 282.638 324.305 282.638 325.891C282.638 327.478 283.011 328.705 283.758 329.571C284.505 330.438 285.591 330.871 287.018 330.871C287.738 330.871 288.411 330.758 289.038 330.531C289.665 330.291 290.278 329.918 290.878 329.411L291.718 331.451C291.171 331.985 290.471 332.405 289.618 332.711C288.778 333.005 287.885 333.151 286.938 333.151Z" fill="black"/>
<path d="M411.729 409.927L418.779 397.716L424.114 400.796C425.395 401.536 426.225 402.392 426.603 403.365C426.987 404.326 426.893 405.303 426.319 406.296C425.939 406.954 425.445 407.423 424.837 407.703C424.229 407.983 423.567 408.063 422.851 407.942C423.431 408.539 423.768 409.195 423.862 409.912C423.975 410.623 423.814 411.354 423.381 412.105C422.754 413.19 421.898 413.82 420.813 413.994C419.745 414.163 418.559 413.87 417.254 413.117L411.729 409.927ZM417.919 404.125L420.743 405.755C422.255 406.628 423.348 406.482 424.022 405.316C424.695 404.149 424.275 403.13 422.763 402.256L419.939 400.626L417.919 404.125ZM414.829 409.477L417.947 411.277C419.471 412.157 420.587 411.985 421.293 410.761C422 409.537 421.591 408.485 420.067 407.605L416.949 405.805L414.829 409.477ZM423.654 416.812L430.704 404.601L438.827 409.291L437.807 411.058L431.814 407.598L429.874 410.958L435.486 414.198L434.466 415.964L428.854 412.724L426.804 416.275L432.797 419.735L431.777 421.502L423.654 416.812ZM437.544 425.063C436.655 424.549 435.985 423.924 435.533 423.186C435.089 422.436 434.881 421.623 434.909 420.747C434.938 419.87 435.212 418.982 435.732 418.081C436.252 417.18 436.878 416.51 437.609 416.07C438.347 415.619 439.145 415.41 440.003 415.443C440.868 415.465 441.745 415.733 442.634 416.246C443.177 416.56 443.664 416.956 444.095 417.436C444.526 417.916 444.825 418.412 444.992 418.924L443.481 420.061C443.334 419.622 443.11 419.223 442.809 418.864C442.519 418.512 442.201 418.236 441.855 418.036C441.104 417.603 440.385 417.503 439.696 417.737C439.025 417.965 438.439 418.512 437.939 419.378C437.446 420.233 437.258 421.025 437.376 421.755C437.511 422.48 437.954 423.059 438.705 423.492C439.04 423.686 439.438 423.823 439.899 423.905C440.36 423.986 440.82 423.975 441.281 423.871L441.042 425.765C440.522 425.865 439.937 425.851 439.288 425.723C438.657 425.589 438.076 425.369 437.544 425.063Z" fill="black"/>
</svg>
