<svg width="301" height="301" viewBox="0 0 301 301" fill="none" xmlns="http://www.w3.org/2000/svg">
<path d="M263.446 162.169C263.446 177.17 260.452 192.024 254.635 205.883C248.817 219.742 240.29 232.335 229.541 242.942C218.792 253.549 206.03 261.964 191.986 267.704C177.941 273.445 162.888 276.399 147.686 276.399C132.484 276.399 117.431 273.445 103.387 267.704C89.3419 261.964 76.5805 253.549 65.8312 242.942C55.0819 232.335 46.555 219.742 40.7375 205.883C34.92 192.024 31.9258 177.17 31.9258 162.169C31.9258 131.873 44.1219 102.818 65.8312 81.3958C87.5405 59.9734 116.985 47.9385 147.686 47.9385C178.388 47.9385 207.832 59.9734 229.541 81.3958C251.25 102.818 263.446 131.873 263.446 162.169Z" fill="#9DA3C8"/>
<path d="M70.5253 158.149H220.37C244.188 158.149 263.362 177.323 263.362 201.141V212.517C263.362 236.335 244.188 255.509 220.37 255.509H70.5253C46.7077 255.509 27.5332 236.335 27.5332 212.517V201.141C27.5332 177.323 46.7077 158.149 70.5253 158.149Z" fill="#A9AECF"/>
<path d="M27.8451 197.814H263.05C263.223 197.814 263.362 197.953 263.362 198.126V255.197C263.362 255.37 263.223 255.509 263.05 255.509H27.8451C27.6723 255.509 27.5332 255.37 27.5332 255.197V198.126C27.5332 197.953 27.6723 197.814 27.8451 197.814Z" fill="#3BA1D9"/>
<path d="M97.5304 75.033C95.5528 75.033 93.9607 76.625 93.9607 78.6027C93.9607 80.5803 95.5528 82.1724 97.5304 82.1724H108.749C110.727 82.1724 112.319 80.5803 112.319 78.6027C112.319 76.625 110.727 75.033 108.749 75.033H97.5304ZM102.375 89.3118C96.3005 89.3118 91.411 94.202 91.411 100.276C91.411 106.35 96.3005 111.24 102.375 111.24H105.767C101.964 114.599 99.5705 119.513 99.5705 125.009C99.5705 127.35 100.008 129.583 100.8 131.639H36.2619C34.7525 136.991 33.6407 142.445 32.9355 147.957H110.226C109.93 149.269 109.769 150.633 109.769 152.037V162.235C109.769 172.406 117.957 180.594 128.128 180.594H261.794C262.849 174.507 263.402 168.345 263.448 162.169C263.418 152.554 262.159 142.981 259.699 133.678H250.968C251.005 133.258 251.028 132.833 251.028 132.403C251.028 124.634 244.773 118.38 237.004 118.38H207.936C200.167 118.38 193.912 124.634 193.912 132.403C193.912 132.833 193.934 133.258 193.972 133.678H174.923C176.301 131.098 177.084 128.149 177.084 125.009C177.084 114.838 168.896 106.651 158.725 106.651H135.782C137.063 104.856 137.817 102.658 137.817 100.276C137.817 94.202 132.927 89.3118 126.853 89.3118H102.375ZM74.5825 117.36C72.0399 117.36 69.9928 119.406 69.9928 121.949C69.9928 124.491 72.0399 126.538 74.5825 126.538H81.7219C84.2646 126.538 86.311 124.491 86.311 121.949C86.311 119.406 84.2646 117.36 81.7219 117.36H74.5825Z" fill="#AEB3D2"/>
<path d="M125.576 187.734C134.617 187.734 141.895 195.012 141.895 204.053V213.232C141.895 222.272 134.617 229.55 125.576 229.55C116.536 229.55 109.258 222.272 109.258 213.232V204.053C109.258 195.012 116.536 187.734 125.576 187.734Z" fill="#CE8F4B"/>
<path d="M157.194 180.084H159.743C168.784 180.084 176.062 187.363 176.062 196.403V213.742C176.062 222.782 168.784 230.06 159.743 230.06H157.194C148.153 230.06 140.875 222.782 140.875 213.742V196.403C140.875 187.363 148.153 180.084 157.194 180.084Z" fill="#CE8F4B"/>
<path d="M47.0581 191.638C54.9686 191.638 61.3369 198.007 61.3369 205.917V216.116C61.3369 224.027 54.9686 230.395 47.0581 230.395C39.1476 230.395 32.7793 224.027 32.7793 216.116V205.917C32.7793 198.007 39.1476 191.638 47.0581 191.638Z" fill="#D59F65" fill-opacity="0.996078"/>
<path d="M74.4624 191.638C82.3729 191.638 88.7412 198.007 88.7412 205.917V216.116C88.7412 224.027 82.3729 230.395 74.4624 230.395C66.5519 230.395 60.1836 224.027 60.1836 216.116V205.917C60.1836 198.007 66.5519 191.638 74.4624 191.638Z" fill="#D59F65" fill-opacity="0.996078"/>
<path d="M102.23 191.638C110.14 191.638 116.509 198.007 116.509 205.917V216.116C116.509 224.027 110.14 230.395 102.23 230.395C94.3195 230.395 87.9512 224.027 87.9512 216.116V205.917C87.9512 198.007 94.3195 191.638 102.23 191.638Z" fill="#D59F65" fill-opacity="0.996078"/>
<path d="M180.305 136.865H216.316C218.524 136.865 220.302 138.643 220.302 140.852V141.421C220.302 143.629 218.524 145.407 216.316 145.407H180.305C178.096 145.407 176.318 143.629 176.318 141.421V140.852C176.318 138.643 178.096 136.865 180.305 136.865Z" fill="#CE8F4B"/>
<path d="M237.674 144.387H253.669C255.878 144.387 257.656 146.165 257.656 148.373V167.174C257.656 169.382 255.878 171.16 253.669 171.16H237.674C235.465 171.16 233.688 169.382 233.688 167.174V148.373C233.688 146.165 235.465 144.387 237.674 144.387Z" fill="#B98044"/>
<path d="M153.328 176.515H169.727C171.4 176.515 172.747 177.861 172.747 179.534V211.742C172.747 213.415 171.4 214.761 169.727 214.761H153.328C151.655 214.761 150.309 213.415 150.309 211.742V179.534C150.309 177.861 151.655 176.515 153.328 176.515Z" fill="#B98044"/>
<path d="M164.08 143.367H234.964C235.953 143.367 236.749 144.163 236.749 145.152V178.3C236.749 179.288 235.953 180.084 234.964 180.084H164.08C163.091 180.084 162.295 179.288 162.295 178.3V145.152C162.295 144.163 163.091 143.367 164.08 143.367Z" fill="#CE8F4B"/>
<path d="M167.466 162.476H254.132C259.046 162.476 263.002 166.432 263.002 171.346V225.004C263.002 229.918 259.046 233.874 254.132 233.874H167.466C162.552 233.874 158.596 229.918 158.596 225.004V171.346C158.596 166.432 162.552 162.476 167.466 162.476Z" fill="#D59F65" fill-opacity="0.996078"/>
<path d="M167.14 157.391C166.152 157.391 165.355 158.187 165.355 159.176V164.785C165.355 165.774 166.152 166.57 167.14 166.57H178.614C179.603 166.57 180.399 165.774 180.399 164.785V159.176C180.399 158.187 179.603 157.391 178.614 157.391H167.14ZM191.108 157.391C190.119 157.391 189.323 158.187 189.323 159.176V164.785C189.323 165.774 190.119 166.57 191.108 166.57H202.582C203.571 166.57 204.367 165.774 204.367 164.785V159.176C204.367 158.187 203.571 157.391 202.582 157.391H191.108ZM215.076 157.391C214.087 157.391 213.291 158.187 213.291 159.176V164.785C213.291 165.774 214.087 166.57 215.076 166.57H226.551C227.54 166.57 228.336 165.774 228.336 164.785V159.176C228.336 158.187 227.54 157.391 226.551 157.391H215.076ZM239.045 157.391C238.056 157.391 237.26 158.187 237.26 159.176V164.785C237.26 165.774 238.056 166.57 239.045 166.57H250.519C251.507 166.57 252.304 165.774 252.304 164.785V159.176C252.304 158.187 251.507 157.391 250.519 157.391H239.045Z" fill="#D59F65"/>
<path d="M174.533 204.562H251.537C260.012 204.562 266.835 211.385 266.835 219.861C266.835 228.336 260.012 235.16 251.537 235.16H174.533C166.058 235.16 159.234 228.336 159.234 219.861C159.234 211.385 166.058 204.562 174.533 204.562Z" fill="#CE8F4B"/>
<path d="M52.9873 215.844H242.386C256.645 215.844 268.125 227.324 268.125 241.583V246.357C268.125 260.617 256.645 272.097 242.386 272.097H52.9873C38.7278 272.097 27.248 260.617 27.248 246.357V241.583C27.248 227.324 38.7278 215.844 52.9873 215.844Z" fill="#EFA532"/>
<path d="M57.0493 259.237H238.324C247.018 259.237 254.018 266.237 254.018 274.931C254.018 283.625 247.018 290.625 238.324 290.625H57.0493C48.3549 290.625 41.3555 283.625 41.3555 274.931C41.3555 266.237 48.3549 259.237 57.0493 259.237Z" fill="#9B6B50" fill-opacity="0.996078"/>
<path d="M53.263 255.668H242.11C248.707 255.668 254.018 261.775 254.018 269.36C254.018 276.946 248.707 283.053 242.11 283.053H53.263C46.6662 283.053 41.3555 276.946 41.3555 269.36C41.3555 261.775 46.6662 255.668 53.263 255.668Z" fill="#F2B85B" fill-opacity="0.996078"/>
<path d="M93.7132 264.711H205.091C208.656 264.711 211.525 267.58 211.525 271.145C211.525 274.709 208.656 277.579 205.091 277.579H93.7132C90.1488 277.579 87.2793 274.709 87.2793 271.145C87.2793 267.58 90.1488 264.711 93.7132 264.711Z" fill="#EE9F21"/>
<path d="M102.106 267.516H196.696C198.706 267.516 200.325 269.134 200.325 271.145C200.325 273.155 198.706 274.774 196.696 274.774H102.106C100.095 274.774 98.4766 273.155 98.4766 271.145C98.4766 269.134 100.095 267.516 102.106 267.516Z" fill="#CE8F4B"/>
<path d="M58.6445 222.156H70.1185C72.1667 222.156 73.8157 223.805 73.8157 225.853C73.8157 227.901 72.1667 229.55 70.1185 229.55H58.6445C56.5962 229.55 54.9473 227.901 54.9473 225.853C54.9473 223.805 56.5962 222.156 58.6445 222.156Z" fill="#F2B75A"/>
<path d="M71.7348 234.054H77.937C79.0442 234.054 79.9355 234.945 79.9355 236.052C79.9355 237.159 79.0442 238.051 77.937 238.051H71.7348C70.6277 238.051 69.7363 237.159 69.7363 236.052C69.7363 234.945 70.6277 234.054 71.7348 234.054Z" fill="#F2B75A"/>
<path d="M227.766 223.238H239.24C241.288 223.238 242.937 224.886 242.937 226.935C242.937 228.983 241.288 230.632 239.24 230.632H227.766C225.717 230.632 224.068 228.983 224.068 226.935C224.068 224.886 225.717 223.238 227.766 223.238Z" fill="#E39112"/>
<path d="M240.856 235.135H247.058C248.165 235.135 249.057 236.027 249.057 237.134C249.057 238.241 248.165 239.132 247.058 239.132H240.856C239.749 239.132 238.857 238.241 238.857 237.134C238.857 236.027 239.749 235.135 240.856 235.135Z" fill="#E39112"/>
<path d="M45.7055 201.502H49.2752C50.2287 201.502 50.9963 202.27 50.9963 203.224V205.518C50.9963 206.472 50.2287 207.239 49.2752 207.239H45.7055C44.752 207.239 43.9844 206.472 43.9844 205.518V203.224C43.9844 202.27 44.752 201.502 45.7055 201.502Z" fill="#CE8F4B"/>
<path d="M72.3891 201.502H75.9588C76.9123 201.502 77.6799 202.27 77.6799 203.224V205.518C77.6799 206.472 76.9123 207.239 75.9588 207.239H72.3891C71.4356 207.239 70.668 206.472 70.668 205.518V203.224C70.668 202.27 71.4356 201.502 72.3891 201.502Z" fill="#CE8F4B"/>
<path d="M101.057 200.781H104.627C105.58 200.781 106.348 201.549 106.348 202.502V204.797C106.348 205.751 105.58 206.518 104.627 206.518H101.057C100.104 206.518 99.3359 205.751 99.3359 204.797V202.502C99.3359 201.549 100.104 200.781 101.057 200.781Z" fill="#CE8F4B"/>
<path d="M107.044 212.599H168.345C173.04 212.599 176.819 216.378 176.819 221.073C176.819 225.767 173.04 229.547 168.345 229.547H107.044C102.35 229.547 98.5703 225.767 98.5703 221.073C98.5703 216.378 102.35 212.599 107.044 212.599Z" fill="#EFA532"/>
<path d="M174.663 173.398H186.278C187.825 173.398 189.07 174.643 189.07 176.19V179.764C189.07 181.31 187.825 182.556 186.278 182.556H174.663C173.116 182.556 171.871 181.31 171.871 179.764V176.19C171.871 174.643 173.116 173.398 174.663 173.398Z" fill="#D2995B"/>
<path d="M182.034 186.8H193.649C195.196 186.8 196.441 188.045 196.441 189.592V193.165C196.441 194.712 195.196 195.958 193.649 195.958H182.034C180.487 195.958 179.242 194.712 179.242 193.165V189.592C179.242 188.045 180.487 186.8 182.034 186.8Z" fill="#D2995B"/>
<path d="M205.71 173.174H217.325C218.872 173.174 220.117 174.42 220.117 175.966V179.54C220.117 181.087 218.872 182.332 217.325 182.332H205.71C204.163 182.332 202.918 181.087 202.918 179.54V175.966C202.918 174.42 204.163 173.174 205.71 173.174Z" fill="#D2995B"/>
<path d="M213.081 186.576H224.696C226.243 186.576 227.488 187.821 227.488 189.368V192.942C227.488 194.489 226.243 195.734 224.696 195.734H213.081C211.534 195.734 210.289 194.489 210.289 192.942V189.368C210.289 187.821 211.534 186.576 213.081 186.576Z" fill="#D2995B"/>
<path d="M231.62 174.068H243.235C244.782 174.068 246.027 175.313 246.027 176.86V180.434C246.027 181.98 244.782 183.226 243.235 183.226H231.62C230.073 183.226 228.828 181.98 228.828 180.434V176.86C228.828 175.313 230.073 174.068 231.62 174.068Z" fill="#D2995B"/>
<path d="M238.991 187.469H250.606C252.153 187.469 253.398 188.715 253.398 190.262V193.835C253.398 195.382 252.153 196.627 250.606 196.627H238.991C237.444 196.627 236.199 195.382 236.199 193.835V190.262C236.199 188.715 237.444 187.469 238.991 187.469Z" fill="#D2995B"/>
<path d="M165.769 137.435H168.124C170.332 137.435 172.11 139.213 172.11 141.421C172.11 143.629 170.332 145.407 168.124 145.407H165.769C163.561 145.407 161.783 143.629 161.783 141.421C161.783 139.213 163.561 137.435 165.769 137.435Z" fill="#CE8F4B"/>
<path d="M163.824 140.053H170.071C171.554 140.053 172.748 141.247 172.748 142.73C172.748 144.213 171.554 145.407 170.071 145.407H163.824C162.341 145.407 161.146 144.213 161.146 142.73C161.146 141.247 162.341 140.053 163.824 140.053Z" fill="#B98044"/>
<path d="M176.955 139.67H219.664C221.147 139.67 222.341 140.864 222.341 142.347V142.73C222.341 144.213 221.147 145.407 219.664 145.407H176.955C175.471 145.407 174.277 144.213 174.277 142.73V142.347C174.277 140.864 175.471 139.67 176.955 139.67Z" fill="#B98044"/>
<path d="M231.681 137.435H232.251C234.459 137.435 236.237 139.213 236.237 141.421C236.237 143.629 234.459 145.407 232.251 145.407H231.681C229.473 145.407 227.695 143.629 227.695 141.421C227.695 139.213 229.473 137.435 231.681 137.435Z" fill="#CE8F4B"/>
<path d="M228.843 140.053H235.09C236.573 140.053 237.768 141.247 237.768 142.73C237.768 144.213 236.573 145.407 235.09 145.407H228.843C227.36 145.407 226.166 144.213 226.166 142.73C226.166 141.247 227.36 140.053 228.843 140.053Z" fill="#B98044"/>
<path d="M164.558 147.331C165.158 147.331 165.64 147.814 165.64 148.413V149.585C165.64 150.184 165.158 150.667 164.558 150.667C163.959 150.667 163.477 150.184 163.477 149.585V148.413C163.477 147.814 163.959 147.331 164.558 147.331Z" fill="#B98044"/>
<path d="M168.752 147.331C169.351 147.331 169.833 147.814 169.833 148.413V149.585C169.833 150.184 169.351 150.667 168.752 150.667C168.152 150.667 167.67 150.184 167.67 149.585V148.413C167.67 147.814 168.152 147.331 168.752 147.331Z" fill="#B98044"/>
<path d="M178.892 147.331C179.492 147.331 179.974 147.814 179.974 148.413V149.585C179.974 150.184 179.492 150.667 178.892 150.667C178.293 150.667 177.811 150.184 177.811 149.585V148.413C177.811 147.814 178.293 147.331 178.892 147.331Z" fill="#B98044"/>
<path d="M183.084 147.331C183.683 147.331 184.166 147.814 184.166 148.413V149.585C184.166 150.184 183.683 150.667 183.084 150.667C182.484 150.667 182.002 150.184 182.002 149.585V148.413C182.002 147.814 182.484 147.331 183.084 147.331Z" fill="#B98044"/>
<path d="M188.359 147.331C188.958 147.331 189.441 147.814 189.441 148.413V149.585C189.441 150.184 188.958 150.667 188.359 150.667C187.76 150.667 187.277 150.184 187.277 149.585V148.413C187.277 147.814 187.76 147.331 188.359 147.331Z" fill="#B98044"/>
<path d="M192.551 147.331C193.15 147.331 193.632 147.814 193.632 148.413V149.585C193.632 150.184 193.15 150.667 192.551 150.667C191.951 150.667 191.469 150.184 191.469 149.585V148.413C191.469 147.814 191.951 147.331 192.551 147.331Z" fill="#B98044"/>
<path d="M199.627 147.331C200.226 147.331 200.708 147.814 200.708 148.413V149.585C200.708 150.184 200.226 150.667 199.627 150.667C199.027 150.667 198.545 150.184 198.545 149.585V148.413C198.545 147.814 199.027 147.331 199.627 147.331Z" fill="#B98044"/>
<path d="M203.818 147.331C204.417 147.331 204.9 147.814 204.9 148.413V149.585C204.9 150.184 204.417 150.667 203.818 150.667C203.219 150.667 202.736 150.184 202.736 149.585V148.413C202.736 147.814 203.219 147.331 203.818 147.331Z" fill="#B98044"/>
<path d="M210.084 147.331C210.683 147.331 211.166 147.814 211.166 148.413V149.585C211.166 150.184 210.683 150.667 210.084 150.667C209.484 150.667 209.002 150.184 209.002 149.585V148.413C209.002 147.814 209.484 147.331 210.084 147.331Z" fill="#B98044"/>
<path d="M214.275 147.331C214.874 147.331 215.357 147.814 215.357 148.413V149.585C215.357 150.184 214.874 150.667 214.275 150.667C213.676 150.667 213.193 150.184 213.193 149.585V148.413C213.193 147.814 213.676 147.331 214.275 147.331Z" fill="#B98044"/>
<path d="M230.187 147.331C230.787 147.331 231.269 147.814 231.269 148.413V149.585C231.269 150.184 230.787 150.667 230.187 150.667C229.588 150.667 229.105 150.184 229.105 149.585V148.413C229.105 147.814 229.588 147.331 230.187 147.331Z" fill="#B98044"/>
<path d="M234.379 147.331C234.978 147.331 235.46 147.814 235.46 148.413V149.585C235.46 150.184 234.978 150.667 234.379 150.667C233.779 150.667 233.297 150.184 233.297 149.585V148.413C233.297 147.814 233.779 147.331 234.379 147.331Z" fill="#B98044"/>
<path d="M105.242 106.945H121.469C125.564 106.945 128.861 110.241 128.861 114.337C128.861 118.432 125.564 121.729 121.469 121.729H105.242C101.147 121.729 97.8496 118.432 97.8496 114.337C97.8496 110.241 101.147 106.945 105.242 106.945Z" fill="#C2C6DD"/>
<path d="M88.6539 121.368H104.881C108.976 121.368 112.273 124.665 112.273 128.76C112.273 132.856 108.976 136.153 104.881 136.153H88.6539C84.5586 136.153 81.2617 132.856 81.2617 128.76C81.2617 124.665 84.5586 121.368 88.6539 121.368Z" fill="#C2C6DD"/>
<path d="M131.564 122.089H147.791C151.886 122.089 155.183 125.386 155.183 129.482C155.183 133.577 151.886 136.874 147.791 136.874H131.564C127.469 136.874 124.172 133.577 124.172 129.482C124.172 125.386 127.469 122.089 131.564 122.089Z" fill="#C2C6DD"/>
<path d="M54.3961 153.822H70.6228C74.7181 153.822 78.015 157.119 78.015 161.214C78.015 165.309 74.7181 168.606 70.6228 168.606H54.3961C50.3008 168.606 47.0039 165.309 47.0039 161.214C47.0039 157.119 50.3008 153.822 54.3961 153.822Z" fill="#C2C6DD"/>
<path d="M194.67 113.075H210.896C214.992 113.075 218.288 116.372 218.288 120.467C218.288 124.562 214.992 127.859 210.896 127.859H194.67C190.574 127.859 187.277 124.562 187.277 120.467C187.277 116.372 190.574 113.075 194.67 113.075Z" fill="#C2C6DD"/>
<path d="M146.844 159.17C163.495 159.17 176.9 172.047 176.9 188.043C176.9 204.039 163.495 216.916 146.844 216.916C130.192 216.916 116.787 204.039 116.787 188.043C116.787 172.047 130.192 159.17 146.844 159.17Z" fill="#A55326"/>
<path d="M146.843 180.616C160.163 180.616 170.887 193.622 170.887 209.777V230.845C170.887 247 160.163 260.005 146.843 260.005C133.522 260.005 122.799 247 122.799 230.845V209.777C122.799 193.622 133.522 180.616 146.843 180.616Z" fill="#A55326"/>
<path d="M146.843 151.957C161.879 151.957 173.983 159.688 173.983 169.292C173.983 178.896 161.879 186.627 146.843 186.627C131.808 186.627 119.703 178.896 119.703 169.292C119.703 159.688 131.808 151.957 146.843 151.957Z" fill="#B95D2B"/>
<path d="M121.862 179.762C123.646 173.995 121.009 168.057 115.973 166.499C110.936 164.942 105.407 168.354 103.624 174.121L94.6868 203.014C92.903 208.781 95.5397 214.719 100.576 216.277C105.612 217.835 111.141 214.423 112.925 208.655L121.862 179.762Z" fill="#B95D2B"/>
<path d="M144.926 202.014H148.761C157.933 202.014 165.317 209.229 165.317 218.191V229.878C165.317 238.839 157.933 246.054 148.761 246.054H144.926C135.754 246.054 128.369 238.839 128.369 229.878V218.191C128.369 209.229 135.754 202.014 144.926 202.014Z" fill="#B95D2B"/>
<path d="M130.204 156.516H163.486C172.099 156.516 179.033 164.025 179.033 173.351V183.498C179.033 192.825 172.099 200.334 163.486 200.334H130.204C121.59 200.334 114.656 192.825 114.656 183.498V173.351C114.656 164.025 121.59 156.516 130.204 156.516Z" fill="#B95D2B"/>
<path d="M172.119 179.762C170.335 173.995 172.972 168.057 178.008 166.5C183.044 164.942 188.573 168.354 190.357 174.121L199.294 203.014C201.077 208.782 198.441 214.72 193.404 216.277C188.368 217.835 182.839 214.423 181.055 208.656L172.119 179.762Z" fill="#B95D2B"/>
<path d="M116.802 157.84H177.457C184.043 157.84 189.345 163.434 189.345 170.382C189.345 177.331 184.043 182.925 177.457 182.925H116.802C110.216 182.925 104.914 177.331 104.914 170.382C104.914 163.434 110.216 157.84 116.802 157.84Z" fill="#C96D3B"/>
<path d="M127.3 156.516H166.39C173.394 156.516 179.033 162.622 179.033 170.207V178.458C179.033 186.043 173.394 192.149 166.39 192.149H127.3C120.295 192.149 114.656 186.043 114.656 178.458V170.207C114.656 162.622 120.295 156.516 127.3 156.516Z" fill="#C96D3B"/>
<path d="M154.835 178.538H161.651C163.614 178.538 165.195 179.936 165.195 181.672C165.195 183.409 163.614 184.806 161.651 184.806H154.835C152.872 184.806 151.291 183.409 151.291 181.672C151.291 179.936 152.872 178.538 154.835 178.538Z" fill="#CD7849"/>
<path d="M130.78 178.538H137.596C139.559 178.538 141.14 179.936 141.14 181.672C141.14 183.409 139.559 184.806 137.596 184.806H130.78C128.817 184.806 127.236 183.409 127.236 181.672C127.236 179.936 128.817 178.538 130.78 178.538Z" fill="#CD7849"/>
<path d="M146.843 129.356C153.81 129.356 159.419 136.456 159.419 145.276V151.807C159.419 160.627 153.81 167.727 146.843 167.727C139.876 167.727 134.268 160.627 134.268 151.807V145.276C134.268 136.456 139.876 129.356 146.843 129.356Z" fill="#C06635"/>
<path d="M125.689 191.483H128.171C129.164 191.483 129.963 192.286 129.963 193.283C129.963 194.28 129.164 195.083 128.171 195.083H125.689C124.696 195.083 123.896 194.28 123.896 193.283C123.896 192.286 124.696 191.483 125.689 191.483Z" fill="#A55326"/>
<path d="M166.257 191.483H168.739C169.732 191.483 170.532 192.286 170.532 193.283C170.532 194.28 169.732 195.083 168.739 195.083H166.257C165.264 195.083 164.465 194.28 164.465 193.283C164.465 192.286 165.264 191.483 166.257 191.483Z" fill="#A55326"/>
<path d="M144.438 130.644H149.249C154.789 130.644 159.248 135.103 159.248 140.643V144.745C159.248 150.284 154.789 154.744 149.249 154.744H144.438C138.899 154.744 134.439 150.284 134.439 144.745V140.643C134.439 135.103 138.899 130.644 144.438 130.644Z" fill="#B95D2B"/>
<path d="M116.943 159.327H118.447C122.473 159.327 125.715 162.569 125.715 166.595C125.715 170.621 122.473 173.863 118.447 173.863H116.943C112.917 173.863 109.676 170.621 109.676 166.595C109.676 162.569 112.917 159.327 116.943 159.327Z" fill="#CD7849"/>
<path d="M178.231 160.036H179.734C183.76 160.036 187.002 163.278 187.002 167.304C187.002 171.33 183.76 174.572 179.734 174.572H178.231C174.204 174.572 170.963 171.33 170.963 167.304C170.963 163.278 174.204 160.036 178.231 160.036Z" fill="#CD7849"/>
<path d="M116.088 161.769H118.343C119.593 161.769 120.598 162.775 120.598 164.024C120.598 165.274 119.593 166.28 118.343 166.28H116.088C114.838 166.28 113.832 165.274 113.832 164.024C113.832 162.775 114.838 161.769 116.088 161.769Z" fill="#D2865B"/>
<path d="M180.211 161.946H182.466C183.716 161.946 184.722 162.952 184.722 164.202C184.722 165.451 183.716 166.457 182.466 166.457H180.211C178.961 166.457 177.955 165.451 177.955 164.202C177.955 162.952 178.961 161.946 180.211 161.946Z" fill="#D2865B"/>
<path d="M129.342 121.274H165.054C169.15 121.274 172.447 124.571 172.447 128.667C172.447 132.762 169.15 136.06 165.054 136.06H129.342C125.246 136.06 121.949 132.762 121.949 128.667C121.949 124.571 125.246 121.274 129.342 121.274Z" fill="#C96D3B"/>
<path d="M129.603 123.153H164.795C167.849 123.153 170.308 125.612 170.308 128.667C170.308 131.721 167.849 134.18 164.795 134.18H129.603C126.549 134.18 124.09 131.721 124.09 128.667C124.09 125.612 126.549 123.153 129.603 123.153Z" fill="#B95D2B"/>
<path d="M142.215 100.494H152.18C160.462 100.494 167.13 107.417 167.13 116.017V131.557C167.13 140.157 160.462 149.937 152.18 149.937H142.215C133.933 149.937 127.266 140.157 127.266 131.557V116.017C127.266 107.417 133.933 100.494 142.215 100.494Z" fill="#C96D3B"/>
<path d="M141.081 132.617H153.243C154.562 132.617 155.624 137.039 155.624 142.532C155.624 148.025 154.562 152.447 153.243 152.447H141.081C139.761 152.447 138.699 148.025 138.699 142.532C138.699 137.039 139.761 132.617 141.081 132.617Z" fill="#C96D3B"/>
<path d="M135.645 158.8L142.416 162.055C143.172 162.418 143.488 163.319 143.125 164.075C142.762 164.831 141.861 165.147 141.105 164.784L134.334 161.529C133.578 161.165 133.262 160.264 133.625 159.509C133.989 158.753 134.89 158.437 135.645 158.8Z" fill="#B95D2B"/>
<path d="M157.251 158.8L150.48 162.055C149.724 162.418 149.408 163.319 149.772 164.075C150.135 164.831 151.036 165.147 151.792 164.784L158.563 161.529C159.319 161.165 159.635 160.264 159.271 159.509C158.908 158.753 158.007 158.437 157.251 158.8Z" fill="#B95D2B"/>
<path d="M196.8 250.737L162.204 234.964C157.016 232.599 150.893 234.887 148.528 240.075C146.163 245.263 148.451 251.386 153.639 253.751L188.235 269.524C193.422 271.889 199.545 269.601 201.911 264.413C204.276 259.225 201.988 253.102 196.8 250.737Z" fill="#A55326"/>
<path d="M98.0928 250.737L132.688 234.964C137.876 232.599 143.999 234.887 146.365 240.075C148.73 245.263 146.442 251.386 141.254 253.751L106.658 269.524C101.47 271.889 95.3471 269.601 92.9819 264.413C90.6166 259.225 92.9049 253.102 98.0928 250.737Z" fill="#A55326"/>
<path d="M124.443 236.388C123.051 236.388 121.708 236.569 120.438 236.903C121.925 250.152 133.139 260.387 146.846 260.387C160.729 260.387 172.056 249.886 173.307 236.388C173.306 236.388 173.305 236.388 173.303 236.388H124.443Z" fill="#4F4F4F"/>
<path d="M121.689 233.885H171.665C172.76 233.885 173.641 234.575 173.641 235.43V237.823C173.641 238.679 172.76 239.368 171.665 239.368H121.689C120.594 239.368 119.713 238.679 119.713 237.823V235.43C119.713 234.575 120.594 233.885 121.689 233.885Z" fill="#5B5B5B"/>
<path d="M104.258 251.105L141.985 246.379C147.642 245.67 152.803 249.682 153.512 255.339C154.221 260.997 150.209 266.158 144.551 266.866L106.825 271.593C101.167 272.301 96.0066 268.29 95.2978 262.632C94.5891 256.975 98.6008 251.814 104.258 251.105Z" fill="#B25929"/>
<path d="M153.44 247.008L170.587 236.878C175.176 234.166 181.094 235.689 183.806 240.278C186.517 244.867 184.995 250.786 180.405 253.497L163.258 263.627C158.669 266.338 152.751 264.816 150.04 260.227C147.328 255.637 148.851 249.719 153.44 247.008Z" fill="#B25929"/>
<path d="M193.453 250.939L143.16 244.248C137.765 243.53 132.809 247.322 132.091 252.718L131.914 254.05C131.196 259.445 134.988 264.401 140.384 265.119L190.676 271.81C196.072 272.528 201.027 268.736 201.745 263.34L201.923 262.009C202.64 256.613 198.848 251.657 193.453 250.939Z" fill="#B95D2B"/>
<path d="M141.913 244.713L124.767 234.583C120.177 231.872 114.259 233.394 111.548 237.983C108.837 242.573 110.359 248.491 114.948 251.202L132.095 261.332C136.684 264.044 142.603 262.521 145.314 257.932C148.025 253.343 146.503 247.425 141.913 244.713Z" fill="#B95D2A" fill-opacity="0.996078"/>
<path d="M108.084 221.232C109.646 215.976 107.192 210.609 102.602 209.245C98.0118 207.881 93.0247 211.036 91.4626 216.292L83.6366 242.623C82.0745 247.879 84.5289 253.246 89.1188 254.61C93.7087 255.974 98.6958 252.819 100.258 247.563L108.084 221.232Z" fill="#C96D3B"/>
<path d="M96.2802 250.098C96.2802 245.65 92.6747 242.045 88.227 242.045C83.7794 242.045 80.1738 245.65 80.1738 250.098V259.337C80.1738 263.785 83.7794 267.39 88.227 267.39C92.6747 267.39 96.2802 263.785 96.2802 259.337V250.098Z" fill="#C96D3B"/>
<path d="M92.486 256.042C89.9517 253.255 85.6379 253.05 82.8509 255.584C80.064 258.119 79.8592 262.432 82.3935 265.219L87.1967 270.501C89.731 273.288 94.0448 273.493 96.8318 270.959C99.6187 268.425 99.8235 264.111 97.2892 261.324L92.486 256.042Z" fill="#C96D3B"/>
<path d="M101.378 251.925C101.378 248.792 98.8378 246.252 95.7045 246.252C92.5713 246.252 90.0312 248.792 90.0312 251.925V258.299C90.0312 261.433 92.5713 263.973 95.7045 263.973C98.8378 263.973 101.378 261.433 101.378 258.299V251.925Z" fill="#CD7849"/>
<path d="M111.868 216.32C113.744 210.008 110.67 203.526 105.002 201.842C99.3347 200.158 93.2196 203.908 91.3438 210.22L87.7556 222.293C85.8798 228.604 88.9537 235.086 94.6213 236.77C100.289 238.455 106.404 234.704 108.28 228.393L111.868 216.32Z" fill="#C96D3B"/>
<path d="M185.899 221.232C184.336 215.976 186.791 210.609 191.381 209.245C195.971 207.881 200.958 211.036 202.52 216.292L210.346 242.623C211.908 247.879 209.453 253.246 204.864 254.61C200.274 255.974 195.287 252.819 193.725 247.563L185.899 221.232Z" fill="#C96D3B"/>
<path d="M197.702 250.098C197.702 245.65 201.308 242.045 205.755 242.045C210.203 242.045 213.809 245.65 213.809 250.098V259.337C213.809 263.785 210.203 267.39 205.755 267.39C201.308 267.39 197.702 263.785 197.702 259.337V250.098Z" fill="#C96D3B"/>
<path d="M201.496 256.042C204.031 253.255 208.345 253.05 211.131 255.584C213.918 258.119 214.123 262.432 211.589 265.219L206.786 270.501C204.251 273.288 199.938 273.493 197.151 270.959C194.364 268.425 194.159 264.111 196.693 261.324L201.496 256.042Z" fill="#C96D3B"/>
<path d="M192.605 251.925C192.605 248.792 195.145 246.252 198.278 246.252C201.411 246.252 203.951 248.792 203.951 251.925V258.299C203.951 261.433 201.411 263.973 198.278 263.973C195.145 263.973 192.605 261.433 192.605 258.299V251.925Z" fill="#CD7849"/>
<path d="M182.114 216.32C180.239 210.008 183.313 203.526 188.98 201.842C194.648 200.158 200.763 203.908 202.639 210.22L206.227 222.293C208.103 228.604 205.029 235.086 199.361 236.77C193.694 238.455 187.578 234.704 185.703 228.393L182.114 216.32Z" fill="#C96D3B"/>
<path d="M123.065 233.747L119.693 231.811C118.396 231.066 116.74 231.514 115.995 232.812C115.25 234.109 115.698 235.765 116.995 236.51L120.367 238.446C121.665 239.191 123.321 238.743 124.066 237.446C124.811 236.148 124.363 234.492 123.065 233.747Z" fill="#B95D2B"/>
<path d="M172.39 235.404L175.762 233.468C177.059 232.723 178.715 233.171 179.46 234.469C180.205 235.766 179.757 237.422 178.46 238.167L175.088 240.103C173.79 240.848 172.134 240.4 171.389 239.103C170.644 237.805 171.092 236.149 172.39 235.404Z" fill="#B25929"/>
<path d="M103.313 214.532C104.222 212.129 103.011 209.443 100.608 208.533C98.2043 207.623 95.5184 208.834 94.6086 211.238L92.1265 217.796C91.2167 220.199 92.4277 222.885 94.8313 223.795C97.2349 224.705 99.9209 223.494 100.831 221.09L103.313 214.532Z" fill="#CD7849"/>
<path d="M185.959 216.062C185.049 213.659 186.26 210.973 188.664 210.063C191.067 209.153 193.753 210.364 194.663 212.768L197.145 219.326C198.055 221.729 196.844 224.415 194.44 225.325C192.037 226.235 189.351 225.024 188.441 222.62L185.959 216.062Z" fill="#CD7849"/>
<path d="M148.565 228.084C148.565 227.133 147.795 226.363 146.844 226.363C145.894 226.363 145.123 227.133 145.123 228.084V229.231C145.123 230.182 145.894 230.952 146.844 230.952C147.795 230.952 148.565 230.182 148.565 229.231V228.084Z" fill="#A55326"/>
<path d="M146.374 188.35C147.641 188.35 148.661 189.842 148.661 191.694V198.181C148.661 200.034 147.641 201.526 146.374 201.526C145.108 201.526 144.088 200.034 144.088 198.181V191.694C144.088 189.842 145.108 188.35 146.374 188.35Z" fill="#A55326"/>
<path d="M146.374 198.677C147.641 198.677 148.661 198.999 148.661 199.4V200.802C148.661 201.203 147.641 201.526 146.374 201.526C145.108 201.526 144.088 201.203 144.088 200.802V199.4C144.088 198.999 145.108 198.677 146.374 198.677Z" fill="#A55326"/>
<path d="M145.201 146.333H148.156C148.393 146.333 148.583 146.524 148.583 146.761V147.013C148.583 147.25 148.393 147.441 148.156 147.441H145.201C144.964 147.441 144.773 147.25 144.773 147.013V146.761C144.773 146.524 144.964 146.333 145.201 146.333Z" fill="#B95D2B"/>
<path d="M147.2 126.635C148.77 126.635 150.035 127.984 150.035 129.661V135.001C150.035 136.677 148.77 138.027 147.2 138.027C145.629 138.027 144.365 136.677 144.365 135.001V129.661C144.365 127.984 145.629 126.635 147.2 126.635Z" fill="#B95D2B"/>
<path d="M140.976 141.022C140.848 141.019 140.721 141.052 140.611 141.119C140.501 141.185 140.412 141.282 140.355 141.397C140.298 141.512 140.275 141.641 140.289 141.769C140.303 141.897 140.353 142.018 140.433 142.118C141.33 143.276 142.626 144.036 144.078 144.036H147.084H150.091C151.542 144.036 152.838 143.276 153.735 142.118C153.79 142.048 153.83 141.968 153.853 141.882C153.876 141.797 153.883 141.708 153.872 141.62C153.86 141.532 153.832 141.447 153.788 141.37C153.744 141.293 153.685 141.225 153.615 141.171C153.545 141.116 153.465 141.076 153.38 141.053C153.294 141.03 153.205 141.023 153.117 141.035C153.029 141.046 152.944 141.074 152.867 141.118C152.79 141.162 152.722 141.221 152.668 141.291C151.976 142.185 151.075 142.687 150.091 142.687H147.084H144.078C143.093 142.687 142.19 142.185 141.498 141.291C141.437 141.209 141.358 141.143 141.268 141.097C141.177 141.05 141.078 141.025 140.976 141.022Z" fill="#B95D2B"/>
<path d="M144.456 132.727H150.046C150.895 132.727 151.578 133.411 151.578 134.26C151.578 135.109 150.895 135.792 150.046 135.792H144.456C143.607 135.792 142.924 135.109 142.924 134.26C142.924 133.411 143.607 132.727 144.456 132.727Z" fill="#B95D2B"/>
<path d="M139.202 124.165H140.923C142.265 124.165 143.345 125.245 143.345 126.587C143.345 127.929 142.265 129.009 140.923 129.009H139.202C137.86 129.009 136.779 127.929 136.779 126.587C136.779 125.245 137.86 124.165 139.202 124.165Z" fill="#B95D2B"/>
<path d="M140.907 122.648L134.555 123.037C134.485 123.041 134.417 123.054 134.351 123.069C134.172 123.089 133.995 123.145 133.835 123.252L132.067 124.429C131.532 124.785 131.388 125.5 131.744 126.035C132.099 126.569 132.815 126.713 133.349 126.358L134.6 125.526C134.636 125.526 134.671 125.532 134.708 125.53L141.059 125.142C141.749 125.099 142.271 124.509 142.229 123.818C142.187 123.128 141.597 122.605 140.907 122.648Z" fill="#4D4D4D"/>
<path d="M136.572 127.306C136.023 127.306 135.526 127.569 135.144 127.941C134.762 128.313 134.463 128.801 134.217 129.372C134.18 129.453 134.159 129.542 134.157 129.631C134.154 129.721 134.169 129.81 134.202 129.894C134.234 129.977 134.282 130.054 134.345 130.118C134.407 130.183 134.481 130.234 134.563 130.27C134.646 130.306 134.734 130.324 134.824 130.325C134.914 130.326 135.002 130.309 135.085 130.275C135.168 130.242 135.244 130.192 135.307 130.128C135.371 130.065 135.421 129.99 135.455 129.907C135.652 129.452 135.882 129.108 136.088 128.908C136.293 128.708 136.442 128.655 136.572 128.655H138.251H139.927C140.057 128.655 140.209 128.708 140.414 128.908C140.62 129.108 140.847 129.452 141.044 129.907C141.078 129.99 141.128 130.065 141.192 130.128C141.255 130.192 141.331 130.242 141.414 130.275C141.497 130.309 141.586 130.326 141.675 130.325C141.765 130.324 141.853 130.305 141.936 130.27C142.018 130.234 142.092 130.183 142.155 130.118C142.217 130.054 142.265 129.977 142.298 129.894C142.33 129.81 142.345 129.721 142.343 129.631C142.34 129.542 142.32 129.453 142.283 129.372C142.036 128.801 141.737 128.313 141.355 127.941C140.973 127.569 140.476 127.306 139.927 127.306H138.251H136.572Z" fill="#4D4D4D"/>
<path d="M155.3 124.165H153.579C152.237 124.165 151.157 125.245 151.157 126.587C151.157 127.929 152.237 129.009 153.579 129.009H155.3C156.642 129.009 157.723 127.929 157.723 126.587C157.723 125.245 156.642 124.165 155.3 124.165Z" fill="#B95D2B"/>
<path d="M153.595 122.647L159.947 123.036C160.017 123.041 160.085 123.054 160.151 123.069C160.33 123.089 160.507 123.145 160.667 123.252L162.435 124.429C162.97 124.784 163.114 125.5 162.758 126.034C162.403 126.569 161.687 126.713 161.152 126.357L159.902 125.525C159.866 125.526 159.831 125.532 159.794 125.53L153.443 125.141C152.753 125.099 152.231 124.509 152.273 123.818C152.315 123.127 152.905 122.605 153.595 122.647Z" fill="#4D4D4D"/>
<path d="M157.93 127.306C158.479 127.306 158.976 127.568 159.358 127.941C159.74 128.313 160.039 128.801 160.285 129.372C160.322 129.453 160.343 129.541 160.345 129.631C160.348 129.721 160.333 129.81 160.3 129.893C160.268 129.977 160.22 130.053 160.157 130.118C160.095 130.183 160.021 130.234 159.939 130.27C159.856 130.305 159.768 130.324 159.678 130.325C159.588 130.326 159.5 130.309 159.417 130.275C159.333 130.241 159.258 130.191 159.195 130.128C159.131 130.065 159.081 129.989 159.047 129.907C158.85 129.451 158.62 129.108 158.414 128.908C158.209 128.707 158.06 128.655 157.93 128.655H156.251H154.575C154.445 128.655 154.293 128.707 154.088 128.908C153.882 129.108 153.655 129.451 153.458 129.907C153.424 129.989 153.374 130.065 153.31 130.128C153.247 130.191 153.171 130.241 153.088 130.275C153.005 130.309 152.916 130.326 152.827 130.325C152.737 130.324 152.648 130.305 152.566 130.27C152.484 130.234 152.41 130.183 152.347 130.118C152.285 130.053 152.237 129.977 152.204 129.893C152.172 129.81 152.157 129.721 152.159 129.631C152.162 129.541 152.182 129.453 152.219 129.372C152.466 128.801 152.765 128.313 153.147 127.941C153.529 127.568 154.026 127.306 154.575 127.306H156.251H157.93Z" fill="#4D4D4D"/>
<path d="M147.199 113.446C147.199 113.446 148.326 117.926 148.326 119.892C148.326 120.516 147.823 121.019 147.199 121.019C146.575 121.019 146.072 120.516 146.072 119.892C146.324 118.573 147.199 113.446 147.199 113.446Z" fill="#B82418" fill-opacity="0.996078"/>
<path d="M143.562 135.505C137.406 136.169 132.643 141.353 132.643 147.692C132.643 154.484 138.111 159.952 144.903 159.952H149.23C156.022 159.952 161.49 154.484 161.49 147.692C161.49 141.459 156.884 136.344 150.877 135.544C150.636 135.7 150.35 135.792 150.041 135.792H149.931C149.606 137.082 148.509 138.027 147.196 138.027C145.883 138.027 144.786 137.082 144.462 135.792H144.453C144.119 135.792 143.813 135.684 143.562 135.505ZM144.069 138.542H150.064C153.897 138.542 156.983 141.628 156.983 145.461C156.983 149.294 153.897 152.38 150.064 152.38H144.069C140.236 152.38 137.15 149.294 137.15 145.461C137.15 141.628 140.236 138.542 144.069 138.542Z" fill="#4D4D4D"/>
<path d="M143.169 83.1929C140.626 83.1929 138.579 85.2399 138.579 87.7826C138.579 88.4006 138.702 88.9884 138.921 89.5256C136.493 90.3589 134.754 92.6503 134.754 95.3682C134.754 98.7937 137.512 101.551 140.937 101.551H154.706C158.131 101.551 160.889 98.7937 160.889 95.3682C160.889 92.6503 159.15 90.3589 156.722 89.5256C156.942 88.9884 157.065 88.4006 157.065 87.7826C157.065 85.2399 155.017 83.1929 152.475 83.1929H143.169Z" fill="#484848"/>
<path d="M138.738 99.0117C130.29 99.0117 123.488 105.813 123.488 114.261V122.706C123.488 125.453 124.211 128.023 125.472 130.244C125.448 130.548 125.432 130.853 125.432 131.163V154.124C125.432 158.967 128.372 163.097 132.572 164.838V165.006C132.572 173.454 146.978 180.255 146.978 180.255C146.978 180.255 161.384 173.454 161.384 165.006V164.838C165.584 163.097 168.524 158.967 168.524 154.124V131.163C168.524 131.081 168.519 131 168.517 130.919C170.029 128.551 170.907 125.736 170.907 122.706V114.261C170.907 105.813 164.106 99.0117 155.657 99.0117H138.738ZM142.215 106.263H152.18C160.462 106.263 167.763 112.154 167.13 119.409L165.983 132.57C165.499 138.118 162.305 144.29 157.084 146.876C157.253 147.373 157.97 147.907 157.97 148.467C157.97 151.045 155.895 153.121 153.317 153.121H141.078C138.5 153.121 136.425 151.045 136.425 148.467C136.425 147.907 137.142 147.373 137.311 146.876C132.09 144.29 128.896 138.118 128.412 132.57L127.265 119.409C126.632 112.154 133.933 106.263 142.215 106.263Z" fill="#4D4D4D"/>
<path d="M143.981 100.87C141.132 100.87 138.838 103.164 138.838 106.013C138.838 106.101 138.847 106.187 138.851 106.273C139.401 106.137 139.967 106.067 140.535 106.064C142.092 106.066 143.601 106.573 144.809 107.5C146.017 108.428 146.85 109.718 147.17 111.156H147.22C147.539 109.718 148.373 108.427 149.582 107.499C150.791 106.572 152.3 106.065 153.858 106.064C154.426 106.066 154.992 106.135 155.542 106.27C155.546 106.184 155.554 106.1 155.554 106.013C155.554 103.164 153.26 100.87 150.411 100.87H143.981Z" fill="#4D4D4D"/>
<path d="M160.826 97.2087H133.962C133.116 97.2087 132.43 97.8949 132.43 98.7413C132.43 99.5877 133.116 100.274 133.962 100.274H160.826C161.673 100.274 162.359 99.5877 162.359 98.7413C162.359 97.8949 161.673 97.2087 160.826 97.2087Z" fill="#634726" fill-opacity="0.996078"/>
<path d="M148.906 150.922C148.906 150.094 148.235 149.424 147.408 149.424C146.581 149.424 145.91 150.094 145.91 150.922V153.599C145.91 154.426 146.581 155.097 147.408 155.097C148.235 155.097 148.906 154.426 148.906 153.599V150.922Z" fill="#4D4D4D"/>
<path d="M149.355 77.8347C149.232 77.8318 149.111 77.8624 149.005 77.9232C148.898 77.984 148.81 78.0727 148.75 78.1797C148.691 78.2868 148.661 78.4081 148.665 78.5307C148.669 78.6533 148.706 78.7725 148.773 78.8755C148.773 78.8755 149.317 79.7719 149.392 80.7913C149.43 81.3009 149.356 81.8156 149.068 82.2985C148.78 82.7814 148.264 83.2636 147.287 83.6609C147.204 83.6943 147.13 83.7435 147.066 83.8058C147.003 83.8681 146.953 83.9423 146.918 84.024C146.884 84.1057 146.866 84.1935 146.865 84.2822C146.865 84.3709 146.882 84.4589 146.915 84.5411C146.948 84.6233 146.998 84.6981 147.06 84.7612C147.122 84.8244 147.196 84.8746 147.278 84.9091C147.36 84.9436 147.448 84.9617 147.536 84.9623C147.625 84.9629 147.713 84.946 147.795 84.9126C148.981 84.4307 149.772 83.7527 150.227 82.9889C150.683 82.2252 150.791 81.4067 150.739 80.6938C150.633 79.2679 149.914 78.1588 149.914 78.1588C149.855 78.0623 149.773 77.9821 149.676 77.9255C149.578 77.8689 149.468 77.8377 149.355 77.8347Z" fill="#484848"/>
<path d="M122.562 131.619C121.872 136.658 123.27 146.642 121.962 152.77C120.313 153.252 119.09 154.851 118.997 156.795C118.129 156.85 117.346 157.238 116.746 157.841C116.765 157.841 116.783 157.84 116.802 157.84H121.852C123.5 156.991 125.345 156.516 127.298 156.516H127.883C127.825 155.973 127.679 155.461 127.461 154.997V135.819C125.252 135.244 123.455 133.677 122.562 131.619V131.619ZM171.752 131.789C170.798 133.841 168.938 135.378 166.675 135.881V154.997C166.456 155.462 166.31 155.973 166.253 156.516H166.388C168.34 156.516 170.186 156.991 171.834 157.84H177.389C176.789 157.237 176.005 156.85 175.138 156.795C175.045 154.851 173.823 153.252 172.173 152.77C169.839 147.404 171.542 135.991 171.752 131.789Z" fill="#484848"/>
<path d="M168.291 155.464C167.896 155.47 167.581 155.785 167.587 156.167V196.188C167.587 208.859 158.2 218.97 146.616 218.97C135.031 218.97 125.645 208.859 125.645 196.188V156.558C125.658 155.623 124.201 155.623 124.215 156.558V196.188C124.215 209.523 134.173 220.353 146.616 220.353C159.059 220.353 169.017 209.523 169.017 196.188V156.167C169.024 155.776 168.694 155.458 168.291 155.464Z" fill="#9B3519" fill-opacity="0.996078"/>
<path d="M146.616 218.143C145.917 218.143 145.354 218.848 145.354 219.723V220.786C144.891 221.13 144.588 221.676 144.588 222.3C144.588 223.347 145.431 224.19 146.479 224.19H146.754C147.801 224.19 148.645 223.347 148.645 222.3C148.645 221.676 148.342 221.13 147.879 220.786V219.723C147.879 218.848 147.315 218.143 146.616 218.143Z" fill="#9B3519" fill-opacity="0.996078"/>
<path d="M131.101 168.065C131.101 168.35 131.048 168.631 130.946 168.894C130.843 169.157 130.693 169.396 130.504 169.598C130.314 169.799 130.089 169.958 129.842 170.067C129.594 170.176 129.329 170.232 129.061 170.232C128.793 170.232 128.528 170.176 128.281 170.067C128.033 169.958 127.808 169.799 127.619 169.598C127.43 169.396 127.279 169.157 127.177 168.894C127.074 168.631 127.021 168.35 127.021 168.065C127.021 167.78 127.074 167.499 127.177 167.236C127.279 166.973 127.43 166.734 127.619 166.533C127.808 166.331 128.033 166.172 128.281 166.063C128.528 165.954 128.793 165.898 129.061 165.898C129.329 165.898 129.594 165.954 129.842 166.063C130.089 166.172 130.314 166.331 130.504 166.533C130.693 166.734 130.843 166.973 130.946 167.236C131.048 167.499 131.101 167.78 131.101 168.065Z" fill="#9B3519" fill-opacity="0.996078"/>
<path d="M131.328 172.077C131.328 172.361 131.275 172.643 131.172 172.906C131.07 173.169 130.92 173.408 130.73 173.609C130.541 173.811 130.316 173.97 130.068 174.079C129.821 174.188 129.556 174.244 129.288 174.244C129.02 174.244 128.755 174.188 128.507 174.079C128.26 173.97 128.035 173.811 127.845 173.609C127.656 173.408 127.506 173.169 127.403 172.906C127.301 172.643 127.248 172.361 127.248 172.077C127.248 171.792 127.301 171.51 127.403 171.247C127.506 170.984 127.656 170.745 127.845 170.544C128.035 170.343 128.26 170.183 128.507 170.074C128.755 169.965 129.02 169.909 129.288 169.909C129.556 169.909 129.821 169.965 130.068 170.074C130.316 170.183 130.541 170.343 130.73 170.544C130.92 170.745 131.07 170.984 131.172 171.247C131.275 171.51 131.328 171.792 131.328 172.077Z" fill="#9B3519" fill-opacity="0.996078"/>
<path d="M132.273 175.998C132.273 176.283 132.22 176.565 132.118 176.828C132.015 177.09 131.865 177.329 131.676 177.531C131.486 177.732 131.261 177.892 131.014 178C130.766 178.109 130.501 178.165 130.233 178.165C129.965 178.165 129.7 178.109 129.453 178C129.205 177.892 128.98 177.732 128.791 177.531C128.601 177.329 128.451 177.09 128.349 176.828C128.246 176.565 128.193 176.283 128.193 175.998C128.193 175.714 128.246 175.432 128.349 175.169C128.451 174.906 128.601 174.667 128.791 174.466C128.98 174.264 129.205 174.105 129.453 173.996C129.7 173.887 129.965 173.831 130.233 173.831C130.501 173.831 130.766 173.887 131.014 173.996C131.261 174.105 131.486 174.264 131.676 174.466C131.865 174.667 132.015 174.906 132.118 175.169C132.22 175.432 132.273 175.714 132.273 175.998Z" fill="#9B3519" fill-opacity="0.996078"/>
<path d="M134.798 178.973C134.798 179.258 134.746 179.539 134.643 179.802C134.541 180.065 134.39 180.304 134.201 180.506C134.012 180.707 133.787 180.866 133.539 180.975C133.292 181.084 133.026 181.14 132.759 181.14C132.491 181.14 132.225 181.084 131.978 180.975C131.73 180.866 131.506 180.707 131.316 180.506C131.127 180.304 130.977 180.065 130.874 179.802C130.772 179.539 130.719 179.258 130.719 178.973C130.719 178.688 130.772 178.407 130.874 178.144C130.977 177.881 131.127 177.642 131.316 177.44C131.506 177.239 131.73 177.08 131.978 176.971C132.225 176.862 132.491 176.806 132.759 176.806C133.026 176.806 133.292 176.862 133.539 176.971C133.787 177.08 134.012 177.239 134.201 177.44C134.39 177.642 134.541 177.881 134.643 178.144C134.746 178.407 134.798 178.688 134.798 178.973Z" fill="#9B3519" fill-opacity="0.996078"/>
<path d="M137.773 181.317C137.773 181.602 137.72 181.883 137.618 182.146C137.515 182.409 137.365 182.648 137.176 182.85C136.986 183.051 136.761 183.21 136.514 183.319C136.266 183.428 136.001 183.484 135.733 183.484C135.465 183.484 135.2 183.428 134.953 183.319C134.705 183.21 134.48 183.051 134.291 182.85C134.101 182.648 133.951 182.409 133.849 182.146C133.746 181.883 133.693 181.602 133.693 181.317C133.693 181.032 133.746 180.751 133.849 180.488C133.951 180.225 134.101 179.986 134.291 179.784C134.48 179.583 134.705 179.424 134.953 179.315C135.2 179.206 135.465 179.15 135.733 179.15C136.001 179.15 136.266 179.206 136.514 179.315C136.761 179.424 136.986 179.583 137.176 179.784C137.365 179.986 137.515 180.225 137.618 180.488C137.72 180.751 137.773 181.032 137.773 181.317Z" fill="#9B3519" fill-opacity="0.996078"/>
<path d="M141.379 182.218C141.379 182.503 141.326 182.785 141.223 183.048C141.121 183.311 140.97 183.55 140.781 183.751C140.592 183.952 140.367 184.112 140.119 184.221C139.872 184.33 139.607 184.386 139.339 184.386C139.071 184.386 138.806 184.33 138.558 184.221C138.311 184.112 138.086 183.952 137.896 183.751C137.707 183.55 137.557 183.311 137.454 183.048C137.352 182.785 137.299 182.503 137.299 182.218C137.299 181.934 137.352 181.652 137.454 181.389C137.557 181.126 137.707 180.887 137.896 180.686C138.086 180.485 138.311 180.325 138.558 180.216C138.806 180.107 139.071 180.051 139.339 180.051C139.607 180.051 139.872 180.107 140.119 180.216C140.367 180.325 140.592 180.485 140.781 180.686C140.97 180.887 141.121 181.126 141.223 181.389C141.326 181.652 141.379 181.934 141.379 182.218Z" fill="#9B3519" fill-opacity="0.996078"/>
<path d="M130.877 163.963C130.877 164.248 130.824 164.53 130.721 164.793C130.619 165.056 130.468 165.294 130.279 165.496C130.09 165.697 129.865 165.857 129.617 165.966C129.37 166.074 129.105 166.131 128.837 166.131C128.569 166.131 128.304 166.074 128.056 165.966C127.809 165.857 127.584 165.697 127.394 165.496C127.205 165.294 127.055 165.056 126.952 164.793C126.85 164.53 126.797 164.248 126.797 163.963C126.797 163.679 126.85 163.397 126.952 163.134C127.055 162.871 127.205 162.632 127.394 162.431C127.584 162.229 127.809 162.07 128.056 161.961C128.304 161.852 128.569 161.796 128.837 161.796C129.105 161.796 129.37 161.852 129.617 161.961C129.865 162.07 130.09 162.229 130.279 162.431C130.468 162.632 130.619 162.871 130.721 163.134C130.824 163.397 130.877 163.679 130.877 163.963Z" fill="#9B3519" fill-opacity="0.996078"/>
<path d="M145.267 183.251C145.267 183.536 145.214 183.818 145.112 184.08C145.009 184.343 144.859 184.582 144.67 184.784C144.48 184.985 144.255 185.144 144.008 185.253C143.76 185.362 143.495 185.418 143.227 185.418C142.959 185.418 142.694 185.362 142.447 185.253C142.199 185.144 141.974 184.985 141.785 184.784C141.596 184.582 141.445 184.343 141.343 184.08C141.24 183.818 141.187 183.536 141.188 183.251C141.187 182.966 141.24 182.685 141.343 182.422C141.445 182.159 141.596 181.92 141.785 181.719C141.974 181.517 142.199 181.358 142.447 181.249C142.694 181.14 142.959 181.084 143.227 181.084C143.495 181.084 143.76 181.14 144.008 181.249C144.255 181.358 144.48 181.517 144.67 181.719C144.859 181.92 145.009 182.159 145.112 182.422C145.214 182.685 145.267 182.966 145.267 183.251Z" fill="#9B3519" fill-opacity="0.996078"/>
<path d="M148.837 183.965C148.837 184.25 148.785 184.531 148.682 184.794C148.58 185.057 148.429 185.296 148.24 185.497C148.051 185.699 147.826 185.858 147.578 185.967C147.331 186.076 147.066 186.132 146.798 186.132C146.53 186.132 146.265 186.076 146.017 185.967C145.77 185.858 145.545 185.699 145.355 185.497C145.166 185.296 145.016 185.057 144.913 184.794C144.811 184.531 144.758 184.25 144.758 183.965C144.758 183.68 144.811 183.398 144.913 183.136C145.016 182.873 145.166 182.634 145.355 182.432C145.545 182.231 145.77 182.071 146.017 181.963C146.265 181.854 146.53 181.798 146.798 181.798C147.066 181.798 147.331 181.854 147.578 181.963C147.826 182.071 148.051 182.231 148.24 182.432C148.429 182.634 148.58 182.873 148.682 183.136C148.785 183.398 148.837 183.68 148.837 183.965Z" fill="#9B3519" fill-opacity="0.996078"/>
<path d="M162.127 168.065C162.127 168.35 162.18 168.631 162.283 168.894C162.385 169.157 162.535 169.396 162.725 169.598C162.914 169.799 163.139 169.958 163.387 170.067C163.634 170.176 163.899 170.232 164.167 170.232C164.435 170.232 164.7 170.176 164.948 170.067C165.195 169.958 165.42 169.799 165.61 169.598C165.799 169.396 165.949 169.157 166.052 168.894C166.154 168.631 166.207 168.35 166.207 168.065C166.207 167.78 166.154 167.499 166.052 167.236C165.949 166.973 165.799 166.734 165.61 166.533C165.42 166.331 165.195 166.172 164.948 166.063C164.7 165.954 164.435 165.898 164.167 165.898C163.899 165.898 163.634 165.954 163.387 166.063C163.139 166.172 162.914 166.331 162.725 166.533C162.535 166.734 162.385 166.973 162.283 167.236C162.18 167.499 162.127 167.78 162.127 168.065Z" fill="#9B3519" fill-opacity="0.996078"/>
<path d="M161.901 172.077C161.901 172.361 161.954 172.643 162.056 172.906C162.159 173.169 162.309 173.408 162.498 173.609C162.688 173.811 162.913 173.97 163.16 174.079C163.408 174.188 163.673 174.244 163.941 174.244C164.209 174.244 164.474 174.188 164.721 174.079C164.969 173.97 165.194 173.811 165.383 173.609C165.572 173.408 165.723 173.169 165.825 172.906C165.928 172.643 165.98 172.361 165.98 172.077C165.98 171.792 165.928 171.51 165.825 171.247C165.723 170.984 165.572 170.745 165.383 170.544C165.194 170.343 164.969 170.183 164.721 170.074C164.474 169.965 164.209 169.909 163.941 169.909C163.673 169.909 163.408 169.965 163.16 170.074C162.913 170.183 162.688 170.343 162.498 170.544C162.309 170.745 162.159 170.984 162.056 171.247C161.954 171.51 161.901 171.792 161.901 172.077Z" fill="#9B3519" fill-opacity="0.996078"/>
<path d="M160.955 175.998C160.955 176.283 161.008 176.565 161.111 176.828C161.213 177.09 161.364 177.329 161.553 177.531C161.742 177.732 161.967 177.892 162.215 178C162.462 178.109 162.727 178.165 162.995 178.165C163.263 178.165 163.528 178.109 163.776 178C164.023 177.892 164.248 177.732 164.438 177.531C164.627 177.329 164.777 177.09 164.88 176.828C164.982 176.565 165.035 176.283 165.035 175.998C165.035 175.714 164.982 175.432 164.88 175.169C164.777 174.906 164.627 174.667 164.438 174.466C164.248 174.264 164.023 174.105 163.776 173.996C163.528 173.887 163.263 173.831 162.995 173.831C162.727 173.831 162.462 173.887 162.215 173.996C161.967 174.105 161.742 174.264 161.553 174.466C161.364 174.667 161.213 174.906 161.111 175.169C161.008 175.432 160.955 175.714 160.955 175.998Z" fill="#9B3519" fill-opacity="0.996078"/>
<path d="M158.43 178.973C158.43 179.258 158.483 179.539 158.585 179.802C158.688 180.065 158.838 180.304 159.028 180.506C159.217 180.707 159.442 180.866 159.689 180.975C159.937 181.084 160.202 181.14 160.47 181.14C160.738 181.14 161.003 181.084 161.251 180.975C161.498 180.866 161.723 180.707 161.912 180.506C162.102 180.304 162.252 180.065 162.354 179.802C162.457 179.539 162.51 179.258 162.51 178.973C162.51 178.688 162.457 178.407 162.354 178.144C162.252 177.881 162.102 177.642 161.912 177.44C161.723 177.239 161.498 177.08 161.251 176.971C161.003 176.862 160.738 176.806 160.47 176.806C160.202 176.806 159.937 176.862 159.689 176.971C159.442 177.08 159.217 177.239 159.028 177.44C158.838 177.642 158.688 177.881 158.585 178.144C158.483 178.407 158.43 178.688 158.43 178.973Z" fill="#9B3519" fill-opacity="0.996078"/>
<path d="M155.455 181.317C155.455 181.602 155.508 181.883 155.611 182.146C155.713 182.409 155.864 182.648 156.053 182.85C156.242 183.051 156.467 183.21 156.715 183.319C156.962 183.428 157.227 183.484 157.495 183.484C157.763 183.484 158.028 183.428 158.276 183.319C158.523 183.21 158.748 183.051 158.938 182.85C159.127 182.648 159.277 182.409 159.38 182.146C159.482 181.883 159.535 181.602 159.535 181.317C159.535 181.032 159.482 180.751 159.38 180.488C159.277 180.225 159.127 179.986 158.938 179.784C158.748 179.583 158.523 179.424 158.276 179.315C158.028 179.206 157.763 179.15 157.495 179.15C157.227 179.15 156.962 179.206 156.715 179.315C156.467 179.424 156.242 179.583 156.053 179.784C155.864 179.986 155.713 180.225 155.611 180.488C155.508 180.751 155.455 181.032 155.455 181.317Z" fill="#9B3519" fill-opacity="0.996078"/>
<path d="M151.85 182.218C151.85 182.503 151.903 182.785 152.005 183.048C152.108 183.311 152.258 183.55 152.447 183.751C152.637 183.952 152.862 184.112 153.109 184.221C153.357 184.33 153.622 184.386 153.89 184.386C154.158 184.386 154.423 184.33 154.67 184.221C154.918 184.112 155.143 183.952 155.332 183.751C155.522 183.55 155.672 183.311 155.774 183.048C155.877 182.785 155.93 182.503 155.93 182.218C155.93 181.934 155.877 181.652 155.774 181.389C155.672 181.126 155.522 180.887 155.332 180.686C155.143 180.485 154.918 180.325 154.67 180.216C154.423 180.107 154.158 180.051 153.89 180.051C153.622 180.051 153.357 180.107 153.109 180.216C152.862 180.325 152.637 180.485 152.447 180.686C152.258 180.887 152.108 181.126 152.005 181.389C151.903 181.652 151.85 181.934 151.85 182.218Z" fill="#9B3519" fill-opacity="0.996078"/>
<path d="M162.352 163.963C162.352 164.248 162.405 164.53 162.507 164.793C162.61 165.056 162.76 165.294 162.949 165.496C163.139 165.697 163.364 165.857 163.611 165.966C163.859 166.074 164.124 166.131 164.392 166.131C164.66 166.131 164.925 166.074 165.172 165.966C165.42 165.857 165.645 165.697 165.834 165.496C166.024 165.294 166.174 165.056 166.276 164.793C166.379 164.53 166.432 164.248 166.432 163.963C166.432 163.679 166.379 163.397 166.276 163.134C166.174 162.871 166.024 162.632 165.834 162.431C165.645 162.229 165.42 162.07 165.172 161.961C164.925 161.852 164.66 161.796 164.392 161.796C164.124 161.796 163.859 161.852 163.611 161.961C163.364 162.07 163.139 162.229 162.949 162.431C162.76 162.632 162.61 162.871 162.507 163.134C162.405 163.397 162.352 163.679 162.352 163.963Z" fill="#9B3519" fill-opacity="0.996078"/>
<path d="M147.961 183.251C147.961 183.536 148.014 183.818 148.117 184.08C148.219 184.343 148.369 184.582 148.559 184.784C148.748 184.985 148.973 185.144 149.221 185.253C149.468 185.362 149.733 185.418 150.001 185.418C150.269 185.418 150.534 185.362 150.782 185.253C151.029 185.144 151.254 184.985 151.444 184.784C151.633 184.582 151.783 184.343 151.886 184.08C151.988 183.818 152.041 183.536 152.041 183.251C152.041 182.966 151.988 182.685 151.886 182.422C151.783 182.159 151.633 181.92 151.444 181.719C151.254 181.517 151.029 181.358 150.782 181.249C150.534 181.14 150.269 181.084 150.001 181.084C149.733 181.084 149.468 181.14 149.221 181.249C148.973 181.358 148.748 181.517 148.559 181.719C148.369 181.92 148.219 182.159 148.117 182.422C148.014 182.685 147.961 182.966 147.961 183.251Z" fill="#9B3519" fill-opacity="0.996078"/>
<path d="M157.075 247.144H156.031C151.391 247.144 147.629 250.906 147.629 255.547V268.896C147.629 273.537 151.391 277.299 156.031 277.299H157.075C161.715 277.299 165.477 273.537 165.477 268.896V255.547C165.477 250.906 161.715 247.144 157.075 247.144Z" fill="#9B3519" fill-opacity="0.996078"/>
<path d="M113.351 239.283C107.273 239.283 102.148 243.202 100.344 248.66C100.409 248.753 100.47 248.849 100.53 248.946C100.554 248.986 100.579 249.025 100.602 249.065C100.656 249.158 100.708 249.252 100.757 249.348C100.782 249.396 100.804 249.445 100.827 249.494C100.87 249.586 100.915 249.678 100.954 249.772C101.009 249.906 101.058 250.042 101.103 250.181C101.104 250.183 101.104 250.185 101.104 250.187C101.125 250.252 101.142 250.32 101.161 250.387C101.189 250.488 101.216 250.589 101.239 250.692C101.253 250.757 101.266 250.823 101.278 250.889C101.299 251.002 101.316 251.116 101.33 251.23C101.336 251.285 101.345 251.339 101.35 251.395C101.366 251.569 101.376 251.746 101.376 251.925V258.299C101.376 258.478 101.365 258.654 101.349 258.828C101.346 258.867 101.342 258.905 101.337 258.944C101.318 259.116 101.294 259.286 101.259 259.453C103.562 263.766 108.102 266.688 113.351 266.688H186.371C189.866 266.688 193.044 265.391 195.46 263.253C195.463 263.246 195.465 263.238 195.468 263.231C193.968 262.378 192.898 260.865 192.653 259.08C192.618 258.825 192.6 258.564 192.6 258.299V251.925C192.6 250.55 193.085 249.292 193.893 248.312C193.985 248.2 194.086 248.097 194.186 247.993C193.623 246.331 192.314 242.458 191.657 240.338C190.032 239.66 188.248 239.283 186.371 239.283H113.351Z" fill="#EF5125"/>
<path d="M168.504 233.153H124.729C120.088 233.153 116.326 236.915 116.326 241.555V249.271C116.326 253.911 120.088 257.673 124.729 257.673H168.504C173.144 257.673 176.906 253.911 176.906 249.271V241.555C176.906 236.915 173.144 233.153 168.504 233.153Z" fill="#EB4B25" fill-opacity="0.996569"/>
<path d="M139.035 234.78L121.526 229.259C119.545 228.634 117.433 229.734 116.808 231.715C116.184 233.696 117.283 235.808 119.264 236.433L136.773 241.954C138.754 242.578 140.866 241.479 141.491 239.498C142.115 237.517 141.016 235.405 139.035 234.78Z" fill="#EB4B25"/>
<path d="M154.196 234.78L171.704 229.259C173.685 228.634 175.797 229.734 176.422 231.715C177.047 233.696 175.947 235.808 173.966 236.433L156.458 241.954C154.477 242.578 152.365 241.479 151.74 239.498C151.115 237.517 152.215 235.405 154.196 234.78Z" fill="#EB4B25"/>
<path d="M153.434 247.008L170.581 236.878C175.17 234.167 181.089 235.689 183.8 240.278C186.511 244.868 184.989 250.786 180.399 253.497L163.253 263.627C158.663 266.339 152.745 264.816 150.034 260.227C147.322 255.638 148.845 249.719 153.434 247.008Z" fill="#B25929"/>
<path d="M172.386 235.405L175.758 233.469C177.056 232.724 178.711 233.172 179.456 234.469C180.201 235.767 179.753 237.423 178.456 238.168L175.084 240.104C173.786 240.849 172.13 240.401 171.385 239.103C170.64 237.806 171.088 236.15 172.386 235.405Z" fill="#B25929"/>
<path d="M157.09 240.403C149.328 240.241 142.596 245.953 141.635 253.832C140.609 262.235 146.549 269.826 154.952 270.852L185.29 274.555C189.761 275.101 194.001 273.675 197.146 270.956C194.933 268.941 194.352 265.828 195.468 263.231C193.755 262.257 192.601 260.419 192.601 258.299V251.925C192.601 250.393 193.205 249.01 194.187 247.993C193.965 247.338 193.742 246.679 193.315 245.405C191.974 244.815 190.526 244.405 188.993 244.218L158.656 240.514C158.13 240.45 157.608 240.414 157.09 240.403Z" fill="#F46C21"/>
<path d="M104.986 248.117C103.427 248.117 101.971 248.54 100.722 249.274C101.139 250.065 101.377 250.966 101.377 251.925V258.299C101.377 260.42 100.223 262.258 98.5093 263.231C99.4521 265.425 99.1802 267.985 97.7402 269.942C99.1979 272.422 101.891 274.081 104.986 274.081H151.285C155.94 274.081 159.688 270.333 159.688 265.678V256.52C159.688 251.865 155.94 248.117 151.285 248.117H104.986Z" fill="#F46C21"/>
<path d="M123.899 245.044L118.401 242.078C114.838 240.156 110.391 241.486 108.469 245.049C106.546 248.612 107.877 253.059 111.44 254.982L116.938 257.948C120.501 259.87 124.948 258.54 126.87 254.976C128.792 251.413 127.462 246.966 123.899 245.044Z" fill="#EF5125"/>
<path d="M151.285 248.118H127.703C123.063 248.118 119.301 251.88 119.301 256.52V265.678C119.301 270.319 123.063 274.08 127.703 274.08H151.285C155.925 274.08 159.687 270.319 159.687 265.678V256.52C159.687 251.88 155.925 248.118 151.285 248.118Z" fill="#EF5125"/>
<path d="M155.589 247.008H144.807C140.166 247.008 136.404 250.77 136.404 255.41V270.222C136.404 274.863 140.166 278.625 144.807 278.625H155.589C160.229 278.625 163.991 274.863 163.991 270.222V255.41C163.991 250.77 160.229 247.008 155.589 247.008Z" fill="#F46C21"/>
<path d="M146.275 241.389H138.423C133.093 241.389 128.771 245.71 128.771 251.041V261.443C128.771 266.773 133.093 271.094 138.423 271.094H146.275C151.606 271.094 155.927 266.773 155.927 261.443V251.041C155.927 245.71 151.606 241.389 146.275 241.389Z" fill="#F46C21"/>
<path d="M141.912 244.713L124.765 234.583C120.175 231.872 114.257 233.394 111.546 237.984C108.835 242.573 110.357 248.491 114.946 251.203L132.093 261.333C136.682 264.044 142.601 262.522 145.312 257.932C148.023 253.343 146.501 247.425 141.912 244.713Z" fill="#B95D2A" fill-opacity="0.996078"/>
<path d="M126.541 231.105L121.253 229.033C120.047 228.561 118.687 229.155 118.215 230.36C117.743 231.566 118.337 232.925 119.543 233.398L124.831 235.47C126.036 235.942 127.396 235.348 127.868 234.142C128.34 232.937 127.746 231.577 126.541 231.105Z" fill="#F46C21"/>
<path d="M123.065 233.748L119.693 231.812C118.396 231.067 116.74 231.515 115.995 232.812C115.25 234.11 115.698 235.765 116.995 236.51L120.367 238.447C121.665 239.192 123.321 238.744 124.066 237.446C124.811 236.149 124.363 234.493 123.065 233.748Z" fill="#B95D2A" fill-opacity="0.996078"/>
<path d="M167.857 249.898L159.502 245.261C157.413 244.101 154.779 244.855 153.619 246.944C152.459 249.034 153.213 251.668 155.302 252.828L163.657 257.465C165.747 258.625 168.381 257.871 169.54 255.782C170.7 253.692 169.947 251.058 167.857 249.898Z" fill="#EF5125"/>
<path d="M180.249 258.931L175.081 256.062C173.788 255.345 172.159 255.811 171.441 257.104C170.724 258.396 171.19 260.026 172.483 260.743L177.651 263.612C178.943 264.329 180.572 263.863 181.29 262.57C182.007 261.278 181.541 259.649 180.249 258.931Z" fill="#EF5125"/>
<path d="M110.195 259.861C109.778 258.375 108.236 257.508 106.75 257.924C105.263 258.341 104.396 259.883 104.813 261.369L106.954 269.008C107.37 270.494 108.913 271.361 110.399 270.945C111.885 270.528 112.752 268.986 112.336 267.5L110.195 259.861Z" fill="#F78F56"/>
<path d="M188.48 244.086L172.488 242.573C171.226 242.454 170.106 243.38 169.987 244.642C169.868 245.904 170.794 247.023 172.056 247.143L188.048 248.655C189.31 248.775 190.429 247.849 190.549 246.587C190.668 245.325 189.742 244.205 188.48 244.086Z" fill="#F78F56"/>
<path d="M154.897 256.706H153.75C152.483 256.706 151.455 257.733 151.455 259.001V264.865C151.455 266.133 152.483 267.16 153.75 267.16H154.897C156.165 267.16 157.192 266.133 157.192 264.865V259.001C157.192 257.733 156.165 256.706 154.897 256.706Z" fill="#F78F56"/>
<path d="M152.475 270.347H149.543C148.557 270.347 147.758 271.147 147.758 272.132C147.758 273.118 148.557 273.917 149.543 273.917H152.475C153.461 273.917 154.26 273.118 154.26 272.132C154.26 271.147 153.461 270.347 152.475 270.347Z" fill="#F78F56"/>
<path d="M166.241 231.646L171.529 229.574C172.734 229.102 174.094 229.696 174.566 230.901C175.038 232.107 174.444 233.466 173.239 233.939L167.951 236.011C166.745 236.483 165.386 235.889 164.913 234.683C164.441 233.478 165.035 232.118 166.241 231.646Z" fill="#F46C21"/>
</svg>
