<svg width="811" height="803" viewBox="0 0 811 803" fill="none" xmlns="http://www.w3.org/2000/svg">
<path d="M733.47 442.488C733.47 484.511 725.082 526.122 708.785 564.947C692.488 603.771 668.602 639.047 638.489 668.762C608.376 698.477 572.627 722.048 533.283 738.129C493.939 754.211 451.77 762.488 409.184 762.488C366.598 762.488 324.43 754.211 285.085 738.129C245.741 722.048 209.992 698.477 179.88 668.762C149.767 639.047 125.88 603.771 109.583 564.947C93.2863 526.122 84.8984 484.511 84.8984 442.488C84.8984 357.619 119.064 276.225 179.88 216.214C240.695 156.202 323.178 122.488 409.184 122.488C495.19 122.488 577.673 156.202 638.489 216.214C699.304 276.225 733.47 357.619 733.47 442.488Z" fill="#94C4F0"/>
<path d="M130.168 372.679C73.646 372.679 28.1426 418.183 28.1426 474.705V606.023C28.1426 662.545 73.646 708.048 130.168 708.048C179.491 708.048 220.42 673.398 230.047 627.013C269.785 624.003 300.885 590.999 300.885 550.464V532.283C300.885 491.885 269.993 458.972 230.447 455.771C221.619 408.358 180.217 372.679 130.168 372.679Z" fill="url(#paint0_linear_2606_7276)"/>
<path d="M685.754 372.679C742.276 372.679 787.779 418.183 787.779 474.705V606.023C787.779 662.545 742.276 708.048 685.754 708.048C636.431 708.048 595.502 673.398 585.875 627.013C546.137 624.003 515.037 590.999 515.037 550.464V532.283C515.037 491.885 545.929 458.972 585.475 455.771C594.303 408.358 635.705 372.679 685.754 372.679Z" fill="url(#paint1_linear_2606_7276)"/>
<path d="M582.896 406.929C573.354 406.929 567.251 414.742 565.672 424.152L558.417 467.393C556.834 476.826 569.334 484.617 582.896 484.617C596.457 484.617 608.957 476.826 607.374 467.393L600.119 424.152C598.54 414.742 592.437 406.929 582.896 406.929Z" fill="#4694DA"/>
<path d="M613.502 434.204C607.31 434.204 603.35 439.274 602.326 445.38L597.617 473.44C596.59 479.561 604.702 484.617 613.502 484.617C622.302 484.617 630.414 479.561 629.387 473.44L624.679 445.38C623.654 439.274 619.694 434.204 613.502 434.204Z" fill="#4694DA"/>
<path d="M621.104 462.329H627.417C637.77 462.329 646.105 470.664 646.105 481.017C646.105 491.37 637.77 499.705 627.417 499.705H621.104C610.751 499.705 602.416 491.37 602.416 481.017C602.416 470.664 610.751 462.329 621.104 462.329Z" fill="#727534"/>
<path d="M642.569 476.724H652.923C660.058 476.724 665.802 482.468 665.802 489.603C665.802 496.738 660.058 502.483 652.923 502.483H642.569C635.434 502.483 629.689 496.738 629.689 489.603C629.689 482.468 635.434 476.724 642.569 476.724Z" fill="#727534"/>
<path d="M667.318 488.593C672.915 488.593 677.42 493.099 677.42 498.695V499.452C677.42 505.049 672.915 509.554 667.318 509.554C661.722 509.554 657.217 505.049 657.217 499.452V498.695C657.217 493.099 661.722 488.593 667.318 488.593Z" fill="#727534"/>
<path d="M257.392 485.11H249.936C237.71 485.11 227.867 494.953 227.867 507.179C227.867 519.406 237.71 529.248 249.936 529.248H257.392C269.619 529.248 279.462 519.406 279.462 507.179C279.462 494.953 269.619 485.11 257.392 485.11Z" fill="#727534"/>
<path d="M232.041 502.109H219.813C211.387 502.109 204.604 508.892 204.604 517.319C204.604 525.745 211.387 532.529 219.813 532.529H232.041C240.467 532.529 247.251 525.745 247.251 517.319C247.251 508.892 240.467 502.109 232.041 502.109Z" fill="#727534"/>
<path d="M202.814 516.126C196.205 516.126 190.885 521.446 190.885 528.055V528.95C190.885 535.559 196.205 540.879 202.814 540.879C209.423 540.879 214.743 535.559 214.743 528.95V528.055C214.743 521.446 209.423 516.126 202.814 516.126Z" fill="#727534"/>
<path d="M377.39 469.941C243.355 469.941 132.973 573.888 123.286 705.714C122.859 711.526 123.634 717.365 125.565 722.864C127.495 728.363 130.539 733.405 134.506 737.675C138.472 741.945 143.277 745.351 148.62 747.68C153.962 750.01 159.728 751.212 165.556 751.213H764.487C770.315 751.212 776.081 750.01 781.423 747.68C786.766 745.351 791.57 741.945 795.537 737.675C799.504 733.405 802.548 728.363 804.478 722.864C806.409 717.365 807.184 711.526 806.757 705.714C797.069 573.885 686.679 469.941 552.644 469.941H377.39Z" fill="url(#paint2_linear_2606_7276)"/>
<path d="M180.595 465.518C190.136 465.518 196.239 473.331 197.818 482.741L205.073 525.982C206.656 535.415 194.156 543.205 180.595 543.205C167.034 543.205 154.534 535.415 156.116 525.982L163.372 482.741C164.951 473.331 171.053 465.518 180.595 465.518Z" fill="#7D813E"/>
<path d="M149.99 492.792C156.182 492.792 160.142 497.863 161.167 503.969L165.875 532.029C166.902 538.15 158.791 543.206 149.99 543.206C141.19 543.206 133.079 538.15 134.106 532.029L138.814 503.969C139.838 497.863 143.799 492.792 149.99 492.792Z" fill="url(#paint3_linear_2606_7276)"/>
<path d="M177.878 533.863C96.9423 533.863 30.2896 596.63 24.4401 676.232C24.1819 679.741 24.6502 683.267 25.8159 686.587C26.9816 689.908 28.8195 692.953 31.2148 695.531C33.6102 698.109 36.5115 700.166 39.7375 701.573C42.9636 702.979 46.445 703.705 49.9643 703.706H411.623C415.142 703.705 418.623 702.979 421.849 701.573C425.075 700.166 427.977 698.109 430.372 695.531C432.767 692.953 434.605 689.908 435.771 686.587C436.937 683.267 437.405 679.741 437.147 676.232C431.297 596.628 364.639 533.863 283.703 533.863H177.878Z" fill="url(#paint4_linear_2606_7276)"/>
<path d="M83.7014 665.623H758.483C787.024 665.623 810.001 688.6 810.001 717.14C810.001 745.681 787.024 768.658 758.483 768.658H83.7014C55.1605 768.658 32.1836 745.681 32.1836 717.14C32.1836 688.6 55.1605 665.623 83.7014 665.623Z" fill="#9FA34F"/>
<path d="M283.281 611.611C220.168 611.611 168.193 660.556 163.632 722.629C163.431 725.366 163.796 728.115 164.705 730.704C165.614 733.293 167.047 735.668 168.915 737.678C170.783 739.689 173.045 741.292 175.561 742.389C178.076 743.486 180.791 744.052 183.535 744.053H465.552C468.296 744.052 471.011 743.486 473.527 742.389C476.042 741.292 478.305 739.689 480.172 737.678C482.04 735.668 483.474 733.293 484.382 730.704C485.291 728.115 485.657 725.366 485.455 722.629C480.894 660.555 428.915 611.611 365.802 611.611H283.281Z" fill="#9FA34F"/>
<path d="M574.89 554.758H568.577C558.223 554.758 549.889 563.093 549.889 573.446C549.889 583.799 558.223 592.134 568.577 592.134H574.89C585.243 592.134 593.578 583.799 593.578 573.446C593.578 563.093 585.243 554.758 574.89 554.758Z" fill="#727534"/>
<path d="M553.929 565.617H543.575C536.44 565.617 530.695 571.361 530.695 578.497C530.695 585.632 536.44 591.376 543.575 591.376H553.929C561.064 591.376 566.808 585.632 566.808 578.497C566.808 571.361 561.064 565.617 553.929 565.617Z" fill="#727534"/>
<path d="M526.654 573.951C521.058 573.951 516.553 578.456 516.553 584.053V584.81C516.553 590.407 521.058 594.912 526.654 594.912C532.25 594.912 536.756 590.407 536.756 584.81V584.053C536.756 578.456 532.25 573.951 526.654 573.951Z" fill="#727534"/>
<path d="M623.144 516.516C632.685 516.516 638.788 524.329 640.367 533.739L647.622 576.98C649.205 586.413 636.705 594.204 623.144 594.204C609.582 594.204 597.082 586.413 598.665 576.98L605.92 533.739C607.499 524.329 613.602 516.516 623.144 516.516Z" fill="url(#paint5_linear_2606_7276)"/>
<path d="M592.539 543.79C598.731 543.79 602.691 548.86 603.716 554.967L608.424 583.027C609.451 589.148 601.339 594.203 592.539 594.203C583.739 594.203 575.627 589.148 576.655 583.027L581.363 554.967C582.387 548.86 586.347 543.79 592.539 543.79Z" fill="url(#paint6_linear_2606_7276)"/>
<path d="M543.26 582.147C468.451 582.147 406.844 640.163 401.437 713.739C401.198 716.983 401.631 720.242 402.708 723.311C403.786 726.38 405.485 729.194 407.699 731.577C409.913 733.961 412.594 735.862 415.576 737.162C418.558 738.462 421.776 739.133 425.029 739.133H759.31C762.562 739.133 765.78 738.462 768.762 737.162C771.744 735.862 774.426 733.961 776.64 731.577C778.854 729.194 780.552 726.38 781.63 723.311C782.707 720.242 783.14 716.983 782.902 713.739C777.495 640.162 715.883 582.147 641.074 582.147H543.26Z" fill="#9FA34F"/>
<path d="M134.391 696.964H272.963C278.107 696.964 282.248 701.106 282.248 706.25C282.248 711.394 278.107 715.536 272.963 715.536H134.391C129.247 715.536 125.105 711.394 125.105 706.25C125.105 701.106 129.247 696.964 134.391 696.964Z" fill="#919548"/>
<path d="M228.428 503.4C230.291 503.877 231.239 506.416 230.553 509.093L217.394 560.441C216.708 563.118 214.656 564.888 212.793 564.411C210.93 563.933 209.982 561.394 210.668 558.718L223.826 507.369C224.512 504.692 226.565 502.922 228.428 503.4Z" fill="#999999"/>
<path d="M227.746 500.94C225.747 500.939 223.934 502.283 223.414 504.313L219.808 518.379C219.192 520.785 220.633 523.218 223.039 523.834L223.65 523.99C226.056 524.607 228.489 523.165 229.105 520.76L230.441 515.547L241.892 518.482C245.035 519.288 248.212 517.408 249.017 514.266L249.556 512.168C250.362 509.026 248.48 505.848 245.338 505.043L230.506 501.242C229.926 501.094 229.346 501.037 228.779 501.063C228.433 500.982 228.087 500.94 227.746 500.94Z" fill="url(#paint7_linear_2606_7276)"/>
<path d="M215.301 478.045C217.164 478.522 218.112 481.061 217.426 483.738L204.267 535.086C203.581 537.763 201.529 539.533 199.666 539.056C197.803 538.578 196.855 536.039 197.541 533.363L210.699 482.014C211.385 479.337 213.438 477.567 215.301 478.045Z" fill="#B3B3B3"/>
<path d="M214.621 475.586C212.622 475.586 210.807 476.927 210.287 478.957L206.684 493.023C206.067 495.429 207.506 497.862 209.912 498.479L210.523 498.635C212.929 499.251 215.362 497.812 215.978 495.406L216.34 494L226.186 496.521C230.217 497.555 234.295 495.141 235.328 491.109L236.018 488.418C237.051 484.386 234.637 480.308 230.605 479.275L218.986 476.299C218.286 476.119 217.583 476.041 216.896 476.061C216.721 475.992 216.54 475.934 216.353 475.886L215.742 475.73C215.366 475.634 214.991 475.586 214.621 475.586Z" fill="url(#paint8_linear_2606_7276)"/>
<path d="M185.681 521.772C176.287 521.77 167.766 528.079 165.322 537.618L147.284 608.004L140.947 606.379C136.342 605.199 131.683 607.956 130.503 612.561L117.396 663.711C116.216 668.316 118.973 672.975 123.577 674.155L134.238 676.887C136.745 682.612 141.766 687.158 148.316 688.836L177.331 696.272C184.727 698.167 192.177 695.927 197.257 690.985C199.472 689.93 201.215 687.935 201.874 685.362L202.968 681.096L211.441 648.038L213.513 648.569C216.088 649.229 218.693 647.687 219.353 645.112L229.634 604.993C230.294 602.418 228.752 599.813 226.177 599.153L224.103 598.622L235.15 555.514C238.047 544.209 231.279 532.775 219.974 529.877L190.958 522.442C189.192 521.989 187.421 521.772 185.681 521.772Z" fill="url(#paint9_linear_2606_7276)"/>
<path d="M131.53 674.485L193.667 690.409C196.107 691.034 197.567 693.501 196.942 695.941L194.435 705.726C193.809 708.165 191.342 709.626 188.903 709.001L126.766 693.077C124.326 692.452 122.866 689.985 123.491 687.546L125.999 677.76C126.624 675.321 129.091 673.86 131.53 674.485Z" fill="#494945"/>
<path d="M180.264 591.262L205.062 597.617C211.993 599.393 216.143 606.403 214.367 613.333L198.419 675.565C196.643 682.496 189.633 686.645 182.703 684.869L157.905 678.514C150.974 676.738 146.824 669.729 148.6 662.798L164.548 600.567C166.324 593.636 173.334 589.486 180.264 591.262Z" fill="#66675D"/>
<path d="M201.558 454.46C204.912 455.319 206.921 458.711 206.061 462.066L189.571 526.415C188.711 529.769 185.319 531.777 181.965 530.918C178.611 530.058 176.602 526.666 177.462 523.312L193.952 458.963C194.812 455.608 198.204 453.6 201.558 454.46Z" fill="url(#paint10_linear_2606_7276)"/>
<path d="M230.183 540.408L219.895 580.553C219.5 582.096 217.94 583.019 216.398 582.624L208.193 580.521C206.651 580.126 205.727 578.566 206.123 577.024L216.41 536.879C216.806 535.336 218.365 534.413 219.908 534.808L228.113 536.911C229.655 537.306 230.578 538.866 230.183 540.408Z" fill="#57584F"/>
<path d="M172.468 514.477L239.498 531.654C242.073 532.314 243.615 534.918 242.955 537.493L239.444 551.193C238.784 553.768 236.18 555.309 233.605 554.65L166.575 537.472C164 536.812 162.459 534.208 163.118 531.633L166.629 517.934C167.289 515.359 169.893 513.817 172.468 514.477Z" fill="#66675D"/>
<path d="M207.499 604.93C209.516 605.427 210.74 607.451 210.243 609.468L206.571 624.38C206.074 626.397 204.05 627.621 202.033 627.124C200.015 626.627 198.791 624.604 199.288 622.586L202.961 607.675C203.458 605.658 205.482 604.434 207.499 604.93Z" fill="#77786D"/>
<path d="M203.081 432.367C197.918 432.366 193.235 435.834 191.891 441.076L186.675 461.43C185.082 467.643 188.803 473.925 195.016 475.518L199.007 476.541C205.22 478.133 211.504 474.412 213.096 468.199L213.497 466.639L214.979 467.02C223.292 469.15 231.697 464.174 233.827 455.861C235.957 447.549 230.981 439.142 222.669 437.012L213.237 434.594C212.644 434.442 212.049 434.328 211.458 434.246C210.98 434.053 210.485 433.89 209.971 433.758L205.979 432.735C205.008 432.486 204.037 432.367 203.081 432.367Z" fill="url(#paint11_linear_2606_7276)"/>
<path d="M233.934 555.576C235.489 555.245 237.157 556.934 237.674 559.363L267.271 698.425C267.788 700.854 266.952 703.075 265.397 703.406C263.842 703.737 262.174 702.048 261.657 699.619L232.06 560.558C231.543 558.129 232.379 555.907 233.934 555.576Z" fill="white"/>
<path d="M262.113 690.538L263.62 690.262C266.001 689.826 268.27 691.393 268.706 693.775L269.796 699.734C270.232 702.115 268.665 704.384 266.284 704.819L264.777 705.095C262.396 705.531 260.128 703.964 259.692 701.583L258.601 695.624C258.165 693.242 259.732 690.974 262.113 690.538Z" fill="#66675D"/>
<path d="M155.276 720.472H663.091C687.447 720.472 707.054 738.728 707.054 761.405C707.054 784.082 687.447 802.339 663.091 802.339H155.276C130.92 802.339 111.312 784.082 111.312 761.405C111.312 738.728 130.92 720.472 155.276 720.472Z" fill="#919548"/>
<path d="M144.67 714.411H673.697C692.177 714.411 707.054 729.288 707.054 747.768C707.054 766.248 692.177 781.125 673.697 781.125H144.67C126.19 781.125 111.312 766.248 111.312 747.768C111.312 729.288 126.19 714.411 144.67 714.411Z" fill="#ADB254"/>
<path d="M285.336 729.744H651.207C662.916 729.744 672.342 737.783 672.342 747.768C672.342 757.753 662.916 765.792 651.207 765.792H285.336C273.627 765.792 264.201 757.753 264.201 747.768C264.201 737.783 273.627 729.744 285.336 729.744Z" fill="#919548"/>
<path d="M141.394 761.381C143.936 758.757 148.095 758.691 150.719 761.233L169.922 779.836C172.547 782.378 172.613 786.537 170.07 789.161C167.528 791.786 163.369 791.852 160.745 789.31L141.542 770.706C138.917 768.164 138.851 764.005 141.394 761.381Z" fill="#919548"/>
<path d="M188.525 760.633C191.149 763.175 191.216 767.335 188.673 769.959L170.07 789.162C167.528 791.786 163.369 791.852 160.745 789.31C158.12 786.768 158.054 782.609 160.597 779.985L179.2 760.781C181.742 758.157 185.901 758.091 188.525 760.633Z" fill="#919548"/>
<path d="M165.034 744.815C168.885 744.815 171.985 748.711 171.985 753.549V781.355C171.985 786.194 168.885 790.089 165.034 790.089C161.182 790.089 158.082 786.194 158.082 781.355V753.549C158.082 748.711 161.182 744.815 165.034 744.815Z" fill="#919548"/>
<path d="M626.561 623.297C626.561 631.067 620.335 638.518 609.253 644.012C598.17 649.505 583.14 652.592 567.467 652.592C551.794 652.592 536.764 649.505 525.681 644.012C514.599 638.518 508.373 631.067 508.373 623.297C508.373 619.45 509.902 615.641 512.871 612.087C515.841 608.533 520.194 605.303 525.681 602.583C531.169 599.863 537.683 597.705 544.853 596.233C552.022 594.761 559.707 594.003 567.467 594.003C575.227 594.003 582.912 594.761 590.081 596.233C597.251 597.705 603.765 599.863 609.253 602.583C614.74 605.303 619.093 608.533 622.063 612.087C625.032 615.641 626.561 619.45 626.561 623.297Z" fill="#D0C681"/>
<path d="M643.779 750.086C647.137 750.086 649.841 753.483 649.841 757.703V781.952C649.841 786.171 647.137 789.568 643.779 789.568C640.421 789.568 637.717 786.171 637.717 781.952V757.703C637.717 753.483 640.421 750.086 643.779 750.086Z" fill="#919548"/>
<path d="M623.165 764.533C625.382 762.244 629.009 762.187 631.297 764.403L648.044 780.627C650.332 782.844 650.39 786.471 648.173 788.759C645.956 791.048 642.329 791.105 640.04 788.888L623.294 772.665C621.005 770.448 620.948 766.821 623.165 764.533Z" fill="#919548"/>
<path d="M664.266 763.88C666.555 766.097 666.612 769.724 664.396 772.013L648.172 788.759C645.956 791.048 642.328 791.105 640.04 788.889C637.751 786.672 637.694 783.045 639.911 780.756L656.134 764.01C658.351 761.721 661.978 761.663 664.266 763.88Z" fill="#919548"/>
<path d="M485.247 421.026C486.038 421.026 486.675 421.664 486.675 422.455V497.455C486.675 498.246 486.038 498.884 485.247 498.884C484.455 498.884 483.818 498.246 483.818 497.455V422.455C483.818 421.664 484.455 421.026 485.247 421.026Z" fill="white"/>
<path d="M491.588 421.433C491.162 421.214 490.686 421.109 490.208 421.127C489.73 421.145 489.264 421.286 488.855 421.535C488.447 421.785 488.109 422.135 487.875 422.553C487.641 422.971 487.518 423.441 487.518 423.92V435.706C487.518 436.185 487.641 436.656 487.875 437.073C488.109 437.491 488.447 437.841 488.855 438.091C489.264 438.341 489.73 438.481 490.208 438.499C490.686 438.517 491.162 438.412 491.588 438.194L503.101 432.301C503.559 432.066 503.943 431.71 504.211 431.271C504.479 430.832 504.621 430.328 504.621 429.813C504.621 429.299 504.479 428.794 504.211 428.355C503.943 427.916 503.559 427.56 503.101 427.325L491.588 421.433Z" fill="#60A3DF"/>
<path d="M146.712 569.858C146.712 570.48 146.456 571.095 145.958 571.669C145.46 572.243 144.73 572.765 143.809 573.204C142.889 573.644 141.796 573.992 140.594 574.23C139.392 574.468 138.103 574.59 136.801 574.59C135.5 574.59 134.211 574.468 133.009 574.23C131.806 573.992 130.714 573.644 129.793 573.204C128.873 572.765 128.143 572.243 127.645 571.669C127.147 571.095 126.891 570.48 126.891 569.858C126.891 568.603 127.935 567.399 129.793 566.512C131.652 565.625 134.173 565.126 136.801 565.126C139.43 565.126 141.951 565.625 143.809 566.512C145.668 567.399 146.712 568.603 146.712 569.858Z" fill="#727534"/>
<path d="M127.57 438.724C128.916 438.724 130 439.807 130 441.153V568.7C130 570.045 128.916 571.129 127.57 571.129C126.224 571.129 125.141 570.045 125.141 568.7V441.153C125.141 439.807 126.224 438.724 127.57 438.724Z" fill="white"/>
<path d="M138.353 439.415C137.629 439.044 136.821 438.865 136.007 438.895C135.193 438.926 134.401 439.165 133.706 439.59C133.012 440.014 132.438 440.61 132.039 441.321C131.641 442.031 131.432 442.831 131.432 443.646V463.689C131.432 464.503 131.641 465.304 132.039 466.014C132.438 466.724 133.012 467.32 133.706 467.745C134.401 468.169 135.193 468.408 136.007 468.439C136.821 468.47 137.629 468.291 138.353 467.919L157.933 457.898C158.712 457.499 159.365 456.893 159.821 456.146C160.277 455.4 160.519 454.542 160.519 453.667C160.519 452.792 160.277 451.935 159.821 451.188C159.365 450.442 158.712 449.836 157.933 449.437L138.353 439.415Z" fill="#F08282"/>
<path d="M770.014 690.026H617.414C614.043 690.026 611.329 692.74 611.329 696.112C611.329 699.483 614.043 702.197 617.414 702.197H770.014C773.386 702.197 776.1 699.483 776.1 696.112C776.1 692.74 773.386 690.026 770.014 690.026Z" fill="#7D813E"/>
<path d="M617.363 588.556C616.259 588.556 615.369 589.446 615.369 590.55V605.364C615.369 606.469 616.259 607.358 617.363 607.358C618.468 607.358 619.357 606.469 619.357 605.364V590.55C619.357 589.446 618.468 588.556 617.363 588.556Z" fill="#484844"/>
<path d="M616.245 587.66H613.022C611.306 587.66 609.924 589.041 609.924 590.757C609.924 592.473 611.306 593.854 613.022 593.854H616.245C617.96 593.854 619.342 592.473 619.342 590.757C619.342 589.041 617.96 587.66 616.245 587.66Z" fill="#484844"/>
<path d="M612.725 586.93C611.62 586.93 610.73 587.82 610.73 588.924V603.738C610.73 604.843 611.62 605.732 612.725 605.732C613.829 605.732 614.719 604.843 614.719 603.738V588.924C614.719 587.82 613.829 586.93 612.725 586.93Z" fill="#BCBDB3"/>
<path d="M611.606 586.034H608.383C606.667 586.034 605.286 587.416 605.286 589.131C605.286 590.847 606.667 592.229 608.383 592.229H611.606C613.322 592.229 614.703 590.847 614.703 589.131C614.703 587.416 613.322 586.034 611.606 586.034Z" fill="#BCBDB3"/>
<path d="M607.186 595.29C606.081 595.29 605.191 596.179 605.191 597.284V612.098C605.191 613.203 606.081 614.092 607.186 614.092C608.29 614.092 609.18 613.203 609.18 612.098V597.284C609.18 596.179 608.29 595.29 607.186 595.29Z" fill="#484844"/>
<path d="M606.065 594.394H602.842C601.126 594.394 599.745 595.775 599.745 597.491C599.745 599.206 601.126 600.588 602.842 600.588H606.065C607.781 600.588 609.162 599.206 609.162 597.491C609.162 595.775 607.781 594.394 606.065 594.394Z" fill="#484844"/>
<path d="M741.347 623.181L714.15 604.409C712.851 603.512 711.084 603.836 710.187 605.135C709.291 606.434 709.615 608.202 710.914 609.098L738.11 627.87C739.409 628.766 741.177 628.442 742.073 627.143C742.97 625.844 742.646 624.077 741.347 623.181Z" fill="#484844"/>
<path d="M718.872 595.22L717.759 594.451C716.46 593.555 714.693 593.879 713.796 595.177L702.157 612.04C701.261 613.339 701.584 615.107 702.883 616.003L703.997 616.772C705.296 617.668 707.063 617.344 707.96 616.045L719.599 599.182C720.495 597.884 720.171 596.116 718.872 595.22Z" fill="#585950"/>
<path d="M741.073 615.701L730.583 613.025C725.919 611.835 721.206 614.632 720.017 619.296L711.426 652.973C710.236 657.638 713.033 662.351 717.698 663.54L728.187 666.216C732.852 667.406 737.564 664.609 738.754 659.944L747.345 626.267C748.534 621.603 745.737 616.89 741.073 615.701Z" fill="#484844"/>
<path d="M670.689 610.495H648.688C642.946 610.495 638.323 615.118 638.323 620.86V623.49C638.323 629.232 642.946 633.855 648.688 633.855H670.689C676.432 633.855 681.055 629.232 681.055 623.49V620.86C681.055 615.118 676.432 610.495 670.689 610.495Z" fill="#484844"/>
<path d="M638.699 590.454C633.762 591.503 630.632 596.322 631.681 601.26L636.835 625.513C637.884 630.45 642.704 633.58 647.641 632.531C652.579 631.481 655.709 626.662 654.659 621.725L649.505 597.472C648.456 592.534 643.636 589.404 638.699 590.454Z" fill="#484844"/>
<path d="M681.055 657.106V623.424C681.055 617.682 676.432 613.059 670.689 613.059H668.06C662.317 613.059 657.695 617.682 657.695 623.424V657.106C657.695 662.848 662.317 667.471 668.06 667.471H670.689C676.432 667.471 681.055 662.848 681.055 657.106Z" fill="#484844"/>
<path d="M617.73 603.583H606.297C601.967 603.583 598.481 607.069 598.481 611.398V652.459C598.481 656.788 601.967 660.274 606.297 660.274H617.73C622.059 660.274 625.545 656.788 625.545 652.459V611.398C625.545 607.069 622.059 603.583 617.73 603.583Z" fill="#585950"/>
<path d="M625.931 546.202L624.502 546.349C623.011 546.503 621.934 547.827 622.087 549.318L629.827 624.487C629.981 625.979 631.305 627.056 632.796 626.902L634.225 626.755C635.716 626.602 636.794 625.277 636.64 623.786L628.9 548.617C628.747 547.126 627.422 546.048 625.931 546.202Z" fill="#484844"/>
<path d="M658.748 603.16C663.796 603.16 667.859 607.223 667.859 612.271V616.811C667.859 621.858 663.796 625.922 658.748 625.922H641.919C636.872 625.922 632.809 621.858 632.809 616.811V612.271C632.809 607.223 636.872 603.16 641.919 603.16H658.748ZM656.62 606.036H644.048C640.276 606.036 637.239 609.073 637.239 612.844V616.237C637.239 620.009 640.276 623.046 644.048 623.046H656.62C660.391 623.046 663.428 620.009 663.428 616.237V612.844C663.428 609.073 660.391 606.036 656.62 606.036Z" fill="#585950"/>
<path d="M612.166 614.552H612.116C606.94 614.552 602.774 618.719 602.774 623.894V638.448C602.774 643.623 606.94 647.79 612.116 647.79H612.166C617.341 647.79 621.508 643.623 621.508 638.448V623.894C621.508 618.719 617.341 614.552 612.166 614.552Z" fill="#484844"/>
<path d="M659.187 613.865C666.255 613.865 671.985 618.521 671.984 624.264V658.99C671.985 664.733 666.255 669.389 659.187 669.388H614.871C613.877 669.388 612.906 669.437 611.939 669.538C604.169 670.358 597.325 665.364 597.497 659C598.198 634.048 611.053 613.865 641.894 613.866L659.187 613.865ZM738.14 605.665C768.769 606.755 783.169 625.315 784.043 655.913C784.261 663.557 777.898 669.763 770.241 669.374C769.851 669.355 769.479 669.351 769.131 669.351H727.323C720.065 669.352 714.181 663.483 714.182 656.244L724.527 618.762C726.503 611.602 730.703 605.398 738.14 605.665Z" fill="url(#paint12_linear_2606_7276)"/>
<path d="M779.758 655.243H597.818C595.095 655.243 592.903 657.436 592.903 660.159V676.112C592.903 678.835 595.095 681.028 597.818 681.028H779.758C782.482 681.028 784.674 678.835 784.674 676.112V660.159C784.674 657.436 782.482 655.243 779.758 655.243Z" fill="#484844"/>
<path d="M776.616 664.912H600.96C596.496 664.912 592.903 668.506 592.903 672.97C592.903 677.434 596.496 681.027 600.96 681.027H776.616C781.08 681.027 784.674 677.434 784.674 672.97C784.674 668.506 781.08 664.912 776.616 664.912Z" fill="#4F5048"/>
<path d="M779.75 671.18H597.826C595.099 671.18 592.903 673.376 592.903 676.104C592.903 678.832 595.099 681.028 597.826 681.028H779.75C782.478 681.028 784.674 678.832 784.674 676.104C784.674 673.376 782.478 671.18 779.75 671.18Z" fill="#484844"/>
<path d="M630.247 638.337C638.671 638.338 646.75 641.639 652.706 647.516C658.663 653.393 662.01 661.363 662.01 669.674C662.002 670.912 661.92 672.15 661.764 673.379H598.726C598.57 672.15 598.488 670.912 598.48 669.674C598.481 665.558 599.302 661.483 600.899 657.681C602.495 653.879 604.835 650.425 607.785 647.515C610.735 644.605 614.237 642.297 618.091 640.722C621.945 639.147 626.075 638.337 630.247 638.337Z" fill="#484844"/>
<path d="M602.292 670.51C602.292 677.615 605.139 684.428 610.209 689.452C615.278 694.475 622.153 697.297 629.322 697.297C636.49 697.297 643.366 694.475 648.435 689.452C653.504 684.428 656.352 677.615 656.352 670.51C656.352 666.993 655.652 663.509 654.294 660.259C652.936 657.009 650.945 654.056 648.435 651.569C645.925 649.082 642.945 647.108 639.666 645.762C636.386 644.416 632.871 643.723 629.322 643.723C625.772 643.723 622.257 644.416 618.978 645.762C615.698 647.108 612.719 649.082 610.209 651.569C607.699 654.056 605.708 657.009 604.349 660.259C602.991 663.509 602.292 666.993 602.292 670.51Z" fill="#585950"/>
<path d="M614.257 670.51C614.257 672.471 614.646 674.412 615.403 676.224C616.161 678.035 617.27 679.681 618.669 681.067C620.068 682.453 621.729 683.553 623.557 684.303C625.384 685.054 627.343 685.44 629.322 685.44C633.317 685.44 637.149 683.867 639.974 681.067C642.799 678.267 644.387 674.47 644.387 670.51C644.387 668.55 643.997 666.608 643.24 664.797C642.483 662.986 641.373 661.34 639.974 659.953C638.575 658.567 636.915 657.467 635.087 656.717C633.259 655.967 631.3 655.581 629.322 655.581C627.343 655.581 625.384 655.967 623.557 656.717C621.729 657.467 620.068 658.567 618.669 659.953C617.27 661.34 616.161 662.986 615.403 664.797C614.646 666.608 614.257 668.55 614.257 670.51Z" fill="#FFFFFD" fill-opacity="0.996078"/>
<path d="M748.473 638.337C756.897 638.338 764.976 641.639 770.933 647.516C776.89 653.393 780.236 661.363 780.236 669.674C780.229 670.912 780.146 672.15 779.99 673.379H716.953C716.797 672.15 716.715 670.912 716.707 669.674C716.707 665.558 717.529 661.483 719.125 657.681C720.722 653.879 723.062 650.425 726.011 647.515C728.961 644.605 732.463 642.297 736.317 640.722C740.171 639.147 744.302 638.337 748.473 638.337Z" fill="#484844"/>
<path d="M721.372 670.51C721.372 677.615 724.22 684.428 729.289 689.452C734.358 694.475 741.233 697.297 748.402 697.297C755.57 697.297 762.446 694.475 767.515 689.452C772.584 684.428 775.432 677.615 775.432 670.51C775.432 666.993 774.732 663.509 773.374 660.259C772.016 657.009 770.025 654.056 767.515 651.569C765.005 649.082 762.025 647.108 758.746 645.762C755.466 644.416 751.951 643.723 748.402 643.723C744.852 643.723 741.337 644.416 738.058 645.762C734.778 647.108 731.799 649.082 729.289 651.569C726.779 654.056 724.788 657.009 723.429 660.259C722.071 663.509 721.372 666.993 721.372 670.51Z" fill="#585950"/>
<path d="M733.337 670.51C733.337 674.47 734.924 678.267 737.749 681.067C740.575 683.867 744.406 685.44 748.402 685.44C750.38 685.44 752.339 685.054 754.167 684.303C755.995 683.553 757.655 682.453 759.054 681.067C760.453 679.681 761.563 678.035 762.32 676.224C763.077 674.412 763.467 672.471 763.467 670.51C763.467 668.55 763.077 666.608 762.32 664.797C761.563 662.986 760.453 661.34 759.054 659.953C757.655 658.567 755.995 657.467 754.167 656.717C752.339 655.967 750.38 655.581 748.402 655.581C746.423 655.581 744.464 655.967 742.637 656.717C740.809 657.467 739.148 658.567 737.749 659.953C736.35 661.34 735.241 662.986 734.484 664.797C733.727 666.608 733.337 668.55 733.337 670.51Z" fill="#FFFFFD" fill-opacity="0.996078"/>
<path d="M738.418 670.51C738.418 673.134 739.47 675.651 741.342 677.506C743.214 679.362 745.754 680.404 748.401 680.404C751.049 680.404 753.588 679.362 755.461 677.506C757.333 675.651 758.385 673.134 758.385 670.51C758.385 669.211 758.127 667.925 757.625 666.724C757.123 665.524 756.388 664.433 755.461 663.514C754.534 662.596 753.433 661.867 752.222 661.37C751.011 660.873 749.712 660.617 748.401 660.617C747.09 660.617 745.792 660.873 744.581 661.37C743.37 661.867 742.269 662.596 741.342 663.514C740.415 664.433 739.68 665.524 739.178 666.724C738.676 667.925 738.418 669.211 738.418 670.51Z" fill="#BCBDB3"/>
<path d="M619.338 670.51C619.338 673.134 620.39 675.651 622.262 677.506C624.134 679.362 626.674 680.404 629.321 680.404C631.969 680.404 634.508 679.362 636.381 677.506C638.253 675.651 639.305 673.134 639.305 670.51C639.305 669.211 639.046 667.925 638.545 666.724C638.043 665.524 637.308 664.433 636.381 663.514C635.454 662.596 634.353 661.867 633.142 661.37C631.931 660.873 630.632 660.617 629.321 660.617C628.01 660.617 626.712 660.873 625.501 661.37C624.29 661.867 623.189 662.596 622.262 663.514C621.335 664.433 620.6 665.524 620.098 666.724C619.596 667.925 619.338 669.211 619.338 670.51Z" fill="#BCBDB3"/>
<path d="M714.001 652.867H659.446C657.789 652.867 656.455 654.201 656.455 655.858C656.455 657.516 657.789 658.85 659.446 658.85H714.001C715.658 658.85 716.992 657.516 716.992 655.858C716.992 654.201 715.658 652.867 714.001 652.867Z" fill="#4F5048"/>
<path d="M730.376 546.36C728.843 546.663 727.854 548.141 728.157 549.674L740.118 610.143C740.421 611.675 741.899 612.665 743.432 612.362C744.965 612.059 745.955 610.581 745.651 609.048L733.69 548.579C733.387 547.046 731.909 546.057 730.376 546.36Z" fill="#484844"/>
<path d="M740.695 608.255L731.27 614.66C730.03 615.502 729.71 617.179 730.552 618.419C731.395 619.659 733.072 619.979 734.312 619.137L743.737 612.732C744.977 611.89 745.297 610.213 744.455 608.973C743.612 607.733 741.935 607.413 740.695 608.255Z" fill="#484844"/>
<path d="M742.28 542.437H621.318C619.867 542.437 618.699 543.604 618.699 545.055C618.699 546.506 619.867 547.674 621.318 547.674H742.28C743.73 547.674 744.898 546.506 744.898 545.055C744.898 543.604 743.73 542.437 742.28 542.437Z" fill="#FEFEFC"/>
<path d="M745.301 545.627H618.296C616.845 545.627 615.677 546.795 615.677 548.246C615.677 549.696 616.845 550.864 618.296 550.864H745.301C746.752 550.864 747.92 549.696 747.92 548.246C747.92 546.795 746.752 545.627 745.301 545.627Z" fill="#585950"/>
<path d="M253.676 171.555C236.66 171.555 222.961 185.252 222.961 202.268V212.262C210.513 216.181 201.533 227.779 201.533 241.555C201.533 258.571 215.232 272.268 232.248 272.268H380.818C397.834 272.268 411.533 258.571 411.533 241.555C411.533 224.54 397.834 210.84 380.818 210.84H353.928C349.886 202.778 341.556 197.268 331.891 197.268H322.604C320.155 197.268 317.794 197.625 315.564 198.284C313.622 183.164 300.768 171.555 285.104 171.555H253.676ZM634.904 212.993C617.982 213.1 604.389 226.747 604.389 243.696V253.69C591.94 257.609 582.961 269.207 582.961 282.983C582.961 299.999 596.66 313.696 613.676 313.696H705.799C688.967 275.932 664.893 241.737 634.904 212.993ZM169.826 226.711C159.308 238.045 149.63 250.111 140.869 262.817C144.714 266.04 149.671 267.983 155.104 267.983H158.676C170.943 267.983 180.818 258.107 180.818 245.84C180.818 237.649 176.404 230.542 169.826 226.711ZM536.531 265.125C524.264 265.125 514.389 275.001 514.389 287.268C514.389 299.535 524.264 309.411 536.531 309.411H540.104C552.371 309.411 562.246 299.535 562.246 287.268C562.246 275.001 552.371 265.125 540.104 265.125H536.531Z" fill="#ADD2F4"/>
<path d="M443.821 463.293C423.889 470.769 409.472 499.302 417.272 515.887L441.428 567.254C455.885 597.995 481.402 617.107 501.334 609.631C521.265 602.155 517.461 573.63 506.632 544.013L486.555 489.101C480.277 471.931 463.753 455.817 443.821 463.293Z" fill="#D79B70"/>
<path d="M464.082 487.457C452.926 488.863 444.486 497.823 445.157 507.546L448.928 562.195C449.599 571.919 459.12 578.615 470.275 577.209C481.431 575.803 489.871 566.844 489.2 557.12L485.429 502.471C484.758 492.748 475.237 486.051 464.082 487.457Z" fill="#DCA883"/>
<path d="M500.622 254.775L500.413 254.808C486.993 256.9 474.844 273.429 476.937 286.848L492.602 387.302C494.694 400.721 510.213 405.799 523.632 403.707L523.841 403.674C537.261 401.581 544.422 389.255 544.287 375.674C543.964 343.169 535.257 308.988 528.622 275.22C526.003 261.894 514.041 252.682 500.622 254.775Z" fill="#D79B70"/>
<path d="M526.777 327.409C520.144 328.429 515.625 334.591 516.646 341.224L517.985 349.932C519.006 356.565 525.168 361.084 531.801 360.063C538.434 359.043 542.952 352.881 541.932 346.248L540.592 337.54C539.572 330.907 533.41 326.388 526.777 327.409Z" fill="#DCA781"/>
<path d="M406.825 303.052C442.339 303.052 470.93 341.306 470.93 388.822V450.79C470.93 498.307 442.339 536.56 406.825 536.56C371.31 536.56 342.719 498.307 342.719 450.79V388.822C342.719 341.306 371.31 303.052 406.825 303.052Z" fill="url(#paint13_linear_2606_7276)"/>
<path d="M306.494 284.321C321.445 285.986 332.14 299.363 330.475 314.314L323.168 379.91C321.503 394.861 308.126 405.557 293.174 403.891C278.223 402.226 267.527 388.849 269.193 373.897L276.5 308.302C278.165 293.351 291.542 282.655 306.494 284.321Z" fill="#DCA781"/>
<path d="M307.345 329.391C313.627 330.357 317.906 336.192 316.939 342.473L315.671 350.72C314.704 357.001 308.869 361.28 302.588 360.314C296.306 359.347 292.027 353.512 292.994 347.231L294.262 338.985C295.229 332.703 301.064 328.424 307.345 329.391Z" fill="#DFB08E"/>
<path d="M406.825 222.266C459.018 222.266 501.037 249.104 501.037 282.441C501.037 315.778 459.018 342.616 406.825 342.616C354.632 342.616 312.613 315.778 312.613 282.441C312.613 249.104 354.632 222.266 406.825 222.266Z" fill="#DAA37B"/>
<path d="M406.824 249.54C452.116 249.54 488.579 284.037 488.579 326.887C488.579 369.738 452.116 404.235 406.824 404.235C361.531 404.235 325.068 369.738 325.068 326.887C325.068 284.037 361.531 249.54 406.824 249.54Z" fill="url(#paint14_linear_2606_7276)"/>
<path d="M376.711 412.626H437.425C459.09 412.626 476.532 430.068 476.532 451.734C476.532 473.399 459.09 490.841 437.425 490.841H376.711C355.045 490.841 337.604 473.399 337.604 451.734C337.604 430.068 355.045 412.626 376.711 412.626Z" fill="#DCA680"/>
<path d="M412.215 355.705H421.898C445.059 355.705 463.705 378.93 463.705 407.779V445.402C463.705 474.252 445.059 497.477 421.898 497.477H412.215C389.054 497.477 370.408 474.252 370.408 445.402V407.779C370.408 378.93 389.054 355.705 412.215 355.705Z" fill="#DCA781"/>
<path d="M363.199 246.651H450.45C473.031 246.651 491.21 264.24 491.21 286.087V309.856C491.21 331.704 473.031 349.292 450.45 349.292H363.199C340.618 349.292 322.439 331.704 322.439 309.856V286.087C322.439 264.24 340.618 246.651 363.199 246.651Z" fill="#DCA781"/>
<path d="M298.928 271.582C308.975 272.815 316.071 281.897 314.837 291.943L313.435 303.367C312.201 313.414 303.12 320.51 293.073 319.276C283.026 318.043 275.931 308.962 277.164 298.915L278.567 287.491C279.8 277.444 288.881 270.348 298.928 271.582Z" fill="#DCA781"/>
<path d="M517.407 277.597C507.761 278.831 500.949 287.912 502.133 297.959L503.48 309.383C504.664 319.43 513.383 326.525 523.029 325.292C532.674 324.058 539.486 314.977 538.302 304.93L536.956 293.506C535.772 283.459 527.053 276.364 517.407 277.597Z" fill="#D79B70"/>
<path d="M315.998 250.323H499.255C519.154 250.323 535.174 266.186 535.174 285.89C535.174 305.593 519.154 321.456 499.255 321.456H315.998C296.1 321.456 280.08 305.593 280.08 285.89C280.08 266.186 296.1 250.323 315.998 250.323Z" fill="#DFB08E"/>
<path d="M355.585 252.056H458.064C476.427 252.056 491.21 266.088 491.21 283.518V302.48C491.21 319.91 476.427 333.942 458.064 333.942H355.585C337.223 333.942 322.439 319.91 322.439 302.48V283.518C322.439 266.088 337.223 252.056 355.585 252.056Z" fill="#DFB08E"/>
<path d="M417.989 328.936C421.927 328.936 425.097 331.675 425.097 335.077V346.987C425.097 350.389 421.927 353.128 417.989 353.128C414.051 353.128 410.881 350.389 410.881 346.987V335.077C410.881 331.675 414.051 328.936 417.989 328.936Z" fill="#D79B70"/>
<path d="M438.254 301.593H454.822C459.595 301.593 463.438 305.081 463.438 309.413C463.438 313.745 459.595 317.232 454.822 317.232H438.254C433.481 317.232 429.639 313.745 429.639 309.413C429.639 305.081 433.481 301.593 438.254 301.593Z" fill="#E4BB9E"/>
<path d="M379.776 301.593H396.344C401.117 301.593 404.96 305.081 404.96 309.413C404.96 313.745 401.117 317.232 396.344 317.232H379.776C375.003 317.232 371.16 313.745 371.16 309.413C371.16 305.081 375.003 301.593 379.776 301.593Z" fill="#E4BB9E"/>
<path d="M406.824 170.566C427.46 170.566 444.073 190.457 444.073 215.164V233.46C444.073 258.167 427.46 278.057 406.824 278.057C386.187 278.057 369.574 258.167 369.574 233.46V215.164C369.574 190.457 386.187 170.566 406.824 170.566Z" fill="#DFB08E"/>
<path d="M367.394 331.876H373.428C375.842 331.876 377.785 333.64 377.785 335.831C377.785 338.022 375.842 339.786 373.428 339.786H367.394C364.98 339.786 363.037 338.022 363.037 335.831C363.037 333.64 364.98 331.876 367.394 331.876Z" fill="#D09164"/>
<path d="M466.019 331.876H472.053C474.467 331.876 476.41 333.64 476.41 335.831C476.41 338.022 474.467 339.786 472.053 339.786H466.019C463.605 339.786 461.662 338.022 461.662 335.831C461.662 333.64 463.605 331.876 466.019 331.876Z" fill="#D09164"/>
<path d="M400.085 174.173H413.562C429.08 174.173 441.573 186.666 441.573 202.184V213.676C441.573 229.194 429.08 241.686 413.562 241.686H400.085C384.567 241.686 372.074 229.194 372.074 213.676V202.184C372.074 186.666 384.567 174.173 400.085 174.173Z" fill="url(#paint15_linear_2606_7276)"/>
<path d="M312.053 253.72H316.265C327.544 253.72 336.624 262.238 336.624 272.819C336.624 283.399 327.544 291.917 316.265 291.917H312.053C300.774 291.917 291.693 283.399 291.693 272.819C291.693 262.238 300.774 253.72 312.053 253.72Z" fill="url(#paint16_linear_2606_7276)"/>
<path d="M493.742 255.583H497.954C509.233 255.583 518.314 264.101 518.314 274.682C518.314 285.262 509.233 293.78 497.954 293.78H493.742C482.463 293.78 473.383 285.262 473.383 274.682C473.383 264.101 482.463 255.583 493.742 255.583Z" fill="url(#paint17_linear_2606_7276)"/>
<path d="M527.109 369.356H538.318C556.224 369.356 570.64 382.657 570.64 399.178C570.64 415.699 556.224 428.999 538.318 428.999H527.109C509.202 428.999 494.787 415.699 494.787 399.178C494.787 382.657 509.202 369.356 527.109 369.356Z" fill="#DCA781"/>
<path d="M309.654 260.136H315.973C319.473 260.136 322.291 262.78 322.291 266.063C322.291 269.347 319.473 271.99 315.973 271.99H309.654C306.154 271.99 303.336 269.347 303.336 266.063C303.336 262.78 306.154 260.136 309.654 260.136Z" fill="#EBCDB8"/>
<path d="M499.287 260.602H505.606C509.106 260.602 511.924 263.246 511.924 266.529C511.924 269.813 509.106 272.456 505.606 272.456H499.287C495.787 272.456 492.969 269.813 492.969 266.529C492.969 263.246 495.787 260.602 499.287 260.602Z" fill="#EBCDB8"/>
<path d="M364.437 147.925H457.911C468.631 147.925 477.262 157.162 477.262 168.636C477.262 180.109 468.631 189.346 457.911 189.346H364.437C353.716 189.346 345.086 180.109 345.086 168.636C345.086 157.162 353.716 147.925 364.437 147.925Z" fill="#DFB08E"/>
<path d="M365.119 153.19H457.231C465.226 153.19 471.662 160.079 471.662 168.635C471.662 177.192 465.226 184.08 457.231 184.08H365.119C357.124 184.08 350.688 177.192 350.688 168.635C350.688 160.079 357.124 153.19 365.119 153.19Z" fill="#D19A71"/>
<path d="M466.113 148.731C472.201 148.731 477.103 153.633 477.103 159.721V170.096C477.103 176.184 472.201 181.086 466.113 181.086C460.025 181.086 455.123 176.184 455.123 170.096V159.721C455.123 153.633 460.025 148.731 466.113 148.731Z" fill="#DFB08E"/>
<path d="M394.46 89.7129H421.174C443.377 89.7129 461.252 109.108 461.252 133.2V176.734C461.252 200.825 443.377 228.22 421.174 228.22H394.46C372.257 228.22 354.383 200.825 354.383 176.734V133.2C354.383 109.108 372.257 89.7129 394.46 89.7129Z" fill="url(#paint18_linear_2606_7276)"/>
<path d="M376.872 250.897L395.84 260.015C397.958 261.033 398.843 263.557 397.825 265.674C396.807 267.791 394.283 268.676 392.166 267.659L373.198 258.541C371.08 257.523 370.195 254.999 371.213 252.881C372.231 250.764 374.755 249.879 376.872 250.897Z" fill="#DAA37B"/>
<path d="M437.4 250.897L418.432 260.015C416.315 261.033 415.43 263.557 416.448 265.674C417.465 267.791 419.989 268.676 422.107 267.659L441.075 258.541C443.192 257.523 444.077 254.999 443.059 252.881C442.042 250.764 439.518 249.879 437.4 250.897Z" fill="#DAA37B"/>
<path d="M345.078 464.119C341.179 464.119 337.417 464.679 333.857 465.707C338.025 506.569 369.439 538.136 407.836 538.136C446.729 538.136 478.46 505.749 481.965 464.119H481.954H345.078Z" fill="url(#paint19_linear_2606_7276)"/>
<path d="M374.356 605.62C356.643 607.821 343.942 621.515 345.879 636.322L350.082 668.455C356.036 686.833 360.331 699.313 362.932 719.205C364.06 727.827 373.272 733.736 383.585 732.454C393.899 731.172 401.292 723.199 400.164 714.577C398.427 699.373 406.894 680.757 407.972 665.947L411.133 632.174C411.964 617.205 392.305 603.389 374.592 605.59L374.356 605.62Z" fill="url(#paint20_linear_2606_7276)"/>
<path d="M380.193 585.182C366.198 584.9 355.096 594.137 355.303 605.893C356.736 609.728 356.594 615.422 354.28 620.626C354.486 632.382 367.169 640.333 381.165 640.615C395.161 640.896 406.262 631.659 406.056 619.903L405.828 606.911C405.622 595.155 394.189 585.464 380.193 585.182Z" fill="#DAA27A"/>
<path d="M372.786 472.855C394.042 471.722 418.708 491.546 418.229 509.407L416.747 564.723C415.86 597.828 400.172 624.883 378.916 626.016C357.661 627.149 349.684 600.195 347.7 569.515L344.023 512.631C342.873 494.845 351.53 473.988 372.786 472.855Z" fill="url(#paint21_linear_2606_7276)"/>
<path d="M385.37 592.189C376.495 592.01 369.455 597.868 369.586 605.323L369.73 613.561C369.861 621.016 377.111 627.162 385.986 627.341C394.861 627.519 401.9 621.662 401.77 614.207L401.625 605.968C401.495 598.513 394.245 592.368 385.37 592.189Z" fill="#DFB08E"/>
<path d="M367.514 505.843C378.294 502.729 389.623 507.421 392.915 516.364L411.419 566.626C414.712 575.569 408.683 585.276 397.903 588.39C387.123 591.505 375.794 586.812 372.502 577.869L353.998 527.608C350.706 518.665 356.734 508.958 367.514 505.843Z" fill="url(#paint22_linear_2606_7276)"/>
<path d="M396.836 632.379C401.623 632.527 405.185 635.891 404.822 639.921L403.144 658.588C402.781 662.619 398.636 665.743 393.85 665.595C389.063 665.446 385.501 662.082 385.864 658.052L387.542 639.385C387.905 635.355 392.05 632.23 396.836 632.379Z" fill="url(#paint23_linear_2606_7276)"/>
<path d="M389.82 708.791C392.39 709.027 408.857 724.582 408.736 735.864L408.696 739.523C408.689 740.283 408.659 741.054 408.604 741.829C408.295 746.147 405.676 749.44 402.577 749.407L360.186 748.972C357.085 748.943 354.536 745.59 354.324 741.263C354.286 740.492 354.273 739.728 354.281 738.965L354.32 735.307C354.48 720.568 363.169 706.339 368.5 706.829L389.82 708.791Z" fill="#D79B70"/>
<path d="M401.141 728.277C412.215 728.39 421.26 734.811 421.177 742.501L421.158 744.409C421.154 744.806 421.128 745.208 421.074 745.612C420.929 746.697 420.202 747.702 419.037 748.428C417.872 749.154 416.353 749.548 414.782 749.531L370.226 749.075C368.654 749.059 367.143 748.634 365.994 747.883C364.844 747.132 364.14 746.111 364.02 745.022C363.976 744.62 363.959 744.221 363.962 743.823L363.981 741.915C364.064 734.228 373.238 727.991 384.312 728.104L401.141 728.277Z" fill="#DFB08E"/>
<path d="M336.354 459.104H476.354C479.421 459.104 481.89 461.573 481.89 464.64V473.211C481.89 476.278 479.421 478.747 476.354 478.747H336.354C333.287 478.747 330.818 476.278 330.818 473.211V464.64C330.818 461.573 333.287 459.104 336.354 459.104Z" fill="#5B5B5B"/>
<path d="M419.581 419.862C421.889 419.862 423.748 421.721 423.748 424.029V429.332C423.748 431.641 421.889 433.499 419.581 433.499C417.273 433.499 415.414 431.641 415.414 429.332V424.029C415.414 421.721 417.273 419.862 419.581 419.862Z" fill="#D09164"/>
<path d="M545.806 372.505H595.555C606.226 372.505 614.817 381.096 614.817 391.766V404.509C614.817 415.179 606.226 423.77 595.555 423.77H545.806C535.136 423.77 526.545 415.179 526.545 404.509V391.766C526.545 381.096 535.136 372.505 545.806 372.505Z" fill="url(#paint24_linear_2606_7276)"/>
<path d="M638.401 359.799H658.857C666.762 359.799 673.125 366.163 673.125 374.067C673.125 381.972 666.762 388.336 658.857 388.336H638.401C630.497 388.336 624.133 381.972 624.133 374.067C624.133 366.163 630.497 359.799 638.401 359.799Z" fill="#DFB08E"/>
<path d="M296.602 395.916L296.799 395.839C309.455 390.914 322.411 394.303 325.848 403.436L351.576 471.808C355.013 480.942 347.59 492.26 334.934 497.185L334.737 497.262C322.081 502.186 309.125 498.798 305.688 489.664L279.96 421.292C276.523 412.159 283.945 400.841 296.602 395.916Z" fill="#DFB08E"/>
<path d="M317.421 460.649L324.903 457.635C339.286 451.839 355.531 458.753 361.326 473.136L366.459 485.874C372.255 500.257 365.341 516.502 350.958 522.298L343.477 525.312C329.093 531.108 312.849 524.194 307.053 509.811L301.92 497.073C296.125 482.69 303.038 466.445 317.421 460.649Z" fill="#DFB08E"/>
<path d="M283.772 369.417C298.112 363.639 314.26 370.412 319.978 384.604L328.084 404.72C333.802 418.912 326.862 434.989 312.522 440.767C298.182 446.545 282.035 439.771 276.316 425.579L268.211 405.463C262.492 391.271 269.433 375.195 283.772 369.417Z" fill="#DFB08E"/>
<path d="M307.094 378.648C309.98 377.485 313.24 378.872 314.403 381.758L322.012 400.642C323.174 403.528 321.787 406.788 318.901 407.951C316.015 409.114 312.756 407.726 311.593 404.84L303.984 385.956C302.821 383.07 304.208 379.811 307.094 378.648Z" fill="#E4BB9E"/>
<path d="M313.065 493.135C320.386 485.257 332.622 484.809 340.499 492.131L361.949 512.065C369.826 519.386 370.274 531.622 362.953 539.499C355.632 547.377 343.396 547.824 335.519 540.503L314.069 520.569C306.192 513.248 305.744 501.012 313.065 493.135Z" fill="url(#paint25_linear_2606_7276)"/>
<path d="M348.299 470.761C354.718 468.174 361.969 471.26 364.555 477.68L371.599 495.159C374.185 501.579 371.1 508.829 364.68 511.416C358.26 514.003 351.01 510.917 348.423 504.498L341.38 487.018C338.793 480.598 341.879 473.348 348.299 470.761Z" fill="#E4BB9E"/>
<path d="M590.38 404.871L588.766 396.969C585.662 381.776 595.395 367.046 610.588 363.942L624.044 361.193C639.237 358.09 653.967 367.823 657.07 383.016L658.685 390.918C661.788 406.112 652.055 420.841 636.862 423.945L623.406 426.694C608.213 429.797 593.484 420.064 590.38 404.871Z" fill="url(#paint26_linear_2606_7276)"/>
<path d="M588.35 383.04C585.014 376.976 587.21 369.409 593.273 366.072L609.785 356.988C615.848 353.651 623.416 355.847 626.753 361.911C630.089 367.975 627.893 375.543 621.829 378.879L605.318 387.964C599.254 391.3 591.686 389.104 588.35 383.04Z" fill="url(#paint27_linear_2606_7276)"/>
<path d="M382.074 200.7H398.236C405.861 200.7 412 206.839 412 214.464C412 222.088 405.861 228.227 398.236 228.227H382.074C374.449 228.227 368.311 222.088 368.311 214.464C368.311 206.839 374.449 200.7 382.074 200.7Z" fill="#DFB08D"/>
<path d="M647.998 379.763H656.077C662.164 379.763 667.064 384.663 667.064 390.75V413.462C667.064 419.549 662.164 424.449 656.077 424.449H647.998C641.912 424.449 637.012 419.549 637.012 413.462V390.75C637.012 384.663 641.912 379.763 647.998 379.763Z" fill="#E4BB9E"/>
<path d="M460.929 155.345C466.071 155.345 470.21 159.484 470.21 164.626V173.387C470.21 178.529 466.071 182.668 460.929 182.668C455.788 182.668 451.648 178.529 451.648 173.387V164.626C451.648 159.484 455.788 155.345 460.929 155.345Z" fill="#D19A71"/>
<path d="M495.539 594.033C480.444 584.495 461.706 587.237 453.527 600.182L435.777 628.274C428.363 646.602 423.522 659.207 412.534 676.597C407.772 684.134 411.014 694.674 419.804 700.228C428.593 705.782 439.502 704.183 444.265 696.646C452.856 683.514 471.545 674.182 482.051 663.154L506.549 638.454C516.969 627.144 510.836 603.698 495.741 594.16L495.539 594.033Z" fill="url(#paint28_linear_2606_7276)"/>
<path d="M509.825 583.047C498.927 574.26 484.349 574.97 477.138 584.639C475.867 588.627 472.182 593.162 467.087 595.972C459.877 605.64 464.925 619.849 475.823 628.636C486.72 637.422 501.298 636.713 508.509 627.044L516.479 616.36C523.69 606.691 520.722 591.834 509.825 583.047Z" fill="url(#paint29_linear_2606_7276)"/>
<path d="M495.393 629.512C498.987 632.678 499.535 637.607 496.623 640.564L483.135 654.259C480.223 657.216 474.986 657.048 471.393 653.882C467.799 650.717 467.25 645.788 470.162 642.831L483.65 629.135C486.562 626.179 491.8 626.347 495.393 629.512Z" fill="url(#paint30_linear_2606_7276)"/>
<path d="M439.908 689.267C441.793 691.03 445.067 713.725 437.893 722.809L435.567 725.754C435.084 726.367 434.577 726.974 434.048 727.57C431.095 730.885 426.956 731.957 424.526 730.035L391.256 703.761C388.82 701.841 388.907 697.562 391.452 693.919C391.906 693.27 392.375 692.642 392.86 692.028L395.186 689.083C404.557 677.217 420.358 670.98 424.268 674.638L439.908 689.267Z" fill="url(#paint31_linear_2606_7276)"/>
<path d="M444.651 718.17C453.343 725.034 456.472 735.777 451.583 741.968L450.371 743.505C450.119 743.825 449.846 744.135 449.55 744.429C448.754 745.222 447.549 745.593 446.171 745.47C444.794 745.347 443.346 744.738 442.113 743.764L407.143 716.148C405.909 715.174 404.981 713.905 404.542 712.593C404.104 711.281 404.187 710.021 404.775 709.064C404.992 708.71 405.229 708.376 405.481 708.055L406.693 706.518C411.58 700.329 422.752 700.876 431.443 707.74L444.651 718.17Z" fill="#E4BB9E"/>
<path d="M505.348 580.716C496.472 580.601 489.479 586.663 489.668 594.309L489.876 602.759C490.065 610.405 497.363 616.654 506.24 616.77C515.116 616.885 522.109 610.823 521.92 603.177L521.711 594.727C521.522 587.081 514.225 580.832 505.348 580.716Z" fill="url(#paint32_linear_2606_7276)"/>
<path d="M391.589 211.959H399.865C400.529 211.959 401.064 212.494 401.064 213.158V213.864C401.064 214.528 400.529 215.062 399.865 215.062H391.589C390.925 215.062 390.391 214.528 390.391 213.864V213.158C390.391 212.494 390.925 211.959 391.589 211.959Z" fill="#D19A71"/>
<path d="M397.816 160.943C402.775 160.943 406.767 164.724 406.767 169.42V184.379C406.767 189.075 402.775 192.856 397.816 192.856C392.857 192.856 388.865 189.075 388.865 184.379V169.42C388.865 164.724 392.857 160.943 397.816 160.943Z" fill="#D19A71"/>
<path d="M388.726 176.448H406.906C410.032 176.448 412.548 178.965 412.548 182.09C412.548 185.216 410.032 187.732 406.906 187.732H388.726C385.6 187.732 383.084 185.216 383.084 182.09C383.084 178.965 385.6 176.448 388.726 176.448Z" fill="#D19A71"/>
<path d="M397.816 154.818C399.745 154.818 401.298 156.371 401.298 158.3V183.479C401.298 185.408 399.745 186.961 397.816 186.961C395.887 186.961 394.334 185.408 394.334 183.479V158.3C394.334 156.371 395.887 154.818 397.816 154.818Z" fill="#DFB08E" fill-opacity="0.996078"/>
<path d="M360.121 172.139C358.439 172.139 357.084 173.493 357.084 175.174C357.084 176.856 358.439 178.211 360.121 178.211H362.191C363.873 178.211 365.229 176.856 365.229 175.174C365.229 173.493 363.873 172.139 362.191 172.139H360.121ZM433.441 172.139C431.76 172.139 430.406 173.493 430.406 175.174C430.406 176.856 431.76 178.211 433.441 178.211H439.514C441.195 178.211 442.549 176.856 442.549 175.174C442.549 173.493 441.195 172.139 439.514 172.139H433.441Z" fill="#EBC2A4"/>
<path d="M367.646 149.13H379.525C382.516 149.13 384.925 151.538 384.925 154.529C384.925 157.521 382.516 159.929 379.525 159.929H367.646C364.654 159.929 362.246 157.521 362.246 154.529C362.246 151.538 364.654 149.13 367.646 149.13Z" fill="#D19A71"/>
<path d="M368.428 155.375C371.531 155.375 374.03 157.451 374.03 160.029V161.891C374.03 164.47 371.531 166.546 368.428 166.546C365.325 166.546 362.826 164.47 362.826 161.891V160.029C362.826 157.451 365.325 155.375 368.428 155.375Z" fill="#61534B"/>
<path d="M361.074 157.379L375.712 156.999C376.924 156.968 377.924 157.918 377.956 159.129C377.986 160.341 377.037 161.341 375.826 161.373L361.188 161.752C359.976 161.784 358.976 160.834 358.944 159.622C358.913 158.411 359.863 157.41 361.074 157.379Z" fill="#61534B"/>
<path d="M363.26 146.404L381.084 146.579C383.022 146.598 384.567 148.173 384.548 150.112C384.53 152.05 382.954 153.595 381.015 153.576L363.191 153.402C361.253 153.383 359.708 151.807 359.727 149.869C359.746 147.93 361.321 146.385 363.26 146.404Z" fill="#A17E5B"/>
<path d="M363.131 147.698C364.16 148.337 364.476 149.68 363.837 150.71L361.249 154.884C360.61 155.913 359.267 156.228 358.237 155.59C357.207 154.951 356.892 153.608 357.531 152.578L360.119 148.404C360.757 147.375 362.101 147.06 363.131 147.698Z" fill="#A17E5B"/>
<path d="M363.365 155.037H375.413C375.982 155.037 376.44 155.495 376.44 156.064C376.44 156.633 375.982 157.091 375.413 157.091H363.365C362.796 157.091 362.338 156.633 362.338 156.064C362.338 155.495 362.796 155.037 363.365 155.037Z" fill="#DFB08D"/>
<path d="M426.8 149.13H414.92C411.929 149.13 409.521 151.538 409.521 154.529C409.521 157.521 411.929 159.929 414.92 159.929H426.8C429.791 159.929 432.199 157.521 432.199 154.529C432.199 151.538 429.791 149.13 426.8 149.13Z" fill="#D19A71"/>
<path d="M422.447 155.464C419.344 155.464 416.845 157.54 416.845 160.119V161.981C416.845 164.559 419.344 166.635 422.447 166.635C425.55 166.635 428.049 164.559 428.049 161.981V160.119C428.049 157.54 425.55 155.464 422.447 155.464Z" fill="#61534B"/>
<path d="M433.371 157.379L418.733 156.999C417.522 156.968 416.521 157.918 416.49 159.129C416.46 160.341 417.408 161.341 418.62 161.373L433.258 161.752C434.469 161.784 435.47 160.834 435.501 159.622C435.533 158.411 434.583 157.41 433.371 157.379Z" fill="#61534B"/>
<path d="M431.186 146.404L413.361 146.579C411.423 146.598 409.878 148.173 409.897 150.112C409.916 152.05 411.492 153.595 413.43 153.576L431.254 153.402C433.192 153.383 434.738 151.807 434.719 149.869C434.7 147.93 433.124 146.385 431.186 146.404Z" fill="#A17E5B"/>
<path d="M431.315 147.698C430.285 148.337 429.97 149.68 430.608 150.71L433.196 154.884C433.835 155.913 435.178 156.228 436.208 155.59C437.238 154.951 437.553 153.608 436.915 152.578L434.327 148.404C433.688 147.375 432.345 147.06 431.315 147.698Z" fill="#A17E5B"/>
<path d="M431.081 155.037H417.336C416.767 155.037 416.309 155.495 416.309 156.064C416.309 156.633 416.767 157.091 417.336 157.091H431.081C431.649 157.091 432.107 156.633 432.107 156.064C432.107 155.495 431.649 155.037 431.081 155.037Z" fill="#DFB08D"/>
<path d="M363.316 165.483H374.03C374.921 165.483 375.638 166.2 375.638 167.091C375.638 167.981 374.921 168.698 374.03 168.698H363.316C362.426 168.698 361.709 167.981 361.709 167.091C361.709 166.2 362.426 165.483 363.316 165.483Z" fill="#EBC2A4"/>
<path d="M416.531 165.483H427.245C428.136 165.483 428.852 166.2 428.852 167.091C428.852 167.981 428.136 168.698 427.245 168.698H416.531C415.641 168.698 414.924 167.981 414.924 167.091C414.924 166.2 415.641 165.483 416.531 165.483Z" fill="#EBC2A4"/>
<path d="M382.826 203.437H411.457C412.348 203.437 413.065 204.154 413.065 205.044V205.618C413.065 206.508 412.348 207.225 411.457 207.225H382.826C381.936 207.225 381.219 206.508 381.219 205.618V205.044C381.219 204.154 381.936 203.437 382.826 203.437Z" fill="#D19A71"/>
<path d="M411.082 203.744L416.244 200.902C417.024 200.472 417.997 200.755 418.427 201.535L418.685 202.004C419.115 202.784 418.832 203.757 418.052 204.187L412.89 207.029C412.111 207.459 411.137 207.177 410.707 206.397L410.449 205.927C410.02 205.147 410.302 204.174 411.082 203.744Z" fill="#D19A71"/>
<path d="M390.156 85.0381C385.415 85.0381 381.239 87.3674 378.705 90.9502C366.434 97.2364 357.499 109.34 355.248 123.808C358.389 112.863 366.114 103.989 376.148 99.5283C376.397 107.072 382.55 113.069 390.156 113.069H406.318C413.771 113.069 419.83 107.31 420.305 99.9814C420.648 99.0063 421.286 98.1616 422.13 97.5638C422.973 96.9661 423.982 96.6445 425.016 96.6436C425.335 96.6444 425.653 96.6758 425.967 96.7373C425.966 96.7282 425.966 96.7192 425.965 96.7101C438.848 98.3744 449.644 106.775 454.947 118.411C454.94 118.413 454.932 118.414 454.925 118.415C455.336 119.157 455.552 119.992 455.552 120.841C455.549 122.628 454.593 124.278 453.044 125.169C449.424 126.659 446.993 131.62 446.932 134.716V141.876C446.932 144.989 448.342 148.319 450.462 150.417V166.108C450.462 168.136 452.094 169.769 454.122 169.769C456.15 169.769 457.784 168.136 457.784 166.108V151.911L465.196 149.257C465.858 149.02 466.587 149.182 467.249 149.04C467.361 143.383 467.543 137.425 467.561 130.999C467.561 106.236 448.231 86.2998 424.224 86.2998H412.157C410.382 85.4897 408.405 85.0381 406.319 85.0381L390.156 85.0381ZM355.043 127.776C354.243 127.776 353.6 128.721 353.6 129.894V149.968C353.6 151.141 354.243 152.085 355.043 152.085C355.843 152.085 356.486 151.141 356.486 149.968V129.894C356.486 128.721 355.843 127.776 355.043 127.776Z" fill="#A17E5B" fill-opacity="0.996078"/>
<path d="M353.15 167.556C352.157 167.556 351.355 168.512 351.355 169.7V205.313C351.355 205.438 351.366 205.558 351.383 205.677C351.367 206.184 351.355 206.694 351.355 207.206C351.355 229.171 366.146 246.852 384.514 246.852H424.494C442.862 246.852 457.65 229.171 457.65 207.206C457.65 206.691 457.639 206.177 457.624 205.667C457.639 205.551 457.65 205.434 457.65 205.313L457.829 169.432C457.836 168.244 457.92 165.502 456.927 165.502H450.395L449.324 181.507C449.322 181.539 449.322 181.57 449.322 181.602C449.345 182.213 449.361 182.825 449.361 183.442V183.739C449.361 204.855 430.163 224.114 415.599 224.114H393.414C364.451 225.028 354.568 195.425 354.568 167.556H353.15Z" fill="#A17E5B" fill-opacity="0.996078"/>
<path d="M379.746 187.983C375.277 187.983 371.646 191.443 371.371 195.841H422.068C423.006 195.841 423.904 195.995 424.744 196.276C424.691 191.673 420.97 187.983 416.354 187.983H410.802C407.854 187.892 406.017 190.211 405.409 190.973C403.997 192.836 401.759 194.036 399.23 194.036H395.709C393.28 194.036 391.119 192.929 389.701 191.19C388.15 188.248 385.857 187.92 384.727 187.983H379.746Z" fill="#A17D5A" fill-opacity="0.996078"/>
<path d="M397.157 220.662C400.57 220.662 403.318 223.41 403.318 226.823V232.894C403.318 236.307 400.57 239.055 397.157 239.055C393.744 239.055 390.996 236.307 390.996 232.894V226.823C390.996 223.41 393.744 220.662 397.157 220.662Z" fill="#B0885F"/>
<path d="M413.587 225.662C415.714 225.662 417.427 227.374 417.427 229.501V232.001C417.427 234.128 415.714 235.841 413.587 235.841C411.46 235.841 409.748 234.128 409.748 232.001V229.501C409.748 227.374 411.46 225.662 413.587 225.662Z" fill="url(#paint33_linear_2606_7276)"/>
<path d="M426.087 225.662C428.214 225.662 429.927 227.374 429.927 229.501V232.001C429.927 234.128 428.214 235.841 426.087 235.841C423.96 235.841 422.248 234.128 422.248 232.001V229.501C422.248 227.374 423.96 225.662 426.087 225.662Z" fill="url(#paint34_linear_2606_7276)"/>
<path d="M374.122 225.662C376.249 225.662 377.962 227.374 377.962 229.501V232.001C377.962 234.128 376.249 235.841 374.122 235.841C371.996 235.841 370.283 234.128 370.283 232.001V229.501C370.283 227.374 371.996 225.662 374.122 225.662Z" fill="url(#paint35_linear_2606_7276)"/>
<path d="M384.3 225.662C386.427 225.662 388.139 227.374 388.139 229.501V232.001C388.139 234.128 386.427 235.841 384.3 235.841C382.173 235.841 380.461 234.128 380.461 232.001V229.501C380.461 227.374 382.173 225.662 384.3 225.662Z" fill="url(#paint36_linear_2606_7276)"/>
<path d="M390.908 87.4478H400.729C404.241 87.4478 407.068 90.2751 407.068 93.787C407.068 97.299 404.241 100.126 400.729 100.126H390.908C387.396 100.126 384.568 97.299 384.568 93.787C384.568 90.2751 387.396 87.4478 390.908 87.4478Z" fill="url(#paint37_linear_2606_7276)"/>
<path d="M456.712 130.126H457.605C459.781 130.126 461.533 131.879 461.533 134.055C461.533 136.231 459.781 137.984 457.605 137.984H456.712C454.535 137.984 452.783 136.231 452.783 134.055C452.783 131.879 454.535 130.126 456.712 130.126Z" fill="#B0885F"/>
<path d="M457.069 141.02H459.033C460.715 141.02 462.069 142.373 462.069 144.055C462.069 145.737 460.715 147.091 459.033 147.091H457.069C455.387 147.091 454.033 145.737 454.033 144.055C454.033 142.373 455.387 141.02 457.069 141.02Z" fill="#B0885F"/>
<path d="M501.395 271.5L513.244 270.218C526.252 268.81 537.857 278.148 539.264 291.155L550.026 390.584C551.434 403.592 542.096 415.197 529.089 416.604L517.239 417.887C504.232 419.295 492.627 409.957 491.219 396.949L480.457 297.52C479.049 284.513 488.388 272.908 501.395 271.5Z" fill="white"/>
<path d="M500.467 248.402C520.847 248.402 537.253 264.808 537.253 285.188V287.688C537.253 308.067 520.847 324.473 500.467 324.473C480.088 324.473 463.682 308.067 463.682 287.688V285.188C463.682 264.808 480.088 248.402 500.467 248.402Z" fill="white"/>
<path d="M418.567 432.277H429.174C458.274 432.277 481.702 455.705 481.702 484.805C481.702 513.906 458.274 537.333 429.174 537.333H418.567C389.467 537.333 366.039 513.906 366.039 484.805C366.039 455.705 389.467 432.277 418.567 432.277Z" fill="#53544C"/>
<path d="M406.826 249.54C361.534 249.54 325.07 284.037 325.07 326.888C325.07 345.498 331.95 362.531 343.441 375.849C342.966 380.078 342.719 384.411 342.719 388.823V432.331C339.463 438.042 337.604 444.663 337.604 451.733C337.604 458.867 339.495 465.542 342.805 471.288C345.562 469.279 348.961 468.093 352.648 468.093H466.217C468.409 468.093 470.497 468.515 472.412 469.276C475.05 464.006 476.533 458.049 476.533 451.733C476.533 444.318 474.488 437.397 470.932 431.501V388.823C470.932 384.411 470.684 380.078 470.209 375.849C481.701 362.531 488.58 345.498 488.58 326.888C488.58 284.037 452.119 249.54 406.826 249.54Z" fill="url(#paint38_linear_2606_7276)"/>
<path d="M345.526 247.578H465.85C477.43 247.578 486.753 256.9 486.753 268.48V322.986C486.753 334.566 477.43 343.889 465.85 343.889H345.526C333.946 343.889 324.623 334.566 324.623 322.986V268.48C324.623 256.9 333.946 247.578 345.526 247.578Z" fill="#5B5C53"/>
<path d="M321.898 243.823L342.165 236.862C346.094 235.513 350.345 237.59 351.694 241.52L362.251 272.257C363.6 276.187 361.523 280.437 357.593 281.787L337.327 288.747C333.397 290.097 329.147 288.02 327.797 284.09L317.241 253.352C315.891 249.422 317.968 245.172 321.898 243.823Z" fill="#5B5C53"/>
<path d="M337.076 227.793C342.387 222.9 350.602 223.236 355.495 228.548L378.726 253.763C383.619 259.075 383.283 267.29 377.972 272.183C372.66 277.077 364.445 276.74 359.552 271.429L336.321 246.213C331.428 240.901 331.764 232.686 337.076 227.793Z" fill="#5B5C53"/>
<path d="M416.591 275.568H418.94C421.031 275.568 422.715 277.252 422.715 279.343V460.533C422.715 462.624 421.031 464.308 418.94 464.308H416.591C414.5 464.308 412.816 462.624 412.816 460.533V279.343C412.816 277.252 414.5 275.568 416.591 275.568Z" fill="white"/>
<path d="M369.051 458.559C389.343 457.273 422.611 478.938 422.358 499.709L420.264 671.268C420.01 692.039 406.465 709.713 386.174 710.999C365.882 712.285 348.415 696.635 347.009 675.91L334.961 498.29C333.556 477.565 348.76 459.845 369.051 458.559Z" fill="url(#paint39_linear_2606_7276)"/>
<path d="M436.528 472.087C454.755 464.649 475.202 458.808 482.582 478.222L516.893 568.472C524.274 587.886 515.373 613.212 497.146 620.649C478.919 628.087 457.928 618.592 450.081 599.362L417.791 520.224C409.944 500.993 418.301 479.524 436.528 472.087Z" fill="#53544C"/>
<path d="M416.175 467.983C420.924 467.983 424.746 471.806 424.746 476.555V509.412C424.746 514.161 420.924 517.983 416.175 517.983C411.426 517.983 407.604 514.161 407.604 509.412V476.555C407.604 471.806 411.426 467.983 416.175 467.983Z" fill="#50504A"/>
<path d="M340.23 438.808H475.779C478.944 438.808 481.493 441.356 481.493 444.522V470.974C481.493 474.14 478.944 476.688 475.779 476.688H340.23C337.064 476.688 334.516 474.14 334.516 470.974V444.522C334.516 441.356 337.064 438.808 340.23 438.808Z" fill="#64655B"/>
<path d="M462.753 225.953C455.651 224.643 448.879 229.305 447.569 236.407L441.349 270.124C440.039 277.226 444.702 283.998 451.804 285.308C458.905 286.618 465.678 281.956 466.988 274.854L473.207 241.137C474.518 234.035 469.855 227.263 462.753 225.953Z" fill="#5B5C53"/>
<path d="M372.615 247.577C379.79 267.2 393.109 282.868 412.841 282.868C432.572 282.868 451.128 267.2 444.822 247.577H372.615Z" fill="white"/>
<path d="M491.735 243.445L471.894 239.456C467.821 238.637 463.882 241.257 463.063 245.33L447.954 320.476C447.135 324.55 449.755 328.489 453.828 329.308L473.669 333.297C477.742 334.116 481.681 331.496 482.5 327.423L497.609 252.277C498.429 248.203 495.809 244.264 491.735 243.445Z" fill="#5B5C53"/>
<path d="M315.104 249.412C335.483 249.412 351.89 265.819 351.89 286.198V288.698C351.89 309.077 335.483 325.484 315.104 325.484C294.725 325.484 278.318 309.077 278.318 288.698V286.198C278.318 265.819 294.725 249.412 315.104 249.412Z" fill="#F6F6EB"/>
<path d="M370.353 405.522L371.322 406.256C372.347 407.032 372.546 408.482 371.77 409.506L354.889 431.784C354.113 432.808 352.664 433.008 351.64 432.231L350.67 431.497C349.646 430.721 349.446 429.271 350.222 428.247L367.103 405.969C367.879 404.945 369.328 404.745 370.353 405.522Z" fill="white"/>
<path d="M308.455 257.189L310.685 257.477C326.737 259.557 337.987 274.154 335.907 290.207L324.124 381.177C322.044 397.23 307.447 408.479 291.394 406.4L289.164 406.111C273.111 404.032 261.862 389.434 263.941 373.381L275.725 282.412C277.804 266.359 292.402 255.109 308.455 257.189Z" fill="white"/>
<path d="M282.375 363.436L286.716 361.929C301.046 356.953 316.588 364.484 321.564 378.814L329.604 401.967C334.58 416.298 327.049 431.84 312.719 436.816L308.378 438.323C294.047 443.299 278.505 435.768 273.529 421.438L265.49 398.285C260.514 383.955 268.044 368.412 282.375 363.436Z" fill="white"/>
<path d="M295.608 400.004L298.924 398.852C312.224 394.234 326.649 401.223 331.267 414.523L343.727 450.407C348.345 463.706 341.356 478.131 328.056 482.749L324.74 483.901C311.44 488.519 297.015 481.529 292.397 468.23L279.937 432.346C275.319 419.046 282.309 404.622 295.608 400.004Z" fill="url(#paint40_linear_2606_7276)"/>
<path d="M524.508 361.566H538.97C557.929 361.566 573.191 376.829 573.191 395.788V398.056C573.191 417.014 557.929 432.277 538.97 432.277H524.508C505.55 432.277 490.287 417.014 490.287 398.056V395.788C490.287 376.829 505.55 361.566 524.508 361.566Z" fill="white"/>
<path d="M557.852 368.638C542.042 368.638 529.316 381.365 529.316 397.175C529.316 412.984 542.042 425.712 557.852 425.712H592.934C596.805 425.712 600.491 424.946 603.852 423.562C597.139 419.706 592.059 413.088 590.381 404.872L588.766 396.968C587.873 392.598 588.044 388.267 589.1 384.239C588.831 383.858 588.58 383.458 588.35 383.04C585.703 378.23 586.541 372.477 590.026 368.638H557.852Z" fill="white"/>
<path d="M362.855 690.441L414.278 687.314C418.467 687.059 422.045 690.226 422.3 694.416L422.791 702.482C423.045 706.672 419.878 710.25 415.688 710.504L364.266 713.632C360.076 713.887 356.498 710.719 356.244 706.53L355.753 698.464C355.498 694.274 358.666 690.696 362.855 690.441Z" fill="#50504A"/>
<path d="M414.467 657.311L448.315 703.431C451.02 707.117 450.771 711.753 447.879 713.988L433.423 725.165C430.532 727.4 425.926 726.101 423.221 722.415L389.373 676.295C386.668 672.608 386.917 667.973 389.809 665.737L404.265 654.561C407.157 652.325 411.762 653.625 414.467 657.311Z" fill="#DCDCDC"/>
<path d="M380.572 706.119H408.706C424.979 706.119 438.081 715.736 438.081 727.681C438.081 739.626 424.979 749.243 408.706 749.243H380.572C364.298 749.243 351.197 739.626 351.197 727.681C351.197 715.736 364.298 706.119 380.572 706.119Z" fill="#DCDCDC"/>
<path d="M360.925 713.597H428.353C433.742 713.597 438.081 718.403 438.081 724.373V738.466C438.081 744.436 433.742 749.242 428.353 749.242H360.925C355.536 749.242 351.197 744.436 351.197 738.466V724.373C351.197 718.403 355.536 713.597 360.925 713.597Z" fill="#DCDCDC"/>
<path d="M511.046 572.834C527.489 585.383 530.582 608.779 517.981 625.289L474.334 682.477C461.732 698.987 438.35 702.176 421.907 689.626C405.464 677.076 402.371 653.681 414.972 637.17L458.619 579.983C471.221 563.473 494.603 560.284 511.046 572.834Z" fill="#53544C"/>
<path d="M317.421 460.649L324.903 457.635C339.286 451.839 355.531 458.753 361.326 473.136L366.459 485.874C372.255 500.257 365.341 516.502 350.958 522.298L343.477 525.312C329.093 531.108 312.849 524.194 307.053 509.811L301.92 497.073C296.125 482.689 303.038 466.445 317.421 460.649Z" fill="#DFB08E"/>
<path d="M312.315 494.029C319.09 485.677 331.268 484.407 339.62 491.182L362.36 509.629C370.712 516.404 371.982 528.582 365.207 536.934C358.432 545.286 346.254 546.555 337.902 539.78L315.161 521.333C306.81 514.558 305.54 502.38 312.315 494.029Z" fill="#DFB08E"/>
<path d="M375.954 479.179L379.827 481.704C385.218 485.219 386.728 492.389 383.213 497.78L355.33 540.545C351.815 545.936 344.645 547.446 339.254 543.931L335.381 541.406C329.99 537.891 328.48 530.721 331.995 525.33L359.878 482.565C363.393 477.174 370.563 475.664 375.954 479.179Z" fill="#53544C"/>
<path d="M384.034 488.27L387.907 490.795C393.298 494.31 394.808 501.48 391.293 506.871L363.41 549.636C359.895 555.027 352.725 556.538 347.334 553.023L343.461 550.497C338.07 546.982 336.56 539.813 340.075 534.422L367.958 491.656C371.473 486.265 378.643 484.755 384.034 488.27Z" fill="#53544C"/>
<path d="M341.525 468.494C345.39 462.752 353.123 461.241 358.865 465.106L374.499 475.629C380.24 479.494 381.751 487.228 377.886 492.969C374.022 498.711 366.288 500.222 360.547 496.357L344.913 485.834C339.171 481.969 337.66 474.236 341.525 468.494Z" fill="#DFB08E"/>
<path d="M622.718 393.386C622.718 389.76 620.51 386.82 617.785 386.82C615.06 386.82 612.852 389.76 612.852 393.386V727.747C612.852 731.373 615.06 734.313 617.785 734.313C620.51 734.313 622.718 731.373 622.718 727.747V393.386Z" fill="#64655B"/>
<path d="M624.48 693.907H612.875C610.501 693.907 608.576 695.831 608.576 698.206V730.014C608.576 732.388 610.501 734.313 612.875 734.313H624.48C626.854 734.313 628.779 732.388 628.779 730.014V698.206C628.779 695.831 626.854 693.907 624.48 693.907Z" fill="#DCDCDC"/>
<path d="M666.66 729.996V729.286C666.66 721.463 660.318 715.12 652.494 715.12H622.743C614.919 715.12 608.576 721.463 608.576 729.286V729.996C608.576 737.819 614.919 744.162 622.743 744.162H652.494C660.318 744.162 666.66 737.819 666.66 729.996Z" fill="#DCDCDC"/>
<path d="M625.393 375.954C624.425 377.108 623.233 378.108 621.83 378.88L609.586 385.616C609.154 386.964 608.92 388.401 608.92 389.895C608.92 397.618 615.138 403.835 622.861 403.835H637.014V390.749C637.014 384.662 641.913 379.763 648 379.763H656.078C658.122 379.763 660.03 380.318 661.666 381.282C659.118 378.036 655.16 375.954 650.695 375.954H625.393Z" fill="url(#paint41_linear_2606_7276)"/>
<path d="M362.277 109.679C345.483 109.679 331.801 124.527 331.801 142.751C331.801 142.944 331.805 143.135 331.809 143.327C332.014 143.355 332.221 143.372 332.428 143.38H415.971C415.975 143.17 415.978 142.962 415.978 142.751C415.978 124.525 402.291 109.679 385.496 109.679L362.277 109.679Z" fill="#5B5C53"/>
<path d="M391.787 82.7661C367.299 82.7661 347.348 104.195 347.348 130.497C347.348 132.453 347.461 134.375 347.671 136.255C347.889 138.219 348.77 140.028 350.147 141.341C351.523 142.653 353.3 143.379 355.141 143.379H462.296C464.137 143.379 465.914 142.653 467.29 141.341C468.667 140.028 469.548 138.219 469.766 136.255C469.976 134.375 470.09 132.453 470.09 130.497C470.09 104.193 450.132 82.7661 425.643 82.7661H391.787Z" fill="#5B5C53"/>
<path d="M405.041 118.876H369.451C362.218 118.876 356.354 124.673 356.354 131.823C356.354 138.973 362.218 144.769 369.451 144.769H405.041C412.275 144.769 418.139 138.973 418.139 131.823C418.139 124.673 412.275 118.876 405.041 118.876Z" fill="#D19A71"/>
<path d="M418.139 134.591H356.354V144.769H418.139V134.591Z" fill="#D19A71"/>
<path d="M382.645 82.7666C367.897 82.7666 355.224 95.0868 349.957 112.509C353.727 110.691 357.896 109.679 362.277 109.679H385.496C402.291 109.679 415.979 124.525 415.979 142.751C415.979 142.962 415.975 143.17 415.971 143.38H438.647C440.109 143.38 441.521 142.654 442.614 141.341C443.708 140.028 444.407 138.219 444.58 136.255C444.747 134.374 444.836 132.453 444.836 130.497C444.836 104.193 428.985 82.7666 409.535 82.7666H382.645Z" fill="#63645A"/>
<path d="M388.648 101.31C408.176 101.31 424.092 116.182 424.092 134.438C424.092 135.796 424.001 137.129 423.834 138.435C415.241 148.518 425.889 143.38 437.877 143.38C440.916 143.379 443.474 141.255 443.834 138.435C444.001 137.129 444.092 135.796 444.092 134.438C444.092 116.181 428.176 101.31 408.648 101.31H388.648Z" fill="#5B5C53"/>
<path d="M361.65 101.31C342.123 101.31 326.213 116.183 326.213 134.438C326.213 135.796 326.304 137.129 326.471 138.435C326.639 139.706 327.267 140.885 328.251 141.776C329.234 142.667 330.515 143.216 331.879 143.333C332.994 124.565 346.211 109.679 362.277 109.679H385.496C401.576 109.679 414.806 124.588 415.902 143.38H417.877C419.345 143.38 420.762 142.876 421.86 141.965C422.958 141.053 423.66 139.797 423.834 138.435C424.001 137.129 424.092 135.796 424.092 134.438C424.092 116.181 408.176 101.31 388.648 101.31H361.65Z" fill="#7D7E72"/>
<path d="M434.392 683.846L441.324 678.629C443.448 677.03 446.445 677.453 448.043 679.577L457.732 692.45C459.331 694.573 458.908 697.57 456.784 699.169L449.852 704.386C447.729 705.985 444.732 705.562 443.133 703.438L433.444 690.566C431.846 688.442 432.268 685.445 434.392 683.846Z" fill="#DCDCDC"/>
<path d="M447.404 688.719L461.527 707.963C469.696 719.094 469.11 733.312 460.212 739.842C451.314 746.373 437.574 742.669 429.405 731.538L415.282 712.294C407.113 701.163 407.699 686.945 416.597 680.415C425.495 673.884 439.235 677.588 447.404 688.719Z" fill="white"/>
<path d="M378.122 699.585H389.401C394.455 699.585 398.525 703.973 398.525 709.424V711.884C398.525 717.335 394.455 721.724 389.401 721.724H378.122C373.067 721.724 368.998 717.335 368.998 711.884V709.424C368.998 703.973 373.067 699.585 378.122 699.585Z" fill="#DCDCDC"/>
<path d="M408.844 665.501L442.692 711.621C445.397 715.307 445.203 720.016 442.256 722.178L435.3 727.284C432.353 729.446 427.803 728.22 425.098 724.533L391.25 678.413C388.545 674.727 388.739 670.019 391.686 667.856L398.642 662.751C401.588 660.588 406.139 661.815 408.844 665.501Z" fill="white"/>
<path d="M400.87 706.329C391.927 706.593 384.207 710.867 380.037 717.139C377.935 720.3 376.733 723.97 376.734 727.89C376.735 728.955 376.825 730.004 376.997 731.027C376.827 731.599 376.736 732.197 376.736 732.817L376.74 742.156C376.741 746.112 380.439 749.296 385.027 749.294L398.733 749.291C399.724 749.392 400.732 749.446 401.755 749.445L425.71 749.434C426.735 749.433 427.747 749.38 428.739 749.277H430.111L400.885 706.331C400.881 706.331 400.874 706.328 400.87 706.329ZM441.502 711.127L450.34 724.112C449.286 718.89 446.065 714.327 441.502 711.127Z" fill="white"/>
<path d="M353.263 744.21H436.9C438.305 744.21 439.435 745.429 439.435 746.944C439.435 748.458 438.305 749.677 436.9 749.677H353.263C351.859 749.677 350.729 748.458 350.729 746.944C350.729 745.429 351.859 744.21 353.263 744.21Z" fill="#53544C"/>
<path d="M406.07 668.244L409.58 673.198C410.438 674.408 410.154 676.074 408.943 676.932C407.732 677.79 406.067 677.506 405.209 676.295L401.699 671.341C400.841 670.13 401.125 668.465 402.336 667.607C403.547 666.749 405.212 667.033 406.07 668.244Z" fill="#53544C"/>
<path d="M360.137 722.783H363.901C365.39 722.783 366.589 724.076 366.589 725.682C366.589 727.288 365.39 728.581 363.901 728.581H360.137C358.648 728.581 357.449 727.288 357.449 725.682C357.449 724.076 358.648 722.783 360.137 722.783Z" fill="#53544C"/>
<path d="M423.129 685.859L456.977 731.979C459.682 735.665 459.488 740.373 456.541 742.536L449.585 747.641C446.638 749.804 442.088 748.577 439.383 744.891L405.535 698.771C402.83 695.085 403.024 690.376 405.971 688.214L412.927 683.108C415.874 680.946 420.424 682.172 423.129 685.859Z" fill="white"/>
<path d="M390.266 670.329L445.72 745.375C446.551 746.501 446.315 748.076 445.19 748.907L444.54 749.387C443.415 750.219 441.84 749.982 441.008 748.857L385.555 673.811C384.723 672.686 384.96 671.111 386.085 670.279L386.735 669.799C387.86 668.968 389.435 669.204 390.266 670.329Z" fill="#53544C"/>
<defs>
<linearGradient id="paint0_linear_2606_7276" x1="74.3898" y1="542.269" x2="80.1041" y2="319.412" gradientUnits="userSpaceOnUse">
<stop stop-color="#69A3D6"/>
<stop offset="1" stop-color="#83BEF3"/>
</linearGradient>
<linearGradient id="paint1_linear_2606_7276" x1="74.3908" y1="542.269" x2="80.105" y2="319.412" gradientUnits="userSpaceOnUse">
<stop stop-color="#69A3D6"/>
<stop offset="1" stop-color="#83BEF3"/>
</linearGradient>
<linearGradient id="paint2_linear_2606_7276" x1="283.712" y1="547.447" x2="278.488" y2="771.988" gradientUnits="userSpaceOnUse">
<stop stop-color="#93983E"/>
<stop offset="1" stop-color="#7D813E"/>
</linearGradient>
<linearGradient id="paint3_linear_2606_7276" x1="151.534" y1="508.698" x2="153.677" y2="547.269" gradientUnits="userSpaceOnUse">
<stop stop-color="#93983E"/>
<stop offset="1" stop-color="#7D813E"/>
</linearGradient>
<linearGradient id="paint4_linear_2606_7276" x1="283.713" y1="547.447" x2="278.489" y2="771.988" gradientUnits="userSpaceOnUse">
<stop stop-color="#93983E"/>
<stop offset="1" stop-color="#7D813E"/>
</linearGradient>
<linearGradient id="paint5_linear_2606_7276" x1="623.225" y1="545.905" x2="623.225" y2="596.412" gradientUnits="userSpaceOnUse">
<stop stop-color="#ADB254"/>
<stop offset="1" stop-color="#7D813E"/>
</linearGradient>
<linearGradient id="paint6_linear_2606_7276" x1="623.226" y1="545.904" x2="623.226" y2="596.412" gradientUnits="userSpaceOnUse">
<stop stop-color="#ADB254"/>
<stop offset="1" stop-color="#7D813E"/>
</linearGradient>
<linearGradient id="paint7_linear_2606_7276" x1="224.417" y1="516.657" x2="228.331" y2="502.767" gradientUnits="userSpaceOnUse">
<stop stop-color="#C4C4C4"/>
<stop offset="1" stop-color="#E7E7E7"/>
</linearGradient>
<linearGradient id="paint8_linear_2606_7276" x1="220.285" y1="480.357" x2="215.999" y2="498.036" gradientUnits="userSpaceOnUse">
<stop stop-color="white"/>
<stop offset="1" stop-color="#C4C4C4"/>
</linearGradient>
<linearGradient id="paint9_linear_2606_7276" x1="145.827" y1="645.924" x2="174.617" y2="548.949" gradientUnits="userSpaceOnUse">
<stop stop-color="#585950"/>
<stop offset="1" stop-color="#4D4D48"/>
</linearGradient>
<linearGradient id="paint10_linear_2606_7276" x1="187.248" y1="509.107" x2="197.248" y2="469.821" gradientUnits="userSpaceOnUse">
<stop stop-color="#494945"/>
<stop offset="1" stop-color="#66675D"/>
</linearGradient>
<linearGradient id="paint11_linear_2606_7276" x1="200.105" y1="464.643" x2="207.069" y2="438.75" gradientUnits="userSpaceOnUse">
<stop stop-color="#66675D"/>
<stop offset="1" stop-color="#747569"/>
</linearGradient>
<linearGradient id="paint12_linear_2606_7276" x1="731.35" y1="621.246" x2="729.656" y2="671.955" gradientUnits="userSpaceOnUse">
<stop stop-color="#FEFEFC"/>
<stop offset="1" stop-color="#DBDDB3"/>
</linearGradient>
<linearGradient id="paint13_linear_2606_7276" x1="359.032" y1="426.912" x2="358.318" y2="375.127" gradientUnits="userSpaceOnUse">
<stop stop-color="#DCA781"/>
<stop offset="1" stop-color="#D79B70"/>
</linearGradient>
<linearGradient id="paint14_linear_2606_7276" x1="382.245" y1="358.341" x2="382.245" y2="322.626" gradientUnits="userSpaceOnUse">
<stop stop-color="#D79B70"/>
<stop offset="1" stop-color="#C68858"/>
</linearGradient>
<linearGradient id="paint15_linear_2606_7276" x1="396.888" y1="219.769" x2="397.959" y2="245.841" gradientUnits="userSpaceOnUse">
<stop stop-color="#C68858"/>
<stop offset="1" stop-color="#DFB08E"/>
</linearGradient>
<linearGradient id="paint16_linear_2606_7276" x1="320.461" y1="274.412" x2="320.461" y2="291.912" gradientUnits="userSpaceOnUse">
<stop stop-color="#E4BB9E"/>
<stop offset="1" stop-color="#E4BB9E" stop-opacity="0"/>
</linearGradient>
<linearGradient id="paint17_linear_2606_7276" x1="320.461" y1="274.412" x2="320.461" y2="291.912" gradientUnits="userSpaceOnUse">
<stop stop-color="#E4BB9E"/>
<stop offset="1" stop-color="#E4BB9E" stop-opacity="0"/>
</linearGradient>
<linearGradient id="paint18_linear_2606_7276" x1="418.139" y1="118.877" x2="417.639" y2="88.5352" gradientUnits="userSpaceOnUse">
<stop stop-color="#DFB08E"/>
<stop offset="1" stop-color="#EBCDB8"/>
</linearGradient>
<linearGradient id="paint19_linear_2606_7276" x1="421.532" y1="487.984" x2="422.247" y2="532.27" gradientUnits="userSpaceOnUse">
<stop stop-color="#404040"/>
<stop offset="1" stop-color="#4F4F4F"/>
</linearGradient>
<linearGradient id="paint20_linear_2606_7276" x1="373.11" y1="678.754" x2="364.944" y2="609.005" gradientUnits="userSpaceOnUse">
<stop stop-color="#D79B70"/>
<stop offset="1" stop-color="#DBA57F"/>
</linearGradient>
<linearGradient id="paint21_linear_2606_7276" x1="362.96" y1="592.048" x2="364.434" y2="498.051" gradientUnits="userSpaceOnUse">
<stop stop-color="#DBA57F"/>
<stop offset="1" stop-color="#DCA781"/>
</linearGradient>
<linearGradient id="paint22_linear_2606_7276" x1="398.29" y1="564.73" x2="378.513" y2="503.867" gradientUnits="userSpaceOnUse">
<stop stop-color="#E4BB9E"/>
<stop offset="1" stop-color="#E4BB9E" stop-opacity="0"/>
</linearGradient>
<linearGradient id="paint23_linear_2606_7276" x1="396.472" y1="638.058" x2="392.629" y2="672.054" gradientUnits="userSpaceOnUse">
<stop stop-color="#DFB08E"/>
<stop offset="1" stop-color="#DFB08E" stop-opacity="0"/>
</linearGradient>
<linearGradient id="paint24_linear_2606_7276" x1="551.532" y1="400.841" x2="604.389" y2="399.769" gradientUnits="userSpaceOnUse">
<stop stop-color="#DCA781"/>
<stop offset="1" stop-color="#D79B70"/>
</linearGradient>
<linearGradient id="paint25_linear_2606_7276" x1="323.611" y1="499.958" x2="352.4" y2="529.757" gradientUnits="userSpaceOnUse">
<stop stop-color="#DFB08E"/>
<stop offset="1" stop-color="#E4BB9E"/>
</linearGradient>
<linearGradient id="paint26_linear_2606_7276" x1="618.577" y1="400.71" x2="579.686" y2="401.72" gradientUnits="userSpaceOnUse">
<stop stop-color="#DFB08E"/>
<stop offset="1" stop-color="#DAA37B"/>
</linearGradient>
<linearGradient id="paint27_linear_2606_7276" x1="603.425" y1="375.709" x2="583.474" y2="386.568" gradientUnits="userSpaceOnUse">
<stop stop-color="#E4BB9E"/>
<stop offset="1" stop-color="#DCA781"/>
</linearGradient>
<linearGradient id="paint28_linear_2606_7276" x1="459.031" y1="629.055" x2="487.96" y2="582.626" gradientUnits="userSpaceOnUse">
<stop stop-color="#DCA883"/>
<stop offset="1" stop-color="#D9A179"/>
</linearGradient>
<linearGradient id="paint29_linear_2606_7276" x1="459.033" y1="629.055" x2="487.961" y2="582.626" gradientUnits="userSpaceOnUse">
<stop stop-color="#DCA883"/>
<stop offset="1" stop-color="#D79B70"/>
</linearGradient>
<linearGradient id="paint30_linear_2606_7276" x1="491.402" y1="633.772" x2="466.094" y2="658.07" gradientUnits="userSpaceOnUse">
<stop stop-color="#DFB08E"/>
<stop offset="1" stop-color="#DFB08E" stop-opacity="0"/>
</linearGradient>
<linearGradient id="paint31_linear_2606_7276" x1="406.278" y1="700.55" x2="426.284" y2="680.176" gradientUnits="userSpaceOnUse">
<stop stop-color="#E4BB9E"/>
<stop offset="1" stop-color="#DCA883"/>
</linearGradient>
<linearGradient id="paint32_linear_2606_7276" x1="510.237" y1="597.69" x2="504.681" y2="571.426" gradientUnits="userSpaceOnUse">
<stop stop-color="#DFB08E"/>
<stop offset="1" stop-color="#D79B70"/>
</linearGradient>
<linearGradient id="paint33_linear_2606_7276" x1="385.462" y1="232.091" x2="385.82" y2="222.091" gradientUnits="userSpaceOnUse">
<stop stop-color="#B0885F"/>
<stop offset="1" stop-color="#B0885F" stop-opacity="0"/>
</linearGradient>
<linearGradient id="paint34_linear_2606_7276" x1="385.462" y1="232.091" x2="385.82" y2="222.091" gradientUnits="userSpaceOnUse">
<stop stop-color="#B0885F"/>
<stop offset="1" stop-color="#B0885F" stop-opacity="0"/>
</linearGradient>
<linearGradient id="paint35_linear_2606_7276" x1="385.462" y1="232.091" x2="385.819" y2="222.091" gradientUnits="userSpaceOnUse">
<stop stop-color="#B0885F"/>
<stop offset="1" stop-color="#B0885F" stop-opacity="0"/>
</linearGradient>
<linearGradient id="paint36_linear_2606_7276" x1="385.461" y1="232.091" x2="385.818" y2="222.091" gradientUnits="userSpaceOnUse">
<stop stop-color="#B0885F"/>
<stop offset="1" stop-color="#B0885F" stop-opacity="0"/>
</linearGradient>
<linearGradient id="paint37_linear_2606_7276" x1="395.46" y1="95.6439" x2="395.081" y2="86.4263" gradientUnits="userSpaceOnUse">
<stop stop-color="#B0885F"/>
<stop offset="1" stop-color="#B0885F" stop-opacity="0"/>
</linearGradient>
<linearGradient id="paint38_linear_2606_7276" x1="383.676" y1="351.555" x2="378.676" y2="427.269" gradientUnits="userSpaceOnUse">
<stop stop-color="#5B5C53"/>
<stop offset="1" stop-color="#50504A"/>
</linearGradient>
<linearGradient id="paint39_linear_2606_7276" x1="386.63" y1="551.475" x2="395.42" y2="691.925" gradientUnits="userSpaceOnUse">
<stop stop-color="#53544C"/>
<stop offset="1" stop-color="#4E4E48"/>
</linearGradient>
<linearGradient id="paint40_linear_2606_7276" x1="310.103" y1="419.412" x2="335.817" y2="475.126" gradientUnits="userSpaceOnUse">
<stop stop-color="white"/>
<stop offset="1" stop-color="#F5F6EA"/>
</linearGradient>
<linearGradient id="paint41_linear_2606_7276" x1="628.854" y1="397.984" x2="629.033" y2="376.555" gradientUnits="userSpaceOnUse">
<stop stop-color="#64655B"/>
<stop offset="1" stop-color="#53544C"/>
</linearGradient>
</defs>
</svg>
