<svg width="301" height="301" viewBox="0 0 301 301" fill="none" xmlns="http://www.w3.org/2000/svg">
<g clip-path="url(#clip0_2002_8293)">
<path d="M37.8842 244.439H268.895C278.077 244.439 285.469 251.831 285.469 261.012C285.469 270.194 278.077 277.586 268.895 277.586H37.8842C28.7024 277.586 21.3105 270.194 21.3105 261.012C21.3105 251.831 28.7024 244.439 37.8842 244.439Z" fill="#9FA34F"/>
<path d="M264.232 161.249C264.232 176.25 261.237 191.104 255.42 204.963C249.602 218.822 241.076 231.415 230.326 242.022C219.577 252.629 206.816 261.044 192.771 266.784C178.726 272.525 163.673 275.48 148.471 275.48C133.269 275.48 118.216 272.525 104.172 266.784C90.127 261.044 77.3657 252.629 66.6164 242.022C55.867 231.415 47.3402 218.822 41.5227 204.963C35.7052 191.104 32.7109 176.25 32.7109 161.249C32.7109 130.953 44.9071 101.898 66.6164 80.4759C88.3256 59.0535 117.77 47.0186 148.471 47.0186C179.173 47.0186 208.617 59.0535 230.326 80.4759C252.036 101.898 264.232 130.953 264.232 161.249Z" fill="#C5C986"/>
<path d="M45.0783 108.791C58.8624 108.791 69.9593 119.888 69.9593 133.672V210.839C69.9593 224.623 58.8624 235.72 45.0783 235.72C31.2942 235.72 20.1973 224.623 20.1973 210.839V133.672C20.1973 119.888 31.2942 108.791 45.0783 108.791Z" fill="#9FA34F"/>
<path d="M41.1115 185.806C54.8956 185.806 65.9925 196.903 65.9925 210.687V229.021C65.9925 242.805 54.8956 253.902 41.1115 253.902C27.3274 253.902 16.2305 242.805 16.2305 229.021V210.687C16.2305 196.903 27.3274 185.806 41.1115 185.806Z" fill="#9FA34F"/>
<path d="M256.025 95.8096C242.241 95.8096 231.144 106.907 231.144 120.691V197.858C231.144 211.642 242.241 222.739 256.025 222.739C269.809 222.739 280.906 211.642 280.906 197.858V120.691C280.906 106.907 269.809 95.8096 256.025 95.8096Z" fill="#9FA34F"/>
<path d="M265.04 174.419C253.653 174.419 244.486 187.7 244.486 204.196V226.137C244.486 242.633 253.653 255.914 265.04 255.914C276.427 255.914 285.594 242.633 285.594 226.137V204.196C285.594 187.7 276.427 174.419 265.04 174.419Z" fill="#9FA34F"/>
<path d="M77.0984 72.7874C97.6477 72.7874 114.191 89.3306 114.191 109.88V153.224C114.191 173.773 97.6477 190.317 77.0984 190.317C56.5491 190.317 40.0059 173.773 40.0059 153.224V109.88C40.0059 89.3306 56.5491 72.7874 77.0984 72.7874Z" fill="#919548"/>
<path d="M71.7692 133.201H133.984C159.411 133.201 179.88 153.671 179.88 179.097C179.88 204.524 159.411 224.994 133.984 224.994H71.7692C46.3427 224.994 25.873 204.524 25.873 179.097C25.873 153.671 46.3427 133.201 71.7692 133.201Z" fill="#919548"/>
<path d="M68.4533 174.508C93.1735 174.508 113.075 194.409 113.075 219.129V229.838C113.075 254.558 93.1735 274.459 68.4533 274.459C43.7331 274.459 23.832 254.558 23.832 229.838V219.129C23.832 194.409 43.7331 174.508 68.4533 174.508Z" fill="#898D44"/>
<path d="M122.765 194.396H158.972C181.574 194.396 199.769 212.592 199.769 235.193C199.769 257.794 181.574 275.989 158.972 275.989H122.765C100.164 275.989 81.9688 257.794 81.9688 235.193C81.9688 212.592 100.164 194.396 122.765 194.396Z" fill="#898D44"/>
<path d="M208.626 44.8398H208.627C234.053 44.8398 254.523 65.3095 254.523 90.7359V162.64C254.523 188.067 234.053 208.536 208.627 208.536H208.626C183.2 208.536 162.73 188.067 162.73 162.64V90.7359C162.73 65.3095 183.2 44.8398 208.626 44.8398Z" fill="#919548"/>
<path d="M217.107 138.811H227.306C252.733 138.811 273.202 159.28 273.202 184.707V234.683C273.202 260.109 252.733 280.579 227.306 280.579H217.107C191.681 280.579 171.211 260.109 171.211 234.683V184.707C171.211 159.28 191.681 138.811 217.107 138.811Z" fill="#898D44"/>
<path d="M57.8463 225.268C65.5875 225.268 71.8195 231.5 71.8195 239.241V260.48C71.8195 268.221 65.5875 274.453 57.8463 274.453C50.1051 274.453 43.873 268.221 43.873 260.48V239.241C43.873 231.5 50.1051 225.268 57.8463 225.268Z" fill="#7D813E"/>
<path d="M89.4962 208.748H90.9211C102.313 208.748 111.484 217.919 111.484 229.311V250.285C111.484 261.676 102.313 270.847 90.9211 270.847H89.4962C78.1045 270.847 68.9336 261.676 68.9336 250.285V229.311C68.9336 217.919 78.1045 208.748 89.4962 208.748Z" fill="#7D813E"/>
<path d="M220.524 200.619H232.423C242.412 200.619 250.453 208.66 250.453 218.649V258.314C250.453 268.302 242.412 276.344 232.423 276.344H220.524C210.535 276.344 202.494 268.302 202.494 258.314V218.649C202.494 208.66 210.535 200.619 220.524 200.619Z" fill="#7D813E"/>
<path d="M202.494 239.924C210.485 239.924 216.918 246.357 216.918 254.347V256.511C216.918 264.502 210.485 270.935 202.494 270.935C194.503 270.935 188.07 264.502 188.07 256.511V254.347C188.07 246.357 194.503 239.924 202.494 239.924Z" fill="#7D813E"/>
<path d="M93.9664 243.611C95.7904 243.611 97.2589 245.456 97.2589 247.748V260.918C97.2589 263.21 95.7904 265.055 93.9664 265.055C92.1423 265.055 90.6738 263.21 90.6738 260.918V247.748C90.6738 245.456 92.1423 243.611 93.9664 243.611Z" fill="#898D44"/>
<path d="M82.7692 251.457C83.9732 250.214 85.9432 250.183 87.1862 251.387L96.2817 260.199C97.5246 261.403 97.5559 263.373 96.3518 264.616C95.1477 265.858 93.1777 265.89 91.9348 264.686L82.8393 255.874C81.5963 254.67 81.5651 252.7 82.7692 251.457Z" fill="#898D44"/>
<path d="M105.093 251.103C106.336 252.307 106.367 254.277 105.163 255.52L96.352 264.616C95.1479 265.859 93.1779 265.89 91.935 264.686C90.692 263.482 90.6608 261.512 91.8649 260.269L100.676 251.173C101.88 249.93 103.85 249.899 105.093 251.103Z" fill="#898D44"/>
<path d="M183.641 241.789C185.589 241.789 187.157 243.759 187.157 246.206V260.269C187.157 262.716 185.589 264.686 183.641 264.686C181.693 264.686 180.125 262.716 180.125 260.269V246.206C180.125 243.759 181.693 241.789 183.641 241.789Z" fill="#ADB254"/>
<path d="M171.686 250.167C172.972 248.84 175.075 248.806 176.403 250.092L186.115 259.501C187.442 260.786 187.475 262.89 186.19 264.217C184.904 265.544 182.8 265.578 181.473 264.292L171.761 254.883C170.434 253.598 170.4 251.494 171.686 250.167Z" fill="#ADB254"/>
<path d="M195.523 249.788C196.85 251.074 196.883 253.178 195.598 254.505L186.189 264.217C184.903 265.544 182.799 265.578 181.472 264.292C180.145 263.006 180.112 260.903 181.397 259.575L190.806 249.863C192.092 248.536 194.195 248.503 195.523 249.788Z" fill="#ADB254"/>
<path d="M57.8344 258.317H239.109C247.803 258.317 254.803 265.317 254.803 274.011C254.803 282.705 247.803 289.705 239.109 289.705H57.8344C49.1401 289.705 42.1406 282.705 42.1406 274.011C42.1406 265.317 49.1401 258.317 57.8344 258.317Z" fill="#B78260"/>
<path d="M54.0482 258.317H242.895C249.492 258.317 254.803 263.628 254.803 270.225C254.803 276.821 249.492 282.132 242.895 282.132H54.0482C47.4514 282.132 42.1406 276.821 42.1406 270.225C42.1406 263.628 47.4514 258.317 54.0482 258.317Z" fill="#ADB254"/>
<path d="M94.4964 263.791H205.875C209.439 263.791 212.309 266.661 212.309 270.225C212.309 273.789 209.439 276.659 205.875 276.659H94.4964C90.932 276.659 88.0625 273.789 88.0625 270.225C88.0625 266.661 90.932 263.791 94.4964 263.791Z" fill="#919548"/>
<path d="M102.891 266.596H197.481C199.491 266.596 201.11 268.214 201.11 270.225C201.11 272.235 199.491 273.854 197.481 273.854H102.891C100.88 273.854 99.2617 272.235 99.2617 270.225C99.2617 268.214 100.88 266.596 102.891 266.596Z" fill="#7D813E"/>
<path d="M62.4189 183.037C66.4143 183.037 69.6308 186.254 69.6308 190.249V192.773C69.6308 196.769 66.4143 199.985 62.4189 199.985C58.4235 199.985 55.207 196.769 55.207 192.773V190.249C55.207 186.254 58.4235 183.037 62.4189 183.037Z" fill="#919548"/>
<path d="M63.3541 125.552C71.4058 125.552 77.8879 132.034 77.8879 140.086V150.285C77.8879 158.337 71.4058 164.819 63.3541 164.819C55.3024 164.819 48.8203 158.337 48.8203 150.285V140.086C48.8203 132.034 55.3024 125.552 63.3541 125.552Z" fill="#898D44"/>
<path d="M227.561 89.345C235.613 89.345 242.095 95.827 242.095 103.879V114.078C242.095 122.13 235.613 128.612 227.561 128.612C219.509 128.612 213.027 122.13 213.027 114.078V103.879C213.027 95.827 219.509 89.345 227.561 89.345Z" fill="#898D44"/>
<path d="M66.0953 239.963C67.9193 239.963 69.3878 241.808 69.3878 244.099V257.27C69.3878 259.561 67.9193 261.406 66.0953 261.406C64.2712 261.406 62.8027 259.561 62.8027 257.27V244.099C62.8027 241.808 64.2712 239.963 66.0953 239.963Z" fill="#ADB254"/>
<path d="M54.8981 247.809C56.1022 246.566 58.0721 246.535 59.3151 247.739L68.4106 256.55C69.6535 257.754 69.6848 259.724 68.4807 260.967C67.2766 262.21 65.3066 262.241 64.0637 261.037L54.9682 252.226C53.7252 251.022 53.694 249.052 54.8981 247.809Z" fill="#ADB254"/>
<path d="M77.2221 247.455C78.465 248.659 78.4963 250.629 77.2922 251.872L68.4809 260.967C67.2768 262.21 65.3068 262.241 64.0639 261.037C62.821 259.833 62.7897 257.863 63.9938 256.62L72.8051 247.525C74.0092 246.282 75.9792 246.251 77.2221 247.455Z" fill="#ADB254"/>
<path d="M57.4235 268.002C58.6275 266.759 60.5975 266.728 61.8405 267.932L70.936 276.743C72.1789 277.948 72.2102 279.918 71.0061 281.16C69.802 282.403 67.832 282.435 66.5891 281.231L57.4936 272.419C56.2506 271.215 56.2194 269.245 57.4235 268.002Z" fill="#919548"/>
<path d="M79.7475 267.648C80.9904 268.852 81.0217 270.822 79.8176 272.065L71.0063 281.16C69.8022 282.403 67.8322 282.435 66.5893 281.23C65.3463 280.026 65.3151 278.056 66.5192 276.813L75.3305 267.718C76.5345 266.475 78.5045 266.444 79.7475 267.648Z" fill="#919548"/>
<path d="M68.6187 260.156C70.4428 260.156 71.9113 262.001 71.9113 264.293V277.463C71.9113 279.755 70.4428 281.6 68.6187 281.6C66.7946 281.6 65.3262 279.755 65.3262 277.463V264.293C65.3262 262.001 66.7946 260.156 68.6187 260.156Z" fill="#919548"/>
<path d="M226.553 240.707C228.501 240.707 230.069 242.677 230.069 245.124V259.187C230.069 261.634 228.501 263.605 226.553 263.605C224.605 263.605 223.037 261.634 223.037 259.187V245.124C223.037 242.677 224.605 240.707 226.553 240.707Z" fill="#ADB254"/>
<path d="M214.596 249.085C215.882 247.758 217.986 247.724 219.313 249.01L229.025 258.419C230.352 259.705 230.386 261.808 229.1 263.135C227.814 264.463 225.711 264.496 224.383 263.21L214.671 253.802C213.344 252.516 213.31 250.412 214.596 249.085Z" fill="#ADB254"/>
<path d="M238.435 248.707C239.762 249.993 239.795 252.096 238.51 253.423L229.101 263.136C227.815 264.463 225.712 264.496 224.384 263.21C223.057 261.925 223.024 259.821 224.309 258.494L233.718 248.782C235.004 247.454 237.108 247.421 238.435 248.707Z" fill="#ADB254"/>
<path d="M232.664 258.071C234.612 258.071 236.18 260.041 236.18 262.488V276.551C236.18 278.998 234.612 280.969 232.664 280.969C230.716 280.969 229.148 278.998 229.148 276.551V262.488C229.148 260.041 230.716 258.071 232.664 258.071Z" fill="#919548"/>
<path d="M220.708 266.449C221.993 265.122 224.097 265.089 225.424 266.374L235.136 275.783C236.464 277.069 236.497 279.172 235.211 280.5C233.925 281.827 231.822 281.86 230.495 280.575L220.782 271.166C219.455 269.88 219.422 267.776 220.708 266.449Z" fill="#919548"/>
<path d="M244.546 266.071C245.873 267.357 245.907 269.46 244.621 270.787L235.212 280.5C233.926 281.827 231.823 281.86 230.496 280.574C229.168 279.289 229.135 277.185 230.421 275.858L239.83 266.146C241.115 264.818 243.219 264.785 244.546 266.071Z" fill="#919548"/>
<path d="M250.339 156.01C254.334 156.01 257.551 159.226 257.551 163.221V165.746C257.551 169.741 254.334 172.957 250.339 172.957C246.343 172.957 243.127 169.741 243.127 165.746V163.221C243.127 159.226 246.343 156.01 250.339 156.01Z" fill="#919548"/>
<path d="M235.784 156.914H236.294C238.095 156.914 239.545 158.364 239.545 160.165V160.803C239.545 162.604 238.095 164.054 236.294 164.054H235.784C233.983 164.054 232.533 162.604 232.533 160.803V160.165C232.533 158.364 233.983 156.914 235.784 156.914Z" fill="#919548"/>
<path d="M83.0224 87.4966C87.0178 87.4966 90.2343 90.7131 90.2343 94.7085V97.2326C90.2343 101.228 87.0178 104.445 83.0224 104.445C79.027 104.445 75.8105 101.228 75.8105 97.2326V94.7085C75.8105 90.7131 79.027 87.4966 83.0224 87.4966Z" fill="#9FA34F"/>
<path d="M68.4677 88.4014H68.9778C70.7788 88.4014 72.2287 89.8513 72.2287 91.6522V92.2899C72.2287 94.0909 70.7788 95.5408 68.9778 95.5408H68.4677C66.6667 95.5408 65.2168 94.0909 65.2168 92.2899V91.6522C65.2168 89.8513 66.6667 88.4014 68.4677 88.4014Z" fill="#9FA34F"/>
<path d="M222.933 58.6489C226.928 58.6489 230.144 61.8654 230.144 65.8608V68.385C230.144 72.3804 226.928 75.5969 222.933 75.5969C218.937 75.5969 215.721 72.3804 215.721 68.385V65.8608C215.721 61.8654 218.937 58.6489 222.933 58.6489Z" fill="#9FA34F"/>
<path d="M208.378 59.5537H208.888C210.689 59.5537 212.139 61.0036 212.139 62.8046V63.4422C212.139 65.2432 210.689 66.6931 208.888 66.6931H208.378C206.577 66.6931 205.127 65.2432 205.127 63.4422V62.8046C205.127 61.0036 206.577 59.5537 208.378 59.5537Z" fill="#9FA34F"/>
<path d="M45.2627 201.511C41.2673 201.511 38.0508 204.727 38.0508 208.723V211.247C38.0508 215.242 41.2673 218.459 45.2627 218.459C49.2581 218.459 52.4746 215.242 52.4746 211.247V208.723C52.4746 204.727 49.2581 201.511 45.2627 201.511Z" fill="#9FA34F"/>
<path d="M59.8175 202.416H59.3073C57.5063 202.416 56.0564 203.865 56.0564 205.666V206.304C56.0564 208.105 57.5063 209.555 59.3073 209.555H59.8175C61.6185 209.555 63.0684 208.105 63.0684 206.304V205.666C63.0684 203.865 61.6185 202.416 59.8175 202.416Z" fill="#9FA34F"/>
<path d="M138.367 92.489H156.584C164.818 92.489 171.447 99.1179 171.447 107.352V124.094C171.447 132.328 164.818 138.957 156.584 138.957H138.367C130.133 138.957 123.504 132.328 123.504 124.094V107.352C123.504 99.1179 130.133 92.489 138.367 92.489Z" fill="#8E6152" fill-opacity="0.996078"/>
<path d="M147.476 86.8772C159.285 86.8772 168.792 96.7064 168.792 108.916V133.741C168.792 145.95 159.285 155.779 147.476 155.779C135.667 155.779 126.16 145.95 126.16 133.741V108.916C126.16 96.7064 135.667 86.8772 147.476 86.8772Z" fill="#815848" fill-opacity="0.996078"/>
<path d="M146.917 129.371H147.71C160.842 129.371 168.31 140.906 170.465 154.832L171.415 160.967C173.568 174.881 160.842 186.428 147.71 186.428H146.917C133.785 186.428 121.059 174.881 123.212 160.967L124.162 154.832C126.317 140.906 133.785 129.371 146.917 129.371Z" fill="#815848"/>
<path d="M147.313 132.046C156.804 132.046 164.444 141.502 164.444 153.249V158.358C164.444 170.104 156.804 179.561 147.313 179.561C137.822 179.561 130.182 170.104 130.182 158.358V153.249C130.182 141.502 137.822 132.046 147.313 132.046Z" fill="#8E6051"/>
<path d="M147.63 64.1812C152.899 64.1812 157.14 71.8486 157.14 81.3728V88.4257C157.14 97.9499 152.899 105.617 147.63 105.617C142.361 105.617 138.119 97.9499 138.119 88.4257V81.3728C138.119 71.8486 142.361 64.1812 147.63 64.1812Z" fill="#9D6B5A"/>
<path d="M123.506 96.7926C119.622 95.5222 115.334 98.0706 113.891 102.507L106.077 126.528C104.634 130.964 106.599 135.558 110.483 136.829C114.367 138.099 118.656 135.551 120.099 131.115L127.913 107.093C129.356 102.657 127.391 98.0631 123.506 96.7926Z" fill="#8E6051"/>
<path d="M171.101 98.0678C174.985 96.7973 179.274 99.3457 180.717 103.782L188.531 127.803C189.974 132.239 188.008 136.833 184.124 138.104C180.24 139.374 175.951 136.826 174.508 132.39L166.694 108.368C165.252 103.932 167.217 99.3383 171.101 98.0678Z" fill="#8E6051"/>
<path d="M123.91 93.676H171.043C175.714 93.676 179.475 97.4365 179.475 102.108C179.475 106.779 175.714 110.539 171.043 110.539H123.91C119.239 110.539 115.479 106.779 115.479 102.108C115.479 97.4365 119.239 93.676 123.91 93.676Z" fill="#9D6B5A"/>
<path d="M145.91 65.4688H149.351C153.313 65.4688 156.503 69.9283 156.503 75.4678V79.5699C156.503 85.1094 153.313 89.5689 149.351 89.5689H145.91C141.948 89.5689 138.758 85.1094 138.758 79.5699V75.4678C138.758 69.9283 141.948 65.4688 145.91 65.4688Z" fill="#815848"/>
<path d="M138.686 92.489H156.267C166.09 92.489 173.998 100.177 173.998 109.726C173.998 119.276 166.09 126.964 156.267 126.964H138.686C128.863 126.964 120.955 119.276 120.955 109.726C120.955 100.177 128.863 92.489 138.686 92.489Z" fill="#9D6B5A"/>
<path d="M130.129 56.0989H165.841C169.937 56.0989 173.234 59.3961 173.234 63.4918C173.234 67.5875 169.937 70.8848 165.841 70.8848H130.129C126.034 70.8848 122.736 67.5875 122.736 63.4918C122.736 59.3961 126.034 56.0989 130.129 56.0989Z" fill="#8E6051"/>
<path d="M147.143 148.175C147.732 148.175 148.207 148.649 148.207 149.238V150.858C148.207 151.447 147.732 151.921 147.143 151.921C146.554 151.921 146.08 151.447 146.08 150.858V149.238C146.08 148.649 146.554 148.175 147.143 148.175Z" fill="#815848"/>
<path d="M147.973 116.032C150.409 116.032 152.371 117.993 152.371 120.43V124.51C152.371 126.946 150.409 128.908 147.973 128.908C145.536 128.908 143.574 126.946 143.574 124.51V120.43C143.574 117.993 145.536 116.032 147.973 116.032Z" fill="#815848" fill-opacity="0.996078"/>
<path d="M136.863 109.084C135.699 109.084 134.621 109.432 133.722 110.028C130.735 110.222 127.935 111.522 125.89 113.665C123.844 115.808 122.706 118.633 122.705 121.568C122.705 124.636 123.948 127.578 126.161 129.747C128.373 131.916 131.373 133.135 134.502 133.135C137.352 133.131 140.104 132.117 142.25 130.278C144.396 128.439 145.791 125.901 146.177 123.132C146.256 122.752 146.299 122.359 146.299 121.955V121.568V114.767C146.299 111.618 143.764 109.084 140.616 109.084H136.863ZM154.336 109.084C151.188 109.084 148.653 111.618 148.653 114.767V121.568V121.955C148.653 122.359 148.696 122.752 148.775 123.132C149.161 125.901 150.555 128.439 152.701 130.278C154.847 132.117 157.6 133.131 160.45 133.135C163.578 133.135 166.579 131.916 168.791 129.747C171.003 127.578 172.246 124.636 172.247 121.568C172.246 118.633 171.108 115.808 169.062 113.665C167.016 111.522 164.217 110.222 161.23 110.028C160.331 109.432 159.252 109.084 158.088 109.084H154.336Z" fill="#9D6B5A"/>
<path d="M135.016 94.2485C134.287 94.2485 133.699 94.8359 133.699 95.5656C133.699 96.2952 134.287 96.8826 135.016 96.8826H142.34L144.443 98.415C145.035 98.8461 145.858 98.7171 146.289 98.1257C146.72 97.5343 146.591 96.7113 145.999 96.2802L143.823 94.6934C143.8 94.677 143.775 94.667 143.752 94.6522C143.513 94.404 143.178 94.2485 142.805 94.2485H135.016ZM152.145 94.2485C151.772 94.2485 151.437 94.404 151.198 94.6522C151.175 94.667 151.15 94.677 151.127 94.6934L148.951 96.2802C148.359 96.7113 148.23 97.5343 148.661 98.1257C149.092 98.7171 149.915 98.8461 150.507 98.415L152.61 96.8826H159.934C160.663 96.8826 161.251 96.2952 161.251 95.5656C161.251 94.8359 160.663 94.2485 159.934 94.2485H152.145Z" fill="#815747"/>
<path d="M137.424 109.783C139.931 109.783 141.948 111.801 141.948 114.307V114.88C141.948 117.386 139.931 119.404 137.424 119.404C134.918 119.404 132.9 117.386 132.9 114.88V114.307C132.9 111.801 134.918 109.783 137.424 109.783Z" fill="#AB7969" fill-opacity="0.996078"/>
<path d="M157.76 109.783C155.254 109.783 153.236 111.801 153.236 114.307V114.88C153.236 117.386 155.254 119.404 157.76 119.404C160.267 119.404 162.284 117.386 162.284 114.88V114.307C162.284 111.801 160.267 109.783 157.76 109.783Z" fill="#AB7969" fill-opacity="0.996078"/>
<path d="M130.388 57.9785H165.58C168.634 57.9785 171.093 60.4375 171.093 63.4919C171.093 66.5463 168.634 69.0053 165.58 69.0053H130.388C127.334 69.0053 124.875 66.5463 124.875 63.4919C124.875 60.4375 127.334 57.9785 130.388 57.9785Z" fill="#815848"/>
<path d="M143.972 35.3188H152C158.672 35.3188 169.224 44.7388 169.224 54.0027V67.1475C169.224 76.4114 159.333 86.5504 152.248 86.5504H143.724C136.639 86.5504 126.748 76.4114 126.748 67.1475V54.0027C126.748 44.7388 137.3 35.3188 143.972 35.3188Z" fill="#9D6B5A"/>
<path d="M136.284 207.64C130.524 207.64 125.887 211.698 125.887 216.737V227.521C126.643 232.845 128.596 233.85 128.596 239.091C128.596 246.726 130.182 252.52 131.714 262.887L141.559 263.597C142.216 263.644 142.857 263.522 143.471 263.389C144.793 263.103 145.759 261.667 145.759 259.987L146.385 229.919C146.578 229.08 146.682 228.269 146.682 227.521V216.737C146.682 211.698 142.045 207.64 136.284 207.64Z" fill="#815848"/>
<path d="M137.072 169.141C128.952 169.141 122.301 182.953 122.301 187.948V198.526C122.301 203.521 128.952 217.331 137.072 217.331H140.577C141.454 217.331 142.306 217.249 143.123 217.103C144.884 216.789 146.169 215.214 146.169 213.372V173.1C146.169 171.258 144.884 169.683 143.123 169.369C142.306 169.223 141.454 169.141 140.577 169.141H137.072Z" fill="#8E6051"/>
<path d="M134.02 157.52C140.962 157.52 146.551 162.902 146.551 169.587V188.799C146.551 195.485 140.962 200.867 134.02 200.867C127.077 200.867 121.488 195.485 121.488 188.799V169.587C121.488 162.902 127.077 157.52 134.02 157.52Z" fill="#9D6B5A"/>
<path d="M142.282 181.826C144.118 181.826 145.596 183.119 145.596 184.726V189.856C145.596 191.462 144.118 192.756 142.282 192.756C140.445 192.756 138.967 191.462 138.967 189.856V184.726C138.967 183.119 140.445 181.826 142.282 181.826Z" fill="#AB7868"/>
<path d="M138.652 207.195C142.048 207.195 144.782 209.586 144.782 212.557V215.081C144.782 218.051 142.048 220.443 138.652 220.443C135.256 220.443 132.521 218.051 132.521 215.081V212.557C132.521 209.586 135.256 207.195 138.652 207.195Z" fill="#9D6B5A"/>
<path d="M133.04 253.274H140.093C144.172 253.274 147.457 256.798 147.457 261.175C147.457 265.552 144.172 269.075 140.093 269.075H133.04C128.96 269.075 125.676 265.552 125.676 261.175C125.676 256.798 128.96 253.274 133.04 253.274Z" fill="#9D6B5A"/>
<path d="M128.114 260.421H145.018C146.369 260.421 147.457 261.588 147.457 263.037V266.459C147.457 267.908 146.369 269.075 145.018 269.075H128.114C126.763 269.075 125.676 267.908 125.676 266.459V263.037C125.676 261.588 126.763 260.421 128.114 260.421Z" fill="#9D6B5A"/>
<path d="M140.216 256.041H141.83C143.13 256.041 144.176 257.164 144.176 258.559C144.176 259.954 143.13 261.077 141.83 261.077H140.216C138.916 261.077 137.869 259.954 137.869 258.559C137.869 257.164 138.916 256.041 140.216 256.041Z" fill="#AB7868"/>
<path d="M158.669 207.64C164.429 207.64 169.066 211.698 169.066 216.737V227.521C168.31 232.845 166.357 233.85 166.357 239.091C166.357 246.726 164.771 252.52 163.239 262.887L153.394 263.597C152.737 263.644 152.096 263.522 151.482 263.389C150.16 263.103 149.194 261.667 149.194 259.987L148.568 229.919C148.375 229.08 148.271 228.269 148.271 227.521V216.737C148.271 211.698 152.909 207.64 158.669 207.64Z" fill="#815848"/>
<path d="M157.879 169.141C166 169.141 172.65 182.953 172.65 187.948V198.526C172.65 203.521 165.999 217.331 157.879 217.331H154.374C153.497 217.331 152.645 217.249 151.828 217.103C150.068 216.789 148.782 215.214 148.782 213.372V173.1C148.782 171.258 150.068 169.683 151.828 169.369C152.645 169.223 153.497 169.141 154.374 169.141H157.879Z" fill="#8E6051"/>
<path d="M160.932 157.52C153.989 157.52 148.4 162.902 148.4 169.587V188.799C148.4 195.485 153.989 200.867 160.932 200.867C167.874 200.867 173.463 195.485 173.463 188.799V169.587C173.463 162.902 167.874 157.52 160.932 157.52Z" fill="#9D6B5A"/>
<path d="M168.222 181.316C166.386 181.316 164.908 182.609 164.908 184.216V189.346C164.908 190.952 166.386 192.246 168.222 192.246C170.059 192.246 171.537 190.952 171.537 189.346V184.216C171.537 182.609 170.059 181.316 168.222 181.316Z" fill="#AB7868"/>
<path d="M156.3 207.195C152.904 207.195 150.169 209.586 150.169 212.557V215.081C150.169 218.051 152.904 220.443 156.3 220.443C159.696 220.443 162.43 218.051 162.43 215.081V212.557C162.43 209.586 159.696 207.195 156.3 207.195Z" fill="#9D6B5A"/>
<path d="M161.911 253.274H154.858C150.779 253.274 147.494 256.798 147.494 261.175C147.494 265.552 150.779 269.075 154.858 269.075H161.911C165.991 269.075 169.275 265.552 169.275 261.175C169.275 256.798 165.991 253.274 161.911 253.274Z" fill="#9D6B5A"/>
<path d="M166.837 260.421H149.933C148.582 260.421 147.494 261.588 147.494 263.037V266.459C147.494 267.908 148.582 269.075 149.933 269.075H166.837C168.188 269.075 169.275 267.908 169.275 266.459V263.037C169.275 261.588 168.188 260.421 166.837 260.421Z" fill="#9D6B5A"/>
<path d="M163.532 255.276H161.919C160.618 255.276 159.572 256.399 159.572 257.794C159.572 259.189 160.618 260.312 161.919 260.312H163.532C164.832 260.312 165.879 259.189 165.879 257.794C165.879 256.399 164.832 255.276 163.532 255.276Z" fill="#AB7868"/>
<path d="M123.656 158.526C122.613 158.526 121.773 159.453 121.773 160.603C122.71 174.621 138.58 187.895 147.967 188.181C161.6 184.495 173.153 174.948 173.153 160.671C173.161 160.583 173.172 160.496 173.178 160.408H173.174H173.144C173.055 159.349 172.253 158.526 171.27 158.526H123.656Z" fill="#4F4F4F"/>
<path d="M123.605 96.8293H126.309C127.757 96.8293 128.923 97.9953 128.923 99.4437V99.8944C128.923 101.343 127.757 102.509 126.309 102.509H123.605C122.156 102.509 120.99 101.343 120.99 99.8944V99.4437C120.99 97.9953 122.156 96.8293 123.605 96.8293Z" fill="#AB7868"/>
<path d="M169.63 95.427H172.334C173.783 95.427 174.949 96.593 174.949 98.0413V98.4921C174.949 99.9404 173.783 101.106 172.334 101.106H169.63C168.182 101.106 167.016 99.9404 167.016 98.4921V98.0413C167.016 96.593 168.182 95.427 169.63 95.427Z" fill="#AB7868"/>
<path d="M126.576 116.823C125.267 116.334 123.845 119.255 122.622 119.737C122.514 120.359 122.456 120.989 122.451 121.621C122.452 128.08 127.787 133.315 134.369 133.315C137.698 133.307 140.871 131.933 143.121 129.527C143.002 123.669 137.884 121.047 132.372 118.988L126.576 116.823ZM162.255 118.988C156.855 121.006 151.814 123.481 151.515 129.172C153.772 131.791 157.088 133.306 160.584 133.315C167.166 133.315 172.502 128.08 172.503 121.621C172.497 121.038 172.448 120.457 172.355 119.881C171.038 119.308 169.486 116.286 168.05 116.823L162.255 118.988Z" fill="#444444"/>
<path d="M142.806 127.134H152.633C153.232 127.134 153.714 127.617 153.714 128.216C153.714 128.815 153.232 129.298 152.633 129.298H142.806C142.207 129.298 141.725 128.815 141.725 128.216C141.725 127.617 142.207 127.134 142.806 127.134Z" fill="#444444"/>
<path d="M168.107 116.762C168.018 116.769 167.928 116.789 167.84 116.822L162.103 118.964C157.574 120.655 153.302 122.671 151.922 126.672C154.135 128.96 157.214 130.271 160.45 130.279C166.447 130.279 171.395 125.89 172.145 120.21C172.129 120.089 172.12 119.968 172.1 119.847C170.878 119.316 169.452 116.655 168.107 116.762H168.107ZM126.544 116.77C125.317 116.69 124.009 119.258 122.875 119.704C122.847 119.861 122.824 120.019 122.803 120.176C123.537 125.873 128.493 130.279 134.502 130.279C137.608 130.271 140.577 129.062 142.774 126.929C141.476 122.809 137.14 120.687 132.525 118.964L126.788 116.822C126.707 116.792 126.626 116.775 126.544 116.77Z" fill="#4F4F4F"/>
<path d="M143.723 133.931H140.793C139.456 133.931 138.371 134.959 138.371 136.227V138.886C138.371 140.153 139.456 141.181 140.793 141.181H143.723C145.061 141.181 146.145 140.153 146.145 138.886V136.227C146.145 134.959 145.061 133.931 143.723 133.931Z" fill="#9D6B5A"/>
<path d="M143.722 141.963H139.26C137.922 141.963 136.838 142.991 136.838 144.259V146.917C136.838 148.185 137.922 149.213 139.26 149.213H143.722C145.06 149.213 146.145 148.185 146.145 146.917V144.259C146.145 142.991 145.06 141.963 143.722 141.963Z" fill="#9D6B5A"/>
<path d="M143.722 149.823H139.26C137.922 149.823 136.838 150.851 136.838 152.119V154.778C136.838 156.046 137.922 157.073 139.26 157.073H143.722C145.06 157.073 146.145 156.046 146.145 154.778V152.119C146.145 150.851 145.06 149.823 143.722 149.823Z" fill="#9D6B5A"/>
<path d="M150.888 133.931H153.818C155.156 133.931 156.24 134.959 156.24 136.227V138.886C156.24 140.153 155.156 141.181 153.818 141.181H150.888C149.551 141.181 148.466 140.153 148.466 138.886V136.227C148.466 134.959 149.551 133.931 150.888 133.931Z" fill="#9D6B5A"/>
<path d="M150.889 141.963H155.351C156.689 141.963 157.773 142.991 157.773 144.259V146.917C157.773 148.185 156.689 149.213 155.351 149.213H150.889C149.551 149.213 148.467 148.185 148.467 146.917V144.259C148.467 142.991 149.551 141.963 150.889 141.963Z" fill="#9D6B5A"/>
<path d="M150.889 149.823H155.351C156.689 149.823 157.773 150.851 157.773 152.119V154.778C157.773 156.046 156.689 157.073 155.351 157.073H150.889C149.551 157.073 148.467 156.046 148.467 154.778V152.119C148.467 150.851 149.551 149.823 150.889 149.823Z" fill="#9D6B5A"/>
<path d="M103.617 131.289L103.684 132.287C103.995 136.935 107.991 140.426 112.643 140.114L121.777 139.503C126.429 139.192 129.923 135.2 129.612 130.553L129.545 129.554C129.233 124.907 125.238 121.416 120.586 121.727L111.452 122.338C106.8 122.649 103.305 126.641 103.617 131.289Z" fill="#9D6B5A"/>
<path d="M118.928 130.324C119.187 134.189 122.883 137.066 127.215 136.777L135.439 136.227C139.771 135.937 143.05 132.593 142.791 128.729C142.532 124.865 138.836 121.987 134.504 122.277L126.28 122.827C121.948 123.116 118.669 126.46 118.928 130.324Z" fill="#9D6B5A"/>
<path d="M107.883 135.011C108.015 136.981 109.708 138.461 111.68 138.329L114.73 138.125C116.701 137.993 118.182 136.301 118.05 134.331C117.918 132.362 116.225 130.882 114.254 131.014L111.203 131.218C109.232 131.35 107.751 133.042 107.883 135.011Z" fill="#AB7868"/>
<path d="M129.866 129.378L129.916 130.126C130.155 133.703 133.227 136.389 136.803 136.149C140.379 135.91 143.065 132.838 142.826 129.261L142.776 128.513C142.536 124.937 139.465 122.25 135.889 122.49C132.313 122.729 129.626 125.801 129.866 129.378Z" fill="#8E6051"/>
<path d="M140.91 127.234C144.485 126.399 149.511 127.394 150.179 130.181L151.998 137.769C152.666 140.555 148.716 144.047 145.142 144.882C141.567 145.717 138.152 144.146 137.484 141.36L135.664 133.772C134.996 130.985 137.336 128.07 140.91 127.234L140.91 127.234Z" fill="#815848"/>
<path d="M142.181 124.416C142.689 122.643 144.524 121.624 146.297 122.132L151.125 123.513C152.898 124.021 153.917 125.857 153.409 127.63C152.902 129.403 151.066 130.421 149.293 129.914L144.466 128.532C142.693 128.025 141.674 126.189 142.181 124.416Z" fill="#8E6051"/>
<path d="M133.804 126.619L135.18 124.968C137.825 121.794 142.509 121.368 145.684 124.013L148.495 126.355C151.67 129 152.096 133.685 149.451 136.86L148.075 138.511C145.43 141.685 140.745 142.111 137.571 139.466L134.759 137.124C131.585 134.479 131.159 129.794 133.804 126.619Z" fill="#9D6B5A"/>
<path d="M187.978 126.756L188.746 127.4C192.323 130.397 192.79 135.689 189.793 139.266L183.909 146.289C180.912 149.865 175.62 150.332 172.043 147.335L171.275 146.692C167.698 143.695 167.231 138.402 170.228 134.826L176.112 127.803C179.109 124.226 184.401 123.759 187.978 126.756Z" fill="#9D6B5A"/>
<path d="M178.157 138.544C181.131 141.036 181.28 145.724 178.49 149.054L173.193 155.376C170.403 158.706 165.762 159.381 162.787 156.888C159.812 154.396 159.663 149.708 162.454 146.378L167.751 140.056C170.541 136.726 175.182 136.051 178.157 138.544Z" fill="#8E6051"/>
<path d="M188.469 132.409C189.984 133.679 190.182 135.922 188.912 137.438L186.947 139.783C185.677 141.299 183.434 141.497 181.918 140.227C180.403 138.956 180.205 136.714 181.475 135.198L183.44 132.852C184.71 131.337 186.953 131.139 188.469 132.409Z" fill="#AB7868"/>
<path d="M170.936 146.814L171.512 147.296C174.262 149.601 174.621 153.671 172.317 156.422C170.012 159.173 165.942 159.532 163.191 157.227L162.615 156.745C159.864 154.44 159.505 150.37 161.81 147.619C164.115 144.868 168.185 144.509 170.936 146.814Z" fill="#8E6051"/>
<path d="M170.483 145.272C172.239 147.485 171.872 150.681 169.659 152.437L164.367 156.638C162.154 158.394 158.959 158.027 157.202 155.814C155.446 153.601 155.813 150.406 158.026 148.649L163.318 144.449C165.531 142.692 168.727 143.059 170.483 145.272Z" fill="#9D6B5A"/>
<path d="M168.51 139.773C169.847 140.089 170.668 141.42 170.351 142.756L169.396 146.791C169.08 148.128 167.749 148.949 166.413 148.633C165.076 148.316 164.255 146.986 164.571 145.649L165.527 141.614C165.843 140.277 167.174 139.456 168.51 139.773Z" fill="#9D6B5A"/>
<path d="M168.544 146.584C169.396 149.277 167.914 152.132 165.22 152.984L158.778 155.022C156.084 155.874 153.23 154.392 152.378 151.698C151.525 149.004 153.008 146.15 155.702 145.298L162.144 143.26C164.837 142.408 167.692 143.89 168.544 146.584Z" fill="#AB7868"/>
<path d="M146.18 81.5603H148.492C148.678 81.5603 148.827 81.6907 148.827 81.8527V82.0249C148.827 82.1869 148.678 82.3172 148.492 82.3172H146.18C145.995 82.3172 145.846 82.1869 145.846 82.0249V81.8527C145.846 81.6907 145.995 81.5603 146.18 81.5603Z" fill="#815848"/>
<path d="M147.986 60.7461C149.403 60.7461 150.543 61.9522 150.543 63.4503V68.2225C150.543 69.7206 149.403 70.9267 147.986 70.9267C146.569 70.9267 145.428 69.7206 145.428 68.2225V63.4503C145.428 61.9522 146.569 60.7461 147.986 60.7461Z" fill="#8E6051"/>
<path d="M150.405 80.7438C152.407 80.7438 154.018 77.8833 154.018 74.3293V73.2913H141.852V74.3293C141.852 77.8833 143.463 80.7438 145.464 80.7438H150.405Z" fill="#CB8868"/>
<path d="M141.538 73.1165C141.241 73.1165 140.956 73.2119 140.746 73.3817C140.536 73.5514 140.418 73.7817 140.418 74.0218V74.7038C140.418 76.0492 140.897 77.2812 141.744 78.2215C142.59 79.1618 143.871 79.8271 145.336 79.8271H150.533C151.998 79.8271 153.279 79.1618 154.126 78.2215C154.973 77.2812 155.452 76.0492 155.452 74.7038V74.0218C155.452 73.7817 155.334 73.5514 155.124 73.3817C154.914 73.2119 154.629 73.1165 154.332 73.1165H141.538Z" fill="white"/>
<path d="M132.518 67.1013C131.123 67.1013 130 68.224 130 69.6189C130 71.0139 131.123 72.1372 132.518 72.1372H136.068C137.463 72.1372 138.586 71.0139 138.586 69.6189C138.586 68.224 137.463 67.1013 136.068 67.1013H132.518ZM159.801 67.1013C158.406 67.1013 157.283 68.224 157.283 69.6189C157.283 71.0139 158.406 72.1372 159.801 72.1372H163.351C164.746 72.1372 165.869 71.0139 165.869 69.6189C165.869 68.224 164.746 67.1013 163.351 67.1013H159.801Z" fill="#AB7868"/>
<path d="M152.246 67.8598C152.246 69.0528 151.236 70.0132 149.982 70.0132H145.987C144.732 70.0132 143.723 69.0528 143.723 67.8598C143.723 66.6667 144.732 65.7063 145.987 65.7063H149.982C151.236 65.7063 152.246 66.6667 152.246 67.8598Z" fill="#8E6051"/>
<path d="M148.403 66.687H148.722C149.473 66.687 150.077 67.2911 150.077 68.0416C150.077 68.792 149.473 69.3962 148.722 69.3962H148.403C147.653 69.3962 147.049 68.792 147.049 68.0416C147.049 67.2911 147.653 66.687 148.403 66.687Z" fill="#9D6B5A"/>
<path d="M135.821 66.3142H136.362C136.786 66.3142 137.128 66.656 137.128 67.0805C137.128 67.505 136.786 67.8467 136.362 67.8467H135.821C135.396 67.8467 135.055 67.505 135.055 67.0805C135.055 66.656 135.396 66.3142 135.821 66.3142Z" fill="#B78B7E"/>
<path d="M162.956 66.3142H163.497C163.921 66.3142 164.263 66.656 164.263 67.0805C164.263 67.505 163.921 67.8467 163.497 67.8467H162.956C162.531 67.8467 162.189 67.505 162.189 67.0805C162.189 66.656 162.531 66.3142 162.956 66.3142Z" fill="#B78B7E"/>
<path d="M137.989 56.5996H142.101C143.628 56.5996 144.858 57.8291 144.858 59.3564C144.858 60.8837 143.628 62.1132 142.101 62.1132H137.989C136.462 62.1132 135.232 60.8837 135.232 59.3564C135.232 57.8291 136.462 56.5996 137.989 56.5996Z" fill="#8E6051"/>
<path d="M135.362 54.8884L142.557 55.4751C143.339 55.5389 143.918 56.2202 143.854 57.0026C143.79 57.785 143.109 58.3635 142.327 58.2997L135.132 57.7129C134.35 57.6491 133.771 56.9679 133.835 56.1855C133.899 55.4031 134.58 54.8245 135.362 54.8884Z" fill="#4D4D4D"/>
<path d="M140.623 59.1772L141.546 58.4437C141.775 58.2625 142.104 58.3002 142.285 58.5283C142.467 58.7565 142.429 59.086 142.201 59.2672L141.277 60.0008C141.049 60.182 140.72 60.1443 140.538 59.9161C140.357 59.688 140.395 59.3585 140.623 59.1772H140.623Z" fill="#61534B"/>
<path d="M132.928 56.164L134.344 55.2243C134.918 54.8434 135.686 54.9987 136.067 55.5725C136.448 56.1464 136.293 56.915 135.719 57.2959L134.304 58.2356C133.73 58.6165 132.961 58.4612 132.58 57.8874C132.199 57.3135 132.355 56.5449 132.928 56.164Z" fill="#4D4D4D"/>
<path d="M138.748 58.8442H139.689C140.544 58.8442 141.232 59.5322 141.232 60.3867V62.5586C141.232 63.4132 140.544 64.1011 139.689 64.1011H138.748C137.893 64.1011 137.205 63.4132 137.205 62.5586V60.3867C137.205 59.5322 137.893 58.8442 138.748 58.8442Z" fill="#61534B"/>
<path d="M157.983 56.5996H153.872C152.344 56.5996 151.115 57.8291 151.115 59.3564C151.115 60.8837 152.344 62.1132 153.872 62.1132H157.983C159.511 62.1132 160.74 60.8837 160.74 59.3564C160.74 57.8291 159.511 56.5996 157.983 56.5996Z" fill="#8E6051"/>
<path d="M160.61 54.8884L153.416 55.4751C152.633 55.5389 152.055 56.2202 152.119 57.0026C152.182 57.785 152.864 58.3635 153.646 58.2997L160.841 57.7129C161.623 57.6491 162.202 56.9679 162.138 56.1855C162.074 55.4031 161.393 54.8245 160.61 54.8884Z" fill="#4D4D4D"/>
<path d="M157.948 59.3684L158.871 58.6349C159.099 58.4536 159.429 58.4914 159.61 58.7195C159.791 58.9476 159.753 59.2772 159.525 59.4584L158.602 60.192C158.374 60.3732 158.044 60.3354 157.863 60.1073C157.682 59.8792 157.72 59.5496 157.948 59.3684H157.948Z" fill="#61534B"/>
<path d="M163.044 56.1637L161.629 55.2241C161.055 54.8432 160.286 54.9985 159.905 55.5723C159.524 56.1461 159.68 56.9147 160.254 57.2957L161.669 58.2353C162.243 58.6162 163.012 58.4609 163.393 57.8871C163.773 57.3133 163.618 56.5447 163.044 56.1637Z" fill="#4D4D4D"/>
<path d="M157.225 58.8442H156.284C155.429 58.8442 154.741 59.5322 154.741 60.3867V62.5586C154.741 63.4132 155.429 64.1011 156.284 64.1011H157.225C158.08 64.1011 158.768 63.4132 158.768 62.5586V60.3867C158.768 59.5322 158.08 58.8442 157.225 58.8442Z" fill="#61534B"/>
<path d="M137.858 72.5034L139.257 71.1078C139.582 70.7836 140.105 70.7842 140.429 71.1092C140.753 71.4343 140.753 71.9569 140.428 72.2812L139.029 73.6768C138.704 74.001 138.181 74.0003 137.857 73.6753C137.533 73.3503 137.533 72.8276 137.858 72.5034Z" fill="#8E6051"/>
<path d="M158.468 72.7583L157.069 71.3627C156.744 71.0385 156.221 71.0391 155.897 71.3641C155.573 71.6891 155.573 72.2118 155.898 72.536L157.298 73.9316C157.623 74.2559 158.145 74.2552 158.469 73.9302C158.794 73.6052 158.793 73.0825 158.468 72.7583Z" fill="#8E6051"/>
<path d="M147.203 75.825C146.841 75.825 146.549 76.1162 146.549 76.4782C146.549 76.8403 146.841 77.1322 147.203 77.1322H154.873C155.082 76.7238 155.236 76.2854 155.332 75.825H147.203Z" fill="#E6E6E6"/>
<path d="M154.35 28.4966H141.615C138.361 28.4966 135.723 31.1349 135.723 34.3894V37.3882C135.723 40.6427 138.361 43.281 141.615 43.281H154.35C157.605 43.281 160.243 40.6427 160.243 37.3882V34.3894C160.243 31.1349 157.605 28.4966 154.35 28.4966Z" fill="#3B3B3B"/>
<path d="M144.591 33.1892C132.988 33.1892 123.646 42.5298 123.646 54.1326C123.646 58.537 124.995 62.6136 127.3 65.9789V57.0783C127.3 53.7594 128.952 50.4193 131.348 47.6061L140.437 47.5901C144.098 47.5837 147.045 44.6427 147.045 40.982C147.045 40.7689 147.033 40.5588 147.013 40.351H148.96C148.94 40.5588 148.928 40.7689 148.928 40.982C148.928 44.6427 151.875 47.5837 155.536 47.5901L164.646 47.6061C167.042 50.4193 168.694 53.7594 168.694 57.0783V65.9789C170.999 62.6136 172.348 58.537 172.348 54.1326C172.348 42.5298 163.006 33.1892 151.404 33.1892H144.591Z" fill="#444444"/>
<path d="M147.982 33.8557C147.46 33.8557 147.039 34.7613 147.039 35.8867V40.24C147.039 40.2835 147.043 40.3242 147.044 40.3669H148.919C148.921 40.3242 148.925 40.2835 148.925 40.24V35.8867C148.925 34.7613 148.504 33.8557 147.982 33.8557H147.982Z" fill="#3B3B3B"/>
<path d="M126.526 64.7891C126.397 64.7896 126.271 64.827 126.162 64.8971C124.271 66.0775 123.145 67.7298 122.947 69.4954C122.749 71.261 123.494 73.0762 125.071 74.5284C125.136 74.5927 125.212 74.6432 125.296 74.6771C125.381 74.711 125.471 74.7275 125.562 74.7257C125.653 74.7239 125.742 74.7037 125.825 74.6664C125.908 74.6291 125.982 74.5755 126.044 74.5087C126.106 74.442 126.153 74.3634 126.184 74.2779C126.214 74.1923 126.227 74.1015 126.222 74.0108C126.216 73.9201 126.192 73.8315 126.152 73.7501C126.111 73.6688 126.055 73.5966 125.986 73.5376C124.658 72.3153 124.143 70.9454 124.289 69.6456C124.434 68.3458 125.256 67.0524 126.876 66.0407C127.002 65.9644 127.1 65.8488 127.154 65.7118C127.208 65.5747 127.216 65.4237 127.176 65.2818C127.137 65.1399 127.052 65.0149 126.934 64.9259C126.817 64.8369 126.673 64.7889 126.526 64.7891Z" fill="#444444"/>
<path d="M169.34 64.5977C169.195 64.6019 169.055 64.6532 168.941 64.7438C168.826 64.8344 168.745 64.9595 168.708 65.1003C168.671 65.2412 168.68 65.3903 168.735 65.5253C168.79 65.6603 168.886 65.774 169.011 65.8493C170.632 66.861 171.453 68.1544 171.599 69.4542C171.745 70.754 171.229 72.1239 169.902 73.3462C169.833 73.4052 169.776 73.4774 169.736 73.5587C169.695 73.64 169.671 73.7287 169.666 73.8194C169.66 73.9101 169.673 74.0009 169.704 74.0865C169.734 74.1721 169.782 74.2506 169.843 74.3174C169.905 74.3841 169.98 74.4378 170.062 74.475C170.145 74.5123 170.235 74.5325 170.326 74.5343C170.416 74.5362 170.507 74.5196 170.591 74.4857C170.675 74.4518 170.752 74.4013 170.816 74.337C172.393 72.8848 173.138 71.0696 172.94 69.304C172.742 67.5384 171.616 65.8861 169.725 64.7057C169.611 64.6317 169.477 64.594 169.34 64.5977V64.5977Z" fill="#444444"/>
<path d="M145.521 24.9341C145.438 24.9339 145.356 24.949 145.278 24.9787C145.278 24.9787 144.448 25.277 143.756 26.051C143.063 26.825 142.507 28.1583 142.962 29.9275C143.007 30.1008 143.119 30.2493 143.273 30.3402C143.427 30.4311 143.611 30.4571 143.785 30.4123C143.958 30.3676 144.106 30.2558 144.197 30.1016C144.288 29.9474 144.314 29.7634 144.269 29.59C143.913 28.204 144.305 27.4632 144.762 26.9525C145.219 26.4418 145.742 26.2462 145.742 26.2462C145.893 26.194 146.02 26.0901 146.101 25.9528C146.183 25.8156 146.213 25.654 146.186 25.4967C146.16 25.3394 146.079 25.1965 145.957 25.0935C145.835 24.9905 145.681 24.934 145.521 24.9341ZM158.709 25.7484C158.604 25.7529 158.5 25.7822 158.408 25.8341C158.315 25.8859 158.237 25.9588 158.178 26.0467C158.119 26.1347 158.081 26.2354 158.068 26.3405C158.055 26.4457 158.067 26.5524 158.103 26.652C158.103 26.652 158.226 26.91 157.982 27.4266C157.738 27.9432 157.059 28.7247 155.036 29.3586C154.948 29.3812 154.864 29.4217 154.792 29.4776C154.719 29.5335 154.658 29.6036 154.614 29.6837C154.569 29.7638 154.541 29.8521 154.532 29.9433C154.523 30.0345 154.532 30.1266 154.559 30.2141C154.587 30.3016 154.632 30.3826 154.691 30.4521C154.751 30.5216 154.824 30.5782 154.907 30.6185C154.989 30.6587 155.079 30.6818 155.171 30.6862C155.262 30.6906 155.354 30.6763 155.439 30.6442C157.688 29.9395 158.761 28.9375 159.202 28.0039C159.643 27.0703 159.381 26.2121 159.381 26.2121C159.336 26.0721 159.245 25.951 159.124 25.8672C159.003 25.7835 158.857 25.7418 158.71 25.7484H158.709ZM151.007 25.8112C150.896 25.8141 150.786 25.8446 150.69 25.9001C150.593 25.9556 150.511 26.0343 150.452 26.1291C150.393 26.2239 150.358 26.3319 150.351 26.4434C150.344 26.5548 150.365 26.6663 150.412 26.7677C150.412 26.7677 150.897 27.9692 150.235 28.6314C150.172 28.694 150.122 28.7685 150.088 28.8504C150.054 28.9324 150.036 29.0202 150.036 29.1089C150.036 29.1976 150.054 29.2855 150.088 29.3675C150.121 29.4496 150.171 29.5241 150.234 29.5869C150.296 29.6497 150.371 29.6996 150.453 29.7336C150.535 29.7676 150.623 29.7852 150.711 29.7853C150.8 29.7854 150.888 29.768 150.97 29.7342C151.052 29.7003 151.126 29.6506 151.189 29.5879C152.567 28.2103 151.647 26.2253 151.647 26.2253C151.595 26.0998 151.506 25.9931 151.391 25.9192C151.277 25.8453 151.143 25.8076 151.007 25.8112ZM159.395 31.8483C159.259 31.8533 159.119 31.864 158.976 31.8825C158.888 31.8937 158.803 31.9222 158.726 31.9662C158.649 32.0103 158.582 32.069 158.528 32.1391C158.473 32.2092 158.433 32.2894 158.41 32.3749C158.387 32.4604 158.381 32.5496 158.392 32.6375C158.403 32.7254 158.432 32.8102 158.476 32.8871C158.52 32.964 158.579 33.0315 158.649 33.0857C158.719 33.1399 158.799 33.1797 158.885 33.203C158.97 33.2262 159.059 33.2324 159.147 33.2211C160.807 33.0069 161.685 34.0222 161.685 34.0222C161.742 34.0943 161.814 34.1539 161.895 34.1974C161.976 34.2408 162.065 34.2672 162.157 34.2749C162.249 34.2825 162.341 34.2713 162.428 34.242C162.516 34.2126 162.596 34.1657 162.665 34.1041C162.733 34.0425 162.788 33.9675 162.827 33.8838C162.865 33.8001 162.886 33.7095 162.888 33.6174C162.89 33.5254 162.873 33.4339 162.838 33.3486C162.804 33.2632 162.752 33.1859 162.686 33.1214C162.686 33.1214 161.44 31.7732 159.395 31.8483Z" fill="#3B3B3B"/>
<path d="M124.345 159.032C120.36 163.181 117.912 168.818 117.912 175.051V213.881C117.912 214.283 117.923 214.682 117.943 215.079C117.924 215.302 117.912 215.528 117.912 215.757V229.069C117.912 233.459 121.446 236.992 125.835 236.992H141.023H155.048H170.236C174.626 236.992 178.159 233.459 178.159 229.069V215.757C178.159 215.528 178.148 215.301 178.129 215.077C178.149 214.681 178.159 214.282 178.159 213.881V175.051C178.159 168.818 175.711 163.181 171.726 159.032H124.345Z" fill="#CB9454" fill-opacity="0.996078"/>
<path d="M127.017 166.648C127.763 164.091 126.295 161.413 123.737 160.667C121.18 159.921 118.503 161.39 117.757 163.947L115.233 172.601C114.487 175.158 115.956 177.836 118.513 178.582C121.07 179.327 123.747 177.859 124.493 175.302L127.017 166.648Z" fill="#7D813E"/>
<path d="M167.159 166.828C166.413 164.271 167.881 161.593 170.438 160.848C172.995 160.102 175.673 161.57 176.419 164.127L178.943 172.782C179.689 175.339 178.22 178.016 175.663 178.762C173.106 179.508 170.428 178.039 169.683 175.482L167.159 166.828Z" fill="#7D813E"/>
<path d="M137.532 160.835H136.991C134.327 160.835 132.168 162.994 132.168 165.658V176.386C132.168 179.049 134.327 181.209 136.991 181.209H137.532C140.195 181.209 142.355 179.049 142.355 176.386V165.658C142.355 162.994 140.195 160.835 137.532 160.835Z" fill="#7D813E"/>
<path d="M157.094 160.655H156.553C153.89 160.655 151.73 162.814 151.73 165.477V176.205C151.73 178.869 153.89 181.028 156.553 181.028H157.094C159.758 181.028 161.917 178.869 161.917 176.205V165.477C161.917 162.814 159.758 160.655 157.094 160.655Z" fill="#7D813E"/>
<path d="M148.31 158.515H145.86C142.242 158.515 139.309 161.448 139.309 165.067V176.441C139.309 180.059 142.242 182.993 145.86 182.993H148.31C151.929 182.993 154.862 180.059 154.862 176.441V165.067C154.862 161.448 151.929 158.515 148.31 158.515Z" fill="#5D664E"/>
<path d="M130.099 158.515H127.65C124.031 158.515 121.098 161.448 121.098 165.067V176.441C121.098 180.059 124.031 182.993 127.65 182.993H130.099C133.718 182.993 136.651 180.059 136.651 176.441V165.067C136.651 161.448 133.718 158.515 130.099 158.515Z" fill="#5D664E"/>
<path d="M166.699 158.515H164.249C160.631 158.515 157.697 161.448 157.697 165.067V176.441C157.697 180.059 160.631 182.993 164.249 182.993H166.699C170.318 182.993 173.251 180.059 173.251 176.441V165.067C173.251 161.448 170.318 158.515 166.699 158.515Z" fill="#5D664E"/>
<path d="M172.011 155.787H123.879C122.582 155.787 121.531 156.838 121.531 158.134V159.749C121.531 161.046 122.582 162.097 123.879 162.097H172.011C173.307 162.097 174.358 161.046 174.358 159.749V158.134C174.358 156.838 173.307 155.787 172.011 155.787Z" fill="#61534B"/>
<path d="M130.217 211.234C131.297 211.234 132.166 212.103 132.166 213.183V227.005C132.166 228.085 131.297 228.954 130.217 228.954C129.137 228.954 128.268 228.085 128.268 227.005V213.183C128.268 212.103 129.137 211.234 130.217 211.234Z" fill="#B78260"/>
<path d="M160.164 222.575H161.227C162.307 222.575 163.177 223.444 163.177 224.524V231.79C163.177 232.87 162.307 233.739 161.227 233.739H160.164C159.084 233.739 158.215 232.87 158.215 231.79V224.524C158.215 223.444 159.084 222.575 160.164 222.575Z" fill="#B78260"/>
<path d="M156.443 183.235C157.326 183.235 158.037 184.104 158.037 185.184V192.45C158.037 193.53 157.326 194.399 156.443 194.399C155.559 194.399 154.848 193.53 154.848 192.45V185.184C154.848 184.104 155.559 183.235 156.443 183.235Z" fill="#B78260"/>
<path d="M139.253 183.767C140.137 183.767 140.848 184.636 140.848 185.716V192.981C140.848 194.061 140.137 194.931 139.253 194.931C138.37 194.931 137.658 194.061 137.658 192.981V185.716C137.658 184.636 138.37 183.767 139.253 183.767Z" fill="#B78260"/>
<path d="M139.151 198.12H140.422C140.953 198.12 141.381 198.548 141.381 199.08V202.655C141.381 203.186 140.953 203.614 140.422 203.614H139.151C138.619 203.614 138.191 203.186 138.191 202.655V199.08C138.191 198.548 138.619 198.12 139.151 198.12Z" fill="#B78260"/>
<path d="M168.682 205.056H169.953C170.485 205.056 170.912 205.484 170.912 206.015V209.59C170.912 210.122 170.485 210.55 169.953 210.55H168.682C168.15 210.55 167.723 210.122 167.723 209.59V206.015C167.723 205.484 168.15 205.056 168.682 205.056Z" fill="#B78260"/>
<path d="M140.213 218.676H141.484C142.016 218.676 142.444 219.104 142.444 219.635V223.211C142.444 223.742 142.016 224.17 141.484 224.17H140.213C139.682 224.17 139.254 223.742 139.254 223.211V219.635C139.254 219.104 139.682 218.676 140.213 218.676Z" fill="#B78260"/>
<path d="M123.035 187.156H123.583C124.662 187.156 125.532 188.026 125.532 189.106V196.371C125.532 197.451 124.662 198.321 123.583 198.321H123.035C121.955 198.321 121.086 197.451 121.086 196.371V189.106C121.086 188.026 121.955 187.156 123.035 187.156Z" fill="#CEAC5C"/>
<path d="M148.846 204.604H149.393C150.473 204.604 151.342 205.473 151.342 206.553V213.818C151.342 214.898 150.473 215.768 149.393 215.768H148.846C147.766 215.768 146.896 214.898 146.896 213.818V206.553C146.896 205.473 147.766 204.604 148.846 204.604Z" fill="#CEAC5C"/>
<path d="M168.693 187.946H169.241C170.321 187.946 171.19 188.815 171.19 189.895V197.161C171.19 198.241 170.321 199.11 169.241 199.11H168.693C167.614 199.11 166.744 198.241 166.744 197.161V189.895C166.744 188.815 167.614 187.946 168.693 187.946Z" fill="#CEAC5C"/>
<path d="M171.551 218.071H172.098C173.178 218.071 174.047 218.941 174.047 220.021V227.286C174.047 228.366 173.178 229.235 172.098 229.235H171.551C170.471 229.235 169.602 228.366 169.602 227.286V220.021C169.602 218.941 170.471 218.071 171.551 218.071Z" fill="#CEAC5C"/>
<path d="M122.183 222.743H122.632C123.518 222.743 124.231 223.456 124.231 224.342V230.303C124.231 231.189 123.518 231.902 122.632 231.902H122.183C121.297 231.902 120.584 231.189 120.584 230.303V224.342C120.584 223.456 121.297 222.743 122.183 222.743Z" fill="#CEAC5C"/>
<path d="M131.521 192.591H131.786C132.308 192.591 132.729 193.012 132.729 193.534V197.049C132.729 197.571 132.308 197.991 131.786 197.991H131.521C130.999 197.991 130.578 197.571 130.578 197.049V193.534C130.578 193.012 130.999 192.591 131.521 192.591Z" fill="#CEAC5C"/>
<path d="M131.876 199.857H132.141C132.664 199.857 133.084 200.277 133.084 200.8V204.314C133.084 204.836 132.664 205.257 132.141 205.257H131.876C131.354 205.257 130.934 204.836 130.934 204.314V200.8C130.934 200.277 131.354 199.857 131.876 199.857Z" fill="#CEAC5C"/>
<path d="M167.847 201.452H168.112C168.634 201.452 169.055 201.872 169.055 202.395V205.909C169.055 206.431 168.634 206.852 168.112 206.852H167.847C167.325 206.852 166.904 206.431 166.904 205.909V202.395C166.904 201.872 167.325 201.452 167.847 201.452Z" fill="#CEAC5C"/>
<path d="M135.599 115.663C134.21 115.633 132.631 115.963 131.129 115.963H130.307C128.955 115.963 127.674 116.253 126.523 116.771C126.481 116.771 126.439 116.775 126.398 116.779C126.375 116.775 126.352 116.771 126.329 116.77C125.692 116.728 125.032 117.396 124.386 118.115C123.919 118.509 123.492 118.95 123.115 119.43C122.948 119.564 122.783 119.673 122.622 119.736C122.593 119.902 122.569 120.07 122.547 120.237C121.697 121.602 121.207 123.211 121.207 124.937V126.604C121.207 131.576 125.266 135.579 130.307 135.579H131.129C133.707 135.579 136.026 134.531 137.679 132.843C139.747 132.25 141.636 131.115 143.121 129.526C143.102 128.603 142.959 127.761 142.71 126.989C142.731 126.968 142.753 126.949 142.774 126.929C142.285 125.374 141.362 124.104 140.155 123.033C139.989 120.736 139.504 117.936 138.374 116.715C137.647 115.929 136.68 115.687 135.599 115.663ZM159.291 115.663C158.21 115.687 157.243 115.929 156.516 116.715C155.431 117.887 154.941 120.518 154.757 122.759C153.47 123.822 152.469 125.09 151.923 126.671C151.943 126.692 151.964 126.711 151.985 126.731C151.724 127.473 151.561 128.283 151.515 129.172C153.021 130.919 154.999 132.171 157.186 132.817C158.841 134.519 161.17 135.579 163.761 135.579H164.583C169.624 135.579 173.683 131.576 173.683 126.604V124.937C173.683 123.259 173.219 121.693 172.413 120.352C172.394 120.195 172.38 120.037 172.355 119.881C172.212 119.819 172.066 119.726 171.918 119.614C171.404 118.925 170.793 118.313 170.104 117.795C169.556 117.243 169.001 116.79 168.457 116.761C168.423 116.759 168.389 116.763 168.355 116.765C167.207 116.251 165.931 115.963 164.583 115.963H163.761C162.259 115.963 160.68 115.633 159.291 115.663V115.663Z" fill="#61534B"/>
<path d="M134.897 95.9141C134.145 95.9141 133.539 96.5111 133.539 97.2527V119.69C133.539 120.432 134.145 121.029 134.897 121.029C135.648 121.029 136.254 120.432 136.254 119.69V97.2527C136.254 96.5111 135.648 95.9141 134.897 95.9141ZM160.056 95.9141C159.304 95.9141 158.698 96.5111 158.698 97.2527V119.69C158.698 120.432 159.304 121.029 160.056 121.029C160.808 121.029 161.413 120.432 161.413 119.69V97.2527C161.413 96.5111 160.808 95.9141 160.056 95.9141Z" fill="#61534B"/>
<path d="M139.56 119.226L122.079 121.09C121.669 121.945 121.393 122.874 121.275 123.853L140.043 121.852C139.939 120.961 139.784 120.054 139.56 119.226ZM155.319 119.261C155.098 120.091 154.946 120.999 154.843 121.888L173.62 123.89C173.506 122.912 173.234 121.983 172.829 121.129L155.319 119.261ZM140.215 124.269L121.207 126.296V126.604C121.207 127.413 121.316 128.196 121.518 128.94L140.22 126.945C140.224 126.832 140.229 126.719 140.229 126.604V124.937C140.229 124.734 140.221 124.499 140.215 124.269H140.215ZM154.674 124.306C154.668 124.522 154.661 124.745 154.661 124.937V126.604C154.661 126.731 154.666 126.857 154.671 126.982L173.362 128.976C173.57 128.221 173.683 127.426 173.683 126.604V126.333L154.674 124.306Z" fill="#6A5B52"/>
<path d="M155.331 102.959H139.621C138.98 102.959 138.461 103.479 138.461 104.12V138.941C138.461 139.581 138.98 140.101 139.621 140.101H155.331C155.971 140.101 156.491 139.581 156.491 138.941V104.12C156.491 103.479 155.971 102.959 155.331 102.959Z" fill="#CB9454" fill-opacity="0.996078"/>
<path d="M138.461 107.647V110.712H156.491V107.647H138.461ZM138.461 113.732V116.798H156.491V113.732H138.461ZM138.461 119.817V122.882H156.491V119.817H138.461ZM138.461 125.902V128.967H156.491V125.902H138.461ZM138.461 131.988V135.053H156.491V131.988H138.461Z" fill="#CEAC5C"/>
<path d="M135.128 86.8033C134.573 86.8012 134.03 86.9491 133.571 87.2273C133.112 87.5056 132.759 87.9011 132.559 88.3615C131.939 89.7942 131.596 91.3722 131.596 93.024C131.596 99.223 136.538 104.64 143.144 104.64H151.862C158.468 104.64 163.411 99.223 163.411 93.024C163.411 91.3758 163.072 89.7976 162.45 88.3615C162.251 87.902 161.901 87.5068 161.444 87.228C160.987 86.9493 160.446 86.8 159.891 86.8C159.337 86.8 158.796 86.9493 158.339 87.228C157.882 87.5068 157.531 87.902 157.333 88.3615C156.29 90.7696 154.177 92.1922 151.862 92.1922H143.144C140.83 92.1922 138.721 90.7708 137.677 88.3615C137.478 87.904 137.129 87.5105 136.674 87.2325C136.219 86.9544 135.681 86.8048 135.128 86.8033Z" fill="#CEAC5C"/>
<path d="M136.358 85.3322C135.87 85.3303 135.393 85.4603 134.99 85.7048C134.586 85.9494 134.277 86.2969 134.101 86.7014C133.556 87.9604 133.254 89.347 133.254 90.7985C133.254 96.2456 137.597 101.006 143.402 101.006H151.063C156.867 101.006 161.21 96.2456 161.21 90.7985C161.21 89.3501 160.913 87.9634 160.366 86.7014C160.192 86.2976 159.883 85.9504 159.482 85.7054C159.081 85.4605 158.605 85.3293 158.118 85.3293C157.631 85.3293 157.155 85.4605 156.754 85.7054C156.353 85.9504 156.044 86.2976 155.87 86.7014C154.953 88.8175 153.096 90.0676 151.063 90.0676H143.402C141.368 90.0676 139.515 88.8186 138.598 86.7014C138.423 86.2994 138.116 85.9536 137.716 85.7093C137.317 85.465 136.843 85.3336 136.358 85.3322Z" fill="#CB9353"/>
<path d="M112.154 108.006L106.089 126.491C105.82 127.311 105.668 128.137 105.624 128.946L119.691 132.016C119.823 131.719 119.943 131.414 120.047 131.098L122.534 123.519C122.437 122.911 122.386 122.288 122.389 121.653C122.397 121.023 122.457 120.396 122.568 119.776C122.657 119.741 122.747 119.69 122.838 119.632C122.921 119.16 123.034 118.693 123.176 118.234C121.797 115.816 121.001 113.039 120.966 110.077C120.732 109.988 120.505 109.887 120.282 109.779L112.154 108.006Z" fill="#5D664E"/>
<path d="M110.423 113.123L109.214 116.83L122.923 119.368C123 118.971 123.098 118.578 123.217 118.191C122.679 117.259 122.23 116.273 121.876 115.244L110.423 113.123Z" fill="#60584C"/>
<path d="M181.898 107.57L173.962 110.745C173.825 113.455 173.05 115.996 171.778 118.23C171.933 118.734 172.053 119.248 172.137 119.769C172.228 119.828 172.319 119.879 172.408 119.918C172.503 120.491 172.555 121.07 172.563 121.651C172.568 122.667 172.44 123.654 172.196 124.595L174.317 131.593L188.718 128.447C188.661 128.218 188.597 127.989 188.522 127.761L181.898 107.57Z" fill="#5D674F" fill-opacity="0.996078"/>
<path d="M184.181 114.453L172.165 119.786C172.233 119.827 172.301 119.869 172.368 119.897C172.462 120.47 172.513 121.049 172.52 121.629C172.522 122.426 172.442 123.204 172.289 123.956L185.39 118.141L184.181 114.453Z" fill="#61534B"/>
<path d="M114.505 137.476C120.35 137.476 125.087 133.28 125.087 128.105C125.087 122.93 120.35 118.735 114.505 118.735C108.661 118.735 103.924 122.93 103.924 128.105C103.924 133.28 108.661 137.476 114.505 137.476Z" fill="#CB9353"/>
<path d="M187.978 126.756L188.746 127.4C192.323 130.397 192.79 135.689 189.793 139.266L183.909 146.289C180.912 149.865 175.62 150.332 172.043 147.335L171.275 146.692C167.698 143.695 167.231 138.402 170.228 134.826L176.112 127.803C179.109 124.226 184.401 123.759 187.978 126.756Z" fill="#9D6B5A"/>
<path d="M178.157 138.544C181.131 141.036 181.28 145.724 178.49 149.054L173.193 155.376C170.403 158.706 165.762 159.381 162.787 156.888C159.812 154.396 159.663 149.708 162.454 146.378L167.751 140.056C170.541 136.726 175.182 136.051 178.157 138.544Z" fill="#8E6051"/>
<path d="M188.469 132.409C189.984 133.679 190.182 135.922 188.912 137.438L186.947 139.783C185.677 141.299 183.434 141.497 181.918 140.227C180.403 138.956 180.205 136.714 181.475 135.198L183.44 132.852C184.71 131.337 186.953 131.139 188.469 132.409Z" fill="#AB7868"/>
<path d="M170.936 146.814L171.512 147.296C174.262 149.601 174.621 153.671 172.317 156.422C170.012 159.173 165.942 159.532 163.191 157.227L162.615 156.745C159.864 154.44 159.505 150.37 161.81 147.619C164.115 144.868 168.185 144.509 170.936 146.814Z" fill="#8E6051"/>
<path d="M170.484 145.272C172.241 147.485 171.874 150.68 169.661 152.437L164.368 156.638C162.156 158.394 158.96 158.027 157.204 155.814C155.447 153.601 155.815 150.406 158.027 148.649L163.32 144.448C165.533 142.692 168.728 143.059 170.484 145.272Z" fill="#9D6B5A"/>
<path d="M187.419 121.832L172.835 125.367C171.733 125.634 171.056 126.744 171.323 127.845L171.8 129.813C172.067 130.915 173.177 131.592 174.279 131.325L188.863 127.79C189.964 127.523 190.641 126.413 190.374 125.312L189.897 123.344C189.63 122.242 188.52 121.565 187.419 121.832Z" fill="#CEAC5C"/>
<path d="M198.094 124.075C197.61 121.468 195.627 119.183 193.945 119.973L176.732 128.06L120.657 138.383L101.679 136.958C99.8254 136.819 98.7919 139.66 99.2752 142.266L103.286 163.889C103.769 166.496 105.753 168.781 107.434 167.991L124.648 159.904L180.723 149.581L199.701 151.005C201.554 151.145 202.587 148.304 202.104 145.698L198.094 124.075Z" fill="#CB9453"/>
<path d="M175.732 128.078L122.807 137.992L126.973 159.646L179.897 149.732L175.732 128.078Z" fill="#C5873F"/>
<path d="M198.799 127.775L99.936 145.892L100.384 148.312L199.246 130.195L198.799 127.775ZM199.897 133.713L101.034 151.83L101.482 154.25L200.345 136.132L199.897 133.713ZM200.995 139.651L102.133 157.769L102.58 160.188L201.443 142.071L200.995 139.651Z" fill="#CEAC5C"/>
<path d="M176.424 131.704L123.512 141.623L123.98 144.06L176.893 134.141L176.424 131.704ZM177.574 137.683L124.662 147.602L125.13 150.038L178.042 140.12L177.574 137.683ZM178.724 143.663L125.811 153.581L126.28 156.018L179.192 146.1L178.724 143.663Z" fill="#CEA05C"/>
<path d="M177.783 127.555L176.727 128.052L175.545 128.269L179.539 149.798L180.721 149.58L181.885 149.668L177.783 127.555ZM167.88 129.682L165.525 130.116L164.457 152.578L166.812 152.144L167.88 129.682ZM150.749 155.105L142.271 134.403L139.93 134.835L148.408 155.537L150.749 155.105ZM127.328 159.423L123.141 137.929L120.847 138.352L125.035 159.845L127.328 159.423Z" fill="#61534B"/>
<path d="M107.226 168.371L101.437 136.746C101.321 136.113 100.715 135.694 100.085 135.81L98.5648 136.091C97.9342 136.208 97.5171 136.816 97.6331 137.45L103.422 169.074C103.538 169.708 104.143 170.127 104.774 170.01L106.294 169.729C106.925 169.612 107.342 169.004 107.226 168.371Z" fill="#61534B"/>
<path d="M203.222 151.087L197.433 119.463C197.317 118.829 196.712 118.41 196.081 118.527L194.561 118.808C193.93 118.925 193.513 119.533 193.629 120.166L199.418 151.791C199.534 152.424 200.14 152.843 200.77 152.727L202.29 152.446C202.921 152.329 203.338 151.721 203.222 151.087Z" fill="#61534B"/>
<path d="M103.617 131.289L103.684 132.287C103.995 136.934 107.991 140.425 112.643 140.114L121.777 139.503C126.429 139.192 129.923 135.2 129.612 130.552L129.545 129.554C129.233 124.907 125.238 121.416 120.586 121.727L111.452 122.338C106.8 122.649 103.305 126.641 103.617 131.289Z" fill="#9D6B5A"/>
<path d="M118.928 130.324C119.187 134.188 122.883 137.066 127.215 136.776L135.439 136.227C139.771 135.937 143.05 132.593 142.791 128.729C142.532 124.865 138.836 121.987 134.504 122.277L126.28 122.826C121.948 123.116 118.669 126.46 118.928 130.324Z" fill="#9D6B5A"/>
<path d="M112.344 127.362C112.476 129.331 114.169 130.811 116.141 130.679L119.191 130.475C121.162 130.343 122.643 128.651 122.511 126.682C122.379 124.712 120.686 123.232 118.714 123.364L115.664 123.568C113.693 123.7 112.212 125.392 112.344 127.362Z" fill="#AB7868"/>
<path d="M129.866 129.378L129.916 130.126C130.155 133.702 133.227 136.389 136.803 136.149C140.379 135.91 143.065 132.838 142.826 129.261L142.776 128.513C142.536 124.936 139.465 122.25 135.889 122.489C132.313 122.729 129.626 125.801 129.866 129.378Z" fill="#8E6051"/>
<path d="M135.28 119.727C130.189 119.727 126.09 123.825 126.09 128.916V130.01C126.09 135.101 130.189 139.199 135.28 139.199C140.371 139.199 144.47 135.101 144.47 130.01V128.916C144.47 123.825 140.371 119.727 135.28 119.727ZM135.28 122.522C138.909 122.522 141.831 125.444 141.831 129.073V129.853C141.831 133.483 138.909 136.404 135.28 136.404C131.65 136.404 128.728 133.483 128.728 129.853V129.073C128.728 125.444 131.65 122.522 135.28 122.522Z" fill="#CB9353"/>
<path d="M138.165 120.539C133.073 120.539 128.975 124.637 128.975 129.728V130.821C128.975 135.912 133.073 140.01 138.165 140.01C143.256 140.01 147.354 135.912 147.354 130.821V129.728C147.354 124.637 143.256 120.539 138.165 120.539ZM138.165 123.333C141.794 123.333 144.716 126.255 144.716 129.885V130.664C144.716 134.294 141.794 137.216 138.165 137.216C134.535 137.216 131.613 134.294 131.613 130.664V129.885C131.613 126.255 134.535 123.333 138.165 123.333Z" fill="#CEAC5C"/>
<path d="M168.261 149.407C169.113 152.1 167.63 154.955 164.937 155.807L158.494 157.845C155.801 158.697 152.946 157.214 152.094 154.521C151.242 151.827 152.724 148.973 155.418 148.121L161.86 146.083C164.554 145.231 167.408 146.713 168.261 149.407Z" fill="#AB7868"/>
<path d="M140.91 127.234C144.485 126.399 149.511 127.394 150.179 130.181L151.998 137.769C152.666 140.555 148.716 144.047 145.142 144.882C141.567 145.717 138.152 144.146 137.484 141.36L135.664 133.772C134.996 130.985 137.336 128.07 140.91 127.234L140.91 127.234Z" fill="#9D6B5A"/>
<path d="M142.181 124.416C142.689 122.643 144.524 121.624 146.297 122.132L151.125 123.513C152.898 124.021 153.917 125.857 153.409 127.63C152.902 129.403 151.066 130.421 149.293 129.914L144.466 128.532C142.693 128.025 141.674 126.189 142.181 124.416Z" fill="#8E6051"/>
<path d="M133.804 126.619L135.18 124.968C137.825 121.794 142.509 121.368 145.684 124.013L148.495 126.355C151.67 129 152.096 133.685 149.451 136.86L148.075 138.511C145.43 141.685 140.745 142.111 137.571 139.466L134.759 137.124C131.585 134.479 131.159 129.794 133.804 126.619Z" fill="#9D6B5A"/>
<path d="M132.863 12.8677C120.221 12.8677 110.043 23.0454 110.043 35.688C110.043 45.1365 115.729 53.2067 123.878 56.6823C124.581 55.5734 125.571 54.6655 126.745 54.0622V51.1472C126.745 41.8833 137.298 32.4634 143.97 32.4634H151.997C158.669 32.4634 169.222 41.8833 169.222 51.1472V54.0622C170.409 54.6719 171.408 55.5921 172.112 56.7171C180.304 53.2603 186.027 45.1672 186.027 35.688C186.027 23.0454 175.848 12.8677 163.206 12.8677H132.863Z" fill="#CEAC5C"/>
<path d="M141.553 31.0215C132.713 31.0215 125.598 38.138 125.598 46.9771V47.3215C125.598 49.5419 126.047 51.6531 126.86 53.5706C127.399 49.2398 129.863 45.2281 133.774 42.3112C137.685 39.3944 142.767 37.7795 148.035 37.7788C153.308 37.7833 158.391 39.4044 162.3 42.3282C166.209 45.252 168.667 49.2704 169.196 53.6054C170.018 51.6786 170.473 49.5555 170.473 47.3215V46.9771C170.473 38.138 163.358 31.0215 154.519 31.0215H141.553Z" fill="#F7E1DA"/>
<path d="M132.863 14.2957C120.221 14.2957 110.043 24.4733 110.043 37.116C110.043 46.5645 115.729 54.6347 123.878 58.1103C124.581 57.0014 125.571 56.0934 126.745 55.4902V52.5751C126.745 43.3112 137.298 33.8914 143.97 33.8914H151.997C158.669 33.8914 169.222 43.3112 169.222 52.5751V55.4902C170.409 56.0998 171.408 57.0201 172.112 58.1451C180.304 54.6882 186.027 46.5951 186.027 37.116C186.027 24.4733 175.848 14.2957 163.206 14.2957H132.863Z" fill="#4F4F4F"/>
<path d="M143.91 12.511C142.829 11.41 141.059 11.3944 139.958 12.4761C138.857 13.5577 138.842 15.3271 139.923 16.4281L145.988 22.6015C147.07 23.7024 148.839 23.7181 149.94 22.6364C151.041 21.5548 151.057 19.7854 149.975 18.6844L143.91 12.511Z" fill="#5D664E"/>
<path d="M156.115 16.5712C157.216 15.4896 157.232 13.7202 156.15 12.6192C155.068 11.5183 153.299 11.5026 152.198 12.5842L146.025 18.6493C144.924 19.731 144.908 21.5004 145.99 22.6014C147.071 23.7023 148.841 23.718 149.942 22.6363L156.115 16.5712Z" fill="#5D664E"/>
<path d="M123.494 54.1708L119.642 57.7974C118.719 58.6661 118.675 60.1184 119.544 61.0413C120.412 61.9641 121.865 62.0079 122.788 61.1392L126.64 57.5126C127.563 56.6439 127.607 55.1916 126.738 54.2688C125.869 53.3459 124.417 53.3021 123.494 54.1708Z" fill="#5D664E"/>
<path d="M125.336 52.8362H120.045C118.777 52.8362 117.75 53.8636 117.75 55.131C117.75 56.3984 118.777 57.4258 120.045 57.4258H125.336C126.603 57.4258 127.63 56.3984 127.63 55.131C127.63 53.8636 126.603 52.8362 125.336 52.8362Z" fill="#7D813E"/>
<path d="M172.883 54.1708L176.735 57.7974C177.658 58.6661 177.702 60.1184 176.833 61.0413C175.965 61.9641 174.512 62.0079 173.589 61.1392L169.737 57.5126C168.814 56.6439 168.77 55.1916 169.639 54.2688C170.508 53.3459 171.96 53.3021 172.883 54.1708Z" fill="#5D664E"/>
<path d="M171.041 52.8362H176.332C177.6 52.8362 178.627 53.8636 178.627 55.131C178.627 56.3984 177.6 57.4258 176.332 57.4258H171.041C169.774 57.4258 168.747 56.3984 168.747 55.131C168.747 53.8636 169.774 52.8362 171.041 52.8362Z" fill="#7D813E"/>
<path d="M140.068 93.8421C140.068 93.1556 139.512 92.5991 138.825 92.5991C138.139 92.5991 137.582 93.1556 137.582 93.8421V94.9258C137.582 95.6123 138.139 96.1688 138.825 96.1688C139.512 96.1688 140.068 95.6123 140.068 94.9258V93.8421Z" fill="#CEAC5C"/>
<path d="M145.74 96.3282C145.74 95.6417 145.183 95.0852 144.497 95.0852C143.81 95.0852 143.254 95.6417 143.254 96.3282V97.4119C143.254 98.0984 143.81 98.6549 144.497 98.6549C145.183 98.6549 145.74 98.0984 145.74 97.4119V96.3282Z" fill="#CEAC5C"/>
<path d="M150.777 96.0094C150.777 95.3229 150.221 94.7664 149.534 94.7664C148.848 94.7664 148.291 95.3229 148.291 96.0094V97.093C148.291 97.7795 148.848 98.3361 149.534 98.3361C150.221 98.3361 150.777 97.7795 150.777 97.093V96.0094Z" fill="#CEAC5C"/>
<path d="M155.558 94.2884C155.558 93.6019 155.002 93.0454 154.315 93.0454C153.629 93.0454 153.072 93.6019 153.072 94.2884V95.3721C153.072 96.0586 153.629 96.6151 154.315 96.6151C155.002 96.6151 155.558 96.0586 155.558 95.3721V94.2884Z" fill="#CEAC5C"/>
<path d="M159.156 90.2667C158.79 89.686 158.023 89.5122 157.442 89.8784C156.861 90.2446 156.688 91.0122 157.054 91.5929L157.632 92.5095C157.998 93.0901 158.766 93.264 159.346 92.8977C159.927 92.5315 160.101 91.7639 159.735 91.1832L159.156 90.2667Z" fill="#CEAC5C"/>
<path d="M135.258 89.0555C135.624 88.4748 136.391 88.301 136.972 88.6672C137.553 89.0334 137.727 89.801 137.36 90.3817L136.782 91.2983C136.416 91.8789 135.648 92.0528 135.068 91.6866C134.487 91.3203 134.313 90.5527 134.679 89.9721L135.258 89.0555Z" fill="#CEAC5C"/>
<path d="M148.733 129.702L147.931 128.976C146.842 127.991 145.16 128.075 144.175 129.164C143.189 130.253 143.274 131.935 144.363 132.92L145.165 133.646C146.254 134.632 147.936 134.547 148.921 133.458C149.907 132.369 149.822 130.687 148.733 129.702Z" fill="#AB7868"/>
<path d="M144.835 249.286H129.51C128.588 249.286 127.842 250.033 127.842 250.954C127.842 251.875 128.588 252.622 129.51 252.622H144.835C145.756 252.622 146.503 251.875 146.503 250.954C146.503 250.033 145.756 249.286 144.835 249.286Z" fill="#CC9454"/>
<path d="M164.977 249.286H149.652C148.731 249.286 147.984 250.033 147.984 250.954C147.984 251.875 148.731 252.622 149.652 252.622H164.977C165.898 252.622 166.645 251.875 166.645 250.954C166.645 250.033 165.898 249.286 164.977 249.286Z" fill="#CC9454"/>
<path d="M129.805 163.611C129.805 162.942 129.263 162.4 128.594 162.4C127.925 162.4 127.383 162.942 127.383 163.611V177.507C127.383 178.176 127.925 178.718 128.594 178.718C129.263 178.718 129.805 178.176 129.805 177.507V163.611Z" fill="#7D813E"/>
<path d="M148.418 163.738C148.418 163.069 147.876 162.527 147.207 162.527C146.538 162.527 145.996 163.069 145.996 163.738V177.635C145.996 178.304 146.538 178.846 147.207 178.846C147.876 178.846 148.418 178.304 148.418 177.635V163.738Z" fill="#7D813E"/>
<path d="M167.414 163.356C167.414 162.687 166.872 162.145 166.203 162.145C165.534 162.145 164.992 162.687 164.992 163.356V177.252C164.992 177.921 165.534 178.463 166.203 178.463C166.872 178.463 167.414 177.921 167.414 177.252V163.356Z" fill="#7D813E"/>
</g>
<defs>
<clipPath id="clip0_2002_8293">
<rect width="300" height="300" fill="white" transform="translate(0.914062 0.0244141)"/>
</clipPath>
</defs>
</svg>
