    <svg
      xmlns="http://www.w3.org/2000/svg"
      fillRule="evenodd"
      strokeLinejoin="round"
      strokeMiterlimit="2"
      clipRule="evenodd"
      viewBox="0 0 571 571"
    >
      <path
        fill="#99d5da"
        fillRule="nonzero"
        d="M508.096 298.99c0 28.924-5.773 57.564-16.991 84.286-11.216 26.721-27.657 51.002-48.384 71.454-20.725 20.451-45.33 36.674-72.41 47.743a225.769 225.769 0 01-85.413 16.765 225.772 225.772 0 01-85.416-16.765c-27.08-11.069-51.685-27.292-72.411-47.743-20.726-20.452-37.167-44.733-48.383-71.454a217.721 217.721 0 01-16.99-84.286c0-58.414 23.515-114.435 65.373-155.74 41.858-41.305 98.63-64.51 157.827-64.51 29.309 0 58.333 5.697 85.413 16.766 27.08 11.069 51.685 27.292 72.41 47.744 20.727 20.452 37.168 44.732 48.384 71.454a217.704 217.704 0 0116.991 84.286z"
      ></path>
      <path
        fill="#b3e0e4"
        fillRule="nonzero"
        d="M334.115 89.611a12.488 12.488 0 00-12.514 12.515v15.296c0 3.215 1.209 6.13 3.189 8.342H197.843a12.488 12.488 0 00-12.514 12.516 12.486 12.486 0 0012.514 12.514H345.24a12.487 12.487 0 0012.515-12.514c0-3.216-1.211-6.131-3.191-8.343h73.326c-21.886-17.988-47.061-31.677-74.163-40.326h-19.612zm31.287 66.746a15.958 15.958 0 00-15.992 15.991v2.78a15.958 15.958 0 0015.992 15.992h25.409a15.935 15.935 0 00-3.855 10.429v5.563c0 8.859 7.132 15.99 15.992 15.99h91.3a218.99 218.99 0 00-18.298-37.545h-41.4a15.94 15.94 0 003.856-10.429v-2.78a15.956 15.956 0 00-15.992-15.991h-57.012zM79.925 211.978a218.14 218.14 0 00-13.968 44.498h119.375a15.95 15.95 0 0013.206 6.952h166.864c8.86 0 15.992-7.132 15.992-15.991a15.957 15.957 0 00-15.992-15.992h-74.57a22.191 22.191 0 00-22.073-19.467H79.925zm392.549 45.888a11.793 11.793 0 00-11.819 11.819v13.209H309.782a11.794 11.794 0 00-11.82 11.82 11.796 11.796 0 0011.82 11.821h197.932c.172-2.513.299-5.029.382-7.547a217.327 217.327 0 00-4.086-41.122h-31.536z"
      ></path>
      <path
        fill="#bda559"
        fillOpacity="0.99"
        fillRule="nonzero"
        d="M375.135 353.812c-14.681 0-28.108 4.144-38.562 11.056-5.314-4.306-12.089-6.883-19.491-6.883h-125.15c-11.653 0-21.755 6.382-27.033 15.851h-47.013c-33.51 0-60.488 21.581-60.488 48.389 0 6.541 1.61 12.768 4.524 18.449-13.924 3.422-23.991 13.759-23.991 26.048 0 15.099 15.194 27.256 34.068 27.256h11.125c17.224 0 31.377-10.124 33.72-23.37.347.005.693.009 1.042.009h189.113c8.596 0 16.76-1.425 24.15-3.987 11.012 9.315 26.622 15.112 43.986 15.112h82.041c6.153 0 12.086-.73 17.671-2.086 4.439 10.919 17.222 18.772 32.389 18.772 18.872 0 34.068-12.157 34.068-27.256v-20.023c0-12.186-9.899-22.449-23.639-25.958v-22.989c0-26.809-26.978-48.39-60.489-48.39h-82.041z"
      ></path>
      <path
        fill="#b6951a"
        fillRule="nonzero"
        d="M71.672 459.39h445.415c17.704 0 31.956 14.252 31.956 31.954 0 17.704-14.252 31.957-31.956 31.957H71.672c-17.703 0-31.956-14.253-31.956-31.957 0-17.702 14.253-31.954 31.956-31.954z"
      ></path>
      <path
        fill="#694621"
        fillOpacity="0.99"
        fillRule="nonzero"
        d="M122.225 326.468c7.808 0 14.094 8.379 14.094 18.789v104.772c0 10.41-6.286 18.791-14.094 18.791s-14.095-8.381-14.095-18.791V345.257c0-10.41 6.287-18.789 14.095-18.789z"
      ></path>
      <path
        fill="url(#_Linear1)"
        fillRule="nonzero"
        d="M188.728 89.97a6.504 6.504 0 00-6.391 5.934l-1.78 17.393-15.45-16.946a6.504 6.504 0 00-5.223-2.179c-5.519.301-8.171 6.912-4.39 10.944l21.553 23.641a6.529 6.529 0 001.788 1.37l-2.758 26.959a6.502 6.502 0 00.215 2.459l-7.134 2.725a6.506 6.506 0 00-3.695 3.601l-22.24 54.007-9.855-27.291-4.121-74.134a6.505 6.505 0 10-12.986.722l1.891 34.041-27.478-22.092a6.505 6.505 0 00-4.201-1.493c-6.158.052-8.802 7.838-3.949 11.629l35.459 28.509c.349.29.728.543 1.13.755l1.319 23.739c.036.63.162 1.251.377 1.844l27.115 75.089c.126.365.286.706.467 1.032l-12.346 3.989a6.503 6.503 0 00-4.486 5.702l-6.346 21.093-11.97-48.47a6.505 6.505 0 00-1.051-3.043l-24.048-36.41-18.556-41.241a6.503 6.503 0 00-6.213-3.911c-4.651.174-7.619 5.034-5.65 9.251l18.773 41.714c.143.319.311.627.503.919l23.423 35.464 8.041 86.734c.261 3.612 2.193.663 5.802.361.5-.043 1.285-.112 2.204-.201-.179 3.953-.345 7.859-.412 10.449-.094 3.632-.129 6.844-.071 9.48.058 2.634-.035 4.227.686 6.749 2.38 8.339 19.267-17.479 19.267-17.479l-.192-3.459.071-8.861 6.505-24.484 10.264-22.732 51.367-25.896a6.51 6.51 0 003.246-2.343l30.885-42.12 61.312-10.38a6.503 6.503 0 002.474-.965l13.415-8.773 30.655 3.26a6.506 6.506 0 004.009-.874l44.497-26.421c5.721-3.284 3.482-12.015-3.114-12.143a6.504 6.504 0 00-3.524.96l-42.639 25.313-14.975-1.593c.698-2.308.025-4.898-1.666-6.595l-1.041-19.233 15.247-31.16c2.142-4.224-.806-9.248-5.538-9.44a6.504 6.504 0 00-6.142 3.724l-15.996 32.679a6.51 6.51 0 00-.65 3.207l1.221 22.55-19.74 12.908-28.508 4.825 9.161-13.167a6.53 6.53 0 00.889-1.834l10.813-35.891c1.344-4.251-1.89-8.564-6.348-8.464a6.502 6.502 0 00-6.106 4.709l-10.518 34.9-15.139 21.766c-.236.32-.43.656-.598 1l-16.221 2.745a6.502 6.502 0 00-4.161 2.565l-31.201 42.552-37.431 12.093a6.46 6.46 0 00-.365-1.525l-10.369-28.716c.06-.125.116-.252.167-.381l26.461-64.267 51.458-19.643a6.51 6.51 0 002.739-1.996l24.58-30.481c3.588-4.323.376-10.855-5.239-10.653a6.503 6.503 0 00-4.882 2.489l-23.478 29.112-32.181 12.29 5.862-57.31c.454-3.899-2.624-7.309-6.549-7.255z"
      ></path>
      <path
        fill="#b6951a"
        fillRule="nonzero"
        d="M104.675 351.726a18.036 18.036 0 00-18.076 18.076v6.608a20.2 20.2 0 00-7.975-1.632 20.114 20.114 0 00-20.157 20.157v82.594a20.114 20.114 0 0020.157 20.157 20.108 20.108 0 0019.913-17.008 18.165 18.165 0 006.138 1.062 18.036 18.036 0 0018.077-18.076v-8.142a16.994 16.994 0 0014.949 8.836 16.995 16.995 0 0017.033-17.032V422.47a8.734 8.734 0 001.738.174 8.672 8.672 0 008.691-8.69v-23.641a8.672 8.672 0 00-8.691-8.69 8.671 8.671 0 00-8.69 8.69v6.417a16.983 16.983 0 00-10.081-3.287 16.996 16.996 0 00-14.949 8.838v-32.479a18.036 18.036 0 00-18.077-18.076zm77.522.696a14.913 14.913 0 00-14.947 14.947v86.909a14.914 14.914 0 0014.947 14.949 14.916 14.916 0 0014.948-14.949v-86.909a14.914 14.914 0 00-14.948-14.947zm239.868 13.904a8.673 8.673 0 00-8.692 8.691v70.918a8.673 8.673 0 008.692 8.692h7.647a8.672 8.672 0 008.69-8.692v-3.624a8.669 8.669 0 007.3 3.971h9.039a8.672 8.672 0 008.692-8.691v-44.496a8.673 8.673 0 00-8.692-8.691h-9.039a8.666 8.666 0 00-7.3 3.973v-13.36a8.672 8.672 0 00-8.69-8.691h-7.647zm-195.718 3.476a14.57 14.57 0 00-14.601 14.602v7.716a14.565 14.565 0 00-13.211 14.532v41.023a14.565 14.565 0 0013.619 14.563 14.565 14.565 0 0014.193 11.159 14.569 14.569 0 0014.601-14.599v-74.394a14.57 14.57 0 00-14.601-14.602zm103.942 6.953a8.671 8.671 0 00-8.69 8.692v68.831a8.67 8.67 0 008.69 8.69h18.772a8.662 8.662 0 005.216-1.739v4.173a8.672 8.672 0 008.69 8.692h13.905a8.663 8.663 0 007.238-3.872 8.66 8.66 0 005.276 1.785h14.601a8.67 8.67 0 008.69-8.69V393.79a8.67 8.67 0 00-8.69-8.69h-14.601a8.67 8.67 0 00-8.69 8.69v.541a8.698 8.698 0 00-3.824-.888h-13.905a8.64 8.64 0 00-5.214 1.741v-9.737a8.673 8.673 0 00-8.692-8.692h-18.772zm-60.489 6.258a8.671 8.671 0 00-8.69 8.69v63.965a8.67 8.67 0 008.69 8.69h30.592a8.672 8.672 0 008.692-8.69v-63.965a8.673 8.673 0 00-8.692-8.69H269.8zm206.495 10.43a8.672 8.672 0 00-8.691 8.69v77.174a8.673 8.673 0 008.691 8.692h9.734a8.673 8.673 0 008.691-8.692v-77.174a8.672 8.672 0 00-8.691-8.69h-9.734zm30.592 51.449a8.67 8.67 0 00-8.69 8.69v33.374a8.67 8.67 0 008.69 8.69h5.561a8.672 8.672 0 008.691-8.69v-33.374a8.672 8.672 0 00-8.691-8.69h-5.561z"
      ></path>
      <path
        fill="#8c7b21"
        fillRule="nonzero"
        d="M189.773 417.081h85.661a14.151 14.151 0 0114.182 14.181v56.461a14.15 14.15 0 01-14.182 14.182h-85.661a14.15 14.15 0 01-14.181-14.182v-56.461a14.15 14.15 0 0114.181-14.181z"
      ></path>
      <path
        fill="#8c7b21"
        fillRule="nonzero"
        d="M286.415 410.128h26.565a14.153 14.153 0 0114.182 14.182v84.272a14.152 14.152 0 01-14.182 14.181h-26.565a14.15 14.15 0 01-14.179-14.181V424.31a14.15 14.15 0 0114.179-14.182z"
      ></path>
      <path
        fill="#8c7b21"
        fillRule="nonzero"
        d="M364.355 432.377h9.039c24.844 0 44.844 20.002 44.844 44.846 0 24.844-20 44.844-44.844 44.844h-9.039c-24.844 0-44.844-20-44.844-44.844s20-44.846 44.844-44.846zM250.334 402.482a12.834 12.834 0 0112.863 12.862v15.99a12.834 12.834 0 01-12.863 12.862 12.835 12.835 0 01-12.862-12.862v-15.99a12.835 12.835 0 0112.862-12.862z"
      ></path>
      <path
        fill="#8c7b21"
        fillRule="nonzero"
        d="M333.764 420.558h13.209a12.835 12.835 0 0112.863 12.862v29.201a12.834 12.834 0 01-12.863 12.863h-13.209a12.834 12.834 0 01-12.863-12.863V433.42a12.835 12.835 0 0112.863-12.862zM380.696 421.948a6.938 6.938 0 016.953 6.953v24.334a6.937 6.937 0 01-6.953 6.953 6.936 6.936 0 01-6.953-6.953v-24.334c0-3.851 3.1-6.953 6.953-6.953zM110.161 422.424a26.883 26.883 0 0126.942 26.943v40.952a26.883 26.883 0 01-26.942 26.941 26.883 26.883 0 01-26.942-26.941v-40.952a26.884 26.884 0 0126.942-26.943z"
      ></path>
      <path
        fill="#8c7b21"
        fillRule="nonzero"
        d="M171.19 390.573h2.747c21.965 0 39.647 17.683 39.647 39.648v40.44c0 21.964-17.682 39.646-39.647 39.646h-2.747c-21.965 0-39.647-17.682-39.647-39.646v-40.44c0-21.965 17.682-39.648 39.647-39.648zM423.822 402.709h22.944c19.258 0 34.762 12.552 34.762 28.143v61.911c0 15.591-15.504 28.143-34.762 28.143h-22.944c-19.258 0-34.764-12.552-34.764-28.143v-61.911c0-15.591 15.506-28.143 34.764-28.143z"
      ></path>
      <path
        fill="#b78260"
        fillRule="nonzero"
        d="M110.139 486.148h349.517a30.193 30.193 0 0130.26 30.26c0 16.763-13.495 30.258-30.26 30.258H110.139c-16.764 0-30.26-13.495-30.26-30.258a30.193 30.193 0 0130.26-30.26z"
      ></path>
      <path
        fill="#bca068"
        fillRule="nonzero"
        d="M102.838 486.148h364.118a22.91 22.91 0 0122.96 22.958 22.91 22.91 0 01-22.96 22.96H102.838a22.91 22.91 0 01-22.959-22.96 22.909 22.909 0 0122.959-22.958z"
      ></path>
      <path
        fill="#898d44"
        fillRule="nonzero"
        d="M179.805 457.793c3.517 0 6.348 3.558 6.348 7.977v25.393c0 4.419-2.831 7.977-6.348 7.977s-6.348-3.558-6.348-7.977V465.77c0-4.419 2.831-7.977 6.348-7.977z"
      ></path>
      <path
        fill="#898d44"
        fillRule="nonzero"
        d="M158.216 472.921a6.011 6.011 0 018.517-.135l17.537 16.989a6.008 6.008 0 01.135 8.516 6.008 6.008 0 01-8.516.137l-17.537-16.99a6.01 6.01 0 01-.136-8.517z"
      ></path>
      <path
        fill="#898d44"
        fillRule="nonzero"
        d="M201.26 472.239a6.01 6.01 0 01.135 8.516l-16.989 17.536a6.01 6.01 0 01-8.517.137 6.01 6.01 0 01-.135-8.516l16.989-17.538a6.01 6.01 0 018.517-.135z"
      ></path>
      <path
        fill="#bca068"
        fillRule="nonzero"
        d="M352.707 454.28c3.756 0 6.78 3.799 6.78 8.517v27.115c0 4.718-3.024 8.516-6.78 8.516-3.756 0-6.779-3.798-6.779-8.516v-27.115c0-4.718 3.023-8.517 6.779-8.517z"
      ></path>
      <path
        fill="#bca068"
        fillRule="nonzero"
        d="M329.655 470.434a6.418 6.418 0 019.095-.145l18.726 18.142a6.416 6.416 0 01.144 9.093 6.418 6.418 0 01-9.095.145l-18.726-18.142a6.418 6.418 0 01-.144-9.093z"
      ></path>
      <path
        fill="#bca068"
        fillRule="nonzero"
        d="M375.617 469.703a6.417 6.417 0 01.145 9.095l-18.14 18.726a6.418 6.418 0 01-9.095.145 6.418 6.418 0 01-.144-9.095l18.141-18.726a6.418 6.418 0 019.093-.145zM126.07 450.76c3.517 0 6.349 3.557 6.349 7.974v25.395c0 4.418-2.832 7.975-6.349 7.975-3.517 0-6.348-3.557-6.348-7.975v-25.395c0-4.417 2.831-7.974 6.348-7.974z"
      ></path>
      <path
        fill="#bca068"
        fillRule="nonzero"
        d="M104.478 465.887a6.01 6.01 0 018.517-.134l17.537 16.988a6.011 6.011 0 01.135 8.517 6.011 6.011 0 01-8.517.135l-17.537-16.989a6.01 6.01 0 01-.135-8.517z"
      ></path>
      <path
        fill="#bca068"
        fillRule="nonzero"
        d="M147.521 465.205a6.008 6.008 0 01.135 8.516l-16.989 17.537a6.01 6.01 0 01-8.516.135 6.01 6.01 0 01-.135-8.517l16.989-17.536a6.008 6.008 0 018.516-.135zM435.446 452.194c3.756 0 6.78 3.798 6.78 8.517v27.115c0 4.718-3.024 8.516-6.78 8.516-3.756 0-6.779-3.798-6.779-8.516v-27.115c0-4.719 3.023-8.517 6.779-8.517z"
      ></path>
      <path
        fill="#bca068"
        fillRule="nonzero"
        d="M412.39 468.348a6.418 6.418 0 019.095-.145l18.726 18.142a6.416 6.416 0 01.144 9.093 6.414 6.414 0 01-9.093.144l-18.727-18.139a6.42 6.42 0 01-.145-9.095z"
      ></path>
      <path
        fill="#bca068"
        fillRule="nonzero"
        d="M458.354 467.619a6.415 6.415 0 01.143 9.093l-18.14 18.726a6.417 6.417 0 01-9.095.144 6.418 6.418 0 01-.144-9.093l18.141-18.725a6.416 6.416 0 019.095-.145z"
      ></path>
      <path
        fill="#b6985b"
        fillRule="nonzero"
        d="M180.827 496.703h214.75a12.377 12.377 0 0112.405 12.405 12.38 12.38 0 01-12.405 12.406h-214.75a12.38 12.38 0 01-12.405-12.406 12.377 12.377 0 0112.405-12.405z"
      ></path>
      <path
        fill="#a98a4b"
        fillRule="nonzero"
        d="M197.012 502.109h182.38a6.982 6.982 0 016.997 6.999 6.98 6.98 0 01-6.997 6.997h-182.38a6.982 6.982 0 01-6.997-6.997 6.983 6.983 0 016.997-6.999z"
      ></path>
      <path
        fill="#d5b982"
        fillRule="nonzero"
        d="M107.958 508.994a6.01 6.01 0 018.516-.135l17.537 16.989a6.01 6.01 0 01.136 8.516 6.01 6.01 0 01-8.517.135l-17.537-16.988a6.01 6.01 0 01-.135-8.517z"
      ></path>
      <path
        fill="#d5b982"
        fillRule="nonzero"
        d="M151.001 508.31a6.01 6.01 0 01.135 8.516l-16.989 17.538a6.01 6.01 0 01-8.517.135 6.01 6.01 0 01-.135-8.516l16.989-17.536a6.01 6.01 0 018.517-.137z"
      ></path>
      <path
        fill="#d5b982"
        fillRule="nonzero"
        d="M129.55 493.866c3.517 0 6.348 3.558 6.348 7.975v25.393c0 4.419-2.831 7.977-6.348 7.977s-6.349-3.558-6.349-7.977v-25.393c0-4.417 2.832-7.975 6.349-7.975zM445.845 489.846c3.754 0 6.779 3.799 6.779 8.517v27.115c0 4.718-3.025 8.516-6.779 8.516-3.756 0-6.779-3.798-6.779-8.516v-27.115c0-4.718 3.023-8.517 6.779-8.517z"
      ></path>
      <path
        fill="#d5b982"
        fillRule="nonzero"
        d="M422.788 506a6.418 6.418 0 019.095-.145l18.726 18.142a6.418 6.418 0 01.145 9.093 6.418 6.418 0 01-9.095.145l-18.726-18.142a6.416 6.416 0 01-.145-9.093z"
      ></path>
      <path
        fill="#d5b982"
        fillRule="nonzero"
        d="M468.751 505.271a6.416 6.416 0 01.144 9.093l-18.141 18.726a6.415 6.415 0 01-9.093.145 6.416 6.416 0 01-.145-9.093l18.142-18.728a6.416 6.416 0 019.093-.143z"
      ></path>
      <path
        fill="#9c8725"
        fillRule="nonzero"
        d="M156.993 409.434a7.804 7.804 0 017.821 7.821v10.429a7.804 7.804 0 01-7.821 7.822 7.804 7.804 0 01-7.822-7.822v-10.429a7.804 7.804 0 017.822-7.821zM177.678 429.597a6.59 6.59 0 016.605 6.605v3.824a6.59 6.59 0 01-6.605 6.605 6.59 6.59 0 01-6.605-6.605v-3.824a6.59 6.59 0 016.605-6.605zM206.878 417.081h1.391a6.591 6.591 0 016.605 6.606v19.468a6.59 6.59 0 01-6.605 6.604h-1.391a6.59 6.59 0 01-6.605-6.604v-19.468a6.591 6.591 0 016.605-6.606zM102.936 425.424a5.205 5.205 0 015.215 5.216v3.823a5.205 5.205 0 01-5.215 5.216 5.204 5.204 0 01-5.214-5.216v-3.823a5.204 5.204 0 015.214-5.216zM294.658 412.911a7.803 7.803 0 017.82 7.82v10.429a7.804 7.804 0 01-7.82 7.823 7.805 7.805 0 01-7.823-7.823v-10.429a7.804 7.804 0 017.823-7.82zM315.342 433.073a6.59 6.59 0 016.604 6.606v3.823a6.59 6.59 0 01-6.604 6.606 6.591 6.591 0 01-6.605-6.606v-3.823a6.591 6.591 0 016.605-6.606zM344.542 420.558h1.392a6.591 6.591 0 016.604 6.605v19.468a6.591 6.591 0 01-6.604 6.604h-1.392a6.59 6.59 0 01-6.604-6.604v-19.468a6.59 6.59 0 016.604-6.605zM240.601 428.901a5.204 5.204 0 015.214 5.215v3.824a5.204 5.204 0 01-5.214 5.215 5.204 5.204 0 01-5.215-5.215v-3.824a5.204 5.204 0 015.215-5.215zM419.11 413.605a7.805 7.805 0 017.822 7.822v10.429a7.806 7.806 0 01-7.822 7.823 7.805 7.805 0 01-7.821-7.823v-10.429a7.805 7.805 0 017.821-7.822zM439.796 433.769a6.588 6.588 0 016.604 6.604v3.825a6.59 6.59 0 01-6.604 6.604 6.59 6.59 0 01-6.605-6.604v-3.825a6.59 6.59 0 016.605-6.604zM468.996 421.254h1.39a6.59 6.59 0 016.605 6.605v19.467a6.59 6.59 0 01-6.605 6.605h-1.39a6.59 6.59 0 01-6.604-6.605v-19.467a6.59 6.59 0 016.604-6.605zM365.055 429.597a5.202 5.202 0 015.214 5.213v3.826a5.202 5.202 0 01-5.214 5.213 5.203 5.203 0 01-5.216-5.213v-3.826a5.203 5.203 0 015.216-5.213z"
      ></path>
      <path
        fill="#796a1c"
        fillRule="nonzero"
        d="M177.511 103.467a15.258 15.258 0 00-14.913 11.887c-.47-.042-.945-.067-1.426-.067h-53.535a15.61 15.61 0 00-15.644 15.643 15.61 15.61 0 0015.644 15.644h53.535a15.607 15.607 0 0015.34-12.552c.33.021.662.037.999.037h96.643a15.262 15.262 0 0015.294-15.296 15.262 15.262 0 00-15.294-15.296h-96.643zm164.96 39.805a15.606 15.606 0 00-15.13 11.645h-74.045a7.63 7.63 0 00-7.649 7.647v11.821a7.631 7.631 0 007.649 7.648h78.175a15.594 15.594 0 0011 4.503h48.849a15.608 15.608 0 0015.642-15.644v-11.976a15.608 15.608 0 00-15.642-15.644h-48.849zm-267.86 16.511a15.263 15.263 0 00-15.295 15.297c0 5.187 2.559 9.75 6.485 12.514H34.285a7.631 7.631 0 00-7.647 7.649 7.63 7.63 0 007.647 7.647h64.661a7.63 7.63 0 007.648-7.647 7.625 7.625 0 00-1.741-4.868h1.741a15.261 15.261 0 0015.295-15.295 15.263 15.263 0 00-15.295-15.297H74.611z"
      ></path>
      <path
        fill="#8c7b21"
        fillRule="nonzero"
        d="M193.323 66.667a17.686 17.686 0 00-17.697 16.686H149.87a19.412 19.412 0 00-15.485 7.648h-21.713a16.997 16.997 0 00-17.034 17.035v2.433H62.613a16.997 16.997 0 00-17.034 17.034 16.997 16.997 0 0017.034 17.035h-3.476a16.996 16.996 0 00-17.034 17.033v6.605h-5.214a15.61 15.61 0 00-15.644 15.643 15.61 15.61 0 0015.644 15.644h40.324a15.607 15.607 0 0015.457-13.209h2.621a16.997 16.997 0 0017.034-17.035v-7.648a16.996 16.996 0 00-17.034-17.033h20.162c7.87 0 14.457-5.287 16.429-12.516h6.516c6.821 0 12.678-3.97 15.403-9.734h46.823a19.68 19.68 0 003.873-.383 15.249 15.249 0 0012.118 5.946h50.06a15.26 15.26 0 0015.294-15.295c0-5.684-3.07-10.62-7.647-13.258V88.916a15.263 15.263 0 00-15.296-15.297h-13.905a15.258 15.258 0 00-14.488 10.377 10.455 10.455 0 00-3.588-.643h-5.563c-.972 0-1.907.143-2.798.389a17.685 17.685 0 00-17.712-17.075h-7.649zm135.717 44.158a10.057 10.057 0 00-10.079 10.079v.492c0 .761.091 1.499.249 2.211h-6.885a10.056 10.056 0 00-10.078 10.079v5.653h-7.246a6.621 6.621 0 00-6.519-7.865h-4.18a6.622 6.622 0 00-6.519 7.865h-9.46a10.056 10.056 0 00-10.078 10.078v11.309a10.056 10.056 0 0010.078 10.078h40.807a10.056 10.056 0 0010.078-10.078v-6.147h31.218v7.062c0 3.25 1.101 6.227 2.937 8.605a14.044 14.044 0 0013.95 12.183h43.803a14.049 14.049 0 0014.079-14.079 14.05 14.05 0 00-14.079-14.08h-10.385a10.048 10.048 0 00-8.763-5.097h-.737v-.179c0-5.564-3.203-10.341-7.867-12.63v-2.678a10.056 10.056 0 00-10.078-10.079H358.38a10.046 10.046 0 00-9.92-8.358h-9.101a10.056 10.056 0 00-8.353-4.424h-1.966z"
      ></path>
      <path
        fill="#a79327"
        fillRule="nonzero"
        d="M52.878 166.091h13.905a7.631 7.631 0 017.648 7.648v6.257a7.631 7.631 0 01-7.648 7.648H52.878a7.631 7.631 0 01-7.648-7.648v-6.257a7.631 7.631 0 017.648-7.648zM66.437 145.233h14.601a6.243 6.243 0 016.258 6.257 6.243 6.243 0 01-6.258 6.257H66.437a6.243 6.243 0 01-6.257-6.257 6.243 6.243 0 016.257-6.257zM86.076 127.156h23.987a8.498 8.498 0 018.517 8.517 8.498 8.498 0 01-8.517 8.517H86.076a8.498 8.498 0 01-8.516-8.517 8.497 8.497 0 018.516-8.517z"
      ></path>
      <path
        fill="#a79327"
        fillRule="nonzero"
        d="M99.809 122.289h1.738a5.896 5.896 0 015.91 5.909 5.897 5.897 0 01-5.91 5.91h-1.738a5.897 5.897 0 01-5.91-5.91 5.896 5.896 0 015.91-5.909zM130.053 97.259h14.253a5.896 5.896 0 015.909 5.91v3.476a5.896 5.896 0 01-5.909 5.91h-14.253a5.897 5.897 0 01-5.91-5.91v-3.476a5.897 5.897 0 015.91-5.91zM162.733 98.997h4.171a5.897 5.897 0 015.91 5.91 5.897 5.897 0 01-5.91 5.91h-4.171a5.897 5.897 0 01-5.91-5.91 5.897 5.897 0 015.91-5.91zM204.97 77.444h1.043c9.339 0 16.859 7.52 16.859 16.86 0 9.341-7.52 16.861-16.859 16.861h-1.043c-9.341 0-16.86-7.52-16.86-16.861 0-9.34 7.519-16.86 16.86-16.86z"
      ></path>
      <path
        fill="#a79327"
        fillRule="nonzero"
        d="M227.563 96.564h4.173a8.845 8.845 0 018.865 8.864 8.846 8.846 0 01-8.865 8.865h-4.173a8.844 8.844 0 01-8.863-8.865 8.843 8.843 0 018.863-8.864zM255.899 104.56h5.562a6.59 6.59 0 016.604 6.605 6.59 6.59 0 01-6.604 6.605h-5.562a6.591 6.591 0 01-6.606-6.605 6.59 6.59 0 016.606-6.605zM317.699 128.77h6.947a6.59 6.59 0 016.605 6.605v3.997a6.59 6.59 0 01-6.605 6.605h-6.947a6.59 6.59 0 01-6.604-6.605v-3.997a6.59 6.59 0 016.604-6.605zM275.914 146.714h18.254a6.592 6.592 0 016.606 6.605v3.751a6.592 6.592 0 01-6.606 6.605h-18.254a6.59 6.59 0 01-6.605-6.605v-3.751a6.59 6.59 0 016.605-6.605z"
      ></path>
      <path
        fill="#a79327"
        fillRule="nonzero"
        d="M293.119 139.585h5.472a6.591 6.591 0 016.606 6.605v3.506a6.591 6.591 0 01-6.606 6.605h-5.472a6.59 6.59 0 01-6.604-6.605v-3.506a6.59 6.59 0 016.604-6.605zM365.142 144.501h7.683a6.591 6.591 0 016.606 6.606v.801a6.591 6.591 0 01-6.606 6.605h-7.683a6.591 6.591 0 01-6.606-6.605v-.801a6.591 6.591 0 016.606-6.606z"
      ></path>
      <path
        fill="#a79327"
        fillRule="nonzero"
        d="M344.37 144.748h9.527a6.592 6.592 0 016.606 6.605v5.472a6.592 6.592 0 01-6.606 6.605h-9.527a6.592 6.592 0 01-6.606-6.605v-5.472a6.592 6.592 0 016.606-6.605zM397.989 159.25h4.178a6.01 6.01 0 016.022 6.023 6.01 6.01 0 01-6.022 6.022h-4.178a6.009 6.009 0 01-6.023-6.022 6.009 6.009 0 016.023-6.023z"
      ></path>
      <path
        fill="#a79327"
        fillRule="nonzero"
        d="M387.051 162.2h1.475a3.434 3.434 0 013.442 3.441 3.434 3.434 0 01-3.442 3.442h-1.475a3.434 3.434 0 01-3.442-3.442 3.434 3.434 0 013.442-3.441z"
      ></path>
      <path
        fill="#a79327"
        fillRule="nonzero"
        d="M373.531 169.083h38.101a3.434 3.434 0 013.442 3.441v1.721a3.434 3.434 0 01-3.442 3.442h-38.101a3.434 3.434 0 01-3.44-3.442v-1.721a3.434 3.434 0 013.44-3.441zM355.588 133.44h2.95a3.434 3.434 0 013.44 3.441 3.434 3.434 0 01-3.44 3.442h-2.95a3.434 3.434 0 01-3.442-3.442 3.434 3.434 0 013.442-3.441zM357.063 149.172h19.912a3.434 3.434 0 013.441 3.441v2.95a3.434 3.434 0 01-3.441 3.442h-19.912a3.436 3.436 0 01-3.442-3.442v-2.95a3.435 3.435 0 013.442-3.441zM311.831 141.061h20.404a3.433 3.433 0 013.441 3.441v2.95a3.433 3.433 0 01-3.441 3.441h-20.404a3.433 3.433 0 01-3.439-3.441v-2.95a3.432 3.432 0 013.439-3.441zM184.946 94.478h35.876a3.434 3.434 0 013.44 3.441v11.194a3.434 3.434 0 01-3.44 3.442h-35.876a3.434 3.434 0 01-3.442-3.442V97.919a3.434 3.434 0 013.442-3.441zM68.476 163.429h8.357a3.434 3.434 0 013.442 3.441v6.146a3.434 3.434 0 01-3.442 3.441h-8.357a3.434 3.434 0 01-3.442-3.441v-6.146a3.434 3.434 0 013.442-3.441z"
      ></path>
      <path
        fill="#a79327"
        fillRule="nonzero"
        d="M70.445 174.491h16.716a3.434 3.434 0 013.441 3.441v.738a3.434 3.434 0 01-3.441 3.441H70.445a3.434 3.434 0 01-3.441-3.441v-.738a3.434 3.434 0 013.441-3.441z"
      ></path>
      <path
        fill="#cfae35"
        fillRule="nonzero"
        d="M290.663 363.198h8.692c1.54 0 2.78 1.242 2.78 2.782a2.774 2.774 0 01-2.78 2.781h-8.692a2.775 2.775 0 01-2.781-2.781c0-1.54 1.24-2.782 2.781-2.782zM266.675 372.584h8.69c1.54 0 2.782 1.24 2.782 2.782a2.776 2.776 0 01-2.782 2.781h-8.69a2.775 2.775 0 01-2.782-2.781 2.776 2.776 0 012.782-2.782zM394.393 362.215h8.69a2.777 2.777 0 012.782 2.782 2.775 2.775 0 01-2.782 2.78h-8.69a2.773 2.773 0 01-2.78-2.78c0-1.54 1.24-2.782 2.78-2.782zM370.409 371.601h8.69a2.776 2.776 0 012.781 2.782c0 1.541-1.24 2.78-2.781 2.78h-8.69a2.774 2.774 0 01-2.782-2.78c0-1.54 1.24-2.782 2.782-2.782zM470.106 363.198h8.69a2.776 2.776 0 012.781 2.782 2.775 2.775 0 01-2.781 2.781h-8.69a2.775 2.775 0 01-2.782-2.781c0-1.54 1.24-2.782 2.782-2.782zM446.117 372.584h8.692c1.54 0 2.78 1.24 2.78 2.782a2.774 2.774 0 01-2.78 2.781h-8.692a2.775 2.775 0 01-2.781-2.781 2.775 2.775 0 012.781-2.782z"
      ></path>
      <path
        fill="#68371e"
        fillRule="nonzero"
        d="M350.835 214.373l-5.418 2.768a11.696 11.696 0 00-5.104 15.771l29.404 57.54a11.693 11.693 0 0015.77 5.104l5.418-2.767a11.697 11.697 0 005.104-15.772l-29.404-57.541a11.694 11.694 0 00-15.77-5.103z"
      ></path>
      <path
        fill="#773f23"
        fillRule="nonzero"
        d="M370.471 246.99a7.88 7.88 0 00-4.3 10.306l2.185 5.311a7.879 7.879 0 0010.308 4.297 7.877 7.877 0 004.297-10.305l-2.184-5.31a7.879 7.879 0 00-10.306-4.299z"
      ></path>
      <path
        fill="#68371e"
        fillRule="nonzero"
        d="M280.777 434.61l.897-.13a19.496 19.496 0 0122.102 16.578l3.125 21.89a19.493 19.493 0 01-16.578 22.102l-.896.127a19.493 19.493 0 01-22.102-16.577l-3.126-21.89a19.494 19.494 0 0116.578-22.1z"
      ></path>
      <path
        fill="#773f23"
        fillRule="nonzero"
        d="M265.653 339.442h3.457c8.216 0 16.052 8.381 17.569 18.791l24.017 164.688c1.519 10.412-3.872 18.793-12.088 18.793h-3.459c-8.213 0-16.051-8.381-17.569-18.793l-24.016-164.688c-1.52-10.41 3.873-18.791 12.089-18.791z"
      ></path>
      <path
        fill="#62341c"
        fillRule="nonzero"
        d="M250.822 339.442h33.117l10.886 74.653h-33.117l-10.886-74.653z"
      ></path>
      <path
        fill="#854727"
        fillRule="nonzero"
        d="M277.79 507.407h16.428a17.115 17.115 0 0117.154 17.153c0 9.504-7.65 17.154-17.154 17.154H277.79a17.116 17.116 0 01-17.154-17.154 17.115 17.115 0 0117.154-17.153z"
      ></path>
      <path
        fill="#854727"
        fillRule="nonzero"
        d="M266.316 522.923h39.376a5.668 5.668 0 015.68 5.682v7.429a5.667 5.667 0 01-5.68 5.68h-39.376a5.668 5.668 0 01-5.68-5.68v-7.429a5.669 5.669 0 015.68-5.682z"
      ></path>
      <path
        fill="#68371e"
        fillRule="nonzero"
        d="M238.118 217.898l5.464 2.633c5.831 2.81 8.273 9.788 5.476 15.645l-27.84 58.287c-2.798 5.857-9.745 8.31-15.577 5.501l-5.464-2.634c-5.831-2.809-8.274-9.787-5.476-15.645l27.839-58.287c2.798-5.857 9.745-8.31 15.578-5.5z"
      ></path>
      <path
        fill="#773f23"
        fillRule="nonzero"
        d="M226.47 248.981a7.864 7.864 0 013.17 10.678l-2.725 5.036a7.847 7.847 0 01-10.668 3.171 7.862 7.862 0 01-3.172-10.676l2.727-5.036a7.847 7.847 0 0110.668-3.173zM200.525 280a14.921 14.921 0 0120.702 4.323l30.268 46.244a14.924 14.924 0 01-4.323 20.704 14.923 14.923 0 01-20.704-4.325l-30.266-46.244A14.922 14.922 0 01200.525 280z"
      ></path>
      <path
        fill="#68371e"
        fillRule="nonzero"
        d="M235.195 305.661a22.397 22.397 0 00-15.728 21.431v9.157l7.001 10.697a14.923 14.923 0 0020.704 4.323 14.92 14.92 0 004.323-20.702l-16.3-24.906z"
      ></path>
      <path
        fill="#773f23"
        fillRule="nonzero"
        d="M246.891 312.56h5.56a4.164 4.164 0 014.173 4.173v6.605a4.163 4.163 0 01-4.173 4.171h-5.56a4.163 4.163 0 01-4.173-4.171v-6.605a4.164 4.164 0 014.173-4.173z"
      ></path>
      <path
        fill="#62341c"
        fillRule="nonzero"
        d="M296.418 244.857c21.047 0 37.992 25.076 37.992 56.223v40.622c0 31.148-16.945 56.225-37.992 56.225-21.049 0-37.993-25.077-37.993-56.225V301.08c0-31.147 16.944-56.223 37.993-56.223z"
      ></path>
      <path
        fill="#68371e"
        fillRule="nonzero"
        d="M296.275 188.171c25.586 0 46.184 16.42 46.184 36.818 0 20.397-20.598 36.817-46.184 36.817s-46.184-16.42-46.184-36.817c0-20.398 20.598-36.818 46.184-36.818z"
      ></path>
      <path
        fill="#68371e"
        fillRule="nonzero"
        d="M247.182 201.289h99.575c10.811 0 19.516 9.778 19.516 21.924 0 12.146-8.705 21.924-19.516 21.924h-99.575c-10.811 0-19.517-9.778-19.517-21.924 0-12.146 8.706-21.924 19.517-21.924z"
      ></path>
      <path
        fill="#62341c"
        fillRule="nonzero"
        d="M296.418 200.377c25.434 0 45.908 26.225 45.908 58.799s-20.474 58.798-45.908 58.798-45.908-26.224-45.908-58.798 20.474-58.799 45.908-58.799z"
      ></path>
      <path
        fill="#68371e"
        fillRule="nonzero"
        d="M270.442 198.389h51.672c13.371 0 24.138 14.328 24.138 32.126v19.362c0 17.799-10.767 32.126-24.138 32.126h-51.672c-13.373 0-24.14-14.327-24.14-32.126v-19.362c0-17.798 10.767-32.126 24.14-32.126z"
      ></path>
      <path
        fill="#773f23"
        fillRule="nonzero"
        d="M350.725 205.158a14.826 14.826 0 00-10.583 18.152l3.455 13.118a14.825 14.825 0 0018.151 10.584 14.827 14.827 0 0010.584-18.152l-3.456-13.118a14.825 14.825 0 00-18.151-10.584z"
      ></path>
      <path
        fill="#68371e"
        fillRule="nonzero"
        d="M293.188 280.214h6.458c15.446 0 27.882 14.877 27.882 33.356v24.1c0 18.481-12.436 33.358-27.882 33.358h-6.458c-15.448 0-27.882-14.877-27.882-33.358v-24.1c0-18.479 12.434-33.356 27.882-33.356z"
      ></path>
      <path
        fill="#773f23"
        fillRule="nonzero"
        d="M240.775 204.371a14.827 14.827 0 018.53 19.202l-4.875 12.661a14.824 14.824 0 01-19.202 8.528 14.823 14.823 0 01-8.528-19.202l4.873-12.661a14.823 14.823 0 0119.202-8.528z"
      ></path>
      <path
        fill="#783f23"
        fillOpacity="0.99"
        fillRule="nonzero"
        d="M266.378 202.768h59.793c10.714 0 19.341 12.274 19.341 27.52v16.587c0 15.246-8.627 27.52-19.341 27.52h-59.793c-10.715 0-19.341-12.274-19.341-27.52v-16.587c0-15.246 8.626-27.52 19.341-27.52z"
      ></path>
      <path
        fill="#68371e"
        fillRule="nonzero"
        d="M291.918 266.363c2.175 0 3.925 2.431 3.925 5.452v10.58c0 3.021-1.75 5.453-3.925 5.453s-3.928-2.432-3.928-5.453v-10.58c0-3.021 1.753-5.452 3.928-5.452z"
      ></path>
      <path
        fill="#773f23"
        fillRule="nonzero"
        d="M296.414 146.022c9.916 0 17.899 15.6 17.899 34.978v14.351c0 19.378-7.983 34.978-17.899 34.978-9.914 0-17.899-15.6-17.899-34.978V181c0-19.378 7.985-34.978 17.899-34.978z"
      ></path>
      <path
        fill="#62341c"
        fillRule="nonzero"
        d="M263.79 263.42h3.745c1.496 0 2.703 1.254 2.703 2.811 0 1.556-1.207 2.81-2.703 2.81h-3.745c-1.496 0-2.703-1.254-2.703-2.81 0-1.557 1.207-2.811 2.703-2.811zM324.975 263.42h3.743c1.498 0 2.703 1.254 2.703 2.811 0 1.556-1.205 2.81-2.703 2.81h-3.743c-1.498 0-2.703-1.254-2.703-2.81 0-1.557 1.205-2.811 2.703-2.811z"
      ></path>
      <path
        fill="#68371e"
        fillRule="nonzero"
        d="M287.643 148.996h7.231c8.325 0 15.027 8.598 15.027 19.279v7.91c0 10.68-6.702 19.279-15.027 19.279h-7.231c-8.325 0-15.028-8.599-15.028-19.279v-7.91c0-10.681 6.703-19.279 15.028-19.279z"
      ></path>
      <path
        fill="#773f23"
        fillRule="nonzero"
        d="M236.323 202.363h2.666c7.14 0 12.888 6.25 12.888 14.013s-5.748 14.012-12.888 14.012h-2.666c-7.142 0-12.89-6.249-12.89-14.012 0-7.763 5.748-14.013 12.89-14.013zM351.342 203.73h2.667c7.14 0 12.887 6.25 12.887 14.013s-5.747 14.012-12.887 14.012h-2.667c-7.14 0-12.889-6.249-12.889-14.012 0-7.763 5.749-14.013 12.889-14.013z"
      ></path>
      <path
        fill="#854727"
        fillRule="nonzero"
        d="M234.807 207.071h3.999c2.217 0 4.001 1.939 4.001 4.348 0 2.41-1.784 4.349-4.001 4.349h-3.999c-2.217 0-4.001-1.939-4.001-4.349 0-2.409 1.784-4.348 4.001-4.348zM354.849 207.412h4.001c2.216 0 4.001 1.94 4.001 4.349 0 2.409-1.785 4.349-4.001 4.349h-4.001c-2.215 0-3.998-1.94-3.998-4.349 0-2.409 1.783-4.349 3.998-4.349z"
      ></path>
      <path
        fill="#773f23"
        fillRule="nonzero"
        d="M404.577 265.559a14.518 14.518 0 011.637 20.513l-10.344 12.135a14.519 14.519 0 01-20.513 1.637 14.52 14.52 0 01-1.637-20.513l10.344-12.137a14.518 14.518 0 0120.513-1.635z"
      ></path>
      <path
        fill="#68371e"
        fillRule="nonzero"
        d="M411.906 252.975a12.66 12.66 0 015.268 17.153l-6.513 12.286a12.662 12.662 0 01-17.155 5.268 12.662 12.662 0 01-5.267-17.155l6.513-12.284a12.66 12.66 0 0117.154-5.268z"
      ></path>
      <path
        fill="#773f23"
        fillRule="nonzero"
        d="M404.207 239.475h9.591a11.574 11.574 0 0111.599 11.6v20.274a11.575 11.575 0 01-11.599 11.601h-9.591a11.577 11.577 0 01-11.601-11.601v-20.274c0-6.426 5.175-11.6 11.601-11.6z"
      ></path>
      <path
        fill="#854727"
        fillRule="nonzero"
        d="M393.257 246.643h.425a4.771 4.771 0 014.781 4.782v7.686a4.771 4.771 0 01-4.781 4.782h-.425a4.771 4.771 0 01-4.781-4.782v-7.686a4.771 4.771 0 014.781-4.782zM417.829 243.398h.326a3.665 3.665 0 013.673 3.672v6.66a3.665 3.665 0 01-3.673 3.672h-.326a3.663 3.663 0 01-3.671-3.672v-6.66a3.663 3.663 0 013.671-3.672z"
      ></path>
      <path
        fill="#97512c"
        fillRule="nonzero"
        d="M294.505 513.414h3.758a5.454 5.454 0 015.466 5.466 5.455 5.455 0 01-5.466 5.468h-3.758a5.456 5.456 0 01-5.468-5.468 5.456 5.456 0 015.468-5.466z"
      ></path>
      <path
        fill="#68371e"
        fillRule="nonzero"
        d="M328.885 127.037l-2.761 25.441c-1.839 16.963-25.096 36.6-36.042 36.6h-13.173c-10.947 0-23.37-19.486-24.34-36.6l-1.439-25.441c-.51-27.307 18.233-38.031 39.172-36.566 20.939 1.465 41.321 15.119 38.583 36.566z"
      ></path>
      <path
        fill="#773f23"
        fillRule="nonzero"
        d="M281.751 291.906h7.635c3.654 0 6.594 3.264 6.594 7.321 0 4.055-2.94 7.321-6.594 7.321h-7.635c-3.654 0-6.594-3.266-6.594-7.321 0-4.057 2.94-7.321 6.594-7.321zM281.751 309.169h7.635c3.654 0 6.594 3.264 6.594 7.321 0 4.054-2.94 7.321-6.594 7.321h-7.635c-3.654 0-6.594-3.267-6.594-7.321 0-4.057 2.94-7.321 6.594-7.321zM281.751 326.429h7.635c3.654 0 6.594 3.266 6.594 7.321 0 4.057-2.94 7.321-6.594 7.321h-7.635c-3.654 0-6.594-3.264-6.594-7.321 0-4.055 2.94-7.321 6.594-7.321zM305.073 291.906h7.636c3.651 0 6.594 3.264 6.594 7.321 0 4.055-2.943 7.321-6.594 7.321h-7.636c-3.653 0-6.594-3.266-6.594-7.321 0-4.057 2.941-7.321 6.594-7.321zM305.073 309.169h7.636c3.651 0 6.594 3.264 6.594 7.321 0 4.054-2.943 7.321-6.594 7.321h-7.636c-3.653 0-6.594-3.267-6.594-7.321 0-4.057 2.941-7.321 6.594-7.321zM305.073 326.429h7.636c3.651 0 6.594 3.266 6.594 7.321 0 4.057-2.943 7.321-6.594 7.321h-7.636c-3.653 0-6.594-3.264-6.594-7.321 0-4.055 2.941-7.321 6.594-7.321z"
      ></path>
      <path
        fill="#68371e"
        fillRule="nonzero"
        d="M277.669 212.26l9.132 4.748c1.018.531 1.444 1.845.954 2.947-.49 1.103-1.704 1.564-2.724 1.034l-9.13-4.748c-1.018-.53-1.444-1.845-.954-2.947.489-1.103 1.704-1.564 2.722-1.034zM305.947 212.26l-9.13 4.748c-1.02.531-1.446 1.845-.956 2.947.49 1.103 1.706 1.564 2.724 1.034l9.13-4.748c1.02-.53 1.446-1.845.956-2.947-.49-1.103-1.704-1.564-2.724-1.034z"
      ></path>
      <path
        fill="#62341c"
        fillRule="nonzero"
        d="M306.475 352.194l.669-.8a15.09 15.09 0 0121.302-1.899l58.397 48.845a15.091 15.091 0 011.899 21.302l-.669.798a15.09 15.09 0 01-21.302 1.899l-58.399-48.845a15.086 15.086 0 01-1.897-21.3z"
      ></path>
      <path
        fill="#4f4f4f"
        fillRule="nonzero"
        d="M258.725 347.719c-2.338 0-4.596.386-6.731 1.094 2.499 28.125 21.346 49.851 44.383 49.851 23.333 0 42.371-22.291 44.474-50.945h-82.126z"
      ></path>
      <path
        fill="#5b5b5b"
        fillRule="nonzero"
        d="M254.098 344.615h83.992c1.842 0 3.322 1.701 3.322 3.81v5.9c0 2.111-1.48 3.81-3.322 3.81h-83.992c-1.84 0-3.32-1.699-3.32-3.81v-5.9c0-2.109 1.48-3.81 3.32-3.81z"
      ></path>
      <path
        fill="#854727"
        fillRule="nonzero"
        d="M276.62 431.714h4.977c3.628 0 6.972 2.89 7.494 6.48l.696 4.766c.523 3.592-1.976 6.483-5.605 6.483h-4.976c-3.629 0-6.972-2.891-7.497-6.483l-.694-4.766c-.524-3.59 1.976-6.48 5.605-6.48z"
      ></path>
      <path
        fill="#773f23"
        fillRule="nonzero"
        d="M244.166 319.125h4.317a14.15 14.15 0 0114.18 14.182v18.496a14.15 14.15 0 01-14.18 14.181h-4.317a14.152 14.152 0 01-14.181-14.181v-18.496a14.151 14.151 0 0114.181-14.182z"
      ></path>
      <path
        fill="#854727"
        fillRule="nonzero"
        d="M211.099 280.962a7.5 7.5 0 0110.342 2.453l7.892 12.793a7.498 7.498 0 01-2.45 10.342 7.5 7.5 0 01-10.343-2.45l-7.892-12.795a7.5 7.5 0 012.451-10.343zM240.478 323.066h3.613a5.741 5.741 0 015.753 5.754v7.277a5.74 5.74 0 01-5.753 5.753h-3.613a5.742 5.742 0 01-5.756-5.753v-7.277a5.743 5.743 0 015.756-5.754zM256.545 243.042c2.959 0 5.342 2.578 5.342 5.78v.825c0 3.202-2.383 5.78-5.342 5.78-2.96 0-5.343-2.578-5.343-5.78v-.825c0-3.202 2.383-5.78 5.343-5.78zM334.356 244.194c2.957 0 5.34 2.578 5.34 5.78v.825c0 3.202-2.383 5.78-5.34 5.78-2.96 0-5.343-2.578-5.343-5.78v-.825c0-3.202 2.383-5.78 5.343-5.78z"
      ></path>
      <path
        fill="#68371e"
        fillRule="nonzero"
        d="M265.206 281.595l7.163 3.908c1.548.846 2.259 2.921 1.592 4.654-.665 1.734-2.448 2.449-3.999 1.605l-7.163-3.911c-1.548-.844-2.259-2.921-1.592-4.654.667-1.733 2.45-2.449 3.999-1.602zM329.485 281.595l-7.163 3.908c-1.548.846-2.26 2.921-1.592 4.654.665 1.734 2.448 2.449 3.998 1.605l7.161-3.911c1.551-.844 2.262-2.921 1.595-4.654s-2.451-2.449-3.999-1.602z"
      ></path>
      <path
        fill="#62341c"
        fillRule="nonzero"
        d="M269.158 358.671c9.024-1.543 17.594 4.863 19.218 14.361l3.089 18.083c1.623 9.498-4.337 18.385-13.358 19.927-9.024 1.541-17.596-4.864-19.218-14.362l-3.089-18.082c-1.623-9.498 4.335-18.386 13.358-19.927z"
      ></path>
      <path
        fill="#68371e"
        fillRule="nonzero"
        d="M344.488 384.068l.707-.848a15.092 15.092 0 0121.302-1.898l20.346 17.018a15.09 15.09 0 011.897 21.3l-.708.846a15.09 15.09 0 01-21.302 1.899l-20.345-17.017a15.086 15.086 0 01-1.897-21.3zM297.575 432.934a18.089 18.089 0 00-10.503 7.788l-10.606 16.722a18.091 18.091 0 005.597 25.025 18.09 18.09 0 0022.393-2.344l-6.881-47.191z"
      ></path>
      <path
        fill="#773f23"
        fillRule="nonzero"
        d="M335.863 402.991l17.022-4.51a18.818 18.818 0 0123.062 13.4l.139.525a18.822 18.822 0 01-13.401 23.064l-17.021 4.509a18.818 18.818 0 01-23.062-13.4l-.139-.526a18.82 18.82 0 0113.4-23.062zM314.88 423.652a18.097 18.097 0 015.599 25.025L309.87 465.4a18.094 18.094 0 01-25.025 5.597 18.093 18.093 0 01-5.599-25.025l10.607-16.723a18.096 18.096 0 0125.027-5.597z"
      ></path>
      <path
        fill="#773f23"
        fillRule="nonzero"
        d="M294.837 440.442l-.297-1a15.09 15.09 0 0110.196-18.8l72.987-21.654a15.089 15.089 0 0118.799 10.196l.297.998a15.091 15.091 0 01-10.196 18.799l-72.987 21.657a15.09 15.09 0 01-18.799-10.196z"
      ></path>
      <path
        fill="#854727"
        fillRule="nonzero"
        d="M386.771 411.837a4.855 4.855 0 01-2.984 6.202l-5.085 1.782a4.855 4.855 0 01-6.203-2.983 4.858 4.858 0 012.983-6.202l5.087-1.782a4.858 4.858 0 016.202 2.983zM286.249 452.316a5.896 5.896 0 015.91 5.909v1.564a5.897 5.897 0 01-5.91 5.91 5.897 5.897 0 01-5.91-5.91v-1.564a5.896 5.896 0 015.91-5.909z"
      ></path>
      <path
        fill="#773f23"
        fillRule="nonzero"
        d="M320.554 127.037l-2.464 25.441c-1.643 16.963-22.409 36.6-32.182 36.6h-11.762c-9.773 0-20.868-19.486-21.731-36.6l-1.286-25.441c-.455-27.307 16.279-38.031 34.976-36.566 18.696 1.465 36.894 15.119 34.449 36.566z"
      ></path>
      <path
        fill="#773f23"
        fillRule="nonzero"
        d="M314.504 133.175h7.899a8.554 8.554 0 018.573 8.573v10.317a8.555 8.555 0 01-8.573 8.573h-7.899a8.555 8.555 0 01-8.573-8.573v-10.317a8.554 8.554 0 018.573-8.573z"
      ></path>
      <path
        fill="#68371e"
        fillRule="nonzero"
        d="M315.954 138.621h4.656a5.041 5.041 0 015.052 5.052v6.081a5.042 5.042 0 01-5.052 5.052h-4.656a5.042 5.042 0 01-5.052-5.052v-6.081a5.041 5.041 0 015.052-5.052z"
      ></path>
      <path
        fill="#773f23"
        fillRule="nonzero"
        d="M308.216 129.758h2.757c2.8 0 5.054 2.254 5.054 5.052v26.745a5.042 5.042 0 01-5.054 5.052h-2.757a5.04 5.04 0 01-5.052-5.052V134.81a5.04 5.04 0 015.052-5.052zM269.716 178.2h9.308a4.952 4.952 0 014.963 4.963v1.074a4.952 4.952 0 01-4.963 4.963h-9.308a4.952 4.952 0 01-4.963-4.963v-1.074a4.952 4.952 0 014.963-4.963z"
      ></path>
      <path
        fill="#62341c"
        fillRule="nonzero"
        d="M297.155 321.509h.333a3.39 3.39 0 013.397 3.399v3.281a3.39 3.39 0 01-3.397 3.398h-.333a3.39 3.39 0 01-3.398-3.398v-3.281a3.39 3.39 0 013.398-3.399z"
      ></path>
      <path
        fill="#68371e"
        fillRule="nonzero"
        d="M274.542 134.056h-3.319a4.66 4.66 0 00-4.67 4.67 4.66 4.66 0 004.67 4.67h3.319a4.66 4.66 0 004.671-4.67 4.66 4.66 0 00-4.671-4.67z"
      ></path>
      <path
        fill="#502a17"
        fillRule="nonzero"
        d="M272.56 136.36c-2.137 0-3.857 1.749-3.857 3.923v1.569c0 2.173 1.72 3.923 3.857 3.923 2.136 0 3.856-1.75 3.856-3.923v-1.569c0-2.174-1.72-3.923-3.856-3.923z"
      ></path>
      <path
        fill="#3e302e"
        fillRule="nonzero"
        d="M281.514 130.199l-12.267.122a2.403 2.403 0 00-2.385 2.432 2.402 2.402 0 002.431 2.384l12.269-.121a2.404 2.404 0 002.385-2.432 2.405 2.405 0 00-2.433-2.385z"
      ></path>
      <path
        fill="#502a17"
        fillRule="nonzero"
        d="M253.936 136.36c-1.319 0-2.381 1.555-2.381 3.487v1.395c0 1.933 1.062 3.488 2.381 3.488 1.319 0 2.381-1.555 2.381-3.488v-1.395c0-1.932-1.062-3.487-2.381-3.487z"
      ></path>
      <path
        fill="#68371e"
        fillRule="nonzero"
        d="M260.173 141.625a4.292 4.292 0 013.662 4.858l-1.498 10.672a4.294 4.294 0 01-4.859 3.662 4.294 4.294 0 01-3.662-4.859l1.498-10.672a4.293 4.293 0 014.859-3.661z"
      ></path>
      <path
        fill="#68371e"
        fillRule="nonzero"
        d="M260.258 152.758h2.214a3.067 3.067 0 013.073 3.073 3.066 3.066 0 01-3.073 3.072h-2.214c-1.7 0-3.071-1.37-3.071-3.072a3.066 3.066 0 013.071-3.073zM259.713 164.04h10.132c2.778 0 5.21 2.228 5.449 4.997.241 2.768-1.801 4.997-4.582 4.997h-10.13c-2.778 0-5.21-2.229-5.451-4.997-.241-2.769 1.803-4.997 4.582-4.997z"
      ></path>
      <path
        fill="#502a17"
        fillRule="nonzero"
        d="M259.043 167.864h8.735a.91.91 0 01.914.912.911.911 0 01-.914.913h-8.735a.91.91 0 01-.912-.913.91.91 0 01.912-.912z"
      ></path>
      <path
        fill="#3e302e"
        fillRule="nonzero"
        d="M252.324 131.452l1.542.08a2.528 2.528 0 012.399 2.661 2.527 2.527 0 01-2.661 2.398l-1.544-.08a2.526 2.526 0 01-2.397-2.661 2.526 2.526 0 012.661-2.398z"
      ></path>
      <path
        fill="#854727"
        fillRule="nonzero"
        d="M278.334 148.136h5.04a3.901 3.901 0 013.911 3.91 3.901 3.901 0 01-3.911 3.911h-5.04a3.903 3.903 0 01-3.912-3.911 3.903 3.903 0 013.912-3.91z"
      ></path>
      <path
        fill="#854727"
        fillRule="nonzero"
        d="M279.331 153.002c1.228 0 2.217.989 2.217 2.217v4.171a2.212 2.212 0 01-2.217 2.216 2.21 2.21 0 01-2.215-2.216v-4.171a2.21 2.21 0 012.215-2.217z"
      ></path>
      <path
        fill="#68371e"
        fillRule="nonzero"
        d="M268.086 176.033h-2.869a.868.868 0 000 1.739h2.869a.87.87 0 100-1.739z"
      ></path>
      <path
        fill="#3e302e"
        fillRule="nonzero"
        d="M283.8 131.586l1.194 1.437a1.886 1.886 0 01-.245 2.662c-.804.67-1.992.56-2.661-.245l-1.195-1.436a1.887 1.887 0 01.245-2.663 1.887 1.887 0 012.662.245z"
      ></path>
      <path
        fill="#49221a"
        fillRule="nonzero"
        d="M277.191 88.753a2.6 2.6 0 00-.688.12s-9.67 2.709-15.472 7.69c-5.302 4.551-8.138 9.283-8.624 14.598a2.587 2.587 0 00.592 1.902 2.591 2.591 0 001.762.927 2.61 2.61 0 001.903-.592 2.592 2.592 0 00.926-1.763c.353-3.862 2.132-7.09 6.827-11.121 4.196-3.602 13.593-6.658 13.593-6.658a2.601 2.601 0 00-.819-5.103zm10.07 4.834c-.41.017-.809.13-1.168.332a36.822 36.822 0 00-6.862 4.78 2.6 2.6 0 00-.471-2.419 2.598 2.598 0 00-2.713-.861c-11.977 3.238-15.043 15.738-15.043 15.738a2.615 2.615 0 00.245 2.019 2.61 2.61 0 003.633.909 2.598 2.598 0 001.166-1.666s2.445-9.523 11.295-11.958c-5.175 5.215-7.134 10.253-7.134 10.253a2.59 2.59 0 00.021 2.015 2.614 2.614 0 001.454 1.396 2.6 2.6 0 002.846-.666c.235-.255.417-.554.534-.879 0 0 3.261-8.571 13.497-14.082a2.594 2.594 0 001.323-2.977 2.604 2.604 0 00-2.623-1.934zm10.133.892a2.611 2.611 0 00-1.146.397s-3.189 1.963-6.706 4.899c-3.517 2.935-7.51 6.749-9.114 11.417a2.561 2.561 0 00-.141 1.008c.02.343.106.677.257.986a2.593 2.593 0 002.503 1.461c.341-.021.676-.11.983-.261a2.63 2.63 0 00.81-.618c.225-.258.399-.557.509-.881.956-2.78 4.321-6.441 7.527-9.118 3.206-2.677 6.106-4.464 6.106-4.464a2.607 2.607 0 001.142-3.051 2.6 2.6 0 00-2.73-1.775z"
      ></path>
      <path
        fill="#3e302e"
        fillRule="nonzero"
        d="M316.096 100.882c-8.474 0-15.297 7.093-15.297 15.904 0 6.146 3.322 11.453 8.206 14.103v15.109h1.727c2.038 0 3.681-1.343 3.681-3.012v-9.716c.021 0 .041.007.062.007h12.045a2.022 2.022 0 002.026-2.027 2.023 2.023 0 00-2.026-2.029h-.872c3.504-2.91 5.742-7.389 5.742-12.435 0-8.811-6.822-15.904-15.294-15.904z"
      ></path>
      <path
        fill="#48211a"
        fillRule="nonzero"
        d="M311.664 91.642a2.6 2.6 0 00-.579 5.152c9.263 1.996 14.295 7.606 17.174 13.901 2.877 6.295 3.32 13.35 2.871 16.955-1.07 8.553-.32 12.646-.32 12.646.065.335.196.654.387.939a2.587 2.587 0 002.671 1.109 2.606 2.606 0 001.658-1.105 2.59 2.59 0 00.387-.939c.068-.335.068-.68.002-1.015 0 0-.636-2.896.376-10.99.592-4.738.077-12.371-3.303-19.764-3.379-7.393-9.904-14.473-20.806-16.823a2.642 2.642 0 00-.518-.066z"
      ></path>
      <path
        fill="#49211a"
        fillOpacity="0.99"
        fillRule="nonzero"
        d="M308.395 90.052a2.597 2.597 0 00-2.579 2.588 2.6 2.6 0 002.552 2.615c1.672.09 4.558 1.197 7.46 3.241 2.902 2.045 5.875 4.962 8.179 8.343 4.61 6.761 6.639 14.928 1.485 23.011a2.594 2.594 0 00.06 2.892 2.601 2.601 0 002.697 1.05 2.604 2.604 0 001.631-1.143c6.382-10.007 3.799-20.863-1.575-28.742-2.686-3.939-6.05-7.248-9.48-9.663-3.429-2.416-6.866-4.008-10.171-4.187a2.526 2.526 0 00-.261-.005h.002z"
      ></path>
      <path
        fill="#49211a"
        fillOpacity="0.99"
        fillRule="nonzero"
        d="M300.567 102.835a2.606 2.606 0 00-1.409.362 2.608 2.608 0 00-1.261 2.494c.048.493.237.961.542 1.35 0 0 3.484 4.556 8.51 9.695 5.027 5.138 11.54 10.95 18.348 13.576a2.605 2.605 0 002.89-.583 2.61 2.61 0 00.49-2.907 2.618 2.618 0 00-1.511-1.363c-5.361-2.067-11.71-7.467-16.503-12.366-4.793-4.9-8.089-9.212-8.089-9.212a2.607 2.607 0 00-2.007-1.046z"
      ></path>
      <path
        fill="#49211a"
        fillOpacity="0.99"
        fillRule="nonzero"
        d="M305.897 101.968a2.603 2.603 0 00-2.409 3.088c.095.487.324.937.666 1.297 6.835 7.457 12.492 11.788 16.518 14.272 4.024 2.484 6.681 3.18 6.681 3.18a2.596 2.596 0 002.801-.941 2.596 2.596 0 00.484-1.981 2.602 2.602 0 00-1.093-1.722 2.624 2.624 0 00-.958-.406s-1.603-.347-5.183-2.556c-3.579-2.209-8.868-6.219-15.415-13.362a2.605 2.605 0 00-2.092-.869z"
      ></path>
      <path
        fill="#48211a"
        fillRule="nonzero"
        d="M319.8 170.699a2.608 2.608 0 00-2.603 2.602c-.088 5.814.378 10.116 1.84 13.723 1.463 3.607 3.945 6.317 7.205 8.739 3.181 2.363 5.578 3.649 7.265 4.354 1.687.705 2.989.849 2.989.849.343.026.688-.016 1.016-.124a2.615 2.615 0 001.515-1.318c.153-.309.241-.646.264-.99a2.605 2.605 0 00-2.471-2.761s-.085.055-1.311-.457c-1.225-.512-3.261-1.573-6.163-3.729-2.822-2.097-4.429-3.907-5.487-6.514-1.057-2.607-1.543-6.212-1.458-11.696.01-.348-.05-.694-.175-1.019a2.6 2.6 0 00-1.414-1.453 2.59 2.59 0 00-1.012-.206z"
      ></path>
      <path
        fill="#48211a"
        fillRule="nonzero"
        d="M328.6 157.668a2.601 2.601 0 00-2.429 1.9c-6.681 22.646 10.782 36.841 10.782 36.841a2.603 2.603 0 003.237-4.075s-14.862-11.527-9.029-31.293c.123-.395.15-.815.079-1.223a2.627 2.627 0 00-.492-1.123 2.587 2.587 0 00-2.148-1.027z"
      ></path>
      <path
        fill="#48211a"
        fillRule="nonzero"
        d="M325.419 159.583a2.613 2.613 0 00-1.308.431 2.614 2.614 0 00-.902 1.037c-4.315 8.63-4.475 17.092-1.286 22.33a772.304 772.304 0 004.186 6.804 2.606 2.606 0 002.663 1.279 2.619 2.619 0 001.729-1.08c.201-.287.342-.611.413-.954.071-.343.075-.696.008-1.04a2.653 2.653 0 00-.401-.959s-1.726-2.767-4.152-6.753c-1.679-2.757-2.188-9.938 1.493-17.3a2.603 2.603 0 00-2.443-3.795z"
      ></path>
      <path
        fill="#48211a"
        fillRule="nonzero"
        d="M326.838 161.488a2.6 2.6 0 00-2.495 2.942c.384 3.26 2.076 13.923 9.343 21.954a2.602 2.602 0 103.862-3.49c-5.944-6.57-7.727-16.424-8.038-19.074a2.604 2.604 0 00-2.672-2.332z"
      ></path>
      <path
        fill="#58281f"
        fillOpacity="0.99"
        fillRule="nonzero"
        d="M280.257 87.791c-11.862.625-22.476 5.391-29.389 13.855-.229.263-.405.57-.515.901a2.615 2.615 0 00.828 2.831 2.598 2.598 0 002.938.241c.303-.174.569-.407.779-.685 7.819-9.573 21.576-13.899 36.648-11.249 15.029 2.642 20.954 10.997 22.061 13.454.895 1.989 4.346 8.915 7.672 15.567 3.326 6.653 6.457 12.865 6.457 12.865.089.176.195.341.32.493 1.709 2.058 3.301 8.21 2.592 13.723-.71 5.513-3.103 10.03-8.017 11.3a2.587 2.587 0 00-1.19.68c-4.03 4.03-6.424 9.079-7.174 15.441-.847 7.2 3.221 14.526 3.221 14.526a2.625 2.625 0 001.518 1.291 2.594 2.594 0 001.986-.161 2.603 2.603 0 001.13-3.503s-3.232-6.929-2.688-11.548c.632-5.372 2.391-8.968 5.564-12.199 6.647-2.331 9.992-8.789 10.811-15.166.868-6.747-.339-13.599-3.748-17.707l.324.493s-3.129-6.21-6.451-12.855c-3.323-6.644-6.913-13.888-7.582-15.374-2.022-4.496-9.301-13.522-25.906-16.442-4.142-.728-8.235-.98-12.189-.772z"
      ></path>
      <path
        fill="#48211a"
        fillRule="nonzero"
        d="M298.354 86.14c-6.081-.211-12.269.564-16.808 3.465-.295.18-.551.418-.753.699a2.585 2.585 0 00-.454 1.963 2.61 2.61 0 001.084 1.698 2.615 2.615 0 001.973.415c.339-.066.663-.198.95-.39 2.96-1.892 8.387-2.841 13.83-2.652 5.442.188 10.946 1.468 13.931 3.012 2.979 1.541 6.513 4.945 9.257 8.191 2.746 3.246 4.93 6.668 5.102 7.011a2.61 2.61 0 002.512 1.432 2.603 2.603 0 002.142-3.759c-.812-1.623-2.811-4.529-5.782-8.043-2.971-3.514-6.687-7.303-10.838-9.45-4.142-2.143-10.067-3.381-16.146-3.592z"
      ></path>
      <path
        fill="#49211a"
        fillOpacity="0.99"
        fillRule="nonzero"
        d="M262.697 101.448a2.602 2.602 0 00-.349 5.188c38.586 4.557 54.039 1.89 54.039 1.89.336-.06.658-.185.947-.368a2.607 2.607 0 00.796-3.594 2.594 2.594 0 00-2.647-1.165s-14.328 2.58-52.525-1.931a2.865 2.865 0 00-.261-.02z"
      ></path>
      <path
        fill="#49211a"
        fillOpacity="0.99"
        fillRule="nonzero"
        d="M272.238 96.759a2.603 2.603 0 00-1.994 4.307c.439.508 1.06.825 1.729.885 0 0 19.781 1.992 38.26 3.511a2.608 2.608 0 001.897-.608c.26-.221.474-.492.631-.796a2.591 2.591 0 00-.33-2.873 2.599 2.599 0 00-1.772-.91c-18.412-1.514-38.161-3.501-38.161-3.501a2.534 2.534 0 00-.26-.015z"
      ></path>
      <path
        fill="#58281f"
        fillOpacity="0.99"
        fillRule="nonzero"
        d="M297.01 87.619c-4.201-.293-8.711-.13-13.246.66-9.07 1.581-18.298 5.768-24.769 14.115a2.588 2.588 0 00-.489.913 2.605 2.605 0 001.827 3.264 2.595 2.595 0 002.009-.29c.299-.18.56-.419.764-.702 5.522-7.123 13.414-10.755 21.552-12.173 8.137-1.418 16.47-.533 22.208 1.244 5.135 1.591 9.861 6.821 13.135 12.504 1.637 2.842 2.921 5.758 3.775 8.246.854 2.488 1.244 4.653 1.244 5.447a2.59 2.59 0 00.75 1.863 2.582 2.582 0 001.851.775 2.6 2.6 0 002.603-2.638c0-1.987-.565-4.32-1.531-7.133a53.299 53.299 0 00-4.18-9.156c-3.637-6.31-8.901-12.644-16.108-14.877-3.301-1.023-7.196-1.77-11.395-2.062z"
      ></path>
      <path
        fill="#58281f"
        fillOpacity="0.99"
        fillRule="nonzero"
        d="M290.562 90.606c-12.756.199-20.999 11.833-20.999 11.833a2.62 2.62 0 00-.499 1.942 2.615 2.615 0 001.031 1.721 2.588 2.588 0 001.948.476 2.606 2.606 0 001.708-1.05s7.402-9.571 16.892-9.719c5.158-.081 9.928.978 15.126 4.471 5.199 3.492 10.819 9.536 17.041 19.51a2.6 2.6 0 104.415-2.754c-6.465-10.362-12.498-17.006-18.554-21.075-6.056-4.068-12.141-5.448-18.109-5.355z"
      ></path>
      <path
        fill="#58281f"
        fillOpacity="0.99"
        fillRule="nonzero"
        d="M303.619 94.508c-2.923-.054-6.006.254-9.089.914-6.166 1.322-12.34 4.084-16.894 8.638a2.62 2.62 0 00-.8 1.85c-.002.346.064.69.193 1.01a2.594 2.594 0 001.427 1.425 2.605 2.605 0 002.859-.606c3.615-3.616 8.914-6.07 14.307-7.226 5.393-1.155 10.867-.979 14.507.209 1.311.428 3.131 1.889 4.857 4.105 1.725 2.216 3.378 5.102 4.739 8.033 1.363 2.931 2.443 5.921 3.1 8.322.328 1.201.552 2.259.656 3.044.104.784.015 1.354.071 1.148-.532 1.95-.808 3.132-.956 3.871-.147.739-.183 1.337-.183 1.337a2.594 2.594 0 00.75 1.863 2.582 2.582 0 001.851.775 2.6 2.6 0 002.603-2.638s-.033.249.081-.315c.112-.565.356-1.648.867-3.521.319-1.162.22-2.089.072-3.206-.149-1.118-.419-2.366-.793-3.735-.748-2.737-1.918-5.939-3.403-9.135-1.484-3.196-3.28-6.377-5.35-9.039-2.073-2.661-4.4-4.89-7.348-5.853-2.439-.796-5.2-1.216-8.124-1.27z"
      ></path>
      <path
        fill="#582920"
        fillRule="nonzero"
        d="M332.684 151.758a2.598 2.598 0 00-2.368 1.982c-3.503 13.488-4.508 20.964-2.048 28.726 1.144 3.608 1.9 5.662 2.399 6.875.249.606.434 1.002.584 1.29.151.288.423.671.423.671a2.595 2.595 0 003.563.466 2.6 2.6 0 00.628-3.54c0 .003-.006-.008-.006-.005-.052-.1-.175-.366-.381-.864-.413-1.004-1.134-2.944-2.25-6.463-2.058-6.49-1.327-12.572 2.122-25.851a2.599 2.599 0 00-2.666-3.287zM275.434 92.994a2.6 2.6 0 00-.746 5.061c16.272 5.877 27.007 8.529 33.758 9.714 6.748 1.186 9.846.869 9.846.869a2.592 2.592 0 001.734-.98c.212-.269.366-.577.459-.906a2.621 2.621 0 00-.241-1.977 2.583 2.583 0 00-.664-.77 2.569 2.569 0 00-.906-.458 2.581 2.581 0 00-1.012-.076s-1.947.296-8.318-.823c-6.37-1.119-16.834-3.687-32.888-9.486a2.6 2.6 0 00-1.022-.168z"
      ></path>
      <path
        fill="#582920"
        fillRule="nonzero"
        d="M326.954 159.928a2.61 2.61 0 00-2.293 1.733c-3.781 10.262-2.746 14.981-2.063 23.702.679 8.637-.077 14.446-1.228 17.467a2.596 2.596 0 00.644 2.819 2.59 2.59 0 001.86.71 2.598 2.598 0 001.817-.814c.235-.249.418-.541.539-.86 1.632-4.279 2.27-10.637 1.556-19.729-.707-9.008-1.762-11.944 1.759-21.497a2.605 2.605 0 00-2.591-3.531z"
      ></path>
      <path
        fill="#57281f"
        fillRule="nonzero"
        d="M276.487 93.289c-5.385.362-9.365 1.825-13.961 4.029-4.772 2.288-7.983 4.907-10.009 7.001-2.027 2.095-2.968 3.846-2.968 3.846a2.616 2.616 0 00-.214 2.007 2.62 2.62 0 001.285 1.556 2.612 2.612 0 002.011.169 2.608 2.608 0 001.527-1.318s.468-.958 2.097-2.642c1.632-1.685 4.323-3.916 8.523-5.93 4.375-2.098 7.398-3.217 12.06-3.531 4.662-.313 11.06.262 21.564 1.911a2.61 2.61 0 002.711-1.175 2.585 2.585 0 00.316-2.015 2.626 2.626 0 00-1.236-1.624 2.596 2.596 0 00-.989-.323c-10.635-1.67-17.33-2.324-22.717-1.961zM288.819 105.772a2.605 2.605 0 00-2.564 2.116 2.615 2.615 0 00.279 1.745c.295.531.766.943 1.331 1.164 14.424 5.901 30.638 3.237 30.638 3.237a2.6 2.6 0 001.7-1.037 2.617 2.617 0 00.469-1.936 2.61 2.61 0 00-1.038-1.7 2.585 2.585 0 00-1.935-.469s-15.248 2.249-27.864-2.912a2.622 2.622 0 00-1.016-.208z"
      ></path>
      <path
        fill="#5b5b5b"
        fillRule="nonzero"
        d="M211.016 249.604l25.231 10.338c.97.397 1.433 1.5 1.034 2.47l-3.191 7.791a1.89 1.89 0 01-2.472 1.034l-25.23-10.337a1.891 1.891 0 01-1.035-2.472l3.192-7.789a1.89 1.89 0 012.471-1.035zM233.75 292.955a7.666 7.666 0 01-.807 10.836l-20.113 17.324a7.665 7.665 0 01-10.836-.808 7.667 7.667 0 01.807-10.836l20.112-17.324a7.667 7.667 0 0110.837.808z"
      ></path>
      <path
        fill="#c0292f"
        fillRule="nonzero"
        d="M241.735 305.756a3.926 3.926 0 01-.415 5.549l-24.724 21.296a3.922 3.922 0 01-5.547-.415 3.924 3.924 0 01.413-5.547l24.724-21.296a3.926 3.926 0 015.549.413z"
      ></path>
      <path
        fill="#5b5b5b"
        fillRule="nonzero"
        d="M319.314 416.715l2.391-.712a1.822 1.822 0 012.27 1.231l8.632 29.014a1.823 1.823 0 01-1.228 2.271l-2.393.712a1.824 1.824 0 01-2.27-1.231l-8.632-29.014a1.823 1.823 0 011.23-2.271z"
      ></path>
      <path
        fill="#c0292f"
        fillRule="nonzero"
        d="M281.732 321.256c-7.603 0-14.847 1.463-21.476 4.118a14.15 14.15 0 012.41 7.931v18.498c0 5.86-3.522 10.865-8.572 13.03v64.469c8.194 4.477 17.606 7.022 27.638 7.022h7.646c29.435 0 53.569-21.884 57.09-50.336 1.934-1.61 3.708-3.031 4.893-4.045a12.263 12.263 0 0117.33 1.356l-26.833-31.39a12.305 12.305 0 00-2.987-2.533c-10.009-16.86-28.384-28.12-49.493-28.12h-7.646z"
      ></path>
      <path
        fill="#9d2226"
        fillRule="nonzero"
        d="M257.439 322.299a14.137 14.137 0 015.225 11.006v11.939h74.861a6.937 6.937 0 006.953-6.953v-9.039c0-3.853-3.1-6.953-6.953-6.953h-80.086z"
      ></path>
      <path
        fill="#a52428"
        fillRule="nonzero"
        d="M283.432 338.225h26.546a17.17 17.17 0 0117.209 17.207 17.17 17.17 0 01-17.209 17.206h-26.546a17.17 17.17 0 01-17.208-17.206 17.17 17.17 0 0117.208-17.207z"
      ></path>
      <path
        fill="#9d2226"
        fillRule="nonzero"
        d="M293.221 283.043c-15.511 0-30.794 12.17-34.264 27.288l-2.569 11.187a14.146 14.146 0 016.276 11.787v12.286h44.181c2.505-3.523 4.36-7.458 5.316-11.621l5.426-23.639c3.47-15.118-6.222-27.288-21.734-27.288h-2.632z"
      ></path>
      <path
        fill="#c0292f"
        fillRule="nonzero"
        d="M301.009 282.347h2.792c14.345 0 28.493 11.25 31.725 25.227l5.052 21.853c3.231 13.975-5.717 25.228-20.061 25.228h-2.793c-14.346 0-28.494-11.253-31.726-25.228l-5.051-21.853c-3.23-13.977 5.717-25.227 20.062-25.227z"
      ></path>
      <path
        fill="#4f3f3f"
        fillRule="nonzero"
        d="M323.09 192.671a1.822 1.822 0 00-2.316 1.14l-20.951 61.539a1.817 1.817 0 001.138 2.315 1.822 1.822 0 002.317-1.139l20.951-61.538a1.823 1.823 0 00-1.139-2.317z"
      ></path>
      <path
        fill="#9d2226"
        fillRule="nonzero"
        d="M292.166 265.913c-5.77-1.392-11.589 2.399-13.043 8.499l-5.339 22.38c-1.456 6.101 2.019 12.134 7.789 13.526 5.771 1.392 11.59-2.399 13.044-8.501l5.339-22.378c1.456-6.102-2.019-12.134-7.79-13.526z"
      ></path>
      <path
        fill="#9d2226"
        fillRule="nonzero"
        d="M301.389 253.055c-2.511-.603-5.012.948-5.609 3.478l-11.7 49.554c-.596 2.53.943 5.052 3.453 5.656 2.511.601 5.011-.949 5.609-3.479l11.7-49.554c.598-2.531-.943-5.053-3.453-5.655z"
      ></path>
      <path
        fill="#4f3f3f"
        fillRule="nonzero"
        d="M262.107 198.979c.941-.214 1.878.408 2.104 1.394l13.545 59.525c.225.987-.351 1.953-1.292 2.167-.941.214-1.878-.409-2.102-1.394l-13.547-59.526c-.225-.986.351-1.952 1.292-2.166z"
      ></path>
      <path
        fill="#c0292f"
        fillRule="nonzero"
        d="M284.793 267.814c5.845-1.021 11.409 3.13 12.477 9.309l3.92 22.667c1.068 6.18-2.776 11.978-8.621 13-5.842 1.023-11.406-3.13-12.476-9.307l-3.918-22.669c-1.068-6.18 2.774-11.978 8.618-13z"
      ></path>
      <path
        fill="#c0292f"
        fillRule="nonzero"
        d="M276.395 254.399c2.537-.442 4.934 1.264 5.369 3.827l8.569 50.189c.438 2.56-1.253 4.98-3.791 5.422-2.539.443-4.934-1.263-5.372-3.826l-8.568-50.189c-.438-2.561 1.255-4.98 3.793-5.423z"
      ></path>
      <path
        fill="#453737"
        fillRule="nonzero"
        d="M262.067 199.996a1.302 1.302 0 00-1.19.821 1.354 1.354 0 00-.091.5v21.568c0 11.671 9.435 21.105 21.106 21.105.173.003.345-.029.503-.093a1.298 1.298 0 00.715-.705 1.276 1.276 0 000-1.004 1.292 1.292 0 00-1.218-.799 18.434 18.434 0 01-18.505-18.504v-21.568a1.316 1.316 0 00-.379-.941 1.3 1.3 0 00-.941-.38zm67.092 0a1.293 1.293 0 00-.914.395 1.3 1.3 0 00-.366.926v21.568a18.433 18.433 0 01-18.504 18.504 1.27 1.27 0 00-.503.094c-.16.064-.307.159-.428.28a1.289 1.289 0 00-.388.927 1.292 1.292 0 00.816 1.207c.16.064.329.096.503.093 11.671 0 21.105-9.434 21.105-21.105v-21.568a1.318 1.318 0 00-.094-.509 1.309 1.309 0 00-1.227-.812z"
      ></path>
      <path
        fill="#582920"
        fillRule="nonzero"
        d="M331.693 197.389a1.334 1.334 0 00-.461.088 1.224 1.224 0 00-.388.236 1.08 1.08 0 00-.254.35.913.913 0 00-.085.41v29.797c0 19.547-15.841 35.144-35.39 35.144-19.551 0-35.391-15.597-35.391-35.144v-29.193a.955.955 0 00-.087-.413 1.053 1.053 0 00-.26-.351 1.263 1.263 0 00-.86-.318c-.16 0-.318.028-.465.082a1.25 1.25 0 00-.395.236c-.112.1-.2.22-.26.351a.985.985 0 00-.087.413v29.193c0 20.571 16.806 37.277 37.805 37.277 20.997 0 37.802-16.706 37.802-37.277v-29.797a.953.953 0 00-.089-.418 1.046 1.046 0 00-.264-.353 1.199 1.199 0 00-.401-.235 1.333 1.333 0 00-.47-.078z"
      ></path>
      <path
        fill="#9d2226"
        fillRule="nonzero"
        d="M310.212 315.599a3.313 3.313 0 014.365 1.733l12.124 28.11a3.315 3.315 0 01-1.735 4.365 3.315 3.315 0 01-4.366-1.733l-12.122-28.11a3.314 3.314 0 011.734-4.365zM292.893 308.573a3.99 3.99 0 015.255 2.088l14.591 33.836a3.988 3.988 0 01-2.088 5.254 3.988 3.988 0 01-5.254-2.088l-14.592-33.836a3.989 3.989 0 012.088-5.254z"
      ></path>
      <path
        fill="#874e3a"
        fillOpacity="0.99"
        fillRule="nonzero"
        d="M262.663 343.853v7.95c0 1.469-.222 2.884-.633 4.217h77.531a6.07 6.07 0 006.084-6.083 6.07 6.07 0 00-6.084-6.084h-76.898z"
      ></path>
      <path
        fill="#d53a40"
        fillRule="nonzero"
        d="M347.133 358.571l11.528 14.158a3.496 3.496 0 01-.505 4.932 3.498 3.498 0 01-4.932-.505L341.696 363a3.5 3.5 0 01.505-4.933 3.498 3.498 0 014.932.504zM258.613 367.839a4.509 4.509 0 014.52 4.52v33.371a4.509 4.509 0 01-4.52 4.52 4.51 4.51 0 01-4.519-4.52v-33.371a4.51 4.51 0 014.519-4.52z"
      ></path>
      <path
        fill="#c0292f"
        fillRule="nonzero"
        d="M259.707 416.64h4.924a5.637 5.637 0 015.649 5.649v8.366a5.637 5.637 0 01-5.649 5.649h-4.924c-3.13 0-5.65-2.52-5.65-5.649v-8.366a5.638 5.638 0 015.65-5.649z"
      ></path>
      <path
        fill="#b4272c"
        fillRule="nonzero"
        d="M281.113 379.024l22.518 5.95a7.631 7.631 0 015.441 9.348 7.63 7.63 0 01-9.347 5.439l-22.519-5.948a7.632 7.632 0 01-5.441-9.348 7.63 7.63 0 019.348-5.441z"
      ></path>
      <path
        fill="#b4272c"
        fillRule="nonzero"
        d="M302.815 386.029l10.835-5.804a5.517 5.517 0 017.486 2.262 5.52 5.52 0 01-2.263 7.489l-10.834 5.803a5.52 5.52 0 01-7.487-2.263 5.519 5.519 0 012.263-7.487z"
      ></path>
      <path
        fill="#fffffe"
        fillRule="nonzero"
        d="M199.391 307.025l24.167-19.596a2.514 2.514 0 013.544.37 2.512 2.512 0 01-.37 3.544l-24.166 19.598a2.516 2.516 0 01-3.545-.371 2.516 2.516 0 01.37-3.545z"
      ></path>
      <path
        fill="#d53a40"
        fillRule="nonzero"
        d="M267.552 406.878l7.518 3.619a7.024 7.024 0 013.289 9.395 7.023 7.023 0 01-9.395 3.292l-7.518-3.619a7.024 7.024 0 01-3.291-9.396 7.025 7.025 0 019.397-3.291z"
      ></path>
      <path
        fill="#d53a40"
        fillRule="nonzero"
        d="M276.256 412.336h9.039a4.076 4.076 0 014.083 4.086 4.076 4.076 0 01-4.083 4.084h-9.039a4.077 4.077 0 01-4.086-4.084 4.077 4.077 0 014.086-4.086z"
      ></path>
      <path
        fill="#5b5b5b"
        fillRule="nonzero"
        d="M274.858 189.412c-5.921 2.26-11.191 5.418-15.514 9.274v1.883c0 16.614 13.376 29.989 29.988 29.989h10.817c16.614 0 29.99-13.375 29.99-29.989v-4.385c-3.598-2.685-7.705-4.943-12.194-6.681h-.883v4.852c0 8.537-11.005 15.411-19.543 15.411h-5.557a15.378 15.378 0 01-15.411-15.411V189.5a17.224 17.224 0 01-1.693-.088z"
      ></path>
      <path
        fill="#efead9"
        fillRule="nonzero"
        d="M313.389 88.876c15.915 9.974 18.148 19.753 17.816 34.449l-18.558-.62c-.995-15.235-5.717-29.696-21.473-35.825-2.769-1.278 13.481-1.748 22.215 1.996z"
      ></path>
      <path
        fill="#50691d"
        fillOpacity="0.99"
        fillRule="nonzero"
        d="M296.241 85.952c-1.4-.013-2.58.036-3.498.126a54.244 54.244 0 017.923 6.515 29.512 29.512 0 015.171 6.032c2.566 3.519 4.22 6.761 5.175 9.146 1.762 4.409 1.98 10.758 2.252 14.953l6.897.231c.081-14.465-3.353-27.088-20.17-36.845a61.064 61.064 0 00-3.75-.158z"
      ></path>
      <path
        fill="#be9775"
        fillRule="nonzero"
        d="M289.191 86.711c11.195 6.099 22.698 19.687 22.698 33.236v33.525c0 18.722-14.397 33.963-32.951 35.667h11c14.401-5.641 24.552-19.454 24.552-35.667v-33.525c0-13.369-10.257-26.706-21.271-33.821h-2.973c-.239-.073-1.407.299-1.055.585z"
      ></path>
      <path
        fill="#9d2226"
        fillRule="nonzero"
        d="M307.95 87.212l.068.16c10.693 6.882 15.854 15.732 17.821 20.648 1.82 4.554 1.849 11.507 2.169 15.197l3.203.108c.331-14.697-1.903-24.475-17.816-34.449-1.614-.692-3.486-1.239-5.445-1.664z"
      ></path>
      <path
        fill="#5b5b5b"
        fillRule="nonzero"
        d="M251.744 122.236h84.997c1.01 0 1.824.814 1.824 1.826v2.781a1.82 1.82 0 01-1.824 1.825h-84.997a1.82 1.82 0 01-1.826-1.825v-2.781a1.82 1.82 0 011.826-1.826z"
      ></path>
      <path
        fill="#bf9876"
        fillOpacity="0.99"
        fillRule="nonzero"
        d="M270.095 477.159l33.366-4.857a1.598 1.598 0 011.817 1.354l.462 3.172a1.596 1.596 0 01-1.355 1.814l-33.366 4.859a1.598 1.598 0 01-1.816-1.354l-.461-3.171a1.6 1.6 0 011.353-1.817z"
      ></path>
      <path
        fill="#d7bfaa"
        fillOpacity="0.99"
        fillRule="nonzero"
        d="M275.993 474.564h2.434a3.294 3.294 0 013.303 3.301v17.555a3.296 3.296 0 01-3.303 3.303h-2.434a3.295 3.295 0 01-3.302-3.303v-17.555a3.294 3.294 0 013.302-3.301z"
      ></path>
      <path
        fill="#be9775"
        fillRule="nonzero"
        d="M335.42 199.823a1.295 1.295 0 00-.914.395 1.307 1.307 0 00-.366.926v36.333c0 23.834-17.08 42.851-38.158 42.851-21.078 0-38.155-19.017-38.155-42.851v-35.596a1.316 1.316 0 00-.376-.932 1.308 1.308 0 00-1.427-.287c-.16.067-.305.164-.424.287a1.286 1.286 0 00-.376.932v35.596c0 25.081 18.118 45.452 40.758 45.452 22.64 0 40.759-20.371 40.759-45.452v-36.333a1.29 1.29 0 00-.38-.94 1.288 1.288 0 00-.941-.381z"
      ></path>
      <path
        fill="#be9775"
        fillRule="nonzero"
        d="M288.721 238.136c-3.966 0-7.2 3.233-7.2 7.199 0 3.967 3.234 7.2 7.2 7.2h12.538c3.969 0 7.2-3.233 7.2-7.2 0-3.966-3.231-7.199-7.2-7.199h-12.538zm0 2.601h12.538a4.56 4.56 0 014.599 4.598 4.56 4.56 0 01-4.599 4.599h-12.538a4.56 4.56 0 01-4.599-4.599 4.56 4.56 0 014.599-4.598z"
      ></path>
      <path
        fill="#525252"
        fillRule="nonzero"
        d="M321.009 190.8v2.834a19.828 19.828 0 01-19.902 19.902h-10.08a19.831 19.831 0 01-19.906-19.902v-2.626c-.883.415-1.754.842-2.601 1.298v1.328c0 12.446 10.061 22.503 22.507 22.503h10.08c12.446 0 22.505-10.057 22.505-22.503v-1.547c-.85-.448-1.718-.88-2.603-1.287zm5.655 3.03v3.096a25.042 25.042 0 01-25.125 25.125h-10.95a25.041 25.041 0 01-25.123-25.125v-2.824a48.989 48.989 0 00-2.601 1.751v1.073c0 15.337 12.388 27.726 27.724 27.726h10.95c15.338 0 27.726-12.389 27.726-27.726v-1.37a48.037 48.037 0 00-2.601-1.726z"
      ></path>
      <path
        fill="#b48760"
        fillRule="nonzero"
        d="M285.619 208.5h19.221c3.5 0 6.316 2.817 6.316 6.315v8.902a6.3 6.3 0 01-6.316 6.315h-19.221a6.3 6.3 0 01-6.315-6.315v-8.902a6.3 6.3 0 016.315-6.315z"
      ></path>
      <path
        fill="#be9775"
        fillRule="nonzero"
        d="M295.616 210.441a8.846 8.846 0 018.865 8.865 8.845 8.845 0 01-8.865 8.864 8.844 8.844 0 01-8.864-8.864 8.845 8.845 0 018.864-8.865zM379.649 244.628l-25.231 10.338c-.972.398-1.518 1.538-1.036 2.471l1.103 2.137c.397.97 1.5 1.432 2.47 1.033l25.231-10.337a1.89 1.89 0 001.036-2.471l-1.103-2.136c-.48-.933-1.5-1.433-2.47-1.035z"
      ></path>
      <path
        fill="#c0292f"
        fillRule="nonzero"
        d="M268.26 88.692l66.977 26.982a1.32 1.32 0 01.73 1.721 1.317 1.317 0 01-1.719.732l-66.975-26.982a1.317 1.317 0 01-.733-1.72 1.319 1.319 0 011.72-.733z"
      ></path>
      <path
        fill="#be9775"
        fillRule="nonzero"
        d="M265.74 125.017a6.43 6.43 0 01-.436 2.328 6.121 6.121 0 01-1.244 1.974 5.761 5.761 0 01-1.86 1.319 5.45 5.45 0 01-4.391 0 5.719 5.719 0 01-1.86-1.319 6.07 6.07 0 01-1.244-1.974 6.389 6.389 0 01-.437-2.328c0-.799.148-1.59.437-2.328a6.077 6.077 0 011.244-1.973 5.719 5.719 0 011.86-1.319 5.449 5.449 0 012.195-.463c1.521 0 2.981.641 4.056 1.782 1.076 1.141 1.68 2.688 1.68 4.301z"
      ></path>
      <path
        fill="#a56d4e"
        fillOpacity="0.99"
        fillRule="nonzero"
        d="M403.974 294.702h10.298c.428 0 .771.343.771.771v247.498a.77.77 0 01-.771.772h-10.298a.771.771 0 01-.771-.772V295.473a.77.77 0 01.771-.771z"
      ></path>
      <path
        fill="#707070"
        fillRule="nonzero"
        d="M409.124 76.29c7.126 0 16.429 10.6 15.992 23.745l-3.13 94.008c-.437 13.144-5.736 23.744-12.862 23.744-7.125 0-12.425-10.6-12.863-23.744l-3.127-94.008c-.438-13.145 8.865-23.745 15.99-23.745z"
      ></path>
      <path
        fill="#707070"
        fillRule="nonzero"
        d="M400.561 187.191h17.122c2.383 0 4.301 2.29 4.301 5.134v20.328c0 2.845-1.918 5.134-4.301 5.134h-17.122c-2.383 0-4.302-2.289-4.302-5.134v-20.328c0-2.844 1.919-5.134 4.302-5.134z"
      ></path>
      <path
        fill="#7a7a7a"
        fillRule="nonzero"
        d="M424.863 107.684l-31.222 7.597 1.251 37.551 28.7-6.985 1.271-38.163zm-1.733 52.042l-27.784 6.76.715 21.459 26.344-6.411.725-21.808z"
      ></path>
      <path
        fill="#8c5d42"
        fillOpacity="0.99"
        fillRule="nonzero"
        d="M403.405 294.702h11.436c.112 0 .202.091.202.202v65.084c0 .114-.09.204-.202.204h-11.436a.202.202 0 01-.202-.204v-65.084c0-.111.09-.202.202-.202z"
      ></path>
      <path
        fill="#5b5b5b"
        fillRule="nonzero"
        d="M409.124 200.112c-4.369 0-7.886 5.271-7.886 11.819v28.199h15.772v-28.199c0-6.548-3.517-11.819-7.886-11.819zm-7.886 82.468v28.247c0 6.548 3.517 11.821 7.886 11.821s7.886-5.273 7.886-11.821V282.58h-15.772z"
      ></path>
      <path
        fill="#5b5b5b"
        fillRule="nonzero"
        d="M403.924 309.095h10.398a4.624 4.624 0 014.633 4.634v4.621a4.623 4.623 0 01-4.633 4.634h-10.398a4.623 4.623 0 01-4.634-4.634v-4.621a4.624 4.624 0 014.634-4.634zM409.124 96.854c1.498 0 2.703 1.479 2.703 3.316v115.765c0 1.837-1.205 3.316-2.703 3.316-1.498 0-2.705-1.479-2.705-3.316V100.17c0-1.837 1.207-3.316 2.705-3.316z"
      ></path>
      <path
        fill="#707070"
        fillRule="nonzero"
        d="M412.178 214.881c1.203 0 2.171.969 2.171 2.173v14.079a2.167 2.167 0 01-2.171 2.172 2.167 2.167 0 01-2.173-2.172v-14.079c0-1.204.968-2.173 2.173-2.173zM410.267 311h3.826c1.203 0 2.171.97 2.171 2.173v1.217a2.166 2.166 0 01-2.171 2.173h-3.826a2.168 2.168 0 01-2.173-2.173v-1.217a2.17 2.17 0 012.173-2.173z"
      ></path>
      <path
        fill="#7a7a7a"
        fillRule="nonzero"
        d="M223.103 296.507l-4.565 3.7a3.92 3.92 0 00-.577 5.51l.771.951a3.917 3.917 0 005.511.576l4.566-3.7a3.916 3.916 0 00.576-5.51l-.771-.951a3.917 3.917 0 00-5.511-.576zM229.43 262.206a3.808 3.808 0 00-3.81-3.81 3.809 3.809 0 00-3.81 3.81v.244a3.81 3.81 0 007.62 0v-.244z"
      ></path>
      <path
        fill="#d2b69f"
        fillRule="nonzero"
        d="M376.228 247.642h-.37a2.09 2.09 0 000 4.179h.37a2.088 2.088 0 000-4.179z"
      ></path>
      <path
        fill="#50691e"
        fillRule="nonzero"
        d="M277.844 122.4h-8.971a.982.982 0 00-.983.983v4.179c0 .543.439.984.983.984h8.971a.984.984 0 00.984-.984v-4.179a.983.983 0 00-.984-.983z"
      ></path>
      <path
        fill="#9d2226"
        fillRule="nonzero"
        d="M290.215 122.4h-8.971a.983.983 0 00-.984.983v4.179c0 .543.44.984.984.984h8.971a.984.984 0 00.984-.984v-4.179a.983.983 0 00-.984-.983z"
      ></path>
      <path
        fill="#efead9"
        fillRule="nonzero"
        d="M302.59 122.4h-8.972a.983.983 0 00-.983.983v4.179c0 .543.44.984.983.984h8.972a.983.983 0 00.983-.984v-4.179a.982.982 0 00-.983-.983z"
      ></path>
      <path
        fill="#9d2226"
        fillRule="nonzero"
        d="M314.964 122.4h-8.971a.982.982 0 00-.983.983v4.179c0 .543.439.984.983.984h8.971a.984.984 0 00.984-.984v-4.179a.983.983 0 00-.984-.983zM252.341 122.4h-2.337a.984.984 0 00-.983.983v4.179c0 .543.442.984.983.984h2.337a.985.985 0 00.984-.984v-4.179a.984.984 0 00-.984-.983z"
      ></path>
      <path
        fill="#50691e"
        fillRule="nonzero"
        d="M327.37 122.4h-8.973a.984.984 0 00-.984.983v4.179c0 .543.442.984.984.984h8.973a.983.983 0 00.981-.984v-4.179a.982.982 0 00-.981-.983z"
      ></path>
      <defs>
        <linearGradient
          id="_Linear1"
          x1="0"
          x2="1"
          y1="0"
          y2="0"
          gradientTransform="rotate(-87.474 234.529 84.264) scale(133.85308)"
          gradientUnits="userSpaceOnUse"
        >
          <stop offset="0" stopColor="#694622"></stop>
          <stop offset="1" stopColor="#54381b"></stop>
        </linearGradient>
      </defs>
    </svg>