<svg width="765" height="719" viewBox="0 0 765 719" fill="none" xmlns="http://www.w3.org/2000/svg">
<path d="M672.278 358.868C672.278 400.891 663.891 442.503 647.594 481.327C631.297 520.151 607.41 555.428 577.297 585.142C547.185 614.857 511.436 638.428 472.091 654.51C432.747 670.591 390.579 678.868 347.993 678.868C305.407 678.868 263.238 670.591 223.894 654.51C184.55 638.428 148.801 614.857 118.688 585.142C88.5754 555.428 64.6887 520.151 48.3918 481.327C32.0949 442.503 23.707 400.891 23.707 358.868C23.707 273.999 57.8728 192.606 118.688 132.594C179.503 72.5823 261.987 38.8682 347.993 38.8682C433.999 38.8682 516.482 72.5823 577.297 132.594C638.113 192.606 672.278 273.999 672.278 358.868Z" fill="#AFCAF2" fill-opacity="0.996078"/>
<path d="M207.484 114.77C201.944 114.77 197.484 119.23 197.484 124.77C197.484 130.31 201.944 134.77 207.484 134.77H238.912C244.452 134.77 248.912 130.31 248.912 124.77C248.912 119.23 244.452 114.77 238.912 114.77H207.484ZM221.055 154.77C204.039 154.77 190.342 168.469 190.342 185.484C190.342 202.5 204.039 216.199 221.055 216.199H230.557C219.904 225.609 213.199 239.373 213.199 254.77C213.199 261.327 214.426 267.584 216.645 273.342H35.8496C31.6211 288.336 28.5067 303.614 26.5312 319.055H243.049C242.221 322.73 241.77 326.552 241.77 330.484V359.055C241.77 387.546 264.708 410.484 293.199 410.484H667.645C670.6 393.431 672.15 376.168 672.277 358.867C672.195 331.933 668.666 305.117 661.775 279.055H637.316C637.422 277.878 637.484 276.689 637.484 275.484C637.484 253.72 619.963 236.199 598.199 236.199H516.769C495.005 236.199 477.484 253.72 477.484 275.484C477.484 276.689 477.545 277.878 477.65 279.055H424.289C428.15 271.829 430.342 263.566 430.342 254.77C430.342 226.278 407.403 203.342 378.912 203.342H314.641C318.228 198.315 320.342 192.158 320.342 185.484C320.342 168.469 306.643 154.77 289.627 154.77H221.055ZM143.199 233.342C136.076 233.342 130.342 239.074 130.342 246.197C130.342 253.32 136.076 259.055 143.199 259.055H163.199C170.322 259.055 176.055 253.32 176.055 246.197C176.055 239.074 170.322 233.342 163.199 233.342H143.199Z" fill="#9EC0F3"/>
<path d="M171.509 129.414H216.966C228.438 129.414 237.674 138.649 237.674 150.122C237.674 161.594 228.438 170.83 216.966 170.83H171.509C160.037 170.83 150.801 161.594 150.801 150.122C150.801 138.649 160.037 129.414 171.509 129.414Z" fill="#C4D7F3"/>
<path d="M182.62 244.571H228.077C239.549 244.571 248.785 253.807 248.785 265.279C248.785 276.751 239.549 285.987 228.077 285.987H182.62C171.148 285.987 161.912 276.751 161.912 265.279C161.912 253.807 171.148 244.571 182.62 244.571Z" fill="#C4D7F3"/>
<path d="M508.542 156.591H553.999C565.471 156.591 574.707 165.827 574.707 177.299C574.707 188.772 565.471 198.008 553.999 198.008H508.542C497.07 198.008 487.834 188.772 487.834 177.299C487.834 165.827 497.07 156.591 508.542 156.591Z" fill="#C4D7F3"/>
<path d="M479.605 221.337H525.061C536.534 221.337 545.77 230.573 545.77 242.046C545.77 253.518 536.534 262.754 525.061 262.754H479.605C468.132 262.754 458.896 253.518 458.896 242.046C458.896 230.573 468.132 221.337 479.605 221.337Z" fill="#C4D7F3"/>
<path d="M587.448 330.078H624.665C653.136 330.078 676.057 352.998 676.057 381.469V440.114C676.057 468.585 653.136 491.506 624.665 491.506H587.448C558.977 491.506 536.057 468.585 536.057 440.114V381.469C536.057 352.998 558.977 330.078 587.448 330.078Z" fill="#6E6C16"/>
<path d="M131.834 371.892H551.602C618.324 371.892 672.038 420.824 672.038 481.604V510.636C672.038 571.416 618.324 620.348 551.602 620.348H131.834C65.1129 620.348 11.3984 571.416 11.3984 510.636V481.604C11.3984 420.824 65.1129 371.892 131.834 371.892Z" fill="#6E6C16"/>
<path d="M69.988 400.175H334.65C360.952 400.175 382.126 421.35 382.126 447.652V450.684C382.126 476.986 360.952 498.16 334.65 498.16H69.988C43.6861 498.16 22.5117 476.986 22.5117 450.684V447.652C22.5117 421.35 43.6861 400.175 69.988 400.175Z" fill="#57554C"/>
<path d="M74.591 337.221H111.807C140.278 337.221 163.199 360.141 163.199 388.613V447.257C163.199 475.729 140.278 498.649 111.807 498.649H74.591C46.12 498.649 23.1992 475.729 23.1992 447.257V388.613C23.1992 360.141 46.12 337.221 74.591 337.221Z" fill="#7E7C1A"/>
<path d="M200.804 404.216C220.67 404.216 236.664 420.21 236.664 440.076V464.32C236.664 484.187 220.67 500.18 200.804 500.18C180.937 500.18 164.943 484.187 164.943 464.32V440.076C164.943 420.21 180.937 404.216 200.804 404.216Z" fill="#7E7C1A"/>
<path d="M317.981 320.373C342.884 320.373 362.933 340.422 362.933 365.325V418.863C362.933 443.766 342.884 463.815 317.981 463.815C293.078 463.815 273.029 443.766 273.029 418.863V365.325C273.029 340.422 293.078 320.373 317.981 320.373Z" fill="#4C5F13"/>
<path d="M272.018 400.175C286.568 400.175 298.282 411.889 298.282 426.439V455.734C298.282 470.284 286.568 481.998 272.018 481.998C257.468 481.998 245.754 470.284 245.754 455.734V426.439C245.754 411.889 257.468 400.175 272.018 400.175Z" fill="#4C5F13"/>
<path d="M317.96 368.887H422.722C441.189 368.887 456.056 383.754 456.056 402.221V454.601C456.056 473.068 441.189 487.935 422.722 487.935H317.96C299.494 487.935 284.627 473.068 284.627 454.601V402.221C284.627 383.754 299.494 368.887 317.96 368.887Z" fill="#646157" fill-opacity="0.998039"/>
<path d="M317.96 368.887C336.427 368.887 351.294 383.754 351.294 402.221V454.601C351.294 473.068 336.427 487.935 317.96 487.935C299.494 487.935 284.627 473.068 284.627 454.601V402.221C284.627 383.754 299.494 368.887 317.96 368.887Z" fill="#747065" fill-opacity="0.996078"/>
<path d="M373.428 413.233H374.933C377.731 413.233 379.984 415.486 379.984 418.284V452.825C379.984 455.623 377.731 457.876 374.933 457.876H373.428C370.63 457.876 368.377 455.623 368.377 452.825V418.284C368.377 415.486 370.63 413.233 373.428 413.233Z" fill="#57554C" fill-opacity="0.998039"/>
<path d="M396.246 413.233H397.752C400.55 413.233 402.802 415.486 402.802 418.284V452.825C402.802 455.623 400.55 457.876 397.752 457.876H396.246C393.448 457.876 391.195 455.623 391.195 452.825V418.284C391.195 415.486 393.448 413.233 396.246 413.233Z" fill="#57554C" fill-opacity="0.998039"/>
<path d="M419.062 413.233H420.568C423.366 413.233 425.619 415.486 425.619 418.284V452.825C425.619 455.623 423.366 457.876 420.568 457.876H419.062C416.264 457.876 414.012 455.623 414.012 452.825V418.284C414.012 415.486 416.264 413.233 419.062 413.233Z" fill="#57554C" fill-opacity="0.998039"/>
<path d="M441.881 413.233H443.386C446.185 413.233 448.437 415.486 448.437 418.284V452.825C448.437 455.623 446.185 457.876 443.386 457.876H441.881C439.083 457.876 436.83 455.623 436.83 452.825V418.284C436.83 415.486 439.083 413.233 441.881 413.233Z" fill="#57554C" fill-opacity="0.998039"/>
<path d="M314.232 424.542H321.69C324.489 424.542 326.741 426.795 326.741 429.593V457.884C326.741 460.682 324.489 462.935 321.69 462.935H314.232C311.434 462.935 309.182 460.682 309.182 457.884V429.593C309.182 426.795 311.434 424.542 314.232 424.542Z" fill="#646157"/>
<path d="M311.287 400.396H322.23C325.029 400.396 327.281 402.648 327.281 405.446V412.181C327.281 414.979 325.029 417.231 322.23 417.231H311.287C308.489 417.231 306.236 414.979 306.236 412.181V405.446C306.236 402.648 308.489 400.396 311.287 400.396Z" fill="#646157" fill-opacity="0.998039"/>
<path d="M314.06 378.907H320.051C321.583 378.907 322.816 380.14 322.816 381.672V385.359C322.816 386.891 321.583 388.124 320.051 388.124H314.06C312.528 388.124 311.295 386.891 311.295 385.359V381.672C311.295 380.14 312.528 378.907 314.06 378.907Z" fill="#57554C"/>
<path d="M448.914 350.078H574.628C596.788 350.078 614.628 367.918 614.628 390.078V452.935C614.628 475.095 596.788 492.935 574.628 492.935H448.914C426.754 492.935 408.914 475.095 408.914 452.935V390.078C408.914 367.918 426.754 350.078 448.914 350.078Z" fill="#646157" fill-opacity="0.998039"/>
<path d="M448.914 350.078C471.074 350.078 488.914 367.918 488.914 390.078V452.935C488.914 475.095 471.074 492.935 448.914 492.935C426.754 492.935 408.914 475.095 408.914 452.935V390.078C408.914 367.918 426.754 350.078 448.914 350.078Z" fill="#747065" fill-opacity="0.996078"/>
<path d="M515.475 403.292H517.282C520.639 403.292 523.343 405.995 523.343 409.353V450.803C523.343 454.16 520.639 456.863 517.282 456.863H515.475C512.117 456.863 509.414 454.16 509.414 450.803V409.353C509.414 405.995 512.117 403.292 515.475 403.292Z" fill="#57554C" fill-opacity="0.998039"/>
<path d="M542.856 403.292H544.663C548.02 403.292 550.724 405.995 550.724 409.353V450.803C550.724 454.16 548.02 456.863 544.663 456.863H542.856C539.498 456.863 536.795 454.16 536.795 450.803V409.353C536.795 405.995 539.498 403.292 542.856 403.292Z" fill="#57554C" fill-opacity="0.998039"/>
<path d="M570.237 403.292H572.043C575.401 403.292 578.104 405.995 578.104 409.353V450.803C578.104 454.16 575.401 456.863 572.043 456.863H570.237C566.879 456.863 564.176 454.16 564.176 450.803V409.353C564.176 405.995 566.879 403.292 570.237 403.292Z" fill="#57554C" fill-opacity="0.998039"/>
<path d="M597.618 403.292H599.424C602.782 403.292 605.485 405.995 605.485 409.353V450.803C605.485 454.16 602.782 456.863 599.424 456.863H597.618C594.26 456.863 591.557 454.16 591.557 450.803V409.353C591.557 405.995 594.26 403.292 597.618 403.292Z" fill="#57554C" fill-opacity="0.998039"/>
<path d="M444.438 416.864H453.387C456.745 416.864 459.448 419.567 459.448 422.925V456.874C459.448 460.232 456.745 462.935 453.387 462.935H444.438C441.08 462.935 438.377 460.232 438.377 456.874V422.925C438.377 419.567 441.08 416.864 444.438 416.864Z" fill="#646157"/>
<path d="M440.905 387.888H454.037C457.394 387.888 460.098 390.591 460.098 393.949V402.03C460.098 405.388 457.394 408.091 454.037 408.091H440.905C437.547 408.091 434.844 405.388 434.844 402.03V393.949C434.844 390.591 437.547 387.888 440.905 387.888Z" fill="#646157" fill-opacity="0.998039"/>
<path d="M444.234 362.102H451.423C453.261 362.102 454.741 363.581 454.741 365.42V369.844C454.741 371.682 453.261 373.162 451.423 373.162H444.234C442.396 373.162 440.916 371.682 440.916 369.844V365.42C440.916 363.581 442.396 362.102 444.234 362.102Z" fill="#57554C"/>
<path d="M595.699 425.078H617.842C630.307 425.078 640.342 435.113 640.342 447.578C640.342 460.043 630.307 470.078 617.842 470.078H595.699C583.234 470.078 573.199 460.043 573.199 447.578C573.199 435.113 583.234 425.078 595.699 425.078Z" fill="#7E7C1A"/>
<path d="M641.056 413.649C659.654 413.649 674.627 428.622 674.627 447.221C674.627 465.819 659.654 480.792 641.056 480.792C622.457 480.792 607.484 465.819 607.484 447.221C607.484 428.622 622.457 413.649 641.056 413.649Z" fill="#7E7C1A"/>
<path d="M12.2722 458.723H671.164C671.649 458.723 672.038 459.113 672.038 459.597V619.474C672.038 619.958 671.649 620.348 671.164 620.348H12.2722C11.7881 620.348 11.3984 619.958 11.3984 619.474V459.597C11.3984 459.113 11.7881 458.723 12.2722 458.723Z" fill="#3BA1D9"/>
<path d="M11.9035 540.586H662.442C668.318 540.586 673.048 545.317 673.048 551.193V575.437C673.048 581.313 668.318 586.043 662.442 586.043H11.9035C6.02742 586.043 1.29688 581.313 1.29688 575.437V551.193C1.29688 545.317 6.02742 540.586 11.9035 540.586Z" fill="#6C685E" fill-opacity="0.996078"/>
<path d="M621.532 489.068C648.394 489.068 670.02 510.694 670.02 537.556V555.738C670.02 582.6 648.394 604.226 621.532 604.226C594.67 604.226 573.045 582.6 573.045 555.738V537.556C573.045 510.694 594.67 489.068 621.532 489.068Z" fill="#7E7C1A"/>
<path d="M572.034 537.556C581.548 537.556 589.206 545.215 589.206 554.728V563.82C589.206 573.333 581.548 580.992 572.034 580.992C562.52 580.992 554.861 573.333 554.861 563.82V554.728C554.861 545.215 562.52 537.556 572.034 537.556Z" fill="#7E7C1A"/>
<path d="M73.775 551.657H612.21C652.748 551.657 685.383 575.158 685.383 604.349V614.123C685.383 643.314 652.748 666.815 612.21 666.815H73.775C33.2369 666.815 0.601562 643.314 0.601562 614.123V604.349C0.601562 575.158 33.2369 551.657 73.775 551.657Z" fill="#736F64"/>
<path d="M94.085 630.791H601.899C626.255 630.791 645.863 650.399 645.863 674.755C645.863 699.111 626.255 718.719 601.899 718.719H94.085C69.729 718.719 50.1211 699.111 50.1211 674.755C50.1211 650.399 69.729 630.791 94.085 630.791Z" fill="#57554C"/>
<path d="M83.4784 620.791H612.506C630.986 620.791 645.863 637.898 645.863 659.148C645.863 680.398 630.986 697.506 612.506 697.506H83.4784C64.9984 697.506 50.1211 680.398 50.1211 659.148C50.1211 637.898 64.9984 620.791 83.4784 620.791Z" fill="#898477"/>
<path d="M196.791 646.125H508.801C518.786 646.125 526.825 654.163 526.825 664.148C526.825 674.133 518.786 682.172 508.801 682.172H196.791C186.806 682.172 178.768 674.133 178.768 664.148C178.768 654.163 186.806 646.125 196.791 646.125Z" fill="#736F64"/>
<path d="M499.98 561.587H532.123C537.861 561.587 542.48 566.206 542.48 571.944C542.48 577.682 537.861 582.301 532.123 582.301H499.98C494.242 582.301 489.623 577.682 489.623 571.944C489.623 566.206 494.242 561.587 499.98 561.587Z" fill="#827D71"/>
<path d="M536.651 594.917H554.026C557.127 594.917 559.624 597.414 559.624 600.515C559.624 603.617 557.127 606.114 554.026 606.114H536.651C533.55 606.114 531.053 603.617 531.053 600.515C531.053 597.414 533.55 594.917 536.651 594.917Z" fill="#827D71"/>
<path d="M13.925 453.713H666.736C669.814 453.713 672.292 456.191 672.292 459.269C672.292 462.347 669.814 464.825 666.736 464.825H13.925C10.847 464.825 8.36914 462.347 8.36914 459.269C8.36914 456.191 10.847 453.713 13.925 453.713Z" fill="#6C685E" fill-opacity="0.996078"/>
<path d="M112.415 358.254C122.488 358.254 130.598 366.363 130.598 376.437V386.538C130.598 396.611 122.488 404.721 112.415 404.721C102.342 404.721 94.2324 396.611 94.2324 386.538V376.437C94.2324 366.363 102.342 358.254 112.415 358.254Z" fill="#8A881C"/>
<path d="M76.5543 376.437C81.5909 376.437 85.6456 380.491 85.6456 385.528V394.619C85.6456 399.656 81.5909 403.711 76.5543 403.711C71.5176 403.711 67.4629 399.656 67.4629 394.619V385.528C67.4629 380.491 71.5176 376.437 76.5543 376.437Z" fill="#8A881C"/>
<path d="M653.471 345.606C659.983 345.606 665.225 350.848 665.225 357.36V363.89C665.225 370.402 659.983 375.644 653.471 375.644C646.959 375.644 641.717 370.402 641.717 363.89V357.36C641.717 350.848 646.959 345.606 653.471 345.606Z" fill="#8A881C"/>
<path d="M630.289 357.36C633.545 357.36 636.166 359.982 636.166 363.237V369.115C636.166 372.37 633.545 374.992 630.289 374.992C627.033 374.992 624.412 372.37 624.412 369.115V363.237C624.412 359.982 627.033 357.36 630.289 357.36Z" fill="#8A881C"/>
<path d="M220.616 411.32C227.127 411.32 232.37 416.563 232.37 423.074V429.605C232.37 436.116 227.127 441.359 220.616 441.359C214.104 441.359 208.861 436.116 208.861 429.605V423.074C208.861 416.563 214.104 411.32 220.616 411.32Z" fill="#8A881C"/>
<path d="M197.432 423.074C200.688 423.074 203.309 425.695 203.309 428.951V434.828C203.309 438.084 200.688 440.705 197.432 440.705C194.176 440.705 191.555 438.084 191.555 434.828V428.951C191.555 425.695 194.176 423.074 197.432 423.074Z" fill="#8A881C"/>
<path d="M317.758 328.463C324.27 328.463 329.512 333.705 329.512 340.217V346.747C329.512 353.259 324.27 358.501 317.758 358.501C311.246 358.501 306.004 353.259 306.004 346.747V340.217C306.004 333.705 311.246 328.463 317.758 328.463Z" fill="#596F16"/>
<path d="M294.576 340.217C297.832 340.217 300.453 342.838 300.453 346.094V351.971C300.453 355.227 297.832 357.849 294.576 357.849C291.32 357.849 288.699 355.227 288.699 351.971V346.094C288.699 342.838 291.32 340.217 294.576 340.217Z" fill="#596F16"/>
<path d="M97.9392 567.648H130.082C135.82 567.648 140.439 572.267 140.439 578.005C140.439 583.743 135.82 588.362 130.082 588.362H97.9392C92.2013 588.362 87.582 583.743 87.582 578.005C87.582 572.267 92.2013 567.648 97.9392 567.648Z" fill="#827D71"/>
<path d="M134.61 600.978H151.985C155.086 600.978 157.583 603.475 157.583 606.576C157.583 609.678 155.086 612.175 151.985 612.175H134.61C131.509 612.175 129.012 609.678 129.012 606.576C129.012 603.475 131.509 600.978 134.61 600.978Z" fill="#827D71"/>
<path d="M146.612 478.649H171.929C175.007 478.649 177.485 481.127 177.485 484.205V486.665C177.485 489.743 175.007 492.221 171.929 492.221H146.612C143.535 492.221 141.057 489.743 141.057 486.665V484.205C141.057 481.127 143.535 478.649 146.612 478.649Z" fill="#5DB1E0"/>
<path d="M120.183 506.506H145.5C148.578 506.506 151.056 508.984 151.056 512.062V514.522C151.056 517.6 148.578 520.078 145.5 520.078H120.183C117.105 520.078 114.627 517.6 114.627 514.522V512.062C114.627 508.984 117.105 506.506 120.183 506.506Z" fill="#5DB1E0"/>
<path d="M532.327 480.078H557.644C560.722 480.078 563.2 482.556 563.2 485.633V488.093C563.2 491.171 560.722 493.649 557.644 493.649H532.327C529.249 493.649 526.771 491.171 526.771 488.093V485.633C526.771 482.556 529.249 480.078 532.327 480.078Z" fill="#5DB1E0"/>
<path d="M505.898 507.935H531.215C534.292 507.935 536.77 510.413 536.77 513.491V515.951C536.77 519.029 534.292 521.506 531.215 521.506H505.898C502.82 521.506 500.342 519.029 500.342 515.951V513.491C500.342 510.413 502.82 507.935 505.898 507.935Z" fill="#5DB1E0"/>
<path d="M398.327 175.521C407.642 168.819 421.288 171.966 428.922 182.577L470.263 240.038C477.897 250.649 476.544 264.587 467.229 271.289C457.913 277.991 444.268 274.844 436.634 264.233L395.293 206.772C387.659 196.161 389.012 182.223 398.327 175.521Z" fill="#F5B783"/>
<path d="M518.788 134.674H499.889C489.753 134.674 481.594 142.834 481.594 152.969V162.451C481.594 172.586 489.753 180.746 499.889 180.746H518.788C528.923 180.746 537.082 172.586 537.082 162.451V152.969C537.082 142.834 528.923 134.674 518.788 134.674Z" fill="#F9C395"/>
<path d="M514.916 156.499C524.846 162.25 527.608 176.012 521.014 187.299L475.664 264.927C469.07 276.214 455.843 280.715 445.913 274.963C435.982 269.212 433.22 255.45 439.814 244.163L485.165 166.535C491.759 155.248 504.985 150.747 514.916 156.499Z" fill="url(#paint0_linear_2606_7481)"/>
<path d="M482.183 205.879L487.612 208.733C498.211 214.306 502.285 227.415 496.712 238.014L489.392 251.937C483.82 262.536 470.71 266.611 460.111 261.038L454.682 258.184C444.083 252.611 440.009 239.501 445.581 228.902L452.902 214.98C458.474 204.381 471.584 200.306 482.183 205.879Z" fill="#FFD5B1"/>
<path d="M188.073 134.057H169.174C159.07 134.057 150.879 142.248 150.879 152.352V161.834C150.879 171.938 159.07 180.129 169.174 180.129H188.073C198.177 180.129 206.368 171.938 206.368 161.834V152.352C206.368 142.248 198.177 134.057 188.073 134.057Z" fill="#FBC89D"/>
<path d="M200.522 161.736H194.102C189.171 161.736 185.174 165.733 185.174 170.664C185.174 175.596 189.171 179.593 194.102 179.593H200.522C205.453 179.593 209.45 175.596 209.45 170.664C209.45 165.733 205.453 161.736 200.522 161.736Z" fill="#FFD5B1"/>
<path d="M345.2 146.766C376.323 146.766 401.378 173.901 401.378 207.606V276.138C401.378 309.844 376.323 336.978 345.2 336.978C314.077 336.978 289.021 309.844 289.021 276.138V207.606C289.021 173.901 314.077 146.766 345.2 146.766Z" fill="#F5B783"/>
<path d="M343.734 269.566H345.757C379.276 269.566 398.335 301.879 403.837 340.891L406.26 358.077C411.757 397.056 379.276 429.402 345.757 429.402H343.734C310.215 429.402 277.734 397.056 283.231 358.077L285.654 340.891C291.156 301.879 310.215 269.566 343.734 269.566Z" fill="#F5B783"/>
<path d="M344.745 277.059C371.332 277.059 392.736 303.55 392.736 336.456V350.768C392.736 383.674 371.332 410.165 344.745 410.165C318.158 410.165 296.754 383.674 296.754 350.768V336.456C296.754 303.55 318.158 277.059 344.745 277.059Z" fill="url(#paint1_linear_2606_7481)"/>
<path d="M345.633 86.9463C360.393 86.9463 372.276 108.426 372.276 135.106V154.864C372.276 181.544 360.393 203.024 345.633 203.024C330.873 203.024 318.99 181.544 318.99 154.864V135.106C318.99 108.426 330.873 86.9463 345.633 86.9463Z" fill="#FBC89D"/>
<path d="M289.633 174.903C280.318 168.201 266.672 171.349 259.038 181.96L217.697 239.421C210.063 250.032 211.416 263.97 220.731 270.672C230.047 277.374 243.692 274.227 251.326 263.616L292.667 206.155C300.302 195.543 298.948 181.605 289.633 174.903Z" fill="#F5B783"/>
<path d="M282.157 169.572H408.241C420.736 169.572 430.796 180.106 430.796 193.192C430.796 206.277 420.736 216.811 408.241 216.811H282.157C269.661 216.811 259.602 206.277 259.602 193.192C259.602 180.106 269.661 169.572 282.157 169.572Z" fill="#FBC89D"/>
<path d="M340.164 86.0078H351.102C363.696 86.0078 373.835 100.183 373.835 117.791V130.83C373.835 148.437 363.696 162.612 351.102 162.612H340.164C327.57 162.612 317.432 148.437 317.432 130.83V117.791C317.432 100.183 327.57 86.0078 340.164 86.0078Z" fill="url(#paint2_linear_2606_7481)"/>
<path d="M322.081 166.247H368.317C394.151 166.247 414.949 187.783 414.949 214.535C414.949 241.286 394.151 262.823 368.317 262.823H322.081C296.247 262.823 275.449 241.286 275.449 214.535C275.449 187.783 296.247 166.247 322.081 166.247Z" fill="#FBC89D"/>
<path d="M296.605 64.3052H396.646C408.12 64.3052 417.356 73.542 417.356 85.0155C417.356 96.489 408.12 105.726 396.646 105.726H296.605C285.131 105.726 275.895 96.489 275.895 85.0155C275.895 73.542 285.131 64.3052 296.605 64.3052Z" fill="#FBC89D"/>
<path d="M344.266 322.242C345.916 322.242 347.244 323.57 347.244 325.22V329.759C347.244 331.409 345.916 332.737 344.266 332.737C342.615 332.737 341.287 331.409 341.287 329.759V325.22C341.287 323.57 342.615 322.242 344.266 322.242Z" fill="#F0AA6E"/>
<path d="M346.591 232.198C353.417 232.198 358.912 237.694 358.912 244.52V255.948C358.912 262.774 353.417 268.27 346.591 268.27C339.765 268.27 334.27 262.774 334.27 255.948V244.52C334.27 237.694 339.765 232.198 346.591 232.198Z" fill="#F0AA6E"/>
<path d="M315.471 212.734C312.21 212.734 309.189 213.71 306.67 215.379C298.303 215.923 290.46 219.565 284.729 225.568C278.999 231.57 275.81 239.485 275.809 247.707C275.809 256.301 279.291 264.543 285.489 270.619C291.686 276.696 300.091 280.11 308.855 280.109C316.839 280.1 324.55 277.258 330.562 272.107C336.574 266.956 340.481 259.845 341.561 252.088C341.783 251.025 341.902 249.922 341.902 248.791V247.707V228.654C341.902 219.835 334.801 212.734 325.982 212.734H315.471ZM364.418 212.734C355.599 212.734 348.498 219.835 348.498 228.654V247.707V248.791C348.498 249.922 348.617 251.025 348.84 252.088C349.92 259.845 353.827 266.956 359.839 272.107C365.851 277.258 373.561 280.1 381.545 280.109C390.309 280.11 398.714 276.696 404.912 270.619C411.109 264.543 414.591 256.301 414.592 247.707C414.59 239.485 411.401 231.57 405.671 225.568C399.94 219.565 392.097 215.923 383.73 215.379C381.212 213.71 378.19 212.734 374.93 212.734H364.418Z" fill="#FBC99E" fill-opacity="0.996078"/>
<path d="M310.299 171.176C308.255 171.176 306.609 172.821 306.609 174.865C306.609 176.909 308.255 178.555 310.299 178.555L330.816 178.555L336.707 182.848C338.364 184.055 340.669 183.694 341.877 182.037C343.084 180.38 342.723 178.075 341.066 176.867L334.969 172.422C334.906 172.376 334.836 172.348 334.771 172.307C334.101 171.611 333.164 171.176 332.117 171.176L310.299 171.176ZM358.283 171.176C357.237 171.176 356.299 171.611 355.629 172.307C355.564 172.348 355.495 172.376 355.432 172.422L349.334 176.867C347.677 178.075 347.316 180.38 348.523 182.037C349.731 183.694 352.037 184.055 353.693 182.848L359.584 178.555L380.102 178.555C382.146 178.555 383.791 176.909 383.791 174.865C383.791 172.821 382.146 171.176 380.102 171.176L358.283 171.176Z" fill="#F5B783"/>
<path d="M317.042 214.695C324.063 214.695 329.715 220.347 329.715 227.368V228.972C329.715 235.993 324.063 241.645 317.042 241.645C310.021 241.645 304.369 235.993 304.369 228.972V227.368C304.369 220.347 310.021 214.695 317.042 214.695Z" fill="#FFD5B1"/>
<path d="M374.009 214.695C366.988 214.695 361.336 220.347 361.336 227.368V228.972C361.336 235.993 366.988 241.645 374.009 241.645C381.03 241.645 386.682 235.993 386.682 228.972V227.368C386.682 220.347 381.03 214.695 374.009 214.695Z" fill="#FFD5B1"/>
<path d="M297.334 69.5703H395.917C404.474 69.5703 411.362 76.4588 411.362 85.0153C411.362 93.5718 404.474 100.46 395.917 100.46H297.334C288.777 100.46 281.889 93.5718 281.889 85.0153C281.889 76.4588 288.777 69.5703 297.334 69.5703Z" fill="#F4B47E"/>
<path d="M335.382 6.09277H357.87C376.561 6.09277 406.121 32.4814 406.121 58.4328V95.2562C406.121 121.208 378.414 149.61 358.566 149.61H334.686C314.838 149.61 287.131 121.208 287.131 95.2562V58.4328C287.131 32.4814 316.691 6.09277 335.382 6.09277Z" fill="#FBC89D"/>
<path d="M307.605 628.274C305.077 628.495 288.875 643.024 288.995 653.564L289.033 656.981C289.041 657.691 289.07 658.411 289.124 659.135C289.428 663.168 292.005 666.244 295.054 666.213L336.76 665.807C339.811 665.781 342.318 662.649 342.527 658.606C342.563 657.887 342.577 657.172 342.569 656.46L342.53 653.043C342.373 639.275 333.824 625.983 328.58 626.442L307.605 628.274Z" fill="#FBC89D"/>
<path d="M304.338 646.476C293.442 646.582 284.544 652.58 284.626 659.763L284.644 661.546C284.648 661.916 284.674 662.292 284.727 662.669C284.87 663.683 285.585 664.622 286.731 665.3C287.878 665.978 289.371 666.346 290.917 666.33L334.753 665.904C336.3 665.889 337.786 665.492 338.917 664.79C340.048 664.089 340.741 663.135 340.859 662.118C340.902 661.742 340.919 661.369 340.916 660.998L340.896 659.216C340.814 652.035 331.789 646.209 320.894 646.315L304.338 646.476Z" fill="#FFD5B1"/>
<path d="M313.838 502.475C300.81 502.475 290.32 510.451 290.32 520.357C286.772 544.198 292.437 565.332 297.243 585.967C300.324 599.326 302.614 614.37 302.614 629.883C302.614 637.2 310.362 643.092 319.986 643.092C329.609 643.092 337.357 637.2 337.357 629.883V561.403V520.357V515.683C337.357 508.366 329.609 502.475 319.986 502.475C319.017 502.475 318.069 502.535 317.144 502.65C316.065 502.535 314.961 502.475 313.838 502.475Z" fill="url(#paint3_linear_2606_7481)"/>
<path d="M283.805 366.489C279.083 376.537 274.884 418.517 276.495 438.921C278.107 459.324 288.584 497.58 291.002 501.15C293.42 504.721 294.226 509.312 301.479 511.352C308.733 513.392 324.852 512.372 328.881 509.312C332.911 506.251 335.329 483.808 335.329 473.606C335.329 463.404 338.593 426.066 338.593 414.844C338.593 403.622 339.358 394.543 332.911 386.892C326.463 379.241 308.342 366.999 302.474 366.489C296.605 365.979 283.805 366.489 283.805 366.489Z" fill="#FBC89D"/>
<path d="M320.042 494.47H313.134C307.772 494.47 303.426 498.597 303.426 503.687V511.168C303.426 516.258 307.772 520.385 313.134 520.385H320.042C325.404 520.385 329.75 516.258 329.75 511.168V503.687C329.75 498.597 325.404 494.47 320.042 494.47Z" fill="url(#paint4_linear_2606_7481)"/>
<path d="M382.795 628.274C385.324 628.495 401.525 643.024 401.406 653.564L401.367 656.981C401.359 657.691 401.33 658.411 401.276 659.135C400.972 663.168 398.395 666.244 395.346 666.213L353.641 665.807C350.59 665.781 348.082 662.649 347.873 658.606C347.837 657.887 347.823 657.172 347.831 656.46L347.871 653.043C348.027 639.275 356.576 625.983 361.821 626.442L382.795 628.274Z" fill="#FBC89D"/>
<path d="M386.063 646.476C396.958 646.582 405.856 652.58 405.775 659.763L405.756 661.546C405.752 661.916 405.726 662.292 405.673 662.669C405.531 663.683 404.815 664.622 403.669 665.3C402.523 665.978 401.029 666.346 399.483 666.33L355.647 665.904C354.1 665.889 352.614 665.492 351.483 664.79C350.353 664.089 349.66 663.135 349.542 662.118C349.498 661.742 349.481 661.369 349.484 660.998L349.504 659.216C349.586 652.035 358.612 646.209 369.507 646.315L386.063 646.476Z" fill="#FFD5B1"/>
<path d="M376.562 502.475C389.591 502.475 400.08 510.451 400.08 520.357C403.628 544.198 397.963 565.332 393.158 585.967C390.076 599.326 387.786 614.37 387.786 629.883C387.786 637.2 380.038 643.092 370.415 643.092C360.791 643.092 353.044 637.2 353.044 629.883V561.403V520.357V515.683C353.044 508.366 360.791 502.475 370.415 502.475C371.383 502.475 372.331 502.535 373.256 502.65C374.335 502.535 375.44 502.475 376.562 502.475Z" fill="url(#paint5_linear_2606_7481)"/>
<path d="M406.596 366.489C411.317 376.537 415.517 418.517 413.905 438.921C412.293 459.324 401.816 497.58 399.398 501.15C396.98 504.721 396.174 509.312 388.921 511.352C381.668 513.392 365.549 512.372 361.519 509.312C357.49 506.251 355.072 483.808 355.072 473.606C355.072 463.404 351.807 426.066 351.807 414.844C351.807 403.622 351.042 394.543 357.49 386.892C363.937 379.241 382.059 366.999 387.927 366.489C393.795 365.979 406.596 366.489 406.596 366.489Z" fill="#FBC89D"/>
<path d="M370.358 494.47H377.266C382.628 494.47 386.975 498.597 386.975 503.687V511.168C386.975 516.258 382.628 520.385 377.266 520.385H370.358C364.997 520.385 360.65 516.258 360.65 511.168V503.687C360.65 498.597 364.997 494.47 370.358 494.47Z" fill="url(#paint6_linear_2606_7481)"/>
<path d="M285.961 351.241C283.367 351.241 281.279 353.835 281.279 357.059C283.608 396.328 323.076 433.513 346.422 434.313C380.325 423.987 409.058 397.242 409.058 357.248C409.077 357.001 409.104 356.758 409.12 356.511H409.109H409.033C408.812 353.546 406.818 351.241 404.373 351.241H285.961Z" fill="#4F4F4F"/>
<path d="M278.331 178.406H285.908C289.965 178.406 293.231 181.672 293.231 185.729V186.992C293.231 191.049 289.965 194.316 285.908 194.316H278.331C274.274 194.316 271.008 191.049 271.008 186.992V185.729C271.008 181.672 274.274 178.406 278.331 178.406Z" fill="#FFD5B1"/>
<path d="M407.259 174.477H414.835C418.893 174.477 422.159 177.743 422.159 181.801V183.063C422.159 187.121 418.893 190.387 414.835 190.387H407.259C403.202 190.387 399.936 187.121 399.936 183.063V181.801C399.936 177.743 403.202 174.477 407.259 174.477Z" fill="#FFD5B1"/>
<path d="M286.649 234.414C282.981 233.043 278.999 241.228 275.573 242.577C275.268 244.321 275.108 246.086 275.094 247.855C275.095 265.948 290.043 280.615 308.481 280.614C317.805 280.592 326.694 276.744 332.998 270.003C332.665 253.593 318.326 246.248 302.887 240.48L286.649 234.414ZM386.597 240.48C371.47 246.132 357.349 253.065 356.511 269.007C362.835 276.346 372.124 280.589 381.918 280.614C400.357 280.615 415.304 265.948 415.306 247.855C415.29 246.223 415.153 244.594 414.891 242.982C411.201 241.375 406.855 232.911 402.833 234.414L386.597 240.48Z" fill="#444444"/>
<path d="M332.122 263.299H359.649C361.328 263.299 362.679 264.651 362.679 266.33C362.679 268.009 361.328 269.36 359.649 269.36H332.122C330.443 269.36 329.092 268.009 329.092 266.33C329.092 264.651 330.443 263.299 332.122 263.299Z" fill="#444444"/>
<path d="M402.996 234.244C402.745 234.264 402.495 234.319 402.246 234.412L386.176 240.412C373.49 245.149 361.521 250.798 357.656 262.004C363.856 268.413 372.481 272.086 381.545 272.109C398.344 272.11 412.206 259.815 414.307 243.902C414.263 243.564 414.236 243.224 414.182 242.887C410.758 241.397 406.763 233.945 402.996 234.244ZM286.563 234.266C283.125 234.043 279.462 241.236 276.283 242.486C276.206 242.926 276.14 243.367 276.082 243.809C278.14 259.766 292.023 272.11 308.855 272.109C317.558 272.088 325.875 268.701 332.027 262.725C328.392 251.182 316.247 245.238 303.318 240.412L287.246 234.412C287.019 234.327 286.792 234.281 286.563 234.266Z" fill="#4F4F4F"/>
<path d="M334.688 283.856H326.481C322.733 283.856 319.695 286.736 319.695 290.288L319.695 297.735C319.695 301.287 322.733 304.166 326.481 304.166H334.688C338.436 304.166 341.474 301.287 341.474 297.735L341.474 290.288C341.474 286.736 338.436 283.856 334.688 283.856Z" fill="#FED1AA"/>
<path d="M334.688 306.355H322.188C318.44 306.355 315.402 309.235 315.402 312.787L315.402 320.234C315.402 323.786 318.44 326.665 322.188 326.665H334.688C338.436 326.665 341.474 323.786 341.474 320.234L341.474 312.787C341.474 309.235 338.436 306.355 334.688 306.355Z" fill="#FED1AA"/>
<path d="M334.688 328.376H322.188C318.44 328.376 315.402 331.255 315.402 334.807L315.402 342.254C315.402 345.806 318.44 348.686 322.188 348.686H334.688C338.436 348.686 341.474 345.806 341.474 342.254L341.474 334.807C341.474 331.255 338.436 328.376 334.688 328.376Z" fill="#FED1AA"/>
<path d="M354.765 283.856H362.972C366.72 283.856 369.758 286.736 369.758 290.288L369.758 297.735C369.758 301.287 366.72 304.166 362.972 304.166H354.765C351.018 304.166 347.98 301.287 347.98 297.735L347.98 290.288C347.98 286.736 351.018 283.856 354.765 283.856Z" fill="#FED1AA"/>
<path d="M354.765 306.355H367.265C371.013 306.355 374.051 309.235 374.051 312.787L374.051 320.234C374.051 323.786 371.013 326.665 367.265 326.665H354.765C351.017 326.665 347.979 323.786 347.979 320.234L347.979 312.787C347.979 309.235 351.017 306.355 354.765 306.355Z" fill="#FED1AA"/>
<path d="M354.765 328.376H367.265C371.013 328.376 374.051 331.255 374.051 334.807L374.051 342.254C374.051 345.806 371.013 348.686 367.265 348.686H354.765C351.017 348.686 347.979 345.806 347.979 342.254L347.979 334.807C347.979 331.255 351.017 328.376 354.765 328.376Z" fill="#FED1AA"/>
<path d="M173.045 155.882C163.114 161.633 160.352 175.395 166.946 186.682L212.297 264.31C218.891 275.597 232.117 280.098 242.048 274.346C251.978 268.595 254.74 254.833 248.146 243.546L202.796 165.918C196.202 154.631 182.975 150.13 173.045 155.882Z" fill="url(#paint7_linear_2606_7481)"/>
<path d="M205.778 205.262L200.349 208.116C189.75 213.689 185.676 226.799 191.248 237.398L198.569 251.32C204.141 261.919 217.251 265.994 227.85 260.421L233.279 257.567C243.878 251.994 247.952 238.884 242.38 228.286L235.059 214.363C229.487 203.764 216.377 199.689 205.778 205.262Z" fill="#FFD5B1"/>
<path d="M519 130.843H492.22C483.414 130.843 476.324 137.932 476.324 146.739V161.804C476.324 170.611 483.414 177.7 492.22 177.7H519C527.806 177.7 534.896 170.611 534.896 161.804V146.739C534.896 137.932 527.806 130.843 519 130.843Z" fill="#FBC89D"/>
<path d="M492.575 161.557H481.504C476.458 161.557 472.396 165.619 472.396 170.664C472.396 175.71 476.458 179.771 481.504 179.771H492.575C497.62 179.771 501.682 175.71 501.682 170.664C501.682 165.619 497.62 161.557 492.575 161.557Z" fill="#FFD5B1"/>
<path d="M168.96 130.226H195.74C204.546 130.226 211.636 137.315 211.636 146.122V161.187C211.636 169.993 204.546 177.083 195.74 177.083H168.96C160.154 177.083 153.064 169.993 153.064 161.187V146.122C153.064 137.315 160.154 130.226 168.96 130.226Z" fill="#FBC89D"/>
<path d="M195.386 160.94H206.458C211.503 160.94 215.565 165.002 215.565 170.047C215.565 175.092 211.503 179.154 206.458 179.154H195.386C190.341 179.154 186.279 175.092 186.279 170.047C186.279 165.002 190.341 160.94 195.386 160.94Z" fill="#FFD5B1"/>
<path d="M493.858 162.353H487.438C482.492 162.353 478.51 166.335 478.51 171.282C478.51 176.228 482.492 180.21 487.438 180.21H493.858C498.804 180.21 502.786 176.228 502.786 171.282C502.786 166.335 498.804 162.353 493.858 162.353Z" fill="#FFD5B1"/>
<path d="M342.078 133.106H348.555C349.074 133.106 349.492 133.471 349.492 133.925V134.407C349.492 134.861 349.074 135.226 348.555 135.226H342.078C341.559 135.226 341.141 134.861 341.141 134.407V133.925C341.141 133.471 341.559 133.106 342.078 133.106Z" fill="#F5B783"/>
<path d="M346.627 77.3232C349.706 77.3232 352.185 78.7019 352.185 82.8987V98.2673C352.185 102.464 349.706 105.843 346.627 105.843C343.547 105.843 341.068 102.464 341.068 98.2673V82.8987C341.068 78.7019 343.547 77.3232 346.627 77.3232Z" fill="#F5B783"/>
<path d="M303.299 95.127C299.391 95.127 296.244 98.272 296.244 102.18C296.244 106.087 299.391 109.234 303.299 109.234H313.242C317.15 109.234 320.297 106.087 320.297 102.18C320.297 98.272 317.15 95.127 313.242 95.127H303.299ZM379.727 95.127C375.819 95.127 372.674 98.272 372.674 102.18C372.674 106.087 375.819 109.234 379.727 109.234H389.672C393.58 109.234 396.725 106.087 396.725 102.18C396.725 98.272 393.58 95.127 389.672 95.127H379.727Z" fill="#FBB99D"/>
<path d="M358.564 97.2514C358.564 100.593 355.736 103.284 352.222 103.284H341.03C337.516 103.284 334.688 100.593 334.688 97.2514C334.688 93.9093 337.516 91.2188 341.03 91.2188H352.222C355.736 91.2188 358.564 93.9093 358.564 97.2514Z" fill="#F5B783"/>
<path d="M347.797 93.9658H348.689C350.792 93.9658 352.484 95.6582 352.484 97.7605C352.484 99.8627 350.792 101.555 348.689 101.555H347.797C345.694 101.555 344.002 99.8627 344.002 97.7605C344.002 95.6582 345.694 93.9658 347.797 93.9658Z" fill="#FBC89D"/>
<path d="M312.551 92.9214H314.066C315.255 92.9214 316.213 93.8788 316.213 95.068C316.213 96.2572 315.255 97.2145 314.066 97.2145H312.551C311.362 97.2145 310.404 96.2572 310.404 95.068C310.404 93.8788 311.362 92.9214 312.551 92.9214Z" fill="#FFE2C9"/>
<path d="M388.565 92.9214H390.08C391.269 92.9214 392.226 93.8788 392.226 95.068C392.226 96.2572 391.269 97.2145 390.08 97.2145H388.565C387.375 97.2145 386.418 96.2572 386.418 95.068C386.418 93.8788 387.375 92.9214 388.565 92.9214Z" fill="#FFE2C9"/>
<path d="M318.625 65.7075H330.144C334.422 65.7075 337.867 69.1519 337.867 73.4303C337.867 77.7087 334.422 81.1531 330.144 81.1531H318.625C314.347 81.1531 310.902 77.7087 310.902 73.4303C310.902 69.1519 314.347 65.7075 318.625 65.7075Z" fill="#F5B783"/>
<path d="M314.693 58.9785L334.319 63.8476C336.454 64.3771 337.746 66.5217 337.216 68.6561C336.687 70.7904 334.542 72.0824 332.408 71.5529L312.781 66.6838C310.647 66.1543 309.355 64.0097 309.884 61.8753C310.414 59.741 312.558 58.449 314.693 58.9785Z" fill="#725A58"/>
<path d="M325.999 72.9282L328.586 70.8733C329.225 70.3656 330.148 70.4714 330.656 71.1104C331.164 71.7494 331.058 72.6726 330.419 73.1803L327.832 75.2352C327.193 75.7429 326.27 75.6371 325.762 74.9981C325.255 74.3591 325.36 73.4359 325.999 72.9282Z" fill="#61534B"/>
<path d="M307.388 61.4068L311.726 59.4477C313.484 58.6535 315.539 59.4299 316.333 61.1882C317.127 62.9466 316.352 65.0015 314.593 65.7957L310.255 67.7549C308.497 68.549 306.442 67.7726 305.647 66.0144C304.853 64.256 305.63 62.201 307.388 61.4068Z" fill="#725A58"/>
<path d="M320.749 71.9951H323.386C325.78 71.9951 327.708 73.9223 327.708 76.3162V82.4005C327.708 84.7944 325.78 86.7216 323.386 86.7216H320.749C318.355 86.7216 316.428 84.7944 316.428 82.4005V76.3162C316.428 73.9223 318.355 71.9951 320.749 71.9951Z" fill="#61534B"/>
<path d="M374.628 59.8989H363.11C358.831 59.8989 355.387 64.6386 355.387 70.5259C355.387 76.4132 358.831 81.1529 363.11 81.1529H374.628C378.907 81.1529 382.351 76.4132 382.351 70.5259C382.351 64.6386 378.907 59.8989 374.628 59.8989Z" fill="#F5B783"/>
<path d="M381.735 54.095L361.581 55.7388C359.389 55.9175 357.768 57.826 357.947 60.0178C358.126 62.2095 360.034 63.8301 362.226 63.6514L382.381 62.0076C384.572 61.8288 386.193 59.9204 386.014 57.7286C385.836 55.5369 383.927 53.9163 381.735 54.095Z" fill="#725A58"/>
<path d="M374.531 73.4639L377.117 71.4089C377.756 70.9012 378.68 71.007 379.187 71.6461C379.695 72.2851 379.589 73.2083 378.95 73.716L376.364 75.7709C375.725 76.2786 374.801 76.1728 374.294 75.5338C373.786 74.8947 373.892 73.9715 374.531 73.4639Z" fill="#61534B"/>
<path d="M388.555 57.6683L384.59 55.0359C382.982 53.9688 380.829 54.4039 379.762 56.0114C378.695 57.6189 379.13 59.7721 380.737 60.8391L384.703 63.4715C386.311 64.5386 388.464 64.1035 389.531 62.496C390.598 60.8885 390.163 58.7353 388.555 57.6683Z" fill="#725A58"/>
<path d="M372.504 71.9951H369.866C367.472 71.9951 365.545 73.9223 365.545 76.3162V82.4005C365.545 84.7944 367.472 86.7216 369.866 86.7216H372.504C374.898 86.7216 376.825 84.7944 376.825 82.4005V76.3162C376.825 73.9223 374.898 71.9951 372.504 71.9951Z" fill="#61534B"/>
<path d="M374.984 118.676L371.065 114.766C370.154 113.858 368.69 113.86 367.782 114.771C366.873 115.681 366.875 117.145 367.785 118.054L371.705 121.963C372.615 122.871 374.079 122.87 374.987 121.959C375.896 121.048 375.894 119.584 374.984 118.676Z" fill="#F5B783"/>
<path d="M338.314 122.578H354.654C356.385 122.578 357.779 123.971 357.779 125.703C357.779 127.434 356.385 128.828 354.654 128.828H338.314C336.583 128.828 335.189 127.434 335.189 125.703C335.189 123.971 336.583 122.578 338.314 122.578Z" fill="#CB8868"/>
<path d="M331.083 121.596H361.886C362.851 121.596 363.628 122.372 363.628 123.337C363.628 124.301 362.851 125.078 361.886 125.078H331.083C330.118 125.078 329.342 124.301 329.342 123.337C329.342 122.372 330.118 121.596 331.083 121.596Z" fill="#725A58"/>
<path d="M361.841 121.713L365.134 119.259C365.848 118.726 366.851 118.873 367.383 119.587C367.916 120.301 367.769 121.304 367.055 121.836L363.762 124.29C363.048 124.822 362.045 124.676 361.513 123.962C360.981 123.248 361.127 122.245 361.841 121.713Z" fill="#725A58"/>
<path d="M306.889 135.777C301.245 135.997 296.768 140.611 296.768 146.311V158.812C296.768 160.816 297.321 162.685 298.283 164.277L297.692 164.611C294.951 166.16 293.992 169.613 295.541 172.354C297.09 175.094 300.543 176.053 303.283 174.504L314.278 168.291C315.11 167.82 315.777 167.175 316.26 166.426C318.256 164.51 319.494 161.811 319.494 158.813V146.311C319.494 145.689 319.44 145.08 319.338 144.488C318.733 144.279 318.146 143.983 317.592 143.6L308.526 137.336C307.884 136.892 307.337 136.364 306.889 135.777Z" fill="#66504F"/>
<path d="M384.936 136.788C390.58 137.007 395.057 141.621 395.057 147.321V159.823C395.057 161.827 394.504 163.696 393.541 165.288L394.133 165.622C396.873 167.17 397.832 170.623 396.283 173.364C394.734 176.104 391.281 177.063 388.541 175.514L377.547 169.301C376.714 168.831 376.048 168.185 375.564 167.436C373.568 165.52 372.33 162.821 372.33 159.823V147.321C372.33 146.699 372.384 146.09 372.486 145.499C373.092 145.289 373.678 144.993 374.232 144.61L383.299 138.346C383.941 137.903 384.487 137.374 384.936 136.788Z" fill="#66504F"/>
<path d="M337.129 0.127068C305.082 0.127068 279.196 25.5627 278.474 57.4298C278.185 60.0616 277.125 62.5393 275.437 64.5314C274.092 65.2798 272.816 66.1228 271.621 67.0548C271.155 67.4184 270.699 67.7989 270.258 68.1935C270.237 68.202 270.217 68.2104 270.197 68.2188C270.199 68.2267 270.201 68.2343 270.203 68.2422C265.472 72.493 262.252 78.4787 262.252 85.1836V99.1426C262.252 104.006 263.948 108.488 266.684 112.205L265.15 113.018C262.615 114.361 261.657 117.483 263 120.018C264.259 122.394 267.083 123.387 269.52 122.395C269.356 123.443 269.27 124.517 269.27 125.613V136.328C269.27 138.642 269.648 140.864 270.348 142.936C266.989 143.488 264.441 146.39 264.441 149.91C264.441 153.828 267.596 156.981 271.514 156.981H290.959C291.817 156.981 292.638 156.829 293.398 156.551C302.335 154.986 309.248 147.684 310.223 138.553C304.64 134.924 300.428 127.872 298.92 119.283C299.089 118.701 299.178 118.096 299.182 117.488V86.2735C301.597 84.7608 303.199 82.0779 303.199 79.0059V55.1407C304.1 51.1747 306.205 47.6112 309.206 44.9726C312.207 42.3341 315.947 40.7591 319.877 40.4786L325.494 40.4687C326.355 40.4672 327.199 40.4026 328.027 40.2891C328.915 40.4121 329.821 40.4785 330.744 40.4785H363.252C363.244 40.6014 363.233 40.724 363.225 40.8477C363.895 40.6974 364.57 40.5743 365.249 40.4785H372.645C378.099 41.2905 383.167 43.8535 387.136 47.8055C391.104 51.7576 393.772 56.8991 394.763 62.5039V114.336C394.768 115.413 394.913 116.479 395.192 117.482C393.852 126.542 389.529 134.021 383.722 137.795C384.697 146.926 391.609 154.228 400.546 155.793C401.306 156.071 402.127 156.223 402.985 156.223H422.431C426.348 156.223 429.503 153.07 429.503 149.152C429.503 145.632 426.955 142.731 423.597 142.178C424.296 140.106 424.675 137.884 424.675 135.57V124.855C424.675 123.444 424.533 122.066 424.265 120.736C426.443 122.256 429.442 121.891 431.185 119.816C433.03 117.62 432.746 114.365 430.55 112.52L426.997 109.533C426.738 109.316 426.465 109.127 426.181 108.969C429.545 103.539 431.692 96.6954 431.692 89.1895V70.0528C431.692 59.9709 427.817 51.0765 422.323 45.2051C419.061 41.7194 415.205 39.1411 410.972 37.6231C407.318 28.1316 401.279 19.8441 393.575 13.4922C390.644 6.46531 383.722 1.54883 375.608 1.54883H369.143C364.985 0.620452 360.66 0.126953 356.214 0.126953L337.129 0.127068Z" fill="#725A58"/>
<path d="M358.254 22.1338C353.457 22.137 348.851 24.0734 345.412 27.5319C341.974 30.9904 339.974 35.6987 339.838 40.6572H376.682C376.545 35.6966 374.544 30.9865 371.103 27.5277C367.662 24.0688 363.052 22.1338 358.254 22.1338Z" fill="#66504F"/>
<path d="M328.938 29.4268C326.038 29.4287 323.252 30.5995 321.173 32.6906C319.094 34.7817 317.885 37.6285 317.803 40.6266H340.08C339.997 37.6273 338.787 34.7794 336.707 32.6881C334.626 30.5967 331.839 29.4268 328.938 29.4268Z" fill="#66504F"/>
<path d="M390.218 116.417L397.168 109.8C398.739 108.305 401.207 108.365 402.702 109.936C404.198 111.507 404.137 113.975 402.566 115.47L395.616 122.087C394.045 123.582 391.577 123.521 390.082 121.951C388.587 120.38 388.647 117.912 390.218 116.417Z" fill="#725A58"/>
<path d="M409.791 64.7207H411.784C413.953 64.7207 415.698 66.4665 415.698 68.635V73.4849C415.698 75.6535 413.953 77.3993 411.784 77.3993H409.791C407.623 77.3993 405.877 75.6535 405.877 73.4849V68.635C405.877 66.4665 407.623 64.7207 409.791 64.7207Z" fill="#7E5D5A"/>
<path d="M423.006 60.6138H423.392C425.56 60.6138 427.306 62.3596 427.306 64.5281V80.8066C427.306 82.9751 425.56 84.7209 423.392 84.7209H423.006C420.838 84.7209 419.092 82.9751 419.092 80.8066V64.5281C419.092 62.3596 420.838 60.6138 423.006 60.6138Z" fill="#7E5D5A"/>
<path d="M275.932 86.5229H280.73C282.899 86.5229 284.644 88.2687 284.644 90.4373V100.286C284.644 102.455 282.899 104.201 280.73 104.201H275.932C273.763 104.201 272.018 102.455 272.018 100.286V90.4373C272.018 88.2687 273.763 86.5229 275.932 86.5229Z" fill="#7E5D5A"/>
<path d="M322.714 6.97314H327.134C328.498 6.97314 329.596 8.07131 329.596 9.43539C329.596 10.7995 328.498 11.8976 327.134 11.8976H322.714C321.35 11.8976 320.252 10.7995 320.252 9.43539C320.252 8.07131 321.35 6.97314 322.714 6.97314Z" fill="#7E5D5A"/>
<path d="M322.335 16.3174H330.543C331.907 16.3174 333.005 17.4155 333.005 18.7796V21.8101C333.005 23.1742 331.907 24.2723 330.543 24.2723H322.335C320.971 24.2723 319.873 23.1742 319.873 21.8101V18.7796C319.873 17.4155 320.971 16.3174 322.335 16.3174Z" fill="#7E5D5A"/>
<path d="M358.324 3.69043H362.49C363.855 3.69043 364.953 4.78859 364.953 6.15268V6.53148C364.953 7.89557 363.855 8.99373 362.49 8.99373H358.324C356.959 8.99373 355.861 7.89557 355.861 6.53148V6.15268C355.861 4.78859 356.959 3.69043 358.324 3.69043Z" fill="#7E5D5A"/>
<path d="M355.04 12.5293H365.773C367.137 12.5293 368.235 13.6275 368.235 14.9915V15.8754C368.235 17.2395 367.137 18.3377 365.773 18.3377H355.04C353.676 18.3377 352.578 17.2395 352.578 15.8754V14.9915C352.578 13.6275 353.676 12.5293 355.04 12.5293Z" fill="#7E5D5A"/>
<path d="M412.516 205.998C412.248 205.975 411.979 206.01 411.727 206.1C367.415 221.801 323.096 218.328 278.549 206.062C277.346 205.732 276.158 206.637 276.158 207.885V254.781C276.158 266.106 280.574 276.329 287.629 284.058C288.499 291.568 290.618 298.633 293.711 305.068C291.519 319.825 286.054 328.506 283.783 340.627L281.361 357.81C275.701 397.952 308.996 431.291 343.73 431.291H345.762C380.496 431.291 413.792 397.952 408.131 357.81L405.709 340.627C403.203 328.407 397.768 317.392 396.209 306.019C399.56 299.335 401.857 291.949 402.771 284.066C409.829 276.336 414.242 266.108 414.242 254.781V207.885C414.244 206.903 413.494 206.083 412.516 205.998Z" fill="#DAF5FB"/>
<path d="M292.531 177.127C282.093 185.968 275.451 199.418 275.451 214.535C275.451 241.287 296.248 262.822 322.082 262.822H368.318C394.152 262.822 414.949 241.287 414.949 214.535C414.949 199.418 408.307 185.968 397.869 177.127C396.36 197.133 379.747 212.791 359.342 212.791H331.059C310.654 212.791 294.04 197.133 292.531 177.127Z" fill="white" fill-opacity="0.996078"/>
<path d="M291.224 313.717C286.98 322.812 277.618 356.381 275.928 380.642C273.571 414.477 273.091 452.329 283.32 483.857C298.857 487.12 320.393 488.099 335.93 483.857C336.222 479.653 336.38 475.695 336.38 472.766C336.38 466.212 337.413 450.394 338.141 435.629H349.502C350.229 450.394 351.262 466.212 351.262 472.766C351.262 475.695 351.42 479.653 351.713 483.857C365.462 485.936 387.01 488.289 405.793 483.504C415.565 444.51 418.617 428.971 416.424 384.719C415.156 359.136 406.293 333.829 398.414 314.119C398.011 314.345 397.612 314.582 397.217 314.833L350.088 344.787C347.188 347.388 342.07 346.626 339.329 344.876L293.17 314.833C292.531 314.428 291.882 314.059 291.224 313.717Z" fill="url(#paint8_linear_2606_7481)"/>
<path d="M346.593 232.198C353.419 232.198 358.914 237.694 358.914 244.52V255.948C358.914 262.774 353.419 268.27 346.593 268.27C339.767 268.27 334.271 262.774 334.271 255.948V244.52C334.271 237.694 339.767 232.198 346.593 232.198Z" fill="white"/>
<path d="M315.471 212.734C312.21 212.734 309.189 213.71 306.67 215.379C298.303 215.923 290.46 219.565 284.729 225.568C278.999 231.57 275.81 239.485 275.809 247.707C275.809 256.301 279.291 264.543 285.489 270.619C291.686 276.696 300.091 280.11 308.855 280.109C316.839 280.1 324.55 277.258 330.562 272.107C336.574 266.956 340.481 259.845 341.561 252.088C341.783 251.025 341.902 249.922 341.902 248.791V247.707V228.654C341.902 219.835 334.801 212.734 325.982 212.734H315.471ZM364.418 212.734C355.599 212.734 348.498 219.835 348.498 228.654V247.707V248.791C348.498 249.922 348.617 251.025 348.84 252.088C349.92 259.845 353.827 266.956 359.839 272.107C365.851 277.258 373.561 280.1 381.545 280.109C390.309 280.11 398.714 276.696 404.912 270.619C411.109 264.543 414.591 256.301 414.592 247.707C414.59 239.485 411.401 231.57 405.671 225.568C399.94 219.565 392.097 215.923 383.73 215.379C381.212 213.71 378.19 212.734 374.93 212.734H364.418Z" fill="white"/>
<path d="M317.044 214.695C324.065 214.695 329.717 220.347 329.717 227.368V228.972C329.717 235.993 324.065 241.645 317.044 241.645C310.023 241.645 304.371 235.993 304.371 228.972V227.368C304.371 220.347 310.023 214.695 317.044 214.695Z" fill="white"/>
<path d="M374.011 214.695C366.99 214.695 361.338 220.347 361.338 227.368V228.972C361.338 235.993 366.99 241.645 374.011 241.645C381.032 241.645 386.684 235.993 386.684 228.972V227.368C386.684 220.347 381.032 214.695 374.011 214.695Z" fill="white"/>
<path d="M286.651 234.414C282.982 233.043 279.001 241.228 275.575 242.577C275.27 244.321 275.11 246.086 275.096 247.855C275.097 265.948 290.045 280.615 308.483 280.614C317.807 280.592 326.696 276.744 333 270.003C332.667 253.593 318.328 246.248 302.889 240.48L286.651 234.414ZM386.599 240.48C371.472 246.132 357.351 253.065 356.513 269.007C362.837 276.346 372.126 280.589 381.92 280.614C400.359 280.615 415.306 265.948 415.307 247.855C415.292 246.223 415.155 244.594 414.893 242.982C411.203 241.375 406.857 232.911 402.835 234.414L386.599 240.48Z" fill="white"/>
<path d="M332.124 263.299H359.651C361.33 263.299 362.681 264.651 362.681 266.33C362.681 268.009 361.33 269.36 359.651 269.36H332.124C330.445 269.36 329.094 268.009 329.094 266.33C329.094 264.651 330.445 263.299 332.124 263.299Z" fill="white"/>
<path d="M402.998 234.244C402.747 234.264 402.497 234.319 402.248 234.412L386.178 240.412C373.492 245.149 361.523 250.798 357.658 262.004C363.858 268.413 372.483 272.086 381.547 272.109C398.346 272.11 412.208 259.815 414.309 243.902C414.265 243.564 414.238 243.224 414.184 242.887C410.76 241.397 406.765 233.945 402.998 234.244ZM286.564 234.266C283.127 234.043 279.464 241.236 276.285 242.486C276.208 242.926 276.142 243.367 276.084 243.809C278.142 259.766 292.025 272.11 308.857 272.109C317.56 272.088 325.877 268.701 332.029 262.725C328.394 251.182 316.249 245.238 303.32 240.412L287.248 234.412C287.021 234.327 286.794 234.281 286.564 234.266Z" fill="white"/>
<path d="M280.478 168.998H294.115C294.955 168.998 295.63 169.674 295.63 170.513V209.404C295.63 210.244 294.955 210.919 294.115 210.919H280.478C279.639 210.919 278.963 210.244 278.963 209.404V170.513C278.963 169.674 279.639 168.998 280.478 168.998Z" fill="white"/>
<path d="M398.336 168.998H411.973C412.812 168.998 413.488 169.674 413.488 170.513V209.404C413.488 210.244 412.812 210.919 411.973 210.919H398.336C397.496 210.919 396.82 210.244 396.82 209.404V170.513C396.82 169.674 397.496 168.998 398.336 168.998Z" fill="white"/>
<path d="M284.36 216.09H298.048C298.51 216.09 298.883 216.462 298.883 216.925C298.883 217.387 298.51 217.76 298.048 217.76H284.36C283.898 217.76 283.525 217.387 283.525 216.925C283.525 216.462 283.898 216.09 284.36 216.09Z" fill="#97C1CB"/>
<path d="M291.591 207.741C292.85 207.741 293.864 208.755 293.864 210.014V210.772C293.864 212.031 292.85 213.045 291.591 213.045C290.332 213.045 289.318 212.031 289.318 210.772V210.014C289.318 208.755 290.332 207.741 291.591 207.741Z" fill="#97C1CB"/>
<path d="M390.024 215.661H399.652C400.448 215.661 401.088 216.301 401.088 217.096C401.088 217.892 400.448 218.532 399.652 218.532H390.024C389.228 218.532 388.588 217.892 388.588 217.096C388.588 216.301 389.228 215.661 390.024 215.661Z" fill="#97C1CB"/>
<path d="M394.447 201.552H395.876C398.548 201.552 400.698 203.703 400.698 206.375V207.982C400.698 210.654 398.548 212.804 395.876 212.804H394.447C391.776 212.804 389.625 210.654 389.625 207.982V206.375C389.625 203.703 391.776 201.552 394.447 201.552Z" fill="#CBA39F"/>
<path d="M284.423 218.911H298.11C298.573 218.911 298.945 219.283 298.945 219.746C298.945 220.208 298.573 220.581 298.11 220.581H284.423C283.96 220.581 283.588 220.208 283.588 219.746C283.588 219.283 283.96 218.911 284.423 218.911Z" fill="#97C1CB"/>
<path d="M300.845 243.111H331.188C332.214 243.111 333.039 243.937 333.039 244.962C333.039 245.988 332.214 246.813 331.188 246.813H300.845C299.82 246.813 298.994 245.988 298.994 244.962C298.994 243.937 299.82 243.111 300.845 243.111Z" fill="#97C1CB"/>
<path d="M300.845 249.365H331.188C332.214 249.365 333.039 250.19 333.039 251.216C333.039 252.241 332.214 253.067 331.188 253.067H300.845C299.82 253.067 298.994 252.241 298.994 251.216C298.994 250.19 299.82 249.365 300.845 249.365Z" fill="#97C1CB"/>
<path d="M290.408 244.721H293.313C294.338 244.721 295.164 245.546 295.164 246.572V250.816C295.164 251.842 294.338 252.667 293.313 252.667H290.408C289.382 252.667 288.557 251.842 288.557 250.816V246.572C288.557 245.546 289.382 244.721 290.408 244.721Z" fill="#97C1CB"/>
<path d="M365.999 247.111H396.342C397.368 247.111 398.193 247.937 398.193 248.962C398.193 249.988 397.368 250.813 396.342 250.813H365.999C364.974 250.813 364.148 249.988 364.148 248.962C364.148 247.937 364.974 247.111 365.999 247.111Z" fill="#CBA39F"/>
<path d="M355.562 244.721H358.467C359.493 244.721 360.318 245.546 360.318 246.572V250.816C360.318 251.842 359.493 252.667 358.467 252.667H355.562C354.537 252.667 353.711 251.842 353.711 250.816V246.572C353.711 245.546 354.537 244.721 355.562 244.721Z" fill="#CBA39F"/>
<path d="M285.229 281.506C285.919 282.381 286.634 283.238 287.386 284.059C287.653 286.348 288.05 288.591 288.541 290.793H401.86C402.352 288.594 402.749 286.354 403.016 284.066C403.771 283.243 404.488 282.384 405.181 281.506H285.229Z" fill="#BF4E4E"/>
<path d="M290.09 296.506C291.037 299.463 292.171 302.326 293.495 305.068C293.386 305.308 293.282 305.552 293.175 305.793H396.534C398.012 302.829 399.274 299.725 400.308 296.506H290.09Z" fill="#123D64"/>
<path d="M301.212 65.2573C299.217 65.2573 297.611 67.0489 297.611 69.275V73.9635C297.611 74.3694 297.665 74.7589 297.764 75.1277C297.763 75.1591 297.762 75.1903 297.762 75.2219V84.8612C297.762 86.452 298.91 87.7326 300.336 87.7326C300.578 87.7326 300.81 87.694 301.031 87.6249C300.959 87.0179 300.921 86.3978 300.921 85.7653V83.4076C300.921 76.4122 305.521 70.7825 311.236 70.7825H322.268H323.521H332.488C332.891 70.7825 333.278 70.8067 333.653 70.852C333.896 70.8076 334.144 70.7825 334.399 70.7825H361.937C362.069 70.7825 362.201 70.7904 362.331 70.8029C362.542 70.7893 362.757 70.7825 362.976 70.7825H371.946H373.197H384.231C389.946 70.7825 394.546 76.4122 394.546 83.4076V85.7653C394.546 86.4282 394.503 87.0776 394.424 87.7124C394.518 87.7241 394.612 87.7328 394.709 87.7328C396.135 87.7328 397.283 86.4522 397.283 84.8614V75.2221C397.283 75.1904 397.282 75.1593 397.281 75.1279C397.38 74.7591 397.434 74.3696 397.434 73.9637V69.2752C397.434 67.0491 395.828 65.2576 393.833 65.2576L301.212 65.2573ZM347.918 77.943C347.744 77.9508 347.57 77.9635 347.396 77.9812H348.443C348.269 77.9635 348.094 77.9507 347.918 77.943Z" fill="#66C6DB"/>
<path d="M311.237 70.7827C305.522 70.7827 300.922 76.4124 300.922 83.4078V85.7655C300.922 92.7609 305.522 98.3929 311.237 98.3929H311.926H322.145H323.522C325.659 98.3929 327.641 97.6032 329.284 96.2506C333.158 93.9872 336.583 90.1444 338.224 85.7655L339.107 83.4101C339.11 83.401 339.114 83.3923 339.118 83.3832C340.093 81.7107 341.405 80.3407 342.939 79.3926C344.473 78.4444 346.183 77.9469 347.921 77.9433C349.447 77.9449 350.955 78.3277 352.343 79.0657C353.73 79.8037 354.966 80.8798 355.965 82.2212C356.08 82.6126 356.213 83.009 356.364 83.4102L357.246 85.7656C358.887 90.1444 362.31 93.9873 366.184 96.2506C367.827 97.6033 369.811 98.393 371.948 98.393H373.324H383.544H384.233C389.948 98.393 394.548 92.761 394.548 85.7656V83.4079C394.548 76.4125 389.948 70.7828 384.233 70.7828H373.199H371.948H362.979C362.759 70.7828 362.545 70.7892 362.333 70.8032C362.203 70.7911 362.072 70.7828 361.939 70.7828H334.401C334.147 70.7828 333.898 70.8081 333.655 70.8524C333.281 70.8073 332.893 70.7828 332.491 70.7828H323.523H322.27L311.237 70.7827Z" fill="#0F3354" fill-opacity="0.788301"/>
<path d="M396.698 68.3284V72.7927C396.698 73.6336 396.021 74.3105 395.18 74.3105C394.339 74.3105 393.662 73.6336 393.662 72.7927V68.3284C393.662 67.4875 394.339 66.8105 395.18 66.8105C396.021 66.8105 396.698 67.4875 396.698 68.3284Z" fill="white" fill-opacity="0.788301"/>
<path d="M327.705 72.5068H337.549C338.39 72.5068 339.067 73.1838 339.067 74.0247V74.3983C339.067 75.2392 338.39 75.9161 337.549 75.9161H327.705C326.864 75.9161 326.188 75.2392 326.188 74.3983V74.0247C326.188 73.1838 326.864 72.5068 327.705 72.5068Z" fill="#1B8BF3" fill-opacity="0.412256"/>
<path d="M376.573 72.3809H386.416C387.257 72.3809 387.934 73.0578 387.934 73.8987V74.2723C387.934 75.1132 387.257 75.7901 386.416 75.7901H376.573C375.732 75.7901 375.055 75.1132 375.055 74.2723V73.8987C375.055 73.0578 375.732 72.3809 376.573 72.3809Z" fill="#1B8BF3" fill-opacity="0.412256"/>
<path d="M145.532 145.878C145.532 139.49 140.66 134.311 134.65 134.311C128.64 134.311 123.768 139.49 123.768 145.878V162.364C123.768 168.753 128.64 173.931 134.65 173.931C140.66 173.931 145.532 168.753 145.532 162.364V145.878Z" fill="#8F4811"/>
<path d="M684.101 115.207C682.255 115.207 680.449 115.422 678.697 115.832C643.581 119.075 537.582 134.766 537.582 153.763C537.582 172.76 643.581 188.453 678.697 191.696C680.449 192.106 682.255 192.321 684.101 192.321H688.232H734.796C735.314 192.321 735.827 192.305 736.338 192.272C736.848 192.239 737.356 192.187 737.86 192.121C738.363 192.056 738.862 191.976 739.358 191.879C739.853 191.782 740.345 191.667 740.832 191.539C741.319 191.411 741.803 191.27 742.281 191.112C742.759 190.954 743.232 190.781 743.701 190.593C744.169 190.406 744.633 190.204 745.091 189.989C745.549 189.773 746.001 189.543 746.448 189.3C746.896 189.057 747.337 188.801 747.773 188.531C748.209 188.261 748.639 187.977 749.062 187.681C749.486 187.385 749.903 187.075 750.313 186.754C750.724 186.433 751.127 186.098 751.525 185.752C751.922 185.407 752.313 185.05 752.696 184.681C753.079 184.311 753.456 183.93 753.825 183.537C754.193 183.145 754.553 182.743 754.907 182.328C755.26 181.914 755.607 181.489 755.944 181.053C756.282 180.618 756.611 180.17 756.932 179.714C757.253 179.258 757.566 178.794 757.87 178.318C758.174 177.842 758.469 177.357 758.756 176.862C759.042 176.367 759.32 175.863 759.588 175.35C759.856 174.838 760.113 174.315 760.362 173.785C760.611 173.255 760.852 172.717 761.081 172.171C761.311 171.625 761.53 171.071 761.739 170.509C761.949 169.947 762.147 169.377 762.335 168.8C762.524 168.223 762.702 167.639 762.869 167.048C763.036 166.457 763.193 165.859 763.338 165.255C763.483 164.65 763.617 164.039 763.739 163.422C763.862 162.806 763.974 162.182 764.073 161.553C764.172 160.924 764.259 160.29 764.334 159.651C764.409 159.011 764.473 158.367 764.523 157.718C764.574 157.068 764.613 156.413 764.638 155.754C764.665 155.095 764.677 154.43 764.677 153.763C764.677 153.095 764.665 152.433 764.638 151.774C764.612 151.115 764.574 150.46 764.523 149.81C764.473 149.161 764.409 148.517 764.334 147.877C764.259 147.238 764.172 146.603 764.073 145.975C763.973 145.346 763.862 144.722 763.739 144.105C763.617 143.489 763.483 142.878 763.338 142.273C763.193 141.669 763.036 141.071 762.869 140.48C762.702 139.889 762.524 139.305 762.335 138.728C762.147 138.151 761.949 137.581 761.739 137.019C761.53 136.457 761.31 135.903 761.081 135.357C760.852 134.811 760.611 134.27 760.362 133.741C760.113 133.211 759.856 132.69 759.588 132.178C759.32 131.665 759.042 131.161 758.756 130.666C758.47 130.171 758.174 129.686 757.87 129.21C757.565 128.734 757.253 128.27 756.932 127.814C756.611 127.358 756.282 126.91 755.944 126.475C755.607 126.039 755.26 125.614 754.907 125.2C754.553 124.785 754.193 124.383 753.825 123.991C753.456 123.598 753.079 123.217 752.696 122.847C752.313 122.478 751.922 122.119 751.525 121.774C751.127 121.428 750.724 121.095 750.313 120.774C749.903 120.453 749.486 120.143 749.062 119.847C748.639 119.551 748.209 119.267 747.773 118.997C747.337 118.727 746.896 118.471 746.448 118.228C746.001 117.985 745.549 117.755 745.091 117.539C744.633 117.324 744.169 117.122 743.701 116.935C743.232 116.747 742.759 116.574 742.281 116.416C741.803 116.258 741.319 116.117 740.832 115.989C740.345 115.861 739.853 115.746 739.358 115.649C738.862 115.552 738.363 115.47 737.86 115.404C737.356 115.339 736.848 115.29 736.338 115.256C735.827 115.223 735.314 115.207 734.796 115.207H688.232L684.101 115.207Z" fill="#8F4811"/>
<path d="M125.877 146.995C124.407 146.995 123.225 148.252 123.225 149.815V157.713C123.225 159.276 124.407 160.534 125.877 160.534H150.879V152.352C150.879 150.482 151.184 148.691 151.701 146.995H125.877ZM211.637 146.995V160.534H296.92C296.828 159.972 296.768 159.401 296.768 158.813V155.659C295.684 156.047 294.559 156.348 293.398 156.551C292.638 156.829 291.817 156.981 290.959 156.981H271.514C267.596 156.981 264.441 153.828 264.441 149.911C264.441 148.864 264.689 147.886 265.094 146.995H211.637ZM372.279 146.995V154.243C372.298 154.253 372.313 154.264 372.33 154.274V147.321C372.33 147.21 372.349 147.105 372.353 146.995L372.279 146.995ZM429.146 146.995C429.365 147.677 429.504 148.396 429.504 149.153C429.504 153.07 426.349 156.223 422.432 156.223H402.986C402.128 156.223 401.307 156.071 400.547 155.793C398.608 155.454 396.765 154.842 395.057 154.002V159.823C395.057 160.064 395.023 160.296 395.008 160.534H476.328V146.995H429.146ZM536.053 146.995C536.699 148.87 537.084 150.869 537.084 152.969V160.534H762.07C763.54 160.534 764.725 159.276 764.725 157.713V149.815C764.725 148.252 763.54 146.995 762.07 146.995H536.053Z" fill="url(#paint9_linear_2606_7481)"/>
<path d="M636.822 121.221C618.878 124.009 599.068 127.659 581.876 131.936H759.455C759.227 131.508 758.996 131.082 758.756 130.667C758.47 130.172 758.174 129.685 757.87 129.209C757.566 128.734 757.255 128.269 756.933 127.813C756.613 127.357 756.282 126.911 755.945 126.475C755.607 126.04 755.26 125.614 754.906 125.2C754.553 124.785 754.194 124.383 753.825 123.991C753.457 123.598 753.08 123.218 752.697 122.848C752.313 122.479 751.923 122.12 751.525 121.774C751.306 121.583 751.079 121.404 750.856 121.221H636.822ZM555.94 139.793C554.115 140.498 552.393 141.212 550.797 141.936H763.249C763.128 141.448 763.005 140.961 762.869 140.481C762.803 140.249 762.73 140.023 762.661 139.793H555.94ZM555.723 167.649C562.211 170.17 570.074 172.562 578.708 174.793H759.862C760.03 174.459 760.202 174.127 760.362 173.786C760.611 173.256 760.852 172.717 761.082 172.17C761.311 171.624 761.531 171.072 761.74 170.51C761.949 169.948 762.147 169.378 762.336 168.801C762.46 168.422 762.571 168.035 762.686 167.649H555.723ZM611.322 181.936C615.294 182.685 619.269 183.4 623.216 184.079H753.29C753.468 183.898 753.65 183.723 753.825 183.538C754.194 183.145 754.553 182.743 754.906 182.329C755.015 182.201 755.118 182.066 755.225 181.936H611.322Z" fill="#9F571F"/>
<defs>
<linearGradient id="paint0_linear_2606_7481" x1="486.564" y1="202.434" x2="509.553" y2="163.323" gradientUnits="userSpaceOnUse">
<stop stop-color="#FFD5B1"/>
<stop offset="1" stop-color="#F5B783"/>
</linearGradient>
<linearGradient id="paint1_linear_2606_7481" x1="346.262" y1="294.109" x2="341.717" y2="371.891" gradientUnits="userSpaceOnUse">
<stop stop-color="#FBC99E"/>
<stop offset="1" stop-color="#FBC99E" stop-opacity="0"/>
</linearGradient>
<linearGradient id="paint2_linear_2606_7481" x1="343.738" y1="150.162" x2="343.99" y2="167.588" gradientUnits="userSpaceOnUse">
<stop stop-color="#F0AA6E"/>
<stop offset="1" stop-color="#FBC89D"/>
</linearGradient>
<linearGradient id="paint3_linear_2606_7481" x1="310.022" y1="523.939" x2="314.886" y2="601.831" gradientUnits="userSpaceOnUse">
<stop stop-color="#F5B783"/>
<stop offset="1" stop-color="#FBC89D"/>
</linearGradient>
<linearGradient id="paint4_linear_2606_7481" x1="317.351" y1="513.572" x2="317.257" y2="499.946" gradientUnits="userSpaceOnUse">
<stop stop-color="#FBC89D"/>
<stop offset="1" stop-color="#FFD5B1"/>
</linearGradient>
<linearGradient id="paint5_linear_2606_7481" x1="380.379" y1="523.939" x2="375.514" y2="601.831" gradientUnits="userSpaceOnUse">
<stop stop-color="#F5B783"/>
<stop offset="1" stop-color="#FBC89D"/>
</linearGradient>
<linearGradient id="paint6_linear_2606_7481" x1="373.049" y1="513.572" x2="373.143" y2="499.946" gradientUnits="userSpaceOnUse">
<stop stop-color="#FBC89D"/>
<stop offset="1" stop-color="#FFD5B1"/>
</linearGradient>
<linearGradient id="paint7_linear_2606_7481" x1="201.396" y1="201.817" x2="178.407" y2="162.706" gradientUnits="userSpaceOnUse">
<stop stop-color="#FFD5B1"/>
<stop offset="1" stop-color="#F5B783"/>
</linearGradient>
<linearGradient id="paint8_linear_2606_7481" x1="347.452" y1="366.892" x2="344.628" y2="482.695" gradientUnits="userSpaceOnUse">
<stop stop-color="#123D64"/>
<stop offset="1" stop-color="#1F364C"/>
</linearGradient>
<linearGradient id="paint9_linear_2606_7481" x1="259.896" y1="149.153" x2="260.181" y2="161.526" gradientUnits="userSpaceOnUse">
<stop stop-color="#C19150"/>
<stop offset="1" stop-color="#B0844C"/>
</linearGradient>
</defs>
</svg>
