<svg width="737" height="690" viewBox="0 0 737 690" fill="none" xmlns="http://www.w3.org/2000/svg">
<path d="M691.323 329.809C691.323 371.832 682.935 413.444 666.639 452.268C650.342 491.092 626.455 526.368 596.342 556.083C566.23 585.798 530.481 609.369 491.136 625.451C451.792 641.532 409.623 649.809 367.038 649.809C324.452 649.809 282.283 641.532 242.939 625.451C203.595 609.369 167.846 585.798 137.733 556.083C107.62 526.368 83.7336 491.092 67.4367 452.268C51.1398 413.444 42.752 371.832 42.752 329.809C42.752 244.94 76.9177 163.547 137.733 103.535C198.548 43.5233 281.032 9.80908 367.038 9.80908C453.044 9.80908 535.527 43.5233 596.342 103.535C657.158 163.547 691.323 244.94 691.323 329.809Z" fill="#373232"/>
<path d="M115.103 371.019H599.389C613.634 371.019 625.103 382.487 625.103 396.733V425.304C625.103 439.55 613.634 451.019 599.389 451.019H115.103C100.857 451.019 89.3887 439.55 89.3887 425.304V396.733C89.3887 382.487 100.857 371.019 115.103 371.019Z" fill="#5F5C53"/>
<path d="M566.086 221C557.329 221 550.279 228.051 550.279 236.808V237.688C550.279 239.816 550.694 241.844 551.451 243.694C540.231 247.55 532.211 258.168 532.211 270.728V282.056C532.211 297.894 544.961 310.642 560.798 310.642H566.103C581.941 310.642 594.691 297.894 594.691 282.056V270.728C594.691 259.854 588.68 250.436 579.786 245.601C581.127 243.276 581.894 240.575 581.894 237.688V236.808C581.894 228.051 574.844 221 566.086 221Z" fill="#3F3D37"/>
<path d="M493.672 221C484.914 221 477.863 228.051 477.863 236.808V237.688C477.863 239.816 478.28 241.844 479.037 243.694C467.817 247.55 459.797 258.168 459.797 270.728V282.056C459.797 297.894 472.547 310.642 488.384 310.642H493.689C509.526 310.642 522.277 297.894 522.277 282.056V270.728C522.277 259.854 516.264 250.436 507.371 245.601C508.712 243.276 509.48 240.575 509.48 237.688V236.808C509.48 228.051 502.43 221 493.672 221Z" fill="#3F3D37"/>
<path d="M421.256 221C412.498 221 405.449 228.051 405.449 236.808V237.688C405.449 239.816 405.866 241.844 406.622 243.694C395.403 247.55 387.381 258.168 387.381 270.728V282.056C387.381 297.894 400.131 310.642 415.968 310.642H421.275C437.112 310.642 449.862 297.894 449.862 282.056V270.728C449.862 259.854 443.85 250.436 434.956 245.601C436.297 243.276 437.065 240.575 437.065 237.688V236.808C437.065 228.051 430.014 221 421.256 221Z" fill="#3F3D37"/>
<path d="M348.84 221C340.082 221 333.031 228.051 333.031 236.808V237.688C333.031 239.816 333.448 241.844 334.205 243.694C322.985 247.55 314.965 258.168 314.965 270.728V282.056C314.965 297.894 327.715 310.642 343.552 310.642H348.857C364.694 310.642 377.445 297.894 377.445 282.056V270.728C377.445 259.854 371.434 250.436 362.54 245.601C363.881 243.276 364.648 240.575 364.648 237.688V236.808C364.648 228.051 357.598 221 348.84 221Z" fill="#3F3D37"/>
<path d="M276.424 221C267.666 221 260.617 228.051 260.617 236.808V237.688C260.617 239.816 261.034 241.844 261.79 243.694C250.57 247.55 242.549 258.168 242.549 270.728V282.056C242.549 297.894 255.3 310.642 271.137 310.642H276.443C292.28 310.642 305.03 297.894 305.03 282.056V270.728C305.03 259.854 299.018 250.436 290.124 245.601C291.465 243.276 292.233 240.575 292.233 237.688V236.808C292.233 228.051 285.182 221 276.424 221Z" fill="#3F3D37"/>
<path d="M204.008 221C195.25 221 188.201 228.051 188.201 236.808V237.688C188.201 239.816 188.618 241.844 189.374 243.694C178.154 247.55 170.133 258.168 170.133 270.728V282.056C170.133 297.894 182.883 310.642 198.72 310.642H204.025C219.862 310.642 232.614 297.894 232.614 282.056V270.728C232.614 259.854 226.602 250.436 217.708 245.601C219.049 243.276 219.817 240.575 219.817 237.688V236.808C219.817 228.051 212.766 221 204.008 221Z" fill="#3F3D37"/>
<path d="M639.377 224.408C630.62 224.408 623.57 231.459 623.57 240.217V241.096C623.57 243.225 623.985 245.252 624.742 247.102C613.522 250.959 605.502 261.576 605.502 274.137V285.465C605.502 301.302 618.252 314.051 634.089 314.051H639.394C655.232 314.051 667.982 301.302 667.982 285.465V274.137C667.982 263.263 661.971 253.845 653.077 249.009C654.418 246.685 655.185 243.984 655.185 241.096V240.217C655.185 231.459 648.135 224.408 639.377 224.408Z" fill="#3F3D37"/>
<path d="M126.143 221C117.385 221 110.335 228.051 110.335 236.808V237.688C110.335 239.816 110.752 241.844 111.509 243.694C100.289 247.55 92.2676 258.168 92.2676 270.728V282.056C92.2676 297.894 105.018 310.642 120.855 310.642H126.16C141.997 310.642 154.749 297.894 154.749 282.056V270.728C154.749 259.854 148.736 250.436 139.843 245.601C141.184 243.276 141.952 240.575 141.952 237.688V236.808C141.952 228.051 134.901 221 126.143 221Z" fill="#3F3D37"/>
<path d="M565.316 255.285C555.886 255.285 548.294 262.878 548.294 272.308V273.254C548.294 275.547 548.742 277.729 549.557 279.721C537.476 283.874 528.84 295.306 528.84 308.831V321.029C528.84 338.082 542.569 351.809 559.622 351.809H565.334C582.387 351.809 596.116 338.082 596.116 321.029V308.831C596.116 297.123 589.643 286.981 580.067 281.775C581.511 279.272 582.337 276.364 582.337 273.254V272.308C582.337 262.878 574.746 255.285 565.316 255.285Z" fill="#44423C"/>
<path d="M487.343 255.285C477.913 255.285 470.32 262.878 470.32 272.308V273.254C470.32 275.547 470.769 277.729 471.584 279.721C459.503 283.874 450.867 295.306 450.867 308.831V321.029C450.867 338.082 464.596 351.809 481.649 351.809H487.361C504.414 351.809 518.143 338.082 518.143 321.029V308.831C518.143 297.123 511.669 286.981 502.093 281.775C503.537 279.272 504.364 276.364 504.364 273.254V272.308C504.364 262.878 496.773 255.285 487.343 255.285Z" fill="#44423C"/>
<path d="M409.366 255.285C399.936 255.285 392.345 262.878 392.345 272.308V273.254C392.345 275.547 392.794 277.729 393.609 279.721C381.528 283.874 372.891 295.307 372.891 308.831V321.029C372.891 338.082 386.619 351.809 403.672 351.809H409.386C426.439 351.809 440.168 338.082 440.168 321.029V308.831C440.168 297.123 433.694 286.981 424.118 281.775C425.562 279.272 426.389 276.363 426.389 273.254V272.308C426.389 262.878 418.796 255.285 409.366 255.285Z" fill="#44423C"/>
<path d="M331.392 255.285C321.962 255.285 314.369 262.878 314.369 272.308V273.254C314.369 275.547 314.818 277.729 315.633 279.721C303.552 283.874 294.916 295.307 294.916 308.831V321.029C294.916 338.082 308.645 351.809 325.698 351.809H331.41C348.463 351.809 362.192 338.082 362.192 321.029V308.831C362.192 297.123 355.72 286.981 346.143 281.775C347.587 279.272 348.413 276.363 348.413 273.254V272.308C348.413 262.878 340.822 255.285 331.392 255.285Z" fill="#44423C"/>
<path d="M253.417 255.285C243.987 255.285 236.396 262.878 236.396 272.308V273.254C236.396 275.547 236.845 277.729 237.659 279.721C225.579 283.874 216.941 295.306 216.941 308.831V321.029C216.941 338.082 230.672 351.809 247.725 351.809H253.437C270.49 351.809 284.219 338.082 284.219 321.029V308.831C284.219 297.123 277.745 286.981 268.168 281.775C269.613 279.272 270.44 276.364 270.44 273.254V272.308C270.44 262.878 262.847 255.285 253.417 255.285Z" fill="#44423C"/>
<path d="M175.442 255.285C166.012 255.285 158.421 262.878 158.421 272.308V273.254C158.421 275.547 158.87 277.729 159.685 279.721C147.604 283.874 138.967 295.306 138.967 308.831V321.029C138.967 338.082 152.696 351.809 169.749 351.809H175.461C192.514 351.809 206.244 338.082 206.244 321.029V308.831C206.244 297.123 199.77 286.981 190.194 281.775C191.638 279.272 192.465 276.363 192.465 273.254V272.308C192.465 262.878 184.872 255.285 175.442 255.285Z" fill="#44423C"/>
<path d="M644.233 258.956C634.803 258.956 627.212 266.548 627.212 275.978V276.925C627.212 279.217 627.66 281.4 628.474 283.392C616.394 287.544 607.758 298.977 607.758 312.502V324.699C607.758 341.752 621.487 355.48 638.54 355.48H644.252C661.305 355.48 675.034 341.752 675.034 324.699V312.502C675.034 300.793 668.561 290.652 658.985 285.445C660.429 282.942 661.255 280.034 661.255 276.925V275.978C661.255 266.548 653.663 258.956 644.233 258.956Z" fill="#44423C"/>
<path d="M91.6007 255.285C82.1707 255.285 74.5796 262.878 74.5796 272.308V273.254C74.5796 275.547 75.0287 277.729 75.8431 279.721C63.7624 283.874 55.125 295.306 55.125 308.831V321.029C55.125 338.082 68.8538 351.809 85.9067 351.809H91.619C108.672 351.809 122.402 338.082 122.402 321.029V308.831C122.402 297.123 115.929 286.981 106.352 281.775C107.796 279.272 108.623 276.363 108.623 273.254V272.308C108.623 262.878 101.031 255.285 91.6007 255.285Z" fill="#44423C"/>
<path d="M531.528 275.488C521.147 275.488 512.791 283.846 512.791 294.227V295.269C512.791 297.792 513.284 300.195 514.18 302.388C500.882 306.959 491.375 319.545 491.375 334.433V347.86C491.375 366.632 506.488 381.744 525.26 381.744H531.548C550.32 381.744 565.433 366.632 565.433 347.86V334.433C565.433 321.544 558.309 310.38 547.767 304.649C549.357 301.893 550.265 298.692 550.265 295.269V294.227C550.265 283.846 541.909 275.488 531.528 275.488Z" fill="#4B4942" fill-opacity="0.996078"/>
<path d="M445.692 275.488C435.311 275.488 426.954 283.846 426.954 294.227V295.269C426.954 297.792 427.448 300.195 428.344 302.388C415.046 306.959 405.539 319.545 405.539 334.433V347.86C405.539 366.632 420.652 381.744 439.424 381.744H445.712C464.485 381.744 479.598 366.632 479.598 347.86V334.433C479.598 321.544 472.471 310.38 461.929 304.649C463.519 301.893 464.429 298.692 464.429 295.269V294.227C464.429 283.846 456.073 275.488 445.692 275.488Z" fill="#4B4942" fill-opacity="0.996078"/>
<path d="M359.856 275.488C349.476 275.488 341.119 283.846 341.119 294.227V295.269C341.119 297.792 341.613 300.195 342.51 302.388C329.211 306.959 319.703 319.545 319.703 334.433V347.86C319.703 366.632 334.816 381.744 353.588 381.744H359.878C378.65 381.744 393.763 366.632 393.763 347.86V334.433C393.763 321.544 386.637 310.38 376.095 304.649C377.685 301.893 378.595 298.692 378.595 295.269V294.227C378.595 283.846 370.237 275.488 359.856 275.488Z" fill="#4B4942" fill-opacity="0.996078"/>
<path d="M274.02 275.488C263.64 275.488 255.282 283.846 255.282 294.227V295.269C255.282 297.792 255.776 300.195 256.672 302.388C243.374 306.959 233.867 319.545 233.867 334.433V347.86C233.867 366.632 248.98 381.744 267.752 381.744H274.041C292.813 381.744 307.926 366.632 307.926 347.86V334.433C307.926 321.544 300.801 310.38 290.259 304.649C291.849 301.893 292.757 298.692 292.757 295.269V294.227C292.757 283.846 284.401 275.488 274.02 275.488Z" fill="#4B4942" fill-opacity="0.996078"/>
<path d="M188.184 275.488C177.804 275.488 169.447 283.846 169.447 294.227V295.269C169.447 297.792 169.942 300.195 170.838 302.388C157.539 306.959 148.031 319.545 148.031 334.433V347.86C148.031 366.632 163.146 381.744 181.918 381.744H188.206C206.978 381.744 222.091 366.632 222.091 347.86V334.433C222.091 321.544 214.965 310.38 204.423 304.649C206.013 301.893 206.923 298.692 206.923 295.269V294.227C206.923 283.846 198.565 275.488 188.184 275.488Z" fill="#4B4942" fill-opacity="0.996078"/>
<path d="M102.348 275.488C91.9677 275.488 83.6113 283.846 83.6113 294.227V295.269C83.6113 297.792 84.1057 300.195 85.0022 302.388C71.7035 306.959 62.1953 319.545 62.1953 334.433V347.86C62.1953 366.632 77.3083 381.744 96.0804 381.744H102.369C121.141 381.744 136.255 366.632 136.255 347.86V334.433C136.255 321.544 129.129 310.38 118.587 304.649C120.177 301.893 121.087 298.692 121.087 295.269V294.227C121.087 283.846 112.729 275.488 102.348 275.488Z" fill="#4B4942" fill-opacity="0.996078"/>
<path d="M618.401 279.529C608.02 279.529 599.664 287.887 599.664 298.267V299.31C599.664 301.833 600.157 304.236 601.053 306.429C587.755 310.999 578.248 323.585 578.248 338.473V351.901C578.248 370.673 593.361 385.784 612.133 385.784H618.421C637.194 385.784 652.306 370.673 652.306 351.901V338.473C652.306 325.584 645.182 314.421 634.64 308.689C636.23 305.934 637.138 302.732 637.138 299.31V298.267C637.138 287.887 628.782 279.529 618.401 279.529Z" fill="#4B4942" fill-opacity="0.996078"/>
<path d="M141.298 313.139C130.917 313.139 122.561 321.497 122.561 331.877V332.92C122.561 335.443 123.055 337.846 123.951 340.039C110.653 344.609 101.145 357.195 101.145 372.083V385.511C101.145 404.283 116.257 419.394 135.03 419.394H141.318C160.09 419.394 175.205 404.283 175.205 385.511V372.083C175.205 359.194 168.078 348.03 157.536 342.299C159.126 339.543 160.036 336.342 160.036 332.92V331.877C160.036 321.497 151.678 313.139 141.298 313.139ZM227.133 313.139C216.752 313.139 208.396 321.497 208.396 331.877V332.92C208.396 335.443 208.89 337.846 209.787 340.039C196.488 344.609 186.98 357.195 186.98 372.083V385.511C186.98 404.283 202.094 419.394 220.866 419.394H227.155C245.927 419.394 261.04 404.283 261.04 385.511V372.083C261.04 359.194 253.913 348.03 243.371 342.299C244.961 339.543 245.871 336.342 245.871 332.92V331.877C245.871 321.497 237.514 313.139 227.133 313.139ZM312.97 313.139C302.589 313.139 294.231 321.497 294.231 331.877V332.92C294.231 335.443 294.725 337.846 295.622 340.039C282.323 344.609 272.817 357.195 272.817 372.083V385.511C272.817 404.283 287.929 419.394 306.702 419.394H312.99C331.762 419.394 346.875 404.283 346.875 385.511V372.083C346.875 359.194 339.75 348.03 329.208 342.299C330.798 339.544 331.707 336.342 331.707 332.92V331.877C331.707 321.497 323.35 313.139 312.97 313.139ZM398.805 313.139C388.424 313.139 380.068 321.497 380.068 331.877V332.92C380.068 335.443 380.562 337.846 381.459 340.039C368.16 344.609 358.652 357.195 358.652 372.083V385.511C358.652 404.283 373.765 419.394 392.537 419.394H398.827C417.599 419.394 432.712 404.283 432.712 385.511V372.083C432.712 359.194 425.585 348.03 415.043 342.299C416.633 339.543 417.544 336.342 417.544 332.92V331.877C417.544 321.497 409.186 313.139 398.805 313.139ZM484.642 313.139C474.261 313.139 465.903 321.497 465.903 331.877V332.92C465.903 335.443 466.397 337.846 467.294 340.039C453.995 344.609 444.489 357.195 444.489 372.083V385.511C444.489 404.283 459.602 419.394 478.374 419.394H484.662C503.434 419.394 518.547 404.283 518.547 385.511V372.083C518.547 359.194 511.421 348.03 500.879 342.299C502.468 339.543 503.379 336.342 503.379 332.92V331.877C503.379 321.497 495.022 313.139 484.642 313.139ZM570.477 313.139C560.096 313.139 551.74 321.497 551.74 331.877V332.92C551.74 335.443 552.233 337.846 553.129 340.039C539.83 344.609 530.324 357.195 530.324 372.083V385.511C530.324 404.283 545.437 419.394 564.209 419.394H570.497C589.269 419.394 604.382 404.283 604.382 385.511V372.083C604.382 359.194 597.257 348.03 586.715 342.299C588.305 339.543 589.214 336.342 589.214 332.92V331.877C589.214 321.497 580.858 313.139 570.477 313.139Z" fill="#605D54" fill-opacity="0.996078"/>
<path d="M101.555 328.853C88.5222 328.853 78.0312 339.346 78.0312 352.378V353.687C78.0312 356.855 78.6518 359.871 79.7773 362.625C63.0816 368.363 51.1445 384.163 51.1445 402.855V419.712C51.1445 443.28 70.1181 462.251 93.6855 462.251H101.58C125.148 462.251 144.123 443.28 144.123 419.712V402.855C144.123 386.673 135.176 372.658 121.941 365.462C123.937 362.003 125.08 357.984 125.08 353.687V352.378C125.08 339.346 114.587 328.853 101.555 328.853ZM209.316 328.853C196.284 328.853 185.793 339.346 185.793 352.378V353.687C185.793 356.855 186.414 359.871 187.539 362.625C170.843 368.363 158.906 384.163 158.906 402.855V419.712C158.906 443.28 177.882 462.251 201.449 462.251H209.344C232.911 462.251 251.885 443.28 251.885 419.712V402.855C251.885 386.673 242.938 372.658 229.703 365.462C231.699 362.003 232.842 357.984 232.842 353.687V352.378C232.842 339.346 222.349 328.853 209.316 328.853ZM317.08 328.853C304.048 328.853 293.555 339.346 293.555 352.378V353.687C293.555 356.855 294.175 359.871 295.301 362.625C278.605 368.363 266.67 384.163 266.67 402.855V419.712C266.67 443.28 285.643 462.251 309.211 462.251H317.105C340.673 462.251 359.646 443.28 359.646 419.712V402.855C359.646 386.673 350.702 372.658 337.467 365.462C339.463 362.003 340.603 357.984 340.603 353.687V352.378C340.603 339.346 330.113 328.853 317.08 328.853ZM424.842 328.853C411.809 328.853 401.318 339.346 401.318 352.378V353.687C401.318 356.855 401.939 359.871 403.064 362.625C386.369 368.363 374.432 384.163 374.432 402.855V419.712C374.432 443.28 393.405 462.251 416.973 462.251H424.869C448.437 462.251 467.41 443.28 467.41 419.712V402.855C467.41 386.673 458.463 372.658 445.228 365.462C447.224 362.003 448.367 357.984 448.367 353.687V352.378C448.367 339.346 437.874 328.853 424.842 328.853ZM532.605 328.853C519.573 328.853 509.08 339.346 509.08 352.378V353.687C509.08 356.855 509.701 359.871 510.826 362.625C494.13 368.363 482.195 384.163 482.195 402.855V419.712C482.195 443.28 501.169 462.251 524.736 462.251H532.631C556.198 462.251 575.172 443.28 575.172 419.712V402.855C575.172 386.673 566.225 372.658 552.99 365.462C554.986 362.003 556.129 357.984 556.129 353.687V352.378C556.129 339.346 545.638 328.853 532.605 328.853ZM640.367 328.853C627.335 328.853 616.844 339.346 616.844 352.378V353.687C616.844 356.855 617.462 359.871 618.588 362.625C601.892 368.363 589.957 384.163 589.957 402.855V419.712C589.957 443.28 608.931 462.251 632.498 462.251H640.393C663.96 462.251 682.934 443.28 682.934 419.712V402.855C682.934 386.673 673.989 372.658 660.754 365.462C662.75 362.003 663.891 357.984 663.891 353.687V352.378C663.891 339.346 653.4 328.853 640.367 328.853Z" fill="#736F64" fill-opacity="0.996078"/>
<path d="M31.3191 429.664H690.211C690.695 429.664 691.085 430.054 691.085 430.538V590.415C691.085 590.899 690.695 591.288 690.211 591.288H31.3191C30.835 591.288 30.4453 590.899 30.4453 590.415V430.538C30.4453 430.054 30.835 429.664 31.3191 429.664Z" fill="#D6A876" fill-opacity="0.996078"/>
<path d="M30.9504 511.527H681.489C687.365 511.527 692.095 516.258 692.095 522.134V546.378C692.095 552.254 687.365 556.984 681.489 556.984H30.9504C25.0743 556.984 20.3438 552.254 20.3438 546.378V522.134C20.3438 516.258 25.0743 511.527 30.9504 511.527Z" fill="#806E57"/>
<path d="M97.8218 522.598H636.257C676.795 522.598 709.43 546.099 709.43 575.29V585.064C709.43 614.255 676.795 637.756 636.257 637.756H97.8218C57.2838 637.756 24.6484 614.255 24.6484 585.064V575.29C24.6484 546.099 57.2838 522.598 97.8218 522.598Z" fill="#968066"/>
<path d="M113.132 601.732H620.946C645.302 601.732 664.91 621.34 664.91 645.696C664.91 670.052 645.302 689.66 620.946 689.66H113.132C88.7759 689.66 69.168 670.052 69.168 645.696C69.168 621.34 88.7759 601.732 113.132 601.732Z" fill="#806E57"/>
<path d="M102.525 591.732H631.553C650.033 591.732 664.91 608.839 664.91 630.089C664.91 651.339 650.033 668.446 631.553 668.446H102.525C84.0453 668.446 69.168 651.339 69.168 630.089C69.168 608.839 84.0453 591.732 102.525 591.732Z" fill="#B59B7C" fill-opacity="0.996078"/>
<path d="M206.035 617.065H518.045C528.03 617.065 536.069 625.104 536.069 635.089C536.069 645.074 528.03 653.113 518.045 653.113H206.035C196.05 653.113 188.012 645.074 188.012 635.089C188.012 625.104 196.05 617.065 206.035 617.065Z" fill="#968066"/>
<path d="M346.797 534.548H378.939C384.677 534.548 389.297 539.168 389.297 544.905C389.297 550.643 384.677 555.263 378.939 555.263H346.797C341.059 555.263 336.439 550.643 336.439 544.905C336.439 539.168 341.059 534.548 346.797 534.548Z" fill="#B49A7B"/>
<path d="M414.78 547.17H432.155C435.256 547.17 437.753 549.667 437.753 552.768C437.753 555.87 435.256 558.367 432.155 558.367H414.78C411.679 558.367 409.182 555.87 409.182 552.768C409.182 549.667 411.679 547.17 414.78 547.17Z" fill="#B49A7B"/>
<path d="M32.9699 424.654H685.781C688.859 424.654 691.337 427.132 691.337 430.21C691.337 433.288 688.859 435.766 685.781 435.766H32.9699C29.892 435.766 27.4141 433.288 27.4141 430.21C27.4141 427.132 29.892 424.654 32.9699 424.654Z" fill="#E9B780"/>
<path d="M116.986 538.589H149.129C154.867 538.589 159.486 543.208 159.486 548.946C159.486 554.684 154.867 559.303 149.129 559.303H116.986C111.248 559.303 106.629 554.684 106.629 548.946C106.629 543.208 111.248 538.589 116.986 538.589Z" fill="#B49A7B"/>
<path d="M153.655 571.919H171.03C174.131 571.919 176.628 574.416 176.628 577.517C176.628 580.619 174.131 583.116 171.03 583.116H153.655C150.554 583.116 148.057 580.619 148.057 577.517C148.057 574.416 150.554 571.919 153.655 571.919Z" fill="#B49A7B"/>
<path d="M165.657 449.59H190.974C194.052 449.59 196.53 452.068 196.53 455.146V457.606C196.53 460.684 194.052 463.162 190.974 463.162H165.657C162.579 463.162 160.102 460.684 160.102 457.606V455.146C160.102 452.068 162.579 449.59 165.657 449.59Z" fill="#E9B780"/>
<path d="M139.23 477.447H164.547C167.625 477.447 170.102 479.925 170.102 483.003V485.463C170.102 488.541 167.625 491.019 164.547 491.019H139.23C136.152 491.019 133.674 488.541 133.674 485.463V483.003C133.674 479.925 136.152 477.447 139.23 477.447Z" fill="#E9B780"/>
<path d="M551.372 451.019H576.689C579.767 451.019 582.245 453.496 582.245 456.574V459.034C582.245 462.112 579.767 464.59 576.689 464.59H551.372C548.294 464.59 545.816 462.112 545.816 459.034V456.574C545.816 453.496 548.294 451.019 551.372 451.019Z" fill="#E9B780"/>
<path d="M524.945 478.876H550.261C553.339 478.876 555.817 481.354 555.817 484.432V486.892C555.817 489.969 553.339 492.447 550.261 492.447H524.945C521.867 492.447 519.389 489.969 519.389 486.892V484.432C519.389 481.354 521.867 478.876 524.945 478.876Z" fill="#E9B780"/>
<path d="M20.3438 523.65V535.771H692.096V523.65H20.3438Z" fill="#FFF8D3" fill-opacity="0.996078"/>
<path d="M367.037 565.066C307.002 565.074 247.679 570.479 193.118 580.91C138.558 591.342 90.0463 606.554 50.8965 625.509C57.7861 629.65 65.7359 632.913 74.4473 635.013C74.6293 636.658 74.9331 638.255 75.2891 639.828C110.577 621.787 155.068 607.246 205.531 597.259C255.995 587.272 311.165 582.09 367.037 582.089C425.286 582.091 482.739 587.725 534.872 598.547C587.005 609.368 632.394 625.082 667.465 644.451C668.832 640.543 669.692 636.331 669.869 631.9C674.646 630.126 679.093 627.968 683.18 625.511C644.03 606.556 595.518 591.343 540.958 580.911C486.397 570.479 427.073 565.074 367.037 565.066Z" fill="#D5CEA3"/>
<path d="M145.363 591.732C118.526 598.75 93.6971 607.019 71.3555 616.378C69.9466 620.634 69.168 625.252 69.168 630.089C69.168 631.274 69.222 632.442 69.3125 633.599C70.9952 634.111 72.7009 634.592 74.4473 635.013C74.6293 636.658 74.9331 638.255 75.2891 639.828C117.915 618.042 173.823 601.43 237.158 591.732H145.363ZM496.816 591.732C562.474 601.797 620.093 619.286 663.205 642.234C664.305 638.419 664.91 634.34 664.91 630.089C664.91 625.253 664.133 620.635 662.725 616.38C640.382 607.02 615.551 598.751 588.713 591.732H496.816Z" fill="#FFF8D2"/>
<path d="M184.388 184.233C184.388 179.302 180.391 175.305 175.46 175.305C170.529 175.305 166.531 179.302 166.531 184.233V188.519C166.531 193.45 170.529 197.448 175.46 197.448C180.391 197.448 184.388 193.45 184.388 188.519V184.233Z" fill="#3F3D37"/>
<path d="M278.674 168.876C278.674 166.115 276.435 163.876 273.674 163.876C270.912 163.876 268.674 166.115 268.674 168.876V173.162C268.674 175.923 270.912 178.162 273.674 178.162C276.435 178.162 278.674 175.923 278.674 173.162V168.876Z" fill="#3F3D37"/>
<path d="M240.816 141.733C240.816 140.944 240.177 140.305 239.388 140.305C238.599 140.305 237.959 140.944 237.959 141.733V146.019C237.959 146.808 238.599 147.448 239.388 147.448C240.177 147.448 240.816 146.808 240.816 146.019V141.733Z" fill="#3F3D37"/>
<path d="M425.103 153.876H413.675C412.886 153.876 412.246 154.516 412.246 155.305V175.305C412.246 176.094 412.886 176.733 413.675 176.733H425.103C425.892 176.733 426.532 176.094 426.532 175.305V155.305C426.532 154.516 425.892 153.876 425.103 153.876Z" fill="#3F3D37"/>
<path d="M439.744 116.733H437.602C433.459 116.733 430.102 120.091 430.102 124.233C430.102 128.375 433.459 131.733 437.602 131.733H439.744C443.887 131.733 447.244 128.375 447.244 124.233C447.244 120.091 443.887 116.733 439.744 116.733Z" fill="#3F3D37"/>
<path d="M362.959 165.305C362.959 161.754 360.081 158.876 356.53 158.876C352.98 158.876 350.102 161.754 350.102 165.305V171.733C350.102 175.284 352.98 178.162 356.53 178.162C360.081 178.162 362.959 175.284 362.959 171.733V165.305Z" fill="#44423C"/>
<path d="M530.817 174.59H527.96C524.409 174.59 521.531 177.468 521.531 181.019V187.447C521.531 190.998 524.409 193.876 527.96 193.876H530.817C534.367 193.876 537.246 190.998 537.246 187.447V181.019C537.246 177.468 534.367 174.59 530.817 174.59Z" fill="#44423C"/>
<path d="M485.816 182.804C485.816 179.846 483.417 177.447 480.459 177.447C477.5 177.447 475.102 179.846 475.102 182.804V187.09C475.102 190.049 477.5 192.447 480.459 192.447C483.417 192.447 485.816 190.049 485.816 187.09V182.804Z" fill="#44423C"/>
<path d="M460.459 196.019H458.316C455.357 196.019 452.959 198.418 452.959 201.376V207.805C452.959 210.763 455.357 213.162 458.316 213.162H460.459C463.418 213.162 465.816 210.763 465.816 207.805V201.376C465.816 198.418 463.418 196.019 460.459 196.019Z" fill="#3F3D37"/>
<path d="M282.96 118.519C282.96 112.799 278.323 108.162 272.603 108.162C266.883 108.162 262.246 112.799 262.246 118.519V125.662C262.246 131.382 266.883 136.019 272.603 136.019C278.323 136.019 282.96 131.382 282.96 125.662V118.519Z" fill="#3F3D37"/>
<path d="M325.103 155.662C325.103 149.942 320.466 145.305 314.746 145.305C309.026 145.305 304.389 149.942 304.389 155.662V157.805C304.389 163.525 309.026 168.162 314.746 168.162C320.466 168.162 325.103 163.525 325.103 157.805V155.662Z" fill="#3F3D37"/>
<path d="M237.245 175.662C237.245 171.914 234.207 168.876 230.46 168.876C226.712 168.876 223.674 171.914 223.674 175.662V178.519C223.674 182.266 226.712 185.305 230.46 185.305C234.207 185.305 237.245 182.266 237.245 178.519V175.662Z" fill="#3F3D37"/>
<path d="M392.245 200.662C392.245 194.153 386.969 188.876 380.46 188.876C373.95 188.876 368.674 194.153 368.674 200.662V204.947C368.674 211.456 373.95 216.733 380.46 216.733C386.969 216.733 392.245 211.456 392.245 204.947V200.662Z" fill="#3F3D37"/>
<path d="M315.46 199.59H313.317C308.386 199.59 304.389 203.588 304.389 208.519C304.389 213.45 308.386 217.447 313.317 217.447H315.46C320.391 217.447 324.389 213.45 324.389 208.519C324.389 203.588 320.391 199.59 315.46 199.59Z" fill="#3F3D37"/>
<path d="M245.818 208.519C245.818 204.771 242.779 201.733 239.032 201.733C235.284 201.733 232.246 204.771 232.246 208.519V212.804C232.246 216.552 235.284 219.59 239.032 219.59C242.779 219.59 245.818 216.552 245.818 212.804V208.519Z" fill="#44423C"/>
<path d="M446.409 482.525H675.457C681.538 482.525 686.433 487.145 686.433 492.882C686.433 498.62 681.538 503.24 675.457 503.24H446.409C440.329 503.24 435.434 498.62 435.434 492.882C435.434 487.145 440.329 482.525 446.409 482.525Z" fill="#9D7B57"/>
<path d="M594.409 285.987H531.079C530.663 285.987 530.326 286.325 530.326 286.741V287.973C530.326 288.39 530.663 288.727 531.079 288.727H594.409C594.825 288.727 595.162 288.39 595.162 287.973V286.741C595.162 286.325 594.825 285.987 594.409 285.987Z" fill="#76654D"/>
<path d="M533.092 286.862C532.863 286.141 532.093 285.742 531.372 285.971C530.651 286.2 530.252 286.97 530.481 287.691L537.298 309.16C537.527 309.881 538.297 310.28 539.018 310.051C539.739 309.822 540.138 309.052 539.909 308.331L533.092 286.862Z" fill="#76654D"/>
<path d="M594.676 287.471C594.905 286.75 595.675 286.351 596.396 286.58C597.117 286.809 597.516 287.579 597.287 288.3L590.47 309.769C590.241 310.49 589.471 310.889 588.75 310.66C588.029 310.431 587.63 309.661 587.859 308.94L594.676 287.471Z" fill="#76654D"/>
<path d="M632.908 373.278C632.908 392.008 625.628 409.97 612.67 423.214C599.712 436.458 582.136 443.898 563.811 443.898C545.485 443.898 527.909 436.458 514.951 423.214C501.993 409.97 494.713 392.008 494.713 373.278C494.713 354.549 501.993 336.586 514.951 323.343C527.909 310.099 545.485 302.659 563.811 302.659C572.885 302.659 581.87 304.485 590.253 308.034C598.636 311.583 606.254 316.785 612.67 323.343C619.086 329.9 624.176 337.685 627.648 346.253C631.121 354.821 632.908 364.004 632.908 373.278Z" fill="#D6AF7E"/>
<path d="M618.906 373.278C618.906 388.212 613.101 402.535 602.769 413.095C592.436 423.655 578.423 429.587 563.81 429.587C549.198 429.587 535.184 423.655 524.852 413.095C514.52 402.535 508.715 388.212 508.715 373.278C508.715 365.884 510.14 358.562 512.909 351.73C515.678 344.898 519.736 338.691 524.852 333.462C529.968 328.233 536.042 324.085 542.726 321.256C549.411 318.426 556.575 316.969 563.81 316.969C571.046 316.969 578.21 318.426 584.894 321.256C591.579 324.085 597.653 328.233 602.769 333.462C607.885 338.691 611.943 344.898 614.712 351.73C617.481 358.562 618.906 365.884 618.906 373.278Z" fill="#B5946B"/>
<path d="M609.775 373.278C609.775 385.737 604.932 397.686 596.312 406.495C587.693 415.305 576.002 420.254 563.811 420.254C551.621 420.254 539.93 415.305 531.31 406.495C522.69 397.686 517.848 385.737 517.848 373.278C517.848 360.819 522.69 348.871 531.31 340.061C539.93 331.252 551.621 326.302 563.811 326.302C576.002 326.302 587.693 331.252 596.312 340.061C604.932 348.871 609.775 360.819 609.775 373.278Z" fill="#D6AF7E"/>
<path d="M597.599 373.278C597.599 382.437 594.039 391.22 587.703 397.696C581.366 404.172 572.772 407.81 563.811 407.81C554.85 407.81 546.256 404.172 539.92 397.696C533.583 391.22 530.023 382.437 530.023 373.278C530.023 368.743 530.897 364.253 532.595 360.063C534.293 355.874 536.782 352.067 539.92 348.86C543.057 345.654 546.782 343.11 550.881 341.375C554.981 339.639 559.374 338.746 563.811 338.746C568.248 338.746 572.642 339.639 576.741 341.375C580.841 343.11 584.565 345.654 587.703 348.86C590.84 352.067 593.329 355.874 595.027 360.063C596.725 364.253 597.599 368.743 597.599 373.278Z" fill="#B5946B"/>
<path d="M585.423 373.279C585.423 379.137 583.146 384.755 579.093 388.897C575.04 393.039 569.543 395.367 563.811 395.367C558.079 395.367 552.582 393.039 548.529 388.897C544.476 384.755 542.199 379.137 542.199 373.279C542.199 370.378 542.758 367.506 543.844 364.826C544.93 362.146 546.522 359.711 548.529 357.66C550.536 355.609 552.919 353.982 555.541 352.872C558.163 351.762 560.973 351.19 563.811 351.19C566.649 351.19 569.46 351.762 572.082 352.872C574.704 353.982 577.086 355.609 579.093 357.66C581.1 359.711 582.692 362.146 583.778 364.826C584.864 367.506 585.423 370.378 585.423 373.279Z" fill="#D6AF7E"/>
<path d="M580.368 369.834C580.368 371.604 580.027 373.357 579.364 374.992C578.702 376.628 577.73 378.113 576.505 379.365C575.281 380.617 573.827 381.61 572.227 382.287C570.627 382.964 568.912 383.313 567.18 383.313C565.448 383.313 563.733 382.964 562.133 382.287C560.533 381.61 559.079 380.617 557.855 379.365C556.63 378.113 555.659 376.628 554.996 374.992C554.333 373.357 553.992 371.604 553.992 369.834C553.992 368.064 554.333 366.312 554.996 364.676C555.659 363.041 556.63 361.555 557.855 360.304C559.079 359.052 560.533 358.059 562.133 357.382C563.733 356.705 565.448 356.356 567.18 356.356C568.912 356.356 570.627 356.705 572.227 357.382C573.827 358.059 575.281 359.052 576.505 360.304C577.73 361.555 578.702 363.041 579.364 364.676C580.027 366.312 580.368 368.064 580.368 369.834Z" fill="#EFC481" fill-opacity="0.996078"/>
<path d="M593.386 337.378L598.05 343.017C599.57 344.855 599.314 347.558 597.477 349.078C595.639 350.598 592.936 350.342 591.416 348.504L586.751 342.865C585.231 341.028 585.487 338.325 587.325 336.805C589.162 335.285 591.866 335.54 593.386 337.378Z" fill="#EFC480"/>
<path d="M613.403 327.047L618.067 332.685C619.588 334.523 619.332 337.226 617.494 338.746C615.656 340.266 612.953 340.011 611.433 338.173L606.769 332.534C605.249 330.696 605.505 327.993 607.342 326.473C609.18 324.953 611.883 325.209 613.403 327.047Z" fill="#EFC480"/>
<path d="M605.959 321.094C605.959 321.865 605.608 322.604 604.982 323.149C604.357 323.694 603.508 324 602.623 324C601.738 324 600.89 323.694 600.264 323.149C599.639 322.604 599.287 321.865 599.287 321.094C599.287 320.324 599.639 319.585 600.264 319.04C600.89 318.495 601.738 318.188 602.623 318.188C603.508 318.188 604.357 318.495 604.982 319.04C605.608 319.585 605.959 320.324 605.959 321.094Z" fill="#EFC480"/>
<path d="M468.674 252.971H465.231C462.853 252.971 460.926 254.899 460.926 257.276V480.264C460.926 482.642 462.853 484.569 465.231 484.569H468.674C471.052 484.569 472.979 482.642 472.979 480.264V257.276C472.979 254.899 471.052 252.971 468.674 252.971Z" fill="#77664E" fill-opacity="0.996078"/>
<path d="M689.618 302.906H665.511C663.906 302.906 662.605 304.207 662.605 305.812C662.605 307.417 663.906 308.718 665.511 308.718H689.618C691.223 308.718 692.524 307.417 692.524 305.812C692.524 304.207 691.223 302.906 689.618 302.906Z" fill="#655642" fill-opacity="0.996078"/>
<path d="M662.391 252.971H658.947C656.57 252.971 654.643 254.899 654.643 257.276V480.264C654.643 482.642 656.57 484.569 658.947 484.569H662.391C664.769 484.569 666.696 482.642 666.696 480.264V257.276C666.696 254.899 664.769 252.971 662.391 252.971Z" fill="#77664E" fill-opacity="0.996078"/>
<path d="M535.399 268.253C535.399 266.47 533.953 265.024 532.17 265.024C530.387 265.024 528.941 266.47 528.941 268.253V285.903C528.941 287.686 530.387 289.131 532.17 289.131C533.953 289.131 535.399 287.686 535.399 285.903V268.253Z" fill="#655642" fill-opacity="0.996078"/>
<path d="M598.68 268.253C598.68 266.47 597.234 265.024 595.451 265.024C593.668 265.024 592.223 266.47 592.223 268.253V285.903C592.223 287.686 593.668 289.131 595.451 289.131C597.234 289.131 598.68 287.686 598.68 285.903V268.253Z" fill="#655642" fill-opacity="0.996078"/>
<path d="M670.355 247.375H457.268C454.89 247.375 452.963 249.302 452.963 251.68V262.872C452.963 265.25 454.89 267.177 457.268 267.177H670.355C672.732 267.177 674.66 265.25 674.66 262.872V251.68C674.66 249.302 672.732 247.375 670.355 247.375Z" fill="#77664E" fill-opacity="0.996078"/>
<path d="M465.643 247.957L450.797 234.853C446.431 230.998 439.766 231.413 435.911 235.78C432.056 240.147 432.471 246.812 436.838 250.666L451.684 263.771C456.05 267.626 462.715 267.211 466.57 262.844C470.425 258.477 470.01 251.812 465.643 247.957Z" fill="#77664E" fill-opacity="0.996078"/>
<path d="M662.84 248.388L677.685 235.283C682.052 231.429 688.717 231.844 692.571 236.211C696.426 240.577 696.011 247.242 691.644 251.097L676.799 264.202C672.432 268.056 665.767 267.641 661.912 263.275C658.058 258.908 658.473 252.243 662.84 248.388Z" fill="#77664E" fill-opacity="0.996078"/>
<path d="M664.564 478.365H460.62C457.594 478.365 455.141 480.818 455.141 483.844C455.141 486.87 457.594 489.323 460.62 489.323H664.564C667.59 489.323 670.043 486.87 670.043 483.844C670.043 480.818 667.59 478.365 664.564 478.365Z" fill="#645541"/>
<path d="M680.089 486.888H445.096C442.91 486.888 441.139 488.659 441.139 490.845C441.139 493.03 442.91 494.802 445.096 494.802H680.089C682.274 494.802 684.046 493.03 684.046 490.845C684.046 488.659 682.274 486.888 680.089 486.888Z" fill="#655642" fill-opacity="0.996078"/>
<path d="M687.143 306.888C687.143 306.472 686.806 306.135 686.39 306.135C685.974 306.135 685.637 306.472 685.637 306.888V319.157C685.637 319.573 685.974 319.91 686.39 319.91C686.806 319.91 687.143 319.573 687.143 319.157V306.888Z" fill="#76654D"/>
<path d="M687.513 317.645H684.838C683.055 317.645 681.609 319.09 681.609 320.873V433.13C681.609 434.913 683.055 436.358 684.838 436.358H687.513C689.296 436.358 690.741 434.913 690.741 433.13V320.873C690.741 319.09 689.296 317.645 687.513 317.645Z" fill="#655642" fill-opacity="0.996078"/>
<path d="M379.811 392.329H386.167C395.319 392.329 402.687 399.697 402.687 408.849V420.256C402.687 429.408 395.319 436.776 386.167 436.776H379.811C370.659 436.776 363.291 429.408 363.291 420.256V408.849C363.291 399.697 370.659 392.329 379.811 392.329Z" fill="#77664D"/>
<path d="M364.658 425.664H400.309C409.461 425.664 416.829 433.032 416.829 442.184V478.845C416.829 487.997 409.461 495.365 400.309 495.365H364.658C355.506 495.365 348.139 487.997 348.139 478.845V442.184C348.139 433.032 355.506 425.664 364.658 425.664Z" fill="#77664D"/>
<path d="M362.28 480.212H366.321C372.197 480.212 376.928 484.943 376.928 490.819C376.928 496.695 372.197 501.426 366.321 501.426H362.28C356.404 501.426 351.674 496.695 351.674 490.819C351.674 484.943 356.404 480.212 362.28 480.212Z" fill="#77664D"/>
<path d="M399.152 480.212H417.335C422.931 480.212 427.437 484.718 427.437 490.314C427.437 495.91 422.931 500.415 417.335 500.415H399.152C393.556 500.415 389.051 495.91 389.051 490.314C389.051 484.718 393.556 480.212 399.152 480.212Z" fill="#77664D"/>
<path d="M544.848 241.988L490.877 255.614C479.241 258.552 472.872 270.102 476.599 281.511C480.325 292.92 492.693 299.739 504.33 296.801L558.301 283.175C569.938 280.237 576.306 268.687 572.58 257.278C568.853 245.869 556.485 239.05 544.848 241.988Z" fill="#F4C092"/>
<path d="M471.101 248.65L430.871 279.187C420.618 286.969 418.629 301.488 426.411 311.74C434.193 321.993 448.712 323.981 458.965 316.199L499.195 285.662C509.448 277.88 511.436 263.362 503.654 253.109C495.872 242.857 481.354 240.868 471.101 248.65Z" fill="#F4C092"/>
<path d="M545.378 197.627L483.848 205.154C461.934 207.834 446.45 227.634 449.131 249.548C451.811 271.461 471.611 286.945 493.524 284.265L555.055 276.738C576.969 274.058 592.452 254.258 589.772 232.344C587.092 210.431 567.292 194.947 545.378 197.627Z" fill="#F4C092"/>
<path d="M584.81 168.556L551.876 195.429C535.53 208.766 533.108 232.661 546.445 249.006C559.782 265.352 583.677 267.774 600.022 254.437L632.957 227.564C649.302 214.228 651.725 190.332 638.388 173.987C625.051 157.642 601.156 155.22 584.81 168.556Z" fill="#F7CBA3"/>
<path d="M623.031 140.749L575.85 179.246C563.451 189.363 561.614 207.489 571.731 219.888C581.847 232.287 599.974 234.124 612.372 224.007L659.554 185.51C671.953 175.394 673.79 157.267 663.673 144.868C653.557 132.47 635.43 130.632 623.031 140.749Z" fill="#F7CBA3"/>
<path d="M680.413 115.655L649.648 119.418C635.526 121.145 625.547 133.905 627.275 148.027C629.002 162.149 641.762 172.128 655.884 170.4L686.649 166.637C700.771 164.91 710.75 152.15 709.022 138.028C707.295 123.906 694.535 113.927 680.413 115.655Z" fill="#F4C092"/>
<path d="M643.639 106.77C637.796 107.485 633.667 112.765 634.382 118.609L636.532 136.189C637.247 142.032 642.527 146.161 648.37 145.447C654.214 144.732 658.343 139.452 657.628 133.608L655.478 116.028C654.763 110.184 649.483 106.055 643.639 106.77Z" fill="#F4C092"/>
<path d="M703.868 104.435C695.689 102.26 687.354 107.093 685.179 115.272L679.49 136.667C677.315 144.846 682.148 153.181 690.327 155.356C698.505 157.531 706.84 152.698 709.015 144.519L714.705 123.124C716.88 114.945 712.047 106.61 703.868 104.435Z" fill="#F7CBA3"/>
<path d="M364.681 200.861C409.974 200.861 446.437 235.358 446.437 278.209C446.437 321.059 409.974 355.556 364.681 355.556C319.389 355.556 282.926 321.059 282.926 278.209C282.926 235.358 319.389 200.861 364.681 200.861Z" fill="url(#paint0_linear_2606_6720)"/>
<path d="M193.031 241.988L247.001 255.614C258.638 258.552 265.007 270.102 261.28 281.511C257.554 292.92 245.186 299.739 233.549 296.801L179.578 283.175C167.941 280.237 161.573 268.687 165.299 257.278C169.025 245.869 181.394 239.05 193.031 241.988Z" fill="#F4C092"/>
<path d="M266.778 248.65L307.008 279.187C317.261 286.969 319.25 301.488 311.467 311.74C303.685 321.993 289.167 323.981 278.914 316.199L238.684 285.662C228.431 277.88 226.442 263.362 234.224 253.109C242.007 242.857 256.525 240.868 266.778 248.65Z" fill="#F4C092"/>
<path d="M192.501 197.627L254.031 205.154C275.945 207.834 291.429 227.634 288.748 249.548C286.068 271.461 266.268 286.945 244.354 284.265L182.824 276.738C160.91 274.058 145.426 254.258 148.107 232.344C150.787 210.431 170.587 194.947 192.501 197.627Z" fill="#F4C092"/>
<path d="M153.068 168.556L186.003 195.429C202.348 208.766 204.77 232.661 191.434 249.006C178.097 265.352 154.202 267.774 137.856 254.437L104.922 227.564C88.5765 214.228 86.1544 190.332 99.4911 173.987C112.828 157.642 136.723 155.22 153.068 168.556Z" fill="#F7CBA3"/>
<path d="M114.847 140.749L162.029 179.246C174.428 189.363 176.265 207.489 166.148 219.888C156.032 232.287 137.905 234.124 125.506 224.007L78.3251 185.51C65.9262 175.394 64.0889 157.267 74.2056 144.868C84.3223 132.47 102.449 130.632 114.847 140.749Z" fill="#F7CBA3"/>
<path d="M57.4658 115.654L88.2311 119.417C102.353 121.145 112.332 133.905 110.604 148.027C108.877 162.149 96.1171 172.127 81.9949 170.4L51.2297 166.637C37.1075 164.909 27.1291 152.15 28.8565 138.027C30.5839 123.905 43.3437 113.927 57.4658 115.654Z" fill="#F4C092"/>
<path d="M94.2395 106.77C100.083 107.485 104.212 112.765 103.497 118.609L101.347 136.189C100.632 142.032 95.3523 146.161 89.5086 145.447C83.665 144.732 79.536 139.452 80.2508 133.608L82.4012 116.028C83.116 110.184 88.3959 106.055 94.2395 106.77Z" fill="#F4C092"/>
<path d="M34.0109 104.435C42.1895 102.26 50.5246 107.093 52.6996 115.272L58.3892 136.667C60.5642 144.846 55.7309 153.181 47.5523 155.356C39.3737 157.531 31.0386 152.698 28.8636 144.519L23.1739 123.124C20.999 114.945 25.8323 106.61 34.0109 104.435Z" fill="#F7CBA3"/>
<path d="M367.87 226.447C301.044 226.447 247.246 277.101 247.246 340.02C249.254 351.429 247.29 381.866 247.246 392.162C247.246 422.653 269.112 427.814 297.995 432.721C317.685 445.873 341.786 453.59 367.87 453.59H370.905C396.99 453.59 421.09 445.873 440.781 432.721C469.664 427.814 491.532 422.653 491.532 392.162C489.454 381.177 491.502 350.165 491.532 340.02C491.532 277.101 437.732 226.447 370.905 226.447H367.87Z" fill="url(#paint1_linear_2606_6720)"/>
<path d="M364.681 166.144C420.232 166.144 464.954 194.641 464.954 230.04C464.954 265.439 420.232 293.937 364.681 293.937C309.13 293.937 264.408 265.439 264.408 230.04C264.408 194.641 309.13 166.144 364.681 166.144Z" fill="#F4C092"/>
<path d="M357.69 322.683H371.672C405.117 322.683 432.043 343.343 432.043 369.007V402.475C432.043 428.138 405.117 448.798 371.672 448.798H357.69C324.244 448.798 297.318 428.138 297.318 402.475V369.007C297.318 343.343 324.244 322.683 357.69 322.683Z" fill="url(#paint2_linear_2606_6720)"/>
<path d="M308.261 203.686H421.101C450.304 203.686 473.815 223.152 473.815 247.331V273.636C473.815 297.815 450.304 317.281 421.101 317.281H308.261C279.057 317.281 255.547 297.815 255.547 273.636V247.331C255.547 223.152 279.057 203.686 308.261 203.686Z" fill="#F4C092"/>
<path d="M257.435 193.644H473.533C496.998 193.644 515.888 209.507 515.888 229.21C515.888 248.914 496.998 264.777 473.533 264.777H257.435C233.97 264.777 215.08 248.914 215.08 229.21C215.08 209.507 233.97 193.644 257.435 193.644Z" fill="#F7CBA3"/>
<path d="M305.468 204.255H423.894C445.115 204.255 462.198 221.258 462.198 242.379V277.478C462.198 291.883 445.115 303.479 423.894 303.479H305.468C284.248 303.479 267.164 291.883 267.164 277.478V242.379C267.164 221.258 284.248 204.255 305.468 204.255Z" fill="#F7CBA3"/>
<path d="M294.66 193.645C309.272 214.018 335.115 227.506 364.682 227.506C394.249 227.506 420.091 214.018 434.703 193.645H294.66Z" fill="#F4C092"/>
<path d="M364.325 289.971C375.188 289.971 383.933 292.71 383.933 296.112V308.022C383.933 311.424 375.188 314.163 364.325 314.163C353.462 314.163 344.717 311.424 344.717 308.022V296.112C344.717 292.71 353.462 289.971 364.325 289.971Z" fill="#F4C092"/>
<path d="M382.112 252.915H398.68C403.453 252.915 407.295 256.402 407.295 260.734C407.295 265.066 403.453 268.553 398.68 268.553H382.112C377.339 268.553 373.496 265.066 373.496 260.734C373.496 256.402 377.339 252.915 382.112 252.915Z" fill="#F7D4B4"/>
<path d="M323.633 252.915H340.201C344.974 252.915 348.817 256.402 348.817 260.734C348.817 265.066 344.974 268.553 340.201 268.553H323.633C318.86 268.553 315.018 265.066 315.018 260.734C315.018 256.402 318.86 252.915 323.633 252.915Z" fill="#F7D4B4"/>
<path d="M364.681 121.887C385.317 121.887 401.93 141.778 401.93 166.485V184.781C401.93 209.488 385.317 229.378 364.681 229.378C344.045 229.378 327.432 209.488 327.432 184.781V166.485C327.432 141.778 344.045 121.887 364.681 121.887Z" fill="#F4C092"/>
<path d="M290.543 284.208H296.576C298.99 284.208 300.933 285.972 300.933 288.163C300.933 290.353 298.99 292.117 296.576 292.117H290.543C288.129 292.117 286.186 290.353 286.186 288.163C286.186 285.972 288.129 284.208 290.543 284.208Z" fill="#DBAC83"/>
<path d="M426.291 283.703H432.324C434.738 283.703 436.681 285.466 436.681 287.657C436.681 289.848 434.738 291.612 432.324 291.612H426.291C423.877 291.612 421.934 289.848 421.934 287.657C421.934 285.466 423.877 283.703 426.291 283.703Z" fill="#DBAC83"/>
<path d="M357.942 125.495H371.42C386.938 125.495 399.43 137.987 399.43 153.505V164.997C399.43 180.515 386.938 193.008 371.42 193.008H357.942C342.424 193.008 329.932 180.515 329.932 164.997V153.505C329.932 137.987 342.424 125.495 357.942 125.495Z" fill="#DBAC83"/>
<path d="M269.908 205.042H274.12C285.399 205.042 294.48 213.559 294.48 224.14C294.48 234.721 285.399 243.239 274.12 243.239H269.908C258.629 243.239 249.549 234.721 249.549 224.14C249.549 213.559 258.629 205.042 269.908 205.042Z" fill="#F7D4B4"/>
<path d="M451.598 206.904H455.81C467.089 206.904 476.169 215.422 476.169 226.002C476.169 236.583 467.089 245.101 455.81 245.101H451.598C440.319 245.101 431.238 236.583 431.238 226.002C431.238 215.422 440.319 206.904 451.598 206.904Z" fill="#F7D4B4"/>
<path d="M267.512 211.458H273.83C277.331 211.458 280.149 214.101 280.149 217.385C280.149 220.668 277.331 223.312 273.83 223.312H267.512C264.011 223.312 261.193 220.668 261.193 217.385C261.193 214.101 264.011 211.458 267.512 211.458Z" fill="#F7E0CA"/>
<path d="M457.145 211.923H463.463C466.963 211.923 469.781 214.567 469.781 217.85C469.781 221.134 466.963 223.778 463.463 223.778H457.145C453.644 223.778 450.826 221.134 450.826 217.85C450.826 214.567 453.644 211.923 457.145 211.923Z" fill="#F7E0CA"/>
<path d="M334.73 202.218L353.698 211.336C355.815 212.354 356.7 214.878 355.682 216.995C354.665 219.113 352.141 219.998 350.023 218.98L331.055 209.862C328.938 208.844 328.053 206.32 329.071 204.203C330.088 202.085 332.612 201.2 334.73 202.218Z" fill="#DBAC83"/>
<path d="M395.256 202.218L376.288 211.336C374.17 212.354 373.285 214.878 374.303 216.995C375.321 219.113 377.845 219.998 379.962 218.98L398.93 209.862C401.047 208.844 401.933 206.32 400.915 204.203C399.897 202.085 397.373 201.2 395.256 202.218Z" fill="#DBAC83"/>
<path d="M179.597 467.561C176.986 467.316 174.419 467.418 171.94 467.826C160.195 466.228 149.408 474.334 147.702 486.09L132.955 587.693C131.24 599.514 139.374 610.411 151.195 612.127C163.016 613.842 173.913 605.707 175.629 593.887C180.031 569.015 197.851 556.944 200.904 538.74L206.311 501.486C208.68 485.162 197.447 470.113 181.124 467.744C180.613 467.67 180.105 467.603 179.597 467.561Z" fill="url(#paint3_linear_2606_6720)"/>
<path d="M358.966 460.149C362.931 486.762 340.69 528.436 313.8 527.486L229.451 524.507C202.561 523.558 171.792 515.24 167.827 488.627C163.862 462.015 182.095 437.398 208.708 433.432L303.771 419.269C330.384 415.303 355.001 433.536 358.966 460.149Z" fill="url(#paint4_linear_2606_6720)"/>
<path d="M195.024 452.957C202.05 460.918 201.297 472.982 193.337 480.008L180.508 491.331C172.548 498.357 160.484 497.605 153.458 489.644C146.432 481.684 147.184 469.62 155.144 462.594L167.973 451.271C175.933 444.245 187.998 444.997 195.024 452.957Z" fill="#F7CBA3"/>
<path d="M139.873 588.469C137.303 588.705 120.835 604.259 120.957 615.542L120.996 619.201C121.004 619.961 121.034 620.732 121.089 621.507C121.398 625.825 124.017 629.118 127.116 629.084L169.507 628.65C172.608 628.619 175.156 625.268 175.369 620.941C175.407 620.17 175.42 619.405 175.412 618.643L175.372 614.984C175.213 600.246 166.524 586.016 161.193 586.507L139.873 588.469Z" fill="#F4C092"/>
<path d="M122.492 607.449C111.418 607.563 102.373 613.984 102.456 621.674L102.475 623.582C102.479 623.978 102.506 624.381 102.56 624.784C102.704 625.87 103.431 626.875 104.597 627.601C105.762 628.327 107.28 628.721 108.851 628.704L153.408 628.248C154.98 628.232 156.49 627.807 157.64 627.056C158.789 626.305 159.493 625.284 159.613 624.195C159.658 623.793 159.675 623.394 159.671 622.996L159.653 621.088C159.57 613.401 150.396 607.163 139.321 607.277L122.492 607.449Z" fill="#F7CBA3"/>
<path d="M552.284 467.561C554.894 467.316 557.462 467.418 559.941 467.826C571.686 466.228 582.473 474.334 584.179 486.09L598.926 587.693C600.641 599.514 592.506 610.411 580.686 612.127C568.865 613.842 557.968 605.707 556.252 593.887C551.85 569.015 534.029 556.944 530.977 538.74L525.57 501.486C523.2 485.162 534.434 470.113 550.757 467.744C551.267 467.67 551.776 467.603 552.284 467.561Z" fill="url(#paint5_linear_2606_6720)"/>
<path d="M372.915 460.149C368.95 486.762 391.191 528.436 418.081 527.486L502.43 524.507C529.32 523.558 560.088 515.24 564.054 488.627C568.019 462.015 549.786 437.398 523.173 433.432L428.11 419.269C401.497 415.303 376.88 433.536 372.915 460.149Z" fill="url(#paint6_linear_2606_6720)"/>
<path d="M536.857 452.957C529.831 460.918 530.584 472.982 538.544 480.008L551.373 491.331C559.333 498.357 571.397 497.605 578.423 489.644C585.449 481.684 584.697 469.62 576.737 462.594L563.908 451.271C555.947 444.245 543.883 444.997 536.857 452.957Z" fill="#F7CBA3"/>
<path d="M592.008 588.469C594.578 588.705 611.045 604.259 610.924 615.542L610.884 619.201C610.877 619.961 610.847 620.732 610.792 621.507C610.483 625.825 607.864 629.118 604.765 629.084L562.374 628.65C559.273 628.619 556.725 625.268 556.512 620.941C556.474 620.17 556.461 619.405 556.469 618.643L556.509 614.984C556.668 600.246 565.357 586.016 570.688 586.507L592.008 588.469Z" fill="#F4C092"/>
<path d="M609.389 607.449C620.463 607.563 629.507 613.984 629.424 621.674L629.406 623.582C629.402 623.978 629.375 624.381 629.321 624.784C629.176 625.87 628.449 626.875 627.284 627.601C626.119 628.327 624.601 628.721 623.03 628.704L578.473 628.248C576.901 628.232 575.391 627.807 574.241 627.056C573.092 626.305 572.387 625.284 572.268 624.195C572.223 623.793 572.206 623.394 572.209 622.996L572.228 621.088C572.311 613.401 581.485 607.163 592.56 607.277L609.389 607.449Z" fill="#F7CBA3"/>
<path d="M292.024 415.439C287.448 415.439 283.033 416.238 278.855 417.702C283.747 475.914 320.615 520.886 365.678 520.886C411.323 520.886 448.564 474.746 452.677 415.439C452.677 415.439 452.67 415.439 452.662 415.439H292.024Z" fill="url(#paint7_linear_2606_6720)"/>
<path d="M260.335 410.425H478.444C483.222 410.425 487.068 414.418 487.068 419.377V433.238C487.068 438.197 483.222 442.19 478.444 442.19H260.335C255.557 442.19 251.711 438.197 251.711 433.238V419.377C251.711 414.418 255.557 410.425 260.335 410.425Z" fill="#5B5B5B"/>
<path d="M364.681 371.184C366.989 371.184 368.847 373.042 368.847 375.35V380.654C368.847 382.962 366.989 384.821 364.681 384.821C362.372 384.821 360.514 382.962 360.514 380.654V375.35C360.514 373.042 362.372 371.184 364.681 371.184Z" fill="#F4C092"/>
<path d="M306.253 120.459H423.108C436.51 120.459 447.299 129.696 447.299 141.17C447.299 152.643 436.51 161.88 423.108 161.88H306.253C292.852 161.88 282.062 152.643 282.062 141.17C282.062 129.696 292.852 120.459 306.253 120.459Z" fill="#F7CBA3"/>
<path d="M307.105 125.725H422.257C432.252 125.725 440.298 132.613 440.298 141.17C440.298 149.726 432.252 156.615 422.257 156.615H307.105C297.111 156.615 289.064 149.726 289.064 141.17C289.064 132.613 297.111 125.725 307.105 125.725Z" fill="#DBAC83"/>
<path d="M356.408 45.4492H372.956C405.862 45.4492 432.353 71.9406 432.353 104.847V149.925C432.353 182.831 405.862 209.323 372.956 209.323H356.408C323.501 209.323 297.01 182.831 297.01 149.925V104.847C297.01 71.9406 323.501 45.4492 356.408 45.4492Z" fill="#F7CBA3"/>
<path d="M321.624 132.322H407.739C421.375 132.322 432.353 143.3 432.353 156.937V175.617C432.353 189.253 421.375 200.231 407.739 200.231H321.624C307.988 200.231 297.01 189.253 297.01 175.617V156.937C297.01 143.3 307.988 132.322 321.624 132.322Z" fill="#F7CBA3"/>
<path d="M171.909 186.652L179.302 193.905C183.116 197.646 183.174 203.728 179.433 207.541C175.692 211.355 169.61 211.413 165.797 207.672L158.403 200.419C154.59 196.678 154.531 190.596 158.273 186.783C162.014 182.969 168.095 182.911 171.909 186.652Z" fill="#F7D4B4"/>
<path d="M584.011 171.652L576.617 178.905C572.804 182.646 572.746 188.728 576.487 192.541C580.228 196.355 586.31 196.413 590.123 192.672L597.517 185.419C601.33 181.678 601.388 175.596 597.647 171.782C593.906 167.969 587.824 167.911 584.011 171.652Z" fill="#F7D4B4"/>
<path d="M362.68 134.693C367.638 134.693 371.631 138.093 371.631 142.316V155.768C371.631 159.991 367.638 163.391 362.68 163.391C357.721 163.391 353.729 159.991 353.729 155.768V142.316C353.729 138.093 357.721 134.693 362.68 134.693Z" fill="#E7B183"/>
<path d="M352.599 149.583H372.763C376.229 149.583 379.02 152.373 379.02 155.84C379.02 159.307 376.229 162.098 372.763 162.098H352.599C349.133 162.098 346.342 159.307 346.342 155.84C346.342 152.373 349.133 149.583 352.599 149.583Z" fill="#E7B183"/>
<path d="M331.372 123.511H343.252C346.243 123.511 348.651 125.919 348.651 128.91C348.651 131.902 346.243 134.31 343.252 134.31H331.372C328.381 134.31 325.973 131.902 325.973 128.91C325.973 125.919 328.381 123.511 331.372 123.511Z" fill="#E7B183"/>
<path d="M333.291 129.124C336.395 129.124 338.893 131.2 338.893 133.779V135.641C338.893 138.22 336.395 140.296 333.291 140.296C330.188 140.296 327.689 138.22 327.689 135.641V133.779C327.689 131.2 330.188 129.124 333.291 129.124Z" fill="#61534B"/>
<path d="M325.857 132.991L340.5 132.925C341.712 132.92 342.692 133.891 342.697 135.103C342.701 136.315 341.732 137.295 340.52 137.3L325.877 137.366C324.665 137.372 323.685 136.4 323.68 135.189C323.674 133.977 324.645 132.997 325.857 132.991Z" fill="#61534B"/>
<path d="M329.548 117.265L351.784 125.575C353.406 126.188 354.219 127.986 353.606 129.608C352.994 131.23 351.197 132.038 349.573 131.431L327.337 123.12C325.715 122.508 324.902 120.709 325.515 119.087C326.127 117.465 327.924 116.658 329.548 117.265Z" fill="#404040"/>
<path d="M330.242 118.189C331.131 119.324 330.933 120.954 329.798 121.843L325.198 125.446C324.063 126.335 322.434 126.137 321.544 125.002C320.655 123.867 320.853 122.237 321.988 121.348L326.588 117.745C327.723 116.856 329.353 117.054 330.242 118.189Z" fill="#404040"/>
<path d="M328.228 128.787H340.276C340.845 128.787 341.303 129.723 341.303 130.887C341.303 132.05 340.845 132.987 340.276 132.987H328.228C327.659 132.987 327.201 132.05 327.201 130.887C327.201 129.723 327.659 128.787 328.228 128.787Z" fill="#E7B183"/>
<path d="M328.181 139.233H338.896C339.786 139.233 340.503 139.95 340.503 140.841C340.503 141.731 339.786 142.448 338.896 142.448H328.181C327.291 142.448 326.574 141.731 326.574 140.841C326.574 139.95 327.291 139.233 328.181 139.233Z" fill="#F7CBA3"/>
<path d="M372.217 180.588L375.899 183.431C376.456 183.86 377.15 183.578 377.456 182.798L377.641 182.329C377.947 181.549 377.746 180.575 377.19 180.146L373.508 177.303C372.951 176.874 372.257 177.156 371.951 177.936L371.766 178.405C371.46 179.185 371.661 180.159 372.217 180.588Z" fill="#DBAC83"/>
<path d="M353.143 180.588L349.461 183.431C348.905 183.86 348.21 183.578 347.904 182.798L347.719 182.329C347.413 181.549 347.614 180.575 348.171 180.146L351.853 177.303C352.409 176.874 353.103 177.156 353.41 177.936L353.594 178.405C353.9 179.185 353.699 180.159 353.143 180.588Z" fill="#DBAC83"/>
<path d="M358.314 185.709H364.217C364.691 185.709 365.072 186.243 365.072 186.907V187.613C365.072 188.277 364.691 188.812 364.217 188.812H358.314C357.84 188.812 357.459 188.277 357.459 187.613V186.907C357.459 186.243 357.84 185.709 358.314 185.709Z" fill="#DBAC83"/>
<path d="M352.064 177.187H372.487C373.122 177.187 373.633 177.903 373.633 178.794V179.367C373.633 180.258 373.122 180.975 372.487 180.975H352.064C351.429 180.975 350.918 180.258 350.918 179.367V178.794C350.918 177.903 351.429 177.187 352.064 177.187Z" fill="#DBAC83"/>
<path d="M404.824 146.376H404.467C399.125 146.376 394.824 150.677 394.824 156.019V161.019C394.824 166.361 399.125 170.662 404.467 170.662H404.824C410.166 170.662 414.467 166.361 414.467 161.019V156.019C414.467 150.677 410.166 146.376 404.824 146.376Z" fill="#F7D4B4"/>
<path d="M320.896 146.376H320.539C315.197 146.376 310.896 150.677 310.896 156.019V161.019C310.896 166.361 315.197 170.662 320.539 170.662H320.896C326.238 170.662 330.539 166.361 330.539 161.019V156.019C330.539 150.677 326.238 146.376 320.896 146.376Z" fill="#F7D4B4"/>
<path d="M393.989 123.511H382.11C379.118 123.511 376.71 125.919 376.71 128.91C376.71 131.902 379.118 134.31 382.11 134.31H393.989C396.98 134.31 399.389 131.902 399.389 128.91C399.389 125.919 396.98 123.511 393.989 123.511Z" fill="#E7B183"/>
<path d="M392.07 129.124C388.967 129.124 386.468 131.2 386.468 133.779V135.641C386.468 138.22 388.967 140.296 392.07 140.296C395.173 140.296 397.672 138.22 397.672 135.641V133.779C397.672 131.2 395.173 129.124 392.07 129.124Z" fill="#61534B"/>
<path d="M399.504 132.991L384.861 132.925C383.649 132.92 382.669 133.891 382.664 135.103C382.66 136.315 383.63 137.295 384.842 137.3L399.484 137.366C400.696 137.372 401.676 136.4 401.682 135.189C401.687 133.977 400.716 132.997 399.504 132.991Z" fill="#61534B"/>
<path d="M395.814 117.265L373.577 125.575C371.955 126.188 371.143 127.986 371.755 129.608C372.368 131.23 374.164 132.038 375.788 131.431L398.025 123.12C399.647 122.508 400.459 120.709 399.847 119.087C399.234 117.465 397.438 116.658 395.814 117.265Z" fill="#404040"/>
<path d="M395.12 118.189C394.23 119.324 394.428 120.954 395.564 121.843L400.163 125.446C401.298 126.335 402.928 126.137 403.817 125.002C404.706 123.867 404.508 122.237 403.373 121.348L398.773 117.745C397.638 116.856 396.009 117.054 395.12 118.189Z" fill="#404040"/>
<path d="M397.133 128.787H385.085C384.516 128.787 384.058 129.723 384.058 130.887C384.058 132.05 384.516 132.987 385.085 132.987H397.133C397.702 132.987 398.16 132.05 398.16 130.887C398.16 129.723 397.702 128.787 397.133 128.787Z" fill="#E7B183"/>
<path d="M397.18 139.233H386.466C385.575 139.233 384.859 139.95 384.859 140.841C384.859 141.731 385.575 142.448 386.466 142.448H397.18C398.07 142.448 398.787 141.731 398.787 140.841C398.787 139.95 398.07 139.233 397.18 139.233Z" fill="#F7CBA3"/>
<path d="M354.697 0.616211H374.079C382.859 0.616211 389.927 7.68418 389.927 16.4637V20.3306C389.927 29.1101 382.859 36.1781 374.079 36.1781H354.697C345.918 36.1781 338.85 29.1101 338.85 20.3306V16.4637C338.85 7.68418 345.918 0.616211 354.697 0.616211Z" fill="#444444"/>
<path d="M355.636 22.3608H373.142C379.275 22.3608 384.213 27.2987 384.213 33.4323V43.3618C384.213 49.4953 379.275 54.4332 373.142 54.4332H355.636C349.502 54.4332 344.564 49.4953 344.564 43.3618V33.4323C344.564 27.2987 349.502 22.3608 355.636 22.3608Z" fill="#333333"/>
<path d="M385.941 33.1616C418.722 33.1616 445.113 61.0367 445.113 95.6616C445.113 111.434 439.634 125.804 430.572 136.779V123.996C430.572 108.669 426.558 94.448 419.658 82.5913V75.73C419.658 71.9525 416.617 68.9116 412.84 68.9116H410.406C410.099 68.9116 409.8 68.9392 409.504 68.978C409.474 68.9448 409.442 68.9098 409.41 68.8765H319.191C319.161 68.9097 319.129 68.9446 319.098 68.978C318.802 68.9391 318.502 68.9116 318.195 68.9116H315.762C311.984 68.9116 308.943 71.9525 308.943 75.73V82.5913C302.044 94.448 298.029 108.669 298.029 123.996V136.779C288.968 125.804 283.488 111.434 283.488 95.6616C283.488 61.0367 309.879 33.1616 342.66 33.1616H385.941Z" fill="#444444"/>
<path d="M298.893 97.6167C295.115 97.6167 292.074 100.658 292.074 104.435C292.074 106.358 292.863 108.09 294.135 109.328C293.784 110.151 293.59 111.057 293.59 112.011V123.628C293.59 126.608 295.483 129.128 298.137 130.06V117.82C298.137 114.684 300.232 112.056 303.105 111.253H304.955C308.753 111.394 311.696 107.928 311.773 104.435C311.773 100.658 308.733 97.6167 304.955 97.6167H298.893Z" fill="#444444"/>
<path d="M429.885 97.6167C433.662 97.6167 436.703 100.658 436.703 104.435C436.703 106.358 435.914 108.09 434.643 109.328C434.994 110.151 435.188 111.057 435.188 112.011V123.628C435.188 126.608 433.294 129.128 430.641 130.06V117.82C430.641 114.684 428.545 112.056 425.672 111.253H423.822C420.025 111.394 417.081 107.928 417.004 104.435C417.004 100.658 420.045 97.6167 423.822 97.6167H429.885Z" fill="#444444"/>
<path d="M364.388 46.376C370.521 46.376 375.459 51.3138 375.459 57.4474V64.5903C375.459 70.7238 370.521 75.6617 364.388 75.6617C358.254 75.6617 353.316 70.7238 353.316 64.5903V57.4474C353.316 51.3138 358.254 46.376 364.388 46.376Z" fill="#444444"/>
<path d="M283.488 93.8291H297.63V131.457H283.488V93.8291Z" fill="#444444"/>
<path d="M445.201 93.8291H431.059V131.457H445.201V93.8291Z" fill="#444444"/>
<path d="M285.459 152.142V175.369C285.459 178.361 287.839 180.776 290.816 180.837L290.932 180.839H291.773H297.246V175.369V158.132C294.946 158.019 292.699 157.425 290.662 156.39C288.626 155.355 286.85 153.905 285.459 152.142Z" fill="#404040"/>
<path d="M443.143 152.142V175.369C443.143 178.361 440.763 180.776 437.785 180.837L437.67 180.839H436.828H431.355V175.369V158.132C433.656 158.019 435.903 157.425 437.939 156.39C439.975 155.355 441.751 153.905 443.143 152.142Z" fill="#404040"/>
<path d="M363.462 41.3013H365.898C368.371 41.3013 370.362 43.2923 370.362 45.7656V59.3129C370.362 61.7861 368.371 63.7772 365.898 63.7772H363.462C360.989 63.7772 358.998 61.7861 358.998 59.3129V45.7656C358.998 43.2923 360.989 41.3013 363.462 41.3013Z" fill="#524C4C"/>
<path d="M345.17 48.8774C346.814 48.8774 348.138 50.2009 348.138 51.8448V56.643C348.138 58.2869 346.814 59.6103 345.17 59.6103C343.527 59.6103 342.203 58.2869 342.203 56.643V51.8448C342.203 50.2009 343.527 48.8774 345.17 48.8774Z" fill="#524C4C"/>
<path d="M329.135 49.3828H330.777C332.421 49.3828 333.744 50.7062 333.744 52.3501V56.517C333.744 58.1609 332.421 59.4843 330.777 59.4843H329.135C327.491 59.4843 326.168 58.1609 326.168 56.517V52.3501C326.168 50.7062 327.491 49.3828 329.135 49.3828Z" fill="#524C4C"/>
<path d="M294.852 74.1313H299.65C301.049 74.1313 302.175 75.2577 302.175 76.6567C302.175 78.0558 301.049 79.1821 299.65 79.1821H294.852C293.452 79.1821 292.326 78.0558 292.326 76.6567C292.326 75.2577 293.452 74.1313 294.852 74.1313Z" fill="#524C4C"/>
<path d="M292.958 86.5059H296.493C297.822 86.5059 298.892 87.5759 298.892 88.905C298.892 90.2341 297.822 91.3041 296.493 91.3041H292.958C291.629 91.3041 290.559 90.2341 290.559 88.905C290.559 87.5759 291.629 86.5059 292.958 86.5059Z" fill="#524C4C"/>
<path d="M358.216 5.30469H360.917C362.246 5.30469 363.316 6.37469 363.316 7.7038V12.5484C363.316 13.8775 362.246 14.9475 360.917 14.9475H358.216C356.886 14.9475 355.816 13.8775 355.816 12.5484V7.7038C355.816 6.37469 356.886 5.30469 358.216 5.30469Z" fill="#524C4C"/>
<path d="M369.643 3.87598H373.059C374.388 3.87598 375.458 4.94598 375.458 6.27509V14.6912C375.458 16.0203 374.388 17.0903 373.059 17.0903H369.643C368.314 17.0903 367.244 16.0203 367.244 14.6912V6.27509C367.244 4.94598 368.314 3.87598 369.643 3.87598Z" fill="#524C4C"/>
<path d="M383.431 48.8774C381.787 48.8774 380.464 50.2009 380.464 51.8448V56.643C380.464 58.2869 381.787 59.6103 383.431 59.6103C385.075 59.6103 386.398 58.2869 386.398 56.643V51.8448C386.398 50.2009 385.075 48.8774 383.431 48.8774Z" fill="#524C4C"/>
<path d="M399.466 49.3828H397.825C396.181 49.3828 394.857 50.7062 394.857 52.3501V56.517C394.857 58.1609 396.181 59.4843 397.825 59.4843H399.466C401.11 59.4843 402.434 58.1609 402.434 56.517V52.3501C402.434 50.7062 401.11 49.3828 399.466 49.3828Z" fill="#524C4C"/>
<path d="M433.748 74.1313H428.95C427.551 74.1313 426.424 75.2577 426.424 76.6567C426.424 78.0558 427.551 79.1821 428.95 79.1821H433.748C435.147 79.1821 436.273 78.0558 436.273 76.6567C436.273 75.2577 435.147 74.1313 433.748 74.1313Z" fill="#524C4C"/>
<path d="M435.644 86.5059H432.108C430.779 86.5059 429.709 87.5759 429.709 88.905C429.709 90.2341 430.779 91.3041 432.108 91.3041H435.644C436.973 91.3041 438.043 90.2341 438.043 88.905C438.043 87.5759 436.973 86.5059 435.644 86.5059Z" fill="#524C4C"/>
<path d="M281.135 420.305H448.228C456.896 420.305 463.874 427.283 463.874 435.951V614.658C463.874 623.326 456.896 630.305 448.228 630.305H281.135C272.467 630.305 265.488 623.326 265.488 614.658V435.951C265.488 427.283 272.467 420.305 281.135 420.305Z" fill="#3C2648" fill-opacity="0.996078"/>
<path d="M299.703 420.305H429.66C436.794 420.305 442.539 426.049 442.539 433.184V580.283C442.539 587.418 436.794 593.162 429.66 593.162H299.703C292.568 593.162 286.824 587.418 286.824 580.283V433.184C286.824 426.049 292.568 420.305 299.703 420.305Z" fill="url(#paint8_linear_2606_6720)"/>
<path d="M327.153 441.969H402.21C407.023 441.969 410.898 445.844 410.898 450.657V549.892C410.898 554.705 407.023 558.58 402.21 558.58H327.153C322.34 558.58 318.465 554.705 318.465 549.892V450.657C318.465 445.844 322.34 441.969 327.153 441.969Z" fill="#9C4E4E" fill-opacity="0.996078"/>
<path d="M239.42 326.822C222.771 326.822 209.367 343.029 209.367 363.16V377.205C209.367 397.335 222.771 413.542 239.42 413.542H248.258V382.937C242.368 381.933 237.939 377.293 237.939 371.683V367.253C237.939 361.644 242.369 357.003 248.258 356V326.822H239.42Z" fill="url(#paint9_linear_2606_6720)"/>
<path d="M499.027 326.822C515.676 326.822 529.08 343.029 529.08 363.16V377.205C529.08 397.335 515.676 413.542 499.027 413.542H490.189V382.937C496.079 381.933 500.508 377.293 500.508 371.683V367.253C500.508 361.644 496.079 357.003 490.189 356V326.822H499.027Z" fill="url(#paint10_linear_2606_6720)"/>
<path d="M237.46 395.3H491.901C499.921 395.3 506.377 401.756 506.377 409.776V421.637C506.377 429.656 499.921 436.113 491.901 436.113H237.46C229.44 436.113 222.984 429.656 222.984 421.637V409.776C222.984 401.756 229.44 395.3 237.46 395.3Z" fill="#D5CABF" fill-opacity="0.996078"/>
<path d="M282.621 400.702C290.81 397.443 300.027 401.413 303.285 409.603L315.796 441.045C319.055 449.235 315.085 458.451 306.896 461.71C298.706 464.968 289.49 460.999 286.231 452.809L273.72 421.367C270.461 413.177 274.431 403.961 282.621 400.702Z" fill="url(#paint11_linear_2606_6720)"/>
<path d="M252.173 401.859C259.397 399.12 267.418 402.731 270.156 409.955L280.672 437.69C283.411 444.915 279.8 452.935 272.576 455.674C265.352 458.413 257.331 454.802 254.592 447.578L244.077 419.843C241.338 412.618 244.949 404.598 252.173 401.859Z" fill="url(#paint12_linear_2606_6720)"/>
<path d="M230.175 401.599C235.527 399.974 241.144 402.974 242.77 408.327L249.01 428.876C250.635 434.228 247.635 439.845 242.283 441.471C236.93 443.096 231.313 440.096 229.688 434.743L223.447 414.194C221.822 408.842 224.823 403.225 230.175 401.599Z" fill="#DFD4C8"/>
<path d="M314.096 392.837C324.684 388.624 336.6 393.756 340.813 404.344L356.988 444.995C361.201 455.583 356.069 467.499 345.481 471.712C334.893 475.925 322.977 470.792 318.764 460.204L302.589 419.553C298.376 408.965 303.508 397.05 314.096 392.837Z" fill="url(#paint13_linear_2606_6720)"/>
<path d="M355.204 391.179C367.268 386.379 380.845 392.227 385.645 404.291L404.075 450.609C408.875 462.673 403.027 476.249 390.963 481.05C378.899 485.85 365.323 480.002 360.522 467.938L342.093 421.621C337.292 409.556 343.14 395.98 355.204 391.179Z" fill="white"/>
<path d="M436.861 395.543C445.05 392.285 454.267 396.254 457.525 404.444L470.036 435.886C473.295 444.076 469.325 453.292 461.136 456.551C452.946 459.81 443.73 455.84 440.471 447.65L427.96 416.208C424.701 408.018 428.671 398.802 436.861 395.543Z" fill="url(#paint14_linear_2606_6720)"/>
<path d="M401.251 393.368C411.839 389.155 423.754 394.288 427.967 404.876L444.142 445.527C448.355 456.115 443.223 468.03 432.635 472.243C422.047 476.456 410.131 471.324 405.918 460.736L389.743 420.085C385.53 409.497 390.663 397.581 401.251 393.368Z" fill="url(#paint15_linear_2606_6720)"/>
<path d="M492.372 393.945C497.287 392.452 502.446 395.208 503.938 400.123L509.669 418.993C511.161 423.908 508.406 429.067 503.491 430.559C498.576 432.052 493.417 429.297 491.925 424.382L486.194 405.511C484.702 400.596 487.457 395.438 492.372 393.945Z" fill="#DFD4C8"/>
<path d="M468.546 395.346C475.77 392.607 483.791 396.218 486.529 403.442L497.045 431.178C499.784 438.402 496.173 446.423 488.949 449.162C481.725 451.9 473.704 448.29 470.965 441.066L460.45 413.33C457.711 406.106 461.322 398.085 468.546 395.346Z" fill="url(#paint16_linear_2606_6720)"/>
<path d="M281.279 455.714L311.414 438.824L319.859 453.891L289.724 470.781L281.279 455.714Z" fill="#FBEFE2"/>
<path d="M279.49 475.271L309.625 458.381L318.07 473.449L287.935 490.339L279.49 475.271Z" fill="#FBEFE2"/>
<path d="M274.348 496.988L309.891 477.067L319.852 494.838L284.309 514.76L274.348 496.988Z" fill="#FBEFE2"/>
<path d="M271.15 521.627L310.75 499.432L321.848 519.232L282.248 541.427L271.15 521.627Z" fill="#FBEFE2"/>
<path d="M267.033 547.797L313.587 521.704L326.633 544.981L280.08 571.074L267.033 547.797Z" fill="#FBEFE2"/>
<path d="M330.934 477.145L364.318 458.433L373.674 475.125L340.29 493.837L330.934 477.145Z" fill="white"/>
<path d="M328.951 498.812L362.336 480.1L371.692 496.792L338.307 515.504L328.951 498.812Z" fill="white"/>
<path d="M323.254 522.871L362.631 500.801L373.666 520.489L334.289 542.56L323.254 522.871Z" fill="white"/>
<path d="M319.711 550.168L363.582 525.579L375.877 547.515L332.006 572.104L319.711 550.168Z" fill="white"/>
<path d="M315.15 579.161L366.725 550.253L381.179 576.041L329.604 604.948L315.15 579.161Z" fill="white"/>
<path d="M242.049 447.683L265.502 434.538L272.075 446.264L248.621 459.41L242.049 447.683Z" fill="#EDE1D5"/>
<path d="M240.656 462.904L264.109 449.759L270.682 461.486L247.229 474.631L240.656 462.904Z" fill="#EDE1D5"/>
<path d="M236.654 479.807L264.317 464.302L272.069 478.133L244.407 493.638L236.654 479.807Z" fill="#EDE1D5"/>
<path d="M234.166 498.983L264.986 481.709L273.623 497.118L242.803 514.393L234.166 498.983Z" fill="#EDE1D5"/>
<path d="M230.961 519.351L267.193 499.043L277.347 517.159L241.115 537.467L230.961 519.351Z" fill="#EDE1D5"/>
<path d="M399.852 464.285L429.986 447.395L438.431 462.462L408.297 479.352L399.852 464.285Z" fill="#FBEFE2"/>
<path d="M398.061 483.843L428.195 466.953L436.64 482.02L406.506 498.91L398.061 483.843Z" fill="#FBEFE2"/>
<path d="M392.92 505.56L428.463 485.638L438.424 503.409L402.881 523.331L392.92 505.56Z" fill="#FBEFE2"/>
<path d="M389.721 530.199L429.32 508.003L440.418 527.803L400.818 549.999L389.721 530.199Z" fill="#FBEFE2"/>
<path d="M385.604 556.369L432.157 530.276L445.204 553.552L398.65 579.646L385.604 556.369Z" fill="#FBEFE2"/>
<path d="M451.336 444.112L474.789 430.966L481.362 442.693L457.909 455.838L451.336 444.112Z" fill="#EDE1D5"/>
<path d="M449.941 459.333L473.395 446.188L479.967 457.914L456.514 471.06L449.941 459.333Z" fill="#EDE1D5"/>
<path d="M445.941 476.235L473.604 460.73L481.356 474.561L453.694 490.066L445.941 476.235Z" fill="#EDE1D5"/>
<path d="M443.451 495.412L474.271 478.137L482.908 493.547L452.088 510.822L443.451 495.412Z" fill="#EDE1D5"/>
<path d="M440.248 515.779L476.48 495.471L486.634 513.587L450.402 533.895L440.248 515.779Z" fill="#EDE1D5"/>
<path d="M250.625 618.876H478.736C479.208 618.876 479.588 619.256 479.588 619.727V629.453C479.588 629.925 479.208 630.305 478.736 630.305H250.625C250.153 630.305 249.773 629.925 249.773 629.453V619.727C249.773 619.256 250.153 618.876 250.625 618.876Z" fill="#492E57" fill-opacity="0.996078"/>
<path d="M266.127 600.305H463.235C463.589 600.305 463.874 600.59 463.874 600.943V608.238C463.874 608.591 463.589 608.876 463.235 608.876H266.127C265.773 608.876 265.488 608.591 265.488 608.238V600.943C265.488 600.59 265.773 600.305 266.127 600.305Z" fill="#482E56"/>
<path d="M253.943 624.159H259.246C260.086 624.159 260.761 624.835 260.761 625.674V635.271C260.761 636.11 260.086 636.786 259.246 636.786H253.943C253.104 636.786 252.428 636.11 252.428 635.271V625.674C252.428 624.835 253.104 624.159 253.943 624.159Z" fill="#5C3B6E"/>
<path d="M265.32 624.159H270.623C271.463 624.159 272.138 624.835 272.138 625.674V635.271C272.138 636.11 271.463 636.786 270.623 636.786H265.32C264.48 636.786 263.805 636.11 263.805 635.271V625.674C263.805 624.835 264.48 624.159 265.32 624.159Z" fill="#5C3B6E"/>
<path d="M276.699 624.159H282.002C282.842 624.159 283.517 624.835 283.517 625.674V635.271C283.517 636.11 282.842 636.786 282.002 636.786H276.699C275.859 636.786 275.184 636.11 275.184 635.271V625.674C275.184 624.835 275.859 624.159 276.699 624.159Z" fill="#5C3B6E"/>
<path d="M288.076 624.159H293.379C294.219 624.159 294.894 624.835 294.894 625.674V635.271C294.894 636.11 294.219 636.786 293.379 636.786H288.076C287.236 636.786 286.561 636.11 286.561 635.271V625.674C286.561 624.835 287.236 624.159 288.076 624.159Z" fill="#5C3B6E"/>
<path d="M299.453 624.159H304.756C305.595 624.159 306.271 624.835 306.271 625.674V635.271C306.271 636.11 305.595 636.786 304.756 636.786H299.453C298.613 636.786 297.938 636.11 297.938 635.271V625.674C297.938 624.835 298.613 624.159 299.453 624.159Z" fill="#5C3B6E"/>
<path d="M310.83 624.159H316.133C316.972 624.159 317.648 624.835 317.648 625.674V635.271C317.648 636.11 316.972 636.786 316.133 636.786H310.83C309.99 636.786 309.314 636.11 309.314 635.271V625.674C309.314 624.835 309.99 624.159 310.83 624.159Z" fill="#5C3B6E"/>
<path d="M322.209 624.159H327.512C328.351 624.159 329.027 624.835 329.027 625.674V635.271C329.027 636.11 328.351 636.786 327.512 636.786H322.209C321.369 636.786 320.693 636.11 320.693 635.271V625.674C320.693 624.835 321.369 624.159 322.209 624.159Z" fill="#5C3B6E"/>
<path d="M333.586 624.159H338.889C339.728 624.159 340.404 624.835 340.404 625.674V635.271C340.404 636.11 339.728 636.786 338.889 636.786H333.586C332.746 636.786 332.07 636.11 332.07 635.271V625.674C332.07 624.835 332.746 624.159 333.586 624.159Z" fill="#5C3B6E"/>
<path d="M344.963 624.159H350.266C351.105 624.159 351.781 624.835 351.781 625.674V635.271C351.781 636.11 351.105 636.786 350.266 636.786H344.963C344.123 636.786 343.447 636.11 343.447 635.271V625.674C343.447 624.835 344.123 624.159 344.963 624.159Z" fill="#5C3B6E"/>
<path d="M356.341 624.159H361.645C362.484 624.159 363.16 624.835 363.16 625.674V635.271C363.16 636.11 362.484 636.786 361.645 636.786H356.341C355.502 636.786 354.826 636.11 354.826 635.271V625.674C354.826 624.835 355.502 624.159 356.341 624.159Z" fill="#5C3B6E"/>
<path d="M367.718 624.159H373.022C373.861 624.159 374.537 624.835 374.537 625.674V635.271C374.537 636.11 373.861 636.786 373.022 636.786H367.718C366.879 636.786 366.203 636.11 366.203 635.271V625.674C366.203 624.835 366.879 624.159 367.718 624.159Z" fill="#5C3B6E"/>
<path d="M379.095 624.159H384.399C385.238 624.159 385.914 624.835 385.914 625.674V635.271C385.914 636.11 385.238 636.786 384.399 636.786H379.095C378.256 636.786 377.58 636.11 377.58 635.271V625.674C377.58 624.835 378.256 624.159 379.095 624.159Z" fill="#5C3B6E"/>
<path d="M390.472 624.159H395.776C396.615 624.159 397.291 624.835 397.291 625.674V635.271C397.291 636.11 396.615 636.786 395.776 636.786H390.472C389.633 636.786 388.957 636.11 388.957 635.271V625.674C388.957 624.835 389.633 624.159 390.472 624.159Z" fill="#5C3B6E"/>
<path d="M401.851 624.159H407.154C407.994 624.159 408.67 624.835 408.67 625.674V635.271C408.67 636.11 407.994 636.786 407.154 636.786H401.851C401.012 636.786 400.336 636.11 400.336 635.271V625.674C400.336 624.835 401.012 624.159 401.851 624.159Z" fill="#5C3B6E"/>
<path d="M413.228 624.159H418.531C419.371 624.159 420.047 624.835 420.047 625.674V635.271C420.047 636.11 419.371 636.786 418.531 636.786H413.228C412.389 636.786 411.713 636.11 411.713 635.271V625.674C411.713 624.835 412.389 624.159 413.228 624.159Z" fill="#5C3B6E"/>
<path d="M435.984 624.159H441.287C442.127 624.159 442.802 624.835 442.802 625.674V635.271C442.802 636.11 442.127 636.786 441.287 636.786H435.984C435.145 636.786 434.469 636.11 434.469 635.271V625.674C434.469 624.835 435.145 624.159 435.984 624.159Z" fill="#5C3B6E"/>
<path d="M424.605 624.159H429.908C430.748 624.159 431.424 624.835 431.424 625.674V635.271C431.424 636.11 430.748 636.786 429.908 636.786H424.605C423.766 636.786 423.09 636.11 423.09 635.271V625.674C423.09 624.835 423.766 624.159 424.605 624.159Z" fill="#5C3B6E"/>
<path d="M447.361 624.159H452.664C453.504 624.159 454.179 624.835 454.179 625.674V635.271C454.179 636.11 453.504 636.786 452.664 636.786H447.361C446.522 636.786 445.846 636.11 445.846 635.271V625.674C445.846 624.835 446.522 624.159 447.361 624.159Z" fill="#5C3B6E"/>
<path d="M458.738 624.159H464.041C464.881 624.159 465.556 624.835 465.556 625.674V635.271C465.556 636.11 464.881 636.786 464.041 636.786H458.738C457.898 636.786 457.223 636.11 457.223 635.271V625.674C457.223 624.835 457.898 624.159 458.738 624.159Z" fill="#5C3B6E"/>
<path d="M470.115 624.159H475.418C476.258 624.159 476.933 624.835 476.933 625.674V635.271C476.933 636.11 476.258 636.786 475.418 636.786H470.115C469.275 636.786 468.6 636.11 468.6 635.271V625.674C468.6 624.835 469.275 624.159 470.115 624.159Z" fill="#5C3B6E"/>
<path d="M253.125 630.978H260.065C260.451 630.978 260.761 631.288 260.761 631.675V636.089C260.761 636.475 260.451 636.786 260.065 636.786H253.125C252.739 636.786 252.428 636.475 252.428 636.089V631.675C252.428 631.288 252.739 630.978 253.125 630.978Z" fill="#482E56"/>
<path d="M264.502 630.978H271.441C271.828 630.978 272.138 631.288 272.138 631.675V636.089C272.138 636.475 271.828 636.786 271.441 636.786H264.502C264.116 636.786 263.805 636.475 263.805 636.089V631.675C263.805 631.288 264.116 630.978 264.502 630.978Z" fill="#482E56"/>
<path d="M275.881 630.978H282.82C283.206 630.978 283.517 631.288 283.517 631.675V636.089C283.517 636.475 283.206 636.786 282.82 636.786H275.881C275.494 636.786 275.184 636.475 275.184 636.089V631.675C275.184 631.288 275.494 630.978 275.881 630.978Z" fill="#482E56"/>
<path d="M287.258 630.978H294.197C294.583 630.978 294.894 631.288 294.894 631.675V636.089C294.894 636.475 294.583 636.786 294.197 636.786H287.258C286.871 636.786 286.561 636.475 286.561 636.089V631.675C286.561 631.288 286.871 630.978 287.258 630.978Z" fill="#482E56"/>
<path d="M298.635 630.978H305.574C305.96 630.978 306.271 631.288 306.271 631.675V636.089C306.271 636.475 305.96 636.786 305.574 636.786H298.635C298.248 636.786 297.938 636.475 297.938 636.089V631.675C297.938 631.288 298.248 630.978 298.635 630.978Z" fill="#482E56"/>
<path d="M310.011 630.978H316.951C317.337 630.978 317.648 631.288 317.648 631.675V636.089C317.648 636.475 317.337 636.786 316.951 636.786H310.011C309.625 636.786 309.314 636.475 309.314 636.089V631.675C309.314 631.288 309.625 630.978 310.011 630.978Z" fill="#482E56"/>
<path d="M321.39 630.978H328.33C328.716 630.978 329.027 631.288 329.027 631.675V636.089C329.027 636.475 328.716 636.786 328.33 636.786H321.39C321.004 636.786 320.693 636.475 320.693 636.089V631.675C320.693 631.288 321.004 630.978 321.39 630.978Z" fill="#482E56"/>
<path d="M332.767 630.978H339.707C340.093 630.978 340.404 631.288 340.404 631.675V636.089C340.404 636.475 340.093 636.786 339.707 636.786H332.767C332.381 636.786 332.07 636.475 332.07 636.089V631.675C332.07 631.288 332.381 630.978 332.767 630.978Z" fill="#482E56"/>
<path d="M344.144 630.978H351.084C351.47 630.978 351.781 631.288 351.781 631.675V636.089C351.781 636.475 351.47 636.786 351.084 636.786H344.144C343.758 636.786 343.447 636.475 343.447 636.089V631.675C343.447 631.288 343.758 630.978 344.144 630.978Z" fill="#482E56"/>
<path d="M355.523 630.978H362.463C362.849 630.978 363.16 631.288 363.16 631.675V636.089C363.16 636.475 362.849 636.786 362.463 636.786H355.523C355.137 636.786 354.826 636.475 354.826 636.089V631.675C354.826 631.288 355.137 630.978 355.523 630.978Z" fill="#482E56"/>
<path d="M366.9 630.978H373.84C374.226 630.978 374.537 631.288 374.537 631.675V636.089C374.537 636.475 374.226 636.786 373.84 636.786H366.9C366.514 636.786 366.203 636.475 366.203 636.089V631.675C366.203 631.288 366.514 630.978 366.9 630.978Z" fill="#482E56"/>
<path d="M378.277 630.978H385.217C385.603 630.978 385.914 631.288 385.914 631.675V636.089C385.914 636.475 385.603 636.786 385.217 636.786H378.277C377.891 636.786 377.58 636.475 377.58 636.089V631.675C377.58 631.288 377.891 630.978 378.277 630.978Z" fill="#482E56"/>
<path d="M389.654 630.978H396.594C396.98 630.978 397.291 631.288 397.291 631.675V636.089C397.291 636.475 396.98 636.786 396.594 636.786H389.654C389.268 636.786 388.957 636.475 388.957 636.089V631.675C388.957 631.288 389.268 630.978 389.654 630.978Z" fill="#482E56"/>
<path d="M401.033 630.978H407.973C408.359 630.978 408.67 631.288 408.67 631.675V636.089C408.67 636.475 408.359 636.786 407.973 636.786H401.033C400.647 636.786 400.336 636.475 400.336 636.089V631.675C400.336 631.288 400.647 630.978 401.033 630.978Z" fill="#482E56"/>
<path d="M412.41 630.978H419.35C419.736 630.978 420.047 631.288 420.047 631.675V636.089C420.047 636.475 419.736 636.786 419.35 636.786H412.41C412.024 636.786 411.713 636.475 411.713 636.089V631.675C411.713 631.288 412.024 630.978 412.41 630.978Z" fill="#482E56"/>
<path d="M435.166 630.978H442.105C442.492 630.978 442.802 631.288 442.802 631.675V636.089C442.802 636.475 442.491 636.786 442.105 636.786H435.166C434.78 636.786 434.469 636.475 434.469 636.089V631.675C434.469 631.288 434.78 630.978 435.166 630.978Z" fill="#482E56"/>
<path d="M423.787 630.978H430.727C431.113 630.978 431.424 631.288 431.424 631.675V636.089C431.424 636.475 431.113 636.786 430.727 636.786H423.787C423.401 636.786 423.09 636.475 423.09 636.089V631.675C423.09 631.288 423.401 630.978 423.787 630.978Z" fill="#482E56"/>
<path d="M446.543 630.978H453.482C453.869 630.978 454.179 631.288 454.179 631.675V636.089C454.179 636.475 453.868 636.786 453.482 636.786H446.543C446.157 636.786 445.846 636.475 445.846 636.089V631.675C445.846 631.288 446.156 630.978 446.543 630.978Z" fill="#482E56"/>
<path d="M457.92 630.978H464.859C465.246 630.978 465.556 631.288 465.556 631.675V636.089C465.556 636.475 465.245 636.786 464.859 636.786H457.92C457.534 636.786 457.223 636.475 457.223 636.089V631.675C457.223 631.288 457.533 630.978 457.92 630.978Z" fill="#482E56"/>
<path d="M469.297 630.978H476.236C476.623 630.978 476.933 631.288 476.933 631.675V636.089C476.933 636.475 476.622 636.786 476.236 636.786H469.297C468.911 636.786 468.6 636.475 468.6 636.089V631.675C468.6 631.288 468.91 630.978 469.297 630.978Z" fill="#482E56"/>
<defs>
<linearGradient id="paint0_linear_2606_6720" x1="340.103" y1="309.662" x2="340.103" y2="273.948" gradientUnits="userSpaceOnUse">
<stop stop-color="#D79B70"/>
<stop offset="1" stop-color="#C68858"/>
</linearGradient>
<linearGradient id="paint1_linear_2606_6720" x1="278.674" y1="350.734" x2="276.531" y2="417.876" gradientUnits="userSpaceOnUse">
<stop stop-color="#F7CBA3"/>
<stop offset="1" stop-color="#F4C092"/>
</linearGradient>
<linearGradient id="paint2_linear_2606_6720" x1="358.745" y1="337.131" x2="362.786" y2="453.299" gradientUnits="userSpaceOnUse">
<stop stop-color="#F7D4B4"/>
<stop offset="1" stop-color="#F7CBA3"/>
</linearGradient>
<linearGradient id="paint3_linear_2606_6720" x1="162.168" y1="573.002" x2="182.876" y2="485.118" gradientUnits="userSpaceOnUse">
<stop stop-color="#F4C092"/>
<stop offset="1" stop-color="#F7CBA3"/>
</linearGradient>
<linearGradient id="paint4_linear_2606_6720" x1="230.815" y1="479.305" x2="275.562" y2="481.029" gradientUnits="userSpaceOnUse">
<stop stop-color="#F7CBA3"/>
<stop offset="1" stop-color="#DBAC83"/>
</linearGradient>
<linearGradient id="paint5_linear_2606_6720" x1="569.713" y1="573.002" x2="549.005" y2="485.118" gradientUnits="userSpaceOnUse">
<stop stop-color="#F4C092"/>
<stop offset="1" stop-color="#F7CBA3"/>
</linearGradient>
<linearGradient id="paint6_linear_2606_6720" x1="510.267" y1="481.583" x2="427.435" y2="483.603" gradientUnits="userSpaceOnUse">
<stop stop-color="#F7CBA3"/>
<stop offset="1" stop-color="#DBAC83"/>
</linearGradient>
<linearGradient id="paint7_linear_2606_6720" x1="381.752" y1="449.438" x2="382.987" y2="512.52" gradientUnits="userSpaceOnUse">
<stop stop-color="#404040"/>
<stop offset="1" stop-color="#4F4F4F"/>
</linearGradient>
<linearGradient id="paint8_linear_2606_6720" x1="294.939" y1="542.808" x2="291.991" y2="605.697" gradientUnits="userSpaceOnUse">
<stop stop-color="#D5CABF"/>
<stop offset="1" stop-color="#EDE1D5"/>
</linearGradient>
<linearGradient id="paint9_linear_2606_6720" x1="227.96" y1="390.304" x2="229.388" y2="343.876" gradientUnits="userSpaceOnUse">
<stop stop-color="#D4C9BE"/>
<stop offset="1" stop-color="#FBEFE2"/>
</linearGradient>
<linearGradient id="paint10_linear_2606_6720" x1="514.388" y1="390.304" x2="515.102" y2="341.019" gradientUnits="userSpaceOnUse">
<stop stop-color="#D4C9BE"/>
<stop offset="1" stop-color="#FBEFE2"/>
</linearGradient>
<linearGradient id="paint11_linear_2606_6720" x1="290.103" y1="431.019" x2="291.531" y2="403.161" gradientUnits="userSpaceOnUse">
<stop stop-color="#EDE1D5"/>
<stop offset="1" stop-color="#FBEFE2"/>
</linearGradient>
<linearGradient id="paint12_linear_2606_6720" x1="290.101" y1="431.019" x2="291.53" y2="403.162" gradientUnits="userSpaceOnUse">
<stop stop-color="#EDE1D5"/>
<stop offset="1" stop-color="#FBEFE2"/>
</linearGradient>
<linearGradient id="paint13_linear_2606_6720" x1="333.673" y1="443.876" x2="325.102" y2="384.59" gradientUnits="userSpaceOnUse">
<stop stop-color="#FBEFE2"/>
<stop offset="1" stop-color="white"/>
</linearGradient>
<linearGradient id="paint14_linear_2606_6720" x1="290.102" y1="431.019" x2="291.531" y2="403.161" gradientUnits="userSpaceOnUse">
<stop stop-color="#EDE1D5"/>
<stop offset="1" stop-color="#FBEFE2"/>
</linearGradient>
<linearGradient id="paint15_linear_2606_6720" x1="333.674" y1="443.876" x2="325.103" y2="384.59" gradientUnits="userSpaceOnUse">
<stop stop-color="#FBEFE2"/>
<stop offset="1" stop-color="white"/>
</linearGradient>
<linearGradient id="paint16_linear_2606_6720" x1="290.102" y1="431.019" x2="291.53" y2="403.161" gradientUnits="userSpaceOnUse">
<stop stop-color="#EDE1D5"/>
<stop offset="1" stop-color="#FBEFE2"/>
</linearGradient>
</defs>
</svg>
