<svg width="690" height="681" viewBox="0 0 690 681" fill="none" xmlns="http://www.w3.org/2000/svg">
<path d="M671.425 320.68C671.425 362.703 663.037 404.315 646.74 443.139C630.443 481.963 606.557 517.24 576.444 546.954C546.331 576.669 510.582 600.24 471.238 616.322C431.894 632.403 389.725 640.68 347.139 640.68C304.553 640.68 262.385 632.403 223.04 616.322C183.696 600.24 147.947 576.669 117.835 546.954C87.7219 517.24 63.8352 481.963 47.5383 443.139C31.2414 404.315 22.8535 362.703 22.8535 320.68C22.8535 235.811 57.0192 154.418 117.835 94.406C178.65 34.3944 261.133 0.680177 347.139 0.680176C433.145 0.680177 515.629 34.3944 576.444 94.406C637.259 154.418 671.425 235.811 671.425 320.68Z" fill="#373232"/>
<path d="M95.2045 361.89H579.49C593.736 361.89 605.205 373.358 605.205 387.604V416.175C605.205 430.421 593.736 441.89 579.49 441.89H95.2045C80.9588 441.89 69.4902 430.421 69.4902 416.175V387.604C69.4902 373.358 80.9588 361.89 95.2045 361.89Z" fill="#5F5C53"/>
<path d="M546.188 211.871C537.43 211.871 530.38 218.922 530.38 227.68V228.559C530.38 230.688 530.796 232.715 531.552 234.565C520.333 238.421 512.312 249.039 512.312 261.599V272.928C512.312 288.765 525.063 301.514 540.9 301.514H546.205C562.042 301.514 574.792 288.765 574.792 272.928V261.599C574.792 250.725 568.781 241.307 559.888 236.472C561.229 234.147 561.995 231.446 561.995 228.559V227.68C561.995 218.922 554.946 211.871 546.188 211.871Z" fill="#3F3D37"/>
<path d="M473.774 211.871C465.016 211.871 457.965 218.922 457.965 227.68V228.559C457.965 230.688 458.382 232.715 459.138 234.565C447.919 238.421 439.898 249.039 439.898 261.599V272.928C439.898 288.765 452.649 301.514 468.486 301.514H473.791C489.628 301.514 502.378 288.765 502.378 272.928V261.599C502.378 250.725 496.366 241.307 487.472 236.472C488.813 234.147 489.581 231.446 489.581 228.559V227.68C489.581 218.922 482.532 211.871 473.774 211.871Z" fill="#3F3D37"/>
<path d="M401.358 211.871C392.6 211.871 385.55 218.922 385.55 227.68V228.559C385.55 230.688 385.967 232.715 386.724 234.565C375.504 238.421 367.482 249.039 367.482 261.599V272.928C367.482 288.765 380.233 301.514 396.07 301.514H401.376C417.213 301.514 429.963 288.765 429.963 272.928V261.599C429.963 250.725 423.951 241.307 415.057 236.472C416.399 234.147 417.167 231.446 417.167 228.559V227.68C417.167 218.922 410.115 211.871 401.358 211.871Z" fill="#3F3D37"/>
<path d="M328.942 211.871C320.184 211.871 313.133 218.922 313.133 227.68V228.559C313.133 230.688 313.55 232.715 314.306 234.565C303.087 238.421 295.066 249.039 295.066 261.599V272.928C295.066 288.765 307.817 301.514 323.654 301.514H328.959C344.796 301.514 357.546 288.765 357.546 272.928V261.599C357.546 250.725 351.535 241.307 342.642 236.472C343.983 234.147 344.749 231.446 344.749 228.559V227.68C344.749 218.922 337.699 211.871 328.942 211.871Z" fill="#3F3D37"/>
<path d="M256.526 211.871C247.768 211.871 240.718 218.922 240.718 227.68V228.559C240.718 230.688 241.135 232.715 241.891 234.565C230.672 238.421 222.65 249.039 222.65 261.599V272.928C222.65 288.765 235.402 301.514 251.239 301.514H256.544C272.381 301.514 285.131 288.765 285.131 272.928V261.599C285.131 250.725 279.119 241.307 270.225 236.472C271.567 234.147 272.335 231.446 272.335 228.559V227.68C272.335 218.922 265.283 211.871 256.526 211.871Z" fill="#3F3D37"/>
<path d="M184.11 211.871C175.352 211.871 168.302 218.922 168.302 227.68V228.559C168.302 230.688 168.719 232.715 169.475 234.565C158.256 238.421 150.234 249.039 150.234 261.599V272.928C150.234 288.765 162.984 301.514 178.822 301.514H184.127C199.964 301.514 212.715 288.765 212.715 272.928V261.599C212.715 250.725 206.703 241.307 197.809 236.472C199.151 234.147 199.919 231.446 199.919 228.559V227.68C199.919 218.922 192.867 211.871 184.11 211.871Z" fill="#3F3D37"/>
<path d="M619.479 215.279C610.721 215.279 603.671 222.331 603.671 231.088V231.968C603.671 234.096 604.087 236.123 604.843 237.974C593.624 241.83 585.604 252.447 585.604 265.008V276.336C585.604 292.173 598.354 304.922 614.191 304.922H619.496C635.333 304.922 648.083 292.173 648.083 276.336V265.008C648.083 254.134 642.072 244.716 633.179 239.881C634.52 237.556 635.286 234.855 635.286 231.968V231.088C635.286 222.331 628.237 215.279 619.479 215.279Z" fill="#3F3D37"/>
<path d="M106.244 211.871C97.4867 211.871 90.4369 218.922 90.4369 227.68V228.559C90.4369 230.688 90.8539 232.715 91.6102 234.565C80.3908 238.421 72.3691 249.039 72.3691 261.599V272.928C72.3691 288.765 85.1192 301.514 100.956 301.514H106.262C122.099 301.514 134.85 288.765 134.85 272.928V261.599C134.85 250.725 128.838 241.307 119.944 236.472C121.285 234.147 122.053 231.446 122.053 228.559V227.68C122.053 218.922 115.002 211.871 106.244 211.871Z" fill="#3F3D37"/>
<path d="M545.417 246.156C535.987 246.156 528.396 253.749 528.396 263.179V264.126C528.396 266.418 528.844 268.6 529.658 270.593C517.577 274.745 508.941 286.178 508.941 299.702V311.9C508.941 328.953 522.67 342.68 539.723 342.68H545.435C562.488 342.68 576.217 328.953 576.217 311.9V299.702C576.217 287.994 569.745 277.852 560.168 272.646C561.613 270.143 562.438 267.235 562.438 264.126V263.179C562.438 253.749 554.847 246.156 545.417 246.156Z" fill="#44423C"/>
<path d="M467.444 246.156C458.014 246.156 450.422 253.749 450.422 263.179V264.126C450.422 266.418 450.871 268.6 451.685 270.593C439.605 274.745 430.969 286.178 430.969 299.702V311.9C430.969 328.953 444.698 342.68 461.75 342.68H467.463C484.516 342.68 498.245 328.953 498.245 311.9V299.702C498.245 287.994 491.771 277.852 482.194 272.646C483.639 270.143 484.465 267.235 484.465 264.126V263.179C484.465 253.749 476.874 246.156 467.444 246.156Z" fill="#44423C"/>
<path d="M389.468 246.156C380.038 246.156 372.447 253.749 372.447 263.179V264.126C372.447 266.418 372.896 268.6 373.71 270.593C361.63 274.745 352.992 286.178 352.992 299.702V311.9C352.992 328.953 366.721 342.68 383.774 342.68H389.488C406.541 342.68 420.269 328.953 420.269 311.9V299.702C420.269 287.994 413.796 277.852 404.219 272.646C405.663 270.143 406.49 267.235 406.49 264.126V263.179C406.49 253.749 398.898 246.156 389.468 246.156Z" fill="#44423C"/>
<path d="M311.493 246.156C302.063 246.156 294.471 253.749 294.471 263.179V264.126C294.471 266.418 294.92 268.6 295.734 270.593C283.654 274.745 275.018 286.178 275.018 299.702V311.9C275.018 328.953 288.746 342.68 305.799 342.68H311.512C328.565 342.68 342.293 328.953 342.293 311.9V299.702C342.293 287.994 335.821 277.852 326.245 272.646C327.689 270.143 328.514 267.235 328.514 264.126V263.179C328.514 253.749 320.923 246.156 311.493 246.156Z" fill="#44423C"/>
<path d="M233.519 246.156C224.089 246.156 216.498 253.749 216.498 263.179V264.126C216.498 266.418 216.947 268.6 217.761 270.593C205.68 274.745 197.043 286.178 197.043 299.702V311.9C197.043 328.953 210.773 342.68 227.826 342.68H233.538C250.591 342.68 264.32 328.953 264.32 311.9V299.702C264.32 287.994 257.847 277.852 248.27 272.646C249.714 270.143 250.541 267.235 250.541 264.126V263.179C250.541 253.749 242.949 246.156 233.519 246.156Z" fill="#44423C"/>
<path d="M155.544 246.156C146.114 246.156 138.523 253.749 138.523 263.179V264.126C138.523 266.418 138.972 268.6 139.786 270.593C127.706 274.745 119.068 286.178 119.068 299.702V311.9C119.068 328.953 132.797 342.68 149.85 342.68H155.562C172.615 342.68 186.346 328.953 186.346 311.9V299.702C186.346 287.994 179.872 277.852 170.295 272.646C171.74 270.143 172.566 267.235 172.566 264.126V263.179C172.566 253.749 164.974 246.156 155.544 246.156Z" fill="#44423C"/>
<path d="M624.335 249.827C614.905 249.827 607.314 257.419 607.314 266.849V267.796C607.314 270.088 607.762 272.271 608.576 274.263C596.495 278.415 587.859 289.848 587.859 303.373V315.57C587.859 332.623 601.588 346.351 618.641 346.351H624.353C641.406 346.351 655.135 332.623 655.135 315.57V303.373C655.135 291.664 648.663 281.523 639.086 276.316C640.531 273.813 641.356 270.905 641.356 267.796V266.849C641.356 257.419 633.765 249.827 624.335 249.827Z" fill="#44423C"/>
<path d="M71.7022 246.156C62.2722 246.156 54.6812 253.749 54.6812 263.179V264.126C54.6812 266.418 55.1302 268.6 55.9446 270.593C43.864 274.745 35.2266 286.178 35.2266 299.702V311.9C35.2266 328.953 48.9554 342.68 66.0083 342.68H71.7206C88.7735 342.68 102.504 328.953 102.504 311.9V299.702C102.504 287.994 96.0301 277.852 86.4536 272.646C87.8978 270.143 88.7247 267.235 88.7247 264.126V263.179C88.7247 253.749 81.1322 246.156 71.7022 246.156Z" fill="#44423C"/>
<path d="M511.63 266.359C501.249 266.359 492.893 274.717 492.893 285.098V286.14C492.893 288.663 493.385 291.066 494.282 293.259C480.983 297.83 471.477 310.416 471.477 325.304V338.731C471.477 357.504 486.59 372.615 505.362 372.615H511.65C530.422 372.615 545.535 357.504 545.535 338.731V325.304C545.535 312.415 538.41 301.251 527.868 295.52C529.458 292.764 530.367 289.563 530.367 286.14V285.098C530.367 274.717 522.01 266.359 511.63 266.359Z" fill="#4B4942" fill-opacity="0.996078"/>
<path d="M425.794 266.359C415.413 266.359 407.055 274.717 407.055 285.098V286.14C407.055 288.663 407.549 291.066 408.446 293.259C395.147 297.83 385.641 310.416 385.641 325.304V338.731C385.641 357.504 400.754 372.615 419.526 372.615H425.814C444.586 372.615 459.699 357.504 459.699 338.731V325.304C459.699 312.415 452.573 301.251 442.031 295.52C443.621 292.764 444.531 289.563 444.531 286.14V285.098C444.531 274.717 436.174 266.359 425.794 266.359Z" fill="#4B4942" fill-opacity="0.996078"/>
<path d="M339.958 266.359C329.577 266.359 321.221 274.717 321.221 285.098V286.14C321.221 288.663 321.715 291.066 322.612 293.259C309.313 297.83 299.805 310.416 299.805 325.304V338.731C299.805 357.504 314.918 372.615 333.69 372.615H339.98C358.752 372.615 373.865 357.504 373.865 338.731V325.304C373.865 312.415 366.738 301.251 356.196 295.52C357.786 292.764 358.696 289.563 358.696 286.14V285.098C358.696 274.717 350.339 266.359 339.958 266.359Z" fill="#4B4942" fill-opacity="0.996078"/>
<path d="M254.122 266.359C243.741 266.359 235.383 274.717 235.383 285.098V286.14C235.383 288.663 235.878 291.066 236.774 293.259C223.475 297.83 213.969 310.416 213.969 325.304V338.731C213.969 357.504 229.082 372.615 247.854 372.615H254.142C272.914 372.615 288.027 357.504 288.027 338.731V325.304C288.027 312.415 280.903 301.251 270.36 295.52C271.95 292.764 272.859 289.563 272.859 286.14V285.098C272.859 274.717 264.503 266.359 254.122 266.359Z" fill="#4B4942" fill-opacity="0.996078"/>
<path d="M168.286 266.359C157.905 266.359 149.549 274.717 149.549 285.098V286.14C149.549 288.663 150.043 291.066 150.94 293.259C137.641 297.83 128.133 310.416 128.133 325.304V338.731C128.133 357.504 143.247 372.615 162.019 372.615H168.308C187.08 372.615 202.193 357.504 202.193 338.731V325.304C202.193 312.415 195.067 301.251 184.525 295.52C186.114 292.764 187.025 289.563 187.025 286.14V285.098C187.025 274.717 178.667 266.359 168.286 266.359Z" fill="#4B4942" fill-opacity="0.996078"/>
<path d="M82.45 266.359C72.0693 266.359 63.7129 274.717 63.7129 285.098V286.14C63.7129 288.663 64.2072 291.066 65.1037 293.259C51.8051 297.83 42.2969 310.416 42.2969 325.304V338.731C42.2969 357.504 57.4098 372.615 76.182 372.615H82.4702C101.242 372.615 116.357 357.504 116.357 338.731V325.304C116.357 312.415 109.231 301.251 98.6886 295.52C100.278 292.764 101.189 289.563 101.189 286.14V285.098C101.189 274.717 92.8307 266.359 82.45 266.359Z" fill="#4B4942" fill-opacity="0.996078"/>
<path d="M598.503 270.4C588.122 270.4 579.766 278.758 579.766 289.139V290.181C579.766 292.704 580.258 295.107 581.155 297.3C567.856 301.871 558.35 314.456 558.35 329.344V342.772C558.35 361.544 573.463 376.655 592.235 376.655H598.523C617.295 376.655 632.408 361.544 632.408 342.772V329.344C632.408 316.455 625.283 305.292 614.741 299.56C616.331 296.805 617.24 293.603 617.24 290.181V289.139C617.24 278.758 608.883 270.4 598.503 270.4Z" fill="#4B4942" fill-opacity="0.996078"/>
<path d="M121.399 304.01C111.018 304.01 102.662 312.368 102.662 322.748V323.791C102.662 326.314 103.156 328.717 104.053 330.91C90.7543 335.48 81.2461 348.066 81.2461 362.954V376.382C81.2461 395.154 96.359 410.265 115.131 410.265H121.419C140.192 410.265 155.306 395.154 155.306 376.382V362.954C155.306 350.065 148.18 338.902 137.638 333.17C139.228 330.415 140.138 327.213 140.138 323.791V322.748C140.138 312.368 131.78 304.01 121.399 304.01ZM207.234 304.01C196.854 304.01 188.497 312.368 188.497 322.748V323.791C188.497 326.314 188.992 328.717 189.888 330.91C176.59 335.48 167.081 348.066 167.081 362.954V376.382C167.081 395.154 182.196 410.265 200.968 410.265H207.256C226.028 410.265 241.141 395.154 241.141 376.382V362.954C241.141 350.065 234.015 338.902 223.473 333.17C225.063 330.415 225.973 327.213 225.973 323.791V322.748C225.973 312.368 217.615 304.01 207.234 304.01ZM293.071 304.01C282.69 304.01 274.333 312.368 274.333 322.748V323.791C274.333 326.314 274.827 328.717 275.723 330.91C262.425 335.48 252.918 348.066 252.918 362.954V376.382C252.918 395.154 268.031 410.265 286.803 410.265H293.091C311.864 410.265 326.977 395.154 326.977 376.382V362.954C326.977 350.065 319.852 338.902 309.31 333.17C310.9 330.415 311.808 327.213 311.808 323.791V322.748C311.808 312.368 303.452 304.01 293.071 304.01ZM378.906 304.01C368.526 304.01 360.169 312.368 360.169 322.748V323.791C360.169 326.314 360.664 328.717 361.56 330.91C348.262 335.48 338.753 348.066 338.753 362.954V376.382C338.753 395.154 353.866 410.265 372.638 410.265H378.928C397.7 410.265 412.813 395.154 412.813 376.382V362.954C412.813 350.065 405.687 338.902 395.145 333.17C396.735 330.415 397.645 327.213 397.645 323.791V322.748C397.645 312.368 389.287 304.01 378.906 304.01ZM464.743 304.01C454.362 304.01 446.005 312.368 446.005 322.748V323.791C446.005 326.314 446.499 328.717 447.395 330.91C434.097 335.48 424.59 348.066 424.59 362.954V376.382C424.59 395.154 439.703 410.265 458.475 410.265H464.763C483.536 410.265 498.649 395.154 498.649 376.382V362.954C498.649 350.065 491.522 338.902 480.98 333.17C482.57 330.415 483.48 327.213 483.48 323.791V322.748C483.48 312.368 475.124 304.01 464.743 304.01ZM550.578 304.01C540.198 304.01 531.841 312.368 531.841 322.748V323.791C531.841 326.314 532.334 328.717 533.231 330.91C519.932 335.48 510.425 348.066 510.425 362.954V376.382C510.425 395.154 525.538 410.265 544.31 410.265H550.599C569.371 410.265 584.484 395.154 584.484 376.382V362.954C584.484 350.065 577.359 338.902 566.817 333.17C568.407 330.415 569.315 327.213 569.315 323.791V322.748C569.315 312.368 560.959 304.01 550.578 304.01Z" fill="#605D54" fill-opacity="0.996078"/>
<path d="M81.6562 319.724C68.6238 319.724 58.1328 330.217 58.1328 343.25V344.558C58.1328 347.726 58.7534 350.742 59.8789 353.496C43.1832 359.234 31.2461 375.034 31.2461 393.726V410.584C31.2461 434.151 50.2196 453.123 73.7871 453.123H81.6816C105.249 453.123 124.225 434.151 124.225 410.584V393.726C124.225 377.544 115.278 363.529 102.043 356.334C104.039 352.874 105.182 348.855 105.182 344.558V343.25C105.182 330.217 94.6887 319.724 81.6562 319.724ZM189.418 319.724C176.386 319.724 165.895 330.217 165.895 343.25V344.558C165.895 347.726 166.515 350.742 167.641 353.496C150.945 359.234 139.008 375.034 139.008 393.726V410.584C139.008 434.151 157.983 453.123 181.551 453.123H189.445C213.013 453.123 231.986 434.151 231.986 410.584V393.726C231.986 377.544 223.04 363.529 209.805 356.334C211.801 352.874 212.943 348.855 212.943 344.558V343.25C212.943 330.217 202.45 319.724 189.418 319.724ZM297.182 319.724C284.149 319.724 273.656 330.217 273.656 343.25V344.558C273.656 347.726 274.277 350.742 275.402 353.496C258.707 359.234 246.771 375.034 246.771 393.726V410.584C246.771 434.151 265.745 453.123 289.312 453.123H297.207C320.774 453.123 339.748 434.151 339.748 410.584V393.726C339.748 377.544 330.803 363.529 317.568 356.334C319.564 352.874 320.705 348.855 320.705 344.558V343.25C320.705 330.217 310.214 319.724 297.182 319.724ZM404.943 319.724C391.911 319.724 381.42 330.217 381.42 343.25V344.558C381.42 347.726 382.04 350.742 383.166 353.496C366.47 359.234 354.533 375.034 354.533 393.726V410.584C354.533 434.151 373.507 453.123 397.074 453.123H404.971C428.538 453.123 447.512 434.151 447.512 410.584V393.726C447.512 377.544 438.565 363.529 425.33 356.334C427.326 352.874 428.469 348.855 428.469 344.558V343.25C428.469 330.217 417.976 319.724 404.943 319.724ZM512.707 319.724C499.675 319.724 489.182 330.217 489.182 343.25V344.558C489.182 347.726 489.802 350.742 490.928 353.496C474.232 359.234 462.297 375.034 462.297 393.726V410.584C462.297 434.151 481.27 453.123 504.838 453.123H512.732C536.3 453.123 555.273 434.151 555.273 410.584V393.726C555.273 377.544 546.327 363.529 533.092 356.334C535.088 352.874 536.23 348.855 536.23 344.558V343.25C536.23 330.217 525.739 319.724 512.707 319.724ZM620.469 319.724C607.436 319.724 596.945 330.217 596.945 343.25V344.558C596.945 347.726 597.564 350.742 598.689 353.496C581.994 359.234 570.059 375.034 570.059 393.726V410.584C570.059 434.151 589.032 453.123 612.6 453.123H620.494C644.062 453.123 663.035 434.151 663.035 410.584V393.726C663.035 377.544 654.09 363.529 640.855 356.334C642.851 352.874 643.992 348.855 643.992 344.558V343.25C643.992 330.217 633.501 319.724 620.469 319.724Z" fill="#736F64" fill-opacity="0.996078"/>
<path d="M11.4206 420.535H670.313C670.797 420.535 671.187 420.925 671.187 421.409V581.286C671.187 581.77 670.797 582.16 670.313 582.16H11.4206C10.9366 582.16 10.5469 581.77 10.5469 581.286V421.409C10.5469 420.925 10.9366 420.535 11.4206 420.535Z" fill="#D6A876" fill-opacity="0.996078"/>
<path d="M11.0519 502.398H661.59C667.466 502.398 672.197 507.129 672.197 513.005V537.249C672.197 543.125 667.466 547.855 661.59 547.855H11.0519C5.17586 547.855 0.445312 543.125 0.445312 537.249V513.005C0.445312 507.129 5.17586 502.398 11.0519 502.398Z" fill="#806E57"/>
<path d="M77.9234 513.469H616.358C656.897 513.469 689.532 536.97 689.532 566.161V575.935C689.532 605.126 656.897 628.627 616.358 628.627H77.9234C37.3853 628.627 4.75 605.126 4.75 575.935V566.161C4.75 536.97 37.3853 513.469 77.9234 513.469Z" fill="#968066"/>
<path d="M93.2334 592.603H601.048C625.404 592.603 645.012 612.211 645.012 636.567C645.012 660.923 625.404 680.531 601.048 680.531H93.2334C68.8774 680.531 49.2695 660.923 49.2695 636.567C49.2695 612.211 68.8774 592.603 93.2334 592.603Z" fill="#806E57"/>
<path d="M82.6268 582.603H611.654C630.134 582.603 645.012 599.71 645.012 620.96C645.012 642.21 630.134 659.318 611.654 659.318H82.6268C64.1469 659.318 49.2695 642.21 49.2695 620.96C49.2695 599.71 64.1469 582.603 82.6268 582.603Z" fill="#B59B7C" fill-opacity="0.996078"/>
<path d="M186.137 607.937H498.147C508.132 607.937 516.171 615.975 516.171 625.96C516.171 635.945 508.132 643.984 498.147 643.984H186.137C176.152 643.984 168.113 635.945 168.113 625.96C168.113 615.975 176.152 607.937 186.137 607.937Z" fill="#968066"/>
<path d="M326.898 525.419H359.041C364.779 525.419 369.398 530.039 369.398 535.777C369.398 541.514 364.779 546.134 359.041 546.134H326.898C321.16 546.134 316.541 541.514 316.541 535.777C316.541 530.039 321.16 525.419 326.898 525.419Z" fill="#B49A7B"/>
<path d="M394.882 538.041H412.256C415.358 538.041 417.855 540.538 417.855 543.639C417.855 546.741 415.358 549.238 412.256 549.238H394.882C391.78 549.238 389.283 546.741 389.283 543.639C389.283 540.538 391.78 538.041 394.882 538.041Z" fill="#B49A7B"/>
<path d="M13.0715 415.525H665.883C668.96 415.525 671.438 418.003 671.438 421.081C671.438 424.159 668.96 426.637 665.883 426.637H13.0715C9.99353 426.637 7.51562 424.159 7.51562 421.081C7.51562 418.003 9.99353 415.525 13.0715 415.525Z" fill="#E9B780"/>
<path d="M97.0876 529.46H129.23C134.968 529.46 139.588 534.079 139.588 539.817C139.588 545.555 134.968 550.174 129.23 550.174H97.0876C91.3498 550.174 86.7305 545.555 86.7305 539.817C86.7305 534.079 91.3498 529.46 97.0876 529.46Z" fill="#B49A7B"/>
<path d="M133.757 562.79H151.131C154.233 562.79 156.73 565.287 156.73 568.389C156.73 571.49 154.233 573.987 151.131 573.987H133.757C130.655 573.987 128.158 571.49 128.158 568.389C128.158 565.287 130.655 562.79 133.757 562.79Z" fill="#B49A7B"/>
<path d="M145.759 440.461H171.076C174.154 440.461 176.632 442.939 176.632 446.017V448.477C176.632 451.555 174.154 454.033 171.076 454.033H145.759C142.681 454.033 140.203 451.555 140.203 448.477V446.017C140.203 442.939 142.681 440.461 145.759 440.461Z" fill="#E9B780"/>
<path d="M119.331 468.318H144.648C147.726 468.318 150.204 470.796 150.204 473.874V476.334C150.204 479.412 147.726 481.89 144.648 481.89H119.331C116.253 481.89 113.775 479.412 113.775 476.334V473.874C113.775 470.796 116.253 468.318 119.331 468.318Z" fill="#E9B780"/>
<path d="M531.474 441.89H556.791C559.869 441.89 562.347 444.368 562.347 447.446V449.905C562.347 452.983 559.869 455.461 556.791 455.461H531.474C528.396 455.461 525.918 452.983 525.918 449.905V447.446C525.918 444.368 528.396 441.89 531.474 441.89Z" fill="#E9B780"/>
<path d="M505.046 469.747H530.363C533.441 469.747 535.919 472.225 535.919 475.303V477.763C535.919 480.841 533.441 483.319 530.363 483.319H505.046C501.968 483.319 499.49 480.841 499.49 477.763V475.303C499.49 472.225 501.968 469.747 505.046 469.747Z" fill="#E9B780"/>
<path d="M0.445312 514.521V526.642H672.197V514.521H0.445312Z" fill="#FFF8D3" fill-opacity="0.996078"/>
<path d="M347.139 555.937C287.104 555.945 227.78 561.35 173.22 571.781C118.66 582.213 70.1479 597.426 30.998 616.38C37.8877 620.521 45.8375 623.784 54.5488 625.884C54.7308 627.53 55.0347 629.127 55.3906 630.699C90.6785 612.659 135.169 598.117 185.633 588.13C236.097 578.143 291.267 572.961 347.139 572.96C405.388 572.963 462.841 578.596 514.974 589.418C567.106 600.239 612.495 615.953 647.566 635.322C648.934 631.414 649.793 627.202 649.971 622.771C654.747 620.997 659.194 618.839 663.281 616.382C624.132 597.427 575.62 582.214 521.059 571.782C466.499 561.35 407.174 555.946 347.139 555.937Z" fill="#D5CEA3"/>
<path d="M125.465 582.603C98.628 589.621 73.7986 597.89 51.457 607.25C50.0481 611.505 49.2695 616.123 49.2695 620.96C49.2695 622.145 49.3235 623.313 49.4141 624.47C51.0968 624.982 52.8025 625.463 54.5488 625.884C54.7308 627.53 55.0347 629.127 55.3906 630.699C98.0168 608.913 153.925 592.301 217.26 582.603H125.465ZM476.918 582.603C542.575 592.668 600.195 610.157 643.307 633.105C644.407 629.29 645.012 625.211 645.012 620.96C645.012 616.124 644.235 611.506 642.826 607.251C620.484 597.891 595.653 589.622 568.815 582.603H476.918Z" fill="#FFF8D2"/>
<path d="M164.49 175.104C164.49 170.173 160.492 166.176 155.561 166.176C150.63 166.176 146.633 170.173 146.633 175.104V179.39C146.633 184.321 150.63 188.319 155.561 188.319C160.492 188.319 164.49 184.321 164.49 179.39V175.104Z" fill="#3F3D37"/>
<path d="M258.775 159.747C258.775 156.986 256.537 154.747 253.775 154.747C251.014 154.747 248.775 156.986 248.775 159.747V164.033C248.775 166.794 251.014 169.033 253.775 169.033C256.537 169.033 258.775 166.794 258.775 164.033V159.747Z" fill="#3F3D37"/>
<path d="M220.918 132.604C220.918 131.815 220.278 131.176 219.489 131.176C218.7 131.176 218.061 131.815 218.061 132.604V136.89C218.061 137.679 218.7 138.319 219.489 138.319C220.278 138.319 220.918 137.679 220.918 136.89V132.604Z" fill="#3F3D37"/>
<path d="M405.205 144.747H393.776C392.987 144.747 392.348 145.387 392.348 146.176V166.176C392.348 166.965 392.987 167.604 393.776 167.604H405.205C405.994 167.604 406.633 166.965 406.633 166.176V146.176C406.633 145.387 405.994 144.747 405.205 144.747Z" fill="#3F3D37"/>
<path d="M419.846 107.604H417.703C413.561 107.604 410.203 110.962 410.203 115.104C410.203 119.246 413.561 122.604 417.703 122.604H419.846C423.988 122.604 427.346 119.246 427.346 115.104C427.346 110.962 423.988 107.604 419.846 107.604Z" fill="#3F3D37"/>
<path d="M343.06 156.176C343.06 152.625 340.182 149.747 336.632 149.747C333.081 149.747 330.203 152.625 330.203 156.176V162.604C330.203 166.155 333.081 169.033 336.632 169.033C340.182 169.033 343.06 166.155 343.06 162.604V156.176Z" fill="#44423C"/>
<path d="M510.919 165.461H508.061C504.511 165.461 501.633 168.34 501.633 171.89V178.319C501.633 181.869 504.511 184.747 508.061 184.747H510.919C514.469 184.747 517.347 181.869 517.347 178.319V171.89C517.347 168.34 514.469 165.461 510.919 165.461Z" fill="#44423C"/>
<path d="M465.917 173.676C465.917 170.717 463.519 168.318 460.56 168.318C457.602 168.318 455.203 170.717 455.203 173.676V177.961C455.203 180.92 457.602 183.318 460.56 183.318C463.519 183.318 465.917 180.92 465.917 177.961V173.676Z" fill="#44423C"/>
<path d="M440.561 186.89H438.418C435.459 186.89 433.061 189.289 433.061 192.247V198.676C433.061 201.635 435.459 204.033 438.418 204.033H440.561C443.519 204.033 445.918 201.635 445.918 198.676V192.247C445.918 189.289 443.519 186.89 440.561 186.89Z" fill="#3F3D37"/>
<path d="M263.062 109.39C263.062 103.67 258.425 99.0327 252.705 99.0327C246.985 99.0327 242.348 103.67 242.348 109.39V116.533C242.348 122.253 246.985 126.89 252.705 126.89C258.425 126.89 263.062 122.253 263.062 116.533V109.39Z" fill="#3F3D37"/>
<path d="M305.205 146.533C305.205 140.813 300.567 136.176 294.847 136.176C289.127 136.176 284.49 140.813 284.49 146.533V148.676C284.49 154.396 289.127 159.033 294.847 159.033C300.567 159.033 305.205 154.396 305.205 148.676V146.533Z" fill="#3F3D37"/>
<path d="M217.347 166.533C217.347 162.785 214.309 159.747 210.561 159.747C206.813 159.747 203.775 162.785 203.775 166.533V169.39C203.775 173.138 206.813 176.176 210.561 176.176C214.309 176.176 217.347 173.138 217.347 169.39V166.533Z" fill="#3F3D37"/>
<path d="M372.347 191.533C372.347 185.024 367.07 179.747 360.561 179.747C354.052 179.747 348.775 185.024 348.775 191.533V195.819C348.775 202.328 354.052 207.604 360.561 207.604C367.07 207.604 372.347 202.328 372.347 195.819V191.533Z" fill="#3F3D37"/>
<path d="M295.562 190.461H293.419C288.488 190.461 284.49 194.459 284.49 199.39C284.49 204.321 288.488 208.319 293.419 208.319H295.562C300.493 208.319 304.49 204.321 304.49 199.39C304.49 194.459 300.493 190.461 295.562 190.461Z" fill="#3F3D37"/>
<path d="M225.919 199.39C225.919 195.642 222.881 192.604 219.133 192.604C215.386 192.604 212.348 195.642 212.348 199.39V203.675C212.348 207.423 215.386 210.461 219.133 210.461C222.881 210.461 225.919 207.423 225.919 203.675V199.39Z" fill="#44423C"/>
<path d="M426.511 473.396H655.559C661.639 473.396 666.534 478.016 666.534 483.754C666.534 489.491 661.639 494.111 655.559 494.111H426.511C420.43 494.111 415.535 489.491 415.535 483.754C415.535 478.016 420.43 473.396 426.511 473.396Z" fill="#9D7B57"/>
<path d="M574.51 276.858H511.181C510.765 276.858 510.428 277.196 510.428 277.612V278.845C510.428 279.261 510.765 279.598 511.181 279.598H574.51C574.927 279.598 575.264 279.261 575.264 278.845V277.612C575.264 277.196 574.927 276.858 574.51 276.858Z" fill="#76654D"/>
<path d="M513.194 277.733C512.965 277.012 512.195 276.613 511.474 276.842C510.752 277.071 510.354 277.841 510.583 278.562L517.399 300.031C517.628 300.752 518.398 301.151 519.119 300.922C519.84 300.693 520.239 299.923 520.01 299.202L513.194 277.733Z" fill="#76654D"/>
<path d="M574.777 278.342C575.006 277.621 575.776 277.222 576.497 277.451C577.218 277.68 577.617 278.45 577.388 279.171L570.571 300.64C570.342 301.361 569.572 301.76 568.851 301.531C568.13 301.302 567.731 300.532 567.96 299.811L574.777 278.342Z" fill="#76654D"/>
<path d="M613.01 364.149C613.01 382.879 605.73 400.841 592.771 414.085C579.813 427.329 562.238 434.769 543.912 434.769C525.586 434.769 508.011 427.329 495.053 414.085C482.094 400.841 474.814 382.879 474.814 364.149C474.814 345.42 482.094 327.457 495.053 314.214C508.011 300.97 525.586 293.53 543.912 293.53C552.986 293.53 561.971 295.356 570.355 298.905C578.738 302.454 586.355 307.656 592.771 314.214C599.188 320.771 604.277 328.556 607.75 337.124C611.222 345.692 613.01 354.875 613.01 364.149Z" fill="#D6AF7E"/>
<path d="M599.007 364.149C599.007 379.083 593.203 393.406 582.87 403.966C572.538 414.526 558.524 420.458 543.912 420.458C529.3 420.458 515.286 414.526 504.953 403.966C494.621 393.406 488.816 379.083 488.816 364.149C488.816 356.755 490.241 349.433 493.01 342.601C495.779 335.769 499.837 329.562 504.953 324.333C510.07 319.104 516.143 314.956 522.828 312.127C529.512 309.297 536.677 307.84 543.912 307.84C551.147 307.84 558.311 309.297 564.996 312.127C571.68 314.956 577.754 319.104 582.87 324.333C587.986 329.562 592.045 335.769 594.813 342.601C597.582 349.433 599.007 356.755 599.007 364.149Z" fill="#B5946B"/>
<path d="M589.876 364.149C589.876 376.608 585.034 388.557 576.414 397.366C567.794 406.176 556.103 411.125 543.913 411.125C531.723 411.125 520.031 406.176 511.412 397.366C502.792 388.557 497.949 376.608 497.949 364.149C497.949 351.691 502.792 339.742 511.412 330.932C520.031 322.123 531.723 317.173 543.913 317.173C556.103 317.173 567.794 322.123 576.414 330.932C585.034 339.742 589.876 351.691 589.876 364.149Z" fill="#D6AF7E"/>
<path d="M577.701 364.149C577.701 373.308 574.141 382.091 567.804 388.567C561.468 395.043 552.874 398.681 543.913 398.681C534.952 398.681 526.358 395.043 520.021 388.567C513.685 382.091 510.125 373.308 510.125 364.149C510.125 359.614 510.999 355.124 512.697 350.934C514.395 346.745 516.884 342.938 520.021 339.731C523.159 336.525 526.883 333.981 530.983 332.246C535.082 330.51 539.476 329.617 543.913 329.617C548.35 329.617 552.744 330.51 556.843 332.246C560.942 333.981 564.667 336.525 567.804 339.731C570.942 342.938 573.431 346.745 575.129 350.934C576.827 355.124 577.701 359.614 577.701 364.149Z" fill="#B5946B"/>
<path d="M565.525 364.15C565.525 370.008 563.248 375.626 559.195 379.768C555.142 383.911 549.645 386.238 543.913 386.238C538.181 386.238 532.684 383.911 528.631 379.768C524.578 375.626 522.301 370.008 522.301 364.15C522.301 361.249 522.86 358.377 523.946 355.697C525.032 353.017 526.624 350.582 528.631 348.531C530.638 346.48 533.02 344.853 535.642 343.743C538.264 342.633 541.075 342.062 543.913 342.062C546.751 342.062 549.561 342.633 552.183 343.743C554.805 344.853 557.188 346.48 559.195 348.531C561.202 350.582 562.794 353.017 563.88 355.697C564.966 358.377 565.525 361.249 565.525 364.15Z" fill="#D6AF7E"/>
<path d="M560.47 360.705C560.47 362.475 560.129 364.228 559.466 365.863C558.803 367.499 557.832 368.985 556.607 370.236C555.382 371.488 553.929 372.481 552.329 373.158C550.729 373.835 549.014 374.184 547.282 374.184C545.55 374.184 543.835 373.835 542.235 373.158C540.635 372.481 539.181 371.488 537.956 370.236C536.732 368.985 535.76 367.499 535.098 365.863C534.435 364.228 534.094 362.475 534.094 360.705C534.094 358.935 534.435 357.183 535.098 355.548C535.76 353.912 536.732 352.426 537.956 351.175C539.181 349.923 540.635 348.93 542.235 348.253C543.835 347.576 545.55 347.227 547.282 347.227C549.014 347.227 550.729 347.576 552.329 348.253C553.929 348.93 555.382 349.923 556.607 351.175C557.832 352.426 558.803 353.912 559.466 355.548C560.129 357.183 560.47 358.935 560.47 360.705Z" fill="#EFC481" fill-opacity="0.996078"/>
<path d="M573.487 328.249L578.152 333.888C579.672 335.726 579.416 338.429 577.578 339.949C575.74 341.469 573.037 341.213 571.517 339.376L566.853 333.737C565.333 331.899 565.589 329.196 567.426 327.676C569.264 326.156 571.967 326.412 573.487 328.249Z" fill="#EFC480"/>
<path d="M593.505 317.918L598.169 323.556C599.689 325.394 599.433 328.097 597.596 329.617C595.758 331.138 593.055 330.882 591.535 329.044L586.87 323.405C585.35 321.567 585.606 318.864 587.444 317.344C589.282 315.824 591.985 316.08 593.505 317.918Z" fill="#EFC480"/>
<path d="M586.061 311.965C586.061 312.736 585.71 313.475 585.084 314.02C584.458 314.565 583.61 314.871 582.725 314.871C581.84 314.871 580.991 314.565 580.366 314.02C579.74 313.475 579.389 312.736 579.389 311.965C579.389 311.195 579.74 310.456 580.366 309.911C580.991 309.366 581.84 309.06 582.725 309.06C583.61 309.06 584.458 309.366 585.084 309.911C585.71 310.456 586.061 311.195 586.061 311.965Z" fill="#EFC480"/>
<path d="M448.776 243.842H445.332C442.955 243.842 441.027 245.77 441.027 248.147V471.135C441.027 473.513 442.955 475.44 445.332 475.44H448.776C451.153 475.44 453.081 473.513 453.081 471.135V248.147C453.081 245.77 451.153 243.842 448.776 243.842Z" fill="#77664E" fill-opacity="0.996078"/>
<path d="M669.72 293.777H645.613C644.008 293.777 642.707 295.078 642.707 296.683C642.707 298.288 644.008 299.589 645.613 299.589H669.72C671.324 299.589 672.625 298.288 672.625 296.683C672.625 295.078 671.324 293.777 669.72 293.777Z" fill="#655642" fill-opacity="0.996078"/>
<path d="M642.493 243.842H639.049C636.671 243.842 634.744 245.77 634.744 248.147V471.135C634.744 473.513 636.671 475.44 639.049 475.44H642.493C644.87 475.44 646.798 473.513 646.798 471.135V248.147C646.798 245.77 644.87 243.842 642.493 243.842Z" fill="#77664E" fill-opacity="0.996078"/>
<path d="M515.5 259.124C515.5 257.341 514.055 255.896 512.272 255.896C510.488 255.896 509.043 257.341 509.043 259.124V276.774C509.043 278.557 510.488 280.002 512.272 280.002C514.055 280.002 515.5 278.557 515.5 276.774V259.124Z" fill="#655642" fill-opacity="0.996078"/>
<path d="M578.781 259.124C578.781 257.341 577.336 255.896 575.553 255.896C573.77 255.896 572.324 257.341 572.324 259.124V276.774C572.324 278.557 573.77 280.002 575.553 280.002C577.336 280.002 578.781 278.557 578.781 276.774V259.124Z" fill="#655642" fill-opacity="0.996078"/>
<path d="M650.456 238.246H437.369C434.992 238.246 433.064 240.173 433.064 242.551V253.743C433.064 256.121 434.992 258.048 437.369 258.048H650.456C652.834 258.048 654.761 256.121 654.761 253.743V242.551C654.761 240.173 652.834 238.246 650.456 238.246Z" fill="#77664E" fill-opacity="0.996078"/>
<path d="M445.745 238.829L430.899 225.724C426.532 221.869 419.867 222.284 416.012 226.651C412.158 231.018 412.573 237.683 416.94 241.537L431.785 254.642C436.152 258.497 442.817 258.082 446.672 253.715C450.526 249.348 450.111 242.683 445.745 238.829Z" fill="#77664E" fill-opacity="0.996078"/>
<path d="M642.941 239.259L657.787 226.154C662.153 222.3 668.818 222.715 672.673 227.082C676.528 231.448 676.113 238.113 671.746 241.968L656.9 255.073C652.534 258.928 645.869 258.513 642.014 254.146C638.159 249.779 638.574 243.114 642.941 239.259Z" fill="#77664E" fill-opacity="0.996078"/>
<path d="M644.666 469.236H440.721C437.695 469.236 435.242 471.689 435.242 474.715C435.242 477.741 437.695 480.194 440.721 480.194H644.666C647.692 480.194 650.145 477.741 650.145 474.715C650.145 471.689 647.692 469.236 644.666 469.236Z" fill="#645541"/>
<path d="M660.19 477.759H425.197C423.012 477.759 421.24 479.53 421.24 481.716C421.24 483.901 423.012 485.673 425.197 485.673H660.19C662.376 485.673 664.147 483.901 664.147 481.716C664.147 479.53 662.376 477.759 660.19 477.759Z" fill="#655642" fill-opacity="0.996078"/>
<path d="M667.245 297.759C667.245 297.343 666.908 297.006 666.492 297.006C666.076 297.006 665.738 297.343 665.738 297.759V310.028C665.738 310.444 666.076 310.781 666.492 310.781C666.908 310.781 667.245 310.444 667.245 310.028V297.759Z" fill="#76654D"/>
<path d="M667.614 308.516H664.94C663.156 308.516 661.711 309.961 661.711 311.744V424.001C661.711 425.784 663.156 427.23 664.94 427.23H667.614C669.397 427.23 670.843 425.784 670.843 424.001V311.744C670.843 309.961 669.397 308.516 667.614 308.516Z" fill="#655642" fill-opacity="0.996078"/>
<path d="M359.912 383.2H366.269C375.421 383.2 382.789 390.568 382.789 399.72V411.127C382.789 420.279 375.421 427.647 366.269 427.647H359.912C350.76 427.647 343.393 420.279 343.393 411.127V399.72C343.393 390.568 350.76 383.2 359.912 383.2Z" fill="#77664D"/>
<path d="M344.76 416.535H380.411C389.563 416.535 396.931 423.903 396.931 433.055V469.716C396.931 478.868 389.563 486.236 380.411 486.236H344.76C335.608 486.236 328.24 478.868 328.24 469.716V433.055C328.24 423.903 335.608 416.535 344.76 416.535Z" fill="#77664D"/>
<path d="M342.382 471.083H346.423C352.299 471.083 357.029 475.814 357.029 481.69C357.029 487.566 352.299 492.297 346.423 492.297H342.382C336.506 492.297 331.775 487.566 331.775 481.69C331.775 475.814 336.506 471.083 342.382 471.083Z" fill="#77664D"/>
<path d="M379.254 471.083H397.437C403.033 471.083 407.538 475.589 407.538 481.185C407.538 486.781 403.033 491.287 397.437 491.287H379.254C373.658 491.287 369.152 486.781 369.152 481.185C369.152 475.589 373.658 471.083 379.254 471.083Z" fill="#77664D"/>
<path d="M344.783 223.732C390.075 223.732 426.538 258.229 426.538 301.08C426.538 343.93 390.075 378.428 344.783 378.428C299.49 378.428 263.027 343.93 263.027 301.08C263.027 258.229 299.49 223.732 344.783 223.732Z" fill="url(#paint0_linear_2606_6997)"/>
<path d="M347.972 284.398C261.421 296.321 228.385 327.747 227.348 401.174C227.348 422.66 249.213 426.297 278.097 429.755C297.787 439.023 321.887 444.461 347.972 444.461H351.007C377.092 444.461 401.192 439.023 420.882 429.755C449.766 426.297 471.633 422.66 471.633 401.174C471.111 325.221 409.3 285.566 351.007 284.398H347.972Z" fill="#F4C092"/>
<path d="M337.791 313.554H351.773C385.219 313.554 412.145 334.215 412.145 359.878V393.346C412.145 419.009 385.219 439.669 351.773 439.669H337.791C304.346 439.669 277.42 419.009 277.42 393.346V359.878C277.42 334.215 304.346 313.554 337.791 313.554Z" fill="url(#paint1_linear_2606_6997)"/>
<path d="M232.9 265.235L275.954 291.644C286.925 298.374 290.34 312.625 283.61 323.597C276.88 334.568 262.629 337.983 251.657 331.253L208.604 304.844C197.632 298.114 194.218 283.863 200.948 272.892C207.678 261.92 221.929 258.505 232.9 265.235Z" fill="#F4C092"/>
<path d="M196.24 342.171L245.854 305.007C263.523 291.771 267.092 266.89 253.857 249.221C240.621 231.552 215.741 227.982 198.071 241.218L148.458 278.382C130.788 291.618 127.219 316.498 140.455 334.168C153.691 351.837 178.571 355.407 196.24 342.171Z" fill="#F4C092"/>
<path d="M193.385 416.031H184.798C175.593 416.031 168.131 423.493 168.131 432.698C168.131 441.904 175.593 449.366 184.798 449.366H193.385C202.59 449.366 210.052 441.904 210.052 432.698C210.052 423.493 202.59 416.031 193.385 416.031Z" fill="#DBAC83"/>
<path d="M159.699 458.432C157.088 458.187 154.52 458.289 152.041 458.698C140.297 457.1 129.51 465.206 127.804 476.961L113.057 578.565C111.341 590.385 119.476 601.282 131.297 602.998C143.117 604.714 154.015 596.579 155.73 584.758C160.132 559.886 177.953 547.815 181.005 529.611L186.413 492.358C188.782 476.034 177.549 460.984 161.225 458.615C160.715 458.541 160.207 458.475 159.699 458.432Z" fill="url(#paint2_linear_2606_6997)"/>
<path d="M354.183 454.287C358.461 482.998 334.466 527.959 305.455 526.935L214.454 523.721C185.444 522.696 152.249 513.722 147.971 485.011C143.694 456.3 163.364 429.741 192.075 425.464L294.636 410.183C323.347 405.905 349.905 425.575 354.183 454.287Z" fill="url(#paint3_linear_2606_6997)"/>
<path d="M175.125 443.829C182.151 451.789 181.399 463.854 173.439 470.879L160.61 482.203C152.65 489.228 140.585 488.476 133.559 480.516C126.533 472.556 127.286 460.491 135.246 453.466L148.075 442.142C156.035 435.117 168.1 435.869 175.125 443.829Z" fill="#F7CBA3"/>
<path d="M119.975 579.34C117.405 579.577 100.937 595.131 101.059 606.414L101.098 610.072C101.106 610.832 101.136 611.604 101.19 612.378C101.499 616.696 104.119 619.989 107.217 619.956L149.608 619.521C152.709 619.491 155.258 616.14 155.47 611.812C155.509 611.042 155.522 610.277 155.513 609.515L155.474 605.856C155.315 591.117 146.626 576.888 141.295 577.379L119.975 579.34Z" fill="#F4C092"/>
<path d="M102.594 598.321C91.5197 598.434 82.475 604.856 82.558 612.546L82.5768 614.454C82.5806 614.85 82.6071 615.252 82.6611 615.656C82.806 616.742 83.533 617.747 84.6982 618.473C85.8633 619.199 87.3817 619.592 88.9527 619.576L133.509 619.119C135.081 619.103 136.592 618.678 137.741 617.927C138.891 617.177 139.595 616.156 139.715 615.066C139.759 614.664 139.776 614.265 139.773 613.868L139.754 611.959C139.671 604.272 130.497 598.035 119.423 598.148L102.594 598.321Z" fill="#F7CBA3"/>
<path d="M532.385 458.432C534.996 458.187 537.564 458.289 540.043 458.698C551.787 457.1 562.574 465.206 564.28 476.961L579.027 578.565C580.743 590.385 572.608 601.282 560.787 602.998C548.967 604.714 538.069 596.579 536.354 584.758C531.952 559.886 514.131 547.815 511.079 529.611L505.671 492.358C503.302 476.034 514.535 460.984 530.859 458.615C531.369 458.541 531.877 458.475 532.385 458.432Z" fill="url(#paint4_linear_2606_6997)"/>
<path d="M353.017 453.604C349.052 481.877 371.293 526.152 398.183 525.143L482.532 521.978C509.422 520.969 540.191 512.132 544.156 483.859C548.121 455.586 529.888 429.434 503.276 425.221L408.212 410.174C381.599 405.961 356.982 425.331 353.017 453.604Z" fill="url(#paint5_linear_2606_6997)"/>
<path d="M516.959 443.829C509.933 451.789 510.685 463.854 518.645 470.879L531.474 482.203C539.434 489.228 551.499 488.476 558.525 480.516C565.551 472.556 564.798 460.491 556.838 453.466L544.009 442.142C536.049 435.117 523.984 435.869 516.959 443.829Z" fill="#F7CBA3"/>
<path d="M572.109 579.34C574.679 579.577 591.147 595.131 591.025 606.414L590.986 610.072C590.978 610.832 590.948 611.604 590.894 612.378C590.585 616.696 587.965 619.989 584.867 619.956L542.476 619.521C539.375 619.491 536.826 616.14 536.613 611.812C536.575 611.042 536.562 610.277 536.571 609.515L536.61 605.856C536.769 591.117 545.458 576.888 550.789 577.379L572.109 579.34Z" fill="#F4C092"/>
<path d="M589.49 598.321C600.564 598.434 609.609 604.856 609.526 612.546L609.507 614.454C609.503 614.85 609.477 615.252 609.423 615.656C609.278 616.742 608.551 617.747 607.386 618.473C606.221 619.199 604.702 619.592 603.131 619.576L558.575 619.119C557.003 619.103 555.492 618.678 554.343 617.927C553.193 617.177 552.489 616.156 552.369 615.066C552.325 614.664 552.308 614.265 552.311 613.868L552.33 611.959C552.413 604.272 561.587 598.035 572.661 598.148L589.49 598.321Z" fill="#F7CBA3"/>
<path d="M272.126 406.311C267.55 406.311 263.135 407.109 258.957 408.573C263.848 466.785 300.717 511.757 345.78 511.757C391.425 511.757 428.666 465.617 432.779 406.311C432.779 406.311 432.771 406.311 432.764 406.311H272.126Z" fill="url(#paint6_linear_2606_6997)"/>
<path d="M231.83 401.296H467.149C472.304 401.296 476.454 405.289 476.454 410.248V424.109C476.454 429.069 472.304 433.061 467.149 433.061H231.83C226.675 433.061 222.525 429.069 222.525 424.109V410.248C222.525 405.289 226.675 401.296 231.83 401.296Z" fill="#5B5B5B"/>
<path d="M344.782 362.055C347.091 362.055 348.949 363.913 348.949 366.222V371.525C348.949 373.833 347.091 375.692 344.782 375.692C342.474 375.692 340.615 373.833 340.615 371.525V366.222C340.615 363.913 342.474 362.055 344.782 362.055Z" fill="#F4C092"/>
<path d="M344.783 189.015C400.334 189.015 445.055 217.513 445.055 252.911C445.055 288.31 400.334 316.808 344.783 316.808C289.231 316.808 244.51 288.31 244.51 252.911C244.51 217.513 289.231 189.015 344.783 189.015Z" fill="#F4C092"/>
<path d="M288.362 226.557H401.203C430.406 226.557 453.916 246.023 453.916 270.202V296.507C453.916 320.686 430.406 340.152 401.203 340.152H288.362C259.159 340.152 235.648 320.686 235.648 296.507V270.202C235.648 246.023 259.159 226.557 288.362 226.557Z" fill="#F4C092"/>
<path d="M285.568 227.126H403.994C425.214 227.126 442.298 244.13 442.298 265.25V300.349C442.298 314.754 425.214 326.351 403.994 326.351H285.568C264.347 326.351 247.264 314.754 247.264 300.349V265.25C247.264 244.13 264.347 227.126 285.568 227.126Z" fill="#F7CBA3"/>
<path d="M284.311 278.155H270.536C247.712 278.155 229.209 296.657 229.209 319.481C229.209 342.305 247.712 360.808 270.536 360.808H284.311C307.135 360.808 325.638 342.305 325.638 319.481C325.638 296.657 307.135 278.155 284.311 278.155Z" fill="#F4C092"/>
<path d="M408.606 280.298H394.83C372.006 280.298 353.504 298.8 353.504 321.624C353.504 344.448 372.006 362.951 394.83 362.951H408.606C431.43 362.951 449.932 344.448 449.932 321.624C449.932 298.8 431.43 280.298 408.606 280.298Z" fill="#F4C092"/>
<path d="M344.424 312.842C355.287 312.842 364.032 315.581 364.032 318.983V330.893C364.032 334.295 355.287 337.034 344.424 337.034C333.561 337.034 324.816 334.295 324.816 330.893V318.983C324.816 315.581 333.561 312.842 344.424 312.842Z" fill="#F4C092"/>
<path d="M169.9 269.742L177.218 262.412C180.992 258.632 187.074 258.627 190.855 262.401C194.635 266.175 194.64 272.258 190.866 276.038L183.548 283.368C179.773 287.148 173.691 287.153 169.911 283.379C166.13 279.605 166.125 273.522 169.9 269.742Z" fill="#F7D4B4"/>
<path d="M193.432 370.281L193.906 327.776C194.142 306.682 177.349 289.51 156.254 289.275C135.16 289.039 117.988 305.832 117.753 326.926L117.278 369.43C117.043 390.525 133.836 407.697 154.93 407.932C176.024 408.168 193.196 391.375 193.432 370.281Z" fill="#F7CBA3"/>
<path d="M183.719 417.926L184.399 357.035C184.578 341.034 171.839 328.008 155.838 327.829C139.836 327.651 126.811 340.389 126.632 356.39L125.952 417.281C125.774 433.282 138.512 446.308 154.513 446.487C170.515 446.665 183.541 433.927 183.719 417.926Z" fill="#F7CBA3"/>
<path d="M173.684 413.505H138.331C128.567 413.505 120.652 421.42 120.652 431.184V454.416C120.652 464.179 128.567 472.094 138.331 472.094H173.684C183.448 472.094 191.363 464.179 191.363 454.416V431.184C191.363 421.42 183.448 413.505 173.684 413.505Z" fill="#F7D4B4"/>
<path d="M283.299 261.992H269.524C246.7 261.992 228.197 280.495 228.197 303.319C228.197 326.143 246.7 344.645 269.524 344.645H283.299C306.123 344.645 324.626 326.143 324.626 303.319C324.626 280.495 306.123 261.992 283.299 261.992Z" fill="#F7CBA3"/>
<path d="M407.594 264.135H393.819C370.995 264.135 352.492 282.637 352.492 305.461C352.492 328.285 370.995 346.788 393.819 346.788H407.594C430.418 346.788 448.921 328.285 448.921 305.461C448.921 282.637 430.418 264.135 407.594 264.135Z" fill="#F7CBA3"/>
<path d="M436.791 368.816L418.782 299.061C412.368 274.218 427.204 249.054 452.048 242.64C476.891 236.226 502.054 251.063 508.468 275.906L526.477 345.662C532.891 370.505 518.055 395.668 493.212 402.082C468.369 408.496 443.205 393.659 436.791 368.816Z" fill="url(#paint7_linear_2606_6997)"/>
<path d="M486.305 339.408C461.788 339.467 442.102 358.12 442.165 381.229L442.292 427.792C442.319 437.9 446.122 447.137 452.442 454.326L452.61 518.87C452.656 536.4 467.03 550.475 484.839 550.43C502.647 550.384 516.947 536.236 516.901 518.706L516.743 458.227C525.429 450.598 530.835 439.702 530.802 427.577L530.675 381.014C530.611 357.904 510.823 339.348 486.305 339.408Z" fill="url(#paint8_linear_2606_6997)"/>
<path d="M240.153 220.801H451.017C473.913 220.801 492.346 236.663 492.346 256.367C492.346 276.071 473.913 291.934 451.017 291.934H240.153C217.257 291.934 198.824 276.071 198.824 256.367C198.824 236.663 217.257 220.801 240.153 220.801Z" fill="#F7CBA3"/>
<path d="M274.762 216.516C289.373 236.889 315.216 250.377 344.783 250.377C374.35 250.377 400.193 236.89 414.805 216.516H274.762Z" fill="#F4C092"/>
<path d="M344.783 144.759C365.419 144.759 382.032 164.649 382.032 189.356V207.652C382.032 232.359 365.419 252.25 344.783 252.25C324.146 252.25 307.533 232.359 307.533 207.652V189.356C307.533 164.649 324.146 144.759 344.783 144.759Z" fill="#F4C092"/>
<path d="M338.044 148.366H351.521C367.039 148.366 379.532 160.859 379.532 176.376V187.868C379.532 203.386 367.039 215.879 351.521 215.879H338.044C322.526 215.879 310.033 203.386 310.033 187.868V176.376C310.033 160.859 322.526 148.366 338.044 148.366Z" fill="#DBAC83"/>
<path d="M250.01 227.913H254.222C265.501 227.913 274.581 236.431 274.581 247.011C274.581 257.592 265.501 266.11 254.222 266.11H250.01C238.731 266.11 229.65 257.592 229.65 247.011C229.65 236.431 238.731 227.913 250.01 227.913Z" fill="#F7D4B4"/>
<path d="M431.699 229.775H435.911C447.19 229.775 456.271 238.293 456.271 248.873C456.271 259.454 447.19 267.972 435.911 267.972H431.699C420.42 267.972 411.34 259.454 411.34 248.873C411.34 238.293 420.42 229.775 431.699 229.775Z" fill="#F7D4B4"/>
<path d="M247.613 234.329H253.932C257.432 234.329 260.25 236.972 260.25 240.256C260.25 243.539 257.432 246.183 253.932 246.183H247.613C244.113 246.183 241.295 243.539 241.295 240.256C241.295 236.972 244.113 234.329 247.613 234.329Z" fill="#F7E0CA"/>
<path d="M437.244 234.794H443.563C447.063 234.794 449.881 237.438 449.881 240.722C449.881 244.005 447.063 246.649 443.563 246.649H437.244C433.744 246.649 430.926 244.005 430.926 240.722C430.926 237.438 433.744 234.794 437.244 234.794Z" fill="#F7E0CA"/>
<path d="M314.831 236.706L333.799 245.824C335.917 246.842 336.802 249.366 335.784 251.483C334.766 253.6 332.242 254.486 330.125 253.468L311.157 244.35C309.039 243.332 308.154 240.808 309.172 238.691C310.19 236.573 312.714 235.688 314.831 236.706Z" fill="#DBAC83"/>
<path d="M375.357 236.706L356.389 245.824C354.272 246.842 353.387 249.366 354.405 251.483C355.422 253.6 357.946 254.486 360.064 253.468L379.032 244.35C381.149 243.332 382.034 240.808 381.016 238.691C379.999 236.573 377.475 235.688 375.357 236.706Z" fill="#DBAC83"/>
<path d="M286.355 143.331H403.209C416.611 143.331 427.4 152.567 427.4 164.041C427.4 175.514 416.611 184.751 403.209 184.751H286.355C272.953 184.751 262.164 175.514 262.164 164.041C262.164 152.567 272.953 143.331 286.355 143.331Z" fill="#F7CBA3"/>
<path d="M287.207 148.596H402.359C412.353 148.596 420.399 155.484 420.399 164.041C420.399 172.597 412.353 179.486 402.359 179.486H287.207C277.212 179.486 269.166 172.597 269.166 164.041C269.166 155.484 277.212 148.596 287.207 148.596Z" fill="#DBAC83"/>
<path d="M336.507 68.3203H353.055C385.962 68.3203 412.453 94.8117 412.453 127.718V172.796C412.453 205.702 385.962 232.194 353.055 232.194H336.507C303.601 232.194 277.109 205.702 277.109 172.796V127.718C277.109 94.8117 303.601 68.3203 336.507 68.3203Z" fill="#F7CBA3"/>
<path d="M454.311 530.462H450.739C440.975 530.462 433.061 538.377 433.061 548.141C433.061 557.904 440.975 565.819 450.739 565.819H454.311C464.074 565.819 471.989 557.904 471.989 548.141C471.989 538.377 464.074 530.462 454.311 530.462Z" fill="#F7D2B1"/>
<path d="M493.122 516.533H463.714C452.702 516.533 443.775 525.46 443.775 536.472V584.809C443.775 595.821 452.702 604.747 463.714 604.747H493.122C504.134 604.747 513.061 595.821 513.061 584.809V536.472C513.061 525.46 504.134 516.533 493.122 516.533Z" fill="#F7D2B1"/>
<path d="M343.06 298.319H333.775C327.66 298.319 322.703 303.276 322.703 309.39V322.247C322.703 328.362 327.66 333.319 333.775 333.319H343.06C349.175 333.319 354.132 328.362 354.132 322.247V309.39C354.132 303.276 349.175 298.319 343.06 298.319Z" fill="#F4C092"/>
<path d="M490.02 304.753L492.1 314.899C493.173 320.132 498.249 323.482 503.483 322.409C508.716 321.336 512.066 316.26 510.993 311.026L508.913 300.88C507.84 295.647 502.764 292.297 497.53 293.37C492.297 294.443 488.947 299.519 490.02 304.753Z" fill="#F7D4B4"/>
<path d="M278.49 291.277H268.388C256.812 291.277 247.428 300.661 247.428 312.238C247.428 323.814 256.812 333.198 268.388 333.198H278.49C290.066 333.198 299.451 323.814 299.451 312.238C299.451 300.661 290.066 291.277 278.49 291.277Z" fill="#F7D4B4"/>
<path d="M397.181 292.792H387.08C375.504 292.792 366.119 302.176 366.119 313.753C366.119 325.329 375.504 334.713 387.08 334.713H397.181C408.758 334.713 418.142 325.329 418.142 313.753C418.142 302.176 408.758 292.792 397.181 292.792Z" fill="#F7D4B4"/>
<path d="M342.781 157.564C347.74 157.564 351.732 160.964 351.732 165.187V178.639C351.732 182.862 347.74 186.262 342.781 186.262C337.822 186.262 333.83 182.862 333.83 178.639V165.187C333.83 160.964 337.822 157.564 342.781 157.564Z" fill="#EDBA8E"/>
<path d="M334.102 172.454H351.461C354.445 172.454 356.848 175.244 356.848 178.711C356.848 182.178 354.445 184.969 351.461 184.969H334.102C331.117 184.969 328.715 182.178 328.715 178.711C328.715 175.244 331.117 172.454 334.102 172.454Z" fill="#EDBA8E"/>
<path d="M311.472 146.382H323.351C326.343 146.382 328.751 148.79 328.751 151.781C328.751 154.773 326.343 157.181 323.351 157.181H311.472C308.48 157.181 306.072 154.773 306.072 151.781C306.072 148.79 308.48 146.382 311.472 146.382Z" fill="#E7B183"/>
<path d="M313.391 151.995C316.494 151.995 318.993 154.071 318.993 156.65V158.512C318.993 161.091 316.494 163.167 313.391 163.167C310.287 163.167 307.789 161.091 307.789 158.512V156.65C307.789 154.071 310.287 151.995 313.391 151.995Z" fill="#61534B"/>
<path d="M305.957 155.862L320.6 155.796C321.812 155.791 322.792 156.762 322.797 157.974C322.801 159.186 321.831 160.166 320.619 160.171L305.977 160.237C304.765 160.243 303.785 159.272 303.779 158.06C303.774 156.848 304.745 155.868 305.957 155.862Z" fill="#61534B"/>
<path d="M309.647 140.136L331.884 148.446C333.506 149.059 334.318 150.858 333.706 152.479C333.093 154.101 331.297 154.909 329.673 154.302L307.436 145.991C305.814 145.379 305.002 143.58 305.614 141.958C306.227 140.336 308.023 139.529 309.647 140.136Z" fill="#404040"/>
<path d="M310.341 141.06C311.231 142.195 311.033 143.825 309.897 144.714L305.298 148.317C304.163 149.206 302.533 149.008 301.644 147.873C300.755 146.738 300.953 145.108 302.088 144.219L306.688 140.616C307.823 139.727 309.452 139.925 310.341 141.06Z" fill="#404040"/>
<path d="M308.328 151.658H320.376C320.945 151.658 321.403 152.594 321.403 153.758C321.403 154.921 320.945 155.858 320.376 155.858H308.328C307.759 155.858 307.301 154.921 307.301 153.758C307.301 152.594 307.759 151.658 308.328 151.658Z" fill="#E7B183"/>
<path d="M308.281 162.104H318.995C319.886 162.104 320.602 162.821 320.602 163.712C320.602 164.602 319.886 165.319 318.995 165.319H308.281C307.391 165.319 306.674 164.602 306.674 163.712C306.674 162.821 307.391 162.104 308.281 162.104Z" fill="#F7CBA3"/>
<path d="M337.093 200.77H348.047C350.029 200.77 351.625 202.366 351.625 204.349C351.625 206.332 350.029 207.928 348.047 207.928H337.093C335.11 207.928 333.514 206.332 333.514 204.349C333.514 202.366 335.11 200.77 337.093 200.77Z" fill="#D99E81"/>
<path d="M352.317 203.459L355.999 206.302C356.555 206.731 357.25 206.449 357.556 205.669L357.741 205.2C358.047 204.42 357.846 203.446 357.289 203.017L353.607 200.174C353.051 199.745 352.356 200.027 352.05 200.807L351.866 201.276C351.56 202.056 351.761 203.03 352.317 203.459Z" fill="#DBAC83"/>
<path d="M333.243 203.459L329.561 206.302C329.004 206.731 328.31 206.449 328.003 205.669L327.819 205.2C327.513 204.42 327.714 203.446 328.27 203.017L331.952 200.174C332.509 199.745 333.203 200.027 333.509 200.807L333.694 201.276C334 202.056 333.799 203.03 333.243 203.459Z" fill="#DBAC83"/>
<path d="M332.164 200.058H352.586C353.221 200.058 353.733 200.774 353.733 201.665V202.239C353.733 203.129 353.221 203.846 352.586 203.846H332.164C331.529 203.846 331.018 203.129 331.018 202.239V201.665C331.018 200.774 331.529 200.058 332.164 200.058Z" fill="#DBAC83"/>
<path d="M384.924 169.247H384.566C379.224 169.247 374.924 173.548 374.924 178.89V183.89C374.924 189.232 379.224 193.533 384.566 193.533H384.924C390.266 193.533 394.566 189.232 394.566 183.89V178.89C394.566 173.548 390.266 169.247 384.924 169.247Z" fill="#F7D4B4"/>
<path d="M300.996 169.247H300.639C295.297 169.247 290.996 173.548 290.996 178.89V183.89C290.996 189.232 295.297 193.533 300.639 193.533H300.996C306.338 193.533 310.639 189.232 310.639 183.89V178.89C310.639 173.548 306.338 169.247 300.996 169.247Z" fill="#F7D4B4"/>
<path d="M374.091 146.382H362.211C359.22 146.382 356.812 148.79 356.812 151.781C356.812 154.773 359.22 157.181 362.211 157.181H374.091C377.082 157.181 379.49 154.773 379.49 151.781C379.49 148.79 377.082 146.382 374.091 146.382Z" fill="#E7B183"/>
<path d="M372.172 151.995C369.068 151.995 366.57 154.071 366.57 156.65V158.512C366.57 161.091 369.068 163.167 372.172 163.167C375.275 163.167 377.773 161.091 377.773 158.512V156.65C377.773 154.071 375.275 151.995 372.172 151.995Z" fill="#61534B"/>
<path d="M379.606 155.862L364.963 155.796C363.751 155.791 362.771 156.762 362.766 157.974C362.762 159.186 363.731 160.166 364.943 160.171L379.586 160.237C380.798 160.243 381.778 159.272 381.783 158.06C381.788 156.848 380.817 155.868 379.606 155.862Z" fill="#61534B"/>
<path d="M375.915 140.136L353.679 148.446C352.057 149.059 351.244 150.858 351.857 152.479C352.469 154.101 354.266 154.909 355.89 154.302L378.126 145.991C379.748 145.379 380.561 143.58 379.948 141.958C379.336 140.336 377.539 139.529 375.915 140.136Z" fill="#404040"/>
<path d="M375.221 141.06C374.332 142.195 374.53 143.825 375.665 144.714L380.265 148.317C381.4 149.206 383.029 149.008 383.919 147.873C384.808 146.738 384.61 145.108 383.474 144.219L378.875 140.616C377.74 139.727 376.11 139.925 375.221 141.06Z" fill="#404040"/>
<path d="M377.235 151.658H365.187C364.618 151.658 364.16 152.594 364.16 153.758C364.16 154.921 364.618 155.858 365.187 155.858H377.235C377.804 155.858 378.262 154.921 378.262 153.758C378.262 152.594 377.804 151.658 377.235 151.658Z" fill="#E7B183"/>
<path d="M377.282 162.104H366.567C365.677 162.104 364.96 162.821 364.96 163.712C364.96 164.602 365.677 165.319 366.567 165.319H377.282C378.172 165.319 378.889 164.602 378.889 163.712C378.889 162.821 378.172 162.104 377.282 162.104Z" fill="#F7CBA3"/>
<path d="M318.652 151.819C319.977 152.638 320.385 154.365 319.565 155.69L317.922 158.348C317.103 159.674 315.376 160.081 314.051 159.262C312.726 158.443 312.318 156.716 313.138 155.391L314.781 152.733C315.6 151.407 317.326 151 318.652 151.819Z" fill="#61534B"/>
<path d="M378.117 151.819C379.442 152.638 379.849 154.365 379.03 155.69L377.387 158.348C376.568 159.674 374.841 160.081 373.516 159.262C372.19 158.443 371.783 156.716 372.602 155.391L374.246 152.733C375.065 151.407 376.791 151 378.117 151.819Z" fill="#61534B"/>
<path d="M295.03 173.269H300.08C303.648 173.269 306.52 176.141 306.52 179.709C306.52 183.276 303.648 186.148 300.08 186.148H295.03C291.462 186.148 288.59 183.276 288.59 179.709C288.59 176.141 291.462 173.269 295.03 173.269Z" fill="#F3C6AD"/>
<path d="M387.711 173.269H392.762C396.33 173.269 399.202 176.141 399.202 179.709C399.202 183.276 396.33 186.148 392.762 186.148H387.711C384.144 186.148 381.271 183.276 381.271 179.709C381.271 176.141 384.144 173.269 387.711 173.269Z" fill="#F3C6AD"/>
<path d="M303.238 172.997H304.845C305.933 172.997 306.809 173.873 306.809 174.961C306.809 176.05 305.933 176.926 304.845 176.926H303.238C302.149 176.926 301.273 176.05 301.273 174.961C301.273 173.873 302.149 172.997 303.238 172.997Z" fill="white"/>
<path d="M393.394 172.492H395.001C396.089 172.492 396.965 173.368 396.965 174.456C396.965 175.545 396.089 176.421 395.001 176.421H393.394C392.306 176.421 391.43 175.545 391.43 174.456C391.43 173.368 392.306 172.492 393.394 172.492Z" fill="white"/>
<path d="M334.799 23.4873H354.181C362.96 23.4873 370.028 30.5553 370.028 39.3348V43.2017C370.028 51.9812 362.96 59.0492 354.181 59.0492H334.799C326.019 59.0492 318.951 51.9812 318.951 43.2017V39.3348C318.951 30.5553 326.019 23.4873 334.799 23.4873Z" fill="#444444"/>
<path d="M335.737 45.2319H353.243C359.377 45.2319 364.315 50.1698 364.315 56.3034V66.2328C364.315 72.3664 359.377 77.3043 353.243 77.3043H335.737C329.604 77.3043 324.666 72.3664 324.666 66.2328V56.3034C324.666 50.1698 329.604 45.2319 335.737 45.2319Z" fill="#333333"/>
<path d="M366.043 56.0327C398.824 56.0327 425.215 83.9078 425.215 118.533C425.215 134.305 419.735 148.675 410.674 159.65V146.867C410.674 131.54 406.659 117.319 399.76 105.462C374.72 81.5 307.616 85.3955 289.045 105.462C282.145 117.319 278.131 131.54 278.131 146.867V159.65C269.069 148.675 263.59 134.305 263.59 118.533C263.59 83.9078 289.981 56.0327 322.762 56.0327H366.043Z" fill="#444444"/>
<path d="M263.59 116.7H277.732V154.328H263.59V116.7Z" fill="#444444"/>
<path d="M425.303 116.7H411.161V154.328H425.303V116.7Z" fill="#444444"/>
<path d="M343.564 64.1724H346C348.473 64.1724 350.464 66.1634 350.464 68.6366V82.184C350.464 84.6572 348.473 86.6483 346 86.6483H343.564C341.091 86.6483 339.1 84.6572 339.1 82.184V68.6366C339.1 66.1634 341.091 64.1724 343.564 64.1724Z" fill="#524C4C"/>
<path d="M325.272 71.7485C326.916 71.7485 328.239 73.072 328.239 74.7159V79.5141C328.239 81.158 326.916 82.4814 325.272 82.4814C323.628 82.4814 322.305 81.158 322.305 79.5141V74.7159C322.305 73.072 323.628 71.7485 325.272 71.7485Z" fill="#524C4C"/>
<path d="M309.237 72.2534H310.878C312.522 72.2534 313.846 73.5768 313.846 75.2207V79.3876C313.846 81.0315 312.522 82.3549 310.878 82.3549H309.237C307.593 82.3549 306.27 81.0315 306.27 79.3876V75.2207C306.27 73.5768 307.593 72.2534 309.237 72.2534Z" fill="#524C4C"/>
<path d="M265.561 175.013V198.24C265.561 201.199 267.888 203.592 270.818 203.705C271.197 203.824 271.6 203.89 272.02 203.89H285.842C281.539 196.873 278.652 188.886 277.578 180.318H273.402C270.279 179.373 267.539 177.519 265.561 175.013ZM423.244 175.013C421.26 177.527 418.509 179.385 415.375 180.328C415.308 180.324 415.242 180.318 415.174 180.318H411.986C411.96 180.536 411.926 180.751 411.896 180.968C411.75 180.982 411.604 180.994 411.457 181.003V183.724C410.113 191.005 407.45 197.812 403.723 203.89H415.174C415.587 203.89 415.985 203.827 416.359 203.71H416.93H417.771H417.887C420.864 203.649 423.244 201.232 423.244 198.24L423.244 175.013Z" fill="#404040"/>
<path d="M274.953 97.0024H279.751C281.15 97.0024 282.277 98.1288 282.277 99.5278C282.277 100.927 281.15 102.053 279.751 102.053H274.953C273.554 102.053 272.428 100.927 272.428 99.5278C272.428 98.1288 273.554 97.0024 274.953 97.0024Z" fill="#524C4C"/>
<path d="M273.059 109.377H276.595C277.924 109.377 278.994 110.447 278.994 111.776C278.994 113.105 277.924 114.175 276.595 114.175H273.059C271.73 114.175 270.66 113.105 270.66 111.776C270.66 110.447 271.73 109.377 273.059 109.377Z" fill="#524C4C"/>
<path d="M338.317 28.1758H341.019C342.348 28.1758 343.418 29.2458 343.418 30.5749V35.4195C343.418 36.7486 342.348 37.8186 341.019 37.8186H338.317C336.988 37.8186 335.918 36.7486 335.918 35.4195V30.5749C335.918 29.2458 336.988 28.1758 338.317 28.1758Z" fill="#524C4C"/>
<path d="M349.745 26.7471H353.161C354.49 26.7471 355.56 27.8171 355.56 29.1462V37.5622C355.56 38.8914 354.49 39.9614 353.161 39.9614H349.745C348.416 39.9614 347.346 38.8914 347.346 37.5622V29.1462C347.346 27.8171 348.416 26.7471 349.745 26.7471Z" fill="#524C4C"/>
<path d="M363.533 71.7485C361.889 71.7485 360.565 73.072 360.565 74.7159V79.5141C360.565 81.158 361.889 82.4814 363.533 82.4814C365.177 82.4814 366.5 81.158 366.5 79.5141V74.7159C366.5 73.072 365.177 71.7485 363.533 71.7485Z" fill="#524C4C"/>
<path d="M379.568 72.2534H377.926C376.282 72.2534 374.959 73.5768 374.959 75.2207V79.3876C374.959 81.0315 376.282 82.3549 377.926 82.3549H379.568C381.212 82.3549 382.535 81.0315 382.535 79.3876V75.2207C382.535 73.5768 381.212 72.2534 379.568 72.2534Z" fill="#524C4C"/>
<path d="M413.85 97.0024H409.051C407.652 97.0024 406.526 98.1288 406.526 99.5278C406.526 100.927 407.652 102.053 409.051 102.053H413.85C415.249 102.053 416.375 100.927 416.375 99.5278C416.375 98.1288 415.249 97.0024 413.85 97.0024Z" fill="#524C4C"/>
<path d="M415.745 109.377H412.21C410.881 109.377 409.811 110.447 409.811 111.776C409.811 113.105 410.881 114.175 412.21 114.175H415.745C417.075 114.175 418.145 113.105 418.145 111.776C418.145 110.447 417.075 109.377 415.745 109.377Z" fill="#524C4C"/>
<path d="M240.153 218.912C225.339 218.912 212.309 225.337 204.497 235.248C201.888 236.457 199.339 237.908 196.938 239.707L147.325 276.867C128.844 290.71 125.102 316.821 138.946 335.302C152.79 353.783 178.893 357.525 197.374 343.681L227.581 321.056C227.916 330.062 230.888 338.345 235.893 345.113C230.828 356.576 227.696 369.726 226.296 384.867H230.073C231.469 369.772 234.586 356.806 239.635 345.695C239.778 345.381 239.832 345.034 239.792 344.692C239.751 344.35 239.618 344.025 239.407 343.753C234.196 337.07 231.094 328.665 231.094 319.482C231.094 318.853 231.11 318.225 231.139 317.599C231.155 317.257 231.077 316.917 230.914 316.616C230.752 316.314 230.51 316.063 230.216 315.888L230.165 315.849C229.843 315.659 229.471 315.569 229.098 315.59C228.724 315.612 228.366 315.743 228.067 315.968L195.108 340.66C178.25 353.287 154.593 349.892 141.965 333.035C129.338 316.177 132.733 292.52 149.59 279.892L199.204 242.734C201.495 241.018 203.913 239.605 206.417 238.474C206.702 238.345 206.95 238.147 207.139 237.898C214.129 228.787 226.247 222.691 240.153 222.691H261.274V218.912L240.153 218.912ZM421.631 218.914V222.691H451.016C470.878 222.691 487.012 235.077 489.964 251.031C490.048 251.491 490.3 251.904 490.671 252.189C498.272 258.014 504.046 266.334 506.639 276.38L524.651 346.132C525.79 350.544 525.994 354.923 525.801 359.234C517.756 346.312 503.295 337.476 486.301 337.517C462.277 337.575 442.577 354.869 440.467 377.15C440.462 377.212 440.459 377.274 440.46 377.335V384.867H444.239V377.46C446.185 357.222 464.109 341.35 486.31 341.296C504.108 341.253 519.228 351.421 525.573 365.849C525.736 366.222 526.015 366.533 526.369 366.734C526.723 366.936 527.132 367.018 527.536 366.968C527.94 366.918 528.318 366.739 528.612 366.458C528.906 366.176 529.101 365.807 529.169 365.406C530.281 358.888 530.068 352.02 528.304 345.187L510.3 275.435C507.549 264.779 501.4 255.951 493.395 249.65C489.712 232.011 472.155 218.914 451.017 218.914L421.631 218.914ZM261.192 433.06C272.963 479.769 306.084 513.65 345.78 513.65C385.473 513.65 418.582 479.76 430.354 433.06H426.548C414.903 478.061 383.076 509.869 345.78 509.869C308.484 509.869 276.667 478.056 265.024 433.06H261.192Z" fill="#4C4C4C"/>
<path d="M347.971 284.398C261.419 296.321 228.383 327.747 227.346 401.173C227.346 422.659 249.21 426.296 278.094 429.753C297.784 439.022 321.886 444.46 347.971 444.46H351.004C377.089 444.46 401.191 439.022 420.881 429.753C428.641 428.825 435.887 427.881 442.346 426.584V345.708C442.346 339.928 444.663 334.708 448.422 330.923C425.048 300.813 387.343 285.126 351.004 284.398H347.971Z" fill="#474747"/>
<path d="M337.789 313.554H351.771C385.217 313.554 412.143 334.215 412.143 359.878V393.346C412.143 419.009 385.217 439.669 351.771 439.669H337.789C304.344 439.669 277.418 419.009 277.418 393.346V359.878C277.418 334.215 304.344 313.554 337.789 313.554Z" fill="url(#paint9_linear_2606_6997)"/>
<path d="M232.9 265.235L275.954 291.644C286.925 298.374 290.34 312.625 283.61 323.596C276.88 334.568 262.629 337.983 251.657 331.253L208.604 304.844C197.632 298.114 194.218 283.863 200.948 272.891C207.678 261.919 221.929 258.505 232.9 265.235Z" fill="#F4C092"/>
<path d="M196.24 342.17L245.854 305.006C263.523 291.77 267.092 266.89 253.857 249.221C240.621 231.551 215.741 227.982 198.071 241.218L148.458 278.382C130.788 291.618 127.219 316.498 140.455 334.167C153.691 351.837 178.571 355.406 196.24 342.17Z" fill="#474747"/>
<path d="M272.126 406.311C267.55 406.311 263.135 407.109 258.957 408.573C263.848 466.785 300.717 511.757 345.78 511.757C391.425 511.757 428.666 465.617 432.779 406.311C432.779 406.311 432.771 406.311 432.764 406.311H272.126Z" fill="url(#paint10_linear_2606_6997)"/>
<path d="M291.198 419.947C287.806 419.947 284.533 420.539 281.436 421.624C285.062 464.78 312.394 498.119 345.801 498.119C379.64 498.119 407.248 463.914 410.298 419.947C410.298 419.947 410.294 419.947 410.286 419.947H291.198Z" fill="#ECECEC"/>
<path d="M235.92 416.891C227.963 416.891 220.488 418.766 213.955 422.076C225.952 430.003 233.773 443.164 233.773 458.118V486.492C233.773 502.159 225.19 515.857 212.213 523.631C219.145 527.517 227.246 529.747 235.92 529.747H308.055C333.779 529.747 354.488 510.154 354.488 485.816V460.82C354.488 436.482 333.779 416.891 308.055 416.891H235.92Z" fill="url(#paint11_linear_2606_6997)"/>
<path d="M405.107 416.89C379.383 416.89 358.674 436.482 358.674 460.82V485.816C358.674 510.154 379.383 529.748 405.107 529.748H444.816C445.858 525.906 449.382 521.753 453.525 519.491C453.468 518.919 453.059 517.835 453.059 517.248V453.103C446.672 449.662 442.33 442.746 442.33 434.74V416.89H405.107Z" fill="#424242"/>
<path d="M331.558 415.02H367.419C379.031 415.02 388.379 424.368 388.379 435.981V509.217C388.379 520.829 379.031 530.177 367.419 530.177H331.558C319.946 530.177 310.598 520.829 310.598 509.217V435.981C310.598 424.368 319.946 415.02 331.558 415.02Z" fill="#ECECEC"/>
<path d="M229.828 384.867C224.673 384.867 220.523 390.924 220.523 398.449V419.478C220.523 427.002 224.673 433.06 229.828 433.06H442.658C442.425 431.335 442.296 429.578 442.291 427.792L442.174 384.867H229.828Z" fill="white"/>
<path d="M288.36 258.343H401.201C430.404 258.343 453.914 272.362 453.914 289.775V308.719C453.914 326.133 430.404 340.152 401.201 340.152H288.36C259.157 340.152 235.646 326.133 235.646 308.719V289.775C235.646 272.362 259.157 258.343 288.36 258.343Z" fill="#424242"/>
<path d="M284.068 227.164C263.549 227.943 247.264 244.629 247.264 265.25V300.349C247.264 314.754 264.348 326.351 285.568 326.351H403.994C425.215 326.351 442.297 314.754 442.297 300.349V265.25C442.297 244.63 426.013 227.944 405.494 227.164C390.413 241.456 368.829 250.376 344.781 250.376C320.734 250.376 299.15 241.456 284.068 227.164Z" fill="#4C4C4C"/>
<path d="M270.534 278.154H284.309C307.204 278.154 325.636 296.586 325.636 319.481C325.636 342.376 307.204 360.807 284.309 360.807H270.534C247.639 360.807 229.207 342.376 229.207 319.481C229.207 296.586 247.639 278.154 270.534 278.154Z" fill="#424242"/>
<path d="M394.828 280.297H408.604C431.499 280.297 449.931 298.729 449.931 321.623C449.931 344.518 431.499 362.95 408.604 362.95H394.828C371.934 362.95 353.502 344.518 353.502 321.623C353.502 298.729 371.934 280.297 394.828 280.297Z" fill="#424242"/>
<path d="M344.424 312.842C355.287 312.842 364.032 315.581 364.032 318.983V330.893C364.032 334.295 355.287 337.034 344.424 337.034C333.561 337.034 324.816 334.295 324.816 330.893V318.983C324.816 315.581 333.561 312.842 344.424 312.842Z" fill="#424242"/>
<path d="M144.513 282.792L153.189 277.136C157.664 274.219 163.616 275.473 166.533 279.948C169.45 284.424 168.196 290.375 163.721 293.292L155.044 298.948C150.569 301.865 144.618 300.611 141.7 296.136C138.783 291.661 140.037 285.709 144.513 282.792Z" fill="#4C4C4C"/>
<path d="M269.524 261.992H283.299C306.194 261.992 324.626 280.424 324.626 303.319C324.626 326.214 306.194 344.645 283.299 344.645H269.524C246.629 344.645 228.197 326.214 228.197 303.319C228.197 280.424 246.629 261.992 269.524 261.992Z" fill="#4C4C4C"/>
<path d="M393.819 264.135H407.594C430.489 264.135 448.921 282.566 448.921 305.461C448.921 328.356 430.489 346.788 407.594 346.788H393.819C370.924 346.788 352.492 328.356 352.492 305.461C352.492 282.566 370.924 264.135 393.819 264.135Z" fill="#4C4C4C"/>
<path d="M240.152 220.8C217.256 220.8 198.822 236.663 198.822 256.367C198.822 276.071 217.256 291.933 240.152 291.933H451.014C473.91 291.933 492.344 276.071 492.344 256.367C492.344 236.663 473.91 220.8 451.014 220.8H411.469C396.445 238.756 372.22 250.376 344.781 250.376C317.342 250.376 293.118 238.756 278.094 220.8H240.152Z" fill="#4C4C4C"/>
<path d="M463.646 241.148C459.821 241.156 455.93 241.638 452.048 242.64C427.205 249.054 412.369 274.217 418.782 299.06L436.792 368.816C437.98 373.417 439.813 377.674 442.165 381.517L442.165 381.228C442.102 358.119 461.789 339.468 486.306 339.408C504.827 339.363 520.643 349.945 527.302 365.086C528.371 358.823 528.174 352.233 526.478 345.662L508.47 275.906C503.058 254.945 484.299 241.108 463.646 241.148Z" fill="#4C4C4C"/>
<path d="M418.121 278.681C416.862 285.226 417.001 292.155 418.783 299.06L436.793 368.816C437.981 373.416 439.813 377.674 442.166 381.517L442.166 381.228C442.153 376.497 442.97 371.953 444.484 367.716C444.422 367.487 444.353 367.262 444.293 367.031L426.283 297.275C426.044 296.348 425.837 295.421 425.656 294.494C422.237 290.179 419.622 284.768 418.121 278.681Z" fill="#424242"/>
<path d="M260.821 210.209C266.49 207.389 273.324 209.681 276.145 215.349L279.009 221.104C281.83 226.773 279.538 233.607 273.869 236.428C268.201 239.249 261.367 236.956 258.546 231.288L255.682 225.533C252.861 219.865 255.153 213.03 260.821 210.209Z" fill="#4C4C4C"/>
<path d="M426.013 209.138C420.344 206.317 413.51 208.609 410.689 214.277L407.825 220.033C405.004 225.701 407.296 232.535 412.965 235.356C418.633 238.177 425.467 235.885 428.288 230.216L431.152 224.461C433.973 218.793 431.681 211.959 426.013 209.138Z" fill="#4C4C4C"/>
<path d="M240.918 226.902H245.13C256.409 226.902 265.489 235.42 265.489 246C265.489 256.581 256.409 265.099 245.13 265.099H240.918C229.639 265.099 220.559 256.581 220.559 246C220.559 235.42 229.639 226.902 240.918 226.902Z" fill="#535353"/>
<path d="M452.406 229.775H456.618C467.897 229.775 476.978 238.293 476.978 248.873C476.978 259.454 467.897 267.972 456.618 267.972H452.406C441.127 267.972 432.047 259.454 432.047 248.873C432.047 238.293 441.127 229.775 452.406 229.775Z" fill="#535353"/>
<path d="M238.52 233.318H244.838C248.338 233.318 251.156 235.962 251.156 239.245C251.156 242.529 248.338 245.173 244.838 245.173H238.52C235.019 245.173 232.201 242.529 232.201 239.245C232.201 235.962 235.019 233.318 238.52 233.318Z" fill="#5A5A5A"/>
<path d="M457.953 234.794H464.272C467.772 234.794 470.59 237.437 470.59 240.721C470.59 244.005 467.772 246.648 464.272 246.648H457.953C454.453 246.648 451.635 244.005 451.635 240.721C451.635 237.437 454.453 234.794 457.953 234.794Z" fill="#5A5A5A"/>
<path d="M333.775 298.318H343.06C349.194 298.318 354.132 303.256 354.132 309.39V322.247C354.132 328.38 349.194 333.318 343.06 333.318H333.775C327.641 333.318 322.703 328.38 322.703 322.247V309.39C322.703 303.256 327.641 298.318 333.775 298.318Z" fill="#424242"/>
<path d="M490.02 304.753L492.1 314.899C493.173 320.132 498.249 323.482 503.483 322.409C508.716 321.336 512.066 316.26 510.993 311.026L508.913 300.88C507.84 295.647 502.764 292.297 497.53 293.37C492.297 294.443 488.947 299.519 490.02 304.753Z" fill="#535353"/>
<path d="M268.386 291.276H278.488C290.1 291.276 299.449 300.625 299.449 312.237C299.449 323.849 290.1 333.198 278.488 333.198H268.386C256.774 333.198 247.426 323.849 247.426 312.237C247.426 300.625 256.774 291.276 268.386 291.276Z" fill="url(#paint12_linear_2606_6997)"/>
<path d="M387.08 292.792H397.181C408.794 292.792 418.142 302.14 418.142 313.753C418.142 325.365 408.794 334.713 397.181 334.713H387.08C375.468 334.713 366.119 325.365 366.119 313.753C366.119 302.14 375.468 292.792 387.08 292.792Z" fill="url(#paint13_linear_2606_6997)"/>
<path d="M478.846 255.52L483.855 264.586C486.438 269.262 492.282 270.946 496.958 268.362C501.634 265.779 503.319 259.935 500.735 255.259L495.726 246.193C493.143 241.517 487.298 239.833 482.622 242.417C477.947 245 476.262 250.844 478.846 255.52Z" fill="#4C4C4C"/>
<defs>
<linearGradient id="paint0_linear_2606_6997" x1="320.204" y1="332.533" x2="320.204" y2="296.819" gradientUnits="userSpaceOnUse">
<stop stop-color="#D79B70"/>
<stop offset="1" stop-color="#C68858"/>
</linearGradient>
<linearGradient id="paint1_linear_2606_6997" x1="338.846" y1="328.003" x2="342.887" y2="444.17" gradientUnits="userSpaceOnUse">
<stop stop-color="#F7D4B4"/>
<stop offset="1" stop-color="#F7CBA3"/>
</linearGradient>
<linearGradient id="paint2_linear_2606_6997" x1="142.27" y1="563.873" x2="162.978" y2="475.99" gradientUnits="userSpaceOnUse">
<stop stop-color="#F4C092"/>
<stop offset="1" stop-color="#F7CBA3"/>
</linearGradient>
<linearGradient id="paint3_linear_2606_6997" x1="215.927" y1="474.953" x2="264.202" y2="476.814" gradientUnits="userSpaceOnUse">
<stop stop-color="#F7CBA3"/>
<stop offset="1" stop-color="#DBAC83"/>
</linearGradient>
<linearGradient id="paint4_linear_2606_6997" x1="549.814" y1="563.873" x2="529.106" y2="475.99" gradientUnits="userSpaceOnUse">
<stop stop-color="#F4C092"/>
<stop offset="1" stop-color="#F7CBA3"/>
</linearGradient>
<linearGradient id="paint5_linear_2606_6997" x1="490.37" y1="476.376" x2="407.531" y2="478.277" gradientUnits="userSpaceOnUse">
<stop stop-color="#F7CBA3"/>
<stop offset="1" stop-color="#DBAC83"/>
</linearGradient>
<linearGradient id="paint6_linear_2606_6997" x1="361.854" y1="440.309" x2="363.089" y2="503.391" gradientUnits="userSpaceOnUse">
<stop stop-color="#404040"/>
<stop offset="1" stop-color="#4F4F4F"/>
</linearGradient>
<linearGradient id="paint7_linear_2606_6997" x1="501.63" y1="333.318" x2="470.916" y2="256.175" gradientUnits="userSpaceOnUse">
<stop stop-color="#F7CBA3"/>
<stop offset="1" stop-color="#F4C092"/>
</linearGradient>
<linearGradient id="paint8_linear_2606_6997" x1="485.203" y1="396.282" x2="484.568" y2="555.173" gradientUnits="userSpaceOnUse">
<stop stop-color="#F7D2B1"/>
<stop offset="1" stop-color="#F7CBA3"/>
</linearGradient>
<linearGradient id="paint9_linear_2606_6997" x1="335.916" y1="347.961" x2="335.559" y2="393.319" gradientUnits="userSpaceOnUse">
<stop stop-color="#4C4C4C"/>
<stop offset="1" stop-color="#4C4C4C" stop-opacity="0"/>
</linearGradient>
<linearGradient id="paint10_linear_2606_6997" x1="361.854" y1="440.309" x2="363.089" y2="503.391" gradientUnits="userSpaceOnUse">
<stop stop-color="#404040"/>
<stop offset="1" stop-color="#4F4F4F"/>
</linearGradient>
<linearGradient id="paint11_linear_2606_6997" x1="292.377" y1="482.195" x2="243.89" y2="482.195" gradientUnits="userSpaceOnUse">
<stop stop-color="#424242"/>
<stop offset="1" stop-color="#4C4C4C"/>
</linearGradient>
<linearGradient id="paint12_linear_2606_6997" x1="273.059" y1="304.747" x2="273.773" y2="347.604" gradientUnits="userSpaceOnUse">
<stop stop-color="#535353"/>
<stop offset="1" stop-color="#535353" stop-opacity="0"/>
</linearGradient>
<linearGradient id="paint13_linear_2606_6997" x1="273.06" y1="304.747" x2="273.774" y2="347.604" gradientUnits="userSpaceOnUse">
<stop stop-color="#535353"/>
<stop offset="1" stop-color="#535353" stop-opacity="0"/>
</linearGradient>
</defs>
</svg>
