<svg width="755" height="751" viewBox="0 0 755 751" fill="none" xmlns="http://www.w3.org/2000/svg">
<path d="M662.184 564.783H721.588C738.99 564.783 753 578.793 753 596.195V702.066C753 719.468 738.99 733.478 721.588 733.478H662.184C644.781 733.478 630.771 719.468 630.771 702.066V596.195C630.771 578.793 644.781 564.783 662.184 564.783Z" fill="#6E5B4B"/>
<path d="M639.326 544.069H721.964C739.366 544.069 753.376 558.079 753.376 575.481V681.352C753.376 698.754 739.366 712.764 721.964 712.764H639.326C621.924 712.764 607.914 698.754 607.914 681.352V575.481C607.914 558.079 621.924 544.069 639.326 544.069Z" fill="#ADAEAC"/>
<path d="M694.017 390.635C694.017 432.658 685.629 474.269 669.332 513.093C653.035 551.918 629.148 587.194 599.036 616.909C568.923 646.624 533.174 670.195 493.83 686.276C454.486 702.358 412.317 710.635 369.731 710.635C327.145 710.635 284.976 702.358 245.632 686.276C206.288 670.195 170.539 646.624 140.426 616.909C110.314 587.194 86.427 551.918 70.1301 513.093C53.8332 474.269 45.4453 432.658 45.4453 390.635C45.4453 305.765 79.611 224.372 140.426 164.361C201.242 104.349 283.725 70.6348 369.731 70.6348C455.737 70.6348 538.22 104.349 599.036 164.361C659.851 224.372 694.017 305.765 694.017 390.635Z" fill="url(#paint0_linear_2606_6397)"/>
<path d="M196.445 120.415C151.629 148.421 114.459 186.847 88.1948 232.326C61.9302 277.805 47.3728 328.948 45.7988 381.27C54.9158 385.303 65.0069 387.56 75.6504 387.56H304.223C344.981 387.56 377.793 354.746 377.793 313.987V193.987C377.793 153.229 344.981 120.415 304.223 120.415H196.445Z" fill="#E4F4FA" fill-opacity="0.996078"/>
<path d="M295.775 211.728C287.007 211.728 279.916 218.64 279.625 227.335C278.154 227.038 276.63 226.88 275.068 226.88H217.488C205.407 226.88 195.593 236.215 194.816 248.093H89.1992C85.6672 248.093 82.262 248.607 79.043 249.55C70.5817 266.49 63.6569 284.137 58.3496 302.282C64.5876 312.794 76.04 319.815 89.1992 319.815H198.297C218.164 319.815 234.156 303.821 234.156 283.954C234.156 279.883 233.475 275.978 232.236 272.337H275.068C287.66 272.337 297.797 262.2 297.797 249.608C297.797 247.69 297.558 245.831 297.115 244.054H304.867C313.821 244.054 321.029 236.844 321.029 227.89C321.029 218.936 313.821 211.728 304.867 211.728H295.775ZM349.314 263.245C340.36 263.245 333.152 270.455 333.152 279.409V297.591C333.152 306.545 340.36 313.753 349.314 313.753H377.793V263.245H349.314Z" fill="#CEE9F4"/>
<path d="M380.842 84.4502C376.806 84.4502 373.559 89.6361 373.559 96.0791V325.356C373.559 331.799 376.806 336.987 380.842 336.987C384.877 336.987 388.127 331.799 388.127 325.356V96.0791C388.127 89.6361 384.877 84.4502 380.842 84.4502ZM477.98 89.2236C477.102 91.1446 476.578 93.5081 476.578 96.0791V325.356C476.578 331.799 479.828 336.987 483.863 336.987C487.899 336.987 491.146 331.799 491.146 325.356V96.0791C491.146 95.3566 491.101 94.6531 491.024 93.9678C486.711 92.2946 482.362 90.7129 477.98 89.2236ZM566.07 136.19V325.356C566.07 331.799 569.32 336.987 573.355 336.987C577.391 336.987 580.639 331.799 580.639 325.356V147.853C575.897 143.827 571.039 139.938 566.07 136.19Z" fill="#393939"/>
<path d="M212.439 148.089C210.761 148.089 209.632 149.439 209.91 151.118L241.23 340.017C241.509 341.695 243.085 343.048 244.764 343.048C246.443 343.048 247.569 341.695 247.291 340.017L215.971 151.118C215.692 149.439 214.118 148.089 212.439 148.089ZM288.705 148.089C287.026 148.089 285.899 149.439 286.178 151.118L317.498 340.017C317.776 341.695 319.35 343.048 321.029 343.048C322.708 343.048 323.837 341.695 323.559 340.017L292.238 151.118C291.96 149.439 290.384 148.089 288.705 148.089ZM141.756 163.489C140.005 165.214 138.273 166.959 136.562 168.724L164.965 340.017C165.243 341.695 166.817 343.048 168.496 343.048C170.175 343.048 171.304 341.695 171.025 340.017L141.756 163.489Z" fill="#4D525A"/>
<path d="M111.451 276.13C92.9919 276.13 75.8786 281.675 61.668 291.19C50.9738 323.285 45.4978 356.849 45.4434 390.634C45.4657 438.079 56.1794 484.926 76.8086 527.782C87.453 532.238 99.1528 534.702 111.451 534.702H659.264C682.104 490.021 694.007 440.677 694.016 390.634C693.985 351.509 686.684 312.722 672.475 276.196C671.601 276.171 670.73 276.13 669.85 276.13H111.451Z" fill="#744519" fill-opacity="0.996078"/>
<path d="M204.151 306.13H407.866C418.906 306.13 427.794 315.018 427.794 326.059V329.059C427.794 340.1 418.906 348.988 407.866 348.988H204.151C193.111 348.988 184.223 340.1 184.223 329.059V326.059C184.223 315.018 193.111 306.13 204.151 306.13Z" fill="#434851"/>
<path d="M689.737 329.917C704.847 329.917 717.011 342.081 717.011 357.191V421.84C717.011 436.95 704.847 449.115 689.737 449.115C674.627 449.115 662.463 436.95 662.463 421.84V357.191C662.463 342.081 674.627 329.917 689.737 329.917Z" fill="#734419"/>
<path d="M726.607 376.383C740.877 376.383 752.365 387.872 752.365 402.142V494.066C752.365 508.337 740.877 519.825 726.607 519.825C712.336 519.825 700.848 508.337 700.848 494.066V402.142C700.848 387.872 712.336 376.383 726.607 376.383Z" fill="#734419"/>
<path d="M102.76 314.763C85.8679 314.763 69.441 316.659 53.6445 320.19C48.5359 342.325 45.8286 364.932 45.5684 387.632C50.3876 566.417 198.768 709.89 381.111 709.89C399.838 709.824 418.526 708.212 436.98 705.071C465.537 722.079 498.953 731.845 534.738 731.845H563.945C669.623 731.845 754.699 646.768 754.699 541.091C754.699 463.216 708.497 396.539 641.898 366.843C578.211 340.02 522.539 315.398 466.631 314.763H102.76Z" fill="#ADAEAC"/>
<path d="M100.816 328.905C83.5241 328.905 66.727 330.938 50.6348 334.755C47.2495 353.195 45.5123 371.893 45.4434 390.634C45.4434 432.657 53.8313 474.269 70.1283 513.093C86.4253 551.917 110.312 587.194 140.425 616.908C170.538 646.623 206.287 670.194 245.631 686.276C284.976 702.357 327.145 710.634 369.73 710.634C432.524 710.629 493.965 692.634 546.594 658.834C599.222 625.034 640.775 576.884 666.205 520.23C654.413 412.332 563.488 328.905 452.35 328.905H100.816Z" fill="url(#paint1_linear_2606_6397)"/>
<path d="M518.151 363.273H546.367C648.461 363.273 730.653 445.464 730.653 547.559C730.653 649.653 648.461 731.844 546.367 731.844H518.151C416.057 731.844 333.865 649.653 333.865 547.559C333.865 445.464 416.057 363.273 518.151 363.273Z" fill="#9A8671"/>
<path d="M115.823 662.558H623.637C647.993 662.558 667.601 682.166 667.601 706.522C667.601 730.877 647.993 750.485 623.637 750.485H115.823C91.4673 750.485 71.8594 730.877 71.8594 706.522C71.8594 682.166 91.4673 662.558 115.823 662.558Z" fill="#6E5B4B"/>
<path d="M104.445 522.814H635.017C674.963 522.814 707.122 558.684 707.122 603.239V618.156C707.122 662.712 674.963 698.581 635.017 698.581H104.445C64.4986 698.581 32.3398 662.712 32.3398 618.156V603.239C32.3398 558.684 64.4986 522.814 104.445 522.814Z" fill="#9A8671"/>
<path d="M105.217 652.558H634.244C652.724 652.558 667.601 669.665 667.601 690.915C667.601 712.165 652.724 729.272 634.244 729.272H105.217C86.7367 729.272 71.8594 712.165 71.8594 690.915C71.8594 669.665 86.7367 652.558 105.217 652.558Z" fill="#9A8671"/>
<path d="M164.744 677.891H584.325C597.753 677.891 608.563 685.93 608.563 695.915C608.563 705.9 597.753 713.938 584.325 713.938H164.744C151.316 713.938 140.506 705.9 140.506 695.915C140.506 685.93 151.316 677.891 164.744 677.891Z" fill="#84705E"/>
<path d="M520.709 582.242H552.852C558.589 582.242 563.209 586.861 563.209 592.599C563.209 598.337 558.589 602.956 552.852 602.956H520.709C514.971 602.956 510.352 598.337 510.352 592.599C510.352 586.861 514.971 582.242 520.709 582.242Z" fill="#9A8671"/>
<path d="M557.38 615.572H574.754C577.856 615.572 580.353 618.069 580.353 621.17C580.353 624.272 577.856 626.769 574.754 626.769H557.38C554.278 626.769 551.781 624.272 551.781 621.17C551.781 618.069 554.278 615.572 557.38 615.572Z" fill="#9A8671"/>
<path d="M190.682 496.13H723.48C732.994 496.13 740.653 503.789 740.653 513.303V524.672C740.653 534.186 732.994 541.845 723.48 541.845H190.682C181.169 541.845 173.51 534.186 173.51 524.672V513.303C173.51 503.789 181.169 496.13 190.682 496.13Z" fill="#ADAEAC"/>
<path d="M70.7657 470.328H173.296C193.862 470.328 210.419 486.885 210.419 507.451C210.419 528.017 193.862 544.574 173.296 544.574H70.7657C50.1995 544.574 33.6426 528.017 33.6426 507.451C33.6426 486.885 50.1995 470.328 70.7657 470.328Z" fill="#ADAEAC"/>
<path d="M167.993 512.754H727.618C730.136 512.754 732.163 514.781 732.163 517.3C732.163 519.818 730.136 521.845 727.618 521.845H167.993C165.475 521.845 163.447 519.818 163.447 517.3C163.447 514.781 165.475 512.754 167.993 512.754Z" fill="#8C8D8B"/>
<path d="M48.7285 477.54C39.5671 484.288 33.6426 495.149 33.6426 507.45C33.6426 519.75 39.5664 530.613 48.7266 537.36H163.336C179.906 537.36 193.246 524.021 193.246 507.45C193.246 490.88 179.906 477.54 163.336 477.54H48.7285Z" fill="#6E5B4B"/>
<path d="M369.731 69.6924C280.914 69.7452 195.98 105.64 134.655 169.046C134.553 169.153 134.477 169.282 134.434 169.423C134.391 169.565 134.381 169.714 134.406 169.86C134.431 170.006 134.49 170.143 134.578 170.262C134.666 170.381 134.781 170.478 134.913 170.544C145 175.626 156.403 178.501 168.507 178.501H468.507C504.594 178.501 534.56 153.082 541.507 119.093C541.544 118.903 541.523 118.706 541.445 118.529C541.367 118.352 541.237 118.203 541.071 118.103C489.639 86.5359 430.298 69.7705 369.731 69.6924Z" fill="#3E4248"/>
<path d="M539.542 347.25L587.565 367.459C596.987 371.425 601.38 382.202 597.415 391.625C593.45 401.047 582.672 405.441 573.25 401.475L525.227 381.266C515.805 377.301 511.411 366.523 515.377 357.101C519.342 347.678 530.12 343.285 539.542 347.25Z" fill="#9A8671"/>
<path d="M161.972 286.827C166.586 286.827 170.301 290.541 170.301 295.156V297.078C170.301 301.692 166.586 305.407 161.972 305.407C157.357 305.407 153.643 301.692 153.643 297.078V295.156C153.643 290.541 157.357 286.827 161.972 286.827Z" fill="#68401B"/>
<path d="M189.606 286.827C194.221 286.827 197.935 290.541 197.935 295.156V297.078C197.935 301.692 194.221 305.407 189.606 305.407C184.992 305.407 181.277 301.692 181.277 297.078V295.156C181.277 290.541 184.992 286.827 189.606 286.827Z" fill="#9F5E24"/>
<path d="M256.257 286.112C260.871 286.112 264.586 289.827 264.586 294.441V296.363C264.586 300.978 260.871 304.692 256.257 304.692C251.642 304.692 247.928 300.978 247.928 296.363V294.441C247.928 289.827 251.642 286.112 256.257 286.112Z" fill="#68401B"/>
<path d="M283.892 286.112C288.506 286.112 292.221 289.827 292.221 294.441V296.363C292.221 300.978 288.506 304.692 283.892 304.692C279.277 304.692 275.562 300.978 275.562 296.363V294.441C275.562 289.827 279.277 286.112 283.892 286.112Z" fill="#9F5E24"/>
<path d="M333.696 283.291C338.31 283.291 342.025 287.006 342.025 291.62V293.542C342.025 298.156 338.31 301.871 333.696 301.871C329.082 301.871 325.367 298.156 325.367 293.542V291.62C325.367 287.006 329.082 283.291 333.696 283.291Z" fill="#9F5E24"/>
<path d="M373.454 283.796C378.068 283.796 381.783 287.511 381.783 292.125V294.047C381.783 298.661 378.068 302.376 373.454 302.376C368.84 302.376 365.125 298.661 365.125 294.047V292.125C365.125 287.511 368.84 283.796 373.454 283.796Z" fill="#9F5E24"/>
<path d="M440.819 288.796C445.434 288.796 449.148 292.511 449.148 297.125V299.047C449.148 303.661 445.434 307.376 440.819 307.376C436.205 307.376 432.49 303.661 432.49 299.047V297.125C432.49 292.511 436.205 288.796 440.819 288.796Z" fill="#9F5E24"/>
<path d="M468.454 288.796C473.068 288.796 476.783 292.511 476.783 297.125V299.047C476.783 303.661 473.068 307.376 468.454 307.376C463.84 307.376 460.125 303.661 460.125 299.047V297.125C460.125 292.511 463.84 288.796 468.454 288.796Z" fill="#9F5E24"/>
<path d="M531.392 290.521C536.006 290.521 539.721 294.235 539.721 298.85V300.772C539.721 305.386 536.006 309.101 531.392 309.101C526.777 309.101 523.062 305.386 523.062 300.772V298.85C523.062 294.235 526.777 290.521 531.392 290.521Z" fill="#9F5E24"/>
<path d="M559.026 290.521C563.641 290.521 567.355 294.235 567.355 298.85V300.772C567.355 305.386 563.641 309.101 559.026 309.101C554.412 309.101 550.697 305.386 550.697 300.772V298.85C550.697 294.235 554.412 290.521 559.026 290.521Z" fill="#9F5E24"/>
<path d="M625.677 289.806C630.291 289.806 634.006 293.521 634.006 298.135V300.057C634.006 304.672 630.291 308.386 625.677 308.386C621.062 308.386 617.348 304.672 617.348 300.057V298.135C617.348 293.521 621.062 289.806 625.677 289.806Z" fill="#9F5E24"/>
<path d="M653.311 289.806C657.926 289.806 661.64 293.521 661.64 298.135V300.057C661.64 304.672 657.926 308.386 653.311 308.386C648.697 308.386 644.982 304.672 644.982 300.057V298.135C644.982 293.521 648.697 289.806 653.311 289.806Z" fill="#9F5E24"/>
<path d="M497.046 283.449C501.66 283.449 505.375 287.164 505.375 291.778V293.7C505.375 298.315 501.66 302.029 497.046 302.029C492.432 302.029 488.717 298.315 488.717 293.7V291.778C488.717 287.164 492.432 283.449 497.046 283.449Z" fill="#9F5E24"/>
<path d="M406.136 285.521C410.75 285.521 414.465 289.235 414.465 293.85V295.772C414.465 300.386 410.75 304.101 406.136 304.101C401.521 304.101 397.807 300.386 397.807 295.772V293.85C397.807 289.235 401.521 285.521 406.136 285.521Z" fill="#9F5E24"/>
<path d="M637.294 334.758C641.908 334.758 645.623 338.473 645.623 343.087V345.009C645.623 349.623 641.908 353.338 637.294 353.338C632.68 353.338 628.965 349.623 628.965 345.009V343.087C628.965 338.473 632.68 334.758 637.294 334.758Z" fill="#9F5E24"/>
<path d="M664.929 334.758C669.543 334.758 673.258 338.473 673.258 343.087V345.009C673.258 349.623 669.543 353.338 664.929 353.338C660.314 353.338 656.6 349.623 656.6 345.009V343.087C656.6 338.473 660.314 334.758 664.929 334.758Z" fill="#9F5E24"/>
<path d="M220.921 286.827C225.535 286.827 229.25 290.541 229.25 295.156V297.078C229.25 301.692 225.535 305.407 220.921 305.407C216.307 305.407 212.592 301.692 212.592 297.078V295.156C212.592 290.541 216.307 286.827 220.921 286.827Z" fill="#9F5E24"/>
<path d="M116.876 287.836C121.49 287.836 125.205 291.551 125.205 296.165V298.088C125.205 302.702 121.49 306.417 116.876 306.417C112.262 306.417 108.547 302.702 108.547 298.088V296.165C108.547 291.551 112.262 287.836 116.876 287.836Z" fill="#9F5E24"/>
<path d="M79.4989 287.836C84.1132 287.836 87.828 291.551 87.828 296.165V298.088C87.828 302.702 84.1132 306.417 79.4989 306.417C74.8847 306.417 71.1699 302.702 71.1699 298.088V296.165C71.1699 291.551 74.8847 287.836 79.4989 287.836Z" fill="#68401B"/>
<path d="M571.798 309.208C576.412 309.208 580.127 312.923 580.127 317.537V319.459C580.127 324.073 576.412 327.788 571.798 327.788C567.183 327.788 563.469 324.073 563.469 319.459V317.537C563.469 312.923 567.183 309.208 571.798 309.208Z" fill="#68401B"/>
<path d="M611.554 309.713C616.168 309.713 619.883 313.428 619.883 318.042V319.964C619.883 324.579 616.168 328.294 611.554 328.294C606.939 328.294 603.225 324.579 603.225 319.964V318.042C603.225 313.428 606.939 309.713 611.554 309.713Z" fill="#68401B"/>
<path d="M643.88 310.724C648.494 310.724 652.209 314.438 652.209 319.053V320.975C652.209 325.589 648.494 329.304 643.88 329.304C639.265 329.304 635.551 325.589 635.551 320.975V319.053C635.551 314.438 639.265 310.724 643.88 310.724Z" fill="#68401B"/>
<path d="M419.694 193.273H425.893C430.508 193.273 434.222 196.988 434.222 201.602V207.087C434.222 211.701 430.508 215.416 425.893 215.416H419.694C415.08 215.416 411.365 211.701 411.365 207.087V201.602C411.365 196.988 415.08 193.273 419.694 193.273Z" fill="#FEFEFC"/>
<path d="M503.267 186.844H509.466C514.08 186.844 517.795 190.559 517.795 195.173V200.658C517.795 205.272 514.08 208.987 509.466 208.987H503.267C498.652 208.987 494.938 205.272 494.938 200.658V195.173C494.938 190.559 498.652 186.844 503.267 186.844Z" fill="#FEFEFC"/>
<path d="M595.608 192.089H601.807C606.422 192.089 610.136 195.804 610.136 200.418V205.903C610.136 210.517 606.422 214.232 601.807 214.232H595.608C590.994 214.232 587.279 210.517 587.279 205.903V200.418C587.279 195.804 590.994 192.089 595.608 192.089Z" fill="#FEFEFC"/>
<path d="M369.73 70.6338C357.284 70.6688 344.85 71.411 332.49 72.8564L350.73 149.47C352.269 155.93 357.222 161.132 361.836 161.132H386.607C391.222 161.132 393.696 155.93 392.158 149.47L373.412 70.7295C372.185 70.6907 370.958 70.6588 369.73 70.6338ZM385.633 71.0498L404.303 149.47C405.841 155.93 410.794 161.132 415.408 161.132H440.18C444.794 161.132 447.269 155.93 445.73 149.47L428.254 76.0654C414.175 73.4666 399.936 71.791 385.633 71.0498ZM320.703 74.3428C307.406 76.3922 294.251 79.2564 281.314 82.9189L297.158 149.47C298.696 155.93 303.651 161.132 308.266 161.132H333.035C337.649 161.132 340.128 155.93 338.59 149.47L320.703 74.3428ZM441.014 78.6553L457.873 149.47C459.411 155.93 464.366 161.132 468.98 161.132H493.75C498.364 161.132 500.843 155.93 499.305 149.47L485.623 92.0068C471.097 86.5061 456.189 82.044 441.014 78.6553ZM269.971 86.2803C257.034 90.4259 244.375 95.3706 232.068 101.085L243.588 149.47C245.126 155.93 250.079 161.132 254.693 161.132H279.465C284.079 161.132 286.554 155.93 285.016 149.47L269.971 86.2803ZM221.189 106.39C208.622 112.758 196.49 119.929 184.871 127.858L190.016 149.47C191.554 155.93 196.509 161.132 201.123 161.132H225.893C230.507 161.132 232.983 155.93 231.445 149.47L221.189 106.39Z" fill="url(#paint2_linear_2606_6397)"/>
<path d="M134.657 470.833C139.134 470.833 142.739 474.437 142.739 478.914V500.632C142.739 505.109 139.134 508.713 134.657 508.713C130.18 508.713 126.576 505.109 126.576 500.632V478.914C126.576 474.437 130.18 470.833 134.657 470.833Z" fill="#4D525A"/>
<path d="M154.355 489.521C158.553 489.521 161.932 492.899 161.932 497.097V504.168C161.932 508.365 158.553 511.744 154.355 511.744C150.158 511.744 146.779 508.365 146.779 504.168V497.097C146.779 492.899 150.158 489.521 154.355 489.521Z" fill="#4D525A"/>
<path d="M104.858 343.048H126.071C132.227 343.048 137.183 348.004 137.183 354.16C137.183 360.316 132.227 365.272 126.071 365.272H104.858C98.7019 365.272 93.7461 360.316 93.7461 354.16C93.7461 348.004 98.7019 343.048 104.858 343.048Z" fill="#9A8671"/>
<path d="M197 382.334H218.214C224.369 382.334 229.325 387.29 229.325 393.446C229.325 399.602 224.369 404.557 218.214 404.557H197C190.844 404.557 185.889 399.602 185.889 393.446C185.889 387.29 190.844 382.334 197 382.334Z" fill="#9A8671"/>
<path d="M127.715 558.763H148.928C155.084 558.763 160.04 563.718 160.04 569.874C160.04 576.03 155.084 580.986 148.928 580.986H127.715C121.559 580.986 116.604 576.03 116.604 569.874C116.604 563.718 121.559 558.763 127.715 558.763Z" fill="#8F7C68"/>
<path d="M219.858 598.048H241.071C247.227 598.048 252.183 603.004 252.183 609.16C252.183 615.316 247.227 620.272 241.071 620.272H219.858C213.702 620.272 208.746 615.316 208.746 609.16C208.746 603.004 213.702 598.048 219.858 598.048Z" fill="#8F7C68"/>
<path d="M639.326 544.069C621.924 544.069 607.914 559.679 607.914 579.071V681.352C607.914 698.755 621.924 712.765 639.326 712.765H721.963C723.679 712.765 725.36 712.622 727 712.36C729.011 707.739 730.143 702.545 730.143 697.046V579.071C730.143 559.679 716.133 544.069 698.73 544.069H639.326Z" fill="#9A8671"/>
<path d="M370.437 247.394L377.689 249.308C390.889 252.792 398.711 266.224 395.227 279.424L391.581 293.236C388.098 306.437 374.666 314.259 361.466 310.775L354.214 308.861C341.014 305.377 333.192 291.945 336.676 278.745L340.322 264.932C343.805 251.732 357.237 243.91 370.437 247.394Z" fill="#FBB97E"/>
<path d="M562.367 250.946L569.565 248.839C582.667 245.003 596.303 252.463 600.139 265.565L604.153 279.275C607.989 292.377 600.53 306.014 587.427 309.85L580.23 311.957C567.127 315.793 553.491 308.333 549.655 295.231L545.641 281.521C541.805 268.419 549.265 254.782 562.367 250.946Z" fill="#FBB97E"/>
<path d="M555.431 207.427C542.289 211.01 534.618 224.566 538.232 237.822L561.322 322.517C564.936 335.773 578.426 343.56 591.569 339.977C604.711 336.394 612.382 322.838 608.768 309.582L585.678 224.887C582.064 211.631 568.574 203.844 555.431 207.427Z" fill="#FBB97E"/>
<path d="M585.764 300.047L585.61 300.053C571.88 300.565 561.24 312.032 561.753 325.762L564.392 396.429C564.905 410.159 576.371 420.799 590.101 420.287L590.255 420.281C603.985 419.768 614.625 408.302 614.112 394.572L611.473 323.904C610.96 310.174 599.494 299.534 585.764 300.047Z" fill="#FBC99E" fill-opacity="0.996078"/>
<path d="M594.597 382.254H587.73C574.527 382.254 563.898 392.884 563.898 406.087V417.78C563.898 430.983 574.527 441.612 587.73 441.612H594.597C607.8 441.612 618.43 430.983 618.43 417.78V406.087C618.43 392.884 607.8 382.254 594.597 382.254Z" fill="#FAC89D"/>
<path d="M605.345 410.197C595.275 406.421 584.129 411.488 580.353 421.558L570.073 448.976C566.297 459.046 571.365 470.192 581.434 473.967C591.504 477.743 602.65 472.676 606.425 462.606L616.706 435.188C620.481 425.118 615.414 413.972 605.345 410.197Z" fill="#FAC89D"/>
<path d="M577.087 399.83C570.705 397.152 563.411 400.134 560.733 406.516L553.442 423.894C550.764 430.276 553.746 437.57 560.128 440.248C566.51 442.926 573.804 439.943 576.482 433.561L583.773 416.184C586.451 409.802 583.469 402.508 577.087 399.83Z" fill="#FFD2AC"/>
<path d="M428.283 548.501C412.496 550.759 400.922 569.13 402.902 584.288L406.648 612.958C411.955 631.81 415.783 644.612 418.102 665.018C419.107 673.862 427.316 679.924 436.508 678.609C445.7 677.294 452.29 669.115 451.285 660.271C449.736 644.674 457.282 625.578 458.243 610.385L460.106 576.105C460.847 560.749 444.28 546.212 428.494 548.471L428.283 548.501Z" fill="url(#paint3_linear_2606_6397)"/>
<path d="M428.431 413.273C427.834 413.269 427.238 413.284 426.646 413.319C407.702 414.482 399.987 435.877 401.012 454.122L404.289 512.474C405.06 526.206 406.85 539.208 410.195 549.409C412.164 555.222 411.206 558.217 409.863 563.39C409.675 574.431 419.838 583.107 432.652 582.843C445.466 582.578 460.852 574.426 457.765 563.824C456.502 559.49 454.256 553.898 456.332 550.231C462.177 535.344 465.427 520.715 465.828 507.558L467.148 450.815C467.562 433.066 446.944 413.426 428.431 413.273Z" fill="url(#paint4_linear_2606_6397)"/>
<path d="M431.261 536.996C440.136 536.812 447.176 542.821 447.045 550.469L446.901 558.92C446.77 566.567 439.52 572.871 430.645 573.055C421.77 573.238 414.73 567.229 414.861 559.582L415.006 551.131C415.136 543.483 422.386 537.179 431.261 536.996Z" fill="#FFD8B5"/>
<path d="M450.061 575.95C454.847 576.102 458.409 579.554 458.046 583.688L456.368 602.836C456.005 606.971 451.86 610.176 447.074 610.023C442.287 609.871 438.725 606.42 439.088 602.286L440.766 583.137C441.129 579.003 445.274 575.798 450.061 575.95Z" fill="url(#paint5_linear_2606_6397)"/>
<path d="M425.298 655.345C422.728 655.588 406.26 671.544 406.382 683.118L406.421 686.871C406.428 687.65 406.459 688.442 406.513 689.236C406.822 693.666 409.442 697.044 412.54 697.009L454.931 696.564C458.032 696.533 460.581 693.095 460.793 688.656C460.832 687.865 460.844 687.081 460.836 686.299L460.797 682.546C460.638 667.426 451.949 652.83 446.618 653.333L425.298 655.345Z" fill="#FBB97E"/>
<path d="M413.976 675.334C402.902 675.45 393.857 682.037 393.94 689.926L393.959 691.883C393.963 692.289 393.989 692.702 394.043 693.116C394.188 694.23 394.915 695.261 396.08 696.006C397.245 696.75 398.764 697.154 400.335 697.137L444.891 696.669C446.463 696.653 447.974 696.216 449.123 695.446C450.273 694.676 450.977 693.629 451.097 692.511C451.141 692.099 451.158 691.689 451.155 691.282L451.136 689.324C451.053 681.439 441.879 675.04 430.805 675.157L413.976 675.334Z" fill="#FBC99D"/>
<path d="M439.531 500.125C447.018 499.942 453.393 505.951 453.826 513.598L454.304 522.049C454.737 529.697 449.057 536.001 441.57 536.184C434.083 536.367 427.707 530.359 427.275 522.711L426.797 514.26C426.364 506.613 432.043 500.309 439.531 500.125Z" fill="url(#paint6_linear_2606_6397)"/>
<path d="M471.478 250.694C505.499 250.694 532.887 288.947 532.887 336.464V398.432C532.887 445.948 505.499 484.202 471.478 484.202C437.457 484.202 410.068 445.948 410.068 398.432V336.464C410.068 288.947 437.457 250.694 471.478 250.694Z" fill="url(#paint7_linear_2606_6397)"/>
<path d="M471.478 175.968C516.69 175.968 553.089 201.455 553.089 233.113C553.089 264.771 516.69 290.258 471.478 290.258C426.266 290.258 389.867 264.771 389.867 233.113C389.867 201.455 426.266 175.968 471.478 175.968Z" fill="#FBB97E"/>
<path d="M471.478 197.181C516.69 197.181 553.089 231.678 553.089 274.529C553.089 317.38 516.69 351.877 471.478 351.877C426.266 351.877 389.867 317.38 389.867 274.529C389.867 231.678 426.266 197.181 471.478 197.181Z" fill="url(#paint8_linear_2606_6397)"/>
<path d="M465.9 314.963H476.925C503.298 314.963 524.53 336.285 524.53 362.771V397.311C524.53 423.796 503.298 445.118 476.925 445.118H465.9C439.527 445.118 418.295 423.796 418.295 397.311V362.771C418.295 336.285 439.527 314.963 465.9 314.963Z" fill="#FBB97E"/>
<path d="M427.93 194.136H515.026C537.567 194.136 555.714 212.212 555.714 234.666V259.094C555.714 281.547 537.567 299.624 515.026 299.624H427.93C405.389 299.624 387.242 281.547 387.242 259.094V234.666C387.242 212.212 405.389 194.136 427.93 194.136Z" fill="#FBB97E"/>
<path d="M386.764 215.998C399.906 219.582 407.577 233.138 403.963 246.393L380.873 331.088C377.259 344.344 363.769 352.131 350.626 348.548C337.484 344.965 329.813 331.409 333.427 318.153L356.517 233.458C360.131 220.202 373.621 212.415 386.764 215.998Z" fill="#FBB97E"/>
<path d="M352.477 351.161L352.623 351.114C365.692 346.873 372.799 332.938 368.558 319.87L346.731 252.606C342.491 239.537 328.556 232.43 315.487 236.671L315.341 236.718C302.272 240.959 295.165 254.894 299.406 267.962L321.233 335.226C325.473 348.295 339.409 355.402 352.477 351.161Z" fill="#FBC99E" fill-opacity="0.996078"/>
<path d="M321.543 274.485L328.15 272.611C340.851 269.007 348.176 255.881 344.572 243.179L341.381 231.929C337.777 219.227 324.651 211.903 311.949 215.506L305.342 217.381C292.64 220.984 285.316 234.111 288.919 246.813L292.111 258.062C295.714 270.764 308.841 278.089 321.543 274.485Z" fill="#FAC89D"/>
<path d="M302.741 270.993C315.687 271.877 326.969 263.961 328.036 253.243L330.943 224.06C332.011 213.342 322.449 204.002 309.503 203.118C296.557 202.234 285.276 210.151 284.208 220.869L281.301 250.052C280.233 260.77 289.796 270.11 302.741 270.993Z" fill="#FFD2AC"/>
<path d="M343.751 246.44C350.409 244.551 354.249 237.67 352.36 231.012L347.217 212.882C345.328 206.223 338.447 202.384 331.788 204.273C325.13 206.162 321.29 213.043 323.179 219.701L328.323 237.831C330.212 244.489 337.093 248.329 343.751 246.44Z" fill="#FFD2AC"/>
<path d="M390.134 192.445H554.214C572.03 192.445 586.374 207.922 586.374 227.148C586.374 246.374 572.03 261.851 554.214 261.851H390.134C372.318 261.851 357.975 246.374 357.975 227.148C357.975 207.922 372.318 192.445 390.134 192.445Z" fill="#FBC99D"/>
<path d="M420.329 194.136H522.627C540.957 194.136 555.714 209.509 555.714 228.605V249.379C555.714 268.475 540.957 283.849 522.627 283.849H420.329C401.999 283.849 387.242 268.475 387.242 249.379V228.605C387.242 209.509 401.999 194.136 420.329 194.136Z" fill="#FBC99D"/>
<path d="M470.644 278.703C474.575 278.703 477.739 282.047 477.739 286.2V300.74C477.739 304.894 474.575 308.238 470.644 308.238C466.713 308.238 463.549 304.894 463.549 300.74V286.2C463.549 282.047 466.713 278.703 470.644 278.703Z" fill="#F09753"/>
<path d="M490.874 250.603H507.413C512.177 250.603 516.013 254.187 516.013 258.639C516.013 263.091 512.177 266.675 507.413 266.675H490.874C486.109 266.675 482.273 263.091 482.273 258.639C482.273 254.187 486.109 250.603 490.874 250.603Z" fill="#FFD8B5"/>
<path d="M432.501 250.603H449.04C453.804 250.603 457.64 254.187 457.64 258.639C457.64 263.091 453.804 266.675 449.04 266.675H432.501C427.736 266.675 423.9 263.091 423.9 258.639C423.9 254.187 427.736 250.603 432.501 250.603Z" fill="#FFD8B5"/>
<path d="M471.372 140.431C487.251 140.431 500.035 156.209 500.035 175.808V190.322C500.035 209.921 487.251 225.699 471.372 225.699C455.493 225.699 442.709 209.921 442.709 190.322V175.808C442.709 156.209 455.493 140.431 471.372 140.431Z" fill="#FBC99D"/>
<path d="M420.141 281.726H426.163C428.573 281.726 430.513 283.538 430.513 285.79C430.513 288.041 428.573 289.854 426.163 289.854H420.141C417.731 289.854 415.791 288.041 415.791 285.79C415.791 283.538 417.731 281.726 420.141 281.726Z" fill="#F2A367"/>
<path d="M518.59 281.726H524.612C527.022 281.726 528.962 283.538 528.962 285.79C528.962 288.041 527.022 289.854 524.612 289.854H518.59C516.18 289.854 514.24 288.041 514.24 285.79C514.24 283.538 516.18 281.726 518.59 281.726Z" fill="#F2A367"/>
<path d="M466.187 143.292H476.557C488.498 143.292 498.112 153.202 498.112 165.512V174.628C498.112 186.938 488.498 196.848 476.557 196.848H466.187C454.246 196.848 444.633 186.938 444.633 174.628V165.512C444.633 153.202 454.246 143.292 466.187 143.292Z" fill="url(#paint9_linear_2606_6397)"/>
<path d="M389.382 195.759H393.031C402.802 195.759 410.667 204.07 410.667 214.394C410.667 224.718 402.802 233.029 393.031 233.029H389.382C379.612 233.029 371.746 224.718 371.746 214.394C371.746 204.07 379.612 195.759 389.382 195.759Z" fill="#FFD8B5"/>
<path d="M546.771 197.577H550.42C560.19 197.577 568.056 205.888 568.056 216.212C568.056 226.536 560.19 234.847 550.42 234.847H546.771C537 234.847 529.135 226.536 529.135 216.212C529.135 205.888 537 197.577 546.771 197.577Z" fill="#FFD8B5"/>
<path d="M387.305 202.02H392.779C395.811 202.02 398.252 204.599 398.252 207.803C398.252 211.007 395.811 213.587 392.779 213.587H387.305C384.273 213.587 381.832 211.007 381.832 207.803C381.832 204.599 384.273 202.02 387.305 202.02Z" fill="#FFECDB"/>
<path d="M551.575 202.474H557.048C560.08 202.474 562.521 205.053 562.521 208.257C562.521 211.461 560.08 214.041 557.048 214.041H551.575C548.543 214.041 546.102 211.461 546.102 208.257C546.102 205.053 548.543 202.474 551.575 202.474Z" fill="#FFECDB"/>
<path d="M425.375 95.5669H519.355C530.133 95.5669 538.81 104.804 538.81 116.277C538.81 127.751 530.133 136.987 519.355 136.987H425.375C414.597 136.987 405.92 127.751 405.92 116.277C405.92 104.804 414.597 95.5669 425.375 95.5669Z" fill="#FBC99D"/>
<path d="M426.06 100.832H518.67C526.708 100.832 533.179 107.72 533.179 116.277C533.179 124.833 526.708 131.722 518.67 131.722H426.06C418.022 131.722 411.551 124.833 411.551 116.277C411.551 107.72 418.022 100.832 426.06 100.832Z" fill="#FBB97E"/>
<path d="M459.122 37.3545H485.608C507.622 37.3545 525.345 56.7497 525.345 80.8414V124.375C525.345 148.467 507.622 175.862 485.608 175.862H459.122C437.107 175.862 419.385 148.467 419.385 124.375V80.8414C419.385 56.7497 437.107 37.3545 459.122 37.3545Z" fill="#FBC99D"/>
<path d="M447.909 323.092H459.583C465.168 323.092 469.665 327.836 469.665 333.729C469.665 339.621 465.168 344.365 459.583 344.365H447.909C442.323 344.365 437.826 339.621 437.826 333.729C437.826 327.836 442.323 323.092 447.909 323.092Z" fill="#FBC99D"/>
<path d="M447.909 348.172H459.583C465.168 348.172 469.665 352.916 469.665 358.809C469.665 364.702 465.168 369.446 459.583 369.446H447.909C442.323 369.446 437.826 364.702 437.826 358.809C437.826 352.916 442.323 348.172 447.909 348.172Z" fill="#FBC99D"/>
<path d="M447.909 373.252H459.583C465.168 373.252 469.665 377.996 469.665 383.889C469.665 389.782 465.168 394.526 459.583 394.526H447.909C442.323 394.526 437.826 389.782 437.826 383.889C437.826 377.996 442.323 373.252 447.909 373.252Z" fill="#FBC99D"/>
<path d="M483.569 323.092H495.243C500.829 323.092 505.325 327.836 505.325 333.729C505.325 339.621 500.829 344.365 495.243 344.365H483.569C477.983 344.365 473.486 339.621 473.486 333.729C473.486 327.836 477.983 323.092 483.569 323.092Z" fill="#FBC99D"/>
<path d="M483.569 348.172H495.243C500.829 348.172 505.325 352.916 505.325 358.809C505.325 364.702 500.829 369.446 495.243 369.446H483.569C477.983 369.446 473.486 364.702 473.486 358.809C473.486 352.916 477.983 348.172 483.569 348.172Z" fill="#FBC99D"/>
<path d="M483.569 373.252H495.243C500.829 373.252 505.325 377.996 505.325 383.889C505.325 389.782 500.829 394.526 495.243 394.526H483.569C477.983 394.526 473.486 389.782 473.486 383.889C473.486 377.996 477.983 373.252 483.569 373.252Z" fill="#FBC99D"/>
<path d="M444.305 196.332L460.736 204.678C462.57 205.609 463.337 207.919 462.455 209.857C461.574 211.795 459.387 212.606 457.553 211.674L441.122 203.328C439.288 202.397 438.521 200.086 439.403 198.148C440.284 196.21 442.471 195.4 444.305 196.332Z" fill="#FBB97E"/>
<path d="M496.735 196.332L480.304 204.678C478.469 205.609 477.703 207.919 478.584 209.857C479.466 211.795 481.653 212.606 483.487 211.674L499.918 203.328C501.752 202.397 502.519 200.086 501.637 198.148C500.755 196.21 498.569 195.4 496.735 196.332Z" fill="#FBB97E"/>
<path d="M516.059 550.853C500.676 555.059 493.711 574.588 496.817 589.555L502.618 617.502C510.232 635.547 515.623 647.773 520.465 667.731C522.563 676.381 531.464 681.373 540.421 678.924C549.378 676.474 554.897 667.539 552.799 658.888C549.32 643.606 554.43 623.719 553.492 608.524L550.536 570.02C549.359 554.691 531.646 546.59 516.264 550.797L516.059 550.853Z" fill="url(#paint10_linear_2606_6397)"/>
<path d="M507.635 415.162C508.225 415.072 508.817 415 509.408 414.95C528.321 413.355 539.055 433.406 540.685 451.607L545.897 509.818C547.124 523.517 547.237 536.641 545.405 547.219C544.3 553.255 545.682 556.08 547.76 561.004C549.546 571.902 540.747 581.959 528.03 583.554C515.313 585.149 498.908 579.312 500.427 568.374C501.048 563.903 502.46 558.045 499.875 554.718C491.934 540.835 486.599 526.831 484.295 513.871L474.767 457.919C471.786 440.417 489.34 417.996 507.635 415.162Z" fill="url(#paint11_linear_2606_6397)"/>
<path d="M522.762 537.99C513.954 539.094 507.86 546.06 509.097 553.607L510.465 561.949C511.702 569.496 519.789 574.683 528.597 573.579C537.405 572.474 543.5 565.508 542.262 557.961L540.895 549.62C539.657 542.072 531.57 536.885 522.762 537.99Z" fill="#FFD8B5"/>
<path d="M509.804 579.257C505.09 580.101 502.066 584.032 503.024 588.07L507.46 606.773C508.417 610.811 512.983 613.382 517.697 612.538C522.411 611.694 525.435 607.763 524.477 603.725L520.042 585.021C519.084 580.983 514.518 578.412 509.804 579.257Z" fill="url(#paint12_linear_2606_6397)"/>
<path d="M509.237 502.707C501.802 503.61 496.364 510.479 497.045 518.109L497.796 526.54C498.476 534.169 505.009 539.584 512.444 538.68C519.879 537.777 525.316 530.908 524.636 523.278L523.885 514.847C523.204 507.218 516.672 501.803 509.237 502.707Z" fill="url(#paint13_linear_2606_6397)"/>
<path d="M418.199 416.811C414.832 416.811 411.584 417.333 408.51 418.291C412.109 456.364 439.236 485.778 472.392 485.778C505.977 485.778 533.378 455.6 536.404 416.811H536.393H418.199Z" fill="url(#paint14_linear_2606_6397)"/>
<path d="M407.453 406.746H534.347C537.127 406.746 539.365 409.215 539.365 412.281V420.853C539.365 423.92 537.127 426.389 534.347 426.389H407.453C404.673 426.389 402.436 423.92 402.436 420.853V412.281C402.436 409.215 404.673 406.746 407.453 406.746Z" fill="#5B5B5B"/>
<path d="M476.079 371.671C476.079 369.369 474.311 367.504 472.129 367.504C469.948 367.504 468.18 369.369 468.18 371.671V376.974C468.18 379.275 469.948 381.141 472.129 381.141C474.311 381.141 476.079 379.275 476.079 376.974V371.671Z" fill="#F2A367"/>
<path d="M582.864 307.054H590.364C604.016 307.054 615.006 318.044 615.006 331.697V345.982C615.006 359.634 604.016 370.625 590.364 370.625H582.864C569.211 370.625 558.221 359.634 558.221 345.982V331.697C558.221 318.044 569.211 307.054 582.864 307.054Z" fill="#FAC89D"/>
<path d="M332.656 287.245L339.854 285.138C352.956 281.302 366.593 288.762 370.428 301.864L374.442 315.574C378.278 328.676 370.819 342.312 357.716 346.148L350.519 348.256C337.417 352.092 323.78 344.632 319.944 331.53L315.93 317.82C312.094 304.717 319.554 291.081 332.656 287.245Z" fill="#FAC89D"/>
<path d="M547.924 655.345C550.494 655.588 566.961 671.544 566.84 683.118L566.8 686.871C566.793 687.65 566.763 688.442 566.708 689.236C566.399 693.666 563.78 697.044 560.681 697.009L518.29 696.564C515.189 696.533 512.641 693.095 512.428 688.656C512.39 687.865 512.377 687.081 512.385 686.299L512.425 682.546C512.584 667.426 521.273 652.83 526.604 653.333L547.924 655.345Z" fill="#FBB97E"/>
<path d="M559.244 675.334C570.318 675.45 579.363 682.037 579.28 689.926L579.261 691.883C579.257 692.289 579.231 692.702 579.177 693.116C579.032 694.23 578.305 695.261 577.14 696.006C575.975 696.75 574.456 697.154 572.885 697.137L528.329 696.669C526.757 696.653 525.246 696.216 524.097 695.446C522.947 694.676 522.243 693.629 522.123 692.511C522.079 692.099 522.061 691.689 522.065 691.282L522.084 689.324C522.167 681.439 531.341 675.04 542.415 675.157L559.244 675.334Z" fill="#FBC99D"/>
<path d="M466.769 164.273H475.045C475.709 164.273 476.243 164.807 476.243 165.471V166.177C476.243 166.841 475.709 167.376 475.045 167.376H466.769C466.105 167.376 465.57 166.841 465.57 166.177V165.471C465.57 164.807 466.105 164.273 466.769 164.273Z" fill="#C68858"/>
<path d="M472.365 109.09C476.137 109.09 479.173 112.87 479.173 117.567V132.525C479.173 137.222 476.137 141.002 472.365 141.002C468.593 141.002 465.557 137.222 465.557 132.525V117.567C465.557 112.87 468.593 109.09 472.365 109.09Z" fill="#F3A66A"/>
<path d="M465.096 129.846L471.455 135.249C472.509 136.145 472.636 137.714 471.74 138.768C470.845 139.822 469.276 139.949 468.222 139.054L461.863 133.65C460.809 132.755 460.681 131.186 461.577 130.132C462.472 129.078 464.042 128.95 465.096 129.846Z" fill="#F3A66A"/>
<path d="M479.634 129.846L473.275 135.249C472.221 136.145 472.093 137.714 472.989 138.768C473.884 139.822 475.453 139.949 476.507 139.054L482.866 133.65C483.92 132.755 484.048 131.186 483.152 130.132C482.257 129.078 480.688 128.95 479.634 129.846Z" fill="#F3A66A"/>
<path d="M430.67 120.286C428.988 120.286 427.633 121.64 427.633 123.321C427.633 125.003 428.988 126.358 430.67 126.358H436.74C438.422 126.358 439.777 125.003 439.777 123.321C439.777 121.64 438.422 120.286 436.74 120.286H430.67ZM507.99 120.286C506.309 120.286 504.955 121.64 504.955 123.321C504.955 125.003 506.309 126.358 507.99 126.358H514.063C515.744 126.358 517.098 125.003 517.098 123.321C517.098 121.64 515.744 120.286 514.063 120.286H507.99Z" fill="#FDDEC4"/>
<path d="M446.598 100.822H451.42C455.179 100.822 458.205 103.848 458.205 107.607C458.205 111.367 455.179 114.393 451.42 114.393H446.598C442.839 114.393 439.812 111.367 439.812 107.607C439.812 103.848 442.839 100.822 446.598 100.822Z" fill="#F3A66A"/>
<path d="M442.932 105.894C446.035 105.894 448.534 108.346 448.534 111.391V113.589C448.534 116.634 446.035 119.086 442.932 119.086C439.828 119.086 437.33 116.634 437.33 113.589V111.391C437.33 108.346 439.828 105.894 442.932 105.894Z" fill="#61534B"/>
<path d="M440.042 93.8184L457.106 98.971C458.961 99.5313 460.004 101.476 459.444 103.332C458.884 105.188 456.939 106.231 455.083 105.67L438.019 100.518C436.163 99.9573 435.12 98.0122 435.681 96.1566C436.241 94.3009 438.186 93.2581 440.042 93.8184Z" fill="#6A5436"/>
<path d="M430.382 98.7278L437.468 93.9058C438.572 93.1545 440.066 93.4385 440.817 94.5427C441.569 95.6468 441.285 97.1406 440.181 97.8919L433.094 102.714C431.99 103.465 430.496 103.181 429.745 102.077C428.994 100.973 429.278 99.4791 430.382 98.7278Z" fill="#6A5436"/>
<path d="M498.134 100.822H493.313C489.553 100.822 486.527 103.848 486.527 107.607C486.527 111.367 489.553 114.393 493.313 114.393H498.134C501.893 114.393 504.92 111.367 504.92 107.607C504.92 103.848 501.893 100.822 498.134 100.822Z" fill="#F3A66A"/>
<path d="M501.801 105.894C498.697 105.894 496.199 108.346 496.199 111.391V113.589C496.199 116.634 498.697 119.086 501.801 119.086C504.904 119.086 507.402 116.634 507.402 113.589V111.391C507.402 108.346 504.904 105.894 501.801 105.894Z" fill="#61534B"/>
<path d="M504.691 93.8184L487.627 98.971C485.771 99.5313 484.728 101.476 485.289 103.332C485.849 105.188 487.794 106.231 489.65 105.67L506.714 100.518C508.569 99.9573 509.612 98.0122 509.052 96.1566C508.491 94.3009 506.546 93.2581 504.691 93.8184Z" fill="#6A5436"/>
<path d="M514.351 98.7278L507.264 93.9058C506.16 93.1545 504.666 93.4385 503.915 94.5427C503.164 95.6468 503.448 97.1406 504.552 97.8919L511.638 102.714C512.742 103.465 514.236 103.181 514.988 102.077C515.739 100.973 515.455 99.4791 514.351 98.7278Z" fill="#6A5436"/>
<path d="M486.368 142.916H458.362C454.162 142.916 450.758 146.321 450.758 150.52V154.955C450.758 159.154 454.162 162.559 458.362 162.559H486.368C490.568 162.559 493.972 159.154 493.972 154.955V150.52C493.972 146.321 490.568 142.916 486.368 142.916Z" fill="#755C3B"/>
<path d="M482.957 152.615H461.773C459.684 152.615 457.99 154.309 457.99 156.398C457.99 158.487 459.684 160.181 461.773 160.181H482.957C485.047 160.181 486.74 158.487 486.74 156.398C486.74 154.309 485.047 152.615 482.957 152.615Z" fill="#B95C50"/>
<path d="M486.172 143.687H458.559C457.259 143.687 456.205 144.741 456.205 146.041C456.205 147.341 457.259 148.395 458.559 148.395H486.172C487.472 148.395 488.527 147.341 488.527 146.041C488.527 144.741 487.472 143.687 486.172 143.687Z" fill="white"/>
<path d="M420.914 48.0479C419.339 48.0479 417.88 48.9501 416.648 50.4884V98.8272C417.88 100.365 419.339 101.268 420.914 101.268C425.309 101.268 428.848 94.334 428.848 85.7206V63.5949C428.848 54.9815 425.309 48.0479 420.914 48.0479ZM523.813 48.0479C519.417 48.0479 515.879 54.9815 515.879 63.5949V85.7206C515.879 94.334 519.417 101.268 523.813 101.268C525.387 101.268 526.847 100.365 528.078 98.8272V50.4884C526.847 48.9501 525.387 48.0479 523.813 48.0479Z" fill="#6A5436"/>
<path d="M467.911 4.71875C436.681 4.71875 411.397 30.1111 410.523 61.7191C410.506 62.3327 410.613 62.9435 410.836 63.5154C411.059 64.0873 411.394 64.6087 411.822 65.0488C412.25 65.4888 412.762 65.8387 413.328 66.0776C413.893 66.3165 414.501 66.4397 415.115 66.4398H529.395C530.009 66.4397 530.617 66.3165 531.182 66.0776C531.748 65.8387 532.26 65.4888 532.688 65.0488C533.116 64.6087 533.451 64.0873 533.674 63.5154C533.897 62.9435 534.004 62.3327 533.987 61.7191C533.113 30.1111 507.829 4.71875 476.599 4.71875H467.911Z" fill="url(#paint15_linear_2606_6397)"/>
<path d="M485.16 46.3731C475.335 46.3731 467.208 53.3834 465.484 62.695C463.198 58.0633 458.432 54.8911 452.899 54.8911H452.355C445.43 54.8911 439.714 59.86 438.547 66.4397H505.951C505.952 66.422 505.951 66.4042 505.951 66.3866C505.951 55.2989 497.026 46.373 485.938 46.373L485.16 46.3731Z" fill="#634F33"/>
<path d="M509.763 57.2925C512.275 57.2925 514.297 59.3147 514.297 61.8266V71.1696C514.297 73.6815 512.275 75.7037 509.763 75.7037C507.251 75.7037 505.229 73.6815 505.229 71.1696V61.8266C505.229 59.3147 507.251 57.2925 509.763 57.2925Z" fill="#755C3B"/>
<path d="M518.811 58.1167C522.073 58.1167 524.699 60.7426 524.699 64.0043V76.1363C524.699 79.398 522.073 82.0238 518.811 82.0238C515.55 82.0238 512.924 79.398 512.924 76.1363V64.0043C512.924 60.7426 515.55 58.1167 518.811 58.1167Z" fill="#755C3B"/>
<path d="M527.192 57.4297C530.454 57.4297 533.08 60.0556 533.08 63.3173V75.4492C533.08 78.711 530.454 81.3368 527.192 81.3368C523.931 81.3368 521.305 78.711 521.305 75.4492V63.3173C521.305 60.0556 523.931 57.4297 527.192 57.4297Z" fill="#755C3B"/>
<path d="M433.487 57.4297C436.749 57.4297 439.375 60.0556 439.375 63.3173V75.4492C439.375 78.711 436.749 81.3368 433.487 81.3368C430.225 81.3368 427.6 78.711 427.6 75.4492V63.3173C427.6 60.0556 430.225 57.4297 433.487 57.4297Z" fill="#755C3B"/>
<path d="M424.006 57.7046C426.735 57.7046 428.932 59.9015 428.932 62.6304V72.7805C428.932 75.5094 426.735 77.7063 424.006 77.7063C421.277 77.7063 419.08 75.5094 419.08 72.7805V62.6304C419.08 59.9015 421.277 57.7046 424.006 57.7046Z" fill="#755C3B"/>
<path d="M416.037 56.8804C418.766 56.8804 420.963 59.0773 420.963 61.8062V71.9563C420.963 74.6852 418.766 76.8821 416.037 76.8821C413.308 76.8821 411.111 74.6852 411.111 71.9563V61.8062C411.111 59.0773 413.308 56.8804 416.037 56.8804Z" fill="#755C3B"/>
<path d="M125.099 90.9928C92.0291 90.9928 60.3133 104.13 36.9291 127.514C13.5449 150.898 0.407791 182.614 0.407791 215.684C0.407794 248.755 13.5449 280.47 36.9291 303.855C60.3133 327.239 92.0291 340.376 125.099 340.376C158.17 340.376 189.885 327.239 213.27 303.855C236.654 280.47 249.791 248.755 249.791 215.684C249.791 182.614 236.654 150.898 213.27 127.514C189.885 104.13 158.17 90.9928 125.099 90.9928Z" fill="#494949"/>
<path d="M125.099 100.621C94.5827 100.621 65.3161 112.744 43.7376 134.323C22.1591 155.901 10.0365 185.168 10.0365 215.684C10.0365 246.201 22.1592 275.467 43.7376 297.046C65.3161 318.624 94.5827 330.747 125.099 330.747C155.616 330.747 184.883 318.624 206.461 297.046C228.039 275.467 240.162 246.201 240.162 215.684C240.162 185.168 228.039 155.901 206.461 134.323C184.883 112.744 155.616 100.621 125.099 100.621Z" fill="url(#paint16_linear_2606_6397)"/>
<path d="M125.099 465.089C92.0291 465.089 60.3133 478.226 36.9291 501.61C13.5449 524.994 0.407793 556.71 0.407791 589.781C0.407787 606.155 3.63302 622.37 9.89936 637.498C16.1657 652.626 25.3504 666.372 36.9291 677.951C48.5078 689.529 62.2537 698.714 77.382 704.981C92.5103 711.247 108.725 714.472 125.099 714.472C141.474 714.472 157.689 711.247 172.817 704.981C187.945 698.714 201.691 689.529 213.27 677.951C224.848 666.372 234.033 652.626 240.299 637.498C246.566 622.37 249.791 606.155 249.791 589.781C249.791 556.71 236.654 524.994 213.27 501.61C189.885 478.226 158.17 465.089 125.099 465.089Z" fill="#494949"/>
<path d="M125.099 474.718C94.5827 474.718 65.3161 486.84 43.7376 508.419C22.1592 529.997 10.0365 559.264 10.0365 589.78C10.0365 604.891 13.0127 619.853 18.7951 633.813C24.5776 647.773 33.053 660.458 43.7376 671.142C54.4222 681.827 67.1066 690.302 81.0667 696.085C95.0267 701.867 109.989 704.843 125.099 704.843C140.21 704.843 155.172 701.867 169.132 696.085C183.092 690.302 195.776 681.827 206.461 671.142C217.146 660.458 225.621 647.773 231.403 633.813C237.186 619.853 240.162 604.891 240.162 589.78C240.162 559.264 228.039 529.997 206.461 508.419C184.883 486.84 155.616 474.718 125.099 474.718Z" fill="url(#paint17_linear_2606_6397)"/>
<path d="M158.728 450.406L144.818 589.201C144.739 589.96 144.363 590.656 143.771 591.138C143.18 591.619 142.422 591.847 141.663 591.772C141.286 591.735 140.92 591.624 140.586 591.445C140.251 591.266 139.956 591.024 139.715 590.731C139.475 590.438 139.295 590.1 139.185 589.737C139.075 589.375 139.037 588.994 139.075 588.617L152.978 449.84C153.014 449.461 153.125 449.094 153.304 448.759C153.483 448.423 153.726 448.127 154.02 447.885C154.313 447.644 154.652 447.464 155.015 447.354C155.379 447.244 155.761 447.207 156.139 447.245C156.517 447.282 156.884 447.393 157.218 447.572C157.553 447.752 157.849 447.995 158.089 448.289C158.33 448.582 158.51 448.92 158.619 449.284C158.729 449.647 158.766 450.029 158.728 450.406ZM106.228 599.645C106.185 600.255 105.95 600.835 105.557 601.302C105.163 601.769 104.632 602.1 104.039 602.246C103.299 602.429 102.518 602.312 101.864 601.921C101.21 601.53 100.738 600.896 100.55 600.158L66.7724 464.811C66.5882 464.068 66.7065 463.282 67.1013 462.627C67.4961 461.972 68.1351 461.5 68.8778 461.315C69.2463 461.223 69.6294 461.205 70.0051 461.261C70.3808 461.318 70.7416 461.448 71.0669 461.644C71.3922 461.84 71.6756 462.099 71.9007 462.405C72.1259 462.711 72.2885 463.058 72.3791 463.427L106.15 598.744C106.224 599.038 106.248 599.343 106.228 599.645Z" fill="#5B5B5B"/>
<path d="M262.498 484.448L262.374 484.919C261.143 489.602 263.921 494.363 268.604 495.595L351.096 517.286C355.779 518.518 360.541 515.739 361.772 511.056L361.896 510.584C363.127 505.901 360.349 501.14 355.666 499.909L273.174 478.217C268.491 476.986 263.729 479.765 262.498 484.448Z" fill="#2C272C"/>
<path d="M370.883 522.304V485.251C370.883 480.409 366.985 476.511 362.143 476.511H361.9C357.058 476.511 353.16 480.409 353.16 485.251V522.304C353.16 527.146 357.058 531.044 361.9 531.044H362.143C366.985 531.044 370.883 527.146 370.883 522.304Z" fill="#2C272C"/>
<path d="M383.928 539.169V472.074C383.928 465.986 379.026 461.084 372.938 461.084C366.85 461.084 361.948 465.986 361.948 472.074V539.169C361.948 545.258 366.85 550.159 372.938 550.159C379.026 550.159 383.928 545.258 383.928 539.169Z" fill="#5B5B5B"/>
<path d="M382.266 465.083L374.123 448.908C371.377 443.454 364.775 441.273 359.32 444.019C353.866 446.765 351.685 453.367 354.431 458.822L362.574 474.997C365.32 480.451 371.922 482.632 377.377 479.886C382.831 477.14 385.012 470.538 382.266 465.083Z" fill="#5B5B5B"/>
<path d="M122.785 565.335C119.474 565.335 116.195 565.987 113.136 567.255C110.076 568.522 107.296 570.379 104.955 572.721C102.613 575.062 100.756 577.842 99.4884 580.902C98.2212 583.961 97.569 587.24 97.569 590.552C97.569 597.239 100.226 603.653 104.955 608.382C109.684 613.111 116.098 615.768 122.785 615.768C129.473 615.768 135.887 613.111 140.616 608.382C145.345 603.653 148.002 597.239 148.002 590.552C148.002 587.24 147.35 583.961 146.082 580.902C144.815 577.842 142.958 575.062 140.616 572.721C138.275 570.379 135.495 568.522 132.435 567.255C129.376 565.987 126.097 565.335 122.785 565.335Z" fill="#5B5B5B"/>
<path d="M125.213 418.716C121.286 418.716 118.124 421.878 118.124 425.805V597.039C118.124 600.966 121.286 604.128 125.213 604.128C129.141 604.128 132.303 600.966 132.303 597.039V425.805C132.303 421.878 129.141 418.716 125.213 418.716Z" fill="#404040"/>
<path d="M315.026 511.084C311.499 502.67 301.258 498.999 292.063 502.852L132.355 569.793C123.16 573.647 118.598 583.524 122.124 591.939C125.651 600.353 135.893 604.024 145.088 600.171L304.796 533.229C313.99 529.376 318.553 519.499 315.026 511.084Z" fill="#404040"/>
<path d="M279.155 265.863L277.538 264.399C270.146 257.709 258.81 258.275 252.12 265.666L103.551 429.822C96.8612 437.214 97.4263 448.55 104.818 455.24L106.435 456.704C113.827 463.394 125.164 462.829 131.854 455.437L280.422 291.282C287.112 283.89 286.547 272.553 279.155 265.863Z" fill="#404040"/>
<path d="M279.052 255.646H277.646C272.338 255.646 268.065 259.918 268.065 265.226V487.776C268.065 493.083 272.338 497.356 277.646 497.356H279.052C284.36 497.356 288.633 493.083 288.633 487.776V265.226C288.633 259.918 284.36 255.646 279.052 255.646Z" fill="#404040"/>
<path d="M122.002 445.469L121.577 447.084C119.042 456.726 124.763 466.53 134.405 469.065L295.939 511.541C305.581 514.076 315.385 508.355 317.92 498.713L318.345 497.098C320.88 487.456 315.159 477.652 305.517 475.117L143.982 432.641C134.34 430.106 124.537 435.827 122.002 445.469Z" fill="#404040"/>
<path d="M102.34 208.226C99.7945 217.865 105.505 227.675 115.144 230.22L259.611 268.375C269.25 270.921 279.06 265.21 281.606 255.571C284.152 245.932 278.441 236.122 268.802 233.576L124.335 195.422C114.696 192.876 104.886 198.587 102.34 208.226Z" fill="#404040"/>
<path d="M303.436 262.686L305.3 251.94C307.005 242.117 300.469 232.837 290.646 231.133L258.945 225.632C249.122 223.928 239.842 230.464 238.138 240.287L236.273 251.033C234.569 260.856 241.105 270.136 250.928 271.84L282.628 277.341C292.451 279.045 301.731 272.509 303.436 262.686Z" fill="#2C272C"/>
<path d="M323.219 264.641V242.577C323.219 233.281 315.735 225.797 306.439 225.797C297.143 225.797 289.659 233.281 289.659 242.577V264.641C289.659 273.937 297.143 281.42 306.439 281.42C315.735 281.42 323.219 273.937 323.219 264.641Z" fill="#404040"/>
<path d="M260.199 253.537L262.224 245.12C264.654 235.017 258.477 224.926 248.373 222.496C238.27 220.066 228.179 226.243 225.749 236.347L223.724 244.764C221.294 254.868 227.472 264.958 237.575 267.388C247.679 269.818 257.769 263.641 260.199 253.537Z" fill="#5B5B5B"/>
<path d="M324.296 252.765C324.296 254.28 323.998 255.781 323.418 257.182C322.838 258.582 321.988 259.854 320.916 260.926C319.844 261.998 318.572 262.848 317.171 263.428C315.771 264.008 314.27 264.307 312.754 264.307C311.239 264.307 309.738 264.008 308.337 263.428C306.937 262.848 305.665 261.998 304.593 260.926C303.521 259.854 302.671 258.582 302.091 257.182C301.511 255.781 301.212 254.28 301.212 252.765V208.805C301.212 195.987 291.239 186.037 278.421 186.037C265.603 186.037 255.653 195.987 255.653 208.805V252.765C255.653 254.28 255.354 255.781 254.774 257.182C254.194 258.582 253.344 259.854 252.272 260.926C251.2 261.998 249.928 262.848 248.527 263.428C247.127 264.008 245.626 264.307 244.11 264.307C241.049 264.307 238.114 263.091 235.949 260.926C233.784 258.762 232.568 255.826 232.568 252.765V208.805C232.568 183.598 253.214 162.953 278.421 162.953C303.628 162.953 324.296 183.598 324.296 208.805V252.765Z" fill="#404040"/>
<path d="M109.676 400.681C103.174 400.681 96.7361 401.962 90.7293 404.45C84.7225 406.938 79.2646 410.585 74.6672 415.182C70.0698 419.78 66.4229 425.238 63.9348 431.244C61.4467 437.251 60.1661 443.689 60.1661 450.191C60.1661 463.322 65.3823 475.915 74.6672 485.2C83.9521 494.485 96.5451 499.701 109.676 499.701C122.807 499.701 135.4 494.485 144.684 485.2C153.969 475.915 159.186 463.322 159.186 450.191C159.186 443.689 157.905 437.251 155.417 431.244C152.929 425.238 149.282 419.78 144.685 415.182C140.087 410.585 134.629 406.938 128.622 404.45C122.616 401.962 116.178 400.681 109.676 400.681Z" fill="#5B5B5B"/>
<path d="M119.457 445.351V412.358C119.457 409.186 116.903 406.632 113.731 406.632C110.559 406.632 108.005 409.186 108.005 412.358V445.351C108.005 448.523 110.559 451.077 113.731 451.077C116.903 451.077 119.457 448.523 119.457 445.351Z" fill="#404040"/>
<path d="M120.002 417.812V387.274C120.002 381.231 115.138 376.367 109.095 376.367C103.053 376.367 98.1888 381.231 98.1888 387.274V417.812C98.1888 423.854 103.053 428.719 109.095 428.719C115.138 428.719 120.002 423.854 120.002 417.812Z" fill="#2C272C"/>
<path d="M109.675 432.038C107.291 432.038 104.93 432.507 102.728 433.42C100.525 434.332 98.5243 435.669 96.8386 437.355C95.1529 439.04 93.8158 441.042 92.9035 443.244C91.9912 445.447 91.5217 447.807 91.5217 450.191C91.5217 455.006 93.4342 459.623 96.8386 463.027C100.243 466.432 104.86 468.344 109.675 468.344C114.489 468.344 119.107 466.432 122.511 463.027C125.916 459.623 127.828 455.006 127.828 450.191C127.828 447.807 127.359 445.447 126.446 443.244C125.534 441.042 124.197 439.04 122.511 437.355C120.825 435.669 118.824 434.332 116.622 433.42C114.419 432.507 112.059 432.038 109.675 432.038Z" fill="#404040"/>
<path d="M138.168 600.537V573.429C138.168 570.256 135.614 567.702 132.442 567.702H121.914C118.742 567.702 116.188 570.256 116.188 573.429V600.537C116.188 603.709 118.742 606.263 121.914 606.263H132.442C135.614 606.263 138.168 603.709 138.168 600.537Z" fill="#6B6B6B"/>
<path d="M144.09 450.769V449.613C144.09 447.209 142.155 445.274 139.752 445.274C137.348 445.274 135.414 447.209 135.414 449.613V450.769C135.414 453.173 137.348 455.107 139.752 455.107C142.155 455.107 144.09 453.173 144.09 450.769Z" fill="#6B6B6B"/>
<path d="M83.9355 450.769V449.613C83.9355 447.209 82.0008 445.274 79.5975 445.274C77.1942 445.274 75.2594 447.209 75.2594 449.613V450.769C75.2594 453.173 77.1942 455.107 79.5975 455.107C82.0008 455.107 83.9355 453.173 83.9355 450.769Z" fill="#6B6B6B"/>
<path d="M110.254 475.93H109.097C106.694 475.93 104.759 477.865 104.759 480.268C104.759 482.672 106.694 484.606 109.097 484.606H110.254C112.657 484.606 114.592 482.672 114.592 480.268C114.592 477.865 112.657 475.93 110.254 475.93Z" fill="#6B6B6B"/>
<path d="M175.974 387.825L251.029 307.128C252.665 305.368 252.566 302.634 250.807 300.997L246.578 297.064C244.818 295.427 242.084 295.526 240.447 297.286L165.392 377.984C163.755 379.743 163.854 382.478 165.614 384.114L169.843 388.048C171.603 389.684 174.337 389.585 175.974 387.825Z" fill="#5B5B5B"/>
<path d="M215.285 241.699L217.629 231.753C218.181 229.414 216.742 227.087 214.403 226.535L208.21 225.075C205.871 224.524 203.544 225.963 202.992 228.302L200.647 238.248C200.096 240.587 201.535 242.914 203.874 243.466L210.067 244.926C212.406 245.477 214.733 244.038 215.285 241.699Z" fill="#5B5B5B"/>
<path d="M196.394 237.245L198.739 227.3C199.29 224.96 197.851 222.633 195.512 222.082L189.319 220.622C186.98 220.07 184.653 221.509 184.102 223.849L181.757 233.794C181.205 236.134 182.644 238.461 184.983 239.012L191.176 240.472C193.515 241.024 195.842 239.585 196.394 237.245Z" fill="#5B5B5B"/>
<path d="M177.221 233.982L180.127 221.655C180.523 219.975 179.49 218.304 177.81 217.908L173.364 216.86C171.685 216.464 170.014 217.498 169.618 219.177L166.712 231.505C166.316 233.184 167.349 234.855 169.028 235.251L173.474 236.299C175.154 236.695 176.825 235.662 177.221 233.982Z" fill="#5B5B5B"/>
<path d="M162.74 229.311L165.085 219.365C165.636 217.026 164.197 214.699 161.858 214.147L155.665 212.687C153.326 212.136 150.999 213.575 150.447 215.914L148.102 225.86C147.551 228.199 148.99 230.526 151.329 231.078L157.522 232.538C159.861 233.089 162.188 231.65 162.74 229.311Z" fill="#5B5B5B"/>
<path d="M323.393 519.321V479.099C323.393 473.791 319.12 469.518 313.812 469.518H311.379C306.072 469.518 301.799 473.791 301.799 479.099V519.321C301.799 524.629 306.072 528.902 311.379 528.902H313.812C319.12 528.902 323.393 524.629 323.393 519.321Z" fill="#404040"/>
<path d="M307.276 521.117C305.199 517.445 300.57 516.161 296.898 518.238L293.877 519.947C290.205 522.024 288.92 526.652 290.998 530.325C293.075 533.997 297.704 535.281 301.376 533.204L304.397 531.496C308.069 529.418 309.353 524.79 307.276 521.117Z" fill="#2C272C"/>
<path d="M505.035 179.587V190.827C505.035 210.426 490.022 226.204 471.373 226.204C452.724 226.204 437.709 210.426 437.709 190.827V179.651C428.58 182.461 420.257 184.367 413.064 189.175H390.137C370.132 189.175 354.193 206.55 354.193 227.655C354.193 228.206 354.224 228.726 354.246 229.251C353.732 230.457 353.228 231.67 352.873 232.972L348.775 248.009C347.778 248.657 346.785 249.312 345.846 250.036L358.115 291.755C362.166 294.37 365.326 298.388 366.803 303.431L368.404 308.899C369.46 311.234 370.209 313.745 370.598 316.384L370.818 317.14C371.911 320.87 371.914 324.631 371.039 328.112C370.099 338.841 363.138 347.919 353.4 351.771C354.047 352.92 355.246 353.649 356.564 353.694C369.302 353.939 381.009 345.466 384.52 332.589L393.611 299.251C394.268 297.805 394.819 296.289 395.236 294.706L398.885 280.894C399.174 279.796 399.363 278.693 399.52 277.595L402.006 268.478C417.583 284.325 442.647 294.544 471.477 294.544C500.992 294.544 526.677 283.904 542.137 267.394C540.725 272.375 540.458 277.756 542.02 283.087L546.027 296.794C547.457 301.678 550.204 305.795 553.615 309.108L557.166 322.159C557.526 323.362 558.46 324.308 559.658 324.683C562.955 312.815 573.76 304.157 586.654 304.157C597.453 304.157 606.785 310.231 611.471 319.175C612.698 318.498 613.45 317.197 613.424 315.796C613.353 313.585 613.023 311.334 612.412 309.093L608.059 293.089C609.123 288.484 609.206 283.569 607.785 278.716L603.77 265.009C602.564 260.889 600.186 257.504 597.524 254.474L590.031 226.983L590.016 226.933C589.636 206.175 573.976 189.175 554.214 189.175H529.891C522.644 184.33 514.247 182.401 505.035 179.587Z" fill="url(#paint18_linear_2606_6397)"/>
<path d="M431.586 204.72C431.179 204.653 430.761 204.721 430.396 204.913C404.533 218.561 387.035 244.79 387.035 275.032C387.035 295.137 394.869 313.423 407.646 327.452C407.404 330.578 407.232 333.738 407.232 336.968V398.525C405.627 400.295 404.153 402.572 402.715 405.804C401.086 409.465 399.518 413.944 398.131 418.847C395.357 428.653 393.319 440.122 393.244 449.954C393.244 449.966 393.244 449.981 393.244 449.992L393.961 520.172C394.078 531.637 398.182 539.532 404.93 544.26C411.677 548.987 420.763 550.602 430.898 550.602C441.034 550.602 450.614 548.989 457.799 544.289C464.983 539.59 469.517 531.643 469.27 520.113L472.007 491.035C473.261 491.135 473.108 488.865 474.413 488.865C476.082 488.865 475.661 488.944 477.266 488.793L481.148 524.182C481.151 524.193 481.152 524.208 481.156 524.219C482.645 535.639 488.165 542.915 495.847 546.653C503.53 550.391 513.139 550.762 523.189 549.452C533.24 548.142 542.087 545.359 548.185 539.796C554.279 534.236 557.315 525.868 555.84 514.505V514.497L550.035 444.862L550.027 444.824C547.534 419.722 538.874 406.971 535.725 398.606V336.968C535.725 333.742 535.553 330.582 535.311 327.46C548.092 313.431 555.928 295.142 555.928 275.034C555.928 244.902 538.551 218.758 512.84 205.07C511.668 204.45 510.238 205.198 510.08 206.515C508.486 220.164 496.988 230.669 482.877 230.669H460.377C446.218 230.669 434.692 220.092 433.16 206.376C433.066 205.534 432.423 204.856 431.586 204.72Z" fill="url(#paint19_linear_2606_6397)"/>
<path d="M420.332 194.642C402.002 194.642 387.244 210.014 387.244 229.11V249.884C387.244 268.98 402.002 284.354 420.332 284.354H522.629C540.959 284.354 555.715 268.98 555.715 249.884V229.11C555.715 210.014 540.959 194.642 522.629 194.642H504.842C503.042 212.433 488.795 226.204 471.373 226.204C453.951 226.204 439.702 212.433 437.902 194.642H420.332Z" fill="#5B5B5B"/>
<path d="M505.035 179.587V190.827C505.035 210.426 490.022 226.204 471.373 226.204C452.724 226.204 437.709 210.426 437.709 190.827V179.651C428.58 182.461 420.257 184.367 413.064 189.175H412.814C412.874 189.656 412.908 190.144 412.908 190.642C412.908 197.147 407.672 202.384 401.166 202.384H397.738V280.591C397.738 293.927 408.475 304.663 421.811 304.663H521.148C534.484 304.663 545.221 293.927 545.221 280.591V202.384H540.314C533.809 202.384 528.57 197.147 528.57 190.642C528.57 189.897 528.642 189.169 528.773 188.464C521.784 184.138 513.779 182.258 505.035 179.587Z" fill="#C7C7C7"/>
<path d="M389.384 196.264H393.033C402.803 196.264 410.669 204.575 410.669 214.899C410.669 225.223 402.803 233.534 393.033 233.534H389.384C379.614 233.534 371.748 225.223 371.748 214.899C371.748 204.575 379.614 196.264 389.384 196.264Z" fill="#5B5B5B"/>
<path d="M546.771 198.082H550.42C560.19 198.082 568.056 206.393 568.056 216.717C568.056 227.041 560.19 235.352 550.42 235.352H546.771C537 235.352 529.135 227.041 529.135 216.717C529.135 206.393 537 198.082 546.771 198.082Z" fill="#5B5B5B"/>
<path d="M551.575 202.979H557.048C560.08 202.979 562.521 205.559 562.521 208.763C562.521 211.967 560.08 214.546 557.048 214.546H551.575C548.543 214.546 546.102 211.967 546.102 208.763C546.102 205.559 548.543 202.979 551.575 202.979Z" fill="#6D6D6D"/>
<path d="M420.332 194.642C417.346 194.642 414.458 195.059 411.711 195.825C409.803 199.716 405.808 202.384 401.166 202.384H399.416C398.842 202.871 398.279 203.372 397.738 203.897V275.099C403.644 280.843 411.578 284.354 420.332 284.354H522.629C531.382 284.354 539.315 280.844 545.221 275.101V203.895C544.681 203.37 544.118 202.871 543.545 202.384H540.314C535.508 202.384 531.396 199.524 529.574 195.407C527.335 194.912 525.014 194.642 522.629 194.642H504.842C504.815 194.895 504.779 195.145 504.748 195.397C504.71 195.698 504.68 196 504.637 196.298C504.603 196.53 504.558 196.759 504.519 196.989C504.467 197.304 504.419 197.62 504.359 197.933C504.317 198.15 504.266 198.363 504.22 198.579C504.148 198.92 504.079 199.262 503.998 199.599C503.929 199.884 503.85 200.164 503.775 200.446C503.709 200.693 503.647 200.942 503.576 201.187C503.476 201.534 503.364 201.877 503.254 202.22C503.197 202.397 503.143 202.577 503.084 202.753C502.975 203.073 502.858 203.389 502.742 203.704C502.664 203.916 502.588 204.129 502.506 204.339C502.388 204.641 502.262 204.938 502.136 205.235C502.051 205.439 501.964 205.642 501.875 205.843C501.745 206.134 501.611 206.423 501.474 206.71C501.372 206.925 501.268 207.138 501.162 207.351C501.029 207.615 500.892 207.877 500.754 208.138C500.637 208.357 500.519 208.574 500.398 208.79C500.252 209.052 500.102 209.312 499.949 209.569C499.826 209.777 499.699 209.982 499.572 210.187C499.413 210.444 499.252 210.7 499.086 210.952C498.965 211.136 498.841 211.318 498.717 211.499C498.537 211.762 498.357 212.025 498.17 212.282C498.028 212.478 497.88 212.67 497.734 212.862C497.567 213.084 497.401 213.306 497.229 213.522C497.047 213.751 496.859 213.974 496.672 214.198C496.518 214.382 496.367 214.568 496.209 214.749C495.997 214.992 495.779 215.228 495.561 215.464C495.416 215.621 495.274 215.781 495.127 215.935C494.843 216.231 494.553 216.518 494.26 216.804C494.182 216.879 494.108 216.959 494.029 217.034C494.022 217.04 494.018 217.046 494.01 217.052C493.726 217.322 493.434 217.583 493.141 217.843C493.035 217.938 492.932 218.037 492.825 218.13C492.595 218.329 492.358 218.519 492.124 218.712C491.954 218.852 491.787 218.996 491.614 219.132C491.408 219.295 491.195 219.45 490.985 219.609C490.765 219.774 490.545 219.942 490.321 220.103C490.137 220.235 489.948 220.359 489.76 220.488C489.506 220.662 489.252 220.836 488.993 221.003C488.798 221.129 488.599 221.249 488.401 221.37C488.146 221.527 487.891 221.683 487.631 221.833C487.44 221.944 487.245 222.05 487.051 222.157C486.771 222.312 486.491 222.466 486.206 222.612C486.01 222.713 485.81 222.808 485.612 222.905C485.339 223.039 485.065 223.17 484.788 223.296C484.57 223.395 484.35 223.491 484.129 223.585C483.855 223.703 483.579 223.817 483.301 223.927C483.086 224.012 482.87 224.096 482.653 224.177C482.363 224.285 482.071 224.386 481.778 224.486C481.557 224.561 481.335 224.636 481.112 224.706C480.831 224.795 480.547 224.877 480.262 224.958C480.026 225.026 479.79 225.093 479.551 225.155C479.248 225.235 478.942 225.306 478.635 225.376C478.415 225.427 478.195 225.479 477.973 225.525C477.672 225.587 477.368 225.642 477.063 225.696C476.823 225.739 476.584 225.784 476.342 225.821C476.023 225.871 475.7 225.909 475.378 225.948C475.159 225.975 474.943 226.008 474.723 226.03C474.411 226.063 474.096 226.083 473.782 226.107C473.526 226.125 473.273 226.148 473.016 226.161C473.009 226.162 473.005 226.163 472.997 226.163C472.459 226.19 471.919 226.204 471.374 226.204C470.823 226.204 470.276 226.188 469.732 226.161C469.475 226.148 469.221 226.125 468.966 226.107C468.652 226.083 468.337 226.062 468.025 226.03C467.805 226.008 467.589 225.975 467.37 225.948C467.048 225.909 466.725 225.871 466.406 225.821C466.164 225.784 465.925 225.739 465.685 225.696C465.381 225.642 465.076 225.587 464.775 225.525C464.552 225.479 464.333 225.427 464.113 225.376C463.806 225.306 463.5 225.234 463.197 225.155C462.958 225.093 462.722 225.026 462.486 224.958C462.201 224.877 461.917 224.795 461.636 224.706C461.413 224.636 461.191 224.561 460.97 224.486C460.677 224.386 460.385 224.285 460.095 224.177C459.878 224.096 459.662 224.012 459.447 223.927C459.168 223.817 458.893 223.703 458.618 223.585C458.398 223.491 458.178 223.395 457.96 223.296C457.683 223.17 457.409 223.039 457.136 222.905C456.936 222.808 456.736 222.712 456.538 222.611C456.267 222.471 455.999 222.324 455.732 222.177C455.517 222.059 455.301 221.942 455.089 221.82C454.863 221.689 454.642 221.551 454.419 221.415C454.189 221.275 453.958 221.136 453.732 220.989C453.499 220.839 453.271 220.681 453.042 220.525C452.836 220.384 452.628 220.248 452.425 220.103C452.195 219.938 451.971 219.765 451.745 219.595C451.541 219.441 451.333 219.291 451.132 219.132C450.967 219.002 450.808 218.863 450.646 218.73C450.404 218.531 450.158 218.336 449.921 218.13C449.525 217.786 449.138 217.434 448.757 217.071C448.61 216.932 448.47 216.784 448.325 216.642C448.089 216.408 447.849 216.177 447.618 215.937C447.446 215.756 447.281 215.568 447.113 215.384C446.928 215.182 446.74 214.983 446.56 214.777C446.381 214.573 446.21 214.362 446.036 214.153C445.862 213.944 445.686 213.736 445.517 213.523C445.353 213.317 445.196 213.107 445.036 212.898C444.874 212.683 444.712 212.468 444.554 212.249C444.388 212.019 444.227 211.786 444.066 211.552C443.926 211.349 443.787 211.147 443.652 210.941C443.488 210.692 443.33 210.44 443.173 210.187C443.046 209.982 442.92 209.777 442.796 209.57C442.644 209.312 442.494 209.052 442.347 208.79C442.226 208.574 442.108 208.357 441.991 208.138C441.855 207.882 441.722 207.624 441.591 207.364C441.472 207.128 441.357 206.889 441.243 206.65C441.124 206.397 441.004 206.144 440.89 205.888C440.788 205.659 440.691 205.426 440.593 205.195C440.474 204.913 440.355 204.632 440.243 204.347C440.15 204.107 440.063 203.864 439.974 203.622C439.873 203.348 439.771 203.074 439.677 202.796C439.602 202.574 439.532 202.349 439.46 202.124C439.361 201.813 439.26 201.502 439.169 201.187C439.099 200.942 439.036 200.693 438.97 200.446C438.895 200.164 438.816 199.884 438.747 199.599C438.666 199.262 438.597 198.92 438.525 198.579C438.479 198.364 438.428 198.15 438.386 197.933C438.326 197.621 438.278 197.304 438.226 196.989C438.188 196.759 438.143 196.531 438.109 196.298C438.065 196 438.034 195.698 437.997 195.398C437.967 195.146 437.929 194.896 437.904 194.642L420.332 194.642Z" fill="white"/>
<path d="M470.646 275.167C474.577 275.167 477.741 278.368 477.741 282.344V296.263C477.741 300.238 474.577 303.439 470.646 303.439C466.715 303.439 463.551 300.238 463.551 296.263V282.344C463.551 278.368 466.715 275.167 470.646 275.167Z" fill="#C7C7C7"/>
<path d="M433.4 231.845C430.136 231.845 427.508 234.473 427.508 237.737V253.81C427.508 257.074 430.136 259.702 433.4 259.702L545.221 247.702V231.845H433.4Z" fill="#4F95F1"/>
<path d="M448.4 265.415C445.161 265.817 442.508 268.045 442.508 271.31V275.237C442.508 278.502 445.161 281.531 448.4 281.13L545.207 269.13C545.211 268.95 545.222 268.772 545.222 268.591V253.415L448.4 265.415Z" fill="#7DCDDA"/>
<path d="M431.4 231.845C428.136 231.845 427.508 232.638 427.508 233.624V238.477C427.508 239.463 428.136 240.257 431.4 240.257H545.221V231.845H431.4Z" fill="#1F78ED"/>
<path d="M490.876 251.107H507.414C512.179 251.107 516.015 254.692 516.015 259.144C516.015 263.596 512.179 267.18 507.414 267.18H490.876C486.111 267.18 482.275 263.596 482.275 259.144C482.275 254.692 486.111 251.107 490.876 251.107Z" fill="white" fill-opacity="0.396285"/>
<path d="M432.501 251.107H449.039C453.804 251.107 457.64 254.692 457.64 259.144C457.64 263.596 453.804 267.18 449.039 267.18H432.501C427.736 267.18 423.9 263.596 423.9 259.144C423.9 254.692 427.736 251.107 432.501 251.107Z" fill="white" fill-opacity="0.396285"/>
<path d="M385.165 201.096H390.638C393.67 201.096 396.111 203.676 396.111 206.879C396.111 210.083 393.67 212.663 390.638 212.663H385.165C382.133 212.663 379.691 210.083 379.691 206.879C379.691 203.676 382.133 201.096 385.165 201.096Z" fill="#6D6D6D"/>
<path d="M468.223 227.559H471.794V438.987H468.223V227.559Z" fill="white"/>
<path d="M439.004 178.249C438.002 178.249 437.04 178.647 436.332 179.356C435.623 180.065 435.225 181.026 435.225 182.029V199.354C435.225 214.718 447.712 227.206 463.076 227.206H479.885C495.25 227.206 507.737 214.718 507.737 199.354V182.029C507.737 181.026 507.339 180.065 506.63 179.356C505.921 178.647 504.96 178.249 503.957 178.249C502.955 178.249 501.994 178.647 501.285 179.356C500.576 180.065 500.178 181.026 500.178 182.029V199.354C500.178 210.661 491.193 219.647 479.885 219.647H463.076C451.769 219.647 442.784 210.661 442.784 199.354V182.029C442.784 181.026 442.385 180.065 441.677 179.356C440.968 178.647 440.007 178.249 439.004 178.249Z" fill="#B95C50"/>
<path d="M426.822 212.75C425.605 212.78 424.635 213.771 424.635 214.995V219.764C424.635 221.008 425.636 222.01 426.88 222.01H427.862C429.106 222.01 430.107 221.008 430.107 219.764V214.995C430.107 213.751 429.106 212.75 427.862 212.75H426.88C426.861 212.75 426.841 212.749 426.822 212.75ZM421.021 214.924C420.069 214.924 419.303 215.69 419.303 216.642V220.292C419.303 221.244 420.069 222.01 421.021 222.01H422.006C422.958 222.01 423.723 221.244 423.723 220.292V216.642C423.723 215.69 422.958 214.924 422.006 214.924H421.021ZM415.587 217.38C414.965 217.38 414.465 217.881 414.465 218.503V220.888C414.465 221.51 414.965 222.01 415.587 222.01H416.919C417.541 222.01 418.04 221.51 418.04 220.888V218.503C418.04 217.881 417.541 217.38 416.919 217.38H415.587Z" fill="#6D6D6D"/>
<path d="M520.014 214.08H521.787C523.813 214.08 525.444 215.711 525.444 217.737C525.444 219.763 523.813 221.394 521.787 221.394H520.014C517.988 221.394 516.357 219.763 516.357 217.737C516.357 215.711 517.988 214.08 520.014 214.08Z" fill="#6D6D6D"/>
<path d="M425.201 525.773C423.653 525.812 422.418 527.072 422.418 528.631V534.701C422.418 536.284 423.693 537.558 425.275 537.558H426.525C428.108 537.558 429.383 536.284 429.383 534.701V528.631C429.383 527.048 428.108 525.773 426.525 525.773H425.275C425.251 525.773 425.226 525.773 425.201 525.773ZM417.818 528.541C416.607 528.541 415.633 529.515 415.633 530.726V535.373C415.633 536.584 416.607 537.558 417.818 537.558H419.072C420.283 537.558 421.258 536.584 421.258 535.373V530.726C421.258 529.515 420.283 528.541 419.072 528.541H417.818ZM410.902 531.666C410.111 531.666 409.475 532.304 409.475 533.095V536.131C409.475 536.922 410.111 537.558 410.902 537.558H412.598C413.389 537.558 414.025 536.922 414.025 536.131V533.095C414.025 532.304 413.389 531.666 412.598 531.666H410.902Z" fill="#D3D3D3"/>
<path d="M496.412 524.11H499.27C502.534 524.11 505.162 526.738 505.162 530.003C505.162 533.267 502.534 535.896 499.27 535.896H496.412C493.148 535.896 490.52 533.267 490.52 530.003C490.52 526.738 493.148 524.11 496.412 524.11Z" fill="#D3D3D3"/>
<path d="M580.625 229.616L586.066 228.133C588.135 227.568 590.256 228.78 590.82 230.85L594.828 245.55C595.392 247.619 594.18 249.74 592.111 250.304L586.67 251.788C584.6 252.352 582.479 251.14 581.915 249.07L577.907 234.371C577.343 232.301 578.555 230.18 580.625 229.616Z" fill="#4F77AB"/>
<path d="M468.871 218.547H471.144C472.019 218.547 472.723 219.251 472.723 220.125V230.101C472.723 230.975 472.019 231.679 471.144 231.679H468.871C467.997 231.679 467.293 230.975 467.293 230.101V220.125C467.293 219.251 467.997 218.547 468.871 218.547Z" fill="#5B5B5B"/>
<path d="M412.219 140.007C418.477 166.956 441.394 186.835 468.869 186.835H475.791C503.266 186.835 526.183 166.956 532.441 140.007H523.463C517.31 161.975 498.136 177.915 475.309 177.915H469.35C446.522 177.915 427.35 161.975 421.197 140.007H412.219Z" fill="url(#paint20_linear_2606_6397)"/>
<path d="M441.858 63.585C425.667 63.585 412.633 76.6195 412.633 92.8105V115.653C412.633 124.625 416.639 132.623 422.963 137.976C419.412 133.038 417.318 126.975 417.318 120.403V96.8962C417.318 80.2345 430.732 66.8208 447.394 66.8208H495.567C512.229 66.8208 525.643 80.2345 525.643 96.8962V120.403C525.643 126.974 523.551 133.035 520.003 137.972C526.324 132.619 530.33 124.623 530.33 115.653V92.8105C530.33 76.6195 517.296 63.585 501.105 63.585H441.858Z" fill="#84382D"/>
<path d="M471.479 0.913086C429.93 0.913086 397 29.7295 397 79.1768V119.335C397 124.171 397.315 128.918 397.916 133.552C398.434 137.556 401.532 140.529 405.186 140.53H429.975C420.723 135.873 414.4 126.308 414.4 115.206V93.0498C414.4 77.3452 427.043 64.7021 442.748 64.7021H500.215C515.92 64.7021 528.562 77.3452 528.562 93.0498V115.206C528.562 126.308 522.24 135.873 512.988 140.53H537.77C541.423 140.529 544.521 137.556 545.039 133.552C545.638 128.927 545.963 124.18 545.963 119.335V79.1768C545.963 29.7286 513.027 0.913086 471.479 0.913086Z" fill="url(#paint21_linear_2606_6397)"/>
<path d="M442.748 64.7017H500.214C515.919 64.7017 528.562 77.3448 528.562 93.0494V115.206C528.562 130.911 515.919 143.554 500.214 143.554H442.748C427.043 143.554 414.4 130.911 414.4 115.206V93.0494C414.4 77.3448 427.043 64.7017 442.748 64.7017Z" fill="#6D6D6D" fill-opacity="0.473684"/>
<path d="M471.478 0.913086C444.074 0.913086 420.422 13.4528 407.492 36.1768C412.302 48.3723 421.957 58.829 434.857 65.8135C437.361 65.0939 440.006 64.7021 442.748 64.7021H500.215C502.956 64.7021 505.601 65.0939 508.105 65.8135C521.005 58.8295 530.66 48.3736 535.471 36.1787C522.54 13.4526 498.884 0.913086 471.478 0.913086Z" fill="url(#paint22_linear_2606_6397)"/>
<path d="M466.66 38.9873H476.303C479.073 38.9873 481.303 41.2173 481.303 43.9873C481.303 46.7573 479.073 48.9873 476.303 48.9873H466.66C463.89 48.9873 461.66 46.7573 461.66 43.9873C461.66 41.2173 463.89 38.9873 466.66 38.9873Z" fill="#5B5B5B"/>
<path d="M447.64 62.2021C438.353 62.2021 430.135 66.0682 424.955 72.0702C427.981 88.5885 444.242 101.13 463.972 101.13H477.579C497.783 101.13 514.351 87.9779 516.792 70.8711C511.588 65.5604 503.869 62.2021 495.218 62.2021H447.64Z" fill="#434343"/>
<path d="M397 88.126V98.9834L414.4 109.821V98.3896L399.055 88.833C398.409 88.4309 397.706 88.2011 397 88.126ZM545.963 88.126C545.257 88.2012 544.556 88.4309 543.91 88.833L528.562 98.3896V109.821L545.963 98.9834V88.126Z" fill="white"/>
<path d="M455.143 687.674H398.661C397.373 687.674 396.33 688.717 396.33 690.004V698.085C396.33 699.373 397.373 700.416 398.661 700.416H455.143C456.43 700.416 457.473 699.373 457.473 698.085V690.004C457.473 688.717 456.43 687.674 455.143 687.674Z" fill="#404040"/>
<path d="M575.35 685.674H518.868C517.58 685.674 516.537 686.717 516.537 688.004V696.085C516.537 697.373 517.58 698.416 518.868 698.416H575.35C576.637 698.416 577.68 697.373 577.68 696.085V688.004C577.68 686.717 576.637 685.674 575.35 685.674Z" fill="#404040"/>
<path d="M548.126 652.476C550.69 652.179 567.333 668.473 567.333 680.048V683.801C567.333 684.581 567.314 685.372 567.265 686.168C567.002 690.6 564.419 694.005 561.32 694.004H518.927C515.826 694.005 513.241 690.594 512.982 686.158C512.935 685.368 512.914 684.583 512.914 683.801V680.048C512.914 664.928 515.038 656.303 520.357 655.688L548.126 652.476Z" fill="url(#paint23_linear_2606_6397)"/>
<path d="M559.657 672.345C570.732 672.345 579.845 678.836 579.845 686.725V688.683C579.845 689.089 579.823 689.502 579.774 689.917C579.641 691.032 578.925 692.071 577.768 692.827C576.611 693.584 575.097 694.004 573.525 694.004H528.966C527.394 694.004 525.879 693.584 524.722 692.826C523.564 692.068 522.849 691.028 522.718 689.912C522.668 689.5 522.646 689.09 522.646 688.683V686.725C522.646 678.839 531.753 672.345 542.828 672.345H559.657Z" fill="#F57C6D"/>
<path d="M425.298 655.345C422.721 655.192 406.26 671.543 406.382 683.117L406.421 686.87C406.428 687.65 406.459 688.441 406.513 689.236C406.822 693.665 409.442 697.043 412.54 697.009L454.931 696.563C458.032 696.533 460.581 693.094 460.793 688.655C460.832 687.865 460.844 687.08 460.836 686.298L460.797 682.545C460.638 667.426 456.963 657.221 451.618 656.904L425.298 655.345Z" fill="url(#paint24_linear_2606_6397)"/>
<path d="M413.976 675.334C402.902 675.45 393.857 682.037 393.94 689.926L393.959 691.883C393.963 692.289 393.989 692.702 394.043 693.116C394.188 694.23 394.915 695.261 396.08 696.006C397.245 696.75 398.764 697.154 400.335 697.137L444.891 696.669C446.463 696.653 447.974 696.216 449.123 695.446C450.273 694.676 450.977 693.629 451.097 692.511C451.141 692.099 451.158 691.689 451.155 691.282L451.136 689.324C451.053 681.439 441.879 675.04 430.805 675.157L413.976 675.334Z" fill="#F57C6D"/>
<path d="M433.536 647.609H420.909C417.213 647.609 414.217 650.606 414.217 654.302V660.868C414.217 664.564 417.213 667.56 420.909 667.56H433.536C437.232 667.56 440.228 664.564 440.228 660.868V654.302C440.228 650.606 437.232 647.609 433.536 647.609Z" fill="#F57C6D"/>
<path d="M550.679 644.038H538.052C534.356 644.038 531.359 647.034 531.359 650.73V657.296C531.359 660.992 534.356 663.989 538.052 663.989H550.679C554.375 663.989 557.371 660.992 557.371 657.296V650.73C557.371 647.034 554.375 644.038 550.679 644.038Z" fill="#F57C6D"/>
<path d="M434.267 666.666H418.374C417.462 666.666 416.723 667.406 416.723 668.318C416.723 669.23 417.462 669.97 418.374 669.97H434.267C435.18 669.97 435.919 669.23 435.919 668.318C435.919 667.406 435.18 666.666 434.267 666.666Z" fill="white"/>
<path d="M431.32 671.487H415.427C414.515 671.487 413.775 672.227 413.775 673.139C413.775 674.051 414.515 674.791 415.427 674.791H431.32C432.232 674.791 432.972 674.051 432.972 673.139C432.972 672.227 432.232 671.487 431.32 671.487Z" fill="white"/>
<path d="M538.641 663.809H554.534C555.446 663.809 556.186 664.548 556.186 665.46C556.186 666.373 555.446 667.112 554.534 667.112H538.641C537.729 667.112 536.989 666.373 536.989 665.46C536.989 664.548 537.729 663.809 538.641 663.809Z" fill="white"/>
<path d="M541.588 668.63H557.481C558.393 668.63 559.133 669.369 559.133 670.282C559.133 671.194 558.393 671.933 557.481 671.933H541.588C540.676 671.933 539.936 671.194 539.936 670.282C539.936 669.369 540.676 668.63 541.588 668.63Z" fill="white"/>
<defs>
<linearGradient id="paint0_linear_2606_6397" x1="522.052" y1="218.8" x2="518.011" y2="343.048" gradientUnits="userSpaceOnUse">
<stop stop-color="#444952"/>
<stop offset="1" stop-color="#4D525A"/>
</linearGradient>
<linearGradient id="paint1_linear_2606_6397" x1="318" y1="403.657" x2="55.3602" y2="355.17" gradientUnits="userSpaceOnUse">
<stop stop-color="#9A8671"/>
<stop offset="1" stop-color="#6E5B4B"/>
</linearGradient>
<linearGradient id="paint2_linear_2606_6397" x1="371.538" y1="141.018" x2="350.325" y2="58.1853" gradientUnits="userSpaceOnUse">
<stop stop-color="#4D525A"/>
<stop offset="1" stop-color="#4D525A" stop-opacity="0"/>
</linearGradient>
<linearGradient id="paint3_linear_2606_6397" x1="432.213" y1="649.98" x2="421.228" y2="559.758" gradientUnits="userSpaceOnUse">
<stop stop-color="#FBB97E"/>
<stop offset="1" stop-color="#FBC99D"/>
</linearGradient>
<linearGradient id="paint4_linear_2606_6397" x1="462.063" y1="501.137" x2="464.329" y2="439.03" gradientUnits="userSpaceOnUse">
<stop stop-color="#FBC99D"/>
<stop offset="1" stop-color="#F2A366"/>
</linearGradient>
<linearGradient id="paint5_linear_2606_6397" x1="450.292" y1="583.273" x2="446.72" y2="615.773" gradientUnits="userSpaceOnUse">
<stop stop-color="#FFD8B5"/>
<stop offset="1" stop-color="#FFD8B5" stop-opacity="0"/>
</linearGradient>
<linearGradient id="paint6_linear_2606_6397" x1="437.702" y1="524.371" x2="436.187" y2="494.066" gradientUnits="userSpaceOnUse">
<stop stop-color="#FFD8B5"/>
<stop offset="1" stop-color="#FFD8B5" stop-opacity="0"/>
</linearGradient>
<linearGradient id="paint7_linear_2606_6397" x1="420.483" y1="320.32" x2="416.947" y2="398.607" gradientUnits="userSpaceOnUse">
<stop stop-color="#F0934D"/>
<stop offset="1" stop-color="#F2A367"/>
</linearGradient>
<linearGradient id="paint8_linear_2606_6397" x1="519.292" y1="303.482" x2="518.935" y2="337.411" gradientUnits="userSpaceOnUse">
<stop stop-color="#F09652"/>
<stop offset="1" stop-color="#F19D5C"/>
</linearGradient>
<linearGradient id="paint9_linear_2606_6397" x1="470.26" y1="172.161" x2="471.166" y2="196.96" gradientUnits="userSpaceOnUse">
<stop stop-color="#F09753"/>
<stop offset="1" stop-color="#FBC99D"/>
</linearGradient>
<linearGradient id="paint10_linear_2606_6397" x1="532.594" y1="651.052" x2="510.46" y2="562.901" gradientUnits="userSpaceOnUse">
<stop stop-color="#FBB97E"/>
<stop offset="1" stop-color="#FBC99D"/>
</linearGradient>
<linearGradient id="paint11_linear_2606_6397" x1="487.091" y1="506.973" x2="475.849" y2="445.849" gradientUnits="userSpaceOnUse">
<stop stop-color="#FBC99D"/>
<stop offset="1" stop-color="#F2A366"/>
</linearGradient>
<linearGradient id="paint12_linear_2606_6397" x1="510.637" y1="586.536" x2="518.88" y2="618.175" gradientUnits="userSpaceOnUse">
<stop stop-color="#FFD8B5"/>
<stop offset="1" stop-color="#FFD8B5" stop-opacity="0"/>
</linearGradient>
<linearGradient id="paint13_linear_2606_6397" x1="514.559" y1="526.431" x2="511.667" y2="496.227" gradientUnits="userSpaceOnUse">
<stop stop-color="#FFD8B5"/>
<stop offset="1" stop-color="#FFD8B5" stop-opacity="0"/>
</linearGradient>
<linearGradient id="paint14_linear_2606_6397" x1="472.864" y1="468.84" x2="473.578" y2="422.768" gradientUnits="userSpaceOnUse">
<stop stop-color="#4F4F4F"/>
<stop offset="1" stop-color="#333333"/>
</linearGradient>
<linearGradient id="paint15_linear_2606_6397" x1="470.007" y1="41.8443" x2="468.935" y2="7.91576" gradientUnits="userSpaceOnUse">
<stop stop-color="#755C3B"/>
<stop offset="1" stop-color="#8E6F47"/>
</linearGradient>
<linearGradient id="paint16_linear_2606_6397" x1="105.821" y1="298.602" x2="268.456" y2="299.612" gradientUnits="userSpaceOnUse">
<stop stop-color="#2C272C"/>
<stop offset="1" stop-color="#404040"/>
</linearGradient>
<linearGradient id="paint17_linear_2606_6397" x1="105.821" y1="298.602" x2="268.456" y2="299.612" gradientUnits="userSpaceOnUse">
<stop stop-color="#2C272C"/>
<stop offset="1" stop-color="#404040"/>
</linearGradient>
<linearGradient id="paint18_linear_2606_6397" x1="377.508" y1="281.13" x2="378.222" y2="185.416" gradientUnits="userSpaceOnUse">
<stop stop-color="#434343"/>
<stop offset="1" stop-color="#5B5B5B"/>
</linearGradient>
<linearGradient id="paint19_linear_2606_6397" x1="439.172" y1="334.967" x2="441.193" y2="504.673" gradientUnits="userSpaceOnUse">
<stop stop-color="#414141"/>
<stop offset="1" stop-color="#404040"/>
</linearGradient>
<linearGradient id="paint20_linear_2606_6397" x1="466.794" y1="183.63" x2="464.294" y2="137.202" gradientUnits="userSpaceOnUse">
<stop stop-color="#434343"/>
<stop offset="1" stop-color="#5B5B5B"/>
</linearGradient>
<linearGradient id="paint21_linear_2606_6397" x1="408.363" y1="64.2462" x2="406.342" y2="128.896" gradientUnits="userSpaceOnUse">
<stop stop-color="#B95C50"/>
<stop offset="1" stop-color="#A04336"/>
</linearGradient>
<linearGradient id="paint22_linear_2606_6397" x1="435.365" y1="50.773" x2="435.008" y2="4.34444" gradientUnits="userSpaceOnUse">
<stop stop-color="#D56456"/>
<stop offset="1" stop-color="#FF8474"/>
</linearGradient>
<linearGradient id="paint23_linear_2606_6397" x1="450.649" y1="665.773" x2="450.649" y2="683.987" gradientUnits="userSpaceOnUse">
<stop stop-color="#A5483B"/>
<stop offset="1" stop-color="#F57C6D"/>
</linearGradient>
<linearGradient id="paint24_linear_2606_6397" x1="450.651" y1="665.773" x2="450.651" y2="683.987" gradientUnits="userSpaceOnUse">
<stop stop-color="#A5483B"/>
<stop offset="1" stop-color="#F57C6D"/>
</linearGradient>
</defs>
</svg>
