    <svg
      xmlns="http://www.w3.org/2000/svg"
      width="100"
      height="338"
      fill="none"
      viewBox="0 0 100 338"
    >
      <path
        fill="#D9B392"
        d="M83.022 115.781c.101-1.29 7.663-20.204 9.1-16.634l2.579 5.504c.538 1.337 2.766-3.515 2.981-1.954.495 3.585 1.049 26.759.508 30.661l-.269 7.128a22.11 22.11 0 00-.214 3.035v2.418c0 1.159-.06 12.917-.025 12.846 0 0-12.402.103-12.541-.191l-.89-20.873c-.797-3.643-1.528-20.596-1.528-20.596l.3-1.344z"
      ></path>
      <path
        fill="#D9B392"
        d="M90.733 129.872l.057.004c3.66.207 6.696 5.68 6.778 12.225l.62 49.14c.083 6.544-2.818 11.682-6.479 11.474l-.057-.003c-3.661-.208-6.696-5.681-6.779-12.225l-.62-49.14c-.082-6.545 2.819-11.681 6.48-11.475z"
      ></path>
      <path
        fill="#D9B392"
        d="M90.097 182.237l1.937.222c3.712.426 6.776 6.936 6.843 14.54l.059 6.755c.066 7.604-2.89 13.422-6.602 12.995l-1.936-.223c-3.632-.417-6.642-6.654-6.834-14.043a23.421 23.421 0 01-.009-.497l-.06-6.754c-.067-7.604 2.89-13.422 6.602-12.995z"
      ></path>
      <path
        fill="#D9B392"
        d="M88.83 201.213c.94-4.665 4.018-6.69 6.873-4.525 2.855 2.167 4.405 7.705 3.464 12.371L96.594 221.8c-.94 4.665-4.018 6.69-6.872 4.524-2.855-2.167-4.406-7.705-3.464-12.37l2.571-12.741z"
      ></path>
      <path
        fill="#C49D7A"
        d="M82.76 198.004c-.022-3.36 1.251-5.938 2.843-5.76 1.59.178 2.9 3.047 2.92 6.407l.059 9.177c.021 3.36-1.251 5.939-2.842 5.76-1.592-.179-2.9-3.048-2.92-6.408l-.06-9.176z"
      ></path>
      <path
        fill="#D9B392"
        d="M18.377 113.165C18.276 111.876 7.6 99.75 6.164 103.32l-2.44-1.996c.214-1.56-.539 1.338 0 0l-1.376 31.602c-.54-3.902-.494 3.585 0 0l.269 7.128c.142 1.024.214 2.04.214 3.035v2.417c0 1.16.06 12.918.025 12.847 0 0 12.402.102 12.54-.191l.89-20.873c.797-3.643 2.108-20.164 2.108-20.164l-.017-3.96z"
      ></path>
      <path
        fill="#D9B392"
        d="M9.806 129.441l-.057.003c-3.66.208-6.696 5.681-6.778 12.226l-.62 49.14c-.083 6.544 2.818 11.681 6.479 11.473l.057-.003c3.661-.208 6.696-5.681 6.779-12.225l.62-49.14c.082-6.545-2.819-11.681-6.48-11.474z"
      ></path>
      <path
        fill="#D9B392"
        d="M9.733 181.804l-1.937.222c-3.712.427-6.776 6.937-6.843 14.541l-.06 6.755c-.066 7.603 2.89 13.421 6.603 12.994l1.936-.223c3.713-.426 6.776-6.936 6.843-14.54l.06-6.754c.067-7.604-2.89-13.421-6.602-12.995z"
      ></path>
      <path
        fill="#D9B392"
        d="M12.093 200.781c-.941-4.665-4.019-6.691-6.873-4.525-2.855 2.167-4.406 7.704-3.465 12.37l2.572 12.741c.941 4.665 4.02 6.691 6.873 4.524 2.855-2.167 4.406-7.704 3.464-12.369l-2.571-12.741z"
      ></path>
      <path
        fill="#C49D7A"
        d="M18.164 197.571c.021-3.36-1.251-5.938-2.843-5.76-1.592.179-2.9 3.048-2.92 6.408l-.059 9.176c-.021 3.36 1.25 5.939 2.842 5.76 1.592-.178 2.9-3.047 2.92-6.407l.06-9.177z"
      ></path>
      <path
        fill="#D9B392"
        d="M39.987 253.048h-1.88c-4.476 0-8.105 4.638-8.105 10.36L30 290.309v19.264l-1.62 19.742c0 4.315 3.31 7.812 7.395 7.812h1.726c4.084 0 7.395-3.497 7.395-7.812v-28.827c0-2.007.384-3.983 1.117-5.76.734-1.775 1.117-3.752 1.117-5.759v-3.79a34.06 34.06 0 00-.641-6.588 33.997 33.997 0 01-.641-6.588V260.54c0-.44-.031-.879-.091-1.312-.498-3.575-2.93-6.18-5.771-6.18z"
      ></path>
      <path
        fill="#D9B392"
        d="M36.929 174.588h-6.445c-1.66 0-3.139 1.347-3.68 3.354-.08.297-.138.603-.172.914l-1.494 36.434a43.944 43.944 0 00-.273 4.891v12.11c0 1.891.123 3.78.365 5.646l.792 6.085c.455 3.485 1.386 6.841 2.75 9.913 0 0 .465 7.581.465 8.859 0 4.08 2.588 7.389 5.78 7.389h3.81c3.42 0 6.192-3.543 6.192-7.914 0-.942.132-1.879.39-2.761l.831-2.856c.359-1.228.64-2.492.842-3.776l1.261-8.023 1.213-10.226a43.85 43.85 0 00.303-5.153v-38.36c0-9.127-5.789-16.526-12.93-16.526zM39.903 320.699h-6.945c-4.005 0-7.251 3.701-7.251 8.267 0 4.565 3.246 8.265 7.25 8.265h6.946c4.004 0 7.251-3.7 7.251-8.265 0-4.566-3.247-8.267-7.25-8.267z"
      ></path>
      <path
        fill="#D9B392"
        d="M44.753 328.167H28.108c-1.325 0-2.401 1.226-2.401 2.738v3.581c0 1.511 1.076 2.736 2.401 2.736h16.645c1.326 0 2.401-1.225 2.401-2.736v-3.581c0-1.512-1.075-2.738-2.401-2.738zM62.274 251.371h1.781c4.47 0 8.092 4.631 8.092 10.343l.001 27.701v19.669l1.62 20.158c0 4.405-3.31 7.975-7.396 7.975h-1.725c-4.084 0-7.395-3.57-7.395-7.975v-29.988c0-1.929-.385-3.827-1.118-5.514-.731-1.688-1.116-3.586-1.116-5.514v-4.133c0-2.213.21-4.417.626-6.565l.015-.078c.427-2.199.641-4.457.641-6.723v-11.722c0-.439.03-.878.09-1.311.497-3.655 2.98-6.323 5.884-6.323z"
      ></path>
      <path
        fill="#D9B392"
        d="M65.028 174.891h6.445c1.661 0 3.139 1.347 3.68 3.354.08.297.138.603.173.913l1.493 36.434c.181 1.62.273 3.255.273 4.892v12.11a43.9 43.9 0 01-.365 5.646l-.792 6.085c-.454 3.485-1.386 6.84-2.75 9.913 0 0-.465 7.581-.465 8.859 0 4.08-2.588 7.388-5.78 7.388h-3.81c-3.42 0-6.192-3.542-6.192-7.913 0-.943-.132-1.879-.39-2.762l-.831-2.855a30.28 30.28 0 01-.841-3.776l-1.262-8.024-1.212-10.225a43.829 43.829 0 01-.304-5.153v-38.36c0-9.127 5.789-16.526 12.93-16.526zM63.113 320.699h6.945c4.004 0 7.251 3.689 7.251 8.238 0 4.549-3.246 8.237-7.251 8.237h-6.945c-4.004 0-7.252-3.688-7.252-8.237 0-4.549 3.248-8.238 7.252-8.238z"
      ></path>
      <path
        fill="#D9B392"
        d="M58.263 323.706h16.645c1.326 0 2.401 1.77 2.401 3.955v5.172c0 2.185-1.075 3.955-2.401 3.955H58.263c-1.326 0-2.402-1.77-2.402-3.955v-5.172c0-2.185 1.076-3.955 2.402-3.955zM77.975 135.138c0-21.343-13.426-29.576-27.05-29.576-13.623 0-26.06 8.233-26.06 29.576l1.393 36.988c0 21.344 11.044 38.646 24.668 38.646 13.623 0 24.667-12.442 24.667-33.784l2.382-41.85z"
      ></path>
      <path
        fill="#D9B392"
        d="M84.641 87.05h-68.07c-7.368 0-13.342 7.634-13.342 17.052s5.974 10.595 13.342 10.595l68.07 1.083c7.368 0 13.342-2.26 13.342-11.678 0-9.418-5.974-17.052-13.342-17.052zM52.833 139.313H48.84c-9.521 0-17.24 8.93-17.24 19.945 0 0 .138 13.075.198 13.052l19.622 11.283c-.06-.065 19.313-11.119 19.064-11.283-.207-.136.007.041 0 0l-.412-13.052c0-11.015-7.718-19.945-17.24-19.945z"
      ></path>
      <path
        fill="#C49D7A"
        d="M67.773 87.05H33.748c-8.778 0-15.894 8.793-15.894 19.64v11.837c0 10.845 7.116 15.714 15.894 15.714h34.026c1.886 0 3.695-.224 5.374-.685 6.134-1.683 10.52-6.514 10.52-15.029V106.69c0-10.847-7.116-19.64-15.895-19.64z"
      ></path>
      <path
        fill="#D9B392"
        d="M70.743 87.05H30.78c-7.14 0-12.927 8.17-12.927 18.251v11c0 10.08 5.788 14.766 12.927 14.766h39.963c7.139 0 12.926-4.686 12.926-14.766v-11c0-10.08-5.787-18.251-12.926-18.251z"
      ></path>
      <path
        fill="#C49D7A"
        d="M53.782 122.679c0-1.245-1.362-2.253-3.045-2.253-1.68 0-3.044 1.008-3.044 2.253v4.369c0 1.244 1.364 2.254 3.044 2.254 1.683 0 3.045-1.01 3.045-2.254v-4.369zM31.397 124.538h-2.585c-1.03 0-1.867.965-1.867 2.155 0 1.188.836 2.152 1.867 2.152h2.585c1.03 0 1.866-.964 1.866-2.152 0-1.19-.836-2.155-1.866-2.155zM73.484 124.538H70.9c-1.032 0-1.867.965-1.867 2.155 0 1.188.835 2.152 1.867 2.152h2.584c1.031 0 1.866-.964 1.866-2.152 0-1.19-.835-2.155-1.866-2.155zM46.569 148.717h-4.578c-2.184 0-3.954.372-3.954 2.805 0 2.433 1.77 4.405 3.954 4.405h4.578c2.184 0 3.954-1.972 3.954-4.405 0-2.433-1.77-2.805-3.954-2.805zM46.569 160.359h-4.578c-2.184 0-3.954.298-3.954 2.729 0 2.434 1.77 4.407 3.954 4.407h4.578c2.184 0 3.954-1.973 3.954-4.407 0-2.431-1.77-2.729-3.954-2.729zM60.632 148.717h-4.579c-2.184 0-3.953.372-3.953 2.804 0 2.434 1.77 4.406 3.953 4.406h4.579a3.59 3.59 0 001.54-.348c1.418-.669 2.412-2.233 2.412-4.058 0-2.432-1.77-2.804-3.953-2.804zM60.632 160.359h-4.579c-2.184 0-3.953.298-3.953 2.729 0 2.434 1.77 4.407 3.953 4.407h4.579c2.183 0 3.952-1.973 3.952-4.407 0-2.431-1.77-2.729-3.953-2.729z"
      ></path>
      <path
        fill="#4F4F4F"
        d="M29.832 177.168c-1.309 0-3.328.094-3.326.11 1.4 19.413 11.508 35.053 24.4 35.053 13.063 0 23.562-15.403 24.738-35.182l-45.812.019z"
      ></path>
      <path
        fill="#4B4B4B"
        d="M75.643 177.149l-24.803 6.048.772 51.847h26.361c.234-15.447-.118-39.927-2.33-57.895zM26.506 177.15l24.334 6.076v51.823l-27.597.457c-.224-15.576 1.135-40.237 3.263-58.356z"
      ></path>
      <path
        fill="#4F4F4F"
        d="M29.832 177.168c-1.309 0-3.328.094-3.326.11 1.4 19.413 11.508 35.053 24.4 35.053 13.063 0 23.562-15.403 24.738-35.182l-45.812.019z"
      ></path>
      <path
        fill="#4B4B4B"
        d="M75.643 177.149l-24.803 6.048.772 51.847h26.361c.234-15.447-.118-39.927-2.33-57.895zM26.506 177.15l24.334 6.076v51.823l-27.597.457c-.224-15.576 1.135-40.237 3.263-58.356z"
      ></path>
      <path
        fill="#fff"
        d="M43.83 303.518H30.638c-.7 0-1.269.999-1.269 2.234v19.585c0 1.235.569 2.234 1.27 2.234H43.83c.701 0 1.27-.999 1.27-2.234v-19.585c0-1.235-.569-2.234-1.27-2.234z"
      ></path>
      <path
        fill="#4B4B4B"
        d="M38.742 310.415h-4.647c-1.104 0-2 1.416-2 3.163v2.838c0 1.748.896 3.165 2 3.165h4.647c1.104 0 1.999-1.417 1.999-3.165v-2.838c0-1.747-.895-3.163-2-3.163z"
      ></path>
      <path
        fill="#4F4F4F"
        d="M40.01 315.289h-6.85c-3.951 0-7.154 5.067-7.154 11.32 0 6.252 3.203 11.32 7.153 11.32h6.851c3.95 0 7.153-5.068 7.153-11.32 0-6.253-3.202-11.32-7.153-11.32z"
      ></path>
      <path
        fill="#4F4F4F"
        d="M45.658 325.572H27.52c-1.444 0-2.616 1.679-2.616 3.749v4.902c0 2.071 1.172 3.75 2.616 3.75h18.138c1.445 0 2.617-1.679 2.617-3.75v-4.902c0-2.07-1.172-3.749-2.617-3.749z"
      ></path>
      <path
        fill="#fff"
        d="M47.288 333.229h-21.4c-.545 0-.986.632-.986 1.41v1.844c0 .779.44 1.411.985 1.411h21.401c.544 0 .984-.632.984-1.411v-1.844c0-.778-.44-1.41-.984-1.41zM39.232 315.857H33.8c-.283 0-.513.364-.513.812 0 .447.23.81.513.81h5.432c.282 0 .513-.363.513-.81 0-.448-.23-.812-.513-.812z"
      ></path>
      <path
        fill="#585858"
        d="M41.078 321.079h-2.61c-.92 0-1.667 1.18-1.667 2.638 0 1.457.747 2.638 1.667 2.638h2.61c.92 0 1.666-1.181 1.666-2.638 0-1.458-.745-2.638-1.666-2.638z"
      ></path>
      <path
        fill="#fff"
        d="M39.232 318.453H33.8c-.283 0-.513.363-.513.811 0 .447.23.81.513.81h5.432c.282 0 .513-.363.513-.81 0-.448-.23-.811-.513-.811zM71.505 303.517H58.23c-.705 0-1.278 1-1.278 2.235v19.584c0 1.235.573 2.235 1.278 2.235h13.274c.705 0 1.277-1 1.277-2.235v-19.584c0-1.235-.572-2.235-1.277-2.235z"
      ></path>
      <path
        fill="#4B4B4B"
        d="M68.649 310.446H64c-1.104 0-1.999 1.418-1.999 3.163v2.84c0 1.747.895 3.163 1.999 3.163h4.648c1.104 0 1.999-1.416 1.999-3.163v-2.84c0-1.745-.895-3.163-2-3.163z"
      ></path>
      <path
        fill="#4F4F4F"
        d="M70.06 315.289h-6.945c-4.005 0-7.252 5.067-7.252 11.32 0 6.252 3.247 11.32 7.252 11.32h6.944c4.005 0 7.251-5.068 7.251-11.32 0-6.253-3.246-11.32-7.25-11.32z"
      ></path>
      <path
        fill="#4F4F4F"
        d="M75.453 325.572h-17.79c-1.416 0-2.565 1.679-2.565 3.749v4.902c0 2.071 1.15 3.75 2.565 3.75h17.79c1.417 0 2.565-1.679 2.565-3.75v-4.902c0-2.07-1.148-3.749-2.565-3.749z"
      ></path>
      <path
        fill="#fff"
        d="M77.053 333.229h-20.99c-.532 0-.965.632-.965 1.41v1.844c0 .779.433 1.411.966 1.411h20.99c.532 0 .964-.632.964-1.411v-1.844c0-.778-.432-1.41-.965-1.41zM69.088 315.857h-5.433c-.283 0-.512.364-.512.812 0 .447.229.81.512.81h5.433c.283 0 .513-.363.513-.81 0-.448-.23-.812-.513-.812z"
      ></path>
      <path
        fill="#585858"
        d="M70.933 321.11h-2.61c-.92 0-1.667 1.182-1.667 2.638 0 1.457.746 2.639 1.667 2.639h2.61c.92 0 1.666-1.182 1.666-2.639 0-1.456-.746-2.638-1.666-2.638z"
      ></path>
      <path
        fill="#fff"
        d="M69.088 318.483h-5.433c-.283 0-.512.365-.512.811 0 .448.229.811.512.811h5.433c.283 0 .513-.363.513-.811 0-.446-.23-.811-.513-.811z"
      ></path>
      <path
        fill="#D9B392"
        d="M67.174 73.324c0-10.916-7.39-19.764-16.507-19.764-9.118 0-16.509 8.848-16.509 19.764v8.109c0 10.915 7.39 19.765 16.51 19.765 9.117 0 16.506-8.85 16.506-19.765v-8.11z"
      ></path>
      <path
        fill="#C49D7A"
        d="M44.597 96.41l-9.01-4.33a2.015 2.015 0 10-1.745 3.63l9.011 4.332a2.014 2.014 0 101.744-3.632zM55.55 96.41l9.01-4.33a2.016 2.016 0 012.69.941 2.016 2.016 0 01-.944 2.689l-9.01 4.332a2.015 2.015 0 01-1.747-3.632zM53.488 54.889h-6.403c-7.35 0-13.308 5.957-13.308 13.306v5.46c0 7.35 5.958 13.307 13.308 13.307h6.403c7.349 0 13.306-5.958 13.306-13.307v-5.46c0-7.349-5.957-13.306-13.306-13.306z"
      ></path>
      <path
        fill="#D9B392"
        d="M73.307 43.307H27.555c-5.23 0-9.471 4.404-9.471 9.838 0 5.435 4.24 9.84 9.471 9.84h45.752c5.23 0 9.472-4.405 9.472-9.84 0-5.434-4.242-9.838-9.472-9.838z"
      ></path>
      <path
        fill="#C49D7A"
        d="M73.588 44.794H27.536c-3.985 0-7.214 3.285-7.214 7.337s3.23 7.338 7.214 7.338h46.052c3.984 0 7.215-3.286 7.215-7.338 0-4.053-3.23-7.337-7.215-7.337z"
      ></path>
      <path
        fill="#D9B392"
        d="M57.448 14.702H43.676c-11.409 0-20.658 9.249-20.658 20.659v24.482c0 11.411 9.25 20.661 20.658 20.661h13.772c11.409 0 20.658-9.25 20.658-20.66V35.36c0-11.41-9.25-20.659-20.658-20.659z"
      ></path>
      <path
        fill="#D9B392"
        d="M57.012 77.703H44.144a2.52 2.52 0 000 5.04h12.868a2.52 2.52 0 000-5.04z"
      ></path>
      <path
        fill="#C49D7A"
        d="M52.656 74.887h-3.721a.539.539 0 00-.538.539v.317c0 .298.24.54.538.54h3.72a.54.54 0 00.539-.54v-.317a.54.54 0 00-.538-.54zM54.587 51.087a4.045 4.045 0 10-8.09 0v7.138a4.046 4.046 0 008.09 0v-7.138z"
      ></path>
      <path
        fill="#C49D7A"
        d="M50.097 59.165l-3.761-3.197a1.478 1.478 0 00-1.913 2.25l3.761 3.198a1.478 1.478 0 001.913-2.251zM51.13 59.165l3.762-3.197a1.477 1.477 0 111.913 2.25l-3.763 3.198a1.478 1.478 0 01-1.912-2.251zM48.006 43.682a1.134 1.134 0 10-2.268 0v1.373a1.134 1.134 0 002.268 0v-1.373zM55.535 43.682a1.133 1.133 0 10-2.267 0v1.373a1.134 1.134 0 002.267 0v-1.373z"
      ></path>
      <path
        fill="#61534B"
        d="M40.739 46.028a2.531 2.531 0 00-5.063 0v1.014a2.531 2.531 0 005.063 0v-1.014zM65.358 46.028a2.53 2.53 0 10-5.063 0v1.013a2.531 2.531 0 105.063 0v-1.013z"
      ></path>
      <path
        fill="#fff"
        d="M55.332 72.031c3.727 0 6.726-3.204 6.726-7.184v-1.162h-22.65v1.162c0 3.98 3.001 7.184 6.727 7.184h9.197z"
      ></path>
      <path
        fill="#61534B"
        fillRule="evenodd"
        d="M68.09 40.17c-.088-.24-.393-.38-.68-.315l-7.29 1.683c-.288.067-.45.316-.361.556l.319.87c.087.24.393.38.68.314l7.291-1.683c.287-.067.449-.315.361-.556l-.32-.869zM41.83 42.121c.088-.24-.073-.489-.36-.554l-7.292-1.685c-.287-.065-.593.076-.68.315l-.32.87c-.088.24.074.489.361.556l7.291 1.683c.287.065.592-.075.68-.315l.32-.87z"
        clipRule="evenodd"
      ></path>
    </svg>