    <svg
      xmlns="http://www.w3.org/2000/svg"
      width="89"
      height="306"
      fill="none"
      viewBox="0 0 89 306"
    >
      <path
        fill="#F6D2AF"
        d="M55.584 224.889h2.136c5.358 0 9.702 4.333 9.702 9.677l.001 25.919v18.404l1.943 18.861c0 4.122-3.97 7.463-8.869 7.463H58.43c-4.897 0-8.867-3.341-8.867-7.463v-28.058c0-1.806-1.141-24.572-1.141-26.692v-10.968a7.156 7.156 0 017.162-7.143z"
      ></path>
      <path
        fill="#F6D2AF"
        d="M60.197 153.328h7.727c1.992 0 7.435.167 7.476.458.965 8.065 2.275 7.818 2.661 29.83 0 0-.113 11.501-1.453 21.206-1.006 7.282-4.995 19.874-6.63 22.749 0 0-2.353 5.033-2.353 6.229 0 3.818.507 9.062-5.137 8.974H57.92c-4.099 0-9.487.016-9.487-4.074 0-.882-.167-10.918-.41-12.12l-1.512-7.507-1.453-9.568a32.13 32.13 0 01-.365-4.821v-35.892c0-8.541 6.942-15.464 15.504-15.464zM55.277 289.758h8.326c4.802 0 8.695 3.452 8.695 7.708s-3.893 7.707-8.695 7.707h-8.326c-4.801 0-8.695-3.451-8.695-7.707s3.894-7.708 8.695-7.708z"
      ></path>
      <path
        fill="#F6D2AF"
        d="M49.461 292.571H69.42c1.59 0 2.879 1.656 2.879 3.701v4.839c0 2.044-1.29 3.701-2.88 3.701H49.462c-1.59 0-2.879-1.657-2.879-3.701v-4.839c0-2.045 1.29-3.701 2.88-3.701zM32.375 223.865H30.24c-5.358 0-9.702 4.333-9.702 9.677l-.001 25.92v18.404l-1.943 18.861c0 4.122 3.97 7.462 8.869 7.462h2.067c4.897 0 8.867-3.34 8.867-7.462v-28.059c0-1.805 1.141-24.571 1.141-26.692v-10.967a7.156 7.156 0 00-7.162-7.144z"
      ></path>
      <path
        fill="#F6D2AF"
        d="M28.076 153.328H20.35c-1.991 0-7.434.167-7.476.458-.965 8.065-2.274 7.818-2.661 29.83 0 0 .114 11.501 1.454 21.206 1.005 7.282 4.995 19.874 6.63 22.749 0 0 2.353 5.033 2.353 6.229 0 3.818-.508 9.062 5.136 8.974h4.568c4.1 0 9.487.016 9.487-4.074 0-.882.167-10.918.41-12.12l1.512-7.507 1.454-9.568c.242-1.595.364-3.207.364-4.821v-35.892c0-8.541-6.941-15.464-15.503-15.464zM24.902 289.396h8.326c4.802 0 8.695 3.452 8.695 7.709 0 4.256-3.893 7.707-8.695 7.707h-8.326c-4.801 0-8.695-3.451-8.695-7.707 0-4.257 3.894-7.709 8.695-7.709z"
      ></path>
      <path
        fill="#F6D2AF"
        d="M19.086 292.21h19.958c1.59 0 2.879 1.656 2.879 3.701v4.839c0 2.044-1.29 3.701-2.88 3.701H19.087c-1.59 0-2.879-1.657-2.879-3.701v-4.839c0-2.045 1.29-3.701 2.88-3.701zM15.695 82.621c-3.864-1.024-8.84 6.618-9.69 12.65 0 0-2.515 31.225-2.491 33.645.043 4.237 1.452 7.345 4.5 8.153 3.327.883 5.538-1.389 6.63-5.891.371-1.528 2.585-28.287 2.638-29.908.146-4.457 1.32-17.878-1.587-18.649z"
      ></path>
      <path
        fill="#F6D2AF"
        d="M9.647 117.101l-.05-.002c-3.167-.134-5.912 4.685-6.133 10.763l-1.66 45.644c-.22 6.079 2.167 11.115 5.334 11.249l.05.002c3.166.134 5.912-4.685 6.133-10.764l1.659-45.643c.22-6.079-2.167-11.116-5.333-11.249z"
      ></path>
      <path
        fill="#F6D2AF"
        d="M10.273 165.152l-1.99-.015c-3.814-.028-7.086 5.646-7.308 12.672l-.197 6.243c-.223 7.027 2.689 12.745 6.503 12.773l1.99.015c3.814.028 7.085-5.646 7.307-12.672l.198-6.243c.222-7.026-2.69-12.745-6.503-12.773z"
      ></path>
      <path
        fill="#F6D2AF"
        d="M10.765 182.908c-.83-4.469-3.755-6.732-6.534-5.055-2.779 1.678-4.36 6.661-3.53 11.129l2.267 12.205c.83 4.468 3.755 6.731 6.534 5.053 2.779-1.677 4.359-6.659 3.53-11.128l-2.267-12.204z"
      ></path>
      <path
        fill="#F6D2AF"
        d="M17.27 180.521c.093-3.115-1.18-5.651-2.846-5.665-1.665-.015-3.09 2.5-3.184 5.615l-.257 8.507c-.094 3.116 1.18 5.653 2.846 5.667 1.665.013 3.091-2.5 3.185-5.615l.256-8.509zM72.649 83.645c3.863-1.025 8.84 6.617 9.69 12.65 0 0 2.515 31.225 2.49 33.644-.042 4.238-1.451 7.346-4.499 8.153-3.327.884-5.538-1.388-6.63-5.89-.372-1.528-2.585-28.288-2.638-29.909-.146-4.457-1.32-17.878 1.587-18.648z"
      ></path>
      <path
        fill="#F6D2AF"
        d="M78.697 118.125l.05-.002c3.166-.134 5.912 4.685 6.133 10.763l1.66 45.643c.22 6.079-2.168 11.115-5.334 11.249l-.05.002c-3.166.134-5.912-4.685-6.133-10.764l-1.66-45.643c-.22-6.079 2.168-11.115 5.334-11.248z"
      ></path>
      <path
        fill="#F6D2AF"
        d="M78.767 165.152l1.99-.015c3.814-.028 7.086 5.646 7.308 12.672l.198 6.243c.221 7.027-2.69 12.745-6.504 12.773l-1.99.015c-3.814.028-7.086-5.646-7.308-12.672l-.197-6.243c-.223-7.026 2.689-12.745 6.503-12.773z"
      ></path>
      <path
        fill="#F6D2AF"
        d="M78.274 182.908c.83-4.469 3.756-6.732 6.534-5.055 2.78 1.678 4.36 6.661 3.53 11.129l-2.267 12.205c-.829 4.468-3.755 6.731-6.533 5.053-2.78-1.677-4.36-6.659-3.53-11.128l2.266-12.204z"
      ></path>
      <path
        fill="#F6D2AF"
        d="M71.769 180.521c-.094-3.115 1.18-5.651 2.845-5.665 1.666-.015 3.092 2.5 3.185 5.615l.256 8.507c.094 3.116-1.18 5.653-2.845 5.667-1.665.013-3.091-2.5-3.185-5.615l-.257-8.509z"
      ></path>
      <path
        fill="#F2BF92"
        d="M16.223 96.034c0-16.078 57.883-14.847 57.883 0l-2.205 15.895 4.732 40.375c0 16.077-17.206 5.439-32.608 5.439-15.402 0-32.716 10.638-32.716-5.439l4.914-40.375V96.034z"
      ></path>
      <path
        fill="#F6D2AF"
        d="M44.023 67.014c1.116 0 2.227.075 3.33.223 13.29 1.777 25.136 13.95 25.136 28.797l-2.087 15.895 4.478 40.375c0 16.078-16.282 5.439-30.857 5.439-14.576 0-30.96 10.639-30.96-5.439l4.65-40.375V96.034c0-16.078 11.734-29.02 26.31-29.02z"
      ></path>
      <path
        fill="#F6D2AF"
        d="M43.834 132.099h1.001c16.582 0 21.964-8.969 24.686 3.187l3.494 17.019c.56 2.5.397 5.223-.357 7.974-2.912 10.616-14.653 21.625-27.823 21.625h-1.001c-8.38 0-16.356-4.521-21.845-10.562-2.265-2.491-4.105-5.241-5.377-8.038-1.746-3.842-2.42-7.773-1.641-11.249l4.729-16.769c2.722-12.156 7.552-3.187 24.134-3.187zM15.218 75.968h57.688c5.717 0 10.32 5.88 10.32 13.183 0 7.304-4.603 13.183-10.32 13.183H15.218c-5.717 0-10.32-5.879-10.32-13.183s4.603-13.183 10.32-13.183z"
      ></path>
      <path
        fill="#F6D2AF"
        d="M35.126 74.404h19.333c10.803 0 19.5 10.124 19.5 22.7 0 12.574-8.697 22.697-19.5 22.697H35.126c-10.802 0-19.499-10.123-19.499-22.698 0-12.575 8.697-22.699 19.499-22.699z"
      ></path>
      <path
        fill="#F2BF92"
        d="M44.485 102.334c2.34 0 4.225 2.584 4.225 5.792v5.372c0 3.21-1.884 5.793-4.225 5.793-2.34 0-4.225-2.583-4.225-5.793v-5.372c0-3.208 1.884-5.792 4.225-5.792z"
      ></path>
      <path
        fill="#F6D2AF"
        d="M32.342 96.257a6.174 6.174 0 00-3.49 1.078 13.073 13.073 0 00-8.704 4.149 13.246 13.246 0 00-3.539 9.018c0 3.5 1.381 6.858 3.84 9.333a13.063 13.063 0 009.27 3.865 13.055 13.055 0 008.61-3.259 13.228 13.228 0 004.363-8.155c.088-.433.136-.882.136-1.342v-8.203c0-3.592-2.818-6.484-6.316-6.484h-4.17zm19.417 0c-3.498 0-6.315 2.892-6.315 6.484v8.203c0 .46.047.909.135 1.342a13.228 13.228 0 004.363 8.155 13.053 13.053 0 008.61 3.259c3.478 0 6.812-1.39 9.27-3.865a13.248 13.248 0 003.84-9.333c0-3.349-1.265-6.573-3.54-9.018a13.07 13.07 0 00-8.702-4.15 6.174 6.174 0 00-3.492-1.077h-4.17z"
      ></path>
      <path
        fill="#F2BF92"
        fillRule="evenodd"
        d="M45.345 146.481a1.292 1.292 0 00-2.581 0v2.402a1.29 1.29 0 002.58 0v-2.402z"
        clipRule="evenodd"
      ></path>
      <path
        fill="#F2BF92"
        d="M67.862 138.551c-23.242-4.993-47.128 0-47.128 0 0-1.13 11.17-4.993 23.886-4.993 12.715 0 23.242 3.863 23.242 4.993z"
      ></path>
      <path
        fill="#4F4F4F"
        fillOpacity="0.99"
        d="M44.258 67.015c1.14 0 2.276.08 3.402.236 13.58 1.883 25.684 14.78 25.684 30.507l-8.525 16.839H25.212l-7.837-16.84c0-17.031 11.99-30.742 26.883-30.742z"
      ></path>
      <path
        fill="#4F4F4F"
        d="M34.534 74.844h19.357c10.816 0 19.523 10.724 19.523 24.046 0 5.643.981 11.615-2.275 15.707-4.126 5.185-11.013 8.339-17.248 8.339H34.534c-5.932 0-13.585-3.227-17.16-8.339-2.942-4.207-2.363-9.692-2.363-15.707 0-13.322 8.707-24.046 19.523-24.046zM12.109 152.055c-2.497 23.523 14.504 41.274 30.485 41.274 16.19 0 36.638-17.703 33.359-41.274H12.109z"
      ></path>
      <path
        fill="#4B4B4B"
        d="M76.511 152.055l-32.782 4.563 1.084 36.944c-.54 5.239-.487 10.63.375 15.868l31.693.099c2.439-12.465 2.182-20.911 2.387-28.89.26-10.112.164-17.511-2.757-28.584z"
      ></path>
      <path
        fill="#4B4B4B"
        d="M11.454 152.055l33.255 4.563-1.084 36.944c.54 5.239.487 10.63-.375 15.868l-31.694.099c-2.438-12.465-2.182-20.911-2.386-28.89-.26-10.112-.638-17.511 2.284-28.584z"
      ></path>
      <path
        fill="#fff"
        d="M37.404 272.688H21.26c-.858 0-1.554.935-1.554 2.09v18.325c0 1.156.696 2.091 1.554 2.091h16.145c.858 0 1.555-.935 1.555-2.091v-18.325c0-1.155-.697-2.09-1.555-2.09z"
      ></path>
      <path
        fill="#4B4B4B"
        d="M31.297 279.142h-5.639c-1.34 0-2.426 1.34-2.426 2.994v2.686c0 1.655 1.087 2.995 2.426 2.995h5.639c1.34 0 2.426-1.34 2.426-2.995v-2.686c0-1.654-1.085-2.994-2.426-2.994z"
      ></path>
      <path
        fill="#4F4F4F"
        d="M33.243 283.755H24.73c-4.908 0-8.888 4.796-8.888 10.715 0 5.918 3.98 10.714 8.888 10.714h8.513c4.908 0 8.887-4.796 8.887-10.714 0-5.919-3.979-10.715-8.887-10.715z"
      ></path>
      <path
        fill="#4F4F4F"
        d="M39.628 293.488H18.473c-1.685 0-3.051 1.589-3.051 3.548v4.64c0 1.961 1.366 3.55 3.051 3.55h21.155c1.686 0 3.053-1.589 3.053-3.55v-4.64c0-1.959-1.367-3.548-3.053-3.548z"
      ></path>
      <path
        fill="#fff"
        d="M40.434 300.736h-23.51c-.598 0-1.082.598-1.082 1.335v1.745c0 .737.484 1.336 1.082 1.336h23.51c.597 0 1.081-.599 1.081-1.336v-1.745c0-.737-.484-1.335-1.08-1.335zM31.89 284.293h-6.592c-.344 0-.622.344-.622.768 0 .424.278.767.622.767h6.592c.343 0 .622-.343.622-.767s-.28-.768-.622-.768z"
      ></path>
      <path
        fill="#585858"
        d="M24.829 289.235h-3.167c-1.117 0-2.023 1.117-2.023 2.497 0 1.379.906 2.498 2.023 2.498h3.167c1.117 0 2.022-1.119 2.022-2.498 0-1.38-.905-2.497-2.022-2.497z"
      ></path>
      <path
        fill="#fff"
        d="M31.89 286.75h-6.592c-.344 0-.622.344-.622.767 0 .424.278.767.622.767h6.592c.343 0 .622-.343.622-.767 0-.423-.28-.767-.622-.767zM66.604 272.687H50.507c-.855 0-1.55.944-1.55 2.11v18.486c0 1.166.695 2.111 1.55 2.111h16.097c.855 0 1.549-.945 1.549-2.111v-18.486c0-1.166-.694-2.11-1.55-2.11z"
      ></path>
      <path
        fill="#4B4B4B"
        d="M62.194 279.229h-5.52c-1.312 0-2.375 1.338-2.375 2.985v2.681c0 1.649 1.063 2.986 2.374 2.986h5.521c1.312 0 2.375-1.337 2.375-2.986v-2.681c0-1.647-1.063-2.985-2.375-2.985z"
      ></path>
      <path
        fill="#4F4F4F"
        d="M63.494 283.799H55.22c-4.77 0-8.639 4.783-8.639 10.686 0 5.902 3.868 10.685 8.64 10.685h8.272c4.771 0 8.987-4.699 8.987-10.6 0-5.903-4.216-10.771-8.987-10.771z"
      ></path>
      <path
        fill="#4F4F4F"
        d="M69.799 293.507H49.006c-1.655 0-2.998 1.585-2.998 3.538v4.628c0 1.955 1.343 3.54 2.998 3.54H69.8c1.656 0 2.998-1.585 2.998-3.54v-4.628c0-1.953-1.342-3.538-2.998-3.538z"
      ></path>
      <path
        fill="#fff"
        d="M71.08 300.734H48.065c-.584 0-1.06.596-1.06 1.331v1.741c0 .735.476 1.332 1.06 1.332H71.08c.585 0 1.059-.597 1.059-1.332v-1.741c0-.735-.474-1.331-1.059-1.331zM63.723 284.336h-6.454c-.336 0-.609.343-.609.766 0 .422.273.765.61.765h6.453c.335 0 .609-.343.609-.765 0-.423-.273-.766-.609-.766z"
      ></path>
      <path
        fill="#585858"
        d="M65.916 289.295h-3.1c-1.094 0-1.98 1.115-1.98 2.49 0 1.376.886 2.491 1.98 2.491h3.1c1.093 0 1.98-1.115 1.98-2.491 0-1.375-.887-2.49-1.98-2.49z"
      ></path>
      <path
        fill="#fff"
        d="M63.723 286.815h-6.454c-.336 0-.609.344-.609.765 0 .424.273.767.61.767h6.453c.335 0 .609-.343.609-.767 0-.421-.273-.765-.609-.765z"
      ></path>
      <path
        fill="#F6D2AF"
        d="M44.727 41.132c8.333 0 15.042 10.096 15.042 22.637v9.288c0 12.541-6.403 16.072-14.736 16.042-8.765-.03-15.348-3.5-15.348-16.043V63.77c0-12.541 6.709-22.637 15.042-22.637z"
      ></path>
      <path
        fill="#F2BF92"
        d="M42.46 42.827h4.532c5.217 0 9.417 5.872 9.417 13.167v5.402c0 7.294-4.2 13.166-9.417 13.166H42.46c-5.217 0-9.417-5.872-9.417-13.166v-5.402c0-7.295 4.2-13.167 9.417-13.167zM32.745 80.324c-.701 0-1.266.55-1.266 1.231 0 .682.565 1.23 1.267 1.23h7.044l2.022 1.432c.568.404 1.36.283 1.775-.27a1.21 1.21 0 00-.278-1.725l-2.094-1.482c-.022-.016-.046-.024-.068-.038a1.276 1.276 0 00-.911-.378h-7.49zm16.475 0c-.36 0-.682.145-.911.378-.023.014-.047.022-.068.038l-2.094 1.483a1.21 1.21 0 00-.278 1.724 1.291 1.291 0 001.774.27l2.023-1.432h7.044c.702 0 1.267-.548 1.267-1.23 0-.682-.565-1.23-1.267-1.23h-7.49z"
      ></path>
      <path
        fill="#F6D2AF"
        d="M21.682 30.49h47.026a9.714 9.714 0 019.734 9.735 9.713 9.713 0 01-9.734 9.734H21.682a9.713 9.713 0 01-9.735-9.734 9.714 9.714 0 019.735-9.736z"
      ></path>
      <path
        fill="#F2BF92"
        d="M22.024 32.965h46.34a7.244 7.244 0 017.26 7.26 7.244 7.244 0 01-7.26 7.26h-46.34a7.244 7.244 0 01-7.26-7.26 7.244 7.244 0 017.26-7.26zM42.816 64.017h3.044c.244 0 .44.172.44.384v.228c0 .212-.196.384-.44.384h-3.044c-.245 0-.441-.172-.441-.384V64.4c0-.212.197-.384.441-.384z"
      ></path>
      <path
        fill="#DCB491"
        d="M34.53 78.897l.177 1.266a21.533 21.533 0 003.387 8.919 21.59 21.59 0 013.601 11.958v3.417c0 2.324-.245 4.641-.731 6.912l-1.637 7.662c-.082.385-.124.78-.124 1.176v5.121c0 3.609-4.47 5.149-6.59 2.27a3.782 3.782 0 01-.63-1.343l-.675-2.723a18.153 18.153 0 01-.188-7.884l.58-2.935c.31-1.563.465-3.154.465-4.75v-3.587c0-2.61-.788-5.154-2.258-7.284a12.802 12.802 0 01-2.169-5.77l-.04-.334a14.188 14.188 0 00-1.543-4.966l-1.518-2.877a22.112 22.112 0 00-1.925-3.022l-1.519-2.002a14.828 14.828 0 01-2.995-8.955c0-2.133-.456-4.24-1.336-6.175l-1.813-3.98a5.609 5.609 0 01-.502-2.319c0-3.023 2.387-5.472 5.33-5.472h7.511l1.658 3.762a8.142 8.142 0 01.238 5.953 8.144 8.144 0 00.512 6.512l2.527 4.706a20.247 20.247 0 012.206 6.744z"
      ></path>
      <path
        fill="#F6D2AF"
        d="M39.909 3.126h10.57c8.786 0 22.682 12.405 22.682 24.603v17.309c0 12.199-13.024 25.55-22.354 25.55H39.583c-9.33 0-22.354-13.351-22.354-25.55V27.729c0-12.198 13.894-24.603 22.68-24.603z"
      ></path>
      <path
        fill="#DCB491"
        d="M22.436 5.999c6.7-3.38 16.446-5.217 20.546-5.604.886-.084 1.763.007 2.638.177l12.502 2.417a14.251 14.251 0 018.09 4.717l6.252 7.264a14.942 14.942 0 013.596 9.748v4.087c0 .588.137 1.166.401 1.689 1.9 3.753-2.889 7.273-5.739 4.217l-5.736-6.153a4.71 4.71 0 00-2.487-1.407L43.927 23.28a13.97 13.97 0 00-2.873-.295L31.38 23c-2.088.003-4.12.842-5.362 2.564-1.544 2.142-3.037 4.77-4.157 7.342-1.23 2.83-5.41 4.516-7.825 2.659a3.723 3.723 0 01-1.296-3.938c.094-.33.14-.67.14-1.015v-3.08c-.002-1.074.885-4.713 1.165-5.748 1.583-5.846 3.085-13.11 8.39-15.785z"
      ></path>
      <path
        fill="#DCB491"
        fillRule="evenodd"
        d="M48.147 19.67a10.863 10.863 0 00-6.062 0l-1.803.534a10.85 10.85 0 01-4.018.388l-2.86-.258c-2.097-.188-4.195.326-5.712 1.4-1.12.793-2.569 1.29-4.117 1.41l-3.297.258c-1.546.121-2.794.981-3.05 2.104l-.001.003V11.676c18.489-14.606 37.13-14.956 55.933 0v14.502l-.154-.672c-.258-1.123-1.505-1.983-3.052-2.104l-3.297-.257c-1.548-.121-2.997-.618-4.117-1.41-1.517-1.075-3.615-1.59-5.71-1.4l-2.862.257a10.85 10.85 0 01-4.018-.388l-1.803-.534z"
        clipRule="evenodd"
      ></path>
      <path
        fill="#F2BF92"
        d="M45.19 36.607c1.866 0 3.368 1.589 3.368 3.56v6.285c0 1.973-1.502 3.56-3.368 3.56-1.865 0-3.368-1.587-3.368-3.56v-6.284c0-1.972 1.503-3.56 3.368-3.56z"
      ></path>
      <path
        fill="#F2BF92"
        d="M50.804 45.974c0 1.572-1.33 2.836-2.983 2.836h-5.26c-1.651 0-2.98-1.264-2.98-2.836 0-1.57 1.328-2.834 2.98-2.834h5.26c1.652 0 2.983 1.264 2.983 2.834z"
      ></path>
      <path
        fill="#fff"
        d="M36.7 52.897c-.39 0-.765.125-1.042.349-.277.223-.431.526-.431.843v.897c0 1.772.63 3.395 1.744 4.632a6.388 6.388 0 004.732 2.114h6.843c1.93 0 3.617-.876 4.731-2.114 1.116-1.237 1.746-2.86 1.746-4.632v-.897c0-.316-.156-.62-.432-.843a1.671 1.671 0 00-1.043-.35H36.7z"
      ></path>
      <path
        fill="#4D4D4D"
        d="M28.634 31.572l8.1-2.874c.881-.313 2.096-.267 2.724.103.629.37.425.92-.455 1.232l-8.1 2.875c-.881.312-2.096.267-2.725-.104-.629-.37-.425-.919.456-1.232zM61.493 31.572l-8.1-2.874c-.881-.313-2.096-.267-2.724.103-.629.37-.425.92.455 1.232l8.1 2.875c.881.312 2.096.267 2.725-.104.629-.37.425-.919-.456-1.232z"
      ></path>
      <path
        fill="#61534B"
        d="M33.028 34.103h1.239c1.126 0 2.031.907 2.031 2.032v2.86c0 1.125-.905 2.03-2.031 2.03h-1.24a2.026 2.026 0 01-2.03-2.03v-2.86c0-1.125.905-2.032 2.03-2.032zM57.355 34.103h-1.24a2.027 2.027 0 00-2.031 2.032v2.86c0 1.125.906 2.03 2.031 2.03h1.24a2.026 2.026 0 002.031-2.03v-2.86a2.027 2.027 0 00-2.031-2.032z"
      ></path>
    </svg>