    <svg
      xmlns="http://www.w3.org/2000/svg"
      width="99"
      height="325"
      fill="none"
      viewBox="0 0 99 325"
    >
      <path
        fill="#C89F7B"
        d="M82.524 102.728c.101-1.289 14.953-15.343 15.168-13.782 0 0 .54 27.458 0 31.36l-.27 7.128a22.126 22.126 0 00-.213 3.035v2.417c0 1.16-.06 12.918-.025 12.846 0 0-12.402.103-12.541-.19l-2.418-41.469.3-1.345z"
      ></path>
      <path
        fill="#C89F7B"
        d="M90.235 116.82l.057.004c3.66.208 6.696 5.681 6.778 12.226l.62 49.14c.083 6.544-2.818 11.681-6.479 11.473l-.057-.003c-3.661-.208-6.696-5.681-6.779-12.225l-.62-49.14c-.082-6.545 2.819-11.681 6.48-11.475z"
      ></path>
      <path
        fill="#C89F7B"
        d="M89.599 169.184l1.937.222c3.712.427 6.776 6.937 6.843 14.54l.059 6.755c.066 7.604-2.89 13.422-6.602 12.995l-1.936-.223c-3.632-.417-6.642-6.654-6.834-14.042a24.326 24.326 0 01-.009-.498l-.06-6.754c-.067-7.604 2.89-13.421 6.602-12.995z"
      ></path>
      <path
        fill="#C89F7B"
        d="M88.331 188.161c.942-4.665 4.019-6.691 6.874-4.525 2.855 2.166 4.405 7.704 3.464 12.37l-2.573 12.741c-.94 4.665-4.018 6.691-6.872 4.524-2.855-2.167-4.406-7.705-3.464-12.369l2.571-12.741z"
      ></path>
      <path
        fill="#BD8B60"
        d="M82.262 184.951c-.022-3.36 1.251-5.938 2.843-5.76 1.59.179 2.9 3.048 2.92 6.408l.059 9.176c.021 3.36-1.251 5.939-2.842 5.76-1.592-.179-2.9-3.047-2.92-6.407l-.06-9.177z"
      ></path>
      <path
        fill="#C89F7B"
        d="M18.38 100.112c-.1-1.29-15.148-11.75-15.148-11.75-.538 1.338-1.42 27.609-.88 31.511l.269 7.128c.142 1.024.214 2.04.214 3.035v2.418c0 1.159.06 12.917.025 12.846 0 0 12.402.102 12.54-.191l2.998-41.037-.017-3.96z"
      ></path>
      <path
        fill="#C89F7B"
        d="M9.81 116.388l-.057.003c-3.661.208-6.696 5.681-6.779 12.226l-.62 49.14c-.082 6.544 2.819 11.681 6.48 11.474l.057-.004c3.661-.208 6.696-5.681 6.779-12.225l.62-49.14c.082-6.545-2.819-11.681-6.48-11.474z"
      ></path>
      <path
        fill="#C89F7B"
        d="M9.737 168.752l-1.937.222c-3.712.426-6.776 6.936-6.843 14.54l-.06 6.755c-.066 7.604 2.89 13.421 6.603 12.995l1.936-.223c3.713-.427 6.776-6.937 6.843-14.541l.06-6.754c.067-7.603-2.89-13.421-6.602-12.994z"
      ></path>
      <path
        fill="#C89F7B"
        d="M12.097 187.728c-.941-4.665-4.019-6.691-6.874-4.525-2.854 2.167-4.405 7.704-3.464 12.37l2.572 12.741c.941 4.665 4.02 6.691 6.873 4.524 2.855-2.166 4.406-7.704 3.464-12.369l-2.571-12.741z"
      ></path>
      <path
        fill="#BD8B60"
        d="M18.168 184.518c.021-3.36-1.251-5.938-2.843-5.759-1.592.178-2.9 3.047-2.92 6.407l-.059 9.176c-.021 3.36 1.25 5.94 2.842 5.76 1.592-.178 2.9-3.047 2.92-6.407l.06-9.177z"
      ></path>
      <path
        fill="#C89F7B"
        d="M42.931 253.071s-19.869.243-20.038.262l-.361 23.467v19.264l-.747 20.198c0 4.314 4.18 7.811 9.338 7.811h2.179c5.157 0 9.338-3.497 9.338-7.811l.445-29.282c0-2.007-.154-31.687-.154-33.909z"
      ></path>
      <path
        fill="#C89F7B"
        d="M49.421 186.206c.201-.234-31.413-.554-31.456-.243 0 0-2.141 16.641-.892 34.158 1.186 16.644 5.757 34.21 6.02 34.216 3.292.08 13.548-.06 19.815.042.034.001 1.863-7.176 3.752-16.354 2.739-13.311 2.876-16.448 2.827-17.904-.504-15.209.014-34.032-.066-33.915zM36.333 307.646h-8.77c-5.056 0-9.155 3.702-9.155 8.267 0 4.565 4.099 8.266 9.156 8.266h8.77c5.055 0 9.155-3.701 9.155-8.266 0-4.565-4.1-8.267-9.156-8.267z"
      ></path>
      <path
        fill="#C89F7B"
        d="M42.457 315.114H21.44c-1.674 0-3.032 1.226-3.032 2.738v3.581c0 1.511 1.358 2.736 3.032 2.736h21.017c1.675 0 3.032-1.225 3.032-2.736v-3.581c0-1.512-1.357-2.738-3.032-2.738zM59.108 253.071s20.076.243 20.248.262l.364 23.467v19.264l.755 20.198c0 4.314-4.224 7.811-9.436 7.811h-2.2c-5.212 0-9.436-3.497-9.436-7.811l-.45-29.282c0-2.007.155-31.687.155-33.909z"
      ></path>
      <path
        fill="#C89F7B"
        d="M52.55 186.206c-.3-.05 31.741-.554 31.785-.243 0 0 1.68 16.846.463 33.813-1.236 17.215-5.37 34.555-5.646 34.561-3.326.08-13.678.029-20.03-.006-.002 0-1.394-8.093-2.793-16.517-1.282-7.73-2.569-15.741-2.79-18.038-1.625-16.866-.988-33.57-.988-33.57zM65.775 307.646h8.861c5.11 0 9.25 3.702 9.25 8.267 0 4.565-4.14 8.266-9.25 8.266h-8.861c-5.109 0-9.25-3.701-9.25-8.266 0-4.565 4.142-8.267 9.25-8.267z"
      ></path>
      <path
        fill="#C89F7B"
        d="M59.588 315.114h21.235c1.691 0 3.064 1.226 3.064 2.738v3.581c0 1.511-1.373 2.736-3.064 2.736H59.588c-1.692 0-3.064-1.225-3.064-2.736v-3.581c0-1.512 1.372-2.738 3.064-2.738z"
      ></path>
      <path
        fill="#BD8B60"
        d="M82.146 122.085c0-21.342-16.207-29.576-32.65-29.576-16.444 0-31.455 8.234-31.455 29.576L9.613 170.54c0 21.344 23.44 27.179 39.883 27.179s41.53-5.836 41.53-27.179l-8.88-48.455z"
      ></path>
      <path
        fill="#C89F7B"
        d="M80.394 122.085c0-21.342-15.314-29.576-30.852-29.576s-29.723 8.234-29.723 29.576l-7.963 48.455c0 21.344 22.148 27.179 37.686 27.179s39.243-5.836 39.243-27.179l-8.391-48.455z"
      ></path>
      <path
        fill="#C89F7B"
        d="M84.448 73.997h-68.07c-7.369 0-13.343 7.634-13.343 17.053 0 9.417 5.974 10.594 13.342 10.594l68.071 1.084c7.368 0 13.341-2.261 13.341-11.678 0-9.419-5.973-17.053-13.341-17.053z"
      ></path>
      <path
        fill="#BD8B60"
        d="M67.58 73.997H33.555c-8.778 0-15.895 8.793-15.895 19.64v11.837c0 10.846 7.117 15.714 15.895 15.714H67.58c1.886 0 3.695-.224 5.374-.685 6.134-1.683 10.522-6.514 10.522-15.029V93.637c0-10.847-7.117-19.64-15.896-19.64z"
      ></path>
      <path
        fill="#C89F7B"
        d="M70.55 73.997H30.585c-7.139 0-12.926 8.17-12.926 18.252v10.999c0 10.08 5.787 14.766 12.926 14.766H70.55c7.14 0 12.926-4.686 12.926-14.766v-11c0-10.08-5.787-18.25-12.926-18.25z"
      ></path>
      <path
        fill="#BD8B60"
        d="M53.589 109.626c0-1.245-1.363-2.253-3.045-2.253-1.68 0-3.044 1.008-3.044 2.253v4.37c0 1.243 1.363 2.253 3.044 2.253 1.682 0 3.045-1.01 3.045-2.253v-4.37zM31.204 111.485h-2.586c-1.03 0-1.866.965-1.866 2.155 0 1.188.836 2.153 1.866 2.153h2.586c1.03 0 1.865-.965 1.865-2.153 0-1.19-.835-2.155-1.865-2.155zM73.29 111.485h-2.584c-1.03 0-1.866.965-1.866 2.155 0 1.188.835 2.153 1.866 2.153h2.585c1.03 0 1.866-.965 1.866-2.153 0-1.19-.835-2.155-1.866-2.155zM79.3 140.131c-27.887-5.336-56.544 0-56.544 0 0-1.207 13.402-5.336 28.657-5.336s27.886 4.129 27.886 5.336z"
      ></path>
      <path
        fill="#BD8B60"
        fillRule="evenodd"
        d="M52.342 158.596a1.38 1.38 0 00-2.758 0v2.567a1.38 1.38 0 002.758 0v-2.567z"
        clipRule="evenodd"
      ></path>
      <path
        fill="#4F4F4F"
        d="M89.65 163.858s-23.501.184-38.292.123c-14.884-.061-39.991-.245-40.63 0 1.49 19.413 26.634 35.298 40.356 35.298 13.902 0 37.315-15.643 38.567-35.421z"
      ></path>
      <path
        fill="#4B4B4B"
        d="M89.65 163.981l-38.293 6.158 1.34 51.316h33.02c.246-15.424 8.504-50.966 3.934-57.474zM10.728 163.857l40.258 6.282v51.315H16.05c-.245-15.424-9.753-40.182-5.322-57.597z"
      ></path>
      <path
        fill="#fff"
        d="M41.363 290.466H23.502c-.95 0-1.719 1-1.719 2.234v19.585c0 1.235.77 2.235 1.719 2.235h17.861c.95 0 1.72-1 1.72-2.235V292.7c0-1.234-.77-2.234-1.72-2.234z"
      ></path>
      <path
        fill="#4B4B4B"
        d="M34.32 297.363h-5.991c-1.423 0-2.577 1.417-2.577 3.163v2.839c0 1.747 1.154 3.164 2.577 3.164h5.99c1.424 0 2.577-1.417 2.577-3.164v-2.839c0-1.746-1.153-3.163-2.577-3.163z"
      ></path>
      <path
        fill="#4F4F4F"
        d="M35.956 302.237h-8.832c-5.092 0-9.222 5.068-9.222 11.321 0 6.251 4.13 11.319 9.222 11.319h8.832c5.092 0 9.22-5.068 9.22-11.319 0-6.253-4.128-11.321-9.22-11.321z"
      ></path>
      <path
        fill="#4F4F4F"
        d="M43.241 312.521H20.408c-1.818 0-3.293 1.678-3.293 3.748v4.902c0 2.072 1.475 3.75 3.293 3.75h22.833c1.82 0 3.294-1.678 3.294-3.75v-4.902c0-2.07-1.474-3.748-3.294-3.748z"
      ></path>
      <path
        fill="#fff"
        d="M45.297 320.178H18.355c-.685 0-1.24.631-1.24 1.41v1.844c0 .778.555 1.411 1.24 1.411h26.942c.684 0 1.239-.633 1.239-1.411v-1.844c0-.779-.555-1.41-1.24-1.41zM34.95 302.806h-7.002c-.365 0-.66.363-.66.811 0 .448.295.811.66.811h7.003c.364 0 .66-.363.66-.811 0-.448-.296-.811-.66-.811z"
      ></path>
      <path
        fill="#585858"
        d="M37.33 308.027h-3.365c-1.186 0-2.149 1.181-2.149 2.638 0 1.457.963 2.639 2.15 2.639h3.364c1.187 0 2.148-1.182 2.148-2.639 0-1.457-.961-2.638-2.148-2.638z"
      ></path>
      <path
        fill="#fff"
        d="M34.95 305.401h-7.002c-.365 0-.66.363-.66.811 0 .447.295.81.66.81h7.003c.364 0 .66-.363.66-.81 0-.448-.296-.811-.66-.811zM78.651 290.465H60.423c-.968 0-1.755 1.001-1.755 2.235v19.584c0 1.235.787 2.236 1.755 2.236H78.65c.969 0 1.754-1.001 1.754-2.236V292.7c0-1.234-.785-2.235-1.754-2.235z"
      ></path>
      <path
        fill="#4B4B4B"
        d="M73.19 297.395h-5.992c-1.423 0-2.577 1.417-2.577 3.163v2.839c0 1.747 1.154 3.163 2.577 3.163h5.991c1.423 0 2.577-1.416 2.577-3.163v-2.839c0-1.746-1.154-3.163-2.577-3.163z"
      ></path>
      <path
        fill="#4F4F4F"
        d="M74.76 302.237h-8.83c-5.094 0-9.223 5.068-9.223 11.321 0 6.251 4.13 11.319 9.222 11.319h8.831c5.093 0 9.594-4.978 9.594-11.23 0-6.253-4.5-11.41-9.594-11.41z"
      ></path>
      <path
        fill="#4F4F4F"
        d="M82.272 312.521H58.857c-1.863 0-3.377 1.678-3.377 3.748v4.902c0 2.072 1.514 3.75 3.377 3.75h23.415c1.865 0 3.377-1.678 3.377-3.75v-4.902c0-2.07-1.512-3.748-3.377-3.748z"
      ></path>
      <path
        fill="#fff"
        d="M84.379 320.178H56.752c-.702 0-1.272.631-1.272 1.41v1.844c0 .778.57 1.411 1.272 1.411h27.627c.701 0 1.27-.633 1.27-1.411v-1.844c0-.779-.569-1.41-1.27-1.41zM74.848 302.806h-7.004c-.365 0-.66.363-.66.811 0 .448.295.811.66.811h7.004c.364 0 .661-.363.661-.811 0-.448-.297-.811-.66-.811z"
      ></path>
      <path
        fill="#585858"
        d="M77.227 308.059h-3.363c-1.187 0-2.15 1.181-2.15 2.638 0 1.457.963 2.638 2.15 2.638h3.363c1.187 0 2.15-1.181 2.15-2.638 0-1.457-.963-2.638-2.15-2.638z"
      ></path>
      <path
        fill="#fff"
        d="M74.848 305.432h-7.004c-.365 0-.66.364-.66.81 0 .449.295.812.66.812h7.004c.364 0 .661-.363.661-.812 0-.446-.297-.81-.66-.81z"
      ></path>
      <path
        fill="#4F4F4F"
        d="M89.65 163.858s-23.501.184-38.292.123c-14.884-.061-39.991-.245-40.63 0 1.49 19.413 26.634 35.298 40.356 35.298 13.902 0 37.315-15.643 38.567-35.421z"
      ></path>
      <path
        fill="#4B4B4B"
        d="M89.65 163.981l-38.293 6.158 1.34 51.316h33.02c.246-15.424 8.504-50.966 3.934-57.474zM10.728 163.857l40.258 6.282v51.315H16.05c-.245-15.424-9.753-40.182-5.322-57.597z"
      ></path>
      <path
        fill="#C89F7B"
        d="M66.983 61.757c0-10.915-7.39-19.764-16.507-19.764-9.119 0-16.51 8.849-16.51 19.764v8.11c0 10.915 7.391 19.764 16.51 19.764 9.117 0 16.507-8.85 16.507-19.765v-8.109z"
      ></path>
      <path
        fill="#BD8B60"
        d="M44.406 84.843l-9.01-4.33a2.015 2.015 0 10-1.746 3.63l9.012 4.332a2.014 2.014 0 101.744-3.632zM55.358 84.843l9.012-4.33a2.016 2.016 0 012.689.942 2.016 2.016 0 01-.944 2.688l-9.01 4.332a2.015 2.015 0 01-1.747-3.632zM53.296 43.322h-6.402c-7.35 0-13.308 5.958-13.308 13.307v5.46c0 7.349 5.958 13.306 13.308 13.306h6.402c7.35 0 13.307-5.957 13.307-13.306v-5.46c0-7.35-5.958-13.307-13.307-13.307z"
      ></path>
      <path
        fill="#C89F7B"
        d="M73.115 31.74H27.364c-5.23 0-9.471 4.405-9.471 9.838 0 5.435 4.24 9.84 9.471 9.84h45.751c5.23 0 9.473-4.405 9.473-9.84 0-5.433-4.242-9.838-9.473-9.838z"
      ></path>
      <path
        fill="#BD8B60"
        d="M73.397 33.227H27.345c-3.985 0-7.214 3.285-7.214 7.337 0 4.053 3.229 7.338 7.214 7.338h46.052c3.984 0 7.214-3.285 7.214-7.338 0-4.052-3.23-7.337-7.214-7.337z"
      ></path>
      <path
        fill="#C89F7B"
        d="M57.256 3.135H43.485c-11.409 0-20.659 9.248-20.659 20.659v24.482c0 11.411 9.25 20.661 20.659 20.661h13.771c11.41 0 20.66-9.25 20.66-20.661V23.793c0-11.41-9.25-20.658-20.66-20.658z"
      ></path>
      <path
        fill="#C89F7B"
        d="M56.82 66.136H43.954a2.52 2.52 0 000 5.04H56.82a2.52 2.52 0 000-5.04z"
      ></path>
      <path
        fill="#BD8B60"
        d="M52.464 63.32h-3.72a.539.539 0 00-.539.539v.317c0 .297.24.539.538.539h3.721a.54.54 0 00.538-.54v-.316a.54.54 0 00-.538-.54zM54.395 39.52a4.045 4.045 0 10-8.09 0v7.137a4.046 4.046 0 008.09 0V39.52z"
      ></path>
      <path
        fill="#BD8B60"
        d="M49.906 47.598L46.145 44.4a1.478 1.478 0 00-1.913 2.25l3.761 3.197a1.478 1.478 0 001.913-2.25zM50.94 47.598L54.7 44.4a1.477 1.477 0 111.913 2.25l-3.762 3.197a1.478 1.478 0 01-1.912-2.25zM47.814 32.115a1.134 1.134 0 10-2.267 0v1.372a1.135 1.135 0 002.267 0v-1.372zM55.343 32.115a1.133 1.133 0 10-2.267 0v1.372a1.134 1.134 0 002.267 0v-1.372z"
      ></path>
      <path
        fill="#61534B"
        d="M40.547 34.462a2.531 2.531 0 00-5.063 0v1.013a2.531 2.531 0 005.063 0v-1.013zM65.166 34.462a2.53 2.53 0 10-5.063 0v1.012a2.531 2.531 0 105.063 0v-1.012z"
      ></path>
      <path
        fill="#BD8B60"
        fillRule="evenodd"
        d="M58.615 55.647a.681.681 0 00-.681-.681H43.192a.682.682 0 00-.682.681v1.363c0 .376.305.681.682.681h14.742a.681.681 0 00.681-.681v-1.363z"
        clipRule="evenodd"
      ></path>
      <path
        fill="#61534B"
        fillRule="evenodd"
        d="M68.131 29.531c0-.3-.245-.545-.546-.545h-7.634c-.3 0-.545.244-.545.545v1.09c0 .302.244.546.545.546h7.634c.301 0 .546-.244.546-.546v-1.09z"
        clipRule="evenodd"
      ></path>
      <path
        fill="#4D4D4D"
        fillRule="evenodd"
        d="M41.931 29.5c0-.301-.245-.545-.546-.545h-7.634c-.3 0-.546.244-.546.545v1.091c0 .301.245.545.546.545h7.634c.301 0 .546-.244.546-.545V29.5z"
        clipRule="evenodd"
      ></path>
      <path
        fill="#4D4D4D"
        d="M38.99 3.135c-9.797 0-17.683 8.344-17.683 18.713 0 .485.022.966.057 1.444a5.314 5.314 0 00-.057.746V35.5c0 2.46 1.642 4.498 3.836 4.96v-14.96c0-10.708 8.147-19.33 18.267-19.33h14.291c10.12 0 18.268 8.622 18.268 19.33V40.48c2.254-.407 3.964-2.472 3.964-4.98V24.039c0-.254-.025-.503-.058-.746.034-.479.058-.96.058-1.444 0-10.369-7.888-18.713-17.684-18.713h-23.26z"
      ></path>
      <path
        fill="#4D4D4D"
        d="M59.07.864H43.14c-5.366 0-9.717 4.604-9.717 10.285 0 5.679 4.35 10.282 9.717 10.282h15.932c5.366 0 9.717-4.603 9.717-10.282 0-5.681-4.35-10.285-9.717-10.285z"
      ></path>
      <path
        fill="#4D4D4D"
        d="M38.918 7.353c0-1.606-1.23-2.908-2.748-2.908-1.518 0-2.748 1.302-2.748 2.908v6.744c0 1.604 1.23 2.907 2.748 2.907 1.518 0 2.748-1.303 2.748-2.907V7.353zM70.107 7.736c0-1.606-1.23-2.907-2.748-2.907-1.518 0-2.748 1.3-2.748 2.907v6.744c0 1.606 1.23 2.907 2.748 2.907 1.518 0 2.748-1.3 2.748-2.908V7.736zM32.285 10.649c-.144-1.06-1.073-1.796-2.074-1.644-1.002.152-1.697 1.135-1.553 2.195l.464 3.42c.143 1.061 1.072 1.797 2.074 1.643 1.002-.151 1.696-1.134 1.552-2.193l-.463-3.421zM70.996 11.574c.142-1.06 1.071-1.794 2.073-1.643 1.002.152 1.696 1.135 1.552 2.196l-.463 3.42c-.144 1.06-1.073 1.796-2.074 1.643-1.002-.152-1.697-1.134-1.553-2.195l.465-3.42z"
      ></path>
      <path
        fill="#565656"
        d="M49.17 5.947h1.715c1.012 0 1.832.869 1.832 1.939v7.08c0 1.07-.82 1.939-1.832 1.939h-1.714c-1.013 0-1.833-.869-1.833-1.938V7.886c0-1.07.82-1.939 1.833-1.939zM41.814 6.14h2.265c.792 0 1.433.68 1.433 1.517v7.5c0 .84-.64 1.52-1.433 1.52h-2.265c-.792 0-1.433-.68-1.433-1.52v-7.5c0-.838.64-1.517 1.433-1.517zM58.431 6.173h-2.264c-.791 0-1.435.68-1.435 1.517v7.501c0 .839.644 1.517 1.435 1.517h2.264c.792 0 1.434-.678 1.434-1.517v-7.5c0-.839-.642-1.518-1.434-1.518z"
      ></path>
      <path
        fill="#4D4D4D"
        d="M78.721 28.429a1.728 1.728 0 00-.651.07l-.239.075c-.772.24-1.256.974-1.238 1.767a1.833 1.833 0 00-.26-.298v2.455c3.345 1.43 5.688 4.828 5.688 8.81 0 4.003-2.368 7.413-5.742 8.83a20.612 20.612 0 01-.711 4.146v1.372a2.287 2.287 0 00-.3-.389c-1.683 5.05-5.258 8.858-9.862 11.16v3.394c0 1.237.966 2.234 2.166 2.234h1c1.2 0 2.165-.997 2.165-2.234v-.602c.326.81 1.096 1.374 2 1.374h.998c1.201 0 2.167-.996 2.167-2.235v-.708a2.14 2.14 0 001.832 1.052c1.199 0 2.165-.996 2.165-2.234V53.912l.446 1.53c.278.957 1.25 1.498 2.178 1.21.93-.288 1.451-1.29 1.173-2.25l-2.376-8.163c.438.508 1.133.74 1.807.532l.24-.076c.928-.287 1.45-1.29 1.17-2.247L80.249 29.71a1.756 1.756 0 00-1.527-1.281zm-56.305.122a1.756 1.756 0 00-1.528 1.28l-4.29 14.738c-.278.958.244 1.96 1.173 2.248l.24.075a1.709 1.709 0 001.805-.532l-2.375 8.163c-.28.96.243 1.962 1.171 2.25.93.288 1.9-.252 2.179-1.209l.09-.309v11.213c0 1.238.965 2.234 2.165 2.234a2.14 2.14 0 001.833-1.052v.708c0 1.238.965 2.235 2.165 2.235h1c.903 0 1.673-.563 1.998-1.371v.599c0 1.237.966 2.234 2.167 2.234h1c1.199 0 2.165-.997 2.165-2.234v-3.394c-4.562-2.335-8.092-6.231-9.74-11.276a2.224 2.224 0 00-.422.505v-1.982a20.763 20.763 0 01-.55-3.535c-4.357-2.85-5.914-5.08-5.742-8.832.183-3.978 2.342-7.378 5.687-8.81v-2.114c-.02.026-.044.052-.063.08.017-.792-.467-1.528-1.24-1.768l-.238-.074a1.692 1.692 0 00-.65-.07zM70.105 7.737c0-1.607-1.23-2.909-2.748-2.909-1.518 0-2.748 1.302-2.748 2.909v6.742c0 1.606 1.23 2.908 2.748 2.908 1.518 0 2.748-1.302 2.748-2.909V7.738zM32.283 10.647c-.144-1.058-1.073-1.794-2.074-1.643-1.002.153-1.697 1.136-1.553 2.196l.465 3.42c.142 1.06 1.071 1.796 2.073 1.643 1.002-.152 1.696-1.134 1.552-2.195l-.463-3.42zM70.996 11.574c.142-1.06 1.071-1.794 2.073-1.643 1.002.152 1.696 1.135 1.552 2.196l-.463 3.42c-.144 1.06-1.073 1.796-2.074 1.643-1.002-.152-1.697-1.134-1.553-2.195l.465-3.42z"
      ></path>
      <path
        fill="#565656"
        d="M49.17 5.947h1.715c1.012 0 1.832.869 1.832 1.939v7.08c0 1.07-.82 1.939-1.831 1.939H49.17c-1.013 0-1.833-.869-1.833-1.938V7.886c0-1.07.82-1.939 1.833-1.939zM41.813 6.14h2.264c.792 0 1.433.68 1.433 1.517v7.5c0 .84-.64 1.52-1.433 1.52h-2.264c-.793 0-1.434-.68-1.434-1.52v-7.5c0-.838.64-1.517 1.434-1.517zM58.43 6.172h-2.265c-.791 0-1.434.68-1.434 1.517v7.502c0 .839.643 1.518 1.434 1.518h2.264c.792 0 1.434-.679 1.434-1.518V7.69c0-.838-.642-1.517-1.434-1.517z"
      ></path>
      <path
        fill="#4D4D4D"
        d="M38.988 3.135c-9.797 0-17.683 8.344-17.683 18.713 0 .485.022.966.057 1.444a5.314 5.314 0 00-.057.746V35.5c0 2.46 1.643 4.498 3.836 4.96v-14.96c0-10.708 8.148-19.33 18.267-19.33H57.7c10.12 0 18.268 8.622 18.268 19.33V40.48c2.254-.407 3.964-2.472 3.964-4.98V24.039c0-.254-.025-.503-.058-.746.034-.479.058-.96.058-1.444 0-10.369-7.888-18.713-17.684-18.713h-23.26z"
      ></path>
      <path
        fill="#4D4D4D"
        d="M59.07.864H43.14c-5.366 0-9.717 4.604-9.717 10.285 0 5.679 4.35 10.282 9.717 10.282h15.932c5.366 0 9.717-4.603 9.717-10.282 0-5.681-4.35-10.285-9.717-10.285z"
      ></path>
      <path
        fill="#4D4D4D"
        d="M38.918 7.353c0-1.606-1.23-2.908-2.748-2.908-1.518 0-2.748 1.302-2.748 2.908v6.744c0 1.604 1.23 2.907 2.748 2.907 1.518 0 2.748-1.303 2.748-2.907V7.353z"
      ></path>
      <path
        fill="#565656"
        d="M41.813 6.14h2.264c.792 0 1.433.68 1.433 1.517v7.5c0 .84-.64 1.52-1.433 1.52h-2.264c-.793 0-1.434-.68-1.434-1.52v-7.5c0-.838.64-1.517 1.434-1.517zM58.43 6.172h-2.265c-.791 0-1.434.68-1.434 1.517v7.502c0 .839.643 1.518 1.434 1.518h2.264c.792 0 1.434-.679 1.434-1.518V7.69c0-.838-.642-1.517-1.434-1.517zM49.17 5.947h1.715c1.012 0 1.832.869 1.832 1.939v7.08c0 1.07-.82 1.939-1.831 1.939H49.17c-1.013 0-1.833-.869-1.833-1.938V7.886c0-1.07.82-1.939 1.833-1.939z"
      ></path>
      <path
        fill="#4D4D4D"
        d="M38.988 3.135c-9.797 0-17.683 8.344-17.683 18.713 0 .485.022.966.057 1.444a5.314 5.314 0 00-.057.746V35.5c0 2.46 1.643 4.498 3.836 4.96v-14.96c0-10.708 8.148-19.33 18.267-19.33H57.7c10.12 0 18.268 8.622 18.268 19.33V40.48c2.254-.407 3.964-2.472 3.964-4.98V24.039c0-.254-.025-.503-.058-.746.034-.479.058-.96.058-1.444 0-10.369-7.888-18.713-17.684-18.713h-23.26z"
      ></path>
      <path
        fill="#4D4D4D"
        d="M59.069.864H43.137c-5.366 0-9.717 4.604-9.717 10.285 0 5.679 4.35 10.282 9.717 10.282H59.07c5.366 0 9.717-4.603 9.717-10.282 0-5.681-4.35-10.285-9.717-10.285z"
      ></path>
      <path
        fill="#4D4D4D"
        d="M38.916 7.353c0-1.606-1.23-2.908-2.748-2.908-1.518 0-2.748 1.302-2.748 2.908v6.744c0 1.604 1.23 2.907 2.748 2.907 1.518 0 2.748-1.303 2.748-2.907V7.353zM70.105 7.737c0-1.607-1.23-2.909-2.748-2.909-1.518 0-2.748 1.302-2.748 2.909v6.742c0 1.606 1.23 2.908 2.748 2.908 1.518 0 2.748-1.302 2.748-2.909V7.738zM32.28 10.647c-.143-1.058-1.072-1.794-2.073-1.643-1.002.153-1.697 1.136-1.553 2.196l.465 3.42c.142 1.06 1.071 1.796 2.073 1.643 1.002-.152 1.696-1.134 1.553-2.195l-.464-3.42zM70.993 11.574c.143-1.06 1.072-1.794 2.074-1.643 1.002.152 1.696 1.135 1.553 2.196l-.464 3.42c-.144 1.06-1.073 1.796-2.074 1.643-1.001-.152-1.697-1.134-1.553-2.195l.465-3.42z"
      ></path>
      <path
        fill="#565656"
        d="M49.17 5.947h1.715c1.012 0 1.832.869 1.832 1.939v7.08c0 1.07-.82 1.939-1.831 1.939H49.17c-1.013 0-1.833-.869-1.833-1.938V7.886c0-1.07.82-1.939 1.833-1.939zM41.813 6.14h2.264c.792 0 1.433.68 1.433 1.517v7.5c0 .84-.64 1.52-1.433 1.52h-2.264c-.793 0-1.434-.68-1.434-1.52v-7.5c0-.838.64-1.517 1.434-1.517zM58.43 6.172h-2.265c-.791 0-1.434.68-1.434 1.517v7.502c0 .839.643 1.518 1.434 1.518h2.264c.792 0 1.434-.679 1.434-1.518V7.69c0-.838-.642-1.517-1.434-1.517z"
      ></path>
      <path
        fill="#4D4D4D"
        d="M38.988 3.135c-9.797 0-17.683 8.344-17.683 18.713 0 .485.022.966.057 1.444a5.314 5.314 0 00-.057.746V35.5c0 2.46 1.643 4.498 3.836 4.96v-14.96c0-10.708 8.148-19.33 18.267-19.33H57.7c10.12 0 18.268 8.622 18.268 19.33V40.48c2.254-.407 3.964-2.472 3.964-4.98V24.039c0-.254-.025-.503-.058-.746.034-.479.058-.96.058-1.444 0-10.369-7.888-18.713-17.684-18.713h-23.26z"
      ></path>
      <path
        fill="#4D4D4D"
        fillRule="evenodd"
        d="M32.17 5.736c-1.79 1.124-2.733 2.397-2.733 3.694 0 4.078 9.14 7.388 20.4 7.388 11.26 0 20.401-3.31 20.401-7.388 0-1.297-.942-2.57-2.733-3.694H32.17z"
        clipRule="evenodd"
      ></path>
      <path
        fill="#565656"
        d="M41.841 46.455a8.03 8.03 0 00-8.038 8.056v9.421a8.028 8.028 0 008.038 8.055h17.247a8.028 8.028 0 008.038-8.055V54.51a8.03 8.03 0 00-8.038-8.055H57.4c.06.492-.121 1-.527 1.346l-.681.581c.404.38.705.87.835 1.43h2.34a4.49 4.49 0 014.495 4.504v4.052a4.49 4.49 0 01-.785 2.545v1.112a6.408 6.408 0 01-6.416 6.429H44.268a6.408 6.408 0 01-6.417-6.43v-1.11a4.49 4.49 0 01-.785-2.546v-4.052a4.49 4.49 0 014.495-4.503h1.472a2.863 2.863 0 011.29-1.782l-.268-.23a1.524 1.524 0 01-.527-1.346H41.84z"
      ></path>
      <path
        fill="#565656"
        fillRule="evenodd"
        d="M76.488 47.465c2.959 2.247 2.496 8.017-1.031 12.875-3.53 4.858-8.797 6.976-11.756 4.73 2.38-1.38 5.451-4.07 8.002-7.58 2.55-3.512 4.18-7.296 4.785-10.025zM24.203 47.274c-2.959 2.248-2.497 8.018 1.031 12.876 3.529 4.858 8.796 6.977 11.755 4.73-2.379-1.38-5.451-4.07-8-7.581-2.552-3.511-4.182-7.296-4.786-10.025z"
        clipRule="evenodd"
      ></path>
      <path
        fill="#565656"
        fillRule="evenodd"
        d="M29.457 63.486c0 11.854 9.308 21.48 20.775 21.48 11.465 0 20.775-9.626 20.775-21.48-5.195 2.963-12.715 5.37-20.775 5.37-8.06 0-15.582-2.407-20.775-5.37z"
        clipRule="evenodd"
      ></path>
      <path
        fill="#4D4D4D"
        d="M40.45 73.034h2.261c.793 0 1.434.437 1.434.975v4.817c0 .539-.64.974-1.434.974H40.45c-.792 0-1.432-.435-1.432-.974v-4.817c0-.538.64-.975 1.432-.975zM56.9 73.003h2.262c.791 0 1.432.463 1.432 1.031v5.095c0 .57-.64 1.031-1.432 1.031h-2.263c-.792 0-1.432-.461-1.432-1.031v-5.095c0-.568.64-1.031 1.432-1.031z"
      ></path>
    </svg>