    <svg
      xmlns="http://www.w3.org/2000/svg"
      width="140"
      height="327"
      fill="none"
      viewBox="0 0 140 327"
    >
      <path
        fill="#966D5D"
        d="M113.968 97.213l4.993-4.993c3.719-3.402 8.826-3.248 10.663.322l6.103 11.869a15.305 15.305 0 011.45 4.366l1.193 6.763c.632 3.585.602 7.412-.089 11.314l-1.245 7.028a17.452 17.452 0 00-.273 3.035v2.417c0 1.159-.293 2.374-.853 3.533-.756 1.563-.966 3.2-.932 4.754.127 5.969-3.17 11.82-6.64 13.257l-.062.025c-3.924 1.625-8.094-2.491-9.315-9.192l-2.116-6.431-3.76-13.459c-1.018-3.643-1.301-7.618-.836-11.728l.66-5.83.582-5.847c.129-1.29-.178-2.477-.872-3.372-1.601-2.069-1.016-5.467 1.349-7.831z"
      ></path>
      <path
        fill="#966D5D"
        d="M127.847 123.268l.074.003c4.679.208 8.558 5.681 8.663 12.226l.793 49.14c.105 6.544-3.603 11.681-8.282 11.473l-.073-.003c-4.679-.208-8.557-5.681-8.663-12.225l-.792-49.14c-.106-6.545 3.601-11.681 8.28-11.474z"
      ></path>
      <path
        fill="#966D5D"
        d="M125.122 175.632l3.077.222c5.899.427 10.767 6.937 10.873 14.541l.095 6.755c.106 7.603-4.591 13.421-10.49 12.995l-3.077-.224c-5.899-.426-10.766-6.936-10.872-14.54l-.095-6.754c-.106-7.604 4.59-13.421 10.489-12.995z"
      ></path>
      <path
        fill="#966D5D"
        d="M123.109 194.609c1.496-4.665 6.385-6.691 10.921-4.525 4.536 2.167 7 7.704 5.504 12.37l-4.087 12.741c-1.495 4.665-6.385 6.691-10.92 4.524s-7-7.704-5.503-12.369l4.085-12.741z"
      ></path>
      <path
        fill="#7B5A4C"
        d="M113.465 191.399c-.035-3.36 1.988-5.938 4.516-5.759 2.529.178 4.607 3.047 4.641 6.407l.093 9.176c.034 3.36-1.987 5.939-4.516 5.76-2.529-.178-4.607-3.047-4.641-6.407l-.093-9.177z"
      ></path>
      <path
        fill="#966D5D"
        d="M26.183 97.213L21.19 92.22c-3.719-3.402-8.827-3.248-10.663.322l-6.103 11.869a15.358 15.358 0 00-1.451 4.366L1.78 115.54c-.633 3.585-.602 7.412.09 11.314l1.244 7.028c.182 1.024.272 2.04.272 3.035v2.417c0 1.159.293 2.374.855 3.533.754 1.563.964 3.2.931 4.754-.126 5.969 3.17 11.82 6.64 13.257l.06.025c3.925 1.625 8.097-2.491 9.317-9.192l2.116-6.431 3.76-13.459c1.017-3.643 1.3-7.618.835-11.728l-.659-5.83-.582-5.847c-.129-1.29.178-2.477.87-3.372 1.602-2.069 1.017-5.467-1.347-7.831z"
      ></path>
      <path
        fill="#966D5D"
        d="M12.3 123.268l-.073.003c-4.679.208-8.557 5.681-8.663 12.226l-.792 49.14c-.106 6.544 3.601 11.681 8.282 11.473l.072-.003c4.68-.208 8.558-5.681 8.665-12.225l.791-49.14c.107-6.545-3.601-11.681-8.282-11.474z"
      ></path>
      <path
        fill="#966D5D"
        d="M15.027 175.632l-3.078.222c-5.898.427-10.767 6.937-10.873 14.541l-.094 6.755c-.106 7.603 4.59 13.421 10.488 12.995l3.078-.224c3.739-.27 7.063-2.983 9.024-6.87 1.133-2.247 1.81-4.885 1.849-7.67l.094-6.754c.106-7.604-4.59-13.421-10.488-12.995z"
      ></path>
      <path
        fill="#966D5D"
        d="M17.04 194.609c-1.496-4.665-6.386-6.691-10.92-4.525-4.537 2.167-7 7.704-5.505 12.37l4.086 12.741c1.496 4.665 6.385 6.691 10.92 4.524 4.536-2.167 7-7.704 5.504-12.369l-4.086-12.741z"
      ></path>
      <path
        fill="#7B5A4C"
        d="M26.682 191.399c.034-3.36-1.987-5.938-4.516-5.759-2.529.178-4.607 3.047-4.64 6.407l-.094 9.176c-.035 3.36 1.987 5.939 4.516 5.76 2.529-.178 4.607-3.047 4.641-6.407l.093-9.177z"
      ></path>
      <path
        fill="#966D5D"
        d="M56.001 242.067H53.6c-5.722 0-10.36 4.639-10.36 10.36l-.002 26.901.002 19.264-2.072 19.743c0 4.314 4.232 7.811 9.452 7.811h2.205c5.22 0 9.452-3.497 9.452-7.811v-28.827c0-2.007.491-3.984 1.428-5.76a12.326 12.326 0 001.428-5.76v-3.79c0-2.221-.277-4.434-.82-6.587a26.886 26.886 0 01-.82-6.589V249.56a7.494 7.494 0 00-7.492-7.493z"
      ></path>
      <path
        fill="#966D5D"
        d="M53.984 163.942H39.867c-.692 0-1.253.561-1.253 1.254L34.08 207.49v14.761c0 1.874.152 3.745.458 5.594l1.022 6.205a30.53 30.53 0 003.515 10.002l2.961 5.265c.629 1.119.96 2.38.96 3.664a7.472 7.472 0 007.47 7.471h4.702a8 8 0 008-8c0-.945.166-1.882.492-2.769l1.068-2.89c.457-1.24.817-2.516 1.075-3.812l1.612-8.101 1.558-10.371c.252-1.691.38-3.396.38-5.106v-40.09c0-8.49-6.88-15.371-15.369-15.371zM55.894 309.72h-8.877c-5.118 0-9.267 3.701-9.267 8.266 0 4.566 4.149 8.266 9.267 8.266h8.877c5.118 0 9.268-3.7 9.268-8.266 0-4.565-4.15-8.266-9.268-8.266z"
      ></path>
      <path
        fill="#966D5D"
        d="M62.093 317.188H40.819c-1.694 0-3.069 1.226-3.069 2.737v3.581c0 1.512 1.375 2.737 3.07 2.737h21.273c1.695 0 3.069-1.225 3.069-2.737v-3.581c0-1.511-1.374-2.737-3.07-2.737zM84.487 240.392h2.277c5.712 0 10.343 4.631 10.343 10.342V298.104l2.071 20.158c0 4.406-4.232 7.976-9.453 7.976H87.52c-5.22 0-9.452-3.57-9.452-7.976v-29.987c0-1.929-.493-3.827-1.429-5.515a11.376 11.376 0 01-1.427-5.513v-4.134c0-2.212.269-4.416.8-6.564l.02-.078c.545-2.2.82-4.457.82-6.723v-11.722a7.633 7.633 0 017.634-7.634z"
      ></path>
      <path
        fill="#966D5D"
        d="M88.007 163.911h8.237a4.977 4.977 0 014.924 4.268l5.237 36.434c.232 1.62.349 3.255.349 4.891v12.11c0 1.891-.156 3.78-.466 5.646l-1.013 6.086a30.133 30.133 0 01-3.514 9.912l-2.96 5.211a7.386 7.386 0 00-.963 3.649 7.389 7.389 0 01-7.389 7.388H85.58a7.914 7.914 0 01-7.913-7.913c0-.943-.169-1.879-.498-2.762l-1.063-2.856a24.754 24.754 0 01-1.075-3.775l-1.612-8.024-1.55-10.226a34.407 34.407 0 01-.388-5.152v-38.36c0-9.128 7.399-16.527 16.526-16.527zM85.558 309.72h8.875c5.119 0 9.269 3.689 9.269 8.238 0 4.549-4.15 8.237-9.269 8.237h-8.876c-5.117 0-9.268-3.688-9.268-8.237 0-4.549 4.15-8.238 9.269-8.238z"
      ></path>
      <path
        fill="#966D5D"
        d="M79.358 312.727h21.275c1.694 0 3.069 1.769 3.069 3.955v5.172c0 2.184-1.375 3.955-3.069 3.955H79.358c-1.694 0-3.069-1.771-3.069-3.955v-5.172c0-2.186 1.375-3.955 3.07-3.955zM104.554 124.159c0-21.342-17.16-29.576-34.572-29.576-17.413 0-33.308 8.234-33.308 29.576l1.78 36.989c0 21.343 14.115 38.645 31.528 38.645 17.411 0 31.527-12.441 31.527-33.784l3.045-41.85z"
      ></path>
      <path
        fill="#966D5D"
        d="M113.073 76.071h-87c-9.418 0-17.053 7.635-17.053 17.053 0 9.417 7.635 17.052 17.052 17.052h87.001c9.418 0 17.052-7.635 17.052-17.052 0-9.418-7.634-17.053-17.052-17.053z"
      ></path>
      <path
        fill="#966D5D"
        d="M115.967 101.988c0-19.783-20.684-35.821-46.197-35.821-25.515 0-46.198 16.038-46.198 35.821 0 19.783 20.683 35.821 46.198 35.821 9.508 0 18.346-2.228 25.692-6.047 12.365-6.428 20.505-17.364 20.505-29.774z"
      ></path>
      <path
        fill="#966D5D"
        d="M72.42 128.335h-5.104c-12.17 0-22.035 8.929-22.035 19.944l.335 17.161c.195.033.15.173 0 0-.058-.066-.158-4.086-.081-4.109l25.263 19.329c-.077-.065-.015 1.281 0 0 .013-1.019.022.02 0 0-.025-.022-.133.048-.184-.141-.08-.29 24.683-19.024 24.365-19.188-.263-.135.01.042 0 0l-.526-13.052c0-11.015-9.865-19.944-22.034-19.944z"
      ></path>
      <path
        fill="#7B5A4C"
        d="M93.652 76.071H45.886c-12.323 0-22.314 8.793-22.314 19.64v11.837c0 10.846 9.99 19.64 22.314 19.64h47.766c12.324 0 22.315-8.794 22.315-19.64V95.712c0-10.848-9.991-19.64-22.315-19.64z"
      ></path>
      <path
        fill="#966D5D"
        d="M97.82 76.071H41.72c-10.022 0-18.147 8.17-18.147 18.252v11c0 10.08 8.125 18.252 18.147 18.252H97.82c10.022 0 18.147-8.172 18.147-18.252v-11c0-10.081-8.125-18.252-18.147-18.252z"
      ></path>
      <path
        fill="#7B5A4C"
        d="M73.632 116.074c0-1.244-1.742-2.253-3.892-2.253-2.148 0-3.89 1.009-3.89 2.253v4.37c0 1.244 1.742 2.253 3.89 2.253 2.15 0 3.892-1.009 3.892-2.253v-4.37zM45.022 117.934h-3.304c-1.317 0-2.386.964-2.386 2.154 0 1.188 1.069 2.153 2.386 2.153h3.304c1.317 0 2.384-.965 2.384-2.153 0-1.19-1.067-2.154-2.384-2.154zM98.812 117.934h-3.303c-1.319 0-2.386.964-2.386 2.154 0 1.188 1.067 2.153 2.385 2.153h3.304c1.318 0 2.385-.965 2.385-2.153 0-1.19-1.067-2.154-2.385-2.154zM64.415 131.763h-5.852c-2.791 0-5.053 1.972-5.053 4.405 0 2.433 2.262 4.405 5.053 4.405h5.852c2.79 0 5.053-1.972 5.053-4.405 0-2.433-2.262-4.405-5.053-4.405zM64.415 142.236h-5.852c-2.791 0-5.053 1.973-5.053 4.405 0 2.433 2.262 4.407 5.053 4.407h5.852c2.79 0 5.053-1.974 5.053-4.407 0-2.432-2.262-4.405-5.053-4.405zM64.415 152.521h-5.852c-2.791 0-5.053 1.972-5.053 4.404 0 2.434 2.262 4.406 5.053 4.406h5.852c2.79 0 5.053-1.972 5.053-4.406 0-2.432-2.262-4.404-5.053-4.404zM82.387 131.763h-5.851c-2.792 0-5.054 1.972-5.054 4.404 0 2.434 2.262 4.406 5.054 4.406h5.851c.699 0 1.365-.124 1.97-.348 1.811-.669 3.082-2.233 3.082-4.058 0-2.432-2.262-4.404-5.052-4.404zM82.387 142.236h-5.851c-2.792 0-5.054 1.973-5.054 4.405 0 2.433 2.262 4.407 5.054 4.407h5.851c2.79 0 5.052-1.974 5.052-4.407 0-2.432-2.262-4.405-5.052-4.405zM82.387 152.52h-5.851c-2.792 0-5.054 1.972-5.054 4.405 0 2.433 2.262 4.405 5.054 4.405h5.851c2.79 0 5.052-1.972 5.052-4.405 0-2.433-2.262-4.405-5.052-4.405z"
      ></path>
      <path
        fill="#4F4F4F"
        d="M43.424 166.189a15.47 15.47 0 00-4.764.755c1.77 19.413 15.106 34.408 31.403 34.408 16.51 0 29.98-15.384 31.467-35.163H43.424z"
      ></path>
      <path
        fill="#4B4B4B"
        d="M101.184 168.594l-30.795 3.619v51.315h38.218c.292-15.424-4.657-36.993-7.423-54.934zM38.479 168.595l31.468 3.618v51.315h-37.16c-.29-15.424 2.926-36.992 5.692-54.933z"
      ></path>
      <path
        fill="#966D5D"
        d="M86.489 61.55c0-10.915-7.39-19.764-16.507-19.764-9.119 0-16.51 8.849-16.51 19.764v8.11c0 10.915 7.391 19.764 16.51 19.764 9.117 0 16.507-8.85 16.507-19.765V61.55z"
      ></path>
      <path
        fill="#7B5A4C"
        d="M63.912 84.636l-9.01-4.33a2.015 2.015 0 10-1.746 3.63l9.011 4.332a2.014 2.014 0 101.745-3.632zM74.864 84.636l9.011-4.33a2.016 2.016 0 012.69.942 2.016 2.016 0 01-.944 2.688l-9.01 4.332a2.015 2.015 0 01-1.747-3.632zM72.802 43.115H66.4c-7.35 0-13.307 5.958-13.307 13.307v5.46c0 7.349 5.957 13.306 13.307 13.306h6.403c7.35 0 13.307-5.957 13.307-13.306v-5.46c0-7.35-5.958-13.307-13.307-13.307z"
      ></path>
      <path
        fill="#966D5D"
        d="M92.621 31.533H46.87c-5.23 0-9.472 4.405-9.472 9.838 0 5.435 4.241 9.84 9.472 9.84H92.62c5.23 0 9.473-4.405 9.473-9.84 0-5.433-4.242-9.838-9.473-9.838z"
      ></path>
      <path
        fill="#7B5A4C"
        d="M92.903 33.02H46.85c-3.985 0-7.214 3.285-7.214 7.337 0 4.053 3.229 7.338 7.214 7.338h46.052c3.984 0 7.214-3.285 7.214-7.338 0-4.052-3.23-7.337-7.214-7.337z"
      ></path>
      <path
        fill="#966D5D"
        d="M76.762 2.928H62.991c-11.41 0-20.659 9.248-20.659 20.659v24.482c0 11.411 9.25 20.66 20.659 20.66h13.771c11.41 0 20.659-9.249 20.659-20.66V23.586c0-11.41-9.25-20.658-20.659-20.658z"
      ></path>
      <path
        fill="#966D5D"
        d="M76.326 65.929H63.458a2.52 2.52 0 000 5.04h12.868a2.52 2.52 0 000-5.04z"
      ></path>
      <path
        fill="#7B5A4C"
        d="M71.97 63.112h-3.72a.539.539 0 00-.54.54v.317c0 .297.242.539.54.539h3.72a.54.54 0 00.538-.54v-.317a.54.54 0 00-.538-.539zM73.901 39.312a4.045 4.045 0 10-8.09 0v7.138a4.046 4.046 0 008.09 0v-7.138z"
      ></path>
      <path
        fill="#7B5A4C"
        d="M69.412 47.39l-3.762-3.197a1.478 1.478 0 00-1.913 2.251l3.762 3.197a1.478 1.478 0 001.913-2.25zM70.445 47.39l3.761-3.197a1.477 1.477 0 111.913 2.251l-3.762 3.197a1.478 1.478 0 01-1.912-2.25zM67.32 31.908a1.134 1.134 0 10-2.267 0v1.372a1.135 1.135 0 002.267 0v-1.372zM74.85 31.908a1.133 1.133 0 10-2.268 0v1.372a1.134 1.134 0 002.267 0v-1.372z"
      ></path>
      <path
        fill="#61534B"
        d="M60.053 34.255a2.531 2.531 0 10-5.063 0v1.014a2.531 2.531 0 005.063 0v-1.014zM84.672 34.255a2.531 2.531 0 10-5.063 0v1.012a2.531 2.531 0 105.063 0v-1.012z"
      ></path>
      <path
        fill="#fff"
        d="M74.647 60.257c3.726 0 6.725-3.204 6.725-7.184V51.91h-22.65v1.163c0 3.98 3.002 7.184 6.727 7.184h9.198z"
      ></path>
      <path
        fill="#61534B"
        fillRule="evenodd"
        d="M87.405 28.395c-.088-.239-.394-.38-.68-.314l-7.291 1.683c-.288.067-.45.316-.36.555l.319.87c.087.24.392.38.68.315l7.29-1.683c.287-.067.45-.315.362-.556l-.32-.87zM61.145 30.347c.087-.24-.074-.49-.361-.555l-7.291-1.684c-.288-.066-.593.075-.68.315l-.32.87c-.089.24.073.488.36.555l7.292 1.683c.286.066.592-.074.68-.315l.32-.87z"
        clipRule="evenodd"
      ></path>
      <path
        fill="#4D4D4D"
        d="M58.496 2.928c-9.797 0-17.684 8.344-17.684 18.713 0 .485.023.965.057 1.444a5.33 5.33 0 00-.056.746v11.463c0 2.46 1.642 4.498 3.836 4.96v-14.96c0-10.708 8.147-19.33 18.267-19.33h14.291c10.119 0 18.267 8.622 18.267 19.33v14.979c2.255-.407 3.965-2.472 3.965-4.98V23.832c0-.254-.025-.503-.058-.746.034-.479.058-.96.058-1.444 0-10.369-7.888-18.713-17.685-18.713H58.496z"
      ></path>
      <path
        fill="#4D4D4D"
        d="M78.577.657H62.645c-5.367 0-9.717 4.604-9.717 10.285 0 5.679 4.35 10.282 9.717 10.282h15.932c5.366 0 9.717-4.603 9.717-10.282 0-5.681-4.35-10.285-9.717-10.285z"
      ></path>
      <path
        fill="#4D4D4D"
        d="M58.424 7.146c0-1.606-1.23-2.908-2.749-2.908-1.517 0-2.747 1.302-2.747 2.908v6.744c0 1.604 1.23 2.907 2.747 2.907 1.519 0 2.75-1.303 2.75-2.907V7.146zM89.612 7.53c0-1.607-1.229-2.908-2.747-2.908-1.518 0-2.748 1.3-2.748 2.907v6.744c0 1.606 1.23 2.907 2.748 2.907 1.518 0 2.748-1.3 2.748-2.907V7.529zM51.79 10.441c-.143-1.06-1.072-1.795-2.073-1.643-1.002.152-1.697 1.135-1.554 2.195l.465 3.42c.143 1.06 1.072 1.797 2.074 1.643 1.001-.151 1.696-1.134 1.552-2.193l-.464-3.421zM90.501 11.367c.143-1.06 1.072-1.795 2.074-1.643 1.001.152 1.696 1.135 1.552 2.196l-.464 3.42c-.143 1.06-1.072 1.795-2.073 1.643-1.002-.153-1.698-1.134-1.554-2.195l.465-3.42z"
      ></path>
      <path
        fill="#565656"
        d="M68.677 5.74h1.714c1.012 0 1.832.869 1.832 1.938v7.082c0 1.07-.82 1.938-1.832 1.938h-1.714c-1.013 0-1.833-.869-1.833-1.938V7.678c0-1.07.82-1.938 1.833-1.938zM61.32 5.933h2.265c.792 0 1.433.68 1.433 1.517v7.5c0 .84-.641 1.52-1.433 1.52H61.32c-.792 0-1.433-.68-1.433-1.52v-7.5c0-.838.64-1.517 1.433-1.517zM77.937 5.966h-2.264c-.791 0-1.435.68-1.435 1.517v7.501c0 .839.644 1.517 1.435 1.517h2.264c.792 0 1.434-.678 1.434-1.517v-7.5c0-.839-.642-1.518-1.434-1.518z"
      ></path>
      <path
        fill="#4D4D4D"
        d="M98.227 28.222a1.728 1.728 0 00-.652.07l-.238.075c-.772.24-1.256.974-1.238 1.767a1.838 1.838 0 00-.26-.298v2.455c3.345 1.43 5.688 4.828 5.688 8.81 0 4.003-2.368 7.413-5.743 8.83a20.625 20.625 0 01-.71 4.146v1.372a2.278 2.278 0 00-.301-.389c-1.682 5.05-5.257 8.858-9.861 11.16v3.394c0 1.237.966 2.234 2.166 2.234h1c1.2 0 2.165-.997 2.165-2.234v-.603c.325.81 1.096 1.375 2 1.375h.998c1.201 0 2.167-.995 2.167-2.235v-.708a2.14 2.14 0 001.831 1.052c1.2 0 2.166-.996 2.166-2.234V53.705l.446 1.53c.278.957 1.251 1.498 2.178 1.21.929-.289 1.451-1.29 1.173-2.25l-2.376-8.163c.438.508 1.132.74 1.807.532l.239-.076c.929-.287 1.452-1.29 1.172-2.247l-4.29-14.738a1.756 1.756 0 00-1.527-1.281zm-56.306.121a1.756 1.756 0 00-1.527 1.281l-4.29 14.738c-.278.958.244 1.96 1.172 2.248l.24.075a1.709 1.709 0 001.806-.532l-2.375 8.163c-.28.96.242 1.962 1.171 2.25.93.288 1.9-.252 2.179-1.209l.09-.309v11.213c0 1.238.965 2.234 2.165 2.234a2.14 2.14 0 001.833-1.052v.708c0 1.238.965 2.235 2.165 2.235h1c.903 0 1.673-.563 1.998-1.371v.599c0 1.237.966 2.234 2.167 2.234h1c1.199 0 2.165-.997 2.165-2.234V66.22c-4.562-2.335-8.093-6.231-9.74-11.276a2.222 2.222 0 00-.423.505v-1.982a20.752 20.752 0 01-.55-3.535c-4.357-2.85-5.913-5.08-5.742-8.832.184-3.978 2.343-7.378 5.688-8.81v-2.114c-.02.026-.044.052-.063.08.017-.792-.467-1.528-1.24-1.768l-.238-.074a1.693 1.693 0 00-.65-.07zM89.61 7.53c0-1.607-1.229-2.909-2.747-2.909-1.518 0-2.748 1.302-2.748 2.909v6.741c0 1.607 1.23 2.909 2.748 2.909 1.518 0 2.748-1.302 2.748-2.909V7.53zM51.788 10.44c-.143-1.058-1.072-1.794-2.073-1.643-1.002.153-1.698 1.136-1.554 2.196l.465 3.42c.143 1.06 1.072 1.796 2.074 1.643 1.002-.152 1.696-1.134 1.552-2.195l-.464-3.42zM90.501 11.367c.143-1.06 1.072-1.795 2.074-1.643 1.001.152 1.696 1.135 1.552 2.196l-.464 3.42c-.143 1.06-1.072 1.795-2.073 1.643-1.002-.153-1.698-1.134-1.554-2.195l.465-3.42z"
      ></path>
      <path
        fill="#565656"
        d="M68.677 5.74h1.714c1.012 0 1.832.869 1.832 1.938v7.082c0 1.07-.82 1.938-1.832 1.938h-1.714c-1.013 0-1.833-.869-1.833-1.938V7.678c0-1.07.82-1.938 1.833-1.938zM61.32 5.933h2.263c.792 0 1.433.68 1.433 1.517v7.5c0 .84-.64 1.52-1.433 1.52h-2.264c-.793 0-1.434-.68-1.434-1.52v-7.5c0-.838.64-1.517 1.434-1.517zM77.935 5.965h-2.264c-.792 0-1.435.68-1.435 1.517v7.502c0 .839.643 1.518 1.435 1.518h2.264c.792 0 1.434-.679 1.434-1.518V7.482c0-.838-.642-1.517-1.434-1.517z"
      ></path>
      <path
        fill="#4D4D4D"
        d="M58.494 2.928c-9.797 0-17.684 8.344-17.684 18.713 0 .485.023.965.057 1.444a5.33 5.33 0 00-.056.746v11.463c0 2.46 1.642 4.498 3.836 4.96v-14.96c0-10.708 8.147-19.33 18.267-19.33h14.291c10.119 0 18.267 8.622 18.267 19.33v14.979c2.255-.407 3.965-2.472 3.965-4.98V23.832c0-.254-.025-.503-.058-.746.034-.479.058-.96.058-1.444 0-10.369-7.888-18.713-17.684-18.713h-23.26z"
      ></path>
      <path
        fill="#4D4D4D"
        d="M78.577.657H62.645c-5.367 0-9.717 4.604-9.717 10.285 0 5.679 4.35 10.282 9.717 10.282h15.932c5.366 0 9.717-4.603 9.717-10.282 0-5.681-4.35-10.285-9.717-10.285z"
      ></path>
      <path
        fill="#4D4D4D"
        d="M58.424 7.146c0-1.606-1.23-2.908-2.749-2.908-1.517 0-2.747 1.302-2.747 2.908v6.744c0 1.604 1.23 2.907 2.747 2.907 1.519 0 2.75-1.303 2.75-2.907V7.146z"
      ></path>
      <path
        fill="#565656"
        d="M61.32 5.933h2.263c.792 0 1.433.68 1.433 1.517v7.5c0 .84-.64 1.52-1.433 1.52h-2.264c-.793 0-1.434-.68-1.434-1.52v-7.5c0-.838.64-1.517 1.434-1.517zM77.935 5.965h-2.264c-.792 0-1.435.68-1.435 1.517v7.502c0 .839.643 1.518 1.435 1.518h2.264c.792 0 1.434-.679 1.434-1.518V7.482c0-.838-.642-1.517-1.434-1.517zM68.677 5.74h1.714c1.012 0 1.832.869 1.832 1.938v7.082c0 1.07-.82 1.938-1.832 1.938h-1.714c-1.013 0-1.833-.869-1.833-1.938V7.678c0-1.07.82-1.938 1.833-1.938z"
      ></path>
      <path
        fill="#4D4D4D"
        d="M58.494 2.928c-9.797 0-17.684 8.344-17.684 18.713 0 .485.023.965.057 1.444a5.33 5.33 0 00-.056.746v11.463c0 2.46 1.642 4.498 3.836 4.96v-14.96c0-10.708 8.147-19.33 18.267-19.33h14.291c10.119 0 18.267 8.622 18.267 19.33v14.979c2.255-.407 3.965-2.472 3.965-4.98V23.832c0-.254-.025-.503-.058-.746.034-.479.058-.96.058-1.444 0-10.369-7.888-18.713-17.684-18.713h-23.26z"
      ></path>
      <path
        fill="#4D4D4D"
        d="M78.575.657H62.643c-5.367 0-9.717 4.604-9.717 10.285 0 5.679 4.35 10.282 9.717 10.282h15.932c5.366 0 9.717-4.603 9.717-10.282 0-5.681-4.35-10.285-9.717-10.285z"
      ></path>
      <path
        fill="#4D4D4D"
        d="M58.422 7.146c0-1.606-1.23-2.908-2.749-2.908-1.517 0-2.747 1.302-2.747 2.908v6.744c0 1.604 1.23 2.907 2.747 2.907 1.519 0 2.75-1.303 2.75-2.907V7.146zM89.61 7.53c0-1.607-1.229-2.909-2.747-2.909-1.518 0-2.748 1.302-2.748 2.909v6.741c0 1.607 1.23 2.909 2.748 2.909 1.518 0 2.748-1.302 2.748-2.909V7.53zM51.786 10.44c-.143-1.058-1.072-1.794-2.073-1.643-1.002.153-1.697 1.136-1.553 2.196l.464 3.42c.143 1.06 1.072 1.796 2.074 1.643 1.002-.152 1.696-1.134 1.552-2.195l-.464-3.42zM90.5 11.367c.142-1.06 1.071-1.795 2.073-1.643 1.002.152 1.696 1.135 1.552 2.196l-.463 3.42c-.144 1.06-1.073 1.795-2.074 1.643-1.002-.153-1.697-1.134-1.553-2.195l.464-3.42z"
      ></path>
      <path
        fill="#565656"
        d="M68.677 5.74h1.714c1.012 0 1.832.869 1.832 1.938v7.082c0 1.07-.82 1.938-1.832 1.938h-1.714c-1.013 0-1.833-.869-1.833-1.938V7.678c0-1.07.82-1.938 1.833-1.938zM61.32 5.933h2.263c.792 0 1.433.68 1.433 1.517v7.5c0 .84-.64 1.52-1.433 1.52h-2.264c-.793 0-1.434-.68-1.434-1.52v-7.5c0-.838.64-1.517 1.434-1.517zM77.935 5.965h-2.264c-.792 0-1.435.68-1.435 1.517v7.502c0 .839.643 1.518 1.435 1.518h2.264c.792 0 1.434-.679 1.434-1.518V7.482c0-.838-.642-1.517-1.434-1.517z"
      ></path>
      <path
        fill="#4D4D4D"
        d="M58.494 2.928c-9.797 0-17.684 8.344-17.684 18.713 0 .485.023.965.057 1.444a5.33 5.33 0 00-.056.746v11.463c0 2.46 1.642 4.498 3.836 4.96v-14.96c0-10.708 8.147-19.33 18.267-19.33h14.291c10.119 0 18.267 8.622 18.267 19.33v14.979c2.255-.407 3.965-2.472 3.965-4.98V23.832c0-.254-.025-.503-.058-.746.034-.479.058-.96.058-1.444 0-10.369-7.888-18.713-17.684-18.713h-23.26z"
      ></path>
      <path
        fill="#4D4D4D"
        fillRule="evenodd"
        d="M51.676 5.529c-1.79 1.124-2.733 2.397-2.733 3.694 0 4.078 9.14 7.388 20.4 7.388 11.26 0 20.401-3.31 20.401-7.388 0-1.297-.942-2.57-2.734-3.694H51.676z"
        clipRule="evenodd"
      ></path>
      <path
        fill="#565656"
        fillRule="evenodd"
        d="M54.066 67.672C46.938 62.07 42.615 56.17 43.51 48.685l11.735 15.288M84.721 67.672C92.506 62.07 97.228 56.17 96.25 48.685L83.431 63.973"
        clipRule="evenodd"
      ></path>
      <path
        fill="#565656"
        d="M61.263 46.28a8.03 8.03 0 00-8.038 8.056v9.421a8.029 8.029 0 008.038 8.055H78.51a8.029 8.029 0 008.038-8.055v-9.421a8.03 8.03 0 00-8.038-8.056h-1.687c.06.491-.121 1.001-.527 1.347l-.682.58c.405.38.706.87.836 1.431h2.34a4.488 4.488 0 014.494 4.503v4.052c0 .947-.29 1.823-.784 2.546v1.11c0 3.563-2.86 6.43-6.416 6.43H63.689a6.408 6.408 0 01-6.416-6.43v-1.11a4.489 4.489 0 01-.785-2.546v-4.052a4.49 4.49 0 014.495-4.503h1.472a2.863 2.863 0 011.29-1.782l-.268-.23a1.522 1.522 0 01-.527-1.346h-1.687z"
      ></path>
      <path
        fill="#4D4D4D"
        d="M59.953 69.064h2.177c.762 0 1.38.109 1.38.243v1.207c0 .134-.617.244-1.38.244h-2.177c-.762 0-1.379-.11-1.379-.244v-1.207c0-.134.617-.243 1.38-.243zM76.592 69.064h2.177c.762 0 1.379.109 1.379.243v1.207c0 .134-.617.244-1.379.244h-2.177c-.762 0-1.38-.11-1.38-.244v-1.207c0-.134.618-.243 1.38-.243z"
      ></path>
      <path
        fill="#fff"
        d="M60.86 292.539H44c-.897 0-1.623 1-1.623 2.235v19.584c0 1.235.726 2.235 1.622 2.235H60.86c.896 0 1.624-1 1.624-2.235v-19.584c0-1.235-.728-2.235-1.624-2.235z"
      ></path>
      <path
        fill="#4B4B4B"
        d="M54.408 299.437H48.47c-1.41 0-2.555 1.416-2.555 3.163v2.838c0 1.748 1.144 3.164 2.555 3.164h5.94c1.411 0 2.554-1.416 2.554-3.164V302.6c0-1.747-1.143-3.163-2.555-3.163z"
      ></path>
      <path
        fill="#4F4F4F"
        d="M55.902 304.311h-8.88c-5.12 0-9.272 5.067-9.272 11.32 0 6.252 4.152 11.319 9.272 11.319h8.88c5.12 0 9.27-5.067 9.27-11.319 0-6.253-4.15-11.32-9.27-11.32z"
      ></path>
      <path
        fill="#4F4F4F"
        d="M63.22 314.594H40.044c-1.846 0-3.343 1.679-3.343 3.748v4.902c0 2.072 1.497 3.751 3.343 3.751H63.22c1.847 0 3.344-1.679 3.344-3.751v-4.902c0-2.069-1.497-3.748-3.344-3.748z"
      ></path>
      <path
        fill="#fff"
        d="M65.306 322.251H37.96c-.696 0-1.259.631-1.259 1.41v1.844c0 .779.563 1.411 1.259 1.411h27.346c.695 0 1.258-.632 1.258-1.411v-1.844c0-.779-.563-1.41-1.257-1.41zM55.034 304.879H48.09c-.362 0-.656.363-.656.811 0 .448.294.811.656.811h6.943c.36 0 .655-.363.655-.811 0-.448-.294-.811-.655-.811z"
      ></path>
      <path
        fill="#585858"
        d="M57.392 310.101h-3.336c-1.175 0-2.13 1.18-2.13 2.638 0 1.457.955 2.638 2.13 2.638h3.336c1.177 0 2.13-1.181 2.13-2.638 0-1.458-.953-2.638-2.13-2.638z"
      ></path>
      <path
        fill="#fff"
        d="M55.034 307.475H48.09c-.362 0-.656.363-.656.81 0 .447.294.811.656.811h6.943c.36 0 .655-.364.655-.811 0-.447-.294-.81-.655-.81zM96.376 292.538H79.352c-.904 0-1.64 1.001-1.64 2.236v19.583c0 1.235.736 2.236 1.64 2.236h17.024c.904 0 1.637-1.001 1.637-2.236v-19.583c0-1.235-.733-2.236-1.637-2.236z"
      ></path>
      <path
        fill="#4B4B4B"
        d="M92.632 299.468h-5.94c-1.411 0-2.555 1.417-2.555 3.163v2.839c0 1.747 1.144 3.163 2.555 3.163h5.94c1.41 0 2.555-1.416 2.555-3.163v-2.839c0-1.746-1.144-3.163-2.555-3.163z"
      ></path>
      <path
        fill="#4F4F4F"
        d="M94.435 304.311H85.56c-5.12 0-9.269 5.067-9.269 11.32 0 6.252 4.15 11.319 9.269 11.319h8.875c5.119 0 9.268-5.067 9.268-11.319 0-6.253-4.15-11.32-9.268-11.32z"
      ></path>
      <path
        fill="#4F4F4F"
        d="M101.148 314.594h-23.09c-1.837 0-3.33 1.679-3.33 3.748v4.902c0 2.072 1.493 3.751 3.33 3.751h23.09c1.839 0 3.33-1.679 3.33-3.751v-4.902c0-2.069-1.491-3.748-3.33-3.748z"
      ></path>
      <path
        fill="#fff"
        d="M103.225 322.251H75.982c-.692 0-1.254.631-1.254 1.41v1.844c0 .779.562 1.411 1.254 1.411h27.243c.692 0 1.253-.632 1.253-1.411v-1.844c0-.779-.561-1.41-1.253-1.41zM93.193 304.879H86.25c-.362 0-.655.363-.655.811 0 .448.293.811.655.811h6.944c.361 0 .655-.363.655-.811 0-.448-.294-.811-.655-.811z"
      ></path>
      <path
        fill="#585858"
        d="M95.551 310.132h-3.334c-1.177 0-2.131 1.181-2.131 2.638 0 1.457.954 2.638 2.13 2.638h3.335c1.177 0 2.131-1.181 2.131-2.638 0-1.457-.954-2.638-2.13-2.638z"
      ></path>
      <path
        fill="#fff"
        d="M93.193 307.505H86.25c-.362 0-.655.364-.655.81 0 .449.293.812.655.812h6.944c.361 0 .655-.363.655-.812 0-.446-.294-.81-.655-.81z"
      ></path>
      <path
        fill="#4F4F4F"
        d="M43.425 166.189c-1.655 0-5.17.029-5.211 0 .022.005.01-.79 0 0-.249 18.933 15.892 35.163 31.85 35.163 16.51 0 29.98-15.384 31.467-35.163H43.425z"
      ></path>
      <path
        fill="#4B4B4B"
        d="M101.529 166.189l-31.142 6.024v51.315h38.218c.292-15.424-4.31-39.398-7.076-57.339zM38.261 167.385l.102.014 31.583 4.814v51.315H32.787c-.29-15.424 2.708-38.202 5.474-56.143z"
      ></path>
    </svg>