    <svg
      xmlns="http://www.w3.org/2000/svg"
      width="118"
      height="311"
      fill="none"
      viewBox="0 0 118 311"
    >
      <path
        fill="#FAE4D0"
        d="M74.534 229.381h2.135c5.223 0 9.457 4.436 9.457 9.909l.001 26.159v18.648l1.892 19.111c0 4.177-3.867 7.562-8.638 7.562h-2.013c-4.771 0-8.638-3.385-8.638-7.562v-28.424c0-1.833-.45-3.635-1.304-5.234a11.11 11.11 0 01-1.305-5.235v-3.909c0-2.099.246-4.19.732-6.226l.017-.074c.497-2.085.75-4.226.75-6.376v-11.105c0-.421.034-.841.104-1.255.582-3.464 3.454-5.989 6.81-5.989z"
      ></path>
      <path
        fill="#FAE4D0"
        d="M77.39 159.693h5.448c3.066 0 5.818 1.974 6.927 4.969.214.577.36 1.18.439 1.794l4.026 31.828v13.813c0 1.792-.143 3.582-.426 5.349l-.925 5.764a29.211 29.211 0 01-3.21 9.404l-2.702 4.936a7.255 7.255 0 00-.884 3.478c0 3.862-2.988 6.992-6.673 6.992H74.8c-3.947 0-7.149-3.354-7.149-7.492 0-.901-.155-1.794-.458-2.637l-.969-2.7a24.276 24.276 0 01-.982-3.579l-1.473-7.607-1.416-9.695a33.887 33.887 0 01-.355-4.883V175.82c0-8.907 6.89-16.127 15.391-16.127zM75.144 295.151h8.112c4.676 0 8.468 3.496 8.468 7.809 0 4.313-3.792 7.809-8.468 7.809h-8.112c-4.677 0-8.468-3.496-8.468-7.809 0-4.313 3.791-7.809 8.468-7.809z"
      ></path>
      <path
        fill="#FAE4D0"
        d="M69.48 298.366h19.44c1.548 0 2.804 1.68 2.804 3.75v4.904c0 2.071-1.256 3.75-2.805 3.75H69.48c-1.547 0-2.803-1.679-2.803-3.75v-4.904c0-2.07 1.256-3.75 2.804-3.75zM44.165 229.38H42.03c-5.223 0-9.458 4.436-9.458 9.909v44.807l-1.892 19.111c0 4.177 3.867 7.562 8.637 7.562h2.014c4.77 0 8.638-3.385 8.638-7.562v-28.424c0-1.833.448-3.635 1.304-5.234a11.11 11.11 0 001.304-5.235v-3.909c0-2.099-.245-4.19-.73-6.226l-.019-.074a27.446 27.446 0 01-.749-6.376v-11.105c0-.421-.035-.841-.104-1.255-.582-3.463-3.454-5.989-6.81-5.989z"
      ></path>
      <path
        fill="#FAE4D0"
        d="M42.654 159.692h-8.473c-3.076 0-5.571 2.614-5.571 5.839l-4.143 32.752v13.813c0 1.792.141 3.582.426 5.349l.924 5.764a29.24 29.24 0 003.211 9.404l2.702 4.936a7.258 7.258 0 01.884 3.478c0 3.862 2.987 6.992 6.672 6.992h4.61c3.947 0 7.15-3.354 7.15-7.491 0-.902.154-1.795.456-2.638l.97-2.7c.418-1.164.746-2.361.983-3.579l1.472-7.607 1.417-9.695c.235-1.616.355-3.248.355-4.883v-35.018c0-8.127-6.289-14.716-14.045-14.716zM43.553 295.15h-8.11c-4.677 0-8.468 3.496-8.468 7.809 0 4.313 3.791 7.809 8.468 7.809h8.11c4.678 0 8.469-3.496 8.469-7.809 0-4.313-3.791-7.809-8.469-7.809z"
      ></path>
      <path
        fill="#FAE4D0"
        d="M49.217 298.365H29.78c-1.55 0-2.804 1.68-2.804 3.75v4.904c0 2.071 1.255 3.75 2.804 3.75h19.438c1.55 0 2.805-1.679 2.805-3.75v-4.904c0-2.07-1.255-3.75-2.805-3.75zM58.606 70.849c1.242 0 2.48.075 3.705.223 14.79 1.777 27.97 13.95 27.97 28.797l-2.322 15.895-4.53 27.365c0 16.077-8.605 18.449-24.823 18.449-16.217 0-23.81-2.372-23.81-18.449l-5.464-27.365V99.869c0-16.078 13.057-29.02 29.274-29.02z"
      ></path>
      <path
        fill="#FAE4D0"
        d="M58.557 135.934h1c16.548 0 21.92-8.969 24.635 3.187l5.236 24.393c2.713 12.146-13.323 22.225-29.871 22.225h-1c-16.548 0-32.584-10.079-29.87-22.225l5.786-24.393c2.716-12.156 7.536-3.187 24.084-3.187z"
      ></path>
      <path
        fill="#FAE4D0"
        d="M58.524 124.93c11.927 0 21.53 13.527 21.53 30.329h-43.06c0-16.802 9.602-30.329 21.53-30.329zM21.258 87.48c-5.055-1.025-11.14 1.122-12.253 7.155L5.547 105.53a26.735 26.735 0 00-1.143 10.426l.932 10.562c.212 2.409-.046 4.837-.014 7.257.055 4.238 1.9 7.346 5.886 8.153 4.354.883 7.247-1.389 8.676-5.891.485-1.527.864-3.096 1.433-4.592l2.587-6.792a26.701 26.701 0 001.64-11.777l-.534-6.212c-.138-1.617-.122-3.241-.052-4.862.19-4.457.103-13.55-3.7-14.321z"
      ></path>
      <path
        fill="#FAE4D0"
        d="M13.344 121.96l-.064-.002c-4.143-.134-7.736 4.685-8.025 10.763l-2.17 45.643c-.29 6.079 2.834 11.115 6.978 11.249l.064.002c4.143.134 7.736-4.685 8.025-10.764l2.17-45.643c.29-6.079-2.834-11.115-6.978-11.248z"
      ></path>
      <path
        fill="#FAE4D0"
        d="M13.253 168.986l-2.604-.015c-4.99-.028-9.27 5.646-9.561 12.672l-.258 6.243c-.291 7.027 3.518 12.745 8.508 12.773l2.603.015c4.99.028 9.27-5.646 9.561-12.672l.26-6.243c.29-7.026-3.52-12.745-8.51-12.773z"
      ></path>
      <path
        fill="#FAE4D0"
        d="M13.896 186.742c-1.085-4.469-4.913-6.732-8.548-5.055-3.635 1.678-5.703 6.661-4.618 11.129l2.965 12.205c1.086 4.468 4.913 6.731 8.549 5.053 3.636-1.677 5.703-6.659 4.618-11.128l-2.966-12.204z"
      ></path>
      <path
        fill="#F4D1B0"
        d="M22.407 184.356c.122-3.115-1.544-5.651-3.723-5.666-2.178-.014-4.044 2.501-4.167 5.616l-.335 8.507c-.123 3.116 1.544 5.652 3.723 5.667 2.178.013 4.044-2.5 4.167-5.616l.335-8.508z"
      ></path>
      <path
        fill="#FAE4D0"
        d="M96.198 87.48c5.054-1.025 11.14 1.122 12.253 7.155l3.457 10.894a26.74 26.74 0 011.144 10.426l-.932 10.562c-.213 2.409.045 4.837.014 7.257-.056 4.238-1.9 7.346-5.887 8.153-4.353.883-7.245-1.389-8.675-5.891-.486-1.527-.864-3.096-1.433-4.592l-2.587-6.792a26.701 26.701 0 01-1.641-11.777l.534-6.212c.139-1.617.123-3.241.054-4.862-.19-4.457-.105-13.55 3.699-14.321z"
      ></path>
      <path
        fill="#FAE4D0"
        d="M104.111 121.96l.066-.002c4.142-.134 7.735 4.685 8.024 10.763l2.171 45.643c.288 6.079-2.836 11.115-6.979 11.249l-.064.002c-4.142.134-7.736-4.685-8.025-10.764l-2.17-45.643c-.29-6.079 2.835-11.115 6.977-11.248z"
      ></path>
      <path
        fill="#FAE4D0"
        d="M104.202 168.986l2.602-.015c4.991-.028 9.271 5.646 9.562 12.672l.258 6.243c.29 7.027-3.519 12.745-8.508 12.773l-2.604.015c-4.99.028-9.27-5.646-9.56-12.672l-.259-6.243c-.29-7.026 3.519-12.745 8.509-12.773z"
      ></path>
      <path
        fill="#FAE4D0"
        d="M103.559 186.742c1.085-4.469 4.913-6.732 8.548-5.055 3.636 1.678 5.703 6.661 4.618 11.129l-2.965 12.205c-1.086 4.468-4.913 6.731-8.549 5.053-3.635-1.677-5.703-6.659-4.618-11.128l2.966-12.204z"
      ></path>
      <path
        fill="#F4D1B0"
        d="M95.047 184.356c-.122-3.115 1.544-5.651 3.724-5.666 2.179-.014 4.044 2.501 4.166 5.616l.335 8.507c.123 3.116-1.544 5.652-3.722 5.667-2.18.013-4.045-2.5-4.168-5.616l-.335-8.508z"
      ></path>
      <path
        fill="#FAE4D0"
        d="M21.06 79.803h75.473c7.479 0 13.501 5.88 13.501 13.183 0 7.304-6.022 13.183-13.501 13.183H21.06c-7.48 0-13.501-5.879-13.501-13.183s6.021-13.183 13.5-13.183z"
      ></path>
      <path
        fill="#FAE4D0"
        d="M46.959 78.238h23.534c13.15 0 23.736 10.124 23.736 22.699 0 12.575-10.586 22.698-23.736 22.698H46.959c-13.15 0-23.736-10.123-23.736-22.698 0-12.575 10.586-22.699 23.736-22.699z"
      ></path>
      <path
        fill="#815848"
        fillOpacity="0.99"
        d="M59.352 106.169c3.062 0 5.528 2.584 5.528 5.792v5.372c0 3.209-2.466 5.793-5.528 5.793-3.063 0-5.528-2.584-5.528-5.793v-5.372c0-3.208 2.465-5.792 5.528-5.792z"
      ></path>
      <path
        fill="#FAE4D0"
        d="M45.39 100.091a7.643 7.643 0 00-3.947 1.077c-3.754.221-7.273 1.705-9.844 4.15-2.57 2.445-4.001 5.669-4.001 9.018 0 3.5 1.561 6.858 4.342 9.333 2.78 2.475 6.551 3.865 10.483 3.865 3.582-.003 7.04-1.161 9.738-3.259 2.697-2.098 4.45-4.995 4.934-8.155.1-.433.154-.882.154-1.342v-8.203c0-3.592-3.186-6.484-7.143-6.484h-4.715zm21.96 0c-3.957 0-7.143 2.892-7.143 6.484v8.203c0 .46.054.909.154 1.342.484 3.16 2.237 6.057 4.934 8.155 2.697 2.098 6.156 3.256 9.738 3.259 3.932 0 7.702-1.39 10.483-3.865 2.78-2.475 4.343-5.833 4.343-9.333-.001-3.349-1.431-6.573-4.003-9.018-2.57-2.445-6.089-3.929-9.843-4.15a7.644 7.644 0 00-3.948-1.077h-4.716z"
      ></path>
      <path
        fill="#F4D1B0"
        d="M54.01 129.952h-3.68c-1.682 0-3.045 1.051-3.045 2.347v2.718c0 1.297 1.363 2.348 3.045 2.348h3.68c1.682 0 3.045-1.051 3.045-2.348v-2.718c0-1.296-1.363-2.347-3.044-2.347zM54.011 138.163h-5.607c-1.682 0-3.045 1.051-3.045 2.348v2.717c0 1.296 1.363 2.348 3.045 2.348h5.607c1.682 0 3.045-1.052 3.045-2.348v-2.717c0-1.297-1.363-2.348-3.045-2.348zM54.011 146.201h-5.607c-1.682 0-3.045 1.05-3.045 2.347v2.718c0 1.297 1.363 2.348 3.045 2.348h5.607c1.682 0 3.045-1.051 3.045-2.348v-2.718c0-1.297-1.363-2.347-3.045-2.347zM63.021 129.952h3.681c1.681 0 3.045 1.051 3.045 2.347v2.718c0 1.297-1.364 2.348-3.045 2.348h-3.681c-1.682 0-3.044-1.051-3.044-2.348v-2.718c0-1.296 1.362-2.347 3.044-2.347zM63.019 138.163h5.608c1.681 0 3.045 1.051 3.045 2.348v2.717c0 1.296-1.364 2.348-3.045 2.348H63.02c-1.68 0-3.044-1.052-3.044-2.348v-2.717c0-1.297 1.363-2.348 3.044-2.348zM63.019 146.201h5.608c1.681 0 3.045 1.05 3.045 2.347v2.718c0 1.297-1.364 2.348-3.045 2.348H63.02c-1.68 0-3.044-1.051-3.044-2.348v-2.718c0-1.297 1.363-2.347 3.044-2.347z"
      ></path>
      <path
        fill="#4F4F4F"
        d="M30.479 155.894c1.578 23.263 13.702 41.27 28.246 41.27 14.735 0 27.722-17.569 29.05-41.27H30.478z"
      ></path>
      <path
        fill="#4B4B4B"
        d="M87.801 155.89l-28.078 4.563-.237 36.614 2.636 16.046h32.177c.198-29.684-.131-39.711-6.498-57.223zM30.494 155.856l28.744 4.58v36.627l-2.681 16.046H24.453c-.204-29.783-.511-39.683 6.04-57.253z"
      ></path>
      <path
        fill="#4F4F4F"
        d="M46.959 78.238h23.534c13.15 0 23.736 11.396 23.736 25.552 0 14.154-2.194 29.378-23.736 25.55H46.959c-23.401 2.638-23.736-11.396-23.736-25.55 0-14.156 10.586-25.552 23.736-25.552z"
      ></path>
      <path
        fill="#4F4F4F"
        fillOpacity="0.99"
        d="M58.604 70.849c1.242 0 2.48.075 3.705.223 14.79 1.777 27.97 13.95 27.97 28.797l-2.322 15.895H29.33V99.869c0-16.078 13.057-29.02 29.274-29.02z"
      ></path>
      <path
        fill="#4F4F4F"
        d="M30.479 155.894c1.578 23.263 13.702 41.27 28.246 41.27 14.735 0 27.722-17.569 29.05-41.27H30.478z"
      ></path>
      <path
        fill="#4B4B4B"
        d="M87.801 155.89l-28.078 4.563-.237 36.614 2.636 16.046h32.177c.198-29.684-.131-39.711-6.498-57.223zM30.494 155.856l28.744 4.58v36.627l-2.681 16.046H24.453c-.204-29.783-.511-39.683 6.04-57.253z"
      ></path>
      <path
        fill="#fff"
        fillRule="evenodd"
        d="M50.075 277.578H32.54l-.715 13.534 18.358 2.696-.11-16.23zM68.685 277.578h17.702l.727 13.141-18.54 3.089.11-16.23z"
        clipRule="evenodd"
      ></path>
      <path
        fill="#4B4B4B"
        d="M42.265 285.022h-5.43c-1.29 0-2.337 1.326-2.337 2.96v2.656c0 1.635 1.046 2.96 2.337 2.96h5.43c1.292 0 2.337-1.325 2.337-2.96v-2.656c0-1.634-1.045-2.96-2.337-2.96z"
      ></path>
      <path
        fill="#4F4F4F"
        d="M43.749 289.583H35.74c-4.616 0-8.36 4.741-8.36 10.592 0 5.85 3.744 10.591 8.36 10.591h8.008c4.617 0 8.36-4.741 8.36-10.591 0-5.851-3.743-10.592-8.36-10.592z"
      ></path>
      <path
        fill="#4F4F4F"
        d="M49.819 299.205H29.854c-1.59 0-2.99.243-2.88 3.507v4.587c0 1.938 1.29 3.509 2.88 3.509H49.82c1.591 0 2.88-1.571 2.88-3.509v-4.587c0-1.936-1.289-3.507-2.88-3.507z"
      ></path>
      <path
        fill="#fff"
        d="M51.067 306.369H28.423c-.576 0-1.042.591-1.042 1.319v1.726c0 .728.466 1.32 1.042 1.32h22.644c.575 0 1.041-.592 1.041-1.32v-1.726c0-.728-.466-1.319-1.041-1.319zM42.837 290.115h-6.35c-.33 0-.598.34-.598.76 0 .418.268.758.599.758h6.349c.33 0 .599-.34.599-.758 0-.42-.269-.76-.6-.76z"
      ></path>
      <path
        fill="#585858"
        d="M44.995 295.001h-3.05c-1.076 0-1.949 1.104-1.949 2.468 0 1.364.873 2.469 1.948 2.469h3.051c1.076 0 1.947-1.105 1.947-2.469 0-1.364-.87-2.468-1.947-2.468z"
      ></path>
      <path
        fill="#fff"
        d="M42.837 292.543h-6.35c-.33 0-.598.34-.598.758 0 .419.268.759.599.759h6.349c.33 0 .599-.34.599-.759 0-.418-.269-.758-.6-.758z"
      ></path>
      <path
        fill="#4B4B4B"
        d="M81.423 285.052h-5.362c-1.274 0-2.307 1.326-2.307 2.959v2.657c0 1.634 1.033 2.96 2.306 2.96h5.363c1.274 0 2.307-1.326 2.307-2.96v-2.657c0-1.633-1.033-2.959-2.307-2.959z"
      ></path>
      <path
        fill="#4F4F4F"
        d="M82.83 289.583h-7.905c-4.56 0-8.255 4.741-8.255 10.592 0 5.85 3.696 10.591 8.255 10.591h7.904c4.56 0 8.588-4.657 8.588-10.507 0-5.851-4.029-10.676-8.588-10.676z"
      ></path>
      <path
        fill="#4F4F4F"
        d="M88.88 299.205H69.169c-1.569 0-2.843 1.571-2.843 3.507v4.587c0 1.938 1.274 3.509 2.843 3.509H88.88c1.57 0 2.843-1.571 2.843-3.509v-4.587c.063-3.437-1.273-3.507-2.843-3.507z"
      ></path>
      <path
        fill="#fff"
        d="M90.055 306.369H67.7c-.568 0-1.03.591-1.03 1.319v1.726c0 .728.462 1.32 1.03 1.32h22.356c.568 0 1.028-.592 1.028-1.32v-1.726c0-.728-.46-1.319-1.028-1.319zM82.91 290.115h-6.27c-.326 0-.591.34-.591.76 0 .418.264.758.591.758h6.27c.325 0 .59-.34.59-.758 0-.42-.265-.76-.59-.76z"
      ></path>
      <path
        fill="#585858"
        d="M85.038 295.03h-3.011c-1.062 0-1.924 1.106-1.924 2.469 0 1.363.862 2.468 1.924 2.468h3.01c1.063 0 1.924-1.105 1.924-2.468s-.86-2.469-1.923-2.469z"
      ></path>
      <path
        fill="#fff"
        d="M82.91 292.572h-6.27c-.326 0-.591.341-.591.759 0 .419.264.759.591.759h6.27c.325 0 .59-.34.59-.759 0-.418-.265-.759-.59-.759z"
      ></path>
      <path
        fill="#FAE4D0"
        d="M58.932 40.962c8.333 0 15.042 10.096 15.042 22.637v9.288c0 12.541-6.403 16.072-14.736 16.042-8.765-.03-15.347-3.5-15.347-16.042v-9.288c0-12.541 6.708-22.637 15.041-22.637z"
      ></path>
      <path
        fill="#F4D1B0"
        d="M56.665 42.657h4.532c5.217 0 9.417 5.873 9.417 13.167v5.402c0 7.294-4.2 13.167-9.417 13.167h-4.532c-5.217 0-9.417-5.873-9.417-13.167v-5.402c0-7.294 4.2-13.167 9.417-13.167zM46.95 80.154c-.701 0-1.266.55-1.266 1.231 0 .682.565 1.23 1.267 1.23h7.044l2.022 1.433c.569.403 1.36.282 1.775-.27a1.21 1.21 0 00-.278-1.725L55.42 80.57c-.022-.016-.045-.024-.068-.038a1.275 1.275 0 00-.911-.378h-7.49zm16.475 0c-.36 0-.682.145-.911.378-.023.014-.047.022-.068.038l-2.094 1.483a1.21 1.21 0 00-.278 1.724 1.291 1.291 0 001.774.27l2.023-1.432h7.044c.702 0 1.267-.548 1.267-1.23 0-.682-.565-1.23-1.267-1.23h-7.49z"
      ></path>
      <path
        fill="#FAE4D0"
        d="M35.887 30.32h47.026a9.714 9.714 0 019.734 9.735 9.713 9.713 0 01-9.734 9.734H35.887a9.713 9.713 0 01-9.735-9.734 9.714 9.714 0 019.735-9.736z"
      ></path>
      <path
        fill="#F4D1B0"
        d="M36.229 32.795h46.34a7.244 7.244 0 017.26 7.26 7.244 7.244 0 01-7.26 7.26h-46.34a7.244 7.244 0 01-7.26-7.26 7.244 7.244 0 017.26-7.26zM57.021 63.847h3.044c.244 0 .44.172.44.384v.228c0 .212-.196.385-.44.385H57.02c-.244 0-.44-.172-.44-.385v-.228c0-.212.196-.384.44-.384z"
      ></path>
      <path
        fill="#DCB492"
        d="M48.735 78.727l.177 1.266a21.533 21.533 0 003.387 8.919A21.59 21.59 0 0155.9 100.87v3.417c0 2.324-.245 4.641-.731 6.912l-1.637 7.662c-.082.385-.124.78-.124 1.176v5.121c0 3.609-4.47 5.149-6.59 2.27a3.782 3.782 0 01-.63-1.343l-.675-2.723a18.153 18.153 0 01-.188-7.884l.58-2.935c.31-1.563.465-3.154.465-4.75v-3.587c0-2.61-.788-5.154-2.258-7.284a12.802 12.802 0 01-2.169-5.77l-.04-.334a14.188 14.188 0 00-1.542-4.966l-1.519-2.877a22.112 22.112 0 00-1.925-3.021l-1.519-2.002a14.828 14.828 0 01-2.995-8.956c0-2.133-.455-4.24-1.336-6.175l-1.813-3.98a5.61 5.61 0 01-.502-2.318c0-3.024 2.387-5.473 5.33-5.473h7.511l1.658 3.762a8.141 8.141 0 01.238 5.953A8.145 8.145 0 0044 67.277l2.527 4.706a20.249 20.249 0 012.207 6.744z"
      ></path>
      <path
        fill="#FAE4D0"
        d="M54.114 2.956h10.57c8.786 0 22.682 12.405 22.682 24.603v17.309c0 12.199-13.024 25.55-22.354 25.55H53.788c-9.33 0-22.354-13.351-22.354-25.55V27.559c0-12.198 13.894-24.603 22.68-24.603z"
      ></path>
      <path
        fill="#DCB492"
        d="M36.641 5.829C43.342 2.449 53.087.612 57.187.225c.886-.084 1.763.007 2.638.177l12.502 2.417a14.251 14.251 0 018.09 4.717l6.252 7.264a14.943 14.943 0 013.596 9.748v4.088c0 .587.138 1.165.401 1.688 1.9 3.753-2.889 7.273-5.739 4.217l-5.736-6.153a4.71 4.71 0 00-2.487-1.407L58.132 23.11a13.963 13.963 0 00-2.873-.295l-9.673.015c-2.088.003-4.12.842-5.362 2.564-1.544 2.142-3.037 4.77-4.156 7.343-1.23 2.829-5.411 4.515-7.825 2.658a3.723 3.723 0 01-1.297-3.938c.094-.33.14-.67.14-1.015v-3.08c-.002-1.074.886-4.713 1.165-5.748 1.583-5.846 3.085-13.11 8.39-15.785z"
      ></path>
      <path
        fill="#F4D1B0"
        d="M59.395 36.438c1.866 0 3.368 1.588 3.368 3.56v6.285c0 1.972-1.502 3.56-3.368 3.56-1.865 0-3.368-1.588-3.368-3.56v-6.285c0-1.972 1.503-3.56 3.368-3.56z"
      ></path>
      <path
        fill="#F4D1B0"
        d="M65.009 45.804c0 1.572-1.33 2.836-2.983 2.836h-5.26c-1.651 0-2.98-1.264-2.98-2.836 0-1.57 1.328-2.834 2.98-2.834h5.26c1.652 0 2.983 1.264 2.983 2.834z"
      ></path>
      <path
        fill="#fff"
        d="M50.905 52.727c-.39 0-.765.125-1.041.349-.278.223-.432.527-.432.843v.897c0 1.772.63 3.395 1.744 4.632a6.388 6.388 0 004.732 2.114h6.843c1.93 0 3.617-.875 4.731-2.114 1.116-1.237 1.746-2.86 1.746-4.632v-.897c0-.316-.155-.62-.432-.843a1.671 1.671 0 00-1.043-.35H50.905z"
      ></path>
      <path
        fill="#4D4D4D"
        d="M42.84 31.402l8.1-2.874c.88-.313 2.095-.267 2.723.103.629.37.425.92-.455 1.232l-8.1 2.875c-.881.312-2.096.267-2.725-.103s-.425-.92.456-1.233zM75.698 31.402l-8.1-2.874c-.881-.313-2.096-.267-2.724.103-.629.37-.425.92.456 1.232l8.1 2.875c.88.312 2.095.267 2.724-.103s.425-.92-.456-1.233z"
      ></path>
      <path
        fill="#61534B"
        d="M47.233 33.934h1.239c1.126 0 2.031.906 2.031 2.031v2.86c0 1.125-.905 2.03-2.031 2.03h-1.24a2.026 2.026 0 01-2.03-2.03v-2.86c0-1.125.905-2.031 2.03-2.031zM71.56 33.934h-1.24a2.027 2.027 0 00-2.03 2.031v2.86c0 1.125.905 2.03 2.03 2.03h1.24a2.026 2.026 0 002.031-2.03v-2.86a2.027 2.027 0 00-2.031-2.031z"
      ></path>
    </svg>