    <svg
      xmlns="http://www.w3.org/2000/svg"
      width="100"
      height="339"
      fill="none"
      viewBox="0 0 100 339"
    >
      <path
        fill="#C89F7B"
        d="M82.731 116.303c.101-1.29 7.663-20.204 9.1-16.634l5.712 4.869c.539 1.338.896 25.44.356 29.342l-.269 7.128a22.11 22.11 0 00-.214 3.035v2.418c0 1.159-.06 12.917-.025 12.846 0 0-12.402.103-12.541-.191l-.89-20.873c-.797-3.643-1.528-20.596-1.528-20.596l.3-1.344z"
      ></path>
      <path
        fill="#C89F7B"
        d="M90.442 130.395l.057.003c3.66.208 6.696 5.681 6.779 12.226l.62 49.14c.082 6.544-2.819 11.681-6.48 11.473l-.057-.003c-3.661-.208-6.696-5.681-6.779-12.225l-.62-49.14c-.082-6.545 2.819-11.681 6.48-11.474z"
      ></path>
      <path
        fill="#C89F7B"
        d="M89.806 182.759l1.937.222c3.712.426 6.776 6.936 6.843 14.54l.059 6.755c.067 7.604-2.89 13.422-6.602 12.995l-1.936-.223c-3.632-.417-6.642-6.654-6.834-14.043a24.105 24.105 0 01-.009-.497l-.06-6.754c-.066-7.604 2.89-13.422 6.602-12.995z"
      ></path>
      <path
        fill="#C89F7B"
        d="M88.538 201.735c.942-4.665 4.019-6.69 6.874-4.525 2.854 2.167 4.405 7.705 3.464 12.371l-2.573 12.741c-.94 4.665-4.018 6.69-6.872 4.524-2.855-2.167-4.406-7.705-3.464-12.37l2.571-12.741z"
      ></path>
      <path
        fill="#BD8B60"
        d="M82.469 198.525c-.022-3.36 1.251-5.938 2.843-5.759 1.59.178 2.9 3.047 2.92 6.407l.059 9.176c.021 3.36-1.251 5.939-2.842 5.76-1.592-.178-2.9-3.047-2.92-6.407l-.06-9.177z"
      ></path>
      <path
        fill="#C89F7B"
        d="M18.085 113.687c-.1-1.289-10.775-13.414-12.212-9.844 0 0-2.721-.011-2.936 1.549 0 0-1.42 24.154-.88 28.056l.269 7.128c.142 1.024.214 2.04.214 3.035v2.418c0 1.159.06 12.917.025 12.846 0 0 12.402.102 12.54-.191l.89-20.873c.798-3.643 2.109-20.164 2.109-20.164l-.018-3.96z"
      ></path>
      <path
        fill="#C89F7B"
        d="M9.515 129.963l-.057.003c-3.66.208-6.696 5.681-6.778 12.226l-.62 49.14c-.083 6.544 2.818 11.681 6.479 11.473l.057-.003c3.661-.208 6.696-5.681 6.779-12.225l.62-49.14c.082-6.545-2.819-11.681-6.48-11.474z"
      ></path>
      <path
        fill="#C89F7B"
        d="M9.442 182.327l-1.937.222c-3.712.426-6.776 6.936-6.843 14.54l-.06 6.755c-.066 7.604 2.89 13.421 6.603 12.995l1.936-.223c3.713-.427 6.776-6.937 6.843-14.541l.06-6.753c.067-7.604-2.89-13.422-6.602-12.995z"
      ></path>
      <path
        fill="#C89F7B"
        d="M11.802 201.303c-.941-4.665-4.019-6.69-6.873-4.525-2.855 2.167-4.406 7.705-3.465 12.371l2.572 12.741c.941 4.665 4.02 6.69 6.873 4.523 2.855-2.166 4.406-7.704 3.464-12.369l-2.571-12.741z"
      ></path>
      <path
        fill="#BD8B60"
        d="M17.873 198.093c.021-3.36-1.251-5.938-2.843-5.76-1.592.179-2.9 3.048-2.92 6.408l-.059 9.176c-.021 3.36 1.25 5.939 2.842 5.76 1.592-.178 2.9-3.047 2.92-6.407l.06-9.177z"
      ></path>
      <path
        fill="#C89F7B"
        d="M45.727 265.938C45.23 262.276 30 260.15 30 266.012l-.287 23.667v19.737l-1.62 20.226c0 4.421 3.31 8.003 7.395 8.003h1.725c4.085 0 7.396-3.582 7.396-8.003v-29.534c0-2.056.952-26.908.952-29.184 0 0 .227-4.543.167-4.986z"
      ></path>
      <path
        fill="#C89F7B"
        d="M49.57 188.053c.159-2.035-23.145-1.595-23.179-1.277l-1.543 26.045c-.181 1.66-.499 18.802-.256 20.714 0 0 5.493 31.71 5.472 33.02-.04 2.59 15.486 2.822 15.673-.271.058-.964 4.242-32.749 4.242-32.749.202-1.747-.41-45.482-.41-45.482zM39.612 320.815h-6.945c-4.005 0-7.251 3.792-7.251 8.47 0 4.677 3.246 8.468 7.25 8.468h6.946c4.004 0 7.251-3.791 7.251-8.468 0-4.678-3.247-8.47-7.25-8.47z"
      ></path>
      <path
        fill="#C89F7B"
        d="M44.462 328.467H27.817c-1.325 0-2.401 1.256-2.401 2.805v3.668c0 1.549 1.076 2.804 2.401 2.804h16.645c1.326 0 2.401-1.255 2.401-2.804v-3.668c0-1.549-1.075-2.805-2.401-2.805zM63.079 249.578h1.781c4.47 0 8.093 4.756 8.093 10.622V308.847l1.62 20.702c0 4.524-3.31 8.191-7.396 8.191h-1.724c-4.085 0-7.396-3.667-7.396-8.191v-30.796c0-1.982-.952-26.969-.952-29.297v-12.038c0-.451.03-.902.09-1.346.498-3.754 2.98-6.494 5.884-6.494z"
      ></path>
      <path
        fill="#C89F7B"
        d="M52.902 188.007c-.05-2.215 23.736-3.974 23.77-3.655l.093 15.167.246 33.769c0 1.942-3.922 31.387-3.922 32.7 0 4.19-15.983 4.077-15.983-.411 0-.968-3.771-32.289-3.771-32.289-.202-1.751-.433-45.281-.433-45.281zM63.918 320.776h6.944c4.005 0 7.252 3.789 7.252 8.461 0 4.671-3.247 8.459-7.252 8.459h-6.944c-4.004 0-7.252-3.788-7.252-8.459 0-4.672 3.248-8.461 7.252-8.461z"
      ></path>
      <path
        fill="#C89F7B"
        d="M59.067 323.864h16.646c1.325 0 2.401 1.818 2.401 4.062v5.312c0 2.243-1.076 4.061-2.401 4.061H59.067c-1.325 0-2.401-1.818-2.401-4.061v-5.312c0-2.244 1.076-4.062 2.401-4.062zM77.685 135.66c0-21.343-13.427-29.577-27.05-29.577-13.623 0-26.06 8.234-26.06 29.577l-.962 41.896c0 21.343 13.399 33.737 27.023 33.737 11.332 0 22.228-8.576 25.573-23.744.676-3.067 1.044-6.404 1.044-9.993l.432-41.896z"
      ></path>
      <path
        fill="#C89F7B"
        d="M84.35 87.572H16.28c-7.368 0-13.343 7.634-13.343 17.052s5.975 10.594 13.343 10.594l68.07 1.084c7.368 0 13.342-2.26 13.342-11.678 0-9.418-5.974-17.052-13.342-17.052z"
      ></path>
      <path
        fill="#BD8B60"
        d="M67.483 87.572H33.456c-8.778 0-15.895 8.792-15.895 19.64v11.837c0 10.845 7.117 15.714 15.895 15.714h34.026c1.886 0 3.695-.225 5.374-.685 6.134-1.683 10.52-6.514 10.52-15.029v-11.837c0-10.848-7.115-19.64-15.894-19.64z"
      ></path>
      <path
        fill="#C89F7B"
        d="M70.452 87.572H30.489c-7.14 0-12.927 8.17-12.927 18.251v11c0 10.08 5.788 14.766 12.927 14.766h39.963c7.139 0 12.926-4.686 12.926-14.766v-11c0-10.08-5.787-18.251-12.926-18.251z"
      ></path>
      <path
        fill="#BD8B60"
        d="M53.491 123.201c0-1.245-1.362-2.253-3.045-2.253-1.68 0-3.044 1.008-3.044 2.253v4.369c0 1.244 1.364 2.254 3.044 2.254 1.683 0 3.045-1.01 3.045-2.254v-4.369zM31.106 125.06h-2.585c-1.03 0-1.867.965-1.867 2.155 0 1.188.836 2.152 1.867 2.152h2.585c1.03 0 1.865-.964 1.865-2.152 0-1.19-.835-2.155-1.865-2.155zM73.193 125.06h-2.584c-1.032 0-1.867.965-1.867 2.155 0 1.188.835 2.152 1.867 2.152h2.584c1.031 0 1.866-.964 1.866-2.152 0-1.19-.835-2.155-1.866-2.155z"
      ></path>
      <path
        fill="#BD8B60"
        fillRule="evenodd"
        d="M52.245 171.005a1.38 1.38 0 00-2.759 0v2.567a1.38 1.38 0 002.759 0v-2.567z"
        clipRule="evenodd"
      ></path>
      <path
        fill="#4F4F4F"
        d="M77.253 177.432s-15.117.185-26.248.123c-11.201-.061-26.913-.245-27.394 0 1.122 19.413 16.861 35.298 27.188 35.298 10.462 0 25.512-15.643 26.454-35.421z"
      ></path>
      <path
        fill="#4B4B4B"
        d="M77.25 177.432l-26.246 6.281 1.008 51.316H77.25c.185-15.425 1.752-39.657 0-57.597zM23.611 177.556l27.114 6.157v51.316H24.434c-.184-15.424-4.157-40.059-.823-57.473z"
      ></path>
      <path
        fill="#C89F7B"
        d="M66.881 73c0-10.915-7.39-19.763-16.507-19.763-9.118 0-16.509 8.848-16.509 19.764v8.109c0 10.916 7.39 19.765 16.51 19.765 9.117 0 16.506-8.85 16.506-19.765V73z"
      ></path>
      <path
        fill="#BD8B60"
        d="M44.304 96.087l-9.01-4.33a2.014 2.014 0 10-1.745 3.63l9.011 4.332a2.014 2.014 0 101.744-3.632zM55.257 96.087l9.01-4.33a2.016 2.016 0 012.69.941 2.016 2.016 0 01-.943 2.689l-9.01 4.332a2.015 2.015 0 01-1.747-3.632zM53.195 54.566h-6.403c-7.35 0-13.308 5.958-13.308 13.306v5.46c0 7.35 5.958 13.307 13.308 13.307h6.403c7.349 0 13.306-5.958 13.306-13.306v-5.46c0-7.35-5.957-13.307-13.306-13.307z"
      ></path>
      <path
        fill="#C89F7B"
        d="M73.014 42.984H27.263c-5.231 0-9.472 4.404-9.472 9.838 0 5.435 4.241 9.84 9.471 9.84h45.752c5.23 0 9.472-4.405 9.472-9.84 0-5.434-4.242-9.838-9.472-9.838z"
      ></path>
      <path
        fill="#BD8B60"
        d="M73.295 44.471H27.243c-3.984 0-7.214 3.285-7.214 7.337s3.23 7.338 7.215 7.338h46.051c3.984 0 7.215-3.286 7.215-7.338s-3.23-7.337-7.215-7.337z"
      ></path>
      <path
        fill="#C89F7B"
        d="M57.157 14.379H43.385c-11.409 0-20.658 9.249-20.658 20.659V59.52c0 11.411 9.25 20.661 20.658 20.661h13.772c11.409 0 20.659-9.25 20.659-20.66V35.037c0-11.41-9.25-20.66-20.66-20.66z"
      ></path>
      <path
        fill="#C89F7B"
        d="M56.719 77.38H43.85a2.52 2.52 0 000 5.04h12.868a2.52 2.52 0 000-5.04z"
      ></path>
      <path
        fill="#BD8B60"
        d="M52.363 74.564h-3.721a.539.539 0 00-.539.539v.317c0 .297.241.54.539.54h3.72a.54.54 0 00.539-.54v-.317a.54.54 0 00-.538-.54zM54.296 50.764a4.045 4.045 0 10-8.09 0V57.9a4.046 4.046 0 008.09 0v-7.137z"
      ></path>
      <path
        fill="#BD8B60"
        d="M49.806 58.842l-3.761-3.197a1.478 1.478 0 00-1.913 2.25l3.761 3.198a1.478 1.478 0 001.913-2.251zM50.84 58.842l3.76-3.197a1.477 1.477 0 111.914 2.25l-3.763 3.198a1.478 1.478 0 01-1.911-2.251zM47.715 43.359a1.134 1.134 0 10-2.268 0v1.372a1.135 1.135 0 002.268 0V43.36zM55.244 43.359a1.133 1.133 0 10-2.267 0v1.372a1.134 1.134 0 002.267 0V43.36z"
      ></path>
      <path
        fill="#61534B"
        d="M40.448 45.705a2.53 2.53 0 10-5.063 0v1.014a2.531 2.531 0 005.063 0v-1.014zM65.067 45.705a2.53 2.53 0 10-5.063 0v1.013a2.531 2.531 0 105.063 0v-1.013z"
      ></path>
      <path
        fill="#BD8B60"
        fillRule="evenodd"
        d="M58.514 66.89a.681.681 0 00-.682-.68H43.091a.682.682 0 00-.683.68v1.364c0 .376.305.681.683.681h14.741a.682.682 0 00.682-.681V66.89z"
        clipRule="evenodd"
      ></path>
      <path
        fill="#61534B"
        fillRule="evenodd"
        d="M68.03 40.776c0-.301-.246-.545-.546-.545h-7.635c-.3 0-.544.244-.544.545v1.09c0 .302.244.546.544.546h7.635c.3 0 .546-.244.546-.546v-1.09z"
        clipRule="evenodd"
      ></path>
      <path
        fill="#4D4D4D"
        fillRule="evenodd"
        d="M41.83 40.744c0-.3-.245-.545-.546-.545h-7.635c-.3 0-.546.244-.546.545v1.092c0 .3.245.544.546.544h7.635c.3 0 .545-.244.545-.544v-1.092z"
        clipRule="evenodd"
      ></path>
      <path
        fill="#4D4D4D"
        d="M38.888 14.379c-9.796 0-17.683 8.344-17.683 18.713 0 .485.023.966.057 1.444a5.314 5.314 0 00-.057.746v11.463c0 2.46 1.643 4.498 3.837 4.96v-14.96c0-10.708 8.147-19.33 18.267-19.33h14.29c10.12 0 18.268 8.622 18.268 19.33v14.979c2.255-.407 3.964-2.472 3.964-4.98V35.283c0-.254-.025-.503-.058-.746.035-.478.058-.96.058-1.444 0-10.369-7.887-18.713-17.684-18.713H38.888z"
      ></path>
      <path
        fill="#4D4D4D"
        d="M44.018 3.835c-12.405 0-22.393 10.01-22.393 22.443v10.588c0 3.765.92 7.304 2.542 10.414V34.66c0-10.976 8.815-19.81 19.764-19.81h13.174c10.949 0 19.763 8.834 19.763 19.81v12.62a22.449 22.449 0 002.542-10.414V26.278c0-12.433-9.987-22.443-22.393-22.443H44.018z"
      ></path>
      <path
        fill="#4D4D4D"
        d="M30.165 24.077c0-2.467-1.696-4.468-3.787-4.468-2.092 0-3.788 2-3.788 4.468v6.358c0 2.469 1.696 4.47 3.788 4.47 2.09 0 3.787-2.001 3.787-4.47v-6.358zM79.287 24.077c0-2.467-1.695-4.468-3.787-4.468-2.091 0-3.787 2-3.787 4.468v6.358c0 2.469 1.696 4.47 3.787 4.47 2.092 0 3.787-2.001 3.787-4.47v-6.358z"
      ></path>
      <path
        fill="#4F4F4F"
        d="M61.294 4.28H39.74c-6.42 0-11.624 5.215-11.624 11.649v5.496c0 6.433 5.205 11.65 11.623 11.65h21.553c6.42 0 11.624-5.217 11.624-11.65v-5.496c0-6.434-5.204-11.65-11.623-11.65z"
      ></path>
      <path
        fill="#4F4F4F"
        d="M25.517.52a2.906 2.906 0 00-1.96.5 2.452 2.452 0 00-1.024 1.608c-.045.274-.08.549-.108.822-.827 8.256 5.841 15.72 14.853 16.628l10.526 1.057c9.012.907 17.027-5.081 17.853-13.337.03-.294.044-.57.055-.823a2.456 2.456 0 00-.683-1.782 2.91 2.91 0 00-1.824-.883L25.517.52z"
      ></path>
      <path
        fill="#565656"
        d="M49.567 16.299h1.715c1.011 0 1.832.868 1.832 1.938v7.081c0 1.07-.82 1.938-1.832 1.938h-1.715c-1.012 0-1.833-.868-1.833-1.938v-7.08c0-1.07.82-1.94 1.833-1.94zM42.21 16.491h2.263c.793 0 1.434.68 1.434 1.517v7.502c0 .838-.641 1.518-1.434 1.518H42.21c-.794 0-1.435-.68-1.435-1.518v-7.502c0-.837.641-1.517 1.435-1.517zM58.824 16.523H56.56c-.792 0-1.435.68-1.435 1.517v7.502c0 .84.643 1.518 1.434 1.518h2.265c.791 0 1.433-.679 1.433-1.518V18.04c0-.837-.642-1.517-1.433-1.517z"
      ></path>
      <path
        fill="#4D4D4D"
        d="M38.888 14.379c-9.796 0-17.683 8.344-17.683 18.713 0 .485.023.966.057 1.444a5.314 5.314 0 00-.057.746v11.463c0 2.46 1.643 4.498 3.837 4.96v-14.96c0-10.708 8.147-19.33 18.267-19.33h14.29c10.12 0 18.268 8.622 18.268 19.33v14.979c2.255-.407 3.964-2.472 3.964-4.98V35.283c0-.254-.025-.503-.058-.746.035-.478.058-.96.058-1.444 0-10.369-7.887-18.713-17.684-18.713H38.888z"
      ></path>
      <path
        fill="#4D4D4D"
        fillRule="evenodd"
        d="M32.071 16.98c-1.791 1.123-2.734 2.397-2.734 3.693 0 4.079 9.141 7.389 20.401 7.389s20.4-3.31 20.4-7.389c0-1.296-.942-2.57-2.733-3.693H32.071z"
        clipRule="evenodd"
      ></path>
      <path
        fill="#fff"
        d="M43.89 304.04H30.357c-.72 0-1.302 1-1.302 2.235v19.584c0 1.235.583 2.235 1.302 2.235H43.89c.718 0 1.303-1 1.303-2.235v-19.584c0-1.235-.584-2.235-1.303-2.235z"
      ></path>
      <path
        fill="#4B4B4B"
        d="M38.45 310.938h-4.646c-1.104 0-2 1.416-2 3.163v2.838c0 1.748.896 3.164 2 3.164h4.646c1.105 0 2-1.416 2-3.164v-2.838c0-1.747-.895-3.163-2-3.163z"
      ></path>
      <path
        fill="#4F4F4F"
        d="M39.72 315.811h-6.852c-3.95 0-7.153 5.067-7.153 11.32 0 6.252 3.203 11.32 7.153 11.32h6.851c3.95 0 7.153-5.068 7.153-11.32 0-6.253-3.202-11.32-7.153-11.32z"
      ></path>
      <path
        fill="#4F4F4F"
        d="M44.913 326.095H27.83c-1.36 0-2.464 1.679-2.464 3.748v4.902c0 2.072 1.103 3.751 2.464 3.751h17.082c1.361 0 2.464-1.679 2.464-3.751v-4.902c0-2.069-1.103-3.748-2.464-3.748z"
      ></path>
      <path
        fill="#fff"
        d="M46.465 333.752h-20.17c-.513 0-.928.631-.928 1.41v1.844c0 .779.415 1.411.928 1.411h20.17c.512 0 .928-.632.928-1.411v-1.844c0-.779-.416-1.41-.928-1.41zM38.94 316.38h-5.433c-.283 0-.513.363-.513.811 0 .448.23.811.513.811h5.432c.282 0 .513-.363.513-.811 0-.448-.23-.811-.513-.811z"
      ></path>
      <path
        fill="#585858"
        d="M40.785 321.602h-2.61c-.92 0-1.667 1.18-1.667 2.638 0 1.457.747 2.638 1.667 2.638h2.61c.92 0 1.666-1.181 1.666-2.638 0-1.458-.745-2.638-1.666-2.638z"
      ></path>
      <path
        fill="#fff"
        d="M38.94 318.975h-5.433c-.283 0-.513.363-.513.811 0 .447.23.81.513.81h5.432c.282 0 .513-.363.513-.81 0-.448-.23-.811-.513-.811zM72.562 304.039H58.969c-.722 0-1.309 1.001-1.309 2.236v19.583c0 1.235.587 2.236 1.309 2.236h13.593c.722 0 1.308-1.001 1.308-2.236v-19.583c0-1.235-.586-2.236-1.308-2.236z"
      ></path>
      <path
        fill="#4B4B4B"
        d="M69.451 310.969h-4.647c-1.104 0-2 1.418-2 3.163v2.84c0 1.746.896 3.163 2 3.163h4.647c1.104 0 2-1.417 2-3.163v-2.84c0-1.745-.896-3.163-2-3.163z"
      ></path>
      <path
        fill="#4F4F4F"
        d="M70.669 315.811h-6.85c-3.952 0-7.155 5.067-7.155 11.32 0 6.252 3.203 11.32 7.154 11.32h6.85c3.952 0 7.443-4.978 7.443-11.23 0-6.253-3.491-11.41-7.442-11.41z"
      ></path>
      <path
        fill="#4F4F4F"
        d="M75.914 326.095H58.83c-1.36 0-2.464 1.679-2.464 3.748v4.902c0 2.072 1.104 3.751 2.464 3.751h17.083c1.36 0 2.463-1.679 2.463-3.751v-4.902c0-2.069-1.103-3.748-2.463-3.748z"
      ></path>
      <path
        fill="#fff"
        d="M77.45 333.752H57.296c-.512 0-.928.631-.928 1.41v1.844c0 .779.416 1.411.928 1.411H77.45c.511 0 .926-.632.926-1.411v-1.844c0-.779-.415-1.41-.926-1.41zM69.89 316.38h-5.434c-.283 0-.513.363-.513.811 0 .448.23.811.513.811h5.433c.283 0 .513-.363.513-.811 0-.448-.23-.811-.513-.811z"
      ></path>
      <path
        fill="#585858"
        d="M71.735 321.633h-2.609c-.92 0-1.667 1.182-1.667 2.638 0 1.457.746 2.639 1.667 2.639h2.61c.92 0 1.666-1.182 1.666-2.639 0-1.456-.746-2.638-1.667-2.638z"
      ></path>
      <path
        fill="#fff"
        d="M69.89 319.006h-5.434c-.283 0-.513.364-.513.81 0 .449.23.812.513.812h5.433c.283 0 .513-.363.513-.812 0-.446-.23-.81-.513-.81z"
      ></path>
      <path
        fill="#4F4F4F"
        d="M77.25 177.555s-15.114.062-26.245 0c-11.201-.061-26.913-.245-27.394 0 1.122 19.413 16.861 35.298 27.188 35.298 10.462 0 25.51-15.519 26.452-35.298z"
      ></path>
      <path
        fill="#4B4B4B"
        d="M76.861 177.556l-25.857 6.157 1.008 51.316H77.25c.185-15.424 1.364-39.533-.389-57.473zM23.611 177.556l27.114 6.157v51.316H24.434c-.184-15.424-4.157-40.059-.823-57.473z"
      ></path>
    </svg>