    <svg
      xmlns="http://www.w3.org/2000/svg"
      width="99"
      height="326"
      fill="none"
      viewBox="0 0 99 326"
    >
      <path
        fill="#FAE4D0"
        d="M82.223 103.141c.101-1.29 7.663-20.204 9.1-16.634l2.579 5.504c.538 1.338 3.066-2.438 3.28-.877 0 0 .75 25.682.209 29.585l-.269 7.128a22.104 22.104 0 00-.214 3.035v2.417c0 1.159-.06 12.917-.025 12.846 0 0-12.402.103-12.54-.19l-.89-20.873c-.797-3.644-1.53-20.597-1.53-20.597l.3-1.344z"
      ></path>
      <path
        fill="#FAE4D0"
        d="M89.934 117.233l.057.003c3.661.208 6.697 5.681 6.779 12.226l.62 49.14c.082 6.544-2.819 11.681-6.48 11.473l-.057-.003c-3.661-.208-6.696-5.681-6.779-12.225l-.62-49.14c-.082-6.545 2.819-11.681 6.48-11.474z"
      ></path>
      <path
        fill="#FAE4D0"
        d="M89.298 169.597l1.937.222c3.713.427 6.776 6.937 6.843 14.541l.059 6.755c.067 7.603-2.89 13.421-6.601 12.994l-1.937-.223c-3.632-.416-6.642-6.654-6.834-14.042a24.326 24.326 0 01-.009-.498l-.06-6.754c-.066-7.604 2.89-13.421 6.602-12.995z"
      ></path>
      <path
        fill="#FAE4D0"
        d="M88.03 188.574c.942-4.665 4.02-6.691 6.874-4.525 2.855 2.167 4.405 7.704 3.464 12.37l-2.572 12.741c-.94 4.665-4.019 6.691-6.873 4.524-2.855-2.167-4.406-7.704-3.464-12.369l2.571-12.741z"
      ></path>
      <path
        fill="#F4D1B0"
        d="M81.961 185.364c-.022-3.36 1.251-5.938 2.843-5.76 1.59.179 2.9 3.048 2.92 6.408l.059 9.176c.021 3.36-1.251 5.939-2.842 5.76-1.592-.178-2.9-3.047-2.92-6.407l-.06-9.177z"
      ></path>
      <path
        fill="#FAE4D0"
        d="M17.578 100.525c-.101-1.29-10.776-13.415-12.213-9.845l-2.936-.12c-.538 1.337-1.42 25.824-.88 29.726l.269 7.128c.142 1.024.214 2.04.214 3.035v2.417c0 1.16.06 12.918.025 12.846 0 0 12.402.103 12.541-.19l.89-20.873c.797-3.643 2.108-20.164 2.108-20.164l-.018-3.96z"
      ></path>
      <path
        fill="#FAE4D0"
        d="M9.008 116.8l-.058.003c-3.66.208-6.696 5.681-6.778 12.226l-.62 49.14c-.083 6.544 2.818 11.681 6.48 11.474l.056-.004c3.661-.207 6.696-5.681 6.779-12.225l.62-49.139c.083-6.545-2.819-11.682-6.48-11.475z"
      ></path>
      <path
        fill="#FAE4D0"
        d="M8.935 169.165l-1.938.222c-3.712.426-6.776 6.936-6.842 14.54l-.06 6.755c-.067 7.604 2.889 13.421 6.602 12.995l1.936-.223c3.713-.427 6.776-6.937 6.843-14.541l.06-6.754c.067-7.603-2.889-13.421-6.601-12.994z"
      ></path>
      <path
        fill="#FAE4D0"
        d="M11.294 188.141c-.941-4.665-4.018-6.69-6.873-4.525-2.855 2.167-4.406 7.705-3.464 12.37l2.571 12.742c.942 4.664 4.02 6.69 6.874 4.523 2.855-2.166 4.405-7.704 3.463-12.369l-2.57-12.741z"
      ></path>
      <path
        fill="#F4D1B0"
        d="M17.365 184.931c.021-3.36-1.251-5.937-2.843-5.759-1.592.178-2.9 3.047-2.92 6.407l-.059 9.177c-.021 3.36 1.25 5.939 2.842 5.759 1.592-.178 2.9-3.047 2.92-6.407l.06-9.177z"
      ></path>
      <path
        fill="#FAE4D0"
        d="M42.611 253.484s-17.632.243-17.782.262l-.32 23.467v19.264l-.663 20.198c0 4.315 3.71 7.811 8.286 7.811h1.934c4.576 0 8.286-3.496 8.286-7.811l.395-29.282c0-2.007-.136-31.687-.136-33.909z"
      ></path>
      <path
        fill="#FAE4D0"
        d="M48.371 186.619c.178-.234-27.877-.554-27.915-.243 0 0-1.9 16.641-.791 34.158 1.053 16.644 5.109 34.21 5.343 34.217 2.92.079 12.021-.061 17.583.041.03.001 1.653-7.176 3.329-16.354 2.43-13.311 2.553-16.447 2.51-17.904-.448-15.209.012-34.032-.059-33.915zM36.755 308.06h-7.783c-4.487 0-8.124 3.701-8.124 8.266 0 4.565 3.637 8.266 8.124 8.266h7.783c4.486 0 8.124-3.701 8.124-8.266 0-4.565-3.638-8.266-8.124-8.266z"
      ></path>
      <path
        fill="#FAE4D0"
        d="M42.189 315.527h-18.65c-1.486 0-2.691 1.226-2.691 2.738v3.581c0 1.511 1.205 2.736 2.69 2.736h18.65c1.487 0 2.691-1.225 2.691-2.736v-3.581c0-1.512-1.204-2.738-2.69-2.738zM57.96 253.484s18.44.243 18.598.262l.335 23.467-.001 19.264.694 20.198c0 4.315-3.88 7.811-8.667 7.811h-2.022c-4.786 0-8.666-3.496-8.666-7.811l-.413-29.282c0-2.007.142-31.687.142-33.909z"
      ></path>
      <path
        fill="#FAE4D0"
        d="M51.935 186.619c-.277-.05 29.155-.554 29.195-.243 0 0 1.544 16.846.425 33.813-1.135 17.215-4.933 34.555-5.185 34.562-3.055.079-12.564.028-18.399-.007-.002 0-1.28-8.093-2.565-16.517-1.177-7.73-2.36-15.741-2.563-18.038-1.493-16.865-.908-33.57-.908-33.57zM64.082 308.06h8.14c4.693 0 8.497 3.701 8.497 8.266 0 4.565-3.804 8.266-8.497 8.266h-8.14c-4.692 0-8.497-3.701-8.497-8.266 0-4.565 3.805-8.266 8.497-8.266z"
      ></path>
      <path
        fill="#FAE4D0"
        d="M58.4 315.527h19.505c1.553 0 2.814 1.226 2.814 2.738v3.581c0 1.511-1.26 2.736-2.814 2.736H58.399c-1.554 0-2.814-1.225-2.814-2.736v-3.581c0-1.512 1.26-2.738 2.814-2.738z"
      ></path>
      <path
        fill="#F4D1B0"
        d="M78.723 122.498c0-21.342-14.77-29.576-29.757-29.576-14.988 0-28.67 8.234-28.67 29.576l-7.68 48.455c0 21.344 21.362 27.179 36.35 27.179 14.986 0 37.85-5.836 37.85-27.179l-8.093-48.455z"
      ></path>
      <path
        fill="#FAE4D0"
        d="M77.409 122.498c0-21.342-14.102-29.576-28.41-29.576-14.309 0-27.37 8.234-27.37 29.576l-7.334 48.455c0 21.344 20.395 27.179 34.704 27.179 14.308 0 36.137-5.836 36.137-27.179l-7.727-48.455z"
      ></path>
      <path
        fill="#FAE4D0"
        d="M83.843 74.41H15.772c-7.368 0-13.342 7.635-13.342 17.053 0 9.417 5.974 10.594 13.342 10.594l68.07 1.084c7.369 0 13.342-2.261 13.342-11.678 0-9.418-5.973-17.053-13.341-17.053z"
      ></path>
      <path
        fill="#F4D1B0"
        d="M66.975 74.41H32.949c-8.778 0-15.894 8.793-15.894 19.64v11.837c0 10.846 7.116 15.714 15.894 15.714h34.026c1.886 0 3.695-.224 5.374-.685 6.134-1.683 10.521-6.514 10.521-15.029V94.051c0-10.848-7.116-19.64-15.895-19.64z"
      ></path>
      <path
        fill="#FAE4D0"
        d="M69.944 74.41H29.98c-7.14 0-12.926 8.17-12.926 18.252v10.999c0 10.08 5.787 14.766 12.926 14.766h39.963c7.139 0 12.926-4.686 12.926-14.766v-11c0-10.08-5.787-18.25-12.926-18.25z"
      ></path>
      <path
        fill="#F4D1B0"
        d="M52.983 110.039c0-1.244-1.362-2.253-3.044-2.253-1.681 0-3.044 1.009-3.044 2.253v4.37c0 1.243 1.363 2.253 3.043 2.253 1.683 0 3.045-1.01 3.045-2.253v-4.37zM30.598 111.898h-2.585c-1.03 0-1.867.965-1.867 2.155 0 1.188.837 2.153 1.867 2.153h2.585c1.03 0 1.866-.965 1.866-2.153 0-1.19-.835-2.155-1.866-2.155zM72.685 111.898h-2.584c-1.031 0-1.867.965-1.867 2.155 0 1.188.836 2.153 1.867 2.153h2.584c1.031 0 1.867-.965 1.867-2.153 0-1.19-.836-2.155-1.867-2.155zM73.865 142.36c-23.123-5.337-46.886 0-46.886 0 0-1.208 11.113-5.337 23.763-5.337 12.65 0 23.123 4.129 23.123 5.337z"
      ></path>
      <path
        fill="#F4D1B0"
        fillRule="evenodd"
        d="M51.737 158.637a1.38 1.38 0 00-2.759 0v2.567a1.38 1.38 0 002.759 0v-2.567z"
        clipRule="evenodd"
      ></path>
      <path
        fill="#4F4F4F"
        d="M85.7 164.271s-21.184.061-35.017 0c-13.92-.061-37.026-.014-37.025 0 1.394 19.413 23.936 35.421 36.77 35.421 13 0 34.102-15.643 35.273-35.421z"
      ></path>
      <path
        fill="#4B4B4B"
        d="M85.702 164.271l-35.018 6.281 1.253 51.315h30.88c.23-15.424 7.16-51.089 2.885-57.596zM13.675 164.271l36.661 6.281v51.315H17.663c-.23-15.424-8.133-40.182-3.988-57.596z"
      ></path>
      <path
        fill="#4F4F4F"
        d="M85.7 164.271s-21.184.061-35.017 0c-13.92-.061-37.026-.014-37.025 0 1.394 19.413 23.936 35.421 36.77 35.421 13 0 34.102-15.643 35.273-35.421z"
      ></path>
      <path
        fill="#4B4B4B"
        d="M85.702 164.271l-35.018 6.281 1.253 51.315h30.88c.23-15.424 7.16-51.089 2.885-57.596zM13.675 164.271l36.661 6.281v51.315H17.663c-.23-15.424-8.133-40.182-3.988-57.596z"
      ></path>
      <path
        fill="#fff"
        d="M41.473 290.879h-15.83c-.842 0-1.524 1-1.524 2.234v19.585c0 1.235.682 2.235 1.523 2.235h15.831c.841 0 1.524-1 1.524-2.235v-19.585c0-1.234-.683-2.234-1.524-2.234z"
      ></path>
      <path
        fill="#4B4B4B"
        d="M34.223 297.776h-5.555c-1.32 0-2.39 1.417-2.39 3.163v2.839c0 1.748 1.07 3.164 2.39 3.164h5.555c1.321 0 2.39-1.416 2.39-3.164v-2.839c0-1.746-1.069-3.163-2.39-3.163z"
      ></path>
      <path
        fill="#4F4F4F"
        d="M36.142 302.65h-8.388c-4.836 0-8.758 5.068-8.758 11.321 0 6.252 3.922 11.319 8.758 11.319h8.387c4.837 0 8.757-5.067 8.757-11.319 0-6.253-3.92-11.321-8.757-11.321z"
      ></path>
      <path
        fill="#4F4F4F"
        d="M42.786 312.934h-22.05c-1.757 0-3.181 1.679-3.181 3.748v4.902c0 2.072 1.424 3.751 3.18 3.751h22.051c1.758 0 3.182-1.679 3.182-3.751v-4.902c0-2.069-1.424-3.748-3.182-3.748z"
      ></path>
      <path
        fill="#fff"
        d="M44.772 320.591h-26.02c-.662 0-1.197.631-1.197 1.41v1.844c0 .778.535 1.411 1.197 1.411h26.02c.66 0 1.196-.633 1.196-1.411v-1.844c0-.779-.536-1.41-1.196-1.41zM34.807 303.219h-6.495c-.339 0-.613.363-.613.811 0 .448.274.811.613.811h6.495c.338 0 .613-.363.613-.811 0-.448-.275-.811-.613-.811z"
      ></path>
      <path
        fill="#585858"
        d="M37.014 308.44h-3.12c-1.1 0-1.994 1.181-1.994 2.639 0 1.456.894 2.638 1.994 2.638h3.12c1.101 0 1.992-1.182 1.992-2.638 0-1.458-.89-2.639-1.992-2.639z"
      ></path>
      <path
        fill="#fff"
        d="M34.807 305.814h-6.495c-.339 0-.613.364-.613.811 0 .447.274.81.613.81h6.495c.338 0 .613-.363.613-.81 0-.447-.275-.811-.613-.811zM75.99 290.878H59.412c-.88 0-1.596 1.001-1.596 2.236v19.583c0 1.235.716 2.236 1.596 2.236H75.99c.88 0 1.595-1.001 1.595-2.236v-19.583c0-1.235-.715-2.236-1.595-2.236z"
      ></path>
      <path
        fill="#4B4B4B"
        d="M71.289 297.808h-5.557c-1.32 0-2.39 1.417-2.39 3.163v2.839c0 1.747 1.07 3.163 2.39 3.163h5.557c1.32 0 2.39-1.416 2.39-3.163v-2.839c0-1.746-1.07-3.163-2.39-3.163z"
      ></path>
      <path
        fill="#4F4F4F"
        d="M72.746 302.65h-8.19c-4.724 0-8.554 5.068-8.554 11.321 0 6.252 3.83 11.319 8.554 11.319h8.19c4.724 0 8.899-4.978 8.899-11.23 0-6.253-4.175-11.41-8.899-11.41z"
      ></path>
      <path
        fill="#4F4F4F"
        d="M79.873 312.934H57.797c-1.757 0-3.184 1.679-3.184 3.748v4.902c0 2.072 1.427 3.751 3.184 3.751h22.076c1.758 0 3.183-1.679 3.183-3.751v-4.902c0-2.069-1.425-3.748-3.183-3.748z"
      ></path>
      <path
        fill="#fff"
        d="M81.859 320.591H55.812c-.661 0-1.199.631-1.199 1.41v1.844c0 .778.538 1.411 1.199 1.411h26.047c.661 0 1.197-.633 1.197-1.411v-1.844c0-.779-.536-1.41-1.197-1.41zM71.814 303.219h-6.496c-.339 0-.613.363-.613.811 0 .448.274.811.613.811h6.496c.338 0 .613-.363.613-.811 0-.448-.275-.811-.613-.811z"
      ></path>
      <path
        fill="#585858"
        d="M74.02 308.472H70.9c-1.102 0-1.994 1.181-1.994 2.638 0 1.457.892 2.638 1.993 2.638h3.12c1.101 0 1.993-1.181 1.993-2.638 0-1.457-.892-2.638-1.993-2.638z"
      ></path>
      <path
        fill="#fff"
        d="M71.814 305.845h-6.496c-.339 0-.613.364-.613.81 0 .449.274.812.613.812h6.496c.338 0 .613-.363.613-.812 0-.446-.275-.81-.613-.81z"
      ></path>
      <path
        fill="#FAE4D0"
        d="M66.479 61.428c0-10.915-7.39-19.764-16.507-19.764-9.119 0-16.51 8.849-16.51 19.764v8.11c0 10.915 7.391 19.764 16.51 19.764 9.117 0 16.507-8.85 16.507-19.765v-8.109z"
      ></path>
      <path
        fill="#F4D1B0"
        d="M43.902 84.514l-9.01-4.33a2.015 2.015 0 10-1.746 3.63l9.012 4.332a2.014 2.014 0 101.744-3.632zM54.854 84.514l9.012-4.33a2.016 2.016 0 012.69.942 2.016 2.016 0 01-.945 2.688l-9.01 4.332a2.015 2.015 0 01-1.747-3.632zM52.792 42.993H46.39c-7.35 0-13.308 5.958-13.308 13.307v5.46c0 7.349 5.958 13.306 13.308 13.306h6.402c7.35 0 13.307-5.957 13.307-13.306V56.3c0-7.35-5.958-13.307-13.307-13.307z"
      ></path>
      <path
        fill="#FAE4D0"
        d="M72.612 31.411H26.86c-5.23 0-9.471 4.405-9.471 9.838 0 5.435 4.24 9.84 9.471 9.84h45.752c5.23 0 9.472-4.405 9.472-9.84 0-5.433-4.242-9.838-9.472-9.838z"
      ></path>
      <path
        fill="#F4D1B0"
        d="M72.893 32.898H26.841c-3.985 0-7.214 3.285-7.214 7.337 0 4.053 3.23 7.338 7.214 7.338h46.052c3.984 0 7.214-3.285 7.214-7.338 0-4.052-3.23-7.337-7.214-7.337z"
      ></path>
      <path
        fill="#FAE4D0"
        d="M56.752 2.806H42.981c-11.409 0-20.659 9.248-20.659 20.658v24.483c0 11.411 9.25 20.66 20.659 20.66h13.771c11.41 0 20.66-9.249 20.66-20.66V23.464c0-11.41-9.25-20.658-20.66-20.658z"
      ></path>
      <path
        fill="#FAE4D0"
        d="M56.317 65.807H43.449a2.52 2.52 0 000 5.04h12.868a2.52 2.52 0 000-5.04z"
      ></path>
      <path
        fill="#F4D1B0"
        d="M51.96 62.99h-3.72a.539.539 0 00-.539.54v.317c0 .297.24.539.538.539h3.721a.54.54 0 00.538-.54v-.317a.54.54 0 00-.538-.539zM53.891 39.19a4.045 4.045 0 10-8.09 0v7.138a4.046 4.046 0 008.09 0V39.19z"
      ></path>
      <path
        fill="#F4D1B0"
        d="M49.402 47.269l-3.761-3.198a1.478 1.478 0 00-1.913 2.251l3.761 3.197a1.478 1.478 0 001.913-2.25zM50.435 47.269l3.762-3.198a1.477 1.477 0 111.913 2.251l-3.763 3.197a1.478 1.478 0 01-1.912-2.25zM47.31 31.786a1.134 1.134 0 10-2.267 0v1.372a1.135 1.135 0 002.267 0v-1.372zM54.84 31.786a1.133 1.133 0 10-2.268 0v1.372a1.134 1.134 0 002.268 0v-1.372z"
      ></path>
      <path
        fill="#61534B"
        d="M40.044 34.133a2.531 2.531 0 00-5.063 0v1.013a2.531 2.531 0 005.063 0v-1.014zM64.663 34.133a2.53 2.53 0 10-5.063 0v1.012a2.531 2.531 0 105.063 0v-1.013z"
      ></path>
      <path
        fill="#fff"
        d="M54.637 60.135c3.726 0 6.725-3.204 6.725-7.184v-1.163h-22.65v1.163c0 3.98 3.002 7.184 6.727 7.184h9.198z"
      ></path>
      <path
        fill="#61534B"
        fillRule="evenodd"
        d="M67.395 28.273c-.088-.24-.393-.38-.68-.314l-7.29 1.683c-.288.067-.45.316-.362.555l.32.87c.087.24.392.38.68.315l7.29-1.683c.288-.067.45-.315.362-.556l-.32-.87zM41.135 30.225c.087-.24-.073-.49-.361-.555l-7.291-1.684c-.288-.066-.593.075-.68.315l-.32.87c-.088.24.074.488.361.555l7.291 1.683c.287.066.592-.074.68-.315l.32-.87z"
        clipRule="evenodd"
      ></path>
      <path
        fill="#757575"
        d="M38.486 2.806c-9.797 0-17.683 8.344-17.683 18.713 0 .485.022.965.057 1.444a5.314 5.314 0 00-.057.746V35.17c0 2.461 1.642 4.5 3.836 4.961v-14.96c0-10.708 8.147-19.33 18.267-19.33h14.291c10.12 0 18.268 8.622 18.268 19.33V40.15c2.254-.407 3.964-2.472 3.964-4.98V23.71c0-.254-.025-.503-.058-.746.034-.479.058-.96.058-1.444 0-10.37-7.888-18.713-17.684-18.713h-23.26z"
      ></path>
      <path
        fill="#757575"
        d="M58.567.535H42.635c-5.366 0-9.717 4.604-9.717 10.285 0 5.679 4.35 10.282 9.717 10.282h15.932c5.366 0 9.717-4.603 9.717-10.282 0-5.681-4.35-10.285-9.717-10.285z"
      ></path>
      <path
        fill="#757575"
        d="M38.414 7.024c0-1.606-1.23-2.908-2.748-2.908-1.517 0-2.748 1.302-2.748 2.908v6.744c0 1.604 1.23 2.907 2.748 2.907 1.518 0 2.748-1.303 2.748-2.907V7.024zM69.603 7.407c0-1.606-1.23-2.907-2.748-2.907-1.518 0-2.748 1.3-2.748 2.907v6.743c0 1.607 1.23 2.908 2.748 2.908 1.518 0 2.748-1.3 2.748-2.908V7.407zM31.78 10.32c-.143-1.06-1.072-1.796-2.073-1.644-1.002.152-1.697 1.135-1.553 2.195l.465 3.42c.142 1.06 1.071 1.797 2.073 1.643 1.002-.151 1.696-1.134 1.553-2.193l-.464-3.421zM70.492 11.245c.142-1.06 1.071-1.795 2.073-1.643 1.002.152 1.696 1.135 1.553 2.195l-.464 3.42c-.144 1.06-1.073 1.796-2.074 1.644-1.001-.153-1.697-1.134-1.553-2.195l.465-3.421z"
      ></path>
      <path
        fill="#565656"
        d="M48.667 5.618h1.715c1.011 0 1.831.869 1.831 1.938v7.082c0 1.07-.82 1.938-1.831 1.938h-1.715c-1.013 0-1.833-.869-1.833-1.938V7.556c0-1.07.82-1.938 1.833-1.938zM41.31 5.81h2.265c.792 0 1.433.68 1.433 1.518v7.5c0 .84-.64 1.52-1.433 1.52H41.31c-.792 0-1.433-.68-1.433-1.52v-7.5c0-.838.641-1.517 1.433-1.517zM57.928 5.844h-2.265c-.791 0-1.434.68-1.434 1.517v7.501c0 .839.643 1.517 1.434 1.517h2.265c.79 0 1.433-.678 1.433-1.517V7.361c0-.838-.642-1.517-1.433-1.517z"
      ></path>
      <path
        fill="#757575"
        d="M78.217 28.1a1.728 1.728 0 00-.651.07l-.239.075c-.772.24-1.256.974-1.238 1.767a1.838 1.838 0 00-.26-.298v2.455c3.345 1.43 5.688 4.828 5.688 8.81 0 4.003-2.368 7.413-5.742 8.83a20.617 20.617 0 01-.711 4.146v1.372a2.287 2.287 0 00-.3-.389c-1.683 5.05-5.258 8.858-9.862 11.16v3.394c0 1.237.967 2.234 2.166 2.234h1c1.2 0 2.165-.997 2.165-2.234v-.603c.326.81 1.096 1.375 2 1.375h.998c1.202 0 2.167-.996 2.167-2.236v-.707a2.14 2.14 0 001.832 1.052c1.199 0 2.165-.996 2.165-2.234V53.583l.446 1.53c.278.957 1.25 1.498 2.178 1.21.93-.289 1.451-1.29 1.173-2.25l-2.376-8.163c.438.508 1.133.74 1.807.531l.24-.075c.928-.287 1.451-1.29 1.17-2.247L79.745 29.38a1.756 1.756 0 00-1.527-1.281zm-56.305.121a1.757 1.757 0 00-1.528 1.281l-4.29 14.738c-.278.958.244 1.96 1.173 2.248l.24.075a1.709 1.709 0 001.805-.532l-2.375 8.163c-.279.96.243 1.962 1.171 2.25.93.288 1.901-.252 2.18-1.209l.09-.309v11.213c0 1.238.965 2.234 2.164 2.234a2.14 2.14 0 001.833-1.052v.707c0 1.24.965 2.236 2.166 2.236h1c.902 0 1.672-.563 1.997-1.371v.599c0 1.237.967 2.234 2.167 2.234h1c1.199 0 2.165-.997 2.165-2.234v-3.394c-4.562-2.335-8.092-6.231-9.74-11.276a2.224 2.224 0 00-.422.505v-1.982a20.763 20.763 0 01-.55-3.535c-4.357-2.85-5.914-5.08-5.742-8.832.183-3.978 2.343-7.378 5.687-8.81v-2.114c-.02.026-.044.052-.063.08.017-.792-.467-1.528-1.24-1.768l-.238-.074a1.692 1.692 0 00-.65-.07zM69.6 7.408c0-1.607-1.229-2.909-2.747-2.909-1.518 0-2.747 1.302-2.747 2.909v6.741c0 1.607 1.229 2.909 2.747 2.909 1.518 0 2.748-1.302 2.748-2.909V7.408zM31.779 10.318c-.144-1.058-1.073-1.794-2.074-1.643-1.002.153-1.697 1.136-1.553 2.196l.465 3.42c.142 1.06 1.071 1.796 2.073 1.643 1.002-.152 1.696-1.134 1.552-2.195l-.463-3.42zM70.492 11.245c.142-1.06 1.071-1.795 2.073-1.643 1.002.152 1.696 1.135 1.553 2.195l-.464 3.42c-.144 1.06-1.073 1.796-2.074 1.644-1.001-.153-1.697-1.134-1.553-2.195l.465-3.421z"
      ></path>
      <path
        fill="#565656"
        d="M48.667 5.618h1.715c1.011 0 1.831.869 1.831 1.938v7.082c0 1.07-.82 1.938-1.831 1.938h-1.715c-1.013 0-1.833-.869-1.833-1.938V7.556c0-1.07.82-1.938 1.833-1.938zM41.31 5.81h2.263c.792 0 1.433.68 1.433 1.518v7.5c0 .84-.64 1.52-1.433 1.52h-2.264c-.793 0-1.434-.68-1.434-1.52v-7.5c0-.838.641-1.517 1.434-1.517zM57.925 5.843h-2.264c-.791 0-1.434.68-1.434 1.517v7.502c0 .839.643 1.517 1.434 1.517h2.264c.792 0 1.434-.678 1.434-1.517V7.36c0-.838-.642-1.517-1.434-1.517z"
      ></path>
      <path
        fill="#757575"
        d="M38.484 2.806c-9.797 0-17.683 8.344-17.683 18.713 0 .485.022.965.057 1.444a5.314 5.314 0 00-.057.746V35.17c0 2.461 1.643 4.5 3.836 4.961v-14.96c0-10.708 8.148-19.33 18.267-19.33h14.291c10.12 0 18.268 8.622 18.268 19.33V40.15c2.255-.407 3.964-2.472 3.964-4.98V23.71c0-.254-.025-.503-.058-.746.034-.479.058-.96.058-1.444 0-10.37-7.888-18.713-17.684-18.713h-23.26z"
      ></path>
      <path
        fill="#757575"
        d="M58.567.535H42.635c-5.366 0-9.717 4.604-9.717 10.285 0 5.679 4.35 10.282 9.717 10.282h15.932c5.366 0 9.717-4.603 9.717-10.282 0-5.681-4.35-10.285-9.717-10.285z"
      ></path>
      <path
        fill="#757575"
        d="M38.414 7.024c0-1.606-1.23-2.908-2.748-2.908-1.517 0-2.748 1.302-2.748 2.908v6.744c0 1.604 1.23 2.907 2.748 2.907 1.518 0 2.748-1.303 2.748-2.907V7.024z"
      ></path>
      <path
        fill="#8C8C8C"
        d="M41.31 5.81h2.263c.792 0 1.433.68 1.433 1.518v7.5c0 .84-.64 1.52-1.433 1.52h-2.264c-.793 0-1.434-.68-1.434-1.52v-7.5c0-.838.641-1.517 1.434-1.517zM57.925 5.843h-2.264c-.791 0-1.434.68-1.434 1.517v7.502c0 .839.643 1.517 1.434 1.517h2.264c.792 0 1.434-.678 1.434-1.517V7.36c0-.838-.642-1.517-1.434-1.517zM48.667 5.618h1.715c1.011 0 1.831.869 1.831 1.938v7.082c0 1.07-.82 1.938-1.831 1.938h-1.715c-1.013 0-1.833-.869-1.833-1.938V7.556c0-1.07.82-1.938 1.833-1.938z"
      ></path>
    </svg>