    <svg
      xmlns="http://www.w3.org/2000/svg"
      width="99"
      height="326"
      fill="none"
      viewBox="0 0 99 326"
    >
      <path
        fill="#F6D2AF"
        d="M82.124 103.149c.1-1.29 7.662-20.204 9.099-16.634l5.86 5.417c.539 1.338-.165 9.257.05 10.818 0 0 .7 14.074.158 17.976l-.269 7.128a22.13 22.13 0 00-.213 3.036v2.417c0 1.159-.061 12.917-.025 12.846 0 0-12.403.103-12.541-.19l-.89-20.874c-.797-3.643-1.529-20.596-1.529-20.596l.3-1.344z"
      ></path>
      <path
        fill="#F6D2AF"
        d="M89.834 117.24l.058.004c3.66.207 6.696 5.681 6.778 12.226l.62 49.14c.083 6.544-2.818 11.681-6.48 11.473l-.057-.003c-3.66-.208-6.695-5.681-6.778-12.225l-.62-49.14c-.083-6.545 2.818-11.681 6.48-11.475z"
      ></path>
      <path
        fill="#F6D2AF"
        d="M89.198 169.605l1.938.222c3.712.427 6.776 6.937 6.842 14.54l.06 6.755c.066 7.604-2.89 13.422-6.602 12.995l-1.937-.223c-3.631-.417-6.641-6.654-6.834-14.043a24.105 24.105 0 01-.008-.497l-.06-6.754c-.067-7.604 2.889-13.422 6.601-12.995z"
      ></path>
      <path
        fill="#F6D2AF"
        d="M87.93 188.581c.942-4.664 4.02-6.69 6.874-4.524 2.855 2.166 4.406 7.704 3.464 12.37l-2.572 12.741c-.94 4.665-4.019 6.69-6.873 4.524-2.854-2.167-4.405-7.705-3.464-12.369l2.572-12.742z"
      ></path>
      <path
        fill="#F2BF92"
        d="M81.862 185.372c-.023-3.36 1.25-5.938 2.843-5.76 1.59.179 2.899 3.047 2.92 6.407l.058 9.177c.022 3.36-1.25 5.939-2.842 5.76-1.591-.179-2.899-3.048-2.92-6.408l-.06-9.176z"
      ></path>
      <path
        fill="#F6D2AF"
        d="M18.304 100.716c-.1-1.29-10.775-13.415-12.212-9.845l-2.936-.588c-.539 1.337-.507 10.656-.722 12.217 0 0-.699 14.074-.158 17.977l.269 7.127a22.12 22.12 0 01.214 3.036v2.417c0 1.159.06 12.917.024 12.846 0 0 12.403.103 12.541-.19l.89-20.874c.797-3.643 2.108-20.164 2.108-20.164l-.018-3.959z"
      ></path>
      <path
        fill="#F6D2AF"
        d="M9.734 116.99l-.057.004c-3.661.207-6.697 5.681-6.779 12.226l-.62 49.14c-.082 6.544 2.819 11.681 6.48 11.473l.057-.003c3.661-.208 6.696-5.681 6.779-12.225l.62-49.14c.082-6.545-2.819-11.681-6.48-11.475z"
      ></path>
      <path
        fill="#F6D2AF"
        d="M9.661 169.355l-1.937.222c-3.713.427-6.776 6.937-6.843 14.54l-.06 6.755c-.067 7.604 2.89 13.422 6.602 12.995l1.937-.223c3.712-.426 6.776-6.936 6.843-14.54l.06-6.754c.066-7.604-2.89-13.422-6.602-12.995z"
      ></path>
      <path
        fill="#F6D2AF"
        d="M12.02 188.331c-.94-4.664-4.018-6.69-6.873-4.524-2.855 2.166-4.405 7.704-3.464 12.37l2.572 12.741c.941 4.665 4.02 6.69 6.873 4.524 2.855-2.167 4.406-7.705 3.463-12.369l-2.57-12.742z"
      ></path>
      <path
        fill="#F2BF92"
        d="M18.091 185.122c.022-3.36-1.25-5.938-2.842-5.76-1.592.179-2.9 3.047-2.921 6.407l-.058 9.177c-.022 3.36 1.25 5.939 2.842 5.76 1.591-.179 2.9-3.048 2.92-6.408l.06-9.176z"
      ></path>
      <path
        fill="#F6D2AF"
        d="M43.314 253.487s-15.736.243-15.87.262l-.286 23.467v19.264l-.592 20.198c0 4.314 3.311 7.811 7.396 7.811h1.725c4.085 0 7.396-3.497 7.396-7.811l.352-29.282c0-2.007-.121-31.687-.121-33.909z"
      ></path>
      <path
        fill="#F6D2AF"
        d="M48.454 186.622c.16-.234-24.879-.554-24.913-.243 0 0-1.695 16.641-.706 34.158.94 16.644 4.56 34.21 4.768 34.216 2.607.08 10.73-.06 15.692.042.028.001 1.476-7.176 2.972-16.354 2.17-13.311 2.278-16.448 2.24-17.904-.4-15.209.01-34.032-.053-33.915zM38.089 308.062h-6.946c-4.005 0-7.25 3.702-7.25 8.267 0 4.565 3.245 8.266 7.25 8.266h6.946c4.004 0 7.25-3.701 7.25-8.266 0-4.565-3.246-8.267-7.25-8.267z"
      ></path>
      <path
        fill="#F6D2AF"
        d="M42.938 315.53H26.294c-1.326 0-2.401 1.226-2.401 2.738v3.581c0 1.511 1.075 2.736 2.4 2.736h16.645c1.327 0 2.402-1.225 2.402-2.736v-3.581c0-1.512-1.075-2.738-2.402-2.738zM57.138 253.487s15.735.243 15.87.262l.285 23.467v19.264l.592 20.198c0 4.314-3.311 7.811-7.396 7.811h-1.725c-4.084 0-7.395-3.497-7.395-7.811l-.353-29.282c0-2.007.122-31.687.122-33.909z"
      ></path>
      <path
        fill="#F6D2AF"
        d="M51.997 186.622c-.236-.05 24.878-.554 24.913-.243 0 0 1.317 16.846.362 33.813-.968 17.215-4.209 34.555-4.425 34.561-2.606.08-10.72.029-15.7-.006-.001 0-1.092-8.093-2.188-16.517-1.005-7.73-2.014-15.741-2.188-18.038-1.273-16.866-.774-33.57-.774-33.57zM62.362 308.062h6.946c4.005 0 7.25 3.702 7.25 8.267 0 4.565-3.245 8.266-7.25 8.266h-6.946c-4.004 0-7.25-3.701-7.25-8.266 0-4.565 3.246-8.267 7.25-8.267z"
      ></path>
      <path
        fill="#F6D2AF"
        d="M57.513 315.53h16.644c1.326 0 2.402 1.226 2.402 2.738v3.581c0 1.511-1.076 2.736-2.402 2.736H57.513c-1.327 0-2.401-1.225-2.401-2.736v-3.581c0-1.512 1.074-2.738 2.4-2.738z"
      ></path>
      <path
        fill="#F2BF92"
        d="M76.16 122.501c0-21.342-13.426-29.576-27.049-29.576-13.624 0-26.06 8.234-26.06 29.576l-6.983 48.455c0 21.344 19.42 27.179 33.043 27.179 13.623 0 34.407-5.836 34.407-27.179l-7.357-48.455z"
      ></path>
      <path
        fill="#F6D2AF"
        d="M74.656 122.501c0-21.342-12.66-29.576-25.505-29.576-12.846 0-24.573 8.234-24.573 29.576l-6.584 48.455c0 21.344 18.31 27.179 31.157 27.179 12.845 0 32.442-5.836 32.442-27.179l-6.937-48.455z"
      ></path>
      <path
        fill="#F6D2AF"
        d="M83.92 74.413H15.85c-7.368 0-13.342 7.635-13.342 17.053 0 9.417 5.974 10.594 13.342 10.594l68.07 1.084c7.369 0 13.342-2.261 13.342-11.678 0-9.418-5.973-17.053-13.341-17.053z"
      ></path>
      <path
        fill="#F2BF92"
        d="M67.053 74.413H33.028c-8.779 0-15.895 8.581-15.895 19.169v11.552c0 10.585 7.116 15.336 15.895 15.336h34.025c1.886 0 3.695-.219 5.374-.668 6.134-1.643 10.521-6.358 10.521-14.668V93.582c0-10.588-7.116-19.169-15.895-19.169zM66.814 149.135c-16.092-5.336-32.628 0-32.628 0 0-1.207 7.733-5.336 16.536-5.336s16.092 4.129 16.092 5.336z"
      ></path>
      <path
        fill="#F2BF92"
        fillRule="evenodd"
        d="M51.815 158.85a1.38 1.38 0 00-2.758 0v2.567a1.38 1.38 0 002.758 0v-2.567z"
        clipRule="evenodd"
      ></path>
      <path
        fill="#F6D2AF"
        d="M70.022 74.413H30.059c-7.139 0-12.926 8.17-12.926 18.252v10.999c0 10.08 5.787 14.766 12.926 14.766h39.963c7.139 0 12.926-4.686 12.926-14.766v-11c0-10.08-5.787-18.25-12.926-18.25z"
      ></path>
      <path
        fill="#F2BF92"
        d="M53.061 110.042c0-1.245-1.362-2.253-3.044-2.253-1.681 0-3.044 1.008-3.044 2.253v4.37c0 1.243 1.363 2.253 3.044 2.253 1.682 0 3.044-1.01 3.044-2.253v-4.37zM30.676 111.901h-2.585c-1.03 0-1.866.965-1.866 2.155 0 1.188.836 2.153 1.866 2.153h2.585c1.03 0 1.866-.965 1.866-2.153 0-1.19-.835-2.155-1.866-2.155zM72.763 111.901H70.18c-1.031 0-1.867.965-1.867 2.155 0 1.188.836 2.153 1.867 2.153h2.584c1.031 0 1.867-.965 1.867-2.153 0-1.19-.835-2.155-1.867-2.155z"
      ></path>
      <path
        fill="#4F4F4F"
        d="M82.358 164.274s-19.464.185-31.713.123c-12.326-.061-33.119-.245-33.647 0 1.234 19.413 22.057 35.298 33.42 35.298 11.513 0 30.903-15.643 31.94-35.421z"
      ></path>
      <path
        fill="#4B4B4B"
        d="M82.359 164.397l-31.712 6.158 1.11 51.316H79.1c.204-15.424 7.043-50.966 3.258-57.474zM16.999 164.273l33.34 6.282v51.315H21.405c-.203-15.424-8.077-40.182-4.407-57.597z"
      ></path>
      <path
        fill="#F6D2AF"
        d="M66.451 61.849c0-10.916-7.389-19.764-16.506-19.764-9.119 0-16.51 8.848-16.51 19.764v8.11c0 10.915 7.391 19.764 16.51 19.764 9.117 0 16.506-8.85 16.506-19.765V61.85z"
      ></path>
      <path
        fill="#F2BF92"
        d="M43.875 84.935l-9.01-4.33a2.015 2.015 0 10-1.746 3.63l9.011 4.332a2.014 2.014 0 101.745-3.632zM54.827 84.935l9.011-4.33a2.016 2.016 0 012.69.941 2.016 2.016 0 01-.944 2.689l-9.01 4.332a2.015 2.015 0 01-1.747-3.632zM52.765 43.414h-6.403c-7.35 0-13.307 5.958-13.307 13.307v5.46c0 7.349 5.957 13.306 13.307 13.306h6.403c7.35 0 13.307-5.957 13.307-13.306v-5.46c0-7.35-5.958-13.307-13.307-13.307z"
      ></path>
      <path
        fill="#F6D2AF"
        d="M72.584 31.832H26.833c-5.23 0-9.472 4.405-9.472 9.838 0 5.435 4.241 9.84 9.472 9.84h45.751c5.23 0 9.473-4.405 9.473-9.84 0-5.433-4.242-9.838-9.473-9.838z"
      ></path>
      <path
        fill="#F2BF92"
        d="M72.866 33.32H26.814c-3.985 0-7.214 3.284-7.214 7.336 0 4.053 3.229 7.338 7.214 7.338h46.052c3.984 0 7.214-3.285 7.214-7.338 0-4.052-3.23-7.337-7.214-7.337z"
      ></path>
      <path
        fill="#F6D2AF"
        d="M56.727 3.227H42.956c-11.41 0-20.66 9.248-20.66 20.658v24.483c0 11.41 9.25 20.66 20.66 20.66h13.771c11.409 0 20.659-9.25 20.659-20.66V23.885c0-11.41-9.25-20.658-20.659-20.658z"
      ></path>
      <path
        fill="#F6D2AF"
        d="M56.29 66.228H43.42a2.52 2.52 0 000 5.04H56.29a2.52 2.52 0 000-5.04z"
      ></path>
      <path
        fill="#F2BF92"
        d="M51.933 63.411h-3.721a.539.539 0 00-.538.54v.316c0 .298.24.54.538.54h3.72a.54.54 0 00.539-.54v-.317a.54.54 0 00-.538-.539zM53.866 39.611a4.045 4.045 0 10-8.09 0v7.138a4.046 4.046 0 008.09 0v-7.138z"
      ></path>
      <path
        fill="#F2BF92"
        d="M49.377 47.69l-3.762-3.198a1.478 1.478 0 00-1.913 2.251l3.762 3.197a1.478 1.478 0 001.913-2.25zM50.41 47.69l3.761-3.198a1.477 1.477 0 111.913 2.251l-3.762 3.197a1.478 1.478 0 01-1.912-2.25zM47.285 32.206a1.134 1.134 0 10-2.267 0v1.373a1.135 1.135 0 002.267 0v-1.373zM54.814 32.206a1.133 1.133 0 10-2.267 0v1.373a1.134 1.134 0 002.267 0v-1.373z"
      ></path>
      <path
        fill="#61534B"
        d="M40.018 34.553a2.531 2.531 0 00-5.063 0v1.014a2.531 2.531 0 005.063 0v-1.014zM64.637 34.553a2.53 2.53 0 10-5.063 0v1.013a2.531 2.531 0 105.063 0v-1.013z"
      ></path>
      <path
        fill="#fff"
        d="M54.61 60.588c3.727 0 6.726-3.204 6.726-7.184V52.24H38.688v1.163c0 3.98 3 7.184 6.725 7.184h9.197z"
      ></path>
      <path
        fill="#61534B"
        fillRule="evenodd"
        d="M67.6 29.623c0-.301-.245-.545-.546-.545H59.42c-.301 0-.545.244-.545.545v1.09c0 .302.244.546.545.546h7.634c.3 0 .546-.244.546-.546v-1.09zM41.4 29.592c0-.301-.245-.545-.546-.545H33.22c-.301 0-.546.244-.546.545v1.091c0 .3.245.545.546.545h7.634c.3 0 .546-.244.546-.545v-1.091z"
        clipRule="evenodd"
      ></path>
      <path
        fill="#4D4D4D"
        d="M38.458 3.227c-9.796 0-17.683 8.344-17.683 18.712 0 .486.023.966.057 1.445a5.314 5.314 0 00-.057.746v11.462c0 2.461 1.643 4.499 3.837 4.96v-14.96c0-10.707 8.147-19.329 18.267-19.329H57.17c10.119 0 18.267 8.622 18.267 19.33v14.979c2.255-.407 3.965-2.472 3.965-4.98V24.13c0-.255-.025-.503-.058-.746.034-.479.058-.96.058-1.445 0-10.368-7.888-18.712-17.685-18.712H38.458z"
      ></path>
      <path
        fill="#4D4D4D"
        d="M58.54.956H42.608c-5.367 0-9.717 4.604-9.717 10.285 0 5.679 4.35 10.282 9.717 10.282H58.54c5.366 0 9.717-4.603 9.717-10.282C68.257 5.56 63.906.956 58.54.956z"
      ></path>
      <path
        fill="#4D4D4D"
        d="M38.387 7.444c0-1.605-1.23-2.907-2.749-2.907-1.517 0-2.747 1.302-2.747 2.907v6.745c0 1.604 1.23 2.907 2.747 2.907 1.519 0 2.749-1.303 2.749-2.907V7.444zM69.575 7.828c0-1.606-1.229-2.908-2.747-2.908-1.519 0-2.748 1.302-2.748 2.908v6.742c0 1.607 1.23 2.909 2.748 2.909 1.518 0 2.747-1.302 2.747-2.909V7.828zM31.751 10.74c-.144-1.06-1.072-1.795-2.073-1.644-1.002.152-1.698 1.136-1.554 2.196l.465 3.42c.143 1.06 1.072 1.796 2.074 1.643 1.001-.152 1.696-1.134 1.552-2.195l-.464-3.42zM70.464 11.666c.143-1.06 1.072-1.795 2.074-1.643 1.001.152 1.696 1.135 1.552 2.195l-.464 3.42c-.144 1.06-1.072 1.796-2.073 1.644-1.002-.153-1.698-1.134-1.554-2.195l.465-3.421z"
      ></path>
      <path
        fill="#565656"
        d="M48.641 6.04h1.715c1.012 0 1.832.868 1.832 1.937v7.082c0 1.07-.82 1.938-1.832 1.938h-1.715c-1.012 0-1.832-.869-1.832-1.938V7.977c0-1.07.82-1.938 1.832-1.938zM41.284 6.231h2.264c.792 0 1.433.68 1.433 1.518v7.5c0 .84-.641 1.52-1.434 1.52h-2.263c-.793 0-1.434-.68-1.434-1.52v-7.5c0-.838.64-1.518 1.434-1.518zM57.9 6.264h-2.264c-.792 0-1.435.68-1.435 1.517v7.502c0 .839.643 1.517 1.435 1.517H57.9c.791 0 1.434-.678 1.434-1.517V7.781c0-.838-.643-1.517-1.434-1.517z"
      ></path>
      <path
        fill="#4D4D4D"
        d="M38.458 3.227c-9.796 0-17.683 8.344-17.683 18.712 0 .486.023.966.057 1.445a5.314 5.314 0 00-.057.746v11.462c0 2.461 1.643 4.499 3.837 4.96v-14.96c0-10.707 8.147-19.329 18.267-19.329H57.17c10.119 0 18.267 8.622 18.267 19.33v14.979c2.255-.407 3.965-2.472 3.965-4.98V24.13c0-.255-.025-.503-.058-.746.034-.479.058-.96.058-1.445 0-10.368-7.888-18.712-17.685-18.712H38.458z"
      ></path>
      <path
        fill="#4D4D4D"
        fillRule="evenodd"
        d="M31.641 5.828c-1.791 1.124-2.733 2.397-2.733 3.693 0 4.079 9.14 7.39 20.4 7.39 11.26 0 20.401-3.311 20.401-7.39 0-1.296-.942-2.57-2.734-3.693H31.641z"
        clipRule="evenodd"
      ></path>
      <path
        fill="#4F4F4F"
        d="M82.358 164.274s-19.464.185-31.713.123c-12.326-.061-33.119-.245-33.647 0 1.234 19.413 22.057 35.298 33.42 35.298 11.513 0 30.903-15.643 31.94-35.421z"
      ></path>
      <path
        fill="#4B4B4B"
        d="M82.359 164.397l-31.712 6.158 1.11 51.316H79.1c.204-15.424 7.043-50.966 3.258-57.474zM16.999 164.273l33.34 6.282v51.315H21.405c-.203-15.424-8.077-40.182-4.407-57.597z"
      ></path>
      <path
        fill="#fff"
        d="M42.392 290.882H28.137c-.757 0-1.371 1-1.371 2.234v19.585c0 1.235.614 2.235 1.371 2.235h14.255c.758 0 1.373-1 1.373-2.235v-19.585c0-1.234-.615-2.234-1.373-2.234z"
      ></path>
      <path
        fill="#4B4B4B"
        d="M36.927 297.779H32.28c-1.104 0-1.999 1.417-1.999 3.163v2.839c0 1.748.895 3.164 2 3.164h4.646c1.105 0 2-1.416 2-3.164v-2.839c0-1.746-.895-3.163-2-3.163z"
      ></path>
      <path
        fill="#4F4F4F"
        d="M38.415 302.653h-7.127c-4.11 0-7.442 5.068-7.442 11.321 0 6.252 3.332 11.319 7.442 11.319h7.127c4.11 0 7.44-5.067 7.44-11.319 0-6.253-3.33-11.321-7.44-11.321z"
      ></path>
      <path
        fill="#4F4F4F"
        d="M44.085 312.937h-18.62c-1.483 0-2.686 1.678-2.686 3.748v4.902c0 2.072 1.203 3.75 2.686 3.75h18.62c1.484 0 2.687-1.678 2.687-3.75v-4.902c0-2.07-1.203-3.748-2.687-3.748z"
      ></path>
      <path
        fill="#fff"
        d="M45.761 320.594h-21.97c-.56 0-1.012.631-1.012 1.41v1.844c0 .778.453 1.411 1.012 1.411h21.97c.558 0 1.01-.633 1.01-1.411v-1.844c0-.779-.452-1.41-1.01-1.41zM37.416 303.222h-5.433c-.283 0-.512.363-.512.811 0 .448.229.811.512.811h5.433c.282 0 .512-.363.512-.811 0-.448-.23-.811-.512-.811z"
      ></path>
      <path
        fill="#585858"
        d="M39.261 308.443h-2.61c-.92 0-1.667 1.181-1.667 2.639 0 1.456.747 2.638 1.667 2.638h2.61c.921 0 1.667-1.182 1.667-2.638 0-1.458-.746-2.639-1.666-2.639z"
      ></path>
      <path
        fill="#fff"
        d="M37.416 305.817h-5.433c-.283 0-.512.364-.512.811 0 .447.229.81.512.81h5.433c.282 0 .512-.363.512-.81 0-.447-.23-.811-.512-.811zM72.332 290.881H58.229c-.75 0-1.358 1.001-1.358 2.235V312.7c0 1.235.609 2.236 1.358 2.236h14.103c.749 0 1.356-1.001 1.356-2.236v-19.584c0-1.234-.607-2.235-1.356-2.235z"
      ></path>
      <path
        fill="#4B4B4B"
        d="M67.928 297.811H63.28c-1.104 0-1.999 1.417-1.999 3.163v2.839c0 1.747.895 3.163 2 3.163h4.647c1.104 0 1.999-1.416 1.999-3.163v-2.839c0-1.746-.895-3.163-2-3.163z"
      ></path>
      <path
        fill="#4F4F4F"
        d="M69.147 302.653h-6.85c-3.951 0-7.154 5.068-7.154 11.321 0 6.252 3.203 11.319 7.154 11.319h6.85c3.951 0 7.443-4.978 7.443-11.23 0-6.253-3.492-11.41-7.443-11.41z"
      ></path>
      <path
        fill="#4F4F4F"
        d="M75.194 312.937H56.555c-1.483 0-2.688 1.678-2.688 3.748v4.902c0 2.072 1.205 3.75 2.688 3.75h18.64c1.484 0 2.687-1.678 2.687-3.75v-4.902c0-2.07-1.203-3.748-2.688-3.748z"
      ></path>
      <path
        fill="#fff"
        d="M76.871 320.594H54.879c-.558 0-1.012.631-1.012 1.41v1.844c0 .778.454 1.411 1.012 1.411h21.992c.559 0 1.011-.633 1.011-1.411v-1.844c0-.779-.453-1.41-1.011-1.41zM68.368 303.222h-5.433c-.284 0-.513.363-.513.811 0 .448.23.811.513.811h5.433c.282 0 .512-.363.512-.811 0-.448-.23-.811-.512-.811z"
      ></path>
      <path
        fill="#585858"
        d="M70.212 308.475h-2.61c-.92 0-1.666 1.181-1.666 2.638 0 1.457.746 2.638 1.667 2.638h2.609c.92 0 1.667-1.181 1.667-2.638 0-1.457-.746-2.638-1.667-2.638z"
      ></path>
      <path
        fill="#fff"
        d="M68.368 305.848h-5.433c-.284 0-.513.364-.513.81 0 .449.23.812.513.812h5.433c.282 0 .512-.363.512-.812 0-.446-.23-.81-.512-.81z"
      ></path>
    </svg>