    <svg
      xmlns="http://www.w3.org/2000/svg"
      width="100"
      height="339"
      fill="none"
      viewBox="0 0 100 339"
    >
      <path
        fill="#AD6F4B"
        d="M82.84 115.913c.102-1.289 7.663-20.203 9.1-16.633 0 0 5.645 2.992 5.86 4.553l.208 18.401c.495 3.586.54 7.355 0 11.257l-.269 7.128a22.126 22.126 0 00-.214 3.035v2.417c0 1.16-.06 12.918-.024 12.847 0 0-12.403.102-12.542-.191l-.89-20.873c-.796-3.643-1.528-20.596-1.528-20.596l.3-1.345z"
      ></path>
      <path
        fill="#AD6F4B"
        d="M90.551 130.005l.057.003c3.661.208 6.697 5.681 6.779 12.226l.62 49.14c.082 6.544-2.819 11.682-6.48 11.474l-.057-.004c-3.66-.207-6.695-5.681-6.778-12.224l-.62-49.14c-.083-6.545 2.818-11.682 6.479-11.475z"
      ></path>
      <path
        fill="#AD6F4B"
        d="M89.915 182.37l1.937.222c3.713.426 6.776 6.936 6.843 14.54l.06 6.755c.066 7.604-2.89 13.421-6.602 12.995l-1.937-.223c-3.632-.417-6.641-6.655-6.834-14.043a24.08 24.08 0 01-.008-.498l-.06-6.753c-.067-7.604 2.889-13.422 6.601-12.995z"
      ></path>
      <path
        fill="#AD6F4B"
        d="M88.648 201.346c.941-4.665 4.018-6.69 6.873-4.525 2.855 2.167 4.406 7.705 3.464 12.371l-2.572 12.741c-.94 4.664-4.019 6.69-6.873 4.523-2.855-2.166-4.405-7.704-3.464-12.369l2.572-12.741z"
      ></path>
      <path
        fill="#9A5731"
        d="M82.578 198.137c-.022-3.36 1.251-5.938 2.843-5.76 1.591.178 2.9 3.047 2.921 6.407l.058 9.177c.022 3.36-1.251 5.939-2.842 5.759-1.592-.178-2.9-3.047-2.92-6.407l-.06-9.176z"
      ></path>
      <path
        fill="#AD6F4B"
        d="M18.195 113.298c-.101-1.289-15.149-9.354-15.149-9.354-.538 1.338-.506 9.577-.721 11.138l-.158 6.72a40.969 40.969 0 000 11.257l.268 7.128c.142 1.024.214 2.04.214 3.035v2.417c0 1.16.06 12.917.025 12.846 0 0 12.402.103 12.541-.19l.89-20.873c.797-3.643 2.108-20.165 2.108-20.165l-.018-3.959z"
      ></path>
      <path
        fill="#AD6F4B"
        d="M9.625 129.573l-.058.004c-3.66.207-6.696 5.681-6.778 12.226l-.62 49.14c-.083 6.544 2.818 11.681 6.48 11.473l.057-.003c3.66-.208 6.695-5.681 6.778-12.225l.62-49.14c.083-6.545-2.818-11.681-6.48-11.475z"
      ></path>
      <path
        fill="#AD6F4B"
        d="M9.552 181.937l-1.938.222c-3.712.427-6.776 6.937-6.842 14.54l-.06 6.755c-.067 7.604 2.889 13.422 6.602 12.995l1.937-.223c3.712-.426 6.775-6.936 6.842-14.54l.06-6.754c.067-7.604-2.889-13.421-6.601-12.995z"
      ></path>
      <path
        fill="#AD6F4B"
        d="M11.911 200.913c-.94-4.664-4.018-6.69-6.873-4.524-2.855 2.166-4.406 7.704-3.464 12.37L4.145 221.5c.942 4.665 4.02 6.691 6.874 4.524 2.855-2.167 4.405-7.705 3.463-12.369l-2.57-12.742z"
      ></path>
      <path
        fill="#9A5731"
        d="M17.982 197.704c.022-3.36-1.251-5.938-2.843-5.76-1.591.179-2.899 3.047-2.92 6.407l-.059 9.177c-.021 3.36 1.25 5.939 2.842 5.76 1.592-.179 2.9-3.047 2.921-6.407l.06-9.177z"
      ></path>
      <path
        fill="#AD6F4B"
        d="M45.837 267.267c-.498-3.575-15.728-5.65-15.728.072l-.288 23.101.001 19.264-1.62 19.742c0 4.315 3.31 7.812 7.395 7.812h1.725c4.084 0 7.395-3.497 7.395-7.812v-28.827c0-2.007.952-26.264.952-28.485 0 0 .228-4.434.168-4.867z"
      ></path>
      <path
        fill="#AD6F4B"
        d="M49.679 191.247c.16-1.987-23.144-1.558-23.178-1.247l-1.543 25.422c-.182 1.62-.5 18.352-.257 20.218 0 0 5.493 30.951 5.473 32.229-.04 2.529 15.485 2.755 15.672-.264.058-.941 4.242-31.965 4.242-31.965.202-1.705-.41-44.393-.41-44.393zM39.722 320.831h-6.946c-4.005 0-7.25 3.701-7.25 8.267 0 4.565 3.245 8.265 7.25 8.265h6.946c4.004 0 7.25-3.7 7.25-8.265 0-4.566-3.246-8.267-7.25-8.267z"
      ></path>
      <path
        fill="#AD6F4B"
        d="M44.571 328.299H27.927c-1.326 0-2.402 1.226-2.402 2.737v3.581c0 1.512 1.076 2.737 2.402 2.737H44.57c1.327 0 2.401-1.225 2.401-2.737v-3.581c0-1.511-1.074-2.737-2.4-2.737zM63.188 251.503h1.782c4.469 0 8.092 4.631 8.092 10.342v47.371l1.62 20.158c0 4.405-3.31 7.975-7.396 7.975h-1.724c-4.085 0-7.396-3.57-7.396-7.975v-29.988c0-1.929-.951-26.261-.951-28.527v-11.722c0-.439.03-.878.089-1.311.498-3.655 2.981-6.323 5.884-6.323z"
      ></path>
      <path
        fill="#AD6F4B"
        d="M53.012 191.549c-.051-2.157 23.735-1.383 23.77-1.073l.338 45.165c0 1.891-3.922 30.562-3.922 31.841 0 4.079-15.983 3.97-15.983-.401 0-.942-3.771-31.44-3.771-31.44-.202-1.706-.432-44.092-.432-44.092zM64.027 320.832h6.945c4.005 0 7.251 3.689 7.251 8.238 0 4.549-3.246 8.237-7.251 8.237h-6.945c-4.004 0-7.252-3.688-7.252-8.237 0-4.549 3.248-8.238 7.252-8.238z"
      ></path>
      <path
        fill="#AD6F4B"
        d="M59.177 323.839h16.645c1.326 0 2.401 1.77 2.401 3.955v5.172c0 2.184-1.075 3.955-2.4 3.955H59.176c-1.326 0-2.402-1.771-2.402-3.955v-5.172c0-2.185 1.076-3.955 2.402-3.955z"
      ></path>
      <path
        fill="#9A5731"
        d="M77.794 135.27c0-21.342-13.427-29.576-27.05-29.576-13.623 0-26.06 8.234-26.06 29.576l-2.737 48.456c0 21.343 15.174 27.178 28.798 27.178 13.622 0 28.896-5.836 28.896-27.178l-1.847-48.456z"
      ></path>
      <path
        fill="#AD6F4B"
        d="M76.345 135.27c0-21.342-12.707-29.576-25.599-29.576-12.893 0-24.662 8.234-24.662 29.576l-2.59 48.456c0 21.343 14.36 27.178 27.252 27.178s27.346-5.836 27.346-27.178l-1.747-48.456z"
      ></path>
      <path
        fill="#AD6F4B"
        d="M84.46 87.183H16.389c-7.368 0-13.342 7.634-13.342 17.052 0 9.417 5.974 10.594 13.342 10.594l68.07 1.084c7.369 0 13.342-2.261 13.342-11.678 0-9.418-5.973-17.052-13.341-17.052z"
      ></path>
      <path
        fill="#9A5731"
        d="M67.353 161.135c-16.092-5.336-32.628 0-32.628 0 0-1.207 7.733-5.336 16.536-5.336s16.092 4.129 16.092 5.336z"
      ></path>
      <path
        fill="#9A5731"
        fillRule="evenodd"
        d="M52.354 170.85a1.38 1.38 0 00-2.758 0v2.567a1.38 1.38 0 002.758 0v-2.567z"
        clipRule="evenodd"
      ></path>
      <path
        fill="#9A5731"
        d="M67.592 87.183H33.566c-8.778 0-15.894 8.612-15.894 19.237v11.594c0 10.623 7.116 15.391 15.894 15.391h34.026c1.886 0 3.695-.219 5.374-.67 6.134-1.649 10.521-6.381 10.521-14.721V106.42c0-10.625-7.116-19.237-15.895-19.237z"
      ></path>
      <path
        fill="#AD6F4B"
        d="M70.561 87.183H30.598c-7.139 0-12.926 8.17-12.926 18.251v11c0 10.08 5.787 14.765 12.926 14.765h39.963c7.139 0 12.926-4.685 12.926-14.765v-11c0-10.081-5.787-18.251-12.926-18.251z"
      ></path>
      <path
        fill="#9A5731"
        d="M53.6 122.812c0-1.245-1.362-2.253-3.044-2.253-1.681 0-3.044 1.008-3.044 2.253v4.369c0 1.244 1.363 2.253 3.044 2.253 1.682 0 3.044-1.009 3.044-2.253v-4.369zM31.215 124.671H28.63c-1.03 0-1.866.965-1.866 2.155 0 1.187.836 2.152 1.866 2.152h2.585c1.03 0 1.866-.965 1.866-2.152 0-1.19-.835-2.155-1.866-2.155zM73.302 124.671h-2.584c-1.031 0-1.866.965-1.866 2.155 0 1.187.835 2.152 1.866 2.152h2.584c1.032 0 1.867-.965 1.867-2.152 0-1.19-.835-2.155-1.867-2.155z"
      ></path>
      <path
        fill="#4F4F4F"
        d="M79.385 177.043c0-.001-15.95.185-28.2.124-12.326-.062-28.869-.002-28.869 0 1.234 19.413 17.279 35.297 28.643 35.297 11.462 0 30.282-15.82 28.426-35.421z"
      ></path>
      <path
        fill="#4B4B4B"
        d="M79.385 177.043l-.019.004-28.18 6.277 1.11 51.316H79.64c.204-15.424 1.674-39.656-.255-57.597zM22.317 177.167l28.561 6.158v51.315H21.946c-.203-15.424-3.298-40.058.371-57.473z"
      ></path>
      <path
        fill="#4F4F4F"
        d="M79.385 177.043c0-.001-15.95.185-28.2.124-12.326-.062-28.869-.002-28.869 0 1.234 19.413 17.279 35.297 28.643 35.297 11.462 0 30.282-15.82 28.426-35.421z"
      ></path>
      <path
        fill="#4B4B4B"
        d="M79.385 177.043l-.019.004-28.18 6.277 1.11 51.316H79.64c.204-15.424 1.674-39.656-.255-57.597zM22.317 177.167l28.561 6.158v51.315H21.946c-.203-15.424-3.298-40.058.371-57.473z"
      ></path>
      <path
        fill="#fff"
        d="M44.032 303.651H30.57c-.716 0-1.296 1-1.296 2.235v19.585c0 1.234.58 2.234 1.296 2.234h13.46c.716 0 1.296-1 1.296-2.234v-19.585c0-1.235-.58-2.235-1.295-2.235z"
      ></path>
      <path
        fill="#4B4B4B"
        d="M38.558 310.549h-4.647c-1.104 0-1.999 1.416-1.999 3.163v2.838c0 1.748.895 3.164 2 3.164h4.646c1.105 0 1.999-1.416 1.999-3.164v-2.838c0-1.747-.894-3.163-1.999-3.163z"
      ></path>
      <path
        fill="#4F4F4F"
        d="M39.71 315.423h-6.963c-4.015 0-7.27 5.067-7.27 11.32 0 6.252 3.255 11.319 7.27 11.319h6.964c4.014 0 7.27-5.067 7.27-11.319 0-6.253-3.256-11.32-7.27-11.32z"
      ></path>
      <path
        fill="#4F4F4F"
        d="M45.523 325.706H27.204c-1.459 0-2.642 1.679-2.642 3.748v4.903c0 2.071 1.183 3.75 2.642 3.75h18.319c1.46 0 2.643-1.679 2.643-3.75v-4.903c0-2.069-1.183-3.748-2.643-3.748z"
      ></path>
      <path
        fill="#fff"
        d="M47.172 333.363H25.557c-.55 0-.994.631-.994 1.41v1.844c0 .779.444 1.411.994 1.411h21.615c.549 0 .994-.632.994-1.411v-1.844c0-.779-.445-1.41-.994-1.41zM39.048 315.991h-5.432c-.283 0-.513.363-.513.812 0 .447.23.81.513.81h5.432c.283 0 .513-.363.513-.81 0-.449-.23-.812-.513-.812z"
      ></path>
      <path
        fill="#585858"
        d="M40.894 321.213h-2.61c-.92 0-1.667 1.18-1.667 2.638 0 1.457.747 2.638 1.667 2.638h2.61c.921 0 1.666-1.181 1.666-2.638 0-1.458-.745-2.638-1.666-2.638z"
      ></path>
      <path
        fill="#fff"
        d="M39.048 318.587h-5.432c-.283 0-.513.363-.513.81 0 .448.23.811.513.811h5.432c.283 0 .513-.363.513-.811 0-.447-.23-.81-.513-.81zM72.364 303.65h-13.37c-.71 0-1.287 1.001-1.287 2.236v19.584c0 1.234.577 2.235 1.287 2.235h13.37c.71 0 1.286-1.001 1.286-2.235v-19.584c0-1.235-.576-2.236-1.286-2.236z"
      ></path>
      <path
        fill="#4B4B4B"
        d="M69.559 310.58H64.91c-1.104 0-1.999 1.418-1.999 3.163v2.84c0 1.746.895 3.163 2 3.163h4.647c1.104 0 1.999-1.417 1.999-3.163v-2.84c0-1.745-.895-3.163-2-3.163z"
      ></path>
      <path
        fill="#4F4F4F"
        d="M70.778 315.423h-6.85c-3.951 0-7.155 5.067-7.155 11.32 0 6.252 3.204 11.319 7.155 11.319h6.85c3.951 0 7.442-4.977 7.442-11.229 0-6.253-3.491-11.41-7.442-11.41z"
      ></path>
      <path
        fill="#4F4F4F"
        d="M76.73 325.706H57.968c-1.494 0-2.706 1.679-2.706 3.748v4.903c0 2.071 1.212 3.75 2.706 3.75H76.73c1.495 0 2.706-1.679 2.706-3.75v-4.903c0-2.069-1.211-3.748-2.706-3.748z"
      ></path>
      <path
        fill="#fff"
        d="M78.42 333.363H56.282c-.562 0-1.018.631-1.018 1.41v1.844c0 .779.456 1.411 1.018 1.411H78.42c.563 0 1.018-.632 1.018-1.411v-1.844c0-.779-.456-1.41-1.018-1.41zM69.999 315.991h-5.434c-.283 0-.512.363-.512.812 0 .447.23.81.512.81H70c.282 0 .512-.363.512-.81 0-.449-.23-.812-.512-.812z"
      ></path>
      <path
        fill="#585858"
        d="M71.843 321.244h-2.61c-.92 0-1.667 1.181-1.667 2.638 0 1.457.747 2.638 1.667 2.638h2.61c.92 0 1.667-1.181 1.667-2.638 0-1.457-.747-2.638-1.667-2.638z"
      ></path>
      <path
        fill="#fff"
        d="M69.999 318.617h-5.434c-.283 0-.512.364-.512.811 0 .448.23.811.512.811H70c.282 0 .512-.363.512-.811 0-.447-.23-.811-.512-.811z"
      ></path>
      <path
        fill="#AD6F4B"
        d="M67.32 73.079c0-10.916-7.389-19.764-16.506-19.764-9.119 0-16.51 8.848-16.51 19.764v8.109c0 10.915 7.391 19.765 16.51 19.765 9.117 0 16.507-8.85 16.507-19.765v-8.11z"
      ></path>
      <path
        fill="#9A5731"
        d="M44.744 96.165l-9.01-4.33a2.015 2.015 0 10-1.746 3.63l9.011 4.332a2.014 2.014 0 101.745-3.632zM55.696 96.165l9.011-4.33a2.016 2.016 0 012.69.941 2.016 2.016 0 01-.944 2.689l-9.01 4.332a2.015 2.015 0 01-1.747-3.632zM53.634 54.644h-6.403c-7.35 0-13.307 5.957-13.307 13.306v5.46c0 7.349 5.958 13.307 13.307 13.307h6.403c7.35 0 13.307-5.958 13.307-13.307v-5.46c0-7.349-5.958-13.306-13.307-13.306z"
      ></path>
      <path
        fill="#AD6F4B"
        d="M73.453 43.062H27.702c-5.23 0-9.472 4.404-9.472 9.838 0 5.435 4.241 9.84 9.472 9.84h45.751c5.23 0 9.473-4.405 9.473-9.84 0-5.434-4.242-9.838-9.473-9.838z"
      ></path>
      <path
        fill="#9A5731"
        d="M73.735 44.549H27.683c-3.985 0-7.214 3.284-7.214 7.337 0 4.052 3.229 7.338 7.214 7.338h46.052c3.984 0 7.214-3.286 7.214-7.338 0-4.053-3.23-7.337-7.214-7.337z"
      ></path>
      <path
        fill="#AD6F4B"
        d="M57.594 14.457H43.823c-11.41 0-20.659 9.249-20.659 20.659v24.482c0 11.411 9.25 20.661 20.659 20.661h13.771c11.41 0 20.659-9.25 20.659-20.66V35.115c0-11.41-9.25-20.659-20.659-20.659z"
      ></path>
      <path
        fill="#AD6F4B"
        d="M57.158 77.458H44.29a2.52 2.52 0 000 5.04h12.868a2.52 2.52 0 000-5.04z"
      ></path>
      <path
        fill="#9A5731"
        d="M52.802 74.642h-3.72a.539.539 0 00-.539.539v.317c0 .297.24.54.538.54h3.721a.54.54 0 00.538-.54v-.317a.54.54 0 00-.538-.54zM54.733 50.842a4.045 4.045 0 10-8.09 0v7.138a4.046 4.046 0 008.09 0v-7.138z"
      ></path>
      <path
        fill="#9A5731"
        d="M50.244 58.92l-3.761-3.197a1.478 1.478 0 00-1.913 2.25l3.76 3.198a1.478 1.478 0 001.914-2.251zM51.277 58.92l3.761-3.197a1.477 1.477 0 111.913 2.25l-3.762 3.198a1.478 1.478 0 01-1.912-2.251zM48.152 43.437a1.134 1.134 0 10-2.267 0v1.373a1.135 1.135 0 002.267 0v-1.373zM55.681 43.437a1.133 1.133 0 10-2.267 0v1.373a1.134 1.134 0 002.267 0v-1.373z"
      ></path>
      <path
        fill="#61534B"
        d="M40.885 45.783a2.53 2.53 0 10-5.063 0v1.014a2.531 2.531 0 005.063 0v-1.014zM65.504 45.783a2.53 2.53 0 10-5.063 0v1.013a2.531 2.531 0 105.063 0v-1.013z"
      ></path>
      <path
        fill="#fff"
        d="M55.48 71.818c3.726 0 6.725-3.203 6.725-7.184v-1.162H39.557v1.162c0 3.98 3 7.184 6.725 7.184h9.198z"
      ></path>
      <path
        fill="#61534B"
        fillRule="evenodd"
        d="M68.469 40.853c0-.3-.245-.544-.546-.544H60.29c-.301 0-.545.244-.545.544v1.09c0 .303.244.547.545.547h7.634c.301 0 .546-.244.546-.546v-1.09zM42.269 40.822c0-.3-.245-.545-.546-.545H34.09c-.301 0-.546.244-.546.545v1.092c0 .3.245.544.546.544h7.634c.3 0 .546-.244.546-.544v-1.092z"
        clipRule="evenodd"
      ></path>
      <path
        fill="#4E4E4E"
        d="M79.06 39.75a1.728 1.728 0 00-.653.07l-.238.075c-.772.24-1.256.975-1.238 1.767a1.834 1.834 0 00-.26-.297v2.454c3.345 1.431 5.688 4.828 5.688 8.81 0 4.003-2.368 7.413-5.742 8.831a20.617 20.617 0 01-.711 4.145v1.373a2.287 2.287 0 00-.3-.39c-1.683 5.05-5.258 8.859-9.862 11.16v3.394c0 1.238.966 2.234 2.166 2.234h1c1.2 0 2.165-.996 2.165-2.234v-.602c.325.81 1.096 1.374 2 1.374h.998c1.201 0 2.167-.995 2.167-2.235v-.707a2.14 2.14 0 001.831 1.052c1.2 0 2.166-.997 2.166-2.235V65.234l.446 1.53c.278.956 1.25 1.498 2.178 1.21.929-.29 1.45-1.291 1.173-2.25l-2.376-8.164c.438.509 1.132.74 1.807.532l.24-.075c.928-.288 1.45-1.29 1.17-2.248l-4.289-14.738a1.756 1.756 0 00-1.527-1.28zm-56.307.122a1.756 1.756 0 00-1.527 1.28l-4.29 14.739c-.278.958.244 1.96 1.172 2.247l.24.075a1.709 1.709 0 001.806-.531l-2.375 8.163c-.28.959.243 1.961 1.171 2.25.93.287 1.9-.252 2.179-1.21l.09-.309V77.79c0 1.238.965 2.235 2.165 2.235a2.14 2.14 0 001.833-1.052v.707c0 1.239.965 2.235 2.165 2.235h1c.903 0 1.673-.563 1.998-1.37v.598c0 1.238.966 2.234 2.167 2.234h1c1.199 0 2.165-.996 2.165-2.234v-3.394c-4.562-2.335-8.093-6.231-9.74-11.276a2.224 2.224 0 00-.423.506v-1.983A20.755 20.755 0 0125 61.46c-4.357-2.85-5.913-5.08-5.742-8.831.184-3.979 2.343-7.379 5.688-8.81v-2.115c-.02.026-.044.052-.063.08.017-.792-.468-1.528-1.24-1.767l-.238-.075a1.692 1.692 0 00-.65-.07z"
      ></path>
      <path
        fill="#4E4E4E"
        d="M39.326 14.457c-9.797 0-17.683 8.344-17.683 18.713 0 .485.022.966.056 1.444a5.315 5.315 0 00-.056.746v11.463c0 2.46 1.642 4.498 3.836 4.96v-14.96c0-10.708 8.147-19.33 18.267-19.33h14.291c10.119 0 18.268 8.622 18.268 19.33v14.98c2.254-.407 3.964-2.473 3.964-4.98V35.36c0-.254-.025-.503-.058-.746.034-.478.058-.959.058-1.444 0-10.369-7.888-18.713-17.685-18.713H39.326z"
      ></path>
      <path
        fill="#4E4E4E"
        d="M44.456 3.913c-12.406 0-22.394 10.01-22.394 22.443v10.588c0 3.765.92 7.304 2.542 10.414v-12.62c0-10.976 8.816-19.81 19.764-19.81h13.175c10.949 0 19.763 8.834 19.763 19.81v12.62a22.448 22.448 0 002.541-10.413v-10.59c0-12.432-9.987-22.442-22.393-22.442H44.456z"
      ></path>
      <path
        fill="#4E4E4E"
        d="M30.602 24.155c0-2.467-1.696-4.468-3.787-4.468-2.092 0-3.788 2.001-3.788 4.468v6.358c0 2.47 1.696 4.47 3.788 4.47 2.091 0 3.787-2 3.787-4.47v-6.358zM79.725 24.155c0-2.467-1.696-4.468-3.788-4.468-2.09 0-3.787 2.001-3.787 4.468v6.358c0 2.47 1.696 4.47 3.787 4.47 2.092 0 3.788-2 3.788-4.47v-6.358z"
      ></path>
      <path
        fill="#444"
        d="M61.731 4.357H40.178c-6.419 0-11.623 5.217-11.623 11.65v5.496c0 6.434 5.204 11.65 11.623 11.65h21.553c6.419 0 11.623-5.216 11.623-11.65v-5.496c0-6.433-5.204-11.65-11.623-11.65z"
      ></path>
      <path
        fill="#444"
        d="M25.955.598a2.906 2.906 0 00-1.961.5 2.452 2.452 0 00-1.024 1.608c-.044.274-.08.549-.108.822-.827 8.256 5.842 15.72 14.854 16.628l10.525 1.057c9.012.907 17.028-5.081 17.854-13.337.03-.294.044-.57.055-.822a2.456 2.456 0 00-.684-1.783 2.91 2.91 0 00-1.823-.883L25.955.598z"
      ></path>
      <path
        fill="#444"
        d="M50.005 16.377h1.714c1.012 0 1.832.869 1.832 1.938v7.081c0 1.07-.82 1.939-1.832 1.939h-1.714c-1.013 0-1.833-.869-1.833-1.939v-7.08c0-1.07.82-1.939 1.833-1.939zM42.647 16.57h2.264c.792 0 1.433.679 1.433 1.517v7.5c0 .84-.64 1.519-1.433 1.519h-2.264c-.793 0-1.434-.68-1.434-1.518v-7.501c0-.838.64-1.518 1.434-1.518zM59.263 16.602H57c-.791 0-1.434.68-1.434 1.517v7.502c0 .839.643 1.517 1.434 1.517h2.264c.792 0 1.434-.678 1.434-1.517v-7.502c0-.838-.642-1.517-1.434-1.517z"
      ></path>
      <path
        fill="#4E4E4E"
        d="M39.328 14.457c-9.797 0-17.684 8.344-17.684 18.713 0 .485.023.966.057 1.444a5.33 5.33 0 00-.056.746v11.463c0 2.46 1.642 4.498 3.836 4.96v-14.96c0-10.708 8.147-19.33 18.267-19.33H58.04c10.119 0 18.267 8.622 18.267 19.33v14.98c2.255-.407 3.965-2.473 3.965-4.98V35.36c0-.254-.025-.503-.058-.746.034-.478.058-.959.058-1.444 0-10.369-7.888-18.713-17.684-18.713h-23.26z"
      ></path>
      <path
        fill="#4E4E4E"
        d="M59.409 12.187H43.477c-5.366 0-9.717 4.603-9.717 10.284 0 5.68 4.35 10.283 9.717 10.283h15.932c5.366 0 9.717-4.604 9.717-10.283 0-5.68-4.35-10.284-9.717-10.284z"
      ></path>
      <path
        fill="#4E4E4E"
        d="M39.256 18.675c0-1.606-1.23-2.907-2.749-2.907-1.517 0-2.747 1.301-2.747 2.907v6.744c0 1.605 1.23 2.907 2.747 2.907 1.519 0 2.75-1.302 2.75-2.907v-6.744zM70.445 19.059c0-1.607-1.23-2.908-2.748-2.908-1.518 0-2.748 1.301-2.748 2.908v6.743c0 1.607 1.23 2.907 2.748 2.907 1.518 0 2.748-1.3 2.748-2.907v-6.743zM32.622 21.97c-.144-1.059-1.072-1.795-2.073-1.642-1.002.151-1.697 1.134-1.554 2.194l.465 3.42c.143 1.061 1.072 1.797 2.074 1.644 1.002-.152 1.696-1.134 1.552-2.194l-.464-3.421zM71.333 22.896c.143-1.06 1.072-1.794 2.074-1.643 1.002.153 1.696 1.135 1.552 2.196l-.463 3.42c-.144 1.06-1.073 1.796-2.074 1.643-1.002-.152-1.697-1.134-1.553-2.194l.464-3.422z"
      ></path>
      <path
        fill="#444"
        d="M49.509 17.27h1.714c1.012 0 1.832.868 1.832 1.938v7.08c0 1.07-.82 1.94-1.832 1.94H49.51c-1.013 0-1.833-.87-1.833-1.94v-7.08c0-1.07.82-1.938 1.833-1.938zM42.152 17.462h2.265c.792 0 1.433.68 1.433 1.517v7.501c0 .839-.641 1.519-1.433 1.519h-2.265c-.792 0-1.433-.68-1.433-1.519v-7.5c0-.838.64-1.518 1.433-1.518zM58.77 17.495h-2.265c-.791 0-1.435.68-1.435 1.517v7.501c0 .84.644 1.518 1.435 1.518h2.264c.792 0 1.434-.679 1.434-1.518v-7.5c0-.838-.642-1.518-1.434-1.518z"
      ></path>
      <path
        fill="#4E4E4E"
        d="M79.06 39.751a1.728 1.728 0 00-.653.07l-.238.075c-.772.24-1.256.975-1.238 1.767a1.837 1.837 0 00-.26-.297v2.454c3.345 1.431 5.688 4.828 5.688 8.81 0 4.003-2.368 7.413-5.742 8.831a20.618 20.618 0 01-.711 4.145v1.373a2.279 2.279 0 00-.3-.39c-1.683 5.05-5.258 8.859-9.862 11.16v3.394c0 1.238.966 2.234 2.166 2.234h1c1.2 0 2.165-.996 2.165-2.234v-.602c.325.81 1.096 1.374 2 1.374h.998c1.201 0 2.167-.995 2.167-2.235v-.707a2.14 2.14 0 001.831 1.052c1.2 0 2.166-.997 2.166-2.235V65.235l.446 1.53c.278.956 1.25 1.498 2.178 1.21.929-.29 1.45-1.292 1.173-2.25l-2.376-8.164c.438.509 1.132.74 1.807.532l.24-.075c.928-.288 1.45-1.29 1.17-2.248l-4.289-14.738a1.756 1.756 0 00-1.527-1.28zm-56.307.122a1.756 1.756 0 00-1.527 1.28l-4.29 14.739c-.278.958.244 1.96 1.172 2.247l.24.075a1.709 1.709 0 001.806-.531l-2.375 8.163c-.28.959.243 1.961 1.171 2.25.93.287 1.9-.252 2.179-1.21l.09-.309V77.79c0 1.238.965 2.235 2.165 2.235a2.14 2.14 0 001.833-1.052v.707c0 1.239.965 2.235 2.165 2.235h1c.903 0 1.673-.563 1.998-1.37v.598c0 1.238.966 2.234 2.167 2.234h1c1.199 0 2.165-.996 2.165-2.234v-3.394c-4.562-2.335-8.093-6.231-9.74-11.275a2.222 2.222 0 00-.423.504v-1.982a20.752 20.752 0 01-.55-3.535c-4.357-2.85-5.913-5.08-5.742-8.832.184-3.978 2.343-7.378 5.688-8.809v-2.115c-.02.026-.044.052-.063.08.017-.792-.468-1.528-1.24-1.767l-.238-.075a1.692 1.692 0 00-.65-.07zM70.443 19.059c0-1.607-1.23-2.909-2.748-2.909-1.518 0-2.748 1.302-2.748 2.909V25.8c0 1.607 1.23 2.908 2.748 2.908 1.518 0 2.748-1.302 2.748-2.908v-6.742zM32.62 21.97c-.143-1.06-1.072-1.795-2.073-1.644-1.002.153-1.697 1.136-1.553 2.196l.464 3.42c.143 1.06 1.072 1.796 2.074 1.643 1.001-.152 1.696-1.133 1.552-2.194l-.464-3.421zM71.333 22.896c.143-1.06 1.072-1.794 2.074-1.643 1.002.153 1.696 1.135 1.552 2.196l-.463 3.42c-.144 1.06-1.073 1.796-2.074 1.643-1.002-.152-1.697-1.134-1.553-2.194l.464-3.422z"
      ></path>
      <path
        fill="#444"
        d="M49.509 17.27h1.714c1.012 0 1.832.868 1.832 1.938v7.08c0 1.07-.82 1.94-1.832 1.94H49.51c-1.013 0-1.833-.87-1.833-1.94v-7.08c0-1.07.82-1.938 1.833-1.938zM42.151 17.462h2.264c.792 0 1.433.68 1.433 1.517v7.501c0 .839-.64 1.519-1.433 1.519H42.15c-.793 0-1.434-.68-1.434-1.519v-7.5c0-.838.64-1.518 1.434-1.518zM58.767 17.494h-2.264c-.791 0-1.435.68-1.435 1.517v7.503c0 .838.644 1.517 1.435 1.517h2.264c.792 0 1.434-.679 1.434-1.517V19.01c0-.837-.642-1.517-1.434-1.517z"
      ></path>
      <path
        fill="#4E4E4E"
        d="M39.326 14.457c-9.797 0-17.683 8.344-17.683 18.713 0 .485.022.966.056 1.444a5.315 5.315 0 00-.056.746v11.463c0 2.46 1.642 4.498 3.836 4.96v-14.96c0-10.708 8.147-19.33 18.267-19.33h14.291c10.119 0 18.268 8.622 18.268 19.33v14.98c2.254-.407 3.964-2.473 3.964-4.98V35.36c0-.254-.025-.503-.058-.746.034-.478.058-.959.058-1.444 0-10.369-7.888-18.713-17.685-18.713H39.326z"
      ></path>
      <path
        fill="#4E4E4E"
        d="M59.409 12.187H43.477c-5.366 0-9.717 4.603-9.717 10.284 0 5.68 4.35 10.283 9.717 10.283h15.932c5.366 0 9.717-4.604 9.717-10.283 0-5.68-4.35-10.284-9.717-10.284z"
      ></path>
      <path
        fill="#4E4E4E"
        d="M39.256 18.675c0-1.606-1.23-2.907-2.749-2.907-1.517 0-2.747 1.301-2.747 2.907v6.744c0 1.605 1.23 2.907 2.747 2.907 1.519 0 2.75-1.302 2.75-2.907v-6.744z"
      ></path>
      <path
        fill="#444"
        d="M42.151 17.462h2.264c.792 0 1.433.68 1.433 1.517v7.501c0 .839-.64 1.519-1.433 1.519H42.15c-.793 0-1.434-.68-1.434-1.519v-7.5c0-.838.64-1.518 1.434-1.518zM58.767 17.494h-2.264c-.791 0-1.435.68-1.435 1.517v7.503c0 .838.644 1.517 1.435 1.517h2.264c.792 0 1.434-.679 1.434-1.517V19.01c0-.837-.642-1.517-1.434-1.517zM49.509 17.27h1.714c1.012 0 1.832.868 1.832 1.938v7.08c0 1.07-.82 1.94-1.832 1.94H49.51c-1.013 0-1.833-.87-1.833-1.94v-7.08c0-1.07.82-1.938 1.833-1.938z"
      ></path>
      <path
        fill="#4E4E4E"
        d="M39.326 14.457c-9.797 0-17.683 8.344-17.683 18.713 0 .485.022.966.056 1.444a5.315 5.315 0 00-.056.746v11.463c0 2.46 1.642 4.498 3.836 4.96v-14.96c0-10.708 8.147-19.33 18.267-19.33h14.291c10.119 0 18.268 8.622 18.268 19.33v14.98c2.254-.407 3.964-2.473 3.964-4.98V35.36c0-.254-.025-.503-.058-.746.034-.478.058-.959.058-1.444 0-10.369-7.888-18.713-17.685-18.713H39.326z"
      ></path>
      <path
        fill="#4E4E4E"
        d="M44.456 3.913c-12.406 0-22.394 10.01-22.394 22.443v10.588c0 3.765.92 7.304 2.542 10.414v-12.62c0-10.976 8.816-19.81 19.764-19.81h13.175c10.949 0 19.763 8.834 19.763 19.81v12.62a22.448 22.448 0 002.541-10.413v-10.59c0-12.432-9.987-22.442-22.393-22.442H44.456z"
      ></path>
      <path
        fill="#4E4E4E"
        d="M30.602 24.155c0-2.467-1.696-4.468-3.787-4.468-2.092 0-3.788 2.001-3.788 4.468v6.358c0 2.47 1.696 4.47 3.788 4.47 2.091 0 3.787-2 3.787-4.47v-6.358zM79.725 24.155c0-2.467-1.696-4.468-3.788-4.468-2.09 0-3.787 2.001-3.787 4.468v6.358c0 2.47 1.696 4.47 3.787 4.47 2.092 0 3.788-2 3.788-4.47v-6.358z"
      ></path>
      <path
        fill="#4E4E4E"
        d="M61.731 4.357H40.178c-6.419 0-11.623 5.217-11.623 11.65v5.496c0 6.434 5.204 11.65 11.623 11.65h21.553c6.419 0 11.623-5.216 11.623-11.65v-5.496c0-6.433-5.204-11.65-11.623-11.65z"
      ></path>
      <path
        fill="#4E4E4E"
        d="M25.955.598a2.906 2.906 0 00-1.961.5 2.452 2.452 0 00-1.024 1.608c-.044.274-.08.549-.108.822-.827 8.256 5.842 15.72 14.854 16.628l10.525 1.057c9.012.907 17.028-5.081 17.854-13.337.03-.294.044-.57.055-.822a2.456 2.456 0 00-.684-1.783 2.91 2.91 0 00-1.823-.883L25.955.598z"
      ></path>
      <path
        fill="#4E4E4E"
        d="M50.005 16.377h1.714c1.012 0 1.832.869 1.832 1.938v7.081c0 1.07-.82 1.939-1.832 1.939h-1.714c-1.013 0-1.833-.869-1.833-1.939v-7.08c0-1.07.82-1.939 1.833-1.939zM42.647 16.57h2.264c.792 0 1.433.679 1.433 1.517v7.5c0 .84-.64 1.519-1.433 1.519h-2.264c-.793 0-1.434-.68-1.434-1.518v-7.501c0-.838.64-1.518 1.434-1.518zM59.261 16.602h-2.264c-.791 0-1.434.68-1.434 1.517v7.502c0 .839.643 1.517 1.434 1.517h2.264c.792 0 1.434-.678 1.434-1.517v-7.502c0-.838-.642-1.517-1.434-1.517z"
      ></path>
      <path
        fill="#4E4E4E"
        d="M39.326 14.457c-9.797 0-17.683 8.344-17.683 18.713 0 .485.022.966.056 1.444a5.315 5.315 0 00-.056.746v11.463c0 2.46 1.642 4.498 3.836 4.96v-14.96c0-10.708 8.147-19.33 18.267-19.33h14.291c10.119 0 18.268 8.622 18.268 19.33v14.98c2.254-.407 3.964-2.473 3.964-4.98V35.36c0-.254-.025-.503-.058-.746.034-.478.058-.959.058-1.444 0-10.369-7.888-18.713-17.685-18.713H39.326zM42.174 57.777a8.027 8.027 0 00-8.033 8.056v9.421a8.026 8.026 0 008.033 8.055H59.41c4.45 0 8.033-3.591 8.033-8.055v-9.421a8.027 8.027 0 00-8.033-8.056h-1.686c.06.492-.12 1.001-.526 1.347l-.682.58c.405.38.705.871.835 1.431h2.339a4.488 4.488 0 014.492 4.503v4.052a4.49 4.49 0 01-.784 2.546v1.11a6.406 6.406 0 01-6.413 6.43H44.6a6.406 6.406 0 01-6.413-6.43v-1.11a4.49 4.49 0 01-.784-2.546v-4.052a4.488 4.488 0 014.492-4.503h1.471a2.863 2.863 0 011.289-1.782l-.268-.23a1.524 1.524 0 01-.526-1.346h-1.686z"
      ></path>
      <path
        fill="#4E4E4E"
        fillRule="evenodd"
        d="M76.826 58.787c2.958 2.248 2.496 8.017-1.032 12.876-3.528 4.857-8.796 6.976-11.755 4.73 2.38-1.38 5.451-4.07 8.001-7.582 2.55-3.51 4.181-7.295 4.785-10.024zM24.541 58.597c-2.959 2.247-2.497 8.017 1.031 12.875 3.529 4.859 8.796 6.977 11.755 4.73-2.379-1.38-5.452-4.07-8-7.581-2.552-3.511-4.182-7.295-4.786-10.024z"
        clipRule="evenodd"
      ></path>
      <path
        fill="#4E4E4E"
        fillRule="evenodd"
        d="M25.016 69.556c0 22.088 11.507 40.02 25.684 40.02 14.175 0 25.685-17.932 25.685-40.02-5.994 6.627-15.44 12.006-25.685 12.006-10.247 0-19.691-5.38-25.684-12.006z"
        clipRule="evenodd"
      ></path>
    </svg>