    <svg
      xmlns="http://www.w3.org/2000/svg"
      width="90"
      height="305"
      fill="none"
      viewBox="0 0 90 305"
    >
      <path
        fill="#D9B392"
        d="M53.505 223.849h1.667c4.181 0 7.572 4.333 7.572 9.677v44.323l1.516 18.861c0 4.122-3.098 7.463-6.92 7.463h-1.614c-3.822 0-6.92-3.341-6.92-7.463v-28.058c0-1.806-.89-24.572-.89-26.692v-10.968c0-.412.028-.822.083-1.227.466-3.42 2.79-5.916 5.506-5.916z"
      ></path>
      <path
        fill="#D9B392"
        d="M57.105 152.288h6.03c1.554 0 5.802 3.636 5.834 3.927l-.577 50.064c0 1.77-.114 3.537-.34 5.283l-.742 5.694c-.425 3.261-1.297 6.4-2.573 9.275 0 0-1.836 5.033-1.836 6.229 0 3.818.396 9.062-4.008 8.974h-3.565c-3.199 0-7.404.016-7.404-4.074 0-.882-.13-10.918-.319-12.12l-1.18-7.507-1.135-9.568a41.02 41.02 0 01-.284-4.821v-35.892c0-8.541 5.417-15.464 12.099-15.464zM53.266 288.718h6.498c3.747 0 6.785 3.452 6.785 7.708s-3.038 7.707-6.786 7.707h-6.497c-3.747 0-6.785-3.451-6.785-7.707s3.038-7.708 6.785-7.708z"
      ></path>
      <path
        fill="#D9B392"
        d="M48.727 291.531h15.575c1.24 0 2.247 1.656 2.247 3.701v4.839c0 2.044-1.007 3.701-2.247 3.701H48.727c-1.24 0-2.246-1.657-2.246-3.701v-4.839c0-2.045 1.006-3.701 2.246-3.701zM35.393 223.849h-1.667c-4.181 0-7.571 4.333-7.571 9.677l-.001 25.919v18.404l-1.516 18.861c0 4.122 3.098 7.463 6.92 7.463h1.614c3.822 0 6.92-3.341 6.92-7.463v-28.058c0-1.806.89-24.572.89-26.692v-10.968a9.07 9.07 0 00-.083-1.227c-.466-3.42-2.79-5.916-5.506-5.916z"
      ></path>
      <path
        fill="#D9B392"
        d="M31.794 152.288h-6.03c-1.555 0-5.784 3.676-5.816 3.967l.814 34.117c-.17 1.515-.141 19.444.085 21.19l.742 5.694c.425 3.261 1.296 6.4 2.572 9.275 0 0 1.836 5.033 1.836 6.229 0 3.818-.396 9.062 4.009 8.974h3.565c3.198 0 7.403.016 7.403-4.074 0-.882.13-10.918.32-12.12l1.18-7.507 1.134-9.568c.19-1.595.285-3.207.285-4.821v-35.892c0-8.541-5.417-15.464-12.1-15.464zM35.642 288.718h-6.498c-3.747 0-6.785 3.463-6.785 7.735 0 4.271 3.037 7.733 6.785 7.733h6.498c3.747 0 6.785-3.462 6.785-7.733 0-4.272-3.038-7.735-6.785-7.735z"
      ></path>
      <path
        fill="#D9B392"
        d="M40.18 295.705H24.606c-1.24 0-2.247 1.147-2.247 2.562v3.35c0 1.415 1.007 2.561 2.247 2.561H40.18c1.241 0 2.247-1.146 2.247-2.561v-3.35c0-1.415-1.006-2.562-2.247-2.562z"
      ></path>
      <path
        fill="#C49D7A"
        d="M19.523 96.018c0-16.078 52.013-14.846 52.013 0l-1.982 15.895-.586 42.685c0 16.077-10.623 3.13-24.463 3.13-13.84 0-24.558 13.742-24.558-2.336l-.424-43.479V96.018z"
      ></path>
      <path
        fill="#D9B392"
        d="M44.58 66.998c.983 0 1.964.076 2.935.223C59.235 69 69.68 81.172 69.68 96.018l-1.84 15.896-.544 42.684c0 16.078-9.864 3.13-22.716 3.13s-22.805 13.742-22.805-2.336l-.393-43.478V96.018c0-16.077 10.346-29.02 23.198-29.02z"
      ></path>
      <path
        fill="#D9B392"
        d="M44.32 132.082h.836c13.848 0 18.343-8.969 20.616 3.187l1.22 17.019c.468 2.5-10.838 29.6-21.837 29.6h-.836c-6.999 0-22.934-26.373-22.284-29.85l2.13-16.769c2.272-12.156 6.306-3.187 20.154-3.187zM16.152 82.606c-3.864-1.025-8.84 6.617-9.69 12.65 0 0-2.515 31.225-2.49 33.644.042 4.238 1.451 7.346 4.499 8.153 3.327.883 5.537-1.388 6.63-5.89.371-1.528 2.585-28.288 2.638-29.909.146-4.457 1.32-17.878-1.587-18.648z"
      ></path>
      <path
        fill="#D9B392"
        d="M10.104 117.086l-.05-.002c-3.167-.134-5.912 4.685-6.133 10.763L2.26 173.49c-.22 6.079 2.167 11.115 5.334 11.249l.05.002c3.166.134 5.912-4.685 6.133-10.764l1.659-45.643c.221-6.079-2.167-11.115-5.333-11.248z"
      ></path>
      <path
        fill="#D9B392"
        d="M10.73 165.137l-1.99-.016c-3.814-.027-7.086 5.646-7.308 12.673l-.197 6.243c-.223 7.026 2.689 12.745 6.503 12.773l1.99.015c3.814.027 7.085-5.646 7.307-12.673l.198-6.242c.222-7.027-2.69-12.746-6.503-12.773z"
      ></path>
      <path
        fill="#D9B392"
        d="M11.222 182.892c-.83-4.469-3.755-6.732-6.534-5.054-2.779 1.677-4.36 6.66-3.53 11.128l2.267 12.205c.83 4.468 3.755 6.731 6.534 5.054 2.78-1.678 4.359-6.66 3.53-11.129l-2.267-12.204z"
      ></path>
      <path
        fill="#C49D7A"
        d="M17.727 180.505c.093-3.115-1.18-5.651-2.846-5.665-1.665-.014-3.09 2.5-3.184 5.615l-.257 8.508c-.094 3.115 1.18 5.652 2.846 5.666 1.665.014 3.091-2.5 3.185-5.615l.256-8.509z"
      ></path>
      <path
        fill="#D9B392"
        d="M73.106 83.63c3.863-1.025 8.84 6.616 9.69 12.65 0 0 2.515 31.224 2.49 33.643-.042 4.238-1.451 7.346-4.499 8.154-3.327.883-5.538-1.389-6.63-5.891-.372-1.528-2.585-28.288-2.638-29.909-.146-4.456-1.32-17.877 1.587-18.648z"
      ></path>
      <path
        fill="#D9B392"
        d="M79.154 118.109l.05-.002c3.166-.134 5.912 4.685 6.133 10.763l1.66 45.643c.22 6.079-2.167 11.116-5.334 11.25l-.05.002c-3.166.134-5.912-4.685-6.133-10.764l-1.66-45.644c-.22-6.079 2.168-11.115 5.334-11.248z"
      ></path>
      <path
        fill="#D9B392"
        d="M79.224 165.137l1.99-.016c3.814-.027 7.086 5.646 7.308 12.673l.198 6.243c.221 7.026-2.69 12.745-6.504 12.773l-1.99.015c-3.814.027-7.085-5.646-7.308-12.673l-.197-6.242c-.222-7.027 2.689-12.746 6.503-12.773z"
      ></path>
      <path
        fill="#D9B392"
        d="M78.731 182.892c.83-4.469 3.756-6.732 6.534-5.054 2.78 1.677 4.36 6.66 3.53 11.128l-2.267 12.205c-.829 4.468-3.755 6.731-6.533 5.054-2.78-1.678-4.36-6.66-3.53-11.129l2.266-12.204z"
      ></path>
      <path
        fill="#C49D7A"
        d="M72.225 180.505c-.093-3.115 1.18-5.651 2.846-5.665 1.666-.014 3.092 2.5 3.185 5.615l.256 8.508c.094 3.115-1.18 5.652-2.845 5.666-1.665.014-3.091-2.5-3.185-5.615l-.257-8.509z"
      ></path>
      <path
        fill="#D9B392"
        d="M15.675 75.951h57.688c5.717 0 10.32 5.88 10.32 13.184 0 7.303-4.603 13.183-10.32 13.183H15.675c-5.717 0-10.32-5.88-10.32-13.183 0-7.304 4.603-13.184 10.32-13.184z"
      ></path>
      <path
        fill="#D9B392"
        d="M35.471 74.388h17.988c10.052 0 18.143 9.606 18.143 21.54 0 11.932-8.091 21.538-18.143 21.538H35.471c-10.05 0-18.143-9.606-18.143-21.539 0-11.933 8.092-21.54 18.143-21.54z"
      ></path>
      <path
        fill="#C49D7A"
        d="M44.467 104.958c4.034 0 7.281 2.182 7.281 4.891v4.535c0 2.71-3.247 4.89-7.281 4.89-4.036 0-7.283-2.18-7.283-4.89v-4.535c0-2.709 3.247-4.891 7.283-4.891z"
      ></path>
      <path
        fill="#D9B392"
        d="M34.272 96.24a5.45 5.45 0 00-3.018.905 11.439 11.439 0 00-7.524 3.483 10.942 10.942 0 00-3.058 7.569 10.95 10.95 0 003.32 7.833 11.462 11.462 0 008.012 3.245 11.484 11.484 0 007.443-2.736 11.009 11.009 0 003.772-6.845 5.48 5.48 0 00.117-1.126v-6.885a5.44 5.44 0 00-5.46-5.443h-3.604zm16.784 0a5.44 5.44 0 00-5.459 5.443v6.885c0 .386.041.763.117 1.126a11.01 11.01 0 003.772 6.845 11.483 11.483 0 007.443 2.736c3.006 0 5.887-1.167 8.013-3.245a10.954 10.954 0 003.32-7.833c-.002-2.811-1.094-5.517-3.06-7.569a11.437 11.437 0 00-7.523-3.483 5.45 5.45 0 00-3.019-.905h-3.604z"
      ></path>
      <path
        fill="#4F4F4F"
        d="M20.064 152.039c-1.96 23.524 10.776 41.274 23.314 41.274 12.702 0 28.17-17.451 25.597-41.024l-48.911-.25z"
      ></path>
      <path
        fill="#4B4B4B"
        d="M68.97 152.291l-24.704 4.311.85 36.944c-.423 5.239-.382 10.63.295 15.868l22.856-.153c1.22-29.683 1.795-37.911.703-56.97zM19.947 152.039l23.946 4.547v36.627c.161 5.444.032 10.849-.4 16.202l-22.884-.184c-1.056-29.765-1.613-39.468-.662-57.192z"
      ></path>
      <path
        fill="#C49D7A"
        fillRule="evenodd"
        d="M45.802 145.954a1.291 1.291 0 00-2.581 0v2.401a1.29 1.29 0 002.58 0v-2.401z"
        clipRule="evenodd"
      ></path>
      <path
        fill="#4B4B4B"
        d="M35.981 72.622h17.99c10.05 0 18.142 9.604 18.142 21.533 0 11.929-.35 27.63-17.77 24.781H35.98c-18 2.625-18.143-12.852-18.143-24.781 0-11.93 8.092-21.533 18.143-21.533z"
      ></path>
      <path
        fill="#4B4B4B"
        fillOpacity="0.99"
        d="M44.878 65.612c1.009 0 2.015.072 3.011.212C59.911 67.51 70.404 76.482 70.625 93.14l-.43 15.313-49.114-.234V93.141c-.214-17.172 10.614-27.529 23.797-27.529z"
      ></path>
      <path
        fill="#4F4F4F"
        d="M20.064 152.038c-1.96 23.524 10.776 41.275 23.314 41.275 12.702 0 28.17-17.452 25.597-41.025l-48.911-.25z"
      ></path>
      <path
        fill="#4B4B4B"
        d="M68.97 152.291l-24.704 4.311.85 36.944c-.423 5.239-.382 10.63.295 15.868l22.856-.153c1.22-29.683 1.795-37.911.703-56.97zM19.947 152.038l23.946 4.547v36.627c.161 5.444.032 10.849-.4 16.202l-22.884-.184c-1.056-29.765-1.613-39.468-.662-57.192z"
      ></path>
      <path
        fill="#fff"
        d="M39.288 271.647H26.853c-.66 0-1.197.936-1.197 2.091v18.325c0 1.156.536 2.091 1.197 2.091h12.435c.66 0 1.197-.935 1.197-2.091v-18.325c0-1.155-.536-2.091-1.197-2.091z"
      ></path>
      <path
        fill="#4B4B4B"
        d="M34.584 278.102h-4.343c-1.031 0-1.868 1.34-1.868 2.994v2.686c0 1.655.837 2.995 1.868 2.995h4.343c1.033 0 1.868-1.34 1.868-2.995v-2.686c0-1.654-.835-2.994-1.868-2.994z"
      ></path>
      <path
        fill="#4F4F4F"
        d="M35.77 282.715h-6.403c-3.692 0-6.685 4.796-6.685 10.715 0 5.918 2.993 10.714 6.685 10.714h6.403c3.692 0 6.685-4.796 6.685-10.714 0-5.919-2.993-10.715-6.685-10.715z"
      ></path>
      <path
        fill="#4F4F4F"
        d="M40.624 292.448H24.66c-1.272 0-2.303 1.589-2.303 3.548v4.64c0 1.961 1.031 3.55 2.303 3.55h15.964c1.273 0 2.304-1.589 2.304-3.55v-4.64c0-1.959-1.031-3.548-2.303-3.548z"
      ></path>
      <path
        fill="#fff"
        d="M41.622 299.696H23.515c-.46 0-.833.598-.833 1.335v1.745c0 .737.372 1.336.833 1.336h18.107c.46 0 .833-.599.833-1.336v-1.745c0-.737-.373-1.335-.833-1.335zM35.04 283.253h-5.077c-.264 0-.479.344-.479.768 0 .424.215.767.48.767h5.077c.263 0 .479-.343.479-.767s-.216-.768-.48-.768z"
      ></path>
      <path
        fill="#585858"
        d="M29.603 288.195h-2.44c-.86 0-1.558 1.117-1.558 2.497 0 1.379.699 2.498 1.558 2.498h2.44c.86 0 1.557-1.119 1.557-2.498 0-1.38-.697-2.497-1.557-2.497z"
      ></path>
      <path
        fill="#fff"
        d="M35.04 285.71h-5.077c-.264 0-.479.344-.479.767 0 .424.215.767.48.767h5.077c.263 0 .479-.343.479-.767 0-.423-.216-.767-.48-.767zM62.212 271.646H49.914c-.653 0-1.184.945-1.184 2.111v18.486c0 1.166.531 2.111 1.184 2.111h12.298c.653 0 1.183-.945 1.183-2.111v-18.486c0-1.166-.53-2.111-1.183-2.111z"
      ></path>
      <path
        fill="#4B4B4B"
        d="M58.382 278.188H54.13c-1.01 0-1.83 1.339-1.83 2.986v2.681c0 1.649.82 2.986 1.83 2.986h4.252c1.01 0 1.829-1.337 1.829-2.986v-2.681c0-1.647-.82-2.986-1.83-2.986z"
      ></path>
      <path
        fill="#4F4F4F"
        d="M59.496 282.759h-6.267c-3.615 0-6.545 4.783-6.545 10.686 0 5.902 2.93 10.685 6.545 10.685h6.267c3.615 0 6.809-4.699 6.809-10.6 0-5.903-3.194-10.771-6.81-10.771z"
      ></path>
      <path
        fill="#4F4F4F"
        d="M64.293 292.467H48.664c-1.244 0-2.254 1.585-2.254 3.538v4.628c0 1.955 1.01 3.54 2.254 3.54h15.629c1.244 0 2.254-1.585 2.254-3.54v-4.628c0-1.953-1.01-3.538-2.254-3.538z"
      ></path>
      <path
        fill="#fff"
        d="M65.225 299.694H47.5c-.45 0-.815.596-.815 1.331v1.741c0 .735.365 1.332.815 1.332h17.726c.45 0 .815-.597.815-1.332v-1.741c0-.735-.365-1.331-.815-1.331zM59.559 283.296h-4.97c-.26 0-.47.343-.47.766 0 .422.21.765.47.765h4.97c.258 0 .469-.343.469-.765 0-.423-.21-.766-.47-.766z"
      ></path>
      <path
        fill="#585858"
        d="M61.246 288.255H58.86c-.842 0-1.525 1.115-1.525 2.49 0 1.376.683 2.491 1.525 2.491h2.387c.843 0 1.525-1.115 1.525-2.491 0-1.375-.682-2.49-1.525-2.49z"
      ></path>
      <path
        fill="#fff"
        d="M59.559 285.775h-4.97c-.26 0-.47.344-.47.765 0 .424.21.767.47.767h4.97c.258 0 .469-.343.469-.767 0-.421-.21-.765-.47-.765z"
      ></path>
      <path
        fill="#D9B392"
        d="M45.182 41.099c8.333 0 15.042 9.517 15.042 21.34v8.755c0 11.823-6.403 15.152-14.736 15.124-8.765-.03-15.347-3.3-15.347-15.124V62.44c0-11.823 6.708-21.34 15.041-21.34z"
      ></path>
      <path
        fill="#C49D7A"
        d="M42.915 42.794h4.532c5.217 0 9.417 5.872 9.417 13.167v5.401c0 7.295-4.2 13.167-9.417 13.167h-4.532c-5.217 0-9.417-5.872-9.417-13.167v-5.401c0-7.295 4.2-13.167 9.417-13.167zM35.179 80.291c-.586 0-1.058.549-1.058 1.23 0 .683.472 1.231 1.058 1.231h5.88l1.689 1.432c.475.403 1.136.283 1.482-.27.346-.553.242-1.322-.232-1.725l-1.748-1.483c-.018-.015-.038-.024-.057-.037a.986.986 0 00-.76-.378h-6.254zm13.753 0c-.3 0-.569.145-.76.378-.019.013-.039.022-.057.037l-1.748 1.483c-.475.403-.578 1.172-.232 1.725.346.553 1.007.673 1.481.27l1.69-1.432h5.88c.586 0 1.058-.548 1.058-1.23 0-.682-.472-1.231-1.058-1.231h-6.254z"
      ></path>
      <path
        fill="#D9B392"
        d="M22.137 30.455h47.026a9.714 9.714 0 019.734 9.736 9.713 9.713 0 01-9.734 9.734H22.137a9.713 9.713 0 01-9.735-9.734 9.714 9.714 0 019.735-9.736z"
      ></path>
      <path
        fill="#C49D7A"
        d="M22.479 32.93h46.34a7.244 7.244 0 017.26 7.26 7.244 7.244 0 01-7.26 7.26h-46.34a7.244 7.244 0 01-7.26-7.26 7.244 7.244 0 017.26-7.26zM43.271 63.982h3.044c.244 0 .44.172.44.385v.227c0 .213-.196.385-.44.385H43.27c-.244 0-.44-.172-.44-.385v-.227c0-.213.196-.385.44-.385z"
      ></path>
      <path
        fill="#D9B392"
        d="M40.364 3.093h10.57c8.786 0 22.682 12.404 22.682 24.603v17.309c0 12.199-13.024 25.55-22.354 25.55H40.038c-9.33 0-22.354-13.351-22.354-25.55V27.696c0-12.199 13.894-24.603 22.68-24.603z"
      ></path>
      <path
        fill="#A27B5F"
        fillRule="evenodd"
        d="M48.605 19.637a10.863 10.863 0 00-6.063 0l-1.803.534a10.85 10.85 0 01-4.017.387l-2.862-.257c-2.095-.189-4.194.326-5.71 1.4-1.12.793-2.57 1.29-4.118 1.41l-3.297.258c-1.546.121-2.794.981-3.05 2.104l-.001.003V11.643c18.489-14.606 37.13-14.956 55.933 0v14.502l-.154-.672c-.258-1.123-1.505-1.983-3.052-2.104l-3.297-.258c-1.548-.12-2.997-.617-4.117-1.41-1.517-1.074-3.615-1.589-5.71-1.4l-2.862.258a10.85 10.85 0 01-4.018-.388l-1.802-.534z"
        clipRule="evenodd"
      ></path>
      <path
        fill="#C49D7A"
        d="M45.645 36.574c1.866 0 3.368 1.589 3.368 3.56v6.285c0 1.972-1.502 3.56-3.368 3.56-1.865 0-3.368-1.588-3.368-3.56v-6.284c0-1.972 1.503-3.56 3.368-3.56z"
      ></path>
      <path
        fill="#C49D7A"
        d="M51.259 45.941c0 1.572-1.33 2.836-2.983 2.836h-5.26c-1.651 0-2.98-1.264-2.98-2.836 0-1.57 1.328-2.835 2.98-2.835h5.26c1.652 0 2.983 1.264 2.983 2.835z"
      ></path>
      <path
        fill="#fff"
        d="M37.155 52.863c-.39 0-.765.126-1.041.35-.278.222-.432.526-.432.843v.897c0 1.771.63 3.395 1.744 4.632a6.388 6.388 0 004.732 2.114H49c1.93 0 3.617-.876 4.731-2.114 1.116-1.237 1.746-2.86 1.746-4.632v-.898c0-.316-.155-.62-.432-.843a1.671 1.671 0 00-1.043-.349H37.155z"
      ></path>
      <path
        fill="#4D4D4D"
        d="M29.09 31.54l8.1-2.876c.88-.312 2.095-.266 2.723.103.629.37.425.92-.455 1.232l-8.1 2.875c-.881.313-2.096.267-2.725-.103-.628-.37-.425-.92.456-1.232zM61.948 31.54l-8.1-2.876c-.881-.312-2.096-.266-2.724.103-.629.37-.425.92.456 1.232l8.1 2.875c.88.313 2.095.267 2.724-.103s.425-.92-.456-1.232z"
      ></path>
      <path
        fill="#61534B"
        d="M33.483 34.07h1.239c1.126 0 2.031.907 2.031 2.032v2.86c0 1.125-.905 2.03-2.031 2.03h-1.24a2.026 2.026 0 01-2.03-2.03v-2.86c0-1.125.905-2.032 2.03-2.032zM57.81 34.07h-1.24a2.027 2.027 0 00-2.03 2.032v2.86c0 1.125.905 2.03 2.03 2.03h1.24a2.026 2.026 0 002.031-2.03v-2.86a2.027 2.027 0 00-2.031-2.032z"
      ></path>
      <path
        fill="#C49D7A"
        d="M62.012 138.265c-16.775-4.994-34.014 0-34.014 0 0-1.13 8.062-4.994 17.24-4.994 9.176 0 16.774 3.864 16.774 4.994z"
      ></path>
    </svg>