    <svg
      xmlns="http://www.w3.org/2000/svg"
      width="127"
      height="317"
      fill="none"
      viewBox="0 0 127 317"
    >
      <path
        fill="#F6D2AF"
        d="M80.445 235.536h2.309c5.65 0 10.23 4.437 10.23 9.91v44.806l2.047 19.112c0 4.176-4.183 7.561-9.343 7.561H83.51c-5.16 0-9.343-3.385-9.343-7.561v-28.425c0-1.833-.486-3.635-1.41-5.234a10.442 10.442 0 01-1.411-5.234v-3.91c0-2.099.266-4.189.791-6.226l.019-.074c.538-2.084.81-4.225.81-6.375v-11.105c0-.422.038-.841.113-1.256.63-3.464 3.736-5.989 7.366-5.989z"
      ></path>
      <path
        fill="#F6D2AF"
        d="M83.534 165.849h5.893c3.317 0 6.292 1.974 7.493 4.968.23.577.39 1.18.474 1.794l4.354 31.829v13.812c0 1.792-.154 3.582-.46 5.35l-1.001 5.763a27.748 27.748 0 01-3.472 9.404l-2.922 4.936a6.828 6.828 0 00-.956 3.479c0 3.861-3.232 6.992-7.218 6.992h-4.985c-4.27 0-7.733-3.355-7.733-7.493 0-.9-.168-1.794-.495-2.637l-1.048-2.7a22.83 22.83 0 01-1.063-3.578l-1.593-7.607-1.532-9.696a31.37 31.37 0 01-.383-4.883v-33.607c0-8.906 7.453-16.126 16.647-16.126zM81.104 301.307h8.774c5.058 0 9.16 3.496 9.16 7.808 0 4.314-4.102 7.81-9.16 7.81h-8.774c-5.058 0-9.159-3.496-9.159-7.81 0-4.312 4.101-7.808 9.16-7.808z"
      ></path>
      <path
        fill="#F6D2AF"
        d="M74.978 304.521h21.026c1.675 0 3.033 1.68 3.033 3.75v4.904c0 2.072-1.358 3.75-3.033 3.75H74.978c-1.674 0-3.033-1.678-3.033-3.75v-4.904c0-2.07 1.359-3.75 3.033-3.75zM47.6 235.535h-2.31c-5.65 0-10.23 4.437-10.23 9.91v44.806l-2.046 19.112c0 4.176 4.182 7.561 9.342 7.561h2.178c5.16 0 9.343-3.385 9.343-7.561v-28.425c0-1.833.485-3.635 1.41-5.234a10.441 10.441 0 001.41-5.234v-3.91c0-2.099-.265-4.189-.79-6.226l-.019-.074a25.461 25.461 0 01-.81-6.375V242.78c0-.422-.038-.841-.113-1.256-.63-3.463-3.736-5.989-7.365-5.989z"
      ></path>
      <path
        fill="#F6D2AF"
        d="M45.965 165.848H36.8c-3.328 0-6.026 2.613-6.026 5.838l-4.481 32.753v13.812c0 1.792.153 3.582.46 5.35l1 5.763a27.783 27.783 0 003.473 9.404l2.922 4.936a6.831 6.831 0 01.956 3.479c0 3.861 3.232 6.992 7.218 6.992h4.985c4.27 0 7.733-3.355 7.733-7.492 0-.901.167-1.795.495-2.638l1.049-2.7a22.831 22.831 0 001.062-3.578l1.592-7.607 1.533-9.696a31.37 31.37 0 00.384-4.883v-35.018c0-8.127-6.802-14.715-15.19-14.715zM46.938 301.306h-8.773c-5.058 0-9.16 3.496-9.16 7.808 0 4.314 4.102 7.81 9.16 7.81h8.773c5.059 0 9.159-3.496 9.159-7.81 0-4.312-4.1-7.808-9.16-7.808z"
      ></path>
      <path
        fill="#F6D2AF"
        d="M53.064 304.521H32.039c-1.676 0-3.033 1.679-3.033 3.749v4.904c0 2.072 1.357 3.75 3.033 3.75h21.025c1.675 0 3.033-1.678 3.033-3.75v-4.904c0-2.07-1.358-3.749-3.033-3.749zM63.218 77.004c1.343 0 2.681.076 4.007.223 15.996 1.778 30.252 13.95 30.252 28.797l-2.511 15.896-4.9 27.364c0 16.078-9.307 18.45-26.848 18.45-17.541 0-25.753-2.372-25.753-18.45l-5.91-27.364v-15.896c0-16.077 14.122-29.02 31.663-29.02z"
      ></path>
      <path
        fill="#F6D2AF"
        d="M63.166 142.089h1.08c17.9 0 23.709-8.969 26.647 3.187l5.662 24.393c2.935 12.146-14.41 22.225-32.308 22.225h-1.08c-17.9 0-35.244-10.079-32.31-22.225l6.259-24.393c2.938-12.156 8.151-3.187 26.05-3.187z"
      ></path>
      <path
        fill="#F6D2AF"
        d="M63.128 131.085c12.9 0 23.287 13.527 23.287 30.329H39.842c0-16.802 10.385-30.329 23.286-30.329zM22.821 93.635c-5.467-1.025-12.048 1.123-13.253 7.155l-3.74 10.894a24.836 24.836 0 00-1.235 10.427L5.6 132.672c.23 2.409-.05 4.838-.015 7.257.06 4.238 2.054 7.346 6.367 8.153 4.71.884 7.837-1.388 9.383-5.89.525-1.528.935-3.097 1.55-4.593l2.798-6.791a24.863 24.863 0 001.775-11.778l-.578-6.212c-.15-1.617-.132-3.241-.057-4.862.206-4.457.112-13.55-4.002-14.321z"
      ></path>
      <path
        fill="#F6D2AF"
        d="M14.261 128.115l-.07-.002c-4.48-.134-8.366 4.685-8.679 10.763l-2.347 45.643c-.313 6.079 3.065 11.115 7.547 11.249l.07.003c4.48.134 8.366-4.686 8.679-10.765l2.347-45.643c.313-6.079-3.066-11.115-7.547-11.248z"
      ></path>
      <path
        fill="#F6D2AF"
        d="M14.164 175.141l-2.816-.015c-5.397-.028-10.026 5.646-10.341 12.673l-.28 6.242c-.314 7.027 3.806 12.746 9.203 12.773l2.816.016c5.397.027 10.026-5.646 10.34-12.673l.28-6.243c.315-7.026-3.805-12.745-9.202-12.773z"
      ></path>
      <path
        fill="#F6D2AF"
        d="M14.86 192.897c-1.174-4.469-5.314-6.732-9.246-5.054-3.932 1.677-6.169 6.66-4.995 11.128l3.207 12.205c1.174 4.468 5.314 6.731 9.246 5.053 3.933-1.677 6.168-6.659 4.995-11.128l-3.207-12.204z"
      ></path>
      <path
        fill="#F2BF92"
        d="M24.065 190.511c.132-3.115-1.67-5.651-4.027-5.665-2.356-.015-4.373 2.5-4.507 5.615l-.362 8.508c-.133 3.115 1.67 5.652 4.027 5.666 2.356.013 4.374-2.5 4.507-5.615l.362-8.509z"
      ></path>
      <path
        fill="#F6D2AF"
        d="M103.876 93.635c5.467-1.025 12.049 1.123 13.253 7.155l3.739 10.894a24.827 24.827 0 011.237 10.427l-1.008 10.561c-.23 2.409.049 4.838.015 7.257-.06 4.238-2.055 7.346-6.367 8.153-4.708.884-7.836-1.388-9.383-5.89-.525-1.528-.934-3.097-1.55-4.593l-2.798-6.791a24.862 24.862 0 01-1.775-11.778l.578-6.212c.15-1.617.133-3.241.058-4.862-.206-4.457-.113-13.55 4.001-14.321z"
      ></path>
      <path
        fill="#F6D2AF"
        d="M112.434 128.115l.071-.002c4.48-.134 8.366 4.685 8.679 10.763l2.348 45.643c.312 6.079-3.067 11.115-7.548 11.249l-.07.003c-4.48.134-8.367-4.686-8.679-10.765l-2.348-45.643c-.312-6.079 3.067-11.115 7.547-11.248z"
      ></path>
      <path
        fill="#F6D2AF"
        d="M112.534 175.141l2.815-.015c5.397-.028 10.028 5.646 10.341 12.673l.28 6.242c.314 7.027-3.806 12.746-9.202 12.773l-2.816.016c-5.398.027-10.027-5.646-10.342-12.673l-.279-6.243c-.314-7.026 3.806-12.745 9.203-12.773z"
      ></path>
      <path
        fill="#F6D2AF"
        d="M111.838 192.897c1.174-4.469 5.314-6.732 9.246-5.054 3.933 1.677 6.168 6.66 4.994 11.128l-3.207 12.205c-1.173 4.468-5.314 6.731-9.246 5.053-3.932-1.677-6.168-6.659-4.994-11.128l3.207-12.204z"
      ></path>
      <path
        fill="#F2BF92"
        d="M102.632 190.511c-.132-3.115 1.67-5.651 4.027-5.665 2.357-.015 4.375 2.5 4.507 5.615l.362 8.508c.133 3.115-1.67 5.652-4.026 5.666-2.357.013-4.375-2.5-4.508-5.615l-.362-8.509z"
      ></path>
      <path
        fill="#F6D2AF"
        d="M22.609 85.958h81.631c8.09 0 14.603 5.88 14.603 13.183 0 7.304-6.513 13.184-14.603 13.184H22.609c-8.09 0-14.603-5.88-14.603-13.184 0-7.304 6.513-13.183 14.603-13.183z"
      ></path>
      <path
        fill="#F6D2AF"
        d="M50.62 84.394h25.455c14.223 0 25.673 10.123 25.673 22.698 0 12.575-11.45 22.698-25.673 22.698H50.62c-14.222 0-25.673-10.123-25.673-22.698 0-12.575 11.45-22.698 25.673-22.698z"
      ></path>
      <path
        fill="#815848"
        fillOpacity="0.99"
        d="M64.024 112.324c3.312 0 5.978 2.584 5.978 5.793v5.371c0 3.21-2.666 5.793-5.978 5.793-3.313 0-5.98-2.583-5.98-5.793v-5.371c0-3.209 2.667-5.793 5.98-5.793z"
      ></path>
      <path
        fill="#F6D2AF"
        d="M48.924 106.246c-1.581 0-3.047.397-4.27 1.078-4.06.221-7.866 1.705-10.646 4.15-2.78 2.444-4.328 5.668-4.328 9.018 0 3.5 1.689 6.857 4.697 9.332 3.006 2.476 7.085 3.865 11.338 3.865 3.874-.003 7.615-1.161 10.532-3.259s4.813-4.994 5.337-8.155a5.54 5.54 0 00.166-1.342v-8.203c0-3.592-3.446-6.484-7.725-6.484h-5.1zm23.75 0c-4.278 0-7.724 2.892-7.724 6.484v8.203c0 .46.058.91.166 1.342.524 3.161 2.42 6.057 5.337 8.155 2.917 2.098 6.659 3.256 10.533 3.259 4.253 0 8.33-1.389 11.338-3.865 3.007-2.475 4.697-5.832 4.697-9.332-.001-3.35-1.548-6.574-4.33-9.018-2.78-2.445-6.585-3.929-10.645-4.15-1.222-.681-2.688-1.078-4.27-1.078h-5.101z"
      ></path>
      <path
        fill="#F2BF92"
        d="M58.247 136.107h-3.981c-1.82 0-3.293 1.051-3.293 2.347v2.718c0 1.297 1.473 2.348 3.293 2.348h3.981c1.818 0 3.293-1.051 3.293-2.348v-2.718c0-1.296-1.475-2.347-3.293-2.347zM58.248 144.318h-6.064c-1.82 0-3.293 1.051-3.293 2.348v2.717c0 1.297 1.473 2.348 3.293 2.348h6.064c1.82 0 3.293-1.051 3.293-2.348v-2.717c0-1.297-1.473-2.348-3.293-2.348zM58.248 152.356h-6.064c-1.82 0-3.293 1.05-3.293 2.347v2.718c0 1.297 1.473 2.348 3.293 2.348h6.064c1.82 0 3.293-1.051 3.293-2.348v-2.718c0-1.297-1.473-2.347-3.293-2.347zM67.994 136.107h3.982c1.818 0 3.293 1.051 3.293 2.347v2.718c0 1.297-1.475 2.348-3.293 2.348h-3.982c-1.82 0-3.293-1.051-3.293-2.348v-2.718c0-1.296 1.474-2.347 3.293-2.347zM67.992 144.318h6.066c1.818 0 3.293 1.051 3.293 2.348v2.717c0 1.297-1.475 2.348-3.293 2.348h-6.066c-1.818 0-3.293-1.051-3.293-2.348v-2.717c0-1.297 1.475-2.348 3.293-2.348zM67.992 152.356h6.066c1.818 0 3.293 1.05 3.293 2.347v2.718c0 1.297-1.475 2.348-3.293 2.348h-6.066c-1.818 0-3.293-1.051-3.293-2.348v-2.718c0-1.297 1.475-2.347 3.293-2.347z"
      ></path>
      <path
        fill="#4F4F4F"
        d="M32.795 162.049c1.707 23.264 14.82 41.27 30.551 41.27 15.938 0 29.985-17.568 31.42-41.27H32.795z"
      ></path>
      <path
        fill="#4B4B4B"
        d="M94.795 162.045l-30.37 4.563-.255 36.614 2.85 16.046h34.804c.213-29.684-.143-39.711-7.029-57.223zM32.812 162.012l31.089 4.579v36.628L61 219.264H26.278c-.221-29.782-.553-39.683 6.534-57.252z"
      ></path>
      <path
        fill="#4F4F4F"
        d="M50.62 84.394h25.455c14.223 0 25.673 10.123 25.673 22.698 0 10.174-2.195 25.51-14.853 27.586-2.987.49-6.558.241-10.82-.989H50.62c-24.344 6.257-25.673-14.022-25.673-26.597 0-12.575 11.45-22.698 25.673-22.698z"
      ></path>
      <path
        fill="#4F4F4F"
        fillOpacity="0.99"
        d="M63.218 77.004c1.343 0 2.681.076 4.007.223 15.996 1.778 30.252 13.95 30.252 28.797l-2.511 15.896-19.07.449c4.845-14.525-30.087-12.21-34.566 0l-9.775-.449v-15.896c0-16.077 14.122-29.02 31.663-29.02z"
      ></path>
      <path
        fill="#4F4F4F"
        d="M32.795 162.049c1.707 23.264 14.82 41.27 30.551 41.27 15.938 0 29.985-17.568 31.42-41.27H32.795z"
      ></path>
      <path
        fill="#4B4B4B"
        d="M94.795 162.045l-30.37 4.563-.255 36.614 2.85 16.046h34.804c.213-29.684-.143-39.711-7.029-57.223zM32.812 162.012l31.089 4.579v36.628L61 219.264H26.278c-.221-29.782-.553-39.683 6.534-57.252z"
      ></path>
      <path
        fill="#fff"
        fillRule="evenodd"
        d="M53.959 283.733H35.043l-.772 13.534 19.805 2.696-.117-16.23zM74.168 283.733h18.817l.772 13.141-19.706 3.089.117-16.23z"
        clipRule="evenodd"
      ></path>
      <path
        fill="#4B4B4B"
        d="M45.544 291.178H39.67c-1.396 0-2.527 1.325-2.527 2.959v2.656c0 1.635 1.131 2.961 2.527 2.961h5.874c1.396 0 2.527-1.326 2.527-2.961v-2.656c0-1.634-1.13-2.959-2.527-2.959z"
      ></path>
      <path
        fill="#4F4F4F"
        d="M47.149 295.738h-8.661c-4.993 0-9.043 4.742-9.043 10.592 0 5.85 4.05 10.591 9.043 10.591h8.66c4.994 0 9.042-4.741 9.042-10.591s-4.048-10.592-9.041-10.592z"
      ></path>
      <path
        fill="#4F4F4F"
        d="M53.715 305.36H32.12c-1.72 0-3.188-.034-3.114 3.508v4.586c0 1.939 1.394 3.51 3.114 3.51h21.594c1.72 0 3.115-1.571 3.115-3.51v-4.586c0-1.937-1.394-3.508-3.115-3.508z"
      ></path>
      <path
        fill="#fff"
        d="M55.064 312.524H30.573c-.624 0-1.128.591-1.128 1.32v1.725c0 .729.504 1.32 1.128 1.32h24.491c.622 0 1.126-.591 1.126-1.32v-1.725c0-.729-.504-1.32-1.126-1.32zM46.164 296.271h-6.868c-.358 0-.648.339-.648.759 0 .418.29.758.648.758h6.868c.357 0 .648-.34.648-.758 0-.42-.291-.759-.648-.759z"
      ></path>
      <path
        fill="#585858"
        d="M48.497 301.156h-3.3c-1.163 0-2.107 1.105-2.107 2.469 0 1.363.944 2.468 2.107 2.468h3.3c1.164 0 2.106-1.105 2.106-2.468 0-1.364-.942-2.469-2.106-2.469z"
      ></path>
      <path
        fill="#fff"
        d="M46.164 298.698h-6.868c-.358 0-.648.34-.648.759 0 .418.29.758.648.758h6.868c.357 0 .648-.34.648-.758 0-.419-.291-.759-.648-.759z"
      ></path>
      <path
        fill="#4B4B4B"
        d="M87.899 291.207h-5.8c-1.378 0-2.496 1.326-2.496 2.96v2.656c0 1.635 1.118 2.96 2.495 2.96h5.8c1.378 0 2.496-1.325 2.496-2.96v-2.656c0-1.634-1.118-2.96-2.495-2.96z"
      ></path>
      <path
        fill="#4F4F4F"
        d="M89.42 295.738h-8.55c-4.931 0-8.929 4.742-8.929 10.592 0 5.85 3.998 10.591 8.929 10.591h8.55c4.93 0 9.288-4.657 9.288-10.507s-4.358-10.676-9.289-10.676z"
      ></path>
      <path
        fill="#4F4F4F"
        d="M95.963 305.36h-21.32c-1.697 0-3.075 1.57-3.075 3.507v4.587c0 1.938 1.378 3.509 3.075 3.509h21.32c1.698 0 3.074-1.571 3.074-3.509v-4.587c-.049-3.715-1.376-3.507-3.074-3.507z"
      ></path>
      <path
        fill="#fff"
        d="M97.235 312.524h-24.18c-.615 0-1.114.591-1.114 1.32v1.725c0 .729.5 1.32 1.113 1.32h24.18c.615 0 1.113-.591 1.113-1.32v-1.725c0-.729-.498-1.32-1.112-1.32zM89.504 296.271h-6.78c-.354 0-.64.339-.64.759 0 .418.286.758.64.758h6.78c.353 0 .64-.34.64-.758 0-.42-.287-.759-.64-.759z"
      ></path>
      <path
        fill="#585858"
        d="M91.808 301.186H88.55c-1.149 0-2.08 1.105-2.08 2.468s.931 2.468 2.08 2.468h3.257c1.149 0 2.08-1.105 2.08-2.468s-.931-2.468-2.08-2.468z"
      ></path>
      <path
        fill="#fff"
        d="M89.504 298.728h-6.78c-.354 0-.64.34-.64.758 0 .419.286.759.64.759h6.78c.353 0 .64-.34.64-.759 0-.418-.287-.758-.64-.758z"
      ></path>
      <path
        fill="#F6D2AF"
        d="M63.553 47.118c8.333 0 15.042 10.096 15.042 22.638v9.287c0 12.541-6.403 16.072-14.736 16.043-8.765-.031-15.347-3.501-15.347-16.043v-9.287c0-12.542 6.708-22.638 15.041-22.638z"
      ></path>
      <path
        fill="#F2BF92"
        d="M61.286 48.813h4.532c5.217 0 9.417 5.873 9.417 13.167v5.402c0 7.295-4.2 13.167-9.417 13.167h-4.532c-5.217 0-9.417-5.872-9.417-13.167V61.98c0-7.294 4.2-13.166 9.417-13.166zM51.572 86.31c-.702 0-1.267.55-1.267 1.231 0 .682.565 1.23 1.267 1.23h7.044l2.022 1.433c.569.403 1.36.282 1.775-.27a1.21 1.21 0 00-.278-1.725l-2.094-1.483c-.021-.015-.045-.024-.068-.038a1.275 1.275 0 00-.91-.377h-7.491zm16.474 0c-.36 0-.682.146-.911.378-.023.014-.047.023-.068.038l-2.094 1.483a1.209 1.209 0 00-.278 1.725 1.291 1.291 0 001.775.27l2.022-1.432h7.044c.702 0 1.267-.549 1.267-1.23 0-.682-.565-1.231-1.267-1.231h-7.49z"
      ></path>
      <path
        fill="#F6D2AF"
        d="M40.508 36.475h47.026a9.714 9.714 0 019.734 9.735 9.713 9.713 0 01-9.734 9.735H40.508a9.713 9.713 0 01-9.735-9.735 9.714 9.714 0 019.735-9.735z"
      ></path>
      <path
        fill="#F2BF92"
        d="M40.85 38.95h46.34a7.244 7.244 0 017.26 7.26 7.244 7.244 0 01-7.26 7.26H40.85a7.244 7.244 0 01-7.26-7.26 7.244 7.244 0 017.26-7.26z"
      ></path>
      <path
        fill="#815747"
        d="M61.642 70.002h3.044c.244 0 .44.172.44.385v.227c0 .213-.196.385-.44.385h-3.044c-.244 0-.44-.172-.44-.385v-.227c0-.213.196-.385.44-.385z"
      ></path>
      <path
        fill="#F6D2AF"
        d="M58.735 9.112h10.57c8.786 0 22.682 12.405 22.682 24.604v17.308c0 12.2-13.023 25.55-22.354 25.55H58.41c-9.33 0-22.354-13.35-22.354-25.55V33.716c0-12.2 13.894-24.604 22.68-24.604z"
      ></path>
      <path
        fill="#4F4F4F"
        d="M59.551 6.307a27.518 27.518 0 00-27.578 27.578c0 5.8 1.775 11.167 4.81 15.6V37.764c0-4.37 2.175-8.769 5.33-12.473l11.969-.02a8.688 8.688 0 008.66-9.534h2.563a8.688 8.688 0 008.66 9.533l11.996.02c3.155 3.705 5.33 8.104 5.33 12.474v11.72a27.507 27.507 0 004.812-15.599 27.519 27.519 0 00-27.58-27.578h-8.972z"
      ></path>
      <path
        fill="#4F4F4F"
        d="M72.402.127h-16.77a7.759 7.759 0 00-7.759 7.76v3.948a7.76 7.76 0 007.76 7.76h16.769a7.76 7.76 0 007.76-7.76V7.886a7.76 7.76 0 00-7.76-7.759z"
      ></path>
      <path
        fill="#F2BF92"
        d="M64.016 42.594c1.866 0 3.368 1.588 3.368 3.56v6.285c0 1.972-1.502 3.56-3.368 3.56-1.865 0-3.368-1.588-3.368-3.56v-6.285c0-1.972 1.503-3.56 3.368-3.56z"
      ></path>
      <path
        fill="#F2BF92"
        d="M69.63 51.96c0 1.573-1.33 2.837-2.982 2.837h-5.26c-1.652 0-2.982-1.264-2.982-2.836 0-1.571 1.33-2.835 2.981-2.835h5.26c1.652 0 2.983 1.264 2.983 2.835zM55.527 62.58c-.39 0-.765.043-1.041.121-.278.078-.432.185-.432.295v.315c0 .62-.388 1.613.726 2.046 1.116.434 3.82.315 5.75.315h6.843c1.93 0 4.422.23 5.538-.204 1.115-.434.94-1.537.94-2.157v-.315c0-.11-.156-.217-.433-.295a4.037 4.037 0 00-1.043-.122H55.527z"
      ></path>
      <path
        fill="#4D4D4D"
        d="M47.27 35.166l9.504.193c1.034.021 1.848.87 1.827 1.903A1.862 1.862 0 0156.7 39.09l-9.505-.193a1.862 1.862 0 01-1.827-1.903 1.862 1.862 0 011.904-1.828zM80.77 35.166l-9.503.193a1.862 1.862 0 00-1.828 1.903 1.862 1.862 0 001.903 1.827l9.505-.192a1.862 1.862 0 001.827-1.903 1.862 1.862 0 00-1.904-1.828z"
      ></path>
      <path
        fill="#61534B"
        d="M51.854 40.09h1.239c1.126 0 2.031.907 2.031 2.031v2.86c0 1.125-.905 2.031-2.031 2.031h-1.24a2.026 2.026 0 01-2.03-2.03v-2.86c0-1.125.905-2.032 2.03-2.032zM76.18 40.09h-1.238a2.027 2.027 0 00-2.032 2.031v2.86c0 1.125.906 2.031 2.032 2.031h1.239a2.026 2.026 0 002.031-2.03v-2.86a2.027 2.027 0 00-2.031-2.032z"
      ></path>
    </svg>