    <svg
      xmlns="http://www.w3.org/2000/svg"
      width="122"
      height="339"
      fill="none"
      viewBox="0 0 122 339"
    >
      <path
        fill="#AD6F4B"
        d="M98.762 108.658l4.297-4.993c3.201-3.402 7.597-3.247 9.177.323l5.253 11.868a17.1 17.1 0 011.248 4.366l1.026 6.763c.544 3.585.519 7.412-.076 11.315l-1.071 7.027a20.049 20.049 0 00-.236 3.035v2.417c0 1.16-.252 2.374-.734 3.533-.65 1.563-.831 3.201-.802 4.755.109 5.968-2.728 11.819-5.715 13.256l-.052.025c-3.378 1.625-6.967-2.49-8.018-9.192l-1.821-6.431-3.236-13.459c-.876-3.643-1.12-7.618-.72-11.728l.569-5.83.5-5.847c.112-1.289-.153-2.477-.75-3.372-1.378-2.069-.874-5.466 1.16-7.831z"
      ></path>
      <path
        fill="#AD6F4B"
        d="M110.707 134.713l.063.003c4.027.208 7.366 5.681 7.456 12.226l.683 49.14c.09 6.544-3.101 11.682-7.128 11.474l-.063-.004c-4.027-.207-7.365-5.681-7.456-12.224l-.682-49.14c-.091-6.545 3.1-11.682 7.127-11.475z"
      ></path>
      <path
        fill="#AD6F4B"
        d="M108.361 187.078l2.649.222c5.077.426 9.266 6.936 9.358 14.54l.081 6.755c.091 7.604-3.951 13.421-9.028 12.995l-2.649-.223c-5.076-.427-9.265-6.937-9.357-14.541l-.082-6.753c-.09-7.604 3.951-13.422 9.028-12.995z"
      ></path>
      <path
        fill="#AD6F4B"
        d="M106.629 206.054c1.288-4.665 5.495-6.69 9.399-4.525 3.904 2.167 6.025 7.705 4.737 12.371l-3.517 12.741c-1.287 4.665-5.495 6.69-9.398 4.523-3.904-2.166-6.025-7.704-4.737-12.369l3.516-12.741z"
      ></path>
      <path
        fill="#9A5731"
        d="M98.33 202.845c-.03-3.36 1.711-5.938 3.887-5.76 2.177.178 3.965 3.047 3.994 6.407l.08 9.177c.03 3.36-1.71 5.939-3.886 5.759-2.177-.178-3.965-3.047-3.995-6.407l-.08-9.176z"
      ></path>
      <path
        fill="#AD6F4B"
        d="M23.21 108.658l-4.297-4.993c-3.2-3.402-7.598-3.247-9.177.323l-5.253 11.868a17.146 17.146 0 00-1.25 4.366l-1.025 6.763c-.544 3.585-.518 7.412.077 11.315l1.071 7.027a20.14 20.14 0 01.235 3.035v2.417c0 1.16.252 2.374.735 3.533.65 1.563.83 3.201.802 4.755-.11 5.968 2.728 11.819 5.714 13.256l.052.025c3.378 1.625 6.968-2.49 8.019-9.192l1.82-6.431 3.237-13.459c.875-3.643 1.119-7.618.719-11.728l-.568-5.83-.5-5.847c-.112-1.289.153-2.477.749-3.372 1.378-2.069.874-5.466-1.16-7.831z"
      ></path>
      <path
        fill="#AD6F4B"
        d="M11.261 134.713l-.063.003c-4.027.208-7.365 5.681-7.456 12.226l-.681 49.14c-.092 6.544 3.1 11.682 7.127 11.474l.062-.004c4.028-.207 7.366-5.681 7.458-12.224l.681-49.14c.091-6.545-3.1-11.682-7.128-11.475z"
      ></path>
      <path
        fill="#AD6F4B"
        d="M13.609 187.078l-2.65.222c-5.076.426-9.266 6.936-9.357 14.54l-.081 6.755c-.091 7.604 3.95 13.421 9.026 12.995l2.65-.223c3.217-.27 6.079-2.984 7.765-6.871.976-2.247 1.558-4.885 1.592-7.67l.081-6.753c.091-7.604-3.95-13.422-9.026-12.995z"
      ></path>
      <path
        fill="#AD6F4B"
        d="M15.34 206.054c-1.287-4.665-5.496-6.69-9.398-4.525-3.904 2.167-6.025 7.705-4.737 12.371l3.516 12.741c1.287 4.665 5.495 6.69 9.399 4.523 3.904-2.166 6.025-7.704 4.737-12.369l-3.517-12.741z"
      ></path>
      <path
        fill="#9A5731"
        d="M23.639 202.845c.03-3.36-1.71-5.938-3.887-5.76-2.176.178-3.965 3.047-3.994 6.407l-.08 9.177c-.03 3.36 1.71 5.939 3.887 5.759 2.176-.178 3.965-3.047 3.994-6.407l.08-9.176z"
      ></path>
      <path
        fill="#AD6F4B"
        d="M48.872 253.513h-2.067c-4.924 0-8.917 4.638-8.917 10.36v46.165l-1.782 19.742c0 4.315 3.642 7.811 8.134 7.811h1.898c4.493 0 8.135-3.496 8.135-7.811v-28.827c0-2.007.423-3.983 1.229-5.76a13.945 13.945 0 001.23-5.759v-3.79a31.06 31.06 0 00-.707-6.588 31.017 31.017 0 01-.705-6.589v-11.462c0-.44-.034-.879-.1-1.313-.548-3.574-3.223-6.179-6.348-6.179z"
      ></path>
      <path
        fill="#AD6F4B"
        d="M47.136 175.388h-12.15c-.595 0-1.078.561-1.078 1.253l-3.902 42.294v14.762c0 1.873.13 3.745.394 5.593l.88 6.205a33.909 33.909 0 003.025 10.002l2.548 5.266a8.434 8.434 0 01.826 3.664c0 4.125 2.88 7.47 6.43 7.47h4.046c3.802 0 6.885-3.582 6.885-8 0-.945.143-1.882.424-2.769l.92-2.89c.392-1.24.702-2.515.924-3.812l1.388-8.101 1.34-10.371c.218-1.691.328-3.396.328-5.106v-40.09c0-8.49-5.922-15.37-13.228-15.37zM48.78 321.165h-7.64c-4.405 0-7.976 3.701-7.976 8.267 0 4.565 3.57 8.265 7.976 8.265h7.64c4.404 0 7.976-3.7 7.976-8.265 0-4.566-3.572-8.267-7.976-8.267z"
      ></path>
      <path
        fill="#AD6F4B"
        d="M54.114 328.633H35.806c-1.459 0-2.642 1.226-2.642 2.737v3.581c0 1.512 1.183 2.737 2.642 2.737h18.309c1.459 0 2.64-1.225 2.64-2.737v-3.581c0-1.511-1.181-2.737-2.64-2.737zM73.39 251.837h1.96c4.915 0 8.9 4.631 8.9 10.342l.002 27.702-.001 19.669 1.783 20.158c0 4.405-3.642 7.975-8.136 7.975H76c-4.493 0-8.135-3.57-8.135-7.975V299.72c0-1.929-.424-3.827-1.23-5.515a12.847 12.847 0 01-1.228-5.513v-4.133c0-2.213.232-4.417.69-6.565l.016-.078c.469-2.199.705-4.457.705-6.723v-11.722c0-.439.033-.878.098-1.311.548-3.655 3.28-6.323 6.473-6.323z"
      ></path>
      <path
        fill="#AD6F4B"
        d="M76.419 175.356h7.09c1.826 0 3.452 1.348 4.048 3.355.087.296.151.603.189.913l4.507 36.434c.2 1.62.3 3.255.3 4.891v12.11c0 1.892-.134 3.78-.4 5.646l-.872 6.086a33.437 33.437 0 01-3.025 9.913l-2.547 5.21a8.336 8.336 0 00-.83 3.649c0 4.08-2.846 7.388-6.358 7.388h-4.19c-3.761 0-6.812-3.542-6.812-7.913 0-.943-.144-1.879-.428-2.762l-.915-2.855a27.97 27.97 0 01-.925-3.776l-1.388-8.024-1.334-10.225a39.895 39.895 0 01-.334-5.153v-38.36c0-9.127 6.369-16.527 14.224-16.527zM74.31 321.165h7.64c4.405 0 7.977 3.689 7.977 8.238 0 4.549-3.572 8.237-7.977 8.237h-7.64c-4.404 0-7.976-3.688-7.976-8.237 0-4.549 3.572-8.238 7.977-8.238z"
      ></path>
      <path
        fill="#AD6F4B"
        d="M68.975 324.172h18.31c1.459 0 2.642 1.77 2.642 3.955v5.172c0 2.184-1.184 3.955-2.642 3.955h-18.31c-1.458 0-2.641-1.771-2.641-3.955v-5.172c0-2.185 1.183-3.955 2.641-3.955zM90.66 135.604c0-21.342-14.77-29.576-29.755-29.576-14.986 0-28.667 8.234-28.667 29.576l1.533 36.989c0 21.343 12.148 38.645 27.134 38.645 14.985 0 27.134-12.441 27.134-33.783l2.62-41.851z"
      ></path>
      <path
        fill="#AD6F4B"
        d="M97.992 87.517H23.114c-8.105 0-14.677 7.634-14.677 17.052 0 9.417 6.572 17.052 14.677 17.052h74.878c8.105 0 14.675-7.635 14.675-17.052 0-9.418-6.57-17.052-14.675-17.052z"
      ></path>
      <path
        fill="#AD6F4B"
        d="M100.482 113.434c0-19.784-17.801-35.822-39.759-35.822-21.96 0-39.76 16.038-39.76 35.822 0 19.782 17.8 35.82 39.76 35.82 8.183 0 15.79-2.228 22.112-6.046 10.642-6.428 17.647-17.365 17.647-29.774z"
      ></path>
      <path
        fill="#AD6F4B"
        d="M63.003 139.78H58.61c-10.474 0-18.964 8.93-18.964 19.945 0 0 .152 13.074.218 13.052l21.584 11.283c-.067-.065 21.244-11.119 20.97-11.283-.227-.136.008.041 0 0l-.453-13.052c0-11.015-8.49-19.945-18.963-19.945z"
      ></path>
      <path
        fill="#9A5731"
        d="M81.277 87.517h-41.11c-10.606 0-19.204 8.792-19.204 19.64v11.837c0 10.845 8.598 19.639 19.204 19.639h41.11c10.607 0 19.205-8.794 19.205-19.639v-11.837c0-10.848-8.598-19.64-19.205-19.64z"
      ></path>
      <path
        fill="#AD6F4B"
        d="M84.865 87.517H36.58c-8.626 0-15.618 8.17-15.618 18.251v11c0 10.08 6.992 18.252 15.618 18.252h48.284c8.625 0 15.617-8.172 15.617-18.252v-11c0-10.081-6.992-18.251-15.617-18.251z"
      ></path>
      <path
        fill="#9A5731"
        d="M64.045 127.52c0-1.245-1.498-2.253-3.349-2.253-1.849 0-3.348 1.008-3.348 2.253v4.369c0 1.244 1.5 2.253 3.348 2.253 1.85 0 3.35-1.009 3.35-2.253v-4.369zM39.422 129.379h-2.844c-1.133 0-2.053.965-2.053 2.155 0 1.187.92 2.152 2.053 2.152h2.844c1.134 0 2.052-.965 2.052-2.152 0-1.19-.918-2.155-2.052-2.155zM85.716 129.379h-2.843c-1.134 0-2.053.965-2.053 2.155 0 1.187.92 2.152 2.053 2.152h2.843c1.135 0 2.053-.965 2.053-2.152 0-1.19-.919-2.155-2.053-2.155zM56.112 145.396h-5.037c-2.402 0-4.348 1.972-4.348 4.405 0 2.433 1.946 4.405 4.349 4.405h5.036c2.402 0 4.349-1.972 4.349-4.405 0-2.433-1.947-4.405-4.35-4.405zM56.112 155.869h-5.037c-2.402 0-4.348 1.973-4.348 4.405 0 2.433 1.946 4.406 4.349 4.406h5.036c2.402 0 4.349-1.973 4.349-4.406 0-2.432-1.947-4.405-4.35-4.405zM56.112 166.153h-5.037c-2.402 0-4.348 1.972-4.348 4.405 0 2.433 1.946 4.405 4.349 4.405h5.036c2.402 0 4.349-1.972 4.349-4.405 0-2.433-1.947-4.405-4.35-4.405zM71.58 145.396h-5.036c-2.402 0-4.349 1.972-4.349 4.404 0 2.434 1.947 4.406 4.35 4.406h5.035a4.28 4.28 0 001.696-.348 4.408 4.408 0 002.653-4.058c0-2.432-1.947-4.404-4.349-4.404zM71.58 155.869h-5.036c-2.402 0-4.349 1.973-4.349 4.405 0 2.433 1.947 4.406 4.35 4.406h5.035c2.402 0 4.349-1.973 4.349-4.406 0-2.432-1.947-4.405-4.349-4.405zM71.58 166.152h-5.036c-2.402 0-4.349 1.972-4.349 4.406 0 2.432 1.947 4.404 4.35 4.404h5.035c2.402 0 4.349-1.972 4.349-4.404 0-2.434-1.947-4.406-4.349-4.406z"
      ></path>
      <path
        fill="#4F4F4F"
        d="M38.08 177.635c-.04.029-4.25-.012-4.248.014 1.528 19.413 13.178 35.149 27.25 35.149 14.256 0 25.67-15.382 26.953-35.16l-49.955-.003z"
      ></path>
      <path
        fill="#4B4B4B"
        d="M88.034 177.635l-26.673 6.023v51.316h33c.253-15.425-3.939-39.398-6.327-57.339zM33.831 177.635l27.15 6.023v51.316H28.894c-.252-15.425 2.548-39.398 4.936-57.339z"
      ></path>
      <path
        fill="#AD6F4B"
        d="M77.81 73.047c0-10.915-7.389-19.764-16.506-19.764-9.119 0-16.51 8.849-16.51 19.764v8.11c0 10.915 7.391 19.764 16.51 19.764 9.117 0 16.507-8.849 16.507-19.765v-8.109z"
      ></path>
      <path
        fill="#9A5731"
        d="M55.234 96.133l-9.01-4.33a2.014 2.014 0 10-1.746 3.63l9.012 4.333a2.014 2.014 0 101.744-3.633zM66.186 96.133l9.012-4.33a2.016 2.016 0 012.69.942 2.016 2.016 0 01-.945 2.688l-9.01 4.333a2.015 2.015 0 01-1.747-3.632zM64.124 54.612h-6.402c-7.35 0-13.308 5.958-13.308 13.307v5.46c0 7.349 5.958 13.306 13.308 13.306h6.402c7.35 0 13.307-5.957 13.307-13.306v-5.46c0-7.349-5.958-13.307-13.306-13.307z"
      ></path>
      <path
        fill="#AD6F4B"
        d="M83.944 43.03H38.191c-5.23 0-9.471 4.405-9.471 9.839s4.24 9.839 9.471 9.839h45.752c5.23 0 9.472-4.405 9.472-9.84 0-5.433-4.242-9.838-9.472-9.838z"
      ></path>
      <path
        fill="#9A5731"
        d="M84.225 44.518H38.173c-3.985 0-7.214 3.284-7.214 7.337 0 4.052 3.23 7.337 7.214 7.337h46.052c3.984 0 7.214-3.285 7.214-7.337 0-4.053-3.23-7.337-7.214-7.337z"
      ></path>
      <path
        fill="#AD6F4B"
        d="M68.086 14.426H54.315c-11.409 0-20.659 9.248-20.659 20.658v24.483c0 11.411 9.25 20.661 20.659 20.661h13.771c11.41 0 20.66-9.25 20.66-20.661V35.084c0-11.41-9.25-20.658-20.66-20.658z"
      ></path>
      <path
        fill="#AD6F4B"
        d="M67.649 77.427H54.78a2.52 2.52 0 000 5.04h12.868a2.52 2.52 0 000-5.04z"
      ></path>
      <path
        fill="#9A5731"
        d="M63.292 74.61h-3.72a.539.539 0 00-.539.54v.317c0 .297.24.539.538.539h3.721a.54.54 0 00.538-.54v-.316a.54.54 0 00-.538-.54zM65.225 50.81a4.045 4.045 0 10-8.09 0v7.138a4.046 4.046 0 008.09 0V50.81z"
      ></path>
      <path
        fill="#9A5731"
        d="M60.736 58.889l-3.761-3.198a1.478 1.478 0 00-1.913 2.252l3.761 3.197a1.478 1.478 0 001.913-2.251zM61.77 58.889l3.76-3.198a1.477 1.477 0 111.914 2.252L63.68 61.14a1.478 1.478 0 01-1.912-2.251zM58.644 43.406a1.134 1.134 0 10-2.267 0v1.372a1.134 1.134 0 002.267 0v-1.372zM66.174 43.406a1.133 1.133 0 10-2.268 0v1.372a1.134 1.134 0 002.268 0v-1.372z"
      ></path>
      <path
        fill="#61534B"
        d="M51.377 45.752a2.53 2.53 0 10-5.063 0v1.014a2.531 2.531 0 005.063 0v-1.014zM75.997 45.752a2.531 2.531 0 00-5.063 0v1.012a2.531 2.531 0 105.063 0v-1.012z"
      ></path>
      <path
        fill="#9A5731"
        fillRule="evenodd"
        d="M69.443 66.938a.681.681 0 00-.681-.681H54.02a.682.682 0 00-.682.681v1.363c0 .376.305.681.682.681h14.742a.682.682 0 00.681-.681v-1.363z"
        clipRule="evenodd"
      ></path>
      <path
        fill="#61534B"
        fillRule="evenodd"
        d="M78.96 40.822c0-.3-.246-.545-.547-.545H70.78c-.3 0-.545.244-.545.545v1.09c0 .302.244.546.545.546h7.634c.301 0 .546-.244.546-.545v-1.091z"
        clipRule="evenodd"
      ></path>
      <path
        fill="#4D4D4D"
        fillRule="evenodd"
        d="M52.76 40.79c0-.3-.246-.544-.547-.544H44.58c-.3 0-.546.244-.546.545v1.091c0 .301.245.545.546.545h7.634c.301 0 .546-.244.546-.545v-1.091z"
        clipRule="evenodd"
      ></path>
      <path
        fill="#4D4D4D"
        d="M49.818 14.426c-9.797 0-17.683 8.344-17.683 18.713 0 .485.022.965.057 1.444a5.314 5.314 0 00-.057.746V46.79c0 2.462 1.643 4.5 3.836 4.961v-14.96c0-10.708 8.148-19.33 18.267-19.33H68.53c10.12 0 18.268 8.622 18.268 19.33v14.979c2.255-.407 3.964-2.472 3.964-4.98V35.33a5.5 5.5 0 00-.058-.746c.034-.478.058-.96.058-1.444 0-10.369-7.888-18.713-17.684-18.713h-23.26z"
      ></path>
      <path
        fill="#4D4D4D"
        d="M54.948 3.882c-12.406 0-22.393 10.01-22.393 22.443v10.588c0 3.765.92 7.304 2.541 10.414V34.706c0-10.975 8.816-19.809 19.765-19.809h13.174c10.949 0 19.763 8.834 19.763 19.809v12.62a22.447 22.447 0 002.542-10.413V26.325c0-12.433-9.988-22.443-22.394-22.443H54.948z"
      ></path>
      <path
        fill="#4D4D4D"
        d="M41.094 24.124c0-2.467-1.696-4.468-3.787-4.468-2.092 0-3.788 2-3.788 4.468v6.358c0 2.469 1.696 4.47 3.788 4.47 2.091 0 3.787-2.001 3.787-4.47v-6.358zM90.217 24.124c0-2.467-1.696-4.468-3.788-4.468-2.09 0-3.786 2-3.786 4.468v6.358c0 2.469 1.695 4.47 3.786 4.47 2.092 0 3.788-2.001 3.788-4.47v-6.358z"
      ></path>
      <path
        fill="#4F4F4F"
        d="M72.223 4.326H50.67c-6.419 0-11.623 5.216-11.623 11.65v5.496c0 6.433 5.204 11.65 11.623 11.65h21.553c6.42 0 11.624-5.217 11.624-11.65v-5.496c0-6.434-5.205-11.65-11.624-11.65z"
      ></path>
      <path
        fill="#4F4F4F"
        d="M36.447.567a2.905 2.905 0 00-1.96.5 2.453 2.453 0 00-1.025 1.608c-.044.274-.08.549-.108.822-.827 8.256 5.842 15.72 14.854 16.627l10.526 1.058c9.012.907 17.027-5.081 17.853-13.337.03-.294.044-.57.055-.823a2.455 2.455 0 00-.683-1.782 2.91 2.91 0 00-1.824-.883L36.447.567z"
      ></path>
      <path
        fill="#565656"
        d="M60.497 16.346h1.715c1.011 0 1.831.868 1.831 1.938v7.081c0 1.07-.82 1.938-1.831 1.938h-1.715c-1.013 0-1.833-.868-1.833-1.938v-7.081c0-1.07.82-1.938 1.833-1.938zM53.14 16.538h2.263c.792 0 1.433.68 1.433 1.517v7.501c0 .84-.64 1.519-1.433 1.519H53.14c-.794 0-1.435-.68-1.435-1.519v-7.5c0-.838.641-1.518 1.435-1.518zM69.754 16.57h-2.265c-.791 0-1.434.68-1.434 1.517v7.503c0 .838.643 1.517 1.434 1.517h2.265c.791 0 1.433-.679 1.433-1.517v-7.503c0-.837-.642-1.517-1.433-1.517z"
      ></path>
      <path
        fill="#4D4D4D"
        d="M49.818 14.426c-9.797 0-17.683 8.344-17.683 18.713 0 .485.022.965.057 1.444a5.314 5.314 0 00-.057.746V46.79c0 2.462 1.643 4.5 3.836 4.961v-14.96c0-10.708 8.148-19.33 18.267-19.33H68.53c10.12 0 18.268 8.622 18.268 19.33v14.979c2.255-.407 3.964-2.472 3.964-4.98V35.33a5.5 5.5 0 00-.058-.746c.034-.478.058-.96.058-1.444 0-10.369-7.888-18.713-17.684-18.713h-23.26z"
      ></path>
      <path
        fill="#4D4D4D"
        d="M69.899 12.155H53.967c-5.366 0-9.717 4.604-9.717 10.285 0 5.679 4.35 10.282 9.717 10.282H69.9c5.366 0 9.717-4.603 9.717-10.282 0-5.681-4.35-10.285-9.717-10.285z"
      ></path>
      <path
        fill="#4D4D4D"
        d="M49.746 18.644c0-1.606-1.23-2.908-2.748-2.908-1.517 0-2.748 1.302-2.748 2.908v6.744c0 1.604 1.23 2.907 2.748 2.907 1.518 0 2.748-1.303 2.748-2.907v-6.744zM80.935 19.028c0-1.607-1.23-2.909-2.748-2.909-1.518 0-2.748 1.302-2.748 2.909v6.742c0 1.606 1.23 2.908 2.748 2.908 1.518 0 2.748-1.302 2.748-2.909v-6.741zM43.11 21.938c-.143-1.058-1.072-1.794-2.073-1.643-1.001.153-1.697 1.136-1.553 2.196l.465 3.42c.142 1.06 1.071 1.796 2.073 1.643 1.002-.152 1.696-1.134 1.553-2.194l-.464-3.422zM81.824 22.865c.142-1.06 1.071-1.794 2.073-1.643 1.002.152 1.696 1.135 1.552 2.196l-.463 3.42c-.144 1.06-1.073 1.796-2.074 1.643-1.001-.153-1.697-1.134-1.553-2.195l.465-3.42z"
      ></path>
      <path
        fill="#565656"
        d="M60 17.238h1.715c1.012 0 1.832.869 1.832 1.939v7.08c0 1.07-.82 1.939-1.831 1.939H60c-1.013 0-1.833-.869-1.833-1.938v-7.081c0-1.07.82-1.939 1.833-1.939zM52.644 17.43h2.263c.792 0 1.433.68 1.433 1.518v7.501c0 .839-.64 1.518-1.433 1.518h-2.263c-.794 0-1.435-.68-1.435-1.518v-7.501c0-.838.641-1.517 1.434-1.517zM69.26 17.463h-2.265c-.791 0-1.434.68-1.434 1.517v7.502c0 .839.643 1.518 1.434 1.518h2.264c.792 0 1.434-.679 1.434-1.518V18.98c0-.838-.642-1.517-1.433-1.517z"
      ></path>
      <path
        fill="#4D4D4D"
        d="M49.818 14.426c-9.797 0-17.683 8.344-17.683 18.713 0 .485.022.965.057 1.444a5.314 5.314 0 00-.057.746V46.79c0 2.462 1.643 4.5 3.836 4.961v-14.96c0-10.708 8.148-19.33 18.267-19.33H68.53c10.12 0 18.268 8.622 18.268 19.33v14.979c2.255-.407 3.964-2.472 3.964-4.98V35.33a5.5 5.5 0 00-.058-.746c.034-.478.058-.96.058-1.444 0-10.369-7.888-18.713-17.684-18.713h-23.26z"
      ></path>
      <path
        fill="#4D4D4D"
        fillRule="evenodd"
        d="M43 17.026c-1.79 1.124-2.733 2.397-2.733 3.694 0 4.078 9.14 7.388 20.4 7.388 11.26 0 20.401-3.31 20.401-7.388 0-1.297-.942-2.57-2.733-3.694H43z"
        clipRule="evenodd"
      ></path>
      <path
        fill="#565656"
        d="M52.672 57.746a8.03 8.03 0 00-8.04 8.056v9.421a8.028 8.028 0 008.04 8.055h17.246a8.028 8.028 0 008.039-8.055v-9.421a8.03 8.03 0 00-8.04-8.056h-1.686c.06.492-.12 1-.527 1.346l-.681.581c.404.38.705.87.835 1.43h2.34a4.49 4.49 0 014.495 4.504v4.052a4.49 4.49 0 01-.785 2.545v1.112c0 3.562-2.86 6.429-6.416 6.429H55.098a6.408 6.408 0 01-6.417-6.43v-1.11a4.49 4.49 0 01-.785-2.546v-4.052a4.49 4.49 0 014.495-4.503h1.472a2.863 2.863 0 011.29-1.782l-.268-.23a1.524 1.524 0 01-.527-1.346h-1.686z"
      ></path>
      <path
        fill="#565656"
        fillRule="evenodd"
        d="M87.318 58.756c2.959 2.248 2.496 8.017-1.031 12.876-3.529 4.857-8.797 6.975-11.756 4.729 2.38-1.38 5.451-4.07 8.002-7.58 2.55-3.512 4.18-7.296 4.785-10.025zM35.033 58.565c-2.959 2.248-2.497 8.018 1.032 12.876 3.528 4.858 8.795 6.977 11.754 4.73-2.379-1.38-5.452-4.07-8-7.581-2.552-3.511-4.181-7.296-4.786-10.025z"
        clipRule="evenodd"
      ></path>
      <path
        fill="#565656"
        fillRule="evenodd"
        d="M40.287 74.777c0 11.854 9.308 21.48 20.775 21.48 11.465 0 20.775-9.626 20.775-21.48-5.195 2.963-12.715 5.37-20.775 5.37-8.06 0-15.582-2.407-20.775-5.37z"
        clipRule="evenodd"
      ></path>
      <path
        fill="#4D4D4D"
        d="M51.28 84.325h2.261c.793 0 1.434.437 1.434.975v4.817c0 .539-.64.974-1.434.974H51.28c-.792 0-1.432-.435-1.432-.974V85.3c0-.538.64-.975 1.432-.975zM67.73 84.294h2.262c.792 0 1.432.463 1.432 1.031v5.095c0 .57-.64 1.031-1.432 1.031h-2.263c-.792 0-1.432-.461-1.432-1.031v-5.095c0-.568.64-1.031 1.432-1.031z"
      ></path>
      <path
        fill="#565656"
        fillRule="evenodd"
        d="M45.39 79.17c-7.128-5.603-11.45-11.503-10.554-18.988L46.57 75.47M76.045 79.17c7.785-5.603 12.507-11.503 11.529-18.988L74.755 75.47"
        clipRule="evenodd"
      ></path>
      <path
        fill="#565656"
        d="M52.587 57.777a8.03 8.03 0 00-8.038 8.056v9.421a8.029 8.029 0 008.038 8.055h17.247a8.029 8.029 0 008.039-8.055v-9.421a8.03 8.03 0 00-8.04-8.056h-1.686c.06.491-.12 1.001-.527 1.347l-.681.58c.404.38.705.87.835 1.431h2.34a4.488 4.488 0 014.494 4.503v4.052c0 .947-.289 1.823-.784 2.546v1.11a6.408 6.408 0 01-6.416 6.43H55.014a6.408 6.408 0 01-6.417-6.43v-1.11a4.489 4.489 0 01-.785-2.546v-4.052a4.49 4.49 0 014.495-4.503h1.472a2.864 2.864 0 011.29-1.782l-.268-.23a1.522 1.522 0 01-.527-1.346h-1.687z"
      ></path>
      <path
        fill="#4D4D4D"
        d="M51.277 80.56h2.178c.762 0 1.379.11 1.379.245v1.206c0 .134-.617.244-1.38.244h-2.177c-.762 0-1.379-.11-1.379-.244v-1.206c0-.135.617-.245 1.38-.245zM67.916 80.56h2.177c.762 0 1.38.11 1.38.245v1.206c0 .134-.618.244-1.38.244h-2.177c-.762 0-1.379-.11-1.379-.244v-1.206c0-.135.617-.245 1.379-.245z"
      ></path>
      <path
        fill="#4F4F4F"
        d="M38.08 177.634c-.04.029-4.25-.012-4.248.014 1.528 19.413 13.178 35.149 27.25 35.149 14.256 0 25.67-15.382 26.953-35.16l-49.955-.003z"
      ></path>
      <path
        fill="#4B4B4B"
        d="M88.034 177.634l-26.673 6.023v51.316h33c.253-15.425-3.939-39.398-6.327-57.339zM33.831 177.634l27.15 6.023v51.316H28.894c-.252-15.425 2.548-39.398 4.936-57.339z"
      ></path>
      <path
        fill="#fff"
        d="M53.555 303.983H38.519c-.799 0-1.447 1-1.447 2.235v19.585c0 1.234.648 2.234 1.447 2.234h15.036c.798 0 1.447-1 1.447-2.234v-19.585c0-1.235-.649-2.235-1.447-2.235z"
      ></path>
      <path
        fill="#4B4B4B"
        d="M47.502 310.881H42.39c-1.214 0-2.199 1.416-2.199 3.163v2.838c0 1.748.985 3.164 2.2 3.164h5.11c1.216 0 2.2-1.416 2.2-3.164v-2.838c0-1.747-.984-3.163-2.2-3.163z"
      ></path>
      <path
        fill="#4F4F4F"
        d="M48.897 315.755h-7.536c-4.345 0-7.869 5.067-7.869 11.32 0 6.252 3.524 11.319 7.869 11.319h7.536c4.345 0 7.868-5.067 7.868-11.319 0-6.253-3.523-11.32-7.868-11.32z"
      ></path>
      <path
        fill="#4F4F4F"
        d="M54.997 326.038H35.206c-1.576 0-2.854 1.679-2.854 3.748v4.903c0 2.071 1.278 3.75 2.854 3.75h19.791c1.578 0 2.855-1.679 2.855-3.75v-4.903c0-2.069-1.277-3.748-2.855-3.748z"
      ></path>
      <path
        fill="#fff"
        d="M56.779 333.695H33.426c-.594 0-1.074.631-1.074 1.41v1.844c0 .779.48 1.411 1.074 1.411H56.78c.593 0 1.073-.632 1.073-1.411v-1.844c0-.779-.48-1.41-1.073-1.41zM48.041 316.323h-5.975c-.312 0-.564.363-.564.812 0 .447.252.81.564.81h5.975c.311 0 .564-.363.564-.81 0-.449-.253-.812-.564-.812z"
      ></path>
      <path
        fill="#585858"
        d="M50.07 321.545h-2.871c-1.012 0-1.834 1.18-1.834 2.638 0 1.457.822 2.638 1.834 2.638h2.871c1.013 0 1.833-1.181 1.833-2.638 0-1.458-.82-2.638-1.833-2.638z"
      ></path>
      <path
        fill="#fff"
        d="M48.041 318.919h-5.975c-.312 0-.564.363-.564.81 0 .448.252.811.564.811h5.975c.311 0 .564-.363.564-.811 0-.447-.253-.81-.564-.81zM83.567 303.982h-14.73c-.782 0-1.417 1.001-1.417 2.236v19.584c0 1.234.635 2.235 1.418 2.235h14.729c.783 0 1.417-1.001 1.417-2.235v-19.584c0-1.235-.634-2.236-1.417-2.236z"
      ></path>
      <path
        fill="#4B4B4B"
        d="M80.4 310.912h-5.113c-1.215 0-2.2 1.418-2.2 3.163v2.84c0 1.746.986 3.163 2.2 3.163h5.112c1.215 0 2.2-1.417 2.2-3.163v-2.84c0-1.745-.985-3.163-2.2-3.163z"
      ></path>
      <path
        fill="#4F4F4F"
        d="M81.998 315.755h-7.661c-4.419 0-8.001 5.067-8.001 11.32 0 6.252 3.582 11.319 8 11.319h7.662c4.419 0 8-5.067 8-11.319 0-6.253-3.581-11.32-8-11.32z"
      ></path>
      <path
        fill="#4F4F4F"
        d="M88.031 326.038H68.108c-1.586 0-2.874 1.679-2.874 3.748v4.903c0 2.071 1.288 3.75 2.874 3.75H88.03c1.587 0 2.874-1.679 2.874-3.75v-4.903c0-2.069-1.287-3.748-2.874-3.748z"
      ></path>
      <path
        fill="#fff"
        d="M89.822 333.695H66.314c-.597 0-1.082.631-1.082 1.41v1.844c0 .779.485 1.411 1.082 1.411h23.508c.597 0 1.081-.632 1.081-1.411v-1.844c0-.779-.484-1.41-1.08-1.41zM80.882 316.323h-5.976c-.312 0-.564.363-.564.812 0 .447.252.81.564.81h5.976c.31 0 .564-.363.564-.81 0-.449-.253-.812-.564-.812z"
      ></path>
      <path
        fill="#585858"
        d="M82.913 321.576h-2.87c-1.013 0-1.834 1.181-1.834 2.638 0 1.457.82 2.638 1.834 2.638h2.87c1.013 0 1.834-1.181 1.834-2.638 0-1.457-.821-2.638-1.834-2.638z"
      ></path>
      <path
        fill="#fff"
        d="M80.882 318.949h-5.976c-.312 0-.564.364-.564.811 0 .448.252.811.564.811h5.976c.31 0 .564-.363.564-.811 0-.447-.253-.811-.564-.811z"
      ></path>
    </svg>