    <svg
      xmlns="http://www.w3.org/2000/svg"
      width="102"
      height="308"
      fill="none"
      viewBox="0 0 102 308"
    >
      <path
        fill="#D9B392"
        d="M64.887 226.362h1.852c4.532 0 8.206 4.437 8.206 9.91l.001 26.159v18.647l1.642 19.112c0 4.176-3.355 7.562-7.495 7.562h-1.747c-4.14 0-7.495-3.386-7.495-7.562v-28.425c0-1.833-.39-3.635-1.13-5.234a12.477 12.477 0 01-1.133-5.234v-3.91c0-2.099.213-4.189.635-6.226l.015-.074c.431-2.084.65-4.225.65-6.375v-11.105c0-.422.03-.841.09-1.256.506-3.464 2.997-5.989 5.909-5.989z"
      ></path>
      <path
        fill="#D9B392"
        d="M67.366 156.675h4.728c2.66 0 5.047 1.974 6.01 4.968a9.16 9.16 0 01.38 1.794l3.493 31.829v13.813c0 1.792-.123 3.581-.37 5.349l-.802 5.764c-.46 3.309-1.403 6.493-2.785 9.404l-2.344 4.935a8.15 8.15 0 00-.767 3.479c0 3.861-2.593 6.992-5.79 6.992H65.12c-3.425 0-6.203-3.355-6.203-7.493 0-.9-.135-1.794-.398-2.637l-.84-2.7a27.188 27.188 0 01-.853-3.578l-1.278-7.607-1.229-9.696a38.96 38.96 0 01-.307-4.882v-33.608c0-8.906 5.978-16.126 13.354-16.126zM65.418 292.133h7.038c4.057 0 7.347 3.496 7.347 7.808 0 4.314-3.29 7.81-7.347 7.81h-7.038c-4.058 0-7.348-3.496-7.348-7.81 0-4.312 3.29-7.808 7.348-7.808z"
      ></path>
      <path
        fill="#D9B392"
        d="M60.503 295.348H77.37c1.343 0 2.433 1.679 2.433 3.749v4.904c0 2.072-1.09 3.75-2.433 3.75H60.503c-1.343 0-2.433-1.678-2.433-3.75v-4.904c0-2.07 1.09-3.749 2.433-3.749zM38.54 226.361h-1.852c-4.532 0-8.207 4.437-8.207 9.91v44.806l-1.641 19.112c0 4.176 3.355 7.562 7.494 7.562h1.747c4.14 0 7.495-3.386 7.495-7.562v-28.425c0-1.833.389-3.635 1.131-5.234.743-1.599 1.132-3.401 1.132-5.234v-3.91c0-2.099-.213-4.189-.634-6.226l-.015-.074a31.428 31.428 0 01-.65-6.375v-11.105c0-.422-.031-.841-.091-1.256-.505-3.463-2.997-5.989-5.908-5.989z"
      ></path>
      <path
        fill="#D9B392"
        d="M37.23 156.674h-7.352c-2.67 0-4.834 2.614-4.834 5.838l-3.595 32.753v13.813c0 1.792.123 3.582.37 5.349l.801 5.764c.461 3.309 1.405 6.493 2.787 9.404l2.344 4.935a8.153 8.153 0 01.767 3.479c0 3.861 2.592 6.992 5.79 6.992h3.998c3.426 0 6.204-3.355 6.204-7.492 0-.901.134-1.795.396-2.638l.842-2.7c.363-1.163.647-2.36.852-3.578l1.277-7.607 1.23-9.696a38.96 38.96 0 00.308-4.882v-35.019c0-8.127-5.456-14.715-12.186-14.715zM38.01 292.132h-7.038c-4.057 0-7.347 3.496-7.347 7.808 0 4.314 3.29 7.81 7.347 7.81h7.038c4.058 0 7.347-3.496 7.347-7.81 0-4.312-3.29-7.808-7.347-7.808z"
      ></path>
      <path
        fill="#D9B392"
        d="M42.924 295.347H26.058c-1.344 0-2.433 1.679-2.433 3.749V304c0 2.072 1.089 3.75 2.433 3.75h16.866c1.344 0 2.433-1.678 2.433-3.75v-4.904c0-2.07-1.09-3.749-2.433-3.749zM51.055 67.83c1.227 0 2.449.076 3.66.223 14.605 1.778 22.521 15.02 22.521 29.866l2.807 14.827-5.611 27.279c0 16.078-7.36 18.535-23.377 18.535-16.016 0-21.403-2.681-21.403-18.759l-7.508-27.055 3.603-15.818c0-16.077 9.292-29.098 25.308-29.098z"
      ></path>
      <path
        fill="#D9B392"
        d="M51.027 132.915h.867c14.358 0 19.018-8.969 21.375 3.187l4.542 24.394c2.354 12.145-11.559 22.225-25.917 22.225h-.867c-14.358 0-28.272-10.08-25.918-22.225l5.02-24.394c2.357-12.156 6.54-3.187 20.898-3.187zM18.664 84.461c-4.386-1.024-9.665 1.123-10.631 7.156l-3 10.894a30.601 30.601 0 00-.992 10.426l.809 10.561c.184 2.409-.04 4.838-.013 7.257.048 4.238 1.648 7.346 5.107 8.154 3.778.883 6.288-1.389 7.527-5.891.422-1.528.75-3.097 1.244-4.593l2.244-6.791c1.235-3.736 1.723-7.771 1.424-11.777l-.463-6.212c-.12-1.617-.106-3.242-.046-4.863.165-4.456.09-13.55-3.21-14.32z"
      ></path>
      <path
        fill="#D9B392"
        d="M11.799 118.941l-.056-.002c-3.595-.134-6.712 4.685-6.963 10.763l-1.883 45.644c-.25 6.078 2.46 11.115 6.054 11.249l.056.002c3.595.134 6.712-4.685 6.963-10.764l1.883-45.644c.25-6.079-2.46-11.115-6.055-11.248z"
      ></path>
      <path
        fill="#D9B392"
        d="M11.72 165.968l-2.26-.016c-4.329-.027-8.042 5.646-8.295 12.673l-.224 6.243c-.252 7.026 3.053 12.745 7.382 12.773l2.259.015c4.33.028 8.043-5.646 8.295-12.673l.225-6.242c.252-7.027-3.053-12.746-7.382-12.773z"
      ></path>
      <path
        fill="#D9B392"
        d="M12.278 183.723c-.942-4.469-4.263-6.732-7.417-5.054-3.154 1.677-4.948 6.66-4.007 11.128l2.573 12.205c.941 4.468 4.263 6.731 7.417 5.054 3.155-1.678 4.948-6.66 4.006-11.129l-2.572-12.204z"
      ></path>
      <path
        fill="#C49D7A"
        d="M19.661 181.337c.106-3.115-1.34-5.651-3.23-5.665-1.89-.014-3.509 2.5-3.615 5.615l-.29 8.508c-.108 3.115 1.339 5.652 3.23 5.666 1.89.014 3.508-2.5 3.615-5.615l.29-8.509z"
      ></path>
      <path
        fill="#D9B392"
        d="M83.686 84.461c4.385-1.024 9.665 1.123 10.631 7.156l3 10.894a30.601 30.601 0 01.992 10.426l-.808 10.561c-.185 2.409.038 4.838.011 7.257-.048 4.238-1.648 7.346-5.107 8.154-3.777.883-6.287-1.389-7.527-5.891-.421-1.528-.75-3.097-1.243-4.593l-2.245-6.791c-1.235-3.736-1.722-7.771-1.424-11.777l.464-6.212c.12-1.617.106-3.242.046-4.863-.165-4.456-.09-13.55 3.21-14.32z"
      ></path>
      <path
        fill="#D9B392"
        d="M90.55 118.941l.058-.002c3.593-.134 6.71 4.685 6.961 10.763l1.884 45.644c.25 6.078-2.46 11.115-6.055 11.249l-.056.002c-3.594.134-6.712-4.685-6.962-10.764l-1.883-45.644c-.251-6.079 2.46-11.115 6.054-11.248z"
      ></path>
      <path
        fill="#D9B392"
        d="M90.63 165.968l2.258-.016c4.33-.027 8.044 5.646 8.296 12.673l.225 6.243c.251 7.026-3.054 12.745-7.383 12.773l-2.259.015c-4.33.028-8.043-5.646-8.295-12.673l-.224-6.242c-.253-7.027 3.052-12.746 7.382-12.773z"
      ></path>
      <path
        fill="#D9B392"
        d="M90.071 183.723c.942-4.469 4.263-6.732 7.417-5.054 3.155 1.677 4.948 6.66 4.007 11.128l-2.573 12.205c-.941 4.468-4.263 6.731-7.417 5.054-3.154-1.678-4.948-6.66-4.006-11.129l2.572-12.204z"
      ></path>
      <path
        fill="#C49D7A"
        d="M82.687 181.337c-.106-3.115 1.34-5.651 3.23-5.665 1.891-.014 3.51 2.5 3.616 5.615l.29 8.508c.107 3.115-1.34 5.652-3.23 5.666-1.89.014-3.508-2.5-3.615-5.615l-.29-8.509z"
      ></path>
      <path
        fill="#D9B392"
        d="M18.494 76.784h65.483c6.49 0 11.714 5.88 11.714 13.183 0 7.305-5.224 13.184-11.714 13.184H18.493c-6.49 0-11.714-5.88-11.714-13.183 0-7.304 5.225-13.184 11.715-13.184z"
      ></path>
      <path
        fill="#D9B392"
        d="M40.964 75.22h20.419c11.41 0 20.594 10.123 20.594 22.698 0 12.575-9.184 22.698-20.594 22.698h-20.42c-11.408 0-20.594-10.123-20.594-22.698 0-12.575 9.186-22.698 20.595-22.698z"
      ></path>
      <path
        fill="#815848"
        fillOpacity="0.99"
        d="M51.716 103.15c2.657 0 4.796 2.584 4.796 5.793v5.372c0 3.209-2.139 5.792-4.796 5.792-2.657 0-4.796-2.583-4.796-5.792v-5.372c0-3.209 2.139-5.793 4.796-5.793z"
      ></path>
      <path
        fill="#D9B392"
        d="M39.604 97.072a5.979 5.979 0 00-3.425 1.078c-3.257.22-6.31 1.705-8.541 4.15a13.384 13.384 0 00-3.472 9.018c0 3.5 1.355 6.858 3.768 9.332 2.412 2.476 5.683 3.866 9.095 3.866a12.679 12.679 0 008.45-3.26 13.302 13.302 0 004.28-8.154c.087-.433.134-.883.134-1.343v-8.203c0-3.592-2.765-6.484-6.198-6.484h-4.091zm19.052 0c-3.432 0-6.196 2.892-6.196 6.484v8.203c0 .46.046.91.133 1.343a13.302 13.302 0 004.28 8.154 12.677 12.677 0 008.45 3.26c3.412 0 6.683-1.39 9.096-3.866 2.411-2.474 3.767-5.832 3.767-9.332 0-3.35-1.241-6.573-3.473-9.018-2.23-2.445-5.283-3.93-8.54-4.15a5.98 5.98 0 00-3.425-1.078h-4.092z"
      ></path>
      <path
        fill="#C49D7A"
        d="M47.082 126.935h-3.194c-1.46 0-2.642 1.051-2.642 2.346v2.718c0 1.297 1.182 2.348 2.642 2.348h3.194c1.458 0 2.641-1.051 2.641-2.348v-2.718c0-1.295-1.183-2.346-2.641-2.346zM47.083 135.146h-4.865c-1.46 0-2.642 1.051-2.642 2.347v2.717c0 1.297 1.182 2.348 2.642 2.348h4.865c1.46 0 2.641-1.051 2.641-2.348v-2.717c0-1.296-1.182-2.347-2.641-2.347zM47.083 143.184h-4.865c-1.46 0-2.642 1.05-2.642 2.346v2.718c0 1.297 1.182 2.348 2.642 2.348h4.865c1.46 0 2.641-1.051 2.641-2.348v-2.718c0-1.296-1.182-2.346-2.641-2.346zM54.901 126.935h3.194c1.459 0 2.642 1.051 2.642 2.346v2.718c0 1.297-1.183 2.348-2.642 2.348h-3.194c-1.46 0-2.641-1.051-2.641-2.348v-2.718c0-1.295 1.182-2.346 2.641-2.346zM54.9 135.146h4.865c1.459 0 2.642 1.051 2.642 2.347v2.717c0 1.297-1.183 2.348-2.642 2.348H54.9c-1.458 0-2.641-1.051-2.641-2.348v-2.717c0-1.296 1.183-2.347 2.641-2.347zM54.9 143.184h4.865c1.459 0 2.642 1.05 2.642 2.346v2.718c0 1.297-1.183 2.348-2.642 2.348H54.9c-1.458 0-2.641-1.051-2.641-2.348v-2.718c0-1.296 1.183-2.346 2.641-2.346z"
      ></path>
      <path
        fill="#4B4B4B"
        d="M40.325 74.86h21.7c12.124 0 21.884 10.222 21.884 22.919 0 12.696-.423 29.408-21.436 26.375H40.325c-21.714 2.795-21.886-13.679-21.886-26.375 0-12.697 9.761-22.919 21.886-22.919z"
      ></path>
      <path
        fill="#4B4B4B"
        fillOpacity="0.99"
        d="M51.056 67.4c1.218 0 2.43.076 3.633.225 14.5 1.795 27.425 14.086 27.425 29.076l-2.277 16.049H22.352V96.701c0-16.232 12.802-29.3 28.704-29.3z"
      ></path>
      <path
        fill="#4F4F4F"
        d="M26.664 152.875c1.37 23.264 11.889 41.27 24.508 41.27 12.785 0 24.053-17.568 25.205-41.27H26.664z"
      ></path>
      <path
        fill="#4B4B4B"
        d="M76.4 152.871l-24.363 4.563-.205 36.614 2.286 16.046h27.92c.17-29.683-.115-39.711-5.639-57.223zM26.678 152.838l24.94 4.58v36.627l-2.327 16.046H21.436c-.177-29.783-.443-39.684 5.242-57.253z"
      ></path>
      <path
        fill="#4F4F4F"
        d="M26.664 152.875c1.37 23.264 11.889 41.27 24.508 41.27 12.785 0 24.053-17.568 25.205-41.27H26.664z"
      ></path>
      <path
        fill="#4B4B4B"
        d="M76.4 152.871l-24.363 4.563-.205 36.614 2.286 16.046h27.92c.17-29.683-.115-39.711-5.639-57.223zM26.678 152.838l24.94 4.58v36.627l-2.327 16.046H21.436c-.177-29.783-.443-39.684 5.242-57.253z"
      ></path>
      <path
        fill="#fff"
        d="M42.6 275.551H29.044c-.72 0-1.304.935-1.304 2.091v18.324c0 1.156.584 2.091 1.305 2.091H42.6c.72 0 1.305-.935 1.305-2.091v-18.324c0-1.156-.585-2.091-1.305-2.091z"
      ></path>
      <path
        fill="#4B4B4B"
        d="M36.892 282.004h-4.713c-1.119 0-2.027 1.325-2.027 2.96v2.655c0 1.636.908 2.961 2.027 2.961h4.713c1.12 0 2.027-1.325 2.027-2.961v-2.655c0-1.635-.907-2.96-2.027-2.96z"
      ></path>
      <path
        fill="#4F4F4F"
        d="M38.178 286.564h-6.947c-4.006 0-7.254 4.742-7.254 10.593 0 5.849 3.248 10.591 7.253 10.591h6.948c4.006 0 7.253-4.742 7.253-10.591 0-5.851-3.247-10.593-7.253-10.593z"
      ></path>
      <path
        fill="#4F4F4F"
        d="M43.384 296.187H25.636c-1.414 0-2.56 1.57-2.56 3.507v4.587c0 1.938 1.146 3.509 2.56 3.509h17.748c1.415 0 2.561-1.571 2.561-3.509v-4.587c0-1.937-1.146-3.507-2.56-3.507z"
      ></path>
      <path
        fill="#fff"
        d="M45.024 303.352H24.05c-.533 0-.965.59-.965 1.319v1.725c0 .729.432 1.32.965 1.32h20.975c.533 0 .965-.591.965-1.32v-1.725c0-.729-.432-1.319-.965-1.319zM37.388 287.097h-5.509c-.287 0-.52.339-.52.759 0 .419.233.758.52.758h5.509c.286 0 .52-.339.52-.758 0-.42-.234-.759-.52-.759z"
      ></path>
      <path
        fill="#585858"
        d="M39.26 291.982h-2.648c-.933 0-1.69 1.105-1.69 2.469 0 1.363.758 2.468 1.69 2.468h2.647c.934 0 1.69-1.105 1.69-2.468 0-1.364-.756-2.469-1.69-2.469z"
      ></path>
      <path
        fill="#fff"
        d="M37.388 289.525h-5.509c-.287 0-.52.34-.52.759 0 .418.233.758.52.758h5.509c.286 0 .52-.34.52-.758 0-.419-.234-.759-.52-.759zM74.442 275.55H60.99c-.714 0-1.295.936-1.295 2.092v18.323c0 1.156.58 2.092 1.295 2.092h13.452c.715 0 1.295-.936 1.295-2.092v-18.323c0-1.156-.58-2.092-1.295-2.092z"
      ></path>
      <path
        fill="#4B4B4B"
        d="M70.867 282.034h-4.653c-1.105 0-2.001 1.326-2.001 2.96v2.657c0 1.634.896 2.959 2.001 2.959h4.653c1.105 0 2.001-1.325 2.001-2.959v-2.657c0-1.634-.896-2.96-2-2.96z"
      ></path>
      <path
        fill="#4F4F4F"
        d="M72.087 286.564h-6.858c-3.956 0-7.163 4.742-7.163 10.593 0 5.849 3.207 10.591 7.163 10.591h6.858c3.955 0 7.45-4.658 7.45-10.508 0-5.85-3.495-10.676-7.45-10.676z"
      ></path>
      <path
        fill="#4F4F4F"
        d="M77.856 296.187H60.301c-1.397 0-2.532 1.57-2.532 3.507v4.587c0 1.938 1.135 3.509 2.532 3.509h17.555c1.399 0 2.532-1.571 2.532-3.509v-4.587c0-1.937-1.133-3.507-2.532-3.507z"
      ></path>
      <path
        fill="#fff"
        d="M79.45 303.352H59.01c-.52 0-.942.59-.942 1.319v1.725c0 .729.422 1.32.941 1.32h20.44c.52 0 .94-.591.94-1.32v-1.725c0-.729-.42-1.319-.94-1.319zM72.156 287.097h-5.44c-.283 0-.513.339-.513.759 0 .419.23.758.513.758h5.44c.282 0 .513-.339.513-.758 0-.42-.23-.759-.513-.759z"
      ></path>
      <path
        fill="#585858"
        d="M74.004 292.012h-2.612c-.922 0-1.67 1.105-1.67 2.468s.748 2.469 1.67 2.469h2.612c.922 0 1.669-1.106 1.669-2.469 0-1.363-.747-2.468-1.67-2.468z"
      ></path>
      <path
        fill="#fff"
        d="M72.156 289.554h-5.44c-.283 0-.513.34-.513.758 0 .42.23.759.513.759h5.44c.282 0 .513-.339.513-.759 0-.418-.23-.758-.513-.758z"
      ></path>
      <path
        fill="#D9B392"
        d="M51.38 41.513c8.332 0 15.041 9.517 15.041 21.34v8.755c0 11.823-6.403 15.152-14.735 15.124-8.766-.029-15.348-3.3-15.348-15.124v-8.755c0-11.823 6.708-21.34 15.042-21.34z"
      ></path>
      <path
        fill="#C49D7A"
        d="M49.113 43.208h4.531c5.217 0 9.417 5.872 9.417 13.167v5.401c0 7.295-4.2 13.167-9.417 13.167h-4.531c-5.218 0-9.418-5.872-9.418-13.167v-5.401c0-7.295 4.2-13.167 9.418-13.167zM41.376 80.705c-.586 0-1.058.55-1.058 1.231 0 .682.472 1.23 1.058 1.23h5.881l1.688 1.432c.475.403 1.136.283 1.482-.27.346-.553.243-1.322-.232-1.725l-1.748-1.482c-.018-.016-.038-.024-.057-.038a.986.986 0 00-.76-.378h-6.254zm13.754 0c-.3 0-.57.145-.76.378-.02.014-.04.022-.058.038l-1.748 1.482c-.474.403-.578 1.172-.232 1.725.347.553 1.007.673 1.482.27l1.688-1.432h5.881c.586 0 1.058-.548 1.058-1.23 0-.682-.472-1.23-1.058-1.23H55.13z"
      ></path>
      <path
        fill="#D9B392"
        d="M28.334 30.87H75.36a9.714 9.714 0 019.734 9.736 9.713 9.713 0 01-9.734 9.734H28.334a9.713 9.713 0 01-9.734-9.734 9.714 9.714 0 019.734-9.736z"
      ></path>
      <path
        fill="#C49D7A"
        d="M28.676 33.346h46.34a7.244 7.244 0 017.26 7.26 7.244 7.244 0 01-7.26 7.26h-46.34a7.244 7.244 0 01-7.26-7.26 7.244 7.244 0 017.26-7.26z"
      ></path>
      <path
        fill="#815848"
        d="M49.468 64.397h3.044c.245 0 .441.172.441.385v.227c0 .213-.196.385-.441.385h-3.044c-.244 0-.44-.172-.44-.385v-.227c0-.213.196-.385.44-.385z"
      ></path>
      <path
        fill="#A27B5F"
        d="M41.182 79.278l.178 1.266a21.534 21.534 0 003.386 8.919 21.59 21.59 0 013.601 11.958v3.417c0 2.324-.245 4.641-.73 6.912l-1.638 7.662c-.082.385-.123.78-.123 1.176v5.121c0 3.609-4.47 5.149-6.591 2.269a3.772 3.772 0 01-.63-1.342l-.675-2.723a18.15 18.15 0 01-.187-7.884l.58-2.935c.31-1.563.465-3.155.465-4.75v-3.587c0-2.61-.789-5.154-2.258-7.284a12.803 12.803 0 01-2.17-5.77l-.04-.334a14.188 14.188 0 00-1.542-4.966l-1.518-2.877a22.097 22.097 0 00-1.926-3.022l-1.518-2.002a14.828 14.828 0 01-2.995-8.955c0-2.133-.456-4.24-1.336-6.175l-1.814-3.98a5.61 5.61 0 01-.502-2.319c0-3.023 2.387-5.472 5.33-5.472h7.512l1.657 3.762a8.14 8.14 0 01.238 5.953 8.145 8.145 0 00.512 6.512l2.527 4.706a20.25 20.25 0 012.207 6.744z"
      ></path>
      <path
        fill="#D9B392"
        d="M46.561 3.507h10.57c8.787 0 22.682 12.404 22.682 24.603V45.42c0 12.199-13.023 25.55-22.354 25.55H46.235c-9.33 0-22.354-13.351-22.354-25.55V28.11c0-12.199 13.894-24.603 22.68-24.603z"
      ></path>
      <path
        fill="#A27B5F"
        d="M29.088 6.38C35.79 3 45.534 1.163 49.634.776c.886-.084 1.764.007 2.638.176L64.774 3.37a14.251 14.251 0 018.09 4.718l6.252 7.264a14.942 14.942 0 013.596 9.748v4.087c0 .588.138 1.166.402 1.689 1.9 3.753-2.89 7.273-5.74 4.217l-5.736-6.153a4.71 4.71 0 00-2.487-1.407L50.579 23.66a13.964 13.964 0 00-2.873-.295l-9.673.015c-2.087.003-4.12.842-5.362 2.564-1.544 2.142-3.037 4.77-4.156 7.342-1.23 2.83-5.411 4.516-7.825 2.659a3.723 3.723 0 01-1.296-3.938c.093-.33.14-.671.14-1.016l-.001-3.079c-.002-1.074.886-4.713 1.165-5.748 1.583-5.847 3.086-13.11 8.39-15.785z"
      ></path>
      <path
        fill="#C49D7A"
        d="M51.843 36.988c1.865 0 3.368 1.589 3.368 3.56v6.285c0 1.972-1.503 3.56-3.368 3.56-1.866 0-3.368-1.588-3.368-3.56V40.55c0-1.972 1.502-3.56 3.368-3.56z"
      ></path>
      <path
        fill="#C49D7A"
        d="M57.456 46.355c0 1.572-1.33 2.836-2.982 2.836h-5.26c-1.652 0-2.982-1.264-2.982-2.836 0-1.57 1.33-2.834 2.982-2.834h5.26c1.652 0 2.982 1.263 2.982 2.834z"
      ></path>
      <path
        fill="#fff"
        d="M43.355 53.277c-.391 0-.766.126-1.042.35-.278.222-.432.526-.432.843v.897c0 1.772.63 3.395 1.745 4.632a6.388 6.388 0 004.73 2.114H55.2c1.93 0 3.617-.876 4.731-2.114 1.116-1.237 1.746-2.86 1.746-4.632v-.897c0-.317-.155-.62-.431-.844a1.671 1.671 0 00-1.043-.349H43.354z"
      ></path>
      <path
        fill="#4D4D4D"
        d="M35.223 29.275l9.474.773a1.862 1.862 0 011.708 2.01 1.862 1.862 0 01-2.011 1.709l-9.475-.773a1.862 1.862 0 01-1.708-2.011 1.862 1.862 0 012.012-1.708zM68.465 29.275l-9.473.773a1.862 1.862 0 00-1.708 2.01 1.862 1.862 0 002.01 1.709l9.475-.773a1.862 1.862 0 001.708-2.011 1.863 1.863 0 00-2.012-1.708z"
      ></path>
      <path
        fill="#61534B"
        d="M39.68 34.484h1.24c1.125 0 2.03.907 2.03 2.032v2.86c0 1.125-.905 2.03-2.03 2.03h-1.24a2.026 2.026 0 01-2.032-2.03v-2.86c0-1.125.906-2.032 2.032-2.032zM64.007 34.484h-1.24a2.027 2.027 0 00-2.03 2.032v2.86c0 1.125.905 2.03 2.03 2.03h1.24a2.026 2.026 0 002.031-2.03v-2.86a2.027 2.027 0 00-2.03-2.032z"
      ></path>
    </svg>