    <svg
      xmlns="http://www.w3.org/2000/svg"
      width="126"
      height="313"
      fill="none"
      viewBox="0 0 126 313"
    >
      <path
        fill="#AD6F4B"
        d="M80.017 231.057h2.31c5.649 0 10.228 4.436 10.228 9.909l.002 26.159-.002 18.647 2.048 19.112c0 4.177-4.182 7.562-9.343 7.562h-2.177c-5.161 0-9.343-3.385-9.343-7.562v-28.425c0-1.832-.486-3.635-1.41-5.233a10.449 10.449 0 01-1.412-5.235v-3.909c0-2.099.266-4.19.791-6.227l.02-.073c.537-2.085.81-4.226.81-6.376v-11.105c0-.421.037-.841.112-1.255.63-3.465 3.736-5.989 7.366-5.989z"
      ></path>
      <path
        fill="#AD6F4B"
        d="M83.106 161.369H89c3.316 0 5.346-5.768 6.546-2.774.233.578 1.336 8.922 1.42 9.536l3.278 25.877 1.077 19.765c0 1.792-.154 3.582-.461 5.349l-1 5.764a27.773 27.773 0 01-3.473 9.404l-2.922 4.935a6.831 6.831 0 00-.956 3.479c0 3.861-3.231 6.992-7.217 6.992h-4.986c-4.27 0-7.733-3.355-7.733-7.492 0-.901-.167-1.794-.495-2.638l-1.048-2.699a22.854 22.854 0 01-1.063-3.579l-1.593-7.607-1.531-9.696a31.368 31.368 0 01-.384-4.882v-33.608c0-8.906 7.453-16.126 16.647-16.126zM80.677 296.827h8.773c5.058 0 9.16 3.496 9.16 7.809 0 4.313-4.102 7.809-9.16 7.809h-8.773c-5.058 0-9.16-3.496-9.16-7.809 0-4.313 4.102-7.809 9.16-7.809z"
      ></path>
      <path
        fill="#AD6F4B"
        d="M74.55 300.042h21.026c1.675 0 3.033 1.679 3.033 3.75v4.904c0 2.071-1.358 3.749-3.033 3.749H74.551c-1.675 0-3.033-1.678-3.033-3.749v-4.904c0-2.071 1.358-3.75 3.033-3.75zM47.172 231.056h-2.31c-5.65 0-10.23 4.436-10.23 9.909v44.806l-2.046 19.112c0 4.177 4.182 7.562 9.342 7.562h2.178c5.16 0 9.343-3.385 9.343-7.562v-28.425c0-1.832.485-3.635 1.41-5.233.926-1.6 1.41-3.402 1.41-5.235v-3.909c0-2.099-.264-4.19-.79-6.227l-.018-.073a25.48 25.48 0 01-.81-6.376V238.3a7.04 7.04 0 00-.114-1.255c-.63-3.464-3.735-5.989-7.365-5.989z"
      ></path>
      <path
        fill="#AD6F4B"
        d="M45.537 161.368s-15.316-4.898-15.316-1.673l-3.262 30.766-1.094 23.311c0 1.792.153 3.582.46 5.349l1 5.764a27.798 27.798 0 003.474 9.404l2.922 4.936a6.828 6.828 0 01.956 3.478c0 3.861 3.231 6.992 7.217 6.992h4.986c4.27 0 7.732-3.355 7.732-7.491 0-.902.167-1.795.495-2.639l1.049-2.699a22.842 22.842 0 001.063-3.579l1.592-7.607 1.532-9.696c.255-1.616.384-3.248.384-4.882v-35.019c0-8.126-6.801-14.715-15.19-14.715zM46.51 296.826h-8.773c-5.058 0-9.159 3.496-9.159 7.809 0 4.313 4.101 7.809 9.16 7.809h8.772c5.059 0 9.159-3.496 9.159-7.809 0-4.313-4.1-7.809-9.16-7.809z"
      ></path>
      <path
        fill="#AD6F4B"
        d="M52.636 300.041H31.61c-1.675 0-3.033 1.679-3.033 3.75v4.904c0 2.071 1.358 3.75 3.033 3.75h21.025c1.675 0 3.033-1.679 3.033-3.75v-4.904c0-2.071-1.358-3.75-3.033-3.75z"
      ></path>
      <path
        fill="#9A5731"
        d="M35.135 101.544c0-16.077 57.884-14.846 57.884 0l-2.206 15.896 4.732 40.375c0 16.077-17.206 5.439-32.608 5.439-15.402 0-32.716 10.638-32.716-5.439l4.914-40.375v-15.896z"
      ></path>
      <path
        fill="#AD6F4B"
        d="M62.934 72.524c1.11 0 2.215.076 3.31.224 5.196.698 10.17 3.004 14.291 6.448 6.364 5.315 10.7 13.34 10.7 22.349L89.16 117.44l4.452 40.375c0 16.077-16.188 5.439-30.678 5.439-14.49 0-30.78 10.638-30.78-5.439l4.624-40.375v-15.895c0-16.078 11.666-29.02 26.156-29.02z"
      ></path>
      <path
        fill="#AD6F4B"
        d="M62.748 137.609h1.001c16.583 0 21.964-8.969 24.686 3.186l3.494 17.019c.56 2.501.398 5.224-.357 7.975-.736 2.683-2.036 5.391-3.78 7.94-5.159 7.537-14.202 13.685-24.043 13.685h-1c-8.382 0-16.357-4.521-21.846-10.562-2.264-2.491-4.104-5.241-5.377-8.038-1.746-3.842-2.42-7.773-1.641-11.249l4.73-16.77c2.72-12.155 7.55-3.186 24.133-3.186zM54.038 79.914h19.333c10.803 0 19.5 10.123 19.5 22.699 0 12.574-8.697 22.698-19.5 22.698H54.038c-10.802 0-19.499-10.124-19.499-22.698 0-12.576 8.697-22.699 19.5-22.699z"
      ></path>
      <path
        fill="#9A5731"
        d="M63.397 107.845c2.34 0 4.225 2.584 4.225 5.792v5.372c0 3.209-1.884 5.792-4.225 5.792-2.34 0-4.225-2.583-4.225-5.792v-5.372c0-3.208 1.884-5.792 4.225-5.792z"
      ></path>
      <path
        fill="#AD6F4B"
        d="M51.254 101.767a6.178 6.178 0 00-3.49 1.077 13.072 13.072 0 00-8.704 4.15 13.246 13.246 0 00-3.538 9.018c0 3.5 1.38 6.858 3.84 9.333a13.063 13.063 0 009.269 3.865 13.056 13.056 0 008.61-3.26 13.225 13.225 0 004.363-8.154 6.73 6.73 0 00.136-1.343v-8.202c0-3.592-2.817-6.484-6.316-6.484h-4.17zm19.417 0c-3.498 0-6.315 2.892-6.315 6.484v8.202c0 .461.047.91.135 1.343a13.225 13.225 0 004.364 8.154 13.054 13.054 0 008.61 3.26c3.477 0 6.81-1.39 9.27-3.865a13.248 13.248 0 003.84-9.333c-.002-3.349-1.266-6.573-3.54-9.018a13.07 13.07 0 00-8.703-4.15 6.178 6.178 0 00-3.492-1.077h-4.17zM22.468 89.155c-5.467-1.024-12.05 1.123-13.254 7.156 0 0-4.016 36.719-3.982 39.139.06 4.237 2.054 7.345 6.367 8.153 4.708.883 7.836-1.389 9.383-5.891.525-1.528 5.809-29.002 5.809-29.002-.15-1.617-.397-3.612-.322-5.233.206-4.457.113-13.551-4-14.322z"
      ></path>
      <path
        fill="#AD6F4B"
        d="M13.91 123.636l-.071-.002c-4.48-.134-8.366 4.685-8.679 10.763L2.812 180.04c-.312 6.079 3.067 11.115 7.548 11.249l.07.002c4.48.134 8.366-4.685 8.68-10.764l2.346-45.643c.313-6.079-3.066-11.115-7.546-11.248z"
      ></path>
      <path
        fill="#AD6F4B"
        d="M14.666 170.662l-2.816-.015c-5.397-.028-10.027 5.646-10.341 12.672l-.28 6.243c-.314 7.027 3.806 12.745 9.203 12.773l2.816.015c5.397.028 10.026-5.646 10.34-12.672l.28-6.243c.315-7.027-3.805-12.745-9.202-12.773z"
      ></path>
      <path
        fill="#AD6F4B"
        d="M15.361 188.418c-1.173-4.469-5.313-6.732-9.245-5.055-3.932 1.677-6.169 6.66-4.995 11.129l3.207 12.204c1.174 4.469 5.314 6.731 9.246 5.054 3.933-1.677 6.168-6.659 4.995-11.128l-3.208-12.204z"
      ></path>
      <path
        fill="#9A5731"
        d="M24.567 186.032c.132-3.115-1.67-5.651-4.027-5.666-2.356-.014-4.374 2.5-4.507 5.616l-.362 8.507c-.133 3.115 1.67 5.652 4.027 5.667 2.356.013 4.374-2.501 4.507-5.616l.362-8.508z"
      ></path>
      <path
        fill="#AD6F4B"
        d="M103.448 89.155c5.467-1.024 12.049 1.123 13.254 7.156 0 0 4.016 36.719 3.982 39.139-.06 4.237-2.054 7.345-6.367 8.153-4.708.883-7.836-1.389-9.383-5.891-.525-1.528-5.809-29.002-5.809-29.002.15-1.617.397-3.612.322-5.233-.206-4.457-.113-13.551 4.001-14.322z"
      ></path>
      <path
        fill="#AD6F4B"
        d="M112.007 123.636l.07-.002c4.481-.134 8.366 4.685 8.679 10.763l2.348 45.643c.312 6.079-3.067 11.115-7.548 11.249l-.07.002c-4.48.134-8.366-4.685-8.679-10.764l-2.347-45.643c-.313-6.079 3.066-11.115 7.547-11.248z"
      ></path>
      <path
        fill="#AD6F4B"
        d="M112.106 170.662l2.815-.015c5.398-.028 10.028 5.646 10.342 12.672l.28 6.243c.313 7.027-3.807 12.745-9.203 12.773l-2.816.015c-5.397.028-10.027-5.646-10.341-12.672l-.279-6.243c-.315-7.027 3.805-12.745 9.202-12.773z"
      ></path>
      <path
        fill="#AD6F4B"
        d="M111.41 188.418c1.174-4.469 5.314-6.732 9.246-5.055.713.304 1.37.717 1.961 1.215 2.67 2.252 3.995 6.255 3.034 9.914l-3.208 12.204c-1.173 4.469-5.313 6.731-9.245 5.054-3.932-1.677-6.169-6.659-4.995-11.128l3.207-12.204z"
      ></path>
      <path
        fill="#9A5731"
        d="M102.204 186.032c-.132-3.115 1.67-5.651 4.027-5.666 2.357-.014 4.375 2.5 4.507 5.616l.362 8.507c.133 3.115-1.67 5.652-4.026 5.667-2.357.013-4.374-2.501-4.508-5.616l-.362-8.508z"
      ></path>
      <path
        fill="#4F4F4F"
        d="M30.223 157.564c1.8 23.267 15.622 41.275 32.204 41.275 16.8 0 31.607-17.57 33.12-41.275H30.223z"
      ></path>
      <path
        fill="#4B4B4B"
        d="M95.547 157.733l-31.55 4.395-.255 36.614 2.85 16.045h34.804c-.426-30.307-2.82-38.278-5.85-57.054zM30.221 157.564l33.252 4.547v36.628l-2.9 16.045H25.85c-.22-29.782 3.235-37.858 4.371-57.22z"
      ></path>
      <path
        fill="#AD6F4B"
        d="M22.7 79.991h80.597c7.988 0 14.418 7.003 14.418 15.702s-6.43 15.702-14.418 15.702H22.699c-7.987 0-14.418-7.003-14.418-15.702 0-8.7 6.43-15.702 14.418-15.702z"
      ></path>
      <path
        fill="#AD6F4B"
        d="M50.852 83.464h24.6c13.746 0 24.811 10.123 24.811 22.699 0 12.574-11.065 22.697-24.81 22.697h-24.6c-13.746 0-24.812-10.123-24.812-22.697 0-12.576 11.066-22.7 24.811-22.7z"
      ></path>
      <path
        fill="#4F4F4F"
        fillOpacity="0.99"
        d="M62.344 72.917c1.486 0 2.967.083 4.435.244 17.705 1.943 33.485 15.25 33.485 31.478L89.15 122.014H37.514l-10.217-17.375c0-17.574 15.631-31.722 35.047-31.722z"
      ></path>
      <path
        fill="#4F4F4F"
        d="M50.713 80.995h24.666c13.783 0 25.101 10.962 24.881 24.706-.277 17.353-16.936 24.917-24.88 24.917H50.712c-7.559 0-25.147-8.038-24.878-24.811.221-13.744 11.096-24.812 24.878-24.812z"
      ></path>
      <path
        fill="#9A5731"
        fillRule="evenodd"
        d="M63.745 152.846a1.29 1.29 0 00-2.58 0v2.402a1.291 1.291 0 002.58 0v-2.402z"
        clipRule="evenodd"
      ></path>
      <path
        fill="#9A5731"
        d="M86.263 144.916c-23.243-4.993-47.128 0-47.128 0 0-1.13 11.17-4.993 23.885-4.993 12.715 0 23.243 3.863 23.243 4.993z"
      ></path>
      <path
        fill="#fff"
        d="M52.022 279.905h-16.92c-.898 0-1.627.936-1.627 2.091v18.325c0 1.155.729 2.091 1.627 2.091h16.92c.899 0 1.629-.936 1.629-2.091v-18.325c0-1.155-.73-2.091-1.63-2.091z"
      ></path>
      <path
        fill="#4B4B4B"
        d="M45.392 286.358h-5.59c-1.329 0-2.405 1.341-2.405 2.994v2.687c0 1.654 1.076 2.995 2.404 2.995h5.59c1.33 0 2.405-1.341 2.405-2.995v-2.687c0-1.653-1.075-2.994-2.404-2.994z"
      ></path>
      <path
        fill="#4F4F4F"
        d="M46.818 290.972h-8.923c-5.145 0-9.317 4.796-9.317 10.715 0 5.918 4.172 10.714 9.317 10.714h8.922c5.145 0 9.316-4.796 9.316-10.714 0-5.919-4.17-10.715-9.316-10.715z"
      ></path>
      <path
        fill="#4F4F4F"
        d="M53.352 300.706H30.745c-1.8 0-3.26 1.589-3.26 3.548v4.64c0 1.961 1.46 3.55 3.26 3.55h22.607c1.801 0 3.261-1.589 3.261-3.55v-4.64c0-1.959-1.46-3.548-3.261-3.548z"
      ></path>
      <path
        fill="#fff"
        d="M54.327 307.954H29.711c-.626 0-1.133.597-1.133 1.335v1.745c0 .737.507 1.336 1.133 1.336h24.616c.626 0 1.132-.599 1.132-1.336v-1.745c0-.738-.507-1.335-1.132-1.335zM45.98 291.511h-6.535c-.341 0-.617.343-.617.768 0 .423.276.767.617.767h6.535c.34 0 .617-.344.617-.767 0-.425-.277-.768-.617-.768z"
      ></path>
      <path
        fill="#585858"
        d="M38.98 296.453h-3.14c-1.107 0-2.006 1.117-2.006 2.497 0 1.379.899 2.497 2.005 2.497h3.14c1.108 0 2.005-1.118 2.005-2.497 0-1.38-.897-2.497-2.005-2.497z"
      ></path>
      <path
        fill="#fff"
        d="M45.98 293.967h-6.535c-.341 0-.617.344-.617.767 0 .423.276.767.617.767h6.535c.34 0 .617-.344.617-.767 0-.423-.277-.767-.617-.767zM91.637 279.918h-16.28c-.865 0-1.568.945-1.568 2.11v18.487c0 1.166.703 2.11 1.567 2.11h16.28c.866 0 1.567-.944 1.567-2.11v-18.487c0-1.165-.701-2.11-1.566-2.11z"
      ></path>
      <path
        fill="#4B4B4B"
        d="M86.214 286.46h-5.473c-1.3 0-2.354 1.338-2.354 2.986v2.68c0 1.649 1.054 2.986 2.354 2.986h5.473c1.3 0 2.354-1.337 2.354-2.986v-2.68c0-1.648-1.054-2.986-2.354-2.986z"
      ></path>
      <path
        fill="#4F4F4F"
        d="M88.937 291.031h-8.903c-5.135 0-9.298 4.784-9.298 10.686s4.163 10.686 9.298 10.686h8.903c5.135 0 9.672-4.699 9.672-10.601 0-5.903-4.537-10.771-9.672-10.771z"
      ></path>
      <path
        fill="#4F4F4F"
        d="M96.405 300.738h-22.93c-1.825 0-3.307 1.585-3.307 3.539v4.627c0 1.956 1.482 3.541 3.307 3.541h22.93c1.826 0 3.307-1.585 3.307-3.541v-4.627c0-1.954-1.481-3.539-3.307-3.539z"
      ></path>
      <path
        fill="#fff"
        d="M97.454 307.967h-25.14c-.64 0-1.158.596-1.158 1.331v1.74c0 .736.519 1.332 1.157 1.332h25.14c.64 0 1.157-.596 1.157-1.332v-1.74c0-.735-.518-1.331-1.156-1.331zM87.729 291.567H81.33c-.333 0-.603.343-.603.766s.27.766.603.766h6.399c.332 0 .603-.343.603-.766s-.27-.766-.603-.766z"
      ></path>
      <path
        fill="#585858"
        d="M89.903 296.526H86.83c-1.084 0-1.963 1.115-1.963 2.491 0 1.375.879 2.49 1.963 2.49h3.073c1.084 0 1.963-1.115 1.963-2.49 0-1.376-.879-2.491-1.963-2.491z"
      ></path>
      <path
        fill="#fff"
        d="M87.729 294.047H81.33c-.333 0-.603.344-.603.765 0 .423.27.766.603.766h6.399c.332 0 .603-.343.603-.766 0-.421-.27-.765-.603-.765z"
      ></path>
      <path
        fill="#4F4F4F"
        d="M30.223 157.564c1.8 23.267 15.622 41.275 32.204 41.275 16.8 0 31.607-17.57 33.12-41.275H30.224z"
      ></path>
      <path
        fill="#4B4B4B"
        d="M95.547 157.733l-31.55 4.395-.255 36.614 2.85 16.045h34.804c-.426-30.307-2.82-38.278-5.85-57.054zM30.221 157.564l33.252 4.547v36.628l-2.9 16.045H25.85c-.22-29.782 3.235-37.858 4.371-57.22z"
      ></path>
      <path
        fill="#AD6F4B"
        d="M63.128 47.497c8.332 0 15.042 9.376 15.042 21.023v8.626c0 11.647-6.404 14.926-14.736 14.898-8.766-.028-15.348-3.251-15.348-14.898V68.52c0-11.647 6.708-21.023 15.042-21.023z"
      ></path>
      <path
        fill="#9A5731"
        d="M60.86 49.192h4.532c5.217 0 9.417 5.873 9.417 13.167v5.402c0 7.294-4.2 13.167-9.417 13.167h-4.531c-5.218 0-9.418-5.873-9.418-13.167v-5.402c0-7.294 4.2-13.167 9.418-13.167zM52.81 86.071c-.593 0-1.07.55-1.07 1.231 0 .682.477 1.23 1.07 1.23h5.943l1.707 1.433c.48.403 1.148.282 1.498-.27.35-.553.245-1.322-.235-1.725l-1.767-1.483c-.018-.016-.038-.024-.057-.038a1 1 0 00-.769-.378h-6.32zm13.9 0a1 1 0 00-.768.378c-.019.014-.04.022-.057.038l-1.767 1.483c-.48.403-.585 1.172-.235 1.724.35.553 1.018.674 1.498.27l1.706-1.432h5.944c.593 0 1.07-.548 1.07-1.23 0-.682-.477-1.23-1.07-1.23h-6.32z"
      ></path>
      <path
        fill="#AD6F4B"
        d="M40.082 36.853h47.026a9.714 9.714 0 019.734 9.736 9.713 9.713 0 01-9.734 9.735H40.082a9.713 9.713 0 01-9.734-9.735 9.714 9.714 0 019.734-9.736z"
      ></path>
      <path
        fill="#9A5731"
        d="M40.424 39.33h46.34a7.244 7.244 0 017.26 7.259 7.244 7.244 0 01-7.26 7.26h-46.34a7.244 7.244 0 01-7.26-7.26 7.244 7.244 0 017.26-7.26zM61.217 70.38h3.043c.245 0 .441.173.441.386v.227c0 .213-.196.385-.441.385h-3.044c-.244 0-.44-.172-.44-.385v-.227c0-.213.196-.385.44-.385z"
      ></path>
      <path
        fill="#4F4F4F"
        d="M52.93 85.261l.178 1.266a21.533 21.533 0 003.386 8.92 21.59 21.59 0 013.601 11.957v3.417c0 2.324-.245 4.641-.73 6.912l-1.638 7.662c-.082.386-.123.78-.123 1.176v5.121c0 3.609-4.47 5.149-6.59 2.27a3.774 3.774 0 01-.63-1.343l-.676-2.723a18.152 18.152 0 01-.187-7.884l.58-2.935c.31-1.563.465-3.154.465-4.75v-3.587c0-2.61-.789-5.153-2.258-7.283a12.805 12.805 0 01-2.17-5.77l-.04-.335a14.188 14.188 0 00-1.542-4.966l-1.518-2.876a22.106 22.106 0 00-1.926-3.022l-1.518-2.002a14.828 14.828 0 01-2.995-8.956c0-2.133-.456-4.24-1.336-6.175l-1.814-3.98a5.608 5.608 0 01-.502-2.318c0-3.024 2.387-5.473 5.33-5.473h7.512l1.657 3.762a8.142 8.142 0 01.238 5.953 8.144 8.144 0 00.512 6.512l2.528 4.706a20.248 20.248 0 012.206 6.745z"
      ></path>
      <path
        fill="#AD6F4B"
        d="M58.31 9.491h10.57c8.786 0 22.681 12.405 22.681 24.604v17.308c0 12.199-13.023 25.55-22.354 25.55H57.983c-9.33 0-22.354-13.351-22.354-25.55V34.095c0-12.2 13.895-24.604 22.68-24.604z"
      ></path>
      <path
        fill="#4F4F4F"
        d="M59.125 6.686a27.518 27.518 0 00-27.578 27.578c0 5.8 1.775 11.167 4.81 15.6V38.142c0-4.37 2.175-8.769 5.33-12.474l11.97-.02a8.688 8.688 0 008.66-9.533h2.562a8.688 8.688 0 008.66 9.533l11.996.02c3.155 3.705 5.33 8.104 5.33 12.474v11.72a27.507 27.507 0 004.812-15.6 27.519 27.519 0 00-27.58-27.577h-8.972z"
      ></path>
      <path
        fill="#4F4F4F"
        d="M71.976.506h-16.77a7.759 7.759 0 00-7.759 7.76v3.947a7.76 7.76 0 007.76 7.76h16.769a7.76 7.76 0 007.76-7.76V8.265a7.76 7.76 0 00-7.76-7.76z"
      ></path>
      <path
        fill="#4F4F4F"
        d="M40.836 12.364c6.701-3.38 16.446-5.217 20.546-5.604.886-.084 1.764.008 2.638.177l12.502 2.417a14.251 14.251 0 018.09 4.717l6.253 7.265a14.943 14.943 0 013.595 9.747v4.088c0 .587.138 1.166.402 1.688 1.9 3.754-2.89 7.273-5.74 4.217l-5.736-6.153a4.711 4.711 0 00-2.487-1.407l-18.572-3.871a13.977 13.977 0 00-2.873-.294l-9.673.014c-2.087.003-4.12.842-5.362 2.565-1.544 2.141-3.036 4.769-4.156 7.342-1.23 2.829-5.41 4.516-7.825 2.658a3.723 3.723 0 01-1.296-3.938c.093-.33.14-.67.14-1.015l-.001-3.08c-.002-1.074.886-4.713 1.165-5.748 1.583-5.846 3.086-13.109 8.39-15.785z"
      ></path>
      <path
        fill="#9A5731"
        d="M63.59 42.973c1.866 0 3.369 1.588 3.369 3.56v6.285c0 1.972-1.503 3.56-3.368 3.56-1.866 0-3.368-1.588-3.368-3.56v-6.285c0-1.972 1.502-3.56 3.368-3.56z"
      ></path>
      <path
        fill="#9A5731"
        d="M69.204 52.34c0 1.572-1.33 2.835-2.982 2.835h-5.26c-1.652 0-2.982-1.263-2.982-2.835 0-1.571 1.33-2.835 2.982-2.835h5.26c1.652 0 2.982 1.264 2.982 2.835zM55.102 62.958c-.391 0-.766.044-1.042.122-.278.078-.432.185-.432.295v.315c0 .62-.388 1.613.726 2.046 1.116.434 3.82.315 5.75.315h6.843c1.93 0 4.422.229 5.538-.204 1.115-.434.94-1.537.94-2.157v-.315c0-.11-.156-.217-.433-.295a4.037 4.037 0 00-1.042-.122H55.1z"
      ></path>
      <path
        fill="#4D4D4D"
        d="M46.971 35.26l9.474.772a1.862 1.862 0 011.708 2.01 1.862 1.862 0 01-2.011 1.709l-9.475-.773a1.862 1.862 0 01-1.708-2.01 1.862 1.862 0 012.012-1.709zM80.213 35.26l-9.473.772a1.862 1.862 0 00-1.708 2.01 1.862 1.862 0 002.01 1.709l9.475-.773a1.862 1.862 0 001.708-2.01 1.863 1.863 0 00-2.012-1.709z"
      ></path>
      <path
        fill="#61534B"
        d="M51.428 40.469h1.24c1.125 0 2.03.907 2.03 2.031v2.86c0 1.125-.905 2.031-2.03 2.031h-1.24a2.026 2.026 0 01-2.031-2.03V42.5c0-1.125.905-2.032 2.03-2.032zM75.755 40.469h-1.24a2.027 2.027 0 00-2.03 2.031v2.86c0 1.125.905 2.031 2.03 2.031h1.24a2.026 2.026 0 002.032-2.03V42.5a2.027 2.027 0 00-2.032-2.032z"
      ></path>
    </svg>