    <svg
      xmlns="http://www.w3.org/2000/svg"
      width="110"
      height="325"
      fill="none"
      viewBox="0 0 110 325"
    >
      <path
        fill="#F6D2AF"
        d="M89.356 94.951l3.906-4.993c2.91-3.401 6.906-3.247 8.343.323l4.775 11.868c.538 1.338.92 2.805 1.135 4.366l.933 6.763c.494 3.585.471 7.412-.07 11.315l-.974 7.027a22.126 22.126 0 00-.214 3.035v2.417c0 1.16-.229 2.374-.667 3.533-.591 1.563-.756 3.201-.729 4.755.099 5.968-2.48 11.819-5.196 13.256l-.047.025c-3.07 1.625-6.334-2.49-7.289-9.192l-1.656-6.431-2.941-13.459c-.797-3.643-1.019-7.618-.655-11.728l.517-5.83.455-5.847c.101-1.289-.14-2.477-.682-3.372-1.252-2.069-.795-5.466 1.056-7.831z"
      ></path>
      <path
        fill="#F6D2AF"
        d="M100.215 121.006l.057.003c3.661.208 6.697 5.681 6.779 12.226l.62 49.14c.082 6.544-2.819 11.681-6.479 11.474l-.058-.004c-3.66-.207-6.695-5.681-6.778-12.224l-.62-49.14c-.083-6.545 2.818-11.682 6.479-11.475z"
      ></path>
      <path
        fill="#F6D2AF"
        d="M98.081 173.371l2.408.222c4.615.426 8.424 6.936 8.507 14.54l.074 6.755c.083 7.604-3.592 13.421-8.207 12.995l-2.408-.223c-4.615-.427-8.423-6.937-8.506-14.541l-.075-6.753c-.083-7.604 3.592-13.422 8.207-12.995z"
      ></path>
      <path
        fill="#F6D2AF"
        d="M96.507 192.347c1.171-4.665 4.996-6.69 8.545-4.525 3.549 2.167 5.477 7.705 4.306 12.371l-3.197 12.741c-1.17 4.664-4.996 6.69-8.544 4.523-3.549-2.166-5.477-7.704-4.306-12.369l3.196-12.741z"
      ></path>
      <path
        fill="#F2BF92"
        d="M88.963 189.138c-.027-3.36 1.555-5.938 3.534-5.76 1.978.178 3.604 3.047 3.63 6.407l.073 9.177c.027 3.36-1.555 5.939-3.533 5.759-1.978-.178-3.605-3.047-3.631-6.407l-.073-9.176z"
      ></path>
      <path
        fill="#F6D2AF"
        d="M20.674 94.951l-3.907-4.993c-2.91-3.401-6.907-3.247-8.343.323L3.65 102.149a18.476 18.476 0 00-1.136 4.366l-.932 6.763c-.495 3.585-.471 7.412.07 11.315l.974 7.027c.142 1.024.213 2.04.213 3.035v2.417c0 1.16.229 2.374.668 3.533.59 1.563.755 3.201.73 4.755-.1 5.968 2.48 11.819 5.194 13.256l.048.025c3.07 1.625 6.334-2.49 7.289-9.192l1.655-6.431 2.942-13.459c.796-3.643 1.018-7.618.654-11.728l-.516-5.83-.455-5.847c-.101-1.289.14-2.477.68-3.372 1.254-2.069.796-5.466-1.053-7.831z"
      ></path>
      <path
        fill="#F6D2AF"
        d="M9.81 121.006l-.057.003c-3.66.208-6.695 5.681-6.778 12.226l-.62 49.14c-.083 6.544 2.818 11.681 6.48 11.474l.057-.004c3.661-.207 6.696-5.681 6.779-12.224l.62-49.14c.082-6.545-2.819-11.682-6.48-11.475z"
      ></path>
      <path
        fill="#F6D2AF"
        d="M11.945 173.371l-2.408.222c-4.615.426-8.424 6.936-8.507 14.54l-.074 6.755c-.083 7.604 3.591 13.421 8.206 12.995l2.408-.223c2.925-.27 5.527-2.984 7.06-6.871.887-2.247 1.417-4.885 1.448-7.67l.073-6.753c.083-7.604-3.59-13.422-8.206-12.995z"
      ></path>
      <path
        fill="#F6D2AF"
        d="M13.519 192.347c-1.17-4.665-4.996-6.69-8.544-4.525-3.55 2.167-5.477 7.705-4.306 12.371l3.196 12.741c1.17 4.664 4.996 6.69 8.545 4.523 3.549-2.166 5.477-7.704 4.306-12.369l-3.197-12.741z"
      ></path>
      <path
        fill="#F2BF92"
        d="M21.064 189.138c.026-3.36-1.555-5.938-3.534-5.76-1.978.178-3.604 3.047-3.63 6.407l-.074 9.177c-.027 3.36 1.555 5.939 3.534 5.759 1.979-.178 3.604-3.047 3.63-6.407l.074-9.176z"
      ></path>
      <path
        fill="#F6D2AF"
        d="M44.002 239.806h-1.879c-4.476 0-8.106 4.638-8.106 10.36v46.165l-1.62 19.742c0 4.315 3.31 7.811 7.395 7.811h1.725c4.085 0 7.396-3.496 7.396-7.811v-28.827c0-2.007.384-3.983 1.116-5.76.735-1.775 1.118-3.752 1.118-5.759v-3.79c0-2.222-.216-4.434-.642-6.588a34 34 0 01-.64-6.589v-11.462c0-.44-.032-.88-.091-1.313-.498-3.574-2.93-6.179-5.772-6.179z"
      ></path>
      <path
        fill="#F6D2AF"
        d="M42.425 161.681H31.379c-.541 0-.98.561-.98 1.253l-3.547 42.294v14.762c0 1.873.119 3.745.358 5.593l.8 6.205c.453 3.513 1.383 6.898 2.75 10.002l2.316 5.266c.492 1.118.75 2.38.75 3.664 0 4.125 2.619 7.47 5.847 7.47h3.678c3.456 0 6.259-3.582 6.259-8 0-.945.13-1.882.386-2.769l.835-2.89c.357-1.24.64-2.515.841-3.812l1.261-8.101 1.219-10.371c.198-1.691.298-3.396.298-5.106v-40.09c0-8.49-5.384-15.37-12.025-15.37zM43.919 307.458h-6.945c-4.005 0-7.251 3.701-7.251 8.267 0 4.565 3.246 8.265 7.25 8.265h6.946c4.004 0 7.25-3.7 7.25-8.265 0-4.566-3.246-8.267-7.25-8.267z"
      ></path>
      <path
        fill="#F6D2AF"
        d="M48.769 314.926H32.124c-1.326 0-2.401 1.226-2.401 2.737v3.581c0 1.512 1.075 2.737 2.4 2.737H48.77c1.326 0 2.4-1.225 2.4-2.737v-3.581c0-1.511-1.074-2.737-2.4-2.737zM66.291 238.13h1.782c4.469 0 8.092 4.631 8.092 10.342v47.371l1.62 20.158c0 4.405-3.31 7.975-7.396 7.975h-1.724c-4.085 0-7.396-3.57-7.396-7.975v-29.988c0-1.929-.385-3.827-1.117-5.515-.732-1.687-1.117-3.585-1.117-5.513v-4.133c0-2.213.21-4.417.627-6.565l.015-.078c.426-2.199.64-4.457.64-6.723v-11.722c0-.439.03-.878.09-1.311.498-3.655 2.981-6.323 5.884-6.323z"
      ></path>
      <path
        fill="#F6D2AF"
        d="M69.046 161.649h6.444c1.662 0 3.14 1.348 3.681 3.355.08.296.138.603.172.913l4.097 36.434c.182 1.62.273 3.255.273 4.891v12.11a43.9 43.9 0 01-.364 5.646l-.793 6.086c-.454 3.485-1.385 6.84-2.749 9.913l-2.316 5.21a9.034 9.034 0 00-.754 3.649c0 4.08-2.587 7.388-5.78 7.388h-3.81c-3.419 0-6.192-3.542-6.192-7.913 0-.943-.131-1.879-.389-2.762l-.832-2.856a30.244 30.244 0 01-.841-3.775l-1.261-8.024-1.213-10.225a43.863 43.863 0 01-.304-5.153v-38.36c0-9.127 5.79-16.527 12.93-16.527zM67.13 307.458h6.945c4.005 0 7.252 3.689 7.252 8.238 0 4.549-3.247 8.237-7.252 8.237h-6.944c-4.005 0-7.252-3.688-7.252-8.237 0-4.549 3.248-8.238 7.252-8.238z"
      ></path>
      <path
        fill="#F6D2AF"
        d="M62.28 310.465h16.646c1.325 0 2.4 1.77 2.4 3.955v5.172c0 2.184-1.075 3.955-2.4 3.955H62.28c-1.325 0-2.401-1.771-2.401-3.955v-5.172c0-2.185 1.076-3.955 2.401-3.955zM81.991 121.897c0-21.342-13.427-29.576-27.05-29.576-13.623 0-26.06 8.234-26.06 29.576l1.393 36.989c0 21.343 11.044 38.645 24.667 38.645 13.623 0 24.668-12.441 24.668-33.783l2.382-41.851z"
      ></path>
      <path
        fill="#F6D2AF"
        d="M88.657 73.81h-68.07c-7.369 0-13.343 7.634-13.343 17.052 0 9.417 5.974 17.052 13.342 17.052h68.071c7.368 0 13.341-7.635 13.341-17.052 0-9.418-5.973-17.052-13.341-17.052z"
      ></path>
      <path
        fill="#F6D2AF"
        d="M90.921 99.727c0-19.784-16.183-35.822-36.145-35.822-19.963 0-36.145 16.038-36.145 35.822 0 19.782 16.182 35.82 36.145 35.82 7.44 0 14.354-2.228 20.102-6.046 9.675-6.428 16.043-17.365 16.043-29.774z"
      ></path>
      <path
        fill="#F6D2AF"
        d="M56.848 126.073h-3.993c-9.52 0-17.24 8.93-17.24 19.945 0 0 .139 13.074.199 13.051l19.621 11.284c-.06-.065 19.313-11.119 19.064-11.284-.206-.135.008.042 0 0l-.411-13.051c0-11.015-7.718-19.945-17.24-19.945z"
      ></path>
      <path
        fill="#F2BF92"
        d="M73.462 73.81H36.089c-9.642 0-17.458 8.792-17.458 19.64v11.837c0 10.845 7.816 19.639 17.458 19.639h37.373c9.643 0 17.46-8.794 17.46-19.639V93.45c0-10.848-7.817-19.64-17.46-19.64z"
      ></path>
      <path
        fill="#F6D2AF"
        d="M76.723 73.81H32.83c-7.842 0-14.198 8.17-14.198 18.251v11c0 10.08 6.356 18.252 14.198 18.252h43.894c7.842 0 14.198-8.172 14.198-18.252v-11c0-10.081-6.356-18.251-14.198-18.251z"
      ></path>
      <path
        fill="#F2BF92"
        d="M57.796 113.813c0-1.245-1.363-2.253-3.045-2.253-1.68 0-3.044 1.008-3.044 2.253v4.369c0 1.244 1.363 2.253 3.044 2.253 1.682 0 3.045-1.009 3.045-2.253v-4.369zM35.413 115.672h-2.586c-1.03 0-1.866.965-1.866 2.155 0 1.187.836 2.152 1.866 2.152h2.586c1.03 0 1.865-.965 1.865-2.152 0-1.19-.835-2.155-1.865-2.155zM77.5 115.672h-2.585c-1.03 0-1.866.965-1.866 2.155 0 1.187.835 2.152 1.866 2.152H77.5c1.03 0 1.866-.965 1.866-2.152 0-1.19-.835-2.155-1.866-2.155zM50.585 131.688h-4.579c-2.184 0-3.953 1.973-3.953 4.406s1.77 4.405 3.953 4.405h4.579c2.184 0 3.953-1.972 3.953-4.405 0-2.433-1.77-4.406-3.953-4.406zM50.585 142.162h-4.579c-2.184 0-3.953 1.973-3.953 4.405 0 2.433 1.77 4.406 3.953 4.406h4.579c2.184 0 3.953-1.973 3.953-4.406 0-2.432-1.77-4.405-3.953-4.405zM50.585 152.446h-4.579c-2.184 0-3.953 1.972-3.953 4.405 0 2.433 1.77 4.405 3.953 4.405h4.579c2.184 0 3.953-1.972 3.953-4.405 0-2.433-1.77-4.405-3.953-4.405zM64.647 131.688H60.07c-2.184 0-3.954 1.973-3.954 4.405 0 2.434 1.77 4.406 3.954 4.406h4.578c.547 0 1.068-.124 1.541-.348 1.418-.67 2.412-2.234 2.412-4.058 0-2.432-1.77-4.405-3.953-4.405zM64.647 142.162H60.07c-2.184 0-3.954 1.973-3.954 4.405 0 2.433 1.77 4.406 3.954 4.406h4.578c2.183 0 3.953-1.973 3.953-4.406 0-2.432-1.77-4.405-3.953-4.405zM64.647 152.445H60.07c-2.184 0-3.954 1.972-3.954 4.406 0 2.432 1.77 4.404 3.954 4.404h4.578c2.183 0 3.953-1.972 3.953-4.404 0-2.434-1.77-4.406-3.953-4.406z"
      ></path>
      <path
        fill="#F6D2AF"
        d="M71.373 59.341c0-10.915-7.389-19.764-16.507-19.764-9.118 0-16.509 8.849-16.509 19.764v8.11c0 10.915 7.39 19.764 16.51 19.764 9.117 0 16.506-8.85 16.506-19.765v-8.109z"
      ></path>
      <path
        fill="#F2BF92"
        d="M48.797 82.427l-9.01-4.33a2.015 2.015 0 10-1.746 3.63l9.011 4.332a2.014 2.014 0 101.745-3.632zM59.749 82.427l9.011-4.33a2.016 2.016 0 012.69.942 2.016 2.016 0 01-.944 2.688l-9.01 4.332a2.015 2.015 0 01-1.747-3.632zM57.687 40.906h-6.403c-7.35 0-13.307 5.958-13.307 13.307v5.46c0 7.349 5.957 13.306 13.307 13.306h6.403c7.349 0 13.307-5.957 13.307-13.306v-5.46c0-7.35-5.958-13.307-13.307-13.307z"
      ></path>
      <path
        fill="#F6D2AF"
        d="M77.506 29.324H31.755c-5.23 0-9.472 4.405-9.472 9.838 0 5.435 4.241 9.84 9.472 9.84h45.751c5.23 0 9.472-4.405 9.472-9.84 0-5.433-4.241-9.838-9.472-9.838z"
      ></path>
      <path
        fill="#F2BF92"
        d="M77.788 30.811H31.736c-3.985 0-7.215 3.285-7.215 7.337 0 4.053 3.23 7.338 7.215 7.338h46.052c3.983 0 7.214-3.285 7.214-7.338 0-4.052-3.23-7.337-7.214-7.337z"
      ></path>
      <path
        fill="#F6D2AF"
        d="M61.649.72H47.877C36.47.72 27.22 9.968 27.22 21.379V45.86c0 11.411 9.25 20.66 20.658 20.66H61.65c11.409 0 20.659-9.249 20.659-20.66V21.379c0-11.41-9.25-20.66-20.66-20.66z"
      ></path>
      <path
        fill="#F6D2AF"
        d="M61.211 63.72H48.343a2.52 2.52 0 000 5.04h12.868a2.52 2.52 0 000-5.04z"
      ></path>
      <path
        fill="#F2BF92"
        d="M56.855 60.904h-3.721a.539.539 0 00-.538.54v.317c0 .297.24.539.538.539h3.72a.54.54 0 00.539-.54v-.316a.54.54 0 00-.538-.54zM58.788 37.104a4.045 4.045 0 10-8.09 0v7.138a4.046 4.046 0 008.09 0v-7.138z"
      ></path>
      <path
        fill="#F2BF92"
        d="M54.299 45.182l-3.762-3.197a1.478 1.478 0 00-1.913 2.251l3.762 3.198a1.478 1.478 0 001.913-2.252zM55.332 45.182l3.761-3.197a1.477 1.477 0 111.913 2.251l-3.762 3.198a1.478 1.478 0 01-1.912-2.252zM52.207 29.7a1.134 1.134 0 10-2.267 0v1.372a1.134 1.134 0 002.267 0V29.7zM59.736 29.7a1.133 1.133 0 10-2.267 0v1.372a1.134 1.134 0 002.267 0V29.7z"
      ></path>
      <path
        fill="#61534B"
        d="M44.94 32.046a2.531 2.531 0 10-5.063 0v1.014a2.531 2.531 0 005.063 0v-1.014zM69.56 32.046a2.531 2.531 0 00-5.064 0v1.012a2.531 2.531 0 105.063 0v-1.012z"
      ></path>
      <path
        fill="#fff"
        d="M59.532 58.08c3.727 0 6.726-3.203 6.726-7.183v-1.163H43.609v1.163c0 3.98 3 7.184 6.726 7.184h9.197z"
      ></path>
      <path
        fill="#61534B"
        fillRule="evenodd"
        d="M72.522 27.116c0-.3-.245-.545-.546-.545h-7.634c-.301 0-.545.244-.545.545v1.09c0 .302.244.546.545.546h7.634c.3 0 .546-.244.546-.546v-1.09zM46.322 27.085c0-.301-.245-.545-.546-.545H38.14c-.3 0-.545.244-.545.545v1.091c0 .301.245.545.546.545h7.634c.3 0 .546-.244.546-.545v-1.091z"
        clipRule="evenodd"
      ></path>
      <path
        fill="#A27B5F"
        d="M43.38.72c-9.796 0-17.683 8.344-17.683 18.713 0 .485.023.965.057 1.444a5.315 5.315 0 00-.057.746v11.463c0 2.46 1.643 4.498 3.837 4.96v-14.96c0-10.708 8.147-19.33 18.267-19.33h14.291c10.119 0 18.267 8.622 18.267 19.33v14.979c2.255-.407 3.964-2.472 3.964-4.98V21.624c0-.254-.024-.503-.058-.746.035-.479.058-.96.058-1.444C84.323 9.063 76.436.72 66.64.72H43.38z"
      ></path>
      <path
        fill="#A27B5F"
        fillRule="evenodd"
        d="M36.563 3.321c-1.791 1.124-2.733 2.397-2.733 3.694 0 4.078 9.14 7.388 20.4 7.388 11.26 0 20.4-3.31 20.4-7.388 0-1.297-.941-2.57-2.733-3.694H36.563z"
        clipRule="evenodd"
      ></path>
      <path
        fill="#4F4F4F"
        d="M34.486 163.975c-.007.004-4.163-.061-4.162-.047 1.39 19.413 12.28 35.21 25.072 35.21 12.96 0 23.292-15.434 24.46-35.212l-45.37.049z"
      ></path>
      <path
        fill="#4B4B4B"
        d="M79.855 163.926l-24.205 6.072v51.316h30c.23-15.424-3.624-39.447-5.795-57.388zM30.323 163.926l24.98 6.072v51.316H26.136c-.228-15.424 2.017-39.447 4.188-57.388z"
      ></path>
      <path
        fill="#fff"
        d="M48.19 290.325H34.545c-.725 0-1.313 1-1.313 2.235v19.584c0 1.235.588 2.235 1.313 2.235H48.19c.725 0 1.314-1 1.314-2.235V292.56c0-1.235-.59-2.235-1.314-2.235z"
      ></path>
      <path
        fill="#4B4B4B"
        d="M43.05 297.223h-4.647c-1.104 0-1.999 1.416-1.999 3.163v2.838c0 1.748.895 3.164 2 3.164h4.646c1.105 0 2-1.416 2-3.164v-2.838c0-1.747-.895-3.163-2-3.163z"
      ></path>
      <path
        fill="#4F4F4F"
        d="M44.119 302.097h-7.043c-4.06 0-7.353 5.067-7.353 11.32 0 6.252 3.292 11.319 7.353 11.319h7.043c4.06 0 7.352-5.067 7.352-11.319 0-6.253-3.291-11.32-7.352-11.32z"
      ></path>
      <path
        fill="#4F4F4F"
        d="M49.434 312.38H31.801c-1.404 0-2.543 1.679-2.543 3.748v4.902c0 2.072 1.139 3.751 2.543 3.751h17.633c1.406 0 2.544-1.679 2.544-3.751v-4.902c0-2.069-1.138-3.748-2.544-3.748z"
      ></path>
      <path
        fill="#fff"
        d="M51.022 320.037H30.215c-.529 0-.957.631-.957 1.41v1.844c0 .779.428 1.411.957 1.411h20.807c.528 0 .956-.632.956-1.411v-1.844c0-.779-.428-1.41-.956-1.41zM43.54 302.665h-5.432c-.283 0-.512.363-.512.812 0 .447.229.81.512.81h5.433c.282 0 .512-.363.512-.81 0-.449-.23-.812-.512-.812z"
      ></path>
      <path
        fill="#585858"
        d="M45.386 307.887h-2.61c-.92 0-1.667 1.18-1.667 2.638 0 1.457.747 2.638 1.667 2.638h2.61c.921 0 1.667-1.181 1.667-2.638 0-1.458-.746-2.638-1.666-2.638z"
      ></path>
      <path
        fill="#fff"
        d="M43.54 305.261h-5.432c-.283 0-.512.363-.512.81 0 .448.229.811.512.811h5.433c.282 0 .512-.363.512-.811 0-.447-.23-.81-.512-.81zM75.49 290.324H62.343c-.698 0-1.266 1.001-1.266 2.236v19.583c0 1.235.568 2.236 1.266 2.236h13.149c.698 0 1.265-1.001 1.265-2.236V292.56c0-1.235-.567-2.236-1.265-2.236z"
      ></path>
      <path
        fill="#4B4B4B"
        d="M72.957 297.254H68.31c-1.104 0-2 1.417-2 3.163v2.839c0 1.747.896 3.164 2 3.164h4.647c1.104 0 2-1.417 2-3.164v-2.839c0-1.746-.896-3.163-2-3.163z"
      ></path>
      <path
        fill="#4F4F4F"
        d="M74.076 302.097h-6.945c-4.006 0-7.254 5.067-7.254 11.32 0 6.252 3.248 11.319 7.253 11.319h6.946c4.006 0 7.253-5.067 7.253-11.319 0-6.253-3.247-11.32-7.253-11.32z"
      ></path>
      <path
        fill="#4F4F4F"
        d="M79.667 312.38H61.636c-1.436 0-2.6 1.679-2.6 3.748v4.902c0 2.072 1.164 3.751 2.6 3.751h18.03c1.437 0 2.601-1.679 2.601-3.751v-4.902c0-2.069-1.164-3.748-2.6-3.748z"
      ></path>
      <path
        fill="#fff"
        d="M81.289 320.037H60.014c-.54 0-.979.631-.979 1.41v1.844c0 .779.439 1.411.98 1.411h21.274c.54 0 .978-.632.978-1.411v-1.844c0-.779-.438-1.41-.978-1.41zM73.397 302.665h-5.433c-.284 0-.513.363-.513.812 0 .447.23.81.513.81h5.433c.282 0 .513-.363.513-.81 0-.449-.23-.812-.513-.812z"
      ></path>
      <path
        fill="#585858"
        d="M75.241 307.918h-2.61c-.92 0-1.666 1.181-1.666 2.638 0 1.457.746 2.638 1.667 2.638h2.61c.92 0 1.666-1.181 1.666-2.638 0-1.457-.746-2.638-1.667-2.638z"
      ></path>
      <path
        fill="#fff"
        d="M73.397 305.291h-5.433c-.284 0-.513.364-.513.81 0 .449.23.812.513.812h5.433c.282 0 .513-.363.513-.812 0-.446-.23-.81-.513-.81z"
      ></path>
    </svg>