    <svg
      xmlns="http://www.w3.org/2000/svg"
      width="121"
      height="312"
      fill="none"
      viewBox="0 0 121 312"
    >
      <path
        fill="#FAE4D0"
        d="M72.069 230.771h2.212c5.547 0 10.044 4.333 10.044 9.677l.001 25.919v18.404l2.011 18.861c0 4.122-4.11 7.462-9.181 7.462h-2.14c-5.07 0-9.18-3.34-9.18-7.462v-28.058c0-1.806-1.182-24.572-1.182-26.693v-10.967c0-.412.038-.822.11-1.227.619-3.42 3.702-5.916 7.305-5.916z"
      ></path>
      <path
        fill="#FAE4D0"
        d="M76.846 159.21h8c2.061 0 7.697.167 7.74.457.999 8.066 2.354 7.819 2.755 29.831 0 0-.118 11.501-1.506 21.206-1.04 7.281-5.17 19.874-6.864 22.749 0 0-2.436 5.033-2.436 6.229 0 3.818.526 9.061-5.317 8.973h-4.73c-4.243 0-9.821.017-9.821-4.073 0-.882-.173-10.918-.424-12.12l-1.566-7.507-1.505-9.568a31.05 31.05 0 01-.377-4.821v-35.893c0-8.54 7.186-15.463 16.05-15.463zM71.752 295.64h8.62c4.971 0 9.001 3.452 9.001 7.708s-4.03 7.707-9.001 7.707h-8.62c-4.97 0-9.002-3.451-9.002-7.707s4.031-7.708 9.002-7.708z"
      ></path>
      <path
        fill="#FAE4D0"
        d="M65.73 298.453h20.663c1.645 0 2.98 1.656 2.98 3.701v4.839c0 2.044-1.335 3.701-2.98 3.701H65.73c-1.646 0-2.981-1.657-2.981-3.701v-4.839c0-2.045 1.335-3.701 2.98-3.701zM48.042 229.747h-2.211c-5.547 0-10.045 4.333-10.045 9.677v44.323l-2.012 18.861c0 4.123 4.11 7.463 9.181 7.463h2.14c5.07 0 9.18-3.34 9.18-7.463V274.55c0-1.805 1.182-24.571 1.182-26.692V236.89a6.91 6.91 0 00-.11-1.227c-.619-3.42-3.701-5.916-7.305-5.916z"
      ></path>
      <path
        fill="#FAE4D0"
        d="M43.59 159.21h-8c-2.062 0-7.697.167-7.74.457-1 8.066-2.355 7.819-2.755 29.831 0 0 .118 11.501 1.505 21.206 1.041 7.281 5.171 19.874 6.864 22.749 0 0 2.436 5.033 2.436 6.229 0 3.818-.526 9.061 5.318 8.973h4.73c4.243 0 9.82.017 9.82-4.073 0-.882.174-10.918.425-12.12l1.565-7.507 1.505-9.568a31.05 31.05 0 00.378-4.821v-35.893c0-8.54-7.186-15.463-16.051-15.463zM40.306 295.278h8.62c4.972 0 9.002 3.452 9.002 7.708 0 4.257-4.03 7.708-9.002 7.708h-8.62c-4.97 0-9.001-3.451-9.001-7.708 0-4.256 4.03-7.708 9.001-7.708z"
      ></path>
      <path
        fill="#FAE4D0"
        d="M34.285 298.092h20.662c1.646 0 2.981 1.656 2.981 3.7v4.84c0 2.044-1.335 3.701-2.98 3.701H34.284c-1.645 0-2.98-1.657-2.98-3.701v-4.84c0-2.044 1.335-3.7 2.98-3.7zM60.107 72.895c1.18 0 2.354.076 3.519.224 14.045 1.777 26.562 13.95 26.562 28.797l-2.205 15.895 4.732 40.375c0 16.077-17.206 5.439-32.608 5.439-15.402 0-32.716 10.638-32.716-5.439l4.914-40.375v-15.895c0-16.078 12.4-29.02 27.802-29.02z"
      ></path>
      <path
        fill="#FAE4D0"
        d="M59.918 137.98h1.001c16.582 0 21.964-8.969 24.686 3.186l3.494 17.019c.56 2.501.397 5.224-.357 7.975-2.912 10.615-14.653 21.625-27.823 21.625h-1.001c-8.38 0-16.356-4.521-21.845-10.562-2.264-2.491-4.105-5.241-5.377-8.038-1.746-3.842-2.42-7.773-1.641-11.249l4.729-16.77c2.722-12.155 7.552-3.186 24.134-3.186z"
      ></path>
      <path
        fill="#F4D1B0"
        d="M60.57 108.216c2.34 0 4.224 2.584 4.224 5.792v5.372c0 3.209-1.884 5.792-4.225 5.792-2.34 0-4.225-2.583-4.225-5.792v-5.372c0-3.208 1.884-5.792 4.225-5.792z"
      ></path>
      <path
        fill="#FAE4D0"
        d="M48.426 100.091a6.178 6.178 0 00-3.49 1.077 13.072 13.072 0 00-8.704 4.15 13.246 13.246 0 00-3.539 9.018c0 3.5 1.381 6.858 3.84 9.333a13.063 13.063 0 009.27 3.865 13.055 13.055 0 008.61-3.259 13.228 13.228 0 004.363-8.155c.088-.433.136-.882.136-1.342v-8.203c0-3.592-2.818-6.484-6.316-6.484h-4.17zm19.417 0c-3.498 0-6.315 2.892-6.315 6.484v8.203c0 .46.047.909.135 1.342a13.228 13.228 0 004.363 8.155 13.053 13.053 0 008.61 3.259c3.478 0 6.812-1.39 9.27-3.865a13.247 13.247 0 003.84-9.333c0-3.349-1.265-6.573-3.54-9.018a13.07 13.07 0 00-8.702-4.15 6.178 6.178 0 00-3.492-1.077h-4.17zM21.945 89.833C16.478 88.81 9.895 90.956 8.69 96.99c0 0-4.017 36.719-3.983 39.138.06 4.238 2.055 7.346 6.367 8.154 4.709.883 7.837-1.389 9.383-5.891.525-1.528 5.81-29.002 5.81-29.002-.15-1.617-.398-3.612-.323-5.234.206-4.456.113-13.55-4-14.32z"
      ></path>
      <path
        fill="#FAE4D0"
        d="M13.386 124.313l-.07-.002c-4.481-.134-8.367 4.685-8.68 10.763l-2.348 45.644c-.311 6.079 3.067 11.115 7.548 11.249l.07.002c4.48.134 8.367-4.685 8.68-10.764l2.347-45.644c.313-6.078-3.067-11.115-7.547-11.248z"
      ></path>
      <path
        fill="#FAE4D0"
        d="M14.143 171.34l-2.817-.016C5.93 171.297 1.3 176.97.986 183.997l-.28 6.243c-.314 7.026 3.806 12.745 9.203 12.773l2.815.015c5.397.028 10.027-5.646 10.341-12.673l.28-6.242c.314-7.027-3.806-12.746-9.202-12.773z"
      ></path>
      <path
        fill="#FAE4D0"
        d="M14.838 189.095c-1.174-4.469-5.314-6.731-9.246-5.054-3.932 1.677-6.168 6.66-4.995 11.128l3.208 12.205c1.173 4.468 5.314 6.731 9.245 5.054 3.934-1.678 6.169-6.659 4.995-11.129l-3.207-12.204z"
      ></path>
      <path
        fill="#FAE4D0"
        d="M24.044 186.71c.132-3.116-1.67-5.652-4.027-5.666-2.356-.014-4.374 2.5-4.507 5.615l-.362 8.508c-.134 3.115 1.67 5.652 4.027 5.666 2.355.014 4.373-2.5 4.506-5.615l.363-8.508zM97.64 92.105c5.466-1.025 12.049 1.122 13.253 7.155 0 0 4.017 36.719 3.983 39.139-.06 4.238-2.055 7.346-6.367 8.153-4.709.883-7.837-1.389-9.383-5.891-.525-1.527-5.81-29.001-5.81-29.001.15-1.617.398-3.613.323-5.234-.206-4.457-.113-13.55 4-14.321z"
      ></path>
      <path
        fill="#FAE4D0"
        d="M106.198 126.585l.071-.002c4.48-.134 8.366 4.685 8.678 10.763l2.349 45.643c.311 6.079-3.067 11.115-7.548 11.249l-.07.002c-4.48.134-8.367-4.685-8.68-10.764l-2.347-45.643c-.313-6.079 3.067-11.115 7.547-11.248z"
      ></path>
      <path
        fill="#FAE4D0"
        d="M106.297 173.611l2.816-.015c5.397-.028 10.027 5.646 10.341 12.672l.28 6.243c.314 7.027-3.806 12.745-9.202 12.773l-2.817.015c-5.397.028-10.026-5.646-10.341-12.672l-.279-6.243c-.315-7.026 3.805-12.745 9.202-12.773z"
      ></path>
      <path
        fill="#FAE4D0"
        d="M105.602 191.367c1.173-4.469 5.313-6.732 9.245-5.055 3.933 1.678 6.169 6.661 4.995 11.129l-3.207 12.205c-1.174 4.468-5.314 6.731-9.246 5.053-3.932-1.677-6.168-6.659-4.995-11.128l3.208-12.204z"
      ></path>
      <path
        fill="#FAE4D0"
        d="M96.395 188.981c-.132-3.115 1.67-5.651 4.028-5.666 2.356-.014 4.374 2.501 4.506 5.616l.363 8.507c.133 3.116-1.671 5.652-4.026 5.667-2.357.013-4.375-2.5-4.508-5.616l-.362-8.508zM21.845 84.538h75.558c7.488 0 13.516 5.88 13.516 13.183 0 7.304-6.028 13.184-13.516 13.184H21.845c-7.489 0-13.517-5.88-13.517-13.184 0-7.303 6.028-13.183 13.517-13.183z"
      ></path>
      <path
        fill="#FAE4D0"
        d="M48.473 82.974h22.563c12.607 0 22.756 10.123 22.756 22.698 0 12.575-10.149 22.698-22.757 22.698H48.474c-12.607 0-22.756-10.123-22.756-22.698 0-12.575 10.15-22.698 22.756-22.698z"
      ></path>
      <path
        fill="#F4D1B0"
        fillRule="evenodd"
        d="M60.915 152.355a1.292 1.292 0 00-2.581 0v2.402a1.29 1.29 0 002.581 0v-2.402z"
        clipRule="evenodd"
      ></path>
      <path
        fill="#F4D1B0"
        d="M83.435 144.426c-23.243-4.993-47.128 0-47.128 0 0-1.13 11.17-4.993 23.885-4.993 12.715 0 23.243 3.863 23.243 4.993z"
      ></path>
      <path
        fill="#4F4F4F"
        d="M28.19 157.936c-2.496 23.523 14.506 41.274 30.486 41.274 16.19 0 36.638-17.703 33.359-41.274H28.19z"
      ></path>
      <path
        fill="#4B4B4B"
        d="M92.594 157.936l-32.783 4.563 1.084 36.944c-.54 5.239-.487 10.63.375 15.868l31.693.099c2.439-12.465 2.182-20.911 2.387-28.89.26-10.112.164-17.511-2.756-28.584z"
      ></path>
      <path
        fill="#4B4B4B"
        d="M27.536 157.936l33.255 4.563-1.084 36.944c.54 5.239.487 10.63-.375 15.868l-31.694.099c-2.438-12.465-2.182-20.911-2.386-28.89-.26-10.112-.638-17.511 2.284-28.584z"
      ></path>
      <path
        fill="#4F4F4F"
        fillOpacity="0.99"
        d="M58.414 72.889c1.387 0 2.769.082 4.138.243 16.518 1.944 31.24 15.25 31.24 31.478l-10.37 17.376H35.25l-9.532-17.376c0-17.574 14.583-31.721 32.697-31.721z"
      ></path>
      <path
        fill="#4F4F4F"
        d="M47.565 80.967h23.012c12.859 0 23.418 10.962 23.213 24.705-.259 17.354-15.8 24.917-23.213 24.917H47.565c-7.053 0-23.462-8.037-23.21-24.81.206-13.744 10.351-24.812 23.21-24.812z"
      ></path>
      <path
        fill="#fff"
        d="M53.208 278.229H36.844c-.87 0-1.575.936-1.575 2.091v18.325c0 1.156.706 2.091 1.575 2.091h16.364c.87 0 1.575-.935 1.575-2.091V280.32c0-1.155-.706-2.091-1.575-2.091z"
      ></path>
      <path
        fill="#4B4B4B"
        d="M47.187 284.684h-5.59c-1.329 0-2.406 1.34-2.406 2.994v2.686c0 1.655 1.077 2.995 2.405 2.995h5.59c1.33 0 2.405-1.34 2.405-2.995v-2.686c0-1.654-1.075-2.994-2.404-2.994z"
      ></path>
      <path
        fill="#4F4F4F"
        d="M48.954 289.297H40.36c-4.956 0-8.974 4.796-8.974 10.715 0 5.918 4.018 10.714 8.974 10.714h8.595c4.956 0 8.974-4.796 8.974-10.714 0-5.919-4.018-10.715-8.974-10.715z"
      ></path>
      <path
        fill="#4F4F4F"
        d="M55.27 299.03H33.51c-1.733 0-3.138 1.589-3.138 3.548v4.64c0 1.961 1.405 3.55 3.138 3.55H55.27c1.735 0 3.14-1.589 3.14-3.55v-4.64c0-1.959-1.405-3.548-3.14-3.548z"
      ></path>
      <path
        fill="#fff"
        d="M56.181 306.278H32.874c-.593 0-1.073.598-1.073 1.335v1.745c0 .737.48 1.336 1.073 1.336H56.18c.592 0 1.072-.599 1.072-1.336v-1.745c0-.737-.48-1.335-1.072-1.335zM47.775 289.835H41.24c-.341 0-.617.344-.617.768 0 .424.276.767.617.767h6.535c.34 0 .617-.343.617-.767s-.277-.768-.617-.768z"
      ></path>
      <path
        fill="#585858"
        d="M40.774 294.777h-3.14c-1.106 0-2.005 1.117-2.005 2.497 0 1.379.899 2.498 2.005 2.498h3.14c1.108 0 2.005-1.119 2.005-2.498 0-1.38-.897-2.497-2.005-2.497z"
      ></path>
      <path
        fill="#fff"
        d="M47.775 292.292H41.24c-.341 0-.617.344-.617.767 0 .424.276.767.617.767h6.535c.34 0 .617-.343.617-.767 0-.423-.277-.767-.617-.767zM83.44 278.229H67.16c-.866 0-1.568.944-1.568 2.11v18.486c0 1.166.702 2.111 1.567 2.111h16.28c.866 0 1.567-.945 1.567-2.111v-18.486c0-1.166-.701-2.11-1.566-2.11z"
      ></path>
      <path
        fill="#4B4B4B"
        d="M78.017 284.771h-5.473c-1.3 0-2.355 1.338-2.355 2.985v2.681c0 1.649 1.055 2.986 2.355 2.986h5.473c1.3 0 2.354-1.337 2.354-2.986v-2.681c0-1.647-1.054-2.985-2.354-2.985z"
      ></path>
      <path
        fill="#4F4F4F"
        d="M79.724 289.341h-8.406c-4.848 0-8.779 4.783-8.779 10.686 0 5.902 3.93 10.685 8.78 10.685h8.405c4.849 0 9.133-4.699 9.133-10.6 0-5.903-4.284-10.771-9.133-10.771z"
      ></path>
      <path
        fill="#4F4F4F"
        d="M86.46 299.049H65.056c-1.704 0-3.087 1.585-3.087 3.538v4.628c0 1.955 1.383 3.54 3.087 3.54H86.46c1.704 0 3.087-1.585 3.087-3.54v-4.628c0-1.953-1.383-3.538-3.087-3.538z"
      ></path>
      <path
        fill="#fff"
        d="M87.62 306.276H64.043c-.599 0-1.085.596-1.085 1.331v1.741c0 .735.486 1.332 1.085 1.332h23.575c.6 0 1.084-.597 1.084-1.332v-1.741c0-.735-.485-1.331-1.084-1.331zM79.531 289.878h-6.398c-.334 0-.604.343-.604.766 0 .422.27.765.604.765h6.398c.333 0 .604-.343.604-.765 0-.423-.271-.766-.604-.766z"
      ></path>
      <path
        fill="#585858"
        d="M81.706 294.837h-3.073c-1.084 0-1.963 1.115-1.963 2.49 0 1.376.879 2.491 1.963 2.491h3.073c1.084 0 1.963-1.115 1.963-2.491 0-1.375-.879-2.49-1.963-2.49z"
      ></path>
      <path
        fill="#fff"
        d="M79.531 292.357h-6.398c-.334 0-.604.344-.604.765 0 .424.27.767.604.767h6.398c.333 0 .604-.343.604-.767 0-.421-.271-.765-.604-.765z"
      ></path>
      <path
        fill="#4F4F4F"
        d="M28.19 157.936c-2.496 23.523 14.506 41.274 30.486 41.274 16.19 0 36.638-17.703 33.359-41.274H28.19z"
      ></path>
      <path
        fill="#4B4B4B"
        d="M92.594 157.936l-32.783 4.563 1.084 36.944c-.54 5.239-.487 10.63.375 15.868l31.693.099c2.439-12.465 2.182-20.911 2.387-28.89.26-10.112.164-17.511-2.756-28.584z"
      ></path>
      <path
        fill="#4B4B4B"
        d="M27.536 157.936l33.255 4.563-1.084 36.944c.54 5.239.487 10.63-.375 15.868l-31.694.099c-2.438-12.465-2.182-20.911-2.386-28.89-.26-10.112-.638-17.511 2.284-28.584z"
      ></path>
      <path
        fill="#FAE4D0"
        d="M60.3 47.007c8.332 0 15.041 9.376 15.041 21.023v8.625c0 11.648-6.403 14.927-14.735 14.9-8.766-.03-15.348-3.252-15.348-14.9V68.03c0-11.647 6.708-21.023 15.042-21.023z"
      ></path>
      <path
        fill="#F4D1B0"
        d="M58.032 48.702h4.532c5.217 0 9.417 5.872 9.417 13.167v5.402c0 7.294-4.2 13.166-9.417 13.166h-4.532c-5.217 0-9.417-5.872-9.417-13.166v-5.402c0-7.295 4.2-13.167 9.417-13.167zM49.981 85.581c-.592 0-1.069.55-1.069 1.231 0 .682.477 1.23 1.07 1.23h5.943l1.707 1.432c.48.403 1.147.283 1.498-.27.35-.552.245-1.322-.235-1.725l-1.767-1.483c-.018-.015-.038-.023-.057-.037a1 1 0 00-.77-.378h-6.32zm13.902 0a1 1 0 00-.77.378c-.018.013-.038.022-.056.037L61.29 87.48c-.48.403-.585 1.172-.235 1.725.35.553 1.018.673 1.498.27l1.706-1.432h5.944c.593 0 1.07-.548 1.07-1.23 0-.682-.477-1.23-1.07-1.23h-6.32z"
      ></path>
      <path
        fill="#FAE4D0"
        d="M37.254 36.363H84.28a9.714 9.714 0 019.734 9.736 9.713 9.713 0 01-9.734 9.734H37.254A9.713 9.713 0 0127.52 46.1a9.714 9.714 0 019.734-9.736z"
      ></path>
      <path
        fill="#F4D1B0"
        d="M37.596 38.839h46.34a7.244 7.244 0 017.26 7.26 7.244 7.244 0 01-7.26 7.26h-46.34a7.244 7.244 0 01-7.26-7.26 7.244 7.244 0 017.26-7.26zM58.388 69.89h3.044c.244 0 .441.173.441.385v.228c0 .213-.197.384-.441.384h-3.044c-.244 0-.44-.171-.44-.384v-.228c0-.212.196-.384.44-.384z"
      ></path>
      <path
        fill="#FAE4D0"
        d="M55.481 9.001h10.57c8.787 0 22.682 12.405 22.682 24.603v17.309c0 12.199-13.023 25.55-22.354 25.55H55.155c-9.33 0-22.354-13.351-22.354-25.55V33.604c0-12.198 13.894-24.603 22.68-24.603z"
      ></path>
      <path
        fill="#4F4F4F"
        d="M56.297 6.195A27.518 27.518 0 0028.72 33.774c0 5.8 1.775 11.167 4.81 15.6V37.651c0-4.37 2.175-8.768 5.33-12.473l11.97-.02a8.688 8.688 0 008.659-9.533h2.563a8.688 8.688 0 008.66 9.533l11.996.02c3.155 3.705 5.33 8.103 5.33 12.473v11.721a27.507 27.507 0 004.812-15.6 27.519 27.519 0 00-27.58-27.578h-8.972z"
      ></path>
      <path
        fill="#4F4F4F"
        d="M69.148.016h-16.77a7.759 7.759 0 00-7.759 7.759v3.948a7.76 7.76 0 007.76 7.76h16.769a7.76 7.76 0 007.76-7.76V7.775a7.76 7.76 0 00-7.76-7.76z"
      ></path>
      <path
        fill="#F4D1B0"
        d="M60.763 42.482c1.865 0 3.367 1.589 3.367 3.56v6.285c0 1.973-1.502 3.56-3.367 3.56-1.866 0-3.368-1.587-3.368-3.56v-6.284c0-1.972 1.502-3.56 3.367-3.56z"
      ></path>
      <path
        fill="#F4D1B0"
        d="M66.376 51.85c0 1.571-1.33 2.835-2.982 2.835h-5.26c-1.652 0-2.982-1.264-2.982-2.836 0-1.57 1.33-2.834 2.981-2.834h5.26c1.653 0 2.983 1.264 2.983 2.834zM52.273 62.468c-.39 0-.765.044-1.041.122-.278.078-.432.184-.432.295v.314c0 .62-.388 1.614.726 2.047 1.116.434 3.82.315 5.75.315h6.843c1.93 0 4.422.229 5.538-.205 1.115-.433.94-1.537.94-2.157v-.314c0-.11-.156-.217-.433-.295a4.037 4.037 0 00-1.043-.122H52.273z"
      ></path>
      <path
        fill="#4D4D4D"
        d="M44.143 34.769l9.474.773a1.862 1.862 0 011.708 2.01 1.862 1.862 0 01-2.011 1.709l-9.475-.773a1.862 1.862 0 01-1.708-2.01 1.862 1.862 0 012.012-1.709zM77.385 34.769l-9.473.773a1.862 1.862 0 00-1.708 2.01 1.862 1.862 0 002.01 1.709l9.475-.773a1.862 1.862 0 001.708-2.01 1.863 1.863 0 00-2.012-1.709z"
      ></path>
      <path
        fill="#61534B"
        d="M48.6 39.978h1.24c1.125 0 2.03.907 2.03 2.032v2.86c0 1.125-.905 2.03-2.03 2.03H48.6a2.026 2.026 0 01-2.032-2.03v-2.86c0-1.125.906-2.032 2.032-2.032zM72.927 39.978h-1.24a2.027 2.027 0 00-2.03 2.032v2.86c0 1.125.905 2.03 2.03 2.03h1.24a2.026 2.026 0 002.031-2.03v-2.86a2.027 2.027 0 00-2.031-2.032z"
      ></path>
    </svg>