    <svg
      xmlns="http://www.w3.org/2000/svg"
      width="132"
      height="323"
      fill="none"
      viewBox="0 0 132 323"
    >
      <path
        fill="#966D5D"
        d="M109.12 100.291c.144-1.29 20.277-11.838 20.277-11.838 1.251 3.506 2.022 25.513 1.254 29.415l-.381 7.128a15.692 15.692 0 00-.304 3.036v2.417c0 1.159-.086 12.917-.035 12.846 0 0-17.606.103-17.803-.19l-1.263-20.874c-1.131-3.643-2.17-20.596-2.17-20.596l.425-1.344z"
      ></path>
      <path
        fill="#966D5D"
        d="M120.065 114.383l.081.003c5.197.208 9.506 5.681 9.623 12.226l.88 49.14c.117 6.544-4.001 11.681-9.198 11.474l-.081-.004c-5.197-.207-9.505-5.681-9.623-12.224l-.879-49.14c-.118-6.545 4-11.682 9.197-11.475z"
      ></path>
      <path
        fill="#966D5D"
        d="M119.162 166.747l2.75.222c5.27.426 9.619 6.936 9.713 14.54l.084 6.755c.095 7.604-4.101 13.421-9.371 12.995l-2.749-.223c-5.155-.417-9.428-6.655-9.701-14.043a16.39 16.39 0 01-.012-.498l-.085-6.753c-.095-7.604 4.101-13.422 9.371-12.995z"
      ></path>
      <path
        fill="#966D5D"
        d="M116.27 185.723c1.336-4.665 5.704-6.69 9.757-4.525 4.053 2.167 6.254 7.705 4.917 12.371l-3.651 12.741c-1.335 4.664-5.705 6.69-9.756 4.523-4.053-2.166-6.254-7.704-4.918-12.369l3.651-12.741z"
      ></path>
      <path
        fill="#7B5A4C"
        d="M108.748 182.514c-.031-3.36 1.776-5.938 4.036-5.76 2.258.178 4.116 3.047 4.146 6.407l.083 9.177c.03 3.36-1.776 5.939-4.035 5.759-2.259-.178-4.115-3.047-4.146-6.407l-.084-9.176z"
      ></path>
      <path
        fill="#966D5D"
        d="M23.808 97.676c-.137-1.29-21.69-8.066-21.69-8.066-1.763 3.244-.732 23.924 0 27.826l.363 7.128c.192 1.024.29 2.04.29 3.036v2.417c0 1.159.082 12.917.033 12.846 0 0 16.784.103 16.971-.19l1.205-20.874c1.078-3.643 2.852-20.164 2.852-20.164l-.024-3.96z"
      ></path>
      <path
        fill="#966D5D"
        d="M12.21 113.95l-.077.004c-4.954.207-9.062 5.681-9.173 12.226l-.84 49.14c-.11 6.543 3.815 11.681 8.77 11.473l.077-.003c4.954-.208 9.06-5.681 9.173-12.225l.838-49.14c.112-6.545-3.813-11.681-8.768-11.475z"
      ></path>
      <path
        fill="#966D5D"
        d="M12.112 166.315l-2.622.222c-5.023.427-9.17 6.937-9.26 14.54l-.08 6.755c-.09 7.604 3.91 13.422 8.934 12.995l2.62-.223c5.024-.426 9.17-6.936 9.26-14.54l.081-6.754c.09-7.604-3.91-13.422-8.933-12.995z"
      ></path>
      <path
        fill="#966D5D"
        d="M15.306 185.291c-1.273-4.664-5.438-6.69-9.301-4.524-3.863 2.166-5.962 7.704-4.688 12.37l3.48 12.741c1.274 4.665 5.44 6.69 9.301 4.524 3.864-2.167 5.962-7.705 4.687-12.369l-3.479-12.742z"
      ></path>
      <path
        fill="#7B5A4C"
        d="M23.52 182.082c.028-3.36-1.694-5.938-3.848-5.76-2.154.178-3.923 3.047-3.952 6.407l-.079 9.177c-.029 3.36 1.692 5.939 3.846 5.76 2.154-.179 3.923-3.048 3.952-6.408l.08-9.176z"
      ></path>
      <path
        fill="#966D5D"
        d="M58.824 250.635s-19.869.243-20.039.261l-.36 23.468v19.264l-.747 20.197c0 4.315 4.18 7.812 9.338 7.812h2.178c5.158 0 9.338-3.497 9.338-7.812l.446-29.282c0-2.007-.154-31.687-.154-33.908z"
      ></path>
      <path
        fill="#966D5D"
        d="M65.314 183.769c.2-.234-31.414-.553-31.457-.243 0 0-2.14 16.642-.891 34.158 1.186 16.645 5.757 34.21 6.02 34.217 3.292.08 13.547-.06 19.814.041.035.002 1.863-7.176 3.752-16.353 2.74-13.311 2.877-16.448 2.828-17.905-.505-15.209.014-34.032-.066-33.915zM52.226 305.21h-8.77c-5.057 0-9.155 3.701-9.155 8.267 0 4.565 4.098 8.265 9.155 8.265h8.77c5.056 0 9.156-3.7 9.156-8.265 0-4.566-4.1-8.267-9.156-8.267z"
      ></path>
      <path
        fill="#966D5D"
        d="M58.35 312.678H37.332c-1.674 0-3.032 1.226-3.032 2.737v3.581c0 1.512 1.358 2.737 3.032 2.737h21.016c1.675 0 3.033-1.225 3.033-2.737v-3.581c0-1.511-1.358-2.737-3.033-2.737zM75 250.635s20.077.243 20.248.261l.365 23.468-.001 19.264.755 20.197c0 4.315-4.224 7.812-9.435 7.812H84.73c-5.211 0-9.435-3.497-9.435-7.812l-.45-29.282c0-2.007.155-31.687.155-33.908z"
      ></path>
      <path
        fill="#966D5D"
        d="M68.443 183.769c-.301-.049 31.741-.553 31.784-.243 0 0 1.681 16.846.463 33.814-1.236 17.214-5.37 34.554-5.645 34.561-3.326.08-13.678.028-20.03-.007-.002 0-1.395-8.092-2.793-16.516-1.282-7.731-2.57-15.742-2.79-18.038-1.625-16.866-.989-33.571-.989-33.571zM81.668 305.21h8.86c5.11 0 9.251 3.701 9.251 8.267 0 4.565-4.14 8.265-9.25 8.265h-8.861c-5.109 0-9.251-3.7-9.251-8.265 0-4.566 4.142-8.267 9.25-8.267z"
      ></path>
      <path
        fill="#966D5D"
        d="M75.48 312.678h21.236c1.69 0 3.063 1.226 3.063 2.737v3.581c0 1.512-1.372 2.737-3.063 2.737H75.48c-1.692 0-3.063-1.225-3.063-2.737v-3.581c0-1.511 1.371-2.737 3.063-2.737z"
      ></path>
      <path
        fill="#7B5A4C"
        d="M102.389 119.741c0-21.342-18.126-29.576-36.517-29.576-18.392 0-35.181 8.234-35.181 29.576l-4.068 41.681c0 21.343 20.857 33.953 39.25 33.953 18.39 0 39.673-12.612 39.673-33.954l-3.157-41.68z"
      ></path>
      <path
        fill="#966D5D"
        d="M100.695 119.741c0-21.342-17.28-29.576-34.813-29.576s-33.54 8.234-33.54 29.576l-3.877 41.681c0 21.343 19.884 33.953 37.417 33.953s37.822-12.612 37.822-33.954l-3.009-41.68z"
      ></path>
      <path
        fill="#966D5D"
        d="M111.387 71.653H19.492c-9.947 0-18.012 7.635-18.012 17.053 0 9.417 8.065 17.052 18.012 17.052h91.895c9.947 0 18.011-7.635 18.011-17.052 0-9.418-8.064-17.053-18.011-17.053z"
      ></path>
      <path
        fill="#966D5D"
        d="M114.445 90.015c0-15.611-21.847-28.266-48.795-28.266-26.95 0-48.797 12.655-48.797 28.266 0 15.61 21.847 28.264 48.797 28.264 10.043 0 19.377-1.758 27.137-4.77 13.061-5.073 21.658-13.702 21.658-23.494z"
      ></path>
      <path
        fill="#7B5A4C"
        d="M90.875 71.653H40.422c-13.016 0-23.568 8.793-23.568 19.64v11.837c0 10.846 10.552 19.64 23.568 19.64h50.453c13.018 0 23.57-8.794 23.57-19.64V91.294c0-10.848-10.552-19.64-23.57-19.64z"
      ></path>
      <path
        fill="#966D5D"
        d="M95.278 71.653H36.021c-10.586 0-19.168 8.17-19.168 18.252v11c0 10.08 8.582 18.252 19.168 18.252h59.257c10.586 0 19.167-8.172 19.167-18.252v-11c0-10.081-8.581-18.252-19.167-18.252z"
      ></path>
      <path
        fill="#7B5A4C"
        d="M69.726 111.656c0-1.244-1.84-2.253-4.11-2.253-2.27 0-4.11 1.009-4.11 2.253v4.37c0 1.244 1.84 2.253 4.11 2.253 2.27 0 4.11-1.009 4.11-2.253v-4.37zM39.508 113.516h-3.49c-1.391 0-2.52.964-2.52 2.154 0 1.188 1.129 2.153 2.52 2.153h3.49c1.39 0 2.518-.965 2.518-2.153 0-1.19-1.127-2.154-2.518-2.154zM96.325 113.516h-3.489c-1.392 0-2.52.964-2.52 2.154 0 1.188 1.128 2.153 2.52 2.153h3.489c1.392 0 2.52-.965 2.52-2.153 0-1.19-1.128-2.154-2.52-2.154zM95.615 137.533c-27.886-5.337-56.543 0-56.543 0 0-1.208 13.402-5.337 28.657-5.337s27.886 4.129 27.886 5.337z"
      ></path>
      <path
        fill="#7B5A4C"
        fillRule="evenodd"
        d="M68.659 155.997a1.38 1.38 0 00-2.759 0v2.567a1.38 1.38 0 002.759 0v-2.567z"
        clipRule="evenodd"
      ></path>
      <path
        fill="#4F4F4F"
        d="M105.545 161.421s-23.502.185-38.293.124c-14.883-.062-39.991-.245-40.629 0 1.49 19.413 26.634 35.297 40.356 35.297 13.901 0 37.314-15.643 38.566-35.421z"
      ></path>
      <path
        fill="#4B4B4B"
        d="M105.545 161.545l-38.293 6.158 1.34 51.315h33.019c.246-15.424 8.504-50.965 3.934-57.473zM26.623 161.421l40.257 6.281v51.316H31.945c-.245-15.424-9.754-40.182-5.322-57.597z"
      ></path>
      <path
        fill="#966D5D"
        d="M82.91 58.996c0-10.915-7.389-19.764-16.506-19.764-9.119 0-16.51 8.849-16.51 19.764v8.11c0 10.915 7.391 19.765 16.51 19.765 9.117 0 16.507-8.85 16.507-19.765v-8.11z"
      ></path>
      <path
        fill="#7B5A4C"
        d="M60.334 82.082l-9.01-4.33a2.014 2.014 0 10-1.746 3.63l9.011 4.333a2.014 2.014 0 101.745-3.633zM71.286 82.082l9.011-4.33a2.016 2.016 0 012.69.942 2.016 2.016 0 01-.944 2.688l-9.01 4.333a2.015 2.015 0 01-1.747-3.632zM69.224 40.562h-6.403c-7.35 0-13.307 5.957-13.307 13.306v5.46c0 7.349 5.957 13.307 13.307 13.307h6.403c7.349 0 13.307-5.958 13.307-13.307v-5.46c0-7.349-5.958-13.306-13.307-13.306z"
      ></path>
      <path
        fill="#966D5D"
        d="M89.043 28.98H43.292c-5.23 0-9.472 4.404-9.472 9.838 0 5.435 4.241 9.84 9.472 9.84h45.751c5.23 0 9.473-4.405 9.473-9.84 0-5.434-4.242-9.838-9.473-9.838z"
      ></path>
      <path
        fill="#7B5A4C"
        d="M89.325 30.467H43.273c-3.985 0-7.214 3.284-7.214 7.337 0 4.052 3.229 7.338 7.214 7.338h46.052c3.984 0 7.214-3.286 7.214-7.338 0-4.053-3.23-7.337-7.214-7.337z"
      ></path>
      <path
        fill="#966D5D"
        d="M73.186.375H59.415c-11.41 0-20.66 9.249-20.66 20.659v24.482c0 11.411 9.25 20.661 20.66 20.661h13.771c11.409 0 20.659-9.25 20.659-20.66V21.033c0-11.41-9.25-20.659-20.659-20.659z"
      ></path>
      <path
        fill="#966D5D"
        d="M72.748 63.376H59.88a2.52 2.52 0 000 5.04h12.868a2.52 2.52 0 000-5.04z"
      ></path>
      <path
        fill="#7B5A4C"
        d="M68.392 60.56H64.67a.539.539 0 00-.538.539v.317c0 .298.24.54.538.54h3.72a.54.54 0 00.539-.54v-.317a.54.54 0 00-.538-.54zM70.325 36.76a4.045 4.045 0 10-8.09 0v7.138a4.046 4.046 0 008.09 0V36.76z"
      ></path>
      <path
        fill="#7B5A4C"
        d="M65.836 44.838l-3.762-3.197a1.478 1.478 0 10-1.913 2.25l3.762 3.198a1.478 1.478 0 001.913-2.251zM66.869 44.838l3.761-3.197a1.477 1.477 0 111.913 2.25l-3.762 3.198a1.478 1.478 0 01-1.912-2.251zM63.744 29.355a1.134 1.134 0 10-2.267 0v1.373a1.134 1.134 0 002.267 0v-1.373zM71.273 29.355a1.133 1.133 0 10-2.267 0v1.373a1.134 1.134 0 002.267 0v-1.373z"
      ></path>
      <path
        fill="#61534B"
        d="M56.477 31.7a2.53 2.53 0 10-5.063 0v1.015a2.531 2.531 0 005.063 0V31.7zM81.096 31.7a2.531 2.531 0 10-5.063 0v1.014a2.531 2.531 0 105.063 0V31.7z"
      ></path>
      <path
        fill="#fff"
        d="M71.07 57.736c3.726 0 6.725-3.203 6.725-7.184V49.39H55.147v1.162c0 3.98 3 7.184 6.725 7.184h9.197z"
      ></path>
      <path
        fill="#61534B"
        fillRule="evenodd"
        d="M84.059 26.771c0-.3-.245-.544-.546-.544h-7.634c-.301 0-.545.244-.545.544v1.09c0 .303.244.546.545.546h7.634c.3 0 .546-.243.546-.545v-1.09zM57.859 26.74c0-.3-.245-.545-.546-.545h-7.634c-.301 0-.546.244-.546.545v1.092c0 .3.245.544.546.544h7.634c.3 0 .546-.244.546-.544V26.74z"
        clipRule="evenodd"
      ></path>
      <path
        fill="#565656"
        fillRule="evenodd"
        d="M50.49 65.118c-7.128-5.602-11.45-11.502-10.555-18.987L51.67 61.42M81.145 65.118c7.785-5.602 12.506-11.502 11.528-18.987L79.855 61.42"
        clipRule="evenodd"
      ></path>
      <path
        fill="#565656"
        d="M57.687 43.727a8.03 8.03 0 00-8.039 8.055v9.422a8.029 8.029 0 008.04 8.054h17.245a8.029 8.029 0 008.04-8.054v-9.422a8.03 8.03 0 00-8.04-8.055h-1.686c.059.49-.121 1-.527 1.346l-.682.58c.405.38.706.87.835 1.431h2.34a4.489 4.489 0 014.495 4.503v4.053c0 .946-.29 1.822-.784 2.545v1.111a6.408 6.408 0 01-6.417 6.43H60.113a6.408 6.408 0 01-6.416-6.43v-1.111a4.488 4.488 0 01-.785-2.545v-4.053a4.49 4.49 0 014.495-4.503h1.472a2.864 2.864 0 011.289-1.781l-.267-.23a1.523 1.523 0 01-.527-1.346h-1.687z"
      ></path>
      <path
        fill="#4D4D4D"
        d="M56.377 66.51h2.177c.762 0 1.38.11 1.38.244v1.206c0 .135-.618.244-1.38.244h-2.177c-.762 0-1.379-.11-1.379-.244v-1.206c0-.135.617-.244 1.379-.244zM73.016 66.51h2.177c.762 0 1.379.11 1.379.244v1.206c0 .135-.617.244-1.38.244h-2.176c-.763 0-1.38-.11-1.38-.244v-1.206c0-.135.618-.244 1.38-.244z"
      ></path>
      <path
        fill="#4F4F4F"
        d="M105.545 161.421s-23.502.185-38.293.124c-14.883-.062-39.991-.245-40.629 0 1.49 19.413 26.634 35.297 40.356 35.297 13.901 0 37.314-15.643 38.566-35.421z"
      ></path>
      <path
        fill="#4B4B4B"
        d="M105.545 161.545l-38.293 6.158 1.34 51.315h33.019c.246-15.424 8.504-50.965 3.934-57.473zM26.623 161.421l40.257 6.281v51.316H31.945c-.245-15.424-9.754-40.182-5.322-57.597z"
      ></path>
      <path
        fill="#fff"
        d="M57.29 288.029H39.753c-.932 0-1.688 1-1.688 2.235v19.585c0 1.234.756 2.234 1.688 2.234h17.535c.932 0 1.689-1 1.689-2.234v-19.585c0-1.235-.757-2.235-1.689-2.235z"
      ></path>
      <path
        fill="#4B4B4B"
        d="M50.493 294.927h-5.86c-1.393 0-2.522 1.416-2.522 3.163v2.838c0 1.748 1.13 3.164 2.522 3.164h5.86c1.394 0 2.522-1.416 2.522-3.164v-2.838c0-1.747-1.128-3.163-2.522-3.163z"
      ></path>
      <path
        fill="#4F4F4F"
        d="M52.093 299.801h-8.641c-4.982 0-9.022 5.067-9.022 11.32 0 6.252 4.04 11.319 9.022 11.319h8.64c4.983 0 9.022-5.067 9.022-11.319 0-6.253-4.04-11.32-9.021-11.32z"
      ></path>
      <path
        fill="#4F4F4F"
        d="M59.002 310.084H36.68c-1.778 0-3.22 1.679-3.22 3.748v4.902c0 2.072 1.442 3.751 3.22 3.751h22.322c1.78 0 3.221-1.679 3.221-3.751v-4.902c0-2.069-1.441-3.748-3.22-3.748z"
      ></path>
      <path
        fill="#fff"
        d="M61.012 317.741H34.673c-.67 0-1.212.631-1.212 1.41v1.844c0 .779.542 1.411 1.212 1.411h26.339c.669 0 1.211-.632 1.211-1.411v-1.844c0-.779-.542-1.41-1.211-1.41zM51.11 300.369h-6.852c-.357 0-.647.363-.647.812 0 .447.29.81.647.81h6.851c.356 0 .647-.363.647-.81 0-.449-.29-.812-.647-.812z"
      ></path>
      <path
        fill="#585858"
        d="M53.437 305.591h-3.291c-1.16 0-2.103 1.18-2.103 2.638 0 1.457.942 2.638 2.102 2.638h3.292c1.162 0 2.102-1.181 2.102-2.638 0-1.458-.94-2.638-2.102-2.638z"
      ></path>
      <path
        fill="#fff"
        d="M51.11 302.965h-6.852c-.357 0-.647.363-.647.81 0 .448.29.811.647.811h6.851c.356 0 .647-.363.647-.811 0-.447-.29-.81-.647-.81zM94.325 288.028H76.558c-.944 0-1.71 1.001-1.71 2.236v19.584c0 1.234.766 2.235 1.71 2.235h17.767c.944 0 1.71-1.001 1.71-2.235v-19.584c0-1.235-.766-2.236-1.71-2.236z"
      ></path>
      <path
        fill="#4B4B4B"
        d="M88.522 294.958H82.66c-1.392 0-2.521 1.418-2.521 3.163v2.84c0 1.746 1.129 3.163 2.521 3.163h5.862c1.392 0 2.521-1.417 2.521-3.163v-2.84c0-1.745-1.129-3.163-2.521-3.163z"
      ></path>
      <path
        fill="#4F4F4F"
        d="M90.06 299.801h-8.64c-4.984 0-9.023 5.067-9.023 11.32 0 6.252 4.04 11.319 9.023 11.319h8.64c4.983 0 9.386-4.977 9.386-11.229 0-6.253-4.403-11.41-9.386-11.41z"
      ></path>
      <path
        fill="#4F4F4F"
        d="M97.324 310.084H74.837c-1.79 0-3.243 1.679-3.243 3.748v4.902c0 2.072 1.453 3.751 3.243 3.751h22.487c1.79 0 3.243-1.679 3.243-3.751v-4.902c0-2.069-1.452-3.748-3.243-3.748z"
      ></path>
      <path
        fill="#fff"
        d="M99.345 317.741H72.813c-.674 0-1.221.631-1.221 1.41v1.844c0 .779.547 1.411 1.22 1.411h26.533c.674 0 1.22-.632 1.22-1.411v-1.844c0-.779-.546-1.41-1.22-1.41zM90.146 300.369h-6.853c-.357 0-.647.363-.647.812 0 .447.29.81.647.81h6.853c.356 0 .646-.363.646-.81 0-.449-.29-.812-.646-.812z"
      ></path>
      <path
        fill="#585858"
        d="M92.473 305.622h-3.29c-1.162 0-2.103 1.181-2.103 2.638 0 1.457.941 2.638 2.103 2.638h3.29c1.162 0 2.103-1.181 2.103-2.638 0-1.457-.941-2.638-2.103-2.638z"
      ></path>
      <path
        fill="#fff"
        d="M90.146 302.995h-6.853c-.357 0-.647.364-.647.811 0 .448.29.811.647.811h6.853c.356 0 .646-.363.646-.811 0-.447-.29-.811-.646-.811z"
      ></path>
    </svg>