<svg width="303" height="303" viewBox="0 0 303 303" fill="none" xmlns="http://www.w3.org/2000/svg">
<g clip-path="url(#clip0_2002_7952)">
<path d="M269.932 246.517H37.6547C28.4512 246.517 20.9902 253.978 20.9902 263.181C20.9902 272.385 28.4512 279.846 37.6547 279.846H269.932C279.135 279.846 286.596 272.385 286.596 263.181C286.596 253.978 279.135 246.517 269.932 246.517Z" fill="#9FA34F"/>
<path d="M148.85 277.728C213.133 277.728 265.245 226.304 265.245 162.871C265.245 99.4373 213.133 48.0142 148.85 48.0142C84.5669 48.0142 32.4551 99.4373 32.4551 162.871C32.4551 226.304 84.5669 277.728 148.85 277.728Z" fill="#C5C986"/>
<path d="M114.383 111.22C114.383 90.6221 97.6849 73.9242 77.0869 73.9242C56.489 73.9242 39.791 90.6221 39.791 111.22V154.802C39.791 175.4 56.489 192.098 77.0869 192.098C97.6849 192.098 114.383 175.4 114.383 154.802V111.22Z" fill="#919548"/>
<path d="M134.284 134.669H71.7279C46.2411 134.669 25.5801 155.33 25.5801 180.817C25.5801 206.304 46.2411 226.965 71.7279 226.965H134.284C159.77 226.965 180.432 206.304 180.432 180.817C180.432 155.33 159.77 134.669 134.284 134.669Z" fill="#919548"/>
<path d="M113.263 221.068C113.263 196.29 93.1759 176.202 68.3971 176.202C43.6184 176.202 23.5312 196.29 23.5312 221.068V231.836C23.5312 256.615 43.6184 276.702 68.3971 276.702C93.1759 276.702 113.263 256.615 113.263 231.836V221.068Z" fill="#898D44"/>
<path d="M159.41 196.2H123.005C100.35 196.2 81.9844 214.565 81.9844 237.22C81.9844 259.875 100.35 278.24 123.005 278.24H159.41C182.065 278.24 200.43 259.875 200.43 237.22C200.43 214.565 182.065 196.2 159.41 196.2Z" fill="#898D44"/>
<path d="M209.337 45.8236H209.337C183.85 45.8236 163.189 66.4846 163.189 91.9712V164.27C163.189 189.756 183.85 210.417 209.337 210.417H209.337C234.824 210.417 255.485 189.756 255.485 164.27V91.9712C255.485 66.4846 234.824 45.8236 209.337 45.8236Z" fill="#919548"/>
<path d="M228.118 140.31H217.862C192.376 140.31 171.715 160.971 171.715 186.457V236.707C171.715 262.194 192.376 282.855 217.862 282.855H228.118C253.604 282.855 274.265 262.194 274.265 236.707V186.457C274.265 160.971 253.604 140.31 228.118 140.31Z" fill="#898D44"/>
<path d="M71.7774 241.29C71.7774 233.531 65.4871 227.24 57.7276 227.24C49.9681 227.24 43.6777 233.531 43.6777 241.29V262.646C43.6777 270.405 49.9681 276.696 57.7276 276.696C65.4871 276.696 71.7774 270.405 71.7774 262.646V241.29Z" fill="#7D813E"/>
<path d="M90.985 210.63H89.5523C78.1336 210.63 68.877 219.887 68.877 231.306V252.395C68.877 263.813 78.1336 273.07 89.5523 273.07H90.985C102.404 273.07 111.66 263.813 111.66 252.395V231.306C111.66 219.887 102.404 210.63 90.985 210.63Z" fill="#7D813E"/>
<path d="M233.261 202.457H221.297C211.284 202.457 203.168 210.573 203.168 220.585V260.468C203.168 270.48 211.284 278.596 221.297 278.596H233.261C243.274 278.596 251.39 270.48 251.39 260.468V220.585C251.39 210.573 243.274 202.457 233.261 202.457Z" fill="#7D813E"/>
<path d="M217.67 256.479C217.67 248.47 211.177 241.977 203.167 241.977C195.157 241.977 188.664 248.47 188.664 256.479V258.655C188.664 266.665 195.157 273.158 203.167 273.158C211.177 273.158 217.67 266.665 217.67 258.655V256.479Z" fill="#7D813E"/>
<path d="M97.3575 249.844C97.3575 247.547 95.8753 245.684 94.0469 245.684C92.2185 245.684 90.7363 247.547 90.7363 249.844V263.086C90.7363 265.383 92.2185 267.246 94.0469 267.246C95.8753 267.246 97.3575 265.383 97.3575 263.086V249.844Z" fill="#898D44"/>
<path d="M187.75 248.293C187.75 245.84 186.167 243.852 184.215 243.852C182.262 243.852 180.68 245.84 180.68 248.293V262.434C180.68 264.887 182.262 266.875 184.215 266.875C186.167 266.875 187.75 264.887 187.75 262.434V248.293Z" fill="#ADB254"/>
<path d="M239.986 260.471H57.7173C49.0024 260.471 41.9375 267.536 41.9375 276.251C41.9375 284.966 49.0024 292.031 57.7173 292.031H239.986C248.701 292.031 255.765 284.966 255.765 276.251C255.765 267.536 248.701 260.471 239.986 260.471Z" fill="#B78260"/>
<path d="M243.793 260.471H53.9103C47.2979 260.471 41.9375 265.832 41.9375 272.444C41.9375 279.056 47.2979 284.417 53.9103 284.417H243.793C250.405 284.417 255.765 279.056 255.765 272.444C255.765 265.832 250.405 260.471 243.793 260.471Z" fill="#ADB254"/>
<path d="M206.569 265.975H94.5805C91.0077 265.975 88.1113 268.871 88.1113 272.444C88.1113 276.017 91.0077 278.913 94.5805 278.913H206.569C210.142 278.913 213.039 276.017 213.039 272.444C213.039 268.871 210.142 265.975 206.569 265.975Z" fill="#919548"/>
<path d="M198.129 268.795H103.02C101.005 268.795 99.3711 270.429 99.3711 272.444C99.3711 274.459 101.005 276.093 103.02 276.093H198.129C200.144 276.093 201.778 274.459 201.778 272.444C201.778 270.429 200.144 268.795 198.129 268.795Z" fill="#7D813E"/>
<path d="M69.5771 192.03C69.5771 188.025 66.3305 184.779 62.3256 184.779C58.3208 184.779 55.0742 188.025 55.0742 192.03V194.568C55.0742 198.573 58.3208 201.819 62.3256 201.819C66.3305 201.819 69.5771 198.573 69.5771 194.568V192.03Z" fill="#919548"/>
<path d="M77.8793 141.591C77.8793 133.521 71.3366 126.978 63.2658 126.978C55.195 126.978 48.6523 133.521 48.6523 141.591V151.847C48.6523 159.917 55.195 166.46 63.2658 166.46C71.3366 166.46 77.8793 159.917 77.8793 151.847V141.591Z" fill="#898D44"/>
<path d="M242.989 105.186C242.989 97.1153 236.446 90.5726 228.375 90.5726C220.304 90.5726 213.762 97.1153 213.762 105.186V115.441C213.762 123.512 220.304 130.055 228.375 130.055C236.446 130.055 242.989 123.512 242.989 115.441V105.186Z" fill="#898D44"/>
<path d="M69.3341 246.176C69.3341 243.879 67.8519 242.016 66.0235 242.016C64.1951 242.016 62.7129 243.879 62.7129 246.176V259.418C62.7129 261.715 64.1951 263.578 66.0235 263.578C67.8519 263.578 69.3341 261.715 69.3341 259.418V246.176Z" fill="#ADB254"/>
<path d="M71.8731 266.48C71.8731 264.182 70.3909 262.32 68.5625 262.32C66.7342 262.32 65.252 264.182 65.252 266.48V279.722C65.252 282.019 66.7342 283.881 68.5625 283.881C70.3909 283.881 71.8731 282.019 71.8731 279.722V266.48Z" fill="#919548"/>
<path d="M230.896 247.206C230.896 244.753 229.314 242.764 227.361 242.764C225.409 242.764 223.826 244.753 223.826 247.206V261.346C223.826 263.799 225.409 265.788 227.361 265.788C229.314 265.788 230.896 263.799 230.896 261.346V247.206Z" fill="#ADB254"/>
<path d="M237.043 264.665C237.043 262.212 235.46 260.224 233.508 260.224C231.555 260.224 229.973 262.212 229.973 264.665V278.805C229.973 281.258 231.555 283.247 233.508 283.247C235.46 283.247 237.043 281.258 237.043 278.805V264.665Z" fill="#919548"/>
<path d="M258.526 164.854C258.526 160.849 255.28 157.603 251.275 157.603C247.27 157.603 244.023 160.849 244.023 164.854V167.392C244.023 171.397 247.27 174.644 251.275 174.644C255.28 174.644 258.526 171.397 258.526 167.392V164.854Z" fill="#919548"/>
<path d="M237.155 158.512H236.642C234.836 158.512 233.373 159.976 233.373 161.781V162.422C233.373 164.228 234.836 165.691 236.642 165.691H237.155C238.96 165.691 240.423 164.228 240.423 162.422V161.781C240.423 159.976 238.96 158.512 237.155 158.512Z" fill="#919548"/>
<path d="M90.29 95.9655C90.29 91.9607 87.0434 88.7141 83.0385 88.7141C79.0337 88.7141 75.7871 91.9607 75.7871 95.9655V98.5035C75.7871 102.508 79.0337 105.755 83.0385 105.755C87.0434 105.755 90.29 102.508 90.29 98.5035V95.9655Z" fill="#9FA34F"/>
<path d="M68.9184 89.6238H68.4054C66.6002 89.6238 65.1367 91.0872 65.1367 92.8925V93.5336C65.1367 95.3389 66.6002 96.8023 68.4054 96.8023H68.9184C70.7236 96.8023 72.1871 95.3389 72.1871 93.5336V92.8925C72.1871 91.0872 70.7236 89.6238 68.9184 89.6238Z" fill="#9FA34F"/>
<path d="M230.97 66.9599C230.97 62.9551 227.723 59.7085 223.718 59.7085C219.713 59.7085 216.467 62.9551 216.467 66.9599V69.4979C216.467 73.5028 219.713 76.7493 223.718 76.7493C227.723 76.7493 230.97 73.5028 230.97 69.4979V66.9599Z" fill="#9FA34F"/>
<path d="M209.598 60.6183H209.085C207.28 60.6183 205.816 62.0817 205.816 63.887V64.5281C205.816 66.3334 207.28 67.7968 209.085 67.7968H209.598C211.403 67.7968 212.867 66.3334 212.867 64.5281V63.887C212.867 62.0817 211.403 60.6183 209.598 60.6183Z" fill="#9FA34F"/>
<path d="M37.8233 210.605C37.8233 206.6 41.0699 203.353 45.0748 203.353C49.0796 203.353 52.3262 206.6 52.3262 210.605V213.143C52.3262 217.148 49.0796 220.394 45.0748 220.394C41.0699 220.394 37.8233 217.148 37.8233 213.143V210.605Z" fill="#9FA34F"/>
<path d="M59.1949 204.263H59.7079C61.5131 204.263 62.9766 205.726 62.9766 207.532V208.173C62.9766 209.978 61.5131 211.441 59.7079 211.441H59.1949C57.3897 211.441 55.9262 209.978 55.9262 208.173V207.532C55.9262 205.726 57.3897 204.263 59.1949 204.263Z" fill="#9FA34F"/>
<path d="M181.594 95.5074L181.669 95.4957C186.471 94.7469 190.97 98.0324 191.719 102.834L197.342 138.89C198.09 143.691 194.805 148.191 190.003 148.94L189.928 148.951C185.126 149.7 180.627 146.415 179.878 141.613L174.256 105.557C173.507 100.756 176.792 96.2562 181.594 95.5074Z" fill="#81584A"/>
<path d="M184.507 124.381C184.228 122.57 185.471 120.877 187.282 120.598C189.092 120.319 190.786 121.562 191.065 123.373L191.432 125.757C191.71 127.568 190.468 129.262 188.657 129.541C186.846 129.819 185.153 128.577 184.874 126.766L184.507 124.381Z" fill="#906253"/>
<path d="M135.952 166.137H133.667C128.255 166.137 123.867 170.524 123.867 175.937V261.819C123.867 267.231 128.255 271.619 133.667 271.619H135.952C141.364 271.619 145.752 267.231 145.752 261.819V175.937C145.752 170.524 141.364 166.137 135.952 166.137Z" fill="#906253"/>
<path d="M162.339 166.137H160.054C154.641 166.137 150.254 170.524 150.254 175.937V261.819C150.254 267.231 154.641 271.619 160.054 271.619H162.339C167.751 271.619 172.138 267.231 172.138 261.819V175.937C172.138 170.524 167.751 166.137 162.339 166.137Z" fill="#906253"/>
<path d="M145.752 166.137H123.867V234.073H145.752V166.137Z" fill="#81584A"/>
<path d="M172.138 166.137H150.254V234.073H172.138V166.137Z" fill="#81584A"/>
<path d="M136.806 253.728H128.238C123.298 253.728 119.293 257.733 119.293 262.673C119.293 267.614 123.298 271.619 128.238 271.619H136.806C141.746 271.619 145.751 267.614 145.751 262.673C145.751 257.733 141.746 253.728 136.806 253.728Z" fill="#9D6B5A"/>
<path d="M142.789 261.82H122.255C120.619 261.82 119.293 263.146 119.293 264.782V268.656C119.293 270.292 120.619 271.619 122.255 271.619H142.789C144.425 271.619 145.751 270.292 145.751 268.656V264.782C145.751 263.146 144.425 261.82 142.789 261.82Z" fill="#9D6B5A"/>
<path d="M167.767 253.728H159.199C154.259 253.728 150.254 257.733 150.254 262.673C150.254 267.614 154.259 271.619 159.199 271.619H167.767C172.707 271.619 176.712 267.614 176.712 262.673C176.712 257.733 172.707 253.728 167.767 253.728Z" fill="#9D6B5A"/>
<path d="M173.75 261.755H153.216C151.58 261.755 150.254 263.081 150.254 264.717V268.591C150.254 270.228 151.58 271.554 153.216 271.554H173.75C175.386 271.554 176.712 270.228 176.712 268.591V264.717C176.712 263.081 175.386 261.755 173.75 261.755Z" fill="#9D6B5A"/>
<path d="M174.727 146.132C174.727 129.939 162.761 116.812 148 116.812C133.239 116.812 121.273 129.939 121.273 146.132V167.316C121.273 183.509 133.239 196.636 148 196.636C162.761 196.636 174.727 183.509 174.727 167.316V146.132Z" fill="#81584A"/>
<path d="M113.916 94.6165L113.841 94.6048C109.039 93.856 104.539 97.1416 103.791 101.943L98.1682 137.999C97.4194 142.8 100.705 147.3 105.507 148.049L105.582 148.06C110.383 148.809 114.883 145.524 115.632 140.722L121.254 104.667C122.003 99.8648 118.717 95.3653 113.916 94.6165Z" fill="#81584A"/>
<path d="M111.62 126.467C111.899 124.656 110.656 122.962 108.845 122.684C107.034 122.405 105.341 123.647 105.062 125.458L104.695 127.843C104.416 129.654 105.659 131.348 107.47 131.626C109.281 131.905 110.974 130.663 111.253 128.852L111.62 126.467Z" fill="#906253"/>
<path d="M181.154 92.6416H115.422C108.307 92.6416 102.539 98.4097 102.539 105.525C102.539 112.64 108.307 118.408 115.422 118.408H181.154C188.269 118.408 194.037 112.64 194.037 105.525C194.037 98.4097 188.269 92.6416 181.154 92.6416Z" fill="#906253"/>
<path d="M182.903 120.019C182.903 100.732 167.277 85.0962 148.001 85.0962C128.724 85.0962 113.098 100.732 113.098 120.019C113.098 139.307 128.724 154.942 148.001 154.942C167.277 154.942 182.903 139.307 182.903 120.019Z" fill="#81584A"/>
<path d="M149.927 137.285H146.071C136.877 137.285 129.424 144.738 129.424 153.933V165.96C129.424 175.155 136.877 182.608 146.071 182.608H149.927C159.121 182.608 166.575 175.155 166.575 165.96V153.933C166.575 144.738 159.121 137.285 149.927 137.285Z" fill="#906253"/>
<path d="M166.045 92.5798H129.956C120.646 92.5798 113.098 100.128 113.098 109.439V119.599C113.098 128.91 120.646 136.458 129.956 136.458H166.045C175.356 136.458 182.903 128.91 182.903 119.599V109.439C182.903 100.128 175.356 92.5798 166.045 92.5798Z" fill="#906253"/>
<path d="M169.194 92.5798H126.807C119.236 92.5798 113.098 98.7178 113.098 106.289V114.552C113.098 122.124 119.236 128.262 126.807 128.262H169.194C176.765 128.262 182.903 122.124 182.903 114.552V106.289C182.903 98.7178 176.765 92.5798 169.194 92.5798Z" fill="#9D6B5A"/>
<path d="M150.853 133.334C150.853 131.711 149.536 130.395 147.913 130.395C146.289 130.395 144.973 131.711 144.973 133.334V139.036C144.973 140.66 146.289 141.976 147.913 141.976C149.536 141.976 150.853 140.66 150.853 139.036V133.334Z" fill="#81584A"/>
<path d="M163.252 120.284H156.4C154.431 120.284 152.836 121.88 152.836 123.848C152.836 125.816 154.431 127.411 156.4 127.411H163.252C165.22 127.411 166.816 125.816 166.816 123.848C166.816 121.88 165.22 120.284 163.252 120.284Z" fill="#AC7967"/>
<path d="M139.065 120.284H132.212C130.244 120.284 128.648 121.88 128.648 123.848C128.648 125.816 130.244 127.411 132.212 127.411H139.065C141.033 127.411 142.628 125.816 142.628 123.848C142.628 121.88 141.033 120.284 139.065 120.284Z" fill="#AC7967"/>
<path d="M160.472 81.4986C160.472 73.2514 154.888 66.5657 148 66.5657C141.111 66.5657 135.527 73.2514 135.527 81.4986V87.6249C135.527 95.8721 141.111 102.558 148 102.558C154.888 102.558 160.472 95.8721 160.472 87.6249V81.4986Z" fill="#9D6B5A"/>
<path d="M129.223 127.595H126.728C125.733 127.595 124.926 128.402 124.926 129.397C124.926 130.393 125.733 131.2 126.728 131.2H129.223C130.219 131.2 131.026 130.393 131.026 129.397C131.026 128.402 130.219 127.595 129.223 127.595Z" fill="#81584A"/>
<path d="M170.016 127.595H167.521C166.526 127.595 165.719 128.402 165.719 129.397C165.719 130.393 166.526 131.2 167.521 131.2H170.016C171.012 131.2 171.819 130.393 171.819 129.397C171.819 128.402 171.012 127.595 170.016 127.595Z" fill="#81584A"/>
<path d="M150.419 66.5657H145.581C140.029 66.5657 135.527 71.0669 135.527 76.6195V80.7441C135.527 86.2967 140.029 90.798 145.581 90.798H150.419C155.971 90.798 160.472 86.2967 160.472 80.7441V76.6195C160.472 71.0669 155.971 66.5657 150.419 66.5657Z" fill="#81584A"/>
<path d="M116.263 94.7546H114.751C110.715 94.7546 107.443 98.0263 107.443 102.062C107.443 106.098 110.715 109.37 114.751 109.37H116.263C120.299 109.37 123.57 106.098 123.57 102.062C123.57 98.0263 120.299 94.7546 116.263 94.7546Z" fill="#9D6B5A"/>
<path d="M181.48 95.4674H179.968C175.932 95.4674 172.66 98.7391 172.66 102.775C172.66 106.811 175.932 110.082 179.968 110.082H181.48C185.515 110.082 188.787 106.811 188.787 102.775C188.787 98.7391 185.515 95.4674 181.48 95.4674Z" fill="#9D6B5A"/>
<path d="M196.389 137.007H192.543C186.419 137.007 181.455 141.971 181.455 148.095C181.455 154.219 186.419 159.183 192.543 159.183H196.389C202.513 159.183 207.477 154.219 207.477 148.095C207.477 141.971 202.513 137.007 196.389 137.007Z" fill="#9D6B5A"/>
<path d="M199.544 140.174H199.288C194.155 140.174 189.994 144.335 189.994 149.468C189.994 154.6 194.155 158.761 199.288 158.761H199.544C204.677 158.761 208.838 154.6 208.838 149.468C208.838 144.335 204.677 140.174 199.544 140.174Z" fill="#81584A"/>
<path d="M116.161 97.2096H113.893C112.64 97.2096 111.625 98.2249 111.625 99.4774C111.625 100.73 112.64 101.745 113.893 101.745H116.161C117.413 101.745 118.429 100.73 118.429 99.4774C118.429 98.2249 117.413 97.2096 116.161 97.2096Z" fill="#AC7967"/>
<path d="M184.225 97.3878H181.957C180.705 97.3878 179.689 98.4032 179.689 99.6557C179.689 100.908 180.705 101.924 181.957 101.924H184.225C185.478 101.924 186.493 100.908 186.493 99.6557C186.493 98.4032 185.478 97.3878 184.225 97.3878Z" fill="#AC7967"/>
<path d="M211.454 133.311H205.338C201.253 133.311 197.941 136.623 197.941 140.708V153.636C197.941 157.721 201.253 161.033 205.338 161.033H211.454C215.539 161.033 218.851 157.721 218.851 153.636V140.708C218.851 136.623 215.539 133.311 211.454 133.311Z" fill="#9D6B5A"/>
<path d="M198.625 137.882H198.354C196.67 137.882 195.305 139.247 195.305 140.931V145.831C195.305 147.515 196.67 148.881 198.354 148.881H198.625C200.309 148.881 201.674 147.515 201.674 145.831V140.931C201.674 139.247 200.309 137.882 198.625 137.882Z" fill="#AC7967"/>
<path d="M214.231 135.813H214.023C212.73 135.813 211.682 136.861 211.682 138.154V142.401C211.682 143.694 212.73 144.742 214.023 144.742H214.231C215.524 144.742 216.572 143.694 216.572 142.401V138.154C216.572 136.861 215.524 135.813 214.231 135.813Z" fill="#AC7967"/>
<path d="M138.914 256.86H136.954C135.38 256.86 134.104 258.136 134.104 259.711C134.104 261.285 135.38 262.562 136.954 262.562H138.914C140.489 262.562 141.765 261.285 141.765 259.711C141.765 258.136 140.489 256.86 138.914 256.86Z" fill="#AC7967"/>
<path d="M169.916 256.682H167.956C166.382 256.682 165.105 257.959 165.105 259.533C165.105 261.107 166.382 262.384 167.956 262.384H169.916C171.491 262.384 172.767 261.107 172.767 259.533C172.767 257.959 171.491 256.682 169.916 256.682Z" fill="#AC7967"/>
<path d="M166.31 57.1443H130.402C126.297 57.1443 122.969 60.4724 122.969 64.5778C122.969 68.6832 126.297 72.0113 130.402 72.0113H166.31C170.415 72.0113 173.743 68.6832 173.743 64.5778C173.743 60.4724 170.415 57.1443 166.31 57.1443Z" fill="#9D6B5A"/>
<path d="M166.049 59.0342H130.665C127.603 59.0342 125.121 61.5161 125.121 64.5778C125.121 67.6394 127.603 70.1214 130.665 70.1214H166.049C169.111 70.1214 171.593 67.6394 171.593 64.5778C171.593 61.5161 169.111 59.0342 166.049 59.0342Z" fill="#81584A"/>
<path d="M153.558 36.2505H143.154C134.533 36.2505 127.545 43.2387 127.545 51.8591V70.356C127.545 78.9764 134.533 85.9646 143.154 85.9646H153.558C162.178 85.9646 169.166 78.9764 169.166 70.356V51.8591C169.166 43.2387 162.178 36.2505 153.558 36.2505Z" fill="#9D6B5A"/>
<path d="M153.178 83.9127H143.456C142.405 83.9127 141.553 84.7649 141.553 85.8162C141.553 86.8675 142.405 87.7197 143.456 87.7197H153.178C154.229 87.7197 155.082 86.8675 155.082 85.8162C155.082 84.7649 154.229 83.9127 153.178 83.9127Z" fill="#9D6B5A"/>
<path d="M106.774 133.368L106.698 133.367C101.839 133.286 97.8349 137.16 97.7541 142.019L97.1475 178.505C97.0668 183.364 100.94 187.368 105.799 187.449L105.875 187.451C110.734 187.531 114.739 183.658 114.82 178.799L115.426 142.313C115.507 137.454 111.634 133.449 106.774 133.368Z" fill="#81584A"/>
<path d="M107.842 172.938H104.947C99.3984 172.938 94.9004 177.436 94.9004 182.985V187.914C94.9004 193.463 99.3984 197.961 104.947 197.961H107.842C113.391 197.961 117.889 193.463 117.889 187.914V182.985C117.889 177.436 113.391 172.938 107.842 172.938Z" fill="#906253"/>
<path d="M116.908 149.003C116.908 142.969 112.017 138.078 105.983 138.078C99.9497 138.078 95.0586 142.969 95.0586 149.003V157.582C95.0586 163.615 99.9497 168.506 105.983 168.506C112.017 168.506 116.908 163.615 116.908 157.582V149.003Z" fill="#906253"/>
<path d="M115.159 146.45C115.159 145.337 114.256 144.434 113.143 144.434C112.029 144.434 111.127 145.337 111.127 146.45V153.758C111.127 154.871 112.029 155.774 113.143 155.774C114.256 155.774 115.159 154.871 115.159 153.758V146.45Z" fill="#9D6B5A"/>
<path d="M108.566 187.045C107.215 183.442 103.199 181.617 99.5962 182.967C95.9931 184.318 94.1674 188.334 95.5184 191.938L99.2083 201.779C100.559 205.382 104.575 207.207 108.178 205.857C111.781 204.506 113.607 200.49 112.256 196.886L108.566 187.045Z" fill="#906253"/>
<path d="M118.355 184.931C118.355 182.454 116.347 180.447 113.871 180.447C111.394 180.447 109.387 182.454 109.387 184.931V191.695C109.387 194.171 111.394 196.179 113.871 196.179C116.347 196.179 118.355 194.171 118.355 191.695V184.931Z" fill="#9D6B5A"/>
<path d="M143.885 141.347H139.464C137.356 141.347 135.646 143.057 135.646 145.165C135.646 147.274 137.356 148.983 139.464 148.983H143.885C145.993 148.983 147.703 147.274 147.703 145.165C147.703 143.057 145.993 141.347 143.885 141.347Z" fill="#9D6B5A"/>
<path d="M143.885 150.349H139.464C137.356 150.349 135.646 152.059 135.646 154.167C135.646 156.276 137.356 157.985 139.464 157.985H143.885C145.993 157.985 147.703 156.276 147.703 154.167C147.703 152.059 145.993 150.349 143.885 150.349Z" fill="#9D6B5A"/>
<path d="M143.885 159.351H139.464C137.356 159.351 135.646 161.061 135.646 163.169C135.646 165.278 137.356 166.987 139.464 166.987H143.885C145.993 166.987 147.703 165.278 147.703 163.169C147.703 161.061 145.993 159.351 143.885 159.351Z" fill="#9D6B5A"/>
<path d="M157.389 141.347H152.968C150.86 141.347 149.15 143.057 149.15 145.165C149.15 147.274 150.86 148.983 152.968 148.983H157.389C159.497 148.983 161.207 147.274 161.207 145.165C161.207 143.057 159.497 141.347 157.389 141.347Z" fill="#9D6B5A"/>
<path d="M157.389 150.349H152.968C150.86 150.349 149.15 152.059 149.15 154.167C149.15 156.276 150.86 157.985 152.968 157.985H157.389C159.497 157.985 161.207 156.276 161.207 154.167C161.207 152.059 159.497 150.349 157.389 150.349Z" fill="#9D6B5A"/>
<path d="M157.389 159.351H152.968C150.86 159.351 149.15 161.061 149.15 163.169C149.15 165.278 150.86 166.987 152.968 166.987H157.389C159.497 166.987 161.207 165.278 161.207 163.169C161.207 161.061 159.497 159.351 157.389 159.351Z" fill="#9D6B5A"/>
<path d="M143.549 98.8671L136.741 95.5944C135.983 95.2302 135.074 95.5491 134.71 96.3067C134.346 97.0643 134.664 97.9738 135.422 98.3379L142.23 101.611C142.988 101.975 143.897 101.656 144.261 100.898C144.626 100.141 144.307 99.2313 143.549 98.8671Z" fill="#81584A"/>
<path d="M151.658 98.8671L158.466 95.5944C159.224 95.2302 160.133 95.5491 160.497 96.3067C160.862 97.0643 160.543 97.9738 159.785 98.3379L152.977 101.611C152.219 101.975 151.31 101.656 150.946 100.898C150.581 100.141 150.9 99.2313 151.658 98.8671Z" fill="#81584A"/>
<path d="M125.475 170.454C124.075 170.454 122.725 170.655 121.447 171.024C122.943 185.69 134.219 197.021 148 197.021C161.96 197.021 173.349 185.396 174.607 170.454C174.606 170.454 174.604 170.454 174.603 170.454H125.475Z" fill="#4F4F4F"/>
<path d="M172.957 168.835H122.708C121.61 168.835 120.721 169.724 120.721 170.822V173.898C120.721 174.996 121.61 175.885 122.708 175.885H172.957C174.055 175.885 174.944 174.996 174.944 173.898V170.822C174.944 169.724 174.055 168.835 172.957 168.835Z" fill="#5B5B5B"/>
<path d="M149.319 81.6238H146.348C146.111 81.6238 145.918 81.8163 145.918 82.0539V82.3073C145.918 82.5448 146.111 82.7374 146.348 82.7374H149.319C149.556 82.7374 149.749 82.5448 149.749 82.3073V82.0539C149.749 81.8163 149.556 81.6238 149.319 81.6238Z" fill="#81584A"/>
<path d="M151.57 64.3889C151.57 62.6146 150.132 61.1761 148.357 61.1761C146.583 61.1761 145.145 62.6146 145.145 64.3889V70.0585C145.145 71.8329 146.583 73.2713 148.357 73.2713C150.132 73.2713 151.57 71.8329 151.57 70.0585V64.3889Z" fill="#81584A"/>
<path d="M140.498 61.2311C140.498 60.1207 139.598 59.2205 138.487 59.2205C137.377 59.2205 136.477 60.1207 136.477 61.2311V62.0354C136.477 63.1458 137.377 64.046 138.487 64.046C139.598 64.046 140.498 63.1458 140.498 62.0354V61.2311Z" fill="#61534B"/>
<path d="M160.002 61.2311C160.002 60.1207 159.102 59.2205 157.991 59.2205C156.881 59.2205 155.98 60.1207 155.98 61.2311V62.0354C155.98 63.1458 156.881 64.046 157.991 64.046C159.102 64.046 160.002 63.1458 160.002 62.0354V61.2311Z" fill="#61534B"/>
<path d="M151.958 80.9441C154.917 80.9441 157.3 78.3995 157.3 75.238V74.3146H139.311V75.238C139.311 78.3995 141.693 80.9441 144.652 80.9441H151.958Z" fill="white"/>
<path d="M147.93 70.8461L144.943 68.3073C144.449 67.8879 143.709 67.948 143.289 68.4416C142.87 68.9353 142.93 69.6755 143.424 70.0949L146.412 72.6337C146.905 73.0531 147.645 72.993 148.065 72.4993C148.484 72.0057 148.424 71.2655 147.93 70.8461Z" fill="#81584A"/>
<path d="M148.784 70.8461L151.772 68.3073C152.266 67.8879 153.006 67.948 153.425 68.4416C153.845 68.9353 153.785 69.6755 153.291 70.0949L150.303 72.6337C149.81 73.0531 149.069 72.993 148.65 72.4993C148.231 72.0057 148.291 71.2655 148.784 70.8461Z" fill="#81584A"/>
<path d="M150.216 69.2134C150.216 68.362 149.526 67.6719 148.674 67.6719C147.823 67.6719 147.133 68.362 147.133 69.2134V70.6208C147.133 71.4722 147.823 72.1623 148.674 72.1623C149.526 72.1623 150.216 71.4722 150.216 70.6208V69.2134Z" fill="#906253"/>
<path d="M141.785 58.7764L135.512 57.5148C134.832 57.378 134.17 57.8183 134.034 58.4983C133.897 59.1783 134.337 59.8404 135.017 59.9772L141.289 61.2389C141.969 61.3756 142.631 60.9353 142.768 60.2553C142.905 59.5753 142.465 58.9132 141.785 58.7764Z" fill="#4D4D4D"/>
<path d="M135.42 58.8252C135.5 58.4274 135.243 58.0402 134.845 57.9602C134.447 57.8802 134.06 58.1377 133.98 58.5355L133.648 60.1848C133.568 60.5825 133.826 60.9698 134.224 61.0498C134.621 61.1298 135.009 60.8723 135.089 60.4745L135.42 58.8252Z" fill="#4D4D4D"/>
<path d="M154.543 58.7763L160.816 57.5146C161.496 57.3779 162.158 57.8182 162.295 58.4982C162.431 59.1782 161.991 59.8403 161.311 59.9771L155.039 61.2387C154.359 61.3755 153.697 60.9352 153.56 60.2552C153.423 59.5752 153.863 58.9131 154.543 58.7763Z" fill="#4D4D4D"/>
<path d="M160.908 58.825C160.828 58.4273 161.085 58.0401 161.483 57.96C161.881 57.88 162.268 58.1376 162.348 58.5353L162.68 60.1847C162.76 60.5824 162.502 60.9697 162.104 61.0497C161.707 61.1297 161.319 60.8721 161.239 60.4744L160.908 58.825Z" fill="#4D4D4D"/>
<path d="M146.291 58.5307C146.291 58.0334 145.888 57.6302 145.391 57.6302C144.893 57.6302 144.49 58.0334 144.49 58.5307V59.6207C144.49 60.118 144.893 60.5211 145.391 60.5211C145.888 60.5211 146.291 60.118 146.291 59.6207V58.5307Z" fill="#81584A"/>
<path d="M152.262 58.5307C152.262 58.0334 151.859 57.6302 151.361 57.6302C150.864 57.6302 150.461 58.0334 150.461 58.5307V59.6207C150.461 60.118 150.864 60.5211 151.361 60.5211C151.859 60.5211 152.262 60.118 152.262 59.6207V58.5307Z" fill="#81584A"/>
<path d="M149.323 81.6235H146.352C146.114 81.6235 145.922 81.8161 145.922 82.0536V82.307C145.922 82.5446 146.114 82.7372 146.352 82.7372H149.323C149.56 82.7372 149.753 82.5446 149.753 82.307V82.0536C149.753 81.8161 149.56 81.6235 149.323 81.6235Z" fill="#81584A"/>
<path d="M151.576 64.3888C151.576 62.6144 150.138 61.176 148.363 61.176C146.589 61.176 145.15 62.6144 145.15 64.3888V70.0584C145.15 71.8328 146.589 73.2712 148.363 73.2712C150.138 73.2712 151.576 71.8328 151.576 70.0584V64.3888Z" fill="#81584A"/>
<path d="M140.504 61.231C140.504 60.1205 139.604 59.2203 138.493 59.2203C137.383 59.2203 136.482 60.1205 136.482 61.231V62.0353C136.482 63.1457 137.383 64.0459 138.493 64.0459C139.604 64.0459 140.504 63.1457 140.504 62.0353V61.231Z" fill="#61534B"/>
<path d="M160.006 61.231C160.006 60.1205 159.105 59.2203 157.995 59.2203C156.885 59.2203 155.984 60.1205 155.984 61.231V62.0353C155.984 63.1457 156.885 64.0459 157.995 64.0459C159.105 64.0459 160.006 63.1457 160.006 62.0353V61.231Z" fill="#61534B"/>
<path d="M147.936 70.846L144.948 68.3072C144.455 67.8878 143.715 67.9479 143.295 68.4415C142.876 68.9352 142.936 69.6754 143.43 70.0948L146.417 72.6336C146.911 73.053 147.651 72.9928 148.071 72.4992C148.49 72.0056 148.43 71.2654 147.936 70.846Z" fill="#81584A"/>
<path d="M148.79 70.846L151.778 68.3072C152.272 67.8878 153.012 67.9479 153.431 68.4415C153.851 68.9352 153.791 69.6753 153.297 70.0948L150.309 72.6335C149.816 73.053 149.075 72.9928 148.656 72.4992C148.236 72.0056 148.297 71.2654 148.79 70.846Z" fill="#81584A"/>
<path d="M150.222 69.2133C150.222 68.3619 149.532 67.6718 148.68 67.6718C147.829 67.6718 147.139 68.3619 147.139 69.2133V70.6207C147.139 71.4721 147.829 72.1622 148.68 72.1622C149.532 72.1622 150.222 71.4721 150.222 70.6207V69.2133Z" fill="#906253"/>
<path d="M141.65 58.2172L135.257 57.966C134.564 57.9388 133.98 58.4786 133.953 59.1717C133.925 59.8647 134.465 60.4486 135.158 60.4759L141.551 60.727C142.244 60.7542 142.828 60.2145 142.855 59.5214C142.883 58.8283 142.343 58.2444 141.65 58.2172Z" fill="#4D4D4D"/>
<path d="M135.373 59.2748C135.389 58.8694 135.073 58.5279 134.668 58.512C134.262 58.4961 133.921 58.8118 133.905 59.2172L133.839 60.8983C133.823 61.3036 134.139 61.6452 134.544 61.6611C134.949 61.677 135.291 61.3613 135.307 60.9559L135.373 59.2748Z" fill="#4D4D4D"/>
<path d="M154.779 57.9872L161.174 58.1702C161.868 58.1901 162.414 58.7682 162.394 59.4615C162.374 60.1549 161.796 60.7008 161.102 60.681L154.707 60.4979C154.014 60.478 153.468 59.8999 153.488 59.2066C153.508 58.5133 154.086 57.9673 154.779 57.9872Z" fill="#4D4D4D"/>
<path d="M160.971 59.4684C160.983 59.0628 161.321 58.7435 161.727 58.7551C162.132 58.7667 162.452 59.1049 162.44 59.5104L162.392 61.1921C162.38 61.5976 162.042 61.917 161.636 61.9054C161.231 61.8937 160.912 61.5556 160.923 61.1501L160.971 59.4684Z" fill="#4D4D4D"/>
<path d="M171.087 54.5381C171.007 54.5315 170.926 54.5314 170.844 54.5388C170.751 54.5473 170.657 54.5655 170.563 54.5935L170.371 54.651C169.75 54.8377 169.36 55.4111 169.374 56.0285C169.314 55.9422 169.242 55.8669 169.165 55.7972V57.7103C171.858 58.8258 173.742 61.4736 173.742 64.5783C173.742 67.6995 171.837 70.3581 169.122 71.4631C169.045 72.5779 168.847 73.6579 168.55 74.6948V75.7646C168.481 75.6544 168.399 75.5537 168.308 75.4618C166.954 79.3988 164.078 82.6128 160.373 84.4069V86.8072C160.373 87.7726 161.151 88.5493 162.116 88.5493H162.92C163.885 88.5493 164.663 87.7726 164.663 86.8072V86.3383C164.925 86.9688 165.544 87.4101 166.272 87.4101H167.076C168.041 87.4101 168.818 86.6328 168.818 85.6674V85.1157C169.126 85.6074 169.668 85.9359 170.293 85.9359C171.258 85.9359 172.036 85.1585 172.036 84.1931V74.4046L172.394 75.5971C172.618 76.3438 173.4 76.765 174.147 76.5407C174.894 76.3164 175.314 75.5342 175.09 74.7874L173.178 68.4234C173.53 68.8193 174.089 69.0001 174.632 68.837L174.825 68.7789C175.572 68.5545 175.992 67.7731 175.768 67.0263L172.317 55.5364C172.145 54.9647 171.646 54.5845 171.087 54.5381V54.5381ZM125.78 54.6328C125.221 54.6791 124.722 55.0593 124.551 55.631L121.099 67.1209C120.875 67.8677 121.295 68.6492 122.042 68.8735L122.235 68.9317C122.778 69.0947 123.337 68.914 123.689 68.5181L121.777 74.882C121.553 75.6288 121.973 76.411 122.72 76.6353C123.467 76.8596 124.249 76.4392 124.473 75.6924L124.546 75.4519V84.1931C124.546 85.1585 125.322 85.9358 126.288 85.9358C126.913 85.9358 127.455 85.6074 127.763 85.1156V85.6673C127.763 86.6327 128.539 87.4101 129.505 87.4101H130.31C131.036 87.4101 131.655 86.9698 131.918 86.3403V86.8072C131.918 87.7726 132.695 88.5493 133.66 88.5493H134.465C135.43 88.5493 136.207 87.7726 136.207 86.8072V84.3438C132.536 82.524 129.696 79.3035 128.37 75.3713C128.239 75.4854 128.123 75.6163 128.03 75.7646V74.2188C127.805 73.3284 127.653 72.4082 127.587 71.4631C124.872 70.3581 122.968 67.6995 122.968 64.5783C122.968 61.4736 124.852 58.8258 127.544 57.7103V56.0608C127.527 56.0819 127.508 56.101 127.493 56.1232C127.507 55.506 127.117 54.9322 126.496 54.7456L126.304 54.6881C126.21 54.6601 126.116 54.642 126.023 54.6335C125.941 54.626 125.86 54.6261 125.78 54.6327V54.6328Z" fill="#4D4D4D"/>
<path d="M131.739 41.6665C128.728 44.4671 126.842 48.5143 126.842 53.0302V71.196C126.842 79.6884 133.51 86.5254 141.793 86.5254H154.916C163.199 86.5254 169.867 79.6884 169.867 71.196V53.0302C169.867 48.5143 167.981 44.4671 164.97 41.6665C167.265 44.3978 168.652 47.9554 168.652 51.8595V70.3561C168.652 79.0033 161.862 85.9646 153.428 85.9646H143.281C134.847 85.9646 128.057 79.0033 128.057 70.3561V51.8595C128.057 47.9554 129.444 44.3978 131.739 41.6665Z" fill="#565656"/>
<path d="M140.524 86.3501C140.524 85.5387 139.882 84.881 139.091 84.881C138.3 84.881 137.658 85.5387 137.658 86.3501V88.0562C137.658 88.8676 138.3 89.5254 139.091 89.5254C139.882 89.5254 140.524 88.8676 140.524 88.0562V86.3501Z" fill="#565656"/>
<path d="M143.202 87.6906C143.202 86.8792 142.56 86.2214 141.769 86.2214C140.977 86.2214 140.336 86.8792 140.336 87.6906V89.3967C140.336 90.2081 140.977 90.8658 141.769 90.8658C142.56 90.8658 143.202 90.2081 143.202 89.3967V87.6906Z" fill="#565656"/>
<path d="M145.85 88.4278C145.85 87.6164 145.209 86.9586 144.417 86.9586C143.626 86.9586 142.984 87.6164 142.984 88.4278V90.1339C142.984 90.9452 143.626 91.603 144.417 91.603C145.209 91.603 145.85 90.9452 145.85 90.1339V88.4278Z" fill="#565656"/>
<path d="M148.465 88.5954C148.465 87.784 147.824 87.1262 147.033 87.1262C146.241 87.1262 145.6 87.784 145.6 88.5954V90.3015C145.6 91.1128 146.241 91.7706 147.033 91.7706C147.824 91.7706 148.465 91.1128 148.465 90.3015V88.5954Z" fill="#565656"/>
<path d="M138.11 83.4068C138.11 82.4384 137.344 81.6533 136.4 81.6533C135.455 81.6533 134.689 82.4384 134.689 83.4068V85.4431C134.689 86.4115 135.455 87.1966 136.4 87.1966C137.344 87.1966 138.11 86.4115 138.11 85.4431V83.4068Z" fill="#565656"/>
<path d="M135.153 81.6059C135.153 80.6375 134.387 79.8524 133.443 79.8524C132.498 79.8524 131.732 80.6375 131.732 81.6059V83.6422C131.732 84.6106 132.498 85.3957 133.443 85.3957C134.387 85.3957 135.153 84.6106 135.153 83.6422V81.6059Z" fill="#565656"/>
<path d="M132.657 79.4259C132.657 78.4574 131.891 77.6724 130.947 77.6724C130.002 77.6724 129.236 78.4574 129.236 79.4259V81.4622C129.236 82.4306 130.002 83.2156 130.947 83.2156C131.891 83.2156 132.657 82.4306 132.657 81.4622V79.4259Z" fill="#565656"/>
<path d="M156.187 86.3501C156.187 85.5387 156.828 84.881 157.62 84.881C158.411 84.881 159.053 85.5387 159.053 86.3501V88.0562C159.053 88.8676 158.411 89.5254 157.62 89.5254C156.828 89.5254 156.187 88.8676 156.187 88.0562V86.3501Z" fill="#565656"/>
<path d="M153.509 87.6906C153.509 86.8792 154.151 86.2214 154.942 86.2214C155.733 86.2214 156.375 86.8792 156.375 87.6906V89.3967C156.375 90.2081 155.733 90.8658 154.942 90.8658C154.151 90.8658 153.509 90.2081 153.509 89.3967V87.6906Z" fill="#565656"/>
<path d="M150.861 88.4278C150.861 87.6164 151.502 86.9586 152.294 86.9586C153.085 86.9586 153.727 87.6164 153.727 88.4278V90.1339C153.727 90.9452 153.085 91.603 152.294 91.603C151.502 91.603 150.861 90.9452 150.861 90.1339V88.4278Z" fill="#565656"/>
<path d="M148.246 88.5954C148.246 87.784 148.887 87.1262 149.678 87.1262C150.47 87.1262 151.111 87.784 151.111 88.5954V90.3015C151.111 91.1128 150.47 91.7706 149.678 91.7706C148.887 91.7706 148.246 91.1128 148.246 90.3015V88.5954Z" fill="#565656"/>
<path d="M158.599 83.4068C158.599 82.4384 159.365 81.6533 160.309 81.6533C161.254 81.6533 162.02 82.4384 162.02 83.4068V85.4431C162.02 86.4115 161.254 87.1966 160.309 87.1966C159.365 87.1966 158.599 86.4115 158.599 85.4431V83.4068Z" fill="#565656"/>
<path d="M161.558 81.6059C161.558 80.6375 162.324 79.8524 163.268 79.8524C164.213 79.8524 164.979 80.6375 164.979 81.6059V83.6422C164.979 84.6106 164.213 85.3957 163.268 85.3957C162.324 85.3957 161.558 84.6106 161.558 83.6422V81.6059Z" fill="#565656"/>
<path d="M164.054 79.4259C164.054 78.4574 164.82 77.6724 165.764 77.6724C166.709 77.6724 167.475 78.4574 167.475 79.4259V81.4622C167.475 82.4306 166.709 83.2156 165.764 83.2156C164.82 83.2156 164.054 82.4306 164.054 81.4622V79.4259Z" fill="#565656"/>
<path d="M141.881 69.0614C138.537 69.0614 135.846 71.8212 135.846 75.2494V82.4882C135.846 85.9165 138.537 88.6762 141.881 88.6762H154.831C158.175 88.6762 160.867 85.9165 160.867 82.4882V75.2494C160.867 71.8212 158.175 69.0614 154.831 69.0614H153.564C153.609 69.4385 153.474 69.83 153.169 70.0954L152.657 70.5413C152.961 70.8333 153.186 71.2098 153.285 71.6412H155.041C156.911 71.6412 158.415 73.1838 158.415 75.1008V78.2133C158.415 78.9407 158.198 79.6134 157.827 80.1692V81.0231C157.827 83.7596 155.679 85.9625 153.01 85.9625H143.703C141.034 85.9625 138.885 83.7596 138.885 81.0231V80.1692C138.514 79.6134 138.297 78.9407 138.297 78.2133V75.1008C138.297 73.1838 139.802 71.6412 141.671 71.6412H142.776C142.908 71.0607 143.265 70.5741 143.745 70.2714L143.543 70.0954C143.239 69.83 143.104 69.4385 143.148 69.0614H141.881Z" fill="#565656"/>
<path d="M139.05 35.3916C131.167 35.3916 124.82 41.7376 124.82 49.6204C124.82 49.9906 124.839 50.356 124.867 50.7189C124.839 50.9046 124.82 51.0932 124.82 51.2867V60.0033C124.82 61.8739 126.143 63.4236 127.908 63.7742V52.3993C127.908 44.2566 134.463 37.7008 142.606 37.7008H154.106C162.248 37.7008 168.804 44.2566 168.804 52.3993V63.7896C170.619 63.4793 171.994 61.9095 171.994 60.0033V51.2867C171.994 51.0932 171.975 50.9046 171.948 50.7189C171.975 50.356 171.994 49.9906 171.994 49.6204C171.994 41.7376 165.648 35.3916 157.765 35.3916H139.05Z" fill="#4D4D4D"/>
<path d="M155.203 33.5968H142.384C138.065 33.5968 134.564 37.0977 134.564 41.4163C134.564 45.7349 138.065 49.2358 142.384 49.2358H155.203C159.521 49.2358 163.022 45.7349 163.022 41.4163C163.022 37.0977 159.521 33.5968 155.203 33.5968Z" fill="#4D4D4D"/>
<path d="M138.921 38.5642C138.921 37.3429 137.931 36.3529 136.709 36.3529C135.488 36.3529 134.498 37.3429 134.498 38.5642V43.6917C134.498 44.9129 135.488 45.9029 136.709 45.9029C137.931 45.9029 138.921 44.9129 138.921 43.6917V38.5642Z" fill="#4D4D4D"/>
<path d="M164.046 38.7564C164.046 37.5352 163.056 36.5452 161.834 36.5452C160.613 36.5452 159.623 37.5352 159.623 38.7564V43.8839C159.623 45.1052 160.613 46.0952 161.834 46.0952C163.056 46.0952 164.046 45.1052 164.046 43.8839V38.7564Z" fill="#4D4D4D"/>
<path d="M133.655 41.0919C133.54 40.2861 132.792 39.7266 131.987 39.8424C131.181 39.9582 130.621 40.7053 130.737 41.5112L131.111 44.1123C131.226 44.9182 131.974 45.4777 132.779 45.3619C133.585 45.2461 134.145 44.499 134.029 43.6931L133.655 41.0919Z" fill="#4D4D4D"/>
<path d="M164.921 41.7263C165.037 40.9205 165.784 40.361 166.59 40.4768C167.396 40.5926 167.955 41.3397 167.839 42.1456L167.466 44.7467C167.35 45.5526 166.603 46.1121 165.797 45.9963C164.991 45.8805 164.431 45.1334 164.547 44.3275L164.921 41.7263Z" fill="#4D4D4D"/>
<path d="M147.247 37.4811H148.627C149.442 37.4811 150.102 38.1411 150.102 38.9552V44.3392C150.102 45.1533 149.442 45.8133 148.627 45.8133H147.247C146.433 45.8133 145.773 45.1533 145.773 44.3392V38.9552C145.773 38.1411 146.433 37.4811 147.247 37.4811Z" fill="#565656"/>
<path d="M141.29 37.6412H143.112C143.749 37.6412 144.266 38.1578 144.266 38.7949V44.4993C144.266 45.1365 143.749 45.653 143.112 45.653H141.29C140.653 45.653 140.136 45.1365 140.136 44.4993V38.7949C140.136 38.1578 140.653 37.6412 141.29 37.6412Z" fill="#565656"/>
<path d="M154.581 37.6412H152.759C152.122 37.6412 151.605 38.1578 151.605 38.7949V44.4993C151.605 45.1365 152.122 45.653 152.759 45.653H154.581C155.219 45.653 155.735 45.1365 155.735 44.4993V38.7949C155.735 38.1578 155.219 37.6412 154.581 37.6412Z" fill="#565656"/>
<path d="M134.621 54.598C129.659 54.9352 125.764 59.0398 125.764 64.0899C125.764 69.3623 130.008 73.6068 135.28 73.6068H143.74C144.801 73.6068 145.82 73.431 146.771 73.1129V72.9951C146.76 72.9882 146.747 72.9833 146.735 72.9763C146.639 72.9335 146.546 72.8816 146.462 72.8101L143.594 70.3737C143.495 70.289 143.418 70.1888 143.355 70.0824H136.792C132.418 70.0824 128.896 66.5606 128.896 62.1864C128.896 58.5669 131.311 55.5376 134.621 54.598L134.621 54.598ZM161.954 54.598C165.265 55.5376 167.678 58.5669 167.678 62.1864C167.678 66.5606 164.157 70.0824 159.783 70.0824H153.306C153.243 70.1888 153.166 70.289 153.067 70.3737L150.199 72.8101C150.115 72.8816 150.021 72.9335 149.926 72.9763C149.887 72.9999 149.844 73.0176 149.804 73.0395V73.1129C150.756 73.431 151.774 73.6068 152.836 73.6068H161.295C166.567 73.6068 170.812 69.3623 170.812 64.0899C170.812 59.0398 166.916 54.9352 161.954 54.598L161.954 54.598Z" fill="white"/>
<path d="M162.244 20.0605H133.756C126.468 20.0605 120.561 25.9685 120.561 33.2563V38.046C120.561 45.3338 126.468 51.2418 133.756 51.2418H162.244C169.532 51.2418 175.44 45.3338 175.44 38.046V33.2563C175.44 25.9685 169.532 20.0605 162.244 20.0605Z" fill="#B78260"/>
<path d="M171.203 49.6399H125.513C124.909 49.6399 124.42 50.1291 124.42 50.7327V54.5573C124.42 55.1608 124.909 55.6501 125.513 55.6501H171.203C171.807 55.6501 172.296 55.1608 172.296 54.5573V50.7327C172.296 50.1291 171.807 49.6399 171.203 49.6399Z" fill="#CC9454"/>
<path d="M171.504 47.5397H125.212C124.775 47.5397 124.42 47.8945 124.42 48.3322V51.1058C124.42 51.5435 124.775 51.8983 125.212 51.8983H171.504C171.941 51.8983 172.296 51.5435 172.296 51.1058V48.3322C172.296 47.8945 171.941 47.5397 171.504 47.5397Z" fill="#D95A31"/>
<path d="M165.486 20.0605H130.514C125.017 20.0605 120.561 24.5168 120.561 30.0139V33.6267C120.561 39.1238 125.017 43.5801 130.514 43.5801H165.486C170.983 43.5801 175.44 39.1238 175.44 33.6267V30.0139C175.44 24.5168 170.983 20.0605 165.486 20.0605Z" fill="#CC9454"/>
<path d="M137.042 25.5842C137.042 24.3541 136.045 23.3569 134.815 23.3569C133.585 23.3569 132.588 24.3541 132.588 25.5842V28.9696C132.588 30.1996 133.585 31.1968 134.815 31.1968C136.045 31.1968 137.042 30.1996 137.042 28.9696V25.5842Z" fill="#CEAC5C"/>
<path d="M147.11 29.9496C147.11 28.8179 146.192 27.9005 145.061 27.9005C143.929 27.9005 143.012 28.8179 143.012 29.9496V30.8405C143.012 31.9721 143.929 32.8895 145.061 32.8895C146.192 32.8895 147.11 31.9721 147.11 30.8405V29.9496Z" fill="#CEAC5C"/>
<path d="M160.74 27.0095C160.74 25.7794 159.742 24.7822 158.512 24.7822C157.282 24.7822 156.285 25.7794 156.285 27.0095V30.3949C156.285 31.6249 157.282 32.6221 158.512 32.6221C159.742 32.6221 160.74 31.6249 160.74 30.3949V27.0095Z" fill="#CEAC5C"/>
<path d="M170.807 31.3749C170.807 30.2432 169.89 29.3258 168.758 29.3258C167.626 29.3258 166.709 30.2432 166.709 31.3749V32.2658C166.709 33.3974 167.626 34.3148 168.758 34.3148C169.89 34.3148 170.807 33.3974 170.807 32.2658V31.3749Z" fill="#CEAC5C"/>
<path d="M130.451 35.7404C130.451 34.5103 129.453 33.5132 128.223 33.5132C126.993 33.5132 125.996 34.5103 125.996 35.7404V39.1258C125.996 40.3559 126.993 41.353 128.223 41.353C129.453 41.353 130.451 40.3559 130.451 39.1258V35.7404Z" fill="#CEAC5C"/>
<path d="M140.518 40.1058C140.518 38.9742 139.601 38.0568 138.469 38.0568C137.337 38.0568 136.42 38.9742 136.42 40.1058V40.9967C136.42 42.1284 137.337 43.0458 138.469 43.0458C139.601 43.0458 140.518 42.1284 140.518 40.9967V40.1058Z" fill="#CEAC5C"/>
<path d="M151.296 37.1656C151.296 35.9355 150.299 34.9384 149.069 34.9384C147.839 34.9384 146.842 35.9355 146.842 37.1656V40.551C146.842 41.781 147.839 42.7782 149.069 42.7782C150.299 42.7782 151.296 41.781 151.296 40.551V37.1656Z" fill="#B78260"/>
<path d="M161.364 41.531C161.364 40.3993 160.446 39.4819 159.315 39.4819C158.183 39.4819 157.266 40.3993 157.266 41.531V42.4219C157.266 43.5535 158.183 44.4709 159.315 44.4709C160.446 44.4709 161.364 43.5535 161.364 42.4219V41.531Z" fill="#B78260"/>
<path d="M148.861 33.5831H147.853C146.574 33.5831 145.537 34.5613 145.537 35.7679V45.2635C145.537 46.4701 146.574 47.4483 147.853 47.4483H148.861C150.141 47.4483 151.178 46.4701 151.178 45.2635V35.7679C151.178 34.5613 150.141 33.5831 148.861 33.5831Z" fill="#E5DA57"/>
<path d="M148.861 41.4048C148.861 41.011 148.636 40.6918 148.357 40.6918C148.079 40.6918 147.854 41.011 147.854 41.4048V49.9017C147.854 50.2955 148.079 50.6148 148.357 50.6148C148.636 50.6148 148.861 50.2955 148.861 49.9017V41.4048Z" fill="#E5BE57"/>
<path d="M148.861 38.0773C148.861 37.8148 148.636 37.6019 148.357 37.6019C148.079 37.6019 147.854 37.8148 147.854 38.0773V38.9092C147.854 39.1717 148.079 39.3845 148.357 39.3845C148.636 39.3845 148.861 39.1717 148.861 38.9092V38.0773Z" fill="#E5BE57"/>
<path d="M133.178 33.5831H132.17C130.891 33.5831 129.854 34.5613 129.854 35.7679V45.2635C129.854 46.4701 130.891 47.4483 132.17 47.4483H133.178C134.457 47.4483 135.494 46.4701 135.494 45.2635V35.7679C135.494 34.5613 134.457 33.5831 133.178 33.5831Z" fill="#E5DA57"/>
<path d="M133.178 41.4047C133.178 41.0109 132.952 40.6917 132.674 40.6917C132.396 40.6917 132.17 41.0109 132.17 41.4047V49.9016C132.17 50.2954 132.396 50.6147 132.674 50.6147C132.952 50.6147 133.178 50.2954 133.178 49.9016V41.4047Z" fill="#E5BE57"/>
<path d="M133.178 38.0773C133.178 37.8148 132.952 37.6019 132.674 37.6019C132.396 37.6019 132.17 37.8148 132.17 38.0773V38.9092C132.17 39.1717 132.396 39.3845 132.674 39.3845C132.952 39.3845 133.178 39.1717 133.178 38.9092V38.0773Z" fill="#E5BE57"/>
<path d="M164.541 33.5833H163.533C162.254 33.5833 161.217 34.5614 161.217 35.7681V45.2636C161.217 46.4703 162.254 47.4484 163.533 47.4484H164.541C165.82 47.4484 166.857 46.4703 166.857 45.2636V35.7681C166.857 34.5614 165.82 33.5833 164.541 33.5833Z" fill="#E5DA57"/>
<path d="M164.541 41.4048C164.541 41.011 164.315 40.6918 164.037 40.6918C163.759 40.6918 163.533 41.011 163.533 41.4048V49.9017C163.533 50.2955 163.759 50.6148 164.037 50.6148C164.315 50.6148 164.541 50.2955 164.541 49.9017V41.4048Z" fill="#E5BE57"/>
<path d="M164.541 38.0774C164.541 37.8149 164.315 37.6021 164.037 37.6021C163.759 37.6021 163.533 37.8149 163.533 38.0774V38.9093C163.533 39.1718 163.759 39.3846 164.037 39.3846C164.315 39.3846 164.541 39.1718 164.541 38.9093V38.0774Z" fill="#E5BE57"/>
<path d="M172.301 53.5455H124.416C123.834 53.5455 123.363 54.0166 123.363 54.5978C123.363 55.1789 123.834 55.65 124.416 55.65H172.301C172.882 55.65 173.353 55.1789 173.353 54.5978C173.353 54.0166 172.882 53.5455 172.301 53.5455Z" fill="#F7E1DA"/>
<path d="M166.282 21.1985H163.858C162.337 21.1985 161.104 22.4316 161.104 23.9528C161.104 25.4739 162.337 26.7071 163.858 26.7071H166.282C167.803 26.7071 169.036 25.4739 169.036 23.9528C169.036 22.4316 167.803 21.1985 166.282 21.1985Z" fill="#D5A772"/>
<path d="M126.476 53.8806L113.188 63.7094C112.852 63.9576 112.781 64.4309 113.03 64.7665C113.278 65.102 113.751 65.1729 114.087 64.9246L127.374 55.0959C127.71 54.8477 127.781 54.3744 127.533 54.0388C127.284 53.7032 126.811 53.6324 126.476 53.8806Z" fill="#F7E1DA"/>
<path d="M109.346 67.8885L113.998 64.4643C114.222 64.2992 114.27 63.9836 114.105 63.7592C113.94 63.5349 113.625 63.4869 113.4 63.652L108.748 67.0762C108.523 67.2413 108.475 67.557 108.64 67.7813C108.806 68.0056 109.121 68.0536 109.346 67.8885Z" fill="#F7E1DA"/>
<path d="M117.061 57.2077L122.767 58.1068C123.043 58.1502 123.301 57.9623 123.344 57.6871C123.387 57.412 123.2 57.1538 122.924 57.1105L117.218 56.2113C116.943 56.168 116.685 56.3559 116.641 56.631C116.598 56.9061 116.786 57.1643 117.061 57.2077Z" fill="#F7E1DA"/>
<path d="M114.28 59.2641L119.986 60.1632C120.261 60.2066 120.52 60.0187 120.563 59.7435C120.606 59.4684 120.418 59.2102 120.143 59.1668L114.437 58.2677C114.162 58.2244 113.903 58.4123 113.86 58.6874C113.817 58.9625 114.005 59.2207 114.28 59.2641Z" fill="#F7E1DA"/>
<path d="M111.499 61.3206L117.205 62.2197C117.48 62.2631 117.738 62.0752 117.782 61.8C117.825 61.5249 117.637 61.2667 117.362 61.2234L111.656 60.3242C111.38 60.2809 111.122 60.4688 111.079 60.7439C111.036 61.019 111.223 61.2772 111.499 61.3206Z" fill="#F7E1DA"/>
<path d="M108.721 63.377L114.428 64.2761C114.703 64.3195 114.961 64.1316 115.004 63.8564C115.048 63.5813 114.86 63.3231 114.585 63.2798L108.878 62.3806C108.603 62.3373 108.345 62.5252 108.302 62.8003C108.258 63.0754 108.446 63.3336 108.721 63.377Z" fill="#F7E1DA"/>
<path d="M121.441 63.1279L122.251 57.4083C122.291 57.1325 122.546 56.9406 122.822 56.9797C123.097 57.0188 123.289 57.274 123.25 57.5498L122.44 63.2694C122.4 63.5452 122.145 63.7371 121.869 63.698C121.594 63.6589 121.402 63.4037 121.441 63.1279Z" fill="#F7E1DA"/>
<path d="M118.658 65.1843L119.468 59.4647C119.507 59.1889 119.763 58.997 120.038 59.0361C120.314 59.0752 120.506 59.3304 120.467 59.6062L119.656 65.3258C119.617 65.6016 119.362 65.7935 119.086 65.7544C118.81 65.7153 118.619 65.4601 118.658 65.1843Z" fill="#F7E1DA"/>
<path d="M115.88 67.2407L116.691 61.5211C116.73 61.2453 116.985 61.0534 117.261 61.0925C117.537 61.1316 117.729 61.3868 117.69 61.6626L116.879 67.3822C116.84 67.658 116.585 67.8499 116.309 67.8108C116.033 67.7717 115.841 67.5165 115.88 67.2407Z" fill="#F7E1DA"/>
<path d="M113.099 69.2971L113.91 63.5775C113.949 63.3017 114.204 63.1098 114.48 63.1489C114.756 63.188 114.947 63.4432 114.908 63.719L114.098 69.4386C114.059 69.7144 113.803 69.9063 113.528 69.8672C113.252 69.8281 113.06 69.5729 113.099 69.2971Z" fill="#F7E1DA"/>
<path d="M171.192 53.8805L184.48 63.7092C184.816 63.9575 184.887 64.4307 184.638 64.7663C184.39 65.1019 183.917 65.1727 183.581 64.9245L170.294 55.0958C169.958 54.8476 169.887 54.3743 170.135 54.0387C170.384 53.7031 170.857 53.6323 171.192 53.8805Z" fill="#F7E1DA"/>
<path d="M188.324 67.8884L183.672 64.4642C183.447 64.2991 183.399 63.9834 183.565 63.7591C183.73 63.5348 184.045 63.4868 184.27 63.6519L188.922 67.0761C189.147 67.2412 189.195 67.5568 189.029 67.7812C188.864 68.0055 188.549 68.0535 188.324 67.8884Z" fill="#F7E1DA"/>
<path d="M180.615 57.2077L174.908 58.1068C174.633 58.1502 174.375 57.9623 174.332 57.6871C174.288 57.412 174.476 57.1538 174.751 57.1105L180.458 56.2113C180.733 56.168 180.991 56.3559 181.034 56.631C181.078 56.9061 180.89 57.1643 180.615 57.2077Z" fill="#F7E1DA"/>
<path d="M183.394 59.2641L177.688 60.1632C177.412 60.2066 177.154 60.0187 177.111 59.7435C177.068 59.4684 177.256 59.2102 177.531 59.1668L183.237 58.2677C183.512 58.2244 183.77 58.4123 183.814 58.6874C183.857 58.9625 183.669 59.2207 183.394 59.2641Z" fill="#F7E1DA"/>
<path d="M186.175 61.3205L180.469 62.2196C180.194 62.263 179.936 62.075 179.892 61.7999C179.849 61.5248 180.037 61.2666 180.312 61.2232L186.018 60.3241C186.293 60.2808 186.552 60.4687 186.595 60.7438C186.638 61.0189 186.45 61.2771 186.175 61.3205Z" fill="#F7E1DA"/>
<path d="M188.953 63.3769L183.246 64.276C182.971 64.3193 182.713 64.1314 182.67 63.8563C182.626 63.5812 182.814 63.323 183.089 63.2796L188.796 62.3805C189.071 62.3372 189.329 62.5251 189.372 62.8002C189.416 63.0753 189.228 63.3335 188.953 63.3769Z" fill="#F7E1DA"/>
<path d="M176.237 63.1277L175.426 57.408C175.387 57.1323 175.132 56.9404 174.856 56.9795C174.58 57.0185 174.388 57.2738 174.428 57.5496L175.238 63.2692C175.277 63.545 175.533 63.7368 175.808 63.6978C176.084 63.6587 176.276 63.4034 176.237 63.1277Z" fill="#F7E1DA"/>
<path d="M179.018 65.1842L178.207 59.4645C178.168 59.1888 177.913 58.9969 177.637 59.036C177.362 59.0751 177.17 59.3303 177.209 59.6061L178.019 65.3257C178.059 65.6015 178.314 65.7934 178.59 65.7543C178.865 65.7152 179.057 65.4599 179.018 65.1842Z" fill="#F7E1DA"/>
<path d="M181.797 67.2406L180.987 61.5209C180.948 61.2452 180.692 61.0533 180.417 61.0924C180.141 61.1315 179.949 61.3867 179.988 61.6625L180.799 67.3821C180.838 67.6579 181.093 67.8498 181.369 67.8107C181.645 67.7716 181.836 67.5163 181.797 67.2406Z" fill="#F7E1DA"/>
<path d="M184.577 69.2971L183.766 63.5775C183.727 63.3017 183.472 63.1098 183.196 63.1489C182.92 63.188 182.728 63.4432 182.767 63.719L183.578 69.4386C183.617 69.7144 183.872 69.9063 184.148 69.8672C184.424 69.8281 184.616 69.5729 184.577 69.2971Z" fill="#F7E1DA"/>
<path d="M134.362 104.875C133.759 104.873 133.169 105.009 132.671 105.264C132.172 105.52 131.789 105.884 131.572 106.307C130.898 107.624 130.525 109.075 130.525 110.593C130.525 116.291 135.893 121.271 143.068 121.271H152.536C159.711 121.271 165.078 116.291 165.078 110.593C165.078 109.078 164.711 107.627 164.035 106.307C163.82 105.885 163.438 105.521 162.942 105.265C162.446 105.009 161.858 104.872 161.256 104.872C160.654 104.872 160.067 105.009 159.571 105.265C159.074 105.521 158.693 105.885 158.477 106.307C157.345 108.521 155.05 109.828 152.536 109.828H143.068C140.554 109.828 138.263 108.522 137.13 106.307C136.914 105.886 136.535 105.525 136.041 105.269C135.547 105.013 134.962 104.876 134.362 104.875Z" fill="#906253"/>
<path d="M135.531 83.3983C133.693 85.428 132.57 88.1491 132.57 91.1496V106.933C132.57 113.24 137.524 118.318 143.678 118.318H151.826C157.98 118.318 162.934 113.24 162.934 106.933V91.1496C162.934 88.434 162.013 85.9475 160.476 83.9949V87.6248C160.476 87.8749 160.471 88.123 160.461 88.37C160.903 89.5165 161.148 90.7664 161.148 92.0778V106.005C161.148 111.57 156.777 116.05 151.347 116.05H144.158C138.728 116.05 134.357 111.57 134.357 106.005V92.0778C134.357 90.3426 134.782 88.7131 135.531 87.2918L135.531 83.3983Z" fill="#61534B"/>
<path d="M134.362 102.623C133.759 102.621 133.169 102.757 132.671 103.012C132.172 103.268 131.789 103.632 131.572 104.055C130.898 105.372 130.525 106.823 130.525 108.341C130.525 114.039 135.893 119.019 143.068 119.019H152.536C159.711 119.019 165.078 114.039 165.078 108.341C165.078 106.826 164.711 105.375 164.035 104.055C163.82 103.633 163.438 103.269 162.942 103.013C162.446 102.757 161.858 102.62 161.256 102.62C160.654 102.62 160.067 102.757 159.571 103.013C159.074 103.269 158.693 103.633 158.477 104.055C157.345 106.269 155.05 107.576 152.536 107.576H143.068C140.554 107.576 138.263 106.27 137.13 104.055C136.914 103.634 136.535 103.273 136.041 103.017C135.547 102.762 134.962 102.624 134.362 102.623Z" fill="white"/>
<path d="M196.387 130.336C196.263 130.336 196.138 130.343 196.012 130.356L180.18 132.02C178.16 132.232 176.705 134.03 176.917 136.05L177.094 137.73C177.306 139.75 179.104 141.206 181.124 140.993L184.307 140.659C186.334 138.414 189.269 137.007 192.546 137.007H196.392C197.217 137.007 198.019 137.098 198.791 137.268C199.163 136.558 199.649 135.917 200.221 135.368C200.22 135.345 200.22 135.323 200.218 135.3L200.042 133.619C199.843 131.725 198.25 130.328 196.387 130.336L196.387 130.336Z" fill="#F7E1DA"/>
<path d="M113.966 133.526H99.5907C97.7619 133.526 96.2793 135.008 96.2793 136.837V138.363C96.2793 140.192 97.7619 141.674 99.5907 141.674H113.966C115.795 141.674 117.278 140.192 117.278 138.363V136.837C117.278 135.008 115.795 133.526 113.966 133.526Z" fill="#F7E1DA"/>
<path d="M101.902 136.602L101.384 136.343C99.7479 135.525 97.7588 136.188 96.9408 137.824L94.4018 142.901C93.5838 144.537 94.2468 146.526 95.8825 147.344L96.4009 147.603C98.0366 148.421 100.026 147.758 100.844 146.122L103.383 141.045C104.201 139.409 103.538 137.42 101.902 136.602Z" fill="#F7E1DA"/>
<path d="M107.256 140.256C107.256 138.787 106.066 137.596 104.597 137.596C103.128 137.596 101.938 138.787 101.938 140.256V143.247C101.938 144.716 103.128 145.907 104.597 145.907C106.066 145.907 107.256 144.716 107.256 143.247V140.256Z" fill="#F7E1DA"/>
<path d="M110.913 141.585C110.913 140.484 110.02 139.591 108.918 139.591C107.817 139.591 106.924 140.484 106.924 141.585V143.358C106.924 144.46 107.817 145.353 108.918 145.353C110.02 145.353 110.913 144.46 110.913 143.358V141.585Z" fill="#F7E1DA"/>
<path d="M144.343 246.821H124.815C123.782 246.821 122.945 247.658 122.945 248.691V249.418C122.945 250.451 123.782 251.288 124.815 251.288H144.343C145.375 251.288 146.212 250.451 146.212 249.418V248.691C146.212 247.658 145.375 246.821 144.343 246.821Z" fill="#CC9454"/>
<path d="M170.935 246.821H151.407C150.374 246.821 149.537 247.658 149.537 248.691V249.418C149.537 250.451 150.374 251.288 151.407 251.288H170.935C171.967 251.288 172.804 250.451 172.804 249.418V248.691C172.804 247.658 171.967 246.821 170.935 246.821Z" fill="#CC9454"/>
<path d="M138.46 221.133C138.46 219.115 136.824 217.479 134.806 217.479C132.788 217.479 131.152 219.115 131.152 221.133V222.645C131.152 224.662 132.788 226.298 134.806 226.298C136.824 226.298 138.46 224.662 138.46 222.645V221.133Z" fill="#E59C87"/>
<path d="M164.847 221.133C164.847 219.115 163.211 217.479 161.193 217.479C159.175 217.479 157.539 219.115 157.539 221.133V222.645C157.539 224.662 159.175 226.298 161.193 226.298C163.211 226.298 164.847 224.662 164.847 222.645V221.133Z" fill="#E59C87"/>
<path d="M165.048 170.267H130.95C123.832 170.267 118.062 176.037 118.062 183.154V217.139C118.062 224.257 123.832 230.027 130.95 230.027H165.048C172.166 230.027 177.936 224.257 177.936 217.139V183.154C177.936 176.037 172.166 170.267 165.048 170.267Z" fill="#CC9454"/>
<path d="M173.66 167.593H122.338C121.354 167.593 120.557 168.39 120.557 169.374V174.07C120.557 175.053 121.354 175.851 122.338 175.851H173.66C174.644 175.851 175.441 175.053 175.441 174.07V169.374C175.441 168.39 174.644 167.593 173.66 167.593Z" fill="#B78260"/>
<path d="M175.257 217.603H120.742C119.262 217.603 118.062 218.803 118.062 220.283V227.348C118.062 228.828 119.262 230.027 120.742 230.027H175.257C176.736 230.027 177.936 228.828 177.936 227.348V220.283C177.936 218.803 176.736 217.603 175.257 217.603Z" fill="#CEAC5C"/>
<path d="M176.037 217.603H119.961C118.913 217.603 118.062 218.453 118.062 219.502V224.509C118.062 225.558 118.913 226.408 119.961 226.408H176.037C177.086 226.408 177.936 225.558 177.936 224.509V219.502C177.936 218.453 177.086 217.603 176.037 217.603Z" fill="#CC9454"/>
<path d="M131.787 206.97C131.787 205.888 130.91 205.01 129.827 205.01C128.745 205.01 127.867 205.888 127.867 206.97V220.868C127.867 221.95 128.745 222.828 129.827 222.828C130.91 222.828 131.787 221.95 131.787 220.868V206.97Z" fill="#B78260"/>
<path d="M161.008 216.413H159.938C158.856 216.413 157.979 217.291 157.979 218.373V225.679C157.979 226.761 158.856 227.639 159.938 227.639H161.008C162.09 227.639 162.968 226.761 162.968 225.679V218.373C162.968 217.291 162.09 216.413 161.008 216.413Z" fill="#B78260"/>
<path d="M157.799 178.818C157.799 177.735 157.081 176.858 156.195 176.858C155.31 176.858 154.592 177.735 154.592 178.818V186.123C154.592 187.206 155.31 188.083 156.195 188.083C157.081 188.083 157.799 187.206 157.799 186.123V178.818Z" fill="#B78260"/>
<path d="M140.518 179.352C140.518 178.27 139.8 177.392 138.914 177.392C138.029 177.392 137.311 178.27 137.311 179.352V186.658C137.311 187.74 138.029 188.618 138.914 188.618C139.8 188.618 140.518 187.74 140.518 186.658V179.352Z" fill="#B78260"/>
<path d="M140.087 191.825H138.808C138.276 191.825 137.844 192.257 137.844 192.789V196.384C137.844 196.917 138.276 197.348 138.808 197.348H140.087C140.619 197.348 141.051 196.917 141.051 196.384V192.789C141.051 192.257 140.619 191.825 140.087 191.825Z" fill="#B78260"/>
<path d="M169.78 198.799H168.502C167.969 198.799 167.537 199.23 167.537 199.763V203.358C167.537 203.89 167.969 204.322 168.502 204.322H169.78C170.313 204.322 170.744 203.89 170.744 203.358V199.763C170.744 199.23 170.313 198.799 169.78 198.799Z" fill="#B78260"/>
<path d="M141.157 212.494H139.878C139.346 212.494 138.914 212.925 138.914 213.458V217.053C138.914 217.585 139.346 218.017 139.878 218.017H141.157C141.689 218.017 142.121 217.585 142.121 217.053V213.458C142.121 212.925 141.689 212.494 141.157 212.494Z" fill="#B78260"/>
<path d="M175.122 170.982H120.876C120.7 170.982 120.557 171.125 120.557 171.301V172.143C120.557 172.319 120.7 172.462 120.876 172.462H175.122C175.298 172.462 175.441 172.319 175.441 172.143V171.301C175.441 171.125 175.298 170.982 175.122 170.982Z" fill="#CC9454"/>
<path d="M208.938 10.5586C207.262 10.5586 205.914 12.2439 205.914 14.3378V133.311H211.459C211.628 133.311 211.795 133.319 211.961 133.33V14.3378C211.961 12.2439 210.613 10.5586 208.938 10.5586ZM211.961 161.014C211.795 161.025 211.628 161.033 211.459 161.033H205.914V268.84C205.914 270.934 207.262 272.62 208.938 272.62C210.613 272.62 211.961 270.934 211.961 268.84V161.014Z" fill="#87A4B4"/>
<path d="M206.722 122.826C206.274 122.826 205.914 123.187 205.914 123.635V133.311H211.459C211.628 133.311 211.795 133.319 211.961 133.33V123.635C211.961 123.187 211.601 122.826 211.153 122.826L206.722 122.826ZM211.961 161.014C211.795 161.025 211.628 161.033 211.459 161.033H205.914V178.074C205.914 178.522 206.274 178.883 206.722 178.883H211.153C211.601 178.883 211.961 178.522 211.961 178.074V161.014Z" fill="#7093A6"/>
<path d="M211.941 19.9281C211.941 15.0737 210.595 11.1383 208.935 11.1383C207.274 11.1383 205.928 15.0737 205.928 19.9281V47.8958C205.928 52.7503 207.274 56.6857 208.935 56.6857C210.595 56.6857 211.941 52.7503 211.941 47.8958V19.9281Z" fill="#95AEBD"/>
</g>
<defs>
<clipPath id="clip0_2002_7952">
<rect width="301.645" height="301.645" fill="white" transform="translate(0.480469 0.762451)"/>
</clipPath>
</defs>
</svg>
