<svg width="351" height="351" viewBox="0 0 351 351" fill="none" xmlns="http://www.w3.org/2000/svg">
<circle cx="175.639" cy="175.591" r="173.197" stroke="black" stroke-width="3.60643"/>
<rect x="26.8599" y="51.7397" width="295.472" height="295.472" stroke="black" stroke-width="3.60643"/>
<path d="M148.313 133.02L148.32 132.982C148.779 130.562 144.19 128.429 138.069 128.219L126.923 126.918L114.648 126.031L103.456 125.41L92.1927 125.714C86.0716 125.503 80.6505 128.219 80.1911 130.639L80.1839 130.677C79.7244 133.097 80.9329 132.066 98.539 134.599L105.281 136.533C108.667 137.504 112.294 137.83 115.995 137.497L116.509 137.45L136.398 137.02C142.519 137.231 147.853 135.44 148.313 133.02Z" fill="#81584A"/>
<path d="M108.317 132.407C110.685 132.464 112.76 131.705 112.953 130.713C113.145 129.72 111.381 128.87 109.013 128.814L105.895 128.74C103.527 128.683 101.451 129.442 101.259 130.434C101.067 131.426 102.83 132.277 105.198 132.333L108.317 132.407Z" fill="#906253"/>
<path d="M97.5615 136.923C103.485 137.461 117.018 136.705 117.321 134.276C117.625 131.847 113.07 129.442 107.146 128.904L62.6708 124.865C56.7477 124.327 51.7 125.861 51.3963 128.29L51.3916 128.328C51.088 130.757 55.6434 133.162 61.5665 133.7L97.5615 136.923Z" fill="#81584A"/>
<path d="M69.4967 131.96L69.6193 130.345C69.8544 127.25 64.4724 124.233 57.5984 123.607L51.4915 123.05C44.6174 122.424 38.8544 124.426 38.6193 127.521L38.4967 129.137C38.2617 132.232 43.6436 135.249 50.5177 135.875L56.6246 136.431C63.4986 137.057 69.2617 135.055 69.4967 131.96Z" fill="#906253"/>
<path d="M97.8601 137.223C105.281 137.883 111.478 136.101 111.701 133.242C111.924 130.384 106.09 127.531 98.6691 126.872L88.1179 125.933C80.6972 125.274 74.5004 127.056 74.277 129.915C74.0536 132.773 79.8881 135.625 87.3088 136.285L97.8601 137.223Z" fill="#906253"/>
<path d="M100.762 136.864C102.12 136.976 103.255 136.676 103.296 136.192C103.338 135.709 102.27 135.226 100.912 135.114L91.9988 134.375C90.6408 134.263 89.5064 134.563 89.465 135.047C89.4236 135.53 90.4909 136.013 91.8489 136.125L100.762 136.864Z" fill="#9D6B5A"/>
<path d="M52.0862 131.703C56.4796 131.276 58.8383 128.845 57.3545 126.274C55.8708 123.703 51.1064 121.964 46.7131 122.392L34.7134 123.559C30.32 123.986 27.9613 126.416 29.445 128.988C30.9288 131.559 35.6931 133.297 40.0865 132.87L52.0862 131.703Z" fill="#906253"/>
<path d="M54.0061 136.875C57.0473 137.143 59.5972 136.289 59.7016 134.966C59.806 133.644 57.4253 132.355 54.3841 132.087L46.0777 131.354C43.0366 131.086 40.4866 131.94 40.3822 133.262C40.2778 134.585 42.6586 135.874 45.6997 136.142L54.0061 136.875Z" fill="#9D6B5A"/>
<path d="M202.165 133.298L202.156 133.262C201.58 130.964 206.007 128.954 212.043 128.773L222.989 127.573L235.072 126.768L246.098 126.212L257.24 126.535C263.277 126.353 268.77 128.947 269.346 131.246L269.355 131.281C269.93 133.58 260.689 134.339 251.788 135.856L249.095 136.617C247.314 137.12 245.45 137.438 243.527 137.566L239.181 137.856L214.138 137.132C208.101 137.313 202.741 135.597 202.165 133.298Z" fill="#81584A"/>
<path d="M241.755 132.833C239.434 132.873 237.36 132.144 237.122 131.204C236.884 130.265 238.573 129.47 240.894 129.43L243.95 129.377C246.271 129.337 248.346 130.067 248.584 131.006C248.821 131.946 247.133 132.74 244.812 132.78L241.755 132.833Z" fill="#906253"/>
<path d="M232.848 133.785L232.843 133.746C232.549 131.249 237.11 128.756 243.031 128.179L287.491 123.841C293.412 123.263 298.45 124.819 298.745 127.316L298.749 127.355C299.044 129.852 294.482 132.344 288.561 132.922L244.102 137.26C238.181 137.838 233.142 136.282 232.848 133.785Z" fill="#81584A"/>
<path d="M280.671 131.213L280.554 129.548C280.33 126.355 285.715 123.219 292.582 122.543L298.682 121.942C305.549 121.265 311.297 123.305 311.521 126.497L311.638 128.162C311.862 131.355 306.477 134.491 299.61 135.167L293.51 135.768C286.643 136.445 280.895 134.405 280.671 131.213Z" fill="#906253"/>
<path d="M252.282 136.696C244.867 137.408 238.683 135.599 238.47 132.654C238.257 129.709 244.095 126.745 251.51 126.032L262.053 125.02C269.468 124.307 275.652 126.117 275.865 129.062C276.078 132.006 270.24 134.971 262.825 135.683L252.282 136.696Z" fill="#906253"/>
<path d="M249.367 136.349C248.009 136.47 246.877 136.166 246.837 135.669C246.798 135.172 247.866 134.671 249.224 134.55L258.133 133.754C259.491 133.633 260.623 133.938 260.663 134.434C260.702 134.931 259.634 135.432 258.277 135.553L249.367 136.349Z" fill="#9D6B5A"/>
<path d="M298.064 130.924C293.672 130.503 291.32 127.987 292.811 125.304C294.301 122.622 299.07 120.789 303.462 121.21L315.457 122.36C319.849 122.782 322.201 125.298 320.71 127.98C319.22 130.663 314.451 132.496 310.059 132.075L298.064 130.924Z" fill="#906253"/>
<path d="M296.117 136.234C293.078 136.523 290.534 135.654 290.434 134.293C290.335 132.931 292.718 131.592 295.757 131.303L304.057 130.512C307.096 130.223 309.641 131.092 309.74 132.453C309.84 133.815 307.457 135.153 304.418 135.443L296.117 136.234Z" fill="#9D6B5A"/>
<path d="M163.898 346.435C166.659 346.435 168.897 343.195 168.897 339.199V312.278C168.897 310.544 169.151 308.819 169.652 307.158C170.152 305.498 170.407 303.773 170.407 302.039V297.476C170.407 295.969 170.299 294.465 170.084 292.974L169.863 291.444C169.648 289.953 169.54 288.448 169.54 286.942V274.874L169.38 273.302C169.106 270.601 166.832 268.547 164.117 268.547C161.196 268.547 158.828 270.915 158.828 273.837L158.827 303.064L158.828 320.909L157.732 339.199C157.732 343.195 159.971 346.435 162.732 346.435H163.898Z" fill="#906253"/>
<path d="M172.793 230.781V204.659C172.793 199.96 168.983 196.15 164.284 196.15C159.892 196.15 156.222 199.493 155.813 203.866L155.383 208.466L154.137 236.492V252.774L155.061 262.598C155.275 264.87 155.735 267.112 156.432 269.284L158.491 275.694C158.73 276.44 158.852 277.219 158.852 278.003V280.22C158.852 283.166 161.241 285.554 164.187 285.554C167.132 285.554 169.521 283.166 169.521 280.22V277.644C169.521 277.096 169.577 276.55 169.69 276.014L170.71 271.174L171.768 261.865L172.793 249.906V230.781Z" fill="#81584A"/>
<path d="M165.7 331.119H161.005C158.298 331.119 156.104 334.548 156.104 338.777C156.104 343.006 158.298 346.434 161.005 346.434H165.7C168.407 346.434 170.601 343.006 170.601 338.777C170.601 334.548 168.407 331.119 165.7 331.119Z" fill="#9D6B5A"/>
<path d="M168.978 338.047H157.727C156.83 338.047 156.104 339.182 156.104 340.583V343.899C156.104 345.3 156.83 346.435 157.727 346.435H168.978C169.874 346.435 170.601 345.3 170.601 343.899V340.583C170.601 339.182 169.874 338.047 168.978 338.047Z" fill="#9D6B5A"/>
<path d="M195.497 157.059C195.497 137.49 188.749 134.083 174.397 134.083C160.046 134.083 154.162 137.49 154.162 157.059L154.162 178.101L174.397 230.55L192.748 197.804L195.497 178.101V157.059Z" fill="#81584A"/>
<path d="M211.594 120.714H136.35C128.204 120.714 121.602 125.391 121.602 131.16C121.602 136.929 128.204 141.606 136.35 141.606H211.594C219.74 141.606 226.342 136.929 226.342 131.16C226.342 125.391 219.74 120.714 211.594 120.714Z" fill="#906253"/>
<path d="M177.243 158.351H172.898C162.536 158.351 154.137 167.69 154.137 179.21V194.281C154.137 205.801 162.536 215.14 172.898 215.14H177.243C187.605 215.14 196.005 205.801 196.005 194.281V179.21C196.005 167.69 187.605 158.351 177.243 158.351Z" fill="#906253"/>
<path d="M187.716 119.748H161.584C154.842 119.748 149.377 126.423 149.377 134.656V143.641C149.377 151.875 154.842 158.55 161.584 158.55H187.716C194.458 158.55 199.923 151.875 199.923 143.641V134.656C199.923 126.423 194.458 119.748 187.716 119.748Z" fill="#906253"/>
<path d="M190.033 119.748H159.449C153.986 119.748 149.557 126.423 149.557 134.656V143.641C149.557 151.875 153.986 158.55 159.449 158.55H190.033C195.496 158.55 199.925 151.875 199.925 143.641V134.656C199.925 126.423 195.496 119.748 190.033 119.748Z" fill="#9D6B5A"/>
<path d="M177.206 154.005C177.206 152.741 176.002 151.717 174.515 151.717C173.029 151.717 171.824 152.741 171.824 154.005V158.443C171.824 159.707 173.029 160.731 174.515 160.731C176.002 160.731 177.206 159.707 177.206 158.443V154.005Z" fill="#81584A"/>
<path d="M189.468 141.606H183.287C181.511 141.606 180.072 143.543 180.072 145.931C180.072 148.32 181.511 150.256 183.287 150.256H189.468C191.243 150.256 192.682 148.32 192.682 145.931C192.682 143.543 191.243 141.606 189.468 141.606Z" fill="#AC7967"/>
<path d="M167.652 141.606H161.47C159.695 141.606 158.256 143.543 158.256 145.931C158.256 148.32 159.695 150.256 161.47 150.256H167.652C169.427 150.256 170.866 148.32 170.866 145.931C170.866 143.543 169.427 141.606 167.652 141.606Z" fill="#AC7967"/>
<path d="M185.047 103.661C185.047 93.6518 180.385 85.5381 174.634 85.5381C168.883 85.5381 164.221 93.6518 164.221 103.661V111.095C164.221 121.104 168.883 129.218 174.634 129.218C180.385 129.218 185.047 121.104 185.047 111.095V103.661Z" fill="#9D6B5A"/>
<path d="M157.286 150.887H154.847C153.875 150.887 153.086 151.866 153.086 153.074C153.086 154.282 153.875 155.261 154.847 155.261H157.286C158.259 155.261 159.047 154.282 159.047 153.074C159.047 151.866 158.259 150.887 157.286 150.887Z" fill="#81584A"/>
<path d="M177.156 85.5381H171.285C164.547 85.5381 159.084 91.0008 159.084 97.7394V102.745C159.084 109.484 164.547 114.946 171.285 114.946H177.156C183.894 114.946 189.357 109.484 189.357 102.745V97.7394C189.357 91.0008 183.894 85.5381 177.156 85.5381Z" fill="#81584A"/>
<path d="M215.092 123.277H212.765C206.552 123.277 201.516 126.245 201.516 129.905C201.516 133.566 206.552 136.533 212.765 136.533H215.092C221.305 136.533 226.342 133.566 226.342 129.905C226.342 126.245 221.305 123.277 215.092 123.277Z" fill="#9D6B5A"/>
<path d="M135.731 122.728H132.451C130.639 122.728 129.17 123.96 129.17 125.48C129.17 127 130.639 128.232 132.451 128.232H135.731C137.543 128.232 139.012 127 139.012 125.48C139.012 123.96 137.543 122.728 135.731 122.728Z" fill="#AC7967"/>
<path d="M219.324 122.943H215.833C213.905 122.943 212.342 124.176 212.342 125.696C212.342 127.216 213.905 128.448 215.833 128.448H219.324C221.252 128.448 222.815 127.216 222.815 125.696C222.815 124.176 221.252 122.943 219.324 122.943Z" fill="#AC7967"/>
<path d="M185.9 346.025C182.95 346.025 180.559 342.717 180.559 338.636V310.645C180.559 308.979 180.286 307.325 179.752 305.747C179.218 304.169 178.946 302.514 178.946 300.848V296.09C178.946 294.515 179.064 292.942 179.299 291.384L179.519 289.928C179.754 288.371 179.872 286.798 179.872 285.222V272.957L180.02 271.561C180.327 268.681 182.756 266.496 185.653 266.496C188.78 266.496 191.316 269.032 191.316 272.16L191.316 301.741L191.316 319.961L192.486 338.636C192.486 342.717 190.095 346.025 187.145 346.025H185.9Z" fill="#906253"/>
<path d="M176.398 230.454V205.272C176.398 200.234 180.481 196.15 185.519 196.15C190.202 196.15 194.124 199.697 194.594 204.356L194.997 208.349L196.328 236.11V252.239L195.368 261.696C195.121 264.127 194.593 266.521 193.793 268.831L191.698 274.88C191.428 275.659 191.29 276.479 191.29 277.304V279.01C191.29 282.158 188.739 284.709 185.592 284.709C182.444 284.709 179.893 282.158 179.893 279.01V276.93C179.893 276.35 179.828 275.772 179.7 275.207L178.622 270.465L177.493 261.243L176.398 249.398V230.454Z" fill="#81584A"/>
<path d="M184.529 330.763H189.545C192.437 330.763 194.781 334.179 194.781 338.394C194.781 342.608 192.437 346.024 189.545 346.024H184.529C181.637 346.024 179.293 342.608 179.293 338.394C179.293 334.179 181.637 330.763 184.529 330.763Z" fill="#9D6B5A"/>
<path d="M181.027 333.905H193.047C194.005 333.905 194.781 335.546 194.781 337.569V342.361C194.781 344.385 194.005 346.025 193.047 346.025H181.027C180.069 346.025 179.293 344.385 179.293 342.361V337.569C179.293 335.546 180.069 333.905 181.027 333.905Z" fill="#9D6B5A"/>
<path d="M191.688 74.1025H156.781C152.79 74.1025 149.555 78.1415 149.555 83.1238C149.555 88.1061 152.79 92.1451 156.781 92.1451H191.688C195.679 92.1451 198.915 88.1061 198.915 83.1238C198.915 78.1415 195.679 74.1025 191.688 74.1025Z" fill="#9D6B5A"/>
<path d="M193.126 76.3975H156.174C152.977 76.3975 150.385 79.4096 150.385 83.1252C150.385 86.8408 152.977 89.8529 156.174 89.8529H193.126C196.323 89.8529 198.915 86.8408 198.915 83.1252C198.915 79.4096 196.323 76.3975 193.126 76.3975Z" fill="#81584A"/>
<path d="M180.895 48.7471H171.272C163.298 48.7471 156.834 57.228 156.834 67.6897V90.1374C156.834 100.599 163.298 109.08 171.272 109.08H180.895C188.869 109.08 195.333 100.599 195.333 90.1374V67.6897C195.333 57.228 188.869 48.7471 180.895 48.7471Z" fill="#9D6B5A"/>
<path d="M181.358 106.59H170.721C169.571 106.59 168.639 107.624 168.639 108.9C168.639 110.176 169.571 111.21 170.721 111.21H181.358C182.508 111.21 183.441 110.176 183.441 108.9C183.441 107.624 182.508 106.59 181.358 106.59Z" fill="#9D6B5A"/>
<path d="M170.652 169.358H165.827C163.526 169.358 161.66 171.034 161.66 173.101C161.66 175.168 163.526 176.843 165.827 176.843H170.652C172.954 176.843 174.819 175.168 174.819 173.101C174.819 171.034 172.954 169.358 170.652 169.358Z" fill="#9D6B5A"/>
<path d="M170.652 178.183H165.827C163.526 178.183 161.66 179.858 161.66 181.925C161.66 183.992 163.526 185.667 165.827 185.667H170.652C172.954 185.667 174.819 183.992 174.819 181.925C174.819 179.858 172.954 178.183 170.652 178.183Z" fill="#9D6B5A"/>
<path d="M170.652 187.007H165.827C163.526 187.007 161.66 188.682 161.66 190.749C161.66 192.816 163.526 194.492 165.827 194.492H170.652C172.954 194.492 174.819 192.816 174.819 190.749C174.819 188.682 172.954 187.007 170.652 187.007Z" fill="#9D6B5A"/>
<path d="M185.391 169.358H180.566C178.264 169.358 176.398 171.034 176.398 173.101C176.398 175.168 178.264 176.843 180.566 176.843H185.391C187.692 176.843 189.558 175.168 189.558 173.101C189.558 171.034 187.692 169.358 185.391 169.358Z" fill="#9D6B5A"/>
<path d="M185.391 178.183H180.566C178.264 178.183 176.398 179.858 176.398 181.925C176.398 183.992 178.264 185.667 180.566 185.667H185.391C187.692 185.667 189.558 183.992 189.558 181.925C189.558 179.858 187.692 178.183 185.391 178.183Z" fill="#9D6B5A"/>
<path d="M185.391 187.007H180.566C178.264 187.007 176.398 188.682 176.398 190.749C176.398 192.816 178.264 194.492 180.566 194.492H185.391C187.692 194.492 189.558 192.816 189.558 190.749C189.558 188.682 187.692 187.007 185.391 187.007Z" fill="#9D6B5A"/>
<path d="M168.818 124.739L160.555 120.767C159.636 120.325 158.532 120.712 158.09 121.632C157.648 122.551 158.035 123.655 158.955 124.097L167.217 128.068C168.137 128.51 169.24 128.123 169.682 127.204C170.124 126.284 169.737 125.181 168.818 124.739Z" fill="#81584A"/>
<path d="M178.659 124.739L186.921 120.767C187.841 120.325 188.944 120.712 189.386 121.632C189.828 122.551 189.441 123.655 188.522 124.097L180.259 128.068C179.34 128.51 178.236 128.123 177.794 127.204C177.352 126.284 177.739 125.181 178.659 124.739Z" fill="#81584A"/>
<path d="M158.028 199.652C156.937 199.652 155.885 199.897 154.889 200.344C156.055 218.143 164.844 231.894 175.587 231.894C186.469 231.894 195.347 217.786 196.327 199.652C196.326 199.652 196.325 199.652 196.324 199.652H158.028Z" fill="#4F4F4F"/>
<path d="M194.834 197.688H156.408C155.569 197.688 154.889 198.767 154.889 200.099V203.832C154.889 205.164 155.569 206.244 156.408 206.244H194.834C195.673 206.244 196.353 205.164 196.353 203.832V200.099C196.353 198.767 195.673 197.688 194.834 197.688Z" fill="#5B5B5B"/>
<path d="M195.497 157.059C195.497 137.49 188.749 134.083 174.397 134.083C160.046 134.083 154.162 137.49 154.162 157.059L154.162 178.101L174.397 230.55L192.748 197.804L195.497 178.101V157.059Z" fill="#81584A"/>
<path d="M211.593 120.715H136.348C128.203 120.715 121.6 125.392 121.6 131.161C121.6 136.93 128.203 141.607 136.348 141.607H211.593C219.738 141.607 226.341 136.93 226.341 131.161C226.341 125.392 219.738 120.715 211.593 120.715Z" fill="#906253"/>
<path d="M206.187 120.984H208.374C214.212 120.984 218.945 124.955 218.945 129.853C218.945 134.751 214.212 138.721 208.374 138.721H206.187C200.349 138.721 195.616 134.751 195.616 129.853C195.616 124.955 200.349 120.984 206.187 120.984Z" fill="#9D6B5A"/>
<path d="M211.314 123.964H214.594C216.406 123.964 217.875 125.196 217.875 126.716C217.875 128.236 216.406 129.468 214.594 129.468H211.314C209.502 129.468 208.033 128.236 208.033 126.716C208.033 125.196 209.502 123.964 211.314 123.964Z" fill="#AC7967"/>
<path d="M199.923 139.764C199.923 128.185 188.648 118.798 174.739 118.798C160.83 118.798 149.555 128.185 149.555 139.764C149.555 151.344 160.83 160.731 174.739 160.731C188.648 160.731 199.923 151.344 199.923 139.764Z" fill="#81584A"/>
<path d="M177.241 158.351H172.896C162.535 158.351 154.135 167.69 154.135 179.21V194.281C154.135 205.801 162.535 215.14 172.896 215.14H177.241C187.603 215.14 196.003 205.801 196.003 194.281V179.21C196.003 167.69 187.603 158.351 177.241 158.351Z" fill="#906253"/>
<path d="M170.779 169.361H165.954C163.653 169.361 161.787 171.037 161.787 173.104C161.787 175.171 163.653 176.846 165.954 176.846H170.779C173.081 176.846 174.946 175.171 174.946 173.104C174.946 171.037 173.081 169.361 170.779 169.361Z" fill="#9D6B5A"/>
<path d="M170.779 178.186H165.954C163.653 178.186 161.787 179.861 161.787 181.928C161.787 183.995 163.653 185.67 165.954 185.67H170.779C173.081 185.67 174.946 183.995 174.946 181.928C174.946 179.861 173.081 178.186 170.779 178.186Z" fill="#9D6B5A"/>
<path d="M185.518 169.361H180.693C178.391 169.361 176.525 171.037 176.525 173.104C176.525 175.171 178.391 176.846 180.693 176.846H185.518C187.819 176.846 189.685 175.171 189.685 173.104C189.685 171.037 187.819 169.361 185.518 169.361Z" fill="#9D6B5A"/>
<path d="M185.518 178.186H180.693C178.391 178.186 176.525 179.861 176.525 181.928C176.525 183.995 178.391 185.67 180.693 185.67H185.518C187.819 185.67 189.685 183.995 189.685 181.928C189.685 179.861 187.819 178.186 185.518 178.186Z" fill="#9D6B5A"/>
<path d="M187.942 119.748H162.293C155.675 119.748 150.311 126.423 150.311 134.656V143.641C150.311 151.875 155.675 158.55 162.293 158.55H187.942C194.56 158.55 199.924 151.875 199.924 143.641V134.656C199.924 126.423 194.56 119.748 187.942 119.748Z" fill="#906253"/>
<path d="M192.432 119.748H157.341C151.073 119.748 149.377 126.423 149.377 134.656C149.377 142.89 151.073 158.55 157.341 158.55H192.432C198.7 158.55 199.923 146.587 199.923 134.656C199.923 134.656 198.7 119.748 192.432 119.748Z" fill="#9D6B5A"/>
<path d="M178.034 151.517C178.034 150.253 176.83 149.229 175.343 149.229C173.857 149.229 172.652 150.253 172.652 151.517V155.955C172.652 157.218 173.857 158.243 175.343 158.243C176.83 158.243 178.034 157.218 178.034 155.955V151.517Z" fill="#81584A"/>
<path d="M189.468 141.607H183.287C181.511 141.607 180.072 142.972 180.072 144.656C180.072 146.34 181.511 147.705 183.287 147.705H189.468C191.243 147.705 192.682 146.34 192.682 144.656C192.682 142.972 191.243 141.607 189.468 141.607Z" fill="#AC7967"/>
<path d="M167.65 141.607H161.468C159.693 141.607 158.254 142.972 158.254 144.656C158.254 146.34 159.693 147.705 161.468 147.705H167.65C169.425 147.705 170.864 146.34 170.864 144.656C170.864 142.972 169.425 141.607 167.65 141.607Z" fill="#AC7967"/>
<path d="M185.576 103.661C185.576 93.6518 180.676 85.5381 174.632 85.5381C168.587 85.5381 163.688 93.6518 163.688 103.661V111.095C163.688 121.104 168.587 129.218 174.632 129.218C180.676 129.218 185.576 121.104 185.576 111.095V103.661Z" fill="#9D6B5A"/>
<path d="M158.595 150.887H156.443C155.585 150.887 154.889 151.866 154.889 153.074C154.889 154.282 155.585 155.261 156.443 155.261H158.595C159.454 155.261 160.15 154.282 160.15 153.074C160.15 151.866 159.454 150.887 158.595 150.887Z" fill="#81584A"/>
<path d="M193.779 150.887H191.627C190.768 150.887 190.072 151.866 190.072 153.074C190.072 154.282 190.768 155.261 191.627 155.261H193.779C194.638 155.261 195.333 154.282 195.333 153.074C195.333 151.866 194.638 150.887 193.779 150.887Z" fill="#81584A"/>
<path d="M177.154 85.5381H171.283C164.545 85.5381 159.082 91.0008 159.082 97.7394V102.745C159.082 109.484 164.545 114.946 171.283 114.946H177.154C183.893 114.946 189.355 109.484 189.355 102.745V97.7394C189.355 91.0008 183.893 85.5381 177.154 85.5381Z" fill="#81584A"/>
<path d="M144.172 121.406H141.985C136.147 121.406 131.414 125.377 131.414 130.275C131.414 135.172 136.147 139.143 141.985 139.143H144.172C150.011 139.143 154.743 135.172 154.743 130.275C154.743 125.377 150.011 121.406 144.172 121.406Z" fill="#9D6B5A"/>
<path d="M139.876 124.387H136.595C134.783 124.387 133.314 125.619 133.314 127.139C133.314 128.659 134.783 129.891 136.595 129.891H139.876C141.688 129.891 143.157 128.659 143.157 127.139C143.157 125.619 141.688 124.387 139.876 124.387Z" fill="#AC7967"/>
<path d="M190.634 74.1025H157.288C153.475 74.1025 150.385 78.1415 150.385 83.1238C150.385 88.1061 153.475 92.1451 157.288 92.1451H190.634C194.446 92.1451 197.537 88.1061 197.537 83.1238C197.537 78.1415 194.446 74.1025 190.634 74.1025Z" fill="#9D6B5A"/>
<path d="M190.969 76.3975H156.839C153.886 76.3975 151.492 79.4096 151.492 83.1252C151.492 86.8408 153.886 89.8529 156.839 89.8529H190.969C193.922 89.8529 196.316 86.8408 196.316 83.1252C196.316 79.4096 193.922 76.3975 190.969 76.3975Z" fill="#81584A"/>
<path d="M178.294 48.7471H168.168C159.778 48.7471 152.977 57.228 152.977 67.6897V90.1374C152.977 100.599 159.778 109.08 168.168 109.08H178.294C186.684 109.08 193.486 100.599 193.486 90.1374V67.6897C193.486 57.228 186.684 48.7471 178.294 48.7471Z" fill="#9D6B5A"/>
<path d="M180.503 106.59H168.705C167.429 106.59 166.395 107.624 166.395 108.9C166.395 110.176 167.429 111.21 168.705 111.21H180.503C181.779 111.21 182.813 110.176 182.813 108.9C182.813 107.624 181.779 106.59 180.503 106.59Z" fill="#9D6B5A"/>
<path d="M170.991 127.227L164.987 123.255C164.319 122.813 163.517 123.2 163.196 124.12C162.875 125.039 163.156 126.143 163.824 126.585L169.828 130.557C170.496 130.999 171.298 130.612 171.62 129.692C171.941 128.773 171.66 127.669 170.991 127.227Z" fill="#81584A"/>
<path d="M178.141 127.227L184.146 123.255C184.814 122.813 185.616 123.2 185.937 124.12C186.258 125.039 185.977 126.143 185.309 126.585L179.305 130.557C178.636 130.999 177.834 130.612 177.513 129.692C177.192 128.773 177.473 127.669 178.141 127.227Z" fill="#81584A"/>
<path d="M158.028 199.652C156.937 199.652 155.885 199.897 154.889 200.344C156.055 218.143 164.844 231.894 175.587 231.894C186.469 231.894 195.347 217.786 196.327 199.652C196.326 199.652 196.325 199.652 196.324 199.652H158.028Z" fill="#4F4F4F"/>
<path d="M194.834 197.688H156.408C155.569 197.688 154.889 198.768 154.889 200.1V203.833C154.889 205.165 155.569 206.245 156.408 206.245H194.834C195.673 206.245 196.353 205.165 196.353 203.833V200.1C196.353 198.768 195.673 197.688 194.834 197.688Z" fill="#5B5B5B"/>
<path d="M175.284 104.418H172.811C172.613 104.418 172.453 104.65 172.453 104.937V105.242C172.453 105.529 172.613 105.761 172.811 105.761H175.284C175.481 105.761 175.642 105.529 175.642 105.242V104.937C175.642 104.65 175.481 104.418 175.284 104.418Z" fill="#81584A"/>
<path d="M177.157 81.7531C177.157 79.6129 175.959 77.8779 174.483 77.8779C173.006 77.8779 171.809 79.6129 171.809 81.7531V88.5917C171.809 90.732 173.006 92.467 174.483 92.467C175.959 92.467 177.157 90.732 177.157 88.5917V81.7531Z" fill="#81584A"/>
<path d="M167.943 77.9448C167.943 76.6053 167.193 75.5195 166.269 75.5195C165.345 75.5195 164.596 76.6053 164.596 77.9448V78.9148C164.596 80.2543 165.345 81.3401 166.269 81.3401C167.193 81.3401 167.943 80.2543 167.943 78.9148V77.9448Z" fill="#61534B"/>
<path d="M184.173 77.9448C184.173 76.6053 183.424 75.5195 182.5 75.5195C181.575 75.5195 180.826 76.6053 180.826 77.9448V78.9148C180.826 80.2543 181.575 81.3401 182.5 81.3401C183.424 81.3401 184.173 80.2543 184.173 78.9148V77.9448Z" fill="#61534B"/>
<path d="M177.481 101.722C179.944 101.722 181.927 98.6528 181.927 94.8394V93.7256H166.955V94.8394C166.955 98.6528 168.938 101.722 171.401 101.722H177.481Z" fill="white"/>
<path d="M174.125 89.5418L171.638 86.4795C171.228 85.9736 170.612 86.0462 170.262 86.6416C169.913 87.237 169.963 88.1298 170.374 88.6357L172.861 91.6979C173.272 92.2039 173.888 92.1313 174.237 91.5359C174.586 90.9405 174.536 90.0477 174.125 89.5418Z" fill="#81584A"/>
<path d="M174.84 89.5418L177.326 86.4795C177.737 85.9736 178.353 86.0461 178.702 86.6416C179.052 87.237 179.001 88.1298 178.591 88.6357L176.104 91.6979C175.693 92.2038 175.077 92.1313 174.728 91.5359C174.379 90.9405 174.429 90.0477 174.84 89.5418Z" fill="#81584A"/>
<path d="M176.031 87.5742C176.031 86.5473 175.456 85.7148 174.748 85.7148C174.039 85.7148 173.465 86.5473 173.465 87.5742V89.2718C173.465 90.2987 174.039 91.1312 174.748 91.1312C175.456 91.1312 176.031 90.2987 176.031 89.2718V87.5742Z" fill="#906253"/>
<path d="M168.992 75.6559L163.665 73.5746C163.087 73.3489 162.56 73.6565 162.487 74.2615C162.414 74.8665 162.824 75.5399 163.401 75.7656L168.728 77.8469C169.306 78.0725 169.833 77.765 169.906 77.1599C169.978 76.5549 169.569 75.8815 168.992 75.6559Z" fill="#4D4D4D"/>
<path d="M163.748 75.2379C163.794 74.7905 163.529 74.2934 163.155 74.1275C162.782 73.9616 162.441 74.1898 162.394 74.6371L162.2 76.4923C162.154 76.9396 162.419 77.4368 162.793 77.6026C163.167 77.7685 163.507 77.5404 163.554 77.093L163.748 75.2379Z" fill="#4D4D4D"/>
<path d="M179.653 75.6525L184.98 73.5724C185.557 73.3469 186.084 73.6545 186.157 74.2595C186.23 74.8645 185.821 75.5378 185.243 75.7633L179.916 77.8434C179.339 78.0689 178.811 77.7613 178.739 77.1563C178.666 76.5513 179.075 75.878 179.653 75.6525Z" fill="#4D4D4D"/>
<path d="M184.895 75.2369C184.848 74.7895 185.113 74.2924 185.487 74.1265C185.861 73.9607 186.202 74.1888 186.249 74.6362L186.442 76.4913C186.489 76.9386 186.224 77.4358 185.85 77.6017C185.476 77.7676 185.135 77.5394 185.088 77.092L184.895 75.2369Z" fill="#4D4D4D"/>
<path d="M172.763 74.6877C172.763 74.0878 172.427 73.6016 172.013 73.6016C171.599 73.6016 171.264 74.0878 171.264 74.6877V76.0024C171.264 76.6022 171.599 77.0885 172.013 77.0885C172.427 77.0885 172.763 76.6022 172.763 76.0024V74.6877Z" fill="#81584A"/>
<path d="M177.733 74.6877C177.733 74.0878 177.398 73.6016 176.984 73.6016C176.57 73.6016 176.234 74.0878 176.234 74.6877V76.0024C176.234 76.6022 176.57 77.0885 176.984 77.0885C177.398 77.0885 177.733 76.6022 177.733 76.0024V74.6877Z" fill="#81584A"/>
<path d="M176.031 87.5703C176.031 86.5434 175.456 85.7109 174.748 85.7109C174.039 85.7109 173.465 86.5434 173.465 87.5703V89.2679C173.465 90.2948 174.039 91.1273 174.748 91.1273C175.456 91.1273 176.031 90.2948 176.031 89.2679V87.5703Z" fill="#906253"/>
<path d="M168.821 75.196L163.488 74.1489C162.91 74.0354 162.456 74.3891 162.474 74.9388C162.492 75.4886 162.975 76.0264 163.553 76.1399L168.886 77.187C169.465 77.3005 169.919 76.9468 169.901 76.3971C169.883 75.8473 169.399 75.3095 168.821 75.196Z" fill="#4D4D4D"/>
<path d="M163.619 75.7811C163.607 75.3257 163.322 74.8828 162.981 74.7917C162.64 74.7007 162.373 74.9961 162.384 75.4515L162.432 77.3399C162.444 77.7953 162.73 78.2383 163.071 78.3293C163.411 78.4203 163.678 78.1249 163.667 77.6695L163.619 75.7811Z" fill="#4D4D4D"/>
<path d="M179.963 74.7975L185.168 74.1194C185.732 74.0459 186.139 74.5217 186.077 75.1822C186.015 75.8426 185.508 76.4376 184.943 76.5111L179.739 77.1892C179.175 77.2627 178.767 76.7869 178.829 76.1264C178.891 75.466 179.399 74.871 179.963 74.7975Z" fill="#4D4D4D"/>
<path d="M185.107 75.9712C185.14 75.4997 185.4 75.0756 185.689 75.024C185.978 74.9725 186.187 75.3129 186.155 75.7844L186.021 77.7398C185.989 78.2113 185.729 78.6353 185.439 78.6869C185.15 78.7385 184.942 78.398 184.974 77.9265L185.107 75.9712Z" fill="#4D4D4D"/>
<path d="M195.47 71.124C195.395 71.1162 195.319 71.116 195.243 71.1249C195.155 71.135 195.066 71.1567 194.978 71.1902L194.798 71.2588C194.214 71.4816 193.848 72.1659 193.862 72.9028C193.805 72.7998 193.737 72.7099 193.665 72.6267V74.91C196.194 76.2413 197.964 79.4014 197.964 83.1067C197.964 86.8318 196.175 90.0048 193.624 91.3236C193.552 92.654 193.367 93.943 193.087 95.1806V96.4573C193.022 96.3258 192.945 96.2056 192.86 96.0959C191.588 100.795 188.886 104.631 185.405 106.772V109.636C185.405 110.789 186.136 111.716 187.043 111.716H187.798C188.705 111.716 189.435 110.789 189.435 109.636V109.077C189.681 109.829 190.263 110.356 190.947 110.356H191.702C192.609 110.356 193.339 109.428 193.339 108.276V107.618C193.628 108.204 194.137 108.596 194.724 108.596C195.631 108.596 196.362 107.669 196.362 106.517V94.8342L196.698 96.2574C196.909 97.1486 197.644 97.6512 198.345 97.3835C199.047 97.1158 199.442 96.1823 199.231 95.291L197.435 87.6958C197.766 88.1683 198.291 88.384 198.801 88.1895L198.982 88.12C199.684 87.8523 200.079 86.9196 199.868 86.0283L196.626 72.3155C196.464 71.6331 195.996 71.1793 195.47 71.1241V71.124ZM152.907 71.237C152.382 71.2923 151.913 71.746 151.752 72.4284L148.51 86.1413C148.299 87.0325 148.694 87.9652 149.396 88.2329L149.577 88.3024C150.087 88.4969 150.612 88.2813 150.943 87.8087L149.147 95.404C148.936 96.2952 149.331 97.2287 150.032 97.4965C150.734 97.7642 151.469 97.2624 151.68 96.3711L151.747 96.0842V106.517C151.747 107.669 152.477 108.596 153.384 108.596C153.971 108.596 154.481 108.204 154.77 107.618V108.276C154.77 109.428 155.499 110.356 156.406 110.356H157.162C157.845 110.356 158.427 109.83 158.673 109.079V109.636C158.673 110.789 159.403 111.716 160.31 111.716H161.066C161.973 111.716 162.703 110.789 162.703 109.636V106.696C159.254 104.524 156.586 100.681 155.341 95.988C155.217 96.1241 155.108 96.2803 155.021 96.4573V94.6125C154.81 93.5497 154.667 92.4515 154.605 91.3236C152.054 90.0048 150.265 86.8318 150.265 83.1067C150.265 79.4014 152.035 76.2412 154.564 74.9099V72.9413C154.548 72.9665 154.531 72.9892 154.516 73.0157C154.529 72.2792 154.163 71.5944 153.58 71.3717L153.399 71.3031C153.311 71.2696 153.223 71.248 153.135 71.2378C153.058 71.229 152.982 71.2291 152.907 71.237V71.237Z" fill="#4D4D4D"/>
<path d="M158.505 56.5898C155.676 59.9322 153.904 64.7625 153.904 70.1521V91.8326C153.904 101.968 160.169 110.128 167.95 110.128H180.278C188.06 110.128 194.324 101.968 194.324 91.8326V70.1521C194.324 64.7625 192.553 59.9322 189.724 56.5898C191.879 59.8496 193.183 64.0955 193.183 68.7549V90.8302C193.183 101.15 186.804 109.459 178.881 109.459H169.348C161.425 109.459 155.046 101.15 155.046 90.8302V68.7549C155.046 64.0955 156.349 59.8496 158.505 56.5898Z" fill="#565656"/>
<path d="M166.757 109.918C166.757 108.95 166.154 108.165 165.411 108.165C164.667 108.165 164.064 108.95 164.064 109.918V111.955C164.064 112.923 164.667 113.708 165.411 113.708C166.154 113.708 166.757 112.923 166.757 111.955V109.918Z" fill="#565656"/>
<path d="M169.276 111.516C169.276 110.548 168.674 109.763 167.93 109.763C167.187 109.763 166.584 110.548 166.584 111.516V113.552C166.584 114.521 167.187 115.306 167.93 115.306C168.674 115.306 169.276 114.521 169.276 113.552V111.516Z" fill="#565656"/>
<path d="M171.765 112.398C171.765 111.43 171.162 110.645 170.418 110.645C169.675 110.645 169.072 111.43 169.072 112.398V114.434C169.072 115.402 169.675 116.187 170.418 116.187C171.162 116.187 171.765 115.402 171.765 114.434V112.398Z" fill="#565656"/>
<path d="M174.22 112.597C174.22 111.629 173.617 110.844 172.873 110.844C172.13 110.844 171.527 111.629 171.527 112.597V114.633C171.527 115.602 172.13 116.387 172.873 116.387C173.617 116.387 174.22 115.602 174.22 114.633V112.597Z" fill="#565656"/>
<path d="M164.493 106.403C164.493 105.248 163.773 104.311 162.886 104.311C161.999 104.311 161.279 105.248 161.279 106.403V108.834C161.279 109.989 161.999 110.926 162.886 110.926C163.773 110.926 164.493 109.989 164.493 108.834V106.403Z" fill="#565656"/>
<path d="M161.713 104.256C161.713 103.1 160.994 102.163 160.107 102.163C159.219 102.163 158.5 103.1 158.5 104.256V106.686C158.5 107.842 159.219 108.779 160.107 108.779C160.994 108.779 161.713 107.842 161.713 106.686V104.256Z" fill="#565656"/>
<path d="M159.37 101.653C159.37 100.498 158.65 99.5605 157.763 99.5605C156.876 99.5605 156.156 100.498 156.156 101.653V104.084C156.156 105.239 156.876 106.176 157.763 106.176C158.65 106.176 159.37 105.239 159.37 104.084V101.653Z" fill="#565656"/>
<path d="M181.48 109.918C181.48 108.95 182.082 108.165 182.826 108.165C183.569 108.165 184.172 108.95 184.172 109.918V111.955C184.172 112.923 183.569 113.708 182.826 113.708C182.082 113.708 181.48 112.923 181.48 111.955V109.918Z" fill="#565656"/>
<path d="M178.96 111.516C178.96 110.548 179.563 109.763 180.306 109.763C181.05 109.763 181.652 110.548 181.652 111.516V113.552C181.652 114.521 181.05 115.306 180.306 115.306C179.563 115.306 178.96 114.521 178.96 113.552V111.516Z" fill="#565656"/>
<path d="M176.472 112.398C176.472 111.43 177.074 110.645 177.818 110.645C178.561 110.645 179.164 111.43 179.164 112.398V114.434C179.164 115.402 178.561 116.187 177.818 116.187C177.074 116.187 176.472 115.402 176.472 114.434V112.398Z" fill="#565656"/>
<path d="M174.017 112.597C174.017 111.629 174.619 110.844 175.363 110.844C176.106 110.844 176.709 111.629 176.709 112.597V114.633C176.709 115.602 176.106 116.387 175.363 116.387C174.619 116.387 174.017 115.602 174.017 114.633V112.597Z" fill="#565656"/>
<path d="M183.744 106.403C183.744 105.248 184.463 104.311 185.35 104.311C186.238 104.311 186.957 105.248 186.957 106.403V108.834C186.957 109.989 186.238 110.926 185.35 110.926C184.463 110.926 183.744 109.989 183.744 108.834V106.403Z" fill="#565656"/>
<path d="M186.523 104.257C186.523 103.101 187.242 102.164 188.13 102.164C189.017 102.164 189.736 103.101 189.736 104.257V106.687C189.736 107.843 189.017 108.78 188.13 108.78C187.242 108.78 186.523 107.843 186.523 106.687V104.257Z" fill="#565656"/>
<path d="M188.867 101.653C188.867 100.498 189.586 99.5605 190.473 99.5605C191.361 99.5605 192.08 100.498 192.08 101.653V104.084C192.08 105.239 191.361 106.176 190.473 106.176C189.586 106.176 188.867 105.239 188.867 104.084V101.653Z" fill="#565656"/>
<path d="M168.031 89.2842C164.89 89.2842 162.361 92.5779 162.361 96.6694V105.309C162.361 109.4 164.89 112.694 168.031 112.694H180.197C183.338 112.694 185.867 109.4 185.867 105.309V96.6694C185.867 92.5779 183.338 89.2842 180.197 89.2842H179.007C179.049 89.7342 178.922 90.2014 178.636 90.5183L178.155 91.0504C178.44 91.3989 178.652 91.8483 178.744 92.3631H180.394C182.151 92.3631 183.564 94.2042 183.564 96.492V100.207C183.564 101.075 183.361 101.878 183.012 102.541V103.56C183.012 106.826 180.993 109.455 178.486 109.455H169.742C167.235 109.455 165.217 106.826 165.217 103.56V102.541C164.868 101.878 164.664 101.075 164.664 100.207V96.492C164.664 94.2042 166.078 92.3631 167.834 92.3631H168.872C168.996 91.6703 169.331 91.0895 169.782 90.7283L169.593 90.5183C169.307 90.2014 169.18 89.7342 169.222 89.2842H168.031Z" fill="#565656"/>
<path d="M165.368 48.2734C157.962 48.2734 152 55.8472 152 65.2552C152 65.697 152.018 66.1331 152.043 66.5662C152.018 66.7878 152 67.013 152 67.2439V77.647C152 79.8794 153.243 81.729 154.9 82.1474V68.5717C154.9 58.8536 161.059 51.0294 168.709 51.0294H179.512C187.162 51.0294 193.321 58.8536 193.321 68.5717V82.1658C195.026 81.7954 196.317 79.9219 196.317 77.647V67.2439C196.317 67.013 196.299 66.7878 196.274 66.5662C196.299 66.133 196.317 65.697 196.317 65.2552C196.317 55.8472 190.355 48.2734 182.95 48.2734H165.368Z" fill="#4D4D4D"/>
<path d="M180.535 46.1318H168.492C164.435 46.1318 161.146 50.3101 161.146 55.4642C161.146 60.6183 164.435 64.7966 168.492 64.7966H180.535C184.592 64.7966 187.881 60.6183 187.881 55.4642C187.881 50.3101 184.592 46.1318 180.535 46.1318Z" fill="#4D4D4D"/>
<path d="M165.245 52.0609C165.245 50.6034 164.314 49.4219 163.167 49.4219C162.02 49.4219 161.09 50.6034 161.09 52.0609V58.1805C161.09 59.638 162.02 60.8196 163.167 60.8196C164.314 60.8196 165.245 59.638 165.245 58.1805V52.0609Z" fill="#4D4D4D"/>
<path d="M188.848 52.2904C188.848 50.8329 187.918 49.6514 186.771 49.6514C185.623 49.6514 184.693 50.8329 184.693 52.2904V58.41C184.693 59.8675 185.623 61.0491 186.771 61.0491C187.918 61.0491 188.848 59.8675 188.848 58.41V52.2904Z" fill="#4D4D4D"/>
<path d="M160.3 55.0771C160.191 54.1153 159.489 53.4476 158.732 53.5858C157.975 53.7239 157.449 54.6156 157.558 55.5774L157.909 58.6819C158.018 59.6437 158.72 60.3114 159.477 60.1732C160.234 60.035 160.76 59.1433 160.651 58.1815L160.3 55.0771Z" fill="#4D4D4D"/>
<path d="M189.671 55.8339C189.78 54.8721 190.481 54.2044 191.239 54.3426C191.996 54.4808 192.521 55.3725 192.412 56.3343L192.061 59.4387C191.953 60.4005 191.251 61.0682 190.494 60.93C189.737 60.7918 189.211 59.9001 189.32 58.9383L189.671 55.8339Z" fill="#4D4D4D"/>
<path d="M173.074 50.7666H174.371C175.136 50.7666 175.756 51.5543 175.756 52.526V58.9515C175.756 59.9232 175.136 60.7109 174.371 60.7109H173.074C172.309 60.7109 171.689 59.9232 171.689 58.9515V52.526C171.689 51.5543 172.309 50.7666 173.074 50.7666Z" fill="#565656"/>
<path d="M167.476 50.957H169.188C169.786 50.957 170.271 51.5735 170.271 52.3339V59.142C170.271 59.9024 169.786 60.5189 169.188 60.5189H167.476C166.877 60.5189 166.392 59.9024 166.392 59.142V52.3339C166.392 51.5735 166.877 50.957 167.476 50.957Z" fill="#565656"/>
<path d="M179.966 50.957H178.254C177.655 50.957 177.17 51.5735 177.17 52.3339V59.142C177.17 59.9024 177.655 60.5189 178.254 60.5189H179.966C180.564 60.5189 181.049 59.9024 181.049 59.142V52.3339C181.049 51.5735 180.564 50.957 179.966 50.957Z" fill="#565656"/>
</svg>
