<svg width="351" height="351" viewBox="0 0 351 351" fill="none" xmlns="http://www.w3.org/2000/svg">
<circle cx="175.504" cy="175.109" r="173.197" stroke="black" stroke-width="3.60643"/>
<rect x="26.7251" y="51.2583" width="295.472" height="295.472" stroke="black" stroke-width="3.60643"/>
<path d="M148.916 132.76L148.932 132.698C149.932 128.767 145.705 125.425 139.492 125.232L128.38 123.395L116.022 122.255L104.713 121.52L93.1291 122.284C86.9159 122.091 80.7778 126.621 79.7781 130.551L79.7625 130.613C78.9685 133.734 81.4707 136.485 85.6466 137.582C87.908 138.176 90.3121 138.453 92.5057 139.194L93.7749 139.622C95.8725 140.329 98.1083 140.738 100.434 140.839L109.822 141.244L135.856 139.527C142.069 139.72 147.917 136.69 148.916 132.76Z" fill="#81584A"/>
<path d="M108.119 132.868C110.53 132.913 112.821 131.649 113.235 130.046C113.65 128.442 112.032 127.106 109.621 127.061L106.446 127.002C104.034 126.957 101.744 128.22 101.329 129.824C100.914 131.427 102.533 132.764 104.944 132.809L108.119 132.868Z" fill="#906253"/>
<path d="M117.1 134.513L117.105 134.447C117.434 130.255 112.897 126.191 106.971 125.369L62.4719 119.195C56.5458 118.373 51.4747 121.104 51.1453 125.296L51.1402 125.362C50.8108 129.553 55.3479 133.618 61.2741 134.44L105.773 140.613C111.699 141.436 116.77 138.704 117.1 134.513Z" fill="#81584A"/>
<path d="M69.2751 131.14L69.4137 128.37C69.6793 123.063 64.3128 117.996 57.4274 117.053L51.3104 116.216C44.425 115.274 38.6279 118.813 38.3624 124.12L38.2238 126.89C37.9583 132.198 43.3247 137.264 50.2101 138.207L56.3272 139.044C63.2126 139.986 69.0096 136.448 69.2751 131.14Z" fill="#906253"/>
<path d="M97.5823 139.867C105.012 140.863 111.239 137.687 111.491 132.774C111.743 127.861 105.925 123.072 98.4953 122.077L87.9317 120.662C80.5024 119.667 74.2753 122.843 74.0232 127.755C73.7711 132.668 79.5894 137.457 87.0187 138.452L97.5823 139.867Z" fill="#906253"/>
<path d="M100.477 139.163C101.835 139.333 102.975 138.795 103.021 137.961C103.068 137.127 102.004 136.313 100.645 136.143L91.7263 135.026C90.3675 134.855 89.2282 135.394 89.1817 136.228C89.1352 137.062 90.199 137.876 91.5578 138.046L100.477 139.163Z" fill="#9D6B5A"/>
<path d="M51.8378 130.845C56.2371 130.031 58.6171 125.887 57.1537 121.59C55.6902 117.292 50.9376 114.469 46.5383 115.283L34.5224 117.507C30.1231 118.321 27.7431 122.465 29.2065 126.762C30.6699 131.06 35.4226 133.883 39.8219 133.069L51.8378 130.845Z" fill="#906253"/>
<path d="M53.6863 139.786C56.7306 140.191 59.294 138.676 59.4118 136.402C59.5295 134.128 57.157 131.957 54.1127 131.552L45.7975 130.447C42.7531 130.042 40.1897 131.557 40.0719 133.831C39.9542 136.105 42.3267 138.276 45.3711 138.681L53.6863 139.786Z" fill="#9D6B5A"/>
<path d="M192.75 130.881L192.737 130.822C191.93 127.024 196.325 123.96 202.553 123.978L213.765 122.583L226.19 121.896L237.545 121.563L249.101 122.674C255.329 122.693 261.249 127.233 262.056 131.032L262.068 131.091C262.718 134.15 259.995 136.732 255.658 137.612C253.47 138.056 251.179 138.241 249.056 138.847L247.443 139.308C245.412 139.887 243.269 140.19 241.056 140.209L231.46 140.291L205.487 137.793C199.26 137.774 193.557 134.68 192.75 130.881Z" fill="#81584A"/>
<path d="M232.017 133.508L232.011 133.441C231.678 129.172 236.213 125.042 242.14 124.217L286.645 118.023C292.572 117.198 297.646 119.99 297.98 124.26L297.985 124.326C298.318 128.596 293.783 132.726 287.856 133.551L243.351 139.745C237.424 140.57 232.35 137.778 232.017 133.508Z" fill="#81584A"/>
<path d="M279.839 130.148L279.698 127.33C279.428 121.93 284.793 116.787 291.681 115.843L297.801 115.005C304.689 114.062 310.491 117.675 310.761 123.075L310.902 125.893C311.172 131.294 305.807 136.437 298.919 137.38L292.8 138.218C285.911 139.162 280.109 135.548 279.839 130.148Z" fill="#906253"/>
<path d="M251.544 139.003C244.113 139.999 237.88 136.753 237.624 131.753C237.368 126.753 243.185 121.891 250.616 120.895L261.182 119.478C268.614 118.481 274.846 121.727 275.102 126.727C275.358 131.728 269.542 136.589 262.11 137.586L251.544 139.003Z" fill="#906253"/>
<path d="M248.651 138.274C247.292 138.444 246.152 137.894 246.105 137.044C246.058 136.195 247.121 135.368 248.48 135.197L257.4 134.077C258.759 133.907 259.899 134.457 259.947 135.307C259.994 136.156 258.931 136.983 257.572 137.154L248.651 138.274Z" fill="#9D6B5A"/>
<path d="M297.283 129.86C292.883 129.022 290.5 124.811 291.961 120.454C293.421 116.097 298.172 113.244 302.572 114.081L314.59 116.369C318.99 117.207 321.373 121.418 319.912 125.776C318.451 130.133 313.701 132.986 309.301 132.148L297.283 129.86Z" fill="#906253"/>
<path d="M295.445 138.969C292.4 139.375 289.834 137.827 289.715 135.512C289.595 133.198 291.967 130.993 295.012 130.587L303.329 129.48C306.374 129.075 308.94 130.622 309.06 132.937C309.179 135.252 306.808 137.457 303.762 137.862L295.445 138.969Z" fill="#9D6B5A"/>
<path d="M161.269 268.862L159.066 268.862C153.82 268.862 149.567 273.115 149.567 278.361L149.566 303.026L149.567 320.689L147.668 338.791C147.668 342.747 151.548 345.953 156.335 345.953H158.356C163.143 345.953 167.023 342.747 167.023 338.791V312.36C167.023 310.519 167.473 308.707 168.332 307.079C169.191 305.451 169.641 303.638 169.641 301.797V298.323C169.641 296.286 169.388 294.257 168.889 292.282C168.39 290.307 168.138 288.278 168.138 286.241V275.731C168.138 275.328 168.102 274.925 168.032 274.528C167.448 271.25 164.598 268.862 161.269 268.862Z" fill="#906253"/>
<path d="M159.686 197.207H146.742C146.108 197.207 145.593 197.721 145.593 198.356L141.436 237.136V250.67C141.436 252.388 141.576 254.104 141.855 255.799L142.793 261.488C143.324 264.709 144.415 267.813 146.016 270.659L148.731 275.487C149.308 276.513 149.611 277.669 149.611 278.846C149.611 282.629 152.678 285.696 156.461 285.696H160.771C164.822 285.696 168.105 282.412 168.105 278.361C168.105 277.495 168.259 276.635 168.559 275.822L169.537 273.172C169.957 272.035 170.286 270.866 170.523 269.677L172.001 262.249L173.429 252.74C173.661 251.19 173.778 249.626 173.778 248.059V231.483V211.3C173.778 203.516 167.469 197.207 159.686 197.207Z" fill="#81584A"/>
<path d="M161.482 330.795H153.343C148.65 330.795 144.846 334.188 144.846 338.374C144.846 342.56 148.65 345.953 153.343 345.953H161.482C166.175 345.953 169.979 342.56 169.979 338.374C169.979 334.188 166.175 330.795 161.482 330.795Z" fill="#9D6B5A"/>
<path d="M167.165 337.65H147.66C146.106 337.65 144.846 338.774 144.846 340.16V343.443C144.846 344.829 146.106 345.953 147.66 345.953H167.165C168.72 345.953 169.979 344.829 169.979 343.443V340.16C169.979 338.774 168.72 337.65 167.165 337.65Z" fill="#9D6B5A"/>
<path d="M205.781 160.72C205.781 141.151 190.046 133.602 174.081 133.602C158.116 133.602 143.541 141.151 143.541 160.72L145.174 194.635C145.174 214.205 158.116 230.069 174.081 230.069C190.046 230.069 202.989 218.661 202.989 199.092L205.781 160.72Z" fill="#81584A"/>
<path d="M213.723 116.702H133.952C125.317 116.702 118.316 123.702 118.316 132.337C118.316 140.972 125.317 147.972 133.952 147.972H213.723C222.358 147.972 229.358 140.972 229.358 132.337C229.358 123.702 222.358 116.702 213.723 116.702Z" fill="#906253"/>
<path d="M216.445 140.388C216.445 122.249 197.48 107.544 174.087 107.544C150.693 107.544 131.729 122.249 131.729 140.388C131.729 158.527 150.693 173.232 174.087 173.232C197.48 173.232 216.445 158.527 216.445 140.388Z" fill="#81584A"/>
<path d="M176.424 161.556H171.745C160.586 161.556 151.541 169.743 151.541 179.843V193.055C151.541 203.154 160.586 211.342 171.745 211.342H176.424C187.582 211.342 196.627 203.154 196.627 193.055V179.843C196.627 169.743 187.582 161.556 176.424 161.556Z" fill="#906253"/>
<path d="M195.985 116.627H152.188C140.889 116.627 131.729 124.689 131.729 134.635V145.488C131.729 155.433 140.889 163.496 152.188 163.496H195.985C207.285 163.496 216.445 155.433 216.445 145.488V134.635C216.445 124.689 207.285 116.627 195.985 116.627Z" fill="#906253"/>
<path d="M199.807 116.627H148.366C139.178 116.627 131.729 124.119 131.729 133.362V143.448C131.729 152.69 139.178 160.183 148.366 160.183H199.807C208.996 160.183 216.445 152.69 216.445 143.448V133.362C216.445 124.119 208.996 116.627 199.807 116.627Z" fill="#9D6B5A"/>
<path d="M177.544 153.278C177.544 152.137 175.947 151.212 173.976 151.212C172.006 151.212 170.408 152.137 170.408 153.278V157.284C170.408 158.425 172.006 159.35 173.976 159.35C175.947 159.35 177.544 158.425 177.544 157.284V153.278Z" fill="#81584A"/>
<path d="M192.594 146.979H184.278C181.889 146.979 179.953 148.728 179.953 150.884C179.953 153.04 181.889 154.788 184.278 154.788H192.594C194.983 154.788 196.919 153.04 196.919 150.884C196.919 148.728 194.983 146.979 192.594 146.979Z" fill="#AC7967"/>
<path d="M163.241 146.979H154.924C152.536 146.979 150.6 148.728 150.6 150.884C150.6 153.04 152.536 154.788 154.924 154.788H163.241C165.629 154.788 167.566 153.04 167.566 150.884C167.566 148.728 165.629 146.979 163.241 146.979Z" fill="#AC7967"/>
<path d="M189.222 103.179C189.222 93.1704 182.446 85.0566 174.086 85.0566C165.726 85.0566 158.949 93.1704 158.949 103.179V110.614C158.949 120.623 165.726 128.737 174.086 128.737C182.446 128.737 189.222 120.623 189.222 110.614V103.179Z" fill="#9D6B5A"/>
<path d="M151.296 154.991H148.267C147.059 154.991 146.08 155.875 146.08 156.966C146.08 158.056 147.059 158.94 148.267 158.94H151.296C152.504 158.94 153.483 158.056 153.483 156.966C153.483 155.875 152.504 154.991 151.296 154.991Z" fill="#81584A"/>
<path d="M200.802 154.991H197.773C196.565 154.991 195.586 155.875 195.586 156.966C195.586 158.056 196.565 158.94 197.773 158.94H200.802C202.01 158.94 202.989 158.056 202.989 156.966C202.989 155.875 202.01 154.991 200.802 154.991Z" fill="#81584A"/>
<path d="M177.021 85.0566H171.151C164.412 85.0566 158.949 90.5193 158.949 97.2579V102.264C158.949 109.002 164.412 114.465 171.151 114.465H177.021C183.76 114.465 189.222 109.002 189.222 102.264V97.2579C189.222 90.5193 183.76 85.0566 177.021 85.0566Z" fill="#81584A"/>
<path d="M135.57 119.267H133.736C128.838 119.267 124.867 123.237 124.867 128.135C124.867 133.033 128.838 137.003 133.736 137.003H135.57C140.468 137.003 144.439 133.033 144.439 128.135C144.439 123.237 140.468 119.267 135.57 119.267Z" fill="#9D6B5A"/>
<path d="M214.713 120.131H212.878C207.98 120.131 204.01 124.101 204.01 128.999C204.01 133.897 207.98 137.868 212.878 137.868H214.713C219.611 137.868 223.581 133.897 223.581 128.999C223.581 124.101 219.611 120.131 214.713 120.131Z" fill="#9D6B5A"/>
<path d="M135.444 122.246H132.692C131.172 122.246 129.939 123.478 129.939 124.998C129.939 126.518 131.172 127.751 132.692 127.751H135.444C136.964 127.751 138.196 126.518 138.196 124.998C138.196 123.478 136.964 122.246 135.444 122.246Z" fill="#AC7967"/>
<path d="M218.047 122.462H215.295C213.775 122.462 212.543 123.694 212.543 125.214C212.543 126.734 213.775 127.966 215.295 127.966H218.047C219.567 127.966 220.8 126.734 220.8 125.214C220.8 123.694 219.567 122.462 218.047 122.462Z" fill="#AC7967"/>
<path d="M188.114 266.831L190.202 266.831C195.439 266.831 199.685 271.077 199.685 276.314L199.686 301.714L199.685 319.748L201.584 338.231C201.584 342.27 197.704 345.544 192.917 345.544H190.896C186.109 345.544 182.229 342.27 182.229 338.231V310.735C182.229 308.966 181.778 307.226 180.92 305.679C180.062 304.132 179.611 302.392 179.611 300.624V296.834C179.611 294.805 179.858 292.784 180.345 290.815L180.363 290.743C180.862 288.727 181.114 286.657 181.114 284.579V273.831C181.114 273.428 181.149 273.026 181.218 272.629C181.802 269.277 184.712 266.831 188.114 266.831Z" fill="#906253"/>
<path d="M190.629 197.207H198.182C200.128 197.207 201.86 198.442 202.494 200.282C202.588 200.554 202.656 200.835 202.697 201.12L207.498 234.526C207.711 236.011 207.818 237.51 207.818 239.011V250.114C207.818 251.848 207.675 253.58 207.391 255.291L206.462 260.871C205.93 264.066 204.839 267.143 203.239 269.96L200.526 274.738C199.947 275.758 199.643 276.911 199.643 278.083C199.643 281.824 196.61 284.857 192.869 284.857H188.404C184.397 284.857 181.148 281.609 181.148 277.602C181.148 276.737 180.994 275.879 180.692 275.069L179.717 272.451C179.297 271.325 178.967 270.167 178.731 268.989L177.253 261.632L175.832 252.257C175.595 250.693 175.476 249.114 175.476 247.532V231.158V212.36C175.476 203.991 182.26 197.207 190.629 197.207Z" fill="#81584A"/>
<path d="M188.669 330.438H196.807C201.5 330.438 205.305 333.82 205.305 337.991C205.305 342.162 201.5 345.544 196.807 345.544H188.669C183.975 345.544 180.171 342.162 180.171 337.991C180.171 333.82 183.975 330.438 188.669 330.438Z" fill="#9D6B5A"/>
<path d="M182.985 333.548H202.491C204.045 333.548 205.305 335.171 205.305 337.174V341.917C205.305 343.92 204.045 345.543 202.491 345.543H182.985C181.431 345.543 180.171 343.92 180.171 341.917V337.174C180.171 335.171 181.431 333.548 182.985 333.548Z" fill="#9D6B5A"/>
<path d="M196.322 74.4512H154.37C149.574 74.4512 145.686 78.4901 145.686 83.4724C145.686 88.4547 149.574 92.4937 154.37 92.4937H196.322C201.118 92.4937 205.007 88.4547 205.007 83.4724C205.007 78.4901 201.118 74.4512 196.322 74.4512Z" fill="#9D6B5A"/>
<path d="M195.596 75.916H153.435C149.787 75.916 146.83 78.9281 146.83 82.6437C146.83 86.3594 149.787 89.3715 153.435 89.3715H195.596C199.245 89.3715 202.202 86.3594 202.202 82.6437C202.202 78.9281 199.245 75.916 195.596 75.916Z" fill="#81584A"/>
<path d="M180.831 48.2656H168.204C157.743 48.2656 149.262 56.7465 149.262 67.2082V89.656C149.262 100.118 157.743 108.599 168.204 108.599H180.831C191.292 108.599 199.773 100.118 199.773 89.656V67.2082C199.773 56.7465 191.292 48.2656 180.831 48.2656Z" fill="#9D6B5A"/>
<path d="M180.37 106.108H168.572C167.296 106.108 166.262 107.143 166.262 108.418C166.262 109.694 167.296 110.729 168.572 110.729H180.37C181.646 110.729 182.68 109.694 182.68 108.418C182.68 107.143 181.646 106.108 180.37 106.108Z" fill="#9D6B5A"/>
<path d="M169.09 167.713H163.725C161.166 167.713 159.092 169.521 159.092 171.752C159.092 173.983 161.166 175.791 163.725 175.791H169.09C171.649 175.791 173.723 173.983 173.723 171.752C173.723 169.521 171.649 167.713 169.09 167.713Z" fill="#9D6B5A"/>
<path d="M169.09 177.236H163.725C161.166 177.236 159.092 179.045 159.092 181.275C159.092 183.506 161.166 185.315 163.725 185.315H169.09C171.649 185.315 173.723 183.506 173.723 181.275C173.723 179.045 171.649 177.236 169.09 177.236Z" fill="#9D6B5A"/>
<path d="M169.09 186.762H163.725C161.166 186.762 159.092 188.57 159.092 190.801C159.092 193.032 161.166 194.84 163.725 194.84H169.09C171.649 194.84 173.723 193.032 173.723 190.801C173.723 188.57 171.649 186.762 169.09 186.762Z" fill="#9D6B5A"/>
<path d="M185.477 167.713H180.112C177.553 167.713 175.479 169.521 175.479 171.752C175.479 173.983 177.553 175.791 180.112 175.791H185.477C188.036 175.791 190.11 173.983 190.11 171.752C190.11 169.521 188.036 167.713 185.477 167.713Z" fill="#9D6B5A"/>
<path d="M185.477 177.236H180.112C177.553 177.236 175.479 179.045 175.479 181.275C175.479 183.506 177.553 185.315 180.112 185.315H185.477C188.036 185.315 190.11 183.506 190.11 181.275C190.11 179.045 188.036 177.236 185.477 177.236Z" fill="#9D6B5A"/>
<path d="M185.477 186.762H180.112C177.553 186.762 175.479 188.57 175.479 190.801C175.479 193.032 177.553 194.84 180.112 194.84H185.477C188.036 194.84 190.11 193.032 190.11 190.801C190.11 188.57 188.036 186.762 185.477 186.762Z" fill="#9D6B5A"/>
<path d="M168.683 124.257L160.421 120.286C159.501 119.844 158.398 120.231 157.956 121.15C157.514 122.07 157.901 123.173 158.82 123.615L167.082 127.587C168.002 128.029 169.106 127.642 169.548 126.722C169.989 125.803 169.602 124.699 168.683 124.257Z" fill="#81584A"/>
<path d="M178.524 124.257L186.786 120.286C187.706 119.844 188.809 120.231 189.251 121.15C189.693 122.07 189.306 123.173 188.387 123.615L180.125 127.587C179.205 128.029 178.101 127.642 177.66 126.722C177.218 125.803 177.605 124.699 178.524 124.257Z" fill="#81584A"/>
<path d="M149.621 199.171C148.101 199.171 146.634 199.415 145.246 199.863C146.871 217.662 159.119 231.412 174.088 231.412C189.252 231.412 201.623 217.305 202.989 199.171C202.988 199.171 202.986 199.171 202.985 199.171H149.621Z" fill="#4F4F4F"/>
<path d="M200.875 197.207H147.364C146.195 197.207 145.248 198.287 145.248 199.618V203.352C145.248 204.684 146.195 205.763 147.364 205.763H200.875C202.044 205.763 202.991 204.684 202.991 203.352V199.618C202.991 198.287 202.044 197.207 200.875 197.207Z" fill="#5B5B5B"/>
<path d="M177.098 103.279H173.668C173.394 103.279 173.172 103.502 173.172 103.776V104.068C173.172 104.343 173.394 104.565 173.668 104.565H177.098C177.372 104.565 177.594 104.343 177.594 104.068V103.776C177.594 103.502 177.372 103.279 177.098 103.279Z" fill="#81584A"/>
<path d="M179.697 81.5888C179.697 79.5404 178.037 77.8799 175.988 77.8799C173.94 77.8799 172.279 79.5404 172.279 81.5888V88.134C172.279 90.1824 173.94 91.843 175.988 91.843C178.037 91.843 179.697 90.1824 179.697 88.134V81.5888Z" fill="#81584A"/>
<path d="M166.916 77.9432C166.916 76.6613 165.877 75.6221 164.595 75.6221C163.313 75.6221 162.273 76.6613 162.273 77.9432V78.8717C162.273 80.1537 163.313 81.1929 164.595 81.1929C165.877 81.1929 166.916 80.1537 166.916 78.8717V77.9432Z" fill="#61534B"/>
<path d="M189.431 77.9432C189.431 76.6613 188.392 75.6221 187.11 75.6221C185.828 75.6221 184.789 76.6613 184.789 77.9432V78.8717C184.789 80.1537 185.828 81.1929 187.11 81.1929C188.392 81.1929 189.431 80.1537 189.431 78.8717V77.9432Z" fill="#61534B"/>
<path d="M180.145 100.701C183.562 100.701 186.312 97.7637 186.312 94.1139V93.0479H165.545V94.1139C165.545 97.7637 168.296 100.701 171.712 100.701H180.145Z" fill="white"/>
<path d="M175.493 89.042L172.044 86.1111C171.474 85.6269 170.619 85.6963 170.135 86.2662C169.651 86.8361 169.72 87.6906 170.29 88.1748L173.739 91.1056C174.309 91.5899 175.164 91.5204 175.648 90.9506C176.132 90.3807 176.063 89.5262 175.493 89.042Z" fill="#81584A"/>
<path d="M176.484 89.042L179.933 86.1111C180.503 85.6269 181.357 85.6963 181.842 86.2662C182.326 86.8361 182.256 87.6906 181.687 88.1748L178.237 91.1056C177.667 91.5898 176.813 91.5204 176.329 90.9506C175.844 90.3807 175.914 89.5262 176.484 89.042Z" fill="#81584A"/>
<path d="M178.137 87.1585C178.137 86.1756 177.341 85.3789 176.358 85.3789C175.375 85.3789 174.578 86.1756 174.578 87.1585V88.7833C174.578 89.7661 175.375 90.5629 176.358 90.5629C177.341 90.5629 178.137 89.7661 178.137 88.7833V87.1585Z" fill="#906253"/>
<path d="M168.371 75.771L160.978 73.7624C160.177 73.5447 159.446 73.8324 159.347 74.4051C159.247 74.9779 159.816 75.6187 160.617 75.8364L168.009 77.845C168.811 78.0627 169.541 77.775 169.641 77.2023C169.741 76.6296 169.172 75.9888 168.371 75.771Z" fill="#4D4D4D"/>
<path d="M161.101 75.3587C161.165 74.9319 160.795 74.4549 160.275 74.2934C159.755 74.1319 159.282 74.347 159.218 74.7739L158.952 76.5441C158.888 76.971 159.258 77.448 159.778 77.6095C160.297 77.771 160.771 77.5558 160.835 77.129L161.101 75.3587Z" fill="#4D4D4D"/>
<path d="M183.157 75.77L190.549 73.7615C191.35 73.5437 192.081 73.8315 192.181 74.4042C192.28 74.9769 191.712 75.6177 190.91 75.8354L183.518 77.844C182.717 78.0617 181.986 77.774 181.886 77.2013C181.787 76.6286 182.355 75.9878 183.157 75.77Z" fill="#4D4D4D"/>
<path d="M190.428 75.3577C190.364 74.9309 190.734 74.4539 191.254 74.2924C191.774 74.1309 192.247 74.346 192.311 74.7729L192.577 76.5432C192.641 76.97 192.272 77.447 191.752 77.6085C191.232 77.77 190.758 77.5549 190.694 77.128L190.428 75.3577Z" fill="#4D4D4D"/>
<path d="M173.604 74.8256C173.604 74.2515 173.139 73.7861 172.565 73.7861C171.991 73.7861 171.525 74.2515 171.525 74.8256V76.084C171.525 76.6581 171.991 77.1235 172.565 77.1235C173.139 77.1235 173.604 76.6581 173.604 76.084V74.8256Z" fill="#81584A"/>
<path d="M180.499 74.8256C180.499 74.2515 180.034 73.7861 179.459 73.7861C178.885 73.7861 178.42 74.2515 178.42 74.8256V76.084C178.42 76.6581 178.885 77.1235 179.459 77.1235C180.034 77.1235 180.499 76.6581 180.499 76.084V74.8256Z" fill="#81584A"/>
<path d="M178.135 87.1555C178.135 86.1727 177.339 85.376 176.356 85.376C175.373 85.376 174.576 86.1727 174.576 87.1555V88.7804C174.576 89.7632 175.373 90.5599 176.356 90.5599C177.339 90.5599 178.135 89.7632 178.135 88.7804V87.1555Z" fill="#906253"/>
<path d="M168.14 75.335L160.746 74.3146C159.945 74.2039 159.316 74.5351 159.342 75.0543C159.369 75.5735 160.04 76.0841 160.841 76.1947L168.235 77.2151C169.037 77.3258 169.665 76.9946 169.639 76.4754C169.613 75.9562 168.942 75.4456 168.14 75.335Z" fill="#4D4D4D"/>
<path d="M160.923 75.8799C160.907 75.4452 160.511 75.02 160.039 74.9302C159.568 74.8404 159.199 75.12 159.216 75.5547L159.285 77.3573C159.302 77.792 159.698 78.2172 160.169 78.307C160.641 78.3968 161.01 78.1172 160.993 77.6825L160.923 75.8799Z" fill="#4D4D4D"/>
<path d="M183.593 74.9576L190.808 74.2869C191.591 74.2142 192.154 74.6609 192.066 75.2847C191.979 75.9085 191.274 76.4731 190.492 76.5458L183.277 77.2164C182.494 77.2891 181.931 76.8424 182.019 76.2187C182.106 75.5949 182.811 75.0303 183.593 74.9576Z" fill="#4D4D4D"/>
<path d="M190.734 76.0613C190.779 75.611 191.14 75.204 191.54 75.1523C191.939 75.1005 192.227 75.4236 192.182 75.8739L191.994 77.7412C191.949 78.1915 191.588 78.5985 191.188 78.6502C190.788 78.702 190.501 78.3789 190.546 77.9286L190.734 76.0613Z" fill="#4D4D4D"/>
<path d="M201.182 71.5693C201.092 71.5615 201.001 71.5613 200.909 71.5702C200.804 71.5804 200.698 71.602 200.593 71.6355L200.377 71.7041C199.679 71.9269 199.241 72.6112 199.257 73.3481C199.189 73.2451 199.108 73.1552 199.022 73.072V75.3553C202.048 76.6866 204.167 79.8467 204.167 83.552C204.167 87.2771 202.025 90.4501 198.973 91.7689C198.886 93.0993 198.664 94.3884 198.33 95.6259V96.9027C198.252 96.7711 198.16 96.651 198.058 96.5412C196.536 101.24 193.302 105.076 189.137 107.217V110.082C189.137 111.234 190.011 112.161 191.096 112.161H192C193.086 112.161 193.96 111.234 193.96 110.082V109.522C194.254 110.275 194.951 110.801 195.768 110.801H196.672C197.758 110.801 198.632 109.874 198.632 108.721V108.063C198.977 108.65 199.586 109.042 200.289 109.042C201.374 109.042 202.248 108.114 202.248 106.962V95.2795L202.651 96.7027C202.903 97.5939 203.783 98.0965 204.622 97.8288C205.462 97.5611 205.934 96.6276 205.682 95.7363L203.533 88.1411C203.929 88.6136 204.557 88.8293 205.168 88.6348L205.384 88.5653C206.224 88.2976 206.697 87.3649 206.444 86.4737L202.564 72.7608C202.371 72.0784 201.811 71.6246 201.182 71.5694V71.5693ZM150.246 71.6823C149.617 71.7376 149.057 72.1913 148.864 72.8737L144.984 86.5866C144.732 87.4778 145.204 88.4105 146.044 88.6782L146.261 88.7477C146.871 88.9423 147.499 88.7266 147.895 88.2541L145.746 95.8493C145.494 96.7405 145.966 97.6741 146.806 97.9418C147.646 98.2095 148.525 97.7077 148.777 96.8165L148.858 96.5295V106.962C148.858 108.114 149.731 109.042 150.817 109.042C151.519 109.042 152.129 108.65 152.475 108.063V108.721C152.475 109.873 153.348 110.801 154.433 110.801H155.338C156.155 110.801 156.851 110.276 157.146 109.525V110.082C157.146 111.234 158.02 112.161 159.106 112.161H160.009C161.095 112.161 161.969 111.234 161.969 110.082V107.142C157.842 104.97 154.648 101.126 153.158 96.4333C153.011 96.5694 152.88 96.7256 152.776 96.9026V95.0578C152.523 93.995 152.352 92.8968 152.278 91.7689C149.226 90.4501 147.084 87.2771 147.084 83.552C147.084 79.8467 149.203 76.6866 152.229 75.3552V73.3866C152.21 73.4118 152.189 73.4346 152.172 73.461C152.187 72.7245 151.749 72.0397 151.051 71.817L150.835 71.7484C150.73 71.7149 150.624 71.6933 150.519 71.6831C150.427 71.6743 150.336 71.6744 150.246 71.6823V71.6823Z" fill="#4D4D4D"/>
<path d="M156.943 56.2051C153.558 59.5475 151.438 64.3778 151.438 69.7674V91.4478C151.438 101.583 158.934 109.743 168.247 109.743H182.999C192.311 109.743 199.808 101.583 199.808 91.4478V69.7674C199.808 64.3778 197.688 59.5475 194.303 56.2051C196.883 59.4648 198.442 63.7107 198.442 68.3701V90.4455C198.442 100.766 190.809 109.074 181.327 109.074H169.919C160.437 109.074 152.803 100.766 152.803 90.4455V68.3701C152.803 63.7107 154.363 59.4648 156.943 56.2051Z" fill="#565656"/>
<path d="M166.814 109.534C166.814 108.565 166.092 107.78 165.203 107.78C164.313 107.78 163.592 108.565 163.592 109.534V111.57C163.592 112.538 164.313 113.323 165.203 113.323C166.092 113.323 166.814 112.538 166.814 111.57V109.534Z" fill="#565656"/>
<path d="M169.827 111.131C169.827 110.163 169.106 109.378 168.216 109.378C167.327 109.378 166.605 110.163 166.605 111.131V113.167C166.605 114.136 167.327 114.921 168.216 114.921C169.106 114.921 169.827 114.136 169.827 113.167V111.131Z" fill="#565656"/>
<path d="M172.804 112.013C172.804 111.045 172.083 110.26 171.193 110.26C170.303 110.26 169.582 111.045 169.582 112.013V114.049C169.582 115.018 170.303 115.803 171.193 115.803C172.083 115.803 172.804 115.018 172.804 114.049V112.013Z" fill="#565656"/>
<path d="M175.743 112.212C175.743 111.244 175.022 110.459 174.132 110.459C173.243 110.459 172.521 111.244 172.521 112.212V114.249C172.521 115.217 173.243 116.002 174.132 116.002C175.022 116.002 175.743 115.217 175.743 114.249V112.212Z" fill="#565656"/>
<path d="M164.103 106.019C164.103 104.863 163.242 103.926 162.181 103.926C161.119 103.926 160.258 104.863 160.258 106.019V108.449C160.258 109.605 161.119 110.542 162.181 110.542C163.242 110.542 164.103 109.605 164.103 108.449V106.019Z" fill="#565656"/>
<path d="M160.775 103.871C160.775 102.715 159.914 101.778 158.852 101.778C157.791 101.778 156.93 102.715 156.93 103.871V106.301C156.93 107.457 157.791 108.394 158.852 108.394C159.914 108.394 160.775 107.457 160.775 106.301V103.871Z" fill="#565656"/>
<path d="M157.97 101.269C157.97 100.113 157.11 99.1758 156.048 99.1758C154.986 99.1758 154.125 100.113 154.125 101.269V103.699C154.125 104.855 154.986 105.792 156.048 105.792C157.11 105.792 157.97 104.855 157.97 103.699V101.269Z" fill="#565656"/>
<path d="M184.428 109.534C184.428 108.565 185.15 107.78 186.039 107.78C186.929 107.78 187.65 108.565 187.65 109.534V111.57C187.65 112.538 186.929 113.323 186.039 113.323C185.15 113.323 184.428 112.538 184.428 111.57V109.534Z" fill="#565656"/>
<path d="M181.415 111.131C181.415 110.163 182.136 109.378 183.026 109.378C183.915 109.378 184.637 110.163 184.637 111.131V113.167C184.637 114.136 183.915 114.921 183.026 114.921C182.136 114.921 181.415 114.136 181.415 113.167V111.131Z" fill="#565656"/>
<path d="M178.438 112.013C178.438 111.045 179.16 110.26 180.049 110.26C180.939 110.26 181.66 111.045 181.66 112.013V114.049C181.66 115.018 180.939 115.803 180.049 115.803C179.16 115.803 178.438 115.018 178.438 114.049V112.013Z" fill="#565656"/>
<path d="M175.499 112.212C175.499 111.244 176.22 110.459 177.11 110.459C177.999 110.459 178.721 111.244 178.721 112.212V114.249C178.721 115.217 177.999 116.002 177.11 116.002C176.22 116.002 175.499 115.217 175.499 114.249V112.212Z" fill="#565656"/>
<path d="M187.139 106.019C187.139 104.863 188 103.926 189.062 103.926C190.124 103.926 190.984 104.863 190.984 106.019V108.449C190.984 109.605 190.124 110.542 189.062 110.542C188 110.542 187.139 109.605 187.139 108.449V106.019Z" fill="#565656"/>
<path d="M190.467 103.872C190.467 102.716 191.328 101.779 192.39 101.779C193.452 101.779 194.312 102.716 194.312 103.872V106.302C194.312 107.458 193.452 108.395 192.39 108.395C191.328 108.395 190.467 107.458 190.467 106.302V103.872Z" fill="#565656"/>
<path d="M193.272 101.269C193.272 100.113 194.133 99.1758 195.194 99.1758C196.256 99.1758 197.117 100.113 197.117 101.269V103.699C197.117 104.855 196.256 105.792 195.194 105.792C194.133 105.792 193.272 104.855 193.272 103.699V101.269Z" fill="#565656"/>
<path d="M168.342 88.8994C164.583 88.8994 161.557 92.1931 161.557 96.2846V104.924C161.557 109.016 164.583 112.309 168.342 112.309H182.901C186.66 112.309 189.686 109.016 189.686 104.924V96.2846C189.686 92.1931 186.66 88.8994 182.901 88.8994H181.477C181.527 89.3495 181.375 89.8167 181.032 90.1335L180.457 90.6656C180.798 91.0141 181.052 91.4635 181.162 91.9783H183.137C185.239 91.9783 186.93 93.8194 186.93 96.1073V99.822C186.93 100.69 186.687 101.493 186.269 102.156V103.175C186.269 106.441 183.854 109.07 180.853 109.07H170.39C167.389 109.07 164.973 106.441 164.973 103.175V102.156C164.556 101.493 164.312 100.69 164.312 99.822V96.1073C164.312 93.8194 166.004 91.9783 168.106 91.9783H169.348C169.497 91.2856 169.898 90.7048 170.437 90.3435L170.211 90.1335C169.868 89.8167 169.716 89.3495 169.766 88.8994H168.342Z" fill="#565656"/>
<path d="M165.163 48.7188C156.301 48.7188 149.166 56.2925 149.166 65.7005C149.166 66.1423 149.187 66.5784 149.218 67.0115C149.187 67.2331 149.166 67.4583 149.166 67.6892V78.0923C149.166 80.3247 150.653 82.1743 152.637 82.5927V69.017C152.637 59.2989 160.007 51.4747 169.162 51.4747H182.09C191.244 51.4747 198.615 59.2989 198.615 69.017V82.6111C200.655 82.2407 202.201 80.3672 202.201 78.0923V67.6892C202.201 67.4583 202.179 67.2331 202.149 67.0115C202.18 66.5784 202.201 66.1423 202.201 65.7005C202.201 56.2925 195.066 48.7188 186.204 48.7188H165.163Z" fill="#4D4D4D"/>
<path d="M183.318 46.5771H168.906C164.051 46.5771 160.115 50.7554 160.115 55.9095C160.115 61.0636 164.051 65.2419 168.906 65.2419H183.318C188.173 65.2419 192.109 61.0636 192.109 55.9095C192.109 50.7554 188.173 46.5771 183.318 46.5771Z" fill="#4D4D4D"/>
<path d="M165.015 52.5063C165.015 51.0487 163.902 49.8672 162.529 49.8672C161.156 49.8672 160.043 51.0487 160.043 52.5063V58.6258C160.043 60.0834 161.156 61.2649 162.529 61.2649C163.902 61.2649 165.015 60.0834 165.015 58.6258V52.5063Z" fill="#4D4D4D"/>
<path d="M193.261 52.7357C193.261 51.2782 192.148 50.0967 190.775 50.0967C189.402 50.0967 188.289 51.2782 188.289 52.7357V58.8553C188.289 60.3129 189.402 61.4944 190.775 61.4944C192.148 61.4944 193.261 60.3129 193.261 58.8553V52.7357Z" fill="#4D4D4D"/>
<path d="M159.097 55.5224C158.967 54.5606 158.127 53.8929 157.221 54.0311C156.315 54.1692 155.686 55.0609 155.816 56.0228L156.236 59.1272C156.366 60.089 157.206 60.7567 158.112 60.6185C159.018 60.4803 159.647 59.5886 159.517 58.6268L159.097 55.5224Z" fill="#4D4D4D"/>
<path d="M194.245 56.2792C194.375 55.3174 195.215 54.6497 196.121 54.7879C197.027 54.9261 197.656 55.8178 197.526 56.7796L197.106 59.884C196.976 60.8458 196.136 61.5135 195.23 61.3753C194.324 61.2372 193.695 60.3455 193.825 59.3836L194.245 56.2792Z" fill="#4D4D4D"/>
<path d="M174.381 51.2119H175.933C176.848 51.2119 177.59 51.9996 177.59 52.9713V59.3969C177.59 60.3685 176.848 61.1562 175.933 61.1562H174.381C173.465 61.1562 172.723 60.3685 172.723 59.3969V52.9713C172.723 51.9996 173.465 51.2119 174.381 51.2119Z" fill="#565656"/>
<path d="M167.684 51.4023H169.732C170.449 51.4023 171.029 52.0188 171.029 52.7793V59.5873C171.029 60.3477 170.449 60.9642 169.732 60.9642H167.684C166.967 60.9642 166.387 60.3477 166.387 59.5873V52.7793C166.387 52.0188 166.967 51.4023 167.684 51.4023Z" fill="#565656"/>
<path d="M182.629 51.4023H180.58C179.864 51.4023 179.283 52.0188 179.283 52.7793V59.5873C179.283 60.3477 179.864 60.9642 180.58 60.9642H182.629C183.345 60.9642 183.926 60.3477 183.926 59.5873V52.7793C183.926 52.0188 183.345 51.4023 182.629 51.4023Z" fill="#565656"/>
</svg>
