<svg width="351" height="351" viewBox="0 0 351 351" fill="none" xmlns="http://www.w3.org/2000/svg">
<circle cx="175.771" cy="175.357" r="173.197" stroke="black" stroke-width="3.60643"/>
<rect x="26.9927" y="51.5063" width="295.472" height="295.472" stroke="black" stroke-width="3.60643"/>
<path d="M148.461 130.101L148.468 130.064C148.868 127.713 144.228 125.737 138.104 125.65L126.93 124.605L114.637 123.98L103.433 123.593L92.1811 124.101C86.0568 124.014 80.7033 126.746 80.3028 129.096L80.2965 129.133C79.8959 131.484 81.079 130.463 98.7412 132.579L105.694 134.364C108.994 135.211 112.505 135.45 116.076 135.07L116.775 134.995L136.647 134.2C142.771 134.287 148.061 132.451 148.461 130.101Z" fill="#81584A"/>
<path d="M108.46 130.304C110.829 130.312 112.885 129.525 113.052 128.546C113.22 127.568 111.435 126.768 109.067 126.76L105.948 126.75C103.58 126.742 101.524 127.528 101.356 128.507C101.189 129.486 102.973 130.285 105.341 130.293L108.46 130.304Z" fill="#906253"/>
<path d="M97.7013 134.542C103.625 135.073 117.158 134.286 117.459 131.836C117.76 129.387 113.202 126.971 107.278 126.439L62.7953 122.45C56.8714 121.919 51.8251 123.474 51.5242 125.923L51.5195 125.962C51.2186 128.411 55.7769 130.827 61.7009 131.359L97.7013 134.542Z" fill="#81584A"/>
<path d="M69.639 129.528L69.7591 127.904C69.9892 124.793 64.5996 121.775 57.7211 121.164L51.6101 120.62C44.7316 120.009 38.9688 122.036 38.7387 125.147L38.6186 126.771C38.3885 129.882 43.7782 132.9 50.6567 133.511L56.7677 134.054C63.6462 134.666 69.4089 132.639 69.639 129.528Z" fill="#906253"/>
<path d="M98.0006 134.844C105.424 135.49 111.62 133.682 111.839 130.804C112.059 127.927 106.218 125.071 98.7946 124.424L88.2391 123.505C80.8154 122.859 74.6196 124.667 74.4003 127.544C74.1811 130.422 80.0214 133.278 87.4451 133.925L98.0006 134.844Z" fill="#906253"/>
<path d="M100.897 134.463C102.255 134.574 103.389 134.269 103.43 133.782C103.471 133.294 102.403 132.809 101.045 132.698L92.1301 131.969C90.7719 131.858 89.6377 132.163 89.5969 132.651C89.556 133.138 90.6239 133.623 91.9821 133.734L100.897 134.463Z" fill="#9D6B5A"/>
<path d="M52.2253 129.235C56.6153 128.794 58.9664 126.372 57.4767 123.825C55.987 121.278 51.2205 119.572 46.8305 120.013L34.8401 121.218C30.4502 121.659 28.099 124.081 29.5888 126.628C31.0785 129.174 35.8449 130.881 40.2349 130.44L52.2253 129.235Z" fill="#906253"/>
<path d="M54.1418 134.48C57.184 134.743 59.7333 133.877 59.8358 132.545C59.9384 131.214 57.5553 129.922 54.5131 129.658L46.2038 128.94C43.1616 128.677 40.6122 129.543 40.5097 130.874C40.4072 132.206 42.7903 133.498 45.8325 133.761L54.1418 134.48Z" fill="#9D6B5A"/>
<path d="M201.513 132.516L201.505 132.48C200.946 130.188 205.447 128.157 211.559 127.945L222.651 126.69L234.889 125.824L246.055 125.213L257.33 125.478C263.442 125.266 268.975 127.829 269.534 130.122L269.543 130.158C270.102 132.45 260.74 133.256 251.715 134.817L248.906 135.612C247.148 136.11 245.311 136.428 243.419 136.562L238.933 136.879L213.593 136.284C207.481 136.496 202.073 134.809 201.513 132.516Z" fill="#81584A"/>
<path d="M241.503 131.93C239.138 131.984 237.031 131.249 236.798 130.288C236.564 129.328 238.292 128.505 240.658 128.452L243.772 128.381C246.137 128.327 248.244 129.063 248.477 130.023C248.711 130.984 246.983 131.806 244.617 131.86L241.503 131.93Z" fill="#906253"/>
<path d="M231.971 131.783L231.967 131.745C231.681 129.354 236.251 126.94 242.175 126.354L286.657 121.947C292.581 121.361 297.615 122.823 297.901 125.214L297.906 125.252C298.191 127.642 293.621 130.056 287.697 130.643L243.215 135.049C237.291 135.636 232.257 134.173 231.971 131.783Z" fill="#81584A"/>
<path d="M279.768 128.919L279.658 127.335C279.448 124.3 284.854 121.293 291.734 120.62L297.846 120.022C304.726 119.349 310.473 121.264 310.684 124.299L310.794 125.883C311.004 128.919 305.597 131.925 298.718 132.598L292.606 133.196C285.726 133.869 279.978 131.954 279.768 128.919Z" fill="#906253"/>
<path d="M251.4 134.462C243.975 135.176 237.794 133.479 237.593 130.67C237.392 127.862 243.247 125.006 250.671 124.291L261.227 123.275C268.652 122.561 274.833 124.259 275.034 127.067C275.235 129.875 269.38 132.731 261.956 133.446L251.4 134.462Z" fill="#906253"/>
<path d="M248.501 134.117C247.142 134.241 246.011 133.956 245.973 133.48C245.935 133.004 247.005 132.518 248.363 132.393L257.277 131.579C258.636 131.455 259.767 131.74 259.805 132.216C259.843 132.692 258.773 133.178 257.415 133.302L248.501 134.117Z" fill="#9D6B5A"/>
<path d="M297.175 128.409C292.791 128.027 290.458 125.699 291.963 123.209C293.469 120.72 298.243 119.012 302.627 119.394L314.602 120.439C318.986 120.821 321.319 123.149 319.814 125.638C318.308 128.128 313.533 129.836 309.149 129.453L297.175 128.409Z" fill="#906253"/>
<path d="M295.229 133.573C292.186 133.864 289.644 133.046 289.549 131.747C289.455 130.447 291.845 129.158 294.888 128.866L303.197 128.071C306.24 127.78 308.782 128.598 308.876 129.898C308.971 131.197 306.581 132.487 303.538 132.778L295.229 133.573Z" fill="#9D6B5A"/>
<path d="M195.628 156.826C195.628 137.256 188.88 133.85 174.528 133.85C160.177 133.85 154.293 137.256 154.293 156.826L154.293 177.867L174.528 230.317L192.879 197.571L195.628 177.867V156.826Z" fill="#81584A"/>
<path d="M216.77 120.48H131.435C122.197 120.48 114.709 125.157 114.709 130.927C114.709 136.696 122.197 141.373 131.435 141.373H216.77C226.007 141.373 233.495 136.696 233.495 130.927C233.495 125.157 226.007 120.48 216.77 120.48Z" fill="#906253"/>
<path d="M177.374 158.117H173.029C162.667 158.117 154.268 167.456 154.268 178.977V194.047C154.268 205.568 162.667 214.907 173.029 214.907H177.374C187.736 214.907 196.135 205.568 196.135 194.047V178.977C196.135 167.456 187.736 158.117 177.374 158.117Z" fill="#906253"/>
<path d="M187.847 119.514H161.715C154.973 119.514 149.508 126.188 149.508 134.422V143.407C149.508 151.641 154.973 158.315 161.715 158.315H187.847C194.589 158.315 200.054 151.641 200.054 143.407V134.422C200.054 126.188 194.589 119.514 187.847 119.514Z" fill="#906253"/>
<path d="M190.164 119.514H159.58C154.116 119.514 149.688 126.188 149.688 134.422V143.407C149.688 151.641 154.116 158.315 159.58 158.315H190.164C195.627 158.315 200.056 151.641 200.056 143.407V134.422C200.056 126.188 195.627 119.514 190.164 119.514Z" fill="#9D6B5A"/>
<path d="M177.337 153.771C177.337 152.507 176.132 151.482 174.646 151.482C173.16 151.482 171.955 152.507 171.955 153.771V158.209C171.955 159.472 173.16 160.497 174.646 160.497C176.132 160.497 177.337 159.472 177.337 158.209V153.771Z" fill="#81584A"/>
<path d="M189.601 141.373H183.42C181.644 141.373 180.205 143.309 180.205 145.698C180.205 148.086 181.644 150.023 183.42 150.023H189.601C191.376 150.023 192.815 148.086 192.815 145.698C192.815 143.309 191.376 141.373 189.601 141.373Z" fill="#AC7967"/>
<path d="M167.783 141.373H161.601C159.826 141.373 158.387 143.309 158.387 145.698C158.387 148.086 159.826 150.023 161.601 150.023H167.783C169.558 150.023 170.997 148.086 170.997 145.698C170.997 143.309 169.558 141.373 167.783 141.373Z" fill="#AC7967"/>
<path d="M185.178 103.427C185.178 93.4184 180.516 85.3047 174.765 85.3047C169.014 85.3047 164.352 93.4184 164.352 103.427V110.862C164.352 120.871 169.014 128.985 174.765 128.985C180.516 128.985 185.178 120.871 185.178 110.862V103.427Z" fill="#9D6B5A"/>
<path d="M157.419 150.653H154.98C154.007 150.653 153.219 151.633 153.219 152.841C153.219 154.048 154.007 155.028 154.98 155.028H157.419C158.392 155.028 159.18 154.048 159.18 152.841C159.18 151.633 158.392 150.653 157.419 150.653Z" fill="#81584A"/>
<path d="M177.287 85.3047H171.416C164.678 85.3047 159.215 90.7674 159.215 97.506V102.512C159.215 109.25 164.678 114.713 171.416 114.713H177.287C184.025 114.713 189.488 109.25 189.488 102.512V97.506C189.488 90.7674 184.025 85.3047 177.287 85.3047Z" fill="#81584A"/>
<path d="M215.223 123.043H212.896C206.683 123.043 201.646 126.01 201.646 129.671C201.646 133.331 206.683 136.299 212.896 136.299H215.223C221.436 136.299 226.473 133.331 226.473 129.671C226.473 126.01 221.436 123.043 215.223 123.043Z" fill="#9D6B5A"/>
<path d="M135.86 122.494H132.58C130.768 122.494 129.299 123.726 129.299 125.246C129.299 126.766 130.768 127.999 132.58 127.999H135.86C137.672 127.999 139.141 126.766 139.141 125.246C139.141 123.726 137.672 122.494 135.86 122.494Z" fill="#AC7967"/>
<path d="M219.455 122.71H215.964C214.036 122.71 212.473 123.942 212.473 125.462C212.473 126.982 214.036 128.214 215.964 128.214H219.455C221.383 128.214 222.946 126.982 222.946 125.462C222.946 123.942 221.383 122.71 219.455 122.71Z" fill="#AC7967"/>
<path d="M192.31 75.5791H156.006C151.855 75.5791 148.49 79.7935 148.49 84.9922C148.49 90.1909 151.855 94.4053 156.006 94.4053H192.31C196.461 94.4053 199.826 90.1909 199.826 84.9922C199.826 79.7935 196.461 75.5791 192.31 75.5791Z" fill="#9D6B5A"/>
<path d="M192.043 78.1631H156.14C153.034 78.1631 150.516 81.1752 150.516 84.8908C150.516 88.6064 153.034 91.6185 156.14 91.6185H192.043C195.15 91.6185 197.668 88.6064 197.668 84.8908C197.668 81.1752 195.15 78.1631 192.043 78.1631Z" fill="#81584A"/>
<path d="M181.028 48.5127H171.405C163.431 48.5127 156.967 56.9936 156.967 67.4553V89.903C156.967 100.365 163.431 108.846 171.405 108.846H181.028C189.002 108.846 195.466 100.365 195.466 89.903V67.4553C195.466 56.9936 189.002 48.5127 181.028 48.5127Z" fill="#9D6B5A"/>
<path d="M181.491 106.355H170.854C169.704 106.355 168.771 107.39 168.771 108.666C168.771 109.941 169.704 110.976 170.854 110.976H181.491C182.641 110.976 183.574 109.941 183.574 108.666C183.574 107.39 182.641 106.355 181.491 106.355Z" fill="#9D6B5A"/>
<path d="M170.783 169.123H165.958C163.657 169.123 161.791 170.799 161.791 172.865C161.791 174.932 163.657 176.608 165.958 176.608H170.783C173.085 176.608 174.95 174.932 174.95 172.865C174.95 170.799 173.085 169.123 170.783 169.123Z" fill="#9D6B5A"/>
<path d="M170.783 177.947H165.958C163.657 177.947 161.791 179.623 161.791 181.69C161.791 183.756 163.657 185.432 165.958 185.432H170.783C173.085 185.432 174.95 183.756 174.95 181.69C174.95 179.623 173.085 177.947 170.783 177.947Z" fill="#9D6B5A"/>
<path d="M170.783 186.771H165.958C163.657 186.771 161.791 188.447 161.791 190.514C161.791 192.581 163.657 194.256 165.958 194.256H170.783C173.085 194.256 174.95 192.581 174.95 190.514C174.95 188.447 173.085 186.771 170.783 186.771Z" fill="#9D6B5A"/>
<path d="M185.521 169.123H180.696C178.395 169.123 176.529 170.799 176.529 172.865C176.529 174.932 178.395 176.608 180.696 176.608H185.521C187.823 176.608 189.689 174.932 189.689 172.865C189.689 170.799 187.823 169.123 185.521 169.123Z" fill="#9D6B5A"/>
<path d="M185.521 177.947H180.696C178.395 177.947 176.529 179.623 176.529 181.69C176.529 183.756 178.395 185.432 180.696 185.432H185.521C187.823 185.432 189.689 183.756 189.689 181.69C189.689 179.623 187.823 177.947 185.521 177.947Z" fill="#9D6B5A"/>
<path d="M185.521 186.771H180.696C178.395 186.771 176.529 188.447 176.529 190.514C176.529 192.581 178.395 194.256 180.696 194.256H185.521C187.823 194.256 189.689 192.581 189.689 190.514C189.689 188.447 187.823 186.771 185.521 186.771Z" fill="#9D6B5A"/>
<path d="M168.949 124.503L160.686 120.532C159.767 120.09 158.663 120.477 158.221 121.396C157.779 122.316 158.166 123.419 159.086 123.861L167.348 127.833C168.268 128.275 169.371 127.888 169.813 126.969C170.255 126.049 169.868 124.945 168.949 124.503Z" fill="#81584A"/>
<path d="M178.79 124.503L187.052 120.532C187.971 120.09 189.075 120.477 189.517 121.396C189.959 122.316 189.572 123.419 188.653 123.861L180.39 127.833C179.471 128.275 178.367 127.888 177.925 126.969C177.483 126.049 177.87 124.945 178.79 124.503Z" fill="#81584A"/>
<path d="M158.159 199.418C157.068 199.418 156.015 199.662 155.02 200.11C156.186 217.909 164.975 231.66 175.718 231.66C186.6 231.66 195.478 217.552 196.458 199.418C196.457 199.418 196.456 199.418 196.455 199.418H158.159Z" fill="#4F4F4F"/>
<path d="M194.965 197.454H156.539C155.7 197.454 155.02 198.534 155.02 199.865V203.599C155.02 204.931 155.7 206.01 156.539 206.01H194.965C195.804 206.01 196.484 204.931 196.484 203.599V199.865C196.484 198.534 195.804 197.454 194.965 197.454Z" fill="#5B5B5B"/>
<path d="M199.097 156.826C199.097 137.256 191.45 133.85 175.186 133.85C158.922 133.85 152.254 137.256 152.254 156.826L150.68 177.867H175.186H200.243L199.097 156.826Z" fill="#81584A"/>
<path d="M216.77 120.48H131.435C122.197 120.48 114.709 125.157 114.709 130.927C114.709 136.696 122.197 141.373 131.435 141.373H216.77C226.007 141.373 233.495 136.696 233.495 130.927C233.495 125.157 226.007 120.48 216.77 120.48Z" fill="#906253"/>
<path d="M200.056 139.531C200.056 127.951 188.78 118.564 174.872 118.564C160.963 118.564 149.688 127.951 149.688 139.531C149.688 151.11 160.963 160.497 174.872 160.497C188.78 160.497 200.056 151.11 200.056 139.531Z" fill="#81584A"/>
<path d="M178.056 158.117H172.892C160.578 158.117 150.249 163.692 150.249 175.212L146.904 198.423C146.904 209.943 160.578 214.907 172.892 214.907H178.056C190.37 214.907 204.589 209.943 204.589 198.423L200.943 175.212C200.943 163.692 190.37 158.117 178.056 158.117Z" fill="#906253"/>
<path d="M188.073 119.514H162.424C155.806 119.514 150.441 126.188 150.441 134.422V143.407C150.441 151.641 155.806 158.315 162.424 158.315H188.073C194.69 158.315 200.055 151.641 200.055 143.407V134.422C200.055 126.188 194.69 119.514 188.073 119.514Z" fill="#906253"/>
<path d="M202.706 133.836C202.706 133.836 198.206 118.564 195.114 118.564L186.311 116.915L175.528 118.564L162.16 116.915L155.659 118.564C152.319 118.564 146.859 125.401 146.859 133.836C146.859 142.271 148.733 158.314 155.659 158.314H194.43C201.355 158.314 202.706 146.06 202.706 133.836Z" fill="#9D6B5A"/>
<path d="M177.337 153.771C177.337 152.507 176.132 151.482 174.646 151.482C173.16 151.482 171.955 152.507 171.955 153.771V158.209C171.955 159.472 173.16 160.497 174.646 160.497C176.132 160.497 177.337 159.472 177.337 158.209V153.771Z" fill="#81584A"/>
<path d="M189.601 141.373H183.42C181.644 141.373 180.205 142.738 180.205 144.422C180.205 146.106 181.644 147.471 183.42 147.471H189.601C191.376 147.471 192.815 146.106 192.815 144.422C192.815 142.738 191.376 141.373 189.601 141.373Z" fill="#AC7967"/>
<path d="M167.783 141.373H161.601C159.826 141.373 158.387 142.738 158.387 144.422C158.387 146.106 159.826 147.471 161.601 147.471H167.783C169.558 147.471 170.997 146.106 170.997 144.422C170.997 142.738 169.558 141.373 167.783 141.373Z" fill="#AC7967"/>
<path d="M186.535 106.901C186.535 96.3474 181.079 87.792 174.349 87.792C167.618 87.792 162.162 96.3474 162.162 106.901V114.741C162.162 125.294 167.618 133.85 174.349 133.85C181.079 133.85 186.535 125.294 186.535 114.741V106.901Z" fill="#9D6B5A"/>
<path d="M158.728 150.653H156.576C155.717 150.653 155.021 151.633 155.021 152.841C155.021 154.048 155.717 155.028 156.576 155.028H158.728C159.587 155.028 160.283 154.048 160.283 152.841C160.283 151.633 159.587 150.653 158.728 150.653Z" fill="#81584A"/>
<path d="M193.912 150.653H191.76C190.901 150.653 190.205 151.633 190.205 152.841C190.205 154.048 190.901 155.028 191.76 155.028H193.912C194.77 155.028 195.466 154.048 195.466 152.841C195.466 151.633 194.77 150.653 193.912 150.653Z" fill="#81584A"/>
<path d="M177.287 85.3047H171.416C164.678 85.3047 159.215 89.874 159.215 95.5105V99.6975C159.215 105.334 164.678 109.903 171.416 109.903H177.287C184.025 109.903 189.488 105.334 189.488 99.6975V95.5105C189.488 89.874 184.025 85.3047 177.287 85.3047Z" fill="#81584A"/>
<path d="M141.012 120.514H138.825C132.987 120.514 128.254 124.484 128.254 129.382C128.254 134.28 132.987 138.25 138.825 138.25H141.012C146.85 138.25 151.583 134.28 151.583 129.382C151.583 124.484 146.85 120.514 141.012 120.514Z" fill="#9D6B5A"/>
<path d="M208.378 121.116H210.566C216.404 121.116 221.137 125.087 221.137 129.985C221.137 134.882 216.404 138.853 210.566 138.853H208.378C202.54 138.853 197.807 134.882 197.807 129.985C197.807 125.087 202.54 121.116 208.378 121.116Z" fill="#9D6B5A"/>
<path d="M136.86 122.494H133.58C131.768 122.494 130.299 123.726 130.299 125.246C130.299 126.766 131.768 127.999 133.58 127.999H136.86C138.672 127.999 140.141 126.766 140.141 125.246C140.141 123.726 138.672 122.494 136.86 122.494Z" fill="#AC7967"/>
<path d="M212.525 123.097H215.805C217.617 123.097 219.086 124.329 219.086 125.849C219.086 127.369 217.617 128.601 215.805 128.601H212.525C210.713 128.601 209.244 127.369 209.244 125.849C209.244 124.329 210.713 123.097 212.525 123.097Z" fill="#AC7967"/>
<path d="M188.187 266.262L189.248 266.262C193.787 266.262 197.466 269.941 197.466 274.48L197.466 301.506L197.466 319.727L199.129 338.402C199.129 342.482 195.73 345.79 191.538 345.79H189.769C185.576 345.79 182.178 342.482 182.178 338.402V310.539C182.178 308.799 181.786 307.081 181.032 305.513C180.277 303.944 179.886 302.226 179.886 300.486V296.55C179.886 294.516 180.101 292.487 180.528 290.497L180.544 290.422C180.981 288.383 181.202 286.303 181.202 284.217V273.247C181.202 272.898 181.228 272.549 181.28 272.203C181.796 268.787 184.732 266.262 188.187 266.262Z" fill="#906253"/>
<path d="M190.734 284.475H188.372C184.428 284.475 181.231 281.278 181.231 277.334C181.231 276.56 181.105 275.792 180.859 275.058L179.98 272.445C179.611 271.346 179.321 270.221 179.114 269.08L177.819 261.938L176.263 250.56V232.366V212.677C176.263 205.355 182.199 199.419 189.521 199.419C196.087 199.419 201.664 204.225 202.634 210.72L202.696 211.135L204.588 237.799V250.934C204.588 252.502 204.471 254.068 204.238 255.618L203.389 261.27C202.93 264.327 201.977 267.29 200.567 270.041L198.165 274.728C197.681 275.673 197.428 276.719 197.428 277.781C197.428 281.478 194.431 284.475 190.734 284.475Z" fill="#81584A"/>
<path d="M187.815 330.528H194.943C199.053 330.528 202.385 333.945 202.385 338.159C202.385 342.374 199.053 345.79 194.943 345.79H187.815C183.705 345.79 180.373 342.374 180.373 338.159C180.373 333.945 183.705 330.528 187.815 330.528Z" fill="#9D6B5A"/>
<path d="M182.838 333.671H199.92C201.281 333.671 202.385 335.311 202.385 337.335V342.127C202.385 344.15 201.281 345.791 199.92 345.791H182.838C181.477 345.791 180.373 344.15 180.373 342.127V337.335C180.373 335.311 181.477 333.671 182.838 333.671Z" fill="#9D6B5A"/>
<path d="M162.674 266.086L161.747 266.086C157.302 266.086 153.699 269.689 153.699 274.134L153.699 301.33L153.699 319.551L152.068 338.226C152.068 342.307 155.401 345.615 159.512 345.615H161.247C165.358 345.615 168.691 342.307 168.691 338.226V310.354C168.691 308.619 169.075 306.906 169.815 305.337C170.555 303.768 170.939 302.054 170.939 300.319V296.371C170.939 294.339 170.728 292.311 170.309 290.322L170.293 290.246C169.864 288.207 169.648 286.128 169.648 284.044V273.06C169.648 272.718 169.623 272.377 169.573 272.038C169.066 268.618 166.131 266.086 162.674 266.086Z" fill="#906253"/>
<path d="M160.453 284.298H162.46C166.414 284.298 169.619 281.093 169.619 277.139C169.619 276.377 169.741 275.62 169.979 274.897L170.845 272.27C171.208 271.17 171.492 270.045 171.695 268.904L172.965 261.761L174.491 250.383V232.189V212.226C174.491 205.055 168.678 199.242 161.507 199.242C155.063 199.242 149.593 203.969 148.66 210.346L148.57 210.959L146.715 237.622V250.803C146.715 252.34 146.827 253.876 147.051 255.397L147.892 261.106C148.341 264.156 149.276 267.114 150.66 269.868L153.021 274.566C153.491 275.501 153.736 276.534 153.736 277.582C153.736 281.291 156.743 284.298 160.453 284.298Z" fill="#81584A"/>
<path d="M163.158 330.352H156.169C152.138 330.352 148.871 333.768 148.871 337.982C148.871 342.197 152.138 345.613 156.169 345.613H163.158C167.189 345.613 170.456 342.197 170.456 337.982C170.456 333.768 167.189 330.352 163.158 330.352Z" fill="#9D6B5A"/>
<path d="M168.039 333.494H151.288C149.953 333.494 148.871 335.135 148.871 337.158V341.95C148.871 343.974 149.953 345.614 151.288 345.614H168.039C169.374 345.614 170.456 343.974 170.456 341.95V337.158C170.456 335.135 169.374 333.494 168.039 333.494Z" fill="#9D6B5A"/>
<path d="M190.845 73.8691H157.887C154.119 73.8691 151.064 77.9081 151.064 82.8904C151.064 87.8727 154.119 91.9117 157.887 91.9117H190.845C194.613 91.9117 197.668 87.8727 197.668 82.8904C197.668 77.9081 194.613 73.8691 190.845 73.8691Z" fill="#9D6B5A"/>
<path d="M192.034 78.1631H156.075C152.964 78.1631 150.441 81.1752 150.441 84.8908C150.441 88.6064 152.964 91.6185 156.075 91.6185H192.034C195.146 91.6185 197.668 88.6064 197.668 84.8908C197.668 81.1752 195.146 78.1631 192.034 78.1631Z" fill="#81584A"/>
<path d="M178.927 48.5127H167.991C158.93 48.5127 151.585 57.1363 151.585 67.774L151.584 93.0636C151.584 103.701 158.93 109.861 167.991 109.861H178.927C187.988 109.861 195.333 103.701 195.333 93.0636V67.774C195.333 57.1363 187.988 48.5127 178.927 48.5127Z" fill="#9D6B5A"/>
<path d="M181.938 107.329H168.928C167.521 107.329 166.381 108.381 166.381 109.678C166.381 110.975 167.521 112.027 168.928 112.027H181.938C183.345 112.027 184.485 110.975 184.485 109.678C184.485 108.381 183.345 107.329 181.938 107.329Z" fill="#9D6B5A"/>
<path d="M168.949 125.334L160.686 121.362C159.767 120.92 158.663 121.307 158.221 122.226C157.779 123.146 158.166 124.249 159.086 124.691L167.348 128.663C168.268 129.105 169.371 128.718 169.813 127.799C170.255 126.879 169.868 125.776 168.949 125.334Z" fill="#81584A"/>
<path d="M178.79 125.334L187.052 121.362C187.971 120.92 189.075 121.307 189.517 122.226C189.959 123.146 189.572 124.249 188.653 124.691L180.39 128.663C179.471 129.105 178.367 128.718 177.925 127.799C177.483 126.879 177.87 125.776 178.79 125.334Z" fill="#81584A"/>
<path d="M151.225 199.419C149.708 199.419 148.244 199.663 146.859 200.111C148.481 217.91 160.703 231.661 175.642 231.661C190.773 231.661 203.119 217.553 204.482 199.419H204.478H151.225Z" fill="#4F4F4F"/>
<path d="M202.366 197.454H148.832C147.663 197.454 146.715 198.534 146.715 199.865V203.599C146.715 204.931 147.663 206.01 148.832 206.01H202.366C203.535 206.01 204.482 204.931 204.482 203.599V199.865C204.482 198.534 203.535 197.454 202.366 197.454Z" fill="#5B5B5B"/>
<path d="M175.712 106.232H172.835C172.605 106.232 172.418 106.465 172.418 106.752V107.059C172.418 107.346 172.605 107.578 172.835 107.578H175.712C175.942 107.578 176.129 107.346 176.129 107.059V106.752C176.129 106.465 175.942 106.232 175.712 106.232Z" fill="#81584A"/>
<path d="M177.892 83.5246C177.892 81.3801 176.499 79.6416 174.78 79.6416C173.061 79.6416 171.668 81.3801 171.668 83.5246V90.3769C171.668 92.5214 173.061 94.2598 174.78 94.2598C176.499 94.2598 177.892 92.5214 177.892 90.3769V83.5246Z" fill="#81584A"/>
<path d="M167.169 79.7074C167.169 78.3653 166.297 77.2773 165.221 77.2773C164.145 77.2773 163.273 78.3653 163.273 79.7074V80.6795C163.273 82.0216 164.145 83.1095 165.221 83.1095C166.297 83.1095 167.169 82.0216 167.169 80.6795V79.7074Z" fill="#61534B"/>
<path d="M186.059 79.7074C186.059 78.3653 185.187 77.2773 184.112 77.2773C183.036 77.2773 182.164 78.3653 182.164 79.7074V80.6795C182.164 82.0216 183.036 83.1095 184.112 83.1095C185.187 83.1095 186.059 82.0216 186.059 80.6795V79.7074Z" fill="#61534B"/>
<path d="M178.272 103.533C181.139 103.533 183.447 100.458 183.447 96.6366V95.5205H166.021V96.6366C166.021 100.458 168.329 103.533 171.196 103.533H178.272Z" fill="white"/>
<path d="M174.36 91.3271L171.465 88.2587C170.987 87.7518 170.27 87.8245 169.864 88.4211C169.458 89.0177 169.516 89.9123 169.994 90.4192L172.888 93.4876C173.366 93.9945 174.083 93.9218 174.49 93.3252C174.896 92.7286 174.838 91.834 174.36 91.3271Z" fill="#81584A"/>
<path d="M175.191 91.3271L178.085 88.2587C178.564 87.7518 179.281 87.8245 179.687 88.4211C180.093 89.0177 180.035 89.9123 179.557 90.4192L176.662 93.4875C176.184 93.9945 175.467 93.9218 175.061 93.3252C174.655 92.7286 174.713 91.834 175.191 91.3271Z" fill="#81584A"/>
<path d="M176.584 89.3552C176.584 88.3263 175.916 87.4922 175.091 87.4922C174.266 87.4922 173.598 88.3263 173.598 89.3552V91.0563C173.598 92.0852 174.266 92.9194 175.091 92.9194C175.916 92.9194 176.584 92.0852 176.584 91.0563V89.3552Z" fill="#906253"/>
<path d="M168.388 77.4075L162.188 75.3273C161.516 75.1018 160.902 75.412 160.818 76.0203C160.733 76.6286 161.209 77.3045 161.881 77.53L168.082 79.6102C168.754 79.8357 169.367 79.5255 169.452 78.9172C169.537 78.3089 169.06 77.633 168.388 77.4075Z" fill="#4D4D4D"/>
<path d="M162.286 76.9875C162.34 76.538 162.03 76.041 161.594 75.8774C161.158 75.7137 160.761 75.9454 160.707 76.3948L160.484 78.2587C160.43 78.7081 160.739 79.2051 161.175 79.3688C161.611 79.5324 162.009 79.3007 162.063 78.8513L162.286 76.9875Z" fill="#4D4D4D"/>
<path d="M180.801 77.4041L187.002 75.3251C187.674 75.0997 188.287 75.4101 188.372 76.0183C188.456 76.6266 187.98 77.3024 187.308 77.5278L181.107 79.6068C180.435 79.8322 179.822 79.5218 179.737 78.9135C179.653 78.3053 180.129 77.6295 180.801 77.4041Z" fill="#4D4D4D"/>
<path d="M186.903 76.9855C186.849 76.5361 187.159 76.0391 187.595 75.8754C188.031 75.7118 188.428 75.9434 188.482 76.3929L188.706 78.2567C188.76 78.7062 188.45 79.2032 188.014 79.3668C187.578 79.5305 187.181 79.2988 187.127 78.8493L186.903 76.9855Z" fill="#4D4D4D"/>
<path d="M172.78 76.4447C172.78 75.8437 172.389 75.3564 171.907 75.3564C171.426 75.3564 171.035 75.8437 171.035 76.4447V77.7621C171.035 78.3631 171.426 78.8504 171.907 78.8504C172.389 78.8504 172.78 78.3631 172.78 77.7621V76.4447Z" fill="#81584A"/>
<path d="M178.565 76.4447C178.565 75.8437 178.174 75.3564 177.693 75.3564C177.211 75.3564 176.82 75.8437 176.82 76.4447V77.7621C176.82 78.3631 177.211 78.8504 177.693 78.8504C178.174 78.8504 178.565 78.3631 178.565 77.7621V76.4447Z" fill="#81584A"/>
<path d="M176.58 89.3504C176.58 88.3214 175.912 87.4873 175.087 87.4873C174.262 87.4873 173.594 88.3214 173.594 89.3504V91.0514C173.594 92.0804 174.262 92.9145 175.087 92.9145C175.912 92.9145 176.58 92.0804 176.58 91.0514V89.3504Z" fill="#906253"/>
<path d="M168.195 76.9567L161.988 75.9015C161.315 75.7871 160.786 76.139 160.807 76.6876C160.828 77.2362 161.39 77.7736 162.063 77.888L168.27 78.9433C168.943 79.0577 169.472 78.7057 169.451 78.1571C169.43 77.6086 168.868 77.0711 168.195 76.9567Z" fill="#4D4D4D"/>
<path d="M162.137 77.5264C162.123 77.0686 161.791 76.6262 161.395 76.5382C161 76.4502 160.691 76.75 160.705 77.2078L160.764 79.1063C160.778 79.564 161.11 80.0065 161.506 80.0945C161.901 80.1824 162.21 79.8826 162.196 79.4249L162.137 77.5264Z" fill="#4D4D4D"/>
<path d="M181.156 76.5606L187.213 75.8724C187.87 75.7978 188.344 76.271 188.272 76.9294C188.2 77.5878 187.609 78.182 186.953 78.2566L180.895 78.9448C180.238 79.0194 179.764 78.5462 179.836 77.8878C179.908 77.2294 180.499 76.6352 181.156 76.5606Z" fill="#4D4D4D"/>
<path d="M187.151 77.7193C187.189 77.2455 187.491 76.8218 187.827 76.773C188.162 76.7242 188.403 77.0686 188.365 77.5424L188.207 79.5072C188.169 79.981 187.866 80.4046 187.531 80.4535C187.196 80.5023 186.955 80.1578 186.993 79.684L187.151 77.7193Z" fill="#4D4D4D"/>
<path d="M156.618 55.9766C153.537 59.4758 151.607 64.5327 151.607 70.1752V92.8728C151.607 103.484 158.43 112.026 166.904 112.026H180.33C188.804 112.026 195.627 103.484 195.627 92.8728V70.1752C195.627 64.5327 193.698 59.4758 190.617 55.9766C192.964 59.3893 194.384 63.8344 194.384 68.7124V91.8234C194.384 102.628 187.437 111.326 178.809 111.326H168.427C159.798 111.326 152.851 102.628 152.851 91.8234V68.7124C152.851 63.8344 154.27 59.3893 156.618 55.9766Z" fill="#565656"/>
<path d="M166.991 90.2041C163.57 90.2041 160.816 93.6523 160.816 97.9358V106.981C160.816 111.264 163.57 114.712 166.991 114.712H180.241C183.662 114.712 186.416 111.264 186.416 106.981V97.9358C186.416 93.6523 183.662 90.2041 180.241 90.2041H178.944C178.99 90.6753 178.852 91.1644 178.54 91.4961L178.016 92.0532C178.327 92.418 178.558 92.8885 178.658 93.4275H180.455C182.368 93.4275 183.908 95.355 183.908 97.7501V101.639C183.908 102.548 183.686 103.388 183.306 104.083V105.15C183.306 108.569 181.108 111.322 178.377 111.322H168.855C166.124 111.322 163.926 108.569 163.926 105.15V104.083C163.546 103.388 163.324 102.548 163.324 101.639V97.7501C163.324 95.355 164.864 93.4275 166.777 93.4275H167.907C168.042 92.7022 168.407 92.0941 168.898 91.7159L168.692 91.4961C168.38 91.1644 168.242 90.6753 168.288 90.2041H166.991Z" fill="#565656"/>
<path d="M196.906 72.0618C196.826 72.0536 196.745 72.0534 196.663 72.0627C196.57 72.0733 196.475 72.096 196.382 72.131L196.19 72.2029C195.568 72.4361 195.179 73.1526 195.193 73.924C195.133 73.8162 195.06 73.7221 194.984 73.635V76.0254C197.676 77.4191 199.56 80.7275 199.56 84.6067C199.56 88.5066 197.656 91.8284 194.941 93.2091C194.863 94.6019 194.666 95.9514 194.369 97.2471V98.5837C194.3 98.446 194.218 98.3202 194.127 98.2053C192.773 103.124 189.897 107.14 186.192 109.382V112.381C186.192 113.587 186.969 114.558 187.935 114.558H188.739C189.704 114.558 190.482 113.587 190.482 112.381V111.795C190.743 112.583 191.363 113.134 192.09 113.134H192.894C193.86 113.134 194.637 112.163 194.637 110.957V110.268C194.944 110.882 195.486 111.292 196.111 111.292C197.077 111.292 197.854 110.321 197.854 109.115V96.8844L198.212 98.3744C198.437 99.3074 199.219 99.8336 199.965 99.5533C200.712 99.2731 201.133 98.2957 200.908 97.3627L198.997 89.4111C199.349 89.9058 199.908 90.1316 200.451 89.9279L200.643 89.8552C201.39 89.5749 201.81 88.5985 201.586 87.6654L198.135 73.3091C197.963 72.5948 197.465 72.1197 196.906 72.0618V72.0618ZM151.6 72.1801C151.041 72.2379 150.542 72.713 150.371 73.4274L146.92 87.7836C146.695 88.7167 147.116 89.6932 147.863 89.9734L148.055 90.0461C148.598 90.2498 149.157 90.024 149.509 89.5293L147.598 97.4809C147.373 98.414 147.794 99.3913 148.54 99.6716C149.287 99.9518 150.069 99.4265 150.294 98.4935L150.366 98.193V109.115C150.366 110.321 151.142 111.292 152.108 111.292C152.733 111.292 153.275 110.882 153.583 110.268V110.957C153.583 112.163 154.359 113.134 155.325 113.134H156.129C156.856 113.134 157.475 112.584 157.738 111.798V112.381C157.738 113.587 158.515 114.558 159.48 114.558H160.284C161.25 114.558 162.027 113.587 162.027 112.381V109.303C158.356 107.029 155.516 103.005 154.191 98.0923C154.059 98.2348 153.943 98.3984 153.851 98.5837V96.6523C153.625 95.5397 153.473 94.3899 153.407 93.2091C150.693 91.8284 148.788 88.5065 148.788 84.6067C148.788 80.7275 150.672 77.4191 153.364 76.0253V73.9643C153.347 73.9907 153.328 74.0145 153.313 74.0423C153.327 73.2711 152.937 72.5543 152.316 72.3211L152.124 72.2493C152.031 72.2142 151.936 72.1916 151.843 72.1809C151.761 72.1717 151.68 72.1718 151.6 72.18V72.1801Z" fill="#4D4D4D"/>
<path d="M164.864 48.1387C156.981 48.1387 150.635 56.0678 150.635 65.9171C150.635 66.3797 150.654 66.8362 150.681 67.2897C150.654 67.5217 150.635 67.7574 150.635 67.9992V78.8903C150.635 81.2275 151.957 83.1639 153.722 83.6019V69.3893C153.722 59.2153 160.278 51.0239 168.42 51.0239H179.919C188.062 51.0239 194.617 59.2153 194.617 69.3893V83.6212C196.432 83.2334 197.807 81.272 197.807 78.8903V67.9992C197.807 67.7574 197.788 67.5217 197.761 67.2897C197.788 66.8362 197.807 66.3797 197.807 65.9171C197.807 56.0678 191.461 48.1387 183.578 48.1387H164.864Z" fill="#4D4D4D"/>
<path d="M181.013 45.8965H168.194C163.876 45.8965 160.375 50.2708 160.375 55.6667C160.375 61.0626 163.876 65.4369 168.194 65.4369H181.013C185.331 65.4369 188.832 61.0626 188.832 55.6667C188.832 50.2708 185.331 45.8965 181.013 45.8965Z" fill="#4D4D4D"/>
<path d="M164.735 52.1037C164.735 50.5778 163.745 49.3408 162.524 49.3408C161.302 49.3408 160.312 50.5778 160.312 52.1037V58.5104C160.312 60.0363 161.302 61.2733 162.524 61.2733C163.745 61.2733 164.735 60.0363 164.735 58.5104V52.1037Z" fill="#4D4D4D"/>
<path d="M189.856 52.3439C189.856 50.818 188.866 49.5811 187.645 49.5811C186.424 49.5811 185.434 50.818 185.434 52.3439V58.7506C185.434 60.2765 186.424 61.5135 187.645 61.5135C188.866 61.5135 189.856 60.2765 189.856 58.7506V52.3439Z" fill="#4D4D4D"/>
<path d="M159.472 55.2613C159.356 54.2544 158.609 53.5553 157.803 53.7C156.997 53.8446 156.438 54.7782 156.553 55.7851L156.927 59.0352C157.043 60.0421 157.79 60.7411 158.596 60.5965C159.402 60.4518 159.961 59.5183 159.845 58.5114L159.472 55.2613Z" fill="#4D4D4D"/>
<path d="M190.733 56.0533C190.849 55.0464 191.596 54.3473 192.402 54.492C193.208 54.6366 193.767 55.5702 193.652 56.5771L193.278 59.8272C193.162 60.8341 192.415 61.5331 191.609 61.3885C190.803 61.2438 190.244 60.3103 190.36 59.3034L190.733 56.0533Z" fill="#4D4D4D"/>
<path d="M173.069 50.748H174.45C175.264 50.748 175.924 51.5727 175.924 52.59V59.317C175.924 60.3343 175.264 61.1589 174.45 61.1589H173.069C172.255 61.1589 171.595 60.3343 171.595 59.317V52.59C171.595 51.5727 172.255 50.748 173.069 50.748Z" fill="#565656"/>
<path d="M167.11 50.9473H168.932C169.569 50.9473 170.086 51.5927 170.086 52.3888V59.5162C170.086 60.3124 169.569 60.9577 168.932 60.9577H167.11C166.473 60.9577 165.956 60.3124 165.956 59.5162V52.3888C165.956 51.5927 166.473 50.9473 167.11 50.9473Z" fill="#565656"/>
<path d="M180.405 50.9473H178.583C177.946 50.9473 177.43 51.5927 177.43 52.3888V59.5162C177.43 60.3124 177.946 60.9577 178.583 60.9577H180.405C181.043 60.9577 181.559 60.3124 181.559 59.5162V52.3888C181.559 51.5927 181.043 50.9473 180.405 50.9473Z" fill="#565656"/>
</svg>
