<?xml version="1.0" encoding="UTF-8" standalone="no"?>
<!DOCTYPE svg PUBLIC "-//W3C//DTD SVG 1.1//EN" "http://www.w3.org/Graphics/SVG/1.1/DTD/svg11.dtd">
<svg width="100%" height="100%" viewBox="0 0 144 342" version="1.1" xmlns="http://www.w3.org/2000/svg" xmlns:xlink="http://www.w3.org/1999/xlink" xml:space="preserve" xmlns:serif="http://www.serif.com/" style="fill-rule:evenodd;clip-rule:evenodd;stroke-linejoin:round;stroke-miterlimit:2;">
    <g id="legs" transform="matrix(0.886305,0,0,1,7.74247,0)">
        <g id="leg-left" transform="matrix(0.882778,0,0,1,-87.5369,15.6584)">
            <g id="tibia-left" transform="matrix(1,0,0,1,-0.425705,-0.666924)">
                <path d="M188.016,245.119L190.098,245.119C195.32,245.119 199.554,249.353 199.554,254.575L199.555,279.902L199.554,297.885L201.448,316.315C201.448,320.343 197.579,323.607 192.805,323.607L190.79,323.607C186.017,323.607 182.148,320.343 182.148,316.315L182.148,288.898C182.148,287.134 181.036,264.888 181.036,262.816L181.036,252.099C181.036,251.697 181.071,251.296 181.14,250.9C181.722,247.558 184.624,245.119 188.016,245.119Z" style="fill:rgb(144,98,83);fill-rule:nonzero;"/>
            </g>
            <g id="thigh-left" transform="matrix(1,0,0,1,0.852397,-0.666924)">
                <path d="M191.234,175.194L198.765,175.194C200.706,175.194 202.433,176.426 203.066,178.261C203.159,178.532 203.227,178.812 203.267,179.096L205.012,212.407C205.224,213.888 205.331,215.383 205.331,216.879L205.331,227.951C205.331,229.68 205.188,231.407 204.905,233.113L203.979,238.677C203.448,241.863 202.36,244.931 200.766,247.74C200.766,247.74 198.473,252.658 198.473,253.827C198.473,257.557 198.968,262.681 193.467,262.595L189.015,262.595C185.02,262.595 179.769,262.611 179.769,258.615C179.769,257.753 179.606,247.946 179.37,246.772L177.896,239.436L176.479,230.087C176.243,228.528 176.124,226.953 176.124,225.376L176.124,190.304C176.124,181.959 182.889,175.194 191.234,175.194Z" style="fill:rgb(129,88,74);fill-rule:nonzero;"/>
            </g>
            <g id="foot-left" transform="matrix(1,0,0,1,-2.5562,0)">
                <g id="color3" transform="matrix(1,0,0,1,0.852397,-0.666924)">
                    <path d="M188.995,308.505L197.11,308.505C201.79,308.505 205.584,311.878 205.584,316.037C205.584,320.196 201.79,323.568 197.11,323.568L188.995,323.568C184.316,323.568 180.521,320.196 180.521,316.037C180.521,311.878 184.316,308.505 188.995,308.505Z" style="fill:rgb(157,107,90);fill-rule:nonzero;"/>
                </g>
                <g id="color31" serif:id="color3" transform="matrix(1,0,0,1,0.852397,-0.666924)">
                    <path d="M183.327,311.254L202.778,311.254C204.327,311.254 205.584,312.872 205.584,314.87L205.584,319.599C205.584,321.596 204.327,323.215 202.778,323.215L183.327,323.215C181.778,323.215 180.521,321.596 180.521,319.599L180.521,314.87C180.521,312.872 181.778,311.254 183.327,311.254Z" style="fill:rgb(157,107,90);fill-rule:nonzero;"/>
                </g>
            </g>
        </g>
        <g id="leg-right" transform="matrix(0.882778,0,0,1,-86.7845,14.9914)">
            <g id="tibia-right" transform="matrix(-1,0,0,1,352.135,0)">
                <path d="M188.016,245.119L190.098,245.119C195.32,245.119 199.554,249.353 199.554,254.575L199.555,279.902L199.554,297.885L201.448,316.315C201.448,320.343 197.579,323.607 192.805,323.607L190.79,323.607C186.017,323.607 182.148,320.343 182.148,316.315L182.148,288.898C182.148,287.134 181.036,264.888 181.036,262.816L181.036,252.099C181.036,251.697 181.071,251.296 181.14,250.9C181.722,247.558 184.624,245.119 188.016,245.119Z" style="fill:rgb(144,98,83);fill-rule:nonzero;"/>
            </g>
            <g id="thigh-right" transform="matrix(-1,0,0,1,350.857,0)">
                <path d="M191.234,175.194L198.765,175.194C200.706,175.194 202.433,176.426 203.066,178.261C203.159,178.532 203.227,178.812 203.267,179.096L205.012,212.407C205.224,213.888 205.331,215.383 205.331,216.879L205.331,227.951C205.331,229.68 205.188,231.407 204.905,233.113L203.979,238.677C203.448,241.863 202.36,244.931 200.766,247.74C200.766,247.74 198.473,252.658 198.473,253.827C198.473,257.557 198.968,262.681 193.467,262.595L189.015,262.595C185.02,262.595 179.769,262.611 179.769,258.615C179.769,257.753 179.606,247.946 179.37,246.772L177.896,239.436L176.479,230.087C176.243,228.528 176.124,226.953 176.124,225.376L176.124,190.304C176.124,181.959 182.889,175.194 191.234,175.194Z" style="fill:rgb(129,88,74);fill-rule:nonzero;"/>
            </g>
            <g id="foot-right" transform="matrix(0.999999,0,0,1,1.70402,0.66697)">
                <g id="color32" serif:id="color3" transform="matrix(1,0,0,1,0.852397,-0.666924)">
                    <path d="M161.873,308.505L153.757,308.505C149.077,308.505 145.284,311.889 145.284,316.063C145.284,320.237 149.077,323.62 153.757,323.62L161.873,323.62C166.552,323.62 170.346,320.237 170.346,316.063C170.346,311.889 166.552,308.505 161.873,308.505Z" style="fill:rgb(157,107,90);fill-rule:nonzero;"/>
                </g>
                <g id="color33" serif:id="color3" transform="matrix(1,0,0,1,0.852397,-0.666924)">
                    <path d="M167.54,315.333L148.09,315.333C146.541,315.333 145.284,316.454 145.284,317.836L145.284,321.11C145.284,322.492 146.541,323.612 148.09,323.612L167.54,323.612C169.09,323.612 170.346,322.492 170.346,321.11L170.346,317.836C170.346,316.454 169.09,315.333 167.54,315.333Z" style="fill:rgb(157,107,90);fill-rule:nonzero;"/>
                </g>
            </g>
        </g>
    </g>
    <g transform="matrix(0.765861,0,0,1,16.0859,0)">
        <g id="deltoids">
            <path d="M67.966,106.844C69.318,106.844 70.665,106.918 72,107.062C88.102,108.799 102.453,120.694 102.453,135.201L99.925,150.733L94.216,181.102C94.216,196.812 85.624,195.5 67.966,195.5C50.308,195.5 42.949,194.881 42.949,179.171L36.092,150.733L36.092,135.201C36.092,119.491 50.308,106.844 67.966,106.844Z" style="fill:rgb(129,88,72);fill-opacity:0.99;fill-rule:nonzero;"/>
        </g>
    </g>
    <g transform="matrix(0.736641,0,0,1,17.932,0)">
        <g id="trunk">
            <path d="M67.925,170.441L68.948,170.441C85.891,170.441 91.39,161.677 94.171,173.555L97.394,193.561C100.172,205.429 85.891,219.108 68.948,219.108L67.925,219.108C50.982,219.108 36.062,204.73 38.84,192.862L43.266,173.555C46.047,161.677 50.982,170.441 67.925,170.441Z" style="fill:rgb(129,88,72);fill-rule:nonzero;"/>
        </g>
    </g>
    <g transform="matrix(0.729493,0,0,1,18.4211,0)">
        <g id="abs-back">
            <path d="M67.891,159.689C80.102,159.689 90.155,173.523 90.155,189.941L45.822,189.941C45.822,173.523 55.679,159.689 67.891,159.689Z" style="fill:rgb(142,96,81);fill-rule:nonzero;"/>
        </g>
    </g>
    <g id="arms" transform="matrix(0.886305,0,0,1,7.74247,0)">
        <g id="arm-right" transform="matrix(0.823073,0,0,1,13.1768,0)">
            <g id="bicep-left" transform="matrix(-1,0,0,1,135.265,-1)">
                <path d="M106.462,123.095C111.637,122.094 118.302,129.561 119.442,135.456C119.442,135.456 122.81,165.967 122.778,168.331C122.721,172.472 120.833,175.509 116.751,176.298C112.294,177.161 109.333,174.941 107.869,170.542C107.372,169.049 104.407,142.901 104.336,141.317C104.141,136.962 102.568,123.848 106.462,123.095Z" style="fill:rgb(157,107,90);fill-rule:nonzero;"/>
            </g>
            <g id="forearm-left" transform="matrix(-1,0,0,1,135.265,-1)">
                <path d="M114.564,156.787L114.631,156.785C118.872,156.654 122.55,161.363 122.846,167.302L125.069,211.902C125.364,217.842 122.166,222.763 117.924,222.894L117.858,222.896C113.617,223.027 109.938,218.318 109.642,212.378L107.42,167.778C107.124,161.838 110.323,156.917 114.564,156.787Z" style="fill:rgb(157,107,90);fill-rule:nonzero;"/>
            </g>
            <g id="hand-right">
                <path d="M21.541,202.739L18.875,202.724C13.766,202.697 9.384,208.241 9.086,215.107L8.822,221.207C8.524,228.073 12.424,233.661 17.533,233.688L20.198,233.703C25.307,233.73 29.689,228.186 29.987,221.32L30.252,215.22C30.549,208.354 26.649,202.766 21.541,202.739Z" style="fill:rgb(144,98,83);fill-rule:nonzero;"/>
                <path d="M22.199,220.089C21.088,215.722 17.169,213.511 13.447,215.15C9.725,216.789 7.608,221.658 8.719,226.024L11.755,237.95C12.866,242.316 16.785,244.527 20.507,242.888C24.23,241.249 26.346,236.381 25.235,232.014L22.199,220.089Z" style="fill:rgb(144,98,83);fill-rule:nonzero;"/>
            </g>
            <path id="thumb-right" d="M30.913,217.757C31.038,214.713 29.332,212.235 27.101,212.221C24.871,212.207 22.961,214.664 22.835,217.708L22.492,226.021C22.366,229.065 24.073,231.544 26.304,231.558C28.534,231.571 30.444,229.115 30.57,226.071L30.913,217.757Z" style="fill:rgb(157,107,90);fill-rule:nonzero;"/>
        </g>
        <g id="arm-left" transform="matrix(0.823073,0,0,1,12.0485,0)">
            <path id="bicep-left1" serif:id="bicep-left" d="M106.462,123.095C111.637,122.094 118.302,129.561 119.442,135.456C119.442,135.456 122.81,165.967 122.778,168.331C122.721,172.472 120.833,175.509 116.751,176.298C112.294,177.161 109.333,174.941 107.869,170.542C107.372,169.049 104.407,142.901 104.336,141.317C104.141,136.962 102.568,123.848 106.462,123.095Z" style="fill:rgb(157,107,90);fill-rule:nonzero;"/>
            <path id="forearm-left1" serif:id="forearm-left" d="M114.564,156.787L114.631,156.785C118.872,156.654 122.55,161.363 122.846,167.302L125.069,211.902C125.364,217.842 122.166,222.763 117.924,222.894L117.858,222.896C113.617,223.027 109.938,218.318 109.642,212.378L107.42,167.778C107.124,161.838 110.323,156.917 114.564,156.787Z" style="fill:rgb(157,107,90);fill-rule:nonzero;"/>
            <g id="hand-left">
                <path d="M114.657,202.739L117.322,202.724C122.431,202.697 126.814,208.241 127.111,215.107L127.376,221.207C127.673,228.073 123.773,233.661 118.665,233.688L115.999,233.703C110.89,233.73 106.508,228.186 106.21,221.32L105.946,215.22C105.648,208.354 109.548,202.766 114.657,202.739Z" style="fill:rgb(144,98,83);fill-rule:nonzero;"/>
                <path d="M113.998,220.089C115.109,215.722 119.028,213.511 122.75,215.15C126.473,216.789 128.589,221.658 127.478,226.024L124.442,237.95C123.331,242.316 119.412,244.527 115.69,242.888C111.968,241.249 109.851,236.381 110.962,232.014L113.998,220.089Z" style="fill:rgb(144,98,83);fill-rule:nonzero;"/>
            </g>
            <path id="thumb-left" d="M105.284,217.757C105.159,214.713 106.865,212.235 109.096,212.221C111.327,212.207 113.237,214.664 113.362,217.708L113.705,226.021C113.831,229.065 112.124,231.544 109.894,231.558C107.663,231.571 105.753,229.115 105.627,226.071L105.284,217.757Z" style="fill:rgb(157,107,90);fill-rule:nonzero;"/>
        </g>
    </g>
    <g transform="matrix(0.729493,0,0,1,18.4211,0)">
        <g id="shoulders">
            <path d="M29.534,115.593L106.806,115.593C114.464,115.593 120.629,121.338 120.629,128.475C120.629,135.612 114.464,141.357 106.806,141.357L29.534,141.357C21.876,141.357 15.711,135.612 15.711,128.475C15.711,121.338 21.876,115.593 29.534,115.593Z" style="fill:rgb(144,98,83);fill-rule:nonzero;"/>
        </g>
    </g>
    <g transform="matrix(0.729493,0,0,1,18.4211,0)">
        <g id="bust">
            <path d="M56.05,114.065L80.145,114.065C93.609,114.065 104.447,123.957 104.447,136.245C104.447,148.532 93.609,158.424 80.145,158.424L56.05,158.424C42.587,158.424 31.748,148.532 31.748,136.245C31.748,123.957 42.587,114.065 56.05,114.065Z" style="fill:rgb(157,107,90);fill-rule:nonzero;"/>
        </g>
    </g>
    <g transform="matrix(0.729493,0,0,1,18.4211,0)">
        <g id="breasts-back">
            <path d="M68.738,141.357C71.873,141.357 74.397,143.882 74.397,147.017L74.397,152.266C74.397,155.402 71.873,157.926 68.738,157.926C65.602,157.926 63.078,155.402 63.078,152.266L63.078,147.017C63.078,143.882 65.602,141.357 68.738,141.357Z" style="fill:rgb(129,88,72);fill-opacity:0.99;fill-rule:nonzero;"/>
        </g>
    </g>
    <g transform="matrix(0.729493,0,0,1,18.4211,0)">
        <g id="breasts">
            <path d="M54.444,135.418C52.947,135.418 51.559,135.806 50.402,136.471C46.559,136.687 42.956,138.137 40.324,140.526C37.692,142.915 36.227,146.065 36.227,149.338C36.227,152.758 37.826,156.039 40.673,158.457C43.519,160.876 47.38,162.234 51.406,162.234C55.073,162.231 58.614,161.099 61.376,159.049C64.137,156.999 65.932,154.169 66.428,151.081C66.53,150.658 66.585,150.219 66.585,149.769L66.585,141.754C66.585,138.244 63.323,135.418 59.272,135.418L54.444,135.418ZM76.926,135.418C72.876,135.418 69.614,138.244 69.614,141.754L69.614,149.769C69.614,150.219 69.669,150.658 69.771,151.081C70.267,154.169 72.062,156.999 74.823,159.049C77.584,161.099 81.126,162.231 84.793,162.234C88.819,162.234 92.679,160.876 95.526,158.457C98.372,156.039 99.972,152.758 99.972,149.338C99.971,146.065 98.507,142.915 95.874,140.526C93.242,138.137 89.64,136.687 85.797,136.471C84.64,135.806 83.252,135.418 81.754,135.418L76.926,135.418Z" style="fill:rgb(157,107,90);fill-rule:nonzero;"/>
        </g>
    </g>
    <g id="bra" transform="matrix(0.886305,0,0,1,7.74247,0)">
        <g transform="matrix(0.823073,0,0,1,12.0485,0)">
            <path d="M40.414,142.376C38.68,141.746 36.798,145.506 35.178,146.125C35.034,146.926 34.958,147.737 34.951,148.55C34.952,156.86 42.019,163.596 50.737,163.596C55.145,163.586 59.348,161.819 62.328,158.722C62.171,151.185 55.392,147.811 48.092,145.162L40.414,142.376ZM87.67,145.162C80.518,147.758 73.841,150.943 73.445,158.265C76.436,161.636 80.827,163.585 85.458,163.596C94.176,163.596 101.243,156.86 101.243,148.55C101.236,147.8 101.171,147.052 101.047,146.311C99.303,145.573 97.248,141.685 95.346,142.376L87.67,145.162Z" style="fill:rgb(68,68,68);fill-rule:nonzero;"/>
        </g>
        <g transform="matrix(0.823073,0,0,1,12.0485,0)">
            <path d="M61.915,155.643L74.93,155.643C75.724,155.643 76.363,156.263 76.363,157.035C76.363,157.806 75.724,158.426 74.93,158.426L61.915,158.426C61.121,158.426 60.482,157.806 60.482,157.035C60.482,156.263 61.121,155.643 61.915,155.643Z" style="fill:rgb(68,68,68);fill-rule:nonzero;"/>
        </g>
        <g transform="matrix(0.823073,0,0,1,12.0485,0)">
            <path d="M95.425,142.297C95.306,142.306 95.188,142.331 95.07,142.374L87.472,145.13C81.474,147.306 75.816,149.901 73.988,155.048C76.92,157.992 80.998,159.679 85.283,159.689C93.226,159.689 99.78,154.042 100.773,146.733C100.752,146.578 100.739,146.421 100.713,146.267C99.095,145.582 97.206,142.16 95.425,142.297ZM40.375,142.307C38.75,142.205 37.018,145.508 35.515,146.083C35.479,146.285 35.448,146.487 35.42,146.69C36.393,154.02 42.957,159.689 50.915,159.689C55.03,159.679 58.962,158.124 61.871,155.379C60.152,150.077 54.41,147.347 48.297,145.13L40.698,142.374C40.591,142.335 40.483,142.314 40.375,142.307Z" style="fill:rgb(79,79,79);fill-rule:nonzero;"/>
        </g>
    </g>
    <g id="abs" transform="matrix(0.886305,0,0,1,7.74247,0)">
        <g transform="matrix(0.823073,0,0,1,12.0485,-5)">
            <path d="M63.27,172.62L57.529,172.62C55.807,172.62 54.412,173.647 54.412,174.914L54.412,177.569C54.412,178.836 55.807,179.863 57.529,179.863L63.27,179.863C64.992,179.863 66.387,178.836 66.387,177.569L66.387,174.914C66.387,173.647 64.992,172.62 63.27,172.62Z" style="fill:rgb(157,107,90);fill-rule:nonzero;"/>
        </g>
        <g transform="matrix(0.823073,0,0,1,12.0485,-4)">
            <path d="M63.27,180.475L57.529,180.475C55.807,180.475 54.412,181.501 54.412,182.768L54.412,185.424C54.412,186.691 55.807,187.718 57.529,187.718L63.27,187.718C64.992,187.718 66.387,186.691 66.387,185.424L66.387,182.768C66.387,181.501 64.992,180.475 63.27,180.475Z" style="fill:rgb(157,107,90);fill-rule:nonzero;"/>
        </g>
        <g transform="matrix(0.823073,0,0,1,12.0485,-5)">
            <path d="M72.493,172.62L78.235,172.62C79.956,172.62 81.352,173.647 81.352,174.914L81.352,177.569C81.352,178.836 79.956,179.863 78.235,179.863L72.493,179.863C70.772,179.863 69.376,178.836 69.376,177.569L69.376,174.914C69.376,173.647 70.772,172.62 72.493,172.62Z" style="fill:rgb(157,107,90);fill-rule:nonzero;"/>
        </g>
        <g transform="matrix(0.823073,0,0,1,12.0485,-4)">
            <path d="M72.493,180.475L78.235,180.475C79.956,180.475 81.352,181.501 81.352,182.768L81.352,185.424C81.352,186.691 79.956,187.718 78.235,187.718L72.493,187.718C70.772,187.718 69.376,186.691 69.376,185.424L69.376,182.768C69.376,181.501 70.772,180.475 72.493,180.475Z" style="fill:rgb(157,107,90);fill-rule:nonzero;"/>
        </g>
    </g>
    <g id="head-container">
        <g id="neck">
            <path d="M68.298,77.641C76.44,77.641 82.996,87.506 82.996,99.761L82.996,108.836C82.996,121.091 76.44,130.957 68.298,130.957C60.155,130.957 53.6,121.091 53.6,108.836L53.6,99.761C53.6,87.506 60.155,77.641 68.298,77.641Z" style="fill:rgb(157,107,90);fill-rule:nonzero;"/>
            <path d="M66.083,79.298L70.511,79.298C75.609,79.298 79.713,85.036 79.713,92.164L79.713,97.442C79.713,104.57 75.609,110.308 70.511,110.308L66.083,110.308C60.985,110.308 56.881,104.57 56.881,97.442L56.881,92.164C56.881,85.036 60.985,79.298 66.083,79.298Z" style="fill:rgb(129,88,72);fill-rule:nonzero;"/>
            <path d="M52.07,116.33C51.131,116.33 50.375,117.086 50.375,118.025C50.375,118.964 51.131,119.719 52.07,119.719L61.494,119.719L64.199,121.691C64.96,122.246 66.019,122.08 66.574,121.319C67.129,120.558 66.963,119.499 66.202,118.944L63.401,116.902C63.372,116.881 63.34,116.869 63.31,116.85C63.003,116.53 62.572,116.33 62.091,116.33L52.07,116.33ZM74.11,116.33C73.629,116.33 73.198,116.53 72.891,116.85C72.861,116.869 72.829,116.881 72.8,116.902L69.999,118.944C69.238,119.499 69.072,120.558 69.627,121.319C70.182,122.08 71.241,122.246 72.001,121.691L74.707,119.719L84.131,119.719C85.07,119.719 85.826,118.964 85.826,118.025C85.826,117.086 85.07,116.33 84.131,116.33L74.11,116.33Z" style="fill:rgb(129,87,71);fill-rule:nonzero;"/>
        </g>
        <g id="ears">
            <path d="M45.78,67.241L91.731,67.241C97.001,67.241 101.243,71.484 101.243,76.754C101.243,82.024 97.001,86.266 91.731,86.266L45.78,86.266C40.51,86.266 36.268,82.024 36.268,76.754C36.268,71.484 40.51,67.241 45.78,67.241Z" style="fill:rgb(142,96,81);fill-rule:nonzero;"/>
            <path d="M46.114,69.66L91.395,69.66C95.325,69.66 98.489,72.824 98.489,76.754C98.489,80.684 95.325,83.848 91.395,83.848L46.114,83.848C42.184,83.848 39.02,80.684 39.02,76.754C39.02,72.824 42.184,69.66 46.114,69.66Z" style="fill:rgb(129,88,72);fill-rule:nonzero;"/>
        </g>
        <path id="head" d="M63.59,40.504L73.919,40.504C82.504,40.504 96.082,52.625 96.082,64.545L96.082,81.458C96.082,93.378 83.356,106.424 74.239,106.424L63.271,106.424C54.154,106.424 41.428,93.378 41.428,81.458L41.428,64.545C41.428,52.625 55.005,40.504 63.59,40.504Z" style="fill:rgb(157,107,90);fill-rule:nonzero;"/>
        <path id="chin" d="M66.431,100.002L69.405,100.002C69.644,100.002 69.836,100.17 69.836,100.378L69.836,100.6C69.836,100.808 69.644,100.976 69.405,100.976L66.431,100.976C66.192,100.976 66,100.808 66,100.6L66,100.378C66,100.17 66.192,100.002 66.431,100.002Z" style="fill:rgb(129,88,72);fill-rule:nonzero;"/>
        <g id="nose">
            <path d="M68.752,73.22C70.575,73.22 72.043,74.772 72.043,76.699L72.043,82.84C72.043,84.767 70.575,86.319 68.752,86.319C66.929,86.319 65.461,84.767 65.461,82.84L65.461,76.699C65.461,74.772 66.929,73.22 68.752,73.22Z" style="fill:rgb(142,96,81);fill-rule:nonzero;"/>
            <path d="M74.237,82.373C74.237,83.909 72.937,85.144 71.323,85.144L66.183,85.144C64.569,85.144 63.27,83.909 63.27,82.373C63.27,80.838 64.569,79.603 66.183,79.603L71.323,79.603C72.937,79.603 74.237,80.838 74.237,82.373Z" style="fill:rgb(142,96,81);fill-rule:nonzero;"/>
        </g>
        <g id="faces">
            <path id="smile" d="M60.456,89.137C60.074,89.137 59.708,89.26 59.438,89.478C59.167,89.696 59.016,89.993 59.016,90.302L59.016,91.179C59.016,92.91 59.632,94.496 60.721,95.705C61.811,96.915 63.459,97.771 65.344,97.771L72.031,97.771C73.916,97.771 75.565,96.915 76.654,95.705C77.744,94.496 78.36,92.91 78.36,91.179L78.36,90.302C78.36,89.993 78.208,89.696 77.938,89.478C77.668,89.26 77.301,89.137 76.919,89.137L60.456,89.137Z" style="fill:white;fill-rule:nonzero;"/>
            <path d="M52.511,65.683L61.768,66.438C62.775,66.52 63.519,67.397 63.437,68.403C63.355,69.41 62.478,70.154 61.472,70.072L52.214,69.317C51.208,69.235 50.463,68.359 50.545,67.352C50.627,66.345 51.504,65.601 52.511,65.683Z" style="fill:rgb(77,77,77);fill-rule:nonzero;"/>
            <path d="M49.378,67.324L51.199,66.115C51.938,65.625 52.926,65.825 53.417,66.563C53.907,67.302 53.707,68.291 52.969,68.781L51.147,69.99C50.409,70.48 49.42,70.28 48.93,69.542C48.44,68.803 48.639,67.814 49.378,67.324Z" style="fill:rgb(77,77,77);fill-rule:nonzero;"/>
            <path d="M84.993,65.683L75.736,66.438C74.729,66.52 73.985,67.397 74.067,68.403C74.149,69.41 75.026,70.154 76.032,70.072L85.29,69.317C86.296,69.235 87.041,68.359 86.959,67.352C86.876,66.345 86,65.601 84.993,65.683Z" style="fill:rgb(77,77,77);fill-rule:nonzero;"/>
            <path d="M88.126,67.324L86.305,66.115C85.566,65.625 84.577,65.825 84.087,66.563C83.597,67.302 83.797,68.291 84.535,68.781L86.357,69.99C87.095,70.48 88.084,70.28 88.574,69.542C89.064,68.803 88.865,67.814 88.126,67.324Z" style="fill:rgb(77,77,77);fill-rule:nonzero;"/>
            <g id="neutral" transform="matrix(1,0,0,0.350059,0,61.5456)">
                <path d="M60.456,89.137C60.074,89.137 59.708,89.26 59.438,89.478C59.167,89.696 59.016,89.993 59.016,90.302L59.016,91.179C59.016,92.91 58.637,95.682 59.726,96.892C60.816,98.102 63.459,97.771 65.344,97.771L72.031,97.771C73.916,97.771 76.352,98.41 77.442,97.2C78.532,95.99 78.36,92.91 78.36,91.179L78.36,90.302C78.36,89.993 78.208,89.696 77.938,89.478C77.668,89.26 77.301,89.137 76.919,89.137L60.456,89.137Z" style="fill:rgb(129,87,71);fill-rule:nonzero;"/>
            </g>
            <path d="M52.511,65.683L61.768,66.438C62.775,66.52 63.519,67.397 63.437,68.403C63.355,69.41 62.478,70.154 61.472,70.072L52.214,69.317C51.208,69.235 50.463,68.359 50.545,67.352C50.627,66.345 51.504,65.601 52.511,65.683Z" style="fill:rgb(77,77,77);fill-rule:nonzero;"/>
            <path d="M84.993,65.683L75.736,66.438C74.729,66.52 73.985,67.397 74.067,68.403C74.149,69.41 75.026,70.154 76.032,70.072L85.29,69.317C86.296,69.235 87.041,68.359 86.959,67.352C86.876,66.345 86,65.601 84.993,65.683Z" style="fill:rgb(77,77,77);fill-rule:nonzero;"/>
        </g>
        <g id="eyes">
            <path d="M56.866,70.773L58.077,70.773C59.177,70.773 60.062,71.659 60.062,72.758L60.062,75.553C60.062,76.652 59.177,77.537 58.077,77.537L56.866,77.537C55.766,77.537 54.881,76.652 54.881,75.553L54.881,72.758C54.881,71.659 55.766,70.773 56.866,70.773Z" style="fill:rgb(97,83,75);fill-rule:nonzero;"/>
            <path d="M80.638,70.773L79.427,70.773C78.327,70.773 77.442,71.659 77.442,72.758L77.442,75.553C77.442,76.652 78.327,77.537 79.427,77.537L80.638,77.537C81.738,77.537 82.623,76.652 82.623,75.553L82.623,72.758C82.623,71.659 81.738,70.773 80.638,70.773Z" style="fill:rgb(97,83,75);fill-rule:nonzero;"/>
        </g>
        <g id="hair">
            <path d="M64.388,37.762C49.459,37.762 37.44,49.78 37.44,64.71C37.44,70.377 39.175,75.622 42.14,79.953L42.14,68.5C42.14,64.23 44.266,59.932 47.349,56.312L59.044,56.292C63.755,56.283 67.546,52.499 67.546,47.789C67.546,47.515 67.531,47.244 67.506,46.977L70.01,46.977C69.985,47.244 69.97,47.515 69.97,47.789C69.97,52.499 73.761,56.283 78.472,56.292L90.194,56.312C93.277,59.932 95.403,64.23 95.403,68.5L95.403,79.953C98.368,75.622 100.104,70.377 100.104,64.71C100.104,49.78 88.084,37.762 73.155,37.762L64.388,37.762Z" style="fill:rgb(68,68,68);fill-rule:nonzero;"/>
            <path id="hair1" serif:id="hair" d="M76.945,31.724L60.559,31.724C56.371,31.724 52.977,35.118 52.977,39.306L52.977,43.164C52.977,47.352 56.371,50.747 60.559,50.747L76.945,50.747C81.132,50.747 84.527,47.352 84.527,43.164L84.527,39.306C84.527,35.118 81.132,31.724 76.945,31.724Z" style="fill:rgb(59,59,59);fill-rule:nonzero;"/>
        </g>
    </g>
    <g id="clothes" transform="matrix(0.886305,0,0,1,7.74247,0)">
        <g id="tshirt" transform="matrix(0.823073,0,0,1,12.0485,0)">
            <path d="M83.795,134.68L54.472,134.68C47.05,134.68 30.857,124.72 30.857,134.68L33.333,143.667C33.333,156.623 35.122,163.581 47.255,163.581L88.807,163.581C99.599,163.581 102.247,158.317 102.247,145.548L106.882,135.192C106.882,125.232 91.217,134.68 83.795,134.68Z" style="fill:rgb(151,68,68);fill-rule:nonzero;"/>
            <path d="M29.609,115.576C20.661,115.576 15.66,122.768 15.66,128.259C15.66,137.508 19.797,141.317 32.002,141.317L103.804,141.317C116.318,141.317 120.903,138.731 120.903,128.27C120.903,122.778 115.562,115.576 106.755,115.576L92.269,115.576C91.954,121.643 86.428,126.464 75.642,126.464L62.506,126.464C49.858,126.464 44.38,121.643 44.066,115.576L29.609,115.576Z" style="fill:rgb(151,68,68);fill-rule:nonzero;"/>
            <path d="M91.664,115.576C91.46,115.573 91.261,115.622 91.112,115.713C90.963,115.804 90.875,115.93 90.87,116.063C90.501,121.58 83.551,125.939 74.942,125.939L61.497,125.939C52.889,125.939 45.939,121.58 45.57,116.063C45.565,115.997 45.541,115.932 45.499,115.872C45.456,115.813 45.395,115.759 45.32,115.714C45.245,115.67 45.158,115.636 45.063,115.613C44.967,115.59 44.866,115.58 44.764,115.583C44.663,115.586 44.563,115.602 44.471,115.63C44.379,115.658 44.296,115.697 44.228,115.746C44.16,115.794 44.106,115.851 44.071,115.913C44.037,115.975 44.021,116.04 44.026,116.106C44.43,122.146 52.082,126.941 61.497,126.941L74.942,126.941C84.358,126.941 92.01,122.146 92.414,116.106C92.42,116.039 92.405,115.972 92.37,115.909C92.336,115.846 92.282,115.788 92.212,115.739C92.142,115.689 92.057,115.65 91.963,115.622C91.869,115.594 91.767,115.578 91.664,115.576Z" style="fill:rgb(105,48,48);fill-rule:nonzero;"/>
        </g>
        <g id="shorts" transform="matrix(0.823073,0,0,1,10.9202,0)">
            <path d="M40.407,189.941C42.023,212.673 53.205,230.272 68.096,230.272C83.182,230.272 97.138,213.345 98.497,190.185L40.407,189.941Z" style="fill:rgb(79,79,79);fill-rule:nonzero;"/>
            <path d="M98.523,190.185L69.117,194.4L70.246,230.5C69.684,235.619 69.904,240.737 70.801,245.856L101.518,245.856C103.139,216.851 105.041,207.297 98.523,190.185Z" style="fill:rgb(75,75,75);fill-rule:nonzero;"/>
            <path d="M40.372,190.185L68.621,194.384L68.621,230.174C68.835,235.493 68.723,240.775 68.149,246.005L37.432,245.823C37.223,216.721 33.664,207.353 40.372,190.185Z" style="fill:rgb(75,75,75);fill-rule:nonzero;"/>
        </g>
        <g id="shoes" transform="matrix(0.774528,0,0,1,-68.0935,12.6866)">
            <g transform="matrix(1.03217,0,0,1,-4.3562,1.33308)">
                <path d="M167.44,292.797L150.291,292.797C149.38,292.797 148.641,293.711 148.641,294.84L148.641,312.746C148.641,313.875 149.38,314.789 150.291,314.789L167.44,314.789C168.351,314.789 169.091,313.875 169.091,312.746L169.091,294.84C169.091,293.711 168.351,292.797 167.44,292.797Z" style="fill:white;fill-rule:nonzero;"/>
            </g>
            <g transform="matrix(1.13844,0,0,1.01162,-20.9629,-2.14246)">
                <path d="M160.515,299.103L155.085,299.103C153.795,299.103 152.749,300.398 152.749,301.995L152.749,304.59C152.749,306.188 153.795,307.483 155.085,307.483L160.515,307.483C161.806,307.483 162.851,306.188 162.851,304.59L162.851,301.995C162.851,300.398 161.806,299.103 160.515,299.103Z" style="fill:rgb(75,75,75);fill-rule:nonzero;"/>
            </g>
            <g transform="matrix(1.13844,0,0,1.01162,-20.9629,-2.14246)">
                <path d="M161.998,303.559L153.992,303.559C149.376,303.559 145.633,308.192 145.633,313.909C145.633,319.625 149.376,324.258 153.992,324.258L161.998,324.258C166.614,324.258 170.356,319.625 170.356,313.909C170.356,308.192 166.614,303.559 161.998,303.559Z" style="fill:rgb(79,79,79);fill-rule:nonzero;"/>
            </g>
            <g transform="matrix(1.13844,0,0,1.01162,-20.9629,-2.14246)">
                <path d="M168.068,312.961L148.107,312.961C146.517,312.961 145.228,314.496 145.228,316.388L145.228,320.87C145.228,322.764 146.517,324.299 148.107,324.299L168.068,324.299C169.659,324.299 170.948,322.764 170.948,320.87L170.948,316.388C170.948,314.496 169.659,312.961 168.068,312.961Z" style="fill:rgb(79,79,79);fill-rule:nonzero;"/>
            </g>
            <g transform="matrix(1.13844,0,0,1.01162,-20.9629,-2.14246)">
                <path d="M169.315,319.962L146.675,319.962C146.099,319.962 145.633,320.539 145.633,321.251L145.633,322.937C145.633,323.649 146.099,324.227 146.675,324.227L169.315,324.227C169.89,324.227 170.356,323.649 170.356,322.937L170.356,321.251C170.356,320.539 169.89,319.962 169.315,319.962Z" style="fill:white;fill-rule:nonzero;"/>
            </g>
            <g transform="matrix(1.13844,0,0,1.01162,-20.9629,-2.14246)">
                <path d="M161.087,304.079L154.739,304.079C154.408,304.079 154.14,304.411 154.14,304.821C154.14,305.23 154.408,305.562 154.739,305.562L161.087,305.562C161.417,305.562 161.686,305.23 161.686,304.821C161.686,304.411 161.417,304.079 161.087,304.079Z" style="fill:white;fill-rule:nonzero;"/>
            </g>
            <g transform="matrix(1.13844,0,0,1.01162,-31.16,-2.14246)">
                <path d="M163.244,308.853L160.194,308.853C159.119,308.853 158.246,309.932 158.246,311.265C158.246,312.597 159.119,313.677 160.194,313.677L163.244,313.677C164.32,313.677 165.191,312.597 165.191,311.265C165.191,309.932 164.32,308.853 163.244,308.853Z" style="fill:rgb(88,88,88);fill-rule:nonzero;"/>
            </g>
            <g transform="matrix(1.13844,0,0,1.01162,-20.9629,-2.14246)">
                <path d="M161.087,306.452L154.739,306.452C154.408,306.452 154.14,306.784 154.14,307.193C154.14,307.602 154.408,307.934 154.739,307.934L161.087,307.934C161.417,307.934 161.686,307.602 161.686,307.193C161.686,306.784 161.417,306.452 161.087,306.452Z" style="fill:white;fill-rule:nonzero;"/>
            </g>
            <g transform="matrix(1.02073,0,0,1.00888,-2.35466,-1.2672)">
                <path d="M199.322,292.796L182.173,292.796C181.262,292.796 180.522,293.711 180.522,294.84L180.522,312.745C180.522,313.874 181.262,314.789 182.173,314.789L199.322,314.789C200.233,314.789 200.972,313.874 200.972,312.745L200.972,294.84C200.972,293.711 200.233,292.796 199.322,292.796Z" style="fill:white;fill-rule:nonzero;"/>
            </g>
            <g transform="matrix(1.11442,0,0,1.00888,-22.1805,-1.2672)">
                <path d="M195.463,299.132L190.032,299.132C188.742,299.132 187.696,300.428 187.696,302.024L187.696,304.62C187.696,306.217 188.742,307.512 190.032,307.512L195.463,307.512C196.753,307.512 197.799,306.217 197.799,304.62L197.799,302.024C197.799,300.428 196.753,299.132 195.463,299.132Z" style="fill:rgb(75,75,75);fill-rule:nonzero;"/>
            </g>
            <g transform="matrix(1.11442,0,0,1.00888,-22.1805,-1.2672)">
                <path d="M196.887,303.559L188.882,303.559C184.265,303.559 180.522,308.192 180.522,313.909C180.522,319.625 184.265,324.258 188.882,324.258L196.887,324.258C201.504,324.258 205.584,319.707 205.584,313.991C205.584,308.274 201.504,303.559 196.887,303.559Z" style="fill:rgb(79,79,79);fill-rule:nonzero;"/>
            </g>
            <g transform="matrix(1.11442,0,0,1.00888,-22.1805,-1.2672)">
                <path d="M203.015,312.961L183.053,312.961C181.464,312.961 180.174,314.496 180.174,316.388L180.174,320.87C180.174,322.764 181.464,324.299 183.053,324.299L203.015,324.299C204.605,324.299 205.894,322.764 205.894,320.87L205.894,316.388C205.894,314.496 204.605,312.961 203.015,312.961Z" style="fill:rgb(79,79,79);fill-rule:nonzero;"/>
            </g>
            <g transform="matrix(1.11442,0,0,1.00888,-22.1805,-1.2672)">
                <path d="M204.205,319.962L181.564,319.962C180.989,319.962 180.522,320.539 180.522,321.251L180.522,322.937C180.522,323.649 180.989,324.227 181.564,324.227L204.205,324.227C204.78,324.227 205.246,323.649 205.246,322.937L205.246,321.251C205.246,320.539 204.78,319.962 204.205,319.962Z" style="fill:white;fill-rule:nonzero;"/>
            </g>
            <g transform="matrix(1.11442,0,0,1.00888,-21.0756,-1.2672)">
                <path d="M195.976,304.079L189.627,304.079C189.296,304.079 189.028,304.411 189.028,304.821C189.028,305.23 189.296,305.562 189.627,305.562L195.976,305.562C196.306,305.562 196.575,305.23 196.575,304.821C196.575,304.411 196.306,304.079 195.976,304.079Z" style="fill:white;fill-rule:nonzero;"/>
            </g>
            <g transform="matrix(1.11442,0,0,1.00888,-21.0756,-1.2672)">
                <path d="M198.132,308.882L195.083,308.882C194.007,308.882 193.135,309.962 193.135,311.294C193.135,312.626 194.007,313.706 195.083,313.706L198.132,313.706C199.208,313.706 200.08,312.626 200.08,311.294C200.08,309.962 199.208,308.882 198.132,308.882Z" style="fill:rgb(88,88,88);fill-rule:nonzero;"/>
            </g>
            <g transform="matrix(1.11442,0,0,1.00888,-21.0756,-1.2672)">
                <path d="M195.976,306.48L189.627,306.48C189.296,306.48 189.028,306.813 189.028,307.221C189.028,307.631 189.296,307.963 189.627,307.963L195.976,307.963C196.306,307.963 196.575,307.631 196.575,307.221C196.575,306.813 196.306,306.48 195.976,306.48Z" style="fill:white;fill-rule:nonzero;"/>
            </g>
        </g>
    </g>
    <g id="underwear" transform="matrix(0.729494,0,0,1,17.4211,0)">
        <path d="M40.407,189.941C42.023,212.673 53.205,230.272 68.096,230.272C83.182,230.272 97.138,213.345 98.497,190.185L40.407,189.941Z" style="fill:rgb(79,79,79);fill-rule:nonzero;"/>
        <path d="M98.523,190.185L69.117,194.4L70.246,230.5C69.684,235.619 69.904,240.737 70.801,245.856L101.518,245.856C103.139,216.851 105.041,207.297 98.523,190.185Z" style="fill:rgb(75,75,75);fill-rule:nonzero;"/>
        <path d="M40.372,190.185L68.621,194.384L68.621,230.174C68.835,235.493 68.723,240.775 68.149,246.005L37.432,245.823C37.223,216.721 33.664,207.353 40.372,190.185Z" style="fill:rgb(75,75,75);fill-rule:nonzero;"/>
    </g>
</svg>
