<svg width="351" height="351" viewBox="0 0 351 351" fill="none" xmlns="http://www.w3.org/2000/svg">
<circle cx="175.252" cy="175.412" r="173.197" stroke="black" stroke-width="3.60643"/>
<rect x="26.4731" y="51.561" width="295.472" height="295.472" stroke="black" stroke-width="3.60643"/>
<path d="M147.908 133.343L147.916 133.306C148.398 130.971 143.83 128.834 137.712 128.533L126.582 127.098L114.318 126.045L103.134 125.267L91.8714 125.383C85.7539 125.082 80.3083 127.625 79.826 129.96L79.8184 129.997C79.3361 132.332 80.5541 131.353 98.1317 134.084L105.018 136.111C108.286 137.073 111.787 137.434 115.369 137.178L116.07 137.128L135.958 137.027C142.075 137.327 147.426 135.678 147.908 133.343Z" fill="#81584A"/>
<path d="M108.146 133.423C110.477 133 112.355 131.851 112.341 130.859C112.327 129.866 110.427 129.405 108.097 129.828L105.029 130.386C102.698 130.81 100.82 131.959 100.834 132.951C100.848 133.944 102.748 134.405 105.078 133.981L108.146 133.423Z" fill="#906253"/>
<path d="M97.1817 136.595C103.106 137.127 116.639 136.339 116.94 133.89C117.24 131.441 112.682 129.024 106.758 128.493L62.2758 124.504C56.3518 123.973 51.3056 125.528 51.0047 127.977L51 128.015C50.699 130.465 55.2574 132.881 61.1813 133.412L97.1817 136.595Z" fill="#81584A"/>
<path d="M69.1195 131.582L69.2396 129.958C69.4697 126.847 64.0801 123.829 57.2015 123.218L51.0906 122.675C44.212 122.063 38.4493 124.09 38.2192 127.201L38.0991 128.825C37.869 131.936 43.2586 134.954 50.1372 135.565L56.2481 136.109C63.1267 136.72 68.8894 134.693 69.1195 131.582Z" fill="#906253"/>
<path d="M97.481 136.897C104.905 137.544 111.101 135.735 111.32 132.858C111.539 129.981 105.699 127.124 98.275 126.478L87.7195 125.559C80.2959 124.912 74.1 126.721 73.8808 129.598C73.6615 132.475 79.5019 135.332 86.9255 135.978L97.481 136.897Z" fill="#906253"/>
<path d="M100.377 136.517C101.735 136.628 102.869 136.323 102.91 135.835C102.951 135.348 101.883 134.863 100.525 134.752L91.6106 134.023C90.2524 133.912 89.1182 134.217 89.0773 134.704C89.0365 135.192 90.1044 135.677 91.4625 135.788L100.377 136.517Z" fill="#9D6B5A"/>
<path d="M51.7058 131.29C56.0957 130.848 58.4469 128.426 56.9571 125.88C55.4674 123.333 50.701 121.626 46.311 122.067L34.3206 123.272C29.9306 123.714 27.5795 126.136 29.0692 128.682C30.5589 131.229 35.3254 132.936 39.7153 132.495L51.7058 131.29Z" fill="#906253"/>
<path d="M53.6222 136.535C56.6645 136.798 59.2138 135.932 59.3163 134.601C59.4188 133.269 57.0358 131.977 53.9935 131.714L45.6843 130.995C42.642 130.732 40.0927 131.598 39.9902 132.929C39.8876 134.261 42.2708 135.553 45.313 135.816L53.6222 136.535Z" fill="#9D6B5A"/>
<path d="M200.998 133.67L200.99 133.631C200.449 131.157 204.967 128.954 211.08 128.709L222.18 127.326L234.424 126.359L245.594 125.671L256.865 125.928C262.978 125.683 268.489 128.436 269.03 130.91L269.038 130.949C269.578 133.422 260.211 134.316 251.175 136.024L248.528 136.838C246.655 137.414 244.694 137.785 242.674 137.945L238.378 138.284L213.046 137.706C206.932 137.951 201.539 136.144 200.998 133.67Z" fill="#81584A"/>
<path d="M240.989 132.935C238.623 132.999 236.523 132.211 236.297 131.174C236.072 130.138 237.806 129.245 240.171 129.181L243.286 129.097C245.651 129.033 247.752 129.821 247.978 130.858C248.203 131.894 246.469 132.787 244.103 132.851L240.989 132.935Z" fill="#906253"/>
<path d="M231.452 132.836L231.447 132.799C231.161 130.408 235.732 127.994 241.656 127.407L286.138 123.001C292.062 122.414 297.096 123.877 297.382 126.268L297.386 126.305C297.672 128.696 293.101 131.11 287.177 131.697L242.695 136.103C236.771 136.69 231.737 135.227 231.452 132.836Z" fill="#81584A"/>
<path d="M279.248 129.974L279.139 128.39C278.928 125.354 284.335 122.348 291.215 121.675L297.327 121.077C304.206 120.404 309.954 122.319 310.164 125.354L310.274 126.938C310.484 129.974 305.078 132.98 298.198 133.653L292.086 134.251C285.206 134.924 279.459 133.009 279.248 129.974Z" fill="#906253"/>
<path d="M250.88 135.517C243.456 136.231 237.274 134.533 237.073 131.725C236.872 128.916 242.727 126.06 250.152 125.346L260.708 124.33C268.132 123.616 274.314 125.313 274.515 128.122C274.716 130.93 268.86 133.786 261.436 134.501L250.88 135.517Z" fill="#906253"/>
<path d="M247.981 135.172C246.623 135.296 245.491 135.011 245.453 134.535C245.415 134.059 246.486 133.573 247.844 133.449L256.758 132.634C258.116 132.51 259.248 132.795 259.286 133.271C259.323 133.747 258.253 134.234 256.895 134.358L247.981 135.172Z" fill="#9D6B5A"/>
<path d="M296.656 129.464C292.272 129.081 289.938 126.753 291.444 124.264C292.949 121.775 297.724 120.067 302.108 120.449L314.082 121.494C318.466 121.876 320.8 124.204 319.294 126.693C317.788 129.182 313.014 130.891 308.63 130.508L296.656 129.464Z" fill="#906253"/>
<path d="M294.709 134.627C291.667 134.918 289.124 134.101 289.03 132.801C288.936 131.501 291.326 130.212 294.368 129.921L302.678 129.126C305.72 128.835 308.263 129.652 308.357 130.952C308.451 132.252 306.061 133.541 303.019 133.832L294.709 134.627Z" fill="#9D6B5A"/>
<path d="M195.108 156.88C195.108 137.311 188.36 133.904 174.009 133.904C159.657 133.904 153.774 137.311 153.774 156.88L153.773 177.922L174.009 230.371L192.36 197.626L195.108 177.922V156.88Z" fill="#81584A"/>
<path d="M216.25 120.536H130.915C121.678 120.536 114.189 125.213 114.189 130.982C114.189 136.751 121.678 141.428 130.915 141.428H216.25C225.487 141.428 232.976 136.751 232.976 130.982C232.976 125.213 225.487 120.536 216.25 120.536Z" fill="#906253"/>
<path d="M176.855 158.172H172.509C162.148 158.172 153.748 167.511 153.748 179.031V194.102C153.748 205.622 162.148 214.962 172.509 214.962H176.855C187.216 214.962 195.616 205.622 195.616 194.102V179.031C195.616 167.511 187.216 158.172 176.855 158.172Z" fill="#906253"/>
<path d="M187.327 119.568H161.196C154.454 119.568 148.988 126.243 148.988 134.477V143.462C148.988 151.695 154.454 158.37 161.196 158.37H187.327C194.069 158.37 199.535 151.695 199.535 143.462V134.477C199.535 126.243 194.069 119.568 187.327 119.568Z" fill="#906253"/>
<path d="M189.644 119.568H159.06C153.597 119.568 149.168 126.243 149.168 134.477V143.462C149.168 151.695 153.597 158.37 159.06 158.37H189.644C195.107 158.37 199.536 151.695 199.536 143.462V134.477C199.536 126.243 195.107 119.568 189.644 119.568Z" fill="#9D6B5A"/>
<path d="M176.818 153.825C176.818 152.562 175.613 151.537 174.127 151.537C172.64 151.537 171.436 152.562 171.436 153.825V158.263C171.436 159.527 172.64 160.552 174.127 160.552C175.613 160.552 176.818 159.527 176.818 158.263V153.825Z" fill="#81584A"/>
<path d="M189.081 141.428H182.9C181.125 141.428 179.686 143.364 179.686 145.752C179.686 148.141 181.125 150.077 182.9 150.077H189.081C190.857 150.077 192.296 148.141 192.296 145.752C192.296 143.364 190.857 141.428 189.081 141.428Z" fill="#AC7967"/>
<path d="M167.263 141.428H161.082C159.306 141.428 157.867 143.364 157.867 145.752C157.867 148.141 159.306 150.077 161.082 150.077H167.263C169.038 150.077 170.477 148.141 170.477 145.752C170.477 143.364 169.038 141.428 167.263 141.428Z" fill="#AC7967"/>
<path d="M184.658 103.481C184.658 93.4726 179.996 85.3589 174.245 85.3589C168.494 85.3589 163.832 93.4726 163.832 103.481V110.916C163.832 120.925 168.494 129.039 174.245 129.039C179.996 129.039 184.658 120.925 184.658 110.916V103.481Z" fill="#9D6B5A"/>
<path d="M156.899 150.708H154.461C153.488 150.708 152.699 151.687 152.699 152.895C152.699 154.103 153.488 155.082 154.461 155.082H156.899C157.872 155.082 158.661 154.103 158.661 152.895C158.661 151.687 157.872 150.708 156.899 150.708Z" fill="#81584A"/>
<path d="M176.767 85.3589H170.897C164.158 85.3589 158.695 90.8216 158.695 97.5602V102.566C158.695 109.304 164.158 114.767 170.897 114.767H176.767C183.506 114.767 188.969 109.304 188.969 102.566V97.5602C188.969 90.8216 183.506 85.3589 176.767 85.3589Z" fill="#81584A"/>
<path d="M135.493 119.568H133.306C127.467 119.568 122.734 123.539 122.734 128.437C122.734 133.335 127.467 137.305 133.306 137.305H135.493C141.331 137.305 146.064 133.335 146.064 128.437C146.064 123.539 141.331 119.568 135.493 119.568Z" fill="#9D6B5A"/>
<path d="M214.704 123.098H212.376C206.163 123.098 201.127 126.066 201.127 129.726C201.127 133.387 206.163 136.354 212.376 136.354H214.704C220.917 136.354 225.953 133.387 225.953 129.726C225.953 126.066 220.917 123.098 214.704 123.098Z" fill="#9D6B5A"/>
<path d="M135.341 122.549H132.06C130.248 122.549 128.779 123.781 128.779 125.301C128.779 126.821 130.248 128.053 132.06 128.053H135.341C137.153 128.053 138.621 126.821 138.621 125.301C138.621 123.781 137.153 122.549 135.341 122.549Z" fill="#AC7967"/>
<path d="M218.935 122.765H215.444C213.516 122.765 211.953 123.997 211.953 125.517C211.953 127.037 213.516 128.269 215.444 128.269H218.935C220.864 128.269 222.427 127.037 222.427 125.517C222.427 123.997 220.864 122.765 218.935 122.765Z" fill="#AC7967"/>
<path d="M191.301 73.9238H156.394C152.403 73.9238 149.168 77.9628 149.168 82.9451C149.168 87.9274 152.403 91.9663 156.394 91.9663H191.301C195.292 91.9663 198.528 87.9274 198.528 82.9451C198.528 77.9628 195.292 73.9238 191.301 73.9238Z" fill="#9D6B5A"/>
<path d="M192.737 76.2183H155.785C152.588 76.2183 149.996 79.2304 149.996 82.946C149.996 86.6616 152.588 89.6737 155.785 89.6737H192.737C195.935 89.6737 198.527 86.6616 198.527 82.946C198.527 79.2304 195.935 76.2183 192.737 76.2183Z" fill="#81584A"/>
<path d="M180.509 48.5679H170.885C162.911 48.5679 156.447 57.0488 156.447 67.5105V89.9582C156.447 100.42 162.911 108.901 170.885 108.901H180.509C188.482 108.901 194.946 100.42 194.946 89.9582V67.5105C194.946 57.0488 188.482 48.5679 180.509 48.5679Z" fill="#9D6B5A"/>
<path d="M180.971 106.41H170.335C169.184 106.41 168.252 107.444 168.252 108.72C168.252 109.996 169.184 111.03 170.335 111.03H180.971C182.122 111.03 183.054 109.996 183.054 108.72C183.054 107.444 182.122 106.41 180.971 106.41Z" fill="#9D6B5A"/>
<path d="M170.264 169.179H165.439C163.137 169.179 161.271 170.854 161.271 172.921C161.271 174.988 163.137 176.663 165.439 176.663H170.264C172.565 176.663 174.431 174.988 174.431 172.921C174.431 170.854 172.565 169.179 170.264 169.179Z" fill="#9D6B5A"/>
<path d="M170.264 178.002H165.439C163.137 178.002 161.271 179.678 161.271 181.745C161.271 183.812 163.137 185.487 165.439 185.487H170.264C172.565 185.487 174.431 183.812 174.431 181.745C174.431 179.678 172.565 178.002 170.264 178.002Z" fill="#9D6B5A"/>
<path d="M170.264 186.828H165.439C163.137 186.828 161.271 188.503 161.271 190.57C161.271 192.637 163.137 194.312 165.439 194.312H170.264C172.565 194.312 174.431 192.637 174.431 190.57C174.431 188.503 172.565 186.828 170.264 186.828Z" fill="#9D6B5A"/>
<path d="M185.002 169.179H180.177C177.875 169.179 176.01 170.854 176.01 172.921C176.01 174.988 177.875 176.663 180.177 176.663H185.002C187.303 176.663 189.169 174.988 189.169 172.921C189.169 170.854 187.303 169.179 185.002 169.179Z" fill="#9D6B5A"/>
<path d="M185.002 178.002H180.177C177.875 178.002 176.01 179.678 176.01 181.745C176.01 183.812 177.875 185.487 180.177 185.487H185.002C187.303 185.487 189.169 183.812 189.169 181.745C189.169 179.678 187.303 178.002 185.002 178.002Z" fill="#9D6B5A"/>
<path d="M185.002 186.828H180.177C177.875 186.828 176.01 188.503 176.01 190.57C176.01 192.637 177.875 194.312 180.177 194.312H185.002C187.303 194.312 189.169 192.637 189.169 190.57C189.169 188.503 187.303 186.828 185.002 186.828Z" fill="#9D6B5A"/>
<path d="M168.429 124.559L160.167 120.587C159.247 120.145 158.144 120.532 157.702 121.452C157.26 122.371 157.647 123.475 158.566 123.917L166.829 127.889C167.748 128.331 168.852 127.944 169.294 127.024C169.736 126.105 169.349 125.001 168.429 124.559Z" fill="#81584A"/>
<path d="M178.27 124.559L186.532 120.587C187.452 120.145 188.556 120.532 188.998 121.452C189.44 122.371 189.052 123.475 188.133 123.917L179.871 127.889C178.951 128.331 177.848 127.944 177.406 127.024C176.964 126.105 177.351 125.001 178.27 124.559Z" fill="#81584A"/>
<path d="M157.639 199.473C156.548 199.473 155.496 199.717 154.5 200.165C155.666 217.964 164.455 231.715 175.198 231.715C186.08 231.715 194.958 217.607 195.939 199.473C195.938 199.473 195.937 199.473 195.936 199.473H157.639Z" fill="#4F4F4F"/>
<path d="M194.445 197.509H156.019C155.18 197.509 154.5 198.588 154.5 199.92V203.654C154.5 204.985 155.18 206.065 156.019 206.065H194.445C195.284 206.065 195.965 204.985 195.965 203.654V199.92C195.965 198.588 195.284 197.509 194.445 197.509Z" fill="#5B5B5B"/>
<path d="M197.346 156.88C197.346 137.311 189.899 133.904 174.063 133.904C158.227 133.904 151.735 137.311 151.735 156.88L151.734 177.922H174.063H197.346V156.88Z" fill="#81584A"/>
<path d="M216.25 120.536H130.915C121.678 120.536 114.189 125.213 114.189 130.982C114.189 136.751 121.678 141.428 130.915 141.428H216.25C225.487 141.428 232.976 136.751 232.976 130.982C232.976 125.213 225.487 120.536 216.25 120.536Z" fill="#906253"/>
<path d="M199.536 139.586C199.536 128.006 188.261 118.619 174.352 118.619C160.443 118.619 149.168 128.006 149.168 139.586C149.168 151.165 160.443 160.552 174.352 160.552C188.261 160.552 199.536 151.165 199.536 139.586Z" fill="#81584A"/>
<path d="M176.907 158.172H172.173C160.885 158.172 151.734 167.511 151.734 179.031V194.102C151.734 205.622 160.885 214.962 172.173 214.962H176.907C188.195 214.962 197.346 205.622 197.346 194.102V179.031C197.346 167.511 188.195 158.172 176.907 158.172Z" fill="#906253"/>
<path d="M187.553 119.568H161.904C155.286 119.568 149.922 126.243 149.922 134.477V143.462C149.922 151.695 155.286 158.37 161.904 158.37H187.553C194.171 158.37 199.535 151.695 199.535 143.462V134.477C199.535 126.243 194.171 119.568 187.553 119.568Z" fill="#906253"/>
<path d="M201.128 133.892C201.128 133.892 196.713 118.619 193.68 118.619L185.044 116.97L174.465 118.619L161.351 116.97L154.973 118.619C151.696 118.619 146.34 125.457 146.34 133.892C146.34 142.327 148.178 158.369 154.973 158.369H193.009C199.803 158.369 201.128 146.115 201.128 133.892Z" fill="#9D6B5A"/>
<path d="M176.818 153.825C176.818 152.562 175.613 151.537 174.127 151.537C172.64 151.537 171.436 152.562 171.436 153.825V158.263C171.436 159.527 172.64 160.552 174.127 160.552C175.613 160.552 176.818 159.527 176.818 158.263V153.825Z" fill="#81584A"/>
<path d="M188.249 141.428H182.068C180.293 141.428 178.854 142.793 178.854 144.477C178.854 146.161 180.293 147.526 182.068 147.526H188.249C190.025 147.526 191.464 146.161 191.464 144.477C191.464 142.793 190.025 141.428 188.249 141.428Z" fill="#AC7967"/>
<path d="M166.433 141.428H160.252C158.476 141.428 157.037 142.793 157.037 144.477C157.037 146.161 158.476 147.526 160.252 147.526H166.433C168.208 147.526 169.647 146.161 169.647 144.477C169.647 142.793 168.208 141.428 166.433 141.428Z" fill="#AC7967"/>
<path d="M186.016 105.969C186.016 95.9604 180.559 87.8467 173.829 87.8467C167.099 87.8467 161.643 95.9604 161.643 105.969V113.404C161.643 123.413 167.099 131.527 173.829 131.527C180.559 131.527 186.016 123.413 186.016 113.404V105.969Z" fill="#9D6B5A"/>
<path d="M157.379 150.708H155.226C154.368 150.708 153.672 151.687 153.672 152.895C153.672 154.103 154.368 155.082 155.226 155.082H157.379C158.237 155.082 158.933 154.103 158.933 152.895C158.933 151.687 158.237 150.708 157.379 150.708Z" fill="#81584A"/>
<path d="M192.562 150.708H190.41C189.551 150.708 188.855 151.687 188.855 152.895C188.855 154.103 189.551 155.082 190.41 155.082H192.562C193.421 155.082 194.117 154.103 194.117 152.895C194.117 151.687 193.421 150.708 192.562 150.708Z" fill="#81584A"/>
<path d="M176.767 85.3589H170.897C164.158 85.3589 158.695 90.3132 158.695 96.4247V100.964C158.695 107.076 164.158 112.03 170.897 112.03H176.767C183.506 112.03 188.969 107.076 188.969 100.964V96.4247C188.969 90.3132 183.506 85.3589 176.767 85.3589Z" fill="#81584A"/>
<path d="M135.493 119.568H133.306C127.467 119.568 122.734 123.539 122.734 128.437C122.734 133.335 127.467 137.305 133.306 137.305H135.493C141.331 137.305 146.064 133.335 146.064 128.437C146.064 123.539 141.331 119.568 135.493 119.568Z" fill="#9D6B5A"/>
<path d="M214.704 123.098H212.376C206.163 123.098 201.127 126.066 201.127 129.726C201.127 133.387 206.163 136.354 212.376 136.354H214.704C220.917 136.354 225.953 133.387 225.953 129.726C225.953 126.066 220.917 123.098 214.704 123.098Z" fill="#9D6B5A"/>
<path d="M135.341 122.549H132.06C130.248 122.549 128.779 123.781 128.779 125.301C128.779 126.821 130.248 128.053 132.06 128.053H135.341C137.153 128.053 138.621 126.821 138.621 125.301C138.621 123.781 137.153 122.549 135.341 122.549Z" fill="#AC7967"/>
<path d="M218.935 124.238H215.444C213.516 124.238 211.953 125.47 211.953 126.99C211.953 128.51 213.516 129.742 215.444 129.742H218.935C220.864 129.742 222.427 128.51 222.427 126.99C222.427 125.47 220.864 124.238 218.935 124.238Z" fill="#AC7967"/>
<path d="M187.818 345.846C184.627 345.846 182.04 342.538 182.04 338.457V310.488C182.04 308.809 181.744 307.144 181.167 305.568C180.59 303.991 180.295 302.326 180.295 300.647V296.102C180.295 294.4 180.433 292.701 180.707 291.021L180.885 289.934C181.159 288.254 181.297 286.554 181.297 284.852V272.777L181.413 271.766C181.77 268.661 184.399 266.317 187.525 266.317C190.923 266.317 193.677 269.071 193.677 272.469L193.678 301.561L193.677 319.782L194.943 338.457C194.943 342.538 192.356 345.846 189.165 345.846H187.818Z" fill="#906253"/>
<path d="M177.538 232.42V209.401C177.538 203.918 181.982 199.474 187.465 199.474C192.514 199.474 196.759 203.263 197.329 208.28L197.659 211.19L199.1 237.853V253.344L198.124 261.876C197.815 264.575 197.159 267.223 196.172 269.753L194.128 274.994C193.812 275.805 193.649 276.666 193.649 277.536V278.365C193.649 281.769 190.889 284.53 187.484 284.53C184.08 284.53 181.32 281.769 181.32 278.365V277.15C181.32 276.532 181.242 275.918 181.089 275.32L179.945 270.849L178.723 261.992L177.538 250.615V232.42Z" fill="#81584A"/>
<path d="M186.333 330.583H191.759C194.887 330.583 197.424 333.999 197.424 338.214C197.424 342.428 194.887 345.845 191.759 345.845H186.333C183.204 345.845 180.668 342.428 180.668 338.214C180.668 333.999 183.204 330.583 186.333 330.583Z" fill="#9D6B5A"/>
<path d="M182.544 333.726H195.548C196.584 333.726 197.424 335.366 197.424 337.39V342.181C197.424 344.205 196.584 345.845 195.548 345.845H182.544C181.508 345.845 180.668 344.205 180.668 342.181V337.39C180.668 335.366 181.508 333.726 182.544 333.726Z" fill="#9D6B5A"/>
<path d="M162.186 345.669C165.377 345.669 167.964 342.361 167.964 338.28V310.311C167.964 308.633 168.259 306.967 168.837 305.391C169.414 303.815 169.709 302.149 169.709 300.471V295.926C169.709 294.223 169.571 292.524 169.297 290.844L169.119 289.757C168.845 288.077 168.707 286.377 168.707 284.675V272.601L168.591 271.59C168.234 268.484 165.605 266.14 162.479 266.14C159.081 266.14 156.326 268.895 156.326 272.293L156.326 301.385L156.326 319.605L155.061 338.28C155.061 342.361 157.648 345.669 160.839 345.669H162.186Z" fill="#906253"/>
<path d="M172.468 232.243V209.224C172.468 203.741 168.023 199.297 162.541 199.297C157.492 199.297 153.247 203.087 152.677 208.103L152.347 211.013L150.906 237.676V253.167L151.882 261.699C152.19 264.398 152.846 267.046 153.834 269.576L155.878 274.818C156.194 275.628 156.357 276.49 156.357 277.359V278.188C156.357 281.593 159.117 284.353 162.521 284.353C165.926 284.353 168.686 281.593 168.686 278.188V276.973C168.686 276.356 168.764 275.741 168.917 275.143L170.061 270.672L171.283 261.815L172.468 250.438V232.243Z" fill="#81584A"/>
<path d="M163.671 330.407H158.245C155.116 330.407 152.58 333.823 152.58 338.038C152.58 342.252 155.116 345.669 158.245 345.669H163.671C166.8 345.669 169.336 342.252 169.336 338.038C169.336 333.823 166.8 330.407 163.671 330.407Z" fill="#9D6B5A"/>
<path d="M167.46 333.549H154.456C153.42 333.549 152.58 335.189 152.58 337.213V342.005C152.58 344.028 153.42 345.669 154.456 345.669H167.46C168.496 345.669 169.336 344.028 169.336 342.005V337.213C169.336 335.189 168.496 333.549 167.46 333.549Z" fill="#9D6B5A"/>
<path d="M190.325 73.9238H157.368C153.6 73.9238 150.545 77.9628 150.545 82.9451C150.545 87.9274 153.6 91.9663 157.368 91.9663H190.325C194.093 91.9663 197.148 87.9274 197.148 82.9451C197.148 77.9628 194.093 73.9238 190.325 73.9238Z" fill="#9D6B5A"/>
<path d="M190.173 76.2183H155.438C152.433 76.2183 149.996 79.2304 149.996 82.946C149.996 86.6616 152.433 89.6737 155.438 89.6737H190.173C193.179 89.6737 195.615 86.6616 195.615 82.946C195.615 79.2304 193.179 76.2183 190.173 76.2183Z" fill="#81584A"/>
<path d="M177.384 48.5679H167.467C159.249 48.5679 152.588 57.0488 152.588 67.5105V89.9582C152.588 100.42 159.249 108.901 167.467 108.901H177.384C185.601 108.901 192.263 100.42 192.263 89.9582V67.5105C192.263 57.0488 185.601 48.5679 177.384 48.5679Z" fill="#9D6B5A"/>
<path d="M180.116 106.41H168.318C167.042 106.41 166.008 107.444 166.008 108.72C166.008 109.996 167.042 111.03 168.318 111.03H180.116C181.392 111.03 182.426 109.996 182.426 108.72C182.426 107.444 181.392 106.41 180.116 106.41Z" fill="#9D6B5A"/>
<path d="M168.429 125.389L160.167 121.417C159.247 120.975 158.144 121.363 157.702 122.282C157.26 123.201 157.647 124.305 158.566 124.747L166.829 128.719C167.748 129.161 168.852 128.774 169.294 127.854C169.736 126.935 169.349 125.831 168.429 125.389Z" fill="#81584A"/>
<path d="M178.27 125.389L186.532 121.417C187.452 120.975 188.556 121.363 188.998 122.282C189.44 123.201 189.052 124.305 188.133 124.747L179.871 128.719C178.951 129.161 177.848 128.774 177.406 127.854C176.964 126.935 177.351 125.831 178.27 125.389Z" fill="#81584A"/>
<path d="M154.516 199.474C153.261 199.474 152.05 199.718 150.904 200.165C152.246 217.965 162.358 231.715 174.717 231.715C187.236 231.715 197.449 217.607 198.577 199.474C198.576 199.474 198.575 199.474 198.574 199.474H154.516Z" fill="#4F4F4F"/>
<path d="M196.833 197.509H152.678C151.713 197.509 150.932 198.588 150.932 199.92V203.654C150.932 204.985 151.713 206.065 152.678 206.065H196.833C197.797 206.065 198.579 204.985 198.579 203.654V199.92C198.579 198.588 197.797 197.509 196.833 197.509Z" fill="#5B5B5B"/>
<path d="M173.918 103.582H171.187C170.968 103.582 170.791 103.804 170.791 104.079V104.371C170.791 104.645 170.968 104.868 171.187 104.868H173.918C174.137 104.868 174.314 104.645 174.314 104.371V104.079C174.314 103.804 174.137 103.582 173.918 103.582Z" fill="#81584A"/>
<path d="M175.989 81.8921C175.989 79.8437 174.666 78.1831 173.034 78.1831C171.403 78.1831 170.08 79.8437 170.08 81.8921V88.4373C170.08 90.4857 171.403 92.1462 173.034 92.1462C174.666 92.1462 175.989 90.4857 175.989 88.4373V81.8921Z" fill="#81584A"/>
<path d="M165.809 78.246C165.809 76.964 164.981 75.9248 163.96 75.9248C162.939 75.9248 162.111 76.964 162.111 78.246V79.1744C162.111 80.4564 162.939 81.4956 163.96 81.4956C164.981 81.4956 165.809 80.4564 165.809 79.1744V78.246Z" fill="#61534B"/>
<path d="M183.743 78.246C183.743 76.964 182.915 75.9248 181.894 75.9248C180.873 75.9248 180.045 76.964 180.045 78.246V79.1744C180.045 80.4564 180.873 81.4956 181.894 81.4956C182.915 81.4956 183.743 80.4564 183.743 79.1744V78.246Z" fill="#61534B"/>
<path d="M176.348 101.004C179.07 101.004 181.261 98.0664 181.261 94.4166V93.3506H164.719V94.4166C164.719 98.0664 166.91 101.004 169.631 101.004H176.348Z" fill="white"/>
<path d="M172.64 89.3447L169.892 86.4139C169.438 85.9296 168.758 85.9991 168.372 86.5689C167.986 87.1388 168.042 87.9933 168.495 88.4775L171.243 91.4084C171.697 91.8926 172.378 91.8232 172.763 91.2533C173.149 90.6834 173.094 89.8289 172.64 89.3447Z" fill="#81584A"/>
<path d="M173.429 89.3447L176.176 86.4139C176.63 85.9296 177.311 85.9991 177.696 86.5689C178.082 87.1388 178.027 87.9933 177.573 88.4775L174.825 91.4084C174.371 91.8926 173.691 91.8232 173.305 91.2533C172.919 90.6834 172.975 89.8289 173.429 89.3447Z" fill="#81584A"/>
<path d="M174.747 87.4612C174.747 86.4784 174.112 85.6816 173.33 85.6816C172.547 85.6816 171.912 86.4784 171.912 87.4612V89.086C171.912 90.0689 172.547 90.8656 173.33 90.8656C174.112 90.8656 174.747 90.0689 174.747 89.086V87.4612Z" fill="#906253"/>
<path d="M166.969 76.0484L161.083 74.0614C160.445 73.846 159.863 74.1424 159.782 74.7234C159.702 75.3044 160.154 75.9501 160.792 76.1655L166.678 78.1524C167.316 78.3678 167.899 78.0715 167.979 77.4904C168.059 76.9094 167.607 76.2638 166.969 76.0484Z" fill="#4D4D4D"/>
<path d="M161.176 75.6476C161.227 75.2183 160.933 74.7435 160.519 74.5872C160.105 74.4309 159.728 74.6522 159.677 75.0815L159.465 76.8618C159.414 77.2911 159.708 77.7659 160.122 77.9222C160.535 78.0785 160.912 77.8572 160.964 77.4279L161.176 75.6476Z" fill="#4D4D4D"/>
<path d="M178.746 76.0461L184.632 74.0602C185.27 73.8449 185.852 74.1414 185.932 74.7224C186.013 75.3034 185.56 75.9489 184.922 76.1642L179.036 78.15C178.398 78.3653 177.816 78.0688 177.735 77.4878C177.655 76.9069 178.108 76.2613 178.746 76.0461Z" fill="#4D4D4D"/>
<path d="M184.539 75.6466C184.488 75.2173 184.782 74.7426 185.196 74.5863C185.61 74.4299 185.987 74.6512 186.038 75.0805L186.25 76.8608C186.301 77.2901 186.007 77.7649 185.593 77.9212C185.179 78.0775 184.802 77.8562 184.751 77.4269L184.539 75.6466Z" fill="#4D4D4D"/>
<path d="M171.136 75.1284C171.136 74.5543 170.766 74.0889 170.308 74.0889C169.851 74.0889 169.48 74.5543 169.48 75.1284V76.3867C169.48 76.9608 169.851 77.4262 170.308 77.4262C170.766 77.4262 171.136 76.9608 171.136 76.3867V75.1284Z" fill="#81584A"/>
<path d="M176.629 75.1284C176.629 74.5543 176.258 74.0889 175.801 74.0889C175.343 74.0889 174.973 74.5543 174.973 75.1284V76.3867C174.973 76.9608 175.343 77.4262 175.801 77.4262C176.258 77.4262 176.629 76.9608 176.629 76.3867V75.1284Z" fill="#81584A"/>
<path d="M174.743 87.4588C174.743 86.4759 174.109 85.6792 173.326 85.6792C172.543 85.6792 171.908 86.4759 171.908 87.4588V89.0836C171.908 90.0664 172.543 90.8632 173.326 90.8632C174.109 90.8632 174.743 90.0664 174.743 89.0836V87.4588Z" fill="#906253"/>
<path d="M166.781 75.6233L160.889 74.6153C160.25 74.5061 159.748 74.8423 159.768 75.3662C159.788 75.8902 160.322 76.4036 160.961 76.5129L166.853 77.5208C167.492 77.6301 167.994 77.2939 167.974 76.7699C167.954 76.2459 167.42 75.7326 166.781 75.6233Z" fill="#4D4D4D"/>
<path d="M161.03 76.1664C161.016 75.7291 160.701 75.3065 160.326 75.2225C159.951 75.1384 159.657 75.4248 159.671 75.8621L159.727 77.6754C159.74 78.1127 160.055 78.5353 160.43 78.6193C160.806 78.7034 161.099 78.417 161.086 77.9798L161.03 76.1664Z" fill="#4D4D4D"/>
<path d="M179.087 75.2449L184.838 74.5875C185.461 74.5163 185.911 74.9683 185.843 75.5972C185.775 76.2261 185.214 76.7937 184.591 76.8649L178.84 77.5223C178.217 77.5935 177.767 77.1415 177.835 76.5126C177.903 75.8837 178.464 75.3161 179.087 75.2449Z" fill="#4D4D4D"/>
<path d="M184.778 76.3497C184.814 75.8971 185.102 75.4924 185.42 75.4458C185.738 75.3991 185.967 75.7282 185.931 76.1807L185.781 78.0574C185.745 78.51 185.457 78.9147 185.139 78.9613C184.821 79.008 184.592 78.6789 184.628 78.2264L184.778 76.3497Z" fill="#4D4D4D"/>
<path d="M195.038 70.9463C194.962 70.9384 194.885 70.9382 194.808 70.9472C194.719 70.9573 194.629 70.9789 194.541 71.0124L194.358 71.081C193.768 71.3038 193.399 71.9882 193.412 72.7251C193.355 72.622 193.286 72.5321 193.214 72.449V74.7322C195.769 76.0635 197.558 79.2236 197.558 82.929C197.558 86.6541 195.75 89.8271 193.173 91.1458C193.099 92.4763 192.912 93.7653 192.63 95.0029V96.2796C192.564 96.1481 192.486 96.0279 192.4 95.9182C191.115 100.617 188.384 104.453 184.868 106.594V109.459C184.868 110.611 185.606 111.538 186.522 111.538H187.285C188.202 111.538 188.94 110.611 188.94 109.459V108.899C189.188 109.651 189.776 110.178 190.467 110.178H191.23C192.146 110.178 192.884 109.25 192.884 108.098V107.44C193.176 108.027 193.691 108.419 194.284 108.419C195.2 108.419 195.938 107.491 195.938 106.339V94.6565L196.278 96.0796C196.491 96.9709 197.234 97.4735 197.943 97.2058C198.651 96.9381 199.051 96.0046 198.838 95.1133L197.023 87.5181C197.357 87.9906 197.888 88.2063 198.403 88.0117L198.586 87.9423C199.295 87.6746 199.694 86.7419 199.481 85.8506L196.205 72.1377C196.042 71.4554 195.569 71.0016 195.038 70.9463V70.9463ZM152.03 71.0593C151.499 71.1145 151.026 71.5683 150.863 72.2507L147.587 85.9635C147.374 86.8548 147.773 87.7875 148.482 88.0552L148.665 88.1246C149.18 88.3192 149.71 88.1035 150.045 87.631L148.23 95.2262C148.017 96.1175 148.416 97.051 149.125 97.3187C149.834 97.5864 150.576 97.0847 150.789 96.1934L150.858 95.9064V106.339C150.858 107.491 151.595 108.419 152.512 108.419C153.105 108.419 153.62 108.027 153.912 107.44V108.098C153.912 109.25 154.649 110.178 155.565 110.178H156.329C157.019 110.178 157.607 109.653 157.856 108.901V109.459C157.856 110.611 158.594 111.538 159.51 111.538H160.274C161.19 111.538 161.928 110.611 161.928 109.459V106.519C158.443 104.347 155.747 100.503 154.489 95.8102C154.364 95.9464 154.254 96.1026 154.166 96.2796V94.4347C153.952 93.372 153.808 92.2738 153.745 91.1458C151.168 89.827 149.36 86.6541 149.36 82.929C149.36 79.2236 151.149 76.0635 153.704 74.7322V72.7635C153.688 72.7888 153.67 72.8115 153.656 72.838C153.669 72.1014 153.299 71.4167 152.709 71.194L152.527 71.1253C152.438 71.0919 152.349 71.0702 152.26 71.0601C152.183 71.0512 152.106 71.0513 152.03 71.0592V71.0593Z" fill="#4D4D4D"/>
<path d="M156.721 55.582C153.839 58.9244 152.035 63.7547 152.035 69.1443V90.8247C152.035 100.96 158.416 109.12 166.341 109.12H178.897C186.823 109.12 193.203 100.96 193.203 90.8247V69.1443C193.203 63.7547 191.399 58.9244 188.518 55.582C190.713 58.8418 192.041 63.0877 192.041 67.7471V89.8224C192.041 100.143 185.544 108.451 177.474 108.451H167.765C159.695 108.451 153.198 100.143 153.198 89.8224V67.7471C153.198 63.0877 154.525 58.8418 156.721 55.582Z" fill="#565656"/>
<path d="M165.123 109.89C165.123 108.83 164.509 107.971 163.752 107.971C162.995 107.971 162.381 108.83 162.381 109.89V112.119C162.381 113.179 162.995 114.038 163.752 114.038C164.509 114.038 165.123 113.179 165.123 112.119V109.89Z" fill="#565656"/>
<path d="M167.689 111.64C167.689 110.58 167.076 109.721 166.318 109.721C165.561 109.721 164.947 110.58 164.947 111.64V113.869C164.947 114.929 165.561 115.788 166.318 115.788C167.076 115.788 167.689 114.929 167.689 113.869V111.64Z" fill="#565656"/>
<path d="M170.225 112.604C170.225 111.544 169.611 110.685 168.853 110.685C168.096 110.685 167.482 111.544 167.482 112.604V114.832C167.482 115.892 168.096 116.752 168.853 116.752C169.611 116.752 170.225 115.892 170.225 114.832V112.604Z" fill="#565656"/>
<path d="M172.726 112.822C172.726 111.762 172.113 110.903 171.355 110.903C170.598 110.903 169.984 111.762 169.984 112.822V115.051C169.984 116.111 170.598 116.97 171.355 116.97C172.113 116.97 172.726 116.111 172.726 115.051V112.822Z" fill="#565656"/>
<path d="M162.818 106.043C162.818 104.778 162.085 103.752 161.181 103.752C160.278 103.752 159.545 104.778 159.545 106.043V108.703C159.545 109.968 160.278 110.993 161.181 110.993C162.085 110.993 162.818 109.968 162.818 108.703V106.043Z" fill="#565656"/>
<path d="M159.988 103.693C159.988 102.428 159.255 101.402 158.351 101.402C157.447 101.402 156.715 102.428 156.715 103.693V106.353C156.715 107.618 157.447 108.644 158.351 108.644C159.255 108.644 159.988 107.618 159.988 106.353V103.693Z" fill="#565656"/>
<path d="M157.599 100.844C157.599 99.5788 156.866 98.5532 155.963 98.5532C155.059 98.5532 154.326 99.5788 154.326 100.844V103.504C154.326 104.769 155.059 105.795 155.963 105.795C156.866 105.795 157.599 104.769 157.599 103.504V100.844Z" fill="#565656"/>
<path d="M180.117 109.89C180.117 108.83 180.731 107.971 181.488 107.971C182.246 107.971 182.859 108.83 182.859 109.89V112.119C182.859 113.179 182.246 114.038 181.488 114.038C180.731 114.038 180.117 113.179 180.117 112.119V109.89Z" fill="#565656"/>
<path d="M177.551 111.64C177.551 110.58 178.165 109.721 178.922 109.721C179.679 109.721 180.293 110.58 180.293 111.64V113.869C180.293 114.929 179.679 115.788 178.922 115.788C178.165 115.788 177.551 114.929 177.551 113.869V111.64Z" fill="#565656"/>
<path d="M175.018 112.604C175.018 111.544 175.631 110.685 176.389 110.685C177.146 110.685 177.76 111.544 177.76 112.604V114.832C177.76 115.892 177.146 116.752 176.389 116.752C175.631 116.752 175.018 115.892 175.018 114.832V112.604Z" fill="#565656"/>
<path d="M172.514 112.822C172.514 111.762 173.128 110.903 173.885 110.903C174.642 110.903 175.256 111.762 175.256 112.822V115.051C175.256 116.111 174.642 116.97 173.885 116.97C173.128 116.97 172.514 116.111 172.514 115.051V112.822Z" fill="#565656"/>
<path d="M182.422 106.043C182.422 104.778 183.155 103.752 184.059 103.752C184.963 103.752 185.695 104.778 185.695 106.043V108.703C185.695 109.968 184.963 110.993 184.059 110.993C183.155 110.993 182.422 109.968 182.422 108.703V106.043Z" fill="#565656"/>
<path d="M185.253 103.693C185.253 102.428 185.985 101.402 186.889 101.402C187.793 101.402 188.525 102.428 188.525 103.693V106.353C188.525 107.618 187.793 108.644 186.889 108.644C185.985 108.644 185.253 107.618 185.253 106.353V103.693Z" fill="#565656"/>
<path d="M187.641 100.844C187.641 99.5788 188.374 98.5532 189.278 98.5532C190.181 98.5532 190.914 99.5788 190.914 100.844V103.504C190.914 104.769 190.181 105.795 189.278 105.795C188.374 105.795 187.641 104.769 187.641 103.504V100.844Z" fill="#565656"/>
<path d="M166.421 88.2759C163.222 88.2759 160.646 91.5696 160.646 95.6611V104.3C160.646 108.392 163.222 111.686 166.421 111.686H178.812C182.012 111.686 184.587 108.392 184.587 104.3V95.6611C184.587 91.5696 182.012 88.2759 178.812 88.2759H177.6C177.643 88.7259 177.514 89.1931 177.222 89.51L176.732 90.0421C177.023 90.3906 177.239 90.84 177.333 91.3548H179.013C180.802 91.3548 182.242 93.1959 182.242 95.4837V99.1985C182.242 100.067 182.034 100.869 181.679 101.533V102.552C181.679 105.818 179.623 108.447 177.07 108.447H168.164C165.61 108.447 163.555 105.818 163.555 102.552V101.533C163.199 100.869 162.992 100.067 162.992 99.1985V95.4837C162.992 93.1959 164.432 91.3548 166.221 91.3548H167.278C167.404 90.662 167.746 90.0812 168.205 89.72L168.012 89.51C167.72 89.1931 167.591 88.7259 167.634 88.2759H166.421Z" fill="#565656"/>
<path d="M164.621 48.0947C157.138 48.0947 151.113 55.6685 151.113 65.0765C151.113 65.5183 151.131 65.9543 151.157 66.3875C151.131 66.6091 151.113 66.8343 151.113 67.0652V77.4683C151.113 79.7007 152.369 81.5503 154.044 81.9687V68.393C154.044 58.6749 160.267 50.8507 167.997 50.8507H178.913C186.642 50.8507 192.866 58.6749 192.866 68.393V81.9871C194.588 81.6167 195.893 79.7432 195.893 77.4683V67.0652C195.893 66.8342 195.875 66.6091 195.849 66.3875C195.876 65.9543 195.893 65.5183 195.893 65.0765C195.893 55.6685 189.869 48.0947 182.387 48.0947H164.621Z" fill="#4D4D4D"/>
<path d="M179.949 45.9536H167.78C163.681 45.9536 160.357 50.1319 160.357 55.286C160.357 60.4401 163.681 64.6183 167.78 64.6183H179.949C184.048 64.6183 187.371 60.4401 187.371 55.286C187.371 50.1319 184.048 45.9536 179.949 45.9536Z" fill="#4D4D4D"/>
<path d="M164.497 51.8822C164.497 50.4247 163.557 49.2432 162.398 49.2432C161.239 49.2432 160.299 50.4247 160.299 51.8822V58.0018C160.299 59.4593 161.239 60.6409 162.398 60.6409C163.557 60.6409 164.497 59.4593 164.497 58.0018V51.8822Z" fill="#4D4D4D"/>
<path d="M188.345 52.1122C188.345 50.6547 187.405 49.4731 186.246 49.4731C185.086 49.4731 184.146 50.6547 184.146 52.1122V58.2318C184.146 59.6893 185.086 60.8709 186.246 60.8709C187.405 60.8709 188.345 59.6893 188.345 58.2318V52.1122Z" fill="#4D4D4D"/>
<path d="M159.501 54.8989C159.391 53.9371 158.681 53.2694 157.916 53.4075C157.151 53.5457 156.62 54.4374 156.73 55.3992L157.085 58.5036C157.195 59.4654 157.904 60.1331 158.669 59.995C159.434 59.8568 159.965 58.9651 159.855 58.0033L159.501 54.8989Z" fill="#4D4D4D"/>
<path d="M189.177 55.6552C189.287 54.6934 189.996 54.0257 190.761 54.1639C191.526 54.3021 192.057 55.1938 191.947 56.1556L191.593 59.26C191.483 60.2218 190.774 60.8895 190.009 60.7513C189.244 60.6131 188.713 59.7214 188.822 58.7596L189.177 55.6552Z" fill="#4D4D4D"/>
<path d="M172.408 50.5884H173.718C174.491 50.5884 175.117 51.3761 175.117 52.3478V58.7733C175.117 59.745 174.491 60.5327 173.718 60.5327H172.408C171.635 60.5327 171.008 59.745 171.008 58.7733V52.3478C171.008 51.3761 171.635 50.5884 172.408 50.5884Z" fill="#565656"/>
<path d="M166.751 50.7788H168.481C169.086 50.7788 169.576 51.3953 169.576 52.1557V58.9637C169.576 59.7242 169.086 60.3407 168.481 60.3407H166.751C166.146 60.3407 165.656 59.7242 165.656 58.9637V52.1557C165.656 51.3953 166.146 50.7788 166.751 50.7788Z" fill="#565656"/>
<path d="M179.372 50.7788H177.642C177.037 50.7788 176.547 51.3953 176.547 52.1557V58.9637C176.547 59.7242 177.037 60.3407 177.642 60.3407H179.372C179.977 60.3407 180.467 59.7242 180.467 58.9637V52.1557C180.467 51.3953 179.977 50.7788 179.372 50.7788Z" fill="#565656"/>
</svg>
