<svg width="309" height="411" viewBox="0 0 309 411" fill="none" xmlns="http://www.w3.org/2000/svg">
<g filter="url(#filter0_d_1821_5780)">
<path d="M152.124 343.899C152.124 343.399 152.124 343.399 152.124 343.399H152.12H152.108L152.057 343.398L151.854 343.398C151.675 343.397 151.409 343.396 151.06 343.394C150.363 343.389 149.336 343.38 148.021 343.362C145.39 343.326 141.604 343.253 136.982 343.107C127.739 342.816 115.158 342.233 101.806 341.068C88.4515 339.903 74.3361 338.155 62.02 335.537C49.8564 332.952 39.5224 329.531 33.3929 325.033C51.1218 248.441 74.116 178.934 153.095 116.74C230.626 178.895 252.38 252.987 270.255 313.866C271.356 317.615 272.442 321.315 273.526 324.958C273.503 324.968 273.479 324.978 273.454 324.988C273.137 325.124 272.66 325.322 272.024 325.576C270.751 326.083 268.838 326.809 266.29 327.681C261.192 329.425 253.547 331.753 243.373 334.081C223.026 338.738 192.562 343.399 152.124 343.399V343.899Z" stroke="#F46C21" stroke-opacity="0.51" shape-rendering="crispEdges"/>
</g>
<path d="M153.359 125.769L153.359 410.629" stroke="#F46C21" stroke-width="2"/>
<path d="M307.934 153.393L0.867789 346.071" stroke="#F46C21" stroke-width="2"/>
<path d="M308.445 346.457L3.65128 160.163" stroke="#F46C21" stroke-width="2"/>
<path d="M153.483 200.98L195.77 225.395V276.696L153.483 298.638L111.195 274.224V225.395L153.483 200.98Z" fill="#F46C21" fill-opacity="0.29"/>
<path d="M113.195 226.55L153.483 203.29L193.77 226.55V275.481L153.534 296.359L113.195 273.069V226.55Z" stroke="#F46C21" stroke-opacity="0.35" stroke-width="4"/>
<path d="M153.709 81.5253C170.36 81.5253 183.765 94.4027 183.765 110.398C183.765 126.394 170.36 139.271 153.709 139.271C137.058 139.271 123.652 126.394 123.652 110.398C123.652 94.4027 137.058 81.5253 153.709 81.5253V81.5253Z" fill="#A55326"/>
<path d="M153.712 102.972C167.032 102.972 177.756 115.977 177.756 132.132V153.2C177.756 169.355 167.032 182.361 153.712 182.361C140.392 182.361 129.668 169.355 129.668 153.2V132.132C129.668 115.977 140.392 102.972 153.712 102.972Z" fill="#A55326"/>
<path d="M153.71 74.3123C168.746 74.3123 180.851 82.0438 180.851 91.6474C180.851 101.251 168.746 108.983 153.71 108.983C138.675 108.983 126.57 101.251 126.57 91.6474C126.57 82.0438 138.675 74.3123 153.71 74.3123V74.3123Z" fill="#B95D2B"/>
<path d="M128.727 102.118C130.511 96.3504 127.874 90.4124 122.838 88.8546C117.802 87.2969 112.273 90.7093 110.489 96.4764L101.552 125.37C99.7683 131.137 102.405 137.075 107.441 138.633C112.478 140.19 118.006 136.778 119.79 131.011L128.727 102.118Z" fill="#B95D2B"/>
<path d="M151.795 124.37H155.63C164.802 124.37 172.187 131.584 172.187 140.546V152.233C172.187 161.195 164.802 168.409 155.63 168.409H151.795C142.623 168.409 135.238 161.195 135.238 152.233V140.546C135.238 131.584 142.623 124.37 151.795 124.37V124.37Z" fill="#B95D2B"/>
<path d="M137.071 78.8712H170.353C178.966 78.8712 185.9 86.3799 185.9 95.7068V105.854C185.9 115.181 178.966 122.689 170.353 122.689H137.071C128.458 122.689 121.523 115.181 121.523 105.854V95.7068C121.523 86.3799 128.458 78.8712 137.071 78.8712V78.8712Z" fill="#B95D2B"/>
<path d="M178.984 102.118C177.2 96.3506 179.837 90.4126 184.873 88.8548C189.909 87.2971 195.438 90.7094 197.222 96.4766L206.159 125.37C207.943 131.137 205.306 137.075 200.27 138.633C195.233 140.19 189.705 136.778 187.921 131.011L178.984 102.118Z" fill="#B95D2B"/>
<path d="M123.67 80.195H184.324C190.91 80.195 196.213 85.7891 196.213 92.7377C196.213 99.6864 190.91 105.28 184.324 105.28H123.67C117.083 105.28 111.781 99.6864 111.781 92.7377C111.781 85.7891 117.083 80.195 123.67 80.195Z" fill="#C96D3B"/>
<path d="M134.167 78.8712H173.257C180.261 78.8712 185.9 84.9773 185.9 92.562V100.813C185.9 108.398 180.261 114.504 173.257 114.504H134.167C127.162 114.504 121.523 108.398 121.523 100.813V92.562C121.523 84.9773 127.162 78.8712 134.167 78.8712V78.8712Z" fill="#C96D3B"/>
<path d="M161.704 100.893H168.52C170.483 100.893 172.064 102.291 172.064 104.028C172.064 105.764 170.483 107.162 168.52 107.162H161.704C159.741 107.162 158.16 105.764 158.16 104.028C158.16 102.291 159.741 100.893 161.704 100.893Z" fill="#CD7849"/>
<path d="M137.65 100.893H144.465C146.428 100.893 148.009 102.291 148.009 104.028C148.009 105.764 146.428 107.162 144.465 107.162H137.65C135.686 107.162 134.105 105.764 134.105 104.028C134.105 102.291 135.686 100.893 137.65 100.893Z" fill="#CD7849"/>
<path d="M153.712 51.7114C160.679 51.7114 166.288 58.8117 166.288 67.6314V74.1626C166.288 82.9823 160.679 90.0827 153.712 90.0827C146.745 90.0827 141.137 82.9823 141.137 74.1626V67.6314C141.137 58.8117 146.745 51.7114 153.712 51.7114Z" fill="#C06635"/>
<path d="M132.554 113.839H135.036C136.029 113.839 136.828 114.642 136.828 115.639C136.828 116.636 136.029 117.438 135.036 117.438H132.554C131.561 117.438 130.762 116.636 130.762 115.639C130.762 114.642 131.561 113.839 132.554 113.839Z" fill="#A55326"/>
<path d="M173.124 113.839H175.606C176.599 113.839 177.399 114.642 177.399 115.639C177.399 116.636 176.599 117.438 175.606 117.438H173.124C172.131 117.438 171.332 116.636 171.332 115.639C171.332 114.642 172.131 113.839 173.124 113.839Z" fill="#A55326"/>
<path d="M151.308 52.999H156.119C161.658 52.999 166.118 57.4586 166.118 62.9981V67.1002C166.118 72.6397 161.658 77.0993 156.119 77.0993H151.308C145.768 77.0993 141.309 72.6397 141.309 67.1002V62.9981C141.309 57.4586 145.768 52.999 151.308 52.999Z" fill="#B95D2B"/>
<path d="M123.811 81.6826H125.314C129.341 81.6826 132.582 84.924 132.582 88.9503C132.582 92.9766 129.341 96.218 125.314 96.218H123.811C119.784 96.218 116.543 92.9766 116.543 88.9503C116.543 84.924 119.784 81.6826 123.811 81.6826Z" fill="#CD7849"/>
<path d="M185.1 82.3915H186.603C190.63 82.3915 193.871 85.6329 193.871 89.6592C193.871 93.6855 190.63 96.9269 186.603 96.9269H185.1C181.073 96.9269 177.832 93.6855 177.832 89.6592C177.832 85.6329 181.073 82.3915 185.1 82.3915V82.3915Z" fill="#CD7849"/>
<path d="M122.955 84.1242H125.21C126.46 84.1242 127.466 85.1301 127.466 86.3797C127.466 87.6292 126.46 88.6352 125.21 88.6352H122.955C121.705 88.6352 120.699 87.6292 120.699 86.3797C120.699 85.1301 121.705 84.1242 122.955 84.1242Z" fill="#D2865B"/>
<path d="M187.08 84.3014H189.335C190.585 84.3014 191.591 85.3073 191.591 86.5569C191.591 87.8064 190.585 88.8124 189.335 88.8124H187.08C185.83 88.8124 184.824 87.8064 184.824 86.5569C184.824 85.3073 185.83 84.3014 187.08 84.3014Z" fill="#D2865B"/>
<path d="M136.209 43.629H171.921C176.017 43.629 179.314 46.9263 179.314 51.022C179.314 55.1177 176.017 58.4149 171.921 58.4149H136.209C132.114 58.4149 128.816 55.1177 128.816 51.022C128.816 46.9263 132.114 43.629 136.209 43.629Z" fill="#C96D3B"/>
<path d="M136.47 45.5086H171.662C174.716 45.5086 177.175 47.9676 177.175 51.022C177.175 54.0764 174.716 56.5354 171.662 56.5354H136.47C133.416 56.5354 130.957 54.0764 130.957 51.022C130.957 47.9676 133.416 45.5086 136.47 45.5086Z" fill="#B95D2B"/>
<path d="M149.083 22.8491H159.047C167.33 22.8491 173.997 29.7726 173.997 38.3726V53.9128C173.997 62.5129 167.33 72.2922 159.047 72.2922H149.083C140.8 72.2922 134.133 62.5129 134.133 53.9128V38.3726C134.133 29.7726 140.8 22.8491 149.083 22.8491V22.8491Z" fill="#C96D3B"/>
<path d="M147.948 54.9727H160.11C161.429 54.9727 162.491 59.3948 162.491 64.8877C162.491 70.3807 161.429 74.8028 160.11 74.8028H147.948C146.628 74.8028 145.566 70.3807 145.566 64.8877C145.566 59.3948 146.628 54.9727 147.948 54.9727Z" fill="#C96D3B"/>
<path d="M142.515 81.1556L149.286 84.4105C150.041 84.7739 150.357 85.6748 149.994 86.4307C149.631 87.1865 148.73 87.5025 147.974 87.1391L141.203 83.8843C140.447 83.5209 140.131 82.6199 140.494 81.8641C140.858 81.1083 141.759 80.7923 142.515 81.1556V81.1556Z" fill="#B95D2B"/>
<path d="M164.118 81.1556L157.347 84.4105C156.592 84.7739 156.276 85.6748 156.639 86.4307C157.002 87.1865 157.903 87.5025 158.659 87.1392L165.43 83.8843C166.186 83.5209 166.502 82.62 166.139 81.8641C165.775 81.1083 164.874 80.7923 164.118 81.1556Z" fill="#B95D2B"/>
<path d="M203.665 173.092L169.069 157.319C163.881 154.954 157.758 157.242 155.393 162.43C153.028 167.618 155.316 173.741 160.504 176.106L195.1 191.879C200.288 194.244 206.411 191.956 208.776 186.768C211.141 181.58 208.853 175.457 203.665 173.092Z" fill="#A55326"/>
<path d="M104.96 173.092L139.556 157.319C144.744 154.954 150.867 157.243 153.232 162.43C155.597 167.618 153.309 173.741 148.121 176.107L113.525 191.879C108.337 194.244 102.214 191.956 99.8491 186.768C97.4838 181.58 99.7721 175.457 104.96 173.092Z" fill="#A55326"/>
<path d="M131.31 158.743C129.918 158.743 128.575 158.925 127.305 159.258C128.792 172.507 140.006 182.743 153.713 182.743C167.596 182.743 178.924 172.241 180.175 158.743C180.173 158.743 180.172 158.743 180.171 158.743H131.31Z" fill="#4F4F4F"/>
<path d="M128.554 156.241H178.53C179.625 156.241 180.506 156.93 180.506 157.786V160.178C180.506 161.034 179.625 161.723 178.53 161.723H128.554C127.459 161.723 126.578 161.034 126.578 160.178V157.786C126.578 156.93 127.459 156.241 128.554 156.241Z" fill="#5B5B5B"/>
<path d="M111.123 173.461L148.85 168.734C154.508 168.026 159.668 172.037 160.377 177.695C161.086 183.352 157.074 188.513 151.417 189.222L113.69 193.948C108.033 194.657 102.872 190.645 102.163 184.988C101.454 179.33 105.466 174.169 111.123 173.461Z" fill="#B25929"/>
<path d="M160.305 169.363L177.452 159.233C182.041 156.522 187.96 158.044 190.671 162.633C193.382 167.223 191.86 173.141 187.271 175.852L170.124 185.982C165.534 188.694 159.616 187.171 156.905 182.582C154.194 177.993 155.716 172.075 160.305 169.363Z" fill="#B25929"/>
<path d="M200.324 173.295L150.031 166.604C144.636 165.886 139.68 169.678 138.962 175.073L138.785 176.405C138.067 181.801 141.859 186.757 147.255 187.475L197.547 194.166C202.943 194.883 207.899 191.091 208.616 185.696L208.794 184.364C209.511 178.968 205.719 174.013 200.324 173.295Z" fill="#B95D2B"/>
<path d="M148.785 167.069L131.638 156.938C127.048 154.227 121.13 155.75 118.419 160.339C115.708 164.928 117.23 170.846 121.819 173.558L138.966 183.688C143.555 186.399 149.474 184.877 152.185 180.287C154.896 175.698 153.374 169.78 148.785 167.069Z" fill="#B95D2A" fill-opacity="0.996078"/>
<path d="M114.949 143.587C116.511 138.331 114.057 132.965 109.467 131.6C104.877 130.236 99.8899 133.391 98.3278 138.647L90.5018 164.979C88.9397 170.235 91.3942 175.601 95.984 176.965C100.574 178.33 105.561 175.175 107.123 169.919L114.949 143.587Z" fill="#C96D3B"/>
<path d="M103.145 172.453C103.145 168.005 99.5399 164.4 95.0922 164.4C90.6446 164.4 87.0391 168.005 87.0391 172.453V181.692C87.0391 186.14 90.6446 189.746 95.0922 189.746C99.5399 189.746 103.145 186.14 103.145 181.692V172.453Z" fill="#C96D3B"/>
<path d="M99.3532 178.397C96.8188 175.61 92.5051 175.405 89.7181 177.94C86.9312 180.474 86.7264 184.788 89.2607 187.575L94.0639 192.857C96.5982 195.644 100.912 195.848 103.699 193.314C106.486 190.78 106.691 186.466 104.156 183.679L99.3532 178.397Z" fill="#C96D3B"/>
<path d="M108.245 174.28C108.245 171.147 105.705 168.607 102.572 168.607C99.4385 168.607 96.8984 171.147 96.8984 174.28V180.655C96.8984 183.788 99.4385 186.328 102.572 186.328C105.705 186.328 108.245 183.788 108.245 180.655V174.28Z" fill="#CD7849"/>
<path d="M118.733 138.675C120.609 132.364 117.535 125.882 111.868 124.197C106.2 122.513 100.085 126.264 98.2091 132.575L94.6208 144.648C92.7451 150.959 95.8189 157.441 101.487 159.126C107.154 160.81 113.269 157.059 115.145 150.748L118.733 138.675Z" fill="#C96D3B"/>
<path d="M192.766 143.587C191.204 138.331 193.658 132.965 198.248 131.6C202.838 130.236 207.825 133.391 209.387 138.647L217.213 164.979C218.775 170.235 216.321 175.601 211.731 176.965C207.141 178.33 202.154 175.175 200.592 169.919L192.766 143.587Z" fill="#C96D3B"/>
<path d="M204.569 172.453C204.569 168.005 208.175 164.4 212.623 164.4C217.07 164.4 220.676 168.005 220.676 172.453V181.692C220.676 186.14 217.07 189.746 212.623 189.746C208.175 189.746 204.569 186.14 204.569 181.692V172.453Z" fill="#C96D3B"/>
<path d="M208.362 178.397C210.896 175.61 215.21 175.405 217.997 177.94C220.784 180.474 220.988 184.788 218.454 187.575L213.651 192.857C211.117 195.644 206.803 195.849 204.016 193.314C201.229 190.78 201.024 186.466 203.558 183.679L208.362 178.397Z" fill="#C96D3B"/>
<path d="M199.47 174.28C199.47 171.147 202.01 168.607 205.143 168.607C208.276 168.607 210.816 171.147 210.816 174.28V180.655C210.816 183.788 208.276 186.328 205.143 186.328C202.01 186.328 199.47 183.788 199.47 180.655V174.28Z" fill="#CD7849"/>
<path d="M188.982 138.675C187.106 132.364 190.18 125.882 195.847 124.197C201.515 122.513 207.63 126.264 209.506 132.575L213.094 144.648C214.97 150.959 211.896 157.441 206.228 159.126C200.561 160.81 194.446 157.059 192.57 150.748L188.982 138.675Z" fill="#C96D3B"/>
<path d="M129.933 156.103L126.56 154.167C125.263 153.422 123.607 153.87 122.862 155.167C122.117 156.465 122.565 158.121 123.862 158.866L127.235 160.802C128.532 161.547 130.188 161.099 130.933 159.801C131.678 158.504 131.23 156.848 129.933 156.103Z" fill="#B95D2B"/>
<path d="M179.255 157.76L182.627 155.824C183.925 155.079 185.581 155.527 186.325 156.824C187.07 158.122 186.623 159.778 185.325 160.523L181.953 162.459C180.655 163.204 178.999 162.756 178.254 161.458C177.509 160.161 177.957 158.505 179.255 157.76Z" fill="#B25929"/>
<path d="M110.178 136.888C111.088 134.484 109.877 131.798 107.473 130.888C105.07 129.979 102.384 131.19 101.474 133.593L98.9917 140.151C98.082 142.555 99.293 145.241 101.697 146.15C104.1 147.06 106.786 145.849 107.696 143.446L110.178 136.888Z" fill="#CD7849"/>
<path d="M192.826 138.418C191.916 136.014 193.127 133.328 195.531 132.418C197.934 131.509 200.62 132.72 201.53 135.123L204.012 141.681C204.922 144.085 203.711 146.771 201.307 147.68C198.904 148.59 196.218 147.379 195.308 144.976L192.826 138.418Z" fill="#CD7849"/>
<path d="M155.43 150.439C155.43 149.489 154.66 148.718 153.709 148.718C152.759 148.718 151.988 149.489 151.988 150.439V151.587C151.988 152.537 152.759 153.308 153.709 153.308C154.66 153.308 155.43 152.537 155.43 151.587V150.439Z" fill="#A55326"/>
<path d="M153.24 110.705C154.506 110.705 155.526 112.197 155.526 114.05V120.537C155.526 122.39 154.506 123.881 153.24 123.881C151.973 123.881 150.953 122.39 150.953 120.537V114.05C150.953 112.197 151.973 110.705 153.24 110.705Z" fill="#A55326"/>
<path d="M153.24 121.032C154.506 121.032 155.526 121.354 155.526 121.755V123.158C155.526 123.559 154.506 123.881 153.24 123.881C151.973 123.881 150.953 123.559 150.953 123.158V121.755C150.953 121.354 151.973 121.032 153.24 121.032Z" fill="#A55326"/>
<path d="M152.068 68.6889H155.023C155.26 68.6889 155.451 68.8797 155.451 69.1167V69.3687C155.451 69.6057 155.26 69.7965 155.023 69.7965H152.068C151.831 69.7965 151.641 69.6057 151.641 69.3687V69.1167C151.641 68.8797 151.831 68.6889 152.068 68.6889Z" fill="#B95D2B"/>
<path d="M154.065 48.9902C155.636 48.9902 156.9 50.3398 156.9 52.0162V57.3561C156.9 59.0324 155.636 60.382 154.065 60.382C152.495 60.382 151.23 59.0324 151.23 57.3561V52.0162C151.23 50.3398 152.495 48.9902 154.065 48.9902Z" fill="#B95D2B"/>
<path d="M147.843 63.3774C147.715 63.3743 147.588 63.408 147.478 63.4744C147.368 63.5408 147.279 63.6373 147.222 63.7525C147.165 63.8676 147.142 63.9967 147.156 64.1244C147.17 64.2522 147.22 64.3733 147.3 64.4736C148.197 65.6312 149.493 66.392 150.945 66.392H153.951H156.958C158.41 66.392 159.706 65.6312 160.602 64.4736C160.657 64.4035 160.697 64.3234 160.72 64.2379C160.744 64.1524 160.75 64.0631 160.739 63.9751C160.728 63.8871 160.699 63.8022 160.655 63.7252C160.611 63.6482 160.553 63.5806 160.483 63.5263C160.413 63.4719 160.332 63.4319 160.247 63.4086C160.161 63.3852 160.072 63.3789 159.984 63.39C159.896 63.4012 159.811 63.4295 159.734 63.4735C159.657 63.5174 159.59 63.5761 159.535 63.6462C158.843 64.54 157.942 65.0428 156.958 65.0428H153.951H150.945C149.961 65.0428 149.058 64.54 148.365 63.6462C148.304 63.565 148.225 63.4986 148.135 63.4521C148.045 63.4055 147.945 63.38 147.843 63.3774V63.3774Z" fill="#B95D2B"/>
<path d="M151.322 55.0826H156.911C157.76 55.0826 158.443 55.7661 158.443 56.6151C158.443 57.4641 157.76 58.1476 156.911 58.1476H151.322C150.473 58.1476 149.789 57.4641 149.789 56.6151C149.789 55.7661 150.473 55.0826 151.322 55.0826Z" fill="#B95D2B"/>
<path d="M146.067 46.52H147.788C149.13 46.52 150.21 47.6004 150.21 48.9423C150.21 50.2843 149.13 51.3646 147.788 51.3646H146.067C144.725 51.3646 143.645 50.2843 143.645 48.9423C143.645 47.6004 144.725 46.52 146.067 46.52Z" fill="#B95D2B"/>
<path d="M147.772 45.0031L141.42 45.3921C141.35 45.3964 141.282 45.4096 141.216 45.4249C141.037 45.4445 140.86 45.5008 140.7 45.6075L138.932 46.7844C138.398 47.1399 138.254 47.8558 138.609 48.3901C138.965 48.9244 139.68 49.0684 140.215 48.7129L141.466 47.8811C141.502 47.8819 141.536 47.8876 141.573 47.8853L147.924 47.497C148.614 47.4547 149.137 46.8644 149.094 46.1737C149.052 45.483 148.462 44.9608 147.772 45.0031V45.0031Z" fill="#4D4D4D"/>
<path d="M143.436 49.6613C142.887 49.6613 142.389 49.9239 142.007 50.2963C141.625 50.6687 141.327 51.1567 141.08 51.7272C141.043 51.8088 141.022 51.897 141.02 51.9866C141.017 52.0762 141.033 52.1654 141.065 52.2491C141.097 52.3327 141.146 52.409 141.208 52.4736C141.27 52.5383 141.344 52.5898 141.427 52.6254C141.509 52.6609 141.598 52.6797 141.687 52.6807C141.777 52.6816 141.866 52.6647 141.949 52.6308C142.032 52.597 142.107 52.547 142.171 52.4837C142.234 52.4204 142.284 52.345 142.318 52.2621C142.515 51.8069 142.745 51.4638 142.951 51.2634C143.156 51.063 143.305 51.0104 143.436 51.0104H145.114H146.79C146.921 51.0104 147.072 51.063 147.278 51.2634C147.483 51.4638 147.711 51.8069 147.907 52.2621C147.941 52.345 147.992 52.4203 148.055 52.4836C148.119 52.5469 148.194 52.5969 148.277 52.6307C148.36 52.6645 148.449 52.6815 148.539 52.6805C148.628 52.6796 148.717 52.6608 148.799 52.6253C148.881 52.5897 148.956 52.5381 149.018 52.4735C149.08 52.4089 149.129 52.3326 149.161 52.249C149.193 52.1654 149.208 52.0762 149.206 51.9866C149.203 51.897 149.183 51.8088 149.146 51.7272C148.899 51.1567 148.6 50.6687 148.218 50.2963C147.836 49.9239 147.339 49.6613 146.79 49.6613H145.114H143.436Z" fill="#4D4D4D"/>
<path d="M162.164 46.52H160.443C159.101 46.52 158.02 47.6003 158.02 48.9423C158.02 50.2842 159.101 51.3646 160.443 51.3646H162.164C163.506 51.3646 164.586 50.2842 164.586 48.9423C164.586 47.6003 163.506 46.52 162.164 46.52Z" fill="#B95D2B"/>
<path d="M160.459 45.0029L166.81 45.3919C166.881 45.3962 166.948 45.4095 167.015 45.4247C167.193 45.4443 167.37 45.5006 167.53 45.6074L169.299 46.7843C169.833 47.1397 169.977 47.8556 169.621 48.3899C169.266 48.9242 168.55 49.0682 168.016 48.7127L166.765 47.881C166.729 47.8817 166.694 47.8874 166.658 47.8851L160.307 47.4968C159.616 47.4545 159.094 46.8642 159.136 46.1735C159.178 45.4828 159.768 44.9606 160.459 45.0029V45.0029Z" fill="#4D4D4D"/>
<path d="M164.795 49.6612C165.344 49.6612 165.841 49.9238 166.223 50.2963C166.605 50.6687 166.904 51.1567 167.151 51.7271C167.188 51.8087 167.208 51.8969 167.211 51.9865C167.213 52.0762 167.198 52.1654 167.166 52.249C167.133 52.3326 167.085 52.409 167.023 52.4736C166.96 52.5382 166.886 52.5898 166.804 52.6253C166.721 52.6609 166.633 52.6797 166.543 52.6806C166.454 52.6815 166.365 52.6646 166.282 52.6308C166.199 52.597 166.123 52.5469 166.06 52.4836C165.996 52.4203 165.946 52.345 165.912 52.2621C165.715 51.8068 165.485 51.4637 165.28 51.2633C165.074 51.063 164.925 51.0104 164.795 51.0104H163.116H161.44C161.31 51.0104 161.158 51.063 160.953 51.2633C160.747 51.4637 160.52 51.8068 160.323 52.2621C160.289 52.345 160.239 52.4203 160.175 52.4836C160.112 52.5468 160.036 52.5969 159.953 52.6307C159.87 52.6645 159.781 52.6814 159.692 52.6805C159.602 52.6795 159.514 52.6607 159.431 52.6252C159.349 52.5897 159.275 52.5381 159.213 52.4735C159.15 52.4089 159.102 52.3325 159.07 52.2489C159.037 52.1653 159.022 52.0761 159.025 51.9865C159.027 51.8969 159.047 51.8087 159.085 51.7271C159.331 51.1567 159.63 50.6687 160.012 50.2963C160.394 49.9238 160.891 49.6612 161.44 49.6612H163.116H164.795Z" fill="#4D4D4D"/>
<path d="M154.064 35.8015C154.064 35.8015 155.191 40.2819 155.191 42.2471C155.191 42.8714 154.689 43.374 154.064 43.374C153.44 43.374 152.938 42.8714 152.938 42.2471C153.189 40.9283 154.064 35.8015 154.064 35.8015Z" fill="#B82418" fill-opacity="0.996078"/>
<path d="M150.431 57.8604C144.275 58.5245 139.512 63.7088 139.512 70.0476C139.512 76.8398 144.98 82.3073 151.772 82.3073H156.099C162.891 82.3073 168.359 76.8398 168.359 70.0476C168.359 63.8145 163.753 58.6997 157.746 57.8995C157.506 58.0555 157.22 58.1477 156.911 58.1477H156.8C156.475 59.4371 155.378 60.3822 154.065 60.3822C152.752 60.3822 151.656 59.4371 151.331 58.1477H151.322C150.988 58.1477 150.682 58.0398 150.431 57.8604V57.8604ZM150.938 60.8974H156.933C160.766 60.8974 163.852 63.9834 163.852 67.8165C163.852 71.6497 160.766 74.7356 156.933 74.7356H150.938C147.105 74.7356 144.019 71.6497 144.019 67.8165C144.019 63.9834 147.105 60.8974 150.938 60.8974Z" fill="#4D4D4D"/>
<path d="M150.036 5.54828C147.493 5.54828 145.446 7.59535 145.446 10.138C145.446 10.756 145.569 11.3438 145.788 11.881C143.36 12.7143 141.621 15.0058 141.621 17.7236C141.621 21.1491 144.379 23.9065 147.805 23.9065H161.573C164.999 23.9065 167.757 21.1491 167.757 17.7236C167.757 15.0058 166.018 12.7143 163.589 11.881C163.809 11.3438 163.932 10.756 163.932 10.138C163.932 7.59535 161.885 5.54828 159.342 5.54828H150.036Z" fill="#484848"/>
<path d="M145.605 21.3672C137.157 21.3672 130.355 28.1684 130.355 36.6166V45.0618C130.355 47.8083 131.079 50.3781 132.339 52.5994C132.315 52.9031 132.299 53.209 132.299 53.519V76.4794C132.299 81.3226 135.239 85.4526 139.439 87.1934V87.3614C139.439 95.8096 153.845 102.611 153.845 102.611C153.845 102.611 168.251 95.8096 168.251 87.3614V87.1934C172.451 85.4526 175.391 81.3226 175.391 76.4794V53.519C175.391 53.4369 175.386 53.3559 175.385 53.2743C176.896 50.9061 177.774 48.091 177.774 45.0618V36.6166C177.774 28.1684 170.973 21.3672 162.525 21.3672H145.605ZM149.082 28.6189H159.047C167.329 28.6189 174.63 34.5094 173.997 41.7648L172.85 54.9252C172.366 60.4737 169.172 66.6453 163.951 69.2319C164.121 69.7286 164.837 70.2628 164.837 70.823C164.837 73.4009 162.762 75.4761 160.184 75.4761H147.945C145.367 75.4761 143.292 73.4009 143.292 70.823C143.292 70.2628 144.009 69.7286 144.178 69.2319C138.957 66.6453 135.763 60.4737 135.28 54.9252L134.132 41.7648C133.5 34.5094 140.8 28.6189 149.082 28.6189V28.6189Z" fill="#4D4D4D"/>
<path d="M150.85 23.2253C148.001 23.2253 145.707 25.5192 145.707 28.3686C145.707 28.4564 145.716 28.542 145.721 28.6287C146.27 28.4927 146.836 28.4225 147.404 28.4195C148.961 28.4217 150.47 28.9288 151.678 29.8559C152.886 30.7831 153.72 32.0739 154.039 33.5119H154.089C154.409 32.0733 155.243 30.7821 156.451 29.8549C157.66 28.9277 159.17 28.4209 160.727 28.4195C161.295 28.4213 161.861 28.4904 162.411 28.6252C162.415 28.5397 162.423 28.4552 162.423 28.3686C162.423 25.5192 160.129 23.2253 157.28 23.2253H150.85Z" fill="#4D4D4D"/>
<path d="M167.694 19.5642H140.829C139.983 19.5642 139.297 20.2503 139.297 21.0967C139.297 21.9431 139.983 22.6293 140.829 22.6293H167.694C168.54 22.6293 169.226 21.9431 169.226 21.0967C169.226 20.2503 168.54 19.5642 167.694 19.5642Z" fill="#634726" fill-opacity="0.996078"/>
<path d="M155.773 73.277C155.773 72.4497 155.103 71.779 154.275 71.779C153.448 71.779 152.777 72.4497 152.777 73.277V75.9543C152.777 76.7816 153.448 77.4523 154.275 77.4523C155.103 77.4523 155.773 76.7816 155.773 75.9543V73.277Z" fill="#4D4D4D"/>
<path d="M156.22 0.190128C156.098 0.187243 155.977 0.217847 155.87 0.278646C155.764 0.339445 155.676 0.428135 155.616 0.535184C155.556 0.642233 155.526 0.763588 155.53 0.88619C155.534 1.00879 155.571 1.128 155.638 1.231C155.638 1.231 156.182 2.12735 156.257 3.14673C156.295 3.65642 156.221 4.17111 155.933 4.65401C155.645 5.13692 155.129 5.61905 154.152 6.01637C154.07 6.04975 153.995 6.099 153.932 6.1613C153.868 6.22361 153.818 6.29774 153.784 6.37947C153.749 6.4612 153.731 6.54893 153.73 6.63765C153.73 6.72636 153.747 6.81433 153.78 6.89653C153.814 6.97872 153.863 7.05353 153.925 7.11668C153.987 7.17984 154.062 7.2301 154.143 7.2646C154.225 7.2991 154.313 7.31716 154.401 7.31775C154.49 7.31834 154.578 7.30145 154.66 7.26805C155.846 6.78616 156.637 6.10819 157.093 5.34441C157.548 4.58063 157.656 3.76218 157.604 3.04923C157.499 1.62333 156.779 0.514247 156.779 0.514247C156.72 0.417817 156.639 0.337617 156.541 0.280993C156.443 0.224369 156.333 0.19313 156.22 0.190128Z" fill="#484848"/>
<path d="M129.429 53.9749C128.739 59.0133 130.138 68.997 128.829 75.1254C127.18 75.607 125.957 77.206 125.865 79.1504C124.996 79.2056 124.213 79.593 123.613 80.1969C123.632 80.1968 123.65 80.1954 123.669 80.1954H128.72C130.367 79.3469 132.213 78.8714 134.165 78.8714H134.75C134.692 78.3287 134.546 77.8169 134.328 77.3529V58.1748C132.119 57.5996 130.322 56.0327 129.429 53.9749V53.9749ZM178.619 54.1443C177.666 56.1962 175.806 57.7333 173.542 58.2362V77.353C173.323 77.817 173.177 78.3288 173.12 78.8715H173.255C175.207 78.8715 177.053 79.347 178.701 80.1955H184.256C183.656 79.5924 182.873 79.2055 182.005 79.1504C181.912 77.206 180.69 75.607 179.041 75.1254C176.707 69.7599 178.409 58.3466 178.619 54.1443Z" fill="#484848"/>
<path d="M175.158 77.8195C174.763 77.8249 174.448 78.14 174.454 78.5219V118.543C174.454 131.215 165.068 141.325 153.483 141.325C141.899 141.325 132.512 131.215 132.512 118.543V78.9136C132.526 77.9784 131.068 77.9784 131.082 78.9136V118.543C131.082 131.878 141.04 142.708 153.483 142.708C165.926 142.708 175.884 131.878 175.884 118.543V78.5219C175.891 78.1315 175.562 77.8134 175.158 77.8195V77.8195Z" fill="#9B3519" fill-opacity="0.996078"/>
<path d="M153.481 140.498C152.782 140.498 152.219 141.204 152.219 142.079V143.141C151.756 143.485 151.453 144.031 151.453 144.655C151.453 145.702 152.297 146.546 153.344 146.546H153.619C154.667 146.546 155.51 145.702 155.51 144.655C155.51 144.031 155.207 143.485 154.744 143.141V142.079C154.744 141.204 154.18 140.498 153.481 140.498V140.498Z" fill="#9B3519" fill-opacity="0.996078"/>
<path d="M137.97 90.4205C137.97 90.7051 137.918 90.9869 137.815 91.2499C137.713 91.5128 137.562 91.7518 137.373 91.953C137.183 92.1543 136.959 92.3139 136.711 92.4228C136.464 92.5318 136.198 92.5878 135.93 92.5878C135.663 92.5878 135.397 92.5318 135.15 92.4228C134.902 92.3139 134.678 92.1543 134.488 91.953C134.299 91.7518 134.148 91.5128 134.046 91.2499C133.943 90.9869 133.891 90.7051 133.891 90.4205C133.891 90.1359 133.943 89.854 134.046 89.5911C134.148 89.3281 134.299 89.0892 134.488 88.888C134.678 88.6867 134.902 88.5271 135.15 88.4181C135.397 88.3092 135.663 88.2532 135.93 88.2532C136.198 88.2532 136.464 88.3092 136.711 88.4181C136.959 88.5271 137.183 88.6867 137.373 88.888C137.562 89.0892 137.713 89.3281 137.815 89.5911C137.918 89.854 137.97 90.1359 137.97 90.4205V90.4205Z" fill="#9B3519" fill-opacity="0.996078"/>
<path d="M138.193 94.4321C138.193 94.7167 138.14 94.9985 138.038 95.2615C137.935 95.5244 137.785 95.7634 137.595 95.9646C137.406 96.1659 137.181 96.3255 136.934 96.4344C136.686 96.5433 136.421 96.5994 136.153 96.5994C135.885 96.5994 135.62 96.5433 135.373 96.4344C135.125 96.3255 134.9 96.1659 134.711 95.9646C134.521 95.7634 134.371 95.5244 134.269 95.2615C134.166 94.9985 134.113 94.7167 134.113 94.4321C134.113 94.1475 134.166 93.8657 134.269 93.6027C134.371 93.3397 134.521 93.1008 134.711 92.8996C134.9 92.6983 135.125 92.5387 135.373 92.4298C135.62 92.3208 135.885 92.2648 136.153 92.2648C136.421 92.2648 136.686 92.3208 136.934 92.4298C137.181 92.5387 137.406 92.6983 137.595 92.8996C137.785 93.1008 137.935 93.3397 138.038 93.6027C138.14 93.8657 138.193 94.1475 138.193 94.4321V94.4321Z" fill="#9B3519" fill-opacity="0.996078"/>
<path d="M139.142 98.3536C139.142 98.6382 139.089 98.9201 138.987 99.183C138.884 99.446 138.734 99.6849 138.545 99.8861C138.355 100.087 138.13 100.247 137.883 100.356C137.635 100.465 137.37 100.521 137.102 100.521C136.834 100.521 136.569 100.465 136.322 100.356C136.074 100.247 135.849 100.087 135.66 99.8861C135.471 99.6849 135.32 99.446 135.218 99.183C135.115 98.9201 135.062 98.6382 135.063 98.3536C135.062 98.069 135.115 97.7871 135.218 97.5242C135.32 97.2612 135.471 97.0223 135.66 96.8211C135.849 96.6198 136.074 96.4602 136.322 96.3513C136.569 96.2423 136.834 96.1863 137.102 96.1863C137.37 96.1863 137.635 96.2423 137.883 96.3513C138.13 96.4602 138.355 96.6198 138.545 96.8211C138.734 97.0223 138.884 97.2612 138.987 97.5242C139.089 97.7871 139.142 98.069 139.142 98.3536V98.3536Z" fill="#9B3519" fill-opacity="0.996078"/>
<path d="M141.666 101.329C141.666 101.613 141.613 101.895 141.51 102.158C141.408 102.421 141.258 102.66 141.068 102.861C140.879 103.062 140.654 103.222 140.406 103.331C140.159 103.44 139.894 103.496 139.626 103.496C139.358 103.496 139.093 103.44 138.845 103.331C138.598 103.222 138.373 103.062 138.183 102.861C137.994 102.66 137.844 102.421 137.741 102.158C137.639 101.895 137.586 101.613 137.586 101.329C137.586 101.044 137.639 100.762 137.741 100.499C137.844 100.236 137.994 99.9972 138.183 99.796C138.373 99.5947 138.598 99.4351 138.845 99.3262C139.093 99.2173 139.358 99.1612 139.626 99.1612C139.894 99.1612 140.159 99.2173 140.406 99.3262C140.654 99.4351 140.879 99.5947 141.068 99.796C141.258 99.9972 141.408 100.236 141.51 100.499C141.613 100.762 141.666 101.044 141.666 101.329Z" fill="#9B3519" fill-opacity="0.996078"/>
<path d="M144.638 103.672C144.638 103.957 144.586 104.239 144.483 104.502C144.38 104.765 144.23 105.004 144.041 105.205C143.851 105.406 143.627 105.566 143.379 105.675C143.132 105.784 142.866 105.84 142.598 105.84C142.331 105.84 142.065 105.784 141.818 105.675C141.57 105.566 141.345 105.406 141.156 105.205C140.967 105.004 140.816 104.765 140.714 104.502C140.611 104.239 140.559 103.957 140.559 103.672C140.559 103.388 140.611 103.106 140.714 102.843C140.816 102.58 140.967 102.341 141.156 102.14C141.345 101.939 141.57 101.779 141.818 101.67C142.065 101.561 142.331 101.505 142.598 101.505C142.866 101.505 143.132 101.561 143.379 101.67C143.627 101.779 143.851 101.939 144.041 102.14C144.23 102.341 144.38 102.58 144.483 102.843C144.586 103.106 144.638 103.388 144.638 103.672V103.672Z" fill="#9B3519" fill-opacity="0.996078"/>
<path d="M148.248 104.574C148.248 104.858 148.195 105.14 148.092 105.403C147.99 105.666 147.84 105.905 147.65 106.106C147.461 106.308 147.236 106.467 146.988 106.576C146.741 106.685 146.476 106.741 146.208 106.741C145.94 106.741 145.675 106.685 145.427 106.576C145.18 106.467 144.955 106.308 144.765 106.106C144.576 105.905 144.426 105.666 144.323 105.403C144.221 105.14 144.168 104.858 144.168 104.574C144.168 104.289 144.221 104.007 144.323 103.744C144.426 103.481 144.576 103.243 144.765 103.041C144.955 102.84 145.18 102.68 145.427 102.571C145.675 102.463 145.94 102.406 146.208 102.406C146.476 102.406 146.741 102.463 146.988 102.571C147.236 102.68 147.461 102.84 147.65 103.041C147.84 103.243 147.99 103.481 148.092 103.744C148.195 104.007 148.248 104.289 148.248 104.574V104.574Z" fill="#9B3519" fill-opacity="0.996078"/>
<path d="M137.744 86.3186C137.744 86.6032 137.691 86.8851 137.588 87.148C137.486 87.411 137.336 87.6499 137.146 87.8512C136.957 88.0524 136.732 88.2121 136.485 88.321C136.237 88.4299 135.972 88.4859 135.704 88.4859C135.436 88.4859 135.171 88.4299 134.923 88.321C134.676 88.2121 134.451 88.0524 134.262 87.8512C134.072 87.6499 133.922 87.411 133.819 87.148C133.717 86.8851 133.664 86.6032 133.664 86.3186C133.664 86.034 133.717 85.7522 133.819 85.4892C133.922 85.2263 134.072 84.9874 134.262 84.7861C134.451 84.5848 134.676 84.4252 134.923 84.3163C135.171 84.2074 135.436 84.1513 135.704 84.1513C135.972 84.1513 136.237 84.2074 136.485 84.3163C136.732 84.4252 136.957 84.5848 137.146 84.7861C137.336 84.9874 137.486 85.2263 137.588 85.4892C137.691 85.7522 137.744 86.034 137.744 86.3186V86.3186Z" fill="#9B3519" fill-opacity="0.996078"/>
<path d="M152.134 105.607C152.134 105.891 152.082 106.173 151.979 106.436C151.877 106.699 151.726 106.938 151.537 107.139C151.347 107.34 151.123 107.5 150.875 107.609C150.628 107.718 150.362 107.774 150.095 107.774C149.827 107.774 149.561 107.718 149.314 107.609C149.066 107.5 148.842 107.34 148.652 107.139C148.463 106.938 148.312 106.699 148.21 106.436C148.107 106.173 148.055 105.891 148.055 105.607C148.055 105.322 148.107 105.04 148.21 104.777C148.312 104.514 148.463 104.275 148.652 104.074C148.842 103.873 149.066 103.713 149.314 103.604C149.561 103.495 149.827 103.439 150.095 103.439C150.362 103.439 150.628 103.495 150.875 103.604C151.123 103.713 151.347 103.873 151.537 104.074C151.726 104.275 151.877 104.514 151.979 104.777C152.082 105.04 152.134 105.322 152.134 105.607V105.607Z" fill="#9B3519" fill-opacity="0.996078"/>
<path d="M155.705 106.32C155.705 106.605 155.652 106.887 155.549 107.15C155.447 107.413 155.297 107.652 155.107 107.853C154.918 108.054 154.693 108.214 154.445 108.323C154.198 108.432 153.933 108.488 153.665 108.488C153.397 108.488 153.132 108.432 152.884 108.323C152.637 108.214 152.412 108.054 152.222 107.853C152.033 107.652 151.883 107.413 151.78 107.15C151.678 106.887 151.625 106.605 151.625 106.32C151.625 106.036 151.678 105.754 151.78 105.491C151.883 105.228 152.033 104.989 152.222 104.788C152.412 104.586 152.637 104.427 152.884 104.318C153.132 104.209 153.397 104.153 153.665 104.153C153.933 104.153 154.198 104.209 154.445 104.318C154.693 104.427 154.918 104.586 155.107 104.788C155.297 104.989 155.447 105.228 155.549 105.491C155.652 105.754 155.705 106.036 155.705 106.32V106.32Z" fill="#9B3519" fill-opacity="0.996078"/>
<path d="M168.991 90.4205C168.991 90.7051 169.043 90.9869 169.146 91.2499C169.248 91.5128 169.399 91.7518 169.588 91.953C169.778 92.1543 170.002 92.3139 170.25 92.4228C170.497 92.5318 170.763 92.5878 171.03 92.5878C171.298 92.5878 171.564 92.5318 171.811 92.4228C172.059 92.3139 172.283 92.1543 172.473 91.953C172.662 91.7518 172.813 91.5128 172.915 91.2499C173.018 90.9869 173.07 90.7051 173.07 90.4205C173.07 90.1359 173.018 89.854 172.915 89.5911C172.813 89.3281 172.662 89.0892 172.473 88.888C172.283 88.6867 172.059 88.5271 171.811 88.4181C171.564 88.3092 171.298 88.2532 171.03 88.2532C170.763 88.2532 170.497 88.3092 170.25 88.4181C170.002 88.5271 169.778 88.6867 169.588 88.888C169.399 89.0892 169.248 89.3281 169.146 89.5911C169.043 89.854 168.991 90.1359 168.991 90.4205V90.4205Z" fill="#9B3519" fill-opacity="0.996078"/>
<path d="M168.768 94.4321C168.768 94.7167 168.821 94.9985 168.923 95.2615C169.026 95.5244 169.176 95.7634 169.365 95.9646C169.555 96.1659 169.78 96.3255 170.027 96.4344C170.275 96.5433 170.54 96.5994 170.808 96.5994C171.076 96.5994 171.341 96.5433 171.588 96.4344C171.836 96.3255 172.061 96.1659 172.25 95.9646C172.44 95.7634 172.59 95.5244 172.692 95.2615C172.795 94.9985 172.848 94.7167 172.848 94.4321C172.848 94.1475 172.795 93.8657 172.692 93.6027C172.59 93.3397 172.44 93.1008 172.25 92.8996C172.061 92.6983 171.836 92.5387 171.588 92.4298C171.341 92.3208 171.076 92.2648 170.808 92.2648C170.54 92.2648 170.275 92.3208 170.027 92.4298C169.78 92.5387 169.555 92.6983 169.365 92.8996C169.176 93.1008 169.026 93.3397 168.923 93.6027C168.821 93.8657 168.768 94.1475 168.768 94.4321V94.4321Z" fill="#9B3519" fill-opacity="0.996078"/>
<path d="M167.819 98.3536C167.819 98.6382 167.872 98.9201 167.974 99.183C168.077 99.446 168.227 99.6849 168.416 99.8861C168.606 100.087 168.831 100.247 169.078 100.356C169.325 100.465 169.591 100.521 169.859 100.521C170.126 100.521 170.392 100.465 170.639 100.356C170.887 100.247 171.112 100.087 171.301 99.8861C171.49 99.6849 171.641 99.446 171.743 99.183C171.846 98.9201 171.898 98.6382 171.898 98.3536C171.898 98.069 171.846 97.7871 171.743 97.5242C171.641 97.2612 171.49 97.0223 171.301 96.8211C171.112 96.6198 170.887 96.4602 170.639 96.3513C170.392 96.2423 170.126 96.1863 169.859 96.1863C169.591 96.1863 169.325 96.2423 169.078 96.3513C168.831 96.4602 168.606 96.6198 168.416 96.8211C168.227 97.0223 168.077 97.2612 167.974 97.5242C167.872 97.7871 167.819 98.069 167.819 98.3536V98.3536Z" fill="#9B3519" fill-opacity="0.996078"/>
<path d="M165.295 101.329C165.295 101.613 165.348 101.895 165.451 102.158C165.553 102.421 165.703 102.66 165.893 102.861C166.082 103.062 166.307 103.222 166.555 103.331C166.802 103.44 167.067 103.496 167.335 103.496C167.603 103.496 167.868 103.44 168.116 103.331C168.363 103.222 168.588 103.062 168.778 102.861C168.967 102.66 169.117 102.421 169.22 102.158C169.322 101.895 169.375 101.613 169.375 101.329C169.375 101.044 169.322 100.762 169.22 100.499C169.117 100.236 168.967 99.9972 168.778 99.796C168.588 99.5947 168.363 99.4351 168.116 99.3262C167.868 99.2173 167.603 99.1612 167.335 99.1612C167.067 99.1612 166.802 99.2173 166.555 99.3262C166.307 99.4351 166.082 99.5947 165.893 99.796C165.703 99.9972 165.553 100.236 165.451 100.499C165.348 100.762 165.295 101.044 165.295 101.329Z" fill="#9B3519" fill-opacity="0.996078"/>
<path d="M162.323 103.672C162.323 103.957 162.375 104.239 162.478 104.502C162.58 104.765 162.731 105.004 162.92 105.205C163.11 105.406 163.334 105.566 163.582 105.675C163.829 105.784 164.095 105.84 164.363 105.84C164.63 105.84 164.896 105.784 165.143 105.675C165.391 105.566 165.615 105.406 165.805 105.205C165.994 105.004 166.145 104.765 166.247 104.502C166.35 104.239 166.402 103.957 166.402 103.672C166.402 103.388 166.35 103.106 166.247 102.843C166.145 102.58 165.994 102.341 165.805 102.14C165.615 101.939 165.391 101.779 165.143 101.67C164.896 101.561 164.63 101.505 164.363 101.505C164.095 101.505 163.829 101.561 163.582 101.67C163.334 101.779 163.11 101.939 162.92 102.14C162.731 102.341 162.58 102.58 162.478 102.843C162.375 103.106 162.323 103.388 162.323 103.672V103.672Z" fill="#9B3519" fill-opacity="0.996078"/>
<path d="M158.713 104.574C158.713 104.858 158.766 105.14 158.869 105.403C158.971 105.666 159.121 105.905 159.311 106.106C159.5 106.308 159.725 106.467 159.973 106.576C160.22 106.685 160.485 106.741 160.753 106.741C161.021 106.741 161.286 106.685 161.534 106.576C161.781 106.467 162.006 106.308 162.196 106.106C162.385 105.905 162.535 105.666 162.638 105.403C162.74 105.14 162.793 104.858 162.793 104.574C162.793 104.289 162.74 104.007 162.638 103.744C162.535 103.481 162.385 103.243 162.196 103.041C162.006 102.84 161.781 102.68 161.534 102.571C161.286 102.463 161.021 102.406 160.753 102.406C160.485 102.406 160.22 102.463 159.973 102.571C159.725 102.68 159.5 102.84 159.311 103.041C159.121 103.243 158.971 103.481 158.869 103.744C158.766 104.007 158.713 104.289 158.713 104.574V104.574Z" fill="#9B3519" fill-opacity="0.996078"/>
<path d="M169.217 86.3186C169.217 86.6032 169.27 86.8851 169.372 87.148C169.475 87.411 169.625 87.6499 169.815 87.8512C170.004 88.0524 170.229 88.2121 170.476 88.321C170.724 88.4299 170.989 88.4859 171.257 88.4859C171.525 88.4859 171.79 88.4299 172.038 88.321C172.285 88.2121 172.51 88.0524 172.699 87.8512C172.889 87.6499 173.039 87.411 173.142 87.148C173.244 86.8851 173.297 86.6032 173.297 86.3186C173.297 86.034 173.244 85.7522 173.142 85.4892C173.039 85.2263 172.889 84.9874 172.699 84.7861C172.51 84.5848 172.285 84.4252 172.038 84.3163C171.79 84.2074 171.525 84.1513 171.257 84.1513C170.989 84.1513 170.724 84.2074 170.476 84.3163C170.229 84.4252 170.004 84.5848 169.815 84.7861C169.625 84.9874 169.475 85.2263 169.372 85.4892C169.27 85.7522 169.217 86.034 169.217 86.3186V86.3186Z" fill="#9B3519" fill-opacity="0.996078"/>
<path d="M154.827 105.607C154.827 105.891 154.879 106.173 154.982 106.436C155.084 106.699 155.235 106.938 155.424 107.139C155.613 107.34 155.838 107.5 156.086 107.609C156.333 107.718 156.599 107.774 156.866 107.774C157.134 107.774 157.4 107.718 157.647 107.609C157.894 107.5 158.119 107.34 158.309 107.139C158.498 106.938 158.648 106.699 158.751 106.436C158.853 106.173 158.906 105.891 158.906 105.607C158.906 105.322 158.853 105.04 158.751 104.777C158.648 104.514 158.498 104.275 158.309 104.074C158.119 103.873 157.894 103.713 157.647 103.604C157.4 103.495 157.134 103.439 156.866 103.439C156.599 103.439 156.333 103.495 156.086 103.604C155.838 103.713 155.613 103.873 155.424 104.074C155.235 104.275 155.084 104.514 154.982 104.777C154.879 105.04 154.827 105.322 154.827 105.607V105.607Z" fill="#9B3519" fill-opacity="0.996078"/>
<path d="M163.942 169.5H162.899C158.258 169.5 154.496 173.262 154.496 177.902V191.252C154.496 195.892 158.258 199.654 162.899 199.654H163.942C168.583 199.654 172.345 195.892 172.345 191.252V177.902C172.345 173.262 168.583 169.5 163.942 169.5Z" fill="#9B3519" fill-opacity="0.996078"/>
<path d="M120.218 161.638C114.14 161.638 109.015 165.558 107.211 171.015C107.276 171.108 107.337 171.205 107.397 171.302C107.422 171.341 107.446 171.381 107.47 171.421C107.524 171.514 107.576 171.607 107.624 171.703C107.649 171.751 107.671 171.801 107.694 171.85C107.738 171.942 107.782 172.033 107.821 172.128C107.876 172.262 107.925 172.398 107.97 172.536C107.971 172.538 107.971 172.54 107.972 172.542C107.993 172.608 108.009 172.675 108.028 172.742C108.056 172.843 108.083 172.944 108.106 173.048C108.121 173.113 108.133 173.179 108.145 173.245C108.166 173.357 108.183 173.471 108.197 173.586C108.203 173.641 108.212 173.695 108.217 173.75C108.233 173.925 108.244 174.101 108.244 174.28V180.655C108.244 180.833 108.232 181.009 108.216 181.183C108.213 181.222 108.209 181.26 108.204 181.299C108.185 181.471 108.161 181.642 108.126 181.809C110.429 186.121 114.969 189.044 120.218 189.044H193.239C196.733 189.044 199.911 187.746 202.327 185.608C202.33 185.601 202.332 185.593 202.335 185.586C200.836 184.734 199.765 183.221 199.521 181.436C199.486 181.181 199.468 180.92 199.468 180.655V174.28C199.468 172.905 199.952 171.647 200.76 170.667C200.852 170.556 200.954 170.453 201.054 170.349C200.491 168.687 199.182 164.814 198.524 162.693C196.899 162.016 195.115 161.638 193.239 161.638H120.218Z" fill="#EF5125"/>
<path d="M175.369 155.508H131.594C126.953 155.508 123.191 159.27 123.191 163.911V171.626C123.191 176.267 126.953 180.029 131.594 180.029H175.369C180.009 180.029 183.771 176.267 183.771 171.626V163.911C183.771 159.27 180.009 155.508 175.369 155.508Z" fill="#EB4B25" fill-opacity="0.996569"/>
<path d="M145.9 157.136L128.392 151.614C126.411 150.99 124.298 152.089 123.674 154.07C123.049 156.051 124.148 158.163 126.129 158.788L143.638 164.309C145.619 164.934 147.731 163.834 148.356 161.853C148.981 159.872 147.881 157.76 145.9 157.136Z" fill="#EB4B25"/>
<path d="M161.061 157.136L178.569 151.614C180.55 150.99 182.663 152.089 183.287 154.07C183.912 156.051 182.813 158.163 180.832 158.788L163.323 164.309C161.342 164.934 159.23 163.834 158.605 161.853C157.98 159.872 159.08 157.76 161.061 157.136Z" fill="#EB4B25"/>
<path d="M160.301 169.363L177.448 159.233C182.037 156.522 187.956 158.044 190.667 162.634C193.378 167.223 191.856 173.141 187.267 175.852L170.12 185.983C165.531 188.694 159.612 187.171 156.901 182.582C154.19 177.993 155.712 172.075 160.301 169.363Z" fill="#B25929"/>
<path d="M179.255 157.76L182.627 155.824C183.925 155.079 185.581 155.527 186.325 156.824C187.07 158.122 186.623 159.778 185.325 160.523L181.953 162.459C180.655 163.204 178.999 162.756 178.254 161.458C177.509 160.161 177.957 158.505 179.255 157.76Z" fill="#B25929"/>
<path d="M163.954 162.758C156.192 162.596 149.46 168.309 148.498 176.187C147.472 184.59 153.412 192.181 161.815 193.207L192.153 196.911C196.624 197.457 200.864 196.031 204.009 193.311C201.796 191.296 201.215 188.183 202.331 185.586C200.618 184.612 199.464 182.774 199.464 180.655V174.28C199.464 172.748 200.069 171.366 201.05 170.349C200.828 169.693 200.605 169.034 200.179 167.761C198.838 167.171 197.389 166.76 195.857 166.573L165.519 162.87C164.994 162.805 164.471 162.769 163.954 162.758V162.758Z" fill="#F46C21"/>
<path d="M111.852 170.473C110.292 170.473 108.836 170.895 107.587 171.629C108.004 172.42 108.242 173.321 108.242 174.28V180.655C108.242 182.775 107.089 184.613 105.374 185.587C106.317 187.781 106.045 190.34 104.605 192.297C106.063 194.777 108.756 196.436 111.852 196.436H158.15C162.805 196.436 166.553 192.688 166.553 188.033V178.875C166.553 174.22 162.805 170.473 158.15 170.473H111.852Z" fill="#F46C21"/>
<path d="M130.766 167.399L125.268 164.433C121.705 162.511 117.258 163.841 115.336 167.405C113.414 170.968 114.744 175.415 118.307 177.337L123.805 180.303C127.368 182.225 131.815 180.895 133.737 177.332C135.659 173.769 134.329 169.322 130.766 167.399Z" fill="#EF5125"/>
<path d="M158.152 170.473H134.57C129.93 170.473 126.168 174.235 126.168 178.876V188.033C126.168 192.674 129.93 196.436 134.57 196.436H158.152C162.793 196.436 166.555 192.674 166.555 188.033V178.876C166.555 174.235 162.793 170.473 158.152 170.473Z" fill="#EF5125"/>
<path d="M162.454 169.363H151.672C147.031 169.363 143.27 173.125 143.27 177.765V192.578C143.27 197.218 147.031 200.98 151.672 200.98H162.454C167.094 200.98 170.856 197.218 170.856 192.578V177.765C170.856 173.125 167.094 169.363 162.454 169.363Z" fill="#F46C21"/>
<path d="M153.141 163.744H145.288C139.958 163.744 135.637 168.066 135.637 173.396V183.798C135.637 189.128 139.958 193.449 145.288 193.449H153.141C158.471 193.449 162.792 189.128 162.792 183.798V173.396C162.792 168.066 158.471 163.744 153.141 163.744Z" fill="#F46C21"/>
<path d="M148.777 167.069L131.63 156.939C127.041 154.227 121.122 155.75 118.411 160.339C115.7 164.928 117.222 170.847 121.811 173.558L138.958 183.688C143.548 186.399 149.466 184.877 152.177 180.288C154.888 175.698 153.366 169.78 148.777 167.069Z" fill="#B95D2A" fill-opacity="0.996078"/>
<path d="M133.408 153.46L128.12 151.388C126.915 150.916 125.555 151.511 125.082 152.716C124.61 153.921 125.204 155.281 126.41 155.753L131.698 157.825C132.903 158.297 134.263 157.703 134.735 156.498C135.207 155.292 134.613 153.933 133.408 153.46Z" fill="#F46C21"/>
<path d="M129.929 156.103L126.556 154.167C125.259 153.422 123.603 153.87 122.858 155.167C122.113 156.465 122.561 158.121 123.859 158.866L127.231 160.802C128.528 161.547 130.184 161.099 130.929 159.801C131.674 158.504 131.226 156.848 129.929 156.103Z" fill="#B95D2A" fill-opacity="0.996078"/>
<path d="M174.724 172.254L166.369 167.616C164.28 166.456 161.646 167.21 160.486 169.3C159.326 171.389 160.08 174.023 162.169 175.183L170.524 179.821C172.614 180.98 175.248 180.227 176.408 178.137C177.567 176.048 176.814 173.414 174.724 172.254Z" fill="#EF5125"/>
<path d="M187.114 181.286L181.946 178.418C180.653 177.7 179.024 178.166 178.306 179.459C177.589 180.751 178.055 182.381 179.348 183.098L184.516 185.967C185.808 186.684 187.438 186.218 188.155 184.926C188.873 183.633 188.406 182.004 187.114 181.286Z" fill="#EF5125"/>
<path d="M117.058 182.216C116.641 180.73 115.099 179.863 113.613 180.28C112.127 180.696 111.26 182.239 111.676 183.725L113.817 191.364C114.234 192.85 115.776 193.717 117.262 193.3C118.748 192.884 119.615 191.341 119.199 189.855L117.058 182.216Z" fill="#F78F56"/>
<path d="M195.347 166.441L179.355 164.929C178.093 164.809 176.974 165.735 176.854 166.997C176.735 168.259 177.661 169.379 178.923 169.498L194.915 171.011C196.177 171.13 197.296 170.204 197.416 168.942C197.535 167.68 196.609 166.561 195.347 166.441Z" fill="#F78F56"/>
<path d="M161.763 179.061H160.615C159.348 179.061 158.32 180.089 158.32 181.356V187.221C158.32 188.488 159.348 189.515 160.615 189.515H161.763C163.03 189.515 164.057 188.488 164.057 187.221V181.356C164.057 180.089 163.03 179.061 161.763 179.061Z" fill="#F78F56"/>
<path d="M159.338 192.703H156.406C155.42 192.703 154.621 193.502 154.621 194.488C154.621 195.473 155.42 196.272 156.406 196.272H159.338C160.324 196.272 161.123 195.473 161.123 194.488C161.123 193.502 160.324 192.703 159.338 192.703Z" fill="#F78F56"/>
<path d="M173.104 154.001L178.392 151.929C179.597 151.457 180.957 152.051 181.429 153.257C181.902 154.462 181.307 155.822 180.102 156.294L174.814 158.366C173.609 158.838 172.249 158.244 171.777 157.039C171.304 155.833 171.899 154.474 173.104 154.001Z" fill="#F46C21"/>
<defs>
<filter id="filter0_d_1821_5780" x="28.832" y="116.101" width="249.301" height="235.797" filterUnits="userSpaceOnUse" color-interpolation-filters="sRGB">
<feFlood flood-opacity="0" result="BackgroundImageFix"/>
<feColorMatrix in="SourceAlpha" type="matrix" values="0 0 0 0 0 0 0 0 0 0 0 0 0 0 0 0 0 0 127 0" result="hardAlpha"/>
<feOffset dy="4"/>
<feGaussianBlur stdDeviation="2"/>
<feComposite in2="hardAlpha" operator="out"/>
<feColorMatrix type="matrix" values="0 0 0 0 0.956863 0 0 0 0 0.423529 0 0 0 0 0.129412 0 0 0 0.5 0"/>
<feBlend mode="normal" in2="BackgroundImageFix" result="effect1_dropShadow_1821_5780"/>
<feBlend mode="normal" in="SourceGraphic" in2="effect1_dropShadow_1821_5780" result="shape"/>
</filter>
</defs>
</svg>
