<svg width="710" height="644" viewBox="0 0 710 644" fill="none" xmlns="http://www.w3.org/2000/svg">
<path d="M433.569 531.69C413.63 536.253 383.598 540.861 343.609 540.861H343.607H343.597L343.55 540.861L343.357 540.861C343.184 540.86 342.924 540.859 342.582 540.857C341.898 540.853 340.886 540.844 339.585 540.826C336.984 540.79 333.232 540.717 328.649 540.573C319.475 540.284 307.007 539.706 293.792 538.553C280.553 537.397 266.697 535.676 254.706 533.127C244.795 531.02 236.785 528.469 231.437 525.577C248.656 452.258 271.334 386.562 344.544 327.396C417.721 387.774 438.633 458.953 456.234 518.864C456.813 520.833 457.388 522.79 457.961 524.734C457.333 524.96 456.648 525.201 455.904 525.455C450.991 527.136 443.54 529.408 433.569 531.69Z" fill="white" stroke="black" stroke-width="12.5532"/>
<path d="M344.844 329.008L344.844 539.833" stroke="black" stroke-width="8.36879"/>
<path d="M413.5 416.362L234.592 523.874" stroke="black" stroke-width="8.36879"/>
<path d="M456.336 523.034L270.709 413.842" stroke="black" stroke-width="8.36879"/>
<path d="M305.484 430.254L344.966 407.459L384.448 430.254V475.844L344.966 498.639L305.484 475.844V430.254Z" fill="white" stroke="black" stroke-width="5.60993"/>
<path d="M343.484 457.061V455.461C343.484 454.207 343.711 453.047 344.164 451.981C344.644 450.914 345.444 449.754 346.564 448.501C347.417 447.567 348.004 446.767 348.324 446.101C348.671 445.434 348.844 444.727 348.844 443.981C348.844 443.101 348.524 442.407 347.884 441.901C347.244 441.394 346.337 441.141 345.164 441.141C342.551 441.141 340.137 442.101 337.924 444.021L336.244 440.181C337.364 439.167 338.751 438.354 340.404 437.741C342.084 437.127 343.777 436.821 345.484 436.821C347.164 436.821 348.631 437.101 349.884 437.661C351.164 438.221 352.151 438.994 352.844 439.981C353.564 440.967 353.924 442.127 353.924 443.461C353.924 444.687 353.644 445.834 353.084 446.901C352.551 447.967 351.591 449.127 350.204 450.381C348.951 451.527 348.084 452.527 347.604 453.381C347.124 454.234 346.817 455.087 346.684 455.941L346.524 457.061H343.484ZM342.204 465.421V459.861H347.804V465.421H342.204Z" fill="black"/>
<path d="M363.998 115.059L363.988 115.008C363.305 111.792 367.026 109.199 372.299 109.215L381.793 108.034L387.112 106.535C389.043 105.992 390.74 104.964 392.089 103.523L394.299 101.163C397.804 97.4182 404.043 97.8515 408.823 102.171C411.329 104.437 414.538 105.363 417.247 107.27C420.183 109.336 422.214 112.978 422.683 115.188L422.694 115.238C423.211 117.67 421.209 119.747 417.921 120.607C415.736 121.18 413.575 121.939 412.097 123.599C411.238 124.564 410.163 125.28 408.934 125.705L405.709 126.821C402.27 128.011 398.347 128.011 394.397 126.821L377.718 121.795C375.772 121.208 373.828 121 371.883 120.639C367.842 119.889 364.553 117.67 363.998 115.059Z" fill="#81584A"/>
<path d="M421.905 122.91L421.848 122.915C418.21 123.258 414.721 120.06 414.056 115.772L409.48 99.5249L409.062 83.5758C408.396 79.2881 410.807 75.5344 414.445 75.1916L414.502 75.1862C418.14 74.8435 423.79 77.3595 424.455 81.6472L429.45 113.843C430.115 118.131 425.543 122.567 421.905 122.91Z" fill="#81584A"/>
<path d="M426.581 121.444C424.514 124.813 420.046 125.506 416.603 122.991C413.159 120.476 412.043 115.706 414.109 112.337L417.048 107.546C419.115 104.177 423.582 103.484 427.026 105.999C430.47 108.514 431.586 113.284 429.519 116.653L426.581 121.444Z" fill="#906253"/>
<path d="M426.871 119.979C426.546 120.5 425.415 120.297 424.346 119.523C423.277 118.75 422.674 117.7 422.999 117.178L425.136 113.752C425.461 113.23 426.592 113.434 427.661 114.208C428.73 114.981 429.333 116.031 429.007 116.553L426.871 119.979Z" fill="#9D6B5A"/>
<path d="M408.733 74.6324L408.595 72.2367C408.331 67.645 412.843 63.2494 418.673 62.4188L423.853 61.6809C429.683 60.8503 434.623 63.8992 434.887 68.4909L435.024 70.8867C435.288 75.4783 430.776 79.8739 424.946 80.7045L419.766 81.4424C413.936 82.273 408.996 79.2241 408.733 74.6324Z" fill="#906253"/>
<path d="M423.505 74.2221C419.777 73.5287 417.735 69.9906 418.945 66.3194C420.156 62.6482 424.159 60.2343 427.888 60.9276L438.073 62.8215C454.88 66.1323 441.945 70.0997 439.485 73.6275C439.228 73.9972 439.026 74.4022 438.737 74.7506C436.904 76.9596 433.986 77.9017 431.587 77.0593L423.505 74.2221Z" fill="#906253"/>
<path d="M422.017 82.036C419.441 82.3948 417.258 81.0877 417.141 79.1165C417.024 77.1453 419.018 75.2565 421.595 74.8977L428.632 73.9178C431.209 73.559 433.392 74.8661 433.509 76.8373C433.625 78.8085 431.631 80.6973 429.055 81.0561L422.017 82.036Z" fill="#9D6B5A"/>
<path d="M322.161 114.428L322.171 114.478C322.855 117.694 319.134 120.288 313.86 120.272L304.366 121.453L297.954 123.259C296.733 123.603 295.575 124.088 294.498 124.706L292.395 125.914C288.168 128.341 282.678 128.271 277.434 125.725C274.793 124.443 271.922 124.12 269.373 122.523C266.19 120.529 263.97 116.623 263.476 114.299L263.465 114.248C262.948 111.816 264.951 109.74 268.238 108.879C270.423 108.307 272.584 107.548 274.062 105.888C274.921 104.923 275.996 104.207 277.225 103.782L280.45 102.665C283.89 101.475 287.812 101.475 291.763 102.666L308.441 107.692C310.388 108.278 312.332 108.486 314.277 108.847C318.317 109.598 321.606 111.816 322.161 114.428Z" fill="#81584A"/>
<path d="M270.107 107.414L270.163 107.408C273.802 107.066 277.29 110.264 277.955 114.551L282.532 130.798L282.95 146.748C283.615 151.035 281.205 154.789 277.567 155.132L277.51 155.137C273.872 155.48 268.222 152.964 267.557 148.676L262.562 116.48C261.897 112.192 266.468 107.757 270.107 107.414Z" fill="#81584A"/>
<path d="M263.236 108.914C260.418 111.685 260.748 116.194 263.973 118.984C267.198 121.773 272.097 121.788 274.915 119.016L278.922 115.075C281.74 112.303 281.41 107.795 278.185 105.005C274.96 102.215 270.061 102.201 267.243 104.972L263.236 108.914Z" fill="#906253"/>
<path d="M263.669 114.219C263.233 114.654 263.686 115.71 264.68 116.577C265.675 117.445 266.833 117.796 267.269 117.362L270.126 114.51C270.561 114.075 270.108 113.02 269.114 112.152C268.12 111.284 266.961 110.933 266.526 111.367L263.669 114.219Z" fill="#9D6B5A"/>
<path d="M281.221 148.364L282.97 150.007C286.322 153.156 286.074 159.45 282.417 164.066L279.168 168.166C275.511 172.782 269.829 173.971 266.477 170.822L264.728 169.179C261.376 166.03 261.623 159.735 265.28 155.119L268.529 151.019C272.186 146.403 277.869 145.215 281.221 148.364Z" fill="#906253"/>
<path d="M270.79 158.831C273.972 156.767 277.888 157.928 279.537 161.424C281.187 164.92 279.944 169.428 276.762 171.491L268.071 177.128C248.601 179.39 257.344 172.713 258.074 168.809C258.215 168.053 258.101 167.214 258.324 166.484C258.787 164.969 259.801 163.759 261.092 163.18L270.79 158.831Z" fill="#906253"/>
<path d="M266.491 152.139C268.113 150.106 270.597 149.551 272.038 150.9C273.48 152.25 273.334 154.993 271.712 157.027L267.281 162.582C265.659 164.615 263.176 165.17 261.734 163.821C260.293 162.471 260.439 159.728 262.061 157.694L266.491 152.139Z" fill="#9D6B5A"/>
<path d="M331.681 231.077L329.638 231.077C325.181 231.077 321.569 234.689 321.569 239.146L321.568 258.886L321.569 273.263L319.961 287.998C319.961 291.217 323.247 293.828 327.3 293.828H329.011C333.064 293.828 336.35 291.217 336.35 287.998V266.504C336.35 264.994 336.731 263.508 337.458 262.184C338.185 260.861 338.566 259.375 338.566 257.865V255.063C338.566 253.402 338.353 251.747 337.93 250.14C337.508 248.533 337.294 246.878 337.294 245.217V236.689C337.294 236.347 337.263 236.005 337.2 235.668C336.708 233.007 334.387 231.077 331.681 231.077Z" fill="#906253"/>
<path d="M330.137 172.75H319.139C318.623 172.75 318.204 173.169 318.204 173.685L314.684 205.251V216.485C314.684 217.739 314.79 218.991 315.002 220.227L315.833 225.072C316.283 227.694 317.201 230.214 318.545 232.511L320.848 236.447C321.345 237.295 321.606 238.26 321.606 239.243C321.606 242.3 324.085 244.779 327.142 244.779H331.33C334.609 244.779 337.266 242.121 337.266 238.843C337.266 238.115 337.4 237.394 337.661 236.715L338.48 234.581C338.834 233.658 339.113 232.707 339.314 231.738L340.565 225.693L341.805 217.756C341.981 216.626 342.07 215.484 342.07 214.34V200.651V184.683C342.07 178.093 336.727 172.75 330.137 172.75Z" fill="#81584A"/>
<path d="M331.657 281.489H324.766C320.792 281.489 317.57 284.251 317.57 287.658C317.57 291.065 320.792 293.827 324.766 293.827H331.657C335.631 293.827 338.852 291.065 338.852 287.658C338.852 284.251 335.631 281.489 331.657 281.489Z" fill="#9D6B5A"/>
<path d="M336.47 287.069H319.953C318.637 287.069 317.57 287.984 317.57 289.112V291.784C317.57 292.912 318.637 293.827 319.953 293.827H336.47C337.786 293.827 338.852 292.912 338.852 291.784V289.112C338.852 287.984 337.786 287.069 336.47 287.069Z" fill="#9D6B5A"/>
<path d="M369.171 136.981C369.171 120.411 355.847 114.018 342.329 114.018C328.81 114.018 316.469 120.411 316.469 136.981L317.852 165.699C317.852 182.269 328.81 195.702 342.329 195.702C355.847 195.702 366.806 186.043 366.806 169.473L369.171 136.981Z" fill="#81584A"/>
<path d="M375.895 99.7086H308.349C301.037 99.7086 295.109 105.636 295.109 112.948C295.109 120.26 301.037 126.187 308.349 126.187H375.895C383.207 126.187 389.134 120.26 389.134 112.948C389.134 105.636 383.207 99.7086 375.895 99.7086Z" fill="#906253"/>
<path d="M378.199 119.765C378.199 104.405 362.141 91.9537 342.332 91.9537C322.523 91.9537 306.465 104.405 306.465 119.765C306.465 135.124 322.523 147.576 342.332 147.576C362.141 147.576 378.199 135.124 378.199 119.765Z" fill="#81584A"/>
<path d="M344.312 140.689H340.35C330.901 140.689 323.242 147.621 323.242 156.173V167.36L343.241 175.978L361.419 167.36V156.173C361.419 147.621 353.76 140.689 344.312 140.689Z" fill="#906253"/>
<path d="M360.874 99.6451H323.789C314.221 99.6451 306.465 106.472 306.465 114.893V124.083C306.465 132.505 314.221 139.332 323.789 139.332H360.874C370.442 139.332 378.199 132.505 378.199 124.083V114.893C378.199 106.472 370.442 99.6451 360.874 99.6451Z" fill="#906253"/>
<path d="M364.11 99.6451H320.553C312.772 99.6451 306.465 105.989 306.465 113.815V122.356C306.465 130.182 312.772 136.526 320.553 136.526H364.11C371.891 136.526 378.199 130.182 378.199 122.356V113.815C378.199 105.989 371.891 99.6451 364.11 99.6451Z" fill="#9D6B5A"/>
<path d="M345.261 130.679C345.261 129.713 343.908 128.929 342.24 128.929C340.571 128.929 339.219 129.713 339.219 130.679V134.071C339.219 135.037 340.571 135.821 342.24 135.821C343.908 135.821 345.261 135.037 345.261 134.071V130.679Z" fill="#81584A"/>
<path d="M358.005 125.346H350.963C348.94 125.346 347.301 126.826 347.301 128.652C347.301 130.478 348.94 131.958 350.963 131.958H358.005C360.027 131.958 361.667 130.478 361.667 128.652C361.667 126.826 360.027 125.346 358.005 125.346Z" fill="#AC7967"/>
<path d="M333.149 125.346H326.107C324.085 125.346 322.445 126.826 322.445 128.652C322.445 130.478 324.085 131.958 326.107 131.958H333.149C335.172 131.958 336.811 130.478 336.811 128.652C336.811 126.826 335.172 125.346 333.149 125.346Z" fill="#AC7967"/>
<path d="M355.15 88.2577C355.15 79.7828 349.411 72.9124 342.333 72.9124C335.254 72.9124 329.516 79.7828 329.516 88.2577V94.5533C329.516 103.028 335.254 109.899 342.333 109.899C349.411 109.899 355.15 103.028 355.15 94.5533V88.2577Z" fill="#9D6B5A"/>
<path d="M323.034 132.13H320.469C319.446 132.13 318.617 132.879 318.617 133.802C318.617 134.725 319.446 135.474 320.469 135.474H323.034C324.056 135.474 324.886 134.725 324.886 133.802C324.886 132.879 324.056 132.13 323.034 132.13Z" fill="#81584A"/>
<path d="M364.952 132.13H362.387C361.364 132.13 360.535 132.879 360.535 133.802C360.535 134.726 361.364 135.474 362.387 135.474H364.952C365.974 135.474 366.804 134.726 366.804 133.802C366.804 132.879 365.974 132.13 364.952 132.13Z" fill="#81584A"/>
<path d="M344.818 72.9124H339.847C334.141 72.9124 329.516 77.538 329.516 83.2439V87.4825C329.516 93.1884 334.141 97.814 339.847 97.814H344.818C350.524 97.814 355.15 93.1884 355.15 87.4825V83.2439C355.15 77.538 350.524 72.9124 344.818 72.9124Z" fill="#81584A"/>
<path d="M309.719 101.88H308.166C304.018 101.88 300.656 105.242 300.656 109.389C300.656 113.536 304.018 116.898 308.166 116.898H309.719C313.867 116.898 317.229 113.536 317.229 109.389C317.229 105.242 313.867 101.88 309.719 101.88Z" fill="#9D6B5A"/>
<path d="M376.731 102.612H375.177C371.03 102.612 367.668 105.974 367.668 110.121C367.668 114.268 371.03 117.63 375.177 117.63H376.731C380.878 117.63 384.24 114.268 384.24 110.121C384.24 105.974 380.878 102.612 376.731 102.612Z" fill="#9D6B5A"/>
<path d="M309.614 104.403H307.284C305.997 104.403 304.953 105.447 304.953 106.734C304.953 108.021 305.997 109.064 307.284 109.064H309.614C310.901 109.064 311.945 108.021 311.945 106.734C311.945 105.447 310.901 104.403 309.614 104.403Z" fill="#AC7967"/>
<path d="M379.559 104.586H377.229C375.942 104.586 374.898 105.629 374.898 106.916C374.898 108.203 375.942 109.247 377.229 109.247H379.559C380.846 109.247 381.89 108.203 381.89 106.916C381.89 105.629 380.846 104.586 379.559 104.586Z" fill="#AC7967"/>
<path d="M354.02 229.154L355.953 229.154C360.4 229.154 364.005 232.759 364.006 237.207L364.006 257.662L364.005 272.399L365.613 287.504C365.613 290.805 362.327 293.481 358.274 293.481H356.563C352.51 293.481 349.224 290.805 349.224 287.504V265.053C349.224 263.596 348.842 262.165 348.116 260.902C347.39 259.639 347.008 258.208 347.008 256.751V253.68C347.008 252.018 347.217 250.363 347.629 248.754L347.644 248.696C348.067 247.048 348.28 245.354 348.28 243.653V234.894C348.28 234.552 348.311 234.21 348.372 233.874C348.865 231.141 351.244 229.154 354.02 229.154Z" fill="#906253"/>
<path d="M356.402 172.255H362.834C364.426 172.255 365.847 173.256 366.382 174.755C366.464 174.986 366.524 175.225 366.56 175.467L370.653 202.955C370.814 204.035 370.895 205.125 370.895 206.216V215.727C370.895 216.988 370.787 218.247 370.572 219.49L369.75 224.26C369.297 226.886 368.373 229.408 367.022 231.705L364.732 235.597C364.234 236.442 363.972 237.405 363.972 238.386C363.972 241.423 361.51 243.885 358.472 243.885H354.21C350.953 243.885 348.312 241.244 348.312 237.987C348.312 237.26 348.177 236.54 347.916 235.863L347.098 233.744C346.744 232.826 346.465 231.88 346.264 230.916L345.013 224.905L343.776 217.031C343.598 215.895 343.508 214.746 343.508 213.596V200.001V185.149C343.508 178.028 349.281 172.255 356.402 172.255Z" fill="#81584A"/>
<path d="M354.679 281.136H361.57C365.544 281.136 368.766 283.9 368.766 287.308C368.766 290.717 365.544 293.481 361.57 293.481H354.679C350.705 293.481 347.484 290.717 347.484 287.308C347.484 283.9 350.705 281.136 354.679 281.136Z" fill="#9D6B5A"/>
<path d="M349.866 283.677H366.383C367.699 283.677 368.766 285.004 368.766 286.641V290.517C368.766 292.154 367.699 293.48 366.383 293.48H349.866C348.55 293.48 347.484 292.154 347.484 290.517V286.641C347.484 285.004 348.55 283.677 349.866 283.677Z" fill="#9D6B5A"/>
<path d="M361.162 63.9319H325.639C321.578 63.9319 318.285 67.3519 318.285 71.5707C318.285 75.7895 321.578 79.2095 325.639 79.2095H361.162C365.223 79.2095 368.516 75.7895 368.516 71.5707C368.516 67.3519 365.223 63.9319 361.162 63.9319Z" fill="#9D6B5A"/>
<path d="M360.879 65.1725H324.517C321.371 65.1725 318.82 67.7231 318.82 70.8693C318.82 74.0155 321.371 76.566 324.517 76.566H360.879C364.025 76.566 366.575 74.0155 366.575 70.8693C366.575 67.7231 364.025 65.1725 360.879 65.1725Z" fill="#81584A"/>
<path d="M348.044 41.7595H337.352C328.494 41.7595 321.312 48.9408 321.312 57.7993V76.807C321.312 85.6655 328.494 92.8467 337.352 92.8467H348.044C356.902 92.8467 364.083 85.6655 364.083 76.807V57.7993C364.083 48.9408 356.902 41.7595 348.044 41.7595Z" fill="#9D6B5A"/>
<path d="M347.654 90.7379H337.663C336.583 90.7379 335.707 91.6137 335.707 92.694C335.707 93.7743 336.583 94.6501 337.663 94.6501H347.654C348.734 94.6501 349.61 93.7743 349.61 92.694C349.61 91.6137 348.734 90.7379 347.654 90.7379Z" fill="#9D6B5A"/>
<path d="M338.099 144.902H333.556C331.389 144.902 329.633 146.433 329.633 148.322C329.633 150.211 331.389 151.742 333.556 151.742H338.099C340.266 151.742 342.022 150.211 342.022 148.322C342.022 146.433 340.266 144.902 338.099 144.902Z" fill="#9D6B5A"/>
<path d="M338.099 152.966H333.556C331.389 152.966 329.633 154.497 329.633 156.386C329.633 158.275 331.389 159.806 333.556 159.806H338.099C340.266 159.806 342.022 158.275 342.022 156.386C342.022 154.497 340.266 152.966 338.099 152.966Z" fill="#9D6B5A"/>
<path d="M338.099 161.031H333.556C331.389 161.031 329.633 162.563 329.633 164.451C329.633 166.34 331.389 167.872 333.556 167.872H338.099C340.266 167.872 342.022 166.34 342.022 164.451C342.022 162.563 340.266 161.031 338.099 161.031Z" fill="#9D6B5A"/>
<path d="M351.974 144.902H347.431C345.264 144.902 343.508 146.433 343.508 148.322C343.508 150.211 345.264 151.742 347.431 151.742H351.974C354.141 151.742 355.897 150.211 355.897 148.322C355.897 146.433 354.141 144.902 351.974 144.902Z" fill="#9D6B5A"/>
<path d="M351.974 152.966H347.431C345.264 152.966 343.508 154.497 343.508 156.386C343.508 158.275 345.264 159.806 347.431 159.806H351.974C354.141 159.806 355.897 158.275 355.897 156.386C355.897 154.497 354.141 152.966 351.974 152.966Z" fill="#9D6B5A"/>
<path d="M351.974 161.031H347.431C345.264 161.031 343.508 162.563 343.508 164.451C343.508 166.34 345.264 167.872 347.431 167.872H351.974C354.141 167.872 355.897 166.34 355.897 164.451C355.897 162.563 354.141 161.031 351.974 161.031Z" fill="#9D6B5A"/>
<path d="M337.761 106.106L330.765 102.742C329.987 102.368 329.052 102.696 328.678 103.474C328.304 104.253 328.631 105.188 329.41 105.562L336.406 108.925C337.185 109.299 338.119 108.971 338.493 108.193C338.868 107.414 338.54 106.48 337.761 106.106Z" fill="#81584A"/>
<path d="M346.09 106.106L353.086 102.742C353.865 102.368 354.799 102.696 355.174 103.474C355.548 104.253 355.22 105.188 354.442 105.562L347.446 108.925C346.667 109.299 345.732 108.971 345.358 108.193C344.984 107.414 345.312 106.48 346.09 106.106Z" fill="#81584A"/>
<path d="M344.883 88.3434H341.979C341.747 88.3434 341.559 88.5316 341.559 88.7638V89.0115C341.559 89.2437 341.747 89.432 341.979 89.432H344.883C345.115 89.432 345.303 89.2437 345.303 89.0115V88.7638C345.303 88.5316 345.115 88.3434 344.883 88.3434Z" fill="#81584A"/>
<path d="M347.086 69.977C347.086 68.2425 345.68 66.8364 343.945 66.8364C342.211 66.8364 340.805 68.2425 340.805 69.977V75.5192C340.805 77.2537 342.211 78.6598 343.945 78.6598C345.68 78.6598 347.086 77.2537 347.086 75.5192V69.977Z" fill="#81584A"/>
<path d="M337.368 67.0109C337.368 65.9254 336.488 65.0454 335.403 65.0454C334.317 65.0454 333.438 65.9254 333.438 67.0109V67.7971C333.438 68.8826 334.317 69.7625 335.403 69.7625C336.488 69.7625 337.368 68.8826 337.368 67.7971V67.0109Z" fill="#61534B"/>
<path d="M356.325 66.8897C356.325 65.8042 355.445 64.9242 354.36 64.9242C353.275 64.9242 352.395 65.8042 352.395 66.8897V67.6758C352.395 68.7613 353.275 69.6413 354.36 69.6413C355.445 69.6413 356.325 68.7613 356.325 67.6758V66.8897Z" fill="#61534B"/>
<path d="M347.058 87.6699C349.951 87.6699 352.28 85.1825 352.28 82.0921V81.1894L347.937 82.0921L338.981 84.6207L334.695 81.1894V82.0921C334.695 85.1825 337.024 87.6699 339.917 87.6699H347.058Z" fill="white"/>
<path d="M343.521 76.2878L340.6 73.8061C340.118 73.3961 339.394 73.4549 338.984 73.9374C338.574 74.42 338.633 75.1435 339.115 75.5535L342.036 78.0352C342.519 78.4453 343.242 78.3865 343.652 77.9039C344.062 77.4214 344.003 76.6978 343.521 76.2878Z" fill="#81584A"/>
<path d="M344.362 76.2878L347.283 73.8061C347.765 73.3961 348.489 73.4549 348.899 73.9374C349.309 74.42 349.25 75.1435 348.767 75.5535L345.847 78.0352C345.364 78.4452 344.641 78.3865 344.231 77.9039C343.821 77.4214 343.879 76.6978 344.362 76.2878Z" fill="#81584A"/>
<path d="M345.764 74.6929C345.764 73.8607 345.089 73.186 344.257 73.186C343.425 73.186 342.75 73.8607 342.75 74.6929V76.0687C342.75 76.9009 343.425 77.5756 344.257 77.5756C345.089 77.5756 345.764 76.9009 345.764 76.0687V74.6929Z" fill="#906253"/>
<path d="M337.497 65.0446L331.237 63.3488C330.558 63.1649 329.94 63.4105 329.855 63.8974C329.771 64.3842 330.253 64.9279 330.932 65.1118L337.191 66.8076C337.87 66.9914 338.489 66.7458 338.573 66.259C338.657 65.7721 338.175 65.2284 337.497 65.0446Z" fill="#4D4D4D"/>
<path d="M331.341 64.6944C331.395 64.3318 331.08 63.929 330.639 63.7947C330.198 63.6603 329.796 63.8454 329.743 64.208L329.52 65.7116C329.466 66.0742 329.78 66.477 330.221 66.6114C330.663 66.7457 331.064 66.5606 331.118 66.198L331.341 64.6944Z" fill="#4D4D4D"/>
<path d="M350.015 65.0436L356.275 63.3477C356.954 63.1639 357.572 63.4095 357.656 63.8963C357.741 64.3832 357.259 64.9269 356.58 65.1107L350.32 66.8066C349.642 66.9904 349.023 66.7448 348.939 66.2579C348.855 65.7711 349.337 65.2274 350.015 65.0436Z" fill="#4D4D4D"/>
<path d="M356.171 64.6939C356.117 64.3313 356.431 63.9285 356.873 63.7942C357.314 63.6599 357.715 63.8449 357.769 64.2075L357.992 65.7111C358.046 66.0737 357.732 66.4766 357.29 66.6109C356.849 66.7452 356.448 66.5601 356.394 66.1976L356.171 64.6939Z" fill="#4D4D4D"/>
<path d="M341.928 64.2501C341.928 63.764 341.534 63.3699 341.048 63.3699C340.562 63.3699 340.168 63.764 340.168 64.2501V65.3156C340.168 65.8017 340.562 66.1958 341.048 66.1958C341.534 66.1958 341.928 65.8017 341.928 65.3156V64.2501Z" fill="#81584A"/>
<path d="M347.768 64.2501C347.768 63.764 347.374 63.3699 346.888 63.3699C346.402 63.3699 346.008 63.764 346.008 64.2501V65.3156C346.008 65.8018 346.402 66.1959 346.888 66.1959C347.374 66.1959 347.768 65.8018 347.768 65.3156V64.2501Z" fill="#81584A"/>
<path d="M345.76 74.6907C345.76 73.8585 345.085 73.1838 344.253 73.1838C343.421 73.1838 342.746 73.8585 342.746 74.6907V76.0665C342.746 76.8987 343.421 77.5734 344.253 77.5734C345.085 77.5734 345.76 76.8987 345.76 76.0665V74.6907Z" fill="#906253"/>
<path d="M337.295 64.6883L331.034 63.8186C330.355 63.7243 329.823 64.0025 329.845 64.44C329.867 64.8775 330.435 65.3085 331.113 65.4028L337.375 66.2725C338.053 66.3668 338.586 66.0886 338.564 65.6511C338.542 65.2136 337.974 64.7825 337.295 64.6883Z" fill="#4D4D4D"/>
<path d="M331.181 65.1342C331.166 64.7647 330.832 64.406 330.435 64.3329C330.037 64.2599 329.727 64.5002 329.742 64.8697L329.804 66.4019C329.819 66.7714 330.154 67.1301 330.551 67.2031C330.949 67.2762 331.259 67.0359 331.244 66.6664L331.181 65.1342Z" fill="#4D4D4D"/>
<path d="M365.28 61.4925C365.204 61.4858 365.127 61.4857 365.049 61.4932C364.961 61.5018 364.871 61.5202 364.782 61.5485L364.599 61.6066C364.007 61.7953 363.636 62.3747 363.65 62.9987C363.592 62.9115 363.524 62.8353 363.451 62.7649V64.6983C366.014 65.8256 367.808 68.5014 367.808 71.6389C367.808 74.7931 365.994 77.4799 363.41 78.5966C363.336 79.7231 363.148 80.8146 362.865 81.8625V82.9436C362.8 82.8322 362.721 82.7305 362.635 82.6376C361.346 86.6162 358.608 89.8643 355.081 91.6774V94.1031C355.081 95.0787 355.821 95.8636 356.74 95.8636H357.506C358.425 95.8636 359.165 95.0787 359.165 94.1031V93.6291C359.414 94.2663 360.004 94.7123 360.696 94.7123H361.462C362.381 94.7123 363.121 93.9267 363.121 92.9511V92.3936C363.413 92.8905 363.929 93.2225 364.524 93.2225C365.443 93.2225 366.183 92.4369 366.183 91.4613V81.5692L366.524 82.7743C366.738 83.529 367.482 83.9545 368.193 83.7279C368.904 83.5012 369.304 82.7107 369.091 81.956L367.271 75.5248C367.606 75.9249 368.138 76.1075 368.655 75.9427L368.839 75.8839C369.549 75.6573 369.95 74.8675 369.736 74.1128L366.451 62.5014C366.287 61.9236 365.813 61.5393 365.28 61.4925V61.4925ZM322.15 61.5882C321.618 61.635 321.143 62.0192 320.98 62.597L317.694 74.2084C317.481 74.9631 317.881 75.7529 318.592 75.9796L318.775 76.0384C319.292 76.2031 319.824 76.0205 320.159 75.6204L318.339 82.0517C318.126 82.8063 318.526 83.5968 319.237 83.8235C319.948 84.0502 320.693 83.6253 320.906 82.8706L320.975 82.6276V91.4613C320.975 92.4369 321.714 93.2225 322.633 93.2225C323.228 93.2225 323.745 92.8905 324.037 92.3936V92.9511C324.037 93.9267 324.777 94.7123 325.696 94.7123H326.462C327.154 94.7123 327.743 94.2673 327.993 93.6312V94.1031C327.993 95.0787 328.733 95.8636 329.652 95.8636H330.417C331.336 95.8636 332.076 95.0787 332.076 94.1031V91.6136C328.582 89.7745 325.877 86.52 324.616 82.5462C324.491 82.6614 324.38 82.7937 324.292 82.9436V81.3815C324.078 80.4816 323.933 79.5517 323.87 78.5966C321.286 77.4799 319.473 74.7931 319.473 71.6389C319.473 68.5014 321.266 65.8255 323.829 64.6982V63.0313C323.813 63.0526 323.795 63.0719 323.78 63.0943C323.794 62.4706 323.423 61.8908 322.831 61.7022L322.649 61.6441C322.56 61.6158 322.47 61.5975 322.381 61.5889C322.303 61.5814 322.226 61.5815 322.15 61.5881V61.5882Z" fill="#4D4D4D"/>
<path d="M327.818 48.4833C324.951 51.3135 323.156 55.4036 323.156 59.9673V78.3253C323.156 86.9075 329.504 93.8169 337.389 93.8169H349.881C357.766 93.8169 364.114 86.9075 364.114 78.3253V59.9673C364.114 55.4036 362.319 51.3135 359.453 48.4833C361.637 51.2436 362.958 54.8388 362.958 58.7842V77.4765C362.958 86.2152 356.494 93.2501 348.466 93.2501H338.806C330.777 93.2501 324.313 86.2152 324.313 77.4765V58.7842C324.313 54.8388 325.634 51.2436 327.818 48.4833Z" fill="#565656"/>
<path d="M336.181 93.6398C336.181 92.8198 335.571 92.1551 334.817 92.1551C334.064 92.1551 333.453 92.8198 333.453 93.6398V95.3639C333.453 96.1839 334.064 96.8486 334.817 96.8486C335.571 96.8486 336.181 96.1839 336.181 95.3639V93.6398Z" fill="#565656"/>
<path d="M338.736 94.992C338.736 94.172 338.125 93.5073 337.372 93.5073C336.619 93.5073 336.008 94.172 336.008 94.992V96.7162C336.008 97.5361 336.619 98.2008 337.372 98.2008C338.125 98.2008 338.736 97.5361 338.736 96.7162V94.992Z" fill="#565656"/>
<path d="M341.255 95.7388C341.255 94.9189 340.645 94.2542 339.891 94.2542C339.138 94.2542 338.527 94.9189 338.527 95.7388V97.463C338.527 98.283 339.138 98.9477 339.891 98.9477C340.645 98.9477 341.255 98.283 341.255 97.463V95.7388Z" fill="#565656"/>
<path d="M343.744 95.9078C343.744 95.0879 343.133 94.4232 342.38 94.4232C341.626 94.4232 341.016 95.0879 341.016 95.9078V97.632C341.016 98.452 341.626 99.1167 342.38 99.1167C343.133 99.1167 343.744 98.452 343.744 97.632V95.9078Z" fill="#565656"/>
<path d="M333.885 90.6629C333.885 89.6842 333.156 88.8909 332.257 88.8909C331.358 88.8909 330.629 89.6842 330.629 90.6629V92.7208C330.629 93.6994 331.358 94.4928 332.257 94.4928C333.156 94.4928 333.885 93.6994 333.885 92.7208V90.6629Z" fill="#565656"/>
<path d="M331.069 88.8447C331.069 87.866 330.34 87.0726 329.441 87.0726C328.541 87.0726 327.812 87.866 327.812 88.8447V90.9025C327.812 91.8812 328.541 92.6746 329.441 92.6746C330.34 92.6746 331.069 91.8812 331.069 90.9025V88.8447Z" fill="#565656"/>
<path d="M328.694 86.641C328.694 85.6623 327.965 84.869 327.066 84.869C326.166 84.869 325.438 85.6623 325.438 86.641V88.6989C325.438 89.6775 326.166 90.4709 327.066 90.4709C327.965 90.4709 328.694 89.6775 328.694 88.6989V86.641Z" fill="#565656"/>
<path d="M351.096 93.6398C351.096 92.8198 351.707 92.1551 352.46 92.1551C353.214 92.1551 353.824 92.8198 353.824 93.6398V95.3639C353.824 96.1839 353.214 96.8486 352.46 96.8486C351.707 96.8486 351.096 96.1839 351.096 95.3639V93.6398Z" fill="#565656"/>
<path d="M348.541 94.992C348.541 94.172 349.152 93.5073 349.905 93.5073C350.659 93.5073 351.27 94.172 351.27 94.992V96.7162C351.27 97.5361 350.659 98.2008 349.905 98.2008C349.152 98.2008 348.541 97.5361 348.541 96.7162V94.992Z" fill="#565656"/>
<path d="M346.022 95.7391C346.022 94.9192 346.633 94.2545 347.386 94.2545C348.139 94.2545 348.75 94.9192 348.75 95.7391V97.4633C348.75 98.2833 348.139 98.948 347.386 98.948C346.633 98.948 346.022 98.2833 346.022 97.4633V95.7391Z" fill="#565656"/>
<path d="M343.534 95.9078C343.534 95.0879 344.144 94.4232 344.898 94.4232C345.651 94.4232 346.262 95.0879 346.262 95.9078V97.632C346.262 98.452 345.651 99.1167 344.898 99.1167C344.144 99.1167 343.534 98.452 343.534 97.632V95.9078Z" fill="#565656"/>
<path d="M353.392 90.6629C353.392 89.6842 354.121 88.8909 355.02 88.8909C355.92 88.8909 356.648 89.6842 356.648 90.6629V92.7208C356.648 93.6994 355.92 94.4928 355.02 94.4928C354.121 94.4928 353.392 93.6994 353.392 92.7208V90.6629Z" fill="#565656"/>
<path d="M356.209 88.8453C356.209 87.8667 356.938 87.0733 357.837 87.0733C358.736 87.0733 359.465 87.8667 359.465 88.8453V90.9032C359.465 91.8819 358.736 92.6752 357.837 92.6752C356.938 92.6752 356.209 91.8819 356.209 90.9032V88.8453Z" fill="#565656"/>
<path d="M358.584 86.641C358.584 85.6623 359.313 84.869 360.212 84.869C361.111 84.869 361.84 85.6623 361.84 86.641V88.6989C361.84 89.6775 361.111 90.4709 360.212 90.4709C359.313 90.4709 358.584 89.6775 358.584 88.6989V86.641Z" fill="#565656"/>
<path d="M337.476 76.1671C334.293 76.1671 331.73 78.956 331.73 82.4205V89.7359C331.73 93.2005 334.293 95.9894 337.476 95.9894H349.804C352.987 95.9894 355.549 93.2005 355.549 89.7359V82.4205C355.549 78.956 352.987 76.1671 349.804 76.1671H348.598C348.64 76.5482 348.512 76.9437 348.222 77.212L347.734 77.6626C348.023 77.9577 348.238 78.3382 348.332 78.7741H350.004C351.784 78.7741 353.216 80.3331 353.216 82.2703V85.4158C353.216 86.1509 353.009 86.8307 352.656 87.3924V88.2553C352.656 91.0208 350.611 93.247 348.07 93.247H339.21C336.669 93.247 334.624 91.0208 334.624 88.2553V87.3924C334.27 86.8307 334.064 86.1509 334.064 85.4158V82.2703C334.064 80.3331 335.496 78.7741 337.276 78.7741H338.328C338.454 78.1875 338.793 77.6957 339.25 77.3898L339.058 77.212C338.768 76.9437 338.64 76.5482 338.682 76.1671H337.476Z" fill="#565656"/>
<path d="M334.78 42.1436C327.276 42.1436 321.234 48.5567 321.234 56.5229C321.234 56.897 321.252 57.2663 321.278 57.633C321.252 57.8207 321.234 58.0113 321.234 58.2069V67.0157C321.234 68.906 322.494 70.4722 324.173 70.8265V59.3312C324.173 51.1024 330.414 44.4772 338.166 44.4772H349.113C356.864 44.4772 363.105 51.1024 363.105 59.3312V70.8421C364.833 70.5284 366.142 68.942 366.142 67.0157V58.2069C366.142 58.0113 366.124 57.8207 366.098 57.633C366.124 57.2663 366.142 56.8971 366.142 56.5229C366.142 48.5567 360.101 42.1436 352.597 42.1436H334.78Z" fill="#4D4D4D"/>
<path d="M350.151 40.3304H337.948C333.837 40.3304 330.504 43.8684 330.504 48.2327C330.504 52.5969 333.837 56.1349 337.948 56.1349H350.151C354.262 56.1349 357.595 52.5969 357.595 48.2327C357.595 43.8684 354.262 40.3304 350.151 40.3304Z" fill="#4D4D4D"/>
<path d="M334.651 45.3506C334.651 44.1165 333.709 43.116 332.546 43.116C331.384 43.116 330.441 44.1165 330.441 45.3506V50.5324C330.441 51.7666 331.384 52.767 332.546 52.767C333.709 52.767 334.651 51.7666 334.651 50.5324V45.3506Z" fill="#4D4D4D"/>
<path d="M358.569 45.5454C358.569 44.3112 357.627 43.3107 356.464 43.3107C355.302 43.3107 354.359 44.3112 354.359 45.5454V50.7272C354.359 51.9613 355.302 52.9618 356.464 52.9618C357.627 52.9618 358.569 51.9613 358.569 50.7272V45.5454Z" fill="#4D4D4D"/>
<path d="M329.642 47.9046C329.532 47.0902 328.82 46.5248 328.053 46.6418C327.286 46.7588 326.753 47.5138 326.864 48.3283L327.219 50.9569C327.33 51.7714 328.041 52.3367 328.808 52.2197C329.575 52.1027 330.108 51.3477 329.997 50.5333L329.642 47.9046Z" fill="#4D4D4D"/>
<path d="M359.405 48.5455C359.515 47.731 360.227 47.1657 360.994 47.2827C361.761 47.3997 362.293 48.1547 362.183 48.9691L361.828 51.5978C361.717 52.4122 361.006 52.9776 360.239 52.8606C359.472 52.7436 358.939 51.9885 359.049 51.1741L359.405 48.5455Z" fill="#4D4D4D"/>
<path d="M342.583 44.255H343.897C344.672 44.255 345.301 44.922 345.301 45.7448V51.1856C345.301 52.0084 344.672 52.6754 343.897 52.6754H342.583C341.808 52.6754 341.18 52.0084 341.18 51.1856V45.7448C341.18 44.922 341.808 44.255 342.583 44.255Z" fill="#565656"/>
<path d="M336.913 44.4161H338.648C339.254 44.4161 339.746 44.9381 339.746 45.582V51.3468C339.746 51.9907 339.254 52.5127 338.648 52.5127H336.913C336.307 52.5127 335.815 51.9907 335.815 51.3468V45.582C335.815 44.9381 336.307 44.4161 336.913 44.4161Z" fill="#565656"/>
<path d="M349.567 44.4161H347.833C347.226 44.4161 346.734 44.9381 346.734 45.582V51.3468C346.734 51.9907 347.226 52.5127 347.833 52.5127H349.567C350.174 52.5127 350.666 51.9907 350.666 51.3468V45.582C350.666 44.9381 350.174 44.4161 349.567 44.4161Z" fill="#565656"/>
<path d="M328.115 173.02H318.062C319.124 190.719 334.317 205.078 344.09 205.078C353.991 205.078 365.976 191.052 366.868 173.02H328.115Z" fill="#4F4F4F"/>
<path d="M366.867 172.75L343.102 178.607L343.102 225.294H369.492C373.171 210.695 369.492 189.27 366.867 172.75Z" fill="#4B4B4B"/>
<path d="M318.056 172.989L342.185 178.607V225.139H315.508C312.466 211.561 316.398 189.345 318.056 172.989Z" fill="#4B4B4B"/>
<path d="M171.71 449.589L171.733 449.547C173.095 447.025 176.086 445.912 178.64 446.875C179.025 447.02 179.403 447.181 179.802 447.291L183.662 448.361C184.268 448.529 184.964 448.24 185.39 447.644C185.756 447.132 186.328 446.84 186.877 446.885L191.783 447.291C193.863 447.463 195.738 448.369 197.128 449.876L199.666 452.625C200.988 454.058 202.85 455.214 203.086 457.324C203.351 459.699 202.352 462.991 201.367 464.815L201.344 464.857C200.3 466.789 198.3 467.895 196.273 467.873C194.735 467.856 193.05 468.059 191.801 469.243C190.887 470.109 189.715 470.536 188.612 470.405L184.437 469.908C183.173 469.758 181.966 469.394 180.858 468.831L180.61 468.704C177.943 467.347 175.999 464.871 175.167 461.77C174.34 458.688 171.755 456.472 171.131 453.306C170.893 452.096 171.064 450.784 171.71 449.589Z" fill="#81584A"/>
<path d="M199.064 456.289L199.007 456.283C196.16 456.015 193.405 457.915 192.023 460.808C191.229 462.468 190.846 464.28 190.116 465.966L185.823 475.885C184 480.099 183.578 484.703 184.619 489.007L185.284 491.754C185.902 494.309 185.699 497.098 186.501 499.593C187.281 502.018 189.167 503.777 191.603 504.007L191.66 504.012C194.62 504.291 198.913 502.677 200.768 499.757C201.624 498.409 201.905 496.808 202.484 495.335L205.132 488.587C206.108 486.102 206.608 483.485 206.608 480.873L206.608 466.944C206.608 465.886 206.758 464.812 206.627 463.769C206.16 460.035 202.253 456.589 199.064 456.289Z" fill="#81584A"/>
<path d="M204.035 459.22C203.71 458.698 202.579 458.902 201.51 459.675C200.441 460.449 199.838 461.499 200.164 462.021L202.3 465.446C202.625 465.968 203.756 465.764 204.825 464.991C205.894 464.217 206.497 463.167 206.171 462.645L204.035 459.22Z" fill="#9D6B5A"/>
<path d="M198.103 497.238L199.852 498.881C203.204 502.03 202.957 508.325 199.3 512.941L196.051 517.041C192.394 521.657 186.712 522.845 183.36 519.696L181.611 518.053C178.258 514.904 178.506 508.61 182.163 503.994L185.412 499.894C189.069 495.278 194.751 494.089 198.103 497.238Z" fill="#906253"/>
<path d="M188.941 507.064C191.832 505.982 194.985 507.257 196.42 510.299C198.069 513.795 196.827 518.302 193.645 520.366L184.954 526.003C182.183 527.8 177.833 521.919 175.665 518.06C175.121 517.092 175.049 515.876 175.386 514.774C175.736 513.629 176.501 512.716 177.476 512.278L186.38 508.285C187.241 507.899 188.064 507.392 188.941 507.064Z" fill="#906253"/>
<path d="M121.981 449.213L121.959 449.171C120.597 446.65 117.606 445.536 115.051 446.499C114.667 446.644 114.288 446.805 113.89 446.915L110.03 447.985C109.423 448.153 108.727 447.865 108.302 447.269C107.936 446.756 107.364 446.464 106.814 446.51L101.908 446.915C99.8283 447.087 97.9535 447.994 96.563 449.5L94.0258 452.249C92.7031 453.682 90.8414 454.838 90.6058 456.948C90.3407 459.323 91.3397 462.615 92.3249 464.439L92.3478 464.482C93.3911 466.413 95.3911 467.519 97.4182 467.497C98.9564 467.48 100.641 467.683 101.89 468.867C102.804 469.733 103.976 470.16 105.08 470.029L109.254 469.532C110.518 469.382 111.725 469.019 112.833 468.455L113.081 468.329C115.749 466.972 117.692 464.496 118.524 461.395C119.351 458.312 121.936 456.097 122.56 452.931C122.799 451.72 122.627 450.408 121.981 449.213Z" fill="#81584A"/>
<path d="M88.0294 457.336L88.0815 457.36C90.6856 458.54 93.9089 457.641 96.1581 455.356C97.449 454.045 98.4016 452.456 99.6401 451.1L106.929 443.118C110.024 439.728 111.923 435.512 112.339 431.104L112.605 428.289C112.852 425.672 113.953 423.102 114.006 420.482C114.058 417.935 112.848 415.657 110.619 414.647L110.567 414.623C107.859 413.396 103.275 413.524 100.57 415.682C99.3223 416.677 98.5343 418.1 97.5083 419.304L92.8067 424.822C91.0757 426.854 89.7501 429.166 88.8998 431.635L84.365 444.805C84.0205 445.805 83.5298 446.773 83.3137 447.801C82.5397 451.484 85.1116 456.014 88.0294 457.336Z" fill="#81584A"/>
<path d="M84.2832 452.947C84.421 453.547 85.5564 453.722 86.8191 453.339C88.0818 452.956 88.9938 452.159 88.8559 451.56L87.9514 447.625C87.8136 447.026 86.6783 446.85 85.4155 447.234C84.1528 447.617 83.2409 448.413 83.3787 449.013L84.2832 452.947Z" fill="#9D6B5A"/>
<path d="M102.271 418.931L101.152 416.808C99.0078 412.739 101.291 406.868 106.252 403.695L110.659 400.875C115.619 397.702 121.379 398.428 123.523 402.497L124.642 404.62C126.786 408.688 124.503 414.559 119.542 417.733L115.135 420.552C110.175 423.726 104.415 423 102.271 418.931Z" fill="#906253"/>
<path d="M114.136 412.625C111.05 412.706 108.484 410.475 108.118 407.131C107.697 403.288 110.339 399.431 114.02 398.516L124.072 396.016C127.277 395.219 129.476 402.195 130.269 406.549C130.468 407.643 130.141 408.816 129.463 409.748C128.76 410.716 127.739 411.331 126.674 411.427L116.955 412.304C116.016 412.388 115.072 412.601 114.136 412.625Z" fill="#906253"/>
<path d="M174.145 477.867C171.663 465.097 159.796 460.043 147.776 460.043C135.944 460.043 125.014 464.94 122.471 477.271C121.711 480.955 120.792 484.672 118.689 487.79C116.585 490.908 115.461 494.584 115.461 498.345V514.294C115.461 530.864 134.258 541.727 147.776 541.727C161.294 541.727 179.646 530.864 179.646 514.294V497.737C179.646 494.346 178.822 491.006 177.244 488.004L177.019 487.576C175.452 484.594 174.8 481.24 174.158 477.933L174.145 477.867Z" fill="#81584A"/>
<path d="M181.783 445.733H113.354C105.946 445.733 99.9414 450.862 99.9414 457.19C99.9414 463.517 105.946 468.646 113.354 468.646H181.783C189.19 468.646 195.195 463.517 195.195 457.19C195.195 450.862 189.19 445.733 181.783 445.733Z" fill="#906253"/>
<path d="M149.761 483.713H145.799C136.351 483.713 128.691 490.646 128.691 499.198V510.385C128.691 518.937 136.351 525.87 145.799 525.87H149.761C159.209 525.87 166.868 518.937 166.868 510.385V499.198C166.868 490.646 159.209 483.713 149.761 483.713Z" fill="#906253"/>
<path d="M169.556 445.67H125.998C118.218 445.67 111.91 452.014 111.91 459.84C111.91 467.006 117.2 485.508 124.066 488.574C125.279 489.116 126.655 488.882 127.959 488.63L143.899 485.56C146.525 485.054 149.224 485.056 151.849 485.566L167.578 488.624C168.894 488.879 170.283 489.117 171.504 488.567C178.363 485.478 183.644 467.001 183.644 459.84C183.644 452.014 177.336 445.67 169.556 445.67Z" fill="#9D6B5A"/>
<path d="M150.706 476.703C150.706 475.737 149.354 474.954 147.685 474.954C146.017 474.954 144.664 475.737 144.664 476.703V480.096C144.664 481.062 146.017 481.845 147.685 481.845C149.354 481.845 150.706 481.062 150.706 480.096V476.703Z" fill="#81584A"/>
<path d="M163.45 471.371H156.408C154.386 471.371 152.746 472.851 152.746 474.677C152.746 476.503 154.386 477.983 156.408 477.983H163.45C165.473 477.983 167.112 476.503 167.112 474.677C167.112 472.851 165.473 471.371 163.45 471.371Z" fill="#AC7967"/>
<path d="M138.595 471.371H131.553C129.53 471.371 127.891 472.851 127.891 474.677C127.891 476.503 129.53 477.983 131.553 477.983H138.595C140.617 477.983 142.257 476.503 142.257 474.677C142.257 472.851 140.617 471.371 138.595 471.371Z" fill="#AC7967"/>
<path d="M162.926 434.282C162.926 425.807 156.145 418.937 147.779 418.937C139.414 418.937 132.633 425.807 132.633 434.282V440.578C132.633 449.053 139.414 455.923 147.779 455.923C156.145 455.923 162.926 449.053 162.926 440.578V434.282Z" fill="#9D6B5A"/>
<path d="M128.483 478.154H125.918C124.896 478.154 124.066 478.903 124.066 479.826C124.066 480.75 124.896 481.498 125.918 481.498H128.483C129.506 481.498 130.335 480.75 130.335 479.826C130.335 478.903 129.506 478.154 128.483 478.154Z" fill="#81584A"/>
<path d="M170.401 478.155H167.836C166.814 478.155 165.984 478.903 165.984 479.827C165.984 480.75 166.814 481.499 167.836 481.499H170.401C171.424 481.499 172.253 480.75 172.253 479.827C172.253 478.903 171.424 478.155 170.401 478.155Z" fill="#81584A"/>
<path d="M150.714 418.937H144.839C138.096 418.937 132.629 424.556 132.629 431.487V436.635C132.629 443.567 138.096 449.185 144.839 449.185H150.714C157.458 449.185 162.925 443.567 162.925 436.635V431.487C162.925 424.556 157.458 418.937 150.714 418.937Z" fill="#81584A"/>
<path d="M115.165 447.904H113.611C109.464 447.904 106.102 451.266 106.102 455.413C106.102 459.561 109.464 462.923 113.611 462.923H115.165C119.312 462.923 122.674 459.561 122.674 455.413C122.674 451.266 119.312 447.904 115.165 447.904Z" fill="#9D6B5A"/>
<path d="M182.18 448.636H180.627C176.479 448.636 173.117 451.998 173.117 456.146C173.117 460.293 176.479 463.655 180.627 463.655H182.18C186.327 463.655 189.689 460.293 189.689 456.146C189.689 451.998 186.327 448.636 182.18 448.636Z" fill="#9D6B5A"/>
<path d="M115.055 450.427H112.725C111.438 450.427 110.395 451.471 110.395 452.758C110.395 454.045 111.438 455.088 112.725 455.088H115.055C116.343 455.088 117.386 454.045 117.386 452.758C117.386 451.471 116.343 450.427 115.055 450.427Z" fill="#AC7967"/>
<path d="M185.005 450.61H182.674C181.387 450.61 180.344 451.654 180.344 452.941C180.344 454.228 181.387 455.271 182.674 455.271H185.005C186.292 455.271 187.335 454.228 187.335 452.941C187.335 451.654 186.292 450.61 185.005 450.61Z" fill="#AC7967"/>
<path d="M160.356 572.855L163.378 572.855C168.764 572.855 173.131 577.222 173.131 582.608L173.132 602.392L173.131 617.662L175.055 633.313C175.055 636.733 171.124 639.505 166.275 639.505H164.228C159.379 639.505 155.448 636.733 155.448 633.313L154.319 614.08L153.081 606.419C152.892 605.251 152.797 604.069 152.797 602.885V598.355C152.797 596.577 153.053 594.808 153.558 593.103C154.063 591.398 154.319 589.629 154.319 587.85V578.892C154.319 578.478 154.362 578.065 154.446 577.659C155.03 574.86 157.497 572.855 160.356 572.855Z" fill="#906253"/>
<path d="M165.485 513.9H173.168C174.824 513.9 176.315 514.904 176.938 516.438C177.049 516.712 177.13 516.998 177.18 517.29L181.967 545.554C182.173 546.776 182.277 548.012 182.277 549.251V560.906V566.369C182.277 570.357 181.023 574.244 178.693 577.48L177.985 578.464C177.402 579.273 176.936 580.162 176.603 581.103C175.115 585.308 171.138 588.118 166.677 588.118H156.063C155.802 588.118 155.546 588.049 155.32 587.918L155.165 587.828C154.806 587.619 154.585 587.235 154.585 586.82C154.585 586.64 154.543 586.464 154.464 586.303L153.045 583.431C152.208 581.738 151.701 579.9 151.551 578.017L150.004 558.525V542.649V529.381C150.004 520.831 156.936 513.9 165.485 513.9Z" fill="#81584A"/>
<path d="M163.169 626.715H171.29C175.973 626.715 179.77 629.578 179.77 633.11C179.77 636.642 175.973 639.505 171.29 639.505H163.169C158.486 639.505 154.69 636.642 154.69 633.11C154.69 629.578 158.486 626.715 163.169 626.715Z" fill="#9D6B5A"/>
<path d="M157.498 629.348H176.962C178.512 629.348 179.77 630.722 179.77 632.418V636.434C179.77 638.13 178.512 639.505 176.962 639.505H157.498C155.947 639.505 154.69 638.13 154.69 636.434V632.418C154.69 630.722 155.947 629.348 157.498 629.348Z" fill="#9D6B5A"/>
<path d="M134.652 573.731L131.63 573.731C126.243 573.731 121.877 578.097 121.876 583.484L121.876 603.268L121.877 618.538L119.953 634.189C119.953 637.608 123.884 640.381 128.733 640.381H130.78C135.629 640.381 139.56 637.608 139.56 634.189L140.689 614.956L141.927 607.295C142.116 606.126 142.211 604.945 142.211 603.761V599.231C142.211 597.452 141.955 595.683 141.45 593.978C140.945 592.273 140.689 590.504 140.689 588.726V579.768C140.689 579.353 140.646 578.941 140.561 578.535C139.978 575.736 137.511 573.73 134.652 573.731Z" fill="#906253"/>
<path d="M129.522 514.776H121.84C120.184 514.776 118.693 515.78 118.07 517.314C117.958 517.588 117.877 517.874 117.828 518.166L113.041 546.43C112.834 547.651 112.73 548.888 112.73 550.127V561.782V567.245C112.73 571.233 113.984 575.12 116.315 578.356L117.023 579.339C117.606 580.149 118.071 581.038 118.404 581.978C119.893 586.183 123.87 588.994 128.331 588.994H138.945C139.206 588.994 139.462 588.925 139.687 588.794L139.843 588.704C140.202 588.495 140.423 588.111 140.423 587.695C140.423 587.516 140.464 587.339 140.544 587.179L141.963 584.307C142.8 582.614 143.307 580.776 143.456 578.893L145.003 559.401V543.525V530.257C145.003 521.707 138.072 514.776 129.522 514.776Z" fill="#81584A"/>
<path d="M131.839 627.59H123.718C119.035 627.59 115.238 630.454 115.238 633.986C115.238 637.517 119.035 640.381 123.718 640.381H131.839C136.522 640.381 140.318 637.517 140.318 633.986C140.318 630.454 136.522 627.59 131.839 627.59Z" fill="#9D6B5A"/>
<path d="M137.51 630.223H118.046C116.495 630.223 115.238 631.598 115.238 633.294V637.31C115.238 639.006 116.495 640.381 118.046 640.381H137.51C139.061 640.381 140.318 639.006 140.318 637.31V633.294C140.318 631.598 139.061 630.223 137.51 630.223Z" fill="#9D6B5A"/>
<path d="M165.767 410.793H130.244C126.183 410.793 122.891 414.213 122.891 418.432C122.891 422.651 126.183 426.071 130.244 426.071H165.767C169.829 426.071 173.121 422.651 173.121 418.432C173.121 414.213 169.829 410.793 165.767 410.793Z" fill="#9D6B5A"/>
<path d="M166.32 412.871H129.958C126.812 412.871 124.262 415.421 124.262 418.568C124.262 421.714 126.812 424.264 129.958 424.264H166.32C169.466 424.264 172.017 421.714 172.017 418.568C172.017 415.421 169.466 412.871 166.32 412.871Z" fill="#81584A"/>
<path d="M153.489 389.458H142.798C133.939 389.458 126.758 396.639 126.758 405.497V424.505C126.758 433.364 133.939 440.545 142.798 440.545H153.489C162.347 440.545 169.529 433.364 169.529 424.505V405.497C169.529 396.639 162.347 389.458 153.489 389.458Z" fill="#9D6B5A"/>
<path d="M155.133 438.436H141.073C139.553 438.436 138.32 439.312 138.32 440.392C138.32 441.472 139.553 442.348 141.073 442.348H155.133C156.654 442.348 157.886 441.472 157.886 440.392C157.886 439.312 156.654 438.436 155.133 438.436Z" fill="#9D6B5A"/>
<path d="M153.099 442.348H143.108C142.028 442.348 141.152 443.224 141.152 444.304C141.152 445.385 142.028 446.26 143.108 446.26H153.099C154.179 446.26 155.055 445.385 155.055 444.304C155.055 443.224 154.179 442.348 153.099 442.348Z" fill="#9D6B5A"/>
<path d="M143.207 452.13L136.21 448.767C135.432 448.393 134.497 448.72 134.123 449.499C133.749 450.277 134.077 451.212 134.855 451.586L141.851 454.949C142.63 455.324 143.564 454.996 143.939 454.217C144.313 453.439 143.985 452.504 143.207 452.13Z" fill="#81584A"/>
<path d="M151.536 452.13L158.532 448.767C159.31 448.393 160.245 448.72 160.619 449.499C160.993 450.277 160.666 451.212 159.887 451.586L152.891 454.949C152.112 455.324 151.178 454.996 150.804 454.217C150.429 453.439 150.757 452.504 151.536 452.13Z" fill="#81584A"/>
<path d="M150.328 438.552H147.424C147.192 438.552 147.004 438.74 147.004 438.973V439.22C147.004 439.453 147.192 439.641 147.424 439.641H150.328C150.56 439.641 150.749 439.453 150.749 439.22V438.973C150.749 438.74 150.56 438.552 150.328 438.552Z" fill="#81584A"/>
<path d="M152.531 416.002C152.531 414.267 151.125 412.861 149.391 412.861C147.656 412.861 146.25 414.267 146.25 416.002V421.544C146.25 423.278 147.656 424.684 149.391 424.684C151.125 424.684 152.531 423.278 152.531 421.544V416.002Z" fill="#81584A"/>
<path d="M161.818 410.329C161.818 409.33 160.938 408.52 159.852 408.52C158.767 408.52 157.887 409.33 157.887 410.329V411.052C157.887 412.051 158.767 412.861 159.852 412.861C160.938 412.861 161.818 412.051 161.818 411.052V410.329Z" fill="#61534B"/>
<path d="M151.058 435.798C152.797 435.798 154.72 433.311 154.72 430.22V428.607C154.115 426.764 152.394 425.517 150.453 425.517H149.093H148.137C146.044 425.517 144.137 426.719 143.234 428.607V430.22C143.234 433.311 145.024 435.798 146.763 435.798H151.058Z" fill="#81584A"/>
<path d="M151.058 435.798C152.797 435.798 154.72 435.013 154.72 434.038V433.529C154.069 432.903 153.201 432.553 152.298 432.553H149.093H146.483C145.328 432.553 144.198 432.893 143.234 433.529V434.038C143.234 435.013 145.024 435.798 146.763 435.798H151.058Z" fill="white"/>
<path d="M151.058 428.858C152.797 428.858 154.72 428.05 154.72 427.045V426.521C154.07 425.878 153.192 425.517 152.278 425.517H149.093H146.499C145.335 425.517 144.197 425.867 143.234 426.521V427.045C143.234 428.05 145.024 428.858 146.763 428.858H151.058Z" fill="white"/>
<path d="M148.966 422.312L146.046 419.831C145.563 419.421 144.839 419.48 144.429 419.962C144.019 420.445 144.078 421.168 144.561 421.578L147.481 424.06C147.964 424.47 148.688 424.411 149.098 423.929C149.508 423.446 149.449 422.722 148.966 422.312Z" fill="#81584A"/>
<path d="M149.807 422.312L152.728 419.831C153.21 419.421 153.934 419.48 154.344 419.962C154.754 420.445 154.695 421.168 154.213 421.578L151.292 424.06C150.809 424.47 150.086 424.411 149.676 423.929C149.266 423.446 149.325 422.722 149.807 422.312Z" fill="#81584A"/>
<path d="M151.209 420.717C151.209 419.885 150.534 419.211 149.702 419.211C148.87 419.211 148.195 419.885 148.195 420.717V422.093C148.195 422.925 148.87 423.6 149.702 423.6C150.534 423.6 151.209 422.925 151.209 422.093V420.717Z" fill="#906253"/>
<path d="M147.37 410.275C147.37 409.788 146.976 409.394 146.49 409.394C146.003 409.394 145.609 409.788 145.609 410.275V411.34C145.609 411.826 146.003 412.22 146.49 412.22C146.976 412.22 147.37 411.826 147.37 411.34V410.275Z" fill="#81584A"/>
<path d="M153.21 410.275C153.21 409.789 152.816 409.395 152.329 409.395C151.843 409.395 151.449 409.789 151.449 410.275V411.34C151.449 411.826 151.843 412.22 152.329 412.22C152.816 412.22 153.21 411.826 153.21 411.34V410.275Z" fill="#81584A"/>
<path d="M151.205 420.715C151.205 419.883 150.53 419.208 149.698 419.208C148.866 419.208 148.191 419.883 148.191 420.715V422.091C148.191 422.923 148.866 423.598 149.698 423.598C150.53 423.598 151.205 422.923 151.205 422.091V420.715Z" fill="#906253"/>
<path d="M155.143 410.129C155.073 409.604 155.521 408.985 156.143 408.748L158.186 405.644L161.877 406.56C162.498 406.323 163.058 406.557 163.127 407.082C163.197 407.608 162.749 408.226 162.127 408.464L158.686 407.445L156.393 410.652C155.772 410.889 155.212 410.655 155.143 410.129Z" fill="#4D4D4D"/>
<path d="M137.354 410.329C137.354 409.33 138.234 408.52 139.32 408.52C140.405 408.52 141.285 409.33 141.285 410.329V411.052C141.285 412.051 140.405 412.861 139.32 412.861C138.234 412.861 137.354 412.051 137.354 411.052V410.329Z" fill="#61534B"/>
<path d="M147.689 420.715C147.689 419.883 148.364 419.208 149.196 419.208C150.028 419.208 150.703 419.883 150.703 420.715V422.091C150.703 422.923 150.028 423.598 149.196 423.598C148.364 423.598 147.689 422.923 147.689 422.091V420.715Z" fill="#906253"/>
<path d="M142.881 407.813C142.674 407.325 141.974 407.019 141.318 407.13L137.982 405.493L135.267 408.155C134.611 408.266 134.247 408.752 134.455 409.24C134.662 409.728 135.361 410.034 136.017 409.923L138.466 407.298L142.068 408.898C142.724 408.787 143.088 408.301 142.881 407.813Z" fill="#4D4D4D"/>
<path d="M83.1882 466.594C85.485 469.811 89.9897 470.191 93.2497 467.442C96.5096 464.693 97.2904 459.856 94.9936 456.64L91.7278 452.065C89.431 448.848 84.9264 448.469 81.6664 451.218C78.4064 453.967 77.6256 458.803 79.9225 462.02L83.1882 466.594Z" fill="#906253"/>
<path d="M82.605 464.866C82.9661 465.364 84.0797 465.082 85.0923 464.236C86.1049 463.39 86.6331 462.3 86.272 461.802L83.9021 458.534C83.541 458.036 82.4275 458.318 81.4149 459.165C80.4023 460.011 79.8741 461.1 80.2351 461.598L82.605 464.866Z" fill="#9D6B5A"/>
<path d="M128.662 514.776H115.465C116.858 532.475 136.803 546.834 149.632 546.834C162.629 546.834 178.363 532.808 179.533 514.776H128.662Z" fill="#4F4F4F"/>
<path d="M179.534 514.506L148.336 520.363L148.336 567.05H182.163C183.359 552.636 181.711 530.862 179.534 514.506Z" fill="#4B4B4B"/>
<path d="M115.463 514.745L147.139 520.363V566.894H112.118C111.889 552.832 113.286 531.101 115.463 514.745Z" fill="#4B4B4B"/>
<path d="M545.792 462.106L545.772 462.084C544.45 460.717 546.843 457.473 551.118 454.838L558.524 449.45L566.905 443.867L574.624 438.897L582.773 434.492C587.047 431.856 592.026 431.387 593.347 432.754L593.368 432.775C594.69 434.142 588.336 438.513 582.527 443.272L580.831 444.981C579.786 446.034 578.614 446.995 577.329 447.851L574.24 449.909L555.925 459.809C551.651 462.445 547.114 463.473 545.792 462.106Z" fill="#81584A"/>
<path d="M582.708 439.006L582.687 438.98C581.38 437.35 583.497 433.584 587.416 430.569L616.843 407.929C620.762 404.914 624.998 403.792 626.306 405.422L626.326 405.448C627.633 407.078 625.516 410.844 621.597 413.859L592.17 436.498C588.251 439.513 584.015 440.636 582.708 439.006Z" fill="#81584A"/>
<path d="M615.281 416.13L614.465 415.008C612.901 412.857 615.315 408.274 619.857 404.773L623.892 401.663C628.434 398.162 633.384 397.067 634.948 399.219L635.764 400.341C637.328 402.492 634.913 407.075 630.371 410.576L626.336 413.686C621.794 417.188 616.844 418.282 615.281 416.13Z" fill="#906253"/>
<path d="M597.687 432.498C592.774 436.266 587.618 437.714 586.171 435.732C584.724 433.751 587.533 429.089 592.446 425.322L599.431 419.964C604.344 416.196 609.5 414.748 610.947 416.73C612.394 418.711 609.585 423.372 604.672 427.14L597.687 432.498Z" fill="#906253"/>
<path d="M595.478 433.538C594.575 434.221 593.642 434.505 593.396 434.173C593.149 433.84 593.682 433.016 594.585 432.333L600.515 427.848C601.418 427.165 602.35 426.88 602.597 427.213C602.844 427.546 602.311 428.369 601.408 429.053L595.478 433.538Z" fill="#9D6B5A"/>
<path d="M627.411 408.266C624.13 409.903 621.364 409.166 621.233 406.618C621.102 404.071 623.656 400.679 626.937 399.041L635.899 394.569C639.18 392.931 641.946 393.669 642.077 396.216C642.207 398.764 639.654 402.156 636.372 403.793L627.411 408.266Z" fill="#906253"/>
<path d="M628.378 412.865C626.364 414.408 624.188 414.916 623.518 414C622.848 413.084 623.938 411.091 625.952 409.549L631.455 405.336C633.469 403.793 635.646 403.285 636.315 404.201C636.985 405.117 635.895 407.11 633.881 408.652L628.378 412.865Z" fill="#9D6B5A"/>
<path d="M499.858 453.839L499.831 453.828C498.062 453.13 495.981 456.583 495.182 461.541L493.039 470.445L491.087 480.325L489.449 489.358L488.498 498.572C487.699 503.53 489.171 508.309 490.939 509.007L490.967 509.018C492.736 509.716 494.343 502.173 496.516 494.985L497.446 492.764C498.019 491.395 498.458 489.945 498.757 488.431L499.477 484.789L501.615 464.079C502.413 459.122 501.627 454.537 499.858 453.839Z" fill="#81584A"/>
<path d="M494.169 483.815L494.136 483.811C492.059 483.585 490.021 487.394 489.583 492.319L486.3 529.302C485.863 534.227 487.193 538.403 489.27 538.63L489.303 538.633C491.38 538.86 493.419 535.051 493.856 530.125L497.139 493.143C497.576 488.218 496.246 484.042 494.169 483.815Z" fill="#81584A"/>
<path d="M492.376 523.579L490.99 523.494C488.336 523.331 485.768 527.829 485.256 533.541L484.8 538.616C484.288 544.327 486.025 549.09 488.679 549.253L490.065 549.338C492.719 549.501 495.287 545.003 495.799 539.291L496.254 534.217C496.767 528.505 495.03 523.742 492.376 523.579Z" fill="#906253"/>
<path d="M496.726 499.945C497.264 493.777 495.715 488.651 493.266 488.495C490.817 488.339 488.396 493.213 487.857 499.381L487.092 508.151C486.554 514.319 488.103 519.445 490.552 519.601C493.001 519.756 495.422 514.883 495.96 508.715L496.726 499.945Z" fill="#906253"/>
<path d="M492.265 538.036C491.883 534.389 489.775 532.452 487.556 533.711C485.338 534.969 483.849 538.946 484.231 542.593L485.274 552.554C485.656 556.201 487.764 558.138 489.983 556.879C492.201 555.621 493.69 551.644 493.308 547.997L492.265 538.036Z" fill="#906253"/>
<path d="M496.662 536.379C496.88 533.852 496.14 531.743 495.007 531.67C493.875 531.597 492.78 533.588 492.561 536.115L491.964 543.02C491.746 545.548 492.486 547.656 493.619 547.729C494.751 547.802 495.846 545.812 496.065 543.284L496.662 536.379Z" fill="#9D6B5A"/>
<path d="M523.999 629.061H518.33C515.061 629.061 512.41 631.392 512.41 634.268C512.41 637.143 515.061 639.475 518.33 639.475H523.999C527.269 639.475 529.919 637.143 529.919 634.268C529.919 631.392 527.269 629.061 523.999 629.061Z" fill="#9D6B5A"/>
<path d="M523.35 632.503H513.789C513.028 632.503 512.41 633.447 512.41 634.611V637.368C512.41 638.532 513.028 639.475 513.789 639.475H523.35C524.112 639.475 524.73 638.532 524.73 637.368V634.611C524.73 633.447 524.112 632.503 523.35 632.503Z" fill="#9D6B5A"/>
<path d="M516.524 639.475C518.87 639.475 520.772 636.783 520.772 633.461V611.09C520.772 609.647 520.989 608.211 521.414 606.831C521.839 605.451 522.055 604.016 522.055 602.572V598.825C522.055 597.545 521.962 596.267 521.775 595.001L521.599 593.81C521.412 592.544 521.319 591.266 521.319 589.986V579.998L521.192 578.774C520.953 576.481 519.021 574.739 516.716 574.739C514.231 574.739 512.216 576.754 512.216 579.239L512.216 603.428L512.216 618.26L511.285 633.461C511.285 636.783 513.187 639.475 515.534 639.475H516.524Z" fill="#906253"/>
<path d="M524.084 543.35V521.804C524.084 517.807 520.843 514.567 516.846 514.567C513.116 514.567 509.997 517.402 509.642 521.115L509.29 524.803L508.23 548.097V561.63L509.011 569.737C509.196 571.664 509.594 573.563 510.198 575.402L511.925 580.665C512.132 581.295 512.238 581.954 512.238 582.617V584.342C512.238 586.846 514.267 588.875 516.77 588.875C519.274 588.875 521.303 586.846 521.303 584.342V582.314C521.303 581.85 521.352 581.387 521.45 580.933L522.314 576.923L523.213 569.186L524.084 559.246V543.35Z" fill="#81584A"/>
<path d="M547.804 451.869H501.622C496.623 451.869 492.57 455.756 492.57 460.551C492.57 465.346 496.623 469.234 501.622 469.234H547.804C552.803 469.234 556.856 465.346 556.856 460.551C556.856 455.756 552.803 451.869 547.804 451.869Z" fill="#906253"/>
<path d="M536.139 451.066H514.42C508.816 451.066 504.273 456.613 504.273 463.456V470.924C504.273 477.768 508.816 483.315 514.42 483.315H536.139C541.742 483.315 546.285 477.768 546.285 470.924V463.456C546.285 456.613 541.742 451.066 536.139 451.066Z" fill="#906253"/>
<path d="M538.067 451.066H512.648C508.107 451.066 504.426 456.613 504.426 463.456V470.924C504.426 477.768 508.107 483.315 512.648 483.315H538.067C542.608 483.315 546.289 477.768 546.289 470.924V463.456C546.289 456.613 542.608 451.066 538.067 451.066Z" fill="#9D6B5A"/>
<path d="M527.403 479.538C527.403 478.488 526.402 477.636 525.166 477.636C523.931 477.636 522.93 478.488 522.93 479.538V483.227C522.93 484.277 523.931 485.129 525.166 485.129C526.402 485.129 527.403 484.277 527.403 483.227V479.538Z" fill="#81584A"/>
<path d="M537.598 469.234H532.461C530.985 469.234 529.789 470.843 529.789 472.828C529.789 474.814 530.985 476.423 532.461 476.423H537.598C539.074 476.423 540.27 474.814 540.27 472.828C540.27 470.843 539.074 469.234 537.598 469.234Z" fill="#AC7967"/>
<path d="M519.466 469.234H514.328C512.852 469.234 511.656 470.843 511.656 472.828C511.656 474.814 512.852 476.423 514.328 476.423H519.466C520.941 476.423 522.137 474.814 522.137 472.828C522.137 470.843 520.941 469.234 519.466 469.234Z" fill="#AC7967"/>
<path d="M533.919 437.695C533.919 429.376 530.044 422.632 525.264 422.632C520.484 422.632 516.609 429.376 516.609 437.695V443.874C516.609 452.193 520.484 458.937 525.264 458.937C530.044 458.937 533.919 452.193 533.919 443.874V437.695Z" fill="#9D6B5A"/>
<path d="M510.846 476.947H508.819C508.011 476.947 507.355 477.761 507.355 478.765C507.355 479.769 508.011 480.583 508.819 480.583H510.846C511.655 480.583 512.31 479.769 512.31 478.765C512.31 477.761 511.655 476.947 510.846 476.947Z" fill="#81584A"/>
<path d="M527.36 422.632H522.481C516.88 422.632 512.34 427.173 512.34 432.773V436.934C512.34 442.535 516.88 447.075 522.481 447.075H527.36C532.961 447.075 537.501 442.535 537.501 436.934V432.773C537.501 427.173 532.961 422.632 527.36 422.632Z" fill="#81584A"/>
<path d="M538.015 629.061H543.71C546.994 629.061 549.656 631.316 549.656 634.098C549.656 636.879 546.994 639.134 543.71 639.134H538.015C534.731 639.134 532.068 636.879 532.068 634.098C532.068 631.316 534.731 629.061 538.015 629.061Z" fill="#9D6B5A"/>
<path d="M533.818 629.061H545.952C546.919 629.061 547.703 630.424 547.703 632.106V636.089C547.703 637.771 546.919 639.134 545.952 639.134H533.818C532.851 639.134 532.067 637.771 532.067 636.089V632.106C532.067 630.424 532.851 629.061 533.818 629.061Z" fill="#9D6B5A"/>
<path d="M534.889 639.135C532.51 639.135 530.582 636.385 530.582 632.994V609.723C530.582 608.342 530.363 606.97 529.932 605.658C529.501 604.346 529.282 602.974 529.282 601.593V597.574C529.282 596.303 529.374 595.034 529.558 593.777L529.752 592.454C529.936 591.197 530.028 589.928 530.028 588.657V578.404L530.16 577.127C530.4 574.802 532.359 573.035 534.696 573.035C537.214 573.035 539.256 575.076 539.256 577.595L539.256 602.328L539.256 617.472L540.199 632.994C540.199 636.385 538.271 639.135 535.893 639.135H534.889Z" fill="#906253"/>
<path d="M527.223 543.078V521.911C527.223 517.855 530.511 514.567 534.567 514.567C538.346 514.567 541.508 517.435 541.876 521.196L542.219 524.706L543.293 547.78V561.185L542.511 569.127C542.317 571.094 541.902 573.032 541.272 574.905L539.553 580.024C539.34 580.658 539.231 581.323 539.231 581.992V583.578C539.231 586.115 537.174 588.172 534.636 588.172C532.099 588.172 530.042 586.115 530.042 583.578V581.688C530.042 581.218 529.991 580.75 529.89 580.292L529.017 576.333L528.106 568.669L527.223 558.823V543.078Z" fill="#81584A"/>
<path d="M539.54 413.128H511.015C507.753 413.128 505.109 416.485 505.109 420.626C505.109 424.767 507.753 428.124 511.015 428.124H539.54C542.801 428.124 545.445 424.767 545.445 420.626C545.445 416.485 542.801 413.128 539.54 413.128Z" fill="#9D6B5A"/>
<path d="M539.625 415.035H509.784C507.202 415.035 505.109 417.539 505.109 420.627C505.109 423.715 507.202 426.219 509.784 426.219H539.625C542.207 426.219 544.3 423.715 544.3 420.627C544.3 417.539 542.207 415.035 539.625 415.035Z" fill="#81584A"/>
<path d="M530.471 392.054H522.473C515.845 392.054 510.473 399.103 510.473 407.798V426.455C510.473 435.15 515.845 442.199 522.473 442.199H530.471C537.098 442.199 542.471 435.15 542.471 426.455V407.798C542.471 399.103 537.098 392.054 530.471 392.054Z" fill="#9D6B5A"/>
<path d="M530.853 440.129H522.012C521.056 440.129 520.281 440.989 520.281 442.049C520.281 443.11 521.056 443.969 522.012 443.969H530.853C531.809 443.969 532.584 443.11 532.584 442.049C532.584 440.989 531.809 440.129 530.853 440.129Z" fill="#9D6B5A"/>
<path d="M521.958 492.299H517.948C516.035 492.299 514.484 493.692 514.484 495.409C514.484 497.127 516.035 498.52 517.948 498.52H521.958C523.871 498.52 525.422 497.127 525.422 495.409C525.422 493.692 523.871 492.299 521.958 492.299Z" fill="#9D6B5A"/>
<path d="M521.958 499.633H517.948C516.035 499.633 514.484 501.025 514.484 502.743C514.484 504.461 516.035 505.854 517.948 505.854H521.958C523.871 505.854 525.422 504.461 525.422 502.743C525.422 501.025 523.871 499.633 521.958 499.633Z" fill="#9D6B5A"/>
<path d="M521.958 506.968H517.948C516.035 506.968 514.484 508.36 514.484 510.078C514.484 511.796 516.035 513.189 517.948 513.189H521.958C523.871 513.189 525.422 511.796 525.422 510.078C525.422 508.36 523.871 506.968 521.958 506.968Z" fill="#9D6B5A"/>
<path d="M534.208 492.299H530.198C528.285 492.299 526.734 493.692 526.734 495.409C526.734 497.127 528.285 498.52 530.198 498.52H534.208C536.121 498.52 537.672 497.127 537.672 495.409C537.672 493.692 536.121 492.299 534.208 492.299Z" fill="#9D6B5A"/>
<path d="M534.208 499.633H530.198C528.285 499.633 526.734 501.025 526.734 502.743C526.734 504.461 528.285 505.854 530.198 505.854H534.208C536.121 505.854 537.672 504.461 537.672 502.743C537.672 501.025 536.121 499.633 534.208 499.633Z" fill="#9D6B5A"/>
<path d="M534.208 506.968H530.198C528.285 506.968 526.734 508.36 526.734 510.078C526.734 511.796 528.285 513.189 530.198 513.189H534.208C536.121 513.189 537.672 511.796 537.672 510.078C537.672 508.36 536.121 506.968 534.208 506.968Z" fill="#9D6B5A"/>
<path d="M520.435 455.214L513.567 451.913C512.803 451.545 511.886 451.867 511.518 452.631C511.151 453.395 511.473 454.313 512.237 454.68L519.104 457.981C519.868 458.348 520.786 458.027 521.153 457.263C521.52 456.498 521.199 455.581 520.435 455.214Z" fill="#81584A"/>
<path d="M528.612 455.214L535.48 451.913C536.244 451.545 537.161 451.867 537.528 452.631C537.896 453.395 537.574 454.313 536.81 454.68L529.943 457.981C529.178 458.348 528.261 458.027 527.894 457.263C527.526 456.498 527.848 455.581 528.612 455.214Z" fill="#81584A"/>
<path d="M542.601 482.077C542.601 465.812 536.993 462.981 525.065 462.981C513.136 462.981 508.246 465.812 508.246 482.077L508.246 499.566L509.611 516.984C510.05 522.585 513.43 527.531 518.489 529.975C522.661 531.99 527.507 532.073 531.745 530.201L531.99 530.093C537.634 527.6 541.398 522.145 541.727 515.983L542.601 499.566V482.077Z" fill="#81584A"/>
<path d="M547.799 451.87H501.621C496.623 451.87 492.57 455.757 492.57 460.552C492.57 465.347 496.623 469.234 501.621 469.234H547.799C552.798 469.234 556.85 465.347 556.85 460.552C556.85 455.757 552.798 451.87 547.799 451.87Z" fill="#906253"/>
<path d="M546.281 467.702C546.281 458.078 536.91 450.276 525.35 450.276C513.789 450.276 504.418 458.078 504.418 467.702C504.418 477.327 513.789 485.129 525.35 485.129C536.91 485.129 546.281 477.327 546.281 467.702Z" fill="#81584A"/>
<path d="M536.324 451.066H515.006C509.506 451.066 505.047 456.613 505.047 463.456V470.924C505.047 477.768 509.506 483.315 515.006 483.315H536.324C541.824 483.315 546.283 477.768 546.283 470.924V463.456C546.283 456.613 541.824 451.066 536.324 451.066Z" fill="#906253"/>
<path d="M540.054 451.066H510.889C505.679 451.066 504.27 456.613 504.27 463.456C504.27 470.3 505.679 483.315 510.889 483.315H540.054C545.264 483.315 546.28 473.373 546.28 463.456C546.28 463.456 545.264 451.066 540.054 451.066Z" fill="#81584A"/>
<path d="M534.357 437.695C534.357 429.376 530.284 422.632 525.26 422.632C520.237 422.632 516.164 429.376 516.164 437.695V443.874C516.164 452.193 520.237 458.937 525.26 458.937C530.284 458.937 534.357 452.193 534.357 443.874V437.695Z" fill="#9D6B5A"/>
<path d="M527.356 422.632H522.477C516.876 422.632 512.336 427.173 512.336 432.773V436.934C512.336 442.534 516.876 447.075 522.477 447.075H527.356C532.957 447.075 537.497 442.534 537.497 436.934V432.773C537.497 427.173 532.957 422.632 527.356 422.632Z" fill="#81584A"/>
<path d="M538.558 413.128H510.843C507.674 413.128 505.105 416.544 505.105 420.758C505.105 424.972 507.674 428.389 510.843 428.389H538.558C541.727 428.389 544.296 424.972 544.296 420.758C544.296 416.544 541.727 413.128 538.558 413.128Z" fill="#9D6B5A"/>
<path d="M528.627 391.801H520.782C514.281 391.801 509.012 399.434 509.012 408.85V429.054C509.012 438.47 514.281 446.103 520.782 446.103H528.627C535.127 446.103 540.397 438.47 540.397 429.054V408.85C540.397 399.434 535.127 391.801 528.627 391.801Z" fill="#9D6B5A"/>
<path d="M530.786 439.877H521.452C520.443 439.877 519.625 440.737 519.625 441.797C519.625 442.857 520.443 443.717 521.452 443.717H530.786C531.795 443.717 532.613 442.857 532.613 441.797C532.613 440.737 531.795 439.877 530.786 439.877Z" fill="#9D6B5A"/>
<path d="M541.466 410.424C540.281 410.678 541.405 410.418 541.466 410.424C541.42 410.339 543.839 411.23 543.78 411.16L543.023 400.141L537.906 390.346C537.906 393.442 543.412 425.863 541.328 426.959C541.269 428.065 541.118 429.136 540.889 430.165L543.023 424.296L540.708 408.851L537.906 390.346C537.853 390.236 509.415 411.681 509.415 411.681C509.415 411.681 517.57 442.128 514.727 443.908L532.257 443.908C533.361 443.619 534.613 442.18 534.613 442.18C534.613 443.137 535.21 443.908 535.951 443.908H536.568C537.309 443.908 537.906 443.137 537.906 442.18V441.714C538.107 442.34 538.582 442.778 539.141 442.778H539.758C540.499 442.778 541.095 442.007 541.095 441.049V440.502C541.331 440.989 541.747 441.315 542.227 441.315C542.968 441.315 543.565 440.544 543.565 439.587V429.877L543.84 431.06C544.012 431.8 544.612 432.218 545.185 431.996C545.759 431.773 546.081 430.997 545.909 430.257L544.442 423.944C544.712 424.337 545.141 424.516 545.558 424.354L545.706 424.296C546.279 424.074 546.602 423.299 546.429 422.558L543.78 411.16C543.649 410.593 541.895 410.47 541.466 410.424ZM514.727 391.808C514.297 391.854 511.228 396.887 511.096 397.454L504.468 422.652C504.296 423.393 504.619 424.168 505.192 424.39L505.34 424.448C505.756 424.61 506.185 424.43 506.456 424.038L504.989 430.35C504.816 431.091 505.139 431.867 505.712 432.09C506.285 432.312 506.886 431.895 507.058 431.154L507.113 430.916V439.587C507.113 440.544 507.71 441.315 508.451 441.315C508.93 441.315 509.347 440.989 509.583 440.502V441.049C509.583 442.007 510.179 442.778 510.92 442.778H511.538C512.095 442.778 512.571 442.341 512.772 441.717V442.18C512.772 443.137 513.369 443.908 514.11 443.908H514.727C515.468 443.908 516.064 443.137 516.064 442.18L518.321 418.529C515.503 416.724 510.805 417.003 509.788 413.102C509.688 413.215 509.81 429.074 509.739 429.221L509.788 429.693C509.615 428.809 509.79 430.159 509.739 429.221C507.655 428.125 518.321 421.625 518.321 418.529L509.415 411.681C509.402 411.702 537.906 390.346 537.906 390.346L526.155 391.808H514.727Z" fill="#4D4D4D"/>
<path d="M525.58 396.157H526.616C527.227 396.157 527.723 396.811 527.723 397.619V402.959C527.723 403.767 527.227 404.422 526.616 404.422H525.58C524.969 404.422 524.473 403.767 524.473 402.959V397.619C524.473 396.811 524.969 396.157 525.58 396.157Z" fill="#565656"/>
<path d="M521.11 396.315H522.478C522.956 396.315 523.344 396.827 523.344 397.459V403.118C523.344 403.75 522.956 404.262 522.478 404.262H521.11C520.631 404.262 520.244 403.75 520.244 403.118V397.459C520.244 396.827 520.631 396.315 521.11 396.315Z" fill="#565656"/>
<path d="M531.089 396.315H529.722C529.243 396.315 528.855 396.827 528.855 397.459V403.118C528.855 403.75 529.243 404.262 529.722 404.262H531.089C531.568 404.262 531.956 403.75 531.956 403.118V397.459C531.956 396.827 531.568 396.315 531.089 396.315Z" fill="#565656"/>
<path d="M515.848 515.701H509.098C509.81 533.4 520.013 547.759 526.575 547.759C533.224 547.759 541.272 533.733 541.871 515.701H515.848Z" fill="#4F4F4F"/>
<path d="M541.885 515.431L525.926 521.288L525.926 567.975H543.647C546.118 553.376 543.647 531.951 541.885 515.431Z" fill="#4B4B4B"/>
<path d="M509.105 515.67L525.308 521.288V567.819H507.394C505.351 554.241 507.991 532.026 509.105 515.67Z" fill="#4B4B4B"/>
</svg>
