<svg width="351" height="351" viewBox="0 0 351 351" fill="none" xmlns="http://www.w3.org/2000/svg">
<circle cx="175.736" cy="175.209" r="173.197" stroke="black" stroke-width="3.60643"/>
<rect x="26.9575" y="51.3579" width="295.472" height="295.472" stroke="black" stroke-width="3.60643"/>
<path d="M148.425 131.063L148.431 131.026C148.77 128.664 144.08 126.809 137.955 126.881L126.758 126.127L114.453 125.823L103.243 125.728L92.0078 126.53C85.8834 126.603 80.6032 129.474 80.2642 131.836L80.2589 131.873C79.9199 134.235 81.0759 133.183 98.7873 134.839L105.781 136.442C109.104 137.204 112.623 137.351 116.184 136.877L116.878 136.785L136.722 135.471C142.847 135.398 148.086 133.425 148.425 131.063Z" fill="#81584A"/>
<path d="M108.445 132.292C110.813 132.233 112.848 131.394 112.989 130.419C113.13 129.443 111.324 128.7 108.956 128.76L105.837 128.838C103.468 128.897 101.434 129.736 101.293 130.711C101.152 131.687 102.958 132.43 105.326 132.37L108.445 132.292Z" fill="#906253"/>
<path d="M97.6572 137.372C103.58 137.909 117.113 137.153 117.417 134.724C117.721 132.295 113.165 129.89 107.242 129.352L62.7665 125.314C56.8434 124.776 51.7957 126.309 51.492 128.738L51.4873 128.776C51.1837 131.205 55.7391 133.61 61.6622 134.148L97.6572 137.372Z" fill="#81584A"/>
<path d="M69.5924 132.408L69.715 130.793C69.9501 127.698 64.5681 124.681 57.6941 124.055L51.5872 123.499C44.7131 122.873 38.9501 124.874 38.715 127.97L38.5924 129.585C38.3574 132.68 43.7393 135.697 50.6134 136.323L56.7203 136.879C63.5943 137.506 69.3574 135.504 69.5924 132.408Z" fill="#906253"/>
<path d="M97.9558 137.671C105.376 138.331 111.573 136.548 111.797 133.69C112.02 130.831 106.186 127.979 98.7648 127.319L88.2136 126.381C80.7929 125.721 74.5961 127.503 74.3727 130.362C74.1493 133.22 79.9838 136.073 87.4045 136.733L97.9558 137.671Z" fill="#906253"/>
<path d="M100.858 137.311C102.216 137.424 103.35 137.123 103.392 136.64C103.433 136.156 102.366 135.673 101.008 135.561L92.0945 134.823C90.7365 134.71 89.6021 135.011 89.5607 135.494C89.5193 135.977 90.5866 136.46 91.9446 136.573L100.858 137.311Z" fill="#9D6B5A"/>
<path d="M52.1819 132.15C56.5753 131.723 58.934 129.292 57.4502 126.721C55.9665 124.15 51.2021 122.412 46.8088 122.839L34.8091 124.006C30.4157 124.433 28.057 126.864 29.5407 129.435C31.0245 132.006 35.7888 133.744 40.1822 133.317L52.1819 132.15Z" fill="#906253"/>
<path d="M54.1018 137.322C57.143 137.59 59.6929 136.736 59.7973 135.414C59.9017 134.091 57.521 132.802 54.4798 132.534L46.1734 131.801C43.1323 131.533 40.5823 132.387 40.4779 133.71C40.3735 135.032 42.7543 136.321 45.7954 136.589L54.1018 137.322Z" fill="#9D6B5A"/>
<path d="M201.449 130.744L201.442 130.705C200.989 128.194 205.581 126.141 211.699 126.119L222.842 125.132L235.112 124.607L246.299 124.323L257.555 124.994C263.673 124.972 269.084 127.945 269.538 130.456L269.545 130.495C269.998 133.006 260.605 133.563 251.514 134.952L248.861 135.669C246.955 136.184 244.967 136.488 242.927 136.575L238.645 136.759L213.348 135.25C207.23 135.272 201.903 133.255 201.449 130.744Z" fill="#81584A"/>
<path d="M241.44 131.436C239.074 131.412 237.002 130.552 236.813 129.516C236.624 128.48 238.389 127.659 240.755 127.683L243.871 127.715C246.238 127.739 248.309 128.599 248.498 129.635C248.687 130.671 246.922 131.492 244.556 131.467L241.44 131.436Z" fill="#906253"/>
<path d="M233.024 132.896L233.019 132.851C232.7 129.971 237.243 127.161 243.167 126.575L287.645 122.174C293.568 121.588 298.629 123.448 298.947 126.328L298.952 126.373C299.271 129.253 294.728 132.063 288.805 132.649L244.326 137.05C238.403 137.636 233.343 135.776 233.024 132.896Z" fill="#81584A"/>
<path d="M280.853 130.487L280.721 128.574C280.467 124.909 285.835 121.388 292.711 120.71L298.819 120.108C305.694 119.43 311.474 121.851 311.727 125.517L311.86 127.429C312.113 131.095 306.745 134.615 299.87 135.293L293.762 135.896C286.886 136.574 281.107 134.152 280.853 130.487Z" fill="#906253"/>
<path d="M252.516 136.508C245.094 137.222 238.882 135.056 238.641 131.669C238.4 128.283 244.222 124.958 251.643 124.243L262.196 123.227C269.618 122.513 275.83 124.679 276.07 128.066C276.311 131.452 270.49 134.777 263.068 135.492L252.516 136.508Z" fill="#906253"/>
<path d="M249.598 136.051C248.24 136.172 247.103 135.806 247.059 135.234C247.015 134.661 248.08 134.098 249.438 133.976L258.352 133.178C259.71 133.056 260.847 133.422 260.892 133.995C260.936 134.567 259.871 135.13 258.513 135.252L249.598 136.051Z" fill="#9D6B5A"/>
<path d="M298.27 130.293C293.872 129.746 291.498 126.863 292.969 123.855C294.439 120.846 299.196 118.851 303.594 119.397L315.607 120.891C320.005 121.438 322.379 124.32 320.908 127.329C319.438 130.337 314.681 132.333 310.283 131.786L298.27 130.293Z" fill="#906253"/>
<path d="M296.385 136.429C293.344 136.719 290.787 135.685 290.674 134.118C290.562 132.551 292.936 131.046 295.978 130.755L304.285 129.962C307.327 129.671 309.884 130.706 309.996 132.273C310.109 133.84 307.734 135.345 304.693 135.636L296.385 136.429Z" fill="#9D6B5A"/>
<path d="M195.595 156.677C195.595 137.108 188.846 133.701 174.495 133.701C160.144 133.701 154.26 137.108 154.26 156.677L154.26 177.719L174.495 230.168L192.846 197.423L195.595 177.719V156.677Z" fill="#81584A"/>
<path d="M211.69 120.332H136.445C128.3 120.332 121.697 125.009 121.697 130.778C121.697 136.547 128.3 141.224 136.445 141.224H211.69C219.835 141.224 226.438 136.547 226.438 130.778C226.438 125.009 219.835 120.332 211.69 120.332Z" fill="#906253"/>
<path d="M177.339 157.969H172.994C162.632 157.969 154.232 167.308 154.232 178.828V193.899C154.232 205.419 162.632 214.758 172.994 214.758H177.339C187.701 214.758 196.1 205.419 196.1 193.899V178.828C196.1 167.308 187.701 157.969 177.339 157.969Z" fill="#906253"/>
<path d="M187.814 119.366H161.682C154.94 119.366 149.475 126.041 149.475 134.274V143.26C149.475 151.493 154.94 158.168 161.682 158.168H187.814C194.556 158.168 200.021 151.493 200.021 143.26V134.274C200.021 126.041 194.556 119.366 187.814 119.366Z" fill="#906253"/>
<path d="M190.129 119.366H159.545C154.081 119.366 149.652 126.041 149.652 134.274V143.26C149.652 151.493 154.081 158.168 159.545 158.168H190.129C195.592 158.168 200.021 151.493 200.021 143.26V134.274C200.021 126.041 195.592 119.366 190.129 119.366Z" fill="#9D6B5A"/>
<path d="M177.302 153.623C177.302 152.359 176.097 151.335 174.611 151.335C173.125 151.335 171.92 152.359 171.92 153.623V158.061C171.92 159.325 173.125 160.349 174.611 160.349C176.097 160.349 177.302 159.325 177.302 158.061V153.623Z" fill="#81584A"/>
<path d="M189.564 141.225H183.382C181.607 141.225 180.168 143.161 180.168 145.549C180.168 147.938 181.607 149.874 183.382 149.874H189.564C191.339 149.874 192.778 147.938 192.778 145.549C192.778 143.161 191.339 141.225 189.564 141.225Z" fill="#AC7967"/>
<path d="M167.747 141.225H161.566C159.791 141.225 158.352 143.161 158.352 145.549C158.352 147.938 159.791 149.874 161.566 149.874H167.747C169.523 149.874 170.962 147.938 170.962 145.549C170.962 143.161 169.523 141.225 167.747 141.225Z" fill="#AC7967"/>
<path d="M185.143 103.279C185.143 93.27 180.481 85.1562 174.73 85.1562C168.979 85.1562 164.316 93.27 164.316 103.279V110.714C164.316 120.722 168.979 128.836 174.73 128.836C180.481 128.836 185.143 120.722 185.143 110.714V103.279Z" fill="#9D6B5A"/>
<path d="M157.384 150.505H154.945C153.972 150.505 153.184 151.484 153.184 152.692C153.184 153.9 153.972 154.879 154.945 154.879H157.384C158.356 154.879 159.145 153.9 159.145 152.692C159.145 151.484 158.356 150.505 157.384 150.505Z" fill="#81584A"/>
<path d="M177.252 85.1562H171.381C164.642 85.1562 159.18 90.619 159.18 97.3575V102.363C159.18 109.102 164.642 114.565 171.381 114.565H177.252C183.99 114.565 189.453 109.102 189.453 102.363V97.3575C189.453 90.619 183.99 85.1562 177.252 85.1562Z" fill="#81584A"/>
<path d="M215.19 122.896H212.863C206.65 122.896 201.613 125.863 201.613 129.523C201.613 133.184 206.65 136.151 212.863 136.151H215.19C221.403 136.151 226.439 133.184 226.439 129.523C226.439 125.863 221.403 122.896 215.19 122.896Z" fill="#9D6B5A"/>
<path d="M135.827 122.346H132.546C130.734 122.346 129.266 123.578 129.266 125.098C129.266 126.618 130.734 127.85 132.546 127.85H135.827C137.639 127.85 139.108 126.618 139.108 125.098C139.108 123.578 137.639 122.346 135.827 122.346Z" fill="#AC7967"/>
<path d="M219.42 122.562H215.929C214.001 122.562 212.438 123.794 212.438 125.314C212.438 126.834 214.001 128.066 215.929 128.066H219.42C221.348 128.066 222.911 126.834 222.911 125.314C222.911 123.794 221.348 122.562 219.42 122.562Z" fill="#AC7967"/>
<path d="M191.786 73.7207H156.879C152.888 73.7207 149.652 77.7597 149.652 82.742C149.652 87.7243 152.888 91.7632 156.879 91.7632H191.786C195.777 91.7632 199.012 87.7243 199.012 82.742C199.012 77.7597 195.777 73.7207 191.786 73.7207Z" fill="#9D6B5A"/>
<path d="M193.222 76.0156H156.27C153.072 76.0156 150.48 79.0277 150.48 82.7433C150.48 86.459 153.072 89.4711 156.27 89.4711H193.222C196.419 89.4711 199.011 86.459 199.011 82.7433C199.011 79.0277 196.419 76.0156 193.222 76.0156Z" fill="#81584A"/>
<path d="M180.991 48.3652H171.367C163.394 48.3652 156.93 56.8461 156.93 67.3078V89.7556C156.93 100.217 163.394 108.698 171.367 108.698H180.991C188.965 108.698 195.429 100.217 195.429 89.7556V67.3078C195.429 56.8461 188.965 48.3652 180.991 48.3652Z" fill="#9D6B5A"/>
<path d="M181.454 106.208H170.817C169.667 106.208 168.734 107.242 168.734 108.518C168.734 109.794 169.667 110.828 170.817 110.828H181.454C182.604 110.828 183.537 109.794 183.537 108.518C183.537 107.242 182.604 106.208 181.454 106.208Z" fill="#9D6B5A"/>
<path d="M170.748 168.977H165.923C163.622 168.977 161.756 170.652 161.756 172.719C161.756 174.786 163.622 176.461 165.923 176.461H170.748C173.05 176.461 174.915 174.786 174.915 172.719C174.915 170.652 173.05 168.977 170.748 168.977Z" fill="#9D6B5A"/>
<path d="M170.748 177.801H165.923C163.622 177.801 161.756 179.476 161.756 181.543C161.756 183.61 163.622 185.285 165.923 185.285H170.748C173.05 185.285 174.915 183.61 174.915 181.543C174.915 179.476 173.05 177.801 170.748 177.801Z" fill="#9D6B5A"/>
<path d="M170.748 186.625H165.923C163.622 186.625 161.756 188.301 161.756 190.367C161.756 192.434 163.622 194.11 165.923 194.11H170.748C173.05 194.11 174.915 192.434 174.915 190.367C174.915 188.301 173.05 186.625 170.748 186.625Z" fill="#9D6B5A"/>
<path d="M185.486 168.977H180.661C178.36 168.977 176.494 170.652 176.494 172.719C176.494 174.786 178.36 176.461 180.661 176.461H185.486C187.788 176.461 189.653 174.786 189.653 172.719C189.653 170.652 187.788 168.977 185.486 168.977Z" fill="#9D6B5A"/>
<path d="M185.486 177.801H180.661C178.36 177.801 176.494 179.476 176.494 181.543C176.494 183.61 178.36 185.285 180.661 185.285H185.486C187.788 185.285 189.653 183.61 189.653 181.543C189.653 179.476 187.788 177.801 185.486 177.801Z" fill="#9D6B5A"/>
<path d="M185.486 186.625H180.661C178.36 186.625 176.494 188.301 176.494 190.367C176.494 192.434 178.36 194.11 180.661 194.11H185.486C187.788 194.11 189.653 192.434 189.653 190.367C189.653 188.301 187.788 186.625 185.486 186.625Z" fill="#9D6B5A"/>
<path d="M168.913 124.356L160.651 120.384C159.732 119.942 158.628 120.329 158.186 121.249C157.744 122.168 158.131 123.272 159.051 123.714L167.313 127.686C168.232 128.128 169.336 127.741 169.778 126.821C170.22 125.902 169.833 124.798 168.913 124.356Z" fill="#81584A"/>
<path d="M178.754 124.356L187.017 120.384C187.936 119.942 189.04 120.329 189.482 121.249C189.924 122.168 189.537 123.272 188.617 123.714L180.355 127.686C179.436 128.128 178.332 127.741 177.89 126.821C177.448 125.902 177.835 124.798 178.754 124.356Z" fill="#81584A"/>
<path d="M158.126 199.271C157.035 199.271 155.982 199.515 154.986 199.962C156.152 217.761 164.942 231.512 175.685 231.512C186.566 231.512 195.445 217.404 196.425 199.271C196.424 199.271 196.423 199.271 196.422 199.271H158.126Z" fill="#4F4F4F"/>
<path d="M194.932 197.306H156.506C155.667 197.306 154.986 198.385 154.986 199.717V203.451C154.986 204.782 155.667 205.862 156.506 205.862H194.932C195.771 205.862 196.451 204.782 196.451 203.451V199.717C196.451 198.385 195.771 197.306 194.932 197.306Z" fill="#5B5B5B"/>
<path d="M199.065 156.677C199.065 137.108 191.417 133.701 175.153 133.701C158.889 133.701 152.221 137.108 152.221 156.677L152.221 177.719H175.153H199.065V156.677Z" fill="#81584A"/>
<path d="M211.692 120.332H136.447C128.302 120.332 121.699 125.009 121.699 130.778C121.699 136.547 128.302 141.224 136.447 141.224H211.692C219.837 141.224 226.44 136.547 226.44 130.778C226.44 125.009 219.837 120.332 211.692 120.332Z" fill="#906253"/>
<path d="M200.023 139.382C200.023 127.803 188.747 118.416 174.838 118.416C160.93 118.416 149.654 127.803 149.654 139.382C149.654 150.962 160.93 160.349 174.838 160.349C188.747 160.349 200.023 150.962 200.023 139.382Z" fill="#81584A"/>
<path d="M178.308 157.969H173.403C161.704 157.969 152.221 167.308 152.221 178.828V193.899C152.221 205.419 161.704 214.758 173.403 214.758H178.308C190.007 214.758 199.49 205.419 199.49 193.899V178.828C199.49 167.308 190.007 157.969 178.308 157.969Z" fill="#906253"/>
<path d="M188.04 119.366H162.39C155.773 119.366 150.408 126.041 150.408 134.274V143.26C150.408 151.493 155.773 158.168 162.39 158.168H188.04C194.657 158.168 200.022 151.493 200.022 143.26V134.274C200.022 126.041 194.657 119.366 188.04 119.366Z" fill="#906253"/>
<path d="M202.673 133.689C202.673 133.689 198.173 118.416 195.081 118.416L186.278 116.768L175.494 118.416L162.127 116.768L155.626 118.416C152.286 118.416 146.826 125.254 146.826 133.689C146.826 142.124 148.7 158.167 155.626 158.167H194.396C201.322 158.167 202.673 145.912 202.673 133.689Z" fill="#9D6B5A"/>
<path d="M177.304 150.306C177.304 149.042 176.099 148.018 174.613 148.018C173.127 148.018 171.922 149.042 171.922 150.306V154.744C171.922 156.008 173.127 157.032 174.613 157.032C176.099 157.032 177.304 156.008 177.304 154.744V150.306Z" fill="#81584A"/>
<path d="M189.568 141.226H183.386C181.611 141.226 180.172 142.591 180.172 144.275C180.172 145.958 181.611 147.323 183.386 147.323H189.568C191.343 147.323 192.782 145.958 192.782 144.275C192.782 142.591 191.343 141.226 189.568 141.226Z" fill="#AC7967"/>
<path d="M167.749 141.226H161.568C159.793 141.226 158.354 142.591 158.354 144.275C158.354 145.958 159.793 147.323 161.568 147.323H167.749C169.525 147.323 170.964 145.958 170.964 144.275C170.964 142.591 169.525 141.226 167.749 141.226Z" fill="#AC7967"/>
<path d="M186.502 105.767C186.502 95.7583 181.046 87.6445 174.315 87.6445C167.585 87.6445 162.129 95.7583 162.129 105.767V113.202C162.129 123.211 167.585 131.324 174.315 131.324C181.046 131.324 186.502 123.211 186.502 113.202V105.767Z" fill="#9D6B5A"/>
<path d="M158.693 150.505H156.541C155.682 150.505 154.986 151.484 154.986 152.692C154.986 153.9 155.682 154.879 156.541 154.879H158.693C159.552 154.879 160.248 153.9 160.248 152.692C160.248 151.484 159.552 150.505 158.693 150.505Z" fill="#81584A"/>
<path d="M193.877 150.505H191.724C190.866 150.505 190.17 151.484 190.17 152.692C190.17 153.9 190.866 154.879 191.724 154.879H193.877C194.735 154.879 195.431 153.9 195.431 152.692C195.431 151.484 194.735 150.505 193.877 150.505Z" fill="#81584A"/>
<path d="M177.254 85.1562H171.383C164.644 85.1562 159.182 90.619 159.182 97.3575V102.363C159.182 109.102 164.644 114.565 171.383 114.565H177.254C183.992 114.565 189.455 109.102 189.455 102.363V97.3575C189.455 90.619 183.992 85.1562 177.254 85.1562Z" fill="#81584A"/>
<path d="M140.954 121.024H138.766C132.928 121.024 128.195 124.995 128.195 129.893C128.195 134.791 132.928 138.761 138.766 138.761H140.954C146.792 138.761 151.525 134.791 151.525 129.893C151.525 124.995 146.792 121.024 140.954 121.024Z" fill="#9D6B5A"/>
<path d="M206.884 121.024H209.071C214.91 121.024 219.643 124.995 219.643 129.893C219.643 134.791 214.91 138.761 209.071 138.761H206.884C201.046 138.761 196.313 134.791 196.313 129.893C196.313 124.995 201.046 121.024 206.884 121.024Z" fill="#9D6B5A"/>
<path d="M135.827 124.004H132.546C130.734 124.004 129.266 125.236 129.266 126.756C129.266 128.276 130.734 129.508 132.546 129.508H135.827C137.639 129.508 139.108 128.276 139.108 126.756C139.108 125.236 137.639 124.004 135.827 124.004Z" fill="#AC7967"/>
<path d="M212.011 124.004H215.292C217.103 124.004 218.572 125.236 218.572 126.756C218.572 128.276 217.103 129.508 215.292 129.508H212.011C210.199 129.508 208.73 128.276 208.73 126.756C208.73 125.236 210.199 124.004 212.011 124.004Z" fill="#AC7967"/>
<path d="M187.366 345.642C183.91 345.642 181.107 342.334 181.107 338.253V310.31C181.107 308.617 180.787 306.938 180.162 305.364C179.538 303.79 179.217 302.111 179.217 300.418V296.108C179.217 294.267 179.379 292.43 179.699 290.617L179.821 289.931C180.141 288.118 180.303 286.28 180.303 284.439V272.574L180.377 271.98C180.794 268.629 183.642 266.113 187.019 266.113C190.716 266.113 193.713 269.11 193.713 272.807L193.713 301.358L193.713 319.579L195.084 338.253C195.084 342.334 192.282 345.642 188.825 345.642H187.366Z" fill="#906253"/>
<path d="M176.231 232.217V210.071C176.231 204.106 181.067 199.271 187.031 199.271C192.486 199.271 197.084 203.338 197.751 208.751L198.026 210.987L199.586 237.65V253.141L198.565 261.383C198.207 264.273 197.451 267.098 196.318 269.78L194.227 274.728C193.868 275.579 193.682 276.493 193.682 277.417V277.649C193.682 281.337 190.693 284.326 187.005 284.326C183.317 284.326 180.327 281.337 180.327 277.649V277.012C180.327 276.352 180.238 275.695 180.062 275.058L178.838 270.646L177.514 261.789L176.231 250.412V232.217Z" fill="#81584A"/>
<path d="M185.758 330.38H191.635C195.024 330.38 197.771 333.796 197.771 338.011C197.771 342.225 195.024 345.642 191.635 345.642H185.758C182.37 345.642 179.622 342.225 179.622 338.011C179.622 333.796 182.37 330.38 185.758 330.38Z" fill="#9D6B5A"/>
<path d="M181.654 333.522H195.739C196.862 333.522 197.771 335.163 197.771 337.186V341.978C197.771 344.002 196.862 345.642 195.739 345.642H181.654C180.532 345.642 179.622 344.002 179.622 341.978V337.186C179.622 335.163 180.532 333.522 181.654 333.522Z" fill="#9D6B5A"/>
<path d="M163.401 345.466C166.798 345.466 169.553 342.158 169.553 338.078V310.129C169.553 308.438 169.868 306.763 170.481 305.188C171.095 303.614 171.41 301.938 171.41 300.248V295.886C171.41 294.076 171.254 292.269 170.944 290.485L170.81 289.71C170.5 287.927 170.344 286.12 170.344 284.309V272.398L170.26 271.712C169.856 268.415 167.056 265.938 163.735 265.938C160.105 265.938 157.162 268.88 157.162 272.511L157.162 301.182L157.162 319.403L155.814 338.078C155.814 342.158 158.569 345.466 161.966 345.466H163.401Z" fill="#906253"/>
<path d="M174.347 232.041V209.7C174.347 203.843 169.599 199.095 163.741 199.095C158.377 199.095 153.857 203.101 153.213 208.427L152.924 210.811L151.391 237.474V252.965L152.402 261.271C152.748 264.119 153.482 266.906 154.582 269.555L156.664 274.566C157.013 275.408 157.193 276.311 157.193 277.223V277.587C157.193 281.212 160.132 284.151 163.757 284.151C167.382 284.151 170.321 281.212 170.321 277.587V276.822C170.321 276.171 170.407 275.523 170.578 274.895L171.784 270.47L173.086 261.613L174.347 250.236V232.041Z" fill="#81584A"/>
<path d="M164.982 330.204H159.205C155.874 330.204 153.174 333.621 153.174 337.835C153.174 342.049 155.874 345.466 159.205 345.466H164.982C168.313 345.466 171.013 342.049 171.013 337.835C171.013 333.621 168.313 330.204 164.982 330.204Z" fill="#9D6B5A"/>
<path d="M169.016 333.347H155.171C154.068 333.347 153.174 334.987 153.174 337.011V341.803C153.174 343.826 154.068 345.466 155.171 345.466H169.016C170.119 345.466 171.013 343.826 171.013 341.803V337.011C171.013 334.987 170.119 333.347 169.016 333.347Z" fill="#9D6B5A"/>
<path d="M190.812 73.7207H157.854C154.086 73.7207 151.031 77.7597 151.031 82.742C151.031 87.7243 154.086 91.7632 157.854 91.7632H190.812C194.58 91.7632 197.634 87.7243 197.634 82.742C197.634 77.7597 194.58 73.7207 190.812 73.7207Z" fill="#9D6B5A"/>
<path d="M190.66 76.0156H155.924C152.919 76.0156 150.482 79.0277 150.482 82.7433C150.482 86.459 152.919 89.4711 155.924 89.4711H190.66C193.665 89.4711 196.102 86.459 196.102 82.7433C196.102 79.0277 193.665 76.0156 190.66 76.0156Z" fill="#81584A"/>
<path d="M177.87 48.3652H167.953C159.736 48.3652 153.074 56.8461 153.074 67.3078V89.7556C153.074 100.217 159.736 108.698 167.953 108.698H177.87C186.088 108.698 192.749 100.217 192.749 89.7556V67.3078C192.749 56.8461 186.088 48.3652 177.87 48.3652Z" fill="#9D6B5A"/>
<path d="M180.601 106.208H168.802C167.526 106.208 166.492 107.242 166.492 108.518C166.492 109.794 167.526 110.828 168.802 110.828H180.601C181.877 110.828 182.911 109.794 182.911 108.518C182.911 107.242 181.877 106.208 180.601 106.208Z" fill="#9D6B5A"/>
<path d="M170.989 125.186L164.81 121.214C164.122 120.772 163.296 121.159 162.966 122.079C162.635 122.998 162.925 124.102 163.612 124.544L169.792 128.516C170.479 128.958 171.305 128.571 171.635 127.651C171.966 126.732 171.676 125.628 170.989 125.186Z" fill="#81584A"/>
<path d="M178.347 125.186L184.526 121.214C185.214 120.772 186.039 121.159 186.37 122.079C186.701 122.998 186.411 124.102 185.723 124.544L179.544 128.516C178.857 128.958 178.031 128.571 177.701 127.651C177.37 126.732 177.66 125.628 178.347 125.186Z" fill="#81584A"/>
<path d="M155.002 199.271C153.747 199.271 152.536 199.515 151.391 199.962C152.732 217.761 162.844 231.512 175.203 231.512C187.722 231.512 197.936 217.404 199.064 199.271C199.063 199.271 199.061 199.271 199.06 199.271H155.002Z" fill="#4F4F4F"/>
<path d="M197.319 197.307H153.164C152.2 197.307 151.418 198.386 151.418 199.718V203.452C151.418 204.783 152.2 205.863 153.164 205.863H197.319C198.283 205.863 199.065 204.783 199.065 203.452V199.718C199.065 198.386 198.283 197.307 197.319 197.307Z" fill="#5B5B5B"/>
<path d="M174.406 103.378H171.675C171.456 103.378 171.279 103.6 171.279 103.874V104.167C171.279 104.441 171.456 104.664 171.675 104.664H174.406C174.625 104.664 174.802 104.441 174.802 104.167V103.874C174.802 103.6 174.625 103.378 174.406 103.378Z" fill="#81584A"/>
<path d="M176.477 81.6875C176.477 79.6391 175.154 77.9785 173.523 77.9785C171.891 77.9785 170.568 79.6391 170.568 81.6875V88.2327C170.568 90.2811 171.891 91.9416 173.523 91.9416C175.154 91.9416 176.477 90.2811 176.477 88.2327V81.6875Z" fill="#81584A"/>
<path d="M166.297 78.0409C166.297 76.759 165.47 75.7197 164.449 75.7197C163.427 75.7197 162.6 76.759 162.6 78.0409V78.9694C162.6 80.2513 163.427 81.2905 164.449 81.2905C165.47 81.2905 166.297 80.2513 166.297 78.9694V78.0409Z" fill="#61534B"/>
<path d="M184.229 78.0409C184.229 76.759 183.401 75.7197 182.38 75.7197C181.359 75.7197 180.531 76.759 180.531 78.0409V78.9694C180.531 80.2513 181.359 81.2905 182.38 81.2905C183.401 81.2905 184.229 80.2513 184.229 78.9694V78.0409Z" fill="#61534B"/>
<path d="M176.835 100.799C179.556 100.799 181.747 97.8613 181.747 94.2115V93.1455H165.205V94.2115C165.205 97.8613 167.396 100.799 170.117 100.799H176.835Z" fill="white"/>
<path d="M173.128 89.1406L170.38 86.2098C169.927 85.7255 169.246 85.795 168.86 86.3648C168.475 86.9347 168.53 87.7892 168.984 88.2734L171.731 91.2043C172.185 91.6885 172.866 91.6191 173.251 91.0492C173.637 90.4793 173.582 89.6248 173.128 89.1406Z" fill="#81584A"/>
<path d="M173.915 89.1406L176.662 86.2098C177.116 85.7255 177.797 85.795 178.183 86.3648C178.568 86.9347 178.513 87.7892 178.059 88.2734L175.312 91.2043C174.858 91.6885 174.177 91.619 173.791 91.0492C173.406 90.4793 173.461 89.6248 173.915 89.1406Z" fill="#81584A"/>
<path d="M175.233 87.2571C175.233 86.2743 174.599 85.4775 173.816 85.4775C173.033 85.4775 172.398 86.2743 172.398 87.2571V88.8819C172.398 89.8648 173.033 90.6615 173.816 90.6615C174.599 90.6615 175.233 89.8648 175.233 88.8819V87.2571Z" fill="#906253"/>
<path d="M167.457 75.8498L161.571 73.8578C160.933 73.6419 160.351 73.9362 160.27 74.5153C160.19 75.0944 160.642 75.7389 161.28 75.9548L167.165 77.9469C167.803 78.1628 168.386 77.8684 168.466 77.2894C168.547 76.7103 168.095 76.0658 167.457 75.8498Z" fill="#4D4D4D"/>
<path d="M161.664 75.4498C161.716 75.0217 161.423 74.5459 161.01 74.3871C160.597 74.2283 160.22 74.4467 160.168 74.8748L159.954 76.6504C159.903 77.0786 160.196 77.5544 160.609 77.7131C161.022 77.8719 161.398 77.6535 161.45 77.2254L161.664 75.4498Z" fill="#4D4D4D"/>
<path d="M179.233 75.8475L185.118 73.8566C185.756 73.6408 186.339 73.9352 186.419 74.5143C186.499 75.0933 186.047 75.7377 185.409 75.9536L179.524 77.9444C178.886 78.1603 178.303 77.8658 178.223 77.2868C178.142 76.7077 178.594 76.0633 179.233 75.8475Z" fill="#4D4D4D"/>
<path d="M185.025 75.4488C184.974 75.0207 185.267 74.5449 185.68 74.3861C186.093 74.2273 186.47 74.4457 186.521 74.8739L186.735 76.6494C186.787 77.0776 186.494 77.5534 186.081 77.7121C185.668 77.8709 185.291 77.6525 185.239 77.2244L185.025 75.4488Z" fill="#4D4D4D"/>
<path d="M171.623 74.9243C171.623 74.3502 171.252 73.8848 170.795 73.8848C170.338 73.8848 169.967 74.3502 169.967 74.9243V76.1826C169.967 76.7567 170.338 77.2221 170.795 77.2221C171.252 77.2221 171.623 76.7567 171.623 76.1826V74.9243Z" fill="#81584A"/>
<path d="M177.115 74.9243C177.115 74.3502 176.744 73.8848 176.287 73.8848C175.83 73.8848 175.459 74.3502 175.459 74.9243V76.1826C175.459 76.7567 175.83 77.2221 176.287 77.2221C176.744 77.2221 177.115 76.7567 177.115 76.1826V74.9243Z" fill="#81584A"/>
<path d="M175.231 87.2552C175.231 86.2723 174.597 85.4756 173.814 85.4756C173.031 85.4756 172.396 86.2723 172.396 87.2552V88.88C172.396 89.8628 173.031 90.6595 173.814 90.6595C174.597 90.6595 175.231 89.8628 175.231 88.88V87.2552Z" fill="#906253"/>
<path d="M167.271 75.4118L161.379 74.4096C160.74 74.301 160.239 74.6395 160.259 75.1657C160.279 75.6919 160.812 76.2065 161.451 76.3152L167.343 77.3174C167.982 77.426 168.484 77.0875 168.464 76.5613C168.444 76.0351 167.91 75.5205 167.271 75.4118Z" fill="#4D4D4D"/>
<path d="M161.522 75.9708C161.509 75.535 161.193 75.111 160.817 75.0239C160.44 74.9368 160.145 75.2195 160.158 75.6554L160.211 77.4628C160.224 77.8986 160.539 78.3226 160.916 78.4097C161.293 78.4968 161.588 78.2141 161.575 77.7782L161.522 75.9708Z" fill="#4D4D4D"/>
<path d="M179.576 75.0302L185.326 74.3813C185.95 74.3109 186.4 74.7663 186.331 75.3984C186.263 76.0306 185.702 76.6 185.078 76.6704L179.328 77.3193C178.705 77.3897 178.255 76.9343 178.324 76.3022C178.392 75.6701 178.953 75.1006 179.576 75.0302Z" fill="#4D4D4D"/>
<path d="M185.263 76.1531C185.299 75.7018 185.586 75.296 185.906 75.2466C186.225 75.1972 186.456 75.5231 186.42 75.9744L186.273 77.8458C186.237 78.2971 185.949 78.703 185.63 78.7523C185.31 78.8017 185.08 78.4758 185.116 78.0246L185.263 76.1531Z" fill="#4D4D4D"/>
<path d="M195.522 70.7422C195.446 70.7343 195.369 70.7341 195.292 70.7431C195.203 70.7532 195.114 70.7748 195.025 70.8083L194.843 70.8769C194.253 71.0997 193.883 71.7841 193.896 72.521C193.839 72.4179 193.771 72.328 193.698 72.2449V74.5281C196.254 75.8594 198.042 79.0195 198.042 82.7249C198.042 86.45 196.234 89.623 193.657 90.9417C193.583 92.2722 193.396 93.5612 193.114 94.7988V96.0755C193.049 95.944 192.97 95.8238 192.884 95.7141C191.599 100.413 188.869 104.249 185.352 106.39V109.255C185.352 110.407 186.09 111.334 187.006 111.334H187.77C188.686 111.334 189.424 110.407 189.424 109.255V108.695C189.672 109.447 190.261 109.974 190.951 109.974H191.714C192.631 109.974 193.369 109.046 193.369 107.894V107.236C193.661 107.823 194.175 108.215 194.768 108.215C195.685 108.215 196.423 107.287 196.423 106.135V94.4524L196.763 95.8755C196.976 96.7668 197.718 97.2694 198.427 97.0017C199.136 96.734 199.535 95.8005 199.322 94.9092L197.507 87.314C197.842 87.7865 198.372 88.0022 198.887 87.8076L199.07 87.7382C199.779 87.4705 200.178 86.5378 199.965 85.6465L196.689 71.9336C196.526 71.2513 196.053 70.7975 195.522 70.7422V70.7422ZM152.514 70.8551C151.983 70.9104 151.51 71.3642 151.347 72.0466L148.071 85.7594C147.858 86.6507 148.257 87.5834 148.966 87.8511L149.149 87.9205C149.664 88.1151 150.195 87.8994 150.529 87.4269L148.714 95.0221C148.502 95.9134 148.901 96.8469 149.609 97.1146C150.318 97.3823 151.061 96.8806 151.274 95.9893L151.342 95.7023V106.135C151.342 107.287 152.08 108.215 152.996 108.215C153.589 108.215 154.104 107.823 154.396 107.236V107.894C154.396 109.046 155.133 109.974 156.05 109.974H156.814C157.503 109.974 158.091 109.449 158.34 108.697V109.255C158.34 110.407 159.078 111.334 159.995 111.334H160.758C161.674 111.334 162.412 110.407 162.412 109.255V106.315C158.928 104.143 156.231 100.299 154.973 95.6061C154.849 95.7422 154.738 95.8985 154.65 96.0755V94.2306C154.437 93.1679 154.292 92.0697 154.23 90.9417C151.653 89.6229 149.844 86.4499 149.844 82.7249C149.844 79.0195 151.633 75.8594 154.189 74.5281V72.5594C154.173 72.5847 154.155 72.6074 154.14 72.6339C154.153 71.8973 153.783 71.2126 153.194 70.9899L153.011 70.9212C152.923 70.8878 152.833 70.8661 152.744 70.856C152.667 70.8471 152.59 70.8472 152.514 70.8551V70.8551Z" fill="#4D4D4D"/>
<path d="M157.238 55.3779C154.337 58.7203 152.52 63.5506 152.52 68.9402V90.6206C152.52 100.756 158.945 108.916 166.927 108.916H179.571C187.553 108.916 193.979 100.756 193.979 90.6206V68.9402C193.979 63.5506 192.161 58.7203 189.26 55.3779C191.471 58.6377 192.808 62.8836 192.808 67.543V89.6183C192.808 99.9385 186.265 108.247 178.138 108.247H168.36C160.233 108.247 153.69 99.9385 153.69 89.6183V67.543C153.69 62.8836 155.027 58.6377 157.238 55.3779Z" fill="#565656"/>
<path d="M165.703 108.707C165.703 107.739 165.085 106.954 164.322 106.954C163.56 106.954 162.941 107.739 162.941 108.707V110.744C162.941 111.712 163.56 112.497 164.322 112.497C165.085 112.497 165.703 111.712 165.703 110.744V108.707Z" fill="#565656"/>
<path d="M168.289 110.305C168.289 109.337 167.671 108.552 166.908 108.552C166.146 108.552 165.527 109.337 165.527 110.305V112.341C165.527 113.31 166.146 114.095 166.908 114.095C167.671 114.095 168.289 113.31 168.289 112.341V110.305Z" fill="#565656"/>
<path d="M170.84 111.187C170.84 110.219 170.221 109.434 169.459 109.434C168.696 109.434 168.078 110.219 168.078 111.187V113.223C168.078 114.192 168.696 114.977 169.459 114.977C170.221 114.977 170.84 114.192 170.84 113.223V111.187Z" fill="#565656"/>
<path d="M173.359 111.386C173.359 110.418 172.741 109.633 171.978 109.633C171.216 109.633 170.598 110.418 170.598 111.386V113.422C170.598 114.391 171.216 115.176 171.978 115.176C172.741 115.176 173.359 114.391 173.359 113.422V111.386Z" fill="#565656"/>
<path d="M163.382 105.192C163.382 104.037 162.644 103.1 161.734 103.1C160.824 103.1 160.086 104.037 160.086 105.192V107.623C160.086 108.778 160.824 109.715 161.734 109.715C162.644 109.715 163.382 108.778 163.382 107.623V105.192Z" fill="#565656"/>
<path d="M160.532 103.045C160.532 101.889 159.794 100.952 158.884 100.952C157.974 100.952 157.236 101.889 157.236 103.045V105.475C157.236 106.631 157.974 107.568 158.884 107.568C159.794 107.568 160.532 106.631 160.532 105.475V103.045Z" fill="#565656"/>
<path d="M158.126 100.442C158.126 99.2866 157.388 98.3496 156.478 98.3496C155.568 98.3496 154.83 99.2866 154.83 100.442V102.873C154.83 104.028 155.568 104.965 156.478 104.965C157.388 104.965 158.126 104.028 158.126 102.873V100.442Z" fill="#565656"/>
<path d="M180.803 108.707C180.803 107.739 181.421 106.954 182.184 106.954C182.946 106.954 183.564 107.739 183.564 108.707V110.744C183.564 111.712 182.946 112.497 182.184 112.497C181.421 112.497 180.803 111.712 180.803 110.744V108.707Z" fill="#565656"/>
<path d="M178.217 110.305C178.217 109.337 178.835 108.552 179.598 108.552C180.36 108.552 180.979 109.337 180.979 110.305V112.341C180.979 113.31 180.36 114.095 179.598 114.095C178.835 114.095 178.217 113.31 178.217 112.341V110.305Z" fill="#565656"/>
<path d="M175.668 111.187C175.668 110.219 176.286 109.434 177.049 109.434C177.812 109.434 178.43 110.219 178.43 111.187V113.223C178.43 114.192 177.812 114.977 177.049 114.977C176.286 114.977 175.668 114.192 175.668 113.223V111.187Z" fill="#565656"/>
<path d="M173.147 111.386C173.147 110.418 173.765 109.633 174.527 109.633C175.29 109.633 175.908 110.418 175.908 111.386V113.422C175.908 114.391 175.29 115.176 174.527 115.176C173.765 115.176 173.147 114.391 173.147 113.422V111.386Z" fill="#565656"/>
<path d="M183.124 105.192C183.124 104.037 183.862 103.1 184.772 103.1C185.682 103.1 186.42 104.037 186.42 105.192V107.623C186.42 108.778 185.682 109.715 184.772 109.715C183.862 109.715 183.124 108.778 183.124 107.623V105.192Z" fill="#565656"/>
<path d="M185.974 103.045C185.974 101.889 186.711 100.952 187.622 100.952C188.532 100.952 189.27 101.889 189.27 103.045V105.475C189.27 106.631 188.532 107.568 187.622 107.568C186.711 107.568 185.974 106.631 185.974 105.475V103.045Z" fill="#565656"/>
<path d="M188.38 100.442C188.38 99.2866 189.118 98.3496 190.028 98.3496C190.938 98.3496 191.676 99.2866 191.676 100.442V102.873C191.676 104.028 190.938 104.965 190.028 104.965C189.118 104.965 188.38 104.028 188.38 102.873V100.442Z" fill="#565656"/>
<path d="M167.011 88.0723C163.789 88.0723 161.195 91.366 161.195 95.4575V104.097C161.195 108.188 163.789 111.482 167.011 111.482H179.49C182.712 111.482 185.305 108.188 185.305 104.097V95.4575C185.305 91.366 182.712 88.0723 179.49 88.0723H178.269C178.312 88.5223 178.182 88.9895 177.888 89.3063L177.395 89.8385C177.687 90.187 177.905 90.6364 177.999 91.1512H179.692C181.494 91.1512 182.943 92.9923 182.943 95.2801V98.9949C182.943 99.8629 182.734 100.666 182.377 101.329V102.348C182.377 105.614 180.306 108.243 177.735 108.243H168.766C166.194 108.243 164.124 105.614 164.124 102.348V101.329C163.766 100.666 163.557 99.8629 163.557 98.9949V95.2801C163.557 92.9923 165.007 91.1512 166.809 91.1512H167.873C168.001 90.4584 168.345 89.8776 168.807 89.5163L168.613 89.3063C168.319 88.9895 168.189 88.5223 168.232 88.0723H167.011Z" fill="#565656"/>
<path d="M165.105 47.8916C157.622 47.8916 151.598 55.4654 151.598 64.8733C151.598 65.3152 151.615 65.7512 151.642 66.1844C151.616 66.406 151.598 66.6311 151.598 66.8621V77.2651C151.598 79.4975 152.853 81.3472 154.528 81.7655V68.1899C154.528 58.4718 160.752 50.6476 168.481 50.6476H179.397C187.127 50.6476 193.35 58.4718 193.35 68.1899V81.7839C195.073 81.4135 196.378 79.54 196.378 77.2651V66.8621C196.378 66.6311 196.36 66.406 196.334 66.1844C196.36 65.7512 196.378 65.3152 196.378 64.8733C196.378 55.4654 190.354 47.8916 182.871 47.8916H165.105Z" fill="#4D4D4D"/>
<path d="M180.433 45.75H168.265C164.165 45.75 160.842 49.9282 160.842 55.0824C160.842 60.2365 164.165 64.4147 168.265 64.4147H180.433C184.532 64.4147 187.856 60.2365 187.856 55.0824C187.856 49.9282 184.532 45.75 180.433 45.75Z" fill="#4D4D4D"/>
<path d="M164.981 51.6791C164.981 50.2216 164.042 49.04 162.882 49.04C161.723 49.04 160.783 50.2216 160.783 51.6791V57.7987C160.783 59.2562 161.723 60.4378 162.882 60.4378C164.042 60.4378 164.981 59.2562 164.981 57.7987V51.6791Z" fill="#4D4D4D"/>
<path d="M188.831 51.9086C188.831 50.4511 187.891 49.2695 186.732 49.2695C185.573 49.2695 184.633 50.4511 184.633 51.9086V58.0282C184.633 59.4857 185.573 60.6673 186.732 60.6673C187.891 60.6673 188.831 59.4857 188.831 58.0282V51.9086Z" fill="#4D4D4D"/>
<path d="M159.985 54.6952C159.875 53.7334 159.166 53.0658 158.401 53.2039C157.636 53.3421 157.105 54.2338 157.215 55.1956L157.569 58.3C157.679 59.2618 158.388 59.9295 159.153 59.7913C159.918 59.6532 160.45 58.7615 160.34 57.7997L159.985 54.6952Z" fill="#4D4D4D"/>
<path d="M189.662 55.4521C189.771 54.4903 190.481 53.8226 191.246 53.9608C192.011 54.0989 192.542 54.9906 192.432 55.9524L192.077 59.0569C191.967 60.0187 191.258 60.6863 190.493 60.5482C189.728 60.41 189.197 59.5183 189.307 58.5565L189.662 55.4521Z" fill="#4D4D4D"/>
<path d="M172.892 50.3848H174.202C174.975 50.3848 175.602 51.1725 175.602 52.1441V58.5697C175.602 59.5414 174.975 60.3291 174.202 60.3291H172.892C172.119 60.3291 171.493 59.5414 171.493 58.5697V52.1441C171.493 51.1725 172.119 50.3848 172.892 50.3848Z" fill="#565656"/>
<path d="M167.236 50.5752H168.965C169.57 50.5752 170.061 51.1917 170.061 51.9521V58.7601C170.061 59.5206 169.57 60.137 168.965 60.137H167.236C166.631 60.137 166.14 59.5206 166.14 58.7601V51.9521C166.14 51.1917 166.631 50.5752 167.236 50.5752Z" fill="#565656"/>
<path d="M179.856 50.5752H178.126C177.522 50.5752 177.031 51.1917 177.031 51.9521V58.7601C177.031 59.5206 177.522 60.137 178.126 60.137H179.856C180.461 60.137 180.951 59.5206 180.951 58.7601V51.9521C180.951 51.1917 180.461 50.5752 179.856 50.5752Z" fill="#565656"/>
</svg>
