<svg width="351" height="351" viewBox="0 0 351 351" fill="none" xmlns="http://www.w3.org/2000/svg">
<circle cx="175.262" cy="175.109" r="173.197" stroke="black" stroke-width="3.60643"/>
<rect x="26.4829" y="51.2583" width="295.472" height="295.472" stroke="black" stroke-width="3.60643"/>
<path d="M157.217 130.164L157.23 130.111C158.101 126.69 153.784 123.889 147.589 123.854L136.461 122.503L124.114 121.781L112.825 121.387L101.311 122.295C95.1158 122.261 89.146 126.309 88.2755 129.731L88.2619 129.784C87.5468 132.594 90.3322 134.986 94.7839 135.77C96.7969 136.124 98.8833 136.304 100.826 136.826L102.893 137.381C104.751 137.88 106.708 138.148 108.733 138.18L118.544 138.338L144.423 136.297C150.618 136.331 156.346 133.586 157.217 130.164Z" fill="#81584A"/>
<path d="M116.925 132.414L116.93 132.355C117.239 128.573 112.689 124.854 106.767 124.047L62.2996 117.988C56.3776 117.181 51.3259 119.592 51.0163 123.374L51.0115 123.433C50.702 127.214 55.2518 130.934 61.1738 131.741L105.642 137.8C111.564 138.606 116.615 136.195 116.925 132.414Z" fill="#81584A"/>
<path d="M69.0991 128.977L69.2255 126.464C69.4677 121.646 64.0941 116.981 57.2231 116.045L51.1189 115.213C44.248 114.276 38.4816 117.423 38.2394 122.241L38.113 124.754C37.8708 129.572 43.2444 134.237 50.1154 135.173L56.2195 136.005C63.0905 136.942 68.8569 133.795 69.0991 128.977Z" fill="#906253"/>
<path d="M97.4609 137.04C104.879 138.027 111.08 135.22 111.31 130.77C111.54 126.32 105.713 121.913 98.2946 120.926L87.7468 119.522C80.3285 118.535 74.1282 121.342 73.898 125.792C73.6678 130.241 79.4948 134.649 86.9131 135.636L97.4609 137.04Z" fill="#906253"/>
<path d="M100.372 136.461C101.73 136.629 102.865 136.156 102.907 135.404C102.95 134.652 101.884 133.906 100.526 133.737L91.6139 132.633C90.2561 132.465 89.1209 132.938 89.0784 133.691C89.0358 134.443 90.102 135.189 91.4598 135.357L100.372 136.461Z" fill="#9D6B5A"/>
<path d="M51.6925 128.645C56.0883 127.955 58.4535 124.169 56.9753 120.188C55.4971 116.207 50.7353 113.539 46.3395 114.229L34.3331 116.113C29.9373 116.803 27.5721 120.59 29.0503 124.571C30.5285 128.551 35.2903 131.219 39.6861 130.529L51.6925 128.645Z" fill="#906253"/>
<path d="M53.6018 136.701C56.642 137.102 59.1938 135.759 59.3014 133.7C59.4089 131.642 57.0315 129.648 53.9912 129.247L45.6873 128.151C42.6471 127.75 40.0952 129.093 39.9877 131.151C39.8802 133.209 42.2576 135.203 45.2979 135.605L53.6018 136.701Z" fill="#9D6B5A"/>
<path d="M190.164 131.151L190.153 131.096C189.453 127.61 193.914 124.76 200.115 124.729L211.319 123.361L223.711 122.633L235.028 122.24L246.505 123.173C252.707 123.143 258.478 127.271 259.177 130.757L259.188 130.812C259.756 133.643 256.92 136.056 252.511 136.878C250.386 137.274 248.184 137.459 246.12 138.014L244.301 138.504C242.327 139.035 240.258 139.32 238.13 139.353L228.455 139.505L202.659 137.407C196.457 137.438 190.863 134.636 190.164 131.151Z" fill="#81584A"/>
<path d="M231.833 132.312L231.827 132.252C231.495 128.361 236.029 124.598 241.956 123.846L286.462 118.197C292.389 117.444 297.463 119.988 297.796 123.878L297.801 123.939C298.134 127.829 293.6 131.592 287.673 132.345L243.167 137.994C237.24 138.746 232.166 136.202 231.833 132.312Z" fill="#81584A"/>
<path d="M279.653 129.248L279.512 126.681C279.242 121.759 284.608 117.072 291.496 116.211L297.615 115.447C304.504 114.586 310.306 117.878 310.576 122.799L310.717 125.367C310.987 130.289 305.622 134.976 298.733 135.837L292.614 136.601C285.725 137.462 279.923 134.17 279.653 129.248Z" fill="#906253"/>
<path d="M251.36 137.316C243.928 138.225 237.696 135.268 237.44 130.711C237.184 126.155 243.001 121.724 250.433 120.815L260.999 119.522C268.431 118.613 274.663 121.57 274.919 126.127C275.175 130.683 269.358 135.114 261.927 136.023L251.36 137.316Z" fill="#906253"/>
<path d="M248.468 136.652C247.109 136.808 245.969 136.306 245.921 135.532C245.874 134.758 246.938 134.005 248.297 133.849L257.217 132.828C258.576 132.673 259.716 133.174 259.763 133.948C259.81 134.722 258.747 135.476 257.388 135.631L248.468 136.652Z" fill="#9D6B5A"/>
<path d="M297.099 128.987C292.699 128.224 290.316 124.385 291.777 120.413C293.238 116.441 297.989 113.839 302.389 114.602L314.406 116.686C318.806 117.449 321.189 121.288 319.728 125.26C318.267 129.232 313.516 131.834 309.116 131.071L297.099 128.987Z" fill="#906253"/>
<path d="M295.261 137.286C292.216 137.655 289.651 136.245 289.531 134.136C289.411 132.027 291.783 130.018 294.828 129.648L303.146 128.638C306.191 128.268 308.756 129.678 308.876 131.787C308.996 133.896 306.624 135.906 303.579 136.276L295.261 137.286Z" fill="#9D6B5A"/>
<path d="M160.635 268.065L159.283 268.066C154.617 268.066 150.835 271.848 150.835 276.514L150.835 302.583L150.835 320.428L149.131 338.717C149.131 342.714 152.613 345.953 156.909 345.953H158.723C163.019 345.953 166.501 342.714 166.501 338.717V311.947C166.501 310.126 166.902 308.326 167.676 306.677C168.449 305.028 168.85 303.228 168.85 301.407V297.811C168.85 295.764 168.624 293.724 168.176 291.727C167.727 289.73 167.501 287.69 167.501 285.644V274.932C167.501 274.573 167.473 274.214 167.417 273.86C166.89 270.523 164.013 268.065 160.635 268.065Z" fill="#906253"/>
<path d="M159.915 198.348H152.83C149.758 198.348 147.268 200.838 147.268 203.91L143.537 236.01V249.996C143.537 251.525 143.648 253.052 143.87 254.565L144.768 260.699C145.237 263.902 146.213 267.01 147.66 269.906L150.129 274.847C150.619 275.828 150.874 276.909 150.874 278.006C150.874 281.909 154.038 285.073 157.941 285.073H159.94C164.1 285.073 167.472 281.701 167.472 277.541C167.472 276.745 167.598 275.953 167.846 275.196L168.753 272.43C169.132 271.273 169.429 270.091 169.64 268.892L170.968 261.383L172.562 249.424V230.3V210.995C172.562 204.01 166.9 198.348 159.915 198.348Z" fill="#81584A"/>
<path d="M161.528 330.638H154.224C150.012 330.638 146.598 334.066 146.598 338.295C146.598 342.524 150.012 345.953 154.224 345.953H161.528C165.739 345.953 169.154 342.524 169.154 338.295C169.154 334.066 165.739 330.638 161.528 330.638Z" fill="#9D6B5A"/>
<path d="M166.628 337.564H149.123C147.728 337.564 146.598 338.7 146.598 340.1V343.417C146.598 344.817 147.728 345.953 149.123 345.953H166.628C168.023 345.953 169.154 344.817 169.154 343.417V340.1C169.154 338.7 168.023 337.564 166.628 337.564Z" fill="#9D6B5A"/>
<path d="M203.823 157.165C203.823 137.596 188.335 133.602 173.84 133.602C159.345 133.602 144.322 137.596 144.322 157.165L147.595 194.635C147.595 214.205 159.345 230.069 173.84 230.069C188.335 230.069 200.086 218.661 200.086 199.092L203.823 157.165Z" fill="#81584A"/>
<path d="M210.85 116.702H136.34C128.275 116.702 121.736 123.702 121.736 132.337C121.736 140.972 128.275 147.972 136.34 147.972H210.85C218.915 147.972 225.454 140.972 225.454 132.337C225.454 123.702 218.915 116.702 210.85 116.702Z" fill="#906253"/>
<path d="M212.3 140.31C212.3 123.412 195.082 109.713 173.842 109.713C152.603 109.713 135.385 123.412 135.385 140.31C135.385 157.209 152.603 170.908 173.842 170.908C195.082 170.908 212.3 157.209 212.3 140.31Z" fill="#81584A"/>
<path d="M175.966 162.385H171.718C161.588 162.385 153.375 170.572 153.375 180.672V193.884C153.375 203.983 161.588 212.171 171.718 212.171H175.966C186.097 212.171 194.31 203.983 194.31 193.884V180.672C194.31 170.572 186.097 162.385 175.966 162.385Z" fill="#906253"/>
<path d="M193.724 116.627H153.961C143.701 116.627 135.385 124.119 135.385 133.36V143.445C135.385 152.687 143.701 160.179 153.961 160.179H193.724C203.984 160.179 212.3 152.687 212.3 143.445V133.36C212.3 124.119 203.984 116.627 193.724 116.627Z" fill="#906253"/>
<path d="M197.194 116.627H150.491C142.148 116.627 135.385 124.119 135.385 133.362V143.448C135.385 152.69 142.148 160.183 150.491 160.183H197.194C205.537 160.183 212.3 152.69 212.3 143.448V133.362C212.3 124.119 205.537 116.627 197.194 116.627Z" fill="#9D6B5A"/>
<path d="M176.983 152.448C176.983 151.307 175.532 150.382 173.743 150.382C171.954 150.382 170.504 151.307 170.504 152.448V156.454C170.504 157.595 171.954 158.52 173.743 158.52C175.532 158.52 176.983 157.595 176.983 156.454V152.448Z" fill="#81584A"/>
<path d="M190.647 146.979H183.096C180.928 146.979 179.17 148.728 179.17 150.884C179.17 153.04 180.928 154.788 183.096 154.788H190.647C192.816 154.788 194.574 153.04 194.574 150.884C194.574 148.728 192.816 146.979 190.647 146.979Z" fill="#AC7967"/>
<path d="M163.997 146.979H156.446C154.278 146.979 152.52 148.728 152.52 150.884C152.52 153.04 154.278 154.788 156.446 154.788H163.997C166.165 154.788 167.923 153.04 167.923 150.884C167.923 148.728 166.165 146.979 163.997 146.979Z" fill="#AC7967"/>
<path d="M188.98 103.179C188.98 93.1704 182.203 85.0566 173.844 85.0566C165.484 85.0566 158.707 93.1704 158.707 103.179V110.614C158.707 120.623 165.484 128.737 173.844 128.737C182.203 128.737 188.98 120.623 188.98 110.614V103.179Z" fill="#9D6B5A"/>
<path d="M153.151 154.991H150.402C149.305 154.991 148.416 155.875 148.416 156.966C148.416 158.056 149.305 158.94 150.402 158.94H153.151C154.248 158.94 155.137 158.056 155.137 156.966C155.137 155.875 154.248 154.991 153.151 154.991Z" fill="#81584A"/>
<path d="M198.099 154.991H195.349C194.252 154.991 193.363 155.875 193.363 156.966C193.363 158.056 194.252 158.94 195.349 158.94H198.099C199.195 158.94 200.085 158.056 200.085 156.966C200.085 155.875 199.195 154.991 198.099 154.991Z" fill="#81584A"/>
<path d="M176.779 85.0566H170.908C164.17 85.0566 158.707 90.5193 158.707 97.2579V102.264C158.707 109.002 164.17 114.465 170.908 114.465H176.779C183.518 114.465 188.98 109.002 188.98 102.264V97.2579C188.98 90.5193 183.518 85.0566 176.779 85.0566Z" fill="#81584A"/>
<path d="M137.851 119.267H136.137C131.562 119.267 127.854 123.237 127.854 128.135C127.854 133.033 131.562 137.003 136.137 137.003H137.851C142.426 137.003 146.134 133.033 146.134 128.135C146.134 123.237 142.426 119.267 137.851 119.267Z" fill="#9D6B5A"/>
<path d="M211.775 120.131H210.061C205.486 120.131 201.777 124.101 201.777 128.999C201.777 133.897 205.486 137.868 210.061 137.868H211.775C216.349 137.868 220.058 133.897 220.058 128.999C220.058 124.101 216.349 120.131 211.775 120.131Z" fill="#9D6B5A"/>
<path d="M137.735 122.246H135.164C133.745 122.246 132.594 123.478 132.594 124.998C132.594 126.518 133.745 127.751 135.164 127.751H137.735C139.155 127.751 140.306 126.518 140.306 124.998C140.306 123.478 139.155 122.246 137.735 122.246Z" fill="#AC7967"/>
<path d="M217.805 122.462H215.053C213.533 122.462 212.301 123.694 212.301 125.214C212.301 126.734 213.533 127.966 215.053 127.966H217.805C219.325 127.966 220.558 126.734 220.558 125.214C220.558 123.694 219.325 122.462 217.805 122.462Z" fill="#AC7967"/>
<path d="M186.607 266.015L187.839 266.015C192.498 266.015 196.274 269.792 196.274 274.451L196.275 301.259L196.274 319.48L197.979 338.155C197.979 342.235 194.496 345.543 190.2 345.543H188.387C184.091 345.543 180.608 342.235 180.608 338.155V310.305C180.608 308.557 180.206 306.833 179.434 305.265C178.661 303.698 178.259 301.974 178.259 300.226V296.307C178.259 294.27 178.48 292.239 178.917 290.25L178.934 290.175C179.382 288.136 179.608 286.054 179.608 283.966V273.014C179.608 272.655 179.636 272.297 179.691 271.943C180.219 268.532 183.155 266.015 186.607 266.015Z" fill="#906253"/>
<path d="M187.196 197.92L194.139 197.92C197.289 197.92 199.843 200.474 199.843 203.624L203.574 235.629V249.439C203.574 250.983 203.461 252.524 203.235 254.05L202.344 260.078C201.875 263.254 200.898 266.335 199.452 269.202L196.986 274.091C196.494 275.067 196.237 276.145 196.237 277.239C196.237 281.098 193.108 284.227 189.249 284.227H187.09C182.976 284.227 179.64 280.892 179.64 276.777C179.64 275.981 179.512 275.191 179.262 274.436L178.358 271.704C177.979 270.558 177.683 269.387 177.471 268.199L176.144 260.762L174.549 248.916V229.972V210.567C174.549 203.582 180.211 197.92 187.196 197.92Z" fill="#81584A"/>
<path d="M186.389 330.281H193.692C197.904 330.281 201.318 333.698 201.318 337.912C201.318 342.127 197.904 345.543 193.692 345.543H186.389C182.177 345.543 178.762 342.127 178.762 337.912C178.762 333.698 182.177 330.281 186.389 330.281Z" fill="#9D6B5A"/>
<path d="M181.288 333.423H198.793C200.188 333.423 201.318 335.063 201.318 337.087V341.879C201.318 343.902 200.188 345.543 198.793 345.543H181.288C179.893 345.543 178.762 343.902 178.762 341.879V337.087C178.762 335.063 179.893 333.423 181.288 333.423Z" fill="#9D6B5A"/>
<path d="M195.234 73.6211H153.718C148.971 73.6211 145.123 77.66 145.123 82.6424C145.123 87.6247 148.971 91.6636 153.718 91.6636H195.234C199.98 91.6636 203.828 87.6247 203.828 82.6424C203.828 77.66 199.98 73.6211 195.234 73.6211Z" fill="#9D6B5A"/>
<path d="M194.472 75.916H153.347C149.789 75.916 146.904 78.9281 146.904 82.6437C146.904 86.3594 149.789 89.3715 153.347 89.3715H194.472C198.031 89.3715 200.915 86.3594 200.915 82.6437C200.915 78.9281 198.031 75.916 194.472 75.916Z" fill="#81584A"/>
<path d="M180.361 48.2656H168.49C158.654 48.2656 150.68 56.7465 150.68 67.2082V89.656C150.68 100.118 158.654 108.599 168.49 108.599H180.361C190.198 108.599 198.171 100.118 198.171 89.656V67.2082C198.171 56.7465 190.198 48.2656 180.361 48.2656Z" fill="#9D6B5A"/>
<path d="M178.269 106.108H167.176C165.976 106.108 165.004 107.143 165.004 108.418C165.004 109.694 165.976 110.729 167.176 110.729H178.269C179.469 110.729 180.441 109.694 180.441 108.418C180.441 107.143 179.469 106.108 178.269 106.108Z" fill="#9D6B5A"/>
<path d="M169.308 166.055H164.437C162.114 166.055 160.23 167.863 160.23 170.094C160.23 172.325 162.114 174.133 164.437 174.133H169.308C171.631 174.133 173.515 172.325 173.515 170.094C173.515 167.863 171.631 166.055 169.308 166.055Z" fill="#9D6B5A"/>
<path d="M169.308 175.578H164.437C162.114 175.578 160.23 177.387 160.23 179.617C160.23 181.848 162.114 183.656 164.437 183.656H169.308C171.631 183.656 173.515 181.848 173.515 179.617C173.515 177.387 171.631 175.578 169.308 175.578Z" fill="#9D6B5A"/>
<path d="M169.308 185.103H164.437C162.114 185.103 160.23 186.911 160.23 189.142C160.23 191.372 162.114 193.181 164.437 193.181H169.308C171.631 193.181 173.515 191.372 173.515 189.142C173.515 186.911 171.631 185.103 169.308 185.103Z" fill="#9D6B5A"/>
<path d="M184.185 166.055H179.314C176.991 166.055 175.107 167.863 175.107 170.094C175.107 172.325 176.991 174.133 179.314 174.133H184.185C186.508 174.133 188.392 172.325 188.392 170.094C188.392 167.863 186.508 166.055 184.185 166.055Z" fill="#9D6B5A"/>
<path d="M184.185 175.578H179.314C176.991 175.578 175.107 177.387 175.107 179.617C175.107 181.848 176.991 183.656 179.314 183.656H184.185C186.508 183.656 188.392 181.848 188.392 179.617C188.392 177.387 186.508 175.578 184.185 175.578Z" fill="#9D6B5A"/>
<path d="M184.185 185.103H179.314C176.991 185.103 175.107 186.911 175.107 189.142C175.107 191.372 176.991 193.181 179.314 193.181H184.185C186.508 193.181 188.392 191.372 188.392 189.142C188.392 186.911 186.508 185.103 184.185 185.103Z" fill="#9D6B5A"/>
<path d="M168.441 124.257L160.178 120.286C159.259 119.844 158.155 120.231 157.713 121.15C157.271 122.07 157.658 123.173 158.578 123.615L166.84 127.587C167.76 128.029 168.863 127.642 169.305 126.722C169.747 125.803 169.36 124.699 168.441 124.257Z" fill="#81584A"/>
<path d="M178.282 124.257L186.544 120.286C187.464 119.844 188.567 120.231 189.009 121.15C189.451 122.07 189.064 123.173 188.145 123.615L179.882 127.587C178.963 128.029 177.859 127.642 177.417 126.722C176.975 125.803 177.362 124.699 178.282 124.257Z" fill="#81584A"/>
<path d="M151.73 199.171C150.357 199.171 149.033 199.415 147.779 199.863C149.247 217.662 160.308 231.412 173.827 231.412C187.521 231.412 198.693 217.305 199.927 199.171C199.926 199.171 199.925 199.171 199.923 199.171H151.73Z" fill="#4F4F4F"/>
<path d="M198.704 197.207H148.566C147.472 197.207 146.584 198.287 146.584 199.618V203.352C146.584 204.684 147.472 205.763 148.566 205.763H198.704C199.799 205.763 200.687 204.684 200.687 203.352V199.618C200.687 198.287 199.799 197.207 198.704 197.207Z" fill="#5B5B5B"/>
<path d="M175.065 103.678H171.635C171.361 103.678 171.139 103.9 171.139 104.174V104.467C171.139 104.741 171.361 104.963 171.635 104.963H175.065C175.339 104.963 175.561 104.741 175.561 104.467V104.174C175.561 103.9 175.339 103.678 175.065 103.678Z" fill="#81584A"/>
<path d="M177.662 81.9873C177.662 79.9389 176.001 78.2783 173.953 78.2783C171.905 78.2783 170.244 79.9389 170.244 81.9873V88.5325C170.244 90.5809 171.905 92.2414 173.953 92.2414C176.001 92.2414 177.662 90.5809 177.662 88.5325V81.9873Z" fill="#81584A"/>
<path d="M164.883 78.3417C164.883 77.0597 163.843 76.0205 162.561 76.0205C161.279 76.0205 160.24 77.0597 160.24 78.3417V79.2702C160.24 80.5521 161.279 81.5913 162.561 81.5913C163.843 81.5913 164.883 80.5521 164.883 79.2702V78.3417Z" fill="#61534B"/>
<path d="M187.398 78.3417C187.398 77.0597 186.359 76.0205 185.077 76.0205C183.795 76.0205 182.756 77.0597 182.756 78.3417V79.2702C182.756 80.5521 183.795 81.5913 185.077 81.5913C186.359 81.5913 187.398 80.5521 187.398 79.2702V78.3417Z" fill="#61534B"/>
<path d="M178.112 101.099C181.528 101.099 184.279 98.1611 184.279 94.5114V93.4453H163.512V94.5114C163.512 98.1611 166.262 101.099 169.678 101.099H178.112Z" fill="white"/>
<path d="M173.46 89.4404L170.01 86.5096C169.44 86.0254 168.586 86.0948 168.102 86.6646C167.618 87.2345 167.687 88.089 168.257 88.5732L171.706 91.5041C172.276 91.9883 173.13 91.9189 173.615 91.349C174.099 90.7791 174.029 89.9246 173.46 89.4404Z" fill="#81584A"/>
<path d="M174.451 89.4404L177.9 86.5096C178.47 86.0253 179.324 86.0948 179.808 86.6646C180.293 87.2345 180.223 88.089 179.653 88.5732L176.204 91.5041C175.634 91.9883 174.78 91.9189 174.295 91.349C173.811 90.7791 173.881 89.9246 174.451 89.4404Z" fill="#81584A"/>
<path d="M176.104 87.5569C176.104 86.5741 175.307 85.7773 174.324 85.7773C173.342 85.7773 172.545 86.5741 172.545 87.5569V89.1817C172.545 90.1646 173.342 90.9613 174.324 90.9613C175.307 90.9613 176.104 90.1646 176.104 89.1817V87.5569Z" fill="#906253"/>
<path d="M166.337 76.1694L158.945 74.1609C158.144 73.9431 157.413 74.2309 157.314 74.8036C157.214 75.3763 157.783 76.0171 158.584 76.2348L165.976 78.2434C166.777 78.4612 167.508 78.1734 167.608 77.6007C167.707 77.028 167.139 76.3872 166.337 76.1694Z" fill="#4D4D4D"/>
<path d="M159.068 75.7572C159.132 75.3303 158.762 74.8533 158.242 74.6918C157.722 74.5303 157.249 74.7455 157.185 75.1723L156.919 76.9426C156.855 77.3694 157.224 77.8464 157.744 78.0079C158.264 78.1694 158.738 77.9543 158.802 77.5274L159.068 75.7572Z" fill="#4D4D4D"/>
<path d="M181.124 76.1685L188.516 74.1599C189.317 73.9421 190.048 74.2299 190.147 74.8026C190.247 75.3753 189.678 76.0161 188.877 76.2339L181.485 78.2424C180.683 78.4602 179.953 78.1724 179.853 77.5997C179.753 77.027 180.322 76.3862 181.124 76.1685Z" fill="#4D4D4D"/>
<path d="M188.395 75.7562C188.331 75.3293 188.701 74.8524 189.221 74.6909C189.741 74.5294 190.214 74.7445 190.278 75.1714L190.544 76.9416C190.608 77.3685 190.239 77.8454 189.719 78.0069C189.199 78.1684 188.725 77.9533 188.661 77.5264L188.395 75.7562Z" fill="#4D4D4D"/>
<path d="M171.571 75.2241C171.571 74.65 171.106 74.1846 170.532 74.1846C169.958 74.1846 169.492 74.65 169.492 75.2241V76.4824C169.492 77.0565 169.958 77.5219 170.532 77.5219C171.106 77.5219 171.571 77.0565 171.571 76.4824V75.2241Z" fill="#81584A"/>
<path d="M178.466 75.2241C178.466 74.65 178 74.1846 177.426 74.1846C176.852 74.1846 176.387 74.65 176.387 75.2241V76.4824C176.387 77.0565 176.852 77.5219 177.426 77.5219C178 77.5219 178.466 77.0565 178.466 76.4824V75.2241Z" fill="#81584A"/>
<path d="M176.102 87.554C176.102 86.5712 175.305 85.7744 174.323 85.7744C173.34 85.7744 172.543 86.5712 172.543 87.554V89.1788C172.543 90.1616 173.34 90.9584 174.323 90.9584C175.305 90.9584 176.102 90.1616 176.102 89.1788V87.554Z" fill="#906253"/>
<path d="M166.107 75.7334L158.713 74.713C157.912 74.6024 157.283 74.9336 157.309 75.4528C157.335 75.972 158.006 76.4825 158.808 76.5932L166.202 77.6136C167.003 77.7242 167.632 77.393 167.606 76.8738C167.58 76.3546 166.909 75.8441 166.107 75.7334Z" fill="#4D4D4D"/>
<path d="M158.89 76.2783C158.873 75.8436 158.478 75.4184 158.006 75.3286C157.535 75.2388 157.166 75.5184 157.183 75.9531L157.252 77.7557C157.269 78.1904 157.665 78.6156 158.136 78.7054C158.608 78.7952 158.976 78.5157 158.96 78.081L158.89 76.2783Z" fill="#4D4D4D"/>
<path d="M181.56 75.356L188.775 74.6854C189.557 74.6127 190.121 75.0594 190.033 75.6831C189.946 76.3069 189.241 76.8715 188.458 76.9442L181.243 77.6149C180.461 77.6876 179.898 77.2409 179.985 76.6171C180.073 75.9933 180.778 75.4287 181.56 75.356Z" fill="#4D4D4D"/>
<path d="M188.699 76.4597C188.744 76.0094 189.105 75.6025 189.504 75.5507C189.904 75.499 190.192 75.8221 190.147 76.2723L189.959 78.1396C189.914 78.5899 189.553 78.9969 189.153 79.0486C188.753 79.1004 188.466 78.7773 188.511 78.327L188.699 76.4597Z" fill="#4D4D4D"/>
<path d="M200.076 70.7402C199.985 70.7324 199.893 70.7322 199.8 70.7411C199.693 70.7513 199.586 70.7729 199.479 70.8064L199.26 70.875C198.552 71.0978 198.108 71.7821 198.124 72.519C198.055 72.416 197.973 72.3261 197.885 72.2429V74.5262C200.955 75.8575 203.103 79.0176 203.103 82.7229C203.103 86.448 200.931 89.621 197.836 90.9398C197.748 92.2702 197.523 93.5592 197.184 94.7968V96.0735C197.105 95.942 197.011 95.8219 196.908 95.7121C195.364 100.411 192.085 104.247 187.861 106.388V109.253C187.861 110.405 188.747 111.332 189.848 111.332H190.765C191.865 111.332 192.752 110.405 192.752 109.253V108.693C193.05 109.445 193.757 109.972 194.586 109.972H195.503C196.603 109.972 197.49 109.044 197.49 107.892V107.234C197.84 107.821 198.458 108.213 199.171 108.213C200.271 108.213 201.158 107.285 201.158 106.133V94.4504L201.566 95.8736C201.822 96.7648 202.714 97.2674 203.565 96.9997C204.416 96.732 204.896 95.7985 204.64 94.9072L202.46 87.312C202.862 87.7845 203.499 88.0002 204.118 87.8057L204.338 87.7362C205.189 87.4685 205.669 86.5358 205.413 85.6446L201.478 71.9317C201.282 71.2493 200.714 70.7955 200.076 70.7403V70.7402ZM148.421 70.8532C147.783 70.9085 147.215 71.3622 147.019 72.0446L143.084 85.7575C142.829 86.6487 143.308 87.5814 144.159 87.8491L144.379 87.9186C144.998 88.1131 145.635 87.8975 146.037 87.425L143.857 95.0202C143.602 95.9114 144.081 96.845 144.932 97.1127C145.784 97.3804 146.675 96.8786 146.931 95.9874L147.014 95.7004V106.133C147.014 107.285 147.899 108.213 149 108.213C149.712 108.213 150.331 107.821 150.681 107.234V107.892C150.681 109.044 151.567 109.972 152.667 109.972H153.585C154.413 109.972 155.12 109.447 155.419 108.695V109.253C155.419 110.405 156.305 111.332 157.405 111.332H158.322C159.423 111.332 160.309 110.405 160.309 109.253V106.313C156.124 104.141 152.885 100.297 151.374 95.6042C151.225 95.7403 151.092 95.8965 150.987 96.0735V94.2287C150.73 93.1659 150.556 92.0677 150.482 90.9398C147.386 89.621 145.214 86.448 145.214 82.7229C145.214 79.0176 147.363 75.8575 150.432 74.5261V72.5575C150.413 72.5827 150.391 72.6054 150.374 72.6319C150.389 71.8954 149.945 71.2106 149.237 70.9879L149.018 70.9193C148.912 70.8858 148.804 70.8642 148.698 70.854C148.605 70.8452 148.512 70.8453 148.421 70.8532V70.8532Z" fill="#4D4D4D"/>
<path d="M155.154 55.376C151.756 58.7184 149.629 63.5487 149.629 68.9383V90.6187C149.629 100.754 157.152 108.914 166.497 108.914H181.302C190.647 108.914 198.17 100.754 198.17 90.6187V68.9383C198.17 63.5487 196.043 58.7184 192.645 55.376C195.234 58.6357 196.799 62.8816 196.799 67.541V89.6164C196.799 99.9366 189.139 108.245 179.624 108.245H168.176C158.661 108.245 151 99.9366 151 89.6164V67.541C151 62.8816 152.565 58.6357 155.154 55.376Z" fill="#565656"/>
<path d="M165.057 108.705C165.057 107.736 164.334 106.951 163.441 106.951C162.548 106.951 161.824 107.736 161.824 108.705V110.741C161.824 111.709 162.548 112.494 163.441 112.494C164.334 112.494 165.057 111.709 165.057 110.741V108.705Z" fill="#565656"/>
<path d="M168.081 110.302C168.081 109.334 167.357 108.549 166.464 108.549C165.571 108.549 164.848 109.334 164.848 110.302V112.338C164.848 113.307 165.571 114.092 166.464 114.092C167.357 114.092 168.081 113.307 168.081 112.338V110.302Z" fill="#565656"/>
<path d="M171.069 111.184C171.069 110.216 170.345 109.431 169.453 109.431C168.56 109.431 167.836 110.216 167.836 111.184V113.22C167.836 114.189 168.56 114.974 169.453 114.974C170.345 114.974 171.069 114.189 171.069 113.22V111.184Z" fill="#565656"/>
<path d="M174.018 111.383C174.018 110.415 173.295 109.63 172.402 109.63C171.509 109.63 170.785 110.415 170.785 111.383V113.419C170.785 114.388 171.509 115.173 172.402 115.173C173.295 115.173 174.018 114.388 174.018 113.419V111.383Z" fill="#565656"/>
<path d="M162.336 105.189C162.336 104.034 161.472 103.097 160.406 103.097C159.34 103.097 158.477 104.034 158.477 105.189V107.62C158.477 108.776 159.34 109.712 160.406 109.712C161.472 109.712 162.336 108.776 162.336 107.62V105.189Z" fill="#565656"/>
<path d="M158.998 103.042C158.998 101.886 158.134 100.949 157.068 100.949C156.003 100.949 155.139 101.886 155.139 103.042V105.472C155.139 106.628 156.003 107.565 157.068 107.565C158.134 107.565 158.998 106.628 158.998 105.472V103.042Z" fill="#565656"/>
<path d="M156.183 100.439C156.183 99.2836 155.319 98.3467 154.254 98.3467C153.188 98.3467 152.324 99.2836 152.324 100.439V102.87C152.324 104.026 153.188 104.962 154.254 104.962C155.319 104.962 156.183 104.026 156.183 102.87V100.439Z" fill="#565656"/>
<path d="M182.734 108.705C182.734 107.736 183.457 106.951 184.35 106.951C185.243 106.951 185.967 107.736 185.967 108.705V110.741C185.967 111.709 185.243 112.494 184.35 112.494C183.457 112.494 182.734 111.709 182.734 110.741V108.705Z" fill="#565656"/>
<path d="M179.706 110.302C179.706 109.334 180.43 108.549 181.323 108.549C182.216 108.549 182.939 109.334 182.939 110.302V112.338C182.939 113.307 182.216 114.092 181.323 114.092C180.43 114.092 179.706 113.307 179.706 112.338V110.302Z" fill="#565656"/>
<path d="M176.718 111.184C176.718 110.216 177.442 109.431 178.335 109.431C179.227 109.431 179.951 110.216 179.951 111.184V113.22C179.951 114.189 179.227 114.974 178.335 114.974C177.442 114.974 176.718 114.189 176.718 113.22V111.184Z" fill="#565656"/>
<path d="M173.771 111.383C173.771 110.415 174.494 109.63 175.387 109.63C176.28 109.63 177.004 110.415 177.004 111.383V113.419C177.004 114.388 176.28 115.173 175.387 115.173C174.494 115.173 173.771 114.388 173.771 113.419V111.383Z" fill="#565656"/>
<path d="M185.453 105.189C185.453 104.034 186.317 103.097 187.383 103.097C188.449 103.097 189.312 104.034 189.312 105.189V107.62C189.312 108.776 188.449 109.712 187.383 109.712C186.317 109.712 185.453 108.776 185.453 107.62V105.189Z" fill="#565656"/>
<path d="M188.791 103.043C188.791 101.887 189.655 100.95 190.721 100.95C191.787 100.95 192.65 101.887 192.65 103.043V105.473C192.65 106.629 191.787 107.566 190.721 107.566C189.655 107.566 188.791 106.629 188.791 105.473V103.043Z" fill="#565656"/>
<path d="M191.606 100.439C191.606 99.2836 192.47 98.3467 193.535 98.3467C194.601 98.3467 195.465 99.2836 195.465 100.439V102.87C195.465 104.026 194.601 104.962 193.535 104.962C192.47 104.962 191.606 104.026 191.606 102.87V100.439Z" fill="#565656"/>
<path d="M166.592 88.0703C162.82 88.0703 159.783 91.364 159.783 95.4555V104.095C159.783 108.186 162.82 111.48 166.592 111.48H181.203C184.975 111.48 188.012 108.186 188.012 104.095V95.4555C188.012 91.364 184.975 88.0703 181.203 88.0703H179.773C179.824 88.5204 179.671 88.9876 179.327 89.3044L178.75 89.8365C179.092 90.185 179.347 90.6344 179.458 91.1492H181.44C183.549 91.1492 185.246 92.9903 185.246 95.2782V98.9929C185.246 99.861 185.002 100.664 184.583 101.327V102.346C184.583 105.612 182.159 108.241 179.148 108.241H168.647C165.636 108.241 163.212 105.612 163.212 102.346V101.327C162.793 100.664 162.549 99.861 162.549 98.9929V95.2782C162.549 92.9903 164.246 91.1492 166.356 91.1492H167.602C167.751 90.4565 168.154 89.8757 168.695 89.5144L168.468 89.3044C168.124 88.9876 167.972 88.5204 168.022 88.0703H166.592Z" fill="#565656"/>
<path d="M163.549 47.8896C154.562 47.8896 147.326 55.4634 147.326 64.8714C147.326 65.3132 147.348 65.7493 147.379 66.1824C147.348 66.404 147.326 66.6292 147.326 66.8601V77.2632C147.326 79.4956 148.834 81.3452 150.846 81.7636V68.1879C150.846 58.4698 158.321 50.6456 167.604 50.6456H180.715C189.999 50.6456 197.473 58.4698 197.473 68.1879V81.782C199.542 81.4116 201.11 79.5381 201.11 77.2632V66.8601C201.11 66.6292 201.088 66.404 201.057 66.1824C201.088 65.7493 201.11 65.3132 201.11 64.8714C201.11 55.4634 193.875 47.8896 184.887 47.8896H163.549Z" fill="#4D4D4D"/>
<path d="M181.958 45.748H167.343C162.419 45.748 158.428 49.9263 158.428 55.0804C158.428 60.2345 162.419 64.4128 167.343 64.4128H181.958C186.882 64.4128 190.873 60.2345 190.873 55.0804C190.873 49.9263 186.882 45.748 181.958 45.748Z" fill="#4D4D4D"/>
<path d="M163.398 51.6772C163.398 50.2196 162.269 49.0381 160.877 49.0381C159.484 49.0381 158.355 50.2196 158.355 51.6772V57.7967C158.355 59.2543 159.484 60.4358 160.877 60.4358C162.269 60.4358 163.398 59.2543 163.398 57.7967V51.6772Z" fill="#4D4D4D"/>
<path d="M192.044 51.9066C192.044 50.4491 190.915 49.2676 189.523 49.2676C188.131 49.2676 187.002 50.4491 187.002 51.9066V58.0262C187.002 59.4837 188.131 60.6653 189.523 60.6653C190.915 60.6653 192.044 59.4837 192.044 58.0262V51.9066Z" fill="#4D4D4D"/>
<path d="M157.396 54.6933C157.264 53.7315 156.413 53.0638 155.494 53.202C154.575 53.3401 153.937 54.2318 154.069 55.1937L154.495 58.2981C154.627 59.2599 155.479 59.9276 156.398 59.7894C157.317 59.6512 157.954 58.7595 157.822 57.7977L157.396 54.6933Z" fill="#4D4D4D"/>
<path d="M193.043 55.4501C193.175 54.4883 194.027 53.8206 194.946 53.9588C195.865 54.097 196.502 54.9887 196.37 55.9505L195.944 59.0549C195.812 60.0167 194.961 60.6844 194.042 60.5462C193.123 60.4081 192.485 59.5164 192.617 58.5545L193.043 55.4501Z" fill="#4D4D4D"/>
<path d="M172.896 50.3828H174.47C175.398 50.3828 176.15 51.1705 176.15 52.1422V58.5678C176.15 59.5394 175.398 60.3271 174.47 60.3271H172.896C171.968 60.3271 171.215 59.5394 171.215 58.5678V52.1422C171.215 51.1705 171.968 50.3828 172.896 50.3828Z" fill="#565656"/>
<path d="M166.105 50.5732H168.183C168.909 50.5732 169.498 51.1897 169.498 51.9502V58.7582C169.498 59.5186 168.909 60.1351 168.183 60.1351H166.105C165.379 60.1351 164.79 59.5186 164.79 58.7582V51.9502C164.79 51.1897 165.379 50.5732 166.105 50.5732Z" fill="#565656"/>
<path d="M181.26 50.5732H179.183C178.456 50.5732 177.867 51.1897 177.867 51.9502V58.7582C177.867 59.5186 178.456 60.1351 179.183 60.1351H181.26C181.987 60.1351 182.575 59.5186 182.575 58.7582V51.9502C182.575 51.1897 181.987 50.5732 181.26 50.5732Z" fill="#565656"/>
</svg>
