<svg width="351" height="351" viewBox="0 0 351 351" fill="none" xmlns="http://www.w3.org/2000/svg">
<circle cx="175.771" cy="175.079" r="173.197" stroke="black" stroke-width="3.60643"/>
<rect x="26.9927" y="51.228" width="295.472" height="295.472" stroke="black" stroke-width="3.60643"/>
<path d="M148.467 131.67L148.473 131.632C148.87 129.222 144.227 127.22 138.101 127.16L126.924 126.142L114.628 125.56L103.421 125.217L92.1678 125.791C86.0422 125.731 80.691 128.554 80.2933 130.964L80.2871 131.001C79.8894 133.411 81.0715 132.36 98.7398 134.444L105.576 136.208C108.956 137.08 112.557 137.314 116.216 136.897L116.78 136.833L136.655 135.924C142.781 135.984 148.069 134.079 148.467 131.67Z" fill="#81584A"/>
<path d="M108.462 132.037C110.831 132.038 112.887 131.238 113.053 130.25C113.22 129.262 111.435 128.46 109.066 128.459L105.947 128.458C103.578 128.457 101.522 129.257 101.355 130.245C101.188 131.233 102.973 132.035 105.342 132.036L108.462 132.037Z" fill="#906253"/>
<path d="M97.6943 135.583C103.617 136.12 117.151 135.364 117.454 132.935C117.758 130.506 113.202 128.101 107.279 127.563L62.8036 123.524C56.8805 122.987 51.8328 124.52 51.5292 126.949L51.5244 126.987C51.2208 129.416 55.7762 131.821 61.6993 132.359L97.6943 135.583Z" fill="#81584A"/>
<path d="M69.6295 130.62L69.7522 129.005C69.9872 125.91 64.6052 122.893 57.7312 122.267L51.6243 121.711C44.7502 121.084 38.9872 123.086 38.7522 126.182L38.6295 127.797C38.3945 130.892 43.7764 133.909 50.6505 134.535L56.7574 135.091C63.6314 135.717 69.3945 133.716 69.6295 130.62Z" fill="#906253"/>
<path d="M97.9929 135.883C105.414 136.543 111.61 134.76 111.834 131.902C112.057 129.043 106.223 126.191 98.8019 125.531L88.2507 124.593C80.83 123.933 74.6332 125.715 74.4098 128.574C74.1864 131.432 80.0209 134.285 87.4416 134.944L97.9929 135.883Z" fill="#906253"/>
<path d="M100.895 135.523C102.253 135.635 103.388 135.335 103.429 134.852C103.47 134.368 102.403 133.885 101.045 133.773L92.1316 133.034C90.7736 132.922 89.6392 133.223 89.5978 133.706C89.5564 134.189 90.6237 134.672 91.9817 134.785L100.895 135.523Z" fill="#9D6B5A"/>
<path d="M52.219 130.362C56.6124 129.935 58.9711 127.504 57.4874 124.933C56.0036 122.362 51.2392 120.624 46.8459 121.051L34.8462 122.218C30.4528 122.645 28.0941 125.076 29.5778 127.647C31.0616 130.218 35.8259 131.956 40.2193 131.529L52.219 130.362Z" fill="#906253"/>
<path d="M54.1389 135.534C57.1801 135.802 59.73 134.948 59.8344 133.626C59.9388 132.303 57.5581 131.014 54.5169 130.746L46.2106 130.013C43.1694 129.745 40.6194 130.599 40.515 131.921C40.4106 133.244 42.7914 134.533 45.8325 134.801L54.1389 135.534Z" fill="#9D6B5A"/>
<path d="M202.271 131.279L202.263 131.244C201.806 129.003 206.332 127.258 212.373 127.347L223.371 126.668L235.485 126.42L246.531 126.367L257.647 127.165C263.688 127.254 269.044 129.996 269.501 132.237L269.508 132.272C269.966 134.514 260.693 134.842 251.722 135.916L248.896 136.553C247.155 136.946 245.344 137.163 243.488 137.201L239.023 137.293L214.037 135.5C207.996 135.41 202.728 133.521 202.271 131.279Z" fill="#81584A"/>
<path d="M241.85 132.595C239.529 132.522 237.494 131.712 237.306 130.785C237.118 129.859 238.847 129.167 241.168 129.24L244.225 129.336C246.546 129.409 248.58 130.22 248.769 131.146C248.957 132.073 247.228 132.765 244.907 132.692L241.85 132.595Z" fill="#906253"/>
<path d="M232.981 133.273L232.976 133.234C232.682 130.737 237.243 128.245 243.164 127.667L287.624 123.329C293.545 122.751 298.583 124.307 298.877 126.804L298.882 126.843C299.176 129.34 294.615 131.832 288.694 132.41L244.235 136.748C238.314 137.326 233.275 135.77 232.981 133.273Z" fill="#81584A"/>
<path d="M280.804 130.701L280.687 129.036C280.463 125.844 285.848 122.707 292.714 122.031L298.815 121.43C305.681 120.753 311.429 122.793 311.654 125.985L311.77 127.651C311.995 130.843 306.61 133.979 299.743 134.656L293.643 135.257C286.776 135.933 281.028 133.894 280.804 130.701Z" fill="#906253"/>
<path d="M252.415 136.184C245 136.897 238.816 135.087 238.603 132.142C238.39 129.198 244.228 126.233 251.643 125.521L262.186 124.508C269.601 123.796 275.785 125.605 275.998 128.55C276.211 131.495 270.373 134.459 262.958 135.171L252.415 136.184Z" fill="#906253"/>
<path d="M249.499 135.837C248.142 135.958 247.009 135.654 246.97 135.157C246.93 134.66 247.999 134.16 249.356 134.038L258.266 133.243C259.624 133.121 260.756 133.426 260.796 133.923C260.835 134.419 259.767 134.92 258.409 135.041L249.499 135.837Z" fill="#9D6B5A"/>
<path d="M298.196 130.412C293.805 129.991 291.453 127.475 292.943 124.793C294.434 122.11 299.203 120.277 303.595 120.698L315.59 121.849C319.982 122.27 322.334 124.786 320.843 127.468C319.353 130.151 314.584 131.984 310.192 131.563L298.196 130.412Z" fill="#906253"/>
<path d="M296.25 135.722C293.211 136.011 290.667 135.142 290.567 133.781C290.467 132.419 292.85 131.081 295.889 130.791L304.19 130.001C307.229 129.711 309.773 130.58 309.873 131.942C309.973 133.303 307.59 134.642 304.551 134.931L296.25 135.722Z" fill="#9D6B5A"/>
<path d="M164.249 345.923C167.072 345.923 169.36 342.683 169.36 338.687V311.771C169.36 310.034 169.62 308.307 170.132 306.647C170.643 304.987 170.904 303.259 170.904 301.522V297.014C170.904 295.474 170.791 293.937 170.566 292.413L170.355 290.981C170.13 289.457 170.017 287.92 170.017 286.38V274.362L169.864 272.89C169.578 270.131 167.253 268.035 164.479 268.035C161.489 268.035 159.065 270.459 159.065 273.449L159.065 302.553L159.065 320.397L157.945 338.687C157.945 342.683 160.234 345.923 163.057 345.923H164.249Z" fill="#906253"/>
<path d="M173.343 230.269V204.346C173.343 199.537 169.445 195.639 164.636 195.639C160.148 195.639 156.395 199.05 155.968 203.517L155.544 207.954L154.27 235.98V252.263L155.208 262.017C155.431 264.335 155.91 266.62 156.636 268.832L158.715 275.164C158.964 275.922 159.091 276.715 159.091 277.513V279.589C159.091 282.601 161.533 285.043 164.544 285.043C167.556 285.043 169.998 282.601 169.998 279.589V277.149C169.998 276.59 170.057 276.033 170.175 275.487L171.214 270.663L172.295 261.353L173.343 249.394V230.269Z" fill="#81584A"/>
<path d="M166.09 330.607H161.291C158.523 330.607 156.279 334.036 156.279 338.265C156.279 342.494 158.523 345.922 161.291 345.922H166.09C168.858 345.922 171.102 342.494 171.102 338.265C171.102 334.036 168.858 330.607 166.09 330.607Z" fill="#9D6B5A"/>
<path d="M169.442 337.535H157.939C157.022 337.535 156.279 338.67 156.279 340.071V343.387C156.279 344.788 157.022 345.923 157.939 345.923H169.442C170.359 345.923 171.102 344.788 171.102 343.387V340.071C171.102 338.67 170.359 337.535 169.442 337.535Z" fill="#9D6B5A"/>
<path d="M195.63 156.547C195.63 136.978 188.882 133.571 174.53 133.571C160.179 133.571 154.295 136.978 154.295 156.547L154.295 177.589L174.53 230.038L192.881 197.293L195.63 177.589V156.547Z" fill="#81584A"/>
<path d="M211.725 120.202H136.48C128.335 120.202 121.732 124.879 121.732 130.648C121.732 136.418 128.335 141.094 136.48 141.094H211.725C219.87 141.094 226.473 136.418 226.473 130.648C226.473 124.879 219.87 120.202 211.725 120.202Z" fill="#906253"/>
<path d="M177.376 157.839H173.031C162.669 157.839 154.27 167.178 154.27 178.698V193.769C154.27 205.289 162.669 214.629 173.031 214.629H177.376C187.738 214.629 196.137 205.289 196.137 193.769V178.698C196.137 167.178 187.738 157.839 177.376 157.839Z" fill="#906253"/>
<path d="M187.849 119.236H161.717C154.975 119.236 149.51 125.911 149.51 134.145V143.13C149.51 151.363 154.975 158.038 161.717 158.038H187.849C194.591 158.038 200.056 151.363 200.056 143.13V134.145C200.056 125.911 194.591 119.236 187.849 119.236Z" fill="#906253"/>
<path d="M190.164 119.236H159.58C154.116 119.236 149.688 125.911 149.688 134.145V143.13C149.688 151.363 154.116 158.038 159.58 158.038H190.164C195.627 158.038 200.056 151.363 200.056 143.13V134.145C200.056 125.911 195.627 119.236 190.164 119.236Z" fill="#9D6B5A"/>
<path d="M177.337 153.493C177.337 152.23 176.132 151.205 174.646 151.205C173.16 151.205 171.955 152.23 171.955 153.493V157.931C171.955 159.195 173.16 160.22 174.646 160.22C176.132 160.22 177.337 159.195 177.337 157.931V153.493Z" fill="#81584A"/>
<path d="M189.599 141.095H183.418C181.642 141.095 180.203 143.031 180.203 145.419C180.203 147.808 181.642 149.744 183.418 149.744H189.599C191.374 149.744 192.813 147.808 192.813 145.419C192.813 143.031 191.374 141.095 189.599 141.095Z" fill="#AC7967"/>
<path d="M167.783 141.095H161.601C159.826 141.095 158.387 143.031 158.387 145.419C158.387 147.808 159.826 149.744 161.601 149.744H167.783C169.558 149.744 170.997 147.808 170.997 145.419C170.997 143.031 169.558 141.095 167.783 141.095Z" fill="#AC7967"/>
<path d="M185.18 103.149C185.18 93.1401 180.518 85.0264 174.767 85.0264C169.016 85.0264 164.354 93.1401 164.354 103.149V110.584C164.354 120.593 169.016 128.706 174.767 128.706C180.518 128.706 185.18 120.593 185.18 110.584V103.149Z" fill="#9D6B5A"/>
<path d="M157.419 150.375H154.98C154.007 150.375 153.219 151.354 153.219 152.562C153.219 153.77 154.007 154.749 154.98 154.749H157.419C158.392 154.749 159.18 153.77 159.18 152.562C159.18 151.354 158.392 150.375 157.419 150.375Z" fill="#81584A"/>
<path d="M177.289 85.0264H171.418C164.68 85.0264 159.217 90.4891 159.217 97.2277V102.233C159.217 108.972 164.68 114.435 171.418 114.435H177.289C184.027 114.435 189.49 108.972 189.49 102.233V97.2277C189.49 90.4891 184.027 85.0264 177.289 85.0264Z" fill="#81584A"/>
<path d="M136.012 120.064H133.825C127.987 120.064 123.254 124.035 123.254 128.933C123.254 133.831 127.987 137.801 133.825 137.801H136.012C141.85 137.801 146.583 133.831 146.583 128.933C146.583 124.035 141.85 120.064 136.012 120.064Z" fill="#9D6B5A"/>
<path d="M215.225 122.766H212.898C206.685 122.766 201.648 125.733 201.648 129.394C201.648 133.054 206.685 136.022 212.898 136.022H215.225C221.438 136.022 226.474 133.054 226.474 129.394C226.474 125.733 221.438 122.766 215.225 122.766Z" fill="#9D6B5A"/>
<path d="M135.862 122.216H132.581C130.77 122.216 129.301 123.448 129.301 124.968C129.301 126.488 130.77 127.72 132.581 127.72H135.862C137.674 127.72 139.143 126.488 139.143 124.968C139.143 123.448 137.674 122.216 135.862 122.216Z" fill="#AC7967"/>
<path d="M219.457 122.432H215.966C214.038 122.432 212.475 123.664 212.475 125.184C212.475 126.704 214.038 127.936 215.966 127.936H219.457C221.385 127.936 222.948 126.704 222.948 125.184C222.948 123.664 221.385 122.432 219.457 122.432Z" fill="#AC7967"/>
<path d="M186.345 345.513C183.483 345.513 181.164 342.205 181.164 338.124V310.126C181.164 308.465 180.9 306.814 180.381 305.235C179.863 303.657 179.599 302.006 179.599 300.344V295.509C179.599 293.98 179.71 292.453 179.932 290.94L180.165 289.349C180.386 287.836 180.497 286.309 180.497 284.781V272.445L180.656 270.908C180.944 268.111 183.301 265.984 186.113 265.984C189.143 265.984 191.599 268.441 191.599 271.471L191.599 301.229L191.599 319.45L192.734 338.124C192.734 342.205 190.415 345.513 187.553 345.513H186.345Z" fill="#906253"/>
<path d="M177.126 229.942V204.474C177.126 199.595 181.082 195.639 185.962 195.639C190.509 195.639 194.313 199.089 194.756 203.614L195.169 207.838L196.461 235.599V251.727L195.52 261.283C195.287 263.649 194.787 265.981 194.03 268.235L191.961 274.393C191.704 275.157 191.574 275.956 191.574 276.761V278.669C191.574 281.722 189.099 284.197 186.046 284.197C182.992 284.197 180.517 281.722 180.517 278.669V276.395C180.517 275.831 180.456 275.268 180.335 274.716L179.285 269.953L178.189 260.732L177.126 248.886V229.942Z" fill="#81584A"/>
<path d="M185.014 330.251H189.879C192.685 330.251 194.959 333.667 194.959 337.882C194.959 342.096 192.685 345.513 189.879 345.513H185.014C182.208 345.513 179.934 342.096 179.934 337.882C179.934 333.667 182.208 330.251 185.014 330.251Z" fill="#9D6B5A"/>
<path d="M181.616 333.394H193.277C194.206 333.394 194.959 335.034 194.959 337.058V341.849C194.959 343.873 194.206 345.513 193.277 345.513H181.616C180.687 345.513 179.934 343.873 179.934 341.849V337.058C179.934 335.034 180.687 333.394 181.616 333.394Z" fill="#9D6B5A"/>
<path d="M191.943 73.5908H157.622C153.699 73.5908 150.518 77.6298 150.518 82.6121C150.518 87.5944 153.699 91.6333 157.622 91.6333H191.943C195.866 91.6333 199.047 87.5944 199.047 82.6121C199.047 77.6298 195.866 73.5908 191.943 73.5908Z" fill="#9D6B5A"/>
<path d="M192.045 75.8857H156.142C153.036 75.8857 150.518 78.8978 150.518 82.6135C150.518 86.3291 153.036 89.3412 156.142 89.3412H192.045C195.152 89.3412 197.67 86.3291 197.67 82.6135C197.67 78.8978 195.152 75.8857 192.045 75.8857Z" fill="#81584A"/>
<path d="M181.028 48.2354H171.405C163.431 48.2354 156.967 56.7162 156.967 67.178V89.6257C156.967 100.087 163.431 108.568 171.405 108.568H181.028C189.002 108.568 195.466 100.087 195.466 89.6257V67.178C195.466 56.7162 189.002 48.2354 181.028 48.2354Z" fill="#9D6B5A"/>
<path d="M181.491 106.078H170.854C169.704 106.078 168.771 107.112 168.771 108.388C168.771 109.664 169.704 110.698 170.854 110.698H181.491C182.641 110.698 183.574 109.664 183.574 108.388C183.574 107.112 182.641 106.078 181.491 106.078Z" fill="#9D6B5A"/>
<path d="M170.785 168.847H165.96C163.659 168.847 161.793 170.522 161.793 172.589C161.793 174.656 163.659 176.331 165.96 176.331H170.785C173.087 176.331 174.952 174.656 174.952 172.589C174.952 170.522 173.087 168.847 170.785 168.847Z" fill="#9D6B5A"/>
<path d="M170.785 177.671H165.96C163.659 177.671 161.793 179.346 161.793 181.413C161.793 183.48 163.659 185.156 165.96 185.156H170.785C173.087 185.156 174.952 183.48 174.952 181.413C174.952 179.346 173.087 177.671 170.785 177.671Z" fill="#9D6B5A"/>
<path d="M170.785 186.495H165.96C163.659 186.495 161.793 188.171 161.793 190.237C161.793 192.304 163.659 193.98 165.96 193.98H170.785C173.087 193.98 174.952 192.304 174.952 190.237C174.952 188.171 173.087 186.495 170.785 186.495Z" fill="#9D6B5A"/>
<path d="M185.523 168.847H180.698C178.397 168.847 176.531 170.522 176.531 172.589C176.531 174.656 178.397 176.331 180.698 176.331H185.523C187.825 176.331 189.691 174.656 189.691 172.589C189.691 170.522 187.825 168.847 185.523 168.847Z" fill="#9D6B5A"/>
<path d="M185.523 177.671H180.698C178.397 177.671 176.531 179.346 176.531 181.413C176.531 183.48 178.397 185.156 180.698 185.156H185.523C187.825 185.156 189.691 183.48 189.691 181.413C189.691 179.346 187.825 177.671 185.523 177.671Z" fill="#9D6B5A"/>
<path d="M185.523 186.495H180.698C178.397 186.495 176.531 188.171 176.531 190.237C176.531 192.304 178.397 193.98 180.698 193.98H185.523C187.825 193.98 189.691 192.304 189.691 190.237C189.691 188.171 187.825 186.495 185.523 186.495Z" fill="#9D6B5A"/>
<path d="M168.951 124.226L160.688 120.254C159.769 119.812 158.665 120.199 158.223 121.119C157.781 122.038 158.168 123.142 159.088 123.584L167.35 127.556C168.269 127.998 169.373 127.611 169.815 126.691C170.257 125.772 169.87 124.668 168.951 124.226Z" fill="#81584A"/>
<path d="M178.792 124.226L187.054 120.254C187.973 119.812 189.077 120.199 189.519 121.119C189.961 122.038 189.574 123.142 188.655 123.584L180.392 127.556C179.473 127.998 178.369 127.611 177.927 126.691C177.485 125.772 177.872 124.668 178.792 124.226Z" fill="#81584A"/>
<path d="M158.161 199.141C157.07 199.141 156.017 199.385 155.021 199.832C156.188 217.632 164.977 231.382 175.72 231.382C186.602 231.382 195.48 217.274 196.46 199.141C196.459 199.141 196.458 199.141 196.457 199.141H158.161Z" fill="#4F4F4F"/>
<path d="M194.967 197.176H156.541C155.702 197.176 155.021 198.255 155.021 199.587V203.321C155.021 204.652 155.702 205.732 156.541 205.732H194.967C195.806 205.732 196.486 204.652 196.486 203.321V199.587C196.486 198.255 195.806 197.176 194.967 197.176Z" fill="#5B5B5B"/>
<path d="M195.63 156.547C195.63 136.978 188.882 133.571 174.53 133.571C160.179 133.571 154.295 136.978 154.295 156.547L154.295 177.589L174.53 230.038L192.881 197.293L195.63 177.589V156.547Z" fill="#81584A"/>
<path d="M211.727 120.203H136.482C128.337 120.203 121.734 124.88 121.734 130.649C121.734 136.419 128.337 141.095 136.482 141.095H211.727C219.872 141.095 226.475 136.419 226.475 130.649C226.475 124.88 219.872 120.203 211.727 120.203Z" fill="#906253"/>
<path d="M200.058 139.253C200.058 127.673 188.782 118.286 174.874 118.286C160.965 118.286 149.689 127.673 149.689 139.253C149.689 150.832 160.965 160.219 174.874 160.219C188.782 160.219 200.058 150.832 200.058 139.253Z" fill="#81584A"/>
<path d="M177.376 157.839H173.031C162.669 157.839 154.27 167.178 154.27 178.698V193.769C154.27 205.289 162.669 214.629 173.031 214.629H177.376C187.738 214.629 196.137 205.289 196.137 193.769V178.698C196.137 167.178 187.738 157.839 177.376 157.839Z" fill="#906253"/>
<path d="M188.075 119.236H162.425C155.808 119.236 150.443 125.911 150.443 134.145V143.13C150.443 151.363 155.808 158.038 162.425 158.038H188.075C194.692 158.038 200.057 151.363 200.057 143.13V134.145C200.057 125.911 194.692 119.236 188.075 119.236Z" fill="#906253"/>
<path d="M192.564 119.236H157.474C151.206 119.236 149.51 125.911 149.51 134.145C149.51 142.378 151.206 158.038 157.474 158.038H192.564C198.833 158.038 200.056 146.076 200.056 134.145C200.056 134.145 198.833 119.236 192.564 119.236Z" fill="#9D6B5A"/>
<path d="M177.339 151.005C177.339 149.741 176.134 148.717 174.648 148.717C173.162 148.717 171.957 149.741 171.957 151.005V155.443C171.957 156.707 173.162 157.731 174.648 157.731C176.134 157.731 177.339 156.707 177.339 155.443V151.005Z" fill="#81584A"/>
<path d="M189.603 141.096H183.421C181.646 141.096 180.207 142.461 180.207 144.145C180.207 145.828 181.646 147.194 183.421 147.194H189.603C191.378 147.194 192.817 145.828 192.817 144.145C192.817 142.461 191.378 141.096 189.603 141.096Z" fill="#AC7967"/>
<path d="M167.784 141.096H161.603C159.828 141.096 158.389 142.461 158.389 144.145C158.389 145.828 159.828 147.194 161.603 147.194H167.784C169.56 147.194 170.999 145.828 170.999 144.145C170.999 142.461 169.56 141.096 167.784 141.096Z" fill="#AC7967"/>
<path d="M185.711 103.149C185.711 93.1401 180.811 85.0264 174.767 85.0264C168.722 85.0264 163.822 93.1401 163.822 103.149V110.584C163.822 120.593 168.722 128.706 174.767 128.706C180.811 128.706 185.711 120.593 185.711 110.584V103.149Z" fill="#9D6B5A"/>
<path d="M158.73 150.375H156.578C155.719 150.375 155.023 151.354 155.023 152.562C155.023 153.77 155.719 154.749 156.578 154.749H158.73C159.589 154.749 160.285 153.77 160.285 152.562C160.285 151.354 159.589 150.375 158.73 150.375Z" fill="#81584A"/>
<path d="M193.914 150.375H191.761C190.903 150.375 190.207 151.354 190.207 152.562C190.207 153.77 190.903 154.749 191.761 154.749H193.914C194.772 154.749 195.468 153.77 195.468 152.562C195.468 151.354 194.772 150.375 193.914 150.375Z" fill="#81584A"/>
<path d="M177.289 85.0264H171.418C164.68 85.0264 159.217 90.4891 159.217 97.2277V102.233C159.217 108.972 164.68 114.435 171.418 114.435H177.289C184.027 114.435 189.49 108.972 189.49 102.233V97.2277C189.49 90.4891 184.027 85.0264 177.289 85.0264Z" fill="#81584A"/>
<path d="M143.477 120.065H141.29C135.452 120.065 130.719 124.036 130.719 128.934C130.719 133.832 135.452 137.802 141.29 137.802H143.477C149.315 137.802 154.048 133.832 154.048 128.934C154.048 124.036 149.315 120.065 143.477 120.065Z" fill="#9D6B5A"/>
<path d="M205.365 120.059H207.552C213.39 120.059 218.123 124.029 218.123 128.927C218.123 133.825 213.39 137.795 207.552 137.795H205.365C199.527 137.795 194.794 133.825 194.794 128.927C194.794 124.029 199.527 120.059 205.365 120.059Z" fill="#9D6B5A"/>
<path d="M138.35 123.046H135.07C133.258 123.046 131.789 124.278 131.789 125.798C131.789 127.318 133.258 128.55 135.07 128.55H138.35C140.162 128.55 141.631 127.318 141.631 125.798C141.631 124.278 140.162 123.046 138.35 123.046Z" fill="#AC7967"/>
<path d="M210.491 123.039H213.772C215.584 123.039 217.053 124.271 217.053 125.791C217.053 127.311 215.584 128.544 213.772 128.544H210.491C208.679 128.544 207.211 127.311 207.211 125.791C207.211 124.271 208.679 123.039 210.491 123.039Z" fill="#AC7967"/>
<path d="M190.766 73.5908H157.421C153.608 73.5908 150.518 77.7011 150.518 82.7715C150.518 87.8418 153.608 91.9521 157.421 91.9521H190.766C194.579 91.9521 197.67 87.8418 197.67 82.7715C197.67 77.7011 194.579 73.5908 190.766 73.5908Z" fill="#9D6B5A"/>
<path d="M190.57 75.8857H158.278C155.484 75.8857 153.219 78.8978 153.219 82.6135C153.219 86.3291 155.484 89.3412 158.278 89.3412H190.57C193.364 89.3412 195.629 86.3291 195.629 82.6135C195.629 78.8978 193.364 75.8857 190.57 75.8857Z" fill="#81584A"/>
<path d="M178.623 48.2354H169.184C161.364 48.2354 155.023 56.7162 155.023 67.178V89.6257C155.023 100.087 161.364 108.568 169.184 108.568H178.623C186.444 108.568 192.784 100.087 192.784 89.6257V67.178C192.784 56.7162 186.444 48.2354 178.623 48.2354Z" fill="#9D6B5A"/>
<path d="M181.223 106.078H169.994C168.779 106.078 167.795 107.112 167.795 108.388C167.795 109.664 168.779 110.698 169.994 110.698H181.223C182.437 110.698 183.421 109.664 183.421 108.388C183.421 107.112 182.437 106.078 181.223 106.078Z" fill="#9D6B5A"/>
<path d="M171.209 126.715L165.349 122.744C164.697 122.302 163.914 122.689 163.6 123.608C163.287 124.528 163.561 125.631 164.214 126.073L170.074 130.045C170.726 130.487 171.509 130.1 171.822 129.18C172.136 128.261 171.861 127.157 171.209 126.715Z" fill="#81584A"/>
<path d="M178.189 126.715L184.05 122.744C184.702 122.302 185.485 122.689 185.798 123.608C186.112 124.528 185.837 125.631 185.185 126.073L179.324 130.045C178.672 130.487 177.889 130.1 177.576 129.18C177.262 128.261 177.537 127.157 178.189 126.715Z" fill="#81584A"/>
<path d="M158.163 199.141C157.072 199.141 156.019 199.385 155.023 199.832C156.19 217.632 164.979 231.382 175.722 231.382C186.604 231.382 195.482 217.274 196.462 199.141C196.461 199.141 196.46 199.141 196.459 199.141H158.163Z" fill="#4F4F4F"/>
<path d="M194.969 197.177H156.543C155.704 197.177 155.023 198.256 155.023 199.588V203.322C155.023 204.653 155.704 205.733 156.543 205.733H194.969C195.808 205.733 196.488 204.653 196.488 203.322V199.588C196.488 198.256 195.808 197.177 194.969 197.177Z" fill="#5B5B5B"/>
<path d="M175.325 104.012H172.879C172.684 104.012 172.525 104.245 172.525 104.533V104.84C172.525 105.128 172.684 105.361 172.879 105.361H175.325C175.521 105.361 175.679 105.128 175.679 104.84V104.533C175.679 104.245 175.521 104.012 175.325 104.012Z" fill="#81584A"/>
<path d="M177.179 81.2405C177.179 79.09 175.995 77.3467 174.534 77.3467C173.073 77.3467 171.889 79.09 171.889 81.2405V88.1119C171.889 90.2624 173.073 92.0057 174.534 92.0057C175.995 92.0057 177.179 90.2624 177.179 88.1119V81.2405Z" fill="#81584A"/>
<path d="M168.067 77.4124C168.067 76.0666 167.325 74.9756 166.411 74.9756C165.497 74.9756 164.756 76.0666 164.756 77.4124V78.3872C164.756 79.733 165.497 80.824 166.411 80.824C167.325 80.824 168.067 79.733 168.067 78.3872V77.4124Z" fill="#61534B"/>
<path d="M184.119 77.4124C184.119 76.0666 183.378 74.9756 182.464 74.9756C181.55 74.9756 180.809 76.0666 180.809 77.4124V78.3872C180.809 79.733 181.55 80.824 182.464 80.824C183.378 80.824 184.119 79.733 184.119 78.3872V77.4124Z" fill="#61534B"/>
<path d="M177.5 101.304C179.936 101.304 181.898 98.2204 181.898 94.3887V93.2695H167.088V94.3887C167.088 98.2204 169.049 101.304 171.486 101.304H177.5Z" fill="white"/>
<path d="M174.18 89.0657L171.72 85.9888C171.314 85.4805 170.704 85.5533 170.359 86.1516C170.014 86.7499 170.063 87.647 170.47 88.1553L172.93 91.2322C173.336 91.7406 173.945 91.6677 174.291 91.0694C174.636 90.4712 174.586 89.5741 174.18 89.0657Z" fill="#81584A"/>
<path d="M174.884 89.0657L177.344 85.9888C177.751 85.4805 178.36 85.5533 178.705 86.1516C179.051 86.7499 179.001 87.647 178.595 88.1553L176.135 91.2322C175.728 91.7406 175.119 91.6677 174.774 91.0694C174.428 90.4711 174.478 89.5741 174.884 89.0657Z" fill="#81584A"/>
<path d="M176.066 87.088C176.066 86.0562 175.497 85.2197 174.796 85.2197C174.096 85.2197 173.527 86.0562 173.527 87.088V88.7938C173.527 89.8256 174.096 90.662 174.796 90.662C175.497 90.662 176.066 89.8256 176.066 88.7938V87.088Z" fill="#906253"/>
<path d="M169.102 75.1122L163.833 73.0209C163.262 72.7941 162.74 73.1032 162.668 73.7111C162.596 74.319 163.001 74.9957 163.572 75.2224L168.842 77.3137C169.413 77.5404 169.934 77.2314 170.006 76.6234C170.078 76.0155 169.674 75.3389 169.102 75.1122Z" fill="#4D4D4D"/>
<path d="M163.918 74.6919C163.964 74.2424 163.701 73.7429 163.332 73.5762C162.962 73.4095 162.625 73.6388 162.578 74.0883L162.387 75.9523C162.341 76.4018 162.603 76.9013 162.973 77.068C163.343 77.2347 163.68 77.0054 163.726 76.5559L163.918 74.6919Z" fill="#4D4D4D"/>
<path d="M179.645 75.1098L184.915 73.0197C185.486 72.7931 186.008 73.1022 186.08 73.7101C186.152 74.318 185.747 74.9945 185.175 75.2211L179.906 77.3112C179.335 77.5378 178.813 77.2287 178.741 76.6207C178.669 76.0128 179.074 75.3363 179.645 75.1098Z" fill="#4D4D4D"/>
<path d="M184.83 74.6909C184.784 74.2414 185.047 73.7419 185.416 73.5752C185.786 73.4086 186.123 73.6378 186.17 74.0873L186.361 75.9514C186.407 76.4008 186.145 76.9004 185.775 77.067C185.405 77.2337 185.068 77.0045 185.022 76.555L184.83 74.6909Z" fill="#4D4D4D"/>
<path d="M172.834 74.1401C172.834 73.5374 172.502 73.0488 172.093 73.0488C171.683 73.0488 171.352 73.5374 171.352 74.1401V75.4612C171.352 76.0639 171.683 76.5525 172.093 76.5525C172.502 76.5525 172.834 76.0639 172.834 75.4612V74.1401Z" fill="#81584A"/>
<path d="M177.752 74.1401C177.752 73.5374 177.42 73.0488 177.011 73.0488C176.601 73.0488 176.27 73.5374 176.27 74.1401V75.4612C176.27 76.0639 176.601 76.5525 177.011 76.5525C177.42 76.5525 177.752 76.0639 177.752 75.4612V74.1401Z" fill="#81584A"/>
<path d="M176.066 87.0851C176.066 86.0532 175.497 85.2168 174.796 85.2168C174.096 85.2168 173.527 86.0532 173.527 87.0851V88.7909C173.527 89.8227 174.096 90.6591 174.796 90.6591C175.497 90.6591 176.066 89.8227 176.066 88.7909V87.0851Z" fill="#906253"/>
<path d="M168.938 74.6512L163.662 73.5991C163.091 73.485 162.641 73.8404 162.659 74.3928C162.677 74.9453 163.155 75.4856 163.727 75.5996L169.002 76.6518C169.574 76.7658 170.023 76.4105 170.005 75.858C169.988 75.3056 169.51 74.7653 168.938 74.6512Z" fill="#4D4D4D"/>
<path d="M163.789 75.2388C163.777 74.7812 163.495 74.3361 163.158 74.2447C162.82 74.1532 162.556 74.45 162.568 74.9076L162.615 76.8051C162.627 77.2627 162.909 77.7077 163.246 77.7992C163.584 77.8906 163.848 77.5938 163.836 77.1363L163.789 75.2388Z" fill="#4D4D4D"/>
<path d="M179.955 74.2506L185.103 73.5693C185.661 73.4954 186.064 73.9735 186.002 74.6371C185.941 75.3007 185.439 75.8986 184.881 75.9724L179.732 76.6537C179.174 76.7276 178.772 76.2495 178.833 75.5859C178.894 74.9223 179.396 74.3244 179.955 74.2506Z" fill="#4D4D4D"/>
<path d="M185.047 75.4293C185.079 74.9555 185.337 74.5294 185.623 74.4776C185.909 74.4258 186.115 74.7679 186.083 75.2416L185.951 77.2064C185.919 77.6801 185.662 78.1062 185.376 78.158C185.089 78.2099 184.883 77.8678 184.915 77.394L185.047 75.4293Z" fill="#4D4D4D"/>
<path d="M195.676 71.4424C195.602 71.4345 195.528 71.4343 195.452 71.4433C195.366 71.4534 195.279 71.475 195.193 71.5085L195.015 71.5771C194.441 71.7999 194.082 72.4843 194.095 73.2212C194.039 73.1181 193.972 73.0282 193.902 72.9451V75.2283C196.388 76.5596 198.128 79.7197 198.128 83.4251C198.128 87.1502 196.369 90.3232 193.861 91.6419C193.79 92.9724 193.608 94.2614 193.333 95.499V96.7757C193.27 96.6441 193.194 96.524 193.11 96.4143C191.86 101.113 189.203 104.949 185.782 107.09V109.955C185.782 111.107 186.5 112.034 187.391 112.034H188.134C189.025 112.034 189.743 111.107 189.743 109.955V109.395C189.985 110.148 190.557 110.674 191.229 110.674H191.972C192.863 110.674 193.581 109.747 193.581 108.594V107.936C193.865 108.523 194.365 108.915 194.943 108.915C195.834 108.915 196.552 107.987 196.552 106.835V95.1526L196.883 96.5757C197.09 97.467 197.812 97.9696 198.502 97.7019C199.192 97.4342 199.58 96.5006 199.373 95.6094L197.607 88.0142C197.933 88.4867 198.449 88.7024 198.95 88.5078L199.128 88.4384C199.818 88.1707 200.206 87.238 199.999 86.3467L196.812 72.6338C196.653 71.9515 196.193 71.4977 195.676 71.4424ZM153.835 71.5553C153.319 71.6106 152.858 72.0644 152.7 72.7468L149.513 86.4596C149.306 87.3509 149.694 88.2836 150.383 88.5513L150.562 88.6207C151.063 88.8153 151.579 88.5996 151.904 88.1271L150.139 95.7223C149.932 96.6136 150.32 97.5471 151.01 97.8148C151.699 98.0825 152.422 97.5808 152.629 96.6895L152.695 96.4025V106.835C152.695 107.987 153.413 108.915 154.304 108.915C154.881 108.915 155.382 108.523 155.666 107.936V108.594C155.666 109.747 156.384 110.674 157.275 110.674H158.018C158.689 110.674 159.261 110.149 159.503 109.398V109.955C159.503 111.107 160.221 112.034 161.113 112.034H161.855C162.747 112.034 163.465 111.107 163.465 109.955V107.015C160.075 104.843 157.451 100.999 156.228 96.3063C156.106 96.4424 155.999 96.5987 155.914 96.7757V94.9308C155.706 93.8681 155.565 92.7699 155.504 91.6419C152.997 90.3231 151.238 87.1501 151.238 83.4251C151.238 79.7197 152.978 76.5596 155.464 75.2283V73.2596C155.449 73.2849 155.431 73.3076 155.417 73.3341C155.43 72.5975 155.07 71.9128 154.496 71.69L154.319 71.6214C154.233 71.588 154.146 71.5663 154.059 71.5562C153.984 71.5473 153.909 71.5475 153.835 71.5553Z" fill="#4D4D4D"/>
<path d="M159.45 56.0781C156.728 59.4205 155.023 64.2508 155.023 69.6404V91.3208C155.023 101.456 161.052 109.616 168.54 109.616H180.403C187.891 109.616 193.92 101.456 193.92 91.3208V69.6404C193.92 64.2508 192.215 59.4205 189.493 56.0781C191.567 59.3379 192.822 63.5838 192.822 68.2432V90.3185C192.822 100.639 186.683 108.947 179.059 108.947H169.885C162.261 108.947 156.122 100.639 156.122 90.3185V68.2432C156.122 63.5838 157.376 59.3379 159.45 56.0781Z" fill="#565656"/>
<path d="M167.449 109.407C167.449 108.438 166.889 107.653 166.198 107.653C165.507 107.653 164.947 108.438 164.947 109.407V111.443C164.947 112.411 165.507 113.196 166.198 113.196C166.889 113.196 167.449 112.411 167.449 111.443V109.407Z" fill="#565656"/>
<path d="M169.788 111.004C169.788 110.036 169.228 109.251 168.538 109.251C167.847 109.251 167.287 110.036 167.287 111.004V113.041C167.287 114.009 167.847 114.794 168.538 114.794C169.228 114.794 169.788 114.009 169.788 113.041V111.004Z" fill="#565656"/>
<path d="M172.101 111.886C172.101 110.918 171.541 110.133 170.85 110.133C170.16 110.133 169.6 110.918 169.6 111.886V113.922C169.6 114.891 170.16 115.676 170.85 115.676C171.541 115.676 172.101 114.891 172.101 113.922V111.886Z" fill="#565656"/>
<path d="M174.382 112.085C174.382 111.117 173.822 110.332 173.132 110.332C172.441 110.332 171.881 111.117 171.881 112.085V114.122C171.881 115.09 172.441 115.875 173.132 115.875C173.822 115.875 174.382 115.09 174.382 114.122V112.085Z" fill="#565656"/>
<path d="M165.345 105.892C165.345 104.736 164.677 103.799 163.852 103.799C163.028 103.799 162.359 104.736 162.359 105.892V108.322C162.359 109.478 163.028 110.415 163.852 110.415C164.677 110.415 165.345 109.478 165.345 108.322V105.892Z" fill="#565656"/>
<path d="M162.763 103.744C162.763 102.588 162.094 101.651 161.27 101.651C160.446 101.651 159.777 102.588 159.777 103.744V106.174C159.777 107.33 160.446 108.267 161.27 108.267C162.094 108.267 162.763 107.33 162.763 106.174V103.744Z" fill="#565656"/>
<path d="M160.585 101.142C160.585 99.9858 159.917 99.0488 159.092 99.0488C158.268 99.0488 157.6 99.9858 157.6 101.142V103.572C157.6 104.728 158.268 105.665 159.092 105.665C159.917 105.665 160.585 104.728 160.585 103.572V101.142Z" fill="#565656"/>
<path d="M181.126 109.407C181.126 108.438 181.686 107.653 182.376 107.653C183.067 107.653 183.627 108.438 183.627 109.407V111.443C183.627 112.411 183.067 113.196 182.376 113.196C181.686 113.196 181.126 112.411 181.126 111.443V109.407Z" fill="#565656"/>
<path d="M178.784 111.004C178.784 110.036 179.344 109.251 180.034 109.251C180.725 109.251 181.285 110.036 181.285 111.004V113.041C181.285 114.009 180.725 114.794 180.034 114.794C179.344 114.794 178.784 114.009 178.784 113.041V111.004Z" fill="#565656"/>
<path d="M176.473 111.886C176.473 110.918 177.033 110.133 177.724 110.133C178.415 110.133 178.975 110.918 178.975 111.886V113.922C178.975 114.891 178.415 115.676 177.724 115.676C177.033 115.676 176.473 114.891 176.473 113.922V111.886Z" fill="#565656"/>
<path d="M174.192 112.085C174.192 111.117 174.752 110.332 175.443 110.332C176.133 110.332 176.693 111.117 176.693 112.085V114.122C176.693 115.09 176.133 115.875 175.443 115.875C174.752 115.875 174.192 115.09 174.192 114.122V112.085Z" fill="#565656"/>
<path d="M183.229 105.892C183.229 104.736 183.898 103.799 184.722 103.799C185.547 103.799 186.215 104.736 186.215 105.892V108.322C186.215 109.478 185.547 110.415 184.722 110.415C183.898 110.415 183.229 109.478 183.229 108.322V105.892Z" fill="#565656"/>
<path d="M185.811 103.745C185.811 102.589 186.48 101.652 187.304 101.652C188.129 101.652 188.797 102.589 188.797 103.745V106.175C188.797 107.331 188.129 108.268 187.304 108.268C186.48 108.268 185.811 107.331 185.811 106.175V103.745Z" fill="#565656"/>
<path d="M187.989 101.142C187.989 99.9858 188.657 99.0488 189.482 99.0488C190.306 99.0488 190.975 99.9858 190.975 101.142V103.572C190.975 104.728 190.306 105.665 189.482 105.665C188.657 105.665 187.989 104.728 187.989 103.572V101.142Z" fill="#565656"/>
<path d="M168.631 88.7725C165.713 88.7725 163.363 92.0662 163.363 96.1577V104.797C163.363 108.889 165.713 112.182 168.631 112.182H179.934C182.852 112.182 185.202 108.889 185.202 104.797V96.1577C185.202 92.0662 182.852 88.7725 179.934 88.7725H178.828C178.867 89.2225 178.749 89.6897 178.483 90.0065L178.036 90.5387C178.301 90.8872 178.498 91.3366 178.584 91.8514H180.117C181.749 91.8514 183.062 93.6925 183.062 95.9803V99.6951C183.062 100.563 182.873 101.366 182.549 102.029V103.048C182.549 106.314 180.674 108.944 178.344 108.944H170.221C167.891 108.944 166.016 106.314 166.016 103.048V102.029C165.692 101.366 165.503 100.563 165.503 99.6951V95.9803C165.503 93.6925 166.816 91.8514 168.448 91.8514H169.412C169.528 91.1586 169.839 90.5778 170.258 90.2165L170.082 90.0065C169.816 89.6897 169.698 89.2225 169.737 88.7725H168.631Z" fill="#565656"/>
<path d="M165.874 48.5918C158.754 48.5918 153.021 56.1656 153.021 65.5735C153.021 66.0154 153.038 66.4514 153.063 66.8846C153.039 67.1062 153.021 67.3313 153.021 67.5623V77.9653C153.021 80.1977 154.216 82.0474 155.81 82.4657V68.89C155.81 59.172 161.731 51.3478 169.086 51.3478H179.472C186.827 51.3478 192.748 59.172 192.748 68.89V82.4841C194.387 82.1137 195.629 80.2402 195.629 77.9653V67.5623C195.629 67.3313 195.612 67.1062 195.587 66.8846C195.612 66.4514 195.629 66.0154 195.629 65.5735C195.629 56.1656 189.897 48.5918 182.777 48.5918H165.874Z" fill="#4D4D4D"/>
<path d="M180.459 46.4502H168.881C164.98 46.4502 161.818 50.6284 161.818 55.7826C161.818 60.9367 164.98 65.1149 168.881 65.1149H180.459C184.36 65.1149 187.522 60.9367 187.522 55.7826C187.522 50.6284 184.36 46.4502 180.459 46.4502Z" fill="#4D4D4D"/>
<path d="M165.758 52.3793C165.758 50.9218 164.864 49.7402 163.761 49.7402C162.658 49.7402 161.764 50.9218 161.764 52.3793V58.4989C161.764 59.9564 162.658 61.138 163.761 61.138C164.864 61.138 165.758 59.9564 165.758 58.4989V52.3793Z" fill="#4D4D4D"/>
<path d="M188.45 52.6088C188.45 51.1513 187.555 49.9697 186.452 49.9697C185.349 49.9697 184.455 51.1513 184.455 52.6088V58.7284C184.455 60.1859 185.349 61.3674 186.452 61.3674C187.555 61.3674 188.45 60.1859 188.45 58.7284V52.6088Z" fill="#4D4D4D"/>
<path d="M161.003 55.3954C160.898 54.4336 160.224 53.7659 159.496 53.9041C158.768 54.0423 158.263 54.934 158.367 55.8958L158.705 59.0002C158.809 59.962 159.484 60.6297 160.212 60.4915C160.94 60.3534 161.445 59.4617 161.34 58.4999L161.003 55.3954Z" fill="#4D4D4D"/>
<path d="M189.241 56.1523C189.346 55.1905 190.021 54.5228 190.748 54.661C191.476 54.7991 191.982 55.6908 191.877 56.6526L191.54 59.7571C191.435 60.7189 190.76 61.3865 190.032 61.2484C189.304 61.1102 188.799 60.2185 188.904 59.2567L189.241 56.1523Z" fill="#4D4D4D"/>
<path d="M173.283 51.085H174.53C175.265 51.085 175.861 51.8727 175.861 52.8443V59.2699C175.861 60.2416 175.265 61.0293 174.53 61.0293H173.283C172.548 61.0293 171.952 60.2416 171.952 59.2699V52.8443C171.952 51.8727 172.548 51.085 173.283 51.085Z" fill="#565656"/>
<path d="M167.904 51.2754H169.55C170.125 51.2754 170.592 51.8919 170.592 52.6523V59.4603C170.592 60.2208 170.125 60.8372 169.55 60.8372H167.904C167.328 60.8372 166.862 60.2208 166.862 59.4603V52.6523C166.862 51.8919 167.328 51.2754 167.904 51.2754Z" fill="#565656"/>
<path d="M179.911 51.2754H178.265C177.689 51.2754 177.223 51.8919 177.223 52.6523V59.4603C177.223 60.2208 177.689 60.8372 178.265 60.8372H179.911C180.486 60.8372 180.953 60.2208 180.953 59.4603V52.6523C180.953 51.8919 180.486 51.2754 179.911 51.2754Z" fill="#565656"/>
</svg>
