<svg width="351" height="351" viewBox="0 0 351 351" fill="none" xmlns="http://www.w3.org/2000/svg">
<circle cx="175.523" cy="175.079" r="173.197" stroke="black" stroke-width="3.60643"/>
<rect x="26.7446" y="51.228" width="295.472" height="295.472" stroke="black" stroke-width="3.60643"/>
<path d="M148.223 131.902L148.229 131.864C148.647 129.432 144.019 127.378 137.894 127.277L126.725 126.173L114.433 125.502L103.23 125.08L91.9715 125.584C85.8463 125.482 80.4725 128.298 80.0554 130.73L80.0489 130.768C79.6318 133.199 80.8223 132.145 98.4739 134.369L105.244 136.184C108.651 137.097 112.288 137.359 115.989 136.959L116.495 136.904L136.377 136.12C142.502 136.222 147.806 134.333 148.223 131.902Z" fill="#81584A"/>
<path d="M108.213 131.991C110.582 132.01 112.644 131.222 112.82 130.231C112.995 129.24 111.216 128.422 108.847 128.403L105.728 128.379C103.359 128.36 101.296 129.149 101.121 130.139C100.946 131.13 102.725 131.949 105.094 131.967L108.213 131.991Z" fill="#906253"/>
<path d="M97.4463 135.583C103.369 136.12 116.902 135.364 117.206 132.935C117.51 130.506 112.954 128.101 107.031 127.563L62.5555 123.524C56.6325 122.987 51.5847 124.52 51.2811 126.949L51.2764 126.987C50.9727 129.416 55.5282 131.821 61.4512 132.359L97.4463 135.583Z" fill="#81584A"/>
<path d="M69.3815 130.62L69.5041 129.005C69.7391 125.91 64.3572 122.893 57.4831 122.267L51.3762 121.711C44.5022 121.084 38.7391 123.086 38.5041 126.182L38.3815 127.797C38.1464 130.892 43.5284 133.909 50.4024 134.535L56.5093 135.091C63.3834 135.717 69.1464 133.716 69.3815 130.62Z" fill="#906253"/>
<path d="M97.7448 135.883C105.166 136.543 111.362 134.76 111.586 131.902C111.809 129.043 105.975 126.191 98.5539 125.531L88.0026 124.593C80.5819 123.933 74.3852 125.715 74.1617 128.574C73.9383 131.432 79.7729 134.285 87.1936 134.944L97.7448 135.883Z" fill="#906253"/>
<path d="M100.647 135.523C102.005 135.635 103.14 135.335 103.181 134.852C103.222 134.368 102.155 133.885 100.797 133.773L91.8835 133.034C90.5255 132.922 89.3911 133.223 89.3497 133.706C89.3084 134.189 90.3757 134.672 91.7337 134.785L100.647 135.523Z" fill="#9D6B5A"/>
<path d="M51.971 130.362C56.3643 129.935 58.7231 127.504 57.2393 124.933C55.7556 122.362 50.9912 120.624 46.5978 121.051L34.5981 122.218C30.2047 122.645 27.846 125.076 29.3298 127.647C30.8135 130.218 35.5779 131.956 39.9713 131.529L51.971 130.362Z" fill="#906253"/>
<path d="M53.8909 135.534C56.932 135.802 59.482 134.948 59.5864 133.626C59.6908 132.303 57.31 131.014 54.2689 130.746L45.9625 130.013C42.9213 129.745 40.3714 130.599 40.267 131.921C40.1626 133.244 42.5433 134.533 45.5845 134.801L53.8909 135.534Z" fill="#9D6B5A"/>
<path d="M202.051 131.128L202.042 131.092C201.467 128.794 205.893 126.784 211.93 126.603L222.876 125.403L234.959 124.598L245.985 124.042L257.127 124.365C263.164 124.184 268.656 126.777 269.232 129.076L269.241 129.112C269.817 131.41 260.576 132.169 251.675 133.686L248.982 134.447C247.201 134.95 245.337 135.268 243.414 135.396L239.068 135.686L214.025 134.962C207.988 135.143 202.627 133.427 202.051 131.128Z" fill="#81584A"/>
<path d="M241.644 130.663C239.323 130.703 237.249 129.974 237.011 129.034C236.773 128.095 238.462 127.3 240.783 127.26L243.839 127.208C246.16 127.167 248.234 127.897 248.472 128.836C248.71 129.776 247.021 130.57 244.7 130.61L241.644 130.663Z" fill="#906253"/>
<path d="M232.733 131.615L232.728 131.576C232.434 129.079 236.995 126.586 242.916 126.009L287.376 121.671C293.297 121.093 298.335 122.649 298.629 125.146L298.634 125.185C298.928 127.682 294.367 130.174 288.446 130.752L243.987 135.09C238.066 135.668 233.027 134.112 232.733 131.615Z" fill="#81584A"/>
<path d="M280.556 129.043L280.439 127.378C280.215 124.185 285.6 121.049 292.466 120.373L298.567 119.772C305.433 119.095 311.181 121.135 311.406 124.327L311.522 125.992C311.747 129.185 306.362 132.321 299.495 132.997L293.395 133.598C286.528 134.275 280.78 132.235 280.556 129.043Z" fill="#906253"/>
<path d="M252.167 134.526C244.752 135.238 238.568 133.429 238.355 130.484C238.142 127.539 243.98 124.575 251.395 123.863L261.938 122.85C269.353 122.137 275.537 123.947 275.75 126.892C275.963 129.836 270.125 132.801 262.71 133.513L252.167 134.526Z" fill="#906253"/>
<path d="M249.251 134.179C247.894 134.3 246.761 133.996 246.722 133.499C246.682 133.002 247.751 132.501 249.108 132.38L258.018 131.584C259.376 131.463 260.508 131.768 260.548 132.264C260.587 132.761 259.519 133.262 258.161 133.383L249.251 134.179Z" fill="#9D6B5A"/>
<path d="M297.948 128.754C293.557 128.333 291.205 125.817 292.695 123.134C294.186 120.452 298.955 118.619 303.347 119.04L315.342 120.19C319.734 120.612 322.086 123.128 320.595 125.81C319.105 128.493 314.336 130.326 309.944 129.905L297.948 128.754Z" fill="#906253"/>
<path d="M296.002 134.064C292.963 134.353 290.419 133.484 290.319 132.123C290.219 130.761 292.602 129.423 295.641 129.133L303.942 128.342C306.981 128.053 309.525 128.922 309.625 130.283C309.725 131.645 307.342 132.984 304.303 133.273L296.002 134.064Z" fill="#9D6B5A"/>
<path d="M195.382 156.547C195.382 136.978 188.634 133.571 174.282 133.571C159.931 133.571 154.047 136.978 154.047 156.547L154.047 177.589L174.282 230.038L192.633 197.293L195.382 177.589V156.547Z" fill="#81584A"/>
<path d="M211.477 120.202H136.232C128.087 120.202 121.484 124.879 121.484 130.648C121.484 136.418 128.087 141.094 136.232 141.094H211.477C219.622 141.094 226.225 136.418 226.225 130.648C226.225 124.879 219.622 120.202 211.477 120.202Z" fill="#906253"/>
<path d="M177.126 157.839H172.781C162.419 157.839 154.02 167.178 154.02 178.698V193.769C154.02 205.289 162.419 214.629 172.781 214.629H177.126C187.488 214.629 195.887 205.289 195.887 193.769V178.698C195.887 167.178 187.488 157.839 177.126 157.839Z" fill="#906253"/>
<path d="M187.601 119.236H161.469C154.727 119.236 149.262 125.911 149.262 134.145V143.13C149.262 151.363 154.727 158.038 161.469 158.038H187.601C194.343 158.038 199.808 151.363 199.808 143.13V134.145C199.808 125.911 194.343 119.236 187.601 119.236Z" fill="#906253"/>
<path d="M189.916 119.236H159.332C153.868 119.236 149.439 125.911 149.439 134.145V143.13C149.439 151.363 153.868 158.038 159.332 158.038H189.916C195.379 158.038 199.808 151.363 199.808 143.13V134.145C199.808 125.911 195.379 119.236 189.916 119.236Z" fill="#9D6B5A"/>
<path d="M177.089 153.493C177.089 152.23 175.884 151.205 174.398 151.205C172.912 151.205 171.707 152.23 171.707 153.493V157.931C171.707 159.195 172.912 160.22 174.398 160.22C175.884 160.22 177.089 159.195 177.089 157.931V153.493Z" fill="#81584A"/>
<path d="M189.351 141.095H183.17C181.394 141.095 179.955 143.031 179.955 145.419C179.955 147.808 181.394 149.744 183.17 149.744H189.351C191.126 149.744 192.565 147.808 192.565 145.419C192.565 143.031 191.126 141.095 189.351 141.095Z" fill="#AC7967"/>
<path d="M167.534 141.095H161.353C159.578 141.095 158.139 143.031 158.139 145.419C158.139 147.808 159.578 149.744 161.353 149.744H167.534C169.31 149.744 170.749 147.808 170.749 145.419C170.749 143.031 169.31 141.095 167.534 141.095Z" fill="#AC7967"/>
<path d="M184.932 103.149C184.932 93.1401 180.27 85.0264 174.519 85.0264C168.768 85.0264 164.105 93.1401 164.105 103.149V110.584C164.105 120.593 168.768 128.706 174.519 128.706C180.27 128.706 184.932 120.593 184.932 110.584V103.149Z" fill="#9D6B5A"/>
<path d="M157.171 150.375H154.732C153.759 150.375 152.971 151.354 152.971 152.562C152.971 153.77 153.759 154.749 154.732 154.749H157.171C158.144 154.749 158.932 153.77 158.932 152.562C158.932 151.354 158.144 150.375 157.171 150.375Z" fill="#81584A"/>
<path d="M177.039 85.0264H171.168C164.43 85.0264 158.967 90.4891 158.967 97.2277V102.233C158.967 108.972 164.43 114.435 171.168 114.435H177.039C183.777 114.435 189.24 108.972 189.24 102.233V97.2277C189.24 90.4891 183.777 85.0264 177.039 85.0264Z" fill="#81584A"/>
<path d="M214.977 122.766H212.65C206.437 122.766 201.4 125.733 201.4 129.394C201.4 133.054 206.437 136.022 212.65 136.022H214.977C221.19 136.022 226.226 133.054 226.226 129.394C226.226 125.733 221.19 122.766 214.977 122.766Z" fill="#9D6B5A"/>
<path d="M135.614 122.216H132.333C130.522 122.216 129.053 123.448 129.053 124.968C129.053 126.488 130.522 127.72 132.333 127.72H135.614C137.426 127.72 138.895 126.488 138.895 124.968C138.895 123.448 137.426 122.216 135.614 122.216Z" fill="#AC7967"/>
<path d="M219.209 122.432H215.718C213.79 122.432 212.227 123.664 212.227 125.184C212.227 126.704 213.79 127.936 215.718 127.936H219.209C221.137 127.936 222.7 126.704 222.7 125.184C222.7 123.664 221.137 122.432 219.209 122.432Z" fill="#AC7967"/>
<path d="M189.587 73.5908H158.06C154.455 73.5908 151.533 77.6298 151.533 82.6121C151.533 87.5944 154.455 91.6333 158.06 91.6333H189.587C193.191 91.6333 196.113 87.5944 196.113 82.6121C196.113 77.6298 193.191 73.5908 189.587 73.5908Z" fill="#9D6B5A"/>
<path d="M191.041 75.8857H158.662C155.861 75.8857 153.59 78.8978 153.59 82.6135C153.59 86.3291 155.861 89.3412 158.662 89.3412H191.041C193.842 89.3412 196.113 86.3291 196.113 82.6135C196.113 78.8978 193.842 75.8857 191.041 75.8857Z" fill="#81584A"/>
<path d="M180.78 48.2354H171.157C163.183 48.2354 156.719 56.7162 156.719 67.178V89.6257C156.719 100.087 163.183 108.568 171.157 108.568H180.78C188.754 108.568 195.218 100.087 195.218 89.6257V67.178C195.218 56.7162 188.754 48.2354 180.78 48.2354Z" fill="#9D6B5A"/>
<path d="M181.243 106.078H170.606C169.456 106.078 168.523 107.112 168.523 108.388C168.523 109.664 169.456 110.698 170.606 110.698H181.243C182.393 110.698 183.326 109.664 183.326 108.388C183.326 107.112 182.393 106.078 181.243 106.078Z" fill="#9D6B5A"/>
<path d="M170.535 168.847H165.71C163.409 168.847 161.543 170.522 161.543 172.589C161.543 174.656 163.409 176.331 165.71 176.331H170.535C172.837 176.331 174.702 174.656 174.702 172.589C174.702 170.522 172.837 168.847 170.535 168.847Z" fill="#9D6B5A"/>
<path d="M170.535 177.671H165.71C163.409 177.671 161.543 179.346 161.543 181.413C161.543 183.48 163.409 185.156 165.71 185.156H170.535C172.837 185.156 174.702 183.48 174.702 181.413C174.702 179.346 172.837 177.671 170.535 177.671Z" fill="#9D6B5A"/>
<path d="M170.535 186.495H165.71C163.409 186.495 161.543 188.171 161.543 190.237C161.543 192.304 163.409 193.98 165.71 193.98H170.535C172.837 193.98 174.702 192.304 174.702 190.237C174.702 188.171 172.837 186.495 170.535 186.495Z" fill="#9D6B5A"/>
<path d="M185.273 168.847H180.448C178.147 168.847 176.281 170.522 176.281 172.589C176.281 174.656 178.147 176.331 180.448 176.331H185.273C187.575 176.331 189.441 174.656 189.441 172.589C189.441 170.522 187.575 168.847 185.273 168.847Z" fill="#9D6B5A"/>
<path d="M185.273 177.671H180.448C178.147 177.671 176.281 179.346 176.281 181.413C176.281 183.48 178.147 185.156 180.448 185.156H185.273C187.575 185.156 189.441 183.48 189.441 181.413C189.441 179.346 187.575 177.671 185.273 177.671Z" fill="#9D6B5A"/>
<path d="M185.273 186.495H180.448C178.147 186.495 176.281 188.171 176.281 190.237C176.281 192.304 178.147 193.98 180.448 193.98H185.273C187.575 193.98 189.441 192.304 189.441 190.237C189.441 188.171 187.575 186.495 185.273 186.495Z" fill="#9D6B5A"/>
<path d="M168.703 124.226L160.44 120.254C159.521 119.812 158.417 120.199 157.975 121.119C157.533 122.038 157.92 123.142 158.84 123.584L167.102 127.556C168.021 127.998 169.125 127.611 169.567 126.691C170.009 125.772 169.622 124.668 168.703 124.226Z" fill="#81584A"/>
<path d="M178.544 124.226L186.806 120.254C187.725 119.812 188.829 120.199 189.271 121.119C189.713 122.038 189.326 123.142 188.406 123.584L180.144 127.556C179.225 127.998 178.121 127.611 177.679 126.691C177.237 125.772 177.624 124.668 178.544 124.226Z" fill="#81584A"/>
<path d="M157.913 199.141C156.822 199.141 155.769 199.385 154.773 199.832C155.94 217.632 164.729 231.382 175.472 231.382C186.354 231.382 195.232 217.274 196.212 199.141C196.211 199.141 196.21 199.141 196.209 199.141H157.913Z" fill="#4F4F4F"/>
<path d="M194.719 197.176H156.293C155.454 197.176 154.773 198.255 154.773 199.587V203.321C154.773 204.652 155.454 205.732 156.293 205.732H194.719C195.558 205.732 196.238 204.652 196.238 203.321V199.587C196.238 198.255 195.558 197.176 194.719 197.176Z" fill="#5B5B5B"/>
<path d="M197.422 156.547C197.422 136.978 190.008 133.571 174.24 133.571C158.472 133.571 152.008 136.978 152.008 156.547L152.008 177.589L174.24 230.038L194.402 197.293L197.422 177.589V156.547Z" fill="#81584A"/>
<path d="M211.479 120.203H136.234C128.089 120.203 121.486 124.88 121.486 130.649C121.486 136.419 128.089 141.095 136.234 141.095H211.479C219.624 141.095 226.227 136.419 226.227 130.649C226.227 124.88 219.624 120.203 211.479 120.203Z" fill="#906253"/>
<path d="M207.841 120.895H210.028C215.867 120.895 220.6 124.865 220.6 129.763C220.6 134.661 215.867 138.631 210.028 138.631H207.841C202.003 138.631 197.27 134.661 197.27 129.763C197.27 124.865 202.003 120.895 207.841 120.895Z" fill="#9D6B5A"/>
<path d="M207.991 123.875H211.272C213.084 123.875 214.553 125.107 214.553 126.627C214.553 128.147 213.084 129.379 211.272 129.379H207.991C206.179 129.379 204.711 128.147 204.711 126.627C204.711 125.107 206.179 123.875 207.991 123.875Z" fill="#AC7967"/>
<path d="M199.81 139.253C199.81 127.673 188.534 118.286 174.626 118.286C160.717 118.286 149.441 127.673 149.441 139.253C149.441 150.832 160.717 160.219 174.626 160.219C188.534 160.219 199.81 150.832 199.81 139.253Z" fill="#81584A"/>
<path d="M177.071 157.839H172.358C161.119 157.839 152.008 167.178 152.008 178.698V193.769C152.008 205.289 161.119 214.629 172.358 214.629H177.071C188.31 214.629 197.421 205.289 197.421 193.769V178.698C197.421 167.178 188.31 157.839 177.071 157.839Z" fill="#906253"/>
<path d="M187.827 119.236H162.177C155.56 119.236 150.195 125.911 150.195 134.145V143.13C150.195 151.363 155.56 158.038 162.177 158.038H187.827C194.444 158.038 199.809 151.363 199.809 143.13V134.145C199.809 125.911 194.444 119.236 187.827 119.236Z" fill="#906253"/>
<path d="M194.182 119.235H155.411C148.485 119.235 146.611 125.91 146.611 134.144C146.611 142.377 148.485 158.037 155.411 158.037H194.182C201.107 158.037 202.458 146.075 202.458 134.144C202.458 134.144 201.107 119.235 194.182 119.235Z" fill="#9D6B5A"/>
<path d="M177.091 149.347C177.091 148.083 175.886 147.059 174.4 147.059C172.914 147.059 171.709 148.083 171.709 149.347V153.785C171.709 155.049 172.914 156.073 174.4 156.073C175.886 156.073 177.091 155.049 177.091 153.785V149.347Z" fill="#81584A"/>
<path d="M189.355 141.096H183.173C181.398 141.096 179.959 142.461 179.959 144.145C179.959 145.828 181.398 147.194 183.173 147.194H189.355C191.13 147.194 192.569 145.828 192.569 144.145C192.569 142.461 191.13 141.096 189.355 141.096Z" fill="#AC7967"/>
<path d="M167.536 141.096H161.355C159.58 141.096 158.141 142.461 158.141 144.145C158.141 145.828 159.58 147.194 161.355 147.194H167.536C169.312 147.194 170.751 145.828 170.751 144.145C170.751 142.461 169.312 141.096 167.536 141.096Z" fill="#AC7967"/>
<path d="M185.463 103.149C185.463 93.1401 180.563 85.0264 174.519 85.0264C168.474 85.0264 163.574 93.1401 163.574 103.149V110.584C163.574 120.593 168.474 128.706 174.519 128.706C180.563 128.706 185.463 120.593 185.463 110.584V103.149Z" fill="#9D6B5A"/>
<path d="M158.48 150.375H156.328C155.469 150.375 154.773 151.354 154.773 152.562C154.773 153.77 155.469 154.749 156.328 154.749H158.48C159.339 154.749 160.035 153.77 160.035 152.562C160.035 151.354 159.339 150.375 158.48 150.375Z" fill="#81584A"/>
<path d="M193.664 150.375H191.511C190.653 150.375 189.957 151.354 189.957 152.562C189.957 153.77 190.653 154.749 191.511 154.749H193.664C194.522 154.749 195.218 153.77 195.218 152.562C195.218 151.354 194.522 150.375 193.664 150.375Z" fill="#81584A"/>
<path d="M177.041 85.0264H171.17C164.431 85.0264 158.969 90.4891 158.969 97.2277V102.233C158.969 108.972 164.431 114.435 171.17 114.435H177.041C183.779 114.435 189.242 108.972 189.242 102.233V97.2277C189.242 90.4891 183.779 85.0264 177.041 85.0264Z" fill="#81584A"/>
<path d="M141.571 120.895H139.384C133.545 120.895 128.812 124.865 128.812 129.763C128.812 134.661 133.545 138.631 139.384 138.631H141.571C147.409 138.631 152.142 134.661 152.142 129.763C152.142 124.865 147.409 120.895 141.571 120.895Z" fill="#9D6B5A"/>
<path d="M141.419 123.875H138.138C136.326 123.875 134.857 125.107 134.857 126.627C134.857 128.147 136.326 129.379 138.138 129.379H141.419C143.231 129.379 144.7 128.147 144.7 126.627C144.7 125.107 143.231 123.875 141.419 123.875Z" fill="#AC7967"/>
<path d="M187.153 345.512C183.697 345.512 180.895 342.204 180.895 338.123V310.18C180.895 308.487 180.574 306.808 179.949 305.234C179.325 303.66 179.004 301.982 179.004 300.288V295.978C179.004 294.137 179.166 292.3 179.486 290.487L179.608 289.801C179.928 287.988 180.09 286.15 180.09 284.309V272.444L180.164 271.85C180.581 268.499 183.429 265.983 186.806 265.983C190.503 265.984 193.5 268.98 193.5 272.677L193.5 301.228L193.5 319.449L194.871 338.123C194.871 342.204 192.069 345.512 188.612 345.512H187.153Z" fill="#906253"/>
<path d="M176.018 232.087V209.941C176.018 203.976 180.854 199.141 186.818 199.141C192.273 199.141 196.871 203.208 197.538 208.622L197.813 210.857L199.373 237.52V253.011L198.352 261.253C197.994 264.143 197.238 266.969 196.105 269.65L194.014 274.598C193.655 275.449 193.47 276.363 193.47 277.287V277.519C193.47 281.207 190.48 284.197 186.792 284.197C183.104 284.197 180.115 281.207 180.115 277.519V276.882C180.115 276.222 180.025 275.565 179.849 274.928L178.626 270.516L177.301 261.659L176.018 250.282V232.087Z" fill="#81584A"/>
<path d="M185.546 330.25H191.422C194.811 330.25 197.559 333.666 197.559 337.881C197.559 342.095 194.811 345.512 191.422 345.512H185.546C182.157 345.512 179.409 342.095 179.409 337.881C179.409 333.666 182.157 330.25 185.546 330.25Z" fill="#9D6B5A"/>
<path d="M181.441 333.393H195.527C196.649 333.393 197.559 335.033 197.559 337.057V341.848C197.559 343.872 196.649 345.512 195.527 345.512H181.441C180.319 345.512 179.409 343.872 179.409 341.848V337.057C179.409 335.033 180.319 333.393 181.441 333.393Z" fill="#9D6B5A"/>
<path d="M163.188 345.337C166.585 345.337 169.34 342.029 169.34 337.949V310C169.34 308.31 169.655 306.634 170.269 305.059C170.882 303.485 171.198 301.809 171.198 300.119V295.757C171.198 293.947 171.042 292.14 170.731 290.356L170.597 289.582C170.287 287.798 170.131 285.991 170.131 284.181V272.269L170.047 271.583C169.643 268.286 166.844 265.809 163.522 265.809C159.892 265.809 156.949 268.752 156.949 272.382L156.949 301.053L156.949 319.274L155.602 337.949C155.602 342.029 158.356 345.337 161.753 345.337H163.188Z" fill="#906253"/>
<path d="M174.134 231.911V209.57C174.134 203.713 169.386 198.965 163.528 198.965C158.164 198.965 153.644 202.971 153 208.297L152.711 210.681L151.178 237.344V252.835L152.189 261.141C152.536 263.989 153.269 266.776 154.369 269.425L156.451 274.436C156.8 275.278 156.981 276.181 156.981 277.093V277.457C156.981 281.082 159.919 284.021 163.544 284.021C167.169 284.021 170.108 281.082 170.108 277.457V276.692C170.108 276.041 170.194 275.393 170.365 274.765L171.571 270.34L172.873 261.483L174.134 250.106V231.911Z" fill="#81584A"/>
<path d="M164.769 330.074H158.992C155.661 330.074 152.961 333.491 152.961 337.705C152.961 341.92 155.661 345.336 158.992 345.336H164.769C168.1 345.336 170.8 341.92 170.8 337.705C170.8 333.491 168.1 330.074 164.769 330.074Z" fill="#9D6B5A"/>
<path d="M168.803 333.217H154.958C153.855 333.217 152.961 334.857 152.961 336.881V341.673C152.961 343.696 153.855 345.337 154.958 345.337H168.803C169.906 345.337 170.8 343.696 170.8 341.673V336.881C170.8 334.857 169.906 333.217 168.803 333.217Z" fill="#9D6B5A"/>
<path d="M190.065 73.5908H158.142C154.492 73.5908 151.533 77.7895 151.533 82.9688C151.533 88.148 154.492 92.3467 158.142 92.3467H190.065C193.715 92.3467 196.674 88.148 196.674 82.9688C196.674 77.7895 193.715 73.5908 190.065 73.5908Z" fill="#9D6B5A"/>
<path d="M189.372 76.8857H158.436C155.76 76.8857 153.59 79.8978 153.59 83.6135C153.59 87.3291 155.76 90.3412 158.436 90.3412H189.372C192.049 90.3412 194.219 87.3291 194.219 83.6135C194.219 79.8978 192.049 76.8857 189.372 76.8857Z" fill="#81584A"/>
<path d="M178.557 48.2354H169.239C161.519 48.2354 155.26 56.7162 155.26 67.178V94.9318C155.26 105.394 161.519 108.568 169.239 108.568H178.557C186.278 108.568 192.536 105.394 192.536 94.9318V67.178C192.536 56.7162 186.278 48.2354 178.557 48.2354Z" fill="#9D6B5A"/>
<path d="M180.388 106.078H168.589C167.314 106.078 166.279 107.112 166.279 108.388C166.279 109.664 167.314 110.698 168.589 110.698H180.388C181.664 110.698 182.698 109.664 182.698 108.388C182.698 107.112 181.664 106.078 180.388 106.078Z" fill="#9D6B5A"/>
<path d="M171.011 126.715L165.228 122.744C164.584 122.302 163.812 122.689 163.502 123.608C163.193 124.528 163.464 125.631 164.107 126.073L169.891 130.045C170.534 130.487 171.307 130.1 171.616 129.18C171.925 128.261 171.654 127.157 171.011 126.715Z" fill="#81584A"/>
<path d="M177.897 126.715L183.68 122.744C184.324 122.302 185.096 122.689 185.406 123.608C185.715 124.528 185.444 125.631 184.801 126.073L179.018 130.045C178.374 130.487 177.602 130.1 177.292 129.18C176.983 128.261 177.254 127.157 177.897 126.715Z" fill="#81584A"/>
<path d="M154.789 199.141C153.534 199.141 152.323 199.385 151.178 199.832C152.519 217.632 162.631 231.382 174.99 231.382C187.509 231.382 197.723 217.274 198.851 199.141C198.85 199.141 198.848 199.141 198.847 199.141H154.789Z" fill="#4F4F4F"/>
<path d="M197.106 197.177H152.951C151.987 197.177 151.205 198.256 151.205 199.588V203.322C151.205 204.653 151.987 205.733 152.951 205.733H197.106C198.071 205.733 198.852 204.653 198.852 203.322V199.588C198.852 198.256 198.071 197.177 197.106 197.177Z" fill="#5B5B5B"/>
<path d="M175.072 104.757H172.648C172.454 104.757 172.297 105.001 172.297 105.302V105.624C172.297 105.925 172.454 106.169 172.648 106.169H175.072C175.266 106.169 175.423 105.925 175.423 105.624V105.302C175.423 105.001 175.266 104.757 175.072 104.757Z" fill="#81584A"/>
<path d="M176.909 80.929C176.909 78.6787 175.735 76.8545 174.288 76.8545C172.84 76.8545 171.666 78.6787 171.666 80.929V88.1193C171.666 90.3695 172.84 92.1937 174.288 92.1937C175.735 92.1937 176.909 90.3695 176.909 88.1193V80.929Z" fill="#81584A"/>
<path d="M167.875 76.923C167.875 75.5147 167.141 74.373 166.234 74.373C165.328 74.373 164.594 75.5147 164.594 76.923V77.943C164.594 79.3513 165.328 80.4929 166.234 80.4929C167.141 80.4929 167.875 79.3513 167.875 77.943V76.923Z" fill="#61534B"/>
<path d="M183.787 76.923C183.787 75.5147 183.053 74.373 182.147 74.373C181.24 74.373 180.506 75.5147 180.506 76.923V77.943C180.506 79.3513 181.24 80.4929 182.147 80.4929C183.053 80.4929 183.787 79.3513 183.787 77.943V76.923Z" fill="#61534B"/>
<path d="M177.226 101.924C179.641 101.924 181.585 98.6972 181.585 94.6877V93.5166H166.906V94.6877C166.906 98.6972 168.85 101.924 171.265 101.924H177.226Z" fill="white"/>
<path d="M173.937 89.1165L171.499 85.8968C171.096 85.3648 170.492 85.4411 170.15 86.0671C169.808 86.6931 169.857 87.6319 170.259 88.1638L172.697 91.3835C173.1 91.9154 173.704 91.8392 174.046 91.2131C174.389 90.5871 174.34 89.6484 173.937 89.1165Z" fill="#81584A"/>
<path d="M174.633 89.1165L177.071 85.8968C177.474 85.3648 178.078 85.4411 178.42 86.0671C178.763 86.6931 178.714 87.6319 178.311 88.1638L175.873 91.3835C175.47 91.9154 174.866 91.8392 174.524 91.2131C174.182 90.5871 174.231 89.6484 174.633 89.1165Z" fill="#81584A"/>
<path d="M175.805 87.0477C175.805 85.968 175.242 85.0928 174.547 85.0928C173.852 85.0928 173.289 85.968 173.289 87.0477V88.8327C173.289 89.9124 173.852 90.7876 174.547 90.7876C175.242 90.7876 175.805 89.9124 175.805 88.8327V87.0477Z" fill="#906253"/>
<path d="M168.904 74.5154L163.681 72.327C163.115 72.0898 162.598 72.4132 162.527 73.0493C162.456 73.6854 162.857 74.3935 163.423 74.6307L168.645 76.819C169.211 77.0563 169.728 76.7329 169.8 76.0968C169.871 75.4606 169.47 74.7526 168.904 74.5154Z" fill="#4D4D4D"/>
<path d="M163.764 74.076C163.81 73.6057 163.55 73.083 163.183 72.9086C162.817 72.7342 162.482 72.9741 162.437 73.4444L162.247 75.395C162.201 75.8653 162.461 76.388 162.828 76.5624C163.194 76.7368 163.528 76.4969 163.574 76.0266L163.764 74.076Z" fill="#4D4D4D"/>
<path d="M179.352 74.5139L184.574 72.3268C185.141 72.0897 185.657 72.4131 185.729 73.0493C185.8 73.6854 185.399 74.3933 184.833 74.6304L179.61 76.8175C179.044 77.0546 178.527 76.7311 178.456 76.095C178.384 75.4589 178.786 74.751 179.352 74.5139Z" fill="#4D4D4D"/>
<path d="M184.492 74.076C184.446 73.6057 184.706 73.083 185.073 72.9086C185.439 72.7342 185.773 72.9741 185.819 73.4444L186.009 75.395C186.055 75.8653 185.795 76.388 185.428 76.5624C185.062 76.7368 184.728 76.4969 184.682 76.0266L184.492 74.076Z" fill="#4D4D4D"/>
<path d="M172.6 73.4994C172.6 72.8687 172.271 72.3574 171.866 72.3574C171.46 72.3574 171.131 72.8687 171.131 73.4994V74.8817C171.131 75.5124 171.46 76.0237 171.866 76.0237C172.271 76.0237 172.6 75.5124 172.6 74.8817V73.4994Z" fill="#81584A"/>
<path d="M177.473 73.4994C177.473 72.8687 177.144 72.3574 176.739 72.3574C176.333 72.3574 176.004 72.8687 176.004 73.4994V74.8817C176.004 75.5124 176.333 76.0237 176.739 76.0237C177.144 76.0237 177.473 75.5124 177.473 74.8817V73.4994Z" fill="#81584A"/>
<path d="M175.803 87.0448C175.803 85.9651 175.24 85.0898 174.545 85.0898C173.85 85.0898 173.287 85.9651 173.287 87.0448V88.8298C173.287 89.9094 173.85 90.7847 174.545 90.7847C175.24 90.7847 175.803 89.9094 175.803 88.8298V87.0448Z" fill="#906253"/>
<path d="M168.737 74.0349L163.509 72.9339C162.942 72.8145 162.497 73.1864 162.514 73.7645C162.532 74.3425 163.006 74.9079 163.573 75.0272L168.801 76.1282C169.368 76.2476 169.813 75.8757 169.795 75.2976C169.778 74.7196 169.304 74.1542 168.737 74.0349Z" fill="#4D4D4D"/>
<path d="M163.635 74.649C163.624 74.1702 163.344 73.7045 163.01 73.6088C162.675 73.5131 162.413 73.8237 162.425 74.3025L162.472 76.2881C162.483 76.7668 162.763 77.2326 163.098 77.3283C163.432 77.4239 163.694 77.1134 163.682 76.6346L163.635 74.649Z" fill="#4D4D4D"/>
<path d="M179.656 73.6146L184.758 72.9017C185.311 72.8244 185.71 73.3246 185.65 74.0191C185.589 74.7135 185.091 75.339 184.538 75.4163L179.436 76.1292C178.882 76.2065 178.483 75.7063 178.544 75.0118C178.605 74.3174 179.103 73.6919 179.656 73.6146Z" fill="#4D4D4D"/>
<path d="M184.703 74.8479C184.735 74.3522 184.99 73.9063 185.274 73.8521C185.557 73.7979 185.762 74.1558 185.73 74.6516L185.599 76.7075C185.568 77.2032 185.312 77.6491 185.029 77.7033C184.745 77.7575 184.541 77.3996 184.573 76.9038L184.703 74.8479Z" fill="#4D4D4D"/>
<path d="M193.878 71.4424C193.808 71.4345 193.737 71.4343 193.666 71.4433C193.585 71.4534 193.502 71.475 193.421 71.5085L193.253 71.5771C192.711 71.7999 192.371 72.4843 192.383 73.2212C192.33 73.1181 192.267 73.0282 192.201 72.9451V75.2283C194.55 76.5596 196.195 79.7197 196.195 83.4251C196.195 87.1502 194.532 90.3232 192.163 91.6419C192.095 92.9724 191.923 94.2614 191.663 95.499V96.7757C191.603 96.6441 191.531 96.524 191.452 96.4143C190.271 101.113 187.76 104.949 184.527 107.09V109.955C184.527 111.107 185.205 112.034 186.048 112.034H186.749C187.592 112.034 188.271 111.107 188.271 109.955V109.395C188.499 110.148 189.04 110.674 189.675 110.674H190.377C191.219 110.674 191.898 109.747 191.898 108.594V107.936C192.166 108.523 192.639 108.915 193.184 108.915C194.027 108.915 194.706 107.987 194.706 106.835V95.1526L195.018 96.5757C195.214 97.467 195.897 97.9696 196.549 97.7019C197.2 97.4342 197.567 96.5006 197.371 95.6094L195.703 88.0142C196.01 88.4867 196.498 88.7024 196.972 88.5078L197.14 88.4384C197.792 88.1707 198.159 87.238 197.963 86.3467L194.951 72.6338C194.801 71.9515 194.366 71.4977 193.878 71.4424V71.4424ZM154.333 71.5553C153.845 71.6106 153.41 72.0644 153.26 72.7468L150.248 86.4596C150.052 87.3509 150.419 88.2836 151.071 88.5513L151.239 88.6207C151.713 88.8153 152.201 88.5996 152.508 88.1271L150.84 95.7223C150.644 96.6136 151.011 97.5471 151.663 97.8148C152.314 98.0825 152.997 97.5808 153.193 96.6895L153.256 96.4025V106.835C153.256 107.987 153.934 108.915 154.776 108.915C155.322 108.915 155.795 108.523 156.064 107.936V108.594C156.064 109.747 156.742 110.674 157.584 110.674H158.287C158.921 110.674 159.461 110.149 159.69 109.398V109.955C159.69 111.107 160.369 112.034 161.211 112.034H161.913C162.756 112.034 163.434 111.107 163.434 109.955V107.015C160.23 104.843 157.751 100.999 156.594 96.3063C156.48 96.4424 156.378 96.5987 156.297 96.7757V94.9308C156.101 93.8681 155.968 92.7699 155.911 91.6419C153.541 90.3231 151.879 87.1501 151.879 83.4251C151.879 79.7197 153.523 76.5596 155.873 75.2283V73.2596C155.858 73.2849 155.842 73.3076 155.828 73.3341C155.84 72.5975 155.5 71.9128 154.958 71.69L154.79 71.6214C154.709 71.588 154.627 71.5663 154.545 71.5562C154.474 71.5473 154.403 71.5474 154.333 71.5553V71.5553Z" fill="#4D4D4D"/>
<path d="M159.534 56.0781C156.906 59.4205 155.26 64.2508 155.26 69.6404V91.3208C155.26 101.456 161.08 109.616 168.31 109.616H179.763C186.992 109.616 192.813 101.456 192.813 91.3208V69.6404C192.813 64.2508 191.167 59.4205 188.539 56.0781C190.541 59.3379 191.752 63.5838 191.752 68.2432V90.3185C191.752 100.639 185.826 108.947 178.465 108.947H169.608C162.247 108.947 156.32 100.639 156.32 90.3185V68.2432C156.32 63.5838 157.531 59.3379 159.534 56.0781Z" fill="#565656"/>
<path d="M167.203 109.407C167.203 108.438 166.643 107.653 165.952 107.653C165.261 107.653 164.701 108.438 164.701 109.407V111.443C164.701 112.411 165.261 113.196 165.952 113.196C166.643 113.196 167.203 112.411 167.203 111.443V109.407Z" fill="#565656"/>
<path d="M169.544 111.004C169.544 110.036 168.984 109.251 168.294 109.251C167.603 109.251 167.043 110.036 167.043 111.004V113.041C167.043 114.009 167.603 114.794 168.294 114.794C168.984 114.794 169.544 114.009 169.544 113.041V111.004Z" fill="#565656"/>
<path d="M171.857 111.886C171.857 110.918 171.297 110.133 170.606 110.133C169.915 110.133 169.355 110.918 169.355 111.886V113.922C169.355 114.891 169.915 115.676 170.606 115.676C171.297 115.676 171.857 114.891 171.857 113.922V111.886Z" fill="#565656"/>
<path d="M174.136 112.085C174.136 111.117 173.576 110.332 172.885 110.332C172.195 110.332 171.635 111.117 171.635 112.085V114.122C171.635 115.09 172.195 115.875 172.885 115.875C173.576 115.875 174.136 115.09 174.136 114.122V112.085Z" fill="#565656"/>
<path d="M165.099 105.892C165.099 104.736 164.43 103.799 163.606 103.799C162.782 103.799 162.113 104.736 162.113 105.892V108.322C162.113 109.478 162.782 110.415 163.606 110.415C164.43 110.415 165.099 109.478 165.099 108.322V105.892Z" fill="#565656"/>
<path d="M162.517 103.744C162.517 102.588 161.848 101.651 161.024 101.651C160.2 101.651 159.531 102.588 159.531 103.744V106.174C159.531 107.33 160.2 108.267 161.024 108.267C161.848 108.267 162.517 107.33 162.517 106.174V103.744Z" fill="#565656"/>
<path d="M160.339 101.142C160.339 99.9858 159.671 99.0488 158.846 99.0488C158.022 99.0488 157.354 99.9858 157.354 101.142V103.572C157.354 104.728 158.022 105.665 158.846 105.665C159.671 105.665 160.339 104.728 160.339 103.572V101.142Z" fill="#565656"/>
<path d="M180.88 109.407C180.88 108.438 181.439 107.653 182.13 107.653C182.821 107.653 183.381 108.438 183.381 109.407V111.443C183.381 112.411 182.821 113.196 182.13 113.196C181.439 113.196 180.88 112.411 180.88 111.443V109.407Z" fill="#565656"/>
<path d="M178.54 111.004C178.54 110.036 179.1 109.251 179.79 109.251C180.481 109.251 181.041 110.036 181.041 111.004V113.041C181.041 114.009 180.481 114.794 179.79 114.794C179.1 114.794 178.54 114.009 178.54 113.041V111.004Z" fill="#565656"/>
<path d="M176.227 111.886C176.227 110.918 176.787 110.133 177.478 110.133C178.169 110.133 178.729 110.918 178.729 111.886V113.922C178.729 114.891 178.169 115.676 177.478 115.676C176.787 115.676 176.227 114.891 176.227 113.922V111.886Z" fill="#565656"/>
<path d="M173.946 112.085C173.946 111.117 174.506 110.332 175.197 110.332C175.887 110.332 176.447 111.117 176.447 112.085V114.122C176.447 115.09 175.887 115.875 175.197 115.875C174.506 115.875 173.946 115.09 173.946 114.122V112.085Z" fill="#565656"/>
<path d="M182.983 105.892C182.983 104.736 183.652 103.799 184.476 103.799C185.3 103.799 185.969 104.736 185.969 105.892V108.322C185.969 109.478 185.3 110.415 184.476 110.415C183.652 110.415 182.983 109.478 182.983 108.322V105.892Z" fill="#565656"/>
<path d="M185.565 103.745C185.565 102.589 186.234 101.652 187.058 101.652C187.882 101.652 188.551 102.589 188.551 103.745V106.175C188.551 107.331 187.882 108.268 187.058 108.268C186.234 108.268 185.565 107.331 185.565 106.175V103.745Z" fill="#565656"/>
<path d="M187.743 101.142C187.743 99.9858 188.411 99.0488 189.236 99.0488C190.06 99.0488 190.729 99.9858 190.729 101.142V103.572C190.729 104.728 190.06 105.665 189.236 105.665C188.411 105.665 187.743 104.728 187.743 103.572V101.142Z" fill="#565656"/>
<path d="M168.385 88.7725C165.467 88.7725 163.117 92.0662 163.117 96.1577V104.797C163.117 108.889 165.467 112.182 168.385 112.182H179.688C182.606 112.182 184.956 108.889 184.956 104.797V96.1577C184.956 92.0662 182.606 88.7725 179.688 88.7725H178.582C178.621 89.2225 178.503 89.6897 178.237 90.0065L177.79 90.5387C178.055 90.8872 178.252 91.3366 178.338 91.8514H179.871C181.503 91.8514 182.816 93.6925 182.816 95.9803V99.6951C182.816 100.563 182.627 101.366 182.303 102.029V103.048C182.303 106.314 180.428 108.944 178.098 108.944H169.975C167.645 108.944 165.77 106.314 165.77 103.048V102.029C165.446 101.366 165.257 100.563 165.257 99.6951V95.9803C165.257 93.6925 166.57 91.8514 168.202 91.8514H169.166C169.281 91.1586 169.593 90.5778 170.012 90.2165L169.836 90.0065C169.57 89.6897 169.452 89.2225 169.491 88.7725H168.385Z" fill="#565656"/>
<path d="M165.638 48.5918C158.56 48.5918 152.861 56.1656 152.861 65.5735C152.861 66.0154 152.878 66.4514 152.903 66.8846C152.878 67.1062 152.861 67.3313 152.861 67.5623V77.9653C152.861 80.1977 154.049 82.0474 155.633 82.4657V68.89C155.633 59.172 161.52 51.3478 168.831 51.3478H179.157C186.468 51.3478 192.355 59.172 192.355 68.89V82.4841C193.984 82.1137 195.219 80.2402 195.219 77.9653V67.5623C195.219 67.3313 195.202 67.1062 195.177 66.8846C195.202 66.4514 195.219 66.0154 195.219 65.5735C195.219 56.1656 189.521 48.5918 182.443 48.5918H165.638Z" fill="#4D4D4D"/>
<path d="M180.137 46.4502H168.627C164.749 46.4502 161.605 50.6284 161.605 55.7826C161.605 60.9367 164.749 65.1149 168.627 65.1149H180.137C184.014 65.1149 187.158 60.9367 187.158 55.7826C187.158 50.6284 184.014 46.4502 180.137 46.4502Z" fill="#4D4D4D"/>
<path d="M165.524 52.3793C165.524 50.9218 164.635 49.7402 163.538 49.7402C162.442 49.7402 161.553 50.9218 161.553 52.3793V58.4989C161.553 59.9564 162.442 61.138 163.538 61.138C164.635 61.138 165.524 59.9564 165.524 58.4989V52.3793Z" fill="#4D4D4D"/>
<path d="M188.082 52.6088C188.082 51.1513 187.193 49.9697 186.097 49.9697C185 49.9697 184.111 51.1513 184.111 52.6088V58.7284C184.111 60.1859 185 61.3674 186.097 61.3674C187.193 61.3674 188.082 60.1859 188.082 58.7284V52.6088Z" fill="#4D4D4D"/>
<path d="M160.797 55.3954C160.693 54.4336 160.022 53.7659 159.298 53.9041C158.575 54.0423 158.073 54.934 158.177 55.8958L158.512 59.0002C158.616 59.962 159.287 60.6297 160.01 60.4915C160.734 60.3534 161.236 59.4617 161.132 58.4999L160.797 55.3954Z" fill="#4D4D4D"/>
<path d="M188.869 56.1523C188.973 55.1905 189.644 54.5228 190.368 54.661C191.091 54.7991 191.593 55.6908 191.49 56.6526L191.154 59.7571C191.05 60.7189 190.379 61.3865 189.656 61.2484C188.932 61.1102 188.43 60.2185 188.534 59.2567L188.869 56.1523Z" fill="#4D4D4D"/>
<path d="M173.003 51.085H174.243C174.974 51.085 175.566 51.8727 175.566 52.8443V59.2699C175.566 60.2416 174.974 61.0293 174.243 61.0293H173.003C172.272 61.0293 171.68 60.2416 171.68 59.2699V52.8443C171.68 51.8727 172.272 51.085 173.003 51.085Z" fill="#565656"/>
<path d="M167.654 51.2754H169.29C169.862 51.2754 170.326 51.8919 170.326 52.6523V59.4603C170.326 60.2208 169.862 60.8372 169.29 60.8372H167.654C167.082 60.8372 166.618 60.2208 166.618 59.4603V52.6523C166.618 51.8919 167.082 51.2754 167.654 51.2754Z" fill="#565656"/>
<path d="M179.594 51.2754H177.958C177.386 51.2754 176.922 51.8919 176.922 52.6523V59.4603C176.922 60.2208 177.386 60.8372 177.958 60.8372H179.594C180.166 60.8372 180.63 60.2208 180.63 59.4603V52.6523C180.63 51.8919 180.166 51.2754 179.594 51.2754Z" fill="#565656"/>
</svg>
