<svg width="351" height="351" viewBox="0 0 351 351" fill="none" xmlns="http://www.w3.org/2000/svg">
<circle cx="175.746" cy="175.22" r="173.197" stroke="black" stroke-width="3.60643"/>
<rect x="26.9673" y="51.3686" width="295.472" height="295.472" stroke="black" stroke-width="3.60643"/>
<path d="M148.03 128.778L148.043 128.713C148.85 124.597 144.437 121.255 138.187 121.249L126.932 119.687L114.461 118.887L103.065 118.476L91.4673 119.631C85.2165 119.624 79.2777 124.522 78.4704 128.638L78.4578 128.703C77.8195 131.957 80.4437 134.727 84.6592 135.748C86.9934 136.313 89.4657 136.528 91.7403 137.239L92.935 137.613C95.1099 138.293 97.4142 138.653 99.7953 138.686L109.185 138.814L135.251 136.218C141.501 136.225 147.223 132.894 148.03 128.778Z" fill="#81584A"/>
<path d="M107.089 130.241C109.514 130.201 111.757 128.792 112.1 127.093C112.443 125.394 110.755 124.049 108.33 124.089L105.136 124.141C102.711 124.181 100.467 125.59 100.125 127.289C99.782 128.988 101.47 130.333 103.895 130.293L107.089 130.241Z" fill="#906253"/>
<path d="M117.283 132.354L117.288 132.283C117.634 127.75 113.107 123.399 107.178 122.565L62.6529 116.302C56.7234 115.467 51.6362 118.466 51.2905 122.999L51.2851 123.07C50.9393 127.603 55.4659 131.954 61.3955 132.788L105.92 139.051C111.85 139.885 116.937 136.887 117.283 132.354Z" fill="#81584A"/>
<path d="M69.4604 129.036L69.6091 126.055C69.894 120.341 64.5336 114.941 57.6363 113.995L51.5087 113.154C44.6115 112.207 38.7891 116.071 38.5041 121.785L38.3555 124.766C38.0705 130.48 43.4309 135.879 50.3282 136.826L56.4558 137.667C63.3531 138.614 69.1754 134.75 69.4604 129.036Z" fill="#906253"/>
<path d="M97.7226 138.317C105.161 139.318 111.41 135.835 111.681 130.539C111.951 125.242 106.14 120.137 98.7014 119.136L88.1249 117.712C80.6865 116.711 74.4373 120.193 74.167 125.49C73.8967 130.787 79.7077 135.892 87.1461 136.893L97.7226 138.317Z" fill="#906253"/>
<path d="M100.604 137.506C101.963 137.678 103.106 137.086 103.156 136.183C103.206 135.281 102.144 134.411 100.784 134.239L91.8598 133.112C90.5001 132.94 89.3575 133.532 89.3077 134.434C89.2579 135.337 90.3197 136.207 91.6794 136.379L100.604 137.506Z" fill="#9D6B5A"/>
<path d="M51.9973 128.775C56.3995 127.858 58.7917 123.419 57.3405 118.859C55.8893 114.299 51.1442 111.346 46.7421 112.262L34.7183 114.766C30.3162 115.683 27.9239 120.122 29.3751 124.682C30.8263 129.242 35.5714 132.195 39.9736 131.279L51.9973 128.775Z" fill="#906253"/>
<path d="M53.7959 138.446C56.8437 138.853 59.4167 137.195 59.543 134.743C59.6692 132.29 57.3008 129.972 54.253 129.564L45.9285 128.452C42.8807 128.044 40.3077 129.702 40.1815 132.155C40.0553 134.608 42.4237 136.926 45.4715 137.333L53.7959 138.446Z" fill="#9D6B5A"/>
<path d="M191.248 130.827L191.237 130.762C190.499 126.59 194.962 123.49 201.205 123.838L212.471 122.91L224.94 122.816L236.33 123.05L247.894 124.866C254.137 125.214 259.987 130.461 260.725 134.633L260.737 134.698C261.325 138.025 258.606 140.671 254.314 141.429C252.04 141.831 249.648 141.909 247.434 142.475L246.028 142.835C243.911 143.376 241.676 143.6 239.373 143.501L229.879 143.092L203.889 139.011C197.645 138.663 191.986 134.999 191.248 130.827Z" fill="#81584A"/>
<path d="M232.259 135.704L232.254 135.632C231.921 130.999 236.455 126.519 242.382 125.625L286.886 118.911C292.813 118.017 297.888 121.048 298.221 125.68L298.227 125.752C298.56 130.384 294.025 134.864 288.098 135.759L243.594 142.472C237.667 143.367 232.592 140.336 232.259 135.704Z" fill="#81584A"/>
<path d="M280.079 132.06L279.938 129.004C279.668 123.145 285.033 117.568 291.921 116.546L298.04 115.637C304.928 114.615 310.731 118.535 311.001 124.394L311.142 127.45C311.412 133.308 306.048 138.886 299.16 139.908L293.04 140.817C286.152 141.839 280.35 137.918 280.079 132.06Z" fill="#906253"/>
<path d="M251.787 141.666C244.355 142.746 238.123 139.224 237.867 133.799C237.61 128.375 243.427 123.102 250.858 122.022L261.424 120.487C268.855 119.407 275.088 122.929 275.344 128.353C275.601 133.778 269.784 139.051 262.353 140.131L251.787 141.666Z" fill="#906253"/>
<path d="M248.894 140.875C247.535 141.06 246.395 140.463 246.347 139.541C246.3 138.619 247.363 137.722 248.722 137.537L257.642 136.324C259.001 136.139 260.141 136.736 260.189 137.658C260.236 138.58 259.173 139.477 257.814 139.662L248.894 140.875Z" fill="#9D6B5A"/>
<path d="M297.524 131.747C293.124 130.838 290.741 126.271 292.201 121.547C293.662 116.822 298.413 113.729 302.813 114.638L314.831 117.122C319.231 118.031 321.613 122.598 320.153 127.323C318.692 132.047 313.942 135.14 309.542 134.231L297.524 131.747Z" fill="#906253"/>
<path d="M295.688 141.63C292.643 142.069 290.077 140.39 289.957 137.879C289.837 135.368 292.209 132.976 295.254 132.537L303.571 131.337C306.616 130.898 309.182 132.577 309.302 135.088C309.421 137.599 307.05 139.991 304.005 140.43L295.688 141.63Z" fill="#9D6B5A"/>
<path d="M159.433 268.973L157.034 268.973C151.642 268.973 147.272 273.343 147.272 278.735L147.271 303.137L147.272 320.799L145.324 338.901C145.324 342.857 149.304 346.063 154.214 346.063H156.286C161.196 346.063 165.176 342.857 165.176 338.901V312.486C165.176 310.636 165.637 308.816 166.518 307.189C167.399 305.562 167.86 303.742 167.86 301.892V298.438C167.86 296.398 167.601 294.367 167.09 292.392C166.578 290.418 166.319 288.386 166.319 286.347V275.858C166.319 275.444 166.282 275.03 166.207 274.622C165.61 271.35 162.759 268.973 159.433 268.973Z" fill="#906253"/>
<path d="M157.648 197.317H145.162C144.075 197.317 143.194 198.199 143.194 199.286L138.93 237.246V250.715C138.93 252.477 139.077 254.235 139.371 255.972L140.319 261.578C140.866 264.812 141.985 267.923 143.624 270.764L146.402 275.58C147 276.616 147.315 277.791 147.315 278.988C147.315 282.754 150.368 285.806 154.134 285.806H158.975C163.012 285.806 166.283 282.535 166.283 278.498C166.283 277.615 166.444 276.738 166.757 275.912L167.753 273.28C168.182 272.144 168.52 270.976 168.763 269.786L170.279 262.359L171.734 252.908C171.979 251.32 172.101 249.716 172.101 248.11V231.594V211.771C172.101 203.789 165.63 197.317 157.648 197.317Z" fill="#81584A"/>
<path d="M159.49 330.905H151.143C146.33 330.905 142.428 334.299 142.428 338.484C142.428 342.67 146.33 346.064 151.143 346.064H159.49C164.304 346.064 168.206 342.67 168.206 338.484C168.206 334.299 164.304 330.905 159.49 330.905Z" fill="#9D6B5A"/>
<path d="M165.32 337.761H145.314C143.72 337.761 142.428 338.884 142.428 340.271V343.553C142.428 344.939 143.72 346.063 145.314 346.063H165.32C166.914 346.063 168.206 344.939 168.206 343.553V340.271C168.206 338.884 166.914 337.761 165.32 337.761Z" fill="#9D6B5A"/>
<path d="M207.346 162.675C207.346 143.106 190.603 133.712 173.995 133.712C157.388 133.712 141.002 143.106 141.002 162.675L143.925 194.745C143.925 214.315 157.388 230.179 173.995 230.179C190.603 230.179 204.066 218.772 204.066 199.202L207.346 162.675Z" fill="#81584A"/>
<path d="M216.746 116.812H131.411C122.174 116.812 114.686 123.813 114.686 132.448C114.686 141.083 122.174 148.083 131.411 148.083H216.746C225.984 148.083 233.472 141.083 233.472 132.448C233.472 123.813 225.984 116.812 216.746 116.812Z" fill="#906253"/>
<path d="M221.043 142.717C221.043 123.81 200.128 108.483 174.328 108.483C148.528 108.483 127.613 123.81 127.613 142.717C127.613 161.624 148.528 176.95 174.328 176.95C200.128 176.95 221.043 161.624 221.043 142.717Z" fill="#81584A"/>
<path d="M176.907 162.495H171.747C159.441 162.495 149.465 170.682 149.465 180.782V193.994C149.465 204.094 159.441 212.281 171.747 212.281H176.907C189.213 212.281 199.189 204.094 199.189 193.994V180.782C199.189 170.682 189.213 162.495 176.907 162.495Z" fill="#906253"/>
<path d="M196.227 116.737H152.43C141.131 116.737 131.971 124.8 131.971 134.745V145.598C131.971 155.544 141.131 163.606 152.43 163.606H196.227C207.527 163.606 216.687 155.544 216.687 145.598V134.745C216.687 124.8 207.527 116.737 196.227 116.737Z" fill="#906253"/>
<path d="M202.694 116.737H145.963C135.829 116.737 127.613 124.8 127.613 134.745V145.598C127.613 155.544 135.829 163.606 145.963 163.606H202.694C212.828 163.606 221.044 155.544 221.044 145.598V134.745C221.044 124.8 212.828 116.737 202.694 116.737Z" fill="#9D6B5A"/>
<path d="M178.143 156.121C178.143 154.858 176.382 153.833 174.208 153.833C172.035 153.833 170.273 154.858 170.273 156.121V160.559C170.273 161.823 172.035 162.847 174.208 162.847C176.382 162.847 178.143 161.823 178.143 160.559V156.121Z" fill="#81584A"/>
<path d="M194.74 144.553H185.568C182.934 144.553 180.799 146.489 180.799 148.877C180.799 151.266 182.934 153.202 185.568 153.202H194.74C197.375 153.202 199.51 151.266 199.51 148.877C199.51 146.489 197.375 144.553 194.74 144.553Z" fill="#AC7967"/>
<path d="M162.367 144.553H153.195C150.561 144.553 148.426 146.489 148.426 148.877C148.426 151.266 150.561 153.202 153.195 153.202H162.367C165.001 153.202 167.137 151.266 167.137 148.877C167.137 146.489 165.001 144.553 162.367 144.553Z" fill="#AC7967"/>
<path d="M190.946 103.29C190.946 93.2807 183.506 85.167 174.329 85.167C165.152 85.167 157.713 93.2807 157.713 103.29V110.724C157.713 120.733 165.152 128.847 174.329 128.847C183.506 128.847 190.946 120.733 190.946 110.724V103.29Z" fill="#9D6B5A"/>
<path d="M149.194 153.427H145.854C144.521 153.427 143.441 154.406 143.441 155.614C143.441 156.822 144.521 157.801 145.854 157.801H149.194C150.526 157.801 151.606 156.822 151.606 155.614C151.606 154.406 150.526 153.427 149.194 153.427Z" fill="#81584A"/>
<path d="M203.791 153.427H200.451C199.119 153.427 198.039 154.406 198.039 155.614C198.039 156.822 199.119 157.801 200.451 157.801H203.791C205.123 157.801 206.203 156.822 206.203 155.614C206.203 154.406 205.123 153.427 203.791 153.427Z" fill="#81584A"/>
<path d="M177.263 85.167H171.393C164.654 85.167 159.191 90.6297 159.191 97.3683V102.374C159.191 109.113 164.654 114.575 171.393 114.575H177.263C184.002 114.575 189.465 109.113 189.465 102.374V97.3683C189.465 90.6297 184.002 85.167 177.263 85.167Z" fill="#81584A"/>
<path d="M135.989 119.377H133.802C127.963 119.377 123.23 123.347 123.23 128.245C123.23 133.143 127.963 137.114 133.802 137.114H135.989C141.827 137.114 146.56 133.143 146.56 128.245C146.56 123.347 141.827 119.377 135.989 119.377Z" fill="#9D6B5A"/>
<path d="M215.2 120.241H212.872C206.66 120.241 201.623 124.212 201.623 129.11C201.623 134.007 206.66 137.978 212.872 137.978H215.2C221.413 137.978 226.449 134.007 226.449 129.11C226.449 124.212 221.413 120.241 215.2 120.241Z" fill="#9D6B5A"/>
<path d="M135.839 122.356H132.558C130.746 122.356 129.277 123.589 129.277 125.109C129.277 126.629 130.746 127.861 132.558 127.861H135.839C137.651 127.861 139.119 126.629 139.119 125.109C139.119 123.589 137.651 122.356 135.839 122.356Z" fill="#AC7967"/>
<path d="M219.432 122.572H215.94C214.012 122.572 212.449 123.804 212.449 125.325C212.449 126.845 214.012 128.077 215.94 128.077H219.432C221.36 128.077 222.923 126.845 222.923 125.325C222.923 123.804 221.36 122.572 219.432 122.572Z" fill="#AC7967"/>
<path d="M189.673 266.125L191.901 266.125C197.279 266.125 201.638 270.485 201.638 275.863L201.639 301.37L201.638 319.59L203.586 338.265C203.586 342.346 199.606 345.654 194.696 345.654H192.624C187.714 345.654 183.734 342.346 183.734 338.265V310.493C183.734 308.701 183.272 306.938 182.392 305.376C181.512 303.814 181.05 302.051 181.05 300.258V296.442C181.05 294.391 181.303 292.347 181.803 290.357L181.82 290.285C182.332 288.248 182.591 286.155 182.591 284.054V273.207C182.591 272.794 182.627 272.381 182.7 271.973C183.298 268.59 186.238 266.125 189.673 266.125Z" fill="#906253"/>
<path d="M191.263 197.317H202.491C204.272 197.317 205.716 198.762 205.716 200.543L209.98 236.583V249.741C209.98 251.532 209.828 253.319 209.524 255.084L208.594 260.498C208.045 263.687 206.926 266.75 205.289 269.541L202.514 274.27C201.913 275.296 201.595 276.464 201.595 277.653C201.595 281.345 198.602 284.338 194.91 284.338H189.796C185.837 284.338 182.627 281.128 182.627 277.169C182.627 276.288 182.465 275.415 182.148 274.594L181.157 272.018C180.728 270.902 180.39 269.753 180.147 268.583L178.631 261.28L177.188 252.064C176.936 250.45 176.809 248.82 176.809 247.186V231.025V211.771C176.809 203.789 183.28 197.317 191.263 197.317Z" fill="#81584A"/>
<path d="M190.342 330.392H198.689C203.502 330.392 207.404 333.808 207.404 338.022C207.404 342.237 203.502 345.653 198.689 345.653H190.342C185.528 345.653 181.626 342.237 181.626 338.022C181.626 333.808 185.528 330.392 190.342 330.392Z" fill="#9D6B5A"/>
<path d="M184.512 333.534H204.518C206.112 333.534 207.404 335.175 207.404 337.198V341.99C207.404 344.014 206.112 345.654 204.518 345.654H184.512C182.918 345.654 181.626 344.014 181.626 341.99V337.198C181.626 335.175 182.918 333.534 184.512 333.534Z" fill="#9D6B5A"/>
<path d="M196.548 73.7324H152.97C147.988 73.7324 143.949 77.7714 143.949 82.7537C143.949 87.736 147.988 91.7749 152.97 91.7749H196.548C201.53 91.7749 205.569 87.736 205.569 82.7537C205.569 77.7714 201.53 73.7324 196.548 73.7324Z" fill="#9D6B5A"/>
<path d="M196.229 76.0264H153.286C149.571 76.0264 146.559 79.0385 146.559 82.7541C146.559 86.4697 149.571 89.4818 153.286 89.4818H196.229C199.944 89.4818 202.956 86.4697 202.956 82.7541C202.956 79.0385 199.944 76.0264 196.229 76.0264Z" fill="#81584A"/>
<path d="M181.073 48.376H168.447C157.985 48.376 149.504 56.8569 149.504 67.3186V89.7663C149.504 100.228 157.985 108.709 168.447 108.709H181.073C191.534 108.709 200.015 100.228 200.015 89.7663V67.3186C200.015 56.8569 191.534 48.376 181.073 48.376Z" fill="#9D6B5A"/>
<path d="M180.612 106.219H168.814C167.538 106.219 166.504 107.253 166.504 108.529C166.504 109.805 167.538 110.839 168.814 110.839H180.612C181.888 110.839 182.923 109.805 182.923 108.529C182.923 107.253 181.888 106.219 180.612 106.219Z" fill="#9D6B5A"/>
<path d="M168.818 166.164H162.901C160.079 166.164 157.791 167.972 157.791 170.203C157.791 172.434 160.079 174.242 162.901 174.242H168.818C171.64 174.242 173.927 172.434 173.927 170.203C173.927 167.972 171.64 166.164 168.818 166.164Z" fill="#9D6B5A"/>
<path d="M168.818 175.688H162.901C160.079 175.688 157.791 177.496 157.791 179.727C157.791 181.957 160.079 183.766 162.901 183.766H168.818C171.64 183.766 173.927 181.957 173.927 179.727C173.927 177.496 171.64 175.688 168.818 175.688Z" fill="#9D6B5A"/>
<path d="M168.818 185.212H162.901C160.079 185.212 157.791 187.02 157.791 189.251C157.791 191.482 160.079 193.29 162.901 193.29H168.818C171.64 193.29 173.927 191.482 173.927 189.251C173.927 187.02 171.64 185.212 168.818 185.212Z" fill="#9D6B5A"/>
<path d="M186.888 166.164H180.971C178.149 166.164 175.861 167.972 175.861 170.203C175.861 172.434 178.149 174.242 180.971 174.242H186.888C189.71 174.242 191.998 172.434 191.998 170.203C191.998 167.972 189.71 166.164 186.888 166.164Z" fill="#9D6B5A"/>
<path d="M186.888 175.688H180.971C178.149 175.688 175.861 177.496 175.861 179.727C175.861 181.957 178.149 183.766 180.971 183.766H186.888C189.71 183.766 191.998 181.957 191.998 179.727C191.998 177.496 189.71 175.688 186.888 175.688Z" fill="#9D6B5A"/>
<path d="M186.888 185.212H180.971C178.149 185.212 175.861 187.02 175.861 189.251C175.861 191.482 178.149 193.29 180.971 193.29H186.888C189.71 193.29 191.998 191.482 191.998 189.251C191.998 187.02 189.71 185.212 186.888 185.212Z" fill="#9D6B5A"/>
<path d="M168.925 124.368L160.663 120.396C159.743 119.954 158.64 120.341 158.198 121.261C157.756 122.18 158.143 123.284 159.062 123.726L167.325 127.697C168.244 128.139 169.348 127.752 169.79 126.833C170.232 125.913 169.845 124.81 168.925 124.368Z" fill="#81584A"/>
<path d="M178.766 124.368L187.029 120.396C187.948 119.954 189.052 120.341 189.494 121.26C189.936 122.18 189.549 123.284 188.629 123.726L180.367 127.697C179.447 128.139 178.344 127.752 177.902 126.833C177.46 125.913 177.847 124.81 178.766 124.368Z" fill="#81584A"/>
<path d="M147.73 199.281C146.092 199.281 144.512 199.525 143.018 199.973C144.768 217.772 157.96 231.523 174.085 231.523C190.417 231.523 203.743 217.415 205.215 199.281C205.213 199.281 205.212 199.281 205.21 199.281H147.73Z" fill="#4F4F4F"/>
<path d="M202.936 197.317H145.297C144.038 197.317 143.018 198.397 143.018 199.729V203.462C143.018 204.794 144.038 205.874 145.297 205.874H202.936C204.194 205.874 205.215 204.794 205.215 203.462V199.729C205.215 198.397 204.194 197.317 202.936 197.317Z" fill="#5B5B5B"/>
<path d="M175.682 103.391H172.252C171.978 103.391 171.756 103.613 171.756 103.887V104.18C171.756 104.454 171.978 104.676 172.252 104.676H175.682C175.956 104.676 176.178 104.454 176.178 104.18V103.887C176.178 103.613 175.956 103.391 175.682 103.391Z" fill="#81584A"/>
<path d="M178.281 81.7002C178.281 79.6518 176.621 77.9912 174.572 77.9912C172.524 77.9912 170.863 79.6518 170.863 81.7002V88.2454C170.863 90.2938 172.524 91.9543 174.572 91.9543C176.621 91.9543 178.281 90.2938 178.281 88.2454V81.7002Z" fill="#81584A"/>
<path d="M165.5 78.0536C165.5 76.7716 164.461 75.7324 163.179 75.7324C161.897 75.7324 160.857 76.7716 160.857 78.0536V78.9821C160.857 80.264 161.897 81.3032 163.179 81.3032C164.461 81.3032 165.5 80.264 165.5 78.9821V78.0536Z" fill="#61534B"/>
<path d="M188.015 78.0536C188.015 76.7716 186.976 75.7324 185.694 75.7324C184.412 75.7324 183.373 76.7716 183.373 78.0536V78.9821C183.373 80.264 184.412 81.3032 185.694 81.3032C186.976 81.3032 188.015 80.264 188.015 78.9821V78.0536Z" fill="#61534B"/>
<path d="M178.729 100.813C182.146 100.813 184.896 97.875 184.896 94.2252V93.1592H164.129V94.2252C164.129 97.875 166.88 100.813 170.296 100.813H178.729Z" fill="white"/>
<path d="M174.077 89.1533L170.628 86.2225C170.058 85.7382 169.203 85.8077 168.719 86.3775C168.235 86.9474 168.304 87.8019 168.874 88.2861L172.323 91.217C172.893 91.7012 173.748 91.6318 174.232 91.0619C174.716 90.492 174.647 89.6375 174.077 89.1533Z" fill="#81584A"/>
<path d="M175.068 89.1533L178.517 86.2225C179.087 85.7382 179.941 85.8077 180.426 86.3775C180.91 86.9474 180.84 87.8019 180.27 88.2861L176.821 91.217C176.251 91.7012 175.397 91.6317 174.913 91.0619C174.428 90.492 174.498 89.6375 175.068 89.1533Z" fill="#81584A"/>
<path d="M176.721 87.2698C176.721 86.287 175.925 85.4902 174.942 85.4902C173.959 85.4902 173.162 86.287 173.162 87.2698V88.8946C173.162 89.8775 173.959 90.6742 174.942 90.6742C175.925 90.6742 176.721 89.8775 176.721 88.8946V87.2698Z" fill="#906253"/>
<path d="M166.955 75.8814L159.562 73.8728C158.761 73.655 158.03 73.9428 157.931 74.5155C157.831 75.0882 158.4 75.729 159.201 75.9468L166.593 77.9553C167.395 78.1731 168.125 77.8853 168.225 77.3126C168.325 76.7399 167.756 76.0991 166.955 75.8814Z" fill="#4D4D4D"/>
<path d="M159.685 75.4691C159.749 75.0422 159.379 74.5652 158.859 74.4037C158.339 74.2422 157.866 74.4574 157.802 74.8842L157.536 76.6545C157.472 77.0814 157.842 77.5583 158.362 77.7198C158.881 77.8813 159.355 77.6662 159.419 77.2393L159.685 75.4691Z" fill="#4D4D4D"/>
<path d="M181.741 75.8814L189.133 73.8728C189.934 73.655 190.665 73.9428 190.765 74.5155C190.864 75.0882 190.296 75.729 189.494 75.9468L182.102 77.9553C181.301 78.1731 180.57 77.8853 180.47 77.3126C180.371 76.7399 180.939 76.0991 181.741 75.8814Z" fill="#4D4D4D"/>
<path d="M189.012 75.4691C188.948 75.0422 189.318 74.5652 189.838 74.4037C190.358 74.2422 190.831 74.4574 190.895 74.8842L191.161 76.6545C191.225 77.0814 190.856 77.5583 190.336 77.7198C189.816 77.8813 189.342 77.6662 189.278 77.2393L189.012 75.4691Z" fill="#4D4D4D"/>
<path d="M172.188 74.937C172.188 74.3629 171.723 73.8975 171.149 73.8975C170.575 73.8975 170.109 74.3629 170.109 74.937V76.1953C170.109 76.7694 170.575 77.2348 171.149 77.2348C171.723 77.2348 172.188 76.7694 172.188 76.1953V74.937Z" fill="#81584A"/>
<path d="M179.083 74.937C179.083 74.3629 178.617 73.8975 178.043 73.8975C177.469 73.8975 177.004 74.3629 177.004 74.937V76.1953C177.004 76.7694 177.469 77.2348 178.043 77.2348C178.617 77.2348 179.083 76.7694 179.083 76.1953V74.937Z" fill="#81584A"/>
<path d="M176.719 87.2669C176.719 86.284 175.923 85.4873 174.94 85.4873C173.957 85.4873 173.16 86.284 173.16 87.2669V88.8917C173.16 89.8745 173.957 90.6713 174.94 90.6713C175.923 90.6713 176.719 89.8745 176.719 88.8917V87.2669Z" fill="#906253"/>
<path d="M166.724 75.4463L159.33 74.4259C158.529 74.3153 157.9 74.6465 157.926 75.1657C157.953 75.6849 158.624 76.1954 159.425 76.306L166.819 77.3265C167.621 77.4371 168.249 77.1059 168.223 76.5867C168.197 76.0675 167.526 75.557 166.724 75.4463Z" fill="#4D4D4D"/>
<path d="M159.507 75.9912C159.491 75.5565 159.095 75.1313 158.623 75.0415C158.152 74.9517 157.783 75.2313 157.8 75.666L157.869 77.4686C157.886 77.9033 158.282 78.3285 158.753 78.4183C159.225 78.5081 159.593 78.2286 159.577 77.7939L159.507 75.9912Z" fill="#4D4D4D"/>
<path d="M182.177 75.0689L189.392 74.3982C190.174 74.3255 190.738 74.7723 190.65 75.396C190.563 76.0198 189.858 76.5844 189.076 76.6571L181.861 77.3278C181.078 77.4005 180.515 76.9537 180.603 76.33C180.69 75.7062 181.395 75.1416 182.177 75.0689Z" fill="#4D4D4D"/>
<path d="M189.318 76.1716C189.363 75.7214 189.724 75.3144 190.124 75.2626C190.523 75.2109 190.811 75.534 190.766 75.9843L190.578 77.8516C190.533 78.3018 190.172 78.7088 189.772 78.7606C189.372 78.8123 189.085 78.4892 189.13 78.0389L189.318 76.1716Z" fill="#4D4D4D"/>
<path d="M201.573 70.8506C201.477 70.8427 201.381 70.8425 201.283 70.8515C201.172 70.8616 201.059 70.8832 200.948 70.9167L200.719 70.9853C199.977 71.2081 199.512 71.8925 199.529 72.6294C199.457 72.5263 199.371 72.4364 199.28 72.3533V74.6365C202.492 75.9678 204.741 79.1279 204.741 82.8333C204.741 86.5584 202.468 89.7314 199.228 91.0501C199.135 92.3806 198.9 93.6696 198.545 94.9072V96.1839C198.463 96.0524 198.365 95.9322 198.256 95.8225C196.641 100.521 193.208 104.357 188.786 106.498V109.363C188.786 110.515 189.714 111.442 190.866 111.442H191.826C192.978 111.442 193.906 110.515 193.906 109.363V108.803C194.218 109.556 194.958 110.083 195.826 110.083H196.785C197.938 110.083 198.865 109.155 198.865 108.003V107.344C199.232 107.931 199.879 108.323 200.625 108.323C201.777 108.323 202.705 107.395 202.705 106.243V94.5608L203.132 95.9839C203.4 96.8752 204.334 97.3778 205.225 97.1101C206.116 96.8424 206.618 95.9088 206.35 95.0176L204.069 87.4224C204.489 87.8949 205.156 88.1106 205.804 87.916L206.034 87.8466C206.925 87.5789 207.427 86.6462 207.159 85.7549L203.04 72.042C202.835 71.3597 202.24 70.9059 201.573 70.8506V70.8506ZM147.5 70.9635C146.833 71.0188 146.238 71.4726 146.033 72.155L141.914 85.8678C141.646 86.7591 142.148 87.6918 143.039 87.9595L143.269 88.0289C143.917 88.2235 144.584 88.0078 145.004 87.5353L142.723 95.1305C142.455 96.0218 142.957 96.9553 143.848 97.223C144.739 97.4907 145.673 96.989 145.941 96.0977L146.027 95.8107V106.243C146.027 107.395 146.954 108.323 148.106 108.323C148.852 108.323 149.499 107.931 149.866 107.344V108.003C149.866 109.155 150.793 110.083 151.945 110.083H152.906C153.773 110.083 154.512 109.557 154.825 108.806V109.363C154.825 110.515 155.753 111.442 156.905 111.442H157.865C159.017 111.442 159.945 110.515 159.945 109.363V106.423C155.564 104.251 152.173 100.408 150.592 95.7145C150.435 95.8506 150.296 96.0069 150.186 96.1839V94.339C149.917 93.2763 149.736 92.1781 149.657 91.0501C146.417 89.7313 144.143 86.5583 144.143 82.8333C144.143 79.1279 146.392 75.9678 149.605 74.6365V72.6678C149.585 72.6931 149.563 72.7158 149.544 72.7423C149.561 72.0057 149.096 71.321 148.354 71.0983L148.125 71.0296C148.014 70.9962 147.901 70.9745 147.79 70.9644C147.692 70.9555 147.596 70.9556 147.5 70.9635V70.9635Z" fill="#4D4D4D"/>
<path d="M154.608 55.4863C151.014 58.8287 148.764 63.659 148.764 69.0486V90.729C148.764 100.865 156.722 109.024 166.608 109.024H182.269C192.155 109.024 200.113 100.865 200.113 90.729V69.0486C200.113 63.659 197.863 58.8287 194.269 55.4863C197.007 58.7461 198.663 62.992 198.663 67.6514V89.7267C198.663 100.047 190.56 108.355 180.494 108.355H168.384C158.318 108.355 150.214 100.047 150.214 89.7267V67.6514C150.214 62.992 151.87 58.7461 154.608 55.4863Z" fill="#565656"/>
<path d="M165.09 108.815C165.09 107.847 164.325 107.062 163.38 107.062C162.436 107.062 161.67 107.847 161.67 108.815V110.851C161.67 111.819 162.436 112.604 163.38 112.604C164.325 112.604 165.09 111.819 165.09 110.851V108.815Z" fill="#565656"/>
<path d="M168.289 110.413C168.289 109.444 167.524 108.659 166.579 108.659C165.635 108.659 164.869 109.444 164.869 110.413V112.449C164.869 113.417 165.635 114.202 166.579 114.202C167.524 114.202 168.289 113.417 168.289 112.449V110.413Z" fill="#565656"/>
<path d="M171.448 111.294C171.448 110.326 170.682 109.541 169.737 109.541C168.793 109.541 168.027 110.326 168.027 111.294V113.331C168.027 114.299 168.793 115.084 169.737 115.084C170.682 115.084 171.448 114.299 171.448 113.331V111.294Z" fill="#565656"/>
<path d="M174.569 111.494C174.569 110.525 173.803 109.74 172.859 109.74C171.914 109.74 171.148 110.525 171.148 111.494V113.53C171.148 114.498 171.914 115.283 172.859 115.283C173.803 115.283 174.569 114.498 174.569 113.53V111.494Z" fill="#565656"/>
<path d="M162.211 105.3C162.211 104.144 161.297 103.207 160.17 103.207C159.043 103.207 158.129 104.144 158.129 105.3V107.73C158.129 108.886 159.043 109.823 160.17 109.823C161.297 109.823 162.211 108.886 162.211 107.73V105.3Z" fill="#565656"/>
<path d="M158.68 103.152C158.68 101.997 157.766 101.06 156.639 101.06C155.512 101.06 154.598 101.997 154.598 103.152V105.583C154.598 106.738 155.512 107.675 156.639 107.675C157.766 107.675 158.68 106.738 158.68 105.583V103.152Z" fill="#565656"/>
<path d="M155.701 100.55C155.701 99.394 154.788 98.457 153.66 98.457C152.533 98.457 151.619 99.394 151.619 100.55V102.98C151.619 104.136 152.533 105.073 153.66 105.073C154.788 105.073 155.701 104.136 155.701 102.98V100.55Z" fill="#565656"/>
<path d="M183.789 108.815C183.789 107.847 184.554 107.062 185.499 107.062C186.443 107.062 187.209 107.847 187.209 108.815V110.851C187.209 111.819 186.443 112.604 185.499 112.604C184.554 112.604 183.789 111.819 183.789 110.851V108.815Z" fill="#565656"/>
<path d="M180.588 110.413C180.588 109.444 181.353 108.659 182.298 108.659C183.242 108.659 184.008 109.444 184.008 110.413V112.449C184.008 113.417 183.242 114.202 182.298 114.202C181.353 114.202 180.588 113.417 180.588 112.449V110.413Z" fill="#565656"/>
<path d="M177.429 111.294C177.429 110.326 178.195 109.541 179.139 109.541C180.084 109.541 180.85 110.326 180.85 111.294V113.331C180.85 114.299 180.084 115.084 179.139 115.084C178.195 115.084 177.429 114.299 177.429 113.331V111.294Z" fill="#565656"/>
<path d="M174.308 111.494C174.308 110.525 175.074 109.74 176.018 109.74C176.963 109.74 177.729 110.525 177.729 111.494V113.53C177.729 114.498 176.963 115.283 176.018 115.283C175.074 115.283 174.308 114.498 174.308 113.53V111.494Z" fill="#565656"/>
<path d="M186.666 105.3C186.666 104.144 187.58 103.207 188.707 103.207C189.834 103.207 190.748 104.144 190.748 105.3V107.73C190.748 108.886 189.834 109.823 188.707 109.823C187.58 109.823 186.666 108.886 186.666 107.73V105.3Z" fill="#565656"/>
<path d="M190.199 103.153C190.199 101.998 191.113 101.061 192.24 101.061C193.367 101.061 194.281 101.998 194.281 103.153V105.584C194.281 106.739 193.367 107.676 192.24 107.676C191.113 107.676 190.199 106.739 190.199 105.584V103.153Z" fill="#565656"/>
<path d="M193.176 100.55C193.176 99.394 194.089 98.457 195.217 98.457C196.344 98.457 197.258 99.394 197.258 100.55V102.98C197.258 104.136 196.344 105.073 195.217 105.073C194.089 105.073 193.176 104.136 193.176 102.98V100.55Z" fill="#565656"/>
<path d="M166.711 88.1807C162.72 88.1807 159.508 91.4744 159.508 95.5659V104.205C159.508 108.297 162.72 111.59 166.711 111.59H182.167C186.157 111.59 189.37 108.297 189.37 104.205V95.5659C189.37 91.4744 186.157 88.1807 182.167 88.1807H180.654C180.708 88.6307 180.546 89.0979 180.183 89.4147L179.572 89.9469C179.934 90.2954 180.204 90.7448 180.321 91.2596H182.417C184.648 91.2596 186.444 93.1007 186.444 95.3885V99.1033C186.444 99.9713 186.185 100.774 185.742 101.438V102.457C185.742 105.723 183.178 108.352 179.993 108.352H168.885C165.699 108.352 163.135 105.723 163.135 102.457V101.438C162.692 100.774 162.433 99.9713 162.433 99.1033V95.3885C162.433 93.1007 164.229 91.2596 166.46 91.2596H167.779C167.937 90.5668 168.363 89.986 168.935 89.6247L168.695 89.4147C168.331 89.0979 168.17 88.6307 168.223 88.1807H166.711Z" fill="#565656"/>
<path d="M163.336 48C153.928 48 146.354 55.5738 146.354 64.9817C146.354 65.4236 146.376 65.8596 146.409 66.2928C146.376 66.5144 146.354 66.7395 146.354 66.9705V77.3735C146.354 79.6059 147.932 81.4556 150.038 81.8739V68.2983C150.038 58.5802 157.862 50.756 167.58 50.756H181.305C191.023 50.756 198.847 58.5802 198.847 68.2983V81.8923C201.013 81.5219 202.654 79.6484 202.654 77.3735V66.9705C202.654 66.7395 202.632 66.5144 202.599 66.2928C202.632 65.8596 202.654 65.4236 202.654 64.9817C202.654 55.5738 195.08 48 185.672 48H163.336Z" fill="#4D4D4D"/>
<path d="M182.608 45.8584H167.309C162.155 45.8584 157.977 50.0366 157.977 55.1908C157.977 60.3449 162.155 64.5231 167.309 64.5231H182.608C187.762 64.5231 191.94 60.3449 191.94 55.1908C191.94 50.0366 187.762 45.8584 182.608 45.8584Z" fill="#4D4D4D"/>
<path d="M163.179 51.7875C163.179 50.33 161.997 49.1484 160.539 49.1484C159.082 49.1484 157.9 50.33 157.9 51.7875V57.9071C157.9 59.3646 159.082 60.5462 160.539 60.5462C161.997 60.5462 163.179 59.3646 163.179 57.9071V51.7875Z" fill="#4D4D4D"/>
<path d="M193.165 52.017C193.165 50.5595 191.983 49.3779 190.526 49.3779C189.068 49.3779 187.887 50.5595 187.887 52.017V58.1366C187.887 59.5941 189.068 60.7757 190.526 60.7757C191.983 60.7757 193.165 59.5941 193.165 58.1366V52.017Z" fill="#4D4D4D"/>
<path d="M156.895 54.8036C156.757 53.8418 155.865 53.1742 154.904 53.3123C153.942 53.4505 153.274 54.3422 153.412 55.304L153.858 58.4084C153.996 59.3702 154.888 60.0379 155.85 59.8997C156.812 59.7616 157.479 58.8699 157.341 57.9081L156.895 54.8036Z" fill="#4D4D4D"/>
<path d="M194.208 55.5605C194.346 54.5987 195.238 53.931 196.2 54.0692C197.162 54.2073 197.829 55.099 197.691 56.0608L197.245 59.1653C197.107 60.1271 196.215 60.7947 195.254 60.6566C194.292 60.5184 193.624 59.6267 193.762 58.6649L194.208 55.5605Z" fill="#4D4D4D"/>
<path d="M173.121 50.4932H174.768C175.74 50.4932 176.527 51.2809 176.527 52.2525V58.6781C176.527 59.6498 175.74 60.4375 174.768 60.4375H173.121C172.149 60.4375 171.361 59.6498 171.361 58.6781V52.2525C171.361 51.2809 172.149 50.4932 173.121 50.4932Z" fill="#565656"/>
<path d="M166.011 50.6836H168.186C168.946 50.6836 169.562 51.3001 169.562 52.0605V58.8685C169.562 59.629 168.946 60.2454 168.186 60.2454H166.011C165.25 60.2454 164.634 59.629 164.634 58.8685V52.0605C164.634 51.3001 165.25 50.6836 166.011 50.6836Z" fill="#565656"/>
<path d="M181.876 50.6836H179.701C178.941 50.6836 178.324 51.3001 178.324 52.0605V58.8685C178.324 59.629 178.941 60.2454 179.701 60.2454H181.876C182.636 60.2454 183.253 59.629 183.253 58.8685V52.0605C183.253 51.3001 182.636 50.6836 181.876 50.6836Z" fill="#565656"/>
</svg>
