<svg width="474" height="468" viewBox="0 0 474 468" fill="none" xmlns="http://www.w3.org/2000/svg">
<path d="M473.655 234.055C473.655 264.743 467.53 295.13 455.629 323.482C443.728 351.834 426.284 377.595 404.294 399.294C382.304 420.994 356.198 438.207 327.466 449.951C298.734 461.694 267.94 467.739 236.841 467.739C205.742 467.739 174.948 461.694 146.216 449.951C117.485 438.207 91.3787 420.994 69.3885 399.294C47.3983 377.595 29.9547 351.834 18.0537 323.482C6.15271 295.13 0.0273415 264.742 0.0273438 234.055C0.0273489 172.078 24.9773 112.639 69.3885 68.815C113.8 24.9907 174.034 0.370486 236.841 0.370483C267.94 0.37048 298.734 6.4149 327.466 18.1586C356.198 29.9023 382.304 47.1154 404.294 68.815C426.284 90.5146 443.728 116.276 455.629 144.628C467.53 172.979 473.655 203.367 473.655 234.055Z" fill="#99D5DA"/>
<path d="M287.488 182.406L282.794 184.805C277.785 187.364 275.813 193.458 278.373 198.467L303.845 248.315C306.404 253.324 312.497 255.296 317.507 252.736L322.2 250.338C327.209 247.778 329.181 241.685 326.622 236.676L301.15 186.828C298.59 181.819 292.497 179.847 287.488 182.406Z" fill="#68371E"/>
<path d="M304.5 210.663C300.995 212.105 299.335 216.087 300.776 219.591L302.669 224.192C304.11 227.696 308.092 229.357 311.597 227.915C315.101 226.474 316.762 222.492 315.32 218.987L313.428 214.387C311.986 210.882 308.004 209.221 304.5 210.663V210.663Z" fill="#773F23"/>
<path d="M226.797 373.197L227.574 373.086C236.856 371.76 245.395 378.166 246.72 387.447L249.428 406.41C250.754 415.692 244.348 424.231 235.066 425.557L234.29 425.667C225.008 426.993 216.469 420.588 215.143 411.306L212.435 392.343C211.11 383.061 217.515 374.522 226.797 373.197Z" fill="#68371E"/>
<path d="M213.698 290.754H216.693C223.81 290.754 230.599 298.015 231.914 307.033L252.72 449.702C254.035 458.721 249.364 465.981 242.247 465.981H239.252C232.135 465.981 225.346 458.721 224.031 449.702L203.226 307.033C201.91 298.015 206.581 290.754 213.698 290.754V290.754Z" fill="#773F23"/>
<path d="M200.852 290.754H229.54L238.971 355.426H210.283L200.852 290.754Z" fill="#62341C"/>
<path d="M224.208 436.261H238.44C246.673 436.261 253.3 442.889 253.3 451.121C253.3 459.354 246.673 465.982 238.44 465.982H224.208C215.975 465.982 209.348 459.354 209.348 451.121C209.348 442.889 215.975 436.261 224.208 436.261Z" fill="#854727"/>
<path d="M214.269 449.704H248.379C251.106 449.704 253.3 451.898 253.3 454.625V461.061C253.3 463.787 251.106 465.982 248.379 465.982H214.269C211.542 465.982 209.348 463.787 209.348 461.061V454.625C209.348 451.898 211.542 449.704 214.269 449.704Z" fill="#854727"/>
<path d="M189.842 185.46L194.576 187.741C199.628 190.176 201.744 196.221 199.32 201.295L175.202 251.789C172.779 256.863 166.76 258.988 161.708 256.553L156.975 254.272C151.923 251.838 149.806 245.793 152.23 240.719L176.348 190.225C178.772 185.151 184.79 183.026 189.842 185.46Z" fill="#68371E"/>
<path d="M179.757 212.388C183.078 214.189 184.303 218.314 182.504 221.637L180.143 226C178.344 229.324 174.222 230.55 170.901 228.749C167.58 226.948 166.355 222.823 168.154 219.499L170.516 215.136C172.314 211.813 176.436 210.587 179.757 212.388V212.388Z" fill="#773F23"/>
<path d="M157.278 239.26C163.284 235.329 171.283 236.999 175.213 243.005L201.433 283.066C205.364 289.071 203.693 297.07 197.688 301C191.683 304.931 183.684 303.261 179.753 297.255L153.533 257.194C149.603 251.189 151.273 243.19 157.278 239.26V239.26Z" fill="#773F23"/>
<path d="M187.312 261.49C179.4 263.953 173.688 271.312 173.688 280.055V287.988L179.753 297.255C183.683 303.26 191.682 304.931 197.688 301C203.693 297.07 205.364 289.071 201.433 283.065L187.312 261.49Z" fill="#68371E"/>
<path d="M197.446 267.467H202.264C204.266 267.467 205.878 269.079 205.878 271.081V276.803C205.878 278.805 204.266 280.416 202.264 280.416H197.446C195.444 280.416 193.832 278.805 193.832 276.803V271.081C193.832 269.079 195.444 267.467 197.446 267.467Z" fill="#773F23"/>
<path d="M240.346 208.815C258.579 208.815 273.258 230.538 273.258 257.522V292.712C273.258 319.696 258.579 341.419 240.346 341.419C222.112 341.419 207.434 319.696 207.434 292.712V257.522C207.434 230.538 222.112 208.815 240.346 208.815V208.815Z" fill="#62341C"/>
<path d="M240.228 159.708C262.393 159.708 280.237 173.933 280.237 191.603C280.237 209.274 262.393 223.499 240.228 223.499C218.063 223.499 200.219 209.274 200.219 191.603C200.219 173.933 218.063 159.708 240.228 159.708Z" fill="#68371E"/>
<path d="M197.696 171.072H283.957C293.324 171.072 300.864 179.543 300.864 190.065C300.864 200.587 293.324 209.057 283.957 209.057H197.696C188.33 209.057 180.789 200.587 180.789 190.065C180.789 179.543 188.33 171.072 197.696 171.072Z" fill="#68371E"/>
<path d="M240.348 170.282C262.381 170.282 280.119 193 280.119 221.22C280.119 249.439 262.381 272.157 240.348 272.157C218.316 272.157 200.578 249.439 200.578 221.22C200.578 193 218.316 170.282 240.348 170.282V170.282Z" fill="#62341C"/>
<path d="M217.841 168.56H262.604C274.188 168.56 283.515 180.972 283.515 196.39V213.164C283.515 228.582 274.188 240.995 262.604 240.995H217.841C206.256 240.995 196.93 228.582 196.93 213.164V196.39C196.93 180.972 206.256 168.56 217.841 168.56Z" fill="#68371E"/>
<path d="M287.397 174.424C280.502 176.24 276.412 183.253 278.228 190.149L281.221 201.513C283.037 208.408 290.05 212.498 296.945 210.682C303.841 208.866 307.93 201.853 306.114 194.957L303.122 183.593C301.306 176.698 294.293 172.608 287.397 174.424Z" fill="#773F23"/>
<path d="M237.553 239.446H243.147C256.529 239.446 267.302 252.334 267.302 268.342V289.22C267.302 305.228 256.529 318.116 243.147 318.116H237.553C224.171 318.116 213.398 305.228 213.398 289.22V268.342C213.398 252.334 224.171 239.446 237.553 239.446V239.446Z" fill="#68371E"/>
<path d="M192.141 173.742C198.795 176.303 202.091 183.722 199.529 190.377L195.308 201.345C192.747 207.999 185.328 211.294 178.673 208.733C172.018 206.172 168.723 198.752 171.284 192.098L175.506 181.13C178.067 174.476 185.486 171.181 192.141 173.742Z" fill="#773F23"/>
<path d="M214.324 172.353H266.124C275.405 172.353 282.878 182.986 282.878 196.194V210.563C282.878 223.771 275.405 234.404 266.124 234.404H214.324C205.043 234.404 197.57 223.771 197.57 210.563V196.194C197.57 182.986 205.043 172.353 214.324 172.353Z" fill="#783F23" fill-opacity="0.996078"/>
<path d="M236.452 227.445C238.336 227.445 239.853 229.552 239.853 232.17V241.334C239.853 243.951 238.336 246.058 236.452 246.058C234.568 246.058 233.051 243.951 233.051 241.334V232.17C233.051 229.552 234.568 227.445 236.452 227.445Z" fill="#68371E"/>
<path d="M240.349 123.194C248.939 123.194 255.854 136.709 255.854 153.496V165.928C255.854 182.715 248.939 196.23 240.349 196.23C231.759 196.23 224.844 182.715 224.844 165.928V153.496C224.844 136.709 231.759 123.194 240.349 123.194Z" fill="#773F23"/>
<path d="M212.08 224.897H215.323C216.62 224.897 217.665 225.983 217.665 227.331C217.665 228.68 216.62 229.766 215.323 229.766H212.08C210.783 229.766 209.738 228.68 209.738 227.331C209.738 225.983 210.783 224.897 212.08 224.897Z" fill="#62341C"/>
<path d="M265.088 224.897H268.33C269.628 224.897 270.672 225.983 270.672 227.331C270.672 228.68 269.628 229.766 268.33 229.766H265.088C263.791 229.766 262.746 228.68 262.746 227.331C262.746 225.983 263.791 224.897 265.088 224.897Z" fill="#62341C"/>
<path d="M232.745 125.771H239.009C246.221 125.771 252.027 133.22 252.027 142.473V149.324C252.027 158.577 246.221 166.026 239.009 166.026H232.745C225.533 166.026 219.727 158.577 219.727 149.324V142.473C219.727 133.22 225.533 125.771 232.745 125.771V125.771Z" fill="#68371E"/>
<path d="M188.286 172.002H190.596C196.782 172.002 201.762 177.417 201.762 184.142C201.762 190.867 196.782 196.281 190.596 196.281H188.286C182.101 196.281 177.121 190.867 177.121 184.142C177.121 177.417 182.101 172.002 188.286 172.002Z" fill="#773F23"/>
<path d="M287.923 173.187H290.233C296.419 173.187 301.399 178.601 301.399 185.326C301.399 192.051 296.419 197.465 290.233 197.465H287.923C281.738 197.465 276.758 192.051 276.758 185.326C276.758 178.601 281.738 173.187 287.923 173.187Z" fill="#773F23"/>
<path d="M186.973 176.081H190.438C192.358 176.081 193.903 177.761 193.903 179.848C193.903 181.935 192.358 183.616 190.438 183.616H186.973C185.053 183.616 183.508 181.935 183.508 179.848C183.508 177.761 185.053 176.081 186.973 176.081Z" fill="#854727"/>
<path d="M290.969 176.377H294.434C296.354 176.377 297.899 178.057 297.899 180.144C297.899 182.231 296.354 183.912 294.434 183.912H290.969C289.049 183.912 287.504 182.231 287.504 180.144C287.504 178.057 289.049 176.377 290.969 176.377Z" fill="#854727"/>
<path d="M334.047 226.749C339.362 231.278 339.995 239.204 335.465 244.519L326.504 255.033C321.975 260.348 314.049 260.98 308.734 256.451C303.419 251.921 302.786 243.995 307.316 238.68L316.277 228.166C320.806 222.851 328.732 222.219 334.047 226.749Z" fill="#773F23"/>
<path d="M340.392 215.848C345.772 218.7 347.807 225.328 344.955 230.708L339.313 241.351C336.46 246.731 329.833 248.767 324.452 245.914C319.072 243.062 317.037 236.434 319.889 231.054L325.531 220.411C328.383 215.031 335.011 212.995 340.392 215.848Z" fill="#68371E"/>
<path d="M333.729 204.153H342.038C347.605 204.153 352.087 208.635 352.087 214.202V231.766C352.087 237.333 347.605 241.815 342.038 241.815H333.729C328.162 241.815 323.68 237.333 323.68 231.766V214.202C323.68 208.635 328.162 204.153 333.729 204.153Z" fill="#773F23"/>
<path d="M324.24 210.362H324.608C326.903 210.362 328.75 212.21 328.75 214.505V221.162C328.75 223.457 326.903 225.305 324.608 225.305H324.24C321.945 225.305 320.098 223.457 320.098 221.162V214.505C320.098 212.21 321.945 210.362 324.24 210.362Z" fill="#854727"/>
<path d="M345.529 207.551H345.811C347.573 207.551 348.992 208.97 348.992 210.732V216.502C348.992 218.264 347.573 219.683 345.811 219.683H345.529C343.766 219.683 342.348 218.264 342.348 216.502V210.732C342.348 208.97 343.766 207.551 345.529 207.551Z" fill="#854727"/>
<path d="M238.693 441.465H241.949C244.573 441.465 246.685 443.577 246.685 446.201C246.685 448.824 244.573 450.937 241.949 450.937H238.693C236.069 450.937 233.957 448.824 233.957 446.201C233.957 443.577 236.069 441.465 238.693 441.465Z" fill="#97512C"/>
<path d="M268.473 106.748L266.082 128.787C264.488 143.483 244.342 160.494 234.858 160.494H223.447C213.963 160.494 203.201 143.613 202.362 128.787L201.114 106.748C200.672 83.0916 216.909 73.8016 235.049 75.0707C253.189 76.3399 270.846 88.1681 268.473 106.748Z" fill="#68371E"/>
<path d="M227.638 249.573H234.253C237.417 249.573 239.965 252.402 239.965 255.915C239.965 259.429 237.417 262.258 234.253 262.258H227.638C224.474 262.258 221.926 259.429 221.926 255.915C221.926 252.402 224.474 249.573 227.638 249.573Z" fill="#773F23"/>
<path d="M227.638 264.527H234.253C237.417 264.527 239.965 267.356 239.965 270.87C239.965 274.383 237.417 277.212 234.253 277.212H227.638C224.474 277.212 221.926 274.383 221.926 270.87C221.926 267.356 224.474 264.527 227.638 264.527Z" fill="#773F23"/>
<path d="M227.638 279.482H234.253C237.417 279.482 239.965 282.31 239.965 285.824C239.965 289.337 237.417 292.166 234.253 292.166H227.638C224.474 292.166 221.926 289.337 221.926 285.824C221.926 282.31 224.474 279.482 227.638 279.482Z" fill="#773F23"/>
<path d="M247.845 249.573H254.46C257.624 249.573 260.172 252.402 260.172 255.915C260.172 259.429 257.624 262.258 254.46 262.258H247.845C244.681 262.258 242.133 259.429 242.133 255.915C242.133 252.402 244.681 249.573 247.845 249.573Z" fill="#773F23"/>
<path d="M247.845 264.527H254.46C257.624 264.527 260.172 267.356 260.172 270.87C260.172 274.383 257.624 277.212 254.46 277.212H247.845C244.681 277.212 242.133 274.383 242.133 270.87C242.133 267.356 244.681 264.527 247.845 264.527Z" fill="#773F23"/>
<path d="M247.845 279.482H254.46C257.624 279.482 260.172 282.31 260.172 285.824C260.172 289.337 257.624 292.166 254.46 292.166H247.845C244.681 292.166 242.133 289.337 242.133 285.824C242.133 282.31 244.681 279.482 247.845 279.482Z" fill="#773F23"/>
<path d="M224.102 180.576L232.012 184.69C232.894 185.149 233.264 186.287 232.839 187.243C232.415 188.198 231.362 188.597 230.479 188.138L222.57 184.025C221.687 183.565 221.318 182.427 221.742 181.472C222.167 180.517 223.219 180.117 224.102 180.576V180.576Z" fill="#68371E"/>
<path d="M248.597 180.576L240.687 184.69C239.804 185.149 239.435 186.287 239.86 187.243C240.284 188.198 241.336 188.597 242.219 188.138L250.129 184.025C251.012 183.565 251.381 182.427 250.956 181.472C250.532 180.517 249.479 180.117 248.597 180.576V180.576Z" fill="#68371E"/>
<path d="M249.065 301.801L249.644 301.107C254.301 295.541 262.531 294.807 268.098 299.463L318.688 341.777C324.255 346.433 324.988 354.663 320.332 360.23L319.752 360.923C315.096 366.49 306.866 367.223 301.299 362.567L250.709 320.254C245.142 315.598 244.409 307.368 249.065 301.801Z" fill="#62341C"/>
<path d="M207.695 297.925C205.669 297.925 203.713 298.259 201.863 298.872C204.029 323.236 220.357 342.058 240.313 342.058C260.527 342.058 277.019 322.747 278.84 297.925C278.838 297.925 278.836 297.925 278.833 297.925H207.695Z" fill="#4F4F4F"/>
<path d="M203.682 295.236H276.445C278.039 295.236 279.322 296.708 279.322 298.537V303.647C279.322 305.476 278.039 306.948 276.445 306.948H203.682C202.088 306.948 200.805 305.476 200.805 303.647V298.537C200.805 296.708 202.088 295.236 203.682 295.236Z" fill="#5B5B5B"/>
<path d="M223.198 370.688H227.509C230.653 370.688 233.549 373.192 234.002 376.303L234.604 380.432C235.058 383.543 232.893 386.047 229.749 386.047H225.437C222.294 386.047 219.398 383.543 218.944 380.432L218.342 376.303C217.889 373.192 220.054 370.688 223.198 370.688Z" fill="#854727"/>
<path d="M195.082 273.153H198.821C205.626 273.153 211.105 278.632 211.105 285.438V301.462C211.105 308.268 205.626 313.747 198.821 313.747H195.082C188.276 313.747 182.797 308.268 182.797 301.462V285.438C182.797 278.632 188.276 273.153 195.082 273.153V273.153Z" fill="#773F23"/>
<path d="M166.439 240.093C169.509 238.2 173.505 239.147 175.398 242.217L182.235 253.3C184.128 256.37 183.181 260.367 180.111 262.26C177.041 264.154 173.045 263.207 171.151 260.137L164.315 249.053C162.421 245.983 163.368 241.987 166.439 240.093V240.093Z" fill="#854727"/>
<path d="M191.887 276.568H195.018C197.779 276.568 200.003 278.791 200.003 281.553V287.855C200.003 290.616 197.779 292.839 195.018 292.839H191.887C189.125 292.839 186.902 290.616 186.902 287.855V281.553C186.902 278.791 189.125 276.568 191.887 276.568Z" fill="#854727"/>
<path d="M205.804 207.243C208.368 207.243 210.432 209.476 210.432 212.25V212.965C210.432 215.739 208.368 217.972 205.804 217.972C203.24 217.972 201.176 215.739 201.176 212.965V212.25C201.176 209.476 203.24 207.243 205.804 207.243Z" fill="#854727"/>
<path d="M273.214 208.241C275.778 208.241 277.842 210.474 277.842 213.248V213.963C277.842 216.737 275.778 218.97 273.214 218.97C270.65 218.97 268.586 216.737 268.586 213.963V213.248C268.586 210.474 270.65 208.241 273.214 208.241Z" fill="#854727"/>
<path d="M213.305 240.641L219.51 244.027C220.852 244.759 221.468 246.558 220.891 248.059C220.313 249.561 218.768 250.18 217.426 249.448L211.221 246.062C209.879 245.329 209.263 243.53 209.841 242.029C210.418 240.527 211.963 239.908 213.305 240.641V240.641Z" fill="#68371E"/>
<path d="M268.995 240.641L262.791 244.027C261.449 244.759 260.833 246.558 261.41 248.059C261.988 249.561 263.533 250.18 264.875 249.448L271.08 246.062C272.422 245.329 273.037 243.531 272.46 242.029C271.883 240.527 270.337 239.908 268.995 240.641Z" fill="#68371E"/>
<path d="M216.735 307.412C224.552 306.076 231.977 311.625 233.383 319.853L236.059 335.518C237.464 343.746 232.303 351.445 224.486 352.781C216.669 354.116 209.244 348.567 207.839 340.339L205.162 324.674C203.757 316.446 208.918 308.747 216.735 307.412Z" fill="#62341C"/>
<path d="M281.994 329.413L282.608 328.679C287.264 323.112 295.494 322.379 301.061 327.035L318.686 341.776C324.253 346.433 324.986 354.663 320.33 360.23L319.717 360.963C315.06 366.53 306.83 367.264 301.263 362.607L283.639 347.866C278.072 343.21 277.338 334.98 281.994 329.413V329.413Z" fill="#68371E"/>
<path d="M241.347 371.747C237.717 372.744 234.433 375.049 232.248 378.493L223.06 392.979C218.398 400.328 220.56 409.997 227.909 414.658C234.21 418.656 242.214 417.631 247.308 412.626L241.347 371.747Z" fill="#68371E"/>
<path d="M274.52 345.806L289.265 341.898C298.015 339.58 306.926 344.757 309.244 353.507L309.365 353.963C311.684 362.713 306.506 371.623 297.756 373.942L283.011 377.849C274.262 380.168 265.351 374.99 263.032 366.24L262.912 365.785C260.593 357.035 265.771 348.124 274.52 345.806Z" fill="#773F23"/>
<path d="M256.343 363.704C263.692 368.366 265.855 378.035 261.193 385.384L252.004 399.87C247.342 407.219 237.673 409.382 230.324 404.72C222.975 400.058 220.812 390.389 225.474 383.04L234.663 368.554C239.325 361.206 248.994 359.043 256.343 363.704Z" fill="#773F23"/>
<path d="M238.973 378.25L238.716 377.384C236.651 370.426 240.591 363.163 247.548 361.098L310.777 342.338C317.734 340.273 324.998 344.213 327.062 351.17L327.319 352.037C329.383 358.994 325.444 366.258 318.486 368.322L255.258 387.083C248.301 389.147 241.037 385.208 238.973 378.25Z" fill="#773F23"/>
<path d="M318.621 353.47C319.393 355.674 318.241 358.071 316.036 358.843L311.631 360.387C309.427 361.159 307.03 360.007 306.258 357.802C305.485 355.598 306.638 353.201 308.842 352.429L313.248 350.885C315.452 350.113 317.848 351.266 318.621 353.47Z" fill="#854727"/>
<path d="M231.534 388.535C234.37 388.535 236.653 390.818 236.653 393.655V395.01C236.653 397.846 234.37 400.13 231.534 400.13C228.697 400.13 226.414 397.846 226.414 395.01V393.655C226.414 390.818 228.697 388.535 231.534 388.535Z" fill="#854727"/>
<path d="M261.256 106.748L259.121 128.787C257.698 143.483 239.71 160.494 231.242 160.494H221.054C212.586 160.494 202.976 143.613 202.227 128.787L201.113 106.748C200.718 83.0916 215.216 73.8016 231.413 75.0707C247.609 76.3399 263.375 88.1681 261.256 106.748Z" fill="#773F23"/>
<path d="M256.012 112.065H262.855C266.97 112.065 270.282 115.377 270.282 119.492V128.43C270.282 132.544 266.97 135.856 262.855 135.856H256.012C251.898 135.856 248.586 132.544 248.586 128.43V119.492C248.586 115.377 251.898 112.065 256.012 112.065Z" fill="#773F23"/>
<path d="M257.275 116.783H261.308C263.732 116.783 265.684 118.735 265.684 121.16V126.427C265.684 128.852 263.732 130.804 261.308 130.804H257.275C254.85 130.804 252.898 128.852 252.898 126.427V121.16C252.898 118.735 254.85 116.783 257.275 116.783Z" fill="#68371E"/>
<path d="M250.568 109.105H252.958C255.382 109.105 257.334 111.057 257.334 113.482V136.651C257.334 139.076 255.382 141.028 252.958 141.028H250.568C248.143 141.028 246.191 139.076 246.191 136.651V113.482C246.191 111.057 248.143 109.105 250.568 109.105Z" fill="#773F23"/>
<path d="M217.213 151.07H225.278C227.66 151.07 229.577 152.988 229.577 155.37V156.3C229.577 158.682 227.66 160.6 225.278 160.6H217.213C214.832 160.6 212.914 158.682 212.914 156.3V155.37C212.914 152.988 214.832 151.07 217.213 151.07V151.07Z" fill="#773F23"/>
<path d="M240.986 275.219H241.275C242.906 275.219 244.218 276.532 244.218 278.162V281.006C244.218 282.637 242.906 283.95 241.275 283.95H240.986C239.356 283.95 238.043 282.637 238.043 281.006V278.162C238.043 276.532 239.356 275.219 240.986 275.219Z" fill="#62341C"/>
<path d="M221.403 112.828H218.528C216.287 112.828 214.482 114.632 214.482 116.874C214.482 119.115 216.287 120.92 218.528 120.92H221.403C223.645 120.92 225.449 119.115 225.449 116.874C225.449 114.632 223.645 112.828 221.403 112.828Z" fill="#68371E"/>
<path d="M219.683 114.824C217.833 114.824 216.343 116.34 216.343 118.223V119.582C216.343 121.465 217.833 122.98 219.683 122.98C221.534 122.98 223.023 121.465 223.023 119.582V118.223C223.023 116.34 221.534 114.824 219.683 114.824Z" fill="#502A17"/>
<path d="M227.44 109.487L216.812 109.593C215.657 109.604 214.735 110.544 214.747 111.699C214.758 112.855 215.698 113.776 216.854 113.765L227.481 113.66C228.637 113.648 229.558 112.709 229.547 111.553C229.535 110.397 228.596 109.476 227.44 109.487V109.487Z" fill="#3E302E"/>
<path d="M203.551 114.824C202.408 114.824 201.488 116.172 201.488 117.845V119.054C201.488 120.728 202.408 122.075 203.551 122.075C204.693 122.075 205.613 120.728 205.613 119.054V117.845C205.613 116.172 204.693 114.824 203.551 114.824V114.824Z" fill="#502A17"/>
<path d="M208.952 119.385C210.997 119.673 212.412 121.55 212.124 123.594L210.825 132.839C210.538 134.884 208.661 136.299 206.616 136.011C204.572 135.724 203.157 133.847 203.444 131.802L204.743 122.557C205.03 120.513 206.908 119.098 208.952 119.385Z" fill="#68371E"/>
<path d="M209.021 129.03H210.938C212.412 129.03 213.6 130.217 213.6 131.692C213.6 133.167 212.412 134.354 210.938 134.354H209.021C207.547 134.354 206.359 133.167 206.359 131.692C206.359 130.217 207.547 129.03 209.021 129.03Z" fill="#68371E"/>
<path d="M208.552 138.803H217.329C219.736 138.803 221.842 140.734 222.05 143.133C222.259 145.531 220.489 147.462 218.081 147.462H209.305C206.898 147.462 204.792 145.531 204.583 143.133C204.375 140.734 206.145 138.803 208.552 138.803Z" fill="#68371E"/>
<path d="M207.97 142.116H215.537C215.975 142.116 216.327 142.469 216.327 142.906C216.327 143.344 215.975 143.697 215.537 143.697H207.97C207.532 143.697 207.18 143.344 207.18 142.906C207.18 142.469 207.532 142.116 207.97 142.116Z" fill="#502A17"/>
<path d="M202.148 110.572L203.485 110.642C204.699 110.705 205.626 111.733 205.563 112.947C205.5 114.161 204.471 115.088 203.257 115.025L201.92 114.955C200.706 114.892 199.78 113.864 199.843 112.65C199.906 111.436 200.934 110.509 202.148 110.572Z" fill="#3E302E"/>
<path d="M224.681 125.026H229.048C230.925 125.026 232.436 126.537 232.436 128.414C232.436 130.291 230.925 131.802 229.048 131.802H224.681C222.804 131.802 221.293 130.291 221.293 128.414C221.293 126.537 222.804 125.026 224.681 125.026Z" fill="#854727"/>
<path d="M225.549 129.242C226.612 129.242 227.469 130.098 227.469 131.162V134.776C227.469 135.839 226.612 136.696 225.549 136.696C224.485 136.696 223.629 135.839 223.629 134.776V131.162C223.629 130.098 224.485 129.242 225.549 129.242Z" fill="#854727"/>
<path d="M215.8 149.193H213.315C212.9 149.193 212.562 149.53 212.562 149.946C212.562 150.362 212.9 150.699 213.315 150.699H215.8C216.216 150.699 216.553 150.362 216.553 149.946C216.553 149.53 216.216 149.193 215.8 149.193Z" fill="#68371E"/>
<path d="M229.422 110.689L230.457 111.934C231.037 112.631 230.943 113.66 230.245 114.24C229.548 114.82 228.519 114.725 227.939 114.028L226.904 112.783C226.324 112.086 226.418 111.057 227.116 110.477C227.813 109.897 228.842 109.991 229.422 110.689Z" fill="#3E302E"/>
<path d="M223.695 73.5828C223.492 73.5902 223.291 73.625 223.097 73.6863C223.097 73.6863 214.721 76.0335 209.695 80.3485C205.102 84.2912 202.645 88.3904 202.224 92.9941C202.197 93.2891 202.228 93.5864 202.316 93.8692C202.404 94.1521 202.547 94.4148 202.736 94.6424C202.926 94.8701 203.158 95.0582 203.42 95.196C203.683 95.3338 203.969 95.4186 204.264 95.4455C204.559 95.4725 204.856 95.4411 205.139 95.3531C205.422 95.2651 205.685 95.1223 205.912 94.9328C206.14 94.7433 206.328 94.5108 206.465 94.2486C206.603 93.9864 206.688 93.6996 206.715 93.4047C207.02 90.0596 208.561 87.2632 212.629 83.7709C216.263 80.6508 224.405 78.0032 224.405 78.0032C224.936 77.8528 225.394 77.5125 225.691 77.0468C225.989 76.5811 226.104 76.0225 226.017 75.4771C225.929 74.9317 225.644 74.4374 225.216 74.0882C224.788 73.739 224.247 73.5591 223.695 73.5828V73.5828ZM232.419 77.7698C232.063 77.7844 231.716 77.883 231.406 78.0576C229.085 79.3069 227.128 80.7366 225.461 82.1986C225.572 81.8429 225.593 81.4652 225.522 81.0994C225.451 80.7337 225.29 80.3912 225.055 80.1026C224.819 79.8141 224.515 79.5885 224.171 79.446C223.827 79.3035 223.453 79.2486 223.082 79.2862C222.954 79.299 222.828 79.3226 222.704 79.3569C212.328 82.1624 209.672 92.9906 209.672 92.9906C209.588 93.2814 209.564 93.5862 209.6 93.8867C209.637 94.1872 209.733 94.4773 209.884 94.7396C210.035 95.0019 210.238 95.2311 210.479 95.4136C210.721 95.596 210.997 95.7279 211.29 95.8014C211.584 95.8748 211.889 95.8884 212.188 95.8413C212.487 95.7942 212.774 95.6873 213.031 95.527C213.288 95.3668 213.509 95.1564 213.683 94.9086C213.857 94.6607 213.979 94.3803 214.042 94.0843C214.042 94.0843 216.16 85.8348 223.827 83.7252C219.343 88.2426 217.645 92.6071 217.645 92.6071C217.532 92.8848 217.476 93.1822 217.479 93.482C217.482 93.7818 217.545 94.0779 217.664 94.3531C217.783 94.6283 217.956 94.8769 218.172 95.0844C218.389 95.292 218.644 95.4543 218.924 95.5618C219.204 95.6693 219.502 95.72 219.802 95.7107C220.102 95.7014 220.397 95.6324 220.669 95.5078C220.942 95.3832 221.187 95.2054 221.39 94.9849C221.593 94.7643 221.75 94.5055 221.852 94.2235C221.852 94.2235 224.677 86.7983 233.545 82.0246C234.001 81.7893 234.363 81.4054 234.571 80.9364C234.779 80.4674 234.821 79.9414 234.69 79.4453C234.559 78.9491 234.262 78.5127 233.849 78.208C233.436 77.9034 232.932 77.7488 232.419 77.7698V77.7698ZM241.196 78.5432C240.843 78.5781 240.503 78.6958 240.204 78.8867C240.204 78.8867 237.441 80.5871 234.395 83.1304C231.348 85.6736 227.889 88.9777 226.499 93.0215C226.401 93.3017 226.359 93.5986 226.376 93.8949C226.394 94.1912 226.469 94.4812 226.599 94.7483C226.728 95.0153 226.909 95.2542 227.132 95.4511C227.354 95.648 227.612 95.7991 227.893 95.8957C228.174 95.9923 228.471 96.0326 228.767 96.0142C229.063 95.9957 229.353 95.919 229.619 95.7883C229.886 95.6576 230.124 95.4756 230.32 95.2526C230.516 95.0297 230.666 94.7703 230.762 94.4892C231.589 92.081 234.504 88.9102 237.283 86.591C240.061 84.2718 242.572 82.7234 242.572 82.7234C243.013 82.4613 243.351 82.0566 243.531 81.5762C243.711 81.0958 243.722 80.5683 243.561 80.081C243.401 79.5937 243.079 79.1757 242.649 78.8961C242.219 78.6165 241.706 78.492 241.196 78.5432V78.5432Z" fill="#49221A"/>
<path d="M257.4 84.09C250.059 84.09 244.148 90.235 244.148 97.8679C244.148 103.192 247.027 107.79 251.258 110.085V123.174H252.753C254.52 123.174 255.942 122.01 255.942 120.565V112.148C255.96 112.148 255.977 112.154 255.995 112.154H266.43C267.403 112.154 268.186 111.371 268.186 110.398C268.186 109.424 267.403 108.64 266.43 108.64H265.675C268.71 106.12 270.65 102.239 270.65 97.868C270.65 90.2351 264.741 84.0901 257.4 84.0901L257.4 84.09Z" fill="#3E302E"/>
<path d="M253.556 76.0858C252.992 76.0707 252.443 76.2679 252.017 76.6385C251.591 77.009 251.319 77.5259 251.256 78.0869C251.193 78.648 251.343 79.2122 251.676 79.6681C252.009 80.124 252.501 80.4383 253.055 80.5489C261.078 82.2781 265.439 87.1378 267.932 92.5913C270.425 98.0449 270.809 104.156 270.418 107.279C269.492 114.689 270.141 118.234 270.141 118.234C270.199 118.525 270.313 118.801 270.477 119.048C270.641 119.294 270.852 119.506 271.098 119.67C271.344 119.835 271.621 119.95 271.911 120.008C272.201 120.066 272.5 120.066 272.791 120.009C273.081 119.951 273.358 119.837 273.604 119.673C273.85 119.508 274.062 119.297 274.227 119.051C274.391 118.805 274.506 118.529 274.564 118.238C274.622 117.948 274.622 117.649 274.565 117.358C274.565 117.358 274.014 114.85 274.89 107.838C275.403 103.733 274.957 97.1207 272.029 90.7163C269.102 84.3119 263.449 78.1782 254.005 76.143C253.858 76.1089 253.707 76.0897 253.556 76.0858V76.0858Z" fill="#48211A"/>
<path d="M250.731 74.708C250.139 74.7129 249.572 74.9509 249.154 75.3706C248.735 75.7903 248.499 76.3579 248.496 76.9505C248.493 77.543 248.724 78.1129 249.138 78.5368C249.552 78.9606 250.116 79.2043 250.709 79.2151C252.156 79.2936 254.656 80.2521 257.17 82.0233C259.684 83.7945 262.259 86.3221 264.257 89.2505C268.251 95.1074 270.007 102.183 265.542 109.185C265.382 109.435 265.274 109.713 265.222 110.005C265.171 110.297 265.177 110.595 265.241 110.885C265.305 111.174 265.425 111.448 265.595 111.69C265.765 111.933 265.981 112.14 266.23 112.299C266.48 112.459 266.759 112.567 267.05 112.619C267.342 112.67 267.641 112.664 267.93 112.6C268.219 112.536 268.493 112.415 268.736 112.246C268.979 112.076 269.185 111.86 269.345 111.61C274.873 102.941 272.635 93.5358 267.98 86.7109C265.653 83.2984 262.737 80.4319 259.767 78.3392C256.797 76.2466 253.818 74.8676 250.955 74.7124C250.881 74.7072 250.806 74.7057 250.731 74.7079L250.731 74.708Z" fill="#49211A" fill-opacity="0.996078"/>
<path d="M243.942 85.7817C243.514 85.768 243.09 85.877 242.721 86.0958C242.352 86.3145 242.054 86.634 241.86 87.0167C241.666 87.3993 241.586 87.8293 241.628 88.2561C241.67 88.6829 241.833 89.0888 242.098 89.4261C242.098 89.4261 245.116 93.3727 249.471 97.8241C253.826 102.276 259.468 107.31 265.365 109.585C265.643 109.704 265.942 109.765 266.245 109.766C266.548 109.766 266.848 109.706 267.127 109.588C267.405 109.47 267.658 109.298 267.868 109.08C268.079 108.863 268.244 108.605 268.353 108.322C268.461 108.04 268.512 107.738 268.502 107.436C268.492 107.133 268.421 106.836 268.293 106.561C268.165 106.287 267.984 106.041 267.759 105.838C267.534 105.636 267.27 105.48 266.984 105.381C262.341 103.59 256.841 98.9126 252.688 94.6682C248.536 90.4239 245.681 86.6884 245.681 86.6884C245.478 86.416 245.217 86.193 244.916 86.036C244.615 85.879 244.282 85.7921 243.942 85.7817V85.7817Z" fill="#49211A" fill-opacity="0.996078"/>
<path d="M248.567 85.0308C248.138 85.0552 247.725 85.2016 247.377 85.4528C247.029 85.7039 246.759 86.0494 246.601 86.4485C246.442 86.8476 246.401 87.2837 246.482 87.7055C246.563 88.1273 246.762 88.5172 247.057 88.8293C252.979 95.2896 257.88 99.0411 261.367 101.193C264.854 103.345 267.155 103.948 267.155 103.948C267.446 104.032 267.752 104.056 268.053 104.019C268.355 103.982 268.645 103.884 268.908 103.732C269.171 103.58 269.4 103.376 269.582 103.133C269.764 102.89 269.895 102.613 269.967 102.318C270.039 102.023 270.051 101.716 270.001 101.417C269.952 101.117 269.843 100.831 269.68 100.574C269.517 100.318 269.305 100.097 269.054 99.9251C268.804 99.7531 268.522 99.6335 268.224 99.5733C268.224 99.5733 266.836 99.273 263.735 97.3593C260.634 95.4457 256.053 91.9716 250.381 85.7834C250.155 85.5293 249.874 85.3296 249.56 85.1993C249.246 85.0689 248.907 85.0113 248.567 85.0308V85.0308Z" fill="#49211A" fill-opacity="0.996078"/>
<path d="M260.61 144.573C260.013 144.573 259.44 144.811 259.017 145.233C258.594 145.656 258.357 146.229 258.357 146.827C258.279 151.864 258.683 155.59 259.95 158.715C261.218 161.84 263.367 164.187 266.191 166.286C268.947 168.333 271.024 169.447 272.486 170.058C273.947 170.668 275.074 170.793 275.074 170.793C275.371 170.815 275.671 170.779 275.954 170.685C276.238 170.591 276.5 170.442 276.725 170.246C276.95 170.05 277.135 169.811 277.267 169.543C277.399 169.276 277.477 168.984 277.495 168.686C277.514 168.388 277.473 168.089 277.375 167.807C277.278 167.525 277.125 167.265 276.926 167.043C276.727 166.82 276.485 166.639 276.216 166.511C275.946 166.382 275.654 166.309 275.355 166.294C275.355 166.294 275.281 166.341 274.22 165.898C273.159 165.455 271.395 164.535 268.881 162.667C266.435 160.851 265.043 159.283 264.127 157.025C263.211 154.766 262.791 151.643 262.864 146.893C262.873 146.591 262.821 146.291 262.712 146.01C262.602 145.729 262.438 145.473 262.228 145.256C262.017 145.04 261.766 144.868 261.488 144.751C261.21 144.633 260.912 144.573 260.61 144.573V144.573Z" fill="#48211A"/>
<path d="M268.232 133.283C267.752 133.297 267.289 133.465 266.91 133.761C266.532 134.057 266.258 134.467 266.128 134.929C260.34 154.547 275.468 166.845 275.468 166.845C275.7 167.029 275.966 167.165 276.251 167.247C276.535 167.328 276.833 167.353 277.127 167.319C277.421 167.285 277.706 167.194 277.965 167.05C278.223 166.907 278.451 166.713 278.635 166.482C278.82 166.25 278.956 165.984 279.038 165.699C279.119 165.415 279.143 165.117 279.11 164.823C279.076 164.529 278.985 164.244 278.841 163.985C278.697 163.727 278.504 163.499 278.272 163.315C278.272 163.315 265.398 153.328 270.451 136.206C270.557 135.863 270.581 135.5 270.519 135.146C270.457 134.793 270.311 134.459 270.094 134.173C269.877 133.887 269.595 133.658 269.271 133.503C268.947 133.348 268.591 133.273 268.232 133.283V133.283Z" fill="#48211A"/>
<path d="M265.478 134.942C265.075 134.963 264.684 135.092 264.347 135.316C264.01 135.54 263.739 135.85 263.564 136.214C259.826 143.69 259.688 151.021 262.45 155.559C264.565 159.033 266.077 161.453 266.077 161.453C266.228 161.716 266.43 161.946 266.671 162.13C266.913 162.313 267.189 162.446 267.483 162.52C267.778 162.594 268.084 162.608 268.383 162.561C268.683 162.514 268.97 162.407 269.228 162.246C269.485 162.085 269.707 161.874 269.881 161.626C270.055 161.377 270.177 161.096 270.239 160.799C270.302 160.502 270.304 160.196 270.245 159.898C270.186 159.601 270.068 159.318 269.898 159.067C269.898 159.067 268.403 156.67 266.302 153.217C264.847 150.829 264.407 144.608 267.596 138.23C267.778 137.878 267.865 137.484 267.846 137.087C267.827 136.691 267.704 136.307 267.489 135.973C267.275 135.639 266.976 135.368 266.622 135.188C266.269 135.007 265.875 134.922 265.478 134.942Z" fill="#48211A"/>
<path d="M266.708 136.593C266.393 136.603 266.084 136.679 265.801 136.816C265.517 136.953 265.266 137.148 265.062 137.388C264.859 137.628 264.708 137.908 264.619 138.21C264.53 138.512 264.506 138.829 264.547 139.141C264.879 141.966 266.347 151.203 272.641 158.16C272.84 158.38 273.08 158.558 273.347 158.685C273.615 158.812 273.904 158.885 274.2 158.9C274.496 158.915 274.792 158.872 275.071 158.772C275.35 158.673 275.606 158.52 275.826 158.321C276.046 158.123 276.224 157.883 276.351 157.615C276.478 157.348 276.551 157.058 276.566 156.762C276.581 156.466 276.537 156.17 276.438 155.891C276.338 155.613 276.185 155.356 275.986 155.136C270.837 149.445 269.293 140.908 269.023 138.613C268.964 138.046 268.693 137.522 268.263 137.147C267.834 136.772 267.278 136.574 266.708 136.593Z" fill="#48211A"/>
<path d="M226.346 72.7495C216.07 73.2912 206.876 77.42 200.887 84.7524C200.688 84.98 200.536 85.2455 200.441 85.533C200.347 85.8205 200.311 86.1241 200.336 86.4258C200.361 86.7275 200.447 87.021 200.588 87.2888C200.729 87.5567 200.923 87.7933 201.157 87.9847C201.392 88.1761 201.662 88.3182 201.953 88.4027C202.244 88.4872 202.549 88.5122 202.849 88.4763C203.15 88.4404 203.44 88.3443 203.703 88.1938C203.965 88.0433 204.195 87.8414 204.378 87.6002C211.15 79.3074 223.069 75.5596 236.126 77.8553C249.145 80.1444 254.279 87.3819 255.237 89.5104C256.013 91.234 259.002 97.2335 261.883 102.997C264.765 108.76 267.477 114.141 267.477 114.141C267.553 114.293 267.646 114.437 267.755 114.568C269.235 116.351 270.614 121.68 270 126.456C269.385 131.233 267.312 135.145 263.054 136.245C262.664 136.346 262.308 136.55 262.024 136.835C258.533 140.326 256.458 144.7 255.809 150.211C255.075 156.449 258.6 162.795 258.6 162.795C258.735 163.059 258.92 163.293 259.146 163.485C259.371 163.677 259.632 163.822 259.914 163.913C260.196 164.004 260.493 164.039 260.788 164.015C261.083 163.991 261.371 163.909 261.634 163.774C261.898 163.639 262.132 163.454 262.324 163.228C262.516 163.003 262.662 162.742 262.753 162.46C262.844 162.178 262.878 161.881 262.854 161.586C262.831 161.291 262.749 161.003 262.614 160.74C262.614 160.74 259.815 154.737 260.285 150.735C260.833 146.082 262.356 142.966 265.105 140.167C270.863 138.148 273.761 132.553 274.471 127.029C275.223 121.184 274.177 115.248 271.223 111.689L271.505 112.116C271.505 112.116 268.793 106.737 265.915 100.981C263.037 95.2246 259.927 88.9497 259.348 87.6618C257.595 83.7672 251.291 75.9479 236.905 73.4186C233.318 72.7879 229.771 72.569 226.346 72.7495V72.7495Z" fill="#58281F" fill-opacity="0.996078"/>
<path d="M242.03 71.319C236.762 71.1364 231.401 71.8074 227.469 74.3208C227.214 74.477 226.992 74.6827 226.816 74.9259C226.641 75.169 226.516 75.4446 226.448 75.7366C226.381 76.0287 226.372 76.3312 226.423 76.6266C226.474 76.922 226.583 77.2042 226.745 77.4569C226.906 77.7095 227.116 77.9274 227.363 78.0979C227.609 78.2683 227.887 78.3879 228.181 78.4496C228.474 78.5112 228.777 78.5138 229.071 78.4571C229.365 78.4004 229.645 78.2855 229.895 78.1193C232.458 76.4801 237.161 75.6582 241.875 75.8217C246.59 75.9851 251.358 77.0938 253.944 78.4318C256.524 79.7661 259.586 82.715 261.964 85.5269C264.341 88.3389 266.234 91.3035 266.383 91.601C266.515 91.8658 266.698 92.1019 266.922 92.2959C267.146 92.4899 267.405 92.638 267.686 92.7316C267.967 92.8253 268.263 92.8627 268.559 92.8417C268.854 92.8208 269.142 92.7418 269.407 92.6094C269.672 92.4771 269.908 92.2938 270.102 92.0702C270.296 91.8465 270.444 91.5869 270.537 91.306C270.631 91.0252 270.668 90.7286 270.647 90.4334C270.626 90.1381 270.547 89.8499 270.415 89.5851C269.712 88.179 267.979 85.6617 265.406 82.6176C262.832 79.5735 259.613 76.2906 256.017 74.4308C252.429 72.5745 247.297 71.5016 242.03 71.319V71.319Z" fill="#48211A"/>
<path d="M211.139 84.5806C210.556 84.564 209.99 84.7735 209.559 85.1651C209.128 85.5568 208.865 86.1003 208.825 86.6815C208.786 87.2628 208.973 87.8367 209.348 88.2828C209.723 88.729 210.256 89.0127 210.835 89.0745C244.261 93.0222 257.649 90.7119 257.649 90.7119C257.941 90.6605 258.219 90.5521 258.469 90.393C258.719 90.2339 258.935 90.0272 259.105 89.7846C259.274 89.542 259.395 89.2683 259.459 88.9792C259.523 88.6901 259.53 88.3912 259.478 88.0996C259.427 87.808 259.318 87.5293 259.159 87.2796C259 87.0299 258.793 86.8139 258.551 86.6441C258.308 86.4743 258.034 86.3539 257.745 86.2898C257.456 86.2258 257.157 86.2193 256.866 86.2708C256.866 86.2708 244.453 88.5062 211.363 84.5982C211.289 84.5886 211.214 84.5828 211.139 84.5807V84.5806Z" fill="#49211A" fill-opacity="0.996078"/>
<path d="M219.405 80.5181C218.823 80.5112 218.26 80.7301 217.836 81.1289C217.411 81.5277 217.158 82.0754 217.128 82.6572C217.098 83.239 217.295 83.8096 217.677 84.2494C218.059 84.6893 218.596 84.9641 219.176 85.0164C219.176 85.0164 236.311 86.7416 252.32 88.0578C252.615 88.0822 252.912 88.0482 253.194 87.9578C253.476 87.8673 253.737 87.7222 253.963 87.5307C254.189 87.3392 254.375 87.1051 254.51 86.8418C254.646 86.5784 254.728 86.2909 254.752 85.9958C254.776 85.7007 254.742 85.4036 254.652 85.1217C254.561 84.8397 254.416 84.5784 254.225 84.3526C254.033 84.1267 253.799 83.9408 253.535 83.8055C253.272 83.6702 252.985 83.5881 252.689 83.5639C236.739 82.2525 219.63 80.5313 219.63 80.5313C219.555 80.5231 219.48 80.5187 219.405 80.518V80.5181Z" fill="#49211A" fill-opacity="0.996078"/>
<path d="M240.862 72.5998C237.223 72.3463 233.316 72.4874 229.387 73.172C221.53 74.5411 213.536 78.1686 207.93 85.3993C207.737 85.6319 207.592 85.901 207.505 86.1906C207.418 86.4801 207.391 86.7842 207.424 87.0847C207.457 87.3852 207.55 87.676 207.697 87.9398C207.845 88.2036 208.044 88.435 208.283 88.6202C208.522 88.8054 208.796 88.9406 209.088 89.0178C209.381 89.0951 209.685 89.1127 209.985 89.0696C210.284 89.0266 210.572 88.9238 210.83 88.7674C211.089 88.6109 211.313 88.404 211.491 88.159C216.275 81.9884 223.112 78.8414 230.162 77.6131C237.211 76.3847 244.43 77.1513 249.401 78.6914C253.848 80.0696 257.942 84.6004 260.778 89.5235C262.196 91.985 263.309 94.5117 264.049 96.6671C264.789 98.8225 265.127 100.697 265.127 101.385C265.123 101.684 265.178 101.981 265.289 102.258C265.401 102.535 265.566 102.787 265.776 103C265.985 103.212 266.235 103.381 266.511 103.497C266.786 103.612 267.082 103.671 267.381 103.671C267.679 103.671 267.975 103.612 268.25 103.497C268.526 103.381 268.776 103.212 268.986 103C269.195 102.787 269.361 102.535 269.472 102.258C269.583 101.981 269.638 101.684 269.634 101.385C269.634 99.6644 269.146 97.643 268.309 95.2058C267.473 92.7686 266.262 90.0077 264.687 87.2743C261.538 81.8076 256.977 76.3213 250.734 74.3868C247.874 73.5005 244.5 72.8533 240.862 72.5998V72.5998Z" fill="#58281F" fill-opacity="0.996078"/>
<path d="M235.284 75.188C224.232 75.3607 217.093 85.4391 217.093 85.4391C216.913 85.6769 216.782 85.9481 216.708 86.2369C216.633 86.5257 216.617 86.8263 216.66 87.1214C216.703 87.4165 216.804 87.7002 216.957 87.9561C217.11 88.2119 217.312 88.4348 217.552 88.6118C217.792 88.7889 218.065 88.9166 218.355 88.9875C218.644 89.0584 218.945 89.0711 219.24 89.0249C219.534 88.9787 219.817 88.8745 220.071 88.7183C220.325 88.5622 220.545 88.3572 220.72 88.1152C220.72 88.1152 227.132 79.8236 235.354 79.6951C239.821 79.6253 243.954 80.5429 248.458 83.5684C252.961 86.594 257.829 91.8296 263.22 100.47C263.537 100.977 264.041 101.338 264.624 101.473C265.206 101.608 265.818 101.506 266.326 101.19C266.833 100.873 267.193 100.369 267.328 99.7862C267.463 99.2038 267.362 98.5917 267.045 98.0845C261.444 89.1075 256.217 83.3517 250.971 79.8272C245.725 76.3026 240.454 75.1072 235.284 75.188V75.188Z" fill="#58281F" fill-opacity="0.996078"/>
<path d="M246.589 78.5683C244.057 78.5212 241.385 78.7882 238.715 79.3606C233.373 80.5052 228.025 82.8977 224.08 86.8431C223.863 87.0507 223.691 87.2995 223.572 87.5747C223.453 87.8499 223.39 88.1461 223.387 88.4459C223.384 88.7457 223.441 89.0431 223.554 89.3207C223.667 89.5983 223.835 89.8505 224.047 90.0625C224.259 90.2746 224.511 90.4421 224.789 90.5555C225.066 90.6688 225.364 90.7256 225.663 90.7225C225.963 90.7195 226.259 90.6566 226.535 90.5377C226.81 90.4187 227.059 90.246 227.266 90.0298C230.398 86.898 234.989 84.7719 239.661 83.7708C244.333 82.7697 249.075 82.9219 252.227 83.9513C253.363 84.3222 254.941 85.5879 256.435 87.5077C257.929 89.4275 259.362 91.9274 260.541 94.4665C261.721 97.0055 262.657 99.5955 263.226 101.676C263.511 102.716 263.704 103.633 263.794 104.313C263.884 104.992 263.808 105.486 263.856 105.307C263.395 106.997 263.156 108.021 263.028 108.661C262.9 109.301 262.87 109.819 262.87 109.819C262.866 110.117 262.921 110.414 263.032 110.691C263.143 110.968 263.309 111.22 263.518 111.433C263.728 111.646 263.978 111.815 264.254 111.93C264.529 112.045 264.825 112.104 265.123 112.104C265.422 112.104 265.718 112.045 265.993 111.93C266.269 111.815 266.519 111.646 266.728 111.433C266.938 111.22 267.103 110.968 267.215 110.691C267.326 110.414 267.381 110.117 267.377 109.819C267.377 109.819 267.349 110.035 267.447 109.546C267.545 109.057 267.757 108.119 268.2 106.496C268.474 105.489 268.39 104.687 268.261 103.718C268.133 102.75 267.899 101.669 267.575 100.483C266.926 98.1124 265.912 95.3382 264.626 92.5694C263.34 89.8007 261.786 87.0449 259.991 84.7392C258.196 82.4335 256.18 80.5024 253.626 79.6687C251.514 78.9787 249.121 78.6154 246.588 78.5683L246.589 78.5683Z" fill="#58281F" fill-opacity="0.996078"/>
<path d="M271.77 128.164C271.29 128.194 270.832 128.376 270.463 128.685C270.094 128.994 269.833 129.413 269.719 129.881C266.684 141.566 265.813 148.042 267.946 154.767C268.937 157.892 269.591 159.671 270.023 160.722C270.239 161.247 270.399 161.59 270.529 161.84C270.659 162.089 270.895 162.421 270.895 162.421C271.258 162.873 271.783 163.167 272.358 163.242C272.933 163.317 273.515 163.168 273.983 162.825C274.451 162.482 274.768 161.971 274.869 161.4C274.97 160.829 274.847 160.241 274.526 159.758C274.527 159.761 274.521 159.751 274.521 159.753C274.476 159.667 274.369 159.437 274.191 159.005C273.833 158.136 273.208 156.455 272.241 153.406C270.459 147.784 271.093 142.515 274.081 131.012C274.176 130.666 274.188 130.302 274.114 129.951C274.041 129.6 273.884 129.272 273.658 128.993C273.432 128.715 273.143 128.494 272.815 128.35C272.486 128.206 272.128 128.142 271.77 128.164L271.77 128.164Z" fill="#582920"/>
<path d="M222.169 77.2566C221.643 77.2764 221.141 77.4795 220.749 77.8307C220.357 78.182 220.101 78.6592 220.024 79.1797C219.947 79.7002 220.055 80.2312 220.329 80.6806C220.602 81.1301 221.024 81.4696 221.522 81.6405C235.618 86.732 244.918 89.0291 250.765 90.0561C256.613 91.0831 259.296 90.8087 259.296 90.8087C259.589 90.7729 259.873 90.6795 260.131 90.5339C260.389 90.3884 260.616 90.1934 260.798 89.9603C260.981 89.7271 261.116 89.4602 261.195 89.175C261.274 88.8897 261.297 88.5916 261.261 88.2977C261.225 88.0038 261.132 87.7198 260.986 87.462C260.84 87.2041 260.646 86.9775 260.412 86.795C260.179 86.6125 259.912 86.4778 259.627 86.3984C259.342 86.319 259.044 86.2966 258.75 86.3324C258.75 86.3324 257.064 86.5888 251.545 85.6194C246.026 84.65 236.961 82.4253 223.054 77.4018C222.772 77.2947 222.471 77.2453 222.169 77.2566V77.2566Z" fill="#582920"/>
<path d="M266.806 135.242C266.364 135.269 265.94 135.426 265.587 135.693C265.234 135.96 264.967 136.325 264.82 136.743C261.545 145.633 262.441 149.721 263.033 157.275C263.62 164.758 262.965 169.791 261.968 172.408C261.863 172.684 261.813 172.979 261.821 173.275C261.83 173.571 261.896 173.862 262.017 174.132C262.138 174.402 262.311 174.646 262.526 174.849C262.741 175.053 262.995 175.212 263.271 175.317C263.548 175.423 263.842 175.473 264.138 175.464C264.434 175.456 264.725 175.389 264.996 175.268C265.266 175.147 265.509 174.974 265.713 174.759C265.916 174.544 266.075 174.291 266.181 174.014C267.593 170.307 268.145 164.8 267.527 156.923C266.915 149.119 266.001 146.576 269.05 138.301C269.186 137.948 269.231 137.567 269.181 137.193C269.131 136.818 268.988 136.462 268.764 136.158C268.541 135.853 268.244 135.609 267.902 135.449C267.56 135.289 267.183 135.218 266.806 135.242V135.242Z" fill="#582920"/>
<path d="M223.086 77.512C218.421 77.8259 214.973 79.0933 210.991 81.0024C206.856 82.985 204.076 85.2531 202.32 87.0677C200.565 88.8822 199.75 90.3996 199.75 90.3996C199.604 90.6623 199.513 90.9514 199.481 91.2499C199.45 91.5484 199.478 91.8502 199.564 92.1376C199.65 92.4251 199.793 92.6924 199.985 92.9239C200.176 93.1554 200.411 93.3463 200.677 93.4856C200.943 93.6248 201.234 93.7096 201.533 93.7348C201.832 93.7601 202.133 93.7253 202.419 93.6326C202.704 93.5399 202.968 93.3911 203.195 93.1949C203.423 92.9988 203.608 92.7592 203.742 92.4903C203.742 92.4903 204.147 91.6611 205.56 90.2015C206.972 88.7419 209.303 86.809 212.941 85.065C216.732 83.2475 219.351 82.2777 223.39 82.0059C227.429 81.7342 232.97 82.2324 242.07 83.6609C242.368 83.7198 242.674 83.718 242.971 83.6554C243.269 83.5929 243.55 83.471 243.799 83.297C244.048 83.123 244.259 82.9005 244.419 82.6429C244.58 82.3853 244.687 82.0979 244.734 81.798C244.781 81.498 244.767 81.1916 244.692 80.8973C244.618 80.603 244.485 80.3267 244.301 80.0851C244.117 79.8435 243.886 79.6415 243.622 79.4913C243.358 79.3411 243.067 79.2458 242.765 79.211C233.552 77.7647 227.752 77.1981 223.086 77.512V77.512Z" fill="#57281F"/>
<path d="M233.765 88.3263C233.239 88.3246 232.729 88.5069 232.323 88.8416C231.918 89.1763 231.642 89.6425 231.544 90.1592C231.445 90.6759 231.531 91.2107 231.786 91.671C232.04 92.1313 232.448 92.488 232.938 92.6794C245.433 97.7913 259.479 95.4831 259.479 95.4831C259.771 95.4375 260.052 95.3346 260.304 95.1805C260.557 95.0264 260.777 94.824 260.952 94.5849C261.126 94.3458 261.252 94.0747 261.322 93.787C261.391 93.4993 261.404 93.2007 261.358 92.9083C261.312 92.6158 261.21 92.3352 261.055 92.0824C260.901 91.8297 260.699 91.6098 260.46 91.4353C260.221 91.2607 259.95 91.135 259.662 91.0653C259.374 90.9955 259.076 90.9832 258.783 91.0288C258.783 91.0288 245.574 92.9775 234.645 88.5068C234.367 88.3881 234.068 88.3268 233.765 88.3263V88.3263Z" fill="#57281F"/>
<path d="M166.369 212.928L188.227 221.884C189.068 222.228 189.468 223.183 189.123 224.024L186.358 230.772C186.014 231.614 185.059 232.013 184.218 231.669L162.36 222.713C161.519 222.369 161.119 221.414 161.464 220.573L164.228 213.824C164.573 212.983 165.528 212.583 166.369 212.928Z" fill="#5B5B5B"/>
<path d="M186.063 250.482C188.47 253.276 188.158 257.463 185.364 259.87L167.94 274.877C165.146 277.284 160.959 276.972 158.553 274.178C156.146 271.384 156.458 267.197 159.252 264.79L176.675 249.783C179.469 247.376 183.656 247.688 186.063 250.482Z" fill="#5B5B5B"/>
<path d="M192.978 261.573C194.21 263.003 194.05 265.147 192.62 266.379L171.201 284.827C169.771 286.059 167.627 285.9 166.395 284.469C165.163 283.039 165.323 280.895 166.753 279.663L188.172 261.215C189.602 259.982 191.746 260.142 192.978 261.573Z" fill="#C0292F"/>
<path d="M260.183 357.696L262.255 357.08C263.095 356.83 263.972 357.305 264.221 358.144L271.699 383.28C271.949 384.12 271.474 384.997 270.635 385.247L268.563 385.863C267.723 386.113 266.846 385.638 266.597 384.798L259.119 359.663C258.869 358.823 259.344 357.946 260.183 357.696Z" fill="#5B5B5B"/>
<path d="M227.629 275C221.044 275 214.768 276.267 209.025 278.568C210.343 280.526 211.113 282.889 211.113 285.438V301.462C211.113 306.539 208.062 310.875 203.688 312.751V368.6C210.786 372.478 218.939 374.683 227.629 374.683H234.254C259.753 374.683 280.66 355.724 283.71 331.077C285.386 329.683 286.923 328.451 287.95 327.573C292.434 323.74 299.13 324.263 302.963 328.746L279.717 301.554C278.955 300.663 278.077 299.935 277.129 299.36C268.458 284.754 252.54 275 234.254 275H227.629Z" fill="#C0292F"/>
<path d="M206.59 275.903C209.354 278.152 211.118 281.58 211.118 285.438V295.78H275.968C279.305 295.78 281.992 293.094 281.992 289.757V281.927C281.992 278.59 279.305 275.903 275.968 275.903H206.59Z" fill="#9D2226"/>
<path d="M229.106 289.699H252.104C260.362 289.699 267.01 296.348 267.01 304.606C267.01 312.864 260.362 319.512 252.104 319.512H229.106C220.847 319.512 214.199 312.864 214.199 304.606C214.199 296.348 220.847 289.699 229.106 289.699V289.699Z" fill="#A52428"/>
<path d="M237.584 241.895C224.146 241.895 210.908 252.438 207.901 265.535L205.676 275.227C208.959 277.428 211.113 281.171 211.113 285.438V296.081H249.388C251.557 293.029 253.163 289.619 253.991 286.014L258.692 265.535C261.699 252.438 253.301 241.895 239.864 241.895H237.584Z" fill="#9D2226"/>
<path d="M244.325 241.292H246.745C259.172 241.292 271.429 251.04 274.228 263.147L278.604 282.078C281.403 294.185 273.652 303.932 261.225 303.932H258.806C246.379 303.932 234.122 294.185 231.323 282.078L226.947 263.147C224.148 251.04 231.899 241.292 244.325 241.292V241.292Z" fill="#C0292F"/>
<path d="M263.464 163.607C262.635 163.325 261.74 163.765 261.458 164.594L243.308 217.905C243.025 218.734 243.466 219.629 244.295 219.911C245.124 220.194 246.019 219.753 246.301 218.924L264.451 165.613C264.734 164.784 264.293 163.889 263.464 163.607V163.607Z" fill="#4F3F3F"/>
<path d="M236.671 227.056C231.671 225.85 226.631 229.134 225.371 234.419L220.746 253.806C219.485 259.092 222.495 264.317 227.494 265.523C232.494 266.729 237.534 263.445 238.795 258.16L243.42 238.773C244.68 233.488 241.67 228.262 236.671 227.056Z" fill="#9D2226"/>
<path d="M244.661 215.916C242.486 215.394 240.319 216.738 239.802 218.93L229.666 261.859C229.149 264.05 230.483 266.235 232.658 266.757C234.832 267.279 236.999 265.936 237.517 263.744L247.652 220.815C248.169 218.623 246.835 216.439 244.661 215.916Z" fill="#9D2226"/>
<path d="M210.631 169.072C211.445 168.886 212.258 169.425 212.452 170.279L224.187 221.845C224.382 222.7 223.882 223.536 223.068 223.722C222.253 223.907 221.441 223.369 221.246 222.515L209.511 170.948C209.317 170.094 209.816 169.257 210.631 169.072Z" fill="#4F3F3F"/>
<path d="M230.282 228.703C235.345 227.817 240.165 231.414 241.091 236.767L244.486 256.404C245.412 261.757 242.081 266.78 237.019 267.666C231.957 268.551 227.136 264.955 226.211 259.602L222.815 239.965C221.89 234.611 225.22 229.589 230.282 228.703Z" fill="#C0292F"/>
<path d="M223 217.082C225.199 216.699 227.274 218.177 227.653 220.397L235.075 263.874C235.454 266.094 233.989 268.19 231.79 268.573C229.592 268.956 227.517 267.478 227.138 265.258L219.715 221.78C219.336 219.561 220.801 217.465 223 217.082Z" fill="#C0292F"/>
<path d="M210.598 169.952C210.45 169.954 210.304 169.986 210.168 170.044C210.032 170.103 209.909 170.188 209.806 170.294C209.703 170.401 209.622 170.526 209.567 170.664C209.513 170.801 209.486 170.948 209.488 171.096V189.781C209.488 199.891 217.661 208.064 227.772 208.064C227.921 208.066 228.07 208.039 228.208 207.983C228.347 207.928 228.473 207.845 228.579 207.74C228.686 207.635 228.77 207.51 228.828 207.373C228.885 207.235 228.915 207.087 228.915 206.938C228.915 206.788 228.885 206.64 228.828 206.503C228.77 206.365 228.686 206.24 228.579 206.135C228.473 206.03 228.347 205.948 228.208 205.892C228.07 205.836 227.921 205.809 227.772 205.811C218.871 205.811 211.742 198.682 211.742 189.781V171.096C211.744 170.945 211.716 170.796 211.66 170.656C211.603 170.516 211.519 170.389 211.412 170.282C211.305 170.175 211.178 170.091 211.038 170.034C210.898 169.978 210.749 169.95 210.598 169.952V169.952ZM268.719 169.952C268.571 169.954 268.425 169.986 268.289 170.044C268.153 170.103 268.031 170.188 267.928 170.294C267.825 170.401 267.744 170.526 267.689 170.664C267.635 170.801 267.608 170.948 267.61 171.096V189.781C267.61 198.682 260.481 205.811 251.58 205.811C251.43 205.809 251.282 205.836 251.144 205.892C251.005 205.948 250.879 206.03 250.773 206.135C250.666 206.24 250.582 206.365 250.524 206.503C250.467 206.64 250.437 206.788 250.437 206.938C250.437 207.087 250.467 207.235 250.524 207.373C250.582 207.51 250.666 207.635 250.773 207.74C250.879 207.845 251.005 207.928 251.144 207.983C251.282 208.039 251.43 208.066 251.58 208.064C261.691 208.064 269.864 199.891 269.864 189.781V171.096C269.866 170.945 269.838 170.796 269.781 170.656C269.725 170.516 269.64 170.389 269.534 170.282C269.427 170.175 269.3 170.091 269.16 170.034C269.02 169.978 268.87 169.95 268.719 169.952V169.952Z" fill="#453737"/>
<path d="M270.909 167.694C270.772 167.696 270.636 167.722 270.51 167.77C270.384 167.818 270.27 167.888 270.175 167.975C270.079 168.062 270.004 168.165 269.954 168.278C269.903 168.391 269.878 168.512 269.88 168.633V194.447C269.88 211.38 256.157 224.892 239.222 224.892C222.286 224.892 208.563 211.38 208.563 194.447V169.156C208.565 169.034 208.539 168.912 208.488 168.799C208.436 168.685 208.359 168.582 208.262 168.494C208.165 168.407 208.049 168.338 207.921 168.291C207.793 168.243 207.656 168.219 207.518 168.219C207.379 168.219 207.242 168.243 207.114 168.291C206.987 168.338 206.871 168.407 206.774 168.494C206.676 168.582 206.6 168.685 206.548 168.799C206.496 168.912 206.471 169.034 206.473 169.156V194.447C206.473 212.267 221.031 226.74 239.222 226.74C257.413 226.74 271.971 212.267 271.971 194.447V168.633C271.973 168.509 271.947 168.386 271.894 168.271C271.842 168.157 271.764 168.052 271.665 167.965C271.566 167.877 271.448 167.808 271.318 167.762C271.188 167.715 271.049 167.692 270.909 167.694V167.694Z" fill="#582920"/>
<path d="M252.306 270.099C253.77 269.467 255.456 270.138 256.087 271.601L266.589 295.953C267.22 297.416 266.55 299.103 265.086 299.734C263.623 300.365 261.936 299.695 261.305 298.231L250.803 273.88C250.172 272.416 250.842 270.73 252.306 270.099Z" fill="#9D2226"/>
<path d="M237.301 264.013C239.063 263.253 241.093 264.059 241.853 265.821L254.494 295.134C255.254 296.896 254.447 298.926 252.685 299.686C250.924 300.445 248.894 299.639 248.134 297.877L235.493 268.564C234.733 266.802 235.539 264.772 237.301 264.013Z" fill="#9D2226"/>
<path d="M211.111 294.575V301.462C211.111 302.736 210.919 303.962 210.562 305.115H277.728C280.648 305.115 282.998 302.765 282.998 299.846C282.998 296.926 280.648 294.575 277.728 294.575H211.111Z" fill="#874E3A" fill-opacity="0.996078"/>
<path d="M284.293 307.326L294.28 319.59C295.342 320.895 295.147 322.8 293.843 323.863C292.538 324.925 290.632 324.73 289.57 323.426L279.583 311.162C278.52 309.857 278.715 307.951 280.02 306.889C281.325 305.826 283.23 306.021 284.293 307.326Z" fill="#D53A40"/>
<path d="M207.602 315.355C209.771 315.355 211.517 317.101 211.517 319.27V348.181C211.517 350.349 209.771 352.096 207.602 352.096C205.434 352.096 203.688 350.349 203.688 348.181V319.27C203.688 317.101 205.434 315.355 207.602 315.355Z" fill="#D53A40"/>
<path d="M208.554 357.63H212.821C215.532 357.63 217.715 359.812 217.715 362.524V369.772C217.715 372.483 215.532 374.666 212.821 374.666H208.554C205.843 374.666 203.66 372.483 203.66 369.772V362.524C203.66 359.812 205.843 357.63 208.554 357.63Z" fill="#C0292F"/>
<path d="M227.093 325.044L246.601 330.198C250.15 331.135 252.252 334.747 251.314 338.296C250.377 341.845 246.765 343.947 243.216 343.009L223.708 337.855C220.16 336.917 218.058 333.306 218.995 329.757C219.933 326.208 223.544 324.106 227.093 325.044Z" fill="#B4272C"/>
<path d="M245.895 331.112L255.281 326.084C257.62 324.831 260.513 325.705 261.767 328.045C263.02 330.385 262.146 333.277 259.806 334.531L250.421 339.559C248.081 340.813 245.188 339.938 243.935 337.598C242.681 335.259 243.556 332.366 245.895 331.112Z" fill="#B4272C"/>
<path d="M156.297 262.671L177.233 245.695C178.172 244.933 179.542 245.076 180.304 246.016C181.066 246.955 180.923 248.325 179.983 249.087L159.048 266.063C158.108 266.825 156.739 266.682 155.977 265.742C155.215 264.803 155.358 263.433 156.297 262.671Z" fill="#FFFFFE"/>
<path d="M215.347 349.174L221.859 352.309C224.903 353.774 226.175 357.404 224.709 360.448C223.244 363.493 219.614 364.764 216.57 363.299L210.057 360.164C207.013 358.699 205.742 355.069 207.207 352.024C208.672 348.98 212.302 347.709 215.347 349.174Z" fill="#D53A40"/>
<path d="M222.882 353.903H230.712C232.673 353.903 234.251 355.481 234.251 357.441C234.251 359.401 232.673 360.98 230.712 360.98H222.882C220.922 360.98 219.344 359.401 219.344 357.441C219.344 355.481 220.922 353.903 222.882 353.903Z" fill="#D53A40"/>
<path d="M221.675 160.783C216.544 162.741 211.979 165.478 208.234 168.818V170.449C208.234 184.842 219.821 196.428 234.213 196.428H243.583C257.976 196.428 269.564 184.842 269.564 170.449V166.65C266.446 164.324 262.889 162.368 259.001 160.863H258.235V165.065C258.235 172.462 248.702 178.416 241.306 178.416H236.491C229.095 178.416 223.141 172.462 223.141 165.065V160.86C222.646 160.858 222.157 160.833 221.675 160.783V160.783Z" fill="#5B5B5B"/>
<path d="M255.056 73.6897C268.842 82.3301 270.777 90.8013 270.49 103.533L254.412 102.995C253.551 89.7978 249.46 77.27 235.811 71.9604C233.412 70.8533 247.489 70.446 255.056 73.6897Z" fill="#EFEAD9" fill-opacity="0.998039"/>
<path d="M240.202 71.1565C238.988 71.1454 237.967 71.188 237.172 71.266C239.823 73.0622 242.102 74.9775 244.035 76.9095C245.793 78.4696 247.273 80.2251 248.515 82.1348C250.737 85.1839 252.17 87.9917 252.997 90.0585C254.525 93.8778 254.713 99.3774 254.949 103.012L260.923 103.212C260.994 90.6811 258.018 79.7457 243.45 71.2928C242.293 71.2099 241.192 71.1657 240.202 71.1565V71.1565Z" fill="#50691D" fill-opacity="0.996078"/>
<path d="M234.094 71.8146C243.792 77.0975 253.757 88.8693 253.757 100.606V129.649C253.757 145.868 241.285 159.071 225.211 160.547H234.739C247.216 155.661 256.01 143.695 256.01 129.649V100.606C256.01 89.0247 247.124 77.4708 237.583 71.3068H235.007C234.801 71.2443 233.787 71.5667 234.094 71.8146Z" fill="#BE9775"/>
<path d="M250.344 72.2477L250.402 72.3863C259.665 78.3488 264.137 86.0151 265.84 90.2741C267.418 94.2191 267.442 100.242 267.72 103.439L270.494 103.532C270.782 90.8008 268.846 82.3298 255.06 73.6894C253.662 73.0901 252.041 72.6163 250.344 72.2477H250.344Z" fill="#9D2226"/>
<path d="M201.651 102.589H275.283C276.159 102.589 276.865 103.295 276.865 104.171V106.58C276.865 107.456 276.159 108.161 275.283 108.161H201.651C200.775 108.161 200.07 107.456 200.07 106.58V104.171C200.07 103.295 200.775 102.589 201.651 102.589Z" fill="#5B5B5B"/>
<path d="M217.549 410.059L246.454 405.85C247.215 405.74 247.917 406.263 248.027 407.024L248.427 409.77C248.538 410.531 248.015 411.233 247.254 411.344L218.349 415.552C217.588 415.663 216.886 415.14 216.776 414.379L216.376 411.632C216.265 410.872 216.788 410.17 217.549 410.059Z" fill="#BF9876" fill-opacity="0.996078"/>
<path d="M222.662 407.809H224.77C226.355 407.809 227.631 409.085 227.631 410.67V425.879C227.631 427.464 226.355 428.74 224.77 428.74H222.662C221.077 428.74 219.801 427.464 219.801 425.879V410.67C219.801 409.085 221.077 407.809 222.662 407.809Z" fill="#D7BFAA" fill-opacity="0.996078"/>
<path d="M274.137 169.803C273.989 169.805 273.843 169.836 273.707 169.895C273.571 169.954 273.449 170.039 273.346 170.145C273.243 170.251 273.162 170.377 273.107 170.514C273.053 170.652 273.026 170.799 273.028 170.947V202.422C273.028 223.069 258.232 239.544 239.973 239.544C221.713 239.544 206.918 223.069 206.918 202.422V171.585C206.92 171.436 206.892 171.288 206.837 171.149C206.781 171.01 206.698 170.884 206.593 170.778C206.489 170.672 206.364 170.587 206.226 170.53C206.088 170.472 205.94 170.442 205.791 170.442C205.642 170.442 205.494 170.472 205.356 170.53C205.218 170.587 205.093 170.672 204.989 170.778C204.884 170.884 204.801 171.01 204.745 171.149C204.69 171.288 204.662 171.436 204.664 171.585V202.422C204.664 224.15 220.36 241.798 239.973 241.798C259.586 241.798 275.282 224.15 275.282 202.422V170.947C275.284 170.796 275.256 170.646 275.199 170.506C275.143 170.366 275.058 170.239 274.952 170.132C274.845 170.026 274.718 169.941 274.578 169.885C274.438 169.828 274.288 169.8 274.137 169.803V169.803Z" fill="#BE9775"/>
<path d="M233.686 202.993C230.25 202.993 227.449 205.794 227.449 209.23C227.449 212.666 230.25 215.467 233.686 215.467H244.549C247.985 215.467 250.786 212.666 250.786 209.23C250.786 205.794 247.985 202.993 244.549 202.993H233.686ZM233.686 205.247H244.549C246.776 205.247 248.532 207.003 248.532 209.23C248.532 211.457 246.776 213.213 244.549 213.213H233.686C231.459 213.213 229.703 211.457 229.703 209.23C229.703 207.003 231.459 205.247 233.686 205.247Z" fill="#BE9775"/>
<path d="M261.659 161.986V164.441C261.659 174.014 253.991 181.683 244.418 181.683H235.685C226.113 181.683 218.441 174.014 218.441 164.441V162.167C217.676 162.526 216.921 162.896 216.187 163.291V164.441C216.187 175.223 224.903 183.936 235.685 183.936H244.418C255.2 183.936 263.913 175.223 263.913 164.441V163.101C263.176 162.713 262.426 162.339 261.659 161.986V161.986ZM266.558 164.611V167.293C266.558 179.37 256.869 189.059 244.792 189.059H235.307C223.23 189.059 213.542 179.37 213.542 167.293V164.846C212.771 165.334 212.015 165.836 211.289 166.364V167.293C211.289 180.58 222.02 191.312 235.307 191.312H244.792C258.079 191.312 268.811 180.58 268.811 167.293V166.107C268.082 165.588 267.331 165.089 266.558 164.611V164.611Z" fill="#525252"/>
<path d="M230.995 177.319H247.646C250.677 177.319 253.117 179.759 253.117 182.79V190.502C253.117 193.533 250.677 195.973 247.646 195.973H230.995C227.964 195.973 225.523 193.533 225.523 190.502V182.79C225.523 179.759 227.964 177.319 230.995 177.319Z" fill="#B48760"/>
<path d="M239.664 179.001C243.918 179.001 247.343 182.426 247.343 186.68C247.343 190.935 243.918 194.36 239.664 194.36C235.409 194.36 231.984 190.935 231.984 186.68C231.984 182.426 235.409 179.001 239.664 179.001Z" fill="#BE9775"/>
<path d="M312.451 208.617L290.593 217.573C289.752 217.917 289.28 218.905 289.697 219.713L290.652 221.564C290.997 222.405 291.951 222.805 292.793 222.46L314.65 213.505C315.492 213.16 315.891 212.205 315.547 211.364L314.592 209.514C314.175 208.706 313.292 208.272 312.451 208.617Z" fill="#BE9775"/>
<path d="M215.965 73.5299L273.985 96.9042C274.574 97.1414 274.857 97.8063 274.62 98.395C274.383 98.9837 273.718 99.2667 273.129 99.0295L215.109 75.6552C214.52 75.418 214.237 74.7532 214.474 74.1645C214.711 73.5757 215.376 73.2927 215.965 73.5299Z" fill="#C0292F"/>
<path d="M213.774 104.999C213.774 105.691 213.645 106.376 213.396 107.016C213.146 107.655 212.78 108.236 212.319 108.725C211.857 109.215 211.309 109.603 210.707 109.868C210.104 110.133 209.458 110.269 208.805 110.269C208.152 110.269 207.506 110.133 206.903 109.868C206.301 109.603 205.753 109.215 205.291 108.725C204.83 108.236 204.464 107.655 204.214 107.016C203.964 106.376 203.836 105.691 203.836 104.999C203.836 104.307 203.964 103.621 204.214 102.982C204.464 102.343 204.83 101.762 205.291 101.272C205.753 100.783 206.301 100.395 206.903 100.13C207.506 99.865 208.152 99.7286 208.805 99.7286C210.123 99.7286 211.387 100.284 212.319 101.272C213.25 102.261 213.774 103.601 213.774 104.999V104.999Z" fill="#BE9775"/>
<path d="M333.531 251.996H342.452C342.822 251.996 343.12 252.294 343.12 252.664V467.071C343.12 467.441 342.822 467.739 342.452 467.739H333.531C333.161 467.739 332.863 467.441 332.863 467.071V252.664C332.863 252.294 333.161 251.996 333.531 251.996V251.996Z" fill="#A56D4E" fill-opacity="0.996078"/>
<path d="M337.991 62.7865C344.164 62.7865 352.223 71.969 351.844 83.3562L349.134 164.795C348.755 176.182 344.164 185.365 337.991 185.365C331.818 185.365 327.227 176.182 326.848 164.795L324.138 83.3562C323.759 71.969 331.818 62.7865 337.991 62.7865V62.7865Z" fill="#707070"/>
<path d="M330.574 158.859H345.406C347.471 158.859 349.133 160.843 349.133 163.307V180.917C349.133 183.381 347.471 185.365 345.406 185.365H330.574C328.51 185.365 326.848 183.381 326.848 180.917V163.307C326.848 160.843 328.51 158.859 330.574 158.859Z" fill="#707070"/>
<path d="M351.621 89.9828L324.574 96.5637L325.657 129.095L350.521 123.043L351.621 89.9828ZM350.12 135.066L326.051 140.923L326.669 159.513L349.492 153.959L350.12 135.066Z" fill="#7A7A7A"/>
<path d="M333.039 251.996H342.945C343.042 251.996 343.12 252.074 343.12 252.171V308.554C343.12 308.651 343.042 308.729 342.945 308.729H333.039C332.941 308.729 332.863 308.651 332.863 308.554V252.171C332.863 252.074 332.942 251.996 333.039 251.996Z" fill="#8C5D42" fill-opacity="0.996078"/>
<path d="M337.991 170.053C334.206 170.053 331.16 174.62 331.16 180.292V204.721H344.824V180.292C344.824 174.62 341.776 170.053 337.991 170.053ZM331.16 241.494V265.965C331.16 271.638 334.206 276.205 337.991 276.205C341.776 276.205 344.824 271.638 344.824 265.965V241.494H331.16Z" fill="#5B5B5B"/>
<path d="M333.49 264.465H342.499C344.722 264.465 346.512 266.255 346.512 268.479V272.483C346.512 274.707 344.722 276.497 342.499 276.497H333.49C331.267 276.497 329.477 274.707 329.477 272.483V268.479C329.477 266.255 331.267 264.465 333.49 264.465Z" fill="#5B5B5B"/>
<path d="M337.991 80.6007C339.289 80.6007 340.333 81.882 340.333 83.4735V183.76C340.333 185.351 339.289 186.633 337.991 186.633C336.693 186.633 335.648 185.351 335.648 183.76V83.4735C335.648 81.882 336.693 80.6007 337.991 80.6007V80.6007Z" fill="#5B5B5B"/>
<path d="M340.636 182.847C341.679 182.847 342.518 183.687 342.518 184.729V196.926C342.518 197.969 341.679 198.808 340.636 198.808C339.593 198.808 338.754 197.969 338.754 196.926V184.729C338.754 183.687 339.593 182.847 340.636 182.847Z" fill="#707070"/>
<path d="M338.98 266.116H342.293C343.335 266.116 344.175 266.956 344.175 267.998V269.052C344.175 270.095 343.335 270.935 342.293 270.935H338.98C337.937 270.935 337.098 270.095 337.098 269.052V267.998C337.098 266.956 337.937 266.116 338.98 266.116Z" fill="#707070"/>
<path d="M176.846 253.559L172.891 256.765C171.434 257.945 171.211 260.082 172.391 261.538L173.059 262.362C174.239 263.819 176.376 264.043 177.832 262.862L181.788 259.657C183.244 258.477 183.468 256.34 182.288 254.883L181.62 254.059C180.44 252.603 178.302 252.379 176.846 253.559Z" fill="#7A7A7A"/>
<path d="M182.324 223.844C182.324 222.021 180.846 220.543 179.023 220.543C177.2 220.543 175.723 222.021 175.723 223.844V224.057C175.723 225.88 177.2 227.358 179.023 227.358C180.846 227.358 182.324 225.88 182.324 224.057V223.844Z" fill="#7A7A7A"/>
<path d="M309.493 211.228H309.173C308.174 211.228 307.363 212.039 307.363 213.038C307.363 214.038 308.174 214.848 309.173 214.848H309.493C310.492 214.848 311.303 214.038 311.303 213.038C311.303 212.039 310.492 211.228 309.493 211.228Z" fill="#D2B69F"/>
<path d="M224.265 102.731H216.492C216.022 102.731 215.641 103.113 215.641 103.583V107.203C215.641 107.674 216.022 108.055 216.492 108.055H224.265C224.735 108.055 225.117 107.674 225.117 107.203V103.583C225.117 103.113 224.735 102.731 224.265 102.731Z" fill="#50691E"/>
<path d="M234.984 102.731H227.211C226.741 102.731 226.359 103.113 226.359 103.583V107.203C226.359 107.674 226.741 108.055 227.211 108.055H234.984C235.454 108.055 235.836 107.674 235.836 107.203V103.583C235.836 103.113 235.454 102.731 234.984 102.731Z" fill="#9D2226"/>
<path d="M245.706 102.731H237.934C237.463 102.731 237.082 103.113 237.082 103.583V107.203C237.082 107.674 237.463 108.055 237.934 108.055H245.706C246.177 108.055 246.558 107.674 246.558 107.203V103.583C246.558 103.113 246.177 102.731 245.706 102.731Z" fill="#EFEAD9" fill-opacity="0.998039"/>
<path d="M256.417 102.731H248.645C248.174 102.731 247.793 103.113 247.793 103.583V107.203C247.793 107.674 248.174 108.055 248.645 108.055H256.417C256.888 108.055 257.269 107.674 257.269 107.203V103.583C257.269 103.113 256.888 102.731 256.417 102.731Z" fill="#9D2226"/>
<path d="M202.172 102.731H200.149C199.678 102.731 199.297 103.113 199.297 103.583V107.203C199.297 107.674 199.678 108.055 200.149 108.055H202.172C202.642 108.055 203.023 107.674 203.023 107.203V103.583C203.023 103.113 202.642 102.731 202.172 102.731Z" fill="#9D2226"/>
<path d="M267.163 102.731H259.391C258.92 102.731 258.539 103.113 258.539 103.583V107.203C258.539 107.674 258.92 108.055 259.391 108.055H267.163C267.634 108.055 268.015 107.674 268.015 107.203V103.583C268.015 103.113 267.634 102.731 267.163 102.731Z" fill="#50691E"/>
</svg>
