<svg width="117" height="110" viewBox="0 0 117 110" fill="none" xmlns="http://www.w3.org/2000/svg">
<path fill-rule="evenodd" clip-rule="evenodd" d="M101.526 86.641C98.2816 76.1434 94.5238 65.3358 89.2204 54.5911L68.2961 66.9883L101.526 86.641ZM84.4866 45.7724C79.0575 36.462 72.2391 27.2771 63.3477 18.4648L63.3477 58.2967L84.4866 45.7724ZM53.3477 17.9369C44.1312 26.6872 37.035 35.7393 31.3893 45.1613L53.3477 58.1476L53.3477 17.9369ZM26.5843 53.9375C21.2761 64.5732 17.4787 75.6831 14.297 87.3581L48.6647 66.996L26.5843 53.9375ZM18.7182 96.3621C23.5947 97.2839 29.1121 97.951 34.5386 98.4245C40.6922 98.9615 46.5199 99.2322 50.8228 99.3678C51.7401 99.3967 52.5857 99.4194 53.3477 99.4373V75.8449L18.7182 96.3621ZM63.3477 99.4366C77.9044 99.0915 89.2149 97.4386 97.2476 95.7284L63.3477 75.6797V99.4366ZM57.7579 109.502C57.7579 109.502 12.541 109.502 0.699219 100.577C9.19947 63.8154 20.2103 30.4144 58.2234 0.544922C95.4879 30.3466 105.928 65.9068 114.489 95.0648L114.489 95.0649C115.036 96.9296 115.576 98.7681 116.115 100.577C116.115 100.577 96.4779 109.502 57.7579 109.502Z" fill="#D8AD5F"/>
</svg>
