<svg width="388" height="251" viewBox="0 0 388 251" fill="none" xmlns="http://www.w3.org/2000/svg">
<path d="M75.2722 87.4312L75.2625 87.3861C74.7538 85.006 76.9497 83.0055 80.4057 82.3857C81.928 82.1127 83.4994 81.9585 84.9496 81.5068L90.4842 79.783L91.982 79.492C93.4967 79.1977 94.8113 78.4389 95.7892 77.2943C96.3762 76.6073 97.0871 76.0563 97.8948 75.6622L98.667 75.2855C101.728 73.7925 105.482 73.7548 109.197 75.1797L115.838 77.7269C118.107 78.5968 120.529 78.8583 122.65 80.2886C125.354 82.1119 127.811 85.5104 128.246 87.5473L128.255 87.5924C128.747 89.894 126.71 91.8406 123.45 92.527C121.723 92.8906 119.925 93.0924 118.298 93.6846L116.707 94.2635L110.151 95.7303C108.153 96.1776 106.012 96.218 103.825 95.8498L86.4613 92.9272C85.494 92.7643 84.5366 92.7051 83.576 92.608C79.4024 92.1858 75.8264 90.0244 75.2722 87.4312Z" fill="#D09D75"/>
<path d="M128.249 92.6239L128.197 92.6287C124.913 92.9363 121.785 90.2015 121.211 86.5204L117.179 72.5793L116.897 58.8793C116.323 55.1982 118.519 51.9647 121.803 51.6571L121.855 51.6523C125.139 51.3448 130.221 53.4859 130.795 57.167L135.109 84.8081C135.684 88.4892 131.533 92.3163 128.249 92.6239Z" fill="#D09D75"/>
<path d="M127.671 57.7302L129.25 56.2559C132.276 53.4301 132.052 47.7819 128.751 43.6402L125.818 39.9607C122.517 35.819 117.388 34.7522 114.362 37.5779L112.783 39.0523C109.757 41.878 109.981 47.5262 113.282 51.6679L116.215 55.3474C119.516 59.4891 124.645 60.556 127.671 57.7302Z" fill="#D09D75"/>
<path d="M118.25 48.3375C121.122 50.1894 124.658 49.1475 126.146 46.0104C127.635 42.8732 126.513 38.8288 123.641 36.977L115.796 31.919C113.181 30.2329 109.006 36.0803 107.156 39.5087C106.84 40.0933 106.796 40.8156 106.998 41.4714C107.416 42.8306 108.329 43.9148 109.494 44.434L118.25 48.3375Z" fill="#D09D75"/>
<path d="M114.369 54.3421C115.833 56.1671 118.075 56.6649 119.376 55.4539C120.678 54.2429 120.546 51.7818 119.081 49.9568L115.082 44.9721C113.618 43.1471 111.376 42.6493 110.075 43.8602C108.774 45.0712 108.906 47.5324 110.37 49.3574L114.369 54.3421Z" fill="#C98F62"/>
<path d="M20.8316 84.4598C20.4788 83.4656 20.0487 83.433 19.0939 83.3615C18.502 83.3172 17.9216 83.3301 17.3896 83.4377C16.8575 83.5453 16.2305 83.61 15.7075 83.2198C13.9683 81.9221 13.3012 78.0847 13.9843 82.1542C14.2398 83.4026 14.1954 84.6067 13.854 85.6874L10.2939 96.9568C10.0198 97.8245 9.83592 98.7323 9.74416 99.6715L7.86531 118.901C7.73625 120.222 7.55279 122.876 8.91699 122.502C9.93133 122.224 11.3471 120.262 12.6993 119.408C13.4178 118.954 14.4853 119.023 15.4832 119.023L17.7331 119.023C18.0398 119.023 18.9738 119.115 19.2868 119.137C20.6453 119.232 21.2377 118.758 22.2959 118.267L23.1243 117.883C23.5809 117.671 24.0011 117.416 24.3795 117.12L24.7506 116.829C27.5576 114.632 28.8292 111.203 28.2699 107.337L26.673 96.2993C26.3776 94.2571 25.3773 92.158 23.8058 90.2825C22.2891 88.4722 21.5408 86.4583 20.8316 84.4598Z" fill="#D09D75"/>
<path d="M45.4338 189.268L43.725 189.268C39.7132 189.268 36.4611 192.52 36.4611 196.532L36.4609 215.227L36.4612 228.647L35.0098 242.401C35.0098 245.407 37.9758 247.843 41.6346 247.843H43.1792C46.8379 247.843 49.804 245.407 49.804 242.401V222.321C49.804 220.921 50.1474 219.542 50.8043 218.306C51.4611 217.069 51.8046 215.69 51.8046 214.29V211.654C51.8046 210.105 51.6117 208.563 51.2302 207.063C50.8488 205.562 50.6559 204.02 50.6559 202.472V194.49C50.6559 194.182 50.6285 193.874 50.5741 193.57C50.1284 191.08 47.9628 189.268 45.4338 189.268Z" fill="#D09D75"/>
<path d="M44.1935 134.823H34.295C33.8128 134.823 33.4219 135.214 33.4219 135.696L30.2441 165.162V175.751C30.2441 176.853 30.3347 177.953 30.515 179.04L31.3131 183.852C31.6984 186.176 32.489 188.414 33.6489 190.464L35.8188 194.299C36.2607 195.08 36.493 195.962 36.493 196.859C36.493 199.731 38.8209 202.059 41.6925 202.059H45.0609C48.1362 202.059 50.6292 199.566 50.6292 196.49C50.6292 195.829 50.7471 195.173 50.9773 194.553L51.7235 192.542C52.0442 191.678 52.2962 190.79 52.4771 189.887L53.6069 184.243L54.7397 176.742C54.8897 175.748 54.965 174.745 54.965 173.74V160.867V145.595C54.965 139.646 50.1425 134.823 44.1935 134.823Z" fill="#D09D75"/>
<path d="M45.5673 236.325H39.3467C35.7595 236.325 32.8516 238.904 32.8516 242.084C32.8516 245.265 35.7595 247.843 39.3467 247.843H45.5673C49.1545 247.843 52.0625 245.265 52.0625 242.084C52.0625 238.904 49.1545 236.325 45.5673 236.325Z" fill="#D09D75"/>
<path d="M49.9115 241.535H35.0025C33.8146 241.535 32.8516 242.388 32.8516 243.442V245.936C32.8516 246.989 33.8146 247.843 35.0025 247.843H49.9115C51.0995 247.843 52.0625 246.989 52.0625 245.936V243.442C52.0625 242.388 51.0995 241.535 49.9115 241.535Z" fill="#D09D75"/>
<path d="M79.4283 107.1C79.4283 92.231 67.4017 86.4949 55.1989 86.4949C42.9961 86.4949 31.8555 92.231 31.8555 107.1L33.1038 132.869C33.1038 147.739 42.9961 159.792 55.1989 159.792C67.4017 159.792 77.294 151.125 77.294 136.256L79.4283 107.1Z" fill="#81584A"/>
<path d="M85.4979 73.6543H24.5249C17.9247 73.6543 12.5742 78.9731 12.5742 85.5342C12.5742 92.0953 17.9247 97.4141 24.5249 97.4141H85.4979C92.0981 97.4141 97.4486 92.0953 97.4486 85.5342C97.4486 78.9731 92.0981 73.6543 85.4979 73.6543Z" fill="#906253"/>
<path d="M87.5788 91.6512C87.5788 77.8686 73.0834 66.6956 55.2025 66.6956C37.3215 66.6956 22.8262 77.8686 22.8262 91.6512C22.8262 105.434 37.3215 116.607 55.2025 116.607C73.0834 116.607 87.5788 105.434 87.5788 91.6512Z" fill="#D09D75"/>
<path d="M56.9878 107.735H53.4113C44.8826 107.735 37.9688 113.956 37.9688 121.63V131.668C37.9688 139.342 44.8826 145.563 53.4113 145.563H56.9878C65.5164 145.563 72.4303 139.342 72.4303 131.668V121.63C72.4303 113.956 65.5164 107.735 56.9878 107.735Z" fill="#906253"/>
<path d="M71.9405 73.5974H38.4645C29.8277 73.5974 22.8262 79.7233 22.8262 87.2801V95.5266C22.8262 103.083 29.8277 109.209 38.4645 109.209H71.9405C80.5773 109.209 87.5788 103.083 87.5788 95.5266V87.2801C87.5788 79.7233 80.5773 73.5974 71.9405 73.5974Z" fill="#906253"/>
<path d="M74.8616 73.5974H35.5434C28.5199 73.5974 22.8262 79.2903 22.8262 86.3128V93.9764C22.8262 100.999 28.5199 106.692 35.5434 106.692H74.8616C81.8851 106.692 87.5788 100.999 87.5788 93.9764V86.3128C87.5788 79.2903 81.8851 73.5974 74.8616 73.5974Z" fill="#D09D75"/>
<path d="M57.8449 101.445C57.8449 100.578 56.6239 99.875 55.1178 99.875C53.6116 99.875 52.3906 100.578 52.3906 101.445V104.489C52.3906 105.356 53.6116 106.059 55.1178 106.059C56.6239 106.059 57.8449 105.356 57.8449 104.489V101.445Z" fill="#81584A"/>
<path d="M69.3518 96.6597H62.9951C61.1694 96.6597 59.6895 97.9879 59.6895 99.6263C59.6895 101.265 61.1694 102.593 62.9951 102.593H69.3518C71.1774 102.593 72.6574 101.265 72.6574 99.6263C72.6574 97.9879 71.1774 96.6597 69.3518 96.6597Z" fill="#AC7967"/>
<path d="M46.9143 96.6599H40.5576C38.7319 96.6599 37.252 97.9881 37.252 99.6265C37.252 101.265 38.7319 102.593 40.5576 102.593H46.9143C48.7399 102.593 50.2199 101.265 50.2199 99.6265C50.2199 97.9881 48.7399 96.6599 46.9143 96.6599Z" fill="#AC7967"/>
<path d="M37.7815 102.747H35.4667C34.5434 102.747 33.7949 103.419 33.7949 104.247C33.7949 105.076 34.5434 105.748 35.4667 105.748H37.7815C38.7048 105.748 39.4533 105.076 39.4533 104.247C39.4533 103.419 38.7048 102.747 37.7815 102.747Z" fill="#81584A"/>
<path d="M75.6213 102.747H73.3066C72.3833 102.747 71.6348 103.419 71.6348 104.247C71.6348 105.076 72.3833 105.748 73.3066 105.748H75.6213C76.5446 105.748 77.2931 105.076 77.2931 104.247C77.2931 103.419 76.5446 102.747 75.6213 102.747Z" fill="#81584A"/>
<path d="M25.763 75.6023H24.3605C20.6169 75.6023 17.582 78.6192 17.582 82.3406C17.582 86.0621 20.6169 89.079 24.3605 89.079H25.763C29.5067 89.079 32.5415 86.0621 32.5415 82.3406C32.5415 78.6192 29.5067 75.6023 25.763 75.6023Z" fill="#9D6B5A"/>
<path d="M86.2532 76.2595H84.8508C81.1071 76.2595 78.0723 79.2764 78.0723 82.9979C78.0723 86.7193 81.1071 89.7362 84.8508 89.7362H86.2532C89.9969 89.7362 93.0317 86.7193 93.0317 82.9979C93.0317 79.2764 89.9969 76.2595 86.2532 76.2595Z" fill="#9D6B5A"/>
<path d="M25.6644 77.8667H23.5607C22.3989 77.8667 21.457 78.803 21.457 79.9579C21.457 81.1128 22.3989 82.0491 23.5607 82.0491H25.6644C26.8262 82.0491 27.7681 81.1128 27.7681 79.9579C27.7681 78.803 26.8262 77.8667 25.6644 77.8667Z" fill="#AC7967"/>
<path d="M88.803 78.0308H86.6994C85.5375 78.0308 84.5957 78.967 84.5957 80.122C84.5957 81.2769 85.5375 82.2132 86.6994 82.2132H88.803C89.9649 82.2132 90.9067 81.2769 90.9067 80.122C90.9067 78.967 89.9649 78.0308 88.803 78.0308Z" fill="#AC7967"/>
<path d="M65.8941 187.725L67.5156 187.725C71.5207 187.725 74.7674 190.971 74.7674 194.977L74.7677 214.229L74.7674 227.932L76.2188 241.976C76.2188 245.044 73.2527 247.532 69.5939 247.532H68.0494C64.3906 247.532 61.4245 245.044 61.4245 241.976V221.086C61.4245 219.74 61.0802 218.417 60.4242 217.242C59.7683 216.067 59.4239 214.744 59.4239 213.398V210.523C59.4239 208.98 59.6123 207.444 59.9849 205.948L59.9983 205.894C60.3798 204.361 60.5726 202.788 60.5726 201.209V193.046C60.5726 192.738 60.5994 192.43 60.6526 192.127C61.099 189.581 63.3097 187.725 65.8941 187.725Z" fill="#D09D75"/>
<path d="M67.855 134.823H73.634C75.1132 134.823 76.4299 135.76 76.9144 137.158C76.9865 137.366 77.0387 137.58 77.0702 137.798L80.7775 163.443C80.9152 164.396 80.9844 165.357 80.9844 166.32V175.331C80.9844 176.444 80.8921 177.554 80.7084 178.651L79.9252 183.329C79.5334 185.669 78.7306 187.921 77.5539 189.981L75.4125 193.73C74.9689 194.506 74.7355 195.385 74.7355 196.28C74.7355 199.119 72.4337 201.421 69.5943 201.421H66.1073C63.0653 201.421 60.5993 198.955 60.5993 195.913C60.5993 195.253 60.4806 194.598 60.249 193.98L59.5048 191.994C59.1842 191.139 58.9323 190.259 58.7513 189.364L57.6216 183.774L56.4931 176.372C56.3402 175.37 56.2635 174.357 56.2635 173.342V160.62V146.415C56.2635 140.013 61.4532 134.823 67.855 134.823Z" fill="#D09D75"/>
<path d="M66.3487 236.055H72.5693C76.1565 236.055 79.0645 238.624 79.0645 241.793C79.0645 244.963 76.1565 247.532 72.5693 247.532H66.3487C62.7615 247.532 59.8536 244.963 59.8536 241.793C59.8536 238.624 62.7615 236.055 66.3487 236.055Z" fill="#D09D75"/>
<path d="M62.0045 238.417H76.9135C78.1015 238.417 79.0645 239.651 79.0645 241.173V244.776C79.0645 246.298 78.1015 247.532 76.9135 247.532H62.0045C60.8166 247.532 59.8536 246.298 59.8536 244.776V241.173C59.8536 239.651 60.8166 238.417 62.0045 238.417Z" fill="#D09D75"/>
<path d="M51.3823 112.413H47.2817C45.3258 112.413 43.7402 113.787 43.7402 115.482C43.7402 117.177 45.3258 118.551 47.2817 118.551H51.3823C53.3382 118.551 54.9238 117.177 54.9238 115.482C54.9238 113.787 53.3382 112.413 51.3823 112.413Z" fill="#9D6B5A"/>
<path d="M51.3823 119.649H47.2817C45.3258 119.649 43.7402 121.023 43.7402 122.718C43.7402 124.413 45.3258 125.787 47.2817 125.787H51.3823C53.3382 125.787 54.9238 124.413 54.9238 122.718C54.9238 121.023 53.3382 119.649 51.3823 119.649Z" fill="#9D6B5A"/>
<path d="M51.3823 126.886H47.2817C45.3258 126.886 43.7402 128.26 43.7402 129.955C43.7402 131.65 45.3258 133.024 47.2817 133.024H51.3823C53.3382 133.024 54.9238 131.65 54.9238 129.955C54.9238 128.26 53.3382 126.886 51.3823 126.886Z" fill="#9D6B5A"/>
<path d="M63.9077 112.413H59.8071C57.8512 112.413 56.2656 113.787 56.2656 115.482C56.2656 117.177 57.8512 118.551 59.8071 118.551H63.9077C65.8636 118.551 67.4491 117.177 67.4491 115.482C67.4491 113.787 65.8636 112.413 63.9077 112.413Z" fill="#9D6B5A"/>
<path d="M63.9077 119.649H59.8071C57.8512 119.649 56.2656 121.023 56.2656 122.718C56.2656 124.413 57.8512 125.787 59.8071 125.787H63.9077C65.8636 125.787 67.4491 124.413 67.4491 122.718C67.4491 121.023 65.8636 119.649 63.9077 119.649Z" fill="#9D6B5A"/>
<path d="M63.9077 126.886H59.8071C57.8512 126.886 56.2656 128.26 56.2656 129.955C56.2656 131.65 57.8512 133.024 59.8071 133.024H63.9077C65.8636 133.024 67.4491 131.65 67.4491 129.955C67.4491 128.26 65.8636 126.886 63.9077 126.886Z" fill="#9D6B5A"/>
<path d="M36.502 136.315C35.34 136.315 34.219 136.501 33.1582 136.841C34.4002 150.365 43.7616 160.813 55.2038 160.813C66.7938 160.813 76.2498 150.094 77.2941 136.315C77.293 136.315 77.2919 136.315 77.2907 136.315H36.502Z" fill="#4F4F4F"/>
<path d="M75.6766 134.823H34.7755C33.8823 134.823 33.1582 135.643 33.1582 136.655V139.492C33.1582 140.504 33.8823 141.324 34.7755 141.324H75.6766C76.5698 141.324 77.2938 140.504 77.2938 139.492V136.655C77.2938 135.643 76.5698 134.823 75.6766 134.823Z" fill="#5B5B5B"/>
<path d="M34.6445 134.848C35.7825 151.521 44.5235 164.426 55.0094 164.426C65.6327 164.426 74.9962 151.835 75.9531 134.848H34.6445Z" fill="#4F4F4F"/>
<path d="M77.4705 134.644L55.731 138.115L55.5605 164.356L55.731 175.856H81.5069C81.6492 154.582 82.0604 147.195 77.4705 134.644Z" fill="#4B4B4B"/>
<path d="M33.2308 134.644L55.3807 138.104V164.354V175.854H29.4375C29.2903 154.509 28.5072 147.236 33.2308 134.644Z" fill="#4B4B4B"/>
<path d="M269.415 192.142H270.954C274.72 192.142 277.773 195.322 277.773 199.244L277.773 217.992L277.773 231.357L279.137 245.054C279.137 248.047 276.349 250.474 272.91 250.474H271.458C268.018 250.474 265.23 248.047 265.23 245.054V224.682C265.23 223.369 264.907 222.077 264.29 220.931C263.674 219.785 263.35 218.493 263.35 217.18V214.378C263.35 212.874 263.527 211.375 263.877 209.916L263.89 209.863C264.248 208.369 264.43 206.834 264.43 205.293V197.335C264.43 197.032 264.455 196.732 264.505 196.435C264.925 193.952 266.995 192.142 269.415 192.142Z" fill="#D09D75"/>
<path d="M271.473 142.198H275.402C277.612 142.198 279.596 143.612 280.396 145.758C280.55 146.172 280.656 146.604 280.712 147.044L283.615 169.856V179.755C283.615 181.039 283.512 182.322 283.308 183.589L282.641 187.72C282.259 190.092 281.475 192.373 280.326 194.459L278.379 197.997C277.961 198.756 277.741 199.615 277.741 200.49C277.741 203.257 275.587 205.501 272.93 205.501H269.607C266.761 205.501 264.453 203.097 264.453 200.131C264.453 199.486 264.341 198.846 264.122 198.241L263.424 196.306C263.123 195.472 262.886 194.614 262.716 193.741L261.654 188.29L260.633 181.341C260.463 180.183 260.377 179.013 260.377 177.841V153.755C260.377 147.372 265.345 142.198 271.473 142.198Z" fill="#D09D75"/>
<path d="M269.855 239.28H275.703C279.075 239.28 281.809 241.785 281.809 244.876C281.809 247.968 279.075 250.473 275.703 250.473H269.855C266.484 250.473 263.75 247.968 263.75 244.876C263.75 241.785 266.484 239.28 269.855 239.28Z" fill="#D09D75"/>
<path d="M265.772 241.583H279.787C280.903 241.583 281.809 242.787 281.809 244.271V247.786C281.809 249.27 280.903 250.473 279.787 250.473H265.772C264.656 250.473 263.75 249.27 263.75 247.786V244.271C263.75 242.787 264.656 241.583 265.772 241.583Z" fill="#D09D75"/>
<path d="M247.521 192.142H245.982C242.216 192.142 239.163 195.321 239.163 199.244V217.993V231.356L237.799 245.054C237.799 248.047 240.587 250.473 244.026 250.473H245.478C248.917 250.473 251.706 248.047 251.706 245.054V224.682C251.706 223.368 252.029 222.077 252.646 220.931C253.263 219.784 253.586 218.493 253.586 217.179V214.377C253.586 212.873 253.409 211.375 253.059 209.915L253.046 209.862C252.687 208.368 252.506 206.834 252.506 205.293V197.334C252.506 197.032 252.481 196.731 252.431 196.434C252.011 193.952 249.941 192.142 247.521 192.142Z" fill="#D09D75"/>
<path d="M246.431 142.197H240.322C238.104 142.197 236.305 144.07 236.305 146.381L233.318 169.855V179.754C233.318 181.039 233.42 182.321 233.625 183.588L234.292 187.719C234.675 190.091 235.458 192.373 236.607 194.459L238.555 197.996C238.972 198.755 239.192 199.615 239.192 200.489C239.192 203.257 241.346 205.5 244.003 205.5H247.326C250.172 205.5 252.481 203.096 252.481 200.131C252.481 199.485 252.592 198.845 252.81 198.24L253.509 196.306C253.811 195.472 254.047 194.613 254.218 193.741L255.279 188.289L256.301 181.34C256.47 180.182 256.556 179.012 256.556 177.841V152.743C256.556 146.919 252.023 142.197 246.431 142.197Z" fill="#D09D75"/>
<path d="M247.08 239.279H241.232C237.861 239.279 235.127 241.784 235.127 244.875C235.127 247.967 237.861 250.472 241.232 250.472H247.08C250.452 250.472 253.185 247.967 253.185 244.875C253.185 241.784 250.452 239.279 247.08 239.279Z" fill="#D09D75"/>
<path d="M251.163 241.583H237.149C236.032 241.583 235.127 242.786 235.127 244.27V247.785C235.127 249.269 236.032 250.472 237.149 250.472H251.163C252.28 250.472 253.185 249.269 253.185 247.785V244.27C253.185 242.786 252.28 241.583 251.163 241.583Z" fill="#D09D75"/>
<path d="M257.93 78.5225C258.825 78.5225 259.717 78.5767 260.601 78.6824C271.263 79.9564 280.766 88.6809 280.766 99.3212L279.092 110.713L275.826 130.325C275.826 141.848 269.623 143.548 257.93 143.548C246.238 143.548 240.764 141.848 240.764 130.325L236.824 110.713V99.3212C236.824 87.7985 246.238 78.5225 257.93 78.5225Z" fill="#D09D75"/>
<path d="M257.898 125.168H258.618C270.549 125.168 274.422 118.74 276.38 127.452L280.154 144.935C282.111 153.64 270.549 160.864 258.618 160.864H257.898C245.967 160.864 234.406 153.64 236.362 144.935L240.534 127.452C242.492 118.74 245.967 125.168 257.898 125.168Z" fill="#D09D75"/>
<path d="M257.874 117.282C266.473 117.282 273.396 126.977 273.396 139.019H242.352C242.352 126.977 249.274 117.282 257.874 117.282Z" fill="#C68858"/>
<path d="M231.003 90.4424C227.359 89.7082 222.972 91.247 222.169 95.5707L219.676 103.378C218.908 105.783 218.628 108.328 218.852 110.851L219.524 118.42C219.677 120.147 219.491 121.887 219.513 123.621C219.553 126.658 220.883 128.886 223.757 129.465C226.897 130.098 228.982 128.469 230.012 125.243C230.362 124.148 230.635 123.023 231.046 121.951L232.91 117.084C233.936 114.407 234.341 111.515 234.093 108.643L233.708 104.191C233.608 103.032 233.62 101.868 233.67 100.706C233.807 97.5122 233.745 90.9947 231.003 90.4424Z" fill="#D09D75"/>
<path d="M225.299 115.154L225.252 115.152C222.265 115.056 219.675 118.51 219.467 122.866L217.902 155.578C217.694 159.935 219.946 163.545 222.933 163.641L222.979 163.642C225.966 163.738 228.556 160.284 228.765 155.928L230.329 123.215C230.538 118.859 228.286 115.249 225.299 115.154Z" fill="#D09D75"/>
<path d="M225.231 148.858L223.354 148.847C219.756 148.827 216.671 152.893 216.461 157.929L216.275 162.403C216.065 167.439 218.811 171.538 222.409 171.558L224.286 171.569C227.883 171.588 230.969 167.522 231.179 162.486L231.366 158.012C231.575 152.976 228.828 148.878 225.231 148.858Z" fill="#D09D75"/>
<path d="M225.695 161.583C224.912 158.38 222.153 156.759 219.532 157.961C216.911 159.163 215.42 162.734 216.202 165.936L218.34 174.684C219.123 177.886 221.882 179.508 224.503 178.305C227.125 177.103 228.615 173.533 227.833 170.33L225.695 161.583Z" fill="#D09D75"/>
<path d="M231.831 159.873C231.919 157.641 230.718 155.823 229.147 155.813C227.576 155.803 226.231 157.605 226.143 159.837L225.901 165.935C225.812 168.167 227.014 169.985 228.585 169.996C230.156 170.005 231.501 168.204 231.589 165.971L231.831 159.873Z" fill="#C68858"/>
<path d="M285.033 90.4421C288.677 89.7079 293.064 91.2467 293.867 95.5705L296.359 103.378C297.127 105.782 297.408 108.328 297.184 110.851L296.512 118.42C296.359 120.146 296.544 121.887 296.522 123.621C296.482 126.658 295.152 128.886 292.278 129.464C289.139 130.097 287.054 128.469 286.023 125.243C285.673 124.148 285.401 123.023 284.99 121.951L283.125 117.084C282.099 114.406 281.694 111.514 281.942 108.643L282.327 104.191C282.427 103.032 282.416 101.868 282.366 100.706C282.229 97.5119 282.29 90.9944 285.033 90.4421Z" fill="#D09D75"/>
<path d="M290.739 115.154L290.787 115.152C293.773 115.056 296.363 118.51 296.571 122.866L298.137 155.578C298.344 159.935 296.093 163.545 293.105 163.641L293.059 163.642C290.072 163.738 287.482 160.284 287.273 155.928L285.709 123.215C285.5 118.859 287.753 115.249 290.739 115.154Z" fill="#D09D75"/>
<path d="M290.806 148.858L292.682 148.847C296.28 148.827 299.366 152.893 299.575 157.929L299.762 162.404C299.971 167.439 297.225 171.538 293.628 171.558L291.751 171.569C288.153 171.589 285.067 167.522 284.857 162.486L284.671 158.012C284.462 152.976 287.208 148.878 290.806 148.858Z" fill="#D09D75"/>
<path d="M290.342 161.583C291.125 158.38 293.884 156.759 296.505 157.961C299.127 159.163 300.617 162.734 299.835 165.936L297.697 174.684C296.914 177.886 294.155 179.508 291.534 178.305C288.913 177.103 287.422 173.533 288.204 170.33L290.342 161.583Z" fill="#D09D75"/>
<path d="M284.204 159.873C284.116 157.64 285.317 155.823 286.888 155.813C288.459 155.802 289.804 157.604 289.892 159.837L290.134 165.934C290.222 168.167 289.02 169.985 287.45 169.995C285.879 170.005 284.534 168.204 284.445 165.971L284.204 159.873Z" fill="#C68858"/>
<path d="M230.865 84.9397H285.278C290.671 84.9397 295.012 89.1534 295.012 94.3881C295.012 99.6228 290.671 103.837 285.278 103.837H230.865C225.472 103.837 221.131 99.6228 221.131 94.3881C221.131 89.1534 225.472 84.9397 230.865 84.9397Z" fill="#906253"/>
<path d="M249.537 83.8188H266.504C275.985 83.8188 283.617 91.0742 283.617 100.087C283.617 109.099 275.985 116.354 266.504 116.354H249.537C240.056 116.354 232.424 109.099 232.424 100.087C232.424 91.0742 240.056 83.8188 249.537 83.8188Z" fill="#D09D75"/>
<path d="M258.47 103.836C260.678 103.836 262.455 105.688 262.455 107.988V111.838C262.455 114.138 260.678 115.989 258.47 115.989C256.262 115.989 254.484 114.138 254.484 111.838V107.988C254.484 105.688 256.262 103.836 258.47 103.836Z" fill="#815848" fill-opacity="0.99"/>
<path d="M248.406 99.4805C247.352 99.4805 246.375 99.765 245.56 100.253C242.854 100.411 240.317 101.475 238.463 103.227C236.61 104.979 235.578 107.29 235.578 109.69C235.578 112.199 236.704 114.605 238.709 116.379C240.713 118.153 243.432 119.149 246.267 119.149C248.849 119.147 251.343 118.316 253.288 116.813C255.232 115.309 256.496 113.234 256.845 110.969C256.917 110.658 256.956 110.336 256.956 110.006V104.128C256.956 101.553 254.659 99.4805 251.806 99.4805H248.406ZM264.238 99.4805C261.386 99.4805 259.089 101.553 259.089 104.128V110.006C259.089 110.336 259.127 110.658 259.199 110.969C259.548 113.234 260.812 115.309 262.757 116.813C264.701 118.316 267.195 119.147 269.777 119.149C272.612 119.149 275.33 118.153 277.335 116.379C279.339 114.605 280.466 112.199 280.466 109.69C280.465 107.29 279.434 104.979 277.58 103.227C275.727 101.475 273.19 100.411 270.484 100.253C269.67 99.765 268.692 99.4805 267.637 99.4805H264.238Z" fill="#9D6B5A"/>
<path d="M238.523 104.584C237.302 104.122 235.976 106.88 234.836 107.334C234.734 107.921 234.681 108.516 234.676 109.112C234.676 115.207 239.653 120.148 245.792 120.148C248.896 120.141 251.856 118.845 253.954 116.573C253.844 111.045 249.07 108.57 243.929 106.627L238.523 104.584ZM271.799 106.627C266.763 108.531 262.061 110.868 261.782 116.238C263.889 118.71 266.981 120.14 270.242 120.148C276.381 120.148 281.357 115.207 281.357 109.112C281.352 108.562 281.307 108.014 281.219 107.47C279.991 106.929 278.544 104.077 277.205 104.584L271.799 106.627Z" fill="#444444"/>
<path d="M253.663 114.315H262.828C263.387 114.315 263.837 114.769 263.837 115.336C263.837 115.901 263.387 116.356 262.828 116.356H253.663C253.104 116.356 252.654 115.901 252.654 115.336C252.654 114.769 253.104 114.315 253.663 114.315Z" fill="#444444"/>
<path d="M277.26 104.526C277.176 104.532 277.093 104.551 277.01 104.582L271.66 106.604C267.436 108.2 263.452 110.103 262.165 113.878C264.229 116.037 267.101 117.275 270.118 117.282C275.712 117.282 280.327 113.14 281.026 107.779C281.011 107.666 281.002 107.55 280.984 107.437C279.845 106.935 278.514 104.425 277.26 104.526ZM238.495 104.533C237.351 104.458 236.131 106.881 235.073 107.303C235.047 107.451 235.026 107.599 235.006 107.748C235.691 113.124 240.313 117.282 245.917 117.282C248.815 117.275 251.584 116.134 253.632 114.121C252.422 110.232 248.378 108.23 244.074 106.604L238.723 104.582C238.647 104.554 238.571 104.538 238.495 104.533Z" fill="#4F4F4F"/>
<path d="M254.619 120.882H251.964C250.752 120.882 249.77 121.635 249.77 122.564V124.512C249.77 125.441 250.752 126.194 251.964 126.194H254.619C255.83 126.194 256.813 125.441 256.813 124.512V122.564C256.813 121.635 255.83 120.882 254.619 120.882Z" fill="#D09D75"/>
<path d="M254.618 126.766H250.576C249.363 126.766 248.381 127.52 248.381 128.449V130.396C248.381 131.326 249.363 132.079 250.576 132.079H254.618C255.831 132.079 256.813 131.326 256.813 130.396V128.449C256.813 127.52 255.831 126.766 254.618 126.766Z" fill="#D09D75"/>
<path d="M254.618 132.528H250.576C249.363 132.528 248.381 133.28 248.381 134.21V136.158C248.381 137.087 249.363 137.84 250.576 137.84H254.618C255.831 137.84 256.813 137.087 256.813 136.158V134.21C256.813 133.28 255.831 132.528 254.618 132.528Z" fill="#D09D75"/>
<path d="M261.115 120.882H263.769C264.981 120.882 265.964 121.635 265.964 122.564V124.512C265.964 125.441 264.981 126.194 263.769 126.194H261.115C259.902 126.194 258.92 125.441 258.92 124.512V122.564C258.92 121.635 259.902 120.882 261.115 120.882Z" fill="#D09D75"/>
<path d="M261.113 126.766H265.156C266.368 126.766 267.351 127.52 267.351 128.449V130.396C267.351 131.326 266.368 132.079 265.156 132.079H261.113C259.901 132.079 258.918 131.326 258.918 130.396V128.449C258.918 127.52 259.901 126.766 261.113 126.766Z" fill="#D09D75"/>
<path d="M261.113 132.528H265.156C266.368 132.528 267.351 133.28 267.351 134.21V136.158C267.351 137.087 266.368 137.84 265.156 137.84H261.113C259.901 137.84 258.918 137.087 258.918 136.158V134.21C258.918 133.28 259.901 132.528 261.113 132.528Z" fill="#D09D75"/>
<path d="M237.654 139.474C238.792 156.147 247.533 169.052 258.019 169.052C268.642 169.052 278.006 156.461 278.963 139.474H237.654Z" fill="#4F4F4F"/>
<path d="M278.981 139.471L258.737 142.741L258.566 168.982L260.466 180.482H283.665C283.808 159.208 283.57 152.022 278.981 139.471Z" fill="#4B4B4B"/>
<path d="M237.665 139.447L258.388 142.73V168.98L256.455 180.48H233.309C233.162 159.135 232.941 152.039 237.665 139.447Z" fill="#4B4B4B"/>
<path d="M269.075 98.9389H248.426C243.2 98.9389 231.797 91.6337 231.797 98.9389L233.54 105.531C233.54 115.033 234.8 120.137 243.344 120.137H272.604C280.204 120.137 282.068 116.276 282.068 106.91L285.332 99.3145C285.332 92.0092 274.301 98.9389 269.075 98.9389Z" fill="#1874A3"/>
<path d="M230.916 84.927C224.615 84.927 221.094 90.202 221.094 94.2295C221.094 101.013 224.007 103.807 232.601 103.807H283.163C291.975 103.807 295.204 101.91 295.204 94.2375C295.204 90.2094 291.443 84.927 285.241 84.927H275.04C274.818 89.3769 270.927 92.9129 263.332 92.9129H254.082C245.175 92.9129 241.318 89.3769 241.097 84.927H230.916Z" fill="#1874A3"/>
<path d="M274.615 84.9273C274.471 84.9251 274.331 84.9611 274.226 85.0278C274.121 85.0946 274.059 85.187 274.056 85.2845C273.796 89.331 268.902 92.5282 262.839 92.5282H253.372C247.31 92.5282 242.416 89.331 242.156 85.2845C242.153 85.2361 242.136 85.1885 242.106 85.1444C242.076 85.1012 242.033 85.0616 241.98 85.0286C241.927 84.9963 241.866 84.9714 241.799 84.9545C241.732 84.9376 241.661 84.9303 241.589 84.9325C241.518 84.9347 241.447 84.9464 241.382 84.9669C241.318 84.9875 241.259 85.0161 241.211 85.052C241.163 85.0872 241.125 85.129 241.101 85.1745C241.077 85.22 241.065 85.2677 241.069 85.3161C241.353 89.7462 246.742 93.2631 253.372 93.2631H262.839C269.47 93.2631 274.858 89.7462 275.143 85.3161C275.147 85.2669 275.137 85.2178 275.112 85.1716C275.088 85.1254 275.05 85.0828 275.001 85.0469C274.951 85.0102 274.891 84.9816 274.825 84.9611C274.759 84.9405 274.687 84.9288 274.615 84.9273Z" fill="#1D8EC8"/>
<path d="M237.654 139.474C238.792 156.147 247.533 169.052 258.019 169.052C268.642 169.052 278.006 156.461 278.963 139.474H237.654Z" fill="#4F4F4F"/>
<path d="M278.981 139.471L258.737 142.741L258.566 168.982L260.466 180.482H283.665C283.808 159.208 283.57 152.022 278.981 139.471Z" fill="#4B4B4B"/>
<path d="M237.665 139.447L258.388 142.73V168.98L256.455 180.48H233.309C233.162 159.135 232.941 152.039 237.665 139.447Z" fill="#4B4B4B"/>
<path d="M251.146 227.395H238.78C238.123 227.395 237.59 228.065 237.59 228.893V242.027C237.59 242.855 238.123 243.525 238.78 243.525H251.146C251.803 243.525 252.336 242.855 252.336 242.027V228.893C252.336 228.065 251.803 227.395 251.146 227.395Z" fill="white"/>
<path d="M246.151 232.02H242.235C241.305 232.02 240.551 232.97 240.551 234.141V236.045C240.551 237.217 241.305 238.166 242.235 238.166H246.151C247.082 238.166 247.835 237.217 247.835 236.045V234.141C247.835 232.97 247.082 232.02 246.151 232.02Z" fill="#4B4B4B"/>
<path d="M247.219 235.288H241.446C238.117 235.288 235.418 238.686 235.418 242.879C235.418 247.072 238.117 250.47 241.446 250.47H247.219C250.547 250.47 253.246 247.072 253.246 242.879C253.246 238.686 250.547 235.288 247.219 235.288Z" fill="#4F4F4F"/>
<path d="M251.597 242.184H237.203C236.056 242.184 235.127 243.31 235.127 244.698V247.985C235.127 249.374 236.056 250.5 237.203 250.5H251.597C252.744 250.5 253.673 249.374 253.673 247.985V244.698C253.673 243.31 252.744 242.184 251.597 242.184Z" fill="#4F4F4F"/>
<path d="M252.495 247.319H236.169C235.754 247.319 235.418 247.742 235.418 248.265V249.501C235.418 250.023 235.754 250.447 236.169 250.447H252.495C252.91 250.447 253.246 250.023 253.246 249.501V248.265C253.246 247.742 252.91 247.319 252.495 247.319Z" fill="white"/>
<path d="M246.562 235.669H241.985C241.746 235.669 241.553 235.913 241.553 236.214C241.553 236.514 241.746 236.757 241.985 236.757H246.562C246.8 236.757 246.994 236.514 246.994 236.214C246.994 235.913 246.8 235.669 246.562 235.669Z" fill="white"/>
<path d="M248.118 239.171H245.918C245.143 239.171 244.514 239.962 244.514 240.94C244.514 241.917 245.143 242.709 245.918 242.709H248.118C248.894 242.709 249.522 241.917 249.522 240.94C249.522 239.962 248.894 239.171 248.118 239.171Z" fill="#585858"/>
<path d="M246.562 237.41H241.985C241.746 237.41 241.553 237.653 241.553 237.953C241.553 238.253 241.746 238.497 241.985 238.497H246.562C246.8 238.497 246.994 238.253 246.994 237.953C246.994 237.653 246.8 237.41 246.562 237.41Z" fill="white"/>
<path d="M278.079 227.394H265.005C264.31 227.394 263.746 228.065 263.746 228.893V242.026C263.746 242.854 264.31 243.525 265.005 243.525H278.079C278.774 243.525 279.337 242.854 279.337 242.026V228.893C279.337 228.065 278.774 227.394 278.079 227.394Z" fill="white"/>
<path d="M274.385 232.041H270.518C269.6 232.041 268.855 232.992 268.855 234.162V236.066C268.855 237.238 269.6 238.188 270.518 238.188H274.385C275.303 238.188 276.048 237.238 276.048 236.066V234.162C276.048 232.992 275.303 232.041 274.385 232.041Z" fill="#4B4B4B"/>
<path d="M275.396 235.288H269.698C266.411 235.288 263.746 238.686 263.746 242.879C263.746 247.072 266.411 250.47 269.698 250.47H275.396C278.683 250.47 281.588 247.132 281.588 242.94C281.588 238.746 278.683 235.288 275.396 235.288Z" fill="#4F4F4F"/>
<path d="M279.759 242.184H265.548C264.416 242.184 263.498 243.31 263.498 244.698V247.985C263.498 249.374 264.416 250.5 265.548 250.5H279.759C280.891 250.5 281.808 249.374 281.808 247.985V244.698C281.808 243.31 280.891 242.184 279.759 242.184Z" fill="#4F4F4F"/>
<path d="M280.606 247.319H264.488C264.079 247.319 263.746 247.742 263.746 248.265V249.501C263.746 250.023 264.079 250.447 264.488 250.447H280.606C281.015 250.447 281.347 250.023 281.347 249.501V248.265C281.347 247.742 281.015 247.319 280.606 247.319Z" fill="white"/>
<path d="M274.929 235.669H270.409C270.173 235.669 269.982 235.913 269.982 236.214C269.982 236.514 270.173 236.757 270.409 236.757H274.929C275.164 236.757 275.355 236.514 275.355 236.214C275.355 235.913 275.164 235.669 274.929 235.669Z" fill="white"/>
<path d="M276.989 239.192H274.818C274.052 239.192 273.432 239.984 273.432 240.961C273.432 241.938 274.052 242.73 274.818 242.73H276.989C277.755 242.73 278.376 241.938 278.376 240.961C278.376 239.984 277.755 239.192 276.989 239.192Z" fill="#585858"/>
<path d="M274.929 237.431H270.409C270.173 237.431 269.982 237.675 269.982 237.974C269.982 238.275 270.173 238.518 270.409 238.518H274.929C275.164 238.518 275.355 238.275 275.355 237.974C275.355 237.675 275.164 237.431 274.929 237.431Z" fill="white"/>
<rect x="149.609" y="217.02" width="215.726" height="6.29979" rx="3.1499" fill="black"/>
<rect x="344.156" y="244.876" width="49.412" height="6.33734" rx="3.16867" transform="rotate(-90 344.156 244.876)" fill="black"/>
<rect x="335.912" y="244.876" width="49.412" height="6.33734" rx="3.16867" transform="rotate(-90 335.912 244.876)" fill="black"/>
<rect x="327.668" y="244.876" width="49.412" height="6.33734" rx="3.16867" transform="rotate(-90 327.668 244.876)" fill="black"/>
<rect x="184.854" y="244.876" width="49.412" height="6.33734" rx="3.16867" transform="rotate(-90 184.854 244.876)" fill="black"/>
<rect x="176.609" y="244.876" width="49.412" height="6.33734" rx="3.16867" transform="rotate(-90 176.609 244.876)" fill="black"/>
<rect x="168.365" y="244.876" width="49.412" height="6.33734" rx="3.16867" transform="rotate(-90 168.365 244.876)" fill="black"/>
<path d="M11.4042 117.036L11.3607 117.058C8.58027 118.443 7.26238 121.739 8.41711 124.42L12.0616 134.213L17.0879 144.548C18.2426 147.228 21.4327 148.279 24.2131 146.893L24.2566 146.872C27.037 145.487 30.1897 141.635 29.0349 138.954L20.3642 118.826C19.2094 116.145 14.1846 115.651 11.4042 117.036Z" fill="#D09D75"/>
<path d="M79.5779 105.632C79.5779 92.0597 67.0779 91.6792 54.6791 91.6792C42.2811 91.6792 31.2422 92.0597 31.2422 105.632L32.4167 134.848H77.3489L79.5779 105.632Z" fill="#1874A3"/>
<path d="M87.3716 91.5676C87.3716 78.0133 70.4269 91.5676 52.3813 91.5676C34.3349 91.5676 22.0195 78.0133 22.0195 91.5676C22.0195 105.123 36.6488 116.111 54.696 116.111C72.7416 116.111 87.3716 105.123 87.3716 91.5676Z" fill="#1874A3"/>
<path d="M75.4454 89.44L37.031 90.9343C28.3145 90.9343 22.0195 79.7721 22.0195 87.2046V95.3145C22.0195 102.746 29.0858 108.771 37.8023 108.771H71.5881C80.3053 108.771 87.3716 102.746 87.3716 95.3145V87.2046C87.3716 79.7721 84.1626 89.44 75.4454 89.44Z" fill="#1874A3"/>
<path d="M74.0652 92.5792H34.9292C27.7993 92.5792 22.0195 78.9491 22.0195 86.5926V94.9327C22.0195 102.575 27.7993 108.771 34.9292 108.771H74.8409C81.9708 108.771 87.7506 102.575 87.7506 94.9327V86.5926C87.7506 78.9491 81.195 92.5792 74.0652 92.5792Z" fill="#1874A3"/>
<path d="M23.5271 73.75C16.8159 73.75 11.4121 79.0655 11.4121 85.6676C11.4121 92.2698 16.8159 97.586 23.5271 97.586H85.3329C92.0441 97.586 97.4471 92.2698 97.4471 85.6676C97.4471 79.0655 92.0441 73.75 85.3329 73.75H77.7955C77.5355 81.0439 67.1883 86.8397 59.7089 86.8397H48.6096C41.1302 86.8397 31.9945 81.0439 31.7353 73.75H23.5271Z" fill="#1874A3"/>
<path d="M77.6268 73.1214C77.4295 73.1162 77.2384 73.1776 77.0953 73.2908C76.9514 73.4039 76.8679 73.5598 76.8617 73.7239C76.5066 80.5659 69.8186 85.972 61.5338 85.972H48.5941C40.3086 85.972 33.6206 80.5659 33.2655 73.7239C33.2609 73.643 33.2376 73.562 33.1974 73.4879C33.1556 73.4152 33.0976 73.3477 33.0249 73.2923C32.953 73.2376 32.8686 73.1948 32.7773 73.1671C32.6853 73.1386 32.5878 73.1259 32.4896 73.1296C32.3929 73.1334 32.2969 73.1529 32.208 73.1874C32.119 73.2226 32.0393 73.2705 31.9735 73.3312C31.9086 73.3912 31.8567 73.4616 31.8235 73.5388C31.7902 73.6153 31.7755 73.6962 31.7801 73.7779C32.1677 81.2681 39.5327 87.2145 48.5941 87.2145H61.5338C70.5953 87.2145 77.9595 81.2681 78.3478 73.7779C78.354 73.6947 78.3393 73.6123 78.306 73.5343C78.2728 73.4556 78.221 73.3829 78.1536 73.3222C78.0863 73.2608 78.0051 73.2121 77.9138 73.1776C77.8233 73.1424 77.7258 73.1237 77.6268 73.1214Z" fill="#1D8EC8"/>
<rect y="134.03" width="51.9453" height="6.95983" rx="3.47991" fill="black"/>
<rect x="11.4141" y="152.302" width="29.5843" height="3.79433" rx="1.89717" transform="rotate(-90 11.4141 152.302)" fill="black"/>
<rect x="6.47656" y="152.302" width="29.5843" height="3.79433" rx="1.89717" transform="rotate(-90 6.47656 152.302)" fill="black"/>
<rect x="1.54102" y="152.302" width="29.5843" height="3.79433" rx="1.89717" transform="rotate(-90 1.54102 152.302)" fill="black"/>
<rect x="45.0117" y="152.302" width="29.5843" height="3.79433" rx="1.89717" transform="rotate(-90 45.0117 152.302)" fill="black"/>
<rect x="40.0742" y="152.302" width="29.5843" height="3.79433" rx="1.89717" transform="rotate(-90 40.0742 152.302)" fill="black"/>
<rect x="35.1387" y="152.302" width="29.5843" height="3.79433" rx="1.89717" transform="rotate(-90 35.1387 152.302)" fill="black"/>
<path d="M29.7357 142.452C30.3631 145.274 28.0529 147.794 24.5755 148.081C21.0982 148.369 17.7707 146.315 17.1433 143.493L15.4296 135.788C14.846 133.164 22.1777 131.496 26.0035 131.045C26.5158 130.984 27.0516 131.127 27.4995 131.421C28.6728 132.19 29.4047 133.397 29.4501 134.638L29.7357 142.452Z" fill="#D09D75"/>
<path d="M32.7736 141.503C32.3893 143.149 31.0481 144.158 29.7781 143.757C28.5081 143.356 27.7901 141.697 28.1745 140.052L29.2243 135.558C29.6086 133.912 30.9498 132.903 32.2198 133.304C33.4898 133.705 34.2078 135.364 33.8234 137.009L32.7736 141.503Z" fill="#D09D75"/>
<path d="M256.712 13.9248C258.144 13.4454 259.692 13.4454 261.124 13.9248L264.16 14.9412C264.821 15.1625 265.511 15.2831 266.208 15.299L269.431 15.3722C271.029 15.4086 272.566 15.995 273.782 17.0326L275.662 18.6359C276.253 19.1407 276.925 19.5425 277.65 19.8246L279.955 20.7219C281.674 21.3913 283.057 22.7172 283.798 24.4071L284.346 25.6574C284.715 26.4989 285.247 27.2588 285.911 27.8933L286.841 28.7811C288.38 30.2502 289.161 32.3432 288.96 34.461L288.907 35.0202C288.81 36.0431 288.942 37.0747 289.292 38.0408L289.471 38.5368C290.222 40.6098 289.944 42.9161 288.723 44.7517L288.285 45.4098C287.739 46.231 287.373 47.1591 287.213 48.1324L287.072 48.9919C286.749 50.9614 285.594 52.6966 283.902 53.7553L282.3 54.7578C281.584 55.2056 280.956 55.7801 280.446 56.4531L279.28 57.9927C278.25 59.3528 276.756 60.2864 275.082 60.6155L272.2 61.1821C271.486 61.3224 270.799 61.5741 270.163 61.9277L267.62 63.3425C266.281 64.0872 264.733 64.3686 263.218 64.1427L259.942 63.6544C259.263 63.5531 258.573 63.5531 257.894 63.6544L254.618 64.1427C253.103 64.3686 251.555 64.0872 250.216 63.3425L247.673 61.9277C247.037 61.5741 246.35 61.3224 245.636 61.1821L242.754 60.6155C241.08 60.2864 239.586 59.3528 238.556 57.9927L237.39 56.4531C236.88 55.7801 236.252 55.2056 235.536 54.7578L233.934 53.7553C232.242 52.6966 231.087 50.9614 230.764 48.9919L230.623 48.1324C230.463 47.1591 230.097 46.231 229.551 45.4098L229.113 44.7517C227.892 42.9161 227.614 40.6098 228.365 38.5368L228.544 38.0407C228.894 37.0747 229.026 36.0431 228.929 35.0202L228.876 34.461C228.675 32.3432 229.456 30.2502 230.995 28.7811L231.925 27.8933C232.589 27.2588 233.121 26.4989 233.49 25.6574L234.038 24.4071C234.779 22.7172 236.162 21.3913 237.881 20.7219L240.186 19.8246C240.91 19.5425 241.583 19.1407 242.174 18.6359L244.054 17.0326C245.27 15.995 246.807 15.4086 248.405 15.3722L251.628 15.299C252.325 15.2831 253.015 15.1625 253.676 14.9412L256.712 13.9248Z" fill="#815848" fill-opacity="0.99"/>
<path d="M258.016 55.8174C263.685 55.8174 268.25 62.3403 268.25 70.4435V76.444C268.25 84.5472 263.685 91.0708 258.016 91.0708C252.346 91.0708 247.781 84.5472 247.781 76.444V70.4435C247.781 62.3403 252.346 55.8174 258.016 55.8174Z" fill="#D09D75"/>
<path d="M256.403 57.5439H259.67C263.431 57.5439 266.459 61.7525 266.459 66.9806V70.8518C266.459 76.0799 263.431 80.2885 259.67 80.2885H256.403C252.641 80.2885 249.613 76.0799 249.613 70.8518V66.9806C249.613 61.7525 252.641 57.5439 256.403 57.5439Z" fill="#CC9B75"/>
<path d="M246.065 84.7053C245.372 84.7053 244.814 85.2598 244.814 85.9485C244.814 86.6373 245.372 87.191 246.065 87.191H253.018L255.014 88.6374C255.576 89.0445 256.357 88.9227 256.767 88.3646C257.176 87.8064 257.054 87.0297 256.492 86.6226L254.425 85.1249C254.404 85.1095 254.38 85.1007 254.358 85.0867C254.132 84.852 253.814 84.7053 253.459 84.7053H246.065ZM262.327 84.7053C261.972 84.7053 261.654 84.852 261.427 85.0867C261.405 85.1007 261.382 85.1095 261.36 85.1249L259.294 86.6226C258.732 87.0297 258.61 87.8064 259.019 88.3646C259.429 88.9227 260.21 89.0445 260.771 88.6374L262.767 87.191H269.721C270.414 87.191 270.971 86.6373 270.971 85.9485C270.971 85.2598 270.414 84.7053 269.721 84.7053H262.327Z" fill="#C68858"/>
<path d="M241.424 48.7006H275.329C279.217 48.7006 282.347 51.8126 282.347 55.678C282.347 59.5433 279.217 62.6546 275.329 62.6546H241.424C237.536 62.6546 234.406 59.5433 234.406 55.678C234.406 51.8126 237.536 48.7006 241.424 48.7006Z" fill="#D09D75"/>
<path d="M241.672 50.4749H275.081C277.981 50.4749 280.316 52.7955 280.316 55.678C280.316 58.5605 277.981 60.8812 275.081 60.8812H241.672C238.772 60.8812 236.438 58.5605 236.438 55.678C236.438 52.7955 238.772 50.4749 241.672 50.4749Z" fill="#C68858"/>
<path d="M254.567 29.0902H262.188C268.522 29.0902 278.54 37.9805 278.54 46.7233V59.1283C278.54 67.8711 269.151 77.4399 262.424 77.4399H254.331C247.604 77.4399 238.215 67.8711 238.215 59.1283V46.7233C238.215 37.9805 248.232 29.0902 254.567 29.0902Z" fill="#D09D75"/>
<path d="M256.662 72.7297H258.856C259.032 72.7297 259.174 72.853 259.174 73.0055V73.1683C259.174 73.3209 259.032 73.4441 258.856 73.4441H256.662C256.485 73.4441 256.344 73.3209 256.344 73.1683V73.0055C256.344 72.853 256.485 72.7297 256.662 72.7297Z" fill="#CC9B75"/>
<path d="M258.374 53.0862C259.719 53.0862 260.802 54.2245 260.802 55.6379V60.1421C260.802 61.5554 259.719 62.6938 258.374 62.6938C257.028 62.6938 255.945 61.5554 255.945 60.1421V55.6379C255.945 54.2245 257.028 53.0862 258.374 53.0862Z" fill="#C68858"/>
<path d="M262.422 59.7995C262.422 60.9261 261.463 61.8319 260.272 61.8319H256.479C255.289 61.8319 254.33 60.9261 254.33 59.7995C254.33 58.6736 255.289 57.7678 256.479 57.7678H260.272C261.463 57.7678 262.422 58.6736 262.422 59.7995Z" fill="#C68858"/>
<path d="M252.256 64.7603C251.974 64.7603 251.704 64.8505 251.505 65.0104C251.305 65.1703 251.193 65.3881 251.193 65.6147V66.258C251.193 67.5276 251.648 68.6909 252.451 69.5776C253.256 70.4651 254.472 71.0929 255.862 71.0929H260.796C262.187 71.0929 263.404 70.4651 264.207 69.5776C265.011 68.6909 265.466 67.5276 265.466 66.258V65.6147C265.466 65.3881 265.354 65.1703 265.155 65.0104C264.955 64.8505 264.685 64.7603 264.403 64.7603H252.256Z" fill="white"/>
<path d="M246.395 47.5578L253.225 48.1115C253.968 48.1717 254.517 48.8149 254.456 49.5528C254.396 50.2914 253.749 50.837 253.006 50.7769L246.175 50.2231C245.433 50.163 244.884 49.5205 244.944 48.7819C245.005 48.0433 245.652 47.4976 246.395 47.5578Z" fill="#4D4D4D"/>
<path d="M244.081 48.7613L245.425 47.8746C245.97 47.5152 246.699 47.6619 247.061 48.2032C247.423 48.7452 247.275 49.4706 246.731 49.83L245.387 50.7167C244.842 51.0761 244.112 50.9294 243.751 50.3881C243.389 49.8461 243.536 49.1207 244.081 48.7613Z" fill="#4D4D4D"/>
<path d="M270.359 47.5578L263.529 48.1115C262.786 48.1717 262.237 48.8149 262.298 49.5528C262.358 50.2914 263.005 50.837 263.747 50.7769L270.578 50.2231C271.32 50.163 271.87 49.5205 271.81 48.7819C271.748 48.0433 271.102 47.4976 270.359 47.5578Z" fill="#4D4D4D"/>
<path d="M272.672 48.7613L271.329 47.8746C270.783 47.5152 270.054 47.6619 269.692 48.2032C269.331 48.7452 269.478 49.4706 270.023 49.83L271.367 50.7167C271.911 51.0761 272.641 50.9294 273.003 50.3881C273.364 49.8461 273.217 49.1207 272.672 48.7613Z" fill="#4D4D4D"/>
<path d="M246.395 47.5578L253.225 48.1115C253.968 48.1717 254.517 48.8149 254.456 49.5528C254.396 50.2914 253.749 50.837 253.006 50.7769L246.175 50.2231C245.433 50.163 244.884 49.5205 244.944 48.7819C245.005 48.0433 245.652 47.4976 246.395 47.5578Z" fill="#4D4D4D"/>
<path d="M270.359 47.5578L263.529 48.1115C262.786 48.1717 262.237 48.8149 262.298 49.5528C262.358 50.2914 263.005 50.837 263.747 50.7769L270.578 50.2231C271.32 50.163 271.87 49.5205 271.81 48.7819C271.748 48.0433 271.102 47.4976 270.359 47.5578Z" fill="#4D4D4D"/>
<path d="M248.658 52.5825H249.551C250.363 52.5825 251.016 53.2324 251.016 54.0384V56.0885C251.016 56.8945 250.363 57.5436 249.551 57.5436H248.658C247.846 57.5436 247.193 56.8945 247.193 56.0885V54.0384C247.193 53.2324 247.846 52.5825 248.658 52.5825Z" fill="#61534B"/>
<path d="M266.198 52.5825H265.304C264.493 52.5825 263.84 53.2324 263.84 54.0384V56.0885C263.84 56.8945 264.493 57.5436 265.304 57.5436H266.198C267.01 57.5436 267.663 56.8945 267.663 56.0885V54.0384C267.663 53.2324 267.01 52.5825 266.198 52.5825Z" fill="#61534B"/>
<path fill-rule="evenodd" clip-rule="evenodd" d="M260.508 36.9176C259.104 36.3534 257.537 36.3534 256.134 36.9176L254.837 37.4388C253.918 37.8081 252.921 37.9387 251.938 37.8187L249.868 37.5657C248.362 37.3817 246.853 37.8853 245.759 38.9371C244.951 39.7137 243.908 40.1994 242.794 40.3176L240.401 40.5716C239.293 40.6892 238.399 41.5298 238.214 42.6282L238.213 42.6329V29.0903H278.539V43.2882L278.428 42.6282C278.242 41.5298 277.348 40.6892 276.241 40.5716L273.848 40.3176C272.734 40.1994 271.69 39.7137 270.883 38.9371C269.789 37.8853 268.28 37.3817 266.773 37.5657L264.703 37.8187C263.72 37.9387 262.723 37.8081 261.805 37.4388L260.508 36.9176Z" fill="#815848" fill-opacity="0.99"/>
<path d="M67.6412 60.3588C67.6412 52.5542 62.3579 46.2277 55.839 46.2277C49.3193 46.2277 44.0352 52.5542 44.0352 60.3588V66.1567C44.0352 73.9612 49.3193 80.2885 55.839 80.2885C62.3579 80.2885 67.6412 73.9612 67.6412 66.1567V60.3588Z" fill="#D09D75"/>
<path d="M51.4993 76.8649L45.057 73.7689C44.3399 73.424 43.4797 73.7259 43.1349 74.4422C42.79 75.1601 43.0918 76.0196 43.809 76.3644L50.252 79.462C50.9683 79.8069 51.8294 79.505 52.1742 78.7871C52.5191 78.0708 52.2172 77.2098 51.4993 76.8649Z" fill="#C68858"/>
<path d="M59.3297 76.8649L65.7727 73.7689C66.4898 73.424 67.3509 73.7259 67.6957 74.4422C68.039 75.1601 67.738 76.0196 67.0208 76.3644L60.5786 79.462C59.8607 79.8069 59.0004 79.505 58.6564 78.7871C58.3115 78.0708 58.6133 77.2098 59.3297 76.8649Z" fill="#C68858"/>
<path d="M57.8564 47.1777H53.2785C48.0233 47.1777 43.7637 51.4374 43.7637 56.6918V60.5956C43.7637 65.85 48.0233 70.1097 53.2785 70.1097H57.8564C63.1108 70.1097 67.3705 65.85 67.3705 60.5956V56.6918C67.3705 51.4374 63.1108 47.1777 57.8564 47.1777Z" fill="#C68858"/>
<path d="M72.6923 38.8971H39.4275C35.6245 38.8971 32.541 42.0463 32.541 45.9314C32.541 49.8172 35.6245 52.9664 39.4275 52.9664H72.6923C76.4952 52.9664 79.5795 49.8172 79.5795 45.9314C79.5795 42.0463 76.4952 38.8971 72.6923 38.8971Z" fill="#D09D75"/>
<path d="M72.196 39.9606H39.3183C36.4734 39.9606 34.168 42.309 34.168 45.2064C34.168 48.1037 36.4734 50.4529 39.3183 50.4529H72.196C75.0402 50.4529 77.3464 48.1037 77.3464 45.2064C77.3464 42.309 75.0402 39.9606 72.196 39.9606Z" fill="#C68858"/>
<path d="M60.6875 18.4449H50.8411C42.6839 18.4449 36.0703 25.0577 36.0703 33.2157V50.7205C36.0703 58.8793 42.6839 65.4928 50.8411 65.4928H60.6875C68.8448 65.4928 75.4583 58.8793 75.4583 50.7205V33.2157C75.4583 25.0577 68.8448 18.4449 60.6875 18.4449Z" fill="#D09D75"/>
<path d="M60.3764 63.4897H51.176C50.1813 63.4897 49.375 64.2968 49.375 65.2907C49.375 66.2862 50.1813 67.0933 51.176 67.0933H60.3764C61.3712 67.0933 62.1774 66.2862 62.1774 65.2907C62.1774 64.2968 61.3712 63.4897 60.3764 63.4897Z" fill="#D09D75"/>
<path d="M57.262 61.4761H54.6016C54.3888 61.4761 54.2168 61.6489 54.2168 61.8616V62.0884C54.2168 62.3011 54.3888 62.4739 54.6016 62.4739H57.262C57.4739 62.4739 57.6467 62.3011 57.6467 62.0884V61.8616C57.6467 61.6489 57.4739 61.4761 57.262 61.4761Z" fill="#C68858"/>
<path d="M58.6401 44.4596C58.6401 42.8619 57.3458 41.5669 55.7474 41.5669C54.1505 41.5669 52.8555 42.8619 52.8555 44.4596V49.563C52.8555 51.1599 54.1505 52.4557 55.7474 52.4557C57.3458 52.4557 58.6401 51.1599 58.6401 49.563V44.4596Z" fill="#C68858"/>
<path d="M55.4294 50.2356L52.74 47.9497C52.2951 47.572 51.6288 47.6259 51.2511 48.0701C50.8741 48.5151 50.9273 49.1814 51.3723 49.5591L54.0617 51.8449C54.5058 52.2219 55.1729 52.1679 55.5498 51.7237C55.9276 51.2795 55.8736 50.6125 55.4294 50.2356Z" fill="#C68858"/>
<path d="M56.1675 50.2354L58.8569 47.9496C59.3011 47.5719 59.9674 47.6258 60.3451 48.07C60.7228 48.515 60.6681 49.1813 60.2246 49.559L57.5345 51.8448C57.0895 52.2218 56.424 52.1678 56.0463 51.7236C55.6686 51.2794 55.7226 50.6124 56.1675 50.2354Z" fill="#C68858"/>
<path d="M53.9336 39.1652C53.9336 38.7171 53.5708 38.3542 53.1234 38.3542C52.6753 38.3542 52.3125 38.7171 52.3125 39.1652V40.1466C52.3125 40.594 52.6753 40.9576 53.1234 40.9576C53.5708 40.9576 53.9336 40.594 53.9336 40.1466V39.1652Z" fill="#C68858"/>
<path d="M59.3164 39.1652C59.3164 38.7171 58.9544 38.3542 58.5055 38.3542C58.0582 38.3542 57.6953 38.7171 57.6953 39.1652V40.1466C57.6953 40.594 58.0582 40.9576 58.5055 40.9576C58.9544 40.9576 59.3164 40.594 59.3164 40.1466V39.1652Z" fill="#C68858"/>
<path d="M48.7411 40.8428C48.7411 39.8434 47.9309 39.0332 46.9315 39.0332C45.9313 39.0332 45.1211 39.8434 45.1211 40.8428V41.5677C45.1211 42.5672 45.9313 43.3773 46.9315 43.3773C47.9309 43.3773 48.7411 42.5672 48.7411 41.5677V40.8428Z" fill="#61534B"/>
<path d="M66.3426 40.8428C66.3426 39.8434 65.5325 39.0332 64.533 39.0332C63.5328 39.0332 62.7227 39.8434 62.7227 40.8428V41.5669C62.7227 42.5671 63.5328 43.3773 64.533 43.3773C65.5325 43.3773 66.3426 42.5671 66.3426 41.5669V40.8428Z" fill="#61534B"/>
<path d="M59.1737 59.4571C61.838 59.4571 63.9823 57.1666 63.9823 54.3208V53.4895H47.7891V54.3208C47.7891 57.1666 49.9341 59.4571 52.5977 59.4571H59.1737Z" fill="white"/>
<path fill-rule="evenodd" clip-rule="evenodd" d="M68.4608 37.3182C68.4608 37.1031 68.2857 36.9287 68.0706 36.9287H62.6121C62.397 36.9287 62.2227 37.1031 62.2227 37.3182V38.0978C62.2227 38.3137 62.397 38.4881 62.6121 38.4881H68.0706C68.2857 38.4881 68.4608 38.3137 68.4608 38.0978V37.3182Z" fill="#61534B"/>
<path fill-rule="evenodd" clip-rule="evenodd" d="M49.7272 37.2953C49.7272 37.0803 49.5521 36.9059 49.337 36.9059H43.8785C43.6634 36.9059 43.4883 37.0803 43.4883 37.2953V38.0758C43.4883 38.2908 43.6634 38.4652 43.8785 38.4652H49.337C49.5521 38.4652 49.7272 38.2908 49.7272 38.0758V37.2953Z" fill="#61534B"/>
<path fill-rule="evenodd" clip-rule="evenodd" d="M43.9297 63.1717C39.2243 59.6276 36.3707 55.895 36.9619 51.1599L44.7094 60.8319" fill="#815848"/>
<path fill-rule="evenodd" clip-rule="evenodd" d="M68.1098 63.171C72.457 60.62 76.5728 54.6501 75.0775 51.1599L67.3301 60.8319" fill="#815848"/>
<path d="M49.7073 49.441C46.4635 49.441 43.8516 52.0092 43.8516 55.2006V61.9369C43.8516 65.1276 46.4635 67.6957 49.7073 67.6957H62.2705C65.5143 67.6957 68.1262 65.1276 68.1262 61.9369V55.2006C68.1262 52.0092 65.5143 49.441 62.2705 49.441H61.0419C61.0849 49.7922 60.9536 50.1566 60.6579 50.4037L60.1614 50.819C60.4562 51.0903 60.6752 51.4407 60.7698 51.8418H62.4746C64.2881 51.8418 65.7481 53.2776 65.7481 55.0614V57.9588C65.7481 58.6352 65.5378 59.2616 65.1772 59.7786V60.5731C65.1772 63.1201 63.0932 65.1698 60.5031 65.1698H51.4747C48.8846 65.1698 46.8006 63.1201 46.8006 60.5731V59.7786C46.44 59.2616 46.2289 58.6352 46.2289 57.9588V55.0614C46.2289 53.2776 47.6897 51.8418 49.5032 51.8418H50.5754C50.7036 51.3022 51.0501 50.8495 51.5146 50.5679L51.3199 50.4037C51.0235 50.1566 50.8929 49.7922 50.9359 49.441H49.7073Z" fill="#815848"/>
<path d="M46.7682 18.3431C39.7637 18.3431 34.125 24.3092 34.125 31.7227C34.125 32.0695 34.1411 32.4132 34.1657 32.7553C34.1411 32.9291 34.125 33.1069 34.125 33.2886V41.4843C34.125 43.2439 35.2996 44.7008 36.868 45.0311V34.3347C36.868 26.6787 42.6933 20.5143 49.9288 20.5143H60.1469C67.3816 20.5143 73.2077 26.6787 73.2077 34.3347V45.0445C74.8199 44.7538 76.042 43.2771 76.042 41.4843V33.2886C76.042 33.1069 76.0244 32.9291 76.0006 32.7553C76.0251 32.4132 76.042 32.0695 76.042 31.7227C76.042 24.3092 70.4025 18.3431 63.3981 18.3431H46.7682Z" fill="#82594A"/>
<path d="M61.1259 16.7195H49.7348C45.8978 16.7195 42.7871 20.011 42.7871 24.0729C42.7871 28.1332 45.8978 31.4248 49.7348 31.4248H61.1259C64.9628 31.4248 68.0735 28.1332 68.0735 24.0729C68.0735 20.011 64.9628 16.7195 61.1259 16.7195Z" fill="#82594A"/>
<path d="M46.717 21.3589C46.717 20.2109 45.8372 19.2802 44.7517 19.2802C43.6669 19.2802 42.7871 20.2109 42.7871 21.3589V26.1809C42.7871 27.3281 43.6669 28.2596 44.7517 28.2596C45.8372 28.2596 46.717 27.3281 46.717 26.1809V21.3589Z" fill="#82594A"/>
<path d="M69.017 21.6331C69.017 20.4843 68.138 19.5536 67.0524 19.5536C65.9669 19.5536 65.0879 20.4843 65.0879 21.6331V26.4535C65.0879 27.6023 65.9669 28.5331 67.0524 28.5331C68.138 28.5331 69.017 27.6023 69.017 26.4535V21.6331Z" fill="#82594A"/>
<path d="M41.9739 23.7143C41.8711 22.9573 41.207 22.4311 40.4915 22.5394C39.7752 22.6484 39.2778 23.3516 39.3807 24.1093L39.7131 26.5547C39.8152 27.3124 40.4792 27.8386 41.1955 27.7295C41.9118 27.6205 42.4085 26.9189 42.3056 26.1604L41.9739 23.7143Z" fill="#82594A"/>
<path d="M69.6545 24.3772C69.7566 23.6195 70.4206 23.0941 71.1369 23.2024C71.8532 23.3114 72.3499 24.0138 72.247 24.7723L71.9153 27.2176C71.8125 27.9753 71.1484 28.5015 70.4329 28.3925C69.7167 28.2835 69.2192 27.5819 69.3221 26.8234L69.6545 24.3772Z" fill="#82594A"/>
<path d="M46.7682 18.3431C39.7637 18.3431 34.125 24.3092 34.125 31.7227C34.125 32.0695 34.1411 32.4132 34.1657 32.7553C34.1411 32.9291 34.125 33.1069 34.125 33.2886V41.4843C34.125 43.2439 35.2996 44.7008 36.868 45.0311V34.3347C36.868 26.6787 42.6933 20.5143 49.9288 20.5143H60.1469C67.3816 20.5143 73.2077 26.6787 73.2077 34.3347V45.0445C74.8199 44.7538 76.042 43.2771 76.042 41.4843V33.2886C76.042 33.1069 76.0244 32.9291 76.0006 32.7553C76.0251 32.4132 76.042 32.0695 76.042 31.7227C76.042 24.3092 70.4025 18.3431 63.3981 18.3431H46.7682Z" fill="#82594A"/>
<path d="M49.005 224.517H36.9864C36.348 224.517 35.8301 225.195 35.8301 226.033V239.322C35.8301 240.16 36.348 240.839 36.9864 240.839H49.005C49.6435 240.839 50.1621 240.16 50.1621 239.322V226.033C50.1621 225.195 49.6435 224.517 49.005 224.517Z" fill="white"/>
<path d="M43.7893 229.197H39.8507C38.915 229.197 38.1562 230.158 38.1562 231.343V233.269C38.1562 234.455 38.915 235.416 39.8507 235.416H43.7893C44.7258 235.416 45.4837 234.455 45.4837 233.269V231.343C45.4837 230.158 44.7258 229.197 43.7893 229.197Z" fill="#4B4B4B"/>
<path d="M45.2483 232.504H39.0747C35.5152 232.504 32.6289 235.942 32.6289 240.186C32.6289 244.428 35.5152 247.866 39.0747 247.866H45.2483C48.8078 247.866 51.6934 244.428 51.6934 240.186C51.6934 235.942 48.8078 232.504 45.2483 232.504Z" fill="#4F4F4F"/>
<path d="M50.1514 239.482H34.4689C33.2197 239.482 32.207 240.653 32.207 242.097V245.518C32.207 246.963 33.2197 248.135 34.4689 248.135H50.1514C51.4014 248.135 52.4141 246.963 52.4141 245.518V242.097C52.4141 240.653 51.4014 239.482 50.1514 239.482Z" fill="#4F4F4F"/>
<path d="M50.8551 244.969H33.7296C33.2939 244.969 32.9414 245.398 32.9414 245.926V247.177C32.9414 247.706 33.2939 248.135 33.7296 248.135H50.8551C51.2901 248.135 51.6426 247.706 51.6426 247.177V245.926C51.6426 245.398 51.2901 244.969 50.8551 244.969Z" fill="white"/>
<path d="M44.2031 232.89H39.5985C39.3585 232.89 39.1641 233.136 39.1641 233.44C39.1641 233.744 39.3585 233.99 39.5985 233.99H44.2031C44.4424 233.99 44.6376 233.744 44.6376 233.44C44.6376 233.136 44.4424 232.89 44.2031 232.89Z" fill="white"/>
<path d="M38.4241 236.412H36.2118C35.4321 236.412 34.7988 237.212 34.7988 238.202C34.7988 239.19 35.4321 239.992 36.2118 239.992H38.4241C39.2046 239.992 39.8364 239.19 39.8364 238.202C39.8364 237.212 39.2046 236.412 38.4241 236.412Z" fill="#585858"/>
<path d="M44.2031 234.651H39.5985C39.3585 234.651 39.1641 234.897 39.1641 235.201C39.1641 235.504 39.3585 235.751 39.5985 235.751H44.2031C44.4424 235.751 44.6376 235.504 44.6376 235.201C44.6376 234.897 44.4424 234.651 44.2031 234.651Z" fill="white"/>
<path d="M74.2721 224.516H62.0177C61.3667 224.516 60.8379 225.195 60.8379 226.033V239.322C60.8379 240.159 61.3667 240.839 62.0177 240.839H74.2721C74.9231 240.839 75.4512 240.159 75.4512 239.322V226.033C75.4512 225.195 74.9231 224.516 74.2721 224.516Z" fill="white"/>
<path d="M70.1889 229.218H66.2998C65.376 229.218 64.627 230.18 64.627 231.365V233.291C64.627 234.477 65.376 235.438 66.2998 235.438H70.1889C71.1127 235.438 71.8618 234.477 71.8618 233.291V231.365C71.8618 230.18 71.1127 229.218 70.1889 229.218Z" fill="#4B4B4B"/>
<path d="M72.4074 232.504H66.2351C62.6751 232.504 59.7891 235.942 59.7891 240.186C59.7891 244.428 62.6751 247.866 66.2351 247.866H72.4074C75.9674 247.866 79.1133 244.489 79.1133 240.246C79.1133 236.003 75.9674 232.504 72.4074 232.504Z" fill="#4F4F4F"/>
<path d="M77.2025 239.482H61.5026C60.2529 239.482 59.2383 240.621 59.2383 242.026V245.352C59.2383 246.758 60.2529 247.897 61.5026 247.897H77.2025C78.453 247.897 79.4668 246.758 79.4668 245.352V242.026C79.4668 240.621 78.453 239.482 77.2025 239.482Z" fill="#4F4F4F"/>
<path d="M78.4374 244.969H60.4658C60.0094 244.969 59.6387 245.398 59.6387 245.926V247.177C59.6387 247.706 60.0094 248.135 60.4658 248.135H78.4374C78.8938 248.135 79.2637 247.706 79.2637 247.177V245.926C79.2637 245.398 78.8938 244.969 78.4374 244.969Z" fill="white"/>
<path d="M71.286 232.89H66.7395C66.5025 232.89 66.3105 233.136 66.3105 233.44C66.3105 233.744 66.5025 233.99 66.7395 233.99H71.286C71.5224 233.99 71.715 233.744 71.715 233.44C71.715 233.136 71.5224 232.89 71.286 232.89Z" fill="white"/>
<path d="M72.8069 236.454H70.6235C69.853 236.454 69.2285 237.256 69.2285 238.245C69.2285 239.233 69.853 240.035 70.6235 240.035H72.8069C73.5774 240.035 74.2019 239.233 74.2019 238.245C74.2019 237.256 73.5774 236.454 72.8069 236.454Z" fill="#585858"/>
<path d="M71.286 234.672H66.7395C66.5025 234.672 66.3105 234.919 66.3105 235.222C66.3105 235.526 66.5025 235.773 66.7395 235.773H71.286C71.5224 235.773 71.715 235.526 71.715 235.222C71.715 234.919 71.5224 234.672 71.286 234.672Z" fill="white"/>
</svg>
