<svg width="396" height="259" viewBox="0 0 396 259" fill="none" xmlns="http://www.w3.org/2000/svg">
<path d="M71.6412 60.3588C71.6412 52.5542 66.3579 46.2277 59.839 46.2277C53.3193 46.2277 48.0352 52.5542 48.0352 60.3588V66.1567C48.0352 73.9612 53.3193 80.2885 59.839 80.2885C66.3579 80.2885 71.6412 73.9612 71.6412 66.1567V60.3588Z" fill="#D09D75"/>
<path d="M55.4993 76.8649L49.057 73.7689C48.3399 73.424 47.4797 73.7259 47.1349 74.4422C46.79 75.1601 47.0918 76.0196 47.809 76.3644L54.252 79.462C54.9683 79.8069 55.8294 79.505 56.1742 78.7871C56.5191 78.0708 56.2172 77.2098 55.4993 76.8649Z" fill="#C68858"/>
<path d="M63.3297 76.8649L69.7727 73.7689C70.4898 73.424 71.3509 73.7259 71.6957 74.4422C72.039 75.1601 71.738 76.0196 71.0208 76.3644L64.5786 79.462C63.8607 79.8069 63.0004 79.505 62.6564 78.7871C62.3115 78.0708 62.6133 77.2098 63.3297 76.8649Z" fill="#C68858"/>
<path d="M61.8564 47.1777H57.2785C52.0233 47.1777 47.7637 51.4374 47.7637 56.6918V60.5956C47.7637 65.85 52.0233 70.1097 57.2785 70.1097H61.8564C67.1108 70.1097 71.3705 65.85 71.3705 60.5956V56.6918C71.3705 51.4374 67.1108 47.1777 61.8564 47.1777Z" fill="#C68858"/>
<path d="M76.6923 38.8971H43.4275C39.6245 38.8971 36.541 42.0463 36.541 45.9314C36.541 49.8172 39.6245 52.9664 43.4275 52.9664H76.6923C80.4952 52.9664 83.5795 49.8172 83.5795 45.9314C83.5795 42.0463 80.4952 38.8971 76.6923 38.8971Z" fill="#D09D75"/>
<path d="M76.196 39.9606H43.3183C40.4734 39.9606 38.168 42.309 38.168 45.2064C38.168 48.1037 40.4734 50.4529 43.3183 50.4529H76.196C79.0402 50.4529 81.3464 48.1037 81.3464 45.2064C81.3464 42.309 79.0402 39.9606 76.196 39.9606Z" fill="#C68858"/>
<path d="M64.6875 18.4449H54.8411C46.6839 18.4449 40.0703 25.0577 40.0703 33.2157V50.7205C40.0703 58.8793 46.6839 65.4928 54.8411 65.4928H64.6875C72.8448 65.4928 79.4583 58.8793 79.4583 50.7205V33.2157C79.4583 25.0577 72.8448 18.4449 64.6875 18.4449Z" fill="#D09D75"/>
<path d="M64.3764 63.49H55.176C54.1813 63.49 53.375 64.297 53.375 65.291C53.375 66.2865 54.1813 67.0935 55.176 67.0935H64.3764C65.3712 67.0935 66.1774 66.2865 66.1774 65.291C66.1774 64.297 65.3712 63.49 64.3764 63.49Z" fill="#D09D75"/>
<path d="M61.262 61.4763H58.6016C58.3888 61.4763 58.2168 61.6491 58.2168 61.8619V62.0886C58.2168 62.3013 58.3888 62.4742 58.6016 62.4742H61.262C61.4739 62.4742 61.6467 62.3013 61.6467 62.0886V61.8619C61.6467 61.6491 61.4739 61.4763 61.262 61.4763Z" fill="#C68858"/>
<path d="M62.6401 44.4596C62.6401 42.8619 61.3458 41.5669 59.7474 41.5669C58.1505 41.5669 56.8555 42.8619 56.8555 44.4596V49.563C56.8555 51.1599 58.1505 52.4557 59.7474 52.4557C61.3458 52.4557 62.6401 51.1599 62.6401 49.563V44.4596Z" fill="#C68858"/>
<path d="M59.4294 50.2356L56.74 47.9497C56.2951 47.572 55.6288 47.6259 55.2511 48.0701C54.8741 48.5151 54.9273 49.1814 55.3723 49.5591L58.0617 51.8449C58.5058 52.2219 59.1729 52.1679 59.5498 51.7237C59.9276 51.2795 59.8736 50.6125 59.4294 50.2356Z" fill="#C68858"/>
<path d="M60.1675 50.2354L62.8569 47.9496C63.3011 47.5719 63.9674 47.6258 64.3451 48.07C64.7228 48.515 64.6681 49.1813 64.2246 49.559L61.5345 51.8448C61.0895 52.2218 60.424 52.1678 60.0463 51.7236C59.6686 51.2794 59.7226 50.6124 60.1675 50.2354Z" fill="#C68858"/>
<path d="M57.9336 39.1652C57.9336 38.7171 57.5708 38.3542 57.1234 38.3542C56.6753 38.3542 56.3125 38.7171 56.3125 39.1652V40.1466C56.3125 40.594 56.6753 40.9576 57.1234 40.9576C57.5708 40.9576 57.9336 40.594 57.9336 40.1466V39.1652Z" fill="#C68858"/>
<path d="M63.3164 39.1652C63.3164 38.7171 62.9544 38.3542 62.5055 38.3542C62.0582 38.3542 61.6953 38.7171 61.6953 39.1652V40.1466C61.6953 40.594 62.0582 40.9576 62.5055 40.9576C62.9544 40.9576 63.3164 40.594 63.3164 40.1466V39.1652Z" fill="#C68858"/>
<path d="M52.7411 40.8428C52.7411 39.8434 51.9309 39.0332 50.9315 39.0332C49.9313 39.0332 49.1211 39.8434 49.1211 40.8428V41.5677C49.1211 42.5672 49.9313 43.3773 50.9315 43.3773C51.9309 43.3773 52.7411 42.5672 52.7411 41.5677V40.8428Z" fill="#61534B"/>
<path d="M70.3426 40.8428C70.3426 39.8434 69.5325 39.0332 68.533 39.0332C67.5328 39.0332 66.7227 39.8434 66.7227 40.8428V41.5669C66.7227 42.5671 67.5328 43.3773 68.533 43.3773C69.5325 43.3773 70.3426 42.5671 70.3426 41.5669V40.8428Z" fill="#61534B"/>
<path d="M63.1737 59.4571C65.838 59.4571 67.9823 57.1666 67.9823 54.3208V53.4895H51.7891V54.3208C51.7891 57.1666 53.9341 59.4571 56.5977 59.4571H63.1737Z" fill="white"/>
<path fill-rule="evenodd" clip-rule="evenodd" d="M72.4608 37.3182C72.4608 37.1031 72.2857 36.9287 72.0706 36.9287H66.6121C66.397 36.9287 66.2227 37.1031 66.2227 37.3182V38.0978C66.2227 38.3137 66.397 38.4881 66.6121 38.4881H72.0706C72.2857 38.4881 72.4608 38.3137 72.4608 38.0978V37.3182Z" fill="#61534B"/>
<path fill-rule="evenodd" clip-rule="evenodd" d="M53.7272 37.2953C53.7272 37.0803 53.5521 36.9059 53.337 36.9059H47.8785C47.6634 36.9059 47.4883 37.0803 47.4883 37.2953V38.0758C47.4883 38.2908 47.6634 38.4652 47.8785 38.4652H53.337C53.5521 38.4652 53.7272 38.2908 53.7272 38.0758V37.2953Z" fill="#61534B"/>
<path fill-rule="evenodd" clip-rule="evenodd" d="M47.9297 63.1717C43.2243 59.6276 40.3707 55.895 40.9619 51.1599L48.7094 60.8319" fill="#815848"/>
<path fill-rule="evenodd" clip-rule="evenodd" d="M72.1098 63.171C76.457 60.62 80.5728 54.6501 79.0775 51.1599L71.3301 60.8319" fill="#815848"/>
<path d="M53.7073 49.441C50.4635 49.441 47.8516 52.0092 47.8516 55.2006V61.9369C47.8516 65.1276 50.4635 67.6957 53.7073 67.6957H66.2705C69.5143 67.6957 72.1262 65.1276 72.1262 61.9369V55.2006C72.1262 52.0092 69.5143 49.441 66.2705 49.441H65.0419C65.0849 49.7922 64.9536 50.1566 64.6579 50.4037L64.1614 50.819C64.4562 51.0903 64.6752 51.4407 64.7698 51.8418H66.4746C68.2881 51.8418 69.7481 53.2776 69.7481 55.0614V57.9588C69.7481 58.6352 69.5378 59.2616 69.1772 59.7786V60.5731C69.1772 63.1201 67.0932 65.1698 64.5031 65.1698H55.4747C52.8846 65.1698 50.8006 63.1201 50.8006 60.5731V59.7786C50.44 59.2616 50.2289 58.6352 50.2289 57.9588V55.0614C50.2289 53.2776 51.6897 51.8418 53.5032 51.8418H54.5754C54.7036 51.3022 55.0501 50.8495 55.5146 50.5679L55.3199 50.4037C55.0235 50.1566 54.8929 49.7922 54.9359 49.441H53.7073Z" fill="#815848"/>
<path d="M52.9174 65.7305H54.5573C55.1313 65.7305 55.5959 65.8087 55.5959 65.9049V66.7674C55.5959 66.8636 55.1313 66.9418 54.5573 66.9418H52.9174C52.3434 66.9418 51.8789 66.8636 51.8789 66.7674V65.9049C51.8789 65.8087 52.3434 65.7305 52.9174 65.7305Z" fill="#4D4D4D"/>
<path d="M65.4526 65.7305H67.0925C67.6665 65.7305 68.131 65.8087 68.131 65.9049V66.7674C68.131 66.8636 67.6665 66.9418 67.0925 66.9418H65.4526C64.8786 66.9418 64.4141 66.8636 64.4141 66.7674V65.9049C64.4141 65.8087 64.8786 65.7305 65.4526 65.7305Z" fill="#4D4D4D"/>
<path d="M50.7682 18.3431C43.7637 18.3431 38.125 24.3092 38.125 31.7227C38.125 32.0695 38.1411 32.4132 38.1657 32.7553C38.1411 32.9291 38.125 33.1069 38.125 33.2886V41.4843C38.125 43.2439 39.2996 44.7008 40.868 45.0311V34.3347C40.868 26.6787 46.6933 20.5143 53.9288 20.5143H64.1469C71.3816 20.5143 77.2077 26.6787 77.2077 34.3347V45.0445C78.8199 44.7538 80.042 43.2771 80.042 41.4843V33.2886C80.042 33.1069 80.0244 32.9291 80.0006 32.7553C80.0251 32.4132 80.042 32.0695 80.042 31.7227C80.042 24.3092 74.4025 18.3431 67.3981 18.3431H50.7682Z" fill="#82594A"/>
<path d="M65.1259 16.7195H53.7348C49.8978 16.7195 46.7871 20.011 46.7871 24.0729C46.7871 28.1332 49.8978 31.4248 53.7348 31.4248H65.1259C68.9628 31.4248 72.0735 28.1332 72.0735 24.0729C72.0735 20.011 68.9628 16.7195 65.1259 16.7195Z" fill="#82594A"/>
<path d="M50.717 21.3589C50.717 20.2109 49.8372 19.2802 48.7517 19.2802C47.6669 19.2802 46.7871 20.2109 46.7871 21.3589V26.1809C46.7871 27.3281 47.6669 28.2596 48.7517 28.2596C49.8372 28.2596 50.717 27.3281 50.717 26.1809V21.3589Z" fill="#82594A"/>
<path d="M73.017 21.6331C73.017 20.4843 72.138 19.5536 71.0524 19.5536C69.9669 19.5536 69.0879 20.4843 69.0879 21.6331V26.4535C69.0879 27.6023 69.9669 28.5331 71.0524 28.5331C72.138 28.5331 73.017 27.6023 73.017 26.4535V21.6331Z" fill="#82594A"/>
<path d="M45.9739 23.7143C45.8711 22.9573 45.207 22.4311 44.4915 22.5394C43.7752 22.6484 43.2778 23.3516 43.3807 24.1093L43.7131 26.5547C43.8152 27.3124 44.4792 27.8386 45.1955 27.7295C45.9118 27.6205 46.4085 26.9189 46.3056 26.1604L45.9739 23.7143Z" fill="#82594A"/>
<path d="M73.6545 24.3772C73.7566 23.6195 74.4206 23.0941 75.1369 23.2024C75.8532 23.3114 76.3499 24.0138 76.247 24.7723L75.9153 27.2176C75.8125 27.9753 75.1484 28.5015 74.4329 28.3925C73.7167 28.2835 73.2192 27.5819 73.3221 26.8234L73.6545 24.3772Z" fill="#82594A"/>
<path d="M58.0487 20.354H59.2748C59.9979 20.354 60.5844 20.975 60.5844 21.7398V26.8028C60.5844 27.5676 59.9979 28.1886 59.2748 28.1886H58.0487C57.3248 28.1886 56.7383 27.5676 56.7383 26.8028V21.7398C56.7383 20.975 57.3248 20.354 58.0487 20.354Z" fill="#565656"/>
<path d="M52.7893 20.4915H54.4076C54.9742 20.4915 55.4325 20.9774 55.4325 21.5763V26.9394C55.4325 27.5391 54.9742 28.025 54.4076 28.025H52.7893C52.222 28.025 51.7637 27.5391 51.7637 26.9394V21.5763C51.7637 20.9774 52.222 20.4915 52.7893 20.4915Z" fill="#565656"/>
<path d="M64.6682 20.5143H63.0491C62.4833 20.5143 62.0234 21.0002 62.0234 21.5991V26.9631C62.0234 27.5627 62.4833 28.0479 63.0491 28.0479H64.6682C65.234 28.0479 65.693 27.5627 65.693 26.9631V21.5991C65.693 21.0002 65.234 20.5143 64.6682 20.5143Z" fill="#565656"/>
<path d="M50.7682 18.3431C43.7637 18.3431 38.125 24.3092 38.125 31.7227C38.125 32.0695 38.1411 32.4132 38.1657 32.7553C38.1411 32.9291 38.125 33.1069 38.125 33.2886V41.4843C38.125 43.2439 39.2996 44.7008 40.868 45.0311V34.3347C40.868 26.6787 46.6933 20.5143 53.9288 20.5143H64.1469C71.3816 20.5143 77.2077 26.6787 77.2077 34.3347V45.0445C78.8199 44.7538 80.042 43.2771 80.042 41.4843V33.2886C80.042 33.1069 80.0244 32.9291 80.0006 32.7553C80.0251 32.4132 80.042 32.0695 80.042 31.7227C80.042 24.3092 74.4025 18.3431 67.3981 18.3431H50.7682Z" fill="#82594A"/>
<path fill-rule="evenodd" clip-rule="evenodd" d="M45.8953 20.2027C44.6145 21.0061 43.9407 21.9166 43.9407 22.8436C43.9407 25.7597 50.4763 28.1265 58.527 28.1265C66.5777 28.1265 73.1133 25.7597 73.1133 22.8436C73.1133 21.9166 72.4395 21.0061 71.1587 20.2027L45.8953 20.2027Z" fill="#82594A"/>
<g filter="url(#filter0_d_2165_4940)">
<path d="M79.2722 87.4312L79.2625 87.3861C78.7538 85.006 80.9497 83.0055 84.4057 82.3857C85.928 82.1127 87.4994 81.9585 88.9496 81.5068L94.4842 79.783L95.982 79.492C97.4967 79.1977 98.8113 78.4389 99.7892 77.2943C100.376 76.6073 101.087 76.0563 101.895 75.6622L102.667 75.2855C105.728 73.7925 109.482 73.7548 113.197 75.1797L119.838 77.7269C122.107 78.5968 124.529 78.8583 126.65 80.2886C129.354 82.1119 131.811 85.5104 132.246 87.5473L132.255 87.5924C132.747 89.894 130.71 91.8406 127.45 92.527C125.723 92.8906 123.925 93.0924 122.298 93.6846L120.707 94.2635L114.151 95.7303C112.153 96.1776 110.012 96.218 107.825 95.8498L90.4613 92.9272C89.494 92.7643 88.5366 92.7051 87.576 92.608C83.4024 92.1858 79.8264 90.0244 79.2722 87.4312Z" fill="#D09D75"/>
<path d="M132.249 92.6239L132.197 92.6287C128.913 92.9363 125.785 90.2015 125.211 86.5204L121.179 72.5793L120.897 58.8793C120.323 55.1982 122.519 51.9647 125.803 51.6571L125.855 51.6523C129.139 51.3448 134.221 53.4859 134.795 57.167L139.109 84.8081C139.684 88.4892 135.533 92.3163 132.249 92.6239Z" fill="#D09D75"/>
<path d="M131.671 57.7302L133.25 56.2559C136.276 53.4301 136.052 47.7819 132.751 43.6402L129.818 39.9607C126.517 35.819 121.388 34.7522 118.362 37.5779L116.783 39.0523C113.757 41.878 113.981 47.5262 117.282 51.6679L120.215 55.3474C123.516 59.4891 128.645 60.556 131.671 57.7302Z" fill="#D09D75"/>
<path d="M122.25 48.3375C125.122 50.1894 128.658 49.1475 130.146 46.0104C131.635 42.8732 130.513 38.8288 127.641 36.977L119.796 31.919C117.181 30.2329 113.006 36.0803 111.156 39.5087C110.84 40.0933 110.796 40.8156 110.998 41.4714C111.416 42.8306 112.329 43.9148 113.494 44.434L122.25 48.3375Z" fill="#D09D75"/>
<path d="M118.369 54.3421C119.833 56.1671 122.075 56.6649 123.376 55.4539C124.678 54.2429 124.546 51.7818 123.081 49.9568L119.082 44.9721C117.618 43.1471 115.376 42.6493 114.075 43.8602C112.774 45.0712 112.906 47.5324 114.37 49.3574L118.369 54.3421Z" fill="#C98F62"/>
<path d="M24.8316 84.4598C24.4788 83.4656 24.0487 83.433 23.0939 83.3615C22.502 83.3172 21.9216 83.3301 21.3896 83.4377C20.8575 83.5453 20.2305 83.61 19.7075 83.2198C17.9683 81.9221 17.3012 78.0847 17.9843 82.1542C18.2398 83.4026 18.1954 84.6067 17.854 85.6874L14.2939 96.9568C14.0198 97.8245 13.8359 98.7323 13.7442 99.6715L11.8653 118.901C11.7363 120.222 11.5528 122.876 12.917 122.502C13.9313 122.224 15.3471 120.262 16.6993 119.408C17.4178 118.954 18.4853 119.023 19.4832 119.023L21.7331 119.023C22.0398 119.023 22.9738 119.115 23.2868 119.137C24.6453 119.232 25.2377 118.758 26.2959 118.267L27.1243 117.883C27.5809 117.671 28.0011 117.416 28.3795 117.12L28.7506 116.829C31.5576 114.632 32.8292 111.203 32.2699 107.337L30.673 96.2993C30.3776 94.2571 29.3773 92.158 27.8058 90.2825C26.2891 88.4722 25.5408 86.4583 24.8316 84.4598Z" fill="#D09D75"/>
<path d="M49.4338 189.268L47.725 189.268C43.7132 189.268 40.4611 192.52 40.4611 196.532L40.4609 215.227L40.4612 228.647L39.0098 242.401C39.0098 245.407 41.9758 247.843 45.6346 247.843H47.1792C50.8379 247.843 53.804 245.407 53.804 242.401V222.321C53.804 220.921 54.1474 219.542 54.8043 218.306C55.4611 217.069 55.8046 215.69 55.8046 214.29V211.654C55.8046 210.105 55.6117 208.563 55.2302 207.063C54.8488 205.562 54.6559 204.02 54.6559 202.472V194.49C54.6559 194.182 54.6285 193.874 54.5741 193.57C54.1284 191.08 51.9628 189.268 49.4338 189.268Z" fill="#D09D75"/>
<path d="M48.1935 134.823H38.295C37.8128 134.823 37.4219 135.214 37.4219 135.696L34.2441 165.162V175.751C34.2441 176.853 34.3347 177.953 34.515 179.04L35.3131 183.852C35.6984 186.176 36.489 188.414 37.6489 190.464L39.8188 194.299C40.2607 195.08 40.493 195.962 40.493 196.859C40.493 199.731 42.8209 202.059 45.6925 202.059H49.0609C52.1362 202.059 54.6292 199.566 54.6292 196.49C54.6292 195.829 54.7471 195.173 54.9773 194.553L55.7235 192.542C56.0442 191.678 56.2962 190.79 56.4771 189.887L57.6069 184.243L58.7397 176.742C58.8897 175.748 58.965 174.745 58.965 173.74V160.867V145.595C58.965 139.646 54.1425 134.823 48.1935 134.823Z" fill="#D09D75"/>
<path d="M49.5673 236.325H43.3467C39.7595 236.325 36.8516 238.904 36.8516 242.084C36.8516 245.265 39.7595 247.843 43.3467 247.843H49.5673C53.1545 247.843 56.0625 245.265 56.0625 242.084C56.0625 238.904 53.1545 236.325 49.5673 236.325Z" fill="#D09D75"/>
<path d="M53.9115 241.535H39.0025C37.8146 241.535 36.8516 242.388 36.8516 243.442V245.936C36.8516 246.989 37.8146 247.843 39.0025 247.843H53.9115C55.0995 247.843 56.0625 246.989 56.0625 245.936V243.442C56.0625 242.388 55.0995 241.535 53.9115 241.535Z" fill="#D09D75"/>
<path d="M83.4283 107.1C83.4283 92.231 71.4017 86.4949 59.1989 86.4949C46.9961 86.4949 35.8555 92.231 35.8555 107.1L37.1038 132.869C37.1038 147.739 46.9961 159.792 59.1989 159.792C71.4017 159.792 81.294 151.125 81.294 136.256L83.4283 107.1Z" fill="#81584A"/>
<path d="M89.4979 73.6543H28.5249C21.9247 73.6543 16.5742 78.9731 16.5742 85.5342C16.5742 92.0953 21.9247 97.4141 28.5249 97.4141H89.4979C96.0981 97.4141 101.449 92.0953 101.449 85.5342C101.449 78.9731 96.0981 73.6543 89.4979 73.6543Z" fill="#906253"/>
<path d="M91.5788 91.6512C91.5788 77.8686 77.0834 66.6956 59.2025 66.6956C41.3215 66.6956 26.8262 77.8686 26.8262 91.6512C26.8262 105.434 41.3215 116.607 59.2025 116.607C77.0834 116.607 91.5788 105.434 91.5788 91.6512Z" fill="#D09D75"/>
<path d="M60.9878 107.735H57.4113C48.8826 107.735 41.9688 113.956 41.9688 121.63V131.668C41.9688 139.342 48.8826 145.563 57.4113 145.563H60.9878C69.5164 145.563 76.4303 139.342 76.4303 131.668V121.63C76.4303 113.956 69.5164 107.735 60.9878 107.735Z" fill="#906253"/>
<path d="M75.9405 73.5974H42.4645C33.8277 73.5974 26.8262 79.7233 26.8262 87.2801V95.5266C26.8262 103.083 33.8277 109.209 42.4645 109.209H75.9405C84.5773 109.209 91.5788 103.083 91.5788 95.5266V87.2801C91.5788 79.7233 84.5773 73.5974 75.9405 73.5974Z" fill="#906253"/>
<path d="M78.8616 73.5974H39.5434C32.5199 73.5974 26.8262 79.2903 26.8262 86.3128V93.9764C26.8262 100.999 32.5199 106.692 39.5434 106.692H78.8616C85.8851 106.692 91.5788 100.999 91.5788 93.9764V86.3128C91.5788 79.2903 85.8851 73.5974 78.8616 73.5974Z" fill="#D09D75"/>
<path d="M61.8449 101.445C61.8449 100.578 60.6239 99.875 59.1178 99.875C57.6116 99.875 56.3906 100.578 56.3906 101.445V104.489C56.3906 105.356 57.6116 106.059 59.1178 106.059C60.6239 106.059 61.8449 105.356 61.8449 104.489V101.445Z" fill="#81584A"/>
<path d="M73.3518 96.6597H66.9951C65.1694 96.6597 63.6895 97.9879 63.6895 99.6263C63.6895 101.265 65.1694 102.593 66.9951 102.593H73.3518C75.1774 102.593 76.6574 101.265 76.6574 99.6263C76.6574 97.9879 75.1774 96.6597 73.3518 96.6597Z" fill="#AC7967"/>
<path d="M50.9143 96.6599H44.5576C42.7319 96.6599 41.252 97.9881 41.252 99.6265C41.252 101.265 42.7319 102.593 44.5576 102.593H50.9143C52.7399 102.593 54.2199 101.265 54.2199 99.6265C54.2199 97.9881 52.7399 96.6599 50.9143 96.6599Z" fill="#AC7967"/>
<path d="M41.7815 102.747H39.4667C38.5434 102.747 37.7949 103.419 37.7949 104.247C37.7949 105.076 38.5434 105.748 39.4667 105.748H41.7815C42.7048 105.748 43.4533 105.076 43.4533 104.247C43.4533 103.419 42.7048 102.747 41.7815 102.747Z" fill="#81584A"/>
<path d="M79.6213 102.747H77.3066C76.3833 102.747 75.6348 103.419 75.6348 104.247C75.6348 105.076 76.3833 105.748 77.3066 105.748H79.6213C80.5446 105.748 81.2931 105.076 81.2931 104.247C81.2931 103.419 80.5446 102.747 79.6213 102.747Z" fill="#81584A"/>
<path d="M29.763 75.6023H28.3605C24.6169 75.6023 21.582 78.6192 21.582 82.3406C21.582 86.0621 24.6169 89.079 28.3605 89.079H29.763C33.5067 89.079 36.5415 86.0621 36.5415 82.3406C36.5415 78.6192 33.5067 75.6023 29.763 75.6023Z" fill="#9D6B5A"/>
<path d="M90.2532 76.2595H88.8508C85.1071 76.2595 82.0723 79.2764 82.0723 82.9979C82.0723 86.7193 85.1071 89.7362 88.8508 89.7362H90.2532C93.9969 89.7362 97.0317 86.7193 97.0317 82.9979C97.0317 79.2764 93.9969 76.2595 90.2532 76.2595Z" fill="#9D6B5A"/>
<path d="M29.6644 77.8667H27.5607C26.3989 77.8667 25.457 78.803 25.457 79.9579C25.457 81.1128 26.3989 82.0491 27.5607 82.0491H29.6644C30.8262 82.0491 31.7681 81.1128 31.7681 79.9579C31.7681 78.803 30.8262 77.8667 29.6644 77.8667Z" fill="#AC7967"/>
<path d="M92.803 78.0308H90.6994C89.5375 78.0308 88.5957 78.967 88.5957 80.122C88.5957 81.2769 89.5375 82.2132 90.6994 82.2132H92.803C93.9649 82.2132 94.9067 81.2769 94.9067 80.122C94.9067 78.967 93.9649 78.0308 92.803 78.0308Z" fill="#AC7967"/>
<path d="M69.8941 187.725L71.5156 187.725C75.5207 187.725 78.7674 190.971 78.7674 194.977L78.7677 214.229L78.7674 227.932L80.2188 241.976C80.2188 245.044 77.2527 247.532 73.5939 247.532H72.0494C68.3906 247.532 65.4245 245.044 65.4245 241.976V221.086C65.4245 219.74 65.0802 218.417 64.4242 217.242C63.7683 216.067 63.4239 214.744 63.4239 213.398V210.523C63.4239 208.98 63.6123 207.444 63.9849 205.948L63.9983 205.894C64.3798 204.361 64.5726 202.788 64.5726 201.209V193.046C64.5726 192.738 64.5994 192.43 64.6526 192.127C65.099 189.581 67.3097 187.725 69.8941 187.725Z" fill="#D09D75"/>
<path d="M71.855 134.823H77.634C79.1132 134.823 80.4299 135.76 80.9144 137.158C80.9865 137.366 81.0387 137.58 81.0702 137.798L84.7775 163.443C84.9152 164.396 84.9844 165.357 84.9844 166.32V175.331C84.9844 176.444 84.8921 177.554 84.7084 178.651L83.9252 183.329C83.5334 185.669 82.7306 187.921 81.5539 189.981L79.4125 193.73C78.9689 194.506 78.7355 195.385 78.7355 196.28C78.7355 199.119 76.4337 201.421 73.5943 201.421H70.1073C67.0653 201.421 64.5993 198.955 64.5993 195.913C64.5993 195.253 64.4806 194.598 64.249 193.98L63.5048 191.994C63.1842 191.139 62.9323 190.259 62.7513 189.364L61.6216 183.774L60.4931 176.372C60.3402 175.37 60.2635 174.357 60.2635 173.342V160.62V146.415C60.2635 140.013 65.4532 134.823 71.855 134.823Z" fill="#D09D75"/>
<path d="M70.3487 236.055H76.5693C80.1565 236.055 83.0645 238.624 83.0645 241.793C83.0645 244.963 80.1565 247.532 76.5693 247.532H70.3487C66.7615 247.532 63.8536 244.963 63.8536 241.793C63.8536 238.624 66.7615 236.055 70.3487 236.055Z" fill="#D09D75"/>
<path d="M66.0045 238.417H80.9135C82.1015 238.417 83.0645 239.651 83.0645 241.173V244.776C83.0645 246.298 82.1015 247.532 80.9135 247.532H66.0045C64.8166 247.532 63.8536 246.298 63.8536 244.776V241.173C63.8536 239.651 64.8166 238.417 66.0045 238.417Z" fill="#D09D75"/>
<path d="M55.3823 112.413H51.2817C49.3258 112.413 47.7402 113.787 47.7402 115.482C47.7402 117.177 49.3258 118.551 51.2817 118.551H55.3823C57.3382 118.551 58.9238 117.177 58.9238 115.482C58.9238 113.787 57.3382 112.413 55.3823 112.413Z" fill="#9D6B5A"/>
<path d="M55.3823 119.649H51.2817C49.3258 119.649 47.7402 121.023 47.7402 122.718C47.7402 124.413 49.3258 125.787 51.2817 125.787H55.3823C57.3382 125.787 58.9238 124.413 58.9238 122.718C58.9238 121.023 57.3382 119.649 55.3823 119.649Z" fill="#9D6B5A"/>
<path d="M55.3823 126.886H51.2817C49.3258 126.886 47.7402 128.26 47.7402 129.955C47.7402 131.65 49.3258 133.024 51.2817 133.024H55.3823C57.3382 133.024 58.9238 131.65 58.9238 129.955C58.9238 128.26 57.3382 126.886 55.3823 126.886Z" fill="#9D6B5A"/>
<path d="M67.9077 112.413H63.8071C61.8512 112.413 60.2656 113.787 60.2656 115.482C60.2656 117.177 61.8512 118.551 63.8071 118.551H67.9077C69.8636 118.551 71.4491 117.177 71.4491 115.482C71.4491 113.787 69.8636 112.413 67.9077 112.413Z" fill="#9D6B5A"/>
<path d="M67.9077 119.649H63.8071C61.8512 119.649 60.2656 121.023 60.2656 122.718C60.2656 124.413 61.8512 125.787 63.8071 125.787H67.9077C69.8636 125.787 71.4491 124.413 71.4491 122.718C71.4491 121.023 69.8636 119.649 67.9077 119.649Z" fill="#9D6B5A"/>
<path d="M67.9077 126.886H63.8071C61.8512 126.886 60.2656 128.26 60.2656 129.955C60.2656 131.65 61.8512 133.024 63.8071 133.024H67.9077C69.8636 133.024 71.4491 131.65 71.4491 129.955C71.4491 128.26 69.8636 126.886 67.9077 126.886Z" fill="#9D6B5A"/>
<path d="M40.502 136.315C39.34 136.315 38.219 136.501 37.1582 136.841C38.4002 150.365 47.7616 160.813 59.2038 160.813C70.7938 160.813 80.2498 150.094 81.2941 136.315C81.293 136.315 81.2919 136.315 81.2907 136.315H40.502Z" fill="#4F4F4F"/>
<path d="M79.6766 134.823H38.7755C37.8823 134.823 37.1582 135.643 37.1582 136.655V139.492C37.1582 140.504 37.8823 141.324 38.7755 141.324H79.6766C80.5698 141.324 81.2938 140.504 81.2938 139.492V136.655C81.2938 135.643 80.5698 134.823 79.6766 134.823Z" fill="#5B5B5B"/>
<path d="M38.6445 134.848C39.7825 151.521 48.5235 164.426 59.0094 164.426C69.6327 164.426 78.9962 151.835 79.9531 134.848H38.6445Z" fill="#4F4F4F"/>
<path d="M81.4705 134.644L59.731 138.115L59.5605 164.356L59.731 175.856H85.5069C85.6492 154.582 86.0604 147.195 81.4705 134.644Z" fill="#4B4B4B"/>
<path d="M37.2308 134.644L59.3807 138.104V164.354V175.854H33.4375C33.2903 154.509 32.5072 147.236 37.2308 134.644Z" fill="#4B4B4B"/>
<path d="M273.415 192.142H274.954C278.72 192.142 281.773 195.322 281.773 199.244L281.773 217.992L281.773 231.357L283.137 245.054C283.137 248.047 280.349 250.474 276.91 250.474H275.458C272.018 250.474 269.23 248.047 269.23 245.054V224.682C269.23 223.369 268.907 222.077 268.29 220.931C267.674 219.785 267.35 218.493 267.35 217.18V214.378C267.35 212.874 267.527 211.375 267.877 209.916L267.89 209.863C268.248 208.369 268.43 206.834 268.43 205.293V197.335C268.43 197.032 268.455 196.732 268.505 196.435C268.925 193.952 270.995 192.142 273.415 192.142Z" fill="#D09D75"/>
<path d="M275.473 142.198H279.402C281.612 142.198 283.596 143.612 284.396 145.758C284.55 146.172 284.656 146.604 284.712 147.044L287.615 169.856V179.755C287.615 181.039 287.512 182.322 287.308 183.589L286.641 187.72C286.259 190.092 285.475 192.373 284.326 194.459L282.379 197.997C281.961 198.756 281.741 199.615 281.741 200.49C281.741 203.257 279.587 205.501 276.93 205.501H273.607C270.761 205.501 268.453 203.097 268.453 200.131C268.453 199.486 268.341 198.846 268.122 198.241L267.424 196.306C267.123 195.472 266.886 194.614 266.716 193.741L265.654 188.29L264.633 181.341C264.463 180.183 264.377 179.013 264.377 177.841V153.755C264.377 147.372 269.345 142.198 275.473 142.198Z" fill="#D09D75"/>
<path d="M273.855 239.28H279.703C283.075 239.28 285.809 241.785 285.809 244.876C285.809 247.968 283.075 250.473 279.703 250.473H273.855C270.484 250.473 267.75 247.968 267.75 244.876C267.75 241.785 270.484 239.28 273.855 239.28Z" fill="#D09D75"/>
<path d="M269.772 241.583H283.787C284.903 241.583 285.809 242.787 285.809 244.271V247.786C285.809 249.27 284.903 250.473 283.787 250.473H269.772C268.656 250.473 267.75 249.27 267.75 247.786V244.271C267.75 242.787 268.656 241.583 269.772 241.583Z" fill="#D09D75"/>
<path d="M251.521 192.142H249.982C246.216 192.142 243.163 195.321 243.163 199.244V217.993V231.356L241.799 245.054C241.799 248.047 244.587 250.473 248.026 250.473H249.478C252.917 250.473 255.706 248.047 255.706 245.054V224.682C255.706 223.368 256.029 222.077 256.646 220.931C257.263 219.784 257.586 218.493 257.586 217.179V214.377C257.586 212.873 257.409 211.375 257.059 209.915L257.046 209.862C256.687 208.368 256.506 206.834 256.506 205.293V197.334C256.506 197.032 256.481 196.731 256.431 196.434C256.011 193.952 253.941 192.142 251.521 192.142Z" fill="#D09D75"/>
<path d="M250.431 142.197H244.322C242.104 142.197 240.305 144.07 240.305 146.381L237.318 169.855V179.754C237.318 181.039 237.42 182.321 237.625 183.588L238.292 187.719C238.675 190.091 239.458 192.373 240.607 194.459L242.555 197.996C242.972 198.755 243.192 199.615 243.192 200.489C243.192 203.257 245.346 205.5 248.003 205.5H251.326C254.172 205.5 256.481 203.096 256.481 200.131C256.481 199.485 256.592 198.845 256.81 198.24L257.509 196.306C257.811 195.472 258.047 194.613 258.218 193.741L259.279 188.289L260.301 181.34C260.47 180.182 260.556 179.012 260.556 177.841V152.743C260.556 146.919 256.023 142.197 250.431 142.197Z" fill="#D09D75"/>
<path d="M251.08 239.279H245.232C241.861 239.279 239.127 241.784 239.127 244.875C239.127 247.967 241.861 250.472 245.232 250.472H251.08C254.452 250.472 257.185 247.967 257.185 244.875C257.185 241.784 254.452 239.279 251.08 239.279Z" fill="#D09D75"/>
<path d="M255.163 241.583H241.149C240.032 241.583 239.127 242.786 239.127 244.27V247.785C239.127 249.269 240.032 250.472 241.149 250.472H255.163C256.28 250.472 257.185 249.269 257.185 247.785V244.27C257.185 242.786 256.28 241.583 255.163 241.583Z" fill="#D09D75"/>
<path d="M261.93 78.5225C262.825 78.5225 263.717 78.5767 264.601 78.6824C275.263 79.9564 284.766 88.6809 284.766 99.3212L283.092 110.713L279.826 130.325C279.826 141.848 273.623 143.548 261.93 143.548C250.238 143.548 244.764 141.848 244.764 130.325L240.824 110.713V99.3212C240.824 87.7985 250.238 78.5225 261.93 78.5225Z" fill="#D09D75"/>
<path d="M261.898 125.168H262.618C274.549 125.168 278.422 118.74 280.38 127.452L284.154 144.935C286.111 153.64 274.549 160.864 262.618 160.864H261.898C249.967 160.864 238.406 153.64 240.362 144.935L244.534 127.452C246.492 118.74 249.967 125.168 261.898 125.168Z" fill="#D09D75"/>
<path d="M261.874 117.282C270.473 117.282 277.396 126.977 277.396 139.019H246.352C246.352 126.977 253.274 117.282 261.874 117.282Z" fill="#D09D75"/>
<path d="M235.003 90.4424C231.359 89.7082 226.972 91.247 226.169 95.5707L223.676 103.378C222.908 105.783 222.628 108.328 222.852 110.851L223.524 118.42C223.677 120.147 223.491 121.887 223.513 123.621C223.553 126.658 224.883 128.886 227.757 129.465C230.897 130.098 232.982 128.469 234.012 125.243C234.362 124.148 234.635 123.023 235.046 121.951L236.91 117.084C237.936 114.407 238.341 111.515 238.093 108.643L237.708 104.191C237.608 103.032 237.62 101.868 237.67 100.706C237.807 97.5122 237.745 90.9947 235.003 90.4424Z" fill="#D09D75"/>
<path d="M229.299 115.154L229.252 115.152C226.265 115.056 223.675 118.51 223.467 122.866L221.902 155.578C221.694 159.935 223.946 163.545 226.933 163.641L226.979 163.642C229.966 163.738 232.556 160.284 232.765 155.928L234.329 123.215C234.538 118.859 232.286 115.249 229.299 115.154Z" fill="#D09D75"/>
<path d="M229.231 148.858L227.354 148.847C223.756 148.827 220.671 152.893 220.461 157.929L220.275 162.403C220.065 167.439 222.811 171.538 226.409 171.558L228.286 171.569C231.883 171.588 234.969 167.522 235.179 162.486L235.366 158.012C235.575 152.976 232.828 148.878 229.231 148.858Z" fill="#D09D75"/>
<path d="M229.695 161.583C228.912 158.38 226.153 156.759 223.532 157.961C220.911 159.163 219.42 162.734 220.202 165.936L222.34 174.684C223.123 177.886 225.882 179.508 228.503 178.305C231.125 177.103 232.615 173.533 231.833 170.33L229.695 161.583Z" fill="#D09D75"/>
<path d="M235.831 159.873C235.919 157.641 234.718 155.823 233.147 155.813C231.576 155.803 230.231 157.605 230.143 159.837L229.901 165.935C229.812 168.167 231.014 169.985 232.585 169.996C234.156 170.005 235.501 168.204 235.589 165.971L235.831 159.873Z" fill="#C68858"/>
<path d="M289.033 90.4421C292.677 89.7079 297.064 91.2467 297.867 95.5705L300.359 103.378C301.127 105.782 301.408 108.328 301.184 110.851L300.512 118.42C300.359 120.146 300.544 121.887 300.522 123.621C300.482 126.658 299.152 128.886 296.278 129.464C293.139 130.097 291.054 128.469 290.023 125.243C289.673 124.148 289.401 123.023 288.99 121.951L287.125 117.084C286.099 114.406 285.694 111.514 285.942 108.643L286.327 104.191C286.427 103.032 286.416 101.868 286.366 100.706C286.229 97.5119 286.29 90.9944 289.033 90.4421Z" fill="#D09D75"/>
<path d="M294.739 115.154L294.787 115.152C297.773 115.056 300.363 118.51 300.571 122.866L302.137 155.578C302.344 159.935 300.093 163.545 297.105 163.641L297.059 163.642C294.072 163.738 291.482 160.284 291.273 155.928L289.709 123.215C289.5 118.859 291.753 115.249 294.739 115.154Z" fill="#D09D75"/>
<path d="M294.806 148.858L296.682 148.847C300.28 148.827 303.366 152.893 303.575 157.929L303.762 162.404C303.971 167.439 301.225 171.538 297.628 171.558L295.751 171.569C292.153 171.589 289.067 167.522 288.857 162.486L288.671 158.012C288.462 152.976 291.208 148.878 294.806 148.858Z" fill="#D09D75"/>
<path d="M294.342 161.583C295.125 158.38 297.884 156.759 300.505 157.961C303.127 159.163 304.617 162.734 303.835 165.936L301.697 174.684C300.914 177.886 298.155 179.508 295.534 178.305C292.913 177.103 291.422 173.533 292.204 170.33L294.342 161.583Z" fill="#D09D75"/>
<path d="M288.204 159.873C288.116 157.64 289.317 155.823 290.888 155.813C292.459 155.802 293.804 157.604 293.892 159.837L294.134 165.934C294.222 168.167 293.02 169.985 291.45 169.995C289.879 170.005 288.534 168.204 288.445 165.971L288.204 159.873Z" fill="#C68858"/>
<path d="M234.865 84.9397H289.278C294.671 84.9397 299.012 89.1534 299.012 94.3881C299.012 99.6228 294.671 103.837 289.278 103.837H234.865C229.472 103.837 225.131 99.6228 225.131 94.3881C225.131 89.1534 229.472 84.9397 234.865 84.9397Z" fill="#906253"/>
<path d="M253.537 83.8188H270.504C279.985 83.8188 287.617 91.0742 287.617 100.087C287.617 109.099 279.985 116.354 270.504 116.354H253.537C244.056 116.354 236.424 109.099 236.424 100.087C236.424 91.0742 244.056 83.8188 253.537 83.8188Z" fill="#D09D75"/>
<path d="M262.47 103.836C264.678 103.836 266.455 105.688 266.455 107.988V111.838C266.455 114.138 264.678 115.989 262.47 115.989C260.262 115.989 258.484 114.138 258.484 111.838V107.988C258.484 105.688 260.262 103.836 262.47 103.836Z" fill="#815848" fill-opacity="0.99"/>
<path d="M252.406 99.4805C251.352 99.4805 250.375 99.765 249.56 100.253C246.854 100.411 244.317 101.475 242.463 103.227C240.61 104.979 239.578 107.29 239.578 109.69C239.578 112.199 240.704 114.605 242.709 116.379C244.713 118.153 247.432 119.149 250.267 119.149C252.849 119.147 255.343 118.316 257.288 116.813C259.232 115.309 260.496 113.234 260.845 110.969C260.917 110.658 260.956 110.336 260.956 110.006V104.128C260.956 101.553 258.659 99.4805 255.806 99.4805H252.406ZM268.238 99.4805C265.386 99.4805 263.089 101.553 263.089 104.128V110.006C263.089 110.336 263.127 110.658 263.199 110.969C263.548 113.234 264.812 115.309 266.757 116.813C268.701 118.316 271.195 119.147 273.777 119.149C276.612 119.149 279.33 118.153 281.335 116.379C283.339 114.605 284.466 112.199 284.466 109.69C284.465 107.29 283.434 104.979 281.58 103.227C279.727 101.475 277.19 100.411 274.484 100.253C273.67 99.765 272.692 99.4805 271.637 99.4805H268.238Z" fill="#9D6B5A"/>
<path d="M242.523 104.584C241.302 104.122 239.976 106.88 238.836 107.334C238.734 107.921 238.681 108.516 238.676 109.112C238.676 115.207 243.653 120.148 249.792 120.148C252.896 120.141 255.856 118.845 257.954 116.573C257.844 111.045 253.07 108.57 247.929 106.627L242.523 104.584ZM275.799 106.627C270.763 108.531 266.061 110.868 265.782 116.238C267.889 118.71 270.981 120.14 274.242 120.148C280.381 120.148 285.357 115.207 285.357 109.112C285.352 108.562 285.307 108.014 285.219 107.47C283.991 106.929 282.544 104.077 281.205 104.584L275.799 106.627Z" fill="#444444"/>
<path d="M257.663 114.315H266.828C267.387 114.315 267.837 114.769 267.837 115.336C267.837 115.901 267.387 116.356 266.828 116.356H257.663C257.104 116.356 256.654 115.901 256.654 115.336C256.654 114.769 257.104 114.315 257.663 114.315Z" fill="#444444"/>
<path d="M281.26 104.526C281.176 104.532 281.093 104.551 281.01 104.582L275.66 106.604C271.436 108.2 267.452 110.103 266.165 113.878C268.229 116.037 271.101 117.275 274.118 117.282C279.712 117.282 284.327 113.14 285.026 107.779C285.011 107.666 285.002 107.55 284.984 107.437C283.845 106.935 282.514 104.425 281.26 104.526ZM242.495 104.533C241.351 104.458 240.131 106.881 239.073 107.303C239.047 107.451 239.026 107.599 239.006 107.748C239.691 113.124 244.313 117.282 249.917 117.282C252.815 117.275 255.584 116.134 257.632 114.121C256.422 110.232 252.378 108.23 248.074 106.604L242.723 104.582C242.647 104.554 242.571 104.538 242.495 104.533Z" fill="#4F4F4F"/>
<path d="M258.619 120.882H255.964C254.752 120.882 253.77 121.635 253.77 122.564V124.512C253.77 125.441 254.752 126.194 255.964 126.194H258.619C259.83 126.194 260.813 125.441 260.813 124.512V122.564C260.813 121.635 259.83 120.882 258.619 120.882Z" fill="#C68858"/>
<path d="M258.618 126.766H254.576C253.363 126.766 252.381 127.52 252.381 128.449V130.396C252.381 131.326 253.363 132.079 254.576 132.079H258.618C259.831 132.079 260.813 131.326 260.813 130.396V128.449C260.813 127.52 259.831 126.766 258.618 126.766Z" fill="#C68858"/>
<path d="M258.618 132.528H254.576C253.363 132.528 252.381 133.28 252.381 134.21V136.158C252.381 137.087 253.363 137.84 254.576 137.84H258.618C259.831 137.84 260.813 137.087 260.813 136.158V134.21C260.813 133.28 259.831 132.528 258.618 132.528Z" fill="#C68858"/>
<path d="M265.115 120.882H267.769C268.981 120.882 269.964 121.635 269.964 122.564V124.512C269.964 125.441 268.981 126.194 267.769 126.194H265.115C263.902 126.194 262.92 125.441 262.92 124.512V122.564C262.92 121.635 263.902 120.882 265.115 120.882Z" fill="#C68858"/>
<path d="M265.113 126.766H269.156C270.368 126.766 271.351 127.52 271.351 128.449V130.396C271.351 131.326 270.368 132.079 269.156 132.079H265.113C263.901 132.079 262.918 131.326 262.918 130.396V128.449C262.918 127.52 263.901 126.766 265.113 126.766Z" fill="#C68858"/>
<path d="M265.113 132.528H269.156C270.368 132.528 271.351 133.28 271.351 134.21V136.158C271.351 137.087 270.368 137.84 269.156 137.84H265.113C263.901 137.84 262.918 137.087 262.918 136.158V134.21C262.918 133.28 263.901 132.528 265.113 132.528Z" fill="#C68858"/>
<path d="M241.654 139.474C242.792 156.147 251.533 169.052 262.019 169.052C272.642 169.052 282.006 156.461 282.963 139.474H241.654Z" fill="#4F4F4F"/>
<path d="M282.981 139.471L262.737 142.741L262.566 168.982L264.466 180.482H287.665C287.808 159.208 287.57 152.022 282.981 139.471Z" fill="#4B4B4B"/>
<path d="M241.665 139.447L262.388 142.73V168.98L260.455 180.48H237.309C237.162 159.135 236.941 152.039 241.665 139.447Z" fill="#4B4B4B"/>
<path d="M273.075 98.9389H252.426C247.2 98.9389 235.797 91.6337 235.797 98.9389L237.54 105.531C237.54 115.033 238.8 120.137 247.344 120.137H276.604C284.204 120.137 286.068 116.276 286.068 106.91L289.332 99.3145C289.332 92.0092 278.301 98.9389 273.075 98.9389Z" fill="#1874A3"/>
<path d="M234.916 84.927C228.615 84.927 225.094 90.202 225.094 94.2295C225.094 101.013 228.007 103.807 236.601 103.807H287.163C295.975 103.807 299.204 101.91 299.204 94.2375C299.204 90.2094 295.443 84.927 289.241 84.927H279.04C278.818 89.3769 274.927 92.9129 267.332 92.9129H258.082C249.175 92.9129 245.318 89.3769 245.097 84.927H234.916Z" fill="#1874A3"/>
<path d="M278.615 84.9273C278.471 84.9251 278.331 84.9611 278.226 85.0278C278.121 85.0946 278.059 85.187 278.056 85.2845C277.796 89.331 272.902 92.5282 266.839 92.5282H257.372C251.31 92.5282 246.416 89.331 246.156 85.2845C246.153 85.2361 246.136 85.1885 246.106 85.1444C246.076 85.1012 246.033 85.0616 245.98 85.0286C245.927 84.9963 245.866 84.9714 245.799 84.9545C245.732 84.9376 245.661 84.9303 245.589 84.9325C245.518 84.9347 245.447 84.9464 245.382 84.9669C245.318 84.9875 245.259 85.0161 245.211 85.052C245.163 85.0872 245.125 85.129 245.101 85.1745C245.077 85.22 245.065 85.2677 245.069 85.3161C245.353 89.7462 250.742 93.2631 257.372 93.2631H266.839C273.47 93.2631 278.858 89.7462 279.143 85.3161C279.147 85.2669 279.137 85.2178 279.112 85.1716C279.088 85.1254 279.05 85.0828 279.001 85.0469C278.951 85.0102 278.891 84.9816 278.825 84.9611C278.759 84.9405 278.687 84.9288 278.615 84.9273Z" fill="#1D8EC8"/>
<path d="M241.654 139.474C242.792 156.147 251.533 169.052 262.019 169.052C272.642 169.052 282.006 156.461 282.963 139.474H241.654Z" fill="#4F4F4F"/>
<path d="M282.981 139.471L262.737 142.741L262.566 168.982L264.466 180.482H287.665C287.808 159.208 287.57 152.022 282.981 139.471Z" fill="#4B4B4B"/>
<path d="M241.665 139.447L262.388 142.73V168.98L260.455 180.48H237.309C237.162 159.135 236.941 152.039 241.665 139.447Z" fill="#4B4B4B"/>
<path d="M255.146 227.395H242.78C242.123 227.395 241.59 228.065 241.59 228.893V242.027C241.59 242.855 242.123 243.525 242.78 243.525H255.146C255.803 243.525 256.336 242.855 256.336 242.027V228.893C256.336 228.065 255.803 227.395 255.146 227.395Z" fill="white"/>
<path d="M250.151 232.02H246.235C245.305 232.02 244.551 232.97 244.551 234.141V236.045C244.551 237.217 245.305 238.166 246.235 238.166H250.151C251.082 238.166 251.835 237.217 251.835 236.045V234.141C251.835 232.97 251.082 232.02 250.151 232.02Z" fill="#4B4B4B"/>
<path d="M251.219 235.288H245.446C242.117 235.288 239.418 238.686 239.418 242.879C239.418 247.072 242.117 250.47 245.446 250.47H251.219C254.547 250.47 257.246 247.072 257.246 242.879C257.246 238.686 254.547 235.288 251.219 235.288Z" fill="#4F4F4F"/>
<path d="M255.597 242.184H241.203C240.056 242.184 239.127 243.31 239.127 244.698V247.985C239.127 249.374 240.056 250.5 241.203 250.5H255.597C256.744 250.5 257.673 249.374 257.673 247.985V244.698C257.673 243.31 256.744 242.184 255.597 242.184Z" fill="#4F4F4F"/>
<path d="M256.495 247.319H240.169C239.754 247.319 239.418 247.742 239.418 248.265V249.501C239.418 250.023 239.754 250.447 240.169 250.447H256.495C256.91 250.447 257.246 250.023 257.246 249.501V248.265C257.246 247.742 256.91 247.319 256.495 247.319Z" fill="white"/>
<path d="M250.562 235.669H245.985C245.746 235.669 245.553 235.913 245.553 236.214C245.553 236.514 245.746 236.757 245.985 236.757H250.562C250.8 236.757 250.994 236.514 250.994 236.214C250.994 235.913 250.8 235.669 250.562 235.669Z" fill="white"/>
<path d="M252.118 239.171H249.918C249.143 239.171 248.514 239.962 248.514 240.94C248.514 241.917 249.143 242.709 249.918 242.709H252.118C252.894 242.709 253.522 241.917 253.522 240.94C253.522 239.962 252.894 239.171 252.118 239.171Z" fill="#585858"/>
<path d="M250.562 237.41H245.985C245.746 237.41 245.553 237.653 245.553 237.953C245.553 238.253 245.746 238.497 245.985 238.497H250.562C250.8 238.497 250.994 238.253 250.994 237.953C250.994 237.653 250.8 237.41 250.562 237.41Z" fill="white"/>
<path d="M282.079 227.394H269.005C268.31 227.394 267.746 228.065 267.746 228.893V242.026C267.746 242.854 268.31 243.525 269.005 243.525H282.079C282.774 243.525 283.337 242.854 283.337 242.026V228.893C283.337 228.065 282.774 227.394 282.079 227.394Z" fill="white"/>
<path d="M278.385 232.041H274.518C273.6 232.041 272.855 232.992 272.855 234.162V236.066C272.855 237.238 273.6 238.188 274.518 238.188H278.385C279.303 238.188 280.048 237.238 280.048 236.066V234.162C280.048 232.992 279.303 232.041 278.385 232.041Z" fill="#4B4B4B"/>
<path d="M279.396 235.288H273.698C270.411 235.288 267.746 238.686 267.746 242.879C267.746 247.072 270.411 250.47 273.698 250.47H279.396C282.683 250.47 285.588 247.132 285.588 242.94C285.588 238.746 282.683 235.288 279.396 235.288Z" fill="#4F4F4F"/>
<path d="M283.759 242.184H269.548C268.416 242.184 267.498 243.31 267.498 244.698V247.985C267.498 249.374 268.416 250.5 269.548 250.5H283.759C284.891 250.5 285.808 249.374 285.808 247.985V244.698C285.808 243.31 284.891 242.184 283.759 242.184Z" fill="#4F4F4F"/>
<path d="M284.606 247.319H268.488C268.079 247.319 267.746 247.742 267.746 248.265V249.501C267.746 250.023 268.079 250.447 268.488 250.447H284.606C285.015 250.447 285.347 250.023 285.347 249.501V248.265C285.347 247.742 285.015 247.319 284.606 247.319Z" fill="white"/>
<path d="M278.929 235.669H274.409C274.173 235.669 273.982 235.913 273.982 236.214C273.982 236.514 274.173 236.757 274.409 236.757H278.929C279.164 236.757 279.355 236.514 279.355 236.214C279.355 235.913 279.164 235.669 278.929 235.669Z" fill="white"/>
<path d="M280.989 239.192H278.818C278.052 239.192 277.432 239.984 277.432 240.961C277.432 241.938 278.052 242.73 278.818 242.73H280.989C281.755 242.73 282.376 241.938 282.376 240.961C282.376 239.984 281.755 239.192 280.989 239.192Z" fill="#585858"/>
<path d="M278.929 237.431H274.409C274.173 237.431 273.982 237.675 273.982 237.974C273.982 238.275 274.173 238.518 274.409 238.518H278.929C279.164 238.518 279.355 238.275 279.355 237.974C279.355 237.675 279.164 237.431 278.929 237.431Z" fill="white"/>
<rect x="153.609" y="217.02" width="215.726" height="6.29979" rx="3.1499" fill="black"/>
<rect x="348.156" y="244.876" width="49.412" height="6.33734" rx="3.16867" transform="rotate(-90 348.156 244.876)" fill="black"/>
<rect x="339.912" y="244.876" width="49.412" height="6.33734" rx="3.16867" transform="rotate(-90 339.912 244.876)" fill="black"/>
<rect x="331.668" y="244.876" width="49.412" height="6.33734" rx="3.16867" transform="rotate(-90 331.668 244.876)" fill="black"/>
<rect x="188.854" y="244.876" width="49.412" height="6.33734" rx="3.16867" transform="rotate(-90 188.854 244.876)" fill="black"/>
<rect x="180.609" y="244.876" width="49.412" height="6.33734" rx="3.16867" transform="rotate(-90 180.609 244.876)" fill="black"/>
<rect x="172.365" y="244.876" width="49.412" height="6.33734" rx="3.16867" transform="rotate(-90 172.365 244.876)" fill="black"/>
<path d="M15.4042 117.036L15.3607 117.058C12.5803 118.443 11.2624 121.739 12.4171 124.42L16.0616 134.213L21.0879 144.548C22.2426 147.228 25.4327 148.279 28.2131 146.893L28.2566 146.872C31.037 145.487 34.1897 141.635 33.0349 138.954L24.3642 118.826C23.2094 116.145 18.1846 115.651 15.4042 117.036Z" fill="#D09D75"/>
<path d="M83.5779 105.632C83.5779 92.0597 71.0779 91.6792 58.6791 91.6792C46.2811 91.6792 35.2422 92.0597 35.2422 105.632L36.4167 134.848H81.3489L83.5779 105.632Z" fill="#1874A3"/>
<path d="M91.3716 91.5676C91.3716 78.0133 74.4269 91.5676 56.3813 91.5676C38.3349 91.5676 26.0195 78.0133 26.0195 91.5676C26.0195 105.123 40.6488 116.111 58.696 116.111C76.7416 116.111 91.3716 105.123 91.3716 91.5676Z" fill="#1874A3"/>
<path d="M79.4454 89.44L41.031 90.9343C32.3145 90.9343 26.0195 79.7721 26.0195 87.2046V95.3145C26.0195 102.746 33.0858 108.771 41.8023 108.771H75.5881C84.3053 108.771 91.3716 102.746 91.3716 95.3145V87.2046C91.3716 79.7721 88.1626 89.44 79.4454 89.44Z" fill="#1874A3"/>
<path d="M78.0652 92.5792H38.9292C31.7993 92.5792 26.0195 78.9491 26.0195 86.5926V94.9327C26.0195 102.575 31.7993 108.771 38.9292 108.771H78.8409C85.9708 108.771 91.7506 102.575 91.7506 94.9327V86.5926C91.7506 78.9491 85.195 92.5792 78.0652 92.5792Z" fill="#1874A3"/>
<path d="M27.5271 73.75C20.8159 73.75 15.4121 79.0655 15.4121 85.6676C15.4121 92.2698 20.8159 97.586 27.5271 97.586H89.3329C96.0441 97.586 101.447 92.2698 101.447 85.6676C101.447 79.0655 96.0441 73.75 89.3329 73.75H81.7955C81.5355 81.0439 71.1883 86.8397 63.7089 86.8397H52.6096C45.1302 86.8397 35.9945 81.0439 35.7353 73.75H27.5271Z" fill="#1874A3"/>
<path d="M81.6268 73.1214C81.4295 73.1162 81.2384 73.1776 81.0953 73.2908C80.9514 73.4039 80.8679 73.5598 80.8617 73.7239C80.5066 80.5659 73.8186 85.972 65.5338 85.972H52.5941C44.3086 85.972 37.6206 80.5659 37.2655 73.7239C37.2609 73.643 37.2376 73.562 37.1974 73.4879C37.1556 73.4152 37.0976 73.3477 37.0249 73.2923C36.953 73.2376 36.8686 73.1948 36.7773 73.1671C36.6853 73.1386 36.5878 73.1259 36.4896 73.1296C36.3929 73.1334 36.2969 73.1529 36.208 73.1874C36.119 73.2226 36.0393 73.2705 35.9735 73.3312C35.9086 73.3912 35.8567 73.4616 35.8235 73.5388C35.7902 73.6153 35.7755 73.6962 35.7801 73.7779C36.1677 81.2681 43.5327 87.2145 52.5941 87.2145H65.5338C74.5953 87.2145 81.9595 81.2681 82.3478 73.7779C82.354 73.6947 82.3393 73.6123 82.306 73.5343C82.2728 73.4556 82.221 73.3829 82.1536 73.3222C82.0863 73.2608 82.0051 73.2121 81.9138 73.1776C81.8233 73.1424 81.7258 73.1237 81.6268 73.1214Z" fill="#1D8EC8"/>
<rect x="4" y="134.03" width="51.9453" height="6.95983" rx="3.47991" fill="black"/>
<rect x="15.4141" y="152.302" width="29.5843" height="3.79433" rx="1.89717" transform="rotate(-90 15.4141 152.302)" fill="black"/>
<rect x="10.4766" y="152.302" width="29.5843" height="3.79433" rx="1.89717" transform="rotate(-90 10.4766 152.302)" fill="black"/>
<rect x="5.54102" y="152.302" width="29.5843" height="3.79433" rx="1.89717" transform="rotate(-90 5.54102 152.302)" fill="black"/>
<rect x="49.0117" y="152.302" width="29.5843" height="3.79433" rx="1.89717" transform="rotate(-90 49.0117 152.302)" fill="black"/>
<rect x="44.0742" y="152.302" width="29.5843" height="3.79433" rx="1.89717" transform="rotate(-90 44.0742 152.302)" fill="black"/>
<rect x="39.1387" y="152.302" width="29.5843" height="3.79433" rx="1.89717" transform="rotate(-90 39.1387 152.302)" fill="black"/>
<path d="M33.7357 142.452C34.3631 145.274 32.0529 147.794 28.5755 148.081C25.0982 148.369 21.7707 146.315 21.1433 143.493L19.4296 135.788C18.846 133.164 26.1777 131.496 30.0035 131.045C30.5158 130.984 31.0516 131.127 31.4995 131.421C32.6728 132.19 33.4047 133.397 33.4501 134.638L33.7357 142.452Z" fill="#D09D75"/>
<path d="M36.7736 141.503C36.3893 143.149 35.0481 144.158 33.7781 143.757C32.5081 143.356 31.7901 141.697 32.1745 140.052L33.2243 135.558C33.6086 133.912 34.9498 132.903 36.2198 133.304C37.4898 133.705 38.2078 135.364 37.8234 137.009L36.7736 141.503Z" fill="#D09D75"/>
<path d="M260.712 13.9248C262.144 13.4454 263.692 13.4454 265.124 13.9248L268.16 14.9412C268.821 15.1625 269.511 15.2831 270.208 15.299L273.431 15.3722C275.029 15.4086 276.566 15.995 277.782 17.0326L279.662 18.6359C280.253 19.1407 280.925 19.5425 281.65 19.8246L283.955 20.7219C285.674 21.3913 287.057 22.7172 287.798 24.4071L288.346 25.6574C288.715 26.4989 289.247 27.2588 289.911 27.8933L290.841 28.7811C292.38 30.2502 293.161 32.3432 292.96 34.461L292.907 35.0202C292.81 36.0431 292.942 37.0747 293.292 38.0408L293.471 38.5368C294.222 40.6098 293.944 42.9161 292.723 44.7517L292.285 45.4098C291.739 46.231 291.373 47.1591 291.213 48.1324L291.072 48.9919C290.749 50.9614 289.594 52.6966 287.902 53.7553L286.3 54.7578C285.584 55.2056 284.956 55.7801 284.446 56.4531L283.28 57.9927C282.25 59.3528 280.756 60.2864 279.082 60.6155L276.2 61.1821C275.486 61.3224 274.799 61.5741 274.163 61.9277L271.62 63.3425C270.281 64.0872 268.733 64.3686 267.218 64.1427L263.942 63.6544C263.263 63.5531 262.573 63.5531 261.894 63.6544L258.618 64.1427C257.103 64.3686 255.555 64.0872 254.216 63.3425L251.673 61.9277C251.037 61.5741 250.35 61.3224 249.636 61.1821L246.754 60.6155C245.08 60.2864 243.586 59.3528 242.556 57.9927L241.39 56.4531C240.88 55.7801 240.252 55.2056 239.536 54.7578L237.934 53.7553C236.242 52.6966 235.087 50.9614 234.764 48.9919L234.623 48.1324C234.463 47.1591 234.097 46.231 233.551 45.4098L233.113 44.7517C231.892 42.9161 231.614 40.6098 232.365 38.5368L232.544 38.0407C232.894 37.0747 233.026 36.0431 232.929 35.0202L232.876 34.461C232.675 32.3432 233.456 30.2502 234.995 28.7811L235.925 27.8933C236.589 27.2588 237.121 26.4989 237.49 25.6574L238.038 24.4071C238.779 22.7172 240.162 21.3913 241.881 20.7219L244.186 19.8246C244.91 19.5425 245.583 19.1407 246.174 18.6359L248.054 17.0326C249.27 15.995 250.807 15.4086 252.405 15.3722L255.628 15.299C256.325 15.2831 257.015 15.1625 257.676 14.9412L260.712 13.9248Z" fill="#815848" fill-opacity="0.99"/>
<path d="M262.038 56.3286C268.045 56.3286 272.883 63.5642 272.883 72.5527V79.2089C272.883 88.1974 268.045 95.4337 262.038 95.4337C256.03 95.4337 251.193 88.1974 251.193 79.2089V72.5527C251.193 63.5642 256.03 56.3286 262.038 56.3286Z" fill="#D09D75"/>
<path d="M260.403 57.5439H263.67C267.431 57.5439 270.459 61.7525 270.459 66.9806V70.8518C270.459 76.0799 267.431 80.2885 263.67 80.2885H260.403C256.641 80.2885 253.613 76.0799 253.613 70.8518V66.9806C253.613 61.7525 256.641 57.5439 260.403 57.5439Z" fill="#CC9B75"/>
<path d="M250.065 84.7053C249.372 84.7053 248.814 85.2598 248.814 85.9485C248.814 86.6373 249.372 87.191 250.065 87.191H257.018L259.014 88.6374C259.576 89.0445 260.357 88.9227 260.767 88.3646C261.176 87.8064 261.054 87.0297 260.492 86.6226L258.425 85.1249C258.404 85.1095 258.38 85.1007 258.358 85.0867C258.132 84.852 257.814 84.7053 257.459 84.7053H250.065ZM266.327 84.7053C265.972 84.7053 265.654 84.852 265.427 85.0867C265.405 85.1007 265.382 85.1095 265.36 85.1249L263.294 86.6226C262.732 87.0297 262.61 87.8064 263.019 88.3646C263.429 88.9227 264.21 89.0445 264.771 88.6374L266.767 87.191H273.721C274.414 87.191 274.971 86.6373 274.971 85.9485C274.971 85.2598 274.414 84.7053 273.721 84.7053H266.327Z" fill="#C68858"/>
<path d="M245.424 48.7006H279.329C283.217 48.7006 286.347 51.8126 286.347 55.678C286.347 59.5433 283.217 62.6546 279.329 62.6546H245.424C241.536 62.6546 238.406 59.5433 238.406 55.678C238.406 51.8126 241.536 48.7006 245.424 48.7006Z" fill="#D09D75"/>
<path d="M245.672 50.4749H279.081C281.981 50.4749 284.316 52.7955 284.316 55.678C284.316 58.5605 281.981 60.8812 279.081 60.8812H245.672C242.772 60.8812 240.438 58.5605 240.438 55.678C240.438 52.7955 242.772 50.4749 245.672 50.4749Z" fill="#C68858"/>
<path d="M258.567 29.0902H266.188C272.522 29.0902 282.54 37.9805 282.54 46.7233V59.1283C282.54 67.8711 273.151 77.4399 266.424 77.4399H258.331C251.604 77.4399 242.215 67.8711 242.215 59.1283V46.7233C242.215 37.9805 252.232 29.0902 258.567 29.0902Z" fill="#D09D75"/>
<path d="M260.662 72.7297H262.856C263.032 72.7297 263.174 72.853 263.174 73.0055V73.1683C263.174 73.3209 263.032 73.4441 262.856 73.4441H260.662C260.485 73.4441 260.344 73.3209 260.344 73.1683V73.0055C260.344 72.853 260.485 72.7297 260.662 72.7297Z" fill="#CC9B75"/>
<path d="M262.374 53.0862C263.719 53.0862 264.802 54.2245 264.802 55.6379V60.1421C264.802 61.5554 263.719 62.6938 262.374 62.6938C261.028 62.6938 259.945 61.5554 259.945 60.1421V55.6379C259.945 54.2245 261.028 53.0862 262.374 53.0862Z" fill="#C68858"/>
<path d="M266.422 59.7995C266.422 60.9261 265.463 61.8319 264.272 61.8319H260.479C259.289 61.8319 258.33 60.9261 258.33 59.7995C258.33 58.6736 259.289 57.7678 260.479 57.7678H264.272C265.463 57.7678 266.422 58.6736 266.422 59.7995Z" fill="#C68858"/>
<path d="M256.256 64.7603C255.974 64.7603 255.704 64.8505 255.505 65.0104C255.305 65.1703 255.193 65.3881 255.193 65.6147V66.258C255.193 67.5276 255.648 68.6909 256.451 69.5776C257.256 70.4651 258.472 71.0929 259.862 71.0929H264.796C266.187 71.0929 267.404 70.4651 268.207 69.5776C269.011 68.6909 269.466 67.5276 269.466 66.258V65.6147C269.466 65.3881 269.354 65.1703 269.155 65.0104C268.955 64.8505 268.685 64.7603 268.403 64.7603H256.256Z" fill="white"/>
<path d="M250.395 47.5578L257.225 48.1115C257.968 48.1717 258.517 48.8149 258.456 49.5528C258.396 50.2914 257.749 50.837 257.006 50.7769L250.175 50.2231C249.433 50.163 248.884 49.5205 248.944 48.7819C249.005 48.0433 249.652 47.4976 250.395 47.5578Z" fill="#4D4D4D"/>
<path d="M248.081 48.7613L249.425 47.8746C249.97 47.5152 250.699 47.6619 251.061 48.2032C251.423 48.7452 251.275 49.4706 250.731 49.83L249.387 50.7167C248.842 51.0761 248.112 50.9294 247.751 50.3881C247.389 49.8461 247.536 49.1207 248.081 48.7613Z" fill="#4D4D4D"/>
<path d="M274.359 47.5578L267.529 48.1115C266.786 48.1717 266.237 48.8149 266.298 49.5528C266.358 50.2914 267.005 50.837 267.747 50.7769L274.578 50.2231C275.32 50.163 275.87 49.5205 275.81 48.7819C275.748 48.0433 275.102 47.4976 274.359 47.5578Z" fill="#4D4D4D"/>
<path d="M276.672 48.7613L275.329 47.8746C274.783 47.5152 274.054 47.6619 273.692 48.2032C273.331 48.7452 273.478 49.4706 274.023 49.83L275.367 50.7167C275.911 51.0761 276.641 50.9294 277.003 50.3881C277.364 49.8461 277.217 49.1207 276.672 48.7613Z" fill="#4D4D4D"/>
<path d="M250.395 47.5578L257.225 48.1115C257.968 48.1717 258.517 48.8149 258.456 49.5528C258.396 50.2914 257.749 50.837 257.006 50.7769L250.175 50.2231C249.433 50.163 248.884 49.5205 248.944 48.7819C249.005 48.0433 249.652 47.4976 250.395 47.5578Z" fill="#4D4D4D"/>
<path d="M274.359 47.5578L267.529 48.1115C266.786 48.1717 266.237 48.8149 266.298 49.5528C266.358 50.2914 267.005 50.837 267.747 50.7769L274.578 50.2231C275.32 50.163 275.87 49.5205 275.81 48.7819C275.748 48.0433 275.102 47.4976 274.359 47.5578Z" fill="#4D4D4D"/>
<path d="M252.658 52.5825H253.551C254.363 52.5825 255.016 53.2324 255.016 54.0384V56.0885C255.016 56.8945 254.363 57.5436 253.551 57.5436H252.658C251.846 57.5436 251.193 56.8945 251.193 56.0885V54.0384C251.193 53.2324 251.846 52.5825 252.658 52.5825Z" fill="#61534B"/>
<path d="M270.198 52.5825H269.304C268.493 52.5825 267.84 53.2324 267.84 54.0384V56.0885C267.84 56.8945 268.493 57.5436 269.304 57.5436H270.198C271.01 57.5436 271.663 56.8945 271.663 56.0885V54.0384C271.663 53.2324 271.01 52.5825 270.198 52.5825Z" fill="#61534B"/>
<path fill-rule="evenodd" clip-rule="evenodd" d="M264.508 36.9176C263.104 36.3534 261.537 36.3534 260.134 36.9176L258.837 37.4388C257.918 37.8081 256.921 37.9387 255.938 37.8187L253.868 37.5657C252.362 37.3817 250.853 37.8853 249.759 38.9371C248.951 39.7137 247.908 40.1994 246.794 40.3176L244.401 40.5716C243.293 40.6892 242.399 41.5298 242.214 42.6282L242.213 42.6329V29.0903H282.539V43.2882L282.428 42.6282C282.242 41.5298 281.348 40.6892 280.241 40.5716L277.848 40.3176C276.734 40.1994 275.69 39.7137 274.883 38.9371C273.789 37.8853 272.28 37.3817 270.773 37.5657L268.703 37.8187C267.72 37.9387 266.723 37.8081 265.805 37.4388L264.508 36.9176Z" fill="#815848" fill-opacity="0.99"/>
</g>
<path d="M51.1378 227.172H39.1193C38.4808 227.172 37.9629 227.85 37.9629 228.688V241.978C37.9629 242.816 38.4808 243.494 39.1193 243.494H51.1378C51.7763 243.494 52.2949 242.816 52.2949 241.978V228.688C52.2949 227.85 51.7763 227.172 51.1378 227.172Z" fill="white"/>
<path d="M45.9221 231.852H41.9835C41.0478 231.852 40.2891 232.813 40.2891 233.998V235.924C40.2891 237.11 41.0478 238.072 41.9835 238.072H45.9221C46.8586 238.072 47.6166 237.11 47.6166 235.924V233.998C47.6166 232.813 46.8586 231.852 45.9221 231.852Z" fill="#4B4B4B"/>
<path d="M47.3811 235.159H41.2075C37.648 235.159 34.7617 238.598 34.7617 242.841C34.7617 247.083 37.648 250.522 41.2075 250.522H47.3811C50.9406 250.522 53.8262 247.083 53.8262 242.841C53.8262 238.598 50.9406 235.159 47.3811 235.159Z" fill="#4F4F4F"/>
<path d="M52.2842 242.137H36.6017C35.3526 242.137 34.3398 243.309 34.3398 244.753V248.173C34.3398 249.619 35.3526 250.79 36.6017 250.79H52.2842C53.5342 250.79 54.5469 249.619 54.5469 248.173V244.753C54.5469 243.309 53.5342 242.137 52.2842 242.137Z" fill="#4F4F4F"/>
<path d="M52.9879 247.625H35.8624C35.4267 247.625 35.0742 248.053 35.0742 248.581V249.833C35.0742 250.361 35.4267 250.79 35.8624 250.79H52.9879C53.4229 250.79 53.7754 250.361 53.7754 249.833V248.581C53.7754 248.053 53.4229 247.625 52.9879 247.625Z" fill="white"/>
<path d="M46.3359 235.545H41.7314C41.4913 235.545 41.2969 235.791 41.2969 236.096C41.2969 236.399 41.4913 236.646 41.7314 236.646H46.3359C46.5753 236.646 46.7704 236.399 46.7704 236.096C46.7704 235.791 46.5753 235.545 46.3359 235.545Z" fill="white"/>
<path d="M40.5569 239.067H38.3446C37.5649 239.067 36.9316 239.868 36.9316 240.857C36.9316 241.846 37.5649 242.647 38.3446 242.647H40.5569C41.3374 242.647 41.9692 241.846 41.9692 240.857C41.9692 239.868 41.3374 239.067 40.5569 239.067Z" fill="#585858"/>
<path d="M46.3359 237.306H41.7314C41.4913 237.306 41.2969 237.553 41.2969 237.856C41.2969 238.16 41.4913 238.406 41.7314 238.406H46.3359C46.5753 238.406 46.7704 238.16 46.7704 237.856C46.7704 237.553 46.5753 237.306 46.3359 237.306Z" fill="white"/>
<path d="M76.4049 227.171H64.1505C63.4995 227.171 62.9707 227.85 62.9707 228.688V241.977C62.9707 242.815 63.4995 243.494 64.1505 243.494H76.4049C77.0559 243.494 77.584 242.815 77.584 241.977V228.688C77.584 227.85 77.0559 227.171 76.4049 227.171Z" fill="white"/>
<path d="M72.3218 231.874H68.4326C67.5088 231.874 66.7598 232.835 66.7598 234.02V235.947C66.7598 237.132 67.5088 238.093 68.4326 238.093H72.3218C73.2455 238.093 73.9946 237.132 73.9946 235.947V234.02C73.9946 232.835 73.2455 231.874 72.3218 231.874Z" fill="#4B4B4B"/>
<path d="M74.5402 235.159H68.3679C64.8079 235.159 61.9219 238.598 61.9219 242.841C61.9219 247.083 64.8079 250.522 68.3679 250.522H74.5402C78.1002 250.522 81.2461 247.144 81.2461 242.902C81.2461 238.659 78.1002 235.159 74.5402 235.159Z" fill="#4F4F4F"/>
<path d="M79.3353 242.137H63.6354C62.3857 242.137 61.3711 243.277 61.3711 244.681V248.007C61.3711 249.413 62.3857 250.552 63.6354 250.552H79.3353C80.5858 250.552 81.5996 249.413 81.5996 248.007V244.681C81.5996 243.277 80.5858 242.137 79.3353 242.137Z" fill="#4F4F4F"/>
<path d="M80.5702 247.625H62.5986C62.1422 247.625 61.7715 248.053 61.7715 248.581V249.833C61.7715 250.361 62.1422 250.79 62.5986 250.79H80.5702C81.0266 250.79 81.3965 250.361 81.3965 249.833V248.581C81.3965 248.053 81.0266 247.625 80.5702 247.625Z" fill="white"/>
<path d="M73.4189 235.545H68.8723C68.6353 235.545 68.4434 235.791 68.4434 236.096C68.4434 236.399 68.6353 236.646 68.8723 236.646H73.4189C73.6552 236.646 73.8478 236.399 73.8478 236.096C73.8478 235.791 73.6552 235.545 73.4189 235.545Z" fill="white"/>
<path d="M74.9397 239.11H72.7563C71.9858 239.11 71.3613 239.911 71.3613 240.9C71.3613 241.888 71.9858 242.69 72.7563 242.69H74.9397C75.7102 242.69 76.3347 241.888 76.3347 240.9C76.3347 239.911 75.7102 239.11 74.9397 239.11Z" fill="#585858"/>
<path d="M73.4189 237.327H68.8723C68.6353 237.327 68.4434 237.574 68.4434 237.877C68.4434 238.181 68.6353 238.428 68.8723 238.428H73.4189C73.6552 238.428 73.8478 238.181 73.8478 237.877C73.8478 237.574 73.6552 237.327 73.4189 237.327Z" fill="white"/>
<defs>
<filter id="filter0_d_2165_4940" x="0" y="0.15686" width="395.066" height="258.843" filterUnits="userSpaceOnUse" color-interpolation-filters="sRGB">
<feFlood flood-opacity="0" result="BackgroundImageFix"/>
<feColorMatrix in="SourceAlpha" type="matrix" values="0 0 0 0 0 0 0 0 0 0 0 0 0 0 0 0 0 0 127 0" result="hardAlpha"/>
<feOffset dy="4"/>
<feGaussianBlur stdDeviation="2"/>
<feComposite in2="hardAlpha" operator="out"/>
<feColorMatrix type="matrix" values="0 0 0 0 0 0 0 0 0 0 0 0 0 0 0 0 0 0 0.25 0"/>
<feBlend mode="normal" in2="BackgroundImageFix" result="effect1_dropShadow_2165_4940"/>
<feBlend mode="normal" in="SourceGraphic" in2="effect1_dropShadow_2165_4940" result="shape"/>
</filter>
</defs>
</svg>
