<svg width="569" height="373" viewBox="0 0 569 373" fill="none" xmlns="http://www.w3.org/2000/svg">
<g filter="url(#filter0_d_2165_4941)">
<path d="M114.218 125.897L114.204 125.832C113.472 122.407 116.632 119.529 121.605 118.637C123.795 118.244 126.056 118.022 128.143 117.372L136.106 114.892L138.262 114.473C140.441 114.05 142.333 112.958 143.74 111.311C144.584 110.322 145.607 109.529 146.77 108.962L147.881 108.42C152.285 106.272 157.687 106.218 163.032 108.268L172.588 111.933C175.852 113.185 179.337 113.561 182.39 115.619C186.28 118.243 189.815 123.133 190.441 126.064L190.455 126.129C191.163 129.44 188.232 132.241 183.541 133.229C181.056 133.752 178.469 134.042 176.127 134.895L173.838 135.728L164.405 137.838C161.529 138.482 158.449 138.54 155.302 138.01L130.318 133.805C128.926 133.57 127.549 133.485 126.166 133.345C120.161 132.738 115.016 129.628 114.218 125.897Z" fill="#D09D75"/>
<path d="M190.445 133.369L190.371 133.376C185.645 133.818 181.144 129.883 180.318 124.586L174.517 104.527L174.111 84.8138C173.284 79.5171 176.445 74.8645 181.171 74.4219L181.244 74.415C185.97 73.9724 193.282 77.0532 194.109 82.3499L200.316 122.122C201.142 127.419 195.17 132.926 190.445 133.369Z" fill="#D09D75"/>
<path d="M189.614 83.16L191.885 81.0385C196.239 76.9726 195.918 68.8454 191.168 62.886L186.948 57.5915C182.197 51.6321 174.817 50.0971 170.463 54.163L168.192 56.2844C163.838 60.3504 164.159 68.4776 168.909 74.437L173.129 79.7314C177.879 85.6909 185.26 87.2259 189.614 83.16Z" fill="#D09D75"/>
<path d="M176.056 69.6449C180.189 72.3095 185.276 70.8103 187.418 66.2963C189.56 61.7824 187.946 55.9629 183.813 53.2983L172.525 46.0204C168.762 43.5944 162.755 52.0081 160.093 56.9411C159.639 57.7823 159.576 58.8217 159.866 59.7653C160.467 61.721 161.782 63.2811 163.457 64.0281L176.056 69.6449Z" fill="#D09D75"/>
<path d="M170.472 78.2852C172.578 80.9112 175.804 81.6274 177.676 79.885C179.549 78.1425 179.359 74.6012 177.252 71.9752L171.498 64.8028C169.391 62.1768 166.165 61.4605 164.293 63.203C162.421 64.9454 162.611 68.4868 164.717 71.1128L170.472 78.2852Z" fill="#C98F62"/>
<path d="M35.8836 121.621C35.376 120.191 34.7571 120.144 33.3833 120.041C32.5317 119.977 31.6964 119.996 30.9309 120.15C30.1654 120.305 29.2631 120.398 28.5106 119.837C26.0081 117.97 25.0483 112.448 26.0311 118.304C26.3987 120.1 26.3348 121.832 25.8436 123.387L20.721 139.603C20.3266 140.851 20.0621 142.158 19.93 143.509L17.2266 171.178C17.0409 173.079 16.7769 176.898 18.7398 176.36C20.1993 175.959 22.2364 173.136 24.1821 171.907C25.216 171.255 26.752 171.353 28.1879 171.353L31.4252 171.353C31.8665 171.353 33.2104 171.486 33.6608 171.517C35.6155 171.655 36.468 170.973 37.9906 170.266L39.1826 169.713C39.8396 169.409 40.4441 169.041 40.9886 168.615L41.5226 168.197C45.5616 165.036 47.3913 160.101 46.5865 154.539L44.2888 138.657C43.8637 135.718 42.4244 132.698 40.1632 129.999C37.9808 127.395 36.9041 124.497 35.8836 121.621Z" fill="#D09D75"/>
<path d="M71.2822 272.429L68.8234 272.429C63.051 272.429 58.3715 277.108 58.3715 282.88L58.3712 309.78L58.3716 329.09L56.2832 348.881C56.2832 353.206 60.551 356.712 65.8156 356.712H68.0381C73.3027 356.712 77.5704 353.206 77.5704 348.881V319.989C77.5704 317.974 78.0647 315.99 79.0098 314.21C79.9549 312.431 80.4491 310.447 80.4491 308.432V304.639C80.4491 302.411 80.1715 300.192 79.6227 298.033C79.0739 295.874 78.7962 293.655 78.7962 291.427V279.943C78.7962 279.499 78.7569 279.055 78.6786 278.618C78.0373 275.036 74.9213 272.428 71.2822 272.429Z" fill="#D09D75"/>
<path d="M69.4993 194.088H55.2565C54.5627 194.088 54.0002 194.65 54.0002 195.344L49.4277 237.742V252.979C49.4277 254.564 49.5581 256.147 49.8175 257.712L50.9659 264.636C51.5203 267.979 52.6579 271.199 54.3268 274.149L57.4491 279.667C58.085 280.791 58.4191 282.06 58.4191 283.351C58.4191 287.483 61.7687 290.833 65.9006 290.833H70.7475C75.1725 290.833 78.7597 287.246 78.7597 282.821C78.7597 281.869 78.9293 280.925 79.2605 280.032L80.3342 277.14C80.7957 275.897 81.1583 274.619 81.4186 273.318L83.0442 265.198L84.6741 254.405C84.89 252.975 84.9984 251.531 84.9984 250.085V231.562V209.587C84.9984 201.027 78.0592 194.088 69.4993 194.088Z" fill="#D09D75"/>
<path d="M71.4763 340.139H62.5254C57.3639 340.139 53.1797 343.849 53.1797 348.425C53.1797 353.002 57.3639 356.711 62.5254 356.711H71.4763C76.6378 356.711 80.8221 353.002 80.8221 348.425C80.8221 343.849 76.6378 340.139 71.4763 340.139Z" fill="#D09D75"/>
<path d="M77.7271 347.634H56.2746C54.5653 347.634 53.1797 348.863 53.1797 350.378V353.967C53.1797 355.483 54.5653 356.711 56.2746 356.711H77.7271C79.4364 356.711 80.8221 355.483 80.8221 353.967V350.378C80.8221 348.863 79.4364 347.634 77.7271 347.634Z" fill="#D09D75"/>
<path d="M120.196 154.198C120.196 132.803 102.891 124.549 85.3328 124.549C67.7743 124.549 51.7441 132.803 51.7441 154.198L53.5403 191.277C53.5403 212.672 67.7743 230.016 85.3328 230.016C102.891 230.016 117.125 217.545 117.125 196.15L120.196 154.198Z" fill="#81584A"/>
<path d="M128.931 106.073H41.1977C31.7008 106.073 24.002 113.726 24.002 123.167C24.002 132.608 31.7008 140.261 41.1977 140.261H128.931C138.428 140.261 146.127 132.608 146.127 123.167C146.127 113.726 138.428 106.073 128.931 106.073Z" fill="#906253"/>
<path d="M131.925 131.969C131.925 112.137 111.068 96.0603 85.3389 96.0603C59.6102 96.0603 38.7529 112.137 38.7529 131.969C38.7529 151.8 59.6102 167.877 85.3389 167.877C111.068 167.877 131.925 151.8 131.925 131.969Z" fill="#D09D75"/>
<path d="M87.9083 155.111H82.7621C70.4903 155.111 60.542 164.062 60.542 175.104V189.549C60.542 200.591 70.4903 209.542 82.7621 209.542H87.9083C100.18 209.542 110.128 200.591 110.128 189.549V175.104C110.128 164.062 100.18 155.111 87.9083 155.111Z" fill="#906253"/>
<path d="M109.423 105.991H61.2548C48.8274 105.991 38.7529 114.806 38.7529 125.679V137.545C38.7529 148.418 48.8274 157.233 61.2548 157.233H109.423C121.85 157.233 131.925 148.418 131.925 137.545V125.679C131.925 114.806 121.85 105.991 109.423 105.991Z" fill="#906253"/>
<path d="M113.626 105.991H57.0516C46.9455 105.991 38.7529 114.183 38.7529 124.287V135.314C38.7529 145.419 46.9455 153.61 57.0516 153.61H113.626C123.732 153.61 131.925 145.419 131.925 135.314V124.287C131.925 114.183 123.732 105.991 113.626 105.991Z" fill="#D09D75"/>
<path d="M89.1401 146.06C89.1401 144.813 87.3832 143.802 85.216 143.802C83.0488 143.802 81.292 144.813 81.292 146.06V150.441C81.292 151.688 83.0488 152.699 85.216 152.699C87.3832 152.699 89.1401 151.688 89.1401 150.441V146.06Z" fill="#81584A"/>
<path d="M105.699 139.175H96.5523C93.9254 139.175 91.7959 141.086 91.7959 143.444C91.7959 145.801 93.9254 147.713 96.5523 147.713H105.699C108.326 147.713 110.455 145.801 110.455 143.444C110.455 141.086 108.326 139.175 105.699 139.175Z" fill="#AC7967"/>
<path d="M73.4137 139.176H64.2672C61.6403 139.176 59.5107 141.087 59.5107 143.444C59.5107 145.802 61.6403 147.713 64.2672 147.713H73.4137C76.0406 147.713 78.1701 145.802 78.1701 143.444C78.1701 141.087 76.0406 139.176 73.4137 139.176Z" fill="#AC7967"/>
<path d="M60.2714 147.934H56.9407C55.6121 147.934 54.5352 148.901 54.5352 150.093C54.5352 151.285 55.6121 152.252 56.9407 152.252H60.2714C61.5999 152.252 62.6769 151.285 62.6769 150.093C62.6769 148.901 61.5999 147.934 60.2714 147.934Z" fill="#81584A"/>
<path d="M114.718 147.934H111.387C110.058 147.934 108.981 148.901 108.981 150.093C108.981 151.285 110.058 152.252 111.387 152.252H114.718C116.046 152.252 117.123 151.285 117.123 150.093C117.123 148.901 116.046 147.934 114.718 147.934Z" fill="#81584A"/>
<path d="M42.9795 108.876H40.9615C35.5748 108.876 31.208 113.217 31.208 118.572C31.208 123.927 35.5748 128.267 40.9615 128.267H42.9795C48.3663 128.267 52.7331 123.927 52.7331 118.572C52.7331 113.217 48.3663 108.876 42.9795 108.876Z" fill="#9D6B5A"/>
<path d="M130.018 109.822H128C122.613 109.822 118.246 114.163 118.246 119.518C118.246 124.872 122.613 129.213 128 129.213H130.018C135.404 129.213 139.771 124.872 139.771 119.518C139.771 114.163 135.404 109.822 130.018 109.822Z" fill="#9D6B5A"/>
<path d="M42.8371 112.134H39.8102C38.1384 112.134 36.7832 113.481 36.7832 115.143C36.7832 116.805 38.1384 118.152 39.8102 118.152H42.8371C44.5089 118.152 45.8641 116.805 45.8641 115.143C45.8641 113.481 44.5089 112.134 42.8371 112.134Z" fill="#AC7967"/>
<path d="M133.689 112.37H130.662C128.99 112.37 127.635 113.718 127.635 115.379C127.635 117.041 128.99 118.388 130.662 118.388H133.689C135.36 118.388 136.716 117.041 136.716 115.379C136.716 113.718 135.36 112.37 133.689 112.37Z" fill="#AC7967"/>
<path d="M100.726 270.208L103.059 270.208C108.822 270.208 113.494 274.879 113.494 280.642L113.494 308.345L113.494 328.061L115.582 348.269C115.582 352.684 111.314 356.264 106.05 356.264H103.827C98.5626 356.264 94.2948 352.684 94.2948 348.269V318.211C94.2948 316.275 93.7993 314.371 92.8554 312.68C91.9116 310.989 91.4161 309.085 91.4161 307.149V303.011C91.4161 300.792 91.6872 298.582 92.2232 296.428L92.2426 296.351C92.7915 294.146 93.069 291.883 93.069 289.61V277.865C93.069 277.421 93.1075 276.979 93.1841 276.542C93.8263 272.879 97.0073 270.208 100.726 270.208Z" fill="#D09D75"/>
<path d="M103.547 194.088H111.862C113.99 194.088 115.885 195.436 116.582 197.447C116.686 197.747 116.761 198.055 116.806 198.369L122.141 235.269C122.339 236.64 122.438 238.023 122.438 239.408V252.375C122.438 253.976 122.306 255.573 122.041 257.152L120.914 263.883C120.351 267.25 119.196 270.49 117.502 273.454L114.421 278.848C113.783 279.966 113.447 281.23 113.447 282.517C113.447 286.603 110.135 289.915 106.049 289.915H101.032C96.6548 289.915 93.1065 286.367 93.1065 281.99C93.1065 281.04 92.9358 280.098 92.6025 279.209L91.5316 276.351C91.0704 275.12 90.7079 273.855 90.4475 272.566L88.8221 264.524L87.1982 253.873C86.9783 252.43 86.8678 250.973 86.8678 249.513V231.207V210.767C86.8678 201.555 94.3352 194.088 103.547 194.088Z" fill="#D09D75"/>
<path d="M101.379 339.749H110.33C115.492 339.749 119.676 343.446 119.676 348.006C119.676 352.567 115.492 356.264 110.33 356.264H101.379C96.2176 356.264 92.0334 352.567 92.0334 348.006C92.0334 343.446 96.2176 339.749 101.379 339.749Z" fill="#D09D75"/>
<path d="M95.1283 343.149H116.581C118.29 343.149 119.676 344.924 119.676 347.113V352.299C119.676 354.488 118.29 356.263 116.581 356.263H95.1283C93.4191 356.263 92.0334 354.488 92.0334 352.299V347.113C92.0334 344.924 93.4191 343.149 95.1283 343.149Z" fill="#D09D75"/>
<path d="M79.8418 161.842H73.9415C71.1272 161.842 68.8457 163.819 68.8457 166.258C68.8457 168.697 71.1272 170.674 73.9415 170.674H79.8418C82.6562 170.674 84.9376 168.697 84.9376 166.258C84.9376 163.819 82.6562 161.842 79.8418 161.842Z" fill="#9D6B5A"/>
<path d="M79.8418 172.254H73.9415C71.1272 172.254 68.8457 174.231 68.8457 176.67C68.8457 179.109 71.1272 181.086 73.9415 181.086H79.8418C82.6562 181.086 84.9376 179.109 84.9376 176.67C84.9376 174.231 82.6562 172.254 79.8418 172.254Z" fill="#9D6B5A"/>
<path d="M79.8418 182.668H73.9415C71.1272 182.668 68.8457 184.645 68.8457 187.084C68.8457 189.523 71.1272 191.5 73.9415 191.5H79.8418C82.6562 191.5 84.9376 189.523 84.9376 187.084C84.9376 184.645 82.6562 182.668 79.8418 182.668Z" fill="#9D6B5A"/>
<path d="M97.8643 161.842H91.9639C89.1496 161.842 86.8682 163.819 86.8682 166.258C86.8682 168.697 89.1496 170.674 91.9639 170.674H97.8643C100.679 170.674 102.96 168.697 102.96 166.258C102.96 163.819 100.679 161.842 97.8643 161.842Z" fill="#9D6B5A"/>
<path d="M97.8643 172.254H91.9639C89.1496 172.254 86.8682 174.231 86.8682 176.67C86.8682 179.109 89.1496 181.086 91.9639 181.086H97.8643C100.679 181.086 102.96 179.109 102.96 176.67C102.96 174.231 100.679 172.254 97.8643 172.254Z" fill="#9D6B5A"/>
<path d="M97.8643 182.668H91.9639C89.1496 182.668 86.8682 184.645 86.8682 187.084C86.8682 189.523 89.1496 191.5 91.9639 191.5H97.8643C100.679 191.5 102.96 189.523 102.96 187.084C102.96 184.645 100.679 182.668 97.8643 182.668Z" fill="#9D6B5A"/>
<path d="M58.4314 196.235C56.7595 196.235 55.1464 196.502 53.6201 196.992C55.4072 216.451 68.8773 231.485 85.3413 231.485C102.018 231.485 115.624 216.061 117.127 196.235C117.125 196.235 117.124 196.235 117.122 196.235H58.4314Z" fill="#4F4F4F"/>
<path d="M114.799 194.088H55.9472C54.662 194.088 53.6201 195.268 53.6201 196.724V200.806C53.6201 202.262 54.662 203.442 55.9472 203.442H114.799C116.085 203.442 117.126 202.262 117.126 200.806V196.724C117.126 195.268 116.085 194.088 114.799 194.088Z" fill="#5B5B5B"/>
<path d="M102.037 89.4757C102.037 78.2458 94.4347 69.1426 85.0547 69.1426C75.6736 69.1426 68.0703 78.2458 68.0703 89.4757V97.8182C68.0703 109.048 75.6736 118.152 85.0547 118.152C94.4347 118.152 102.037 109.048 102.037 97.8182V89.4757Z" fill="#D09D75"/>
<path d="M78.8112 113.226L69.5414 108.771C68.5096 108.275 67.2718 108.71 66.7756 109.74C66.2794 110.773 66.7137 112.01 67.7455 112.506L77.0164 116.963C78.0471 117.459 79.286 117.025 79.7823 115.992C80.2785 114.961 79.8441 113.723 78.8112 113.226Z" fill="#C68858"/>
<path d="M90.0765 113.226L99.3473 108.771C100.379 108.275 101.618 108.71 102.114 109.74C102.608 110.773 102.175 112.01 101.143 112.506L91.8735 116.963C90.8405 117.459 89.6027 117.025 89.1076 115.992C88.6114 114.961 89.0458 113.723 90.0765 113.226Z" fill="#C68858"/>
<path d="M87.9567 70.5098H81.3695C73.8079 70.5098 67.6787 76.639 67.6787 84.1994V89.8167C67.6787 97.3772 73.8079 103.506 81.3695 103.506H87.9567C95.5172 103.506 101.646 97.3772 101.646 89.8167V84.1994C101.646 76.639 95.5172 70.5098 87.9567 70.5098Z" fill="#C68858"/>
<path d="M109.305 58.5947H61.4411C55.9691 58.5947 51.5322 63.1261 51.5322 68.7163C51.5322 74.3076 55.9691 78.8389 61.4411 78.8389H109.305C114.778 78.8389 119.215 74.3076 119.215 68.7163C119.215 63.1261 114.778 58.5947 109.305 58.5947Z" fill="#D09D75"/>
<path d="M108.591 60.125H61.2839C57.1903 60.125 53.873 63.5041 53.873 67.6731C53.873 71.8421 57.1903 75.2224 61.2839 75.2224H108.591C112.684 75.2224 116.002 71.8421 116.002 67.6731C116.002 63.5041 112.684 60.125 108.591 60.125Z" fill="#C68858"/>
<path d="M92.0328 29.1663H77.8649C66.1275 29.1663 56.6113 38.6813 56.6113 50.4198V75.6072C56.6113 87.3469 66.1275 96.863 77.8649 96.863H92.0328C103.77 96.863 113.286 87.3469 113.286 75.6072V50.4198C113.286 38.6813 103.77 29.1663 92.0328 29.1663Z" fill="#D09D75"/>
<path d="M91.5838 93.9814H78.3453C76.914 93.9814 75.7539 95.1427 75.7539 96.5729C75.7539 98.0053 76.914 99.1666 78.3453 99.1666H91.5838C93.0151 99.1666 94.1752 98.0053 94.1752 96.5729C94.1752 95.1427 93.0151 93.9814 91.5838 93.9814Z" fill="#D09D75"/>
<path d="M87.1024 91.084H83.2743C82.9683 91.084 82.7207 91.3327 82.7207 91.6387V91.965C82.7207 92.2711 82.9683 92.5198 83.2743 92.5198H87.1024C87.4073 92.5198 87.656 92.2711 87.656 91.965V91.6387C87.656 91.3327 87.4073 91.084 87.1024 91.084Z" fill="#C68858"/>
<path d="M89.09 66.5985C89.09 64.2997 87.2277 62.4363 84.9277 62.4363C82.63 62.4363 80.7666 64.2997 80.7666 66.5985V73.9419C80.7666 76.2396 82.63 78.1041 84.9277 78.1041C87.2277 78.1041 89.09 76.2396 89.09 73.9419V66.5985Z" fill="#C68858"/>
<path d="M84.4682 74.9095L80.5985 71.6204C79.9582 71.0769 78.9995 71.1545 78.456 71.7937C77.9136 72.4339 77.9901 73.3926 78.6304 73.9361L82.5001 77.2252C83.1393 77.7676 84.0991 77.6899 84.6415 77.0508C85.1849 76.4117 85.1073 75.4518 84.4682 74.9095Z" fill="#C68858"/>
<path d="M85.5322 74.9092L89.4019 71.6201C90.0411 71.0766 90.9998 71.1543 91.5433 71.7934C92.0868 72.4337 92.008 73.3924 91.37 73.9359L87.4992 77.225C86.8589 77.7673 85.9013 77.6897 85.3578 77.0505C84.8143 76.4114 84.892 75.4516 85.5322 74.9092Z" fill="#C68858"/>
<path d="M82.318 58.9804C82.318 58.3356 81.7959 57.8135 81.1522 57.8135C80.5074 57.8135 79.9854 58.3356 79.9854 58.9804V60.3925C79.9854 61.0362 80.5074 61.5594 81.1522 61.5594C81.7959 61.5594 82.318 61.0362 82.318 60.3925V58.9804Z" fill="#C68858"/>
<path d="M90.0612 58.9806C90.0612 58.3358 89.5402 57.8137 88.8943 57.8137C88.2506 57.8137 87.7285 58.3358 87.7285 58.9806V60.3928C87.7285 61.0364 88.2506 61.5596 88.8943 61.5596C89.5402 61.5596 90.0612 61.0364 90.0612 60.3928V58.9806Z" fill="#C68858"/>
<path d="M74.8416 61.3946C74.8416 59.9565 73.6758 58.7908 72.2377 58.7908C70.7986 58.7908 69.6328 59.9565 69.6328 61.3946V62.4377C69.6328 63.8757 70.7986 65.0415 72.2377 65.0415C73.6758 65.0415 74.8416 63.8757 74.8416 62.4377V61.3946Z" fill="#61534B"/>
<path d="M100.17 61.3946C100.17 59.9565 99.0039 58.7908 97.5659 58.7908C96.1267 58.7908 94.9609 59.9565 94.9609 61.3946V62.4366C94.9609 63.8757 96.1267 65.0415 97.5659 65.0415C99.0039 65.0415 100.17 63.8757 100.17 62.4366V61.3946Z" fill="#61534B"/>
<path d="M89.8559 88.1785C93.6896 88.1785 96.775 84.8827 96.775 80.7879V79.5918H73.4746V80.7879C73.4746 84.8827 76.5611 88.1785 80.3937 88.1785H89.8559Z" fill="white"/>
<path fill-rule="evenodd" clip-rule="evenodd" d="M103.219 56.3231C103.219 56.0136 102.967 55.7627 102.658 55.7627H94.8035C94.4941 55.7627 94.2432 56.0136 94.2432 56.3231V57.4449C94.2432 57.7555 94.4941 58.0064 94.8035 58.0064H102.658C102.967 58.0064 103.219 57.7555 103.219 57.4449V56.3231Z" fill="#61534B"/>
<path fill-rule="evenodd" clip-rule="evenodd" d="M76.2633 56.2904C76.2633 55.9809 76.0113 55.73 75.7018 55.73H67.8476C67.5382 55.73 67.2861 55.9809 67.2861 56.2904V57.4133C67.2861 57.7228 67.5382 57.9737 67.8476 57.9737H75.7018C76.0113 57.9737 76.2633 57.7228 76.2633 57.4133V56.2904Z" fill="#61534B"/>
<path fill-rule="evenodd" clip-rule="evenodd" d="M67.9221 93.5239C61.1515 88.4243 57.0455 83.0536 57.8961 76.2402L69.0439 90.1572" fill="#815848"/>
<path fill-rule="evenodd" clip-rule="evenodd" d="M102.713 93.5226C108.968 89.852 114.89 81.2619 112.739 76.24L101.591 90.157" fill="#815848"/>
<path d="M76.2354 73.7671C71.5679 73.7671 67.8096 77.4624 67.8096 82.0545V91.7473C67.8096 96.3383 71.5679 100.034 76.2354 100.034H94.3124C98.9799 100.034 102.738 96.3383 102.738 91.7473V82.0545C102.738 77.4624 98.9799 73.7671 94.3124 73.7671H92.5446C92.6065 74.2723 92.4175 74.7967 91.9921 75.1523L91.2776 75.7498C91.7018 76.1402 92.0169 76.6443 92.153 77.2216H94.6061C97.2155 77.2216 99.3163 79.2875 99.3163 81.8542V86.0232C99.3163 86.9965 99.0136 87.8979 98.4949 88.6416V89.7849C98.4949 93.4498 95.4961 96.3991 91.7693 96.3991H78.7784C75.0516 96.3991 72.0529 93.4498 72.0529 89.7849V88.6416C71.5341 87.8979 71.2303 86.9965 71.2303 86.0232V81.8542C71.2303 79.2875 73.3323 77.2216 75.9417 77.2216H77.4844C77.6689 76.4452 78.1674 75.7936 78.8358 75.3886L78.5556 75.1523C78.1292 74.7967 77.9412 74.2723 78.0031 73.7671H76.2354Z" fill="#815848"/>
<path d="M75.0998 97.2058H77.4594C78.2854 97.2058 78.9537 97.3183 78.9537 97.4567V98.6979C78.9537 98.8363 78.2854 98.9488 77.4594 98.9488H75.0998C74.2739 98.9488 73.6055 98.8363 73.6055 98.6979V97.4567C73.6055 97.3183 74.2739 97.2058 75.0998 97.2058Z" fill="#4D4D4D"/>
<path d="M93.1349 97.2058H95.4946C96.3205 97.2058 96.9889 97.3183 96.9889 97.4567V98.6979C96.9889 98.8363 96.3205 98.9488 95.4946 98.9488H93.1349C92.309 98.9488 91.6406 98.8363 91.6406 98.6979V97.4567C91.6406 97.3183 92.309 97.2058 93.1349 97.2058Z" fill="#4D4D4D"/>
<path d="M72.0027 29.0198C61.9241 29.0198 53.8105 37.6042 53.8105 48.2715C53.8105 48.7705 53.8337 49.2651 53.8691 49.7573C53.8337 50.0074 53.8105 50.2632 53.8105 50.5247V62.3174C53.8105 64.8492 55.5006 66.9456 57.7574 67.4208V52.0299C57.7574 41.0137 66.1393 32.1439 76.5505 32.1439H91.2532C101.663 32.1439 110.046 41.0137 110.046 52.0299V67.4401C112.366 67.0218 114.125 64.897 114.125 62.3174V50.5247C114.125 50.2632 114.099 50.0074 114.065 49.7573C114.1 49.2651 114.125 48.7705 114.125 48.2715C114.125 37.6042 106.01 29.0198 95.9313 29.0198H72.0027Z" fill="#82594A"/>
<path d="M92.6619 26.6836H76.2713C70.7504 26.6836 66.2744 31.4198 66.2744 37.2644C66.2744 43.1067 70.7504 47.8429 76.2713 47.8429H92.6619C98.1828 47.8429 102.659 43.1067 102.659 37.2644C102.659 31.4198 98.1828 26.6836 92.6619 26.6836Z" fill="#82594A"/>
<path d="M71.929 33.3595C71.929 31.7076 70.6631 30.3684 69.1012 30.3684C67.5403 30.3684 66.2744 31.7076 66.2744 33.3595V40.2978C66.2744 41.9485 67.5403 43.2889 69.1012 43.2889C70.6631 43.2889 71.929 41.9485 71.929 40.2978V33.3595Z" fill="#82594A"/>
<path d="M104.017 33.7539C104.017 32.1009 102.752 30.7617 101.19 30.7617C99.6281 30.7617 98.3633 32.1009 98.3633 33.7539V40.69C98.3633 42.343 99.6281 43.6822 101.19 43.6822C102.752 43.6822 104.017 42.343 104.017 40.69V33.7539Z" fill="#82594A"/>
<path d="M65.1063 36.7484C64.9583 35.6593 64.0028 34.9022 62.9732 35.0579C61.9426 35.2148 61.2268 36.2266 61.3749 37.3169L61.8532 40.8355C62.0001 41.9257 62.9556 42.6829 63.9862 42.526C65.0168 42.3691 65.7315 41.3595 65.5835 40.2682L65.1063 36.7484Z" fill="#82594A"/>
<path d="M104.932 37.7023C105.079 36.612 106.035 35.856 107.065 36.0118C108.096 36.1687 108.811 37.1793 108.663 38.2707L108.185 41.7893C108.037 42.8796 107.082 43.6367 106.052 43.4799C105.022 43.323 104.306 42.3134 104.454 41.222L104.932 37.7023Z" fill="#82594A"/>
<path d="M82.4794 31.9133H84.2435C85.284 31.9133 86.128 32.8069 86.128 33.9074V41.1924C86.128 42.2929 85.284 43.1865 84.2435 43.1865H82.4794C81.4377 43.1865 80.5938 42.2929 80.5938 41.1924V33.9074C80.5938 32.8069 81.4377 31.9133 82.4794 31.9133Z" fill="#565656"/>
<path d="M74.9094 32.1111H77.2379C78.0532 32.1111 78.7126 32.8103 78.7126 33.672V41.389C78.7126 42.2519 78.0532 42.9511 77.2379 42.9511H74.9094C74.0931 42.9511 73.4336 42.2519 73.4336 41.389V33.672C73.4336 32.8103 74.0931 32.1111 74.9094 32.1111Z" fill="#565656"/>
<path d="M92.0037 32.144H89.674C88.8599 32.144 88.1982 32.8432 88.1982 33.705V41.4231C88.1982 42.286 88.8599 42.984 89.674 42.984H92.0037C92.8178 42.984 93.4784 42.286 93.4784 41.4231V33.705C93.4784 32.8432 92.8178 32.144 92.0037 32.144Z" fill="#565656"/>
<path d="M72.0027 29.02C61.9241 29.02 53.8105 37.6045 53.8105 48.2717C53.8105 48.7708 53.8337 49.2653 53.8691 49.7576C53.8337 50.0077 53.8105 50.2635 53.8105 50.525V62.3177C53.8105 64.8495 55.5006 66.9458 57.7574 67.421V52.0302C57.7574 41.0139 66.1393 32.1441 76.5505 32.1441H91.2532C101.663 32.1441 110.046 41.0139 110.046 52.0302V67.4404C112.366 67.022 114.125 64.8972 114.125 62.3177V50.525C114.125 50.2635 114.099 50.0077 114.065 49.7576C114.1 49.2653 114.125 48.7708 114.125 48.2717C114.125 37.6045 106.01 29.02 95.9313 29.02H72.0027Z" fill="#82594A"/>
<path fill-rule="evenodd" clip-rule="evenodd" d="M64.9915 31.6957C63.1486 32.8518 62.1791 34.1619 62.1791 35.4957C62.1791 39.6916 71.5831 43.0972 83.1672 43.0972C94.7513 43.0972 104.155 39.6916 104.155 35.4957C104.155 34.1619 103.186 32.8518 101.343 31.6957L64.9915 31.6957Z" fill="#82594A"/>
<path d="M55.7588 194.124C57.3962 218.115 69.9735 236.684 85.0616 236.684C100.347 236.684 113.82 218.566 115.197 194.124H55.7588Z" fill="#4F4F4F"/>
<path d="M117.381 193.831L86.0997 198.824L85.8545 236.582L86.0997 253.129H123.188C123.393 222.518 123.985 211.89 117.381 193.831Z" fill="#4B4B4B"/>
<path d="M53.7261 193.831L85.5973 198.808V236.58V253.127H48.2679C48.0561 222.414 46.9293 211.949 53.7261 193.831Z" fill="#4B4B4B"/>
<path d="M393.567 276.564H395.782C401.201 276.564 405.593 281.139 405.593 286.784L405.594 313.76L405.593 332.99L407.557 352.699C407.557 357.006 403.545 360.497 398.596 360.497H396.507C391.558 360.497 387.546 357.006 387.546 352.699V323.386C387.546 321.496 387.08 319.637 386.194 317.989C385.306 316.339 384.84 314.481 384.84 312.591V308.559C384.84 306.394 385.095 304.238 385.599 302.138L385.617 302.062C386.133 299.912 386.394 297.705 386.394 295.487V284.035C386.394 283.601 386.431 283.168 386.503 282.74C387.106 279.168 390.085 276.564 393.567 276.564Z" fill="#D09D75"/>
<path d="M396.529 204.699H402.182C405.363 204.699 408.217 206.735 409.368 209.823C409.59 210.418 409.742 211.04 409.823 211.673L413.999 244.496V258.74C413.999 260.588 413.851 262.434 413.558 264.257L412.598 270.201C412.048 273.614 410.92 276.897 409.268 279.898L406.465 284.988C405.864 286.081 405.548 287.317 405.548 288.576C405.548 292.558 402.448 295.786 398.626 295.786H393.844C389.749 295.786 386.427 292.326 386.427 288.06C386.427 287.131 386.266 286.21 385.952 285.34L384.947 282.556C384.513 281.356 384.173 280.121 383.927 278.865L382.4 271.021L380.93 261.022C380.686 259.356 380.562 257.672 380.562 255.987V221.33C380.562 212.145 387.711 204.699 396.529 204.699Z" fill="#D09D75"/>
<path d="M394.2 344.39H402.615C407.466 344.39 411.4 347.995 411.4 352.443C411.4 356.891 407.466 360.496 402.615 360.496H394.2C389.348 360.496 385.415 356.891 385.415 352.443C385.415 347.995 389.348 344.39 394.2 344.39Z" fill="#D09D75"/>
<path d="M388.324 347.705H408.491C410.097 347.705 411.4 349.437 411.4 351.572V356.629C411.4 358.765 410.097 360.496 408.491 360.496H388.324C386.718 360.496 385.415 358.765 385.415 356.629V351.572C385.415 349.437 386.718 347.705 388.324 347.705Z" fill="#D09D75"/>
<path d="M362.064 276.564H359.849C354.43 276.564 350.037 281.139 350.037 286.783V313.76V332.989L348.074 352.698C348.074 357.005 352.086 360.496 357.034 360.496H359.124C364.072 360.496 368.085 357.005 368.085 352.698V323.385C368.085 321.495 368.55 319.636 369.437 317.988C370.325 316.338 370.79 314.48 370.79 312.59V308.558C370.79 306.394 370.536 304.238 370.032 302.137L370.014 302.061C369.497 299.912 369.237 297.704 369.237 295.486V284.035C369.237 283.6 369.2 283.167 369.128 282.74C368.524 279.168 365.545 276.564 362.064 276.564Z" fill="#D09D75"/>
<path d="M360.496 204.698H351.707C348.515 204.698 345.927 207.394 345.927 210.719L341.629 244.495V258.739C341.629 260.587 341.776 262.433 342.071 264.256L343.029 270.2C343.58 273.613 344.708 276.896 346.361 279.897L349.163 284.987C349.764 286.08 350.08 287.317 350.08 288.575C350.08 292.557 353.18 295.785 357.003 295.785H361.784C365.88 295.785 369.201 292.325 369.201 288.06C369.201 287.13 369.361 286.209 369.675 285.339L370.681 282.555C371.115 281.355 371.456 280.12 371.701 278.864L373.228 271.02L374.698 261.021C374.942 259.355 375.066 257.671 375.066 255.986V219.873C375.066 211.493 368.543 204.698 360.496 204.698Z" fill="#D09D75"/>
<path d="M361.43 344.389H353.016C348.165 344.389 344.231 347.994 344.231 352.441C344.231 356.889 348.165 360.495 353.016 360.495H361.43C366.283 360.495 370.215 356.889 370.215 352.441C370.215 347.994 366.283 344.389 361.43 344.389Z" fill="#D09D75"/>
<path d="M367.306 347.703H347.14C345.533 347.703 344.231 349.435 344.231 351.57V356.628C344.231 358.764 345.533 360.494 347.14 360.494H367.306C368.913 360.494 370.215 358.764 370.215 356.628V351.57C370.215 349.435 368.913 347.703 367.306 347.703Z" fill="#D09D75"/>
<path d="M377.041 113.078C378.329 113.078 379.612 113.156 380.884 113.308C396.226 115.141 409.899 127.694 409.899 143.005L407.491 159.397L402.792 187.616C402.792 204.196 393.865 206.642 377.041 206.642C360.217 206.642 352.341 204.196 352.341 187.616L346.672 159.397V143.005C346.672 126.425 360.217 113.078 377.041 113.078Z" fill="#D09D75"/>
<path d="M376.996 180.196H378.033C395.2 180.196 400.772 170.947 403.59 183.483L409.021 208.639C411.835 221.164 395.2 231.558 378.033 231.558H376.996C359.829 231.558 343.194 221.164 346.008 208.639L352.011 183.483C354.829 170.947 359.829 180.196 376.996 180.196Z" fill="#D09D75"/>
<path d="M376.961 168.849C389.333 168.849 399.296 182.799 399.296 200.126H354.626C354.626 182.799 364.587 168.849 376.961 168.849Z" fill="#D09D75"/>
<path d="M338.299 130.229C333.056 129.173 326.743 131.387 325.588 137.608L322.001 148.843C320.897 152.302 320.493 155.964 320.816 159.595L321.782 170.486C322.002 172.971 321.735 175.475 321.767 177.97C321.825 182.34 323.738 185.545 327.874 186.378C332.391 187.289 335.391 184.946 336.873 180.303C337.377 178.728 337.77 177.11 338.361 175.567L341.044 168.563C342.52 164.711 343.103 160.55 342.746 156.418L342.192 150.012C342.048 148.345 342.065 146.67 342.137 144.998C342.335 140.402 342.245 131.024 338.299 130.229Z" fill="#D09D75"/>
<path d="M330.091 165.786L330.024 165.784C325.726 165.646 321.999 170.616 321.699 176.884L319.448 223.953C319.148 230.222 322.388 235.415 326.687 235.554L326.753 235.556C331.052 235.694 334.778 230.724 335.078 224.455L337.33 177.386C337.63 171.117 334.389 165.924 330.091 165.786Z" fill="#D09D75"/>
<path d="M329.994 214.283L327.293 214.267C322.116 214.238 317.676 220.089 317.375 227.335L317.107 233.773C316.805 241.019 320.757 246.917 325.933 246.945L328.634 246.961C333.81 246.989 338.25 241.139 338.552 233.892L338.821 227.455C339.122 220.208 335.17 214.311 329.994 214.283Z" fill="#D09D75"/>
<path d="M330.662 232.593C329.536 227.984 325.566 225.651 321.794 227.381C318.023 229.11 315.878 234.249 317.004 238.857L320.08 251.443C321.206 256.051 325.176 258.384 328.948 256.654C332.72 254.925 334.864 249.787 333.738 245.178L330.662 232.593Z" fill="#D09D75"/>
<path d="M339.491 230.133C339.618 226.92 337.889 224.305 335.629 224.29C333.369 224.275 331.434 226.868 331.306 230.081L330.959 238.854C330.831 242.067 332.561 244.683 334.821 244.698C337.081 244.711 339.016 242.119 339.144 238.907L339.491 230.133Z" fill="#C68858"/>
<path d="M416.042 130.229C421.286 129.173 427.599 131.387 428.754 137.608L432.34 148.842C433.445 152.302 433.849 155.964 433.527 159.595L432.56 170.486C432.339 172.97 432.607 175.475 432.574 177.97C432.516 182.34 430.603 185.545 426.467 186.378C421.951 187.289 418.951 184.946 417.468 180.303C416.964 178.727 416.572 177.109 415.981 175.567L413.297 168.563C411.821 164.711 411.238 160.55 411.595 156.418L412.149 150.012C412.293 148.344 412.277 146.67 412.205 144.998C412.007 140.402 412.097 131.024 416.042 130.229Z" fill="#D09D75"/>
<path d="M424.252 165.786L424.32 165.784C428.617 165.646 432.344 170.616 432.644 176.884L434.896 223.953C435.195 230.222 431.955 235.415 427.656 235.554L427.59 235.556C423.292 235.694 419.565 230.724 419.265 224.455L417.013 177.386C416.713 171.117 419.955 165.924 424.252 165.786Z" fill="#D09D75"/>
<path d="M424.347 214.283L427.048 214.267C432.224 214.239 436.665 220.09 436.966 227.336L437.235 233.774C437.536 241.02 433.584 246.917 428.408 246.946L425.707 246.961C420.531 246.99 416.091 241.139 415.789 233.893L415.521 227.455C415.219 220.209 419.171 214.312 424.347 214.283Z" fill="#D09D75"/>
<path d="M423.68 232.593C424.806 227.985 428.777 225.651 432.548 227.381C436.321 229.111 438.465 234.249 437.339 238.857L434.263 251.443C433.137 256.051 429.166 258.384 425.395 256.655C421.624 254.925 419.479 249.787 420.604 245.179L423.68 232.593Z" fill="#D09D75"/>
<path d="M414.849 230.132C414.723 226.92 416.451 224.305 418.712 224.29C420.972 224.275 422.908 226.868 423.034 230.081L423.382 238.854C423.509 242.066 421.78 244.683 419.52 244.698C417.26 244.711 415.325 242.119 415.197 238.907L414.849 230.132Z" fill="#C68858"/>
<path d="M338.097 122.312H416.392C424.151 122.312 430.398 128.375 430.398 135.907C430.398 143.439 424.151 149.502 416.392 149.502H338.097C330.337 149.502 324.091 143.439 324.091 135.907C324.091 128.375 330.337 122.312 338.097 122.312Z" fill="#906253"/>
<path d="M364.967 120.698H389.381C403.024 120.698 414.005 131.138 414.005 144.107C414.005 157.074 403.024 167.514 389.381 167.514H364.967C351.326 167.514 340.344 157.074 340.344 144.107C340.344 131.138 351.326 120.698 364.967 120.698Z" fill="#D09D75"/>
<path d="M377.82 149.502C380.996 149.502 383.554 152.167 383.554 155.475V161.015C383.554 164.325 380.996 166.988 377.82 166.988C374.642 166.988 372.085 164.325 372.085 161.015V155.475C372.085 152.167 374.642 149.502 377.82 149.502Z" fill="#815848" fill-opacity="0.99"/>
<path d="M363.338 143.234C361.821 143.234 360.415 143.643 359.243 144.345C355.349 144.573 351.698 146.103 349.031 148.625C346.364 151.146 344.88 154.47 344.88 157.925C344.88 161.534 346.5 164.997 349.385 167.549C352.268 170.101 356.181 171.535 360.26 171.535C363.975 171.531 367.563 170.337 370.362 168.173C373.159 166.01 374.978 163.023 375.481 159.764C375.584 159.318 375.64 158.854 375.64 158.379V149.921C375.64 146.216 372.335 143.234 368.23 143.234H363.338ZM386.118 143.234C382.014 143.234 378.709 146.216 378.709 149.921V158.379C378.709 158.854 378.765 159.318 378.868 159.764C379.371 163.023 381.189 166.01 383.987 168.173C386.784 170.337 390.373 171.531 394.089 171.535C398.168 171.535 402.079 170.101 404.964 167.549C407.848 164.997 409.469 161.534 409.469 157.925C409.468 154.47 407.984 151.146 405.317 148.625C402.65 146.103 399 144.573 395.106 144.345C393.934 143.643 392.527 143.234 391.01 143.234H386.118Z" fill="#9D6B5A"/>
<path d="M349.117 150.578C347.36 149.913 345.453 153.881 343.812 154.534C343.666 155.38 343.589 156.235 343.582 157.093C343.583 165.864 350.744 172.973 359.577 172.973C364.043 172.962 368.302 171.097 371.321 167.829C371.162 159.874 364.294 156.314 356.897 153.518L349.117 150.578ZM396.999 153.518C389.752 156.258 382.987 159.619 382.586 167.346C385.616 170.904 390.065 172.961 394.758 172.973C403.591 172.973 410.752 165.864 410.752 157.093C410.745 156.302 410.679 155.513 410.553 154.731C408.786 153.952 406.704 149.848 404.777 150.578L396.999 153.518Z" fill="#444444"/>
<path d="M370.903 164.579H384.09C384.895 164.579 385.542 165.233 385.542 166.048C385.542 166.862 384.895 167.516 384.09 167.516H370.903C370.099 167.516 369.451 166.862 369.451 166.048C369.451 165.233 370.099 164.579 370.903 164.579Z" fill="#444444"/>
<path d="M404.856 150.494C404.735 150.503 404.616 150.53 404.496 150.575L396.798 153.484C390.72 155.78 384.987 158.519 383.135 163.951C386.106 167.058 390.238 168.838 394.58 168.849C402.628 168.849 409.269 162.889 410.275 155.175C410.254 155.012 410.24 154.846 410.214 154.684C408.575 153.961 406.661 150.349 404.856 150.494ZM349.077 150.504C347.431 150.397 345.676 153.883 344.153 154.489C344.116 154.703 344.085 154.916 344.057 155.13C345.043 162.866 351.693 168.849 359.757 168.849C363.926 168.838 367.91 167.197 370.858 164.3C369.116 158.704 363.298 155.823 357.104 153.484L349.405 150.575C349.296 150.534 349.187 150.512 349.077 150.504Z" fill="#4F4F4F"/>
<path d="M372.276 174.029H368.457C366.712 174.029 365.299 175.112 365.299 176.449V179.252C365.299 180.589 366.712 181.673 368.457 181.673H372.276C374.02 181.673 375.434 180.589 375.434 179.252V176.449C375.434 175.112 374.02 174.029 372.276 174.029Z" fill="#C68858"/>
<path d="M372.276 182.496H366.459C364.714 182.496 363.301 183.58 363.301 184.917V187.719C363.301 189.056 364.714 190.14 366.459 190.14H372.276C374.021 190.14 375.434 189.056 375.434 187.719V184.917C375.434 183.58 374.021 182.496 372.276 182.496Z" fill="#C68858"/>
<path d="M372.276 190.786H366.459C364.714 190.786 363.301 191.869 363.301 193.206V196.009C363.301 197.346 364.714 198.43 366.459 198.43H372.276C374.021 198.43 375.434 197.346 375.434 196.009V193.206C375.434 191.869 374.021 190.786 372.276 190.786Z" fill="#C68858"/>
<path d="M381.622 174.029H385.441C387.185 174.029 388.599 175.112 388.599 176.449V179.252C388.599 180.589 387.185 181.673 385.441 181.673H381.622C379.877 181.673 378.464 180.589 378.464 179.252V176.449C378.464 175.112 379.877 174.029 381.622 174.029Z" fill="#C68858"/>
<path d="M381.619 182.496H387.437C389.181 182.496 390.595 183.58 390.595 184.917V187.719C390.595 189.056 389.181 190.14 387.437 190.14H381.619C379.875 190.14 378.461 189.056 378.461 187.719V184.917C378.461 183.58 379.875 182.496 381.619 182.496Z" fill="#C68858"/>
<path d="M381.619 190.786H387.437C389.181 190.786 390.595 191.869 390.595 193.206V196.009C390.595 197.346 389.181 198.43 387.437 198.43H381.619C379.875 198.43 378.461 197.346 378.461 196.009V193.206C378.461 191.869 379.875 190.786 381.619 190.786Z" fill="#C68858"/>
<path d="M347.868 200.78C349.506 224.771 362.083 243.34 377.171 243.34C392.457 243.34 405.93 225.223 407.307 200.78H347.868Z" fill="#4F4F4F"/>
<path d="M407.332 200.776L378.203 205.482L377.958 243.24L380.692 259.787H414.073C414.278 229.176 413.936 218.835 407.332 200.776Z" fill="#4B4B4B"/>
<path d="M347.883 200.742L377.701 205.465V243.237L374.92 259.784H341.616C341.404 229.07 341.086 218.861 347.883 200.742Z" fill="#4B4B4B"/>
<path d="M393.077 142.455H363.366C355.846 142.455 339.438 131.944 339.438 142.455L341.947 151.94C341.947 165.613 343.76 172.956 356.054 172.956H398.156C409.091 172.956 411.774 167.401 411.774 153.925L416.47 142.996C416.47 132.484 400.598 142.455 393.077 142.455Z" fill="#1874A3"/>
<path d="M338.173 122.293C329.106 122.293 324.039 129.884 324.039 135.679C324.039 145.44 328.231 149.46 340.597 149.46H413.35C426.03 149.46 430.675 146.731 430.675 135.69C430.675 129.894 425.264 122.293 416.34 122.293H401.662C401.343 128.696 395.744 133.784 384.815 133.784H371.505C358.69 133.784 353.139 128.696 352.821 122.293H338.173Z" fill="#1874A3"/>
<path d="M401.051 122.294C400.844 122.291 400.642 122.343 400.492 122.439C400.341 122.535 400.251 122.668 400.246 122.808C399.872 128.631 392.83 133.231 384.107 133.231H370.484C361.762 133.231 354.72 128.631 354.347 122.808C354.342 122.738 354.317 122.67 354.275 122.606C354.231 122.544 354.169 122.487 354.093 122.44C354.017 122.393 353.929 122.357 353.833 122.333C353.736 122.309 353.633 122.298 353.53 122.301C353.428 122.305 353.326 122.322 353.233 122.351C353.14 122.381 353.056 122.422 352.987 122.474C352.918 122.524 352.863 122.584 352.828 122.65C352.793 122.715 352.777 122.784 352.782 122.853C353.192 129.228 360.945 134.288 370.484 134.288H384.107C393.648 134.288 401.401 129.228 401.811 122.853C401.817 122.783 401.802 122.712 401.766 122.646C401.732 122.579 401.677 122.518 401.606 122.466C401.535 122.413 401.449 122.372 401.354 122.343C401.259 122.313 401.155 122.296 401.051 122.294Z" fill="#1D8EC8"/>
<path d="M347.868 200.781C349.506 224.771 362.083 243.34 377.171 243.34C392.457 243.34 405.93 225.223 407.307 200.781H347.868Z" fill="#4F4F4F"/>
<path d="M407.332 200.776L378.203 205.482L377.958 243.24L380.692 259.787H414.073C414.278 229.176 413.936 218.835 407.332 200.776Z" fill="#4B4B4B"/>
<path d="M347.883 200.742L377.701 205.465V243.237L374.92 259.784H341.616C341.404 229.07 341.086 218.861 347.883 200.742Z" fill="#4B4B4B"/>
<path d="M367.28 327.289H349.486C348.541 327.289 347.774 328.254 347.774 329.445V348.343C347.774 349.534 348.541 350.499 349.486 350.499H367.28C368.225 350.499 368.993 349.534 368.993 348.343V329.445C368.993 328.254 368.225 327.289 367.28 327.289Z" fill="white"/>
<path d="M360.094 333.944H354.46C353.121 333.944 352.036 335.311 352.036 336.996V339.735C352.036 341.422 353.121 342.788 354.46 342.788H360.094C361.433 342.788 362.518 341.422 362.518 339.735V336.996C362.518 335.311 361.433 333.944 360.094 333.944Z" fill="#4B4B4B"/>
<path d="M361.628 338.647H353.322C348.532 338.647 344.648 343.536 344.648 349.57C344.648 355.602 348.532 360.492 353.322 360.492H361.628C366.418 360.492 370.3 355.602 370.3 349.57C370.3 343.536 366.418 338.647 361.628 338.647Z" fill="#4F4F4F"/>
<path d="M367.929 348.569H347.218C345.568 348.569 344.23 350.189 344.23 352.186V356.916C344.23 358.915 345.568 360.535 347.218 360.535H367.929C369.579 360.535 370.917 358.915 370.917 356.916V352.186C370.917 350.189 369.579 348.569 367.929 348.569Z" fill="#4F4F4F"/>
<path d="M369.22 355.958H345.73C345.132 355.958 344.648 356.567 344.648 357.318V359.098C344.648 359.849 345.132 360.459 345.73 360.459H369.22C369.817 360.459 370.3 359.849 370.3 359.098V357.318C370.3 356.567 369.817 355.958 369.22 355.958Z" fill="white"/>
<path d="M360.685 339.196H354.098C353.755 339.196 353.477 339.546 353.477 339.979C353.477 340.41 353.755 340.761 354.098 340.761H360.685C361.027 340.761 361.306 340.41 361.306 339.979C361.306 339.546 361.027 339.196 360.685 339.196Z" fill="white"/>
<path d="M362.922 344.234H359.758C358.642 344.234 357.736 345.372 357.736 346.779C357.736 348.185 358.642 349.325 359.758 349.325H362.922C364.039 349.325 364.942 348.185 364.942 346.779C364.942 345.372 364.039 344.234 362.922 344.234Z" fill="#585858"/>
<path d="M360.685 341.7H354.098C353.755 341.7 353.477 342.05 353.477 342.482C353.477 342.914 353.755 343.264 354.098 343.264H360.685C361.027 343.264 361.306 342.914 361.306 342.482C361.306 342.05 361.027 341.7 360.685 341.7Z" fill="white"/>
<path d="M406.034 327.288H387.221C386.222 327.288 385.41 328.254 385.41 329.445V348.341C385.41 349.533 386.222 350.499 387.221 350.499H406.034C407.034 350.499 407.844 349.533 407.844 348.341V329.445C407.844 328.254 407.034 327.288 406.034 327.288Z" fill="white"/>
<path d="M400.717 333.975H395.154C393.832 333.975 392.761 335.343 392.761 337.027V339.767C392.761 341.452 393.832 342.819 395.154 342.819H400.717C402.038 342.819 403.11 341.452 403.11 339.767V337.027C403.11 335.343 402.038 333.975 400.717 333.975Z" fill="#4B4B4B"/>
<path d="M402.174 338.647H393.974C389.244 338.647 385.41 343.536 385.41 349.57C385.41 355.602 389.244 360.492 393.974 360.492H402.174C406.903 360.492 411.082 355.689 411.082 349.656C411.082 343.623 406.903 338.647 402.174 338.647Z" fill="#4F4F4F"/>
<path d="M408.452 348.57H388.004C386.376 348.57 385.055 350.19 385.055 352.187V356.917C385.055 358.916 386.376 360.536 388.004 360.536H408.452C410.081 360.536 411.401 358.916 411.401 356.917V352.187C411.401 350.19 410.081 348.57 408.452 348.57Z" fill="#4F4F4F"/>
<path d="M409.67 355.958H386.478C385.889 355.958 385.41 356.567 385.41 357.318V359.098C385.41 359.849 385.889 360.459 386.478 360.459H409.67C410.259 360.459 410.736 359.849 410.736 359.098V357.318C410.736 356.567 410.259 355.958 409.67 355.958Z" fill="white"/>
<path d="M401.499 339.196H394.995C394.656 339.196 394.382 339.546 394.382 339.979C394.382 340.41 394.656 340.761 394.995 340.761H401.499C401.837 340.761 402.113 340.41 402.113 339.979C402.113 339.546 401.837 339.196 401.499 339.196Z" fill="white"/>
<path d="M404.463 344.264H401.34C400.238 344.264 399.345 345.404 399.345 346.81C399.345 348.215 400.238 349.355 401.34 349.355H404.463C405.566 349.355 406.459 348.215 406.459 346.81C406.459 345.404 405.566 344.264 404.463 344.264Z" fill="#585858"/>
<path d="M401.499 341.73H394.995C394.656 341.73 394.382 342.081 394.382 342.512C394.382 342.944 394.656 343.295 394.995 343.295H401.499C401.837 343.295 402.113 342.944 402.113 342.512C402.113 342.081 401.837 341.73 401.499 341.73Z" fill="white"/>
<rect x="221.181" y="312.361" width="310.407" height="9.06471" rx="4.53236" fill="black"/>
<rect x="501.112" y="352.443" width="71.0985" height="9.11874" rx="4.55937" transform="rotate(-90 501.112 352.443)" fill="black"/>
<rect x="489.25" y="352.443" width="71.0985" height="9.11874" rx="4.55937" transform="rotate(-90 489.25 352.443)" fill="black"/>
<rect x="477.388" y="352.443" width="71.0985" height="9.11874" rx="4.55937" transform="rotate(-90 477.388 352.443)" fill="black"/>
<rect x="271.895" y="352.443" width="71.0985" height="9.11874" rx="4.55937" transform="rotate(-90 271.895 352.443)" fill="black"/>
<rect x="260.032" y="352.443" width="71.0985" height="9.11874" rx="4.55937" transform="rotate(-90 260.032 352.443)" fill="black"/>
<rect x="248.17" y="352.443" width="71.0985" height="9.11874" rx="4.55937" transform="rotate(-90 248.17 352.443)" fill="black"/>
<path d="M22.3198 168.495L22.2572 168.526C18.2565 170.519 16.3602 175.262 18.0217 179.119L23.2657 193.21L30.498 208.081C32.1596 211.938 36.7497 213.449 40.7505 211.456L40.813 211.425C44.8138 209.432 49.3501 203.889 47.6885 200.032L35.2123 171.07C33.5507 167.213 26.3205 166.502 22.3198 168.495Z" fill="#D09D75"/>
<path d="M120.413 152.085C120.413 132.557 102.427 132.009 84.5865 132.009C66.7471 132.009 50.8633 132.557 50.8633 152.085L52.5532 194.124H117.206L120.413 152.085Z" fill="#1874A3"/>
<path d="M131.627 131.849C131.627 112.345 107.246 131.849 81.28 131.849C55.3132 131.849 37.5928 112.345 37.5928 131.849C37.5928 151.353 58.6427 167.164 84.6106 167.164C110.576 167.164 131.627 151.353 131.627 131.849Z" fill="#1874A3"/>
<path d="M114.467 128.787L59.1926 130.937C46.6506 130.937 37.5928 114.876 37.5928 125.571V137.24C37.5928 147.932 47.7604 156.602 60.3024 156.602H108.917C121.46 156.602 131.627 147.932 131.627 137.24V125.571C131.627 114.876 127.01 128.787 114.467 128.787Z" fill="#1874A3"/>
<path d="M112.481 133.304H56.1684C45.9093 133.304 37.5928 113.692 37.5928 124.69V136.691C37.5928 147.686 45.9093 156.602 56.1684 156.602H113.597C123.856 156.602 132.173 147.686 132.173 136.691V124.69C132.173 113.692 122.74 133.304 112.481 133.304Z" fill="#1874A3"/>
<path d="M39.7622 106.211C30.1055 106.211 22.3301 113.859 22.3301 123.359C22.3301 132.859 30.1055 140.508 39.7622 140.508H128.694C138.351 140.508 146.125 132.859 146.125 123.359C146.125 113.859 138.351 106.211 128.694 106.211H117.848C117.474 116.706 102.586 125.046 91.8238 125.046H75.8533C65.0912 125.046 51.9458 116.706 51.5729 106.211H39.7622Z" fill="#1874A3"/>
<path d="M117.607 105.307C117.323 105.299 117.048 105.387 116.843 105.55C116.635 105.713 116.515 105.937 116.506 106.174C115.995 116.018 106.372 123.797 94.4512 123.797H75.8324C63.9104 123.797 54.2871 116.018 53.7762 106.174C53.7695 106.057 53.7361 105.941 53.6782 105.834C53.6181 105.729 53.5346 105.632 53.43 105.552C53.3265 105.474 53.2051 105.412 53.0738 105.372C52.9413 105.331 52.8011 105.313 52.6597 105.318C52.5205 105.324 52.3825 105.352 52.2545 105.401C52.1265 105.452 52.0118 105.521 51.9172 105.609C51.8237 105.695 51.7491 105.796 51.7012 105.907C51.6534 106.017 51.6322 106.134 51.6389 106.251C52.1966 117.029 62.7939 125.585 75.8324 125.585H94.4512C107.49 125.585 118.086 117.029 118.645 106.251C118.654 106.131 118.632 106.013 118.585 105.901C118.537 105.788 118.462 105.683 118.365 105.596C118.268 105.507 118.152 105.437 118.02 105.387C117.89 105.337 117.75 105.31 117.607 105.307Z" fill="#1D8EC8"/>
<rect x="5.90918" y="192.947" width="74.7436" height="10.0144" rx="5.00722" fill="black"/>
<rect x="22.3311" y="219.239" width="42.5685" height="5.45963" rx="2.72982" transform="rotate(-90 22.3311 219.239)" fill="black"/>
<rect x="15.2266" y="219.239" width="42.5685" height="5.45963" rx="2.72982" transform="rotate(-90 15.2266 219.239)" fill="black"/>
<rect x="8.125" y="219.239" width="42.5685" height="5.45963" rx="2.72982" transform="rotate(-90 8.125 219.239)" fill="black"/>
<rect x="70.6738" y="219.239" width="42.5685" height="5.45963" rx="2.72982" transform="rotate(-90 70.6738 219.239)" fill="black"/>
<rect x="63.5693" y="219.239" width="42.5685" height="5.45963" rx="2.72982" transform="rotate(-90 63.5693 219.239)" fill="black"/>
<rect x="56.4678" y="219.239" width="42.5685" height="5.45963" rx="2.72982" transform="rotate(-90 56.4678 219.239)" fill="black"/>
<path d="M48.6945 205.066C49.5973 209.125 46.273 212.752 41.2696 213.165C36.2661 213.579 31.4781 210.623 30.5753 206.564L28.1095 195.476C27.2699 191.701 37.8193 189.301 43.3243 188.651C44.0614 188.564 44.8324 188.77 45.4769 189.193C47.1651 190.3 48.2182 192.037 48.2835 193.822L48.6945 205.066Z" fill="#D09D75"/>
<path d="M53.0673 203.701C52.5143 206.068 50.5845 207.52 48.7571 206.943C46.9297 206.367 45.8966 203.98 46.4496 201.612L47.9602 195.145C48.5132 192.778 50.443 191.326 52.2704 191.903C54.0978 192.479 55.1309 194.866 54.5779 197.234L53.0673 203.701Z" fill="#D09D75"/>
<path d="M375.288 20.129C377.348 19.4392 379.577 19.4392 381.637 20.129L386.005 21.5915C386.956 21.91 387.949 22.0835 388.952 22.1063L393.589 22.2117C395.889 22.264 398.1 23.1078 399.85 24.6007L402.555 26.9078C403.406 27.634 404.373 28.2122 405.416 28.6182L408.732 29.9093C411.206 30.8725 413.196 32.7803 414.261 35.2119L415.05 37.0109C415.581 38.2217 416.346 39.3152 417.303 40.2281L418.641 41.5056C420.855 43.6194 421.978 46.631 421.69 49.6784L421.614 50.4829C421.474 51.9547 421.663 53.4392 422.167 54.8292L422.425 55.5429C423.505 58.5258 423.106 61.8443 421.348 64.4855L420.718 65.4325C419.932 66.6141 419.406 67.9495 419.176 69.35L418.973 70.5867C418.508 73.4205 416.846 75.9173 414.411 77.4408L412.106 78.8833C411.076 79.5276 410.173 80.3542 409.439 81.3226L407.762 83.5378C406.28 85.4949 404.129 86.8383 401.721 87.3119L397.574 88.1271C396.547 88.329 395.558 88.6911 394.643 89.2L390.983 91.2356C389.057 92.3073 386.83 92.7121 384.65 92.387L379.936 91.6844C378.959 91.5387 377.966 91.5387 376.988 91.6844L372.275 92.387C370.095 92.7121 367.868 92.3073 365.941 91.2356L362.282 89.2C361.367 88.6911 360.378 88.329 359.351 88.1271L355.204 87.3119C352.795 86.8383 350.645 85.4949 349.163 83.5378L347.485 81.3226C346.752 80.3542 345.848 79.5276 344.819 78.8833L342.514 77.4408C340.079 75.9173 338.417 73.4206 337.952 70.5867L337.748 69.35C337.518 67.9495 336.993 66.6141 336.207 65.4325L335.576 64.4855C333.819 61.8443 333.419 58.5258 334.5 55.5429L334.758 54.8292C335.262 53.4392 335.45 51.9547 335.311 50.4829L335.235 49.6784C334.947 46.631 336.07 43.6194 338.284 41.5056L339.622 40.2281C340.578 39.3152 341.344 38.2217 341.875 37.0109L342.663 35.2119C343.729 32.7803 345.719 30.8725 348.193 29.9093L351.509 28.6182C352.552 28.2122 353.519 27.634 354.37 26.9078L357.074 24.6007C358.825 23.1078 361.036 22.264 363.336 22.2117L367.973 22.1063C368.976 22.0835 369.969 21.91 370.92 21.5915L375.288 20.129Z" fill="#815848" fill-opacity="0.99"/>
<path d="M377.194 81.1431C385.838 81.1431 392.798 91.5543 392.798 104.488V114.065C392.798 126.999 385.838 137.411 377.194 137.411C368.549 137.411 361.59 126.999 361.59 114.065V104.488C361.59 91.5543 368.549 81.1431 377.194 81.1431Z" fill="#D09D75"/>
<path d="M374.843 82.8918H379.544C384.956 82.8918 389.313 88.9476 389.313 96.4702V102.04C389.313 109.563 384.956 115.619 379.544 115.619H374.843C369.43 115.619 365.073 109.563 365.073 102.04V96.4702C365.073 88.9476 369.43 82.8918 374.843 82.8918Z" fill="#CC9B75"/>
<path d="M359.967 121.974C358.97 121.974 358.167 122.772 358.167 123.763C358.167 124.754 358.97 125.551 359.967 125.551H369.972L372.843 127.632C373.651 128.218 374.776 128.042 375.365 127.239C375.954 126.436 375.778 125.319 374.97 124.733L371.996 122.578C371.965 122.556 371.931 122.543 371.9 122.523C371.574 122.185 371.116 121.974 370.605 121.974H359.967ZM383.365 121.974C382.855 121.974 382.397 122.185 382.071 122.523C382.039 122.543 382.005 122.556 381.975 122.578L379.001 124.733C378.193 125.319 378.017 126.436 378.606 127.239C379.195 128.042 380.32 128.218 381.126 127.632L383.999 125.551H394.004C395.001 125.551 395.804 124.754 395.804 123.763C395.804 122.772 395.001 121.974 394.004 121.974H383.365Z" fill="#C68858"/>
<path d="M353.29 70.1675H402.074C407.669 70.1675 412.173 74.6454 412.173 80.2072C412.173 85.769 407.669 90.2459 402.074 90.2459H353.29C347.695 90.2459 343.191 85.769 343.191 80.2072C343.191 74.6454 347.695 70.1675 353.29 70.1675Z" fill="#D09D75"/>
<path d="M353.646 72.7207H401.719C405.891 72.7207 409.25 76.0599 409.25 80.2075C409.25 84.3551 405.891 87.6943 401.719 87.6943H353.646C349.473 87.6943 346.114 84.3551 346.114 80.2075C346.114 76.0599 349.473 72.7207 353.646 72.7207Z" fill="#C68858"/>
<path d="M372.2 41.9502H383.166C392.281 41.9502 406.696 54.7423 406.696 67.3223V85.1717C406.696 97.7517 393.185 111.52 383.506 111.52H371.862C362.183 111.52 348.672 97.7517 348.672 85.1717V67.3223C348.672 54.7423 363.086 41.9502 372.2 41.9502Z" fill="#D09D75"/>
<path d="M375.214 104.743H378.372C378.626 104.743 378.829 104.92 378.829 105.139V105.374C378.829 105.593 378.626 105.771 378.372 105.771H375.214C374.961 105.771 374.757 105.593 374.757 105.374V105.139C374.757 104.92 374.961 104.743 375.214 104.743Z" fill="#CC9B75"/>
<path d="M377.677 76.478C379.612 76.478 381.17 78.116 381.17 80.1496V86.6307C381.17 88.6644 379.612 90.3023 377.677 90.3023C375.741 90.3023 374.183 88.6644 374.183 86.6307V80.1496C374.183 78.116 375.741 76.478 377.677 76.478Z" fill="#C68858"/>
<path d="M383.502 86.1377C383.502 87.7588 382.121 89.0622 380.408 89.0622H374.951C373.237 89.0622 371.858 87.7588 371.858 86.1377C371.858 84.5177 373.237 83.2144 374.951 83.2144H380.408C382.121 83.2144 383.502 84.5177 383.502 86.1377Z" fill="#C68858"/>
<path d="M368.874 93.2759C368.468 93.2759 368.079 93.4057 367.793 93.6358C367.505 93.8658 367.345 94.1793 367.345 94.5054V95.4309C367.345 97.2578 367.999 98.9316 369.155 100.208C370.312 101.485 372.062 102.388 374.063 102.388H381.162C383.163 102.388 384.914 101.485 386.07 100.208C387.227 98.9316 387.881 97.2578 387.881 95.4309V94.5054C387.881 94.1793 387.72 93.8658 387.433 93.6358C387.147 93.4057 386.757 93.2759 386.352 93.2759H368.874Z" fill="white"/>
<path d="M360.439 68.5234L370.267 69.3202C371.336 69.4067 372.126 70.3323 372.039 71.394C371.952 72.4567 371.021 73.2419 369.953 73.1554L360.124 72.3586C359.056 72.272 358.265 71.3475 358.352 70.2848C358.439 69.222 359.37 68.4368 360.439 68.5234Z" fill="#4D4D4D"/>
<path d="M357.111 70.2548L359.045 68.9789C359.829 68.4617 360.878 68.6728 361.399 69.4517C361.919 70.2316 361.707 71.2753 360.924 71.7925L358.989 73.0684C358.206 73.5855 357.156 73.3745 356.636 72.5956C356.115 71.8157 356.327 70.7719 357.111 70.2548Z" fill="#4D4D4D"/>
<path d="M394.924 68.5234L385.096 69.3202C384.027 69.4067 383.237 70.3323 383.324 71.394C383.411 72.4567 384.342 73.2419 385.41 73.1554L395.239 72.3586C396.307 72.272 397.098 71.3475 397.011 70.2848C396.923 69.222 395.993 68.4368 394.924 68.5234Z" fill="#4D4D4D"/>
<path d="M398.249 70.2548L396.315 68.9789C395.531 68.4617 394.481 68.6728 393.961 69.4517C393.44 70.2316 393.653 71.2753 394.436 71.7925L396.371 73.0684C397.154 73.5855 398.204 73.3745 398.724 72.5956C399.244 71.8157 399.033 70.7719 398.249 70.2548Z" fill="#4D4D4D"/>
<path d="M360.439 68.5234L370.267 69.3202C371.336 69.4067 372.126 70.3323 372.039 71.394C371.952 72.4567 371.021 73.2419 369.953 73.1554L360.124 72.3586C359.056 72.272 358.265 71.3475 358.352 70.2848C358.439 69.222 359.37 68.4368 360.439 68.5234Z" fill="#4D4D4D"/>
<path d="M394.924 68.5234L385.096 69.3202C384.027 69.4067 383.237 70.3323 383.324 71.394C383.411 72.4567 384.342 73.2419 385.41 73.1554L395.239 72.3586C396.307 72.272 397.098 71.3475 397.011 70.2848C396.923 69.222 395.993 68.4368 394.924 68.5234Z" fill="#4D4D4D"/>
<path d="M363.697 75.7532H364.983C366.151 75.7532 367.09 76.6882 367.09 77.8481V80.7978C367.09 81.9577 366.151 82.8917 364.983 82.8917H363.697C362.529 82.8917 361.59 81.9577 361.59 80.7978V77.8481C361.59 76.6882 362.529 75.7532 363.697 75.7532Z" fill="#61534B"/>
<path d="M388.934 75.7532H387.648C386.481 75.7532 385.541 76.6882 385.541 77.8481V80.7978C385.541 81.9577 386.481 82.8917 387.648 82.8917H388.934C390.102 82.8917 391.041 81.9577 391.041 80.7978V77.8481C391.041 76.6882 390.102 75.7532 388.934 75.7532Z" fill="#61534B"/>
<path fill-rule="evenodd" clip-rule="evenodd" d="M380.749 53.2132C378.73 52.4013 376.475 52.4013 374.455 53.2132L372.589 53.9631C371.267 54.4944 369.833 54.6824 368.419 54.5097L365.44 54.1457C363.272 53.8809 361.101 54.6056 359.527 56.1191C358.365 57.2364 356.864 57.9352 355.261 58.1054L351.817 58.4709C350.224 58.6401 348.937 59.8496 348.67 61.43L348.67 61.4321V41.9503H406.695V62.3845L406.534 61.43C406.267 59.8496 404.981 58.6401 403.387 58.4709L399.944 58.1054C398.341 57.9352 396.84 57.2364 395.678 56.1191C394.104 54.6056 391.932 53.8809 389.764 54.1457L386.786 54.5097C385.371 54.6824 383.937 54.4944 382.615 53.9631L380.749 53.2132Z" fill="#815848" fill-opacity="0.99"/>
</g>
<path d="M76.7356 325.968H59.4422C58.5235 325.968 57.7783 326.944 57.7783 328.15V347.272C57.7783 348.478 58.5235 349.454 59.4422 349.454H76.7356C77.6543 349.454 78.4006 348.478 78.4006 347.272V328.15C78.4006 326.944 77.6543 325.968 76.7356 325.968Z" fill="white"/>
<path d="M69.2304 332.702H63.5631C62.2167 332.702 61.125 334.085 61.125 335.791V338.562C61.125 340.269 62.2167 341.652 63.5631 341.652H69.2304C70.5778 341.652 71.6685 340.269 71.6685 338.562V335.791C71.6685 334.085 70.5778 332.702 69.2304 332.702Z" fill="#4B4B4B"/>
<path d="M71.3298 337.461H62.4467C57.325 337.461 53.1719 342.409 53.1719 348.514C53.1719 354.618 57.325 359.566 62.4467 359.566H71.3298C76.4516 359.566 80.6035 354.618 80.6035 348.514C80.6035 342.409 76.4516 337.461 71.3298 337.461Z" fill="#4F4F4F"/>
<path d="M78.3854 347.502H55.8201C54.0226 347.502 52.5654 349.187 52.5654 351.265V356.187C52.5654 358.267 54.0226 359.952 55.8201 359.952H78.3854C80.184 359.952 81.6411 358.267 81.6411 356.187V351.265C81.6411 349.187 80.184 347.502 78.3854 347.502Z" fill="#4F4F4F"/>
<path d="M79.396 355.398H54.7543C54.1273 355.398 53.6201 356.014 53.6201 356.774V358.575C53.6201 359.335 54.1273 359.952 54.7543 359.952H79.396C80.0219 359.952 80.5291 359.335 80.5291 358.575V356.774C80.5291 356.014 80.0219 355.398 79.396 355.398Z" fill="white"/>
<path d="M69.8238 338.016H63.1984C62.853 338.016 62.5732 338.371 62.5732 338.809C62.5732 339.245 62.853 339.6 63.1984 339.6H69.8238C70.1683 339.6 70.449 339.245 70.449 338.809C70.449 338.371 70.1683 338.016 69.8238 338.016Z" fill="white"/>
<path d="M61.5113 343.084H58.328C57.2061 343.084 56.2949 344.236 56.2949 345.66C56.2949 347.082 57.2061 348.235 58.328 348.235H61.5113C62.6344 348.235 63.5434 347.082 63.5434 345.66C63.5434 344.236 62.6344 343.084 61.5113 343.084Z" fill="#585858"/>
<path d="M69.8238 340.551H63.1984C62.853 340.551 62.5732 340.905 62.5732 341.342C62.5732 341.779 62.853 342.133 63.1984 342.133H69.8238C70.1683 342.133 70.449 341.779 70.449 341.342C70.449 340.905 70.1683 340.551 69.8238 340.551Z" fill="white"/>
<path d="M113.092 325.967H95.4593C94.5226 325.967 93.7617 326.944 93.7617 328.15V347.271C93.7617 348.477 94.5226 349.454 95.4593 349.454H113.092C114.029 349.454 114.789 348.477 114.789 347.271V328.15C114.789 326.944 114.029 325.967 113.092 325.967Z" fill="white"/>
<path d="M107.217 332.733H101.621C100.292 332.733 99.2139 334.117 99.2139 335.822V338.594C99.2139 340.3 100.292 341.683 101.621 341.683H107.217C108.546 341.683 109.624 340.3 109.624 338.594V335.822C109.624 334.117 108.546 332.733 107.217 332.733Z" fill="#4B4B4B"/>
<path d="M110.409 337.461H101.528C96.4057 337.461 92.2529 342.409 92.2529 348.514C92.2529 354.618 96.4057 359.566 101.528 359.566H110.409C115.532 359.566 120.058 354.706 120.058 348.602C120.058 342.496 115.532 337.461 110.409 337.461Z" fill="#4F4F4F"/>
<path d="M117.309 347.502H94.718C92.9198 347.502 91.46 349.141 91.46 351.162V355.948C91.46 357.971 92.9198 359.61 94.718 359.61H117.309C119.108 359.61 120.567 357.971 120.567 355.948V351.162C120.567 349.141 119.108 347.502 117.309 347.502Z" fill="#4F4F4F"/>
<path d="M119.085 355.398H93.2262C92.5695 355.398 92.0361 356.014 92.0361 356.774V358.575C92.0361 359.335 92.5695 359.952 93.2262 359.952H119.085C119.742 359.952 120.274 359.335 120.274 358.575V356.774C120.274 356.014 119.742 355.398 119.085 355.398Z" fill="white"/>
<path d="M108.796 338.016H102.254C101.913 338.016 101.637 338.371 101.637 338.809C101.637 339.245 101.913 339.6 102.254 339.6H108.796C109.136 339.6 109.413 339.245 109.413 338.809C109.413 338.371 109.136 338.016 108.796 338.016Z" fill="white"/>
<path d="M110.984 343.145H107.842C106.733 343.145 105.835 344.299 105.835 345.721C105.835 347.144 106.733 348.297 107.842 348.297H110.984C112.093 348.297 112.991 347.144 112.991 345.721C112.991 344.299 112.093 343.145 110.984 343.145Z" fill="#585858"/>
<path d="M108.796 340.581H102.254C101.913 340.581 101.637 340.936 101.637 341.372C101.637 341.81 101.913 342.164 102.254 342.164H108.796C109.136 342.164 109.413 341.81 109.413 341.372C109.413 340.936 109.136 340.581 108.796 340.581Z" fill="white"/>
<defs>
<filter id="filter0_d_2165_4941" x="0.153616" y="0.318359" width="568.457" height="372.447" filterUnits="userSpaceOnUse" color-interpolation-filters="sRGB">
<feFlood flood-opacity="0" result="BackgroundImageFix"/>
<feColorMatrix in="SourceAlpha" type="matrix" values="0 0 0 0 0 0 0 0 0 0 0 0 0 0 0 0 0 0 127 0" result="hardAlpha"/>
<feOffset dy="5.75556"/>
<feGaussianBlur stdDeviation="2.87778"/>
<feComposite in2="hardAlpha" operator="out"/>
<feColorMatrix type="matrix" values="0 0 0 0 0 0 0 0 0 0 0 0 0 0 0 0 0 0 0.25 0"/>
<feBlend mode="normal" in2="BackgroundImageFix" result="effect1_dropShadow_2165_4941"/>
<feBlend mode="normal" in="SourceGraphic" in2="effect1_dropShadow_2165_4941" result="shape"/>
</filter>
</defs>
</svg>
