<svg width="366" height="239" viewBox="0 0 366 239" fill="none" xmlns="http://www.w3.org/2000/svg">
<path d="M75.7448 75.2159L75.7352 75.1708C75.2265 72.7906 77.4224 70.7902 80.8783 70.1704C82.4006 69.8973 83.9721 69.7431 85.4223 69.2915L90.9568 67.5677L92.4546 67.2767C93.9694 66.9824 95.284 66.2235 96.2618 65.079C96.8488 64.392 97.5598 63.8409 98.3675 63.4469L99.1397 63.0702C102.2 61.5772 105.955 61.5394 109.67 62.9643L116.311 65.5116C118.579 66.3815 121.001 66.643 123.123 68.0733C125.827 69.8965 128.283 73.2951 128.719 75.332L128.728 75.3771C129.22 77.6787 127.183 79.6252 123.923 80.3117C122.196 80.6752 120.398 80.8771 118.77 81.4693L117.179 82.0481L110.624 83.515C108.625 83.9622 106.485 84.0027 104.297 83.6345L86.934 80.7118C85.9666 80.549 85.0092 80.4898 84.0487 80.3926C79.8751 79.9705 76.299 77.809 75.7448 75.2159Z" fill="#D09D75"/>
<path d="M128.721 80.4086L128.67 80.4134C125.386 80.721 122.258 77.9862 121.684 74.3051L117.652 60.364L117.37 46.664C116.795 42.9828 118.992 39.7494 122.276 39.4418L122.327 39.437C125.612 39.1294 130.694 41.2705 131.268 44.9516L135.582 72.5927C136.156 76.2738 132.006 80.101 128.721 80.4086Z" fill="#D09D75"/>
<path d="M128.144 45.5146L129.722 44.0403C132.748 41.2145 132.525 35.5663 129.224 31.4246L126.291 27.7451C122.99 23.6034 117.86 22.5366 114.835 25.3623L113.256 26.8367C110.23 29.6624 110.453 35.3107 113.755 39.4524L116.687 43.1319C119.989 47.2736 125.118 48.3404 128.144 45.5146Z" fill="#D09D75"/>
<path d="M118.723 36.122C121.595 37.9738 125.13 36.9319 126.619 33.7948C128.108 30.6576 126.986 26.6133 124.114 24.7614L116.268 19.7034C113.653 18.0174 109.479 23.8647 107.628 27.2931C107.313 27.8777 107.269 28.6 107.471 29.2559C107.889 30.615 108.802 31.6992 109.967 32.2184L118.723 36.122Z" fill="#D09D75"/>
<path d="M114.842 42.1268C116.306 43.9518 118.548 44.4495 119.849 43.2386C121.15 42.0276 121.018 39.5664 119.554 37.7414L115.555 32.7567C114.091 30.9317 111.849 30.4339 110.548 31.6449C109.247 32.8559 109.379 35.3171 110.843 37.1421L114.842 42.1268Z" fill="#C98F62"/>
<path d="M21.3042 72.2444C20.9514 71.2503 20.5213 71.2177 19.5666 71.1462C18.9747 71.1019 18.3942 71.1148 17.8622 71.2224C17.3302 71.33 16.7031 71.3947 16.1802 71.0045C14.441 69.7067 13.7739 65.8693 14.4569 69.9389C14.7124 71.1873 14.668 72.3914 14.3266 73.472L10.7665 84.7415C10.4924 85.6091 10.3086 86.517 10.2168 87.4562L8.33797 106.686C8.20891 108.006 8.02545 110.661 9.38965 110.287C10.404 110.008 11.8197 108.046 13.1719 107.192C13.8904 106.739 14.9579 106.807 15.9559 106.807L18.2057 106.807C18.5124 106.807 19.4464 106.899 19.7595 106.921C21.1179 107.017 21.7104 106.543 22.7686 106.052L23.597 105.668C24.0536 105.456 24.4737 105.2 24.8521 104.904L25.2232 104.614C28.0303 102.417 29.3018 98.9875 28.7426 95.1216L27.1457 84.0839C26.8502 82.0418 25.85 79.9427 24.2785 78.0672C22.7617 76.2569 22.0135 74.243 21.3042 72.2444Z" fill="#D09D75"/>
<path d="M45.9064 177.053L44.1976 177.053C40.1859 177.053 36.9338 180.305 36.9337 184.317L36.9335 203.011L36.9338 216.431L35.4824 230.186C35.4824 233.191 38.4484 235.628 42.1072 235.628H43.6518C47.3106 235.628 50.2766 233.191 50.2766 230.186V210.106C50.2766 208.706 50.6201 207.327 51.2769 206.09C51.9338 204.854 52.2772 203.475 52.2772 202.075V199.438C52.2772 197.89 52.0843 196.348 51.7029 194.847C51.3215 193.347 51.1285 191.805 51.1285 190.257V182.275C51.1285 181.966 51.1012 181.658 51.0468 181.355C50.6011 178.865 48.4355 177.053 45.9064 177.053Z" fill="#D09D75"/>
<path d="M44.6661 122.608H34.7677C34.2855 122.608 33.8946 122.999 33.8946 123.481L30.7168 152.946V163.536C30.7168 164.638 30.8074 165.738 30.9877 166.825L31.7858 171.637C32.1711 173.961 32.9617 176.198 34.1215 178.248L36.2915 182.083C36.7334 182.864 36.9656 183.747 36.9656 184.644C36.9656 187.515 39.2935 189.843 42.1651 189.843H45.5336C48.6089 189.843 51.1019 187.35 51.1019 184.275C51.1019 183.614 51.2198 182.957 51.4499 182.337L52.1961 180.327C52.5169 179.463 52.7689 178.575 52.9498 177.671L54.0795 172.028L55.2123 164.527C55.3624 163.533 55.4377 162.53 55.4377 161.525V148.652V133.379C55.4377 127.43 50.6151 122.608 44.6661 122.608Z" fill="#D09D75"/>
<path d="M46.04 224.11H39.8193C36.2322 224.11 33.3242 226.688 33.3242 229.869C33.3242 233.049 36.2322 235.628 39.8193 235.628H46.04C49.6271 235.628 52.5351 233.049 52.5351 229.869C52.5351 226.688 49.6271 224.11 46.04 224.11Z" fill="#D09D75"/>
<path d="M50.3842 229.319H35.4751C34.2872 229.319 33.3242 230.173 33.3242 231.226V233.721C33.3242 234.774 34.2872 235.628 35.4751 235.628H50.3842C51.5721 235.628 52.5351 234.774 52.5351 233.721V231.226C52.5351 230.173 51.5721 229.319 50.3842 229.319Z" fill="#D09D75"/>
<path d="M79.9009 94.8848C79.9009 80.0156 67.8743 74.2795 55.6715 74.2795C43.4687 74.2795 32.3281 80.0156 32.3281 94.8848L33.5764 120.654C33.5764 135.523 43.4687 147.577 55.6715 147.577C67.8743 147.577 77.7667 138.909 77.7667 124.04L79.9009 94.8848Z" fill="#81584A"/>
<path d="M85.9706 61.439H24.9976C18.3974 61.439 13.0469 66.7578 13.0469 73.3189C13.0469 79.88 18.3974 85.1988 24.9976 85.1988H85.9706C92.5707 85.1988 97.9213 79.88 97.9213 73.3189C97.9213 66.7578 92.5707 61.439 85.9706 61.439Z" fill="#906253"/>
<path d="M88.0515 79.4359C88.0515 65.6532 73.5561 54.4802 55.6752 54.4802C37.7942 54.4802 23.2988 65.6532 23.2988 79.4359C23.2988 93.2185 37.7942 104.392 55.6752 104.392C73.5561 104.392 88.0515 93.2185 88.0515 79.4359Z" fill="#D09D75"/>
<path d="M57.4604 95.5195H53.8839C45.3553 95.5195 38.4414 101.74 38.4414 109.414V119.453C38.4414 127.127 45.3553 133.348 53.8839 133.348H57.4604C65.9891 133.348 72.9029 127.127 72.9029 119.453V109.414C72.9029 101.74 65.9891 95.5195 57.4604 95.5195Z" fill="#906253"/>
<path d="M72.4131 61.3821H38.9372C30.3004 61.3821 23.2988 67.508 23.2988 75.0647V83.3113C23.2988 90.868 30.3004 96.9939 38.9372 96.9939H72.4131C81.0499 96.9939 88.0515 90.868 88.0515 83.3113V75.0647C88.0515 67.508 81.0499 61.3821 72.4131 61.3821Z" fill="#906253"/>
<path d="M75.3343 61.3821H36.016C28.9925 61.3821 23.2988 67.075 23.2988 74.0975V81.7611C23.2988 88.7836 28.9925 94.4765 36.016 94.4765H75.3343C82.3578 94.4765 88.0515 88.7836 88.0515 81.7611V74.0975C88.0515 67.075 82.3578 61.3821 75.3343 61.3821Z" fill="#D09D75"/>
<path d="M58.3175 89.2293C58.3175 88.3624 57.0966 87.6597 55.5904 87.6597C54.0843 87.6597 52.8633 88.3624 52.8633 89.2293V92.2736C52.8633 93.1405 54.0843 93.8432 55.5904 93.8432C57.0966 93.8432 58.3175 93.1405 58.3175 92.2736V89.2293Z" fill="#81584A"/>
<path d="M69.8244 84.4443H63.4677C61.6421 84.4443 60.1621 85.7725 60.1621 87.411C60.1621 89.0494 61.6421 90.3776 63.4677 90.3776H69.8244C71.65 90.3776 73.13 89.0494 73.13 87.411C73.13 85.7725 71.65 84.4443 69.8244 84.4443Z" fill="#AC7967"/>
<path d="M47.3869 84.4446H41.0302C39.2046 84.4446 37.7246 85.7728 37.7246 87.4112C37.7246 89.0496 39.2046 90.3778 41.0302 90.3778H47.3869C49.2125 90.3778 50.6925 89.0496 50.6925 87.4112C50.6925 85.7728 49.2125 84.4446 47.3869 84.4446Z" fill="#AC7967"/>
<path d="M38.2542 90.5315H35.9394C35.0161 90.5315 34.2676 91.2032 34.2676 92.0318C34.2676 92.8605 35.0161 93.5322 35.9394 93.5322H38.2542C39.1775 93.5322 39.926 92.8605 39.926 92.0318C39.926 91.2032 39.1775 90.5315 38.2542 90.5315Z" fill="#81584A"/>
<path d="M76.094 90.5317H73.7792C72.8559 90.5317 72.1074 91.2035 72.1074 92.0321C72.1074 92.8607 72.8559 93.5324 73.7792 93.5324H76.094C77.0173 93.5324 77.7658 92.8607 77.7658 92.0321C77.7658 91.2035 77.0173 90.5317 76.094 90.5317Z" fill="#81584A"/>
<path d="M26.2357 63.387H24.8332C21.0895 63.387 18.0547 66.4038 18.0547 70.1253C18.0547 73.8468 21.0895 76.8636 24.8332 76.8636H26.2357C29.9793 76.8636 33.0142 73.8468 33.0142 70.1253C33.0142 66.4038 29.9793 63.387 26.2357 63.387Z" fill="#9D6B5A"/>
<path d="M86.7259 64.0442H85.3234C81.5798 64.0442 78.5449 67.061 78.5449 70.7825C78.5449 74.504 81.5798 77.5209 85.3234 77.5209H86.7259C90.4696 77.5209 93.5044 74.504 93.5044 70.7825C93.5044 67.061 90.4696 64.0442 86.7259 64.0442Z" fill="#9D6B5A"/>
<path d="M26.137 65.6514H24.0334C22.8715 65.6514 21.9297 66.5876 21.9297 67.7426C21.9297 68.8975 22.8715 69.8338 24.0334 69.8338H26.137C27.2989 69.8338 28.2407 68.8975 28.2407 67.7426C28.2407 66.5876 27.2989 65.6514 26.137 65.6514Z" fill="#AC7967"/>
<path d="M89.2757 65.8154H87.172C86.0102 65.8154 85.0684 66.7517 85.0684 67.9066C85.0684 69.0616 86.0102 69.9979 87.172 69.9979H89.2757C90.4375 69.9979 91.3794 69.0616 91.3794 67.9066C91.3794 66.7517 90.4375 65.8154 89.2757 65.8154Z" fill="#AC7967"/>
<path d="M66.3668 175.509L67.9882 175.509C71.9933 175.509 75.2401 178.756 75.2401 182.761L75.2403 202.014L75.24 215.716L76.6914 229.76C76.6914 232.829 73.7254 235.317 70.0666 235.317H68.522C64.8632 235.317 61.8972 232.829 61.8972 229.76V208.871C61.8972 207.525 61.5528 206.202 60.8969 205.027C60.2409 203.852 59.8966 202.528 59.8966 201.183V198.307C59.8966 196.765 60.085 195.229 60.4575 193.732L60.4709 193.678C60.8524 192.146 61.0453 190.573 61.0453 188.994V180.831C61.0453 180.523 61.0721 180.215 61.1253 179.912C61.5716 177.366 63.7824 175.509 66.3668 175.509Z" fill="#D09D75"/>
<path d="M68.3277 122.608H74.1067C75.5858 122.608 76.9026 123.545 77.387 124.942C77.4592 125.15 77.5113 125.365 77.5428 125.583L81.2502 151.228C81.3879 152.18 81.457 153.142 81.457 154.104V163.116C81.457 164.228 81.3647 165.339 81.181 166.436L80.3979 171.114C80.0061 173.454 79.2033 175.706 78.0265 177.766L75.8852 181.514C75.4415 182.291 75.2082 183.17 75.2082 184.064C75.2082 186.904 72.9064 189.206 70.0669 189.206H66.5799C63.5379 189.206 61.0719 186.74 61.0719 183.698C61.0719 183.038 60.9533 182.383 60.7216 181.765L59.9774 179.779C59.6569 178.924 59.4049 178.044 59.224 177.149L58.0943 171.559L56.9658 164.157C56.8129 163.154 56.7361 162.141 56.7361 161.127V148.405V134.199C56.7361 127.797 61.9258 122.608 68.3277 122.608Z" fill="#D09D75"/>
<path d="M66.8213 223.839H73.042C76.6291 223.839 79.5371 226.409 79.5371 229.578C79.5371 232.747 76.6291 235.317 73.042 235.317H66.8213C63.2342 235.317 60.3262 232.747 60.3262 229.578C60.3262 226.409 63.2342 223.839 66.8213 223.839Z" fill="#D09D75"/>
<path d="M62.4771 226.202H77.3862C78.5741 226.202 79.5371 227.436 79.5371 228.957V232.561C79.5371 234.083 78.5741 235.316 77.3862 235.316H62.4771C61.2892 235.316 60.3262 234.083 60.3262 232.561V228.957C60.3262 227.436 61.2892 226.202 62.4771 226.202Z" fill="#D09D75"/>
<path d="M51.855 100.198H47.7543C45.7985 100.198 44.2129 101.572 44.2129 103.267C44.2129 104.961 45.7985 106.336 47.7543 106.336H51.855C53.8109 106.336 55.3964 104.961 55.3964 103.267C55.3964 101.572 53.8109 100.198 51.855 100.198Z" fill="#9D6B5A"/>
<path d="M51.855 107.434H47.7543C45.7985 107.434 44.2129 108.808 44.2129 110.503C44.2129 112.198 45.7985 113.572 47.7543 113.572H51.855C53.8109 113.572 55.3964 112.198 55.3964 110.503C55.3964 108.808 53.8109 107.434 51.855 107.434Z" fill="#9D6B5A"/>
<path d="M51.855 114.671H47.7543C45.7985 114.671 44.2129 116.045 44.2129 117.74C44.2129 119.435 45.7985 120.809 47.7543 120.809H51.855C53.8109 120.809 55.3964 119.435 55.3964 117.74C55.3964 116.045 53.8109 114.671 51.855 114.671Z" fill="#9D6B5A"/>
<path d="M64.3803 100.198H60.2797C58.3239 100.198 56.7383 101.572 56.7383 103.267C56.7383 104.961 58.3239 106.336 60.2797 106.336H64.3803C66.3362 106.336 67.9218 104.961 67.9218 103.267C67.9218 101.572 66.3362 100.198 64.3803 100.198Z" fill="#9D6B5A"/>
<path d="M64.3803 107.434H60.2797C58.3239 107.434 56.7383 108.808 56.7383 110.503C56.7383 112.198 58.3239 113.572 60.2797 113.572H64.3803C66.3362 113.572 67.9218 112.198 67.9218 110.503C67.9218 108.808 66.3362 107.434 64.3803 107.434Z" fill="#9D6B5A"/>
<path d="M64.3803 114.671H60.2797C58.3239 114.671 56.7383 116.045 56.7383 117.74C56.7383 119.435 58.3239 120.809 60.2797 120.809H64.3803C66.3362 120.809 67.9218 119.435 67.9218 117.74C67.9218 116.045 66.3362 114.671 64.3803 114.671Z" fill="#9D6B5A"/>
<path d="M36.9746 124.1C35.8127 124.1 34.6916 124.286 33.6309 124.626C34.8729 138.15 44.2343 148.598 55.6764 148.598C67.2664 148.598 76.7224 137.878 77.7668 124.1C77.7656 124.1 77.7645 124.1 77.7634 124.1H36.9746Z" fill="#4F4F4F"/>
<path d="M76.1492 122.607H35.2481C34.3549 122.607 33.6309 123.428 33.6309 124.44V127.276C33.6309 128.288 34.3549 129.109 35.2481 129.109H76.1492C77.0424 129.109 77.7665 128.288 77.7665 127.276V124.44C77.7665 123.428 77.0424 122.607 76.1492 122.607Z" fill="#5B5B5B"/>
<path d="M35.1172 122.633C36.2551 139.306 44.9961 152.211 55.4821 152.211C66.1053 152.211 75.4688 139.619 76.4258 122.633H35.1172Z" fill="#4F4F4F"/>
<path d="M77.9432 122.429L56.2036 125.899L56.0332 152.14L56.2036 163.64H81.9796C82.1218 142.366 82.533 134.98 77.9432 122.429Z" fill="#4B4B4B"/>
<path d="M33.7035 122.429L55.8533 125.888V152.139V163.639H29.9102C29.763 142.293 28.9799 135.021 33.7035 122.429Z" fill="#4B4B4B"/>
<path d="M269.887 179.927H271.427C275.193 179.927 278.245 183.106 278.245 187.029L278.246 205.777L278.245 219.141L279.61 232.839C279.61 235.832 276.822 238.258 273.382 238.258H271.931C268.491 238.258 265.703 235.832 265.703 232.839V212.467C265.703 211.153 265.379 209.861 264.763 208.716C264.146 207.569 263.822 206.278 263.822 204.964V202.162C263.822 200.658 264 199.16 264.35 197.7L264.362 197.647C264.721 196.153 264.902 194.619 264.902 193.078V185.119C264.902 184.817 264.928 184.516 264.978 184.219C265.398 181.736 267.468 179.927 269.887 179.927Z" fill="#D09D75"/>
<path d="M271.946 129.982H275.875C278.085 129.982 280.069 131.397 280.869 133.543C281.023 133.957 281.129 134.389 281.185 134.829L284.088 157.64V167.539C284.088 168.824 283.985 170.107 283.781 171.373L283.114 175.504C282.731 177.876 281.948 180.158 280.799 182.244L278.851 185.781C278.434 186.54 278.214 187.399 278.214 188.274C278.214 191.042 276.06 193.285 273.403 193.285H270.08C267.234 193.285 264.925 190.881 264.925 187.916C264.925 187.27 264.813 186.63 264.595 186.026L263.897 184.091C263.595 183.257 263.359 182.399 263.188 181.526L262.126 176.074L261.105 169.125C260.936 167.967 260.85 166.797 260.85 165.626V141.54C260.85 135.156 265.818 129.982 271.946 129.982Z" fill="#D09D75"/>
<path d="M270.328 227.064H276.176C279.548 227.064 282.281 229.57 282.281 232.661C282.281 235.752 279.548 238.258 276.176 238.258H270.328C266.956 238.258 264.223 235.752 264.223 232.661C264.223 229.57 266.956 227.064 270.328 227.064Z" fill="#D09D75"/>
<path d="M266.244 229.368H280.26C281.376 229.368 282.281 230.572 282.281 232.055V235.57C282.281 237.055 281.376 238.257 280.26 238.257H266.244C265.128 238.257 264.223 237.055 264.223 235.57V232.055C264.223 230.572 265.128 229.368 266.244 229.368Z" fill="#D09D75"/>
<path d="M247.994 179.926H246.455C242.689 179.926 239.635 183.106 239.635 187.028V205.777V219.141L238.271 232.838C238.271 235.831 241.059 238.258 244.499 238.258H245.951C249.39 238.258 252.178 235.831 252.178 232.838V212.466C252.178 211.153 252.502 209.861 253.118 208.715C253.735 207.569 254.058 206.277 254.058 204.964V202.162C254.058 200.657 253.882 199.159 253.532 197.699L253.519 197.647C253.16 196.153 252.979 194.618 252.979 193.077V185.118C252.979 184.816 252.954 184.516 252.904 184.218C252.484 181.736 250.414 179.926 247.994 179.926Z" fill="#D09D75"/>
<path d="M246.904 129.981H240.795C238.577 129.981 236.778 131.854 236.778 134.166L233.791 157.639V167.539C233.791 168.823 233.893 170.106 234.098 171.373L234.764 175.503C235.147 177.875 235.931 180.157 237.08 182.243L239.027 185.781C239.445 186.54 239.665 187.399 239.665 188.274C239.665 191.041 241.819 193.285 244.476 193.285H247.799C250.645 193.285 252.953 190.88 252.953 187.916C252.953 187.27 253.064 186.629 253.283 186.025L253.982 184.09C254.283 183.256 254.52 182.398 254.69 181.525L255.752 176.073L256.773 169.124C256.943 167.966 257.029 166.796 257.029 165.625V140.528C257.029 134.703 252.495 129.981 246.904 129.981Z" fill="#D09D75"/>
<path d="M247.552 227.063H241.705C238.333 227.063 235.6 229.569 235.6 232.66C235.6 235.751 238.333 238.257 241.705 238.257H247.552C250.925 238.257 253.658 235.751 253.658 232.66C253.658 229.569 250.925 227.063 247.552 227.063Z" fill="#D09D75"/>
<path d="M251.636 229.367H237.621C236.504 229.367 235.6 230.571 235.6 232.054V235.569C235.6 237.054 236.504 238.256 237.621 238.256H251.636C252.753 238.256 253.658 237.054 253.658 235.569V232.054C253.658 230.571 252.753 229.367 251.636 229.367Z" fill="#D09D75"/>
<path d="M258.403 66.3069C259.298 66.3069 260.19 66.3612 261.074 66.4668C271.736 67.7408 281.239 76.4653 281.239 87.1056L279.565 98.4977L276.299 118.11C276.299 129.632 270.095 131.332 258.403 131.332C246.71 131.332 241.237 129.632 241.237 118.11L237.297 98.4977V87.1056C237.297 75.5829 246.71 66.3069 258.403 66.3069Z" fill="#D09D75"/>
<path d="M258.371 112.953H259.091C271.022 112.953 274.894 106.525 276.853 115.237L280.627 132.72C282.583 141.424 271.022 148.648 259.091 148.648H258.371C246.44 148.648 234.879 141.424 236.835 132.72L241.006 115.237C242.965 106.525 246.44 112.953 258.371 112.953Z" fill="#D09D75"/>
<path d="M258.346 105.067C266.945 105.067 273.869 114.762 273.869 126.804H242.824C242.824 114.762 249.747 105.067 258.346 105.067Z" fill="#D09D75"/>
<path d="M231.475 78.2268C227.831 77.4926 223.444 79.0314 222.641 83.3551L220.149 91.1628C219.381 93.5671 219.101 96.1122 219.325 98.6353L219.997 106.205C220.149 107.931 219.963 109.672 219.986 111.406C220.026 114.443 221.356 116.67 224.23 117.249C227.369 117.882 229.454 116.254 230.485 113.027C230.835 111.932 231.108 110.808 231.518 109.735L233.383 104.868C234.409 102.191 234.814 99.2991 234.566 96.4276L234.181 91.9755C234.081 90.8166 234.093 89.6526 234.143 88.4908C234.28 85.2966 234.217 78.7791 231.475 78.2268Z" fill="#D09D75"/>
<path d="M225.771 102.938L225.725 102.937C222.738 102.841 220.148 106.295 219.939 110.651L218.375 143.363C218.166 147.72 220.418 151.329 223.405 151.425L223.452 151.427C226.439 151.523 229.029 148.069 229.237 143.712L230.802 111C231.011 106.643 228.759 103.034 225.771 102.938Z" fill="#D09D75"/>
<path d="M225.704 136.642L223.827 136.631C220.229 136.611 217.143 140.678 216.934 145.714L216.748 150.188C216.538 155.224 219.284 159.322 222.882 159.342L224.758 159.353C228.356 159.373 231.442 155.307 231.652 150.271L231.838 145.796C232.047 140.761 229.301 136.662 225.704 136.642Z" fill="#D09D75"/>
<path d="M226.167 149.368C225.385 146.165 222.625 144.543 220.004 145.745C217.383 146.947 215.893 150.518 216.675 153.721L218.813 162.468C219.595 165.67 222.355 167.292 224.976 166.09C227.598 164.888 229.088 161.317 228.305 158.114L226.167 149.368Z" fill="#D09D75"/>
<path d="M232.304 147.658C232.392 145.425 231.19 143.607 229.619 143.597C228.049 143.587 226.704 145.389 226.615 147.622L226.374 153.719C226.285 155.952 227.487 157.77 229.058 157.78C230.628 157.79 231.973 155.988 232.062 153.756L232.304 147.658Z" fill="#C68858"/>
<path d="M285.505 78.2265C289.149 77.4924 293.537 79.0312 294.34 83.3549L296.832 91.1626C297.599 93.5668 297.88 96.1119 297.657 98.6351L296.985 106.204C296.831 107.931 297.017 109.671 296.995 111.405C296.954 114.443 295.625 116.67 292.751 117.249C289.612 117.882 287.527 116.253 286.496 113.027C286.146 111.932 285.873 110.808 285.463 109.735L283.598 104.868C282.572 102.191 282.167 99.2988 282.415 96.4273L282.8 91.9752C282.9 90.8164 282.888 89.6524 282.838 88.4906C282.701 85.2964 282.763 78.7788 285.505 78.2265Z" fill="#D09D75"/>
<path d="M291.212 102.938L291.259 102.937C294.246 102.841 296.836 106.295 297.044 110.651L298.609 143.363C298.817 147.72 296.565 151.329 293.578 151.425L293.532 151.427C290.545 151.523 287.954 148.069 287.746 143.712L286.181 111C285.973 106.643 288.226 103.034 291.212 102.938Z" fill="#D09D75"/>
<path d="M291.278 136.642L293.155 136.631C296.752 136.612 299.839 140.678 300.048 145.714L300.235 150.188C300.444 155.224 297.698 159.322 294.101 159.342L292.223 159.353C288.626 159.373 285.54 155.307 285.33 150.271L285.144 145.797C284.934 140.761 287.681 136.662 291.278 136.642Z" fill="#D09D75"/>
<path d="M290.815 149.368C291.597 146.165 294.357 144.543 296.978 145.745C299.599 146.947 301.09 150.518 300.307 153.721L298.169 162.468C297.387 165.67 294.627 167.292 292.006 166.09C289.385 164.888 287.895 161.317 288.677 158.114L290.815 149.368Z" fill="#D09D75"/>
<path d="M284.676 147.657C284.588 145.425 285.79 143.607 287.361 143.597C288.932 143.587 290.277 145.389 290.365 147.621L290.606 153.719C290.695 155.951 289.493 157.77 287.923 157.78C286.352 157.789 285.007 155.988 284.918 153.755L284.676 147.657Z" fill="#C68858"/>
<path d="M231.337 72.7241H285.751C291.143 72.7241 295.485 76.9378 295.485 82.1725C295.485 87.4072 291.143 91.621 285.751 91.621H231.337C225.945 91.621 221.604 87.4072 221.604 82.1725C221.604 76.9378 225.945 72.7241 231.337 72.7241Z" fill="#906253"/>
<path d="M250.009 71.6033H266.977C276.458 71.6033 284.09 78.8586 284.09 87.8714C284.09 96.8834 276.458 104.139 266.977 104.139H250.009C240.529 104.139 232.896 96.8834 232.896 87.8714C232.896 78.8586 240.529 71.6033 250.009 71.6033Z" fill="#D09D75"/>
<path d="M258.943 91.6208C261.15 91.6208 262.928 93.4728 262.928 95.7722V99.6222C262.928 101.922 261.15 103.774 258.943 103.774C256.734 103.774 254.957 101.922 254.957 99.6222V95.7722C254.957 93.4728 256.734 91.6208 258.943 91.6208Z" fill="#815848" fill-opacity="0.99"/>
<path d="M248.879 87.2649C247.825 87.2649 246.847 87.5495 246.033 88.0372C243.326 88.1956 240.789 89.2592 238.936 91.0114C237.082 92.7636 236.051 95.074 236.051 97.4746C236.051 99.9831 237.177 102.39 239.182 104.163C241.186 105.937 243.904 106.933 246.74 106.933C249.322 106.931 251.815 106.101 253.76 104.597C255.704 103.094 256.968 101.018 257.318 98.7531C257.39 98.4428 257.428 98.1208 257.428 97.7908V91.9121C257.428 89.3376 255.131 87.2649 252.279 87.2649H248.879ZM264.71 87.2649C261.858 87.2649 259.561 89.3376 259.561 91.9121V97.7908C259.561 98.1208 259.6 98.4428 259.672 98.7531C260.021 101.018 261.285 103.094 263.229 104.597C265.174 106.101 267.668 106.931 270.25 106.933C273.085 106.933 275.803 105.937 277.808 104.163C279.812 102.39 280.939 99.9831 280.939 97.4746C280.938 95.074 279.907 92.7636 278.053 91.0114C276.2 89.2592 273.663 88.1956 270.957 88.0372C270.142 87.5495 269.165 87.2649 268.11 87.2649H264.71Z" fill="#9D6B5A"/>
<path d="M238.995 92.3687C237.774 91.9066 236.449 94.6644 235.308 95.1184C235.207 95.7059 235.153 96.3007 235.148 96.897C235.149 102.992 240.126 107.933 246.265 107.933C249.369 107.925 252.328 106.629 254.427 104.358C254.316 98.8297 249.543 96.355 244.402 94.4121L238.995 92.3687ZM272.272 94.4121C267.236 96.3161 262.534 98.6522 262.255 104.023C264.361 106.495 267.453 107.925 270.714 107.933C276.854 107.933 281.83 102.992 281.83 96.897C281.825 96.3469 281.779 95.7983 281.692 95.2548C280.464 94.7135 279.017 91.8618 277.677 92.3687L272.272 94.4121Z" fill="#444444"/>
<path d="M254.136 102.099H263.301C263.86 102.099 264.31 102.554 264.31 103.12C264.31 103.686 263.86 104.141 263.301 104.141H254.136C253.577 104.141 253.127 103.686 253.127 103.12C253.127 102.554 253.577 102.099 254.136 102.099Z" fill="#444444"/>
<path d="M277.733 92.3103C277.649 92.3169 277.566 92.3352 277.483 92.3668L272.133 94.3882C267.909 95.9842 263.925 97.8875 262.637 101.663C264.702 103.822 267.574 105.059 270.591 105.067C276.184 105.067 280.8 100.925 281.499 95.5639C281.484 95.4503 281.475 95.3351 281.457 95.2221C280.317 94.7197 278.987 92.2098 277.733 92.3103ZM238.968 92.3176C237.823 92.2428 236.604 94.6654 235.545 95.0872C235.52 95.2353 235.498 95.3835 235.479 95.5324C236.164 100.909 240.786 105.067 246.39 105.067C249.287 105.059 252.056 103.919 254.105 101.905C252.894 98.0166 248.851 96.0143 244.546 94.3882L239.195 92.3668C239.12 92.3382 239.044 92.3228 238.968 92.3176Z" fill="#4F4F4F"/>
<path d="M255.091 108.667H252.437C251.225 108.667 250.242 109.42 250.242 110.348V112.296C250.242 113.226 251.225 113.979 252.437 113.979H255.091C256.303 113.979 257.286 113.226 257.286 112.296V110.348C257.286 109.42 256.303 108.667 255.091 108.667Z" fill="#C68858"/>
<path d="M255.091 114.551H251.048C249.836 114.551 248.854 115.304 248.854 116.234V118.181C248.854 119.11 249.836 119.863 251.048 119.863H255.091C256.304 119.863 257.286 119.11 257.286 118.181V116.234C257.286 115.304 256.304 114.551 255.091 114.551Z" fill="#C68858"/>
<path d="M255.091 120.312H251.048C249.836 120.312 248.854 121.065 248.854 121.994V123.942C248.854 124.872 249.836 125.625 251.048 125.625H255.091C256.304 125.625 257.286 124.872 257.286 123.942V121.994C257.286 121.065 256.304 120.312 255.091 120.312Z" fill="#C68858"/>
<path d="M261.588 108.667H264.242C265.453 108.667 266.436 109.42 266.436 110.348V112.296C266.436 113.226 265.453 113.979 264.242 113.979H261.588C260.375 113.979 259.393 113.226 259.393 112.296V110.348C259.393 109.42 260.375 108.667 261.588 108.667Z" fill="#C68858"/>
<path d="M261.586 114.551H265.629C266.841 114.551 267.824 115.304 267.824 116.234V118.181C267.824 119.11 266.841 119.863 265.629 119.863H261.586C260.374 119.863 259.391 119.11 259.391 118.181V116.234C259.391 115.304 260.374 114.551 261.586 114.551Z" fill="#C68858"/>
<path d="M261.586 120.312H265.629C266.841 120.312 267.824 121.065 267.824 121.994V123.942C267.824 124.872 266.841 125.625 265.629 125.625H261.586C260.374 125.625 259.391 124.872 259.391 123.942V121.994C259.391 121.065 260.374 120.312 261.586 120.312Z" fill="#C68858"/>
<path d="M238.127 127.258C239.265 143.931 248.006 156.837 258.492 156.837C269.115 156.837 278.479 144.245 279.436 127.258H238.127Z" fill="#4F4F4F"/>
<path d="M279.453 127.255L259.209 130.526L259.039 156.767L260.939 168.267H284.138C284.28 146.993 284.043 139.806 279.453 127.255Z" fill="#4B4B4B"/>
<path d="M238.137 127.232L258.861 130.514V156.765L256.928 168.265H233.782C233.635 146.919 233.414 139.824 238.137 127.232Z" fill="#4B4B4B"/>
<path d="M269.547 86.7236H248.899C243.672 86.7236 232.27 79.4183 232.27 86.7236L234.013 93.3152C234.013 102.818 235.273 107.921 243.817 107.921H273.077C280.676 107.921 282.541 104.06 282.541 94.6948L285.805 87.0991C285.805 79.7939 274.774 86.7236 269.547 86.7236Z" fill="#1874A3"/>
<path d="M231.389 72.7117C225.088 72.7117 221.566 77.9867 221.566 82.0141C221.566 88.7979 224.48 91.5917 233.074 91.5917H283.636C292.448 91.5917 295.676 89.6949 295.676 82.0222C295.676 77.9941 291.915 72.7117 285.714 72.7117H275.513C275.291 77.1616 271.4 80.6976 263.805 80.6976H254.554C245.648 80.6976 241.79 77.1616 241.569 72.7117H231.389Z" fill="#1874A3"/>
<path d="M275.087 72.712C274.944 72.7098 274.804 72.7457 274.699 72.8125C274.594 72.8792 274.532 72.9717 274.528 73.0692C274.268 77.1157 269.374 80.3129 263.312 80.3129H253.844C247.783 80.3129 242.889 77.1157 242.629 73.0692C242.625 73.0208 242.608 72.9731 242.579 72.9291C242.549 72.8858 242.506 72.8462 242.453 72.8132C242.4 72.781 242.339 72.756 242.272 72.7391C242.204 72.7223 242.133 72.7149 242.061 72.7171C241.99 72.7193 241.92 72.7311 241.855 72.7516C241.79 72.7722 241.732 72.8008 241.684 72.8367C241.636 72.8719 241.598 72.9137 241.573 72.9592C241.549 73.0047 241.538 73.0523 241.542 73.1007C241.826 77.5308 247.215 81.0478 253.844 81.0478H263.312C269.943 81.0478 275.331 77.5308 275.616 73.1007C275.62 73.0516 275.609 73.0025 275.585 72.9563C275.561 72.91 275.523 72.8675 275.473 72.8316C275.424 72.7949 275.364 72.7663 275.298 72.7458C275.232 72.7252 275.16 72.7135 275.087 72.712Z" fill="#1D8EC8"/>
<path d="M238.127 127.259C239.265 143.932 248.006 156.837 258.492 156.837C269.115 156.837 278.479 144.245 279.436 127.259H238.127Z" fill="#4F4F4F"/>
<path d="M279.453 127.255L259.209 130.526L259.039 156.767L260.939 168.267H284.138C284.28 146.993 284.043 139.806 279.453 127.255Z" fill="#4B4B4B"/>
<path d="M238.137 127.232L258.861 130.514V156.765L256.928 168.265H233.782C233.635 146.919 233.414 139.824 238.137 127.232Z" fill="#4B4B4B"/>
<path d="M251.618 215.179H239.252C238.595 215.179 238.062 215.85 238.062 216.678V229.811C238.062 230.639 238.595 231.31 239.252 231.31H251.618C252.275 231.31 252.809 230.639 252.809 229.811V216.678C252.809 215.85 252.275 215.179 251.618 215.179Z" fill="white"/>
<path d="M246.623 219.805H242.708C241.778 219.805 241.023 220.755 241.023 221.926V223.829C241.023 225.001 241.778 225.951 242.708 225.951H246.623C247.554 225.951 248.308 225.001 248.308 223.829V221.926C248.308 220.755 247.554 219.805 246.623 219.805Z" fill="#4B4B4B"/>
<path d="M247.691 223.073H241.918C238.59 223.073 235.891 226.471 235.891 230.664C235.891 234.857 238.59 238.255 241.918 238.255H247.691C251.02 238.255 253.718 234.857 253.718 230.664C253.718 226.471 251.02 223.073 247.691 223.073Z" fill="#4F4F4F"/>
<path d="M252.069 229.969H237.676C236.529 229.969 235.6 231.095 235.6 232.482V235.77C235.6 237.159 236.529 238.285 237.676 238.285H252.069C253.217 238.285 254.146 237.159 254.146 235.77V232.482C254.146 231.095 253.217 229.969 252.069 229.969Z" fill="#4F4F4F"/>
<path d="M252.968 235.104H236.642C236.227 235.104 235.891 235.527 235.891 236.049V237.286C235.891 237.808 236.227 238.232 236.642 238.232H252.968C253.382 238.232 253.718 237.808 253.718 237.286V236.049C253.718 235.527 253.382 235.104 252.968 235.104Z" fill="white"/>
<path d="M247.035 223.454H242.457C242.219 223.454 242.025 223.698 242.025 223.998C242.025 224.298 242.219 224.542 242.457 224.542H247.035C247.273 224.542 247.467 224.298 247.467 223.998C247.467 223.698 247.273 223.454 247.035 223.454Z" fill="white"/>
<path d="M248.59 226.956H246.391C245.616 226.956 244.986 227.747 244.986 228.725C244.986 229.702 245.616 230.494 246.391 230.494H248.59C249.366 230.494 249.994 229.702 249.994 228.725C249.994 227.747 249.366 226.956 248.59 226.956Z" fill="#585858"/>
<path d="M247.035 225.195H242.457C242.219 225.195 242.025 225.438 242.025 225.738C242.025 226.038 242.219 226.282 242.457 226.282H247.035C247.273 226.282 247.467 226.038 247.467 225.738C247.467 225.438 247.273 225.195 247.035 225.195Z" fill="white"/>
<path d="M278.552 215.178H265.477C264.783 215.178 264.219 215.85 264.219 216.678V229.81C264.219 230.638 264.783 231.309 265.477 231.309H278.552C279.247 231.309 279.81 230.638 279.81 229.81V216.678C279.81 215.85 279.247 215.178 278.552 215.178Z" fill="white"/>
<path d="M274.857 219.826H270.991C270.073 219.826 269.328 220.776 269.328 221.947V223.851C269.328 225.022 270.073 225.972 270.991 225.972H274.857C275.776 225.972 276.52 225.022 276.52 223.851V221.947C276.52 220.776 275.776 219.826 274.857 219.826Z" fill="#4B4B4B"/>
<path d="M275.869 223.073H270.17C266.883 223.073 264.219 226.471 264.219 230.664C264.219 234.857 266.883 238.255 270.17 238.255H275.869C279.156 238.255 282.06 234.917 282.06 230.724C282.06 226.531 279.156 223.073 275.869 223.073Z" fill="#4F4F4F"/>
<path d="M280.231 229.969H266.02C264.889 229.969 263.971 231.095 263.971 232.483V235.77C263.971 237.159 264.889 238.285 266.02 238.285H280.231C281.363 238.285 282.281 237.159 282.281 235.77V232.483C282.281 231.095 281.363 229.969 280.231 229.969Z" fill="#4F4F4F"/>
<path d="M281.079 235.104H264.961C264.551 235.104 264.219 235.527 264.219 236.049V237.286C264.219 237.808 264.551 238.232 264.961 238.232H281.079C281.488 238.232 281.82 237.808 281.82 237.286V236.049C281.82 235.527 281.488 235.104 281.079 235.104Z" fill="white"/>
<path d="M275.401 223.454H270.882C270.646 223.454 270.455 223.698 270.455 223.998C270.455 224.298 270.646 224.542 270.882 224.542H275.401C275.636 224.542 275.828 224.298 275.828 223.998C275.828 223.698 275.636 223.454 275.401 223.454Z" fill="white"/>
<path d="M277.462 226.977H275.291C274.525 226.977 273.904 227.769 273.904 228.746C273.904 229.723 274.525 230.515 275.291 230.515H277.462C278.228 230.515 278.848 229.723 278.848 228.746C278.848 227.769 278.228 226.977 277.462 226.977Z" fill="#585858"/>
<path d="M275.401 225.215H270.882C270.646 225.215 270.455 225.46 270.455 225.759C270.455 226.06 270.646 226.303 270.882 226.303H275.401C275.636 226.303 275.828 226.06 275.828 225.759C275.828 225.46 275.636 225.215 275.401 225.215Z" fill="white"/>
<rect x="150.082" y="204.804" width="215.726" height="6.29979" rx="3.1499" fill="black"/>
<rect x="344.629" y="232.661" width="49.412" height="6.33734" rx="3.16867" transform="rotate(-90 344.629 232.661)" fill="black"/>
<rect x="336.385" y="232.661" width="49.412" height="6.33734" rx="3.16867" transform="rotate(-90 336.385 232.661)" fill="black"/>
<rect x="328.141" y="232.661" width="49.412" height="6.33734" rx="3.16867" transform="rotate(-90 328.141 232.661)" fill="black"/>
<rect x="185.326" y="232.661" width="49.412" height="6.33734" rx="3.16867" transform="rotate(-90 185.326 232.661)" fill="black"/>
<rect x="177.082" y="232.661" width="49.412" height="6.33734" rx="3.16867" transform="rotate(-90 177.082 232.661)" fill="black"/>
<rect x="168.838" y="232.661" width="49.412" height="6.33734" rx="3.16867" transform="rotate(-90 168.838 232.661)" fill="black"/>
<path d="M11.8768 104.821L11.8334 104.842C9.05293 106.228 7.73504 109.523 8.88977 112.204L12.5342 121.997L17.5605 132.332C18.7153 135.013 21.9053 136.063 24.6858 134.678L24.7293 134.656C27.5097 133.271 30.6623 129.419 29.5076 126.738L20.8368 106.61C19.6821 103.93 14.6573 103.436 11.8768 104.821Z" fill="#D09D75"/>
<path d="M80.0506 93.4163C80.0506 79.8444 67.5506 79.4639 55.1518 79.4639C42.7538 79.4639 31.7148 79.8444 31.7148 93.4163L32.8893 122.632H77.8216L80.0506 93.4163Z" fill="#1874A3"/>
<path d="M87.8443 79.3523C87.8443 65.7979 70.8996 79.3523 52.8539 79.3523C34.8076 79.3523 22.4922 65.7979 22.4922 79.3523C22.4922 92.9073 37.1215 103.896 55.1686 103.896C73.2142 103.896 87.8443 92.9073 87.8443 79.3523Z" fill="#1874A3"/>
<path d="M75.9181 77.2247L37.5036 78.719C28.7872 78.719 22.4922 67.5567 22.4922 74.9892V83.0992C22.4922 90.5302 29.5585 96.5553 38.2749 96.5553H72.0608C80.778 96.5553 87.8443 90.5302 87.8443 83.0992V74.9892C87.8443 67.5567 84.6353 77.2247 75.9181 77.2247Z" fill="#1874A3"/>
<path d="M74.5378 80.3639H35.4018C28.272 80.3639 22.4922 66.7338 22.4922 74.3773V82.7174C22.4922 90.3592 28.272 96.5556 35.4018 96.5556H75.3136C82.4434 96.5556 88.2233 90.3592 88.2233 82.7174V74.3773C88.2233 66.7338 81.6677 80.3639 74.5378 80.3639Z" fill="#1874A3"/>
<path d="M23.9998 61.5347C17.2886 61.5347 11.8848 66.8501 11.8848 73.4523C11.8848 80.0545 17.2886 85.3707 23.9998 85.3707H85.8056C92.5168 85.3707 97.9198 80.0545 97.9198 73.4523C97.9198 66.8501 92.5168 61.5347 85.8056 61.5347H78.2681C78.0082 68.8285 67.6609 74.6244 60.1815 74.6244H49.0823C41.6029 74.6244 32.4671 68.8285 32.2079 61.5347H23.9998Z" fill="#1874A3"/>
<path d="M78.0995 60.9061C77.9022 60.9008 77.7111 60.9623 77.568 61.0754C77.4241 61.1886 77.3405 61.3445 77.3343 61.5086C76.9793 68.3506 70.2912 73.7567 62.0065 73.7567H49.0668C40.7813 73.7567 34.0932 68.3506 33.7382 61.5086C33.7335 61.4277 33.7103 61.3467 33.6701 61.2725C33.6283 61.1998 33.5703 61.1324 33.4976 61.0769C33.4256 61.0222 33.3413 60.9795 33.25 60.9518C33.1579 60.9233 33.0605 60.9106 32.9622 60.9143C32.8655 60.9181 32.7696 60.9376 32.6806 60.972C32.5916 61.0072 32.512 61.0552 32.4462 61.1159C32.3812 61.1759 32.3294 61.2463 32.2961 61.3235C32.2628 61.3999 32.2481 61.4809 32.2528 61.5625C32.6404 69.0528 40.0053 74.9992 49.0668 74.9992H62.0065C71.068 74.9992 78.4321 69.0528 78.8205 61.5625C78.8267 61.4794 78.812 61.3969 78.7787 61.319C78.7454 61.2403 78.6936 61.1676 78.6263 61.1069C78.559 61.0455 78.4778 60.9968 78.3865 60.9623C78.296 60.9271 78.1985 60.9083 78.0995 60.9061Z" fill="#1D8EC8"/>
<rect x="0.472656" y="121.814" width="51.9453" height="6.95983" rx="3.47991" fill="black"/>
<rect x="11.8867" y="140.086" width="29.5843" height="3.79433" rx="1.89717" transform="rotate(-90 11.8867 140.086)" fill="black"/>
<rect x="6.94922" y="140.086" width="29.5843" height="3.79433" rx="1.89717" transform="rotate(-90 6.94922 140.086)" fill="black"/>
<rect x="2.01367" y="140.086" width="29.5843" height="3.79433" rx="1.89717" transform="rotate(-90 2.01367 140.086)" fill="black"/>
<rect x="45.4844" y="140.086" width="29.5843" height="3.79433" rx="1.89717" transform="rotate(-90 45.4844 140.086)" fill="black"/>
<rect x="40.5469" y="140.086" width="29.5843" height="3.79433" rx="1.89717" transform="rotate(-90 40.5469 140.086)" fill="black"/>
<rect x="35.6113" y="140.086" width="29.5843" height="3.79433" rx="1.89717" transform="rotate(-90 35.6113 140.086)" fill="black"/>
<path d="M30.2084 130.237C30.8358 133.058 28.5255 135.578 25.0482 135.866C21.5709 136.153 18.2433 134.099 17.6159 131.278L15.9022 123.572C15.3187 120.948 22.6503 119.281 26.4762 118.829C26.9884 118.768 27.5243 118.911 27.9722 119.205C29.1455 119.974 29.8774 121.182 29.9227 122.422L30.2084 130.237Z" fill="#D09D75"/>
<path d="M33.2463 129.288C32.8619 130.933 31.5208 131.942 30.2508 131.542C28.9807 131.141 28.2628 129.482 28.6471 127.837L29.6969 123.342C30.0813 121.697 31.4224 120.688 32.6924 121.089C33.9625 121.489 34.6804 123.148 34.2961 124.794L33.2463 129.288Z" fill="#D09D75"/>
<path d="M257.185 1.70933C258.616 1.22999 260.165 1.22999 261.597 1.70933L264.632 2.7258C265.293 2.94708 265.984 3.06766 266.68 3.08351L269.903 3.15679C271.502 3.19313 273.039 3.77953 274.255 4.8171L276.134 6.42047C276.726 6.92521 277.398 7.32704 278.123 7.60919L280.428 8.50647C282.147 9.17589 283.53 10.5017 284.27 12.1916L284.818 13.4419C285.187 14.2834 285.719 15.0434 286.384 15.6778L287.314 16.5657C288.852 18.0347 289.633 20.1277 289.433 22.2456L289.38 22.8047C289.283 23.8276 289.414 24.8592 289.764 25.8253L289.944 26.3213C290.695 28.3943 290.417 30.7007 289.196 32.5362L288.758 33.1944C288.211 34.0156 287.846 34.9437 287.686 35.917L287.545 36.7764C287.221 38.7459 286.066 40.4811 284.374 41.5399L282.772 42.5424C282.057 42.9902 281.429 43.5647 280.919 44.2377L279.753 45.7772C278.723 47.1373 277.229 48.071 275.555 48.4001L272.673 48.9666C271.959 49.107 271.272 49.3586 270.636 49.7123L268.092 51.127C266.754 51.8718 265.206 52.1531 263.691 51.9272L260.415 51.4389C259.736 51.3377 259.045 51.3377 258.366 51.4389L255.091 51.9272C253.575 52.1531 252.028 51.8718 250.689 51.127L248.145 49.7123C247.51 49.3586 246.822 49.107 246.108 48.9666L243.227 48.4001C241.553 48.071 240.058 47.1374 239.028 45.7772L237.862 44.2377C237.353 43.5647 236.725 42.9902 236.009 42.5424L234.407 41.5399C232.715 40.4811 231.56 38.7459 231.236 36.7764L231.095 35.917C230.935 34.9437 230.57 34.0156 230.024 33.1944L229.586 32.5362C228.364 30.7007 228.087 28.3943 228.837 26.3213L229.017 25.8253C229.367 24.8592 229.498 23.8276 229.401 22.8047L229.349 22.2456C229.148 20.1277 229.929 18.0347 231.468 16.5657L232.397 15.6778C233.062 15.0434 233.594 14.2834 233.963 13.4419L234.511 12.1916C235.252 10.5017 236.634 9.17589 238.354 8.50647L240.658 7.60919C241.383 7.32704 242.055 6.92521 242.647 6.42047L244.526 4.8171C245.743 3.77953 247.28 3.19313 248.878 3.15679L252.101 3.08351C252.798 3.06766 253.488 2.94708 254.149 2.72579L257.185 1.70933Z" fill="#815848" fill-opacity="0.99"/>
<path d="M258.488 43.6018C264.158 43.6018 268.723 50.1247 268.723 58.2279V64.2285C268.723 72.3317 264.158 78.8552 258.488 78.8552C252.818 78.8552 248.254 72.3317 248.254 64.2285V58.2279C248.254 50.1247 252.818 43.6018 258.488 43.6018Z" fill="#D09D75"/>
<path d="M256.875 45.3284H260.143C263.904 45.3284 266.932 49.537 266.932 54.7651V58.6363C266.932 63.8644 263.904 68.0729 260.143 68.0729H256.875C253.114 68.0729 250.086 63.8644 250.086 58.6363V54.7651C250.086 49.537 253.114 45.3284 256.875 45.3284Z" fill="#CC9B75"/>
<path d="M246.538 72.4897C245.845 72.4897 245.287 73.0442 245.287 73.733C245.287 74.4217 245.845 74.9754 246.538 74.9754H253.491L255.487 76.4218C256.048 76.8289 256.83 76.7071 257.239 76.149C257.649 75.5908 257.526 74.8141 256.965 74.407L254.898 72.9093C254.877 72.8939 254.853 72.8851 254.831 72.8711C254.604 72.6364 254.286 72.4897 253.932 72.4897H246.538ZM262.8 72.4897C262.445 72.4897 262.127 72.6364 261.9 72.8711C261.878 72.8851 261.854 72.8939 261.833 72.9093L259.766 74.407C259.205 74.8141 259.082 75.5908 259.492 76.149C259.901 76.7071 260.683 76.8289 261.243 76.4218L263.24 74.9754H270.193C270.886 74.9754 271.444 74.4217 271.444 73.733C271.444 73.0442 270.886 72.4897 270.193 72.4897H262.8Z" fill="#C68858"/>
<path d="M241.897 36.4851H275.801C279.69 36.4851 282.819 39.5972 282.819 43.4625C282.819 47.3278 279.69 50.4392 275.801 50.4392H241.897C238.009 50.4392 234.879 47.3278 234.879 43.4625C234.879 39.5972 238.009 36.4851 241.897 36.4851Z" fill="#D09D75"/>
<path d="M242.144 38.2595H275.554C278.454 38.2595 280.788 40.5802 280.788 43.4627C280.788 46.3452 278.454 48.6658 275.554 48.6658H242.144C239.245 48.6658 236.91 46.3452 236.91 43.4627C236.91 40.5802 239.245 38.2595 242.144 38.2595Z" fill="#C68858"/>
<path d="M255.039 16.8748H262.66C268.995 16.8748 279.013 25.765 279.013 34.5079V46.9129C279.013 55.6557 269.623 65.2244 262.896 65.2244H254.804C248.077 65.2244 238.688 55.6557 238.688 46.9129V34.5079C238.688 25.765 248.705 16.8748 255.039 16.8748Z" fill="#D09D75"/>
<path d="M257.134 60.5142H259.329C259.505 60.5142 259.647 60.6374 259.647 60.7899V60.9528C259.647 61.1053 259.505 61.2285 259.329 61.2285H257.134C256.958 61.2285 256.816 61.1053 256.816 60.9528V60.7899C256.816 60.6374 256.958 60.5142 257.134 60.5142Z" fill="#CC9B75"/>
<path d="M258.846 40.8708C260.191 40.8708 261.274 42.0092 261.274 43.4226V47.9267C261.274 49.3401 260.191 50.4784 258.846 50.4784C257.501 50.4784 256.418 49.3401 256.418 47.9267V43.4226C256.418 42.0092 257.501 40.8708 258.846 40.8708Z" fill="#C68858"/>
<path d="M262.895 47.5842C262.895 48.7108 261.935 49.6166 260.744 49.6166H256.952C255.761 49.6166 254.803 48.7108 254.803 47.5842C254.803 46.4583 255.761 45.5525 256.952 45.5525H260.744C261.935 45.5525 262.895 46.4583 262.895 47.5842Z" fill="#C68858"/>
<path d="M252.728 52.5449C252.447 52.5449 252.177 52.6351 251.977 52.795C251.777 52.9549 251.666 53.1728 251.666 53.3994V54.0426C251.666 55.3123 252.121 56.4755 252.924 57.3623C253.728 58.2498 254.944 58.8776 256.335 58.8776H261.269C262.66 58.8776 263.876 58.2498 264.68 57.3623C265.484 56.4755 265.939 55.3123 265.939 54.0426V53.3994C265.939 53.1728 265.826 52.9549 265.627 52.795C265.428 52.6351 265.157 52.5449 264.875 52.5449H252.728Z" fill="white"/>
<path d="M246.867 35.3424L253.697 35.8962C254.44 35.9563 254.989 36.5996 254.929 37.3374C254.868 38.076 254.221 38.6217 253.479 38.5616L246.648 38.0078C245.906 37.9477 245.356 37.3052 245.417 36.5666C245.477 35.828 246.124 35.2823 246.867 35.3424Z" fill="#4D4D4D"/>
<path d="M244.554 36.5459L245.898 35.6591C246.443 35.2997 247.172 35.4464 247.534 35.9877C247.896 36.5297 247.748 37.2551 247.204 37.6145L245.859 38.5013C245.315 38.8607 244.585 38.714 244.223 38.1727C243.862 37.6307 244.009 36.9053 244.554 36.5459Z" fill="#4D4D4D"/>
<path d="M270.832 35.3424L264.002 35.8962C263.259 35.9563 262.71 36.5996 262.77 37.3374C262.831 38.076 263.478 38.6217 264.22 38.5616L271.051 38.0078C271.793 37.9477 272.343 37.3052 272.282 36.5666C272.221 35.828 271.575 35.2823 270.832 35.3424Z" fill="#4D4D4D"/>
<path d="M273.145 36.5459L271.801 35.6591C271.256 35.2997 270.526 35.4464 270.165 35.9877C269.803 36.5297 269.951 37.2551 270.495 37.6145L271.84 38.5013C272.384 38.8607 273.114 38.714 273.475 38.1727C273.837 37.6307 273.69 36.9053 273.145 36.5459Z" fill="#4D4D4D"/>
<path d="M246.867 35.3424L253.697 35.8962C254.44 35.9563 254.989 36.5996 254.929 37.3374C254.868 38.076 254.221 38.6217 253.479 38.5616L246.648 38.0078C245.906 37.9477 245.356 37.3052 245.417 36.5666C245.477 35.828 246.124 35.2823 246.867 35.3424Z" fill="#4D4D4D"/>
<path d="M270.832 35.3424L264.002 35.8962C263.259 35.9563 262.71 36.5996 262.77 37.3374C262.831 38.076 263.478 38.6217 264.22 38.5616L271.051 38.0078C271.793 37.9477 272.343 37.3052 272.282 36.5666C272.221 35.828 271.575 35.2823 270.832 35.3424Z" fill="#4D4D4D"/>
<path d="M249.131 40.3672H250.024C250.836 40.3672 251.489 41.017 251.489 41.8231V43.8731C251.489 44.6792 250.836 45.3283 250.024 45.3283H249.131C248.319 45.3283 247.666 44.6792 247.666 43.8731V41.8231C247.666 41.017 248.319 40.3672 249.131 40.3672Z" fill="#61534B"/>
<path d="M266.671 40.3672H265.777C264.965 40.3672 264.312 41.017 264.312 41.8231V43.8731C264.312 44.6792 264.965 45.3283 265.777 45.3283H266.671C267.482 45.3283 268.135 44.6792 268.135 43.8731V41.8231C268.135 41.017 267.482 40.3672 266.671 40.3672Z" fill="#61534B"/>
<path fill-rule="evenodd" clip-rule="evenodd" d="M260.981 24.7021C259.577 24.1379 258.01 24.1379 256.606 24.7021L255.309 25.2233C254.391 25.5925 253.394 25.7232 252.411 25.6032L250.341 25.3502C248.834 25.1662 247.325 25.6698 246.231 26.7216C245.424 27.4982 244.381 27.9839 243.266 28.1021L240.873 28.3561C239.766 28.4737 238.872 29.3143 238.686 30.4127L238.685 30.4174V16.8748H279.012V31.0727L278.9 30.4127C278.715 29.3143 277.821 28.4737 276.713 28.3561L274.32 28.1021C273.206 27.9839 272.163 27.4982 271.355 26.7216C270.261 25.6698 268.752 25.1662 267.246 25.3502L265.176 25.6032C264.193 25.7232 263.196 25.5925 262.277 25.2233L260.981 24.7021Z" fill="#815848" fill-opacity="0.99"/>
<path d="M68.1139 48.1433C68.1139 40.3387 62.8305 34.0122 56.3116 34.0122C49.7919 34.0122 44.5078 40.3387 44.5078 48.1433V53.9412C44.5078 61.7458 49.7919 68.0731 56.3116 68.0731C62.8305 68.0731 68.1139 61.7458 68.1139 53.9412V48.1433Z" fill="#D09D75"/>
<path d="M51.972 64.6496L45.5297 61.5536C44.8126 61.2087 43.9524 61.5106 43.6075 62.2269C43.2626 62.9448 43.5645 63.8042 44.2816 64.1491L50.7247 67.2467C51.441 67.5915 52.302 67.2897 52.6469 66.5718C52.9917 65.8555 52.6899 64.9945 51.972 64.6496Z" fill="#C68858"/>
<path d="M59.8023 64.6493L66.2454 61.5533C66.9625 61.2085 67.8235 61.5103 68.1684 62.2266C68.5117 62.9445 68.2106 63.804 67.4935 64.1488L61.0512 67.2464C60.3333 67.5913 59.4731 67.2894 59.129 66.5715C58.7841 65.8552 59.086 64.9942 59.8023 64.6493Z" fill="#C68858"/>
<path d="M58.3291 34.9624H53.7512C48.496 34.9624 44.2363 39.2221 44.2363 44.4765V48.3803C44.2363 53.6347 48.496 57.8944 53.7512 57.8944H58.3291C63.5835 57.8944 67.8432 53.6347 67.8432 48.3803V44.4765C67.8432 39.2221 63.5835 34.9624 58.3291 34.9624Z" fill="#C68858"/>
<path d="M73.1649 26.6816H39.9001C36.0972 26.6816 33.0137 29.8308 33.0137 33.7159C33.0137 37.6018 36.0972 40.751 39.9001 40.751H73.1649C76.9679 40.751 80.0522 37.6018 80.0522 33.7159C80.0522 29.8308 76.9679 26.6816 73.1649 26.6816Z" fill="#D09D75"/>
<path d="M72.6687 27.7451H39.791C36.946 27.7451 34.6406 30.0935 34.6406 32.9909C34.6406 35.8883 36.946 38.2375 39.791 38.2375H72.6687C75.5129 38.2375 77.8191 35.8883 77.8191 32.9909C77.8191 30.0935 75.5129 27.7451 72.6687 27.7451Z" fill="#C68858"/>
<path d="M61.1602 6.22949H51.3138C43.1565 6.22949 36.543 12.8423 36.543 21.0003V38.505C36.543 46.6638 43.1565 53.2774 51.3138 53.2774H61.1602C69.3174 53.2774 75.931 46.6638 75.931 38.505V21.0003C75.931 12.8423 69.3174 6.22949 61.1602 6.22949Z" fill="#D09D75"/>
<path d="M60.8491 51.2744H51.6486C50.6539 51.2744 49.8477 52.0815 49.8477 53.0754C49.8477 54.0709 50.6539 54.878 51.6486 54.878H60.8491C61.8438 54.878 62.6501 54.0709 62.6501 53.0754C62.6501 52.0815 61.8438 51.2744 60.8491 51.2744Z" fill="#D09D75"/>
<path d="M57.7346 49.2607H55.0742C54.8615 49.2607 54.6895 49.4336 54.6895 49.6463V49.8731C54.6895 50.0858 54.8615 50.2586 55.0742 50.2586H57.7346C57.9466 50.2586 58.1194 50.0858 58.1194 49.8731V49.6463C58.1194 49.4336 57.9466 49.2607 57.7346 49.2607Z" fill="#C68858"/>
<path d="M59.1127 32.2443C59.1127 30.6466 57.8185 29.3516 56.22 29.3516C54.6231 29.3516 53.3281 30.6466 53.3281 32.2443V37.3477C53.3281 38.9446 54.6231 40.2404 56.22 40.2404C57.8185 40.2404 59.1127 38.9446 59.1127 37.3477V32.2443Z" fill="#C68858"/>
<path d="M55.9021 38.0202L53.2127 35.7344C52.7677 35.3567 52.1014 35.4106 51.7237 35.8548C51.3468 36.2998 51.4 36.9661 51.8449 37.3438L54.5343 39.6296C54.9785 40.0065 55.6456 39.9526 56.0225 39.5084C56.4002 39.0642 56.3462 38.3972 55.9021 38.0202Z" fill="#C68858"/>
<path d="M56.6402 38.02L59.3295 35.7341C59.7737 35.3564 60.44 35.4104 60.8177 35.8546C61.1954 36.2995 61.1407 36.9658 60.6973 37.3435L58.0072 39.6294C57.5622 40.0063 56.8967 39.9523 56.519 39.5082C56.1413 39.064 56.1952 38.3969 56.6402 38.02Z" fill="#C68858"/>
<path d="M54.4063 26.9499C54.4063 26.5018 54.0434 26.1389 53.5961 26.1389C53.148 26.1389 52.7852 26.5018 52.7852 26.9499V27.9313C52.7852 28.3786 53.148 28.7423 53.5961 28.7423C54.0434 28.7423 54.4063 28.3786 54.4063 27.9313V26.9499Z" fill="#C68858"/>
<path d="M59.7891 26.9499C59.7891 26.5018 59.427 26.1389 58.9781 26.1389C58.5308 26.1389 58.168 26.5018 58.168 26.9499V27.9313C58.168 28.3786 58.5308 28.7423 58.9781 28.7423C59.427 28.7423 59.7891 28.3786 59.7891 27.9313V26.9499Z" fill="#C68858"/>
<path d="M49.2137 28.6275C49.2137 27.628 48.4035 26.8179 47.4041 26.8179C46.4039 26.8179 45.5938 27.628 45.5938 28.6275V29.3524C45.5938 30.3518 46.4039 31.162 47.4041 31.162C48.4035 31.162 49.2137 30.3518 49.2137 29.3524V28.6275Z" fill="#61534B"/>
<path d="M66.8153 28.6275C66.8153 27.628 66.0051 26.8179 65.0057 26.8179C64.0055 26.8179 63.1953 27.628 63.1953 28.6275V29.3516C63.1953 30.3518 64.0055 31.162 65.0057 31.162C66.0051 31.162 66.8153 30.3518 66.8153 29.3516V28.6275Z" fill="#61534B"/>
<path d="M59.6464 47.2418C62.3107 47.2418 64.455 44.9512 64.455 42.1055V41.2742H48.2617V42.1055C48.2617 44.9512 50.4068 47.2418 53.0704 47.2418H59.6464Z" fill="white"/>
<path fill-rule="evenodd" clip-rule="evenodd" d="M68.9335 25.1028C68.9335 24.8878 68.7583 24.7134 68.5433 24.7134H63.0848C62.8697 24.7134 62.6953 24.8878 62.6953 25.1028V25.8825C62.6953 26.0983 62.8697 26.2727 63.0848 26.2727H68.5433C68.7583 26.2727 68.9335 26.0983 68.9335 25.8825V25.1028Z" fill="#61534B"/>
<path fill-rule="evenodd" clip-rule="evenodd" d="M50.1999 25.0801C50.1999 24.8651 50.0247 24.6907 49.8097 24.6907H44.3512C44.1361 24.6907 43.9609 24.8651 43.9609 25.0801V25.8606C43.9609 26.0756 44.1361 26.25 44.3512 26.25H49.8097C50.0247 26.25 50.1999 26.0756 50.1999 25.8606V25.0801Z" fill="#61534B"/>
<path fill-rule="evenodd" clip-rule="evenodd" d="M44.4024 50.9564C39.6969 47.4123 36.8434 43.6797 37.4346 38.9446L45.182 48.6166" fill="#815848"/>
<path fill-rule="evenodd" clip-rule="evenodd" d="M68.5824 50.9556C72.9297 48.4047 77.0454 42.4347 75.5502 38.9446L67.8027 48.6166" fill="#815848"/>
<path d="M50.18 37.2258C46.9362 37.2258 44.3242 39.794 44.3242 42.9854V49.7217C44.3242 52.9124 46.9362 55.4805 50.18 55.4805H62.7431C65.9869 55.4805 68.5989 52.9124 68.5989 49.7217V42.9854C68.5989 39.794 65.9869 37.2258 62.7431 37.2258H61.5146C61.5576 37.577 61.4262 37.9414 61.1306 38.1885L60.634 38.6037C60.9288 38.8751 61.1478 39.2255 61.2424 39.6266H62.9472C64.7607 39.6266 66.2208 41.0624 66.2208 42.8462V45.7436C66.2208 46.42 66.0104 47.0464 65.6499 47.5633V48.3579C65.6499 50.9049 63.5658 52.9546 60.9758 52.9546H51.9473C49.3573 52.9546 47.2732 50.9049 47.2732 48.3579V47.5633C46.9127 47.0464 46.7016 46.42 46.7016 45.7436V42.8462C46.7016 41.0624 48.1624 39.6266 49.9759 39.6266H51.048C51.1763 39.087 51.5227 38.6342 51.9872 38.3527L51.7925 38.1885C51.4961 37.9414 51.3655 37.577 51.4085 37.2258H50.18Z" fill="#815848"/>
<path d="M47.2409 6.12769C40.2364 6.12769 34.5977 12.0937 34.5977 19.5072C34.5977 19.8541 34.6138 20.1978 34.6383 20.5399C34.6138 20.7137 34.5977 20.8915 34.5977 21.0732V29.2689C34.5977 31.0284 35.7722 32.4854 37.3406 32.8156V22.1193C37.3406 14.4632 43.1659 8.29888 50.4015 8.29888H60.6195C67.8543 8.29888 73.6803 14.4632 73.6803 22.1193V32.8291C75.2925 32.5383 76.5147 31.0616 76.5147 29.2689V21.0732C76.5147 20.8915 76.497 20.7137 76.4732 20.5399C76.4978 20.1978 76.5147 19.8541 76.5147 19.5072C76.5147 12.0937 70.8752 6.12769 63.8707 6.12769H47.2409Z" fill="#82594A"/>
<path d="M61.5985 4.50415H50.2074C46.3705 4.50415 43.2598 7.7957 43.2598 11.8576C43.2598 15.9179 46.3705 19.2095 50.2074 19.2095H61.5985C65.4355 19.2095 68.5462 15.9179 68.5462 11.8576C68.5462 7.7957 65.4355 4.50415 61.5985 4.50415Z" fill="#82594A"/>
<path d="M47.1896 9.14369C47.1896 7.99568 46.3098 7.06494 45.2243 7.06494C44.1396 7.06494 43.2598 7.99568 43.2598 9.14369V13.9657C43.2598 15.1129 44.1396 16.0444 45.2243 16.0444C46.3098 16.0444 47.1896 15.1129 47.1896 13.9657V9.14369Z" fill="#82594A"/>
<path d="M69.4896 9.41792C69.4896 8.26912 68.6106 7.33838 67.5251 7.33838C66.4396 7.33838 65.5605 8.26912 65.5605 9.41792V14.2383C65.5605 15.3871 66.4396 16.3178 67.5251 16.3178C68.6106 16.3178 69.4896 15.3871 69.4896 14.2383V9.41792Z" fill="#82594A"/>
<path d="M42.4466 11.499C42.3437 10.7421 41.6797 10.2159 40.9642 10.3242C40.2479 10.4332 39.7504 11.1364 39.8533 11.8941L40.1857 14.3394C40.2878 15.0972 40.9519 15.6234 41.6681 15.5143C42.3844 15.4053 42.8811 14.7037 42.7782 13.9452L42.4466 11.499Z" fill="#82594A"/>
<path d="M70.1271 12.1619C70.2292 11.4042 70.8933 10.8788 71.6096 10.987C72.3258 11.0961 72.8225 11.7985 72.7196 12.557L72.388 15.0023C72.2851 15.76 71.6211 16.2862 70.9056 16.1772C70.1893 16.0682 69.6918 15.3665 69.7947 14.608L70.1271 12.1619Z" fill="#82594A"/>
<path d="M47.2409 6.12769C40.2364 6.12769 34.5977 12.0937 34.5977 19.5072C34.5977 19.8541 34.6138 20.1978 34.6383 20.5399C34.6138 20.7137 34.5977 20.8915 34.5977 21.0732V29.2689C34.5977 31.0284 35.7722 32.4854 37.3406 32.8156V22.1193C37.3406 14.4632 43.1659 8.29888 50.4015 8.29888H60.6195C67.8543 8.29888 73.6803 14.4632 73.6803 22.1193V32.8291C75.2925 32.5383 76.5147 31.0616 76.5147 29.2689V21.0732C76.5147 20.8915 76.497 20.7137 76.4732 20.5399C76.4978 20.1978 76.5147 19.8541 76.5147 19.5072C76.5147 12.0937 70.8752 6.12769 63.8707 6.12769H47.2409Z" fill="#82594A"/>
<path d="M49.4777 212.301H37.4591C36.8206 212.301 36.3027 212.98 36.3027 213.818V227.107C36.3027 227.945 36.8206 228.623 37.4591 228.623H49.4777C50.1161 228.623 50.6348 227.945 50.6348 227.107V213.818C50.6348 212.98 50.1161 212.301 49.4777 212.301Z" fill="white"/>
<path d="M44.262 216.981H40.3233C39.3876 216.981 38.6289 217.943 38.6289 219.128V221.054C38.6289 222.24 39.3876 223.201 40.3233 223.201H44.262C45.1984 223.201 45.9564 222.24 45.9564 221.054V219.128C45.9564 217.943 45.1984 216.981 44.262 216.981Z" fill="#4B4B4B"/>
<path d="M45.721 220.289H39.5474C35.9879 220.289 33.1016 223.727 33.1016 227.97C33.1016 232.213 35.9879 235.651 39.5474 235.651H45.721C49.2805 235.651 52.166 232.213 52.166 227.97C52.166 223.727 49.2805 220.289 45.721 220.289Z" fill="#4F4F4F"/>
<path d="M50.624 227.267H34.9416C33.6924 227.267 32.6797 228.438 32.6797 229.882V233.303C32.6797 234.748 33.6924 235.919 34.9416 235.919H50.624C51.874 235.919 52.8867 234.748 52.8867 233.303V229.882C52.8867 228.438 51.874 227.267 50.624 227.267Z" fill="#4F4F4F"/>
<path d="M51.3278 232.754H34.2023C33.7666 232.754 33.4141 233.182 33.4141 233.711V234.962C33.4141 235.491 33.7666 235.92 34.2023 235.92H51.3278C51.7627 235.92 52.1152 235.491 52.1152 234.962V233.711C52.1152 233.182 51.7627 232.754 51.3278 232.754Z" fill="white"/>
<path d="M44.6757 220.674H40.0712C39.8311 220.674 39.6367 220.921 39.6367 221.225C39.6367 221.529 39.8311 221.775 40.0712 221.775H44.6757C44.9151 221.775 45.1102 221.529 45.1102 221.225C45.1102 220.921 44.9151 220.674 44.6757 220.674Z" fill="white"/>
<path d="M38.8968 224.196H36.6845C35.9047 224.196 35.2715 224.997 35.2715 225.986C35.2715 226.975 35.9047 227.777 36.6845 227.777H38.8968C39.6773 227.777 40.309 226.975 40.309 225.986C40.309 224.997 39.6773 224.196 38.8968 224.196Z" fill="#585858"/>
<path d="M44.6757 222.436H40.0712C39.8311 222.436 39.6367 222.682 39.6367 222.986C39.6367 223.289 39.8311 223.535 40.0712 223.535H44.6757C44.9151 223.535 45.1102 223.289 45.1102 222.986C45.1102 222.682 44.9151 222.436 44.6757 222.436Z" fill="white"/>
<path d="M74.7448 212.3H62.4903C61.8393 212.3 61.3105 212.979 61.3105 213.817V227.106C61.3105 227.944 61.8393 228.623 62.4903 228.623H74.7448C75.3958 228.623 75.9238 227.944 75.9238 227.106V213.817C75.9238 212.979 75.3958 212.3 74.7448 212.3Z" fill="white"/>
<path d="M70.6616 217.003H66.7724C65.8487 217.003 65.0996 217.965 65.0996 219.149V221.076C65.0996 222.261 65.8487 223.222 66.7724 223.222H70.6616C71.5854 223.222 72.3344 222.261 72.3344 221.076V219.149C72.3344 217.965 71.5854 217.003 70.6616 217.003Z" fill="#4B4B4B"/>
<path d="M72.8801 220.289H66.7078C63.1478 220.289 60.2617 223.727 60.2617 227.97C60.2617 232.213 63.1478 235.651 66.7078 235.651H72.8801C76.44 235.651 79.5859 232.273 79.5859 228.031C79.5859 223.788 76.44 220.289 72.8801 220.289Z" fill="#4F4F4F"/>
<path d="M77.6752 227.267H61.9752C60.7255 227.267 59.7109 228.406 59.7109 229.81V233.137C59.7109 234.543 60.7255 235.682 61.9752 235.682H77.6752C78.9257 235.682 79.9395 234.543 79.9395 233.137V229.81C79.9395 228.406 78.9257 227.267 77.6752 227.267Z" fill="#4F4F4F"/>
<path d="M78.91 232.754H60.9384C60.482 232.754 60.1113 233.182 60.1113 233.711V234.962C60.1113 235.491 60.482 235.92 60.9384 235.92H78.91C79.3664 235.92 79.7363 235.491 79.7363 234.962V233.711C79.7363 233.182 79.3664 232.754 78.91 232.754Z" fill="white"/>
<path d="M71.7587 220.674H67.2121C66.9751 220.674 66.7832 220.921 66.7832 221.225C66.7832 221.529 66.9751 221.775 67.2121 221.775H71.7587C71.995 221.775 72.1876 221.529 72.1876 221.225C72.1876 220.921 71.995 220.674 71.7587 220.674Z" fill="white"/>
<path d="M73.2796 224.239H71.0961C70.3256 224.239 69.7012 225.041 69.7012 226.029C69.7012 227.018 70.3256 227.819 71.0961 227.819H73.2796C74.0501 227.819 74.6745 227.018 74.6745 226.029C74.6745 225.041 74.0501 224.239 73.2796 224.239Z" fill="#585858"/>
<path d="M71.7587 222.457H67.2121C66.9751 222.457 66.7832 222.704 66.7832 223.007C66.7832 223.311 66.9751 223.557 67.2121 223.557H71.7587C71.995 223.557 72.1876 223.311 72.1876 223.007C72.1876 222.704 71.995 222.457 71.7587 222.457Z" fill="white"/>
</svg>
