<svg width="355" height="355" viewBox="0 0 355 355" fill="none" xmlns="http://www.w3.org/2000/svg">
<path d="M203.654 136.684L203.641 136.624C202.824 132.781 207.271 129.681 213.572 129.701L224.917 128.289L231.273 126.499C233.579 125.849 235.607 124.622 237.22 122.9L239.86 120.079C244.049 115.605 251.504 116.123 257.215 121.284C260.21 123.992 264.044 125.098 267.281 127.377C270.79 129.846 273.216 134.197 273.777 136.838L273.79 136.898C274.407 139.804 272.015 142.285 268.087 143.314C265.476 143.998 262.894 144.905 261.128 146.889C260.102 148.041 258.816 148.897 257.348 149.405L253.494 150.739C249.385 152.161 244.698 152.161 239.977 150.738L220.048 144.733C217.722 144.032 215.399 143.783 213.075 143.352C208.246 142.455 204.317 139.804 203.654 136.684Z" fill="#81584A"/>
<path d="M272.845 146.066L272.777 146.073C268.43 146.482 264.261 142.661 263.467 137.537L257.998 118.124L257.498 99.0658C256.703 93.9423 259.583 89.4569 263.931 89.0473L263.999 89.0409C268.346 88.6313 275.097 91.6378 275.892 96.7612L281.86 135.233C282.655 140.356 277.193 145.657 272.845 146.066Z" fill="#81584A"/>
<path d="M278.432 144.315C275.963 148.341 270.625 149.169 266.51 146.164C262.394 143.158 261.061 137.459 263.53 133.433L267.042 127.708C269.512 123.682 274.849 122.854 278.965 125.859C283.08 128.864 284.413 134.564 281.944 138.59L278.432 144.315Z" fill="#906253"/>
<path d="M278.782 142.564C278.393 143.187 277.042 142.944 275.764 142.02C274.487 141.095 273.766 139.841 274.155 139.217L276.708 135.124C277.097 134.5 278.448 134.744 279.725 135.668C281.003 136.592 281.723 137.847 281.334 138.471L278.782 142.564Z" fill="#9D6B5A"/>
<path d="M271.697 97.1348L273.787 95.1715C277.792 91.4087 277.496 83.8873 273.126 78.3721L269.244 73.4723C264.874 67.9571 258.084 66.5365 254.079 70.2993L251.989 72.2626C247.984 76.0255 248.279 83.5469 252.649 89.0621L256.532 93.9619C260.902 99.4771 267.691 100.898 271.697 97.1348Z" fill="#906253"/>
<path d="M259.227 84.6272C263.03 87.0932 267.709 85.7058 269.68 81.5283C271.651 77.3508 270.166 71.9651 266.363 69.4991L255.978 62.7637C252.516 60.5181 246.988 68.3084 244.54 72.8733C244.123 73.6501 244.065 74.61 244.332 75.4821C244.885 77.293 246.096 78.7384 247.64 79.4306L259.227 84.6272Z" fill="#906253"/>
<path d="M254.089 92.623C256.027 95.0533 258.995 95.7161 260.717 94.1035C262.44 92.491 262.265 89.2136 260.327 86.7834L255.033 80.1456C253.095 77.7153 250.127 77.0525 248.405 78.665C246.682 80.2776 246.857 83.555 248.795 85.9852L254.089 92.623Z" fill="#9D6B5A"/>
<path d="M152.716 136.452L152.728 136.392C153.545 132.549 149.098 129.45 142.797 129.469L131.452 128.058L125.096 126.267C122.79 125.618 120.762 124.39 119.15 122.668L116.509 119.847C112.32 115.373 104.865 115.891 99.154 121.053C96.1589 123.76 92.3255 124.866 89.0881 127.145C85.5796 129.614 83.153 133.966 82.5919 136.607L82.5791 136.667C81.9617 139.573 84.3541 142.054 88.2823 143.082C90.8934 143.766 93.4754 144.673 95.2414 146.657C96.2676 147.809 97.553 148.665 99.021 149.173L102.875 150.507C106.985 151.929 111.672 151.929 116.392 150.507L136.322 144.501C138.647 143.8 140.971 143.552 143.294 143.12C148.123 142.224 152.053 139.573 152.716 136.452Z" fill="#81584A"/>
<path d="M83.522 145.834L83.59 145.841C87.9373 146.25 92.1058 142.429 92.9007 137.306L98.3691 117.892L98.8689 98.8339C99.6638 93.7104 96.7839 89.225 92.4366 88.8154L92.3686 88.809C88.0212 88.3994 81.2699 91.4058 80.4751 96.5293L74.5068 135.001C73.712 140.124 79.1746 145.425 83.522 145.834Z" fill="#81584A"/>
<path d="M77.935 144.083C80.4047 148.109 85.7426 148.937 89.8577 145.932C93.9727 142.927 95.3065 137.227 92.8369 133.201L89.3253 127.476C86.8557 123.45 81.5177 122.622 77.4027 125.627C73.2877 128.632 71.9538 134.332 74.4235 138.358L77.935 144.083Z" fill="#906253"/>
<path d="M77.5854 142.332C77.9743 142.956 79.3252 142.712 80.6028 141.788C81.8803 140.863 82.6008 139.609 82.2119 138.985L79.6593 134.892C79.2705 134.268 77.9195 134.512 76.642 135.436C75.3644 136.36 74.644 137.615 75.0329 138.239L77.5854 142.332Z" fill="#9D6B5A"/>
<path d="M84.6705 96.9029L82.5806 94.9396C78.5752 91.1767 78.8707 83.6554 83.2407 78.1401L87.1231 73.2404C91.4931 67.7251 98.2828 66.3045 102.288 70.0674L104.378 72.0307C108.384 75.7935 108.088 83.3149 103.718 88.8302L99.8356 93.7299C95.4656 99.2452 88.676 100.666 84.6705 96.9029Z" fill="#906253"/>
<path d="M97.1399 84.3953C93.3377 86.8613 88.6578 85.4739 86.6872 81.2964C84.7166 77.1188 86.2015 71.7332 90.0037 69.2672L100.389 62.5318C103.851 60.2861 109.379 68.0764 111.828 72.6414C112.244 73.4182 112.302 74.378 112.036 75.2501C111.482 77.0611 110.271 78.5065 108.727 79.1986L97.1399 84.3953Z" fill="#906253"/>
<path d="M102.278 92.3911C100.34 94.8213 97.3725 95.4842 95.6501 93.8716C93.9276 92.259 94.1024 88.9817 96.0406 86.5514L101.334 79.9136C103.272 77.4834 106.24 76.8205 107.962 78.4331C109.685 80.0457 109.51 83.3231 107.572 85.7533L102.278 92.3911Z" fill="#9D6B5A"/>
<path d="M162.801 272.293L160.571 272.293C155.263 272.293 150.96 276.596 150.96 281.904L150.96 306.86L150.96 324.731L149.039 343.047C149.039 347.049 152.965 350.293 157.809 350.293H159.853C164.697 350.293 168.623 347.049 168.623 343.047V316.304C168.623 314.441 169.077 312.607 169.947 310.96C170.817 309.313 171.271 307.479 171.271 305.616V302.101C171.271 300.04 171.016 297.987 170.511 295.989C170.006 293.991 169.751 291.938 169.751 289.877V279.243C169.751 278.834 169.715 278.427 169.643 278.025C169.053 274.708 166.169 272.293 162.801 272.293Z" fill="#906253"/>
<path d="M161.198 199.792H148.102C147.46 199.792 146.939 200.312 146.939 200.954L142.732 240.192V254.332C142.732 255.773 142.85 257.213 143.085 258.635L144.16 265.157C144.662 268.201 145.692 271.134 147.205 273.823L150.114 278.996C150.698 280.033 151.004 281.204 151.004 282.394C151.004 286.222 154.108 289.325 157.936 289.325H162.296C166.394 289.325 169.717 286.003 169.717 281.904C169.717 281.027 169.872 280.157 170.176 279.335L171.165 276.654C171.59 275.502 171.924 274.32 172.163 273.117L173.659 265.601L175.163 255.578C175.359 254.278 175.457 252.965 175.457 251.65V234.473V214.051C175.457 206.176 169.073 199.792 161.198 199.792Z" fill="#81584A"/>
<path d="M163.016 334.956H154.781C150.033 334.956 146.184 338.389 146.184 342.624C146.184 346.86 150.033 350.293 154.781 350.293H163.016C167.765 350.293 171.614 346.86 171.614 342.624C171.614 338.389 167.765 334.956 163.016 334.956Z" fill="#9D6B5A"/>
<path d="M168.767 341.893H149.031C147.458 341.893 146.184 343.03 146.184 344.432V347.753C146.184 349.156 147.458 350.293 149.031 350.293H168.767C170.339 350.293 171.614 349.156 171.614 347.753V344.432C171.614 343.03 170.339 341.893 168.767 341.893Z" fill="#9D6B5A"/>
<path d="M207.838 162.875C207.838 143.075 191.917 135.437 175.764 135.437C159.611 135.437 144.863 143.075 144.863 162.875L146.516 197.19C146.516 216.991 159.611 233.042 175.764 233.042C191.917 233.042 205.012 221.5 205.012 201.7L207.838 162.875Z" fill="#81584A"/>
<path d="M215.872 118.337H135.16C126.423 118.337 119.34 125.42 119.34 134.157C119.34 142.894 126.423 149.977 135.16 149.977H215.872C224.609 149.977 231.692 142.894 231.692 134.157C231.692 125.42 224.609 118.337 215.872 118.337Z" fill="#906253"/>
<path d="M218.626 142.303C218.626 123.949 199.438 109.071 175.768 109.071C152.098 109.071 132.91 123.949 132.91 142.303C132.91 160.656 152.098 175.535 175.768 175.535C199.438 175.535 218.626 160.656 218.626 142.303Z" fill="#81584A"/>
<path d="M178.133 163.72H173.399C162.109 163.72 152.957 172.004 152.957 182.223V195.591C152.957 205.81 162.109 214.094 173.399 214.094H178.133C189.423 214.094 198.575 205.81 198.575 195.591V182.223C198.575 172.004 189.423 163.72 178.133 163.72Z" fill="#906253"/>
<path d="M197.925 118.262H153.611C142.178 118.262 132.91 126.419 132.91 136.482V147.463C132.91 157.526 142.178 165.684 153.611 165.684H197.925C209.358 165.684 218.626 157.526 218.626 147.463V136.482C218.626 126.419 209.358 118.262 197.925 118.262Z" fill="#906253"/>
<path d="M201.792 118.262H149.744C140.447 118.262 132.91 125.843 132.91 135.194V145.399C132.91 154.751 140.447 162.331 149.744 162.331H201.792C211.089 162.331 218.626 154.751 218.626 145.399V135.194C218.626 125.843 211.089 118.262 201.792 118.262Z" fill="#9D6B5A"/>
<path d="M179.267 155.344C179.267 154.19 177.651 153.254 175.657 153.254C173.663 153.254 172.047 154.19 172.047 155.344V159.398C172.047 160.552 173.663 161.488 175.657 161.488C177.651 161.488 179.267 160.552 179.267 159.398V155.344Z" fill="#81584A"/>
<path d="M194.495 148.972H186.081C183.664 148.972 181.705 150.741 181.705 152.923C181.705 155.104 183.664 156.873 186.081 156.873H194.495C196.912 156.873 198.871 155.104 198.871 152.923C198.871 150.741 196.912 148.972 194.495 148.972Z" fill="#AC7967"/>
<path d="M164.794 148.972H156.38C153.963 148.972 152.004 150.741 152.004 152.923C152.004 155.105 153.963 156.873 156.38 156.873H164.794C167.211 156.873 169.17 155.105 169.17 152.923C169.17 150.741 167.211 148.972 164.794 148.972Z" fill="#AC7967"/>
<path d="M191.084 104.655C191.084 94.5277 184.227 86.3182 175.768 86.3182C167.31 86.3182 160.453 94.5277 160.453 104.655V112.177C160.453 122.304 167.31 130.514 175.768 130.514C184.227 130.514 191.084 122.304 191.084 112.177V104.655Z" fill="#9D6B5A"/>
<path d="M152.709 157.078H149.645C148.422 157.078 147.432 157.973 147.432 159.076C147.432 160.18 148.422 161.074 149.645 161.074H152.709C153.931 161.074 154.922 160.18 154.922 159.076C154.922 157.973 153.931 157.078 152.709 157.078Z" fill="#81584A"/>
<path d="M202.799 157.079H199.735C198.512 157.079 197.521 157.973 197.521 159.077C197.521 160.18 198.512 161.074 199.735 161.074H202.799C204.021 161.074 205.012 160.18 205.012 159.077C205.012 157.973 204.021 157.079 202.799 157.079Z" fill="#81584A"/>
<path d="M178.738 86.3182H172.798C165.98 86.3182 160.453 91.8454 160.453 98.6635V103.728C160.453 110.546 165.98 116.074 172.798 116.074H178.738C185.556 116.074 191.084 110.546 191.084 103.728V98.6635C191.084 91.8454 185.556 86.3182 178.738 86.3182Z" fill="#81584A"/>
<path d="M136.798 120.932H134.942C129.986 120.932 125.969 124.949 125.969 129.905C125.969 134.86 129.986 138.878 134.942 138.878H136.798C141.754 138.878 145.771 134.86 145.771 129.905C145.771 124.949 141.754 120.932 136.798 120.932Z" fill="#9D6B5A"/>
<path d="M216.872 121.807H215.016C210.06 121.807 206.043 125.824 206.043 130.78C206.043 135.735 210.06 139.753 215.016 139.753H216.872C221.828 139.753 225.845 135.735 225.845 130.78C225.845 125.824 221.828 121.807 216.872 121.807Z" fill="#9D6B5A"/>
<path d="M136.669 123.947H133.884C132.346 123.947 131.1 125.194 131.1 126.732C131.1 128.27 132.346 129.516 133.884 129.516H136.669C138.207 129.516 139.454 128.27 139.454 126.732C139.454 125.194 138.207 123.947 136.669 123.947Z" fill="#AC7967"/>
<path d="M220.247 124.166H217.462C215.924 124.166 214.678 125.412 214.678 126.95C214.678 128.488 215.924 129.735 217.462 129.735H220.247C221.785 129.735 223.032 128.488 223.032 126.95C223.032 125.412 221.785 124.166 220.247 124.166Z" fill="#AC7967"/>
<path d="M189.961 270.237L192.074 270.237C197.373 270.237 201.669 274.533 201.669 279.832L201.669 305.532L201.669 323.778L203.59 342.48C203.59 346.566 199.664 349.879 194.82 349.879H192.776C187.932 349.879 184.006 346.566 184.006 342.48V314.659C184.006 312.869 183.55 311.109 182.682 309.544C181.813 307.979 181.358 306.218 181.358 304.429V300.595C181.358 298.542 181.607 296.497 182.1 294.504L182.118 294.432C182.623 292.391 182.878 290.297 182.878 288.195V277.32C182.878 276.912 182.914 276.505 182.984 276.103C183.575 272.712 186.518 270.237 189.961 270.237Z" fill="#906253"/>
<path d="M192.506 199.792H200.148C202.118 199.792 203.87 201.041 204.512 202.903C204.607 203.179 204.675 203.462 204.717 203.751L209.629 237.936C209.809 239.183 209.898 240.441 209.898 241.7V253.773C209.898 255.229 209.778 256.681 209.539 258.117L208.484 264.46C207.973 267.526 206.927 270.478 205.392 273.18L202.52 278.238C201.935 279.27 201.627 280.436 201.627 281.622C201.627 285.407 198.558 288.476 194.773 288.476H190.255C186.2 288.476 182.914 285.189 182.914 281.135C182.914 280.26 182.757 279.392 182.452 278.572L181.465 275.924C181.041 274.784 180.707 273.613 180.468 272.421L178.972 264.977L177.473 255.085C177.274 253.773 177.174 252.448 177.174 251.121V234.144V215.124C177.174 206.656 184.039 199.792 192.506 199.792Z" fill="#81584A"/>
<path d="M190.523 334.595H198.758C203.506 334.595 207.355 338.017 207.355 342.237C207.355 346.458 203.506 349.879 198.758 349.879H190.523C185.775 349.879 181.925 346.458 181.925 342.237C181.925 338.017 185.775 334.595 190.523 334.595Z" fill="#9D6B5A"/>
<path d="M184.772 337.741H204.508C206.081 337.741 207.355 339.384 207.355 341.411V346.209C207.355 348.236 206.081 349.878 204.508 349.878H184.772C183.2 349.878 181.925 348.236 181.925 346.209V341.411C181.925 339.384 183.2 337.741 184.772 337.741Z" fill="#9D6B5A"/>
<path d="M198.265 75.5873H155.818C150.965 75.5873 147.031 79.6739 147.031 84.715C147.031 89.7561 150.965 93.8427 155.818 93.8427H198.265C203.118 93.8427 207.052 89.7561 207.052 84.715C207.052 79.6739 203.118 75.5873 198.265 75.5873Z" fill="#9D6B5A"/>
<path d="M197.926 77.0698H154.477C150.718 77.0698 147.67 80.1175 147.67 83.8769C147.67 87.6364 150.718 90.6841 154.477 90.6841H197.926C201.686 90.6841 204.733 87.6364 204.733 83.8769C204.733 80.1175 201.686 77.0698 197.926 77.0698Z" fill="#81584A"/>
<path d="M182.592 49.0931H169.817C159.231 49.0931 150.65 57.6741 150.65 68.2593V90.9719C150.65 101.557 159.231 110.138 169.817 110.138H182.592C193.177 110.138 201.758 101.557 201.758 90.9719V68.2593C201.758 57.6741 193.177 49.0931 182.592 49.0931Z" fill="#9D6B5A"/>
<path d="M182.125 107.618H170.187C168.896 107.618 167.85 108.665 167.85 109.956C167.85 111.246 168.896 112.293 170.187 112.293H182.125C183.416 112.293 184.462 111.246 184.462 109.956C184.462 108.665 183.416 107.618 182.125 107.618Z" fill="#9D6B5A"/>
<path d="M170.712 169.95H165.284C162.695 169.95 160.596 171.78 160.596 174.037C160.596 176.294 162.695 178.124 165.284 178.124H170.712C173.301 178.124 175.4 176.294 175.4 174.037C175.4 171.78 173.301 169.95 170.712 169.95Z" fill="#9D6B5A"/>
<path d="M170.712 179.586H165.284C162.695 179.586 160.596 181.416 160.596 183.673C160.596 185.93 162.695 187.76 165.284 187.76H170.712C173.301 187.76 175.4 185.93 175.4 183.673C175.4 181.416 173.301 179.586 170.712 179.586Z" fill="#9D6B5A"/>
<path d="M170.712 189.223H165.284C162.695 189.223 160.596 191.053 160.596 193.31C160.596 195.567 162.695 197.397 165.284 197.397H170.712C173.301 197.397 175.4 195.567 175.4 193.31C175.4 191.053 173.301 189.223 170.712 189.223Z" fill="#9D6B5A"/>
<path d="M187.292 169.95H181.864C179.275 169.95 177.176 171.78 177.176 174.037C177.176 176.294 179.275 178.124 181.864 178.124H187.292C189.881 178.124 191.98 176.294 191.98 174.037C191.98 171.78 189.881 169.95 187.292 169.95Z" fill="#9D6B5A"/>
<path d="M187.292 179.586H181.864C179.275 179.586 177.176 181.416 177.176 183.673C177.176 185.93 179.275 187.76 181.864 187.76H187.292C189.881 187.76 191.98 185.93 191.98 183.673C191.98 181.416 189.881 179.586 187.292 179.586Z" fill="#9D6B5A"/>
<path d="M187.292 189.223H181.864C179.275 189.223 177.176 191.053 177.176 193.31C177.176 195.567 179.275 197.397 181.864 197.397H187.292C189.881 197.397 191.98 195.567 191.98 193.31C191.98 191.053 189.881 189.223 187.292 189.223Z" fill="#9D6B5A"/>
<path d="M170.302 125.981L161.942 121.963C161.012 121.516 159.895 121.907 159.448 122.838C159.001 123.768 159.393 124.884 160.323 125.332L168.683 129.35C169.613 129.798 170.73 129.406 171.177 128.476C171.624 127.545 171.232 126.429 170.302 125.981Z" fill="#81584A"/>
<path d="M180.258 125.981L188.618 121.963C189.549 121.516 190.665 121.907 191.112 122.838C191.56 123.768 191.168 124.884 190.238 125.332L181.878 129.35C180.948 129.798 179.831 129.406 179.384 128.476C178.937 127.545 179.328 126.429 180.258 125.981Z" fill="#81584A"/>
<path d="M151.014 201.779C149.476 201.779 147.992 202.026 146.588 202.479C148.232 220.488 160.624 234.401 175.771 234.401C191.113 234.401 203.63 220.127 205.013 201.779C205.011 201.779 205.01 201.779 205.008 201.779H151.014Z" fill="#4F4F4F"/>
<path d="M202.871 199.792H148.729C147.546 199.792 146.588 200.884 146.588 202.232V206.009C146.588 207.357 147.546 208.449 148.729 208.449H202.871C204.054 208.449 205.012 207.357 205.012 206.009V202.232C205.012 200.884 204.054 199.792 202.871 199.792Z" fill="#5B5B5B"/>
<path d="M178.818 104.757H175.348C175.071 104.757 174.846 104.982 174.846 105.259V105.555C174.846 105.833 175.071 106.058 175.348 106.058H178.818C179.095 106.058 179.32 105.833 179.32 105.555V105.259C179.32 104.982 179.095 104.757 178.818 104.757Z" fill="#81584A"/>
<path d="M181.449 82.8107C181.449 80.7381 179.769 79.058 177.696 79.058C175.624 79.058 173.943 80.7381 173.943 82.8107V89.4332C173.943 91.5057 175.624 93.1859 177.696 93.1859C179.769 93.1859 181.449 91.5057 181.449 89.4332V82.8107Z" fill="#81584A"/>
<path d="M168.516 79.1215C168.516 77.8244 167.464 76.7729 166.167 76.7729C164.87 76.7729 163.818 77.8244 163.818 79.1215V80.0609C163.818 81.358 164.87 82.4095 166.167 82.4095C167.464 82.4095 168.516 81.358 168.516 80.0609V79.1215Z" fill="#61534B"/>
<path d="M191.297 79.1215C191.297 77.8244 190.245 76.7729 188.948 76.7729C187.651 76.7729 186.6 77.8244 186.6 79.1215V80.0609C186.6 81.358 187.651 82.4095 188.948 82.4095C190.245 82.4095 191.297 81.358 191.297 80.0609V79.1215Z" fill="#61534B"/>
<path d="M181.902 102.148C185.358 102.148 188.141 99.1757 188.141 95.4829V94.4043H167.129V95.4829C167.129 99.1757 169.912 102.148 173.368 102.148H181.902Z" fill="white"/>
<path d="M177.192 90.3516L173.702 87.3861C173.126 86.8962 172.261 86.9664 171.771 87.543C171.281 88.1196 171.351 88.9842 171.928 89.4741L175.418 92.4396C175.995 92.9295 176.859 92.8593 177.349 92.2827C177.839 91.7061 177.769 90.8415 177.192 90.3516Z" fill="#81584A"/>
<path d="M178.196 90.3516L181.686 87.3861C182.263 86.8962 183.128 86.9664 183.618 87.543C184.107 88.1196 184.037 88.9842 183.461 89.4741L179.971 92.4396C179.394 92.9295 178.529 92.8592 178.04 92.2827C177.55 91.7061 177.62 90.8415 178.196 90.3516Z" fill="#81584A"/>
<path d="M179.869 88.4458C179.869 87.4514 179.063 86.6453 178.068 86.6453C177.074 86.6453 176.268 87.4514 176.268 88.4458V90.0898C176.268 91.0843 177.074 91.8904 178.068 91.8904C179.063 91.8904 179.869 91.0843 179.869 90.0898V88.4458Z" fill="#906253"/>
<path d="M169.989 76.917L162.509 74.8906C161.698 74.6709 160.959 74.9644 160.859 75.5461C160.758 76.1279 161.334 76.7775 162.145 76.9972L169.625 79.0236C170.436 79.2433 171.175 78.9498 171.275 78.368C171.376 77.7863 170.8 77.1366 169.989 76.917Z" fill="#4D4D4D"/>
<path d="M162.633 76.4984C162.698 76.0651 162.322 75.5838 161.795 75.4233C161.267 75.2628 160.788 75.4839 160.724 75.9172L160.457 77.7139C160.393 78.1472 160.768 78.6285 161.296 78.789C161.823 78.9495 162.303 78.7284 162.367 78.2951L162.633 76.4984Z" fill="#4D4D4D"/>
<path d="M184.948 76.9157L192.428 74.8893C193.239 74.6697 193.978 74.9632 194.079 75.5449C194.179 76.1266 193.604 76.7763 192.793 76.996L185.313 79.0224C184.502 79.2421 183.763 78.9486 183.662 78.3668C183.561 77.7851 184.137 77.1354 184.948 76.9157Z" fill="#4D4D4D"/>
<path d="M192.306 76.4978C192.242 76.0645 192.617 75.5832 193.145 75.4227C193.672 75.2622 194.152 75.4833 194.216 75.9166L194.482 77.7133C194.547 78.1466 194.171 78.6279 193.644 78.7884C193.116 78.9489 192.637 78.7278 192.572 78.2945L192.306 76.4978Z" fill="#4D4D4D"/>
<path d="M175.283 75.9674C175.283 75.3865 174.812 74.9156 174.231 74.9156C173.651 74.9156 173.18 75.3865 173.18 75.9674V77.2406C173.18 77.8215 173.651 78.2924 174.231 78.2924C174.812 78.2924 175.283 77.8215 175.283 77.2406V75.9674Z" fill="#81584A"/>
<path d="M182.26 75.9675C182.26 75.3867 181.789 74.9158 181.208 74.9158C180.627 74.9158 180.156 75.3867 180.156 75.9675V77.2407C180.156 77.8216 180.627 78.2925 181.208 78.2925C181.789 78.2925 182.26 77.8216 182.26 77.2407V75.9675Z" fill="#81584A"/>
<path d="M179.867 88.443C179.867 87.4486 179.061 86.6425 178.066 86.6425C177.072 86.6425 176.266 87.4486 176.266 88.443V90.087C176.266 91.0815 177.072 91.8876 178.066 91.8876C179.061 91.8876 179.867 91.0815 179.867 90.087V88.443Z" fill="#906253"/>
<path d="M169.755 76.4908L162.273 75.4517C161.462 75.339 160.826 75.6714 160.852 76.1942C160.879 76.7169 161.557 77.232 162.369 77.3447L169.85 78.3839C170.661 78.4965 171.297 78.1641 171.271 77.6413C171.245 77.1186 170.566 76.6035 169.755 76.4908Z" fill="#4D4D4D"/>
<path d="M162.446 77.0238C162.428 76.5823 162.028 76.1537 161.553 76.0664C161.078 75.9791 160.708 76.2662 160.726 76.7077L160.8 78.5386C160.818 78.9801 161.218 79.4087 161.693 79.496C162.168 79.5833 162.538 79.2961 162.52 78.8547L162.446 77.0238Z" fill="#4D4D4D"/>
<path d="M185.389 76.1122L192.69 75.4239C193.481 75.3493 194.052 75.7974 193.963 76.4248C193.875 77.0522 193.162 77.6212 192.37 77.6959L185.07 78.3842C184.278 78.4588 183.708 78.0107 183.796 77.3833C183.884 76.7559 184.597 76.1869 185.389 76.1122Z" fill="#4D4D4D"/>
<path d="M192.617 77.2085C192.664 76.7514 193.028 76.341 193.431 76.2918C193.834 76.2426 194.122 76.5733 194.076 77.0304L193.882 78.9258C193.836 79.3829 193.471 79.7933 193.069 79.8425C192.666 79.8917 192.377 79.561 192.424 79.104L192.617 77.2085Z" fill="#4D4D4D"/>
<path d="M203.186 72.6724C203.095 72.6645 203.003 72.6643 202.91 72.6733C202.804 72.6836 202.696 72.7055 202.59 72.7393L202.372 72.8088C201.665 73.0342 201.222 73.7266 201.238 74.4722C201.169 74.368 201.087 74.277 201 74.1928V76.503C204.062 77.8501 206.206 81.0475 206.206 84.7965C206.206 88.5656 204.039 91.776 200.951 93.1104C200.863 94.4565 200.638 95.7607 200.3 97.0129V98.3047C200.222 98.1716 200.128 98.05 200.025 97.939C198.485 102.693 195.213 106.574 190.999 108.741V111.639C190.999 112.805 191.883 113.743 192.981 113.743H193.896C194.994 113.743 195.878 112.805 195.878 111.639V111.073C196.176 111.834 196.881 112.367 197.708 112.367H198.623C199.721 112.367 200.605 111.429 200.605 110.263V109.597C200.955 110.19 201.571 110.587 202.282 110.587C203.381 110.587 204.265 109.648 204.265 108.483V96.6624L204.672 98.1024C204.927 99.0042 205.817 99.5127 206.667 99.2418C207.516 98.971 207.994 98.0264 207.739 97.1246L205.565 89.4398C205.965 89.9179 206.601 90.1361 207.218 89.9393L207.438 89.869C208.287 89.5981 208.765 88.6544 208.51 87.7526L204.585 73.8779C204.389 73.1875 203.822 72.7284 203.186 72.6725V72.6724ZM151.649 72.7867C151.013 72.8426 150.446 73.3018 150.25 73.9922L146.324 87.8669C146.069 88.7687 146.548 89.7124 147.397 89.9832L147.616 90.0535C148.234 90.2504 148.869 90.0321 149.27 89.5541L147.096 97.2389C146.84 98.1407 147.319 99.0852 148.168 99.3561C149.018 99.6269 149.907 99.1193 150.163 98.2175L150.245 97.9271V108.483C150.245 109.648 151.128 110.587 152.226 110.587C152.937 110.587 153.554 110.19 153.904 109.597V110.263C153.904 111.429 154.788 112.367 155.886 112.367H156.801C157.628 112.367 158.332 111.836 158.63 111.076V111.639C158.63 112.805 159.515 113.743 160.613 113.743H161.527C162.626 113.743 163.51 112.805 163.51 111.639V108.665C159.334 106.467 156.103 102.578 154.595 97.8298C154.446 97.9675 154.314 98.1256 154.209 98.3047V96.4381C153.953 95.3628 153.779 94.2516 153.705 93.1103C150.616 91.776 148.45 88.5656 148.45 84.7965C148.45 81.0474 150.593 77.85 153.655 76.503V74.5111C153.636 74.5366 153.615 74.5597 153.597 74.5865C153.613 73.8412 153.17 73.1484 152.463 72.923L152.245 72.8536C152.138 72.8198 152.031 72.7978 151.925 72.7876C151.832 72.7786 151.74 72.7787 151.649 72.7867V72.7867Z" fill="#4D4D4D"/>
<path d="M158.424 57.1276C154.999 60.5094 152.854 65.3967 152.854 70.8499V92.7862C152.854 103.041 160.439 111.297 169.861 111.297H184.788C194.21 111.297 201.795 103.041 201.795 92.7862V70.8499C201.795 65.3967 199.65 60.5094 196.225 57.1276C198.835 60.4258 200.413 64.7218 200.413 69.4362V91.772C200.413 102.214 192.69 110.62 183.096 110.62H171.553C161.96 110.62 154.236 102.214 154.236 91.772V69.4362C154.236 64.7218 155.814 60.4258 158.424 57.1276Z" fill="#565656"/>
<path d="M168.412 111.086C168.412 110.106 167.682 109.312 166.782 109.312C165.882 109.312 165.152 110.106 165.152 111.086V113.146C165.152 114.126 165.882 114.92 166.782 114.92C167.682 114.92 168.412 114.126 168.412 113.146V111.086Z" fill="#565656"/>
<path d="M171.463 112.702C171.463 111.722 170.733 110.927 169.833 110.927C168.933 110.927 168.203 111.722 168.203 112.702V114.762C168.203 115.742 168.933 116.536 169.833 116.536C170.733 116.536 171.463 115.742 171.463 114.762V112.702Z" fill="#565656"/>
<path d="M174.475 113.594C174.475 112.614 173.745 111.82 172.845 111.82C171.945 111.82 171.215 112.614 171.215 113.594V115.654C171.215 116.634 171.945 117.428 172.845 117.428C173.745 117.428 174.475 116.634 174.475 115.654V113.594Z" fill="#565656"/>
<path d="M177.447 113.796C177.447 112.816 176.718 112.022 175.817 112.022C174.917 112.022 174.188 112.816 174.188 113.796V115.856C174.188 116.836 174.917 117.63 175.817 117.63C176.718 117.63 177.447 116.836 177.447 115.856V113.796Z" fill="#565656"/>
<path d="M165.67 107.529C165.67 106.359 164.799 105.411 163.725 105.411C162.65 105.411 161.779 106.359 161.779 107.529V109.988C161.779 111.157 162.65 112.105 163.725 112.105C164.799 112.105 165.67 111.157 165.67 109.988V107.529Z" fill="#565656"/>
<path d="M162.303 105.356C162.303 104.187 161.432 103.239 160.358 103.239C159.283 103.239 158.412 104.187 158.412 105.356V107.815C158.412 108.984 159.283 109.932 160.358 109.932C161.432 109.932 162.303 108.984 162.303 107.815V105.356Z" fill="#565656"/>
<path d="M159.465 102.723C159.465 101.553 158.594 100.605 157.52 100.605C156.445 100.605 155.574 101.553 155.574 102.723V105.182C155.574 106.351 156.445 107.299 157.52 107.299C158.594 107.299 159.465 106.351 159.465 105.182V102.723Z" fill="#565656"/>
<path d="M186.234 111.086C186.234 110.106 186.964 109.312 187.864 109.312C188.764 109.312 189.494 110.106 189.494 111.086V113.146C189.494 114.126 188.764 114.92 187.864 114.92C186.964 114.92 186.234 114.126 186.234 113.146V111.086Z" fill="#565656"/>
<path d="M183.183 112.702C183.183 111.722 183.913 110.927 184.813 110.927C185.714 110.927 186.443 111.722 186.443 112.702V114.762C186.443 115.742 185.714 116.536 184.813 116.536C183.913 116.536 183.183 115.742 183.183 114.762V112.702Z" fill="#565656"/>
<path d="M180.172 113.594C180.172 112.615 180.901 111.82 181.802 111.82C182.702 111.82 183.432 112.615 183.432 113.594V115.655C183.432 116.634 182.702 117.429 181.802 117.429C180.901 117.429 180.172 116.634 180.172 115.655V113.594Z" fill="#565656"/>
<path d="M177.199 113.796C177.199 112.816 177.929 112.022 178.829 112.022C179.729 112.022 180.459 112.816 180.459 113.796V115.856C180.459 116.836 179.729 117.63 178.829 117.63C177.929 117.63 177.199 116.836 177.199 115.856V113.796Z" fill="#565656"/>
<path d="M188.976 107.529C188.976 106.359 189.847 105.411 190.922 105.411C191.996 105.411 192.867 106.359 192.867 107.529V109.988C192.867 111.157 191.996 112.105 190.922 112.105C189.847 112.105 188.976 111.157 188.976 109.988V107.529Z" fill="#565656"/>
<path d="M192.344 105.357C192.344 104.187 193.215 103.239 194.289 103.239C195.363 103.239 196.234 104.187 196.234 105.357V107.816C196.234 108.985 195.363 109.933 194.289 109.933C193.215 109.933 192.344 108.985 192.344 107.816V105.357Z" fill="#565656"/>
<path d="M195.181 102.723C195.181 101.553 196.052 100.605 197.127 100.605C198.201 100.605 199.072 101.553 199.072 102.723V105.182C199.072 106.351 198.201 107.299 197.127 107.299C196.052 107.299 195.181 106.351 195.181 105.182V102.723Z" fill="#565656"/>
<path d="M169.959 90.2073C166.156 90.2073 163.094 93.5398 163.094 97.6796V106.421C163.094 110.561 166.156 113.893 169.959 113.893H184.69C188.493 113.893 191.555 110.561 191.555 106.421V97.6796C191.555 93.5398 188.493 90.2073 184.69 90.2073H183.249C183.299 90.6627 183.146 91.1354 182.799 91.4559L182.217 91.9943C182.562 92.3469 182.819 92.8016 182.931 93.3225H184.929C187.056 93.3225 188.767 95.1854 188.767 97.5002V101.259C188.767 102.137 188.52 102.949 188.098 103.621V104.652C188.098 107.956 185.654 110.616 182.618 110.616H172.031C168.995 110.616 166.551 107.956 166.551 104.652V103.621C166.129 102.949 165.882 102.137 165.882 101.259V97.5002C165.882 95.1854 167.594 93.3225 169.72 93.3225H170.977C171.127 92.6216 171.533 92.0339 172.079 91.6684L171.85 91.4559C171.503 91.1354 171.35 90.6627 171.4 90.2073H169.959Z" fill="#565656"/>
<path d="M166.743 49.552C157.776 49.552 150.557 57.2152 150.557 66.7341C150.557 67.1812 150.578 67.6224 150.609 68.0607C150.578 68.2849 150.557 68.5127 150.557 68.7463V79.2722C150.557 81.5309 152.061 83.4024 154.069 83.8257V70.0898C154.069 60.257 161.526 52.3405 170.788 52.3405H183.869C193.132 52.3405 200.589 60.257 200.589 70.0898V83.8443C202.653 83.4695 204.217 81.5739 204.217 79.2722V68.7463C204.217 68.5127 204.196 68.2849 204.165 68.0607C204.196 67.6224 204.217 67.1812 204.217 66.7341C204.217 57.2152 196.999 49.552 188.032 49.552H166.743Z" fill="#4D4D4D"/>
<path d="M185.109 47.3855H170.528C165.615 47.3855 161.633 51.613 161.633 56.828C161.633 62.0429 165.615 66.2705 170.528 66.2705H185.109C190.022 66.2705 194.004 62.0429 194.004 56.828C194.004 51.613 190.022 47.3855 185.109 47.3855Z" fill="#4D4D4D"/>
<path d="M166.591 53.3842C166.591 51.9095 165.465 50.714 164.076 50.714C162.687 50.714 161.561 51.9095 161.561 53.3842V59.576C161.561 61.0507 162.687 62.2462 164.076 62.2462C165.465 62.2462 166.591 61.0507 166.591 59.576V53.3842Z" fill="#4D4D4D"/>
<path d="M195.171 53.6169C195.171 52.1422 194.045 50.9467 192.656 50.9467C191.267 50.9467 190.141 52.1422 190.141 53.6169V59.8087C190.141 61.2834 191.267 62.4789 192.656 62.4789C194.045 62.4789 195.171 61.2834 195.171 59.8087V53.6169Z" fill="#4D4D4D"/>
<path d="M160.603 56.436C160.471 55.4628 159.621 54.7872 158.705 54.927C157.788 55.0668 157.152 55.9691 157.283 56.9422L157.708 60.0833C157.84 61.0564 158.69 61.732 159.607 61.5922C160.523 61.4524 161.16 60.5502 161.028 59.577L160.603 56.436Z" fill="#4D4D4D"/>
<path d="M196.166 57.2017C196.298 56.2286 197.148 55.553 198.065 55.6928C198.981 55.8326 199.618 56.7348 199.486 57.708L199.061 60.849C198.929 61.8222 198.08 62.4978 197.163 62.358C196.246 62.2182 195.61 61.3159 195.741 60.3428L196.166 57.2017Z" fill="#4D4D4D"/>
<path d="M176.069 52.075H177.64C178.566 52.075 179.316 52.8719 179.316 53.8551V60.3565C179.316 61.3396 178.566 62.1366 177.64 62.1366H176.069C175.143 62.1366 174.393 61.3396 174.393 60.3565V53.8551C174.393 52.8719 175.143 52.075 176.069 52.075Z" fill="#565656"/>
<path d="M169.293 52.2675H171.365C172.09 52.2675 172.678 52.8912 172.678 53.6606V60.549C172.678 61.3184 172.09 61.9421 171.365 61.9421H169.293C168.568 61.9421 167.98 61.3184 167.98 60.549V53.6606C167.98 52.8912 168.568 52.2675 169.293 52.2675Z" fill="#565656"/>
<path d="M184.412 52.2675H182.34C181.615 52.2675 181.027 52.8912 181.027 53.6606V60.549C181.027 61.3184 181.615 61.9421 182.34 61.9421H184.412C185.137 61.9421 185.725 61.3184 185.725 60.549V53.6606C185.725 52.8912 185.137 52.2675 184.412 52.2675Z" fill="#565656"/>
</svg>
