<svg width="145" height="145" viewBox="0 0 145 145" fill="none" xmlns="http://www.w3.org/2000/svg">
<rect x="2.58594" y="2.51038" width="139.562" height="139.562" rx="22.5" fill="black"/>
<path d="M120.557 24.1042V60.2449H108.51V44.7345L84.5666 68.5271C86.474 71.338 87.9297 74.3237 88.9336 77.484C89.9375 80.6483 90.4395 83.9371 90.4395 87.3503C90.4395 96.5863 87.227 104.417 80.802 110.842C74.3769 117.267 66.5465 120.479 57.3105 120.479C48.0746 120.479 40.2441 117.267 33.8191 110.842C27.3941 104.417 24.1816 96.5863 24.1816 87.3503C24.1816 78.1144 27.3941 70.2839 33.8191 63.8589C40.2441 57.4339 48.0746 54.2214 57.3105 54.2214C60.6234 54.2214 63.8861 54.6993 67.0986 55.655C70.3111 56.6067 73.2727 58.0865 75.9832 60.0943L99.9264 36.1511H84.416V24.1042H120.557ZM57.3105 66.2683C51.4879 66.2683 46.5186 68.3263 42.4025 72.4423C38.2865 76.5583 36.2285 81.5277 36.2285 87.3503C36.2285 93.173 38.2865 98.1423 42.4025 102.258C46.5186 106.374 51.4879 108.432 57.3105 108.432C63.1332 108.432 68.1025 106.374 72.2186 102.258C76.3346 98.1423 78.3926 93.173 78.3926 87.3503C78.3926 81.5277 76.3346 76.5583 72.2186 72.4423C68.1025 68.3263 63.1332 66.2683 57.3105 66.2683Z" fill="white"/>
<rect x="2.58594" y="2.51038" width="139.562" height="139.562" rx="22.5" stroke="black" stroke-width="5"/>
</svg>
