<svg width="351" height="351" viewBox="0 0 351 351" fill="none" xmlns="http://www.w3.org/2000/svg">
<circle cx="175.84" cy="175.357" r="173.197" stroke="black" stroke-width="3.60643"/>
<rect x="27.061" y="51.5063" width="295.472" height="295.472" stroke="black" stroke-width="3.60643"/>
<path d="M149.499 130.46L149.502 130.415C149.723 127.542 144.9 125.268 138.73 125.337L127.404 124.382L114.983 123.972L103.678 123.82L92.3931 124.76C86.2228 124.829 81.0468 128.306 80.826 131.18L80.8225 131.225C80.6111 133.975 81.6203 132.923 97.4384 134.645C98.906 134.805 100.359 135.089 101.767 135.479L106.169 136.697C109.954 137.745 113.976 137.957 117.989 137.321L137.927 135.786C144.097 135.718 149.278 133.333 149.499 130.46Z" fill="#81584A"/>
<path d="M109.288 131.88C111.677 131.828 113.691 130.813 113.787 129.614C113.883 128.415 112.025 127.485 109.637 127.538L106.492 127.607C104.103 127.659 102.089 128.674 101.993 129.873C101.897 131.073 103.755 132.002 106.143 131.95L109.288 131.88Z" fill="#906253"/>
<path d="M97.3476 138.143C103.28 138.695 116.898 136.986 117.279 133.337C117.66 129.688 113.159 126.283 107.227 125.731L62.6781 121.585C56.7453 121.033 51.627 123.544 51.2459 127.192L51.24 127.249C50.8589 130.898 55.3595 134.304 61.2922 134.856L97.3476 138.143Z" fill="#81584A"/>
<path d="M69.4333 131.555L69.6038 129.169C69.9305 124.595 64.5937 120.392 57.6838 119.781L51.545 119.238C44.6351 118.627 38.7687 121.839 38.442 126.412L38.2716 128.798C37.9449 133.372 43.2816 137.575 50.1915 138.186L56.3303 138.729C63.2402 139.34 69.1066 136.128 69.4333 131.555Z" fill="#906253"/>
<path d="M97.6395 138.573C105.087 139.22 111.376 136.301 111.685 132.053C111.995 127.804 106.209 123.836 98.7608 123.188L88.1711 122.268C80.7234 121.62 74.4349 124.539 74.1252 128.788C73.8156 133.036 79.6022 137.005 87.0499 137.652L97.6395 138.573Z" fill="#906253"/>
<path d="M100.508 137.837C101.869 137.948 103.018 137.45 103.075 136.724C103.132 135.998 102.075 135.319 100.714 135.208L91.7842 134.478C90.4237 134.367 89.2747 134.865 89.2178 135.591C89.1609 136.317 90.2177 136.996 91.5783 137.107L100.508 137.837Z" fill="#9D6B5A"/>
<path d="M51.9345 131.578C56.3443 130.755 58.7651 127.206 57.3414 123.651C55.9178 120.096 51.1888 117.881 46.779 118.705L34.7345 120.953C30.3247 121.776 27.9039 125.326 29.3276 128.881C30.7512 132.436 35.4802 134.65 39.89 133.827L51.9345 131.578Z" fill="#906253"/>
<path d="M53.6433 139.356C56.6945 139.619 59.2852 138.237 59.4297 136.269C59.5742 134.301 57.2179 132.491 54.1667 132.228L45.8329 131.508C42.7817 131.245 40.191 132.627 40.0465 134.595C39.9019 136.563 42.2583 138.372 45.3095 138.636L53.6433 139.356Z" fill="#9D6B5A"/>
<path d="M197.925 131.531L197.919 131.487C197.497 128.634 202.137 126.227 208.283 126.111L219.489 124.822L231.822 124.042L243.064 123.553L254.361 124.15C260.507 124.034 265.903 127.341 266.325 130.194L266.332 130.238C266.753 133.091 257.31 133.865 248.159 135.582L245.791 136.34C243.668 137.019 241.443 137.435 239.161 137.58L235.209 137.83L209.817 136.487C203.671 136.603 198.347 134.384 197.925 131.531Z" fill="#81584A"/>
<path d="M238.066 131.786C235.687 131.8 233.613 130.84 233.435 129.642C233.256 128.444 235.04 127.461 237.419 127.447L240.552 127.429C242.932 127.415 245.005 128.375 245.184 129.573C245.362 130.771 243.579 131.754 241.199 131.768L238.066 131.786Z" fill="#906253"/>
<path d="M232.259 133.244L232.253 133.188C231.893 129.569 236.408 126.156 242.337 125.566L286.86 121.134C292.789 120.544 297.888 122.999 298.248 126.618L298.253 126.675C298.613 130.294 294.098 133.706 288.169 134.297L243.646 138.729C237.717 139.319 232.619 136.864 232.259 133.244Z" fill="#81584A"/>
<path d="M280.096 131.157L279.938 128.78C279.637 124.223 284.984 119.993 291.882 119.332L298.01 118.745C304.908 118.084 310.744 121.241 311.045 125.798L311.202 128.175C311.504 132.732 306.156 136.962 299.259 137.623L293.131 138.21C286.233 138.871 280.397 135.714 280.096 131.157Z" fill="#906253"/>
<path d="M251.844 138.246C244.405 138.945 238.144 136.086 237.858 131.86C237.572 127.633 243.37 123.64 250.808 122.94L261.385 121.946C268.823 121.246 275.085 124.105 275.371 128.332C275.657 132.558 269.859 136.551 262.42 137.251L251.844 138.246Z" fill="#906253"/>
<path d="M248.949 137.553C247.59 137.673 246.445 137.187 246.392 136.467C246.34 135.747 247.399 135.066 248.759 134.946L257.683 134.159C259.043 134.039 260.188 134.525 260.24 135.245C260.293 135.965 259.233 136.646 257.874 136.766L248.949 137.553Z" fill="#9D6B5A"/>
<path d="M297.566 131.123C293.161 130.333 290.757 126.784 292.197 123.197C293.637 119.61 298.376 117.343 302.781 118.133L314.814 120.291C319.22 121.081 321.623 124.63 320.183 128.217C318.743 131.804 314.004 134.072 309.599 133.281L297.566 131.123Z" fill="#906253"/>
<path d="M295.797 138.848C292.749 139.133 290.17 137.777 290.037 135.819C289.903 133.862 292.266 132.045 295.313 131.76L303.638 130.982C306.685 130.698 309.264 132.054 309.398 134.011C309.531 135.968 307.169 137.786 304.121 138.07L295.797 138.848Z" fill="#9D6B5A"/>
<path d="M195.696 156.826C195.696 137.256 188.948 133.85 174.597 133.85C160.245 133.85 154.362 137.256 154.362 156.826L154.361 177.867L174.597 230.317L192.948 197.571L195.696 177.867V156.826Z" fill="#81584A"/>
<path d="M216.838 120.48H131.503C122.266 120.48 114.777 125.157 114.777 130.927C114.777 136.696 122.266 141.373 131.503 141.373H216.838C226.075 141.373 233.564 136.696 233.564 130.927C233.564 125.157 226.075 120.48 216.838 120.48Z" fill="#906253"/>
<path d="M177.442 158.117H173.097C162.736 158.117 154.336 167.456 154.336 178.977V194.047C154.336 205.568 162.736 214.907 173.097 214.907H177.442C187.804 214.907 196.204 205.568 196.204 194.047V178.977C196.204 167.456 187.804 158.117 177.442 158.117Z" fill="#906253"/>
<path d="M187.915 119.514H161.784C155.042 119.514 149.576 126.188 149.576 134.422V143.407C149.576 151.641 155.042 158.315 161.784 158.315H187.915C194.657 158.315 200.123 151.641 200.123 143.407V134.422C200.123 126.188 194.657 119.514 187.915 119.514Z" fill="#906253"/>
<path d="M190.232 119.514H159.648C154.185 119.514 149.756 126.188 149.756 134.422V143.407C149.756 151.641 154.185 158.315 159.648 158.315H190.232C195.695 158.315 200.124 151.641 200.124 143.407V134.422C200.124 126.188 195.695 119.514 190.232 119.514Z" fill="#9D6B5A"/>
<path d="M177.406 153.771C177.406 152.507 176.201 151.482 174.714 151.482C173.228 151.482 172.023 152.507 172.023 153.771V158.209C172.023 159.472 173.228 160.497 174.714 160.497C176.201 160.497 177.406 159.472 177.406 158.209V153.771Z" fill="#81584A"/>
<path d="M189.669 141.373H183.488C181.713 141.373 180.273 143.309 180.273 145.698C180.273 148.086 181.713 150.023 183.488 150.023H189.669C191.445 150.023 192.884 148.086 192.884 145.698C192.884 143.309 191.445 141.373 189.669 141.373Z" fill="#AC7967"/>
<path d="M167.851 141.373H161.67C159.894 141.373 158.455 143.309 158.455 145.698C158.455 148.086 159.894 150.023 161.67 150.023H167.851C169.626 150.023 171.065 148.086 171.065 145.698C171.065 143.309 169.626 141.373 167.851 141.373Z" fill="#AC7967"/>
<path d="M185.246 103.427C185.246 93.4184 180.584 85.3047 174.833 85.3047C169.082 85.3047 164.42 93.4184 164.42 103.427V110.862C164.42 120.871 169.082 128.985 174.833 128.985C180.584 128.985 185.246 120.871 185.246 110.862V103.427Z" fill="#9D6B5A"/>
<path d="M157.487 150.653H155.048C154.076 150.653 153.287 151.633 153.287 152.841C153.287 154.048 154.076 155.028 155.048 155.028H157.487C158.46 155.028 159.249 154.048 159.249 152.841C159.249 151.633 158.46 150.653 157.487 150.653Z" fill="#81584A"/>
<path d="M177.355 85.3047H171.485C164.746 85.3047 159.283 90.7674 159.283 97.506V102.512C159.283 109.25 164.746 114.713 171.485 114.713H177.355C184.094 114.713 189.556 109.25 189.556 102.512V97.506C189.556 90.7674 184.094 85.3047 177.355 85.3047Z" fill="#81584A"/>
<path d="M215.292 123.043H212.964C206.751 123.043 201.715 126.01 201.715 129.671C201.715 133.331 206.751 136.299 212.964 136.299H215.292C221.504 136.299 226.541 133.331 226.541 129.671C226.541 126.01 221.504 123.043 215.292 123.043Z" fill="#9D6B5A"/>
<path d="M135.929 122.494H132.648C130.836 122.494 129.367 123.726 129.367 125.246C129.367 126.766 130.836 127.999 132.648 127.999H135.929C137.74 127.999 139.209 126.766 139.209 125.246C139.209 123.726 137.74 122.494 135.929 122.494Z" fill="#AC7967"/>
<path d="M219.523 122.71H216.032C214.104 122.71 212.541 123.942 212.541 125.462C212.541 126.982 214.104 128.214 216.032 128.214H219.523C221.451 128.214 223.015 126.982 223.015 125.462C223.015 123.942 221.451 122.71 219.523 122.71Z" fill="#AC7967"/>
<path d="M191.126 73.8691H156.541C152.586 73.8691 149.381 77.9081 149.381 82.8904C149.381 87.8727 152.586 91.9117 156.541 91.9117H191.126C195.08 91.9117 198.286 87.8727 198.286 82.8904C198.286 77.9081 195.08 73.8691 191.126 73.8691Z" fill="#9D6B5A"/>
<path d="M181.923 48.5127H172.299C164.325 48.5127 157.861 56.9936 157.861 67.4553V89.903C157.861 100.365 164.325 108.846 172.299 108.846H181.923C189.896 108.846 196.36 100.365 196.36 89.903V67.4553C196.36 56.9936 189.896 48.5127 181.923 48.5127Z" fill="#9D6B5A"/>
<path d="M181.555 106.355H170.919C169.768 106.355 168.836 107.39 168.836 108.666C168.836 109.941 169.768 110.976 170.919 110.976H181.555C182.706 110.976 183.638 109.941 183.638 108.666C183.638 107.39 182.706 106.355 181.555 106.355Z" fill="#9D6B5A"/>
<path d="M170.852 169.123H166.027C163.725 169.123 161.859 170.799 161.859 172.865C161.859 174.932 163.725 176.608 166.027 176.608H170.852C173.153 176.608 175.019 174.932 175.019 172.865C175.019 170.799 173.153 169.123 170.852 169.123Z" fill="#9D6B5A"/>
<path d="M170.852 177.947H166.027C163.725 177.947 161.859 179.623 161.859 181.69C161.859 183.756 163.725 185.432 166.027 185.432H170.852C173.153 185.432 175.019 183.756 175.019 181.69C175.019 179.623 173.153 177.947 170.852 177.947Z" fill="#9D6B5A"/>
<path d="M170.852 186.771H166.027C163.725 186.771 161.859 188.447 161.859 190.514C161.859 192.581 163.725 194.256 166.027 194.256H170.852C173.153 194.256 175.019 192.581 175.019 190.514C175.019 188.447 173.153 186.771 170.852 186.771Z" fill="#9D6B5A"/>
<path d="M185.59 169.123H180.765C178.463 169.123 176.598 170.799 176.598 172.865C176.598 174.932 178.463 176.608 180.765 176.608H185.59C187.891 176.608 189.757 174.932 189.757 172.865C189.757 170.799 187.891 169.123 185.59 169.123Z" fill="#9D6B5A"/>
<path d="M185.59 177.947H180.765C178.463 177.947 176.598 179.623 176.598 181.69C176.598 183.756 178.463 185.432 180.765 185.432H185.59C187.891 185.432 189.757 183.756 189.757 181.69C189.757 179.623 187.891 177.947 185.59 177.947Z" fill="#9D6B5A"/>
<path d="M185.59 186.771H180.765C178.463 186.771 176.598 188.447 176.598 190.514C176.598 192.581 178.463 194.256 180.765 194.256H185.59C187.891 194.256 189.757 192.581 189.757 190.514C189.757 188.447 187.891 186.771 185.59 186.771Z" fill="#9D6B5A"/>
<path d="M169.017 124.503L160.755 120.532C159.835 120.09 158.732 120.477 158.29 121.396C157.848 122.316 158.235 123.419 159.154 123.861L167.416 127.833C168.336 128.275 169.44 127.888 169.882 126.969C170.323 126.049 169.936 124.945 169.017 124.503Z" fill="#81584A"/>
<path d="M178.858 124.503L187.12 120.532C188.04 120.09 189.143 120.477 189.585 121.396C190.027 122.316 189.64 123.419 188.721 123.861L180.459 127.833C179.539 128.275 178.435 127.888 177.993 126.969C177.552 126.049 177.939 124.945 178.858 124.503Z" fill="#81584A"/>
<path d="M158.227 199.418C157.136 199.418 156.084 199.662 155.088 200.11C156.254 217.909 165.043 231.66 175.786 231.66C186.668 231.66 195.546 217.552 196.527 199.418C196.526 199.418 196.525 199.418 196.524 199.418H158.227Z" fill="#4F4F4F"/>
<path d="M195.033 197.454H156.607C155.768 197.454 155.088 198.534 155.088 199.865V203.599C155.088 204.931 155.768 206.01 156.607 206.01H195.033C195.872 206.01 196.553 204.931 196.553 203.599V199.865C196.553 198.534 195.872 197.454 195.033 197.454Z" fill="#5B5B5B"/>
<path d="M201.105 156.826C201.105 137.256 193.141 133.85 176.203 133.85C159.266 133.85 152.323 137.256 152.323 156.826L152.322 177.867H176.203H201.105V156.826Z" fill="#81584A"/>
<path d="M216.838 120.48H131.503C122.266 120.48 114.777 125.157 114.777 130.927C114.777 136.696 122.266 141.373 131.503 141.373H216.838C226.075 141.373 233.564 136.696 233.564 130.927C233.564 125.157 226.075 120.48 216.838 120.48Z" fill="#906253"/>
<path d="M200.124 139.531C200.124 127.951 188.849 118.564 174.94 118.564C161.031 118.564 149.756 127.951 149.756 139.531C149.756 151.11 161.031 160.497 174.94 160.497C188.849 160.497 200.124 151.11 200.124 139.531Z" fill="#81584A"/>
<path d="M178.597 158.117H173.344C160.818 158.117 150.664 167.456 150.664 178.977V194.047C150.664 205.568 160.818 214.907 173.344 214.907H178.597C191.123 214.907 201.277 205.568 201.277 194.047V178.977C201.277 167.456 191.123 158.117 178.597 158.117Z" fill="#906253"/>
<path d="M188.141 119.514H162.492C155.874 119.514 150.51 126.188 150.51 134.422V143.407C150.51 151.641 155.874 158.315 162.492 158.315H188.141C194.759 158.315 200.123 151.641 200.123 143.407V134.422C200.123 126.188 194.759 119.514 188.141 119.514Z" fill="#906253"/>
<path d="M205.757 133.836C205.757 133.836 200.883 118.564 197.534 118.564L187.999 116.915L176.319 118.564L161.841 116.915L154.799 118.564C151.181 118.564 145.268 125.401 145.268 133.836C145.268 142.271 147.297 158.314 154.799 158.314H196.793C204.294 158.314 205.757 146.06 205.757 133.836Z" fill="#9D6B5A"/>
<path d="M177.406 153.771C177.406 152.507 176.201 151.482 174.714 151.482C173.228 151.482 172.023 152.507 172.023 153.771V158.209C172.023 159.472 173.228 160.497 174.714 160.497C176.201 160.497 177.406 159.472 177.406 158.209V153.771Z" fill="#81584A"/>
<path d="M188.837 141.373H182.656C180.881 141.373 179.441 142.738 179.441 144.422C179.441 146.106 180.881 147.471 182.656 147.471H188.837C190.612 147.471 192.052 146.106 192.052 144.422C192.052 142.738 190.612 141.373 188.837 141.373Z" fill="#AC7967"/>
<path d="M167.021 141.373H160.839C159.064 141.373 157.625 142.738 157.625 144.422C157.625 146.106 159.064 147.471 160.839 147.471H167.021C168.796 147.471 170.235 146.106 170.235 144.422C170.235 142.738 168.796 141.373 167.021 141.373Z" fill="#AC7967"/>
<path d="M187.432 105.915C187.432 95.9057 181.975 87.792 175.245 87.792C168.515 87.792 163.059 95.9057 163.059 105.915V113.349C163.059 123.358 168.515 131.472 175.245 131.472C181.975 131.472 187.432 123.358 187.432 113.349V105.915Z" fill="#9D6B5A"/>
<path d="M159.625 150.653H157.472C156.614 150.653 155.918 151.633 155.918 152.841C155.918 154.048 156.614 155.028 157.472 155.028H159.625C160.483 155.028 161.179 154.048 161.179 152.841C161.179 151.633 160.483 150.653 159.625 150.653Z" fill="#81584A"/>
<path d="M194.808 150.653H192.656C191.798 150.653 191.102 151.633 191.102 152.841C191.102 154.048 191.798 155.028 192.656 155.028H194.808C195.667 155.028 196.363 154.048 196.363 152.841C196.363 151.633 195.667 150.653 194.808 150.653Z" fill="#81584A"/>
<path d="M177.355 85.3047H171.485C164.746 85.3047 159.283 90.7674 159.283 97.506V102.512C159.283 109.25 164.746 114.713 171.485 114.713H177.355C184.094 114.713 189.556 109.25 189.556 102.512V97.506C189.556 90.7674 184.094 85.3047 177.355 85.3047Z" fill="#81584A"/>
<path d="M138.081 121.514H135.893C130.055 121.514 125.322 125.484 125.322 130.382C125.322 135.28 130.055 139.25 135.893 139.25H138.081C143.919 139.25 148.652 135.28 148.652 130.382C148.652 125.484 143.919 121.514 138.081 121.514Z" fill="#9D6B5A"/>
<path d="M133.929 124.494H130.648C128.836 124.494 127.367 125.726 127.367 127.246C127.367 128.766 128.836 129.999 130.648 129.999H133.929C135.74 129.999 137.209 128.766 137.209 127.246C137.209 125.726 135.74 124.494 133.929 124.494Z" fill="#AC7967"/>
<path d="M212.287 121.514H214.474C220.312 121.514 225.045 125.484 225.045 130.382C225.045 135.28 220.312 139.25 214.474 139.25H212.287C206.448 139.25 201.716 135.28 201.716 130.382C201.716 125.484 206.448 121.514 212.287 121.514Z" fill="#9D6B5A"/>
<path d="M216.439 124.494H219.719C221.531 124.494 223 125.726 223 127.246C223 128.766 221.531 129.999 219.719 129.999H216.439C214.627 129.999 213.158 128.766 213.158 127.246C213.158 125.726 214.627 124.494 216.439 124.494Z" fill="#AC7967"/>
<path d="M188.206 266.262L189.032 266.262C193.407 266.262 196.954 269.808 196.954 274.183L196.954 301.506L196.954 319.727L198.561 338.402C198.561 342.482 195.277 345.79 191.227 345.79H189.517C185.466 345.79 182.183 342.482 182.183 338.402V310.523C182.183 308.792 181.805 307.082 181.076 305.513C180.346 303.943 179.968 302.233 179.968 300.502V296.545C179.968 294.513 180.176 292.487 180.588 290.498L180.604 290.422C181.027 288.382 181.24 286.305 181.24 284.221V273.228C181.24 272.891 181.264 272.555 181.313 272.222C181.813 268.799 184.747 266.262 188.206 266.262Z" fill="#906253"/>
<path d="M190.183 284.475H188.441C184.479 284.475 181.267 281.263 181.267 277.301C181.267 276.549 181.149 275.801 180.916 275.085L179.522 270.794L177.971 261.938L176.467 250.56V232.366V212.199C176.467 205.141 182.189 199.419 189.247 199.419C195.601 199.419 200.989 204.086 201.896 210.375L202.006 211.135L203.834 237.799V251.013C203.834 252.528 203.725 254.042 203.507 255.542L202.673 261.292C202.231 264.336 201.31 267.291 199.946 270.047L197.616 274.753C197.156 275.682 196.916 276.705 196.916 277.741C196.916 281.46 193.902 284.475 190.183 284.475Z" fill="#81584A"/>
<path d="M187.628 330.528H194.515C198.486 330.528 201.705 333.945 201.705 338.159C201.705 342.374 198.486 345.79 194.515 345.79H187.628C183.657 345.79 180.438 342.374 180.438 338.159C180.438 333.945 183.657 330.528 187.628 330.528Z" fill="#9D6B5A"/>
<path d="M182.819 333.671H199.324C200.639 333.671 201.705 335.311 201.705 337.335V342.127C201.705 344.15 200.639 345.791 199.324 345.791H182.819C181.504 345.791 180.438 344.15 180.438 342.127V337.335C180.438 335.311 181.504 333.671 182.819 333.671Z" fill="#9D6B5A"/>
<path d="M162.975 266.086L162.149 266.086C157.774 266.086 154.228 269.633 154.228 274.008L154.227 301.33L154.228 319.551L152.621 338.226C152.621 342.307 155.905 345.615 159.955 345.615H161.665C165.715 345.615 168.999 342.307 168.999 338.226V310.347C168.999 308.616 169.377 306.906 170.106 305.337C170.835 303.767 171.213 302.057 171.213 300.326V296.369C171.213 294.338 171.006 292.312 170.593 290.322L170.578 290.246C170.155 288.206 169.942 286.129 169.942 284.046V273.052C169.942 272.715 169.917 272.379 169.869 272.046C169.369 268.624 166.434 266.086 162.975 266.086Z" fill="#906253"/>
<path d="M160.999 284.298H162.741C166.703 284.298 169.915 281.086 169.915 277.125C169.915 276.372 170.033 275.624 170.265 274.908L171.659 270.617L173.211 261.761L174.714 250.383V232.189V212.022C174.714 204.964 168.993 199.242 161.935 199.242C155.581 199.242 150.192 203.909 149.286 210.198L149.176 210.959L147.348 237.622V250.836C147.348 252.352 147.457 253.865 147.675 255.365L148.509 261.115C148.951 264.159 149.871 267.114 151.236 269.871L153.566 274.577C154.026 275.506 154.265 276.528 154.265 277.565C154.265 281.283 157.28 284.298 160.999 284.298Z" fill="#81584A"/>
<path d="M163.549 330.352H156.663C152.692 330.352 149.473 333.768 149.473 337.982C149.473 342.197 152.692 345.613 156.663 345.613H163.549C167.52 345.613 170.74 342.197 170.74 337.982C170.74 333.768 167.52 330.352 163.549 330.352Z" fill="#9D6B5A"/>
<path d="M168.359 333.494H151.854C150.539 333.494 149.473 335.135 149.473 337.158V341.95C149.473 343.974 150.539 345.614 151.854 345.614H168.359C169.674 345.614 170.74 343.974 170.74 341.95V337.158C170.74 335.135 169.674 333.494 168.359 333.494Z" fill="#9D6B5A"/>
<path d="M190.085 73.8691H157.127C153.359 73.8691 150.305 77.9081 150.305 82.8904C150.305 87.8727 153.359 91.9117 157.127 91.9117H190.085C193.853 91.9117 196.908 87.8727 196.908 82.8904C196.908 77.9081 193.853 73.8691 190.085 73.8691Z" fill="#9D6B5A"/>
<path d="M190.761 76.1631H156.026C153.02 76.1631 150.584 79.1752 150.584 82.8908C150.584 86.6064 153.02 89.6185 156.026 89.6185H190.761C193.767 89.6185 196.203 86.6064 196.203 82.8908C196.203 79.1752 193.767 76.1631 190.761 76.1631Z" fill="#81584A"/>
<path d="M177.972 48.5127H168.055C159.837 48.5127 153.176 56.9936 153.176 67.4553V89.903C153.176 100.365 159.837 108.846 168.055 108.846H177.972C186.189 108.846 192.851 100.365 192.851 89.903V67.4553C192.851 56.9936 186.189 48.5127 177.972 48.5127Z" fill="#9D6B5A"/>
<path d="M180.704 106.355H168.906C167.63 106.355 166.596 107.39 166.596 108.666C166.596 109.941 167.63 110.976 168.906 110.976H180.704C181.98 110.976 183.014 109.941 183.014 108.666C183.014 107.39 181.98 106.355 180.704 106.355Z" fill="#9D6B5A"/>
<path d="M169.845 125.334L161.583 121.362C160.663 120.92 159.56 121.307 159.118 122.226C158.676 123.146 159.063 124.249 159.982 124.691L168.245 128.663C169.164 129.105 170.268 128.718 170.71 127.799C171.152 126.879 170.765 125.776 169.845 125.334Z" fill="#81584A"/>
<path d="M179.686 125.334L187.948 121.362C188.868 120.92 189.972 121.307 190.414 122.226C190.856 123.146 190.468 124.249 189.549 124.691L181.287 128.663C180.367 129.105 179.264 128.718 178.822 127.799C178.38 126.879 178.767 125.776 179.686 125.334Z" fill="#81584A"/>
<path d="M153.731 199.419C152.377 199.419 151.07 199.663 149.834 200.111C151.282 217.91 162.193 231.661 175.529 231.661C189.038 231.661 200.059 217.553 201.276 199.419C201.275 199.419 201.274 199.419 201.272 199.419H153.731Z" fill="#4F4F4F"/>
<path d="M199.394 197.454H151.745C150.705 197.454 149.861 198.534 149.861 199.865V203.599C149.861 204.931 150.705 206.01 151.745 206.01H199.394C200.434 206.01 201.278 204.931 201.278 203.599V199.865C201.278 198.534 200.434 197.454 199.394 197.454Z" fill="#5B5B5B"/>
<path d="M174.506 103.526H171.774C171.556 103.526 171.379 103.749 171.379 104.023V104.315C171.379 104.59 171.556 104.812 171.774 104.812H174.506C174.724 104.812 174.902 104.59 174.902 104.315V104.023C174.902 103.749 174.724 103.526 174.506 103.526Z" fill="#81584A"/>
<path d="M176.577 81.8369C176.577 79.7885 175.254 78.1279 173.622 78.1279C171.991 78.1279 170.668 79.7885 170.668 81.8369V88.3821C170.668 90.4305 171.991 92.091 173.622 92.091C175.254 92.091 176.577 90.4305 176.577 88.3821V81.8369Z" fill="#81584A"/>
<path d="M166.397 78.1903C166.397 76.9084 165.569 75.8691 164.548 75.8691C163.527 75.8691 162.699 76.9084 162.699 78.1903V79.1188C162.699 80.4007 163.527 81.44 164.548 81.44C165.569 81.44 166.397 80.4007 166.397 79.1188V78.1903Z" fill="#61534B"/>
<path d="M184.331 78.1903C184.331 76.9084 183.503 75.8691 182.482 75.8691C181.461 75.8691 180.633 76.9084 180.633 78.1903V79.1188C180.633 80.4007 181.461 81.44 182.482 81.44C183.503 81.44 184.331 80.4007 184.331 79.1188V78.1903Z" fill="#61534B"/>
<path d="M176.936 100.948C179.658 100.948 181.848 98.0107 181.848 94.361V93.2949H165.307V94.361C165.307 98.0107 167.498 100.948 170.219 100.948H176.936Z" fill="white"/>
<path d="M173.228 89.29L170.48 86.3592C170.026 85.875 169.346 85.9444 168.96 86.5143C168.574 87.0841 168.629 87.9386 169.083 88.4228L171.831 91.3537C172.285 91.8379 172.965 91.7685 173.351 91.1986C173.737 90.6287 173.681 89.7742 173.228 89.29Z" fill="#81584A"/>
<path d="M174.017 89.29L176.764 86.3592C177.218 85.875 177.899 85.9444 178.284 86.5143C178.67 87.0841 178.615 87.9386 178.161 88.4228L175.413 91.3537C174.959 91.8379 174.279 91.7685 173.893 91.1986C173.507 90.6287 173.563 89.7742 174.017 89.29Z" fill="#81584A"/>
<path d="M175.335 87.4055C175.335 86.4227 174.7 85.626 173.917 85.626C173.135 85.626 172.5 86.4227 172.5 87.4055V89.0304C172.5 90.0132 173.135 90.8099 173.917 90.8099C174.7 90.8099 175.335 90.0132 175.335 89.0304V87.4055Z" fill="#906253"/>
<path d="M167.557 75.9942L161.671 74.0072C161.033 73.7918 160.451 74.0882 160.37 74.6692C160.29 75.2502 160.742 75.8959 161.38 76.1113L167.266 78.0982C167.904 78.3136 168.487 78.0173 168.567 77.4362C168.647 76.8552 168.195 76.2096 167.557 75.9942Z" fill="#4D4D4D"/>
<path d="M161.764 75.5924C161.815 75.1631 161.521 74.6884 161.107 74.5321C160.693 74.3757 160.316 74.597 160.265 75.0263L160.053 76.8066C160.001 77.2359 160.295 77.7107 160.709 77.867C161.123 78.0233 161.5 77.802 161.552 77.3727L161.764 75.5924Z" fill="#4D4D4D"/>
<path d="M179.335 75.9899L185.222 74.0041C185.86 73.7888 186.442 74.0852 186.522 74.6662C186.602 75.2472 186.15 75.8927 185.512 76.108L179.626 78.0939C178.988 78.3091 178.406 78.0127 178.325 77.4317C178.245 76.8507 178.697 76.2052 179.335 75.9899Z" fill="#4D4D4D"/>
<path d="M185.129 75.5914C185.078 75.1621 185.372 74.6874 185.786 74.5311C186.2 74.3748 186.577 74.5961 186.628 75.0254L186.84 76.8057C186.891 77.235 186.597 77.7097 186.183 77.866C185.769 78.0223 185.392 77.801 185.341 77.3717L185.129 75.5914Z" fill="#4D4D4D"/>
<path d="M171.724 75.0737C171.724 74.4996 171.354 74.0342 170.896 74.0342C170.439 74.0342 170.068 74.4996 170.068 75.0737V76.332C170.068 76.9061 170.439 77.3715 170.896 77.3715C171.354 77.3715 171.724 76.9061 171.724 76.332V75.0737Z" fill="#81584A"/>
<path d="M177.217 75.0737C177.217 74.4996 176.846 74.0342 176.389 74.0342C175.931 74.0342 175.561 74.4996 175.561 75.0737V76.332C175.561 76.9061 175.931 77.3715 176.389 77.3715C176.846 77.3715 177.217 76.9061 177.217 76.332V75.0737Z" fill="#81584A"/>
<path d="M175.331 87.4026C175.331 86.4198 174.696 85.623 173.914 85.623C173.131 85.623 172.496 86.4198 172.496 87.4026V89.0274C172.496 90.0103 173.131 90.807 173.914 90.807C174.696 90.807 175.331 90.0103 175.331 89.0274V87.4026Z" fill="#906253"/>
<path d="M167.369 75.5652L161.477 74.5572C160.838 74.448 160.336 74.7842 160.356 75.3081C160.376 75.8321 160.91 76.3455 161.548 76.4548L167.441 77.4627C168.08 77.572 168.581 77.2358 168.562 76.7118C168.542 76.1878 168.008 75.6745 167.369 75.5652Z" fill="#4D4D4D"/>
<path d="M161.618 76.1088C161.604 75.6715 161.289 75.2489 160.914 75.1649C160.539 75.0808 160.245 75.3672 160.259 75.8044L160.315 77.6178C160.328 78.0551 160.643 78.4777 161.018 78.5617C161.394 78.6458 161.687 78.3594 161.673 77.9221L161.618 76.1088Z" fill="#4D4D4D"/>
<path d="M179.675 75.1868L185.426 74.5294C186.049 74.4582 186.499 74.9102 186.431 75.5391C186.363 76.168 185.802 76.7356 185.178 76.8068L179.428 77.4642C178.805 77.5354 178.354 77.0834 178.423 76.4545C178.491 75.8256 179.052 75.258 179.675 75.1868Z" fill="#4D4D4D"/>
<path d="M185.366 76.293C185.402 75.8405 185.69 75.4358 186.008 75.3892C186.326 75.3425 186.555 75.6716 186.519 76.1241L186.369 78.0008C186.333 78.4533 186.045 78.858 185.727 78.9047C185.409 78.9513 185.18 78.6223 185.216 78.1697L185.366 76.293Z" fill="#4D4D4D"/>
<path d="M195.626 70.8897C195.55 70.8818 195.473 70.8816 195.395 70.8905C195.307 70.9007 195.217 70.9223 195.129 70.9558L194.946 71.0244C194.356 71.2472 193.987 71.9315 194 72.6684C193.943 72.5654 193.874 72.4755 193.802 72.3923V74.6756C196.357 76.0069 198.146 79.167 198.146 82.8724C198.146 86.5974 196.338 89.7704 193.76 91.0892C193.687 92.4196 193.5 93.7087 193.217 94.9462V96.223C193.152 96.0914 193.074 95.9713 192.988 95.8615C191.703 100.56 188.972 104.396 185.456 106.537V109.402C185.456 110.554 186.193 111.481 187.11 111.481H187.873C188.79 111.481 189.527 110.554 189.527 109.402V108.842C189.776 109.595 190.364 110.122 191.055 110.122H191.818C192.734 110.122 193.472 109.194 193.472 108.042V107.383C193.764 107.97 194.278 108.362 194.872 108.362C195.788 108.362 196.526 107.434 196.526 106.282V94.5998L196.866 96.023C197.079 96.9143 197.822 97.4169 198.53 97.1491C199.239 96.8814 199.638 95.9479 199.426 95.0567L197.611 87.4614C197.945 87.934 198.476 88.1496 198.991 87.9551L199.174 87.8856C199.883 87.6179 200.282 86.6852 200.069 85.794L196.793 72.0811C196.63 71.3987 196.157 70.945 195.626 70.8897V70.8897ZM152.618 71.0026C152.087 71.0579 151.614 71.5116 151.451 72.194L148.174 85.9069C147.962 86.7982 148.361 87.7309 149.069 87.9986L149.252 88.068C149.768 88.2626 150.298 88.0469 150.633 87.5744L148.818 95.1696C148.605 96.0608 149.004 96.9944 149.713 97.2621C150.422 97.5298 151.164 97.028 151.377 96.1368L151.446 95.8498V106.282C151.446 107.434 152.183 108.362 153.1 108.362C153.693 108.362 154.208 107.97 154.5 107.383V108.042C154.5 109.194 155.237 110.122 156.153 110.122H156.917C157.607 110.122 158.195 109.596 158.444 108.845V109.402C158.444 110.554 159.182 111.481 160.098 111.481H160.861C161.778 111.481 162.516 110.554 162.516 109.402V106.462C159.031 104.29 156.335 100.447 155.077 95.7536C154.952 95.8897 154.842 96.046 154.754 96.2229V94.3781C154.54 93.3153 154.396 92.2172 154.333 91.0892C151.756 89.7704 149.948 86.5974 149.948 82.8723C149.948 79.167 151.737 76.0069 154.292 74.6756V72.7069C154.276 72.7321 154.258 72.7549 154.243 72.7814C154.257 72.0448 153.887 71.36 153.297 71.1373L153.115 71.0687C153.026 71.0353 152.937 71.0136 152.848 71.0034C152.77 70.9946 152.694 70.9947 152.618 71.0026V71.0026Z" fill="#4D4D4D"/>
<path d="M158.214 55.5254C155.391 58.8678 153.623 63.6981 153.623 69.0877V90.7681C153.623 100.904 159.875 109.063 167.64 109.063H179.942C187.707 109.063 193.959 100.904 193.959 90.7681V69.0877C193.959 63.6981 192.191 58.8678 189.368 55.5254C191.519 58.7851 192.82 63.031 192.82 67.6905V89.7658C192.82 100.086 186.455 108.394 178.548 108.394H169.035C161.128 108.394 154.762 100.086 154.762 89.7658V67.6905C154.762 63.031 156.063 58.7851 158.214 55.5254Z" fill="#565656"/>
<path d="M166.448 108.855C166.448 107.887 165.847 107.102 165.105 107.102C164.363 107.102 163.762 107.887 163.762 108.855V110.891C163.762 111.859 164.363 112.645 165.105 112.645C165.847 112.645 166.448 111.859 166.448 110.891V108.855Z" fill="#565656"/>
<path d="M168.962 110.453C168.962 109.484 168.361 108.699 167.619 108.699C166.877 108.699 166.275 109.484 166.275 110.453V112.489C166.275 113.457 166.877 114.242 167.619 114.242C168.361 114.242 168.962 113.457 168.962 112.489V110.453Z" fill="#565656"/>
<path d="M171.448 111.334C171.448 110.366 170.847 109.581 170.105 109.581C169.363 109.581 168.762 110.366 168.762 111.334V113.371C168.762 114.339 169.363 115.124 170.105 115.124C170.847 115.124 171.448 114.339 171.448 113.371V111.334Z" fill="#565656"/>
<path d="M173.896 111.534C173.896 110.565 173.294 109.78 172.552 109.78C171.81 109.78 171.209 110.565 171.209 111.534V113.57C171.209 114.538 171.81 115.323 172.552 115.323C173.294 115.323 173.896 114.538 173.896 113.57V111.534Z" fill="#565656"/>
<path d="M164.189 105.34C164.189 104.184 163.471 103.247 162.586 103.247C161.7 103.247 160.982 104.184 160.982 105.34V107.77C160.982 108.926 161.7 109.863 162.586 109.863C163.471 109.863 164.189 108.926 164.189 107.77V105.34Z" fill="#565656"/>
<path d="M161.416 103.192C161.416 102.037 160.698 101.1 159.812 101.1C158.927 101.1 158.209 102.037 158.209 103.192V105.623C158.209 106.778 158.927 107.715 159.812 107.715C160.698 107.715 161.416 106.778 161.416 105.623V103.192Z" fill="#565656"/>
<path d="M159.076 100.59C159.076 99.434 158.358 98.4971 157.472 98.4971C156.587 98.4971 155.869 99.434 155.869 100.59V103.02C155.869 104.176 156.587 105.113 157.472 105.113C158.358 105.113 159.076 104.176 159.076 103.02V100.59Z" fill="#565656"/>
<path d="M181.136 108.855C181.136 107.887 181.737 107.102 182.479 107.102C183.221 107.102 183.822 107.887 183.822 108.855V110.891C183.822 111.859 183.221 112.645 182.479 112.645C181.737 112.645 181.136 111.859 181.136 110.891V108.855Z" fill="#565656"/>
<path d="M178.622 110.453C178.622 109.484 179.223 108.699 179.965 108.699C180.707 108.699 181.309 109.484 181.309 110.453V112.489C181.309 113.457 180.707 114.242 179.965 114.242C179.223 114.242 178.622 113.457 178.622 112.489V110.453Z" fill="#565656"/>
<path d="M176.139 111.334C176.139 110.366 176.741 109.581 177.483 109.581C178.225 109.581 178.826 110.366 178.826 111.334V113.371C178.826 114.339 178.225 115.124 177.483 115.124C176.741 115.124 176.139 114.339 176.139 113.371V111.334Z" fill="#565656"/>
<path d="M173.69 111.534C173.69 110.565 174.292 109.78 175.034 109.78C175.776 109.78 176.377 110.565 176.377 111.534V113.57C176.377 114.538 175.776 115.323 175.034 115.323C174.292 115.323 173.69 114.538 173.69 113.57V111.534Z" fill="#565656"/>
<path d="M183.395 105.34C183.395 104.184 184.113 103.247 184.998 103.247C185.884 103.247 186.602 104.184 186.602 105.34V107.77C186.602 108.926 185.884 109.863 184.998 109.863C184.113 109.863 183.395 108.926 183.395 107.77V105.34Z" fill="#565656"/>
<path d="M186.17 103.192C186.17 102.037 186.888 101.1 187.774 101.1C188.659 101.1 189.377 102.037 189.377 103.192V105.623C189.377 106.778 188.659 107.715 187.774 107.715C186.888 107.715 186.17 106.778 186.17 105.623V103.192Z" fill="#565656"/>
<path d="M188.51 100.59C188.51 99.434 189.228 98.4971 190.113 98.4971C190.999 98.4971 191.717 99.434 191.717 100.59V103.02C191.717 104.176 190.999 105.113 190.113 105.113C189.228 105.113 188.51 104.176 188.51 103.02V100.59Z" fill="#565656"/>
<path d="M167.719 88.2188C164.584 88.2188 162.061 91.5124 162.061 95.604V104.243C162.061 108.335 164.584 111.629 167.719 111.629H179.859C182.994 111.629 185.518 108.335 185.518 104.243V95.604C185.518 91.5124 182.994 88.2188 179.859 88.2188H178.672C178.713 88.6688 178.587 89.136 178.301 89.4528L177.821 89.9849C178.106 90.3334 178.317 90.7829 178.409 91.2977H180.056C181.809 91.2977 183.22 93.1388 183.22 95.4266V99.1414C183.22 100.009 183.016 100.812 182.668 101.476V102.495C182.668 105.761 180.654 108.39 178.152 108.39H169.426C166.924 108.39 164.91 105.761 164.91 102.495V101.476C164.562 100.812 164.359 100.009 164.359 99.1414V95.4266C164.359 93.1388 165.769 91.2977 167.522 91.2977H168.558C168.682 90.6049 169.016 90.0241 169.466 89.6628L169.277 89.4528C168.991 89.136 168.865 88.6688 168.906 88.2188H167.719Z" fill="#565656"/>
<path d="M165.125 48.0381C157.688 48.0381 151.701 55.6119 151.701 65.0198C151.701 65.4617 151.719 65.8977 151.745 66.3309C151.719 66.5525 151.701 66.7776 151.701 67.0086V77.4116C151.701 79.644 152.949 81.4936 154.614 81.912V68.3363C154.614 58.6183 160.798 50.794 168.48 50.794H179.328C187.01 50.794 193.194 58.6183 193.194 68.3363V81.9304C194.906 81.56 196.203 79.6865 196.203 77.4116V67.0086C196.203 66.7776 196.185 66.5525 196.159 66.3309C196.185 65.8977 196.203 65.4617 196.203 65.0198C196.203 55.6119 190.217 48.0381 182.78 48.0381H165.125Z" fill="#4D4D4D"/>
<path d="M180.536 45.8965H168.368C164.269 45.8965 160.945 50.0747 160.945 55.2288C160.945 60.383 164.269 64.5612 168.368 64.5612H180.536C184.636 64.5612 187.959 60.383 187.959 55.2288C187.959 50.0747 184.636 45.8965 180.536 45.8965Z" fill="#4D4D4D"/>
<path d="M165.085 51.8256C165.085 50.3681 164.145 49.1865 162.986 49.1865C161.826 49.1865 160.887 50.3681 160.887 51.8256V57.9452C160.887 59.4027 161.826 60.5842 162.986 60.5842C164.145 60.5842 165.085 59.4027 165.085 57.9452V51.8256Z" fill="#4D4D4D"/>
<path d="M188.932 52.0551C188.932 50.5976 187.993 49.416 186.833 49.416C185.674 49.416 184.734 50.5976 184.734 52.0551V58.1747C184.734 59.6322 185.674 60.8137 186.833 60.8137C187.993 60.8137 188.932 59.6322 188.932 58.1747V52.0551Z" fill="#4D4D4D"/>
<path d="M160.088 54.8417C159.979 53.8799 159.269 53.2122 158.504 53.3504C157.739 53.4886 157.208 54.3803 157.318 55.3421L157.673 58.4465C157.783 59.4083 158.492 60.076 159.257 59.9378C160.022 59.7997 160.553 58.9079 160.443 57.9461L160.088 54.8417Z" fill="#4D4D4D"/>
<path d="M189.765 55.5986C189.875 54.6368 190.584 53.9691 191.349 54.1072C192.114 54.2454 192.645 55.1371 192.535 56.0989L192.181 59.2033C192.071 60.1651 191.362 60.8328 190.597 60.6947C189.832 60.5565 189.3 59.6648 189.41 58.703L189.765 55.5986Z" fill="#4D4D4D"/>
<path d="M172.995 50.5312H174.306C175.079 50.5312 175.705 51.319 175.705 52.2906V58.7162C175.705 59.6879 175.079 60.4756 174.306 60.4756H172.995C172.223 60.4756 171.596 59.6879 171.596 58.7162V52.2906C171.596 51.319 172.223 50.5312 172.995 50.5312Z" fill="#565656"/>
<path d="M167.339 50.7217H169.069C169.674 50.7217 170.164 51.3381 170.164 52.0986V58.9066C170.164 59.6671 169.674 60.2835 169.069 60.2835H167.339C166.734 60.2835 166.244 59.6671 166.244 58.9066V52.0986C166.244 51.3381 166.734 50.7217 167.339 50.7217Z" fill="#565656"/>
<path d="M179.96 50.7217H178.23C177.625 50.7217 177.135 51.3381 177.135 52.0986V58.9066C177.135 59.6671 177.625 60.2835 178.23 60.2835H179.96C180.565 60.2835 181.055 59.6671 181.055 58.9066V52.0986C181.055 51.3381 180.565 50.7217 179.96 50.7217Z" fill="#565656"/>
</svg>
