<svg width="351" height="351" viewBox="0 0 351 351" fill="none" xmlns="http://www.w3.org/2000/svg">
<circle cx="175.979" cy="175.022" r="173.197" stroke="black" stroke-width="3.60643"/>
<rect x="27.1997" y="51.1714" width="295.472" height="295.472" stroke="black" stroke-width="3.60643"/>
<path d="M149.264 129.568L149.266 129.525C149.444 126.826 144.603 124.856 138.454 125.125L127.152 124.607L114.767 124.635L103.497 124.868L92.264 126.123C86.1154 126.393 81.0087 129.823 80.8314 132.523L80.8287 132.565C80.6514 135.265 81.7402 134.032 99.6504 135.378L106.195 136.857C109.972 137.711 113.994 137.769 117.962 137.044L137.81 134.944C143.958 134.674 149.086 132.267 149.264 129.568Z" fill="#81584A"/>
<path d="M109.197 132.224C111.576 132.094 113.566 131.076 113.642 129.95C113.719 128.824 111.853 128.017 109.475 128.147L106.344 128.318C103.965 128.448 101.975 129.467 101.899 130.593C101.822 131.719 103.688 132.526 106.066 132.396L109.197 132.224Z" fill="#906253"/>
<path d="M96.7578 138.15C102.688 138.698 116.286 137.211 116.648 133.851C117.009 130.491 112.495 127.323 106.564 126.775L62.0316 122.663C56.101 122.115 50.9999 124.395 50.638 127.756L50.6324 127.808C50.2705 131.168 54.7849 134.336 60.7155 134.884L96.7578 138.15Z" fill="#81584A"/>
<path d="M68.8077 131.941L68.9661 129.738C69.2696 125.515 63.9201 121.595 57.0176 120.983L50.8854 120.44C43.9829 119.828 38.1413 122.756 37.8378 126.979L37.6794 129.183C37.3759 133.406 42.7254 137.325 49.6279 137.937L55.7601 138.481C62.6625 139.092 68.5042 136.165 68.8077 131.941Z" fill="#906253"/>
<path d="M97.0486 138.55C104.491 139.198 110.757 136.546 111.045 132.626C111.333 128.707 105.533 125.004 98.0915 124.356L87.5099 123.435C80.0679 122.788 73.8016 125.44 73.5136 129.36C73.2256 133.279 79.0251 136.982 86.4671 137.629L97.0486 138.55Z" fill="#906253"/>
<path d="M99.9255 137.9C101.286 138.012 102.431 137.56 102.484 136.891C102.537 136.223 101.478 135.59 100.118 135.479L91.1913 134.749C89.8313 134.637 88.6858 135.089 88.6328 135.758C88.5797 136.426 89.6392 137.059 90.9992 137.17L99.9255 137.9Z" fill="#9D6B5A"/>
<path d="M51.3303 131.887C55.7354 131.155 58.1395 127.875 56.7001 124.562C55.2606 121.248 50.5227 119.156 46.1177 119.888L34.0861 121.888C29.681 122.62 27.2769 125.9 28.7163 129.213C30.1558 132.527 34.8937 134.619 39.2987 133.887L51.3303 131.887Z" fill="#906253"/>
<path d="M53.0879 139.06C56.137 139.324 58.7178 138.066 58.8522 136.25C58.9867 134.435 56.624 132.749 53.5749 132.485L45.2469 131.765C42.1978 131.502 39.6171 132.76 39.4826 134.575C39.3481 136.391 41.7109 138.076 44.7599 138.34L53.0879 139.06Z" fill="#9D6B5A"/>
<path d="M201.885 131.526L201.88 131.483C201.515 128.77 206.193 126.635 212.328 126.715L223.534 125.841L235.855 125.484L247.081 125.367L258.341 126.282C264.475 126.362 269.793 129.658 270.157 132.372L270.163 132.414C270.527 135.128 261.09 135.568 251.925 136.911L249.414 137.591C247.37 138.145 245.24 138.457 243.061 138.52L238.959 138.639L213.652 136.583C207.517 136.504 202.249 134.239 201.885 131.526Z" fill="#81584A"/>
<path d="M241.938 132.998C239.565 132.937 237.517 131.964 237.364 130.825C237.21 129.687 239.01 128.814 241.383 128.876L244.508 128.957C246.881 129.019 248.929 129.992 249.082 131.13C249.235 132.269 247.436 133.141 245.063 133.08L241.938 132.998Z" fill="#906253"/>
<path d="M233.062 133.534L233.057 133.484C232.72 130.251 237.253 127.152 243.181 126.561L287.695 122.126C293.623 121.535 298.702 123.677 299.039 126.91L299.044 126.96C299.381 130.193 294.848 133.292 288.92 133.883L244.406 138.318C238.478 138.909 233.399 136.767 233.062 133.534Z" fill="#81584A"/>
<path d="M280.887 131.185L280.744 129.058C280.471 124.981 285.839 121.137 292.733 120.471L298.857 119.879C305.751 119.213 311.561 121.978 311.834 126.054L311.976 128.181C312.249 132.258 306.882 136.102 299.988 136.768L293.863 137.36C286.969 138.026 281.159 135.261 280.887 131.185Z" fill="#906253"/>
<path d="M252.6 137.801C245.164 138.507 238.926 136.015 238.667 132.236C238.408 128.456 244.225 124.821 251.66 124.115L262.232 123.111C269.667 122.406 275.905 124.898 276.165 128.677C276.424 132.456 270.607 136.092 263.172 136.798L252.6 137.801Z" fill="#906253"/>
<path d="M249.707 137.217C248.348 137.339 247.207 136.916 247.159 136.273C247.111 135.63 248.174 135.01 249.533 134.888L258.455 134.09C259.815 133.968 260.956 134.391 261.004 135.034C261.052 135.678 259.989 136.298 258.629 136.419L249.707 137.217Z" fill="#9D6B5A"/>
<path d="M298.34 130.989C293.941 130.328 291.56 127.169 293.021 123.931C294.482 120.694 299.232 118.606 303.63 119.267L315.643 121.072C320.042 121.733 322.423 124.893 320.962 128.13C319.501 131.367 314.751 133.455 310.353 132.794L298.34 130.989Z" fill="#906253"/>
<path d="M296.516 137.911C293.469 138.198 290.901 137.013 290.78 135.262C290.659 133.512 293.03 131.861 296.077 131.574L304.398 130.789C307.445 130.502 310.013 131.687 310.134 133.437C310.255 135.187 307.884 136.839 304.837 137.126L296.516 137.911Z" fill="#9D6B5A"/>
<path d="M195.835 156.491C195.835 136.921 189.087 133.515 174.735 133.515C160.384 133.515 154.5 136.921 154.5 156.491L154.5 177.532L174.735 229.982L193.086 197.236L195.835 177.532V156.491Z" fill="#81584A"/>
<path d="M216.977 120.146H131.642C122.404 120.146 114.916 124.822 114.916 130.592C114.916 136.361 122.404 141.038 131.642 141.038H216.977C226.214 141.038 233.702 136.361 233.702 130.592C233.702 124.822 226.214 120.146 216.977 120.146Z" fill="#906253"/>
<path d="M177.581 157.782H173.236C162.874 157.782 154.475 167.121 154.475 178.642V193.712C154.475 205.233 162.874 214.572 173.236 214.572H177.581C187.943 214.572 196.342 205.233 196.342 193.712V178.642C196.342 167.121 187.943 157.782 177.581 157.782Z" fill="#906253"/>
<path d="M188.054 119.179H161.922C155.18 119.179 149.715 125.853 149.715 134.087V143.072C149.715 151.306 155.18 157.98 161.922 157.98H188.054C194.796 157.98 200.261 151.306 200.261 143.072V134.087C200.261 125.853 194.796 119.179 188.054 119.179Z" fill="#906253"/>
<path d="M190.371 119.179H159.787C154.323 119.179 149.895 125.853 149.895 134.087V143.072C149.895 151.306 154.323 157.98 159.787 157.98H190.371C195.834 157.98 200.263 151.306 200.263 143.072V134.087C200.263 125.853 195.834 119.179 190.371 119.179Z" fill="#9D6B5A"/>
<path d="M177.544 153.436C177.544 152.172 176.339 151.147 174.853 151.147C173.367 151.147 172.162 152.172 172.162 153.436V157.874C172.162 159.137 173.367 160.162 174.853 160.162C176.339 160.162 177.544 159.137 177.544 157.874V153.436Z" fill="#81584A"/>
<path d="M189.808 141.038H183.627C181.851 141.038 180.412 142.974 180.412 145.363C180.412 147.751 181.851 149.688 183.627 149.688H189.808C191.583 149.688 193.022 147.751 193.022 145.363C193.022 142.974 191.583 141.038 189.808 141.038Z" fill="#AC7967"/>
<path d="M167.99 141.038H161.808C160.033 141.038 158.594 142.974 158.594 145.363C158.594 147.751 160.033 149.688 161.808 149.688H167.99C169.765 149.688 171.204 147.751 171.204 145.363C171.204 142.974 169.765 141.038 167.99 141.038Z" fill="#AC7967"/>
<path d="M185.385 103.092C185.385 93.0835 180.723 84.9697 174.972 84.9697C169.221 84.9697 164.559 93.0835 164.559 103.092V110.527C164.559 120.536 169.221 128.65 174.972 128.65C180.723 128.65 185.385 120.536 185.385 110.527V103.092Z" fill="#9D6B5A"/>
<path d="M157.626 150.318H155.187C154.214 150.318 153.426 151.298 153.426 152.506C153.426 153.714 154.214 154.693 155.187 154.693H157.626C158.599 154.693 159.387 153.714 159.387 152.506C159.387 151.298 158.599 150.318 157.626 150.318Z" fill="#81584A"/>
<path d="M177.494 84.9697H171.623C164.885 84.9697 159.422 90.4324 159.422 97.171V102.177C159.422 108.915 164.885 114.378 171.623 114.378H177.494C184.232 114.378 189.695 108.915 189.695 102.177V97.171C189.695 90.4324 184.232 84.9697 177.494 84.9697Z" fill="#81584A"/>
<path d="M136.219 119.179H134.032C128.194 119.179 123.461 123.149 123.461 128.047C123.461 132.945 128.194 136.915 134.032 136.915H136.219C142.057 136.915 146.79 132.945 146.79 128.047C146.79 123.149 142.057 119.179 136.219 119.179Z" fill="#9D6B5A"/>
<path d="M215.43 122.708H213.103C206.89 122.708 201.854 125.675 201.854 129.336C201.854 132.997 206.89 135.964 213.103 135.964H215.43C221.643 135.964 226.68 132.997 226.68 129.336C226.68 125.675 221.643 122.708 215.43 122.708Z" fill="#9D6B5A"/>
<path d="M136.067 122.159H132.787C130.975 122.159 129.506 123.391 129.506 124.911C129.506 126.431 130.975 127.664 132.787 127.664H136.067C137.879 127.664 139.348 126.431 139.348 124.911C139.348 123.391 137.879 122.159 136.067 122.159Z" fill="#AC7967"/>
<path d="M219.662 122.375H216.171C214.243 122.375 212.68 123.607 212.68 125.127C212.68 126.647 214.243 127.879 216.171 127.879H219.662C221.59 127.879 223.153 126.647 223.153 125.127C223.153 123.607 221.59 122.375 219.662 122.375Z" fill="#AC7967"/>
<path d="M191.215 73.5342H157.213C153.325 73.5342 150.174 77.5731 150.174 82.5554C150.174 87.5377 153.325 91.5767 157.213 91.5767H191.215C195.103 91.5767 198.254 87.5377 198.254 82.5554C198.254 77.5731 195.103 73.5342 191.215 73.5342Z" fill="#9D6B5A"/>
<path d="M192.649 75.8281H156.876C153.781 75.8281 151.271 78.8402 151.271 82.5558C151.271 86.2715 153.781 89.2836 156.876 89.2836H192.649C195.744 89.2836 198.253 86.2715 198.253 82.5558C198.253 78.8402 195.744 75.8281 192.649 75.8281Z" fill="#81584A"/>
<path d="M181.235 48.1777H171.612C163.638 48.1777 157.174 56.6586 157.174 67.1203V89.5681C157.174 100.03 163.638 108.511 171.612 108.511H181.235C189.209 108.511 195.673 100.03 195.673 89.5681V67.1203C195.673 56.6586 189.209 48.1777 181.235 48.1777Z" fill="#9D6B5A"/>
<path d="M181.698 106.021H171.061C169.911 106.021 168.979 107.055 168.979 108.331C168.979 109.606 169.911 110.641 171.061 110.641H181.698C182.848 110.641 183.781 109.606 183.781 108.331C183.781 107.055 182.848 106.021 181.698 106.021Z" fill="#9D6B5A"/>
<path d="M170.99 168.788H166.165C163.864 168.788 161.998 170.464 161.998 172.53C161.998 174.597 163.864 176.273 166.165 176.273H170.99C173.292 176.273 175.157 174.597 175.157 172.53C175.157 170.464 173.292 168.788 170.99 168.788Z" fill="#9D6B5A"/>
<path d="M170.99 177.611H166.165C163.864 177.611 161.998 179.287 161.998 181.354C161.998 183.421 163.864 185.096 166.165 185.096H170.99C173.292 185.096 175.157 183.421 175.157 181.354C175.157 179.287 173.292 177.611 170.99 177.611Z" fill="#9D6B5A"/>
<path d="M170.99 186.438H166.165C163.864 186.438 161.998 188.113 161.998 190.18C161.998 192.247 163.864 193.922 166.165 193.922H170.99C173.292 193.922 175.157 192.247 175.157 190.18C175.157 188.113 173.292 186.438 170.99 186.438Z" fill="#9D6B5A"/>
<path d="M185.729 168.788H180.903C178.602 168.788 176.736 170.464 176.736 172.53C176.736 174.597 178.602 176.273 180.903 176.273H185.729C188.03 176.273 189.896 174.597 189.896 172.53C189.896 170.464 188.03 168.788 185.729 168.788Z" fill="#9D6B5A"/>
<path d="M185.729 177.611H180.903C178.602 177.611 176.736 179.287 176.736 181.354C176.736 183.421 178.602 185.096 180.903 185.096H185.729C188.03 185.096 189.896 183.421 189.896 181.354C189.896 179.287 188.03 177.611 185.729 177.611Z" fill="#9D6B5A"/>
<path d="M185.729 186.438H180.903C178.602 186.438 176.736 188.113 176.736 190.18C176.736 192.247 178.602 193.922 180.903 193.922H185.729C188.03 193.922 189.896 192.247 189.896 190.18C189.896 188.113 188.03 186.438 185.729 186.438Z" fill="#9D6B5A"/>
<path d="M169.156 124.169L160.893 120.197C159.974 119.755 158.87 120.142 158.428 121.061C157.986 121.981 158.373 123.084 159.293 123.526L167.555 127.498C168.475 127.94 169.578 127.553 170.02 126.634C170.462 125.714 170.075 124.611 169.156 124.169Z" fill="#81584A"/>
<path d="M178.997 124.169L187.259 120.197C188.178 119.755 189.282 120.142 189.724 121.061C190.166 121.981 189.779 123.084 188.86 123.526L180.597 127.498C179.678 127.94 178.574 127.553 178.132 126.634C177.69 125.714 178.077 124.611 178.997 124.169Z" fill="#81584A"/>
<path d="M158.366 199.083C157.275 199.083 156.222 199.327 155.227 199.775C156.393 217.574 165.182 231.325 175.925 231.325C186.807 231.325 195.685 217.217 196.665 199.083C196.664 199.083 196.663 199.083 196.662 199.083H158.366Z" fill="#4F4F4F"/>
<path d="M195.172 197.119H156.746C155.907 197.119 155.227 198.199 155.227 199.53V203.264C155.227 204.596 155.907 205.675 156.746 205.675H195.172C196.011 205.675 196.691 204.596 196.691 203.264V199.53C196.691 198.199 196.011 197.119 195.172 197.119Z" fill="#5B5B5B"/>
<path d="M201.854 156.491C201.854 136.921 192.457 133.515 175.879 133.515C159.302 133.515 150.174 136.921 150.174 156.491L152.505 177.532H175.879H200.252L201.854 156.491Z" fill="#81584A"/>
<path d="M216.977 119.179H131.642C122.404 119.179 114.916 124.072 114.916 130.108C114.916 136.145 122.404 141.038 131.642 141.038H216.977C226.214 141.038 233.702 136.145 233.702 130.108C233.702 124.072 226.214 119.179 216.977 119.179Z" fill="#906253"/>
<path d="M200.263 139.196C200.263 127.616 188.988 118.229 175.079 118.229C161.17 118.229 149.895 127.616 149.895 139.196C149.895 150.775 161.17 160.162 175.079 160.162C188.988 160.162 200.263 150.775 200.263 139.196Z" fill="#81584A"/>
<path d="M179.182 157.782H174.157C162.175 157.782 152.461 167.121 152.461 178.642V193.712C152.461 205.233 162.175 214.572 174.157 214.572H179.182C191.164 214.572 200.877 205.233 200.877 193.712V178.642C200.877 167.121 191.164 157.782 179.182 157.782Z" fill="#906253"/>
<path d="M188.28 119.18H162.631C156.013 119.18 150.648 125.854 150.648 134.088V143.073C150.648 151.307 156.013 157.981 162.631 157.981H188.28C194.897 157.981 200.262 151.307 200.262 143.073V134.088C200.262 125.854 194.897 119.18 188.28 119.18Z" fill="#906253"/>
<path d="M206.824 134.394C206.824 134.394 201.694 118.316 198.168 118.316L188.132 116.58L175.837 118.316L160.597 116.58L153.185 118.316C149.377 118.316 143.152 125.514 143.152 134.394C143.152 143.273 145.289 160.162 153.185 160.162H197.388C205.284 160.162 206.824 147.261 206.824 134.394Z" fill="#9D6B5A"/>
<path d="M177.544 153.436C177.544 152.172 176.339 151.147 174.853 151.147C173.367 151.147 172.162 152.172 172.162 153.436V157.874C172.162 159.137 173.367 160.162 174.853 160.162C176.339 160.162 177.544 159.137 177.544 157.874V153.436Z" fill="#81584A"/>
<path d="M189.808 141.038H183.627C181.851 141.038 180.412 142.403 180.412 144.087C180.412 145.771 181.851 147.136 183.627 147.136H189.808C191.583 147.136 193.022 145.771 193.022 144.087C193.022 142.403 191.583 141.038 189.808 141.038Z" fill="#AC7967"/>
<path d="M167.99 141.038H161.808C160.033 141.038 158.594 142.403 158.594 144.087C158.594 145.771 160.033 147.136 161.808 147.136H167.99C169.765 147.136 171.204 145.771 171.204 144.087C171.204 142.403 169.765 141.038 167.99 141.038Z" fill="#AC7967"/>
<path d="M186.742 105.58C186.742 95.5708 181.286 87.457 174.556 87.457C167.825 87.457 162.369 95.5708 162.369 105.58V113.014C162.369 123.023 167.825 131.137 174.556 131.137C181.286 131.137 186.742 123.023 186.742 113.014V105.58Z" fill="#9D6B5A"/>
<path d="M158.935 150.318H156.783C155.924 150.318 155.229 151.298 155.229 152.506C155.229 153.714 155.924 154.693 156.783 154.693H158.935C159.794 154.693 160.49 153.714 160.49 152.506C160.49 151.298 159.794 150.318 158.935 150.318Z" fill="#81584A"/>
<path d="M194.119 150.318H191.967C191.108 150.318 190.412 151.298 190.412 152.506C190.412 153.714 191.108 154.693 191.967 154.693H194.119C194.977 154.693 195.673 153.714 195.673 152.506C195.673 151.298 194.977 150.318 194.119 150.318Z" fill="#81584A"/>
<path d="M177.494 84.9697H171.623C164.885 84.9697 159.422 89.7382 159.422 95.6204V99.9899C159.422 105.872 164.885 110.641 171.623 110.641H177.494C184.232 110.641 189.695 105.872 189.695 99.9899V95.6204C189.695 89.7382 184.232 84.9697 177.494 84.9697Z" fill="#81584A"/>
<path d="M136.219 119.18H134.032C128.194 119.18 123.461 123.15 123.461 128.048C123.461 132.946 128.194 136.916 134.032 136.916H136.219C142.057 136.916 146.79 132.946 146.79 128.048C146.79 123.15 142.057 119.18 136.219 119.18Z" fill="#9D6B5A"/>
<path d="M212.425 119.18H214.612C220.451 119.18 225.184 123.15 225.184 128.048C225.184 132.946 220.451 136.916 214.612 136.916H212.425C206.587 136.916 201.854 132.946 201.854 128.048C201.854 123.15 206.587 119.18 212.425 119.18Z" fill="#9D6B5A"/>
<path d="M132.067 122.159H128.787C126.975 122.159 125.506 123.391 125.506 124.911C125.506 126.431 126.975 127.664 128.787 127.664H132.067C133.879 127.664 135.348 126.431 135.348 124.911C135.348 123.391 133.879 122.159 132.067 122.159Z" fill="#AC7967"/>
<path d="M217.583 122.159H220.864C222.676 122.159 224.145 123.391 224.145 124.911C224.145 126.431 222.676 127.664 220.864 127.664H217.583C215.771 127.664 214.302 126.431 214.302 124.911C214.302 123.391 215.771 122.159 217.583 122.159Z" fill="#AC7967"/>
<path d="M189.694 345.455C185.889 345.455 182.804 342.147 182.804 338.067V310.16C182.804 308.446 182.45 306.749 181.764 305.178C181.078 303.606 180.724 301.91 180.724 300.195V296.196C180.724 294.173 180.919 292.155 181.305 290.17L181.337 290.004C181.724 288.019 181.919 286.001 181.919 283.978V272.387C182.422 268.717 185.565 265.927 189.269 265.927C193.362 265.927 196.68 269.245 196.68 273.338L196.68 301.171L196.68 319.392L198.189 338.067C198.189 342.147 195.105 345.455 191.3 345.455H189.694Z" fill="#906253"/>
<path d="M189.842 284.14H189.176C185.183 284.14 181.945 280.903 181.945 276.909C181.945 276.194 181.839 275.483 181.631 274.799L180.306 270.459L178.849 261.603L177.436 250.225V232.031V211.041C177.436 204.437 182.79 199.084 189.393 199.084C195.377 199.084 200.439 203.507 201.242 209.436L201.427 210.8L203.145 237.464V252.954L202.049 260.993C201.637 264.015 200.773 266.958 199.487 269.723L197.281 274.466C196.863 275.365 196.646 276.344 196.646 277.336C196.646 281.094 193.6 284.14 189.842 284.14Z" fill="#81584A"/>
<path d="M187.923 330.193H194.392C198.122 330.193 201.146 333.61 201.146 337.824C201.146 342.039 198.122 345.455 194.392 345.455H187.923C184.193 345.455 181.168 342.039 181.168 337.824C181.168 333.61 184.193 330.193 187.923 330.193Z" fill="#9D6B5A"/>
<path d="M183.405 333.336H198.91C200.145 333.336 201.146 334.976 201.146 337V341.792C201.146 343.815 200.145 345.456 198.91 345.456H183.405C182.17 345.456 181.168 343.815 181.168 341.792V337C181.168 334.976 182.17 333.336 183.405 333.336Z" fill="#9D6B5A"/>
<path d="M163.421 345.28C167.226 345.28 170.311 341.972 170.311 337.891V309.985C170.311 308.27 170.665 306.573 171.351 305.002C172.037 303.43 172.391 301.734 172.391 300.019V296.02C172.391 293.997 172.197 291.979 171.81 289.994L171.778 289.828C171.391 287.843 171.197 285.825 171.197 283.803V272.211C170.693 268.542 167.55 265.751 163.846 265.751C159.753 265.751 156.435 269.069 156.435 273.162L156.435 300.996L156.435 319.216L154.926 337.891C154.926 341.972 158.01 345.28 161.815 345.28H163.421Z" fill="#906253"/>
<path d="M163.275 283.963H163.941C167.935 283.963 171.172 280.726 171.172 276.732C171.172 276.017 171.278 275.306 171.487 274.622L172.811 270.282L174.268 261.426L175.681 250.048V231.854V210.864C175.681 204.261 170.327 198.907 163.724 198.907C157.74 198.907 152.678 203.33 151.875 209.259L151.69 210.624L149.973 237.287V252.777L151.069 260.816C151.481 263.838 152.344 266.781 153.63 269.546L155.836 274.289C156.254 275.188 156.471 276.167 156.471 277.159C156.471 280.917 159.517 283.963 163.275 283.963Z" fill="#81584A"/>
<path d="M165.194 330.017H158.725C154.995 330.017 151.971 333.433 151.971 337.647C151.971 341.862 154.995 345.278 158.725 345.278H165.194C168.925 345.278 171.949 341.862 171.949 337.647C171.949 333.433 168.925 330.017 165.194 330.017Z" fill="#9D6B5A"/>
<path d="M169.712 333.159H154.208C152.972 333.159 151.971 334.8 151.971 336.823V341.615C151.971 343.639 152.972 345.279 154.208 345.279H169.712C170.947 345.279 171.949 343.639 171.949 341.615V336.823C171.949 334.8 170.947 333.159 169.712 333.159Z" fill="#9D6B5A"/>
<path d="M191.052 73.5342H158.094C154.326 73.5342 151.271 77.5731 151.271 82.5554C151.271 87.5377 154.326 91.5767 158.094 91.5767H191.052C194.82 91.5767 197.875 87.5377 197.875 82.5554C197.875 77.5731 194.82 73.5342 191.052 73.5342Z" fill="#9D6B5A"/>
<path d="M191.033 75.8281H157.149C154.217 75.8281 151.84 78.8402 151.84 82.5558C151.84 86.2715 154.217 89.2836 157.149 89.2836H191.033C193.965 89.2836 196.342 86.2715 196.342 82.5558C196.342 78.8402 193.965 75.8281 191.033 75.8281Z" fill="#81584A"/>
<path d="M178.111 48.1777H168.193C159.976 48.1777 153.314 56.6586 153.314 67.1203V89.5681C153.314 100.03 159.976 108.511 168.193 108.511H178.111C186.328 108.511 192.989 100.03 192.989 89.5681V67.1203C192.989 56.6586 186.328 48.1777 178.111 48.1777Z" fill="#9D6B5A"/>
<path d="M180.843 106.021H169.044C167.769 106.021 166.734 107.055 166.734 108.331C166.734 109.606 167.769 110.641 169.044 110.641H180.843C182.119 110.641 183.153 109.606 183.153 108.331C183.153 107.055 182.119 106.021 180.843 106.021Z" fill="#9D6B5A"/>
<path d="M169.156 124.999L160.893 121.027C159.974 120.585 158.87 120.972 158.428 121.891C157.986 122.811 158.373 123.914 159.293 124.356L167.555 128.328C168.475 128.77 169.578 128.383 170.02 127.464C170.462 126.544 170.075 125.441 169.156 124.999Z" fill="#81584A"/>
<path d="M178.997 124.999L187.259 121.027C188.178 120.585 189.282 120.972 189.724 121.891C190.166 122.811 189.779 123.914 188.86 124.356L180.597 128.328C179.678 128.77 178.574 128.383 178.132 127.464C177.69 126.544 178.077 125.441 178.997 124.999Z" fill="#81584A"/>
<path d="M155.436 199.084C154.114 199.084 152.838 199.328 151.631 199.776C153.044 217.575 163.697 231.326 176.717 231.326C189.905 231.326 200.665 217.218 201.853 199.084C201.852 199.084 201.851 199.084 201.85 199.084H155.436Z" fill="#4F4F4F"/>
<path d="M200.015 197.119H153.498C152.482 197.119 151.658 198.199 151.658 199.53V203.264C151.658 204.596 152.482 205.675 153.498 205.675H200.015C201.031 205.675 201.855 204.596 201.855 203.264V199.53C201.855 198.199 201.031 197.119 200.015 197.119Z" fill="#5B5B5B"/>
<path d="M174.645 103.191H171.913C171.695 103.191 171.518 103.414 171.518 103.688V103.98C171.518 104.255 171.695 104.477 171.913 104.477H174.645C174.863 104.477 175.04 104.255 175.04 103.98V103.688C175.04 103.414 174.863 103.191 174.645 103.191Z" fill="#81584A"/>
<path d="M176.715 81.5019C176.715 79.4535 175.393 77.793 173.761 77.793C172.129 77.793 170.807 79.4535 170.807 81.5019V88.0471C170.807 90.0955 172.129 91.7561 173.761 91.7561C175.393 91.7561 176.715 90.0955 176.715 88.0471V81.5019Z" fill="#81584A"/>
<path d="M166.536 77.8554C166.536 76.5734 165.708 75.5342 164.687 75.5342C163.666 75.5342 162.838 76.5734 162.838 77.8554V78.7838C162.838 80.0658 163.666 81.105 164.687 81.105C165.708 81.105 166.536 80.0658 166.536 78.7838V77.8554Z" fill="#61534B"/>
<path d="M184.469 77.8554C184.469 76.5734 183.641 75.5342 182.62 75.5342C181.599 75.5342 180.771 76.5734 180.771 77.8554V78.7838C180.771 80.0658 181.599 81.105 182.62 81.105C183.641 81.105 184.469 80.0658 184.469 78.7838V77.8554Z" fill="#61534B"/>
<path d="M177.075 100.613C179.796 100.613 181.987 97.6758 181.987 94.026V92.96H165.445V94.026C165.445 97.6758 167.636 100.613 170.357 100.613H177.075Z" fill="white"/>
<path d="M173.366 88.9541L170.619 86.0232C170.165 85.539 169.484 85.6085 169.099 86.1783C168.713 86.7482 168.768 87.6027 169.222 88.0869L171.97 91.0177C172.423 91.502 173.104 91.4325 173.49 90.8627C173.875 90.2928 173.82 89.4383 173.366 88.9541Z" fill="#81584A"/>
<path d="M174.155 88.9541L176.903 86.0232C177.357 85.539 178.037 85.6084 178.423 86.1783C178.809 86.7482 178.753 87.6027 178.299 88.0869L175.552 91.0177C175.098 91.502 174.417 91.4325 174.032 90.8627C173.646 90.2928 173.701 89.4383 174.155 88.9541Z" fill="#81584A"/>
<path d="M175.474 87.0706C175.474 86.0878 174.839 85.291 174.056 85.291C173.273 85.291 172.639 86.0878 172.639 87.0706V88.6954C172.639 89.6782 173.273 90.475 174.056 90.475C174.839 90.475 175.474 89.6782 175.474 88.6954V87.0706Z" fill="#906253"/>
<path d="M167.696 75.6592L161.81 73.6723C161.172 73.4569 160.589 73.7532 160.509 74.3342C160.429 74.9153 160.881 75.5609 161.519 75.7763L167.405 77.7633C168.043 77.9787 168.625 77.6823 168.706 77.1013C168.786 76.5203 168.334 75.8746 167.696 75.6592Z" fill="#4D4D4D"/>
<path d="M161.902 75.2574C161.954 74.8281 161.659 74.3534 161.246 74.1971C160.832 74.0408 160.455 74.2621 160.403 74.6914L160.191 76.4717C160.14 76.901 160.434 77.3757 160.848 77.532C161.262 77.6883 161.639 77.467 161.69 77.0377L161.902 75.2574Z" fill="#4D4D4D"/>
<path d="M179.472 75.6549L185.358 73.6691C185.996 73.4538 186.579 73.7503 186.659 74.3313C186.739 74.9123 186.287 75.5578 185.649 75.7731L179.763 77.7589C179.125 77.9742 178.542 77.6777 178.462 77.0967C178.382 76.5157 178.834 75.8702 179.472 75.6549Z" fill="#4D4D4D"/>
<path d="M185.268 75.2565C185.216 74.8272 185.51 74.3524 185.924 74.1961C186.338 74.0398 186.715 74.2611 186.766 74.6904L186.979 76.4707C187.03 76.9 186.736 77.3747 186.322 77.531C185.908 77.6874 185.531 77.4661 185.48 77.0368L185.268 75.2565Z" fill="#4D4D4D"/>
<path d="M171.863 74.7387C171.863 74.1646 171.492 73.6992 171.035 73.6992C170.578 73.6992 170.207 74.1646 170.207 74.7387V75.9971C170.207 76.5712 170.578 77.0366 171.035 77.0366C171.492 77.0366 171.863 76.5712 171.863 75.9971V74.7387Z" fill="#81584A"/>
<path d="M177.355 74.7387C177.355 74.1646 176.985 73.6992 176.527 73.6992C176.07 73.6992 175.699 74.1646 175.699 74.7387V75.9971C175.699 76.5712 176.07 77.0366 176.527 77.0366C176.985 77.0366 177.355 76.5712 177.355 75.9971V74.7387Z" fill="#81584A"/>
<path d="M175.47 87.0677C175.47 86.0848 174.835 85.2881 174.052 85.2881C173.269 85.2881 172.635 86.0848 172.635 87.0677V88.6925C172.635 89.6753 173.269 90.472 174.052 90.472C174.835 90.472 175.47 89.6753 175.47 88.6925V87.0677Z" fill="#906253"/>
<path d="M167.508 75.2302L161.616 74.2223C160.977 74.113 160.475 74.4492 160.495 74.9732C160.514 75.4972 161.048 76.0105 161.687 76.1198L167.58 77.1278C168.218 77.237 168.72 76.9008 168.7 76.3769C168.681 75.8529 168.147 75.3395 167.508 75.2302Z" fill="#4D4D4D"/>
<path d="M161.756 75.7738C161.743 75.3365 161.428 74.9139 161.052 74.8299C160.677 74.7459 160.384 75.0322 160.397 75.4695L160.453 77.2829C160.467 77.7201 160.782 78.1427 161.157 78.2268C161.532 78.3108 161.826 78.0245 161.812 77.5872L161.756 75.7738Z" fill="#4D4D4D"/>
<path d="M179.814 74.8518L185.565 74.1945C186.188 74.1232 186.638 74.5752 186.57 75.2041C186.501 75.833 185.941 76.4006 185.317 76.4719L179.567 77.1292C178.943 77.2005 178.493 76.7484 178.561 76.1195C178.63 75.4906 179.191 74.9231 179.814 74.8518Z" fill="#4D4D4D"/>
<path d="M185.505 75.9581C185.541 75.5055 185.828 75.1008 186.146 75.0542C186.465 75.0075 186.693 75.3366 186.657 75.7891L186.507 77.6658C186.471 78.1184 186.184 78.5231 185.866 78.5697C185.548 78.6164 185.319 78.2873 185.355 77.8348L185.505 75.9581Z" fill="#4D4D4D"/>
<path d="M194.899 70.5547C194.825 70.5468 194.75 70.5466 194.675 70.5556C194.589 70.5657 194.502 70.5873 194.416 70.6208L194.239 70.6894C193.667 70.9122 193.308 71.5966 193.321 72.3335C193.266 72.2304 193.199 72.1405 193.129 72.0574V74.3406C195.608 75.6719 197.344 78.832 197.344 82.5374C197.344 86.2625 195.589 89.4355 193.089 90.7542C193.018 92.0847 192.836 93.3737 192.562 94.6113V95.888C192.499 95.7565 192.423 95.6363 192.339 95.5266C191.093 100.225 188.444 104.061 185.032 106.202V109.067C185.032 110.219 185.748 111.146 186.637 111.146H187.377C188.266 111.146 188.982 110.219 188.982 109.067V108.507C189.223 109.26 189.794 109.787 190.464 109.787H191.204C192.093 109.787 192.809 108.859 192.809 107.707V107.048C193.092 107.635 193.591 108.027 194.167 108.027C195.056 108.027 195.772 107.099 195.772 105.947V94.2649L196.102 95.688C196.309 96.5793 197.029 97.0819 197.717 96.8142C198.404 96.5465 198.792 95.613 198.585 94.7217L196.824 87.1265C197.149 87.599 197.664 87.8147 198.163 87.6201L198.341 87.5507C199.029 87.283 199.416 86.3503 199.209 85.459L196.031 71.7461C195.873 71.0638 195.414 70.61 194.899 70.5547ZM153.173 70.6676C152.658 70.7229 152.199 71.1767 152.041 71.8591L148.862 85.5719C148.656 86.4632 149.043 87.3959 149.731 87.6636L149.908 87.733C150.408 87.9276 150.923 87.7119 151.247 87.2394L149.487 94.8346C149.28 95.7259 149.667 96.6594 150.355 96.9271C151.043 97.1948 151.763 96.6931 151.97 95.8018L152.036 95.5148V105.947C152.036 107.099 152.751 108.027 153.64 108.027C154.216 108.027 154.716 107.635 154.999 107.048V107.707C154.999 108.859 155.714 109.787 156.603 109.787H157.344C158.013 109.787 158.584 109.261 158.825 108.51V109.067C158.825 110.219 159.541 111.146 160.43 111.146H161.171C162.06 111.146 162.776 110.219 162.776 109.067V106.127C159.395 103.955 156.779 100.112 155.559 95.4186C155.438 95.5547 155.331 95.711 155.245 95.888V94.0431C155.038 92.9804 154.898 91.8822 154.837 90.7542C152.337 89.4354 150.583 86.2624 150.583 82.5374C150.583 78.832 152.318 75.6719 154.797 74.3406V72.3719C154.782 72.3972 154.765 72.4199 154.75 72.4464C154.763 71.7098 154.404 71.0251 153.832 70.8024L153.655 70.7337C153.569 70.7003 153.482 70.6786 153.396 70.6685C153.321 70.6596 153.247 70.6598 153.173 70.6676Z" fill="#4D4D4D"/>
<path d="M157.471 55.1904C154.575 58.5328 152.762 63.3631 152.762 68.7527V90.4331C152.762 100.569 159.175 108.728 167.141 108.728H179.761C187.727 108.728 194.141 100.569 194.141 90.4331V68.7527C194.141 63.3631 192.327 58.5328 189.431 55.1904C191.638 58.4502 192.972 62.6961 192.972 67.3555V89.4308C192.972 99.751 186.442 108.059 178.331 108.059H168.572C160.461 108.059 153.93 99.751 153.93 89.4308V67.3555C153.93 62.6961 155.265 58.4502 157.471 55.1904Z" fill="#565656"/>
<path d="M165.916 108.52C165.916 107.552 165.299 106.767 164.538 106.767C163.777 106.767 163.16 107.552 163.16 108.52V110.556C163.16 111.525 163.777 112.31 164.538 112.31C165.299 112.31 165.916 111.525 165.916 110.556V108.52Z" fill="#565656"/>
<path d="M168.496 110.118C168.496 109.149 167.879 108.364 167.118 108.364C166.357 108.364 165.74 109.149 165.74 110.118V112.154C165.74 113.122 166.357 113.907 167.118 113.907C167.879 113.907 168.496 113.122 168.496 112.154V110.118Z" fill="#565656"/>
<path d="M171.045 110.999C171.045 110.031 170.428 109.246 169.667 109.246C168.906 109.246 168.289 110.031 168.289 110.999V113.036C168.289 114.004 168.906 114.789 169.667 114.789C170.428 114.789 171.045 114.004 171.045 113.036V110.999Z" fill="#565656"/>
<path d="M173.559 111.199C173.559 110.23 172.942 109.445 172.181 109.445C171.42 109.445 170.803 110.23 170.803 111.199V113.235C170.803 114.203 171.42 114.988 172.181 114.988C172.942 114.988 173.559 114.203 173.559 113.235V111.199Z" fill="#565656"/>
<path d="M163.6 105.005C163.6 103.849 162.864 102.912 161.955 102.912C161.047 102.912 160.311 103.849 160.311 105.005V107.435C160.311 108.591 161.047 109.528 161.955 109.528C162.864 109.528 163.6 108.591 163.6 107.435V105.005Z" fill="#565656"/>
<path d="M160.754 102.857C160.754 101.702 160.018 100.765 159.11 100.765C158.201 100.765 157.465 101.702 157.465 102.857V105.288C157.465 106.443 158.201 107.38 159.11 107.38C160.018 107.38 160.754 106.443 160.754 105.288V102.857Z" fill="#565656"/>
<path d="M158.354 100.255C158.354 99.0991 157.618 98.1621 156.709 98.1621C155.801 98.1621 155.064 99.0991 155.064 100.255V102.685C155.064 103.841 155.801 104.778 156.709 104.778C157.618 104.778 158.354 103.841 158.354 102.685V100.255Z" fill="#565656"/>
<path d="M180.988 108.52C180.988 107.552 181.605 106.767 182.366 106.767C183.127 106.767 183.744 107.552 183.744 108.52V110.556C183.744 111.525 183.127 112.31 182.366 112.31C181.605 112.31 180.988 111.525 180.988 110.556V108.52Z" fill="#565656"/>
<path d="M178.408 110.118C178.408 109.149 179.025 108.364 179.786 108.364C180.547 108.364 181.164 109.149 181.164 110.118V112.154C181.164 113.122 180.547 113.907 179.786 113.907C179.025 113.907 178.408 113.122 178.408 112.154V110.118Z" fill="#565656"/>
<path d="M175.861 110.999C175.861 110.031 176.478 109.246 177.239 109.246C178 109.246 178.617 110.031 178.617 110.999V113.036C178.617 114.004 178 114.789 177.239 114.789C176.478 114.789 175.861 114.004 175.861 113.036V110.999Z" fill="#565656"/>
<path d="M173.345 111.199C173.345 110.23 173.962 109.445 174.723 109.445C175.485 109.445 176.102 110.23 176.102 111.199V113.235C176.102 114.203 175.485 114.988 174.723 114.988C173.962 114.988 173.345 114.203 173.345 113.235V111.199Z" fill="#565656"/>
<path d="M183.304 105.005C183.304 103.849 184.041 102.912 184.949 102.912C185.857 102.912 186.594 103.849 186.594 105.005V107.435C186.594 108.591 185.857 109.528 184.949 109.528C184.041 109.528 183.304 108.591 183.304 107.435V105.005Z" fill="#565656"/>
<path d="M186.15 102.857C186.15 101.702 186.886 100.765 187.795 100.765C188.703 100.765 189.439 101.702 189.439 102.857V105.288C189.439 106.443 188.703 107.38 187.795 107.38C186.886 107.38 186.15 106.443 186.15 105.288V102.857Z" fill="#565656"/>
<path d="M188.55 100.255C188.55 99.0991 189.287 98.1621 190.195 98.1621C191.103 98.1621 191.84 99.0991 191.84 100.255V102.685C191.84 103.841 191.103 104.778 190.195 104.778C189.287 104.778 188.55 103.841 188.55 102.685V100.255Z" fill="#565656"/>
<path d="M167.222 87.8838C164.007 87.8838 161.418 91.1775 161.418 95.269V103.908C161.418 108 164.007 111.294 167.222 111.294H179.677C182.893 111.294 185.481 108 185.481 103.908V95.269C185.481 91.1775 182.893 87.8838 179.677 87.8838H178.459C178.501 88.3339 178.371 88.8011 178.078 89.1179L177.586 89.65C177.878 89.9985 178.095 90.4479 178.19 90.9627H179.879C181.677 90.9627 183.124 92.8038 183.124 95.0916V98.8064C183.124 99.6745 182.915 100.477 182.559 101.141V102.16C182.559 105.426 180.492 108.055 177.925 108.055H168.974C166.407 108.055 164.341 105.426 164.341 102.16V101.141C163.984 100.477 163.775 99.6745 163.775 98.8064V95.0916C163.775 92.8038 165.222 90.9627 167.021 90.9627H168.083C168.21 90.2699 168.553 89.6891 169.015 89.3279L168.821 89.1179C168.528 88.8011 168.398 88.3339 168.441 87.8838H167.222Z" fill="#565656"/>
<path d="M165.347 47.7031C157.865 47.7031 151.84 55.2769 151.84 64.6849C151.84 65.1267 151.858 65.5627 151.884 65.9959C151.858 66.2175 151.84 66.4427 151.84 66.6736V77.0766C151.84 79.3091 153.095 81.1587 154.771 81.5771V68.0014C154.771 58.2833 160.994 50.4591 168.723 50.4591H179.639C187.369 50.4591 193.592 58.2833 193.592 68.0014V81.5955C195.315 81.2251 196.62 79.3516 196.62 77.0766V66.6736C196.62 66.4426 196.602 66.2175 196.576 65.9959C196.602 65.5627 196.62 65.1267 196.62 64.6849C196.62 55.2769 190.596 47.7031 183.113 47.7031H165.347Z" fill="#4D4D4D"/>
<path d="M180.675 45.5615H168.507C164.407 45.5615 161.084 49.7398 161.084 54.8939C161.084 60.048 164.407 64.2263 168.507 64.2263H180.675C184.775 64.2263 188.098 60.048 188.098 54.8939C188.098 49.7398 184.775 45.5615 180.675 45.5615Z" fill="#4D4D4D"/>
<path d="M165.223 51.4906C165.223 50.0331 164.284 48.8516 163.124 48.8516C161.965 48.8516 161.025 50.0331 161.025 51.4906V57.6102C161.025 59.0677 161.965 60.2493 163.124 60.2493C164.284 60.2493 165.223 59.0677 165.223 57.6102V51.4906Z" fill="#4D4D4D"/>
<path d="M189.071 51.7201C189.071 50.2626 188.131 49.0811 186.972 49.0811C185.813 49.0811 184.873 50.2626 184.873 51.7201V57.8397C184.873 59.2972 185.813 60.4788 186.972 60.4788C188.131 60.4788 189.071 59.2972 189.071 57.8397V51.7201Z" fill="#4D4D4D"/>
<path d="M160.227 54.5068C160.117 53.545 159.408 52.8773 158.643 53.0154C157.878 53.1536 157.347 54.0453 157.457 55.0071L157.812 58.1115C157.921 59.0733 158.631 59.741 159.396 59.6029C160.161 59.4647 160.692 58.573 160.582 57.6112L160.227 54.5068Z" fill="#4D4D4D"/>
<path d="M189.904 55.2636C190.014 54.3018 190.723 53.6341 191.488 53.7723C192.253 53.9105 192.784 54.8022 192.674 55.764L192.319 58.8684C192.209 59.8302 191.5 60.4979 190.735 60.3597C189.97 60.2215 189.439 59.3298 189.549 58.368L189.904 55.2636Z" fill="#4D4D4D"/>
<path d="M173.134 50.1963H174.444C175.217 50.1963 175.844 50.984 175.844 51.9557V58.3812C175.844 59.3529 175.217 60.1406 174.444 60.1406H173.134C172.361 60.1406 171.735 59.3529 171.735 58.3812V51.9557C171.735 50.984 172.361 50.1963 173.134 50.1963Z" fill="#565656"/>
<path d="M167.478 50.3867H169.208C169.812 50.3867 170.303 51.0032 170.303 51.7636V58.5717C170.303 59.3321 169.812 59.9486 169.208 59.9486H167.478C166.873 59.9486 166.383 59.3321 166.383 58.5717V51.7636C166.383 51.0032 166.873 50.3867 167.478 50.3867Z" fill="#565656"/>
<path d="M180.098 50.3867H178.369C177.764 50.3867 177.273 51.0032 177.273 51.7636V58.5717C177.273 59.3321 177.764 59.9486 178.369 59.9486H180.098C180.703 59.9486 181.194 59.3321 181.194 58.5717V51.7636C181.194 51.0032 180.703 50.3867 180.098 50.3867Z" fill="#565656"/>
</svg>
