<svg width="351" height="351" viewBox="0 0 351 351" fill="none" xmlns="http://www.w3.org/2000/svg">
<circle cx="175.553" cy="175.595" r="173.197" stroke="black" stroke-width="3.60643"/>
<rect x="26.7739" y="51.7436" width="295.472" height="295.472" stroke="black" stroke-width="3.60643"/>
<path d="M148.79 129.589L148.804 129.533C149.705 125.962 145.393 123.018 139.174 122.959L128.013 121.504L115.624 120.701L104.294 120.246L92.7274 121.15C86.5082 121.091 80.4834 125.298 79.5828 128.869L79.5687 128.925C78.7095 132.332 79.9614 131.066 95.3129 133.549C96.8511 133.798 98.3365 134.211 99.7383 134.76L103.802 136.351C107.317 137.727 111.323 138.082 115.493 137.388L135.898 135.947C142.118 136.006 147.889 133.16 148.79 129.589Z" fill="#81584A"/>
<path d="M107.993 130.338C110.402 130.328 112.657 129.148 113.031 127.701C113.404 126.254 111.754 125.089 109.346 125.098L106.174 125.111C103.765 125.12 101.51 126.301 101.136 127.748C100.763 129.195 102.413 130.36 104.822 130.35L107.993 130.338Z" fill="#906253"/>
<path d="M97.475 136.434C103.398 137.24 116.931 136.101 117.235 132.452C117.539 128.804 112.984 125.193 107.061 124.387L62.5856 118.335C56.6626 117.529 51.6147 119.833 51.3109 123.481L51.3061 123.538C51.0022 127.186 55.5574 130.797 61.4804 131.603L97.475 136.434Z" fill="#81584A"/>
<path d="M69.4082 128.98L69.531 126.556C69.7663 121.909 64.3847 117.382 57.5109 116.444L51.4042 115.611C44.5304 114.673 38.7673 117.68 38.532 122.327L38.4093 124.752C38.174 129.399 43.5556 133.926 50.4293 134.864L56.5361 135.697C63.4098 136.634 69.1729 133.627 69.4082 128.98Z" fill="#906253"/>
<path d="M97.7716 136.883C105.192 137.871 111.389 135.193 111.613 130.901C111.836 126.609 106.002 122.329 98.5815 121.34L88.0306 119.935C80.61 118.947 74.4132 121.625 74.1896 125.917C73.9659 130.209 79.8001 134.49 87.2206 135.478L97.7716 136.883Z" fill="#906253"/>
<path d="M100.676 136.342C102.034 136.51 103.169 136.059 103.21 135.333C103.252 134.607 102.184 133.882 100.826 133.713L91.913 132.607C90.555 132.438 89.4206 132.89 89.3791 133.616C89.3377 134.342 90.405 135.067 91.763 135.235L100.676 136.342Z" fill="#9D6B5A"/>
<path d="M51.9998 128.59C56.3932 127.947 58.752 124.301 57.2684 120.445C55.7848 116.59 51.0204 113.985 46.627 114.627L34.6271 116.382C30.2337 117.024 27.8748 120.671 29.3585 124.527C30.8421 128.382 35.6064 130.987 39.9999 130.345L51.9998 128.59Z" fill="#906253"/>
<path d="M53.9199 136.359C56.9609 136.76 59.511 135.477 59.6155 133.491C59.72 131.506 57.3394 129.571 54.2983 129.169L45.9921 128.072C42.951 127.67 40.401 128.953 40.2965 130.939C40.192 132.924 42.5726 134.859 45.6137 135.261L53.9199 136.359Z" fill="#9D6B5A"/>
<path d="M201.331 131.915L201.316 131.863C200.369 128.499 204.606 125.84 210.78 125.924L221.838 124.812L234.126 124.338L245.367 124.165L256.863 125.271C263.037 125.354 269.08 129.428 270.027 132.791L270.042 132.844C270.989 136.207 261.613 136.778 252.703 138.466L250.482 139.261C248.449 139.989 246.254 140.402 243.946 140.491L240.062 140.641L214.223 138.156C208.05 138.073 202.278 135.279 201.331 131.915Z" fill="#81584A"/>
<path d="M241.939 133.616C239.56 133.531 237.313 132.34 236.92 130.955C236.526 129.569 238.135 128.515 240.514 128.599L243.646 128.71C246.024 128.795 248.271 129.986 248.665 131.371C249.058 132.757 247.449 133.811 245.071 133.727L241.939 133.616Z" fill="#906253"/>
<path d="M231.105 134.202L231.1 134.144C230.805 130.392 235.366 126.649 241.287 125.784L285.746 119.286C291.666 118.421 296.705 120.761 297 124.513L297.004 124.571C297.299 128.323 292.738 132.066 286.817 132.931L242.359 139.429C236.438 140.294 231.399 137.954 231.105 134.202Z" fill="#81584A"/>
<path d="M278.926 130.346L278.809 127.845C278.584 123.052 283.969 118.345 290.835 117.333L296.935 116.434C303.801 115.421 309.549 118.486 309.774 123.28L309.891 125.781C310.115 130.574 304.731 135.28 297.865 136.292L291.765 137.192C284.899 138.204 279.15 135.139 278.926 130.346Z" fill="#906253"/>
<path d="M250.539 138.584C243.124 139.65 236.94 136.929 236.727 132.507C236.513 128.084 242.351 123.635 249.765 122.569L260.308 121.053C267.723 119.986 273.907 122.707 274.12 127.13C274.334 131.552 268.496 136.001 261.081 137.068L250.539 138.584Z" fill="#906253"/>
<path d="M247.623 138.059C246.265 138.24 245.133 137.782 245.093 137.036C245.054 136.29 246.122 135.537 247.479 135.356L256.389 134.164C257.747 133.983 258.879 134.441 258.919 135.187C258.958 135.933 257.89 136.686 256.532 136.867L247.623 138.059Z" fill="#9D6B5A"/>
<path d="M296.319 129.908C291.927 129.273 289.575 125.499 291.065 121.478C292.555 117.456 297.324 114.71 301.716 115.345L313.712 117.077C318.104 117.711 320.456 121.485 318.965 125.507C317.475 129.528 312.706 132.274 308.314 131.64L296.319 129.908Z" fill="#906253"/>
<path d="M294.372 137.887C291.333 138.32 288.788 137.013 288.689 134.968C288.589 132.923 290.971 130.914 294.01 130.481L302.311 129.297C305.349 128.864 307.894 130.171 307.994 132.216C308.094 134.261 305.711 136.27 302.672 136.703L294.372 137.887Z" fill="#9D6B5A"/>
<path d="M214.074 135.686L214.131 135.671C217.775 134.729 222.253 138.571 224.133 144.251L238.252 186.906C240.132 192.587 238.703 197.955 235.059 198.897L235.002 198.912C231.359 199.854 226.881 196.012 225.001 190.331L210.882 147.676C209.002 141.996 210.431 136.627 214.074 135.686Z" fill="#81584A"/>
<path d="M230.179 194.11L232.621 193.561C237.303 192.507 242.872 196.992 245.062 203.579L247.007 209.43C249.196 216.016 247.175 222.209 242.494 223.262L240.052 223.812C235.37 224.865 229.8 220.38 227.611 213.794L225.666 207.943C223.477 201.357 225.497 195.164 230.179 194.11Z" fill="#906253"/>
<path d="M217.138 167.584C214.801 160.467 216.406 153.905 220.724 152.927C225.042 151.948 230.438 156.925 232.775 164.042L236.099 174.161C238.437 181.278 236.831 187.84 232.513 188.819C228.195 189.797 222.799 184.82 220.462 177.703L217.138 167.584Z" fill="#906253"/>
<path d="M217.147 164.621C216.732 163.316 216.987 162.121 217.715 161.953C218.443 161.784 219.369 162.706 219.784 164.011L222.504 172.578C222.919 173.884 222.665 175.079 221.936 175.247C221.208 175.416 220.282 174.494 219.868 173.189L217.147 164.621Z" fill="#9D6B5A"/>
<path d="M233.631 211.162C233.493 206.727 236.801 203.755 241.021 204.525C245.24 205.294 248.772 209.514 248.91 213.949L249.287 226.063C249.425 230.499 246.117 233.47 241.898 232.701C237.679 231.931 234.146 227.712 234.008 223.277L233.631 211.162Z" fill="#906253"/>
<path d="M225.435 210.632C224.481 207.714 225.326 204.981 227.322 204.528C229.319 204.075 231.711 206.072 232.666 208.99L235.273 216.958C236.227 219.876 235.382 222.609 233.386 223.062C231.389 223.515 228.997 221.518 228.042 218.6L225.435 210.632Z" fill="#9D6B5A"/>
<path d="M135.574 131.573L135.517 131.559C131.874 130.617 127.396 134.459 125.515 140.139L111.397 182.794C109.516 188.475 110.946 193.843 114.589 194.785L114.646 194.799C118.29 195.741 122.767 191.9 124.648 186.219L138.767 143.564C140.647 137.884 139.218 132.515 135.574 131.573Z" fill="#81584A"/>
<path d="M119.47 189.998L117.027 189.448C112.346 188.395 106.776 192.88 104.587 199.466L102.642 205.317C100.453 211.904 102.473 218.097 107.154 219.15L109.597 219.7C114.278 220.753 119.848 216.268 122.037 209.682L123.982 203.831C126.171 197.245 124.151 191.051 119.47 189.998Z" fill="#906253"/>
<path d="M132.51 163.472C134.848 156.355 133.242 149.792 128.924 148.814C124.606 147.836 119.211 152.812 116.873 159.929L113.549 170.049C111.212 177.166 112.817 183.728 117.136 184.706C121.454 185.685 126.849 180.708 129.187 173.591L132.51 163.472Z" fill="#906253"/>
<path d="M132.502 160.509C132.916 159.204 132.662 158.009 131.934 157.84C131.206 157.672 130.279 158.593 129.865 159.899L127.144 168.466C126.73 169.771 126.984 170.966 127.712 171.135C128.44 171.303 129.366 170.382 129.781 169.077L132.502 160.509Z" fill="#9D6B5A"/>
<path d="M116.017 207.05C116.155 202.615 112.847 199.643 108.628 200.412C104.409 201.182 100.876 205.401 100.738 209.837L100.361 221.951C100.223 226.386 103.531 229.358 107.751 228.589C111.97 227.819 115.502 223.6 115.64 219.164L116.017 207.05Z" fill="#906253"/>
<path d="M124.213 206.519C125.168 203.602 124.323 200.869 122.326 200.416C120.33 199.962 117.937 201.96 116.983 204.877L114.376 212.846C113.421 215.764 114.266 218.496 116.263 218.95C118.259 219.403 120.652 217.405 121.606 214.488L124.213 206.519Z" fill="#9D6B5A"/>
<path d="M163.103 268.551L162.359 268.551C158.12 268.551 154.683 271.988 154.683 276.227L154.683 303.068L154.683 320.913L153.125 339.202C153.125 343.199 156.309 346.439 160.237 346.439H161.895C165.822 346.439 169.006 343.199 169.006 339.202V312.391C169.006 310.594 169.372 308.815 170.08 307.162C170.789 305.51 171.154 303.731 171.154 301.933V298.284C171.154 296.245 170.947 294.21 170.537 292.213C170.127 290.215 169.921 288.181 169.921 286.141V275.368C169.921 275.042 169.897 274.716 169.851 274.393C169.366 271.039 166.492 268.551 163.103 268.551Z" fill="#906253"/>
<path d="M161.973 198.093L158.404 198.093C154.464 198.093 151.075 200.883 150.319 204.75L148.01 236.496V252.778L149.16 261.37C149.573 264.453 150.439 267.458 151.732 270.287L154.069 275.405C154.497 276.34 154.718 277.357 154.718 278.385C154.718 282.347 157.929 285.558 161.891 285.558H162.305C166.496 285.558 169.893 282.135 169.893 277.945C169.893 277.204 170.001 276.464 170.213 275.754L171.585 271.178L173.089 261.869L174.547 249.91V230.785V210.667C174.547 203.722 168.918 198.093 161.973 198.093Z" fill="#81584A"/>
<path d="M164.459 331.123H157.781C153.93 331.123 150.809 334.551 150.809 338.781C150.809 343.01 153.93 346.438 157.781 346.438H164.459C168.309 346.438 171.431 343.01 171.431 338.781C171.431 334.551 168.309 331.123 164.459 331.123Z" fill="#9D6B5A"/>
<path d="M169.122 338.051H153.118C151.842 338.051 150.809 339.186 150.809 340.587V343.903C150.809 345.304 151.842 346.439 153.118 346.439H169.122C170.397 346.439 171.431 345.304 171.431 343.903V340.587C171.431 339.186 170.397 338.051 169.122 338.051Z" fill="#9D6B5A"/>
<path d="M203.002 160.756L175.9 160.756L146.983 160.756L152.011 183.476H177.297H199.23L203.002 160.756Z" fill="#81584A"/>
<path d="M211.878 117.188H135.895C127.67 117.188 121.002 123.445 121.002 131.165C121.002 138.884 127.67 145.142 135.895 145.142H211.878C220.103 145.142 226.77 138.884 226.77 131.165C226.77 123.445 220.103 117.188 211.878 117.188Z" fill="#906253"/>
<path d="M208.192 141.961C208.192 125.395 192.944 111.966 174.135 111.966C155.326 111.966 140.078 125.395 140.078 141.961C140.078 158.527 155.326 171.957 174.135 171.957C192.944 171.957 208.192 158.527 208.192 141.961Z" fill="#81584A"/>
<path d="M178.221 158.354H172.939C160.342 158.354 150.131 167.694 150.131 179.214V194.285C150.131 205.805 160.342 215.144 172.939 215.144H178.221C190.817 215.144 201.029 205.805 201.029 194.285V179.214C201.029 167.694 190.817 158.354 178.221 158.354Z" fill="#906253"/>
<path d="M191.742 117.112H156.528C147.443 117.112 140.078 125.667 140.078 136.22V147.736C140.078 158.288 147.443 166.843 156.528 166.843H191.742C200.827 166.843 208.192 158.288 208.192 147.736V136.22C208.192 125.667 200.827 117.112 191.742 117.112Z" fill="#906253"/>
<path d="M194.815 117.112H153.455C146.067 117.112 140.078 125.472 140.078 135.784V147.038C140.078 157.35 146.067 165.71 153.455 165.71H194.815C202.203 165.71 208.192 157.35 208.192 147.038V135.784C208.192 125.472 202.203 117.112 194.815 117.112Z" fill="#9D6B5A"/>
<path d="M177.12 158.985C177.12 157.721 175.916 156.696 174.429 156.696C172.943 156.696 171.738 157.721 171.738 158.985V163.422C171.738 164.686 172.943 165.711 174.429 165.711C175.916 165.711 177.12 164.686 177.12 163.422V158.985Z" fill="#81584A"/>
<path d="M191.238 149.904H183.71C181.548 149.904 179.795 151.167 179.795 152.724C179.795 154.281 181.548 155.543 183.71 155.543H191.238C193.4 155.543 195.153 154.281 195.153 152.724C195.153 151.167 193.4 149.904 191.238 149.904Z" fill="#AC7967"/>
<path d="M164.667 149.904H157.139C154.977 149.904 153.225 151.167 153.225 152.724C153.225 154.281 154.977 155.543 157.139 155.543H164.667C166.83 155.543 168.582 154.281 168.582 152.724C168.582 151.167 166.83 149.904 164.667 149.904Z" fill="#AC7967"/>
<path d="M188.44 103.665C188.44 93.6557 182.221 85.542 174.549 85.542C166.877 85.542 160.658 93.6557 160.658 103.665V111.099C160.658 121.108 166.877 129.222 174.549 129.222C182.221 129.222 188.44 121.108 188.44 111.099V103.665Z" fill="#9D6B5A"/>
<path d="M150.838 155.867H147.812C146.605 155.867 145.627 156.846 145.627 158.054C145.627 159.262 146.605 160.242 147.812 160.242H150.838C152.045 160.242 153.024 159.262 153.024 158.054C153.024 156.846 152.045 155.867 150.838 155.867Z" fill="#81584A"/>
<path d="M200.303 155.867H197.277C196.07 155.867 195.092 156.846 195.092 158.054C195.092 159.262 196.07 160.242 197.277 160.242H200.303C201.51 160.242 202.489 159.262 202.489 158.054C202.489 156.846 201.51 155.867 200.303 155.867Z" fill="#81584A"/>
<path d="M177.07 85.542H171.199C164.461 85.542 158.998 91.0047 158.998 97.7433V102.749C158.998 109.488 164.461 114.95 171.199 114.95H177.07C183.809 114.95 189.271 109.488 189.271 102.749V97.7433C189.271 91.0047 183.809 85.542 177.07 85.542Z" fill="#81584A"/>
<path d="M135.795 119.752H133.608C127.77 119.752 123.037 123.722 123.037 128.62C123.037 133.518 127.77 137.489 133.608 137.489H135.795C141.634 137.489 146.367 133.518 146.367 128.62C146.367 123.722 141.634 119.752 135.795 119.752Z" fill="#9D6B5A"/>
<path d="M215.008 120.616H212.681C206.468 120.616 201.432 124.587 201.432 129.485C201.432 134.382 206.468 138.353 212.681 138.353H215.008C221.221 138.353 226.258 134.382 226.258 129.485C226.258 124.587 221.221 120.616 215.008 120.616Z" fill="#9D6B5A"/>
<path d="M135.645 122.731H132.365C130.553 122.731 129.084 123.964 129.084 125.484C129.084 127.004 130.553 128.236 132.365 128.236H135.645C137.457 128.236 138.926 127.004 138.926 125.484C138.926 123.964 137.457 122.731 135.645 122.731Z" fill="#AC7967"/>
<path d="M219.238 122.947H215.747C213.819 122.947 212.256 124.179 212.256 125.7C212.256 127.22 213.819 128.452 215.747 128.452H219.238C221.166 128.452 222.729 127.22 222.729 125.7C222.729 124.179 221.166 122.947 219.238 122.947Z" fill="#AC7967"/>
<path d="M187.975 267.315L188.658 267.316C192.894 267.316 196.329 270.75 196.329 274.987L196.329 302.198L196.329 320.232L197.887 338.715C197.887 342.754 194.703 346.028 190.775 346.028H189.117C185.189 346.028 182.005 342.754 182.005 338.715V311.113C182.005 309.405 181.639 307.718 180.932 306.163C180.224 304.609 179.858 302.921 179.858 301.214V297.285C179.858 295.276 180.059 293.272 180.459 291.304L180.474 291.228C180.884 289.209 181.091 287.154 181.091 285.093V274.199C181.091 273.873 181.114 273.548 181.16 273.225C181.645 269.834 184.55 267.315 187.975 267.315Z" fill="#906253"/>
<path d="M188.694 197.691H192.632C196.598 197.691 199.935 200.664 200.39 204.604L203.002 237.241V253.204L201.871 261.488C201.445 264.602 200.554 267.635 199.226 270.484L196.95 275.371C196.518 276.298 196.294 277.309 196.294 278.331C196.294 282.203 193.156 285.341 189.284 285.341H188.569C184.454 285.341 181.119 282.006 181.119 277.892C181.119 277.154 181.009 276.42 180.794 275.714L179.427 271.243L177.923 262.117L176.465 250.392V231.643V209.921C176.465 203.167 181.94 197.691 188.694 197.691Z" fill="#81584A"/>
<path d="M187.291 330.923H193.969C197.82 330.923 200.941 334.304 200.941 338.475C200.941 342.647 197.82 346.028 193.969 346.028H187.291C183.441 346.028 180.319 342.647 180.319 338.475C180.319 334.304 183.441 330.923 187.291 330.923Z" fill="#9D6B5A"/>
<path d="M182.628 334.032H198.632C199.908 334.032 200.941 335.656 200.941 337.659V342.401C200.941 344.404 199.908 346.028 198.632 346.028H182.628C181.353 346.028 180.319 344.404 180.319 342.401V337.659C180.319 335.656 181.353 334.032 182.628 334.032Z" fill="#9D6B5A"/>
<path d="M191.692 74.1064H156.609C152.597 74.1064 149.346 78.1454 149.346 83.1277C149.346 88.11 152.597 92.149 156.609 92.149H191.692C195.703 92.149 198.955 88.11 198.955 83.1277C198.955 78.1454 195.703 74.1064 191.692 74.1064Z" fill="#9D6B5A"/>
<path d="M192.422 76.4014H155.898C152.738 76.4014 150.176 79.4135 150.176 83.1291C150.176 86.8447 152.738 89.8568 155.898 89.8568H192.422C195.582 89.8568 198.144 86.8447 198.144 83.1291C198.144 79.4135 195.582 76.4014 192.422 76.4014Z" fill="#81584A"/>
<path d="M180.133 48.751H169.003C159.781 48.751 152.305 57.2319 152.305 67.6936V90.1413C152.305 100.603 159.781 109.084 169.003 109.084H180.133C189.356 109.084 196.832 100.603 196.832 90.1413V67.6936C196.832 57.2319 189.356 48.751 180.133 48.751Z" fill="#9D6B5A"/>
<path d="M179.726 106.594H169.325C168.201 106.594 167.289 107.628 167.289 108.904C167.289 110.18 168.201 111.214 169.325 111.214H179.726C180.851 111.214 181.762 110.18 181.762 108.904C181.762 107.628 180.851 106.594 179.726 106.594Z" fill="#9D6B5A"/>
<path d="M170.408 169.362H165.037C162.475 169.362 160.398 171.038 160.398 173.105C160.398 175.172 162.475 176.847 165.037 176.847H170.408C172.969 176.847 175.046 175.172 175.046 173.105C175.046 171.038 172.969 169.362 170.408 169.362Z" fill="#9D6B5A"/>
<path d="M170.408 178.187H165.037C162.475 178.187 160.398 179.862 160.398 181.929C160.398 183.996 162.475 185.671 165.037 185.671H170.408C172.969 185.671 175.046 183.996 175.046 181.929C175.046 179.862 172.969 178.187 170.408 178.187Z" fill="#9D6B5A"/>
<path d="M170.408 187.011H165.037C162.475 187.011 160.398 188.686 160.398 190.753C160.398 192.82 162.475 194.495 165.037 194.495H170.408C172.969 194.495 175.046 192.82 175.046 190.753C175.046 188.686 172.969 187.011 170.408 187.011Z" fill="#9D6B5A"/>
<path d="M186.812 169.362H181.441C178.879 169.362 176.803 171.038 176.803 173.105C176.803 175.172 178.879 176.847 181.441 176.847H186.812C189.373 176.847 191.45 175.172 191.45 173.105C191.45 171.038 189.373 169.362 186.812 169.362Z" fill="#9D6B5A"/>
<path d="M186.812 178.187H181.441C178.879 178.187 176.803 179.862 176.803 181.929C176.803 183.996 178.879 185.671 181.441 185.671H186.812C189.373 185.671 191.45 183.996 191.45 181.929C191.45 179.862 189.373 178.187 186.812 178.187Z" fill="#9D6B5A"/>
<path d="M186.812 187.011H181.441C178.879 187.011 176.803 188.686 176.803 190.753C176.803 192.82 178.879 194.495 181.441 194.495H186.812C189.373 194.495 191.45 192.82 191.45 190.753C191.45 188.686 189.373 187.011 186.812 187.011Z" fill="#9D6B5A"/>
<path d="M168.732 124.743L160.469 120.771C159.55 120.329 158.446 120.716 158.004 121.636C157.562 122.555 157.949 123.659 158.869 124.101L167.131 128.072C168.051 128.514 169.154 128.127 169.596 127.208C170.038 126.288 169.651 125.185 168.732 124.743Z" fill="#81584A"/>
<path d="M178.573 124.743L186.835 120.771C187.755 120.329 188.858 120.716 189.3 121.635C189.742 122.555 189.355 123.659 188.436 124.101L180.173 128.072C179.254 128.514 178.15 128.127 177.708 127.208C177.266 126.288 177.653 125.185 178.573 124.743Z" fill="#81584A"/>
<path d="M153.978 199.656C152.641 199.656 151.351 199.9 150.131 200.348C151.56 218.147 162.33 231.898 175.494 231.898C188.829 231.898 199.708 217.79 200.91 199.656H200.906H153.978Z" fill="#4F4F4F"/>
<path d="M199.08 197.692H151.993C150.964 197.692 150.131 198.772 150.131 200.104V203.837C150.131 205.169 150.964 206.249 151.993 206.249H199.08C200.108 206.249 200.941 205.169 200.941 203.837V200.104C200.941 198.772 200.108 197.692 199.08 197.692Z" fill="#5B5B5B"/>
<path d="M175.274 103.765H172.484C172.261 103.765 172.08 103.987 172.08 104.261V104.554C172.08 104.828 172.261 105.05 172.484 105.05H175.274C175.497 105.05 175.678 104.828 175.678 104.554V104.261C175.678 103.987 175.497 103.765 175.274 103.765Z" fill="#81584A"/>
<path d="M177.388 82.0742C177.388 80.0258 176.037 78.3652 174.371 78.3652C172.704 78.3652 171.354 80.0258 171.354 82.0742V88.6194C171.354 90.6678 172.704 92.3284 174.371 92.3284C176.037 92.3284 177.388 90.6678 177.388 88.6194V82.0742Z" fill="#81584A"/>
<path d="M166.992 78.4276C166.992 77.1457 166.146 76.1064 165.103 76.1064C164.06 76.1064 163.215 77.1457 163.215 78.4276V79.3561C163.215 80.638 164.06 81.6773 165.103 81.6773C166.146 81.6773 166.992 80.638 166.992 79.3561V78.4276Z" fill="#61534B"/>
<path d="M185.308 78.4276C185.308 77.1457 184.462 76.1064 183.42 76.1064C182.377 76.1064 181.531 77.1457 181.531 78.4276V79.3561C181.531 80.638 182.377 81.6773 183.42 81.6773C184.462 81.6773 185.308 80.638 185.308 79.3561V78.4276Z" fill="#61534B"/>
<path d="M177.753 101.186C180.532 101.186 182.77 98.248 182.77 94.5983V93.5322H165.875V94.5983C165.875 98.248 168.113 101.186 170.892 101.186H177.753Z" fill="white"/>
<path d="M173.968 89.5273L171.162 86.5965C170.698 86.1123 170.003 86.1817 169.609 86.7516C169.215 87.3214 169.272 88.1759 169.735 88.6601L172.541 91.591C173.005 92.0752 173.7 92.0058 174.094 91.4359C174.488 90.866 174.431 90.0115 173.968 89.5273Z" fill="#81584A"/>
<path d="M174.772 89.5273L177.579 86.5965C178.042 86.1123 178.737 86.1817 179.131 86.7516C179.525 87.3214 179.469 88.1759 179.005 88.6601L176.199 91.591C175.735 92.0752 175.04 92.0058 174.646 91.4359C174.252 90.866 174.309 90.0115 174.772 89.5273Z" fill="#81584A"/>
<path d="M176.12 87.6438C176.12 86.661 175.472 85.8643 174.672 85.8643C173.873 85.8643 173.225 86.661 173.225 87.6438V89.2687C173.225 90.2515 173.873 91.0482 174.672 91.0482C175.472 91.0482 176.12 90.2515 176.12 89.2687V87.6438Z" fill="#906253"/>
<path d="M168.178 76.2388L162.166 74.2449C161.515 74.0288 160.92 74.3224 160.838 74.9007C160.756 75.479 161.217 76.1231 161.869 76.3393L167.88 78.3332C168.532 78.5494 169.127 78.2558 169.209 77.6774C169.291 77.0991 168.829 76.455 168.178 76.2388Z" fill="#4D4D4D"/>
<path d="M162.261 75.8374C162.314 75.4094 162.014 74.9334 161.592 74.7744C161.17 74.6153 160.785 74.8333 160.733 75.2613L160.515 77.0363C160.462 77.4643 160.761 77.9402 161.183 78.0993C161.605 78.2584 161.99 78.0403 162.043 77.6123L162.261 75.8374Z" fill="#4D4D4D"/>
<path d="M180.203 76.2369L186.215 74.243C186.866 74.0268 187.461 74.3204 187.543 74.8987C187.625 75.4771 187.163 76.1212 186.512 76.3373L180.5 78.3312C179.849 78.5474 179.254 78.2538 179.172 77.6755C179.09 77.0971 179.552 76.453 180.203 76.2369Z" fill="#4D4D4D"/>
<path d="M186.122 75.8364C186.069 75.4084 186.369 74.9325 186.791 74.7734C187.213 74.6143 187.597 74.8323 187.65 75.2603L187.868 77.0353C187.921 77.4633 187.621 77.9392 187.199 78.0983C186.777 78.2574 186.393 78.0394 186.34 77.6114L186.122 75.8364Z" fill="#4D4D4D"/>
<path d="M172.432 75.311C172.432 74.7369 172.053 74.2715 171.586 74.2715C171.119 74.2715 170.74 74.7369 170.74 75.311V76.5693C170.74 77.1434 171.119 77.6088 171.586 77.6088C172.053 77.6088 172.432 77.1434 172.432 76.5693V75.311Z" fill="#81584A"/>
<path d="M178.041 75.311C178.041 74.7369 177.662 74.2715 177.195 74.2715C176.728 74.2715 176.35 74.7369 176.35 75.311V76.5693C176.35 77.1434 176.728 77.6088 177.195 77.6088C177.662 77.6088 178.041 77.1434 178.041 76.5693V75.311Z" fill="#81584A"/>
<path d="M176.114 87.6409C176.114 86.6581 175.466 85.8613 174.666 85.8613C173.867 85.8613 173.219 86.6581 173.219 87.6409V89.2657C173.219 90.2485 173.867 91.0453 174.666 91.0453C175.466 91.0453 176.114 90.2485 176.114 89.2657V87.6409Z" fill="#906253"/>
<path d="M167.982 75.8011L161.964 74.7968C161.312 74.6879 160.8 75.0255 160.82 75.5509C160.841 76.0763 161.386 76.5905 162.038 76.6994L168.056 77.7037C168.708 77.8125 169.22 77.4749 169.2 76.9495C169.18 76.4241 168.634 75.9099 167.982 75.8011Z" fill="#4D4D4D"/>
<path d="M162.112 76.3584C162.099 75.9227 161.776 75.4986 161.392 75.4112C161.007 75.3238 160.706 75.6061 160.719 76.0418L160.774 77.8487C160.787 78.2844 161.109 78.7084 161.494 78.7959C161.878 78.8833 162.179 78.6009 162.166 78.1652L162.112 76.3584Z" fill="#4D4D4D"/>
<path d="M180.549 75.42L186.421 74.7685C187.058 74.6979 187.517 75.1523 187.447 75.7834C187.377 76.4145 186.804 76.9834 186.168 77.0541L180.295 77.7055C179.659 77.7762 179.199 77.3218 179.269 76.6906C179.34 76.0595 179.912 75.4906 180.549 75.42Z" fill="#4D4D4D"/>
<path d="M186.356 76.5396C186.393 76.0884 186.687 75.6825 187.013 75.6328C187.339 75.5832 187.574 75.9087 187.538 76.3599L187.387 78.2308C187.351 78.682 187.057 79.0879 186.731 79.1376C186.404 79.1872 186.169 78.8617 186.206 78.4105L186.356 76.5396Z" fill="#4D4D4D"/>
<path d="M196.339 71.2256C196.261 71.2177 196.183 71.2175 196.103 71.2265C196.013 71.2366 195.921 71.2582 195.83 71.2917L195.644 71.3603C195.04 71.5831 194.662 72.2675 194.676 73.0044C194.617 72.9013 194.547 72.8114 194.473 72.7283V75.0115C197.087 76.3428 198.916 79.5029 198.916 83.2083C198.916 86.9334 197.067 90.1064 194.431 91.4251C194.356 92.7556 194.164 94.0446 193.876 95.2822V96.5589C193.809 96.4274 193.729 96.3072 193.641 96.1975C192.326 100.896 189.534 104.732 185.937 106.873V109.738C185.937 110.89 186.691 111.817 187.629 111.817H188.409C189.347 111.817 190.101 110.89 190.101 109.738V109.178C190.356 109.931 190.957 110.458 191.663 110.458H192.444C193.382 110.458 194.136 109.53 194.136 108.378V107.719C194.435 108.306 194.961 108.698 195.568 108.698C196.505 108.698 197.26 107.77 197.26 106.618V94.9358L197.608 96.3589C197.825 97.2502 198.585 97.7528 199.31 97.4851C200.035 97.2174 200.443 96.2838 200.225 95.3926L198.369 87.7974C198.711 88.2699 199.254 88.4856 199.781 88.291L199.968 88.2216C200.693 87.9539 201.101 87.0212 200.884 86.1299L197.533 72.417C197.366 71.7347 196.882 71.2809 196.339 71.2256V71.2256ZM152.349 71.3385C151.806 71.3938 151.322 71.8476 151.155 72.53L147.805 86.2428C147.587 87.1341 147.995 88.0668 148.72 88.3345L148.907 88.4039C149.434 88.5985 149.977 88.3828 150.319 87.9103L148.463 95.5055C148.245 96.3968 148.653 97.3303 149.378 97.598C150.103 97.8657 150.863 97.364 151.081 96.4727L151.151 96.1857V106.618C151.151 107.77 151.905 108.698 152.842 108.698C153.449 108.698 153.976 108.306 154.274 107.719V108.378C154.274 109.53 155.028 110.458 155.966 110.458H156.747C157.452 110.458 158.054 109.932 158.308 109.181V109.738C158.308 110.89 159.063 111.817 160 111.817H160.781C161.719 111.817 162.473 110.89 162.473 109.738V106.798C158.909 104.626 156.151 100.783 154.864 96.0895C154.737 96.2256 154.624 96.3819 154.534 96.5589V94.714C154.316 93.6513 154.168 92.5531 154.104 91.4251C151.468 90.1063 149.619 86.9333 149.619 83.2083C149.619 79.5029 151.448 76.3428 154.062 75.0115V73.0428C154.046 73.0681 154.027 73.0908 154.012 73.1173C154.026 72.3807 153.648 71.696 153.044 71.4733L152.858 71.4046C152.767 71.3712 152.675 71.3495 152.585 71.3394C152.506 71.3305 152.427 71.3306 152.349 71.3385V71.3385Z" fill="#4D4D4D"/>
<path d="M158.133 55.8613C155.21 59.2037 153.379 64.034 153.379 69.4236V91.104C153.379 101.24 159.853 109.399 167.896 109.399H180.636C188.679 109.399 195.153 101.24 195.153 91.104V69.4236C195.153 64.034 193.322 59.2037 190.399 55.8613C192.626 59.1211 193.973 63.367 193.973 68.0264V90.1017C193.973 100.422 187.381 108.73 179.193 108.73H169.34C161.151 108.73 154.559 100.422 154.559 90.1017V68.0264C154.559 63.367 155.906 59.1211 158.133 55.8613Z" fill="#565656"/>
<path d="M166.663 109.19C166.663 108.222 166.04 107.437 165.272 107.437C164.504 107.437 163.881 108.222 163.881 109.19V111.226C163.881 112.194 164.504 112.979 165.272 112.979C166.04 112.979 166.663 112.194 166.663 111.226V109.19Z" fill="#565656"/>
<path d="M169.267 110.788C169.267 109.819 168.644 109.034 167.876 109.034C167.107 109.034 166.484 109.819 166.484 110.788V112.824C166.484 113.792 167.107 114.577 167.876 114.577C168.644 114.577 169.267 113.792 169.267 112.824V110.788Z" fill="#565656"/>
<path d="M171.839 111.669C171.839 110.701 171.216 109.916 170.448 109.916C169.68 109.916 169.057 110.701 169.057 111.669V113.706C169.057 114.674 169.68 115.459 170.448 115.459C171.216 115.459 171.839 114.674 171.839 113.706V111.669Z" fill="#565656"/>
<path d="M174.376 111.869C174.376 110.9 173.753 110.115 172.985 110.115C172.217 110.115 171.594 110.9 171.594 111.869V113.905C171.594 114.873 172.217 115.658 172.985 115.658C173.753 115.658 174.376 114.873 174.376 113.905V111.869Z" fill="#565656"/>
<path d="M164.323 105.675C164.323 104.519 163.58 103.582 162.662 103.582C161.745 103.582 161.002 104.519 161.002 105.675V108.105C161.002 109.261 161.745 110.198 162.662 110.198C163.58 110.198 164.323 109.261 164.323 108.105V105.675Z" fill="#565656"/>
<path d="M161.452 103.527C161.452 102.372 160.708 101.435 159.791 101.435C158.874 101.435 158.131 102.372 158.131 103.527V105.958C158.131 107.113 158.874 108.05 159.791 108.05C160.708 108.05 161.452 107.113 161.452 105.958V103.527Z" fill="#565656"/>
<path d="M159.028 100.925C159.028 99.769 158.285 98.832 157.368 98.832C156.45 98.832 155.707 99.769 155.707 100.925V103.355C155.707 104.511 156.45 105.448 157.368 105.448C158.285 105.448 159.028 104.511 159.028 103.355V100.925Z" fill="#565656"/>
<path d="M181.876 109.19C181.876 108.222 182.499 107.437 183.267 107.437C184.035 107.437 184.658 108.222 184.658 109.19V111.226C184.658 112.194 184.035 112.979 183.267 112.979C182.499 112.979 181.876 112.194 181.876 111.226V109.19Z" fill="#565656"/>
<path d="M179.272 110.788C179.272 109.819 179.895 109.034 180.663 109.034C181.432 109.034 182.055 109.819 182.055 110.788V112.824C182.055 113.792 181.432 114.577 180.663 114.577C179.895 114.577 179.272 113.792 179.272 112.824V110.788Z" fill="#565656"/>
<path d="M176.702 111.669C176.702 110.701 177.325 109.916 178.093 109.916C178.861 109.916 179.484 110.701 179.484 111.669V113.706C179.484 114.674 178.861 115.459 178.093 115.459C177.325 115.459 176.702 114.674 176.702 113.706V111.669Z" fill="#565656"/>
<path d="M174.163 111.869C174.163 110.9 174.786 110.115 175.554 110.115C176.322 110.115 176.945 110.9 176.945 111.869V113.905C176.945 114.873 176.322 115.658 175.554 115.658C174.786 115.658 174.163 114.873 174.163 113.905V111.869Z" fill="#565656"/>
<path d="M184.216 105.675C184.216 104.519 184.96 103.582 185.877 103.582C186.794 103.582 187.537 104.519 187.537 105.675V108.105C187.537 109.261 186.794 110.198 185.877 110.198C184.96 110.198 184.216 109.261 184.216 108.105V105.675Z" fill="#565656"/>
<path d="M187.087 103.528C187.087 102.373 187.831 101.436 188.748 101.436C189.665 101.436 190.408 102.373 190.408 103.528V105.959C190.408 107.114 189.665 108.051 188.748 108.051C187.831 108.051 187.087 107.114 187.087 105.959V103.528Z" fill="#565656"/>
<path d="M189.511 100.925C189.511 99.769 190.254 98.832 191.172 98.832C192.089 98.832 192.832 99.769 192.832 100.925V103.355C192.832 104.511 192.089 105.448 191.172 105.448C190.254 105.448 189.511 104.511 189.511 103.355V100.925Z" fill="#565656"/>
<path d="M167.979 88.5557C164.733 88.5557 162.119 91.8494 162.119 95.9409V104.58C162.119 108.672 164.733 111.965 167.979 111.965H180.553C183.799 111.965 186.413 108.672 186.413 104.58V95.9409C186.413 91.8494 183.799 88.5557 180.553 88.5557H179.323C179.366 89.0057 179.235 89.4729 178.939 89.7897L178.442 90.3219C178.736 90.6704 178.956 91.1198 179.051 91.6346H180.756C182.572 91.6346 184.033 93.4757 184.033 95.7635V99.4783C184.033 100.346 183.822 101.149 183.462 101.813V102.832C183.462 106.098 181.376 108.727 178.784 108.727H169.748C167.156 108.727 165.07 106.098 165.07 102.832V101.813C164.71 101.149 164.499 100.346 164.499 99.4783V95.7635C164.499 93.4757 165.96 91.6346 167.775 91.6346H168.848C168.976 90.9418 169.323 90.361 169.789 89.9997L169.593 89.7897C169.297 89.4729 169.166 89.0057 169.209 88.5557H167.979Z" fill="#565656"/>
<path d="M165.228 48.375C157.574 48.375 151.412 55.9488 151.412 65.3567C151.412 65.7986 151.43 66.2346 151.457 66.6678C151.431 66.8894 151.412 67.1145 151.412 67.3455V77.7485C151.412 79.9809 152.696 81.8306 154.41 82.2489V68.6733C154.41 58.9552 160.775 51.131 168.681 51.131H179.846C187.752 51.131 194.117 58.9552 194.117 68.6733V82.2673C195.879 81.8969 197.214 80.0234 197.214 77.7485V67.3455C197.214 67.1145 197.196 66.8894 197.169 66.6678C197.196 66.2346 197.214 65.7986 197.214 65.3567C197.214 55.9488 191.053 48.375 183.399 48.375H165.228Z" fill="#4D4D4D"/>
<path d="M180.905 46.2334H168.459C164.266 46.2334 160.867 50.4116 160.867 55.5658C160.867 60.7199 164.266 64.8981 168.459 64.8981H180.905C185.098 64.8981 188.498 60.7199 188.498 55.5658C188.498 50.4116 185.098 46.2334 180.905 46.2334Z" fill="#4D4D4D"/>
<path d="M165.103 52.1625C165.103 50.705 164.141 49.5234 162.956 49.5234C161.77 49.5234 160.809 50.705 160.809 52.1625V58.2821C160.809 59.7396 161.77 60.9212 162.956 60.9212C164.141 60.9212 165.103 59.7396 165.103 58.2821V52.1625Z" fill="#4D4D4D"/>
<path d="M189.495 52.392C189.495 50.9345 188.534 49.7529 187.348 49.7529C186.162 49.7529 185.201 50.9345 185.201 52.392V58.5116C185.201 59.9691 186.162 61.1507 187.348 61.1507C188.534 61.1507 189.495 59.9691 189.495 58.5116V52.392Z" fill="#4D4D4D"/>
<path d="M159.99 55.1786C159.878 54.2168 159.152 53.5492 158.37 53.6873C157.587 53.8255 157.044 54.7172 157.157 55.679L157.519 58.7834C157.632 59.7452 158.357 60.4129 159.14 60.2747C159.922 60.1366 160.465 59.2449 160.353 58.2831L159.99 55.1786Z" fill="#4D4D4D"/>
<path d="M190.346 55.9355C190.458 54.9737 191.184 54.306 191.966 54.4442C192.749 54.5823 193.292 55.474 193.179 56.4358L192.816 59.5403C192.704 60.5021 191.979 61.1697 191.196 61.0316C190.414 60.8934 189.871 60.0017 189.983 59.0399L190.346 55.9355Z" fill="#4D4D4D"/>
<path d="M173.189 50.8682H174.53C175.32 50.8682 175.961 51.6559 175.961 52.6275V59.0531C175.961 60.0248 175.32 60.8125 174.53 60.8125H173.189C172.399 60.8125 171.758 60.0248 171.758 59.0531V52.6275C171.758 51.6559 172.399 50.8682 173.189 50.8682Z" fill="#565656"/>
<path d="M167.406 51.0586H169.175C169.793 51.0586 170.295 51.6751 170.295 52.4355V59.2435C170.295 60.004 169.793 60.6204 169.175 60.6204H167.406C166.787 60.6204 166.285 60.004 166.285 59.2435V52.4355C166.285 51.6751 166.787 51.0586 167.406 51.0586Z" fill="#565656"/>
<path d="M180.311 51.0586H178.542C177.923 51.0586 177.422 51.6751 177.422 52.4355V59.2435C177.422 60.004 177.923 60.6204 178.542 60.6204H180.311C180.93 60.6204 181.431 60.004 181.431 59.2435V52.4355C181.431 51.6751 180.93 51.0586 180.311 51.0586Z" fill="#565656"/>
</svg>
