<svg width="351" height="351" viewBox="0 0 351 351" fill="none" xmlns="http://www.w3.org/2000/svg">
<circle cx="175.793" cy="175.595" r="173.197" stroke="black" stroke-width="3.60643"/>
<rect x="27.0142" y="51.7436" width="295.472" height="295.472" stroke="black" stroke-width="3.60643"/>
<path d="M148.427 129.961L148.43 129.923C148.666 127.549 143.9 125.901 137.784 126.241L126.565 125.976L114.258 126.209L103.055 126.603L91.8656 127.895C85.7502 128.235 80.6002 131.334 80.3645 133.708L80.3608 133.745C80.1251 136.119 81.2341 135.017 99.0007 135.899L106.059 137.195C109.411 137.811 112.932 137.804 116.469 137.176L117.159 137.053L136.927 134.875C143.042 134.535 148.191 132.335 148.427 129.961Z" fill="#81584A"/>
<path d="M108.541 132.935C110.905 132.773 112.901 131.846 112.999 130.865C113.096 129.883 111.259 129.219 108.895 129.381L105.782 129.595C103.418 129.757 101.423 130.684 101.325 131.665C101.227 132.646 103.064 133.311 105.428 133.149L108.541 132.935Z" fill="#906253"/>
<path d="M97.7158 136.099C103.639 136.637 117.172 135.881 117.476 133.452C117.779 131.023 113.224 128.618 107.301 128.08L62.825 124.041C56.902 123.503 51.8543 125.036 51.5506 127.465L51.5459 127.503C51.2423 129.932 55.7977 132.338 61.7208 132.875L97.7158 136.099Z" fill="#81584A"/>
<path d="M69.651 131.136L69.7736 129.521C70.0087 126.425 64.6267 123.408 57.7527 122.782L51.6458 122.226C44.7717 121.6 39.0087 123.602 38.7736 126.697L38.651 128.312C38.416 131.408 43.7979 134.425 50.672 135.051L56.7789 135.607C63.6529 136.233 69.416 134.231 69.651 131.136Z" fill="#906253"/>
<path d="M98.0144 136.398C105.435 137.058 111.632 135.276 111.855 132.417C112.079 129.559 106.244 126.706 98.8234 126.046L88.2722 125.108C80.8515 124.448 74.6547 126.231 74.4313 129.089C74.2079 131.948 80.0424 134.8 87.4631 135.46L98.0144 136.398Z" fill="#906253"/>
<path d="M100.917 136.039C102.275 136.151 103.409 135.85 103.45 135.367C103.492 134.884 102.425 134.401 101.067 134.288L92.1531 133.55C90.7951 133.438 89.6606 133.738 89.6193 134.221C89.5779 134.705 90.6452 135.188 92.0032 135.3L100.917 136.039Z" fill="#9D6B5A"/>
<path d="M52.2405 130.878C56.6339 130.45 58.9926 128.02 57.5088 125.449C56.0251 122.877 51.2607 121.139 46.8674 121.566L34.8676 122.733C30.4743 123.161 28.1156 125.591 29.5993 128.162C31.0831 130.734 35.8474 132.472 40.2408 132.044L52.2405 130.878Z" fill="#906253"/>
<path d="M54.1604 136.05C57.2016 136.318 59.7515 135.463 59.8559 134.141C59.9603 132.819 57.5796 131.53 54.5384 131.261L46.232 130.529C43.1909 130.26 40.6409 131.115 40.5365 132.437C40.4321 133.759 42.8129 135.049 45.854 135.317L54.1604 136.05Z" fill="#9D6B5A"/>
<path d="M202.298 131.5L202.291 131.465C201.853 129.22 206.394 127.516 212.434 127.658L223.438 127.076L235.553 126.934L246.599 126.978L257.708 127.873C263.748 128.015 269.079 130.803 269.517 133.048L269.524 133.083C269.962 135.328 260.687 135.575 251.707 136.569L248.875 137.182C247.131 137.56 245.319 137.76 243.463 137.782L238.997 137.835L214.028 135.823C207.988 135.681 202.736 133.745 202.298 131.5Z" fill="#81584A"/>
<path d="M241.864 133.165C239.543 133.071 237.516 132.243 237.336 131.315C237.156 130.386 238.891 129.709 241.212 129.803L244.268 129.925C246.588 130.019 248.615 130.847 248.796 131.775C248.976 132.704 247.241 133.381 244.92 133.287L241.864 133.165Z" fill="#906253"/>
<path d="M233.002 133.789L232.998 133.75C232.703 131.253 237.265 128.76 243.186 128.182L287.645 123.845C293.566 123.267 298.605 124.823 298.899 127.32L298.903 127.359C299.198 129.856 294.637 132.348 288.716 132.926L244.256 137.264C238.335 137.841 233.297 136.286 233.002 133.789Z" fill="#81584A"/>
<path d="M280.825 131.217L280.708 129.551C280.484 126.359 285.869 123.223 292.736 122.547L298.836 121.946C305.703 121.269 311.451 123.308 311.675 126.501L311.792 128.166C312.016 131.358 306.631 134.495 299.765 135.171L293.664 135.772C286.798 136.449 281.049 134.409 280.825 131.217Z" fill="#906253"/>
<path d="M252.436 136.7C245.021 137.412 238.837 135.603 238.624 132.658C238.411 129.713 244.249 126.749 251.664 126.036L262.208 125.024C269.623 124.311 275.806 126.121 276.02 129.065C276.233 132.01 270.394 134.975 262.979 135.687L252.436 136.7Z" fill="#906253"/>
<path d="M249.521 136.353C248.163 136.474 247.031 136.17 246.991 135.673C246.952 135.176 248.02 134.675 249.378 134.554L258.288 133.758C259.645 133.637 260.778 133.941 260.817 134.438C260.857 134.935 259.788 135.436 258.431 135.557L249.521 136.353Z" fill="#9D6B5A"/>
<path d="M298.218 130.928C293.826 130.507 291.474 127.991 292.965 125.308C294.456 122.626 299.224 120.793 303.616 121.214L315.612 122.364C320.004 122.786 322.355 125.302 320.865 127.984C319.374 130.667 314.605 132.5 310.213 132.078L298.218 130.928Z" fill="#906253"/>
<path d="M296.272 136.238C293.233 136.527 290.688 135.658 290.589 134.296C290.489 132.935 292.872 131.596 295.911 131.307L304.211 130.516C307.251 130.227 309.795 131.096 309.894 132.457C309.994 133.819 307.611 135.157 304.572 135.447L296.272 136.238Z" fill="#9D6B5A"/>
<path d="M205.611 123.495L205.642 123.477C207.602 122.297 210.757 125.982 212.689 131.706L216.999 141.847L221.276 153.183L225.013 163.577L227.971 174.323C229.903 180.047 229.107 186.01 227.147 187.19L227.117 187.208C225.157 188.388 221.753 179.756 217.747 171.658L216.203 169.207C215.251 167.697 214.443 166.063 213.787 164.326L212.21 160.147L205.562 135.996C203.629 130.272 203.652 124.675 205.611 123.495Z" fill="#81584A"/>
<path d="M217.579 161.243C216.873 159.03 216.957 156.842 217.768 156.355C218.579 155.868 219.809 157.267 220.515 159.48L221.445 162.393C222.151 164.606 222.066 166.794 221.255 167.281C220.444 167.768 219.215 166.369 218.508 164.156L217.579 161.243Z" fill="#906253"/>
<path d="M212.382 146.724L212.418 146.709C214.737 145.737 218.39 149.435 220.578 154.967L237.002 196.509C239.19 202.041 239.083 207.313 236.764 208.285L236.728 208.3C234.409 209.271 230.755 205.573 228.568 200.041L212.143 158.499C209.956 152.967 210.063 147.695 212.382 146.724Z" fill="#81584A"/>
<path d="M228.036 191.984L229.605 191.413C232.611 190.318 237.11 194.629 239.653 201.044L241.913 206.742C244.456 213.156 244.08 219.244 241.073 220.339L239.504 220.91C236.497 222.006 231.998 217.694 229.455 211.28L227.196 205.581C224.653 199.167 225.029 193.08 228.036 191.984Z" fill="#906253"/>
<path d="M214.94 166.206C212.211 159.275 212.246 152.832 215.018 151.815C217.79 150.799 222.249 155.594 224.978 162.525L228.857 172.381C231.586 179.312 231.551 185.755 228.779 186.772C226.007 187.788 221.548 182.993 218.82 176.062L214.94 166.206Z" fill="#906253"/>
<path d="M214.47 163.309C213.98 162.037 213.96 160.865 214.427 160.69C214.893 160.515 215.669 161.404 216.16 162.675L219.381 171.021C219.871 172.292 219.891 173.465 219.424 173.64C218.958 173.814 218.182 172.926 217.691 171.654L214.47 163.309Z" fill="#9D6B5A"/>
<path d="M233.108 208.623C232.302 204.285 234.072 201.331 237.062 202.025C240.051 202.718 243.128 206.797 243.933 211.135L246.134 222.982C246.94 227.32 245.169 230.275 242.18 229.581C239.19 228.888 236.114 224.809 235.308 220.471L233.108 208.623Z" fill="#906253"/>
<path d="M227.468 208.216C226.352 205.375 226.486 202.689 227.768 202.218C229.049 201.747 230.993 203.669 232.109 206.51L235.157 214.271C236.273 217.113 236.138 219.798 234.857 220.269C233.576 220.74 231.632 218.819 230.516 215.977L227.468 208.216Z" fill="#9D6B5A"/>
<path d="M142.689 126.612L142.659 126.593C140.699 125.414 137.544 129.098 135.612 134.822L131.301 144.963L127.025 156.3L123.288 166.694L120.33 177.439C118.397 183.164 119.194 189.127 121.153 190.306L121.184 190.325C123.144 191.504 126.548 182.873 130.554 174.774L132.098 172.323C133.049 170.813 133.858 169.179 134.513 167.442L136.09 163.263L142.739 139.112C144.671 133.388 144.649 127.791 142.689 126.612Z" fill="#81584A"/>
<path d="M130.722 164.359C131.428 162.146 131.343 159.958 130.533 159.471C129.722 158.984 128.492 160.383 127.786 162.596L126.856 165.51C126.15 167.722 126.235 169.911 127.046 170.397C127.857 170.884 129.086 169.485 129.792 167.273L130.722 164.359Z" fill="#906253"/>
<path d="M135.917 149.84L135.881 149.825C133.562 148.854 129.908 152.551 127.721 158.084L111.296 199.625C109.109 205.157 109.216 210.43 111.535 211.401L111.571 211.416C113.89 212.387 117.544 208.69 119.731 203.157L136.156 161.616C138.343 156.083 138.236 150.811 135.917 149.84Z" fill="#81584A"/>
<path d="M120.263 195.101L118.694 194.529C115.687 193.434 111.188 197.746 108.646 204.16L106.386 209.858C103.843 216.272 104.219 222.36 107.226 223.455L108.795 224.027C111.802 225.122 116.301 220.81 118.844 214.396L121.103 208.698C123.646 202.283 123.27 196.196 120.263 195.101Z" fill="#906253"/>
<path d="M133.359 169.322C136.087 162.391 136.052 155.948 133.281 154.931C130.509 153.915 126.05 158.71 123.321 165.641L119.441 175.497C116.713 182.428 116.748 188.871 119.52 189.888C122.292 190.904 126.751 186.109 129.479 179.178L133.359 169.322Z" fill="#906253"/>
<path d="M133.828 166.425C134.319 165.153 134.339 163.981 133.872 163.806C133.406 163.631 132.63 164.52 132.139 165.791L128.918 174.137C128.427 175.408 128.408 176.581 128.874 176.756C129.341 176.931 130.117 176.042 130.608 174.77L133.828 166.425Z" fill="#9D6B5A"/>
<path d="M115.191 211.739C115.997 207.401 114.227 204.447 111.237 205.141C108.248 205.834 105.171 209.913 104.365 214.251L102.165 226.099C101.359 230.437 103.13 233.391 106.119 232.697C109.109 232.004 112.185 227.925 112.991 223.587L115.191 211.739Z" fill="#906253"/>
<path d="M120.831 211.332C121.947 208.491 121.812 205.805 120.531 205.334C119.25 204.863 117.306 206.785 116.19 209.626L113.142 217.388C112.026 220.229 112.16 222.914 113.442 223.385C114.723 223.857 116.667 221.935 117.783 219.093L120.831 211.332Z" fill="#9D6B5A"/>
<path d="M164.268 346.439C167.091 346.439 169.38 343.199 169.38 339.202V312.287C169.38 310.55 169.64 308.822 170.151 307.162C170.663 305.502 170.923 303.775 170.923 302.038V297.53C170.923 295.99 170.81 294.452 170.586 292.929L170.374 291.496C170.15 289.973 170.037 288.435 170.037 286.895V274.878L169.884 273.406C169.597 270.647 167.272 268.551 164.499 268.551C161.509 268.551 159.085 270.975 159.085 273.965L159.084 303.068L159.085 320.913L157.965 339.202C157.965 343.199 160.253 346.439 163.076 346.439H164.268Z" fill="#906253"/>
<path d="M173.363 230.785V204.862C173.363 200.053 169.464 196.154 164.655 196.154C160.168 196.154 156.415 199.565 155.988 204.033L155.563 208.47L154.289 236.496V252.778L155.228 262.533C155.451 264.85 155.93 267.136 156.656 269.348L158.735 275.68C158.984 276.438 159.11 277.231 159.11 278.029V280.105C159.11 283.117 161.552 285.558 164.564 285.558C167.576 285.558 170.017 283.117 170.017 280.105V277.665C170.017 277.106 170.077 276.549 170.194 276.003L171.234 271.178L172.315 261.869L173.363 249.91V230.785Z" fill="#81584A"/>
<path d="M166.11 331.123H161.31C158.543 331.123 156.299 334.551 156.299 338.781C156.299 343.01 158.543 346.438 161.31 346.438H166.11C168.878 346.438 171.121 343.01 171.121 338.781C171.121 334.551 168.878 331.123 166.11 331.123Z" fill="#9D6B5A"/>
<path d="M169.462 338.051H157.958C157.042 338.051 156.299 339.186 156.299 340.587V343.903C156.299 345.304 157.042 346.439 157.958 346.439H169.462C170.378 346.439 171.121 345.304 171.121 343.903V340.587C171.121 339.186 170.378 338.051 169.462 338.051Z" fill="#9D6B5A"/>
<path d="M200.421 153.728C200.421 134.158 188.903 134.087 174.552 134.087C160.2 134.087 150.871 134.158 150.871 153.728L154.317 178.105L174.552 230.554L192.903 197.808L195.651 178.105L200.421 153.728Z" fill="#81584A"/>
<path d="M204.577 120.718H144.763C138.288 120.718 133.039 124.656 133.039 129.514C133.039 134.372 138.288 138.31 144.763 138.31H204.577C211.052 138.31 216.301 134.372 216.301 129.514C216.301 124.656 211.052 120.718 204.577 120.718Z" fill="#906253"/>
<path d="M204.069 137.481C204.069 124.638 191.103 114.228 175.108 114.228C159.113 114.228 146.146 124.638 146.146 137.481C146.146 150.324 159.113 160.734 175.108 160.734C191.103 160.734 204.069 150.324 204.069 137.481Z" fill="#81584A"/>
<path d="M177.396 158.354H173.05C162.689 158.354 154.289 167.694 154.289 179.214V194.285C154.289 205.805 162.689 215.144 173.05 215.144H177.396C187.757 215.144 196.157 205.805 196.157 194.285V179.214C196.157 167.694 187.757 158.354 177.396 158.354Z" fill="#906253"/>
<path d="M189.98 117.112H160.103C152.395 117.112 146.146 124.241 146.146 133.034V142.631C146.146 151.424 152.395 158.553 160.103 158.553H189.98C197.688 158.553 203.936 151.424 203.936 142.631V133.034C203.936 124.241 197.688 117.112 189.98 117.112Z" fill="#906253"/>
<path d="M192.587 117.112H157.496C151.228 117.112 146.146 124.241 146.146 133.034V142.631C146.146 151.424 151.228 158.553 157.496 158.553H192.587C198.855 158.553 203.936 151.424 203.936 142.631V133.034C203.936 124.241 198.855 117.112 192.587 117.112Z" fill="#9D6B5A"/>
<path d="M177.359 154.009C177.359 152.745 176.154 151.721 174.668 151.721C173.181 151.721 171.977 152.745 171.977 154.009V158.447C171.977 159.711 173.181 160.735 174.668 160.735C176.154 160.735 177.359 159.711 177.359 158.447V154.009Z" fill="#81584A"/>
<path d="M189.62 141.61H183.439C181.664 141.61 180.225 143.547 180.225 145.935C180.225 148.324 181.664 150.26 183.439 150.26H189.62C191.396 150.26 192.835 148.324 192.835 145.935C192.835 143.547 191.396 141.61 189.62 141.61Z" fill="#AC7967"/>
<path d="M167.804 141.61H161.623C159.847 141.61 158.408 143.547 158.408 145.935C158.408 148.324 159.847 150.26 161.623 150.26H167.804C169.579 150.26 171.018 148.324 171.018 145.935C171.018 143.547 169.579 141.61 167.804 141.61Z" fill="#AC7967"/>
<path d="M185.201 103.665C185.201 93.6557 180.539 85.542 174.788 85.542C169.037 85.542 164.375 93.6557 164.375 103.665V111.099C164.375 121.108 169.037 129.222 174.788 129.222C180.539 129.222 185.201 121.108 185.201 111.099V103.665Z" fill="#9D6B5A"/>
<path d="M157.44 150.891H155.002C154.029 150.891 153.24 151.87 153.24 153.078C153.24 154.286 154.029 155.265 155.002 155.265H157.44C158.413 155.265 159.202 154.286 159.202 153.078C159.202 151.87 158.413 150.891 157.44 150.891Z" fill="#81584A"/>
<path d="M197.308 150.891H194.869C193.896 150.891 193.107 151.87 193.107 153.078C193.107 154.286 193.896 155.265 194.869 155.265H197.308C198.28 155.265 199.069 154.286 199.069 153.078C199.069 151.87 198.28 150.891 197.308 150.891Z" fill="#81584A"/>
<path d="M177.308 85.542H171.438C164.699 85.542 159.236 91.0047 159.236 97.7433V102.749C159.236 109.488 164.699 114.95 171.438 114.95H177.308C184.047 114.95 189.51 109.488 189.51 102.749V97.7433C189.51 91.0047 184.047 85.542 177.308 85.542Z" fill="#81584A"/>
<path d="M186.478 346.029C183.647 346.029 181.353 342.721 181.353 338.64V310.639C181.353 308.979 181.092 307.33 180.579 305.751C180.067 304.172 179.806 302.523 179.806 300.863V295.999C179.806 294.487 179.914 292.977 180.131 291.48L180.369 289.84C180.585 288.344 180.694 286.833 180.694 285.321V272.96L180.856 271.373C181.138 268.605 183.469 266.5 186.251 266.5C189.246 266.5 191.674 268.928 191.674 271.923L191.674 301.745L191.674 319.965L192.797 338.64C192.797 342.721 190.503 346.029 187.672 346.029H186.478Z" fill="#906253"/>
<path d="M177.36 230.458V204.889C177.36 200.065 181.271 196.154 186.094 196.154C190.592 196.154 194.355 199.57 194.788 204.047L195.205 208.353L196.482 236.114V252.243L195.548 261.834C195.32 264.177 194.83 266.486 194.088 268.72L192.029 274.918C191.777 275.675 191.649 276.468 191.649 277.266V279.245C191.649 282.265 189.201 284.713 186.181 284.713C183.162 284.713 180.714 282.265 180.714 279.245V276.903C180.714 276.343 180.654 275.786 180.535 275.239L179.495 270.469L178.411 261.247L177.36 249.401V230.458Z" fill="#81584A"/>
<path d="M185.162 330.767H189.974C192.749 330.767 194.998 334.183 194.998 338.397C194.998 342.612 192.749 346.028 189.974 346.028H185.162C182.387 346.028 180.138 342.612 180.138 338.397C180.138 334.183 182.387 330.767 185.162 330.767Z" fill="#9D6B5A"/>
<path d="M181.802 333.909H193.334C194.253 333.909 194.998 335.55 194.998 337.573V342.365C194.998 344.389 194.253 346.029 193.334 346.029H181.802C180.883 346.029 180.138 344.389 180.138 342.365V337.573C180.138 335.55 180.883 333.909 181.802 333.909Z" fill="#9D6B5A"/>
<path d="M190.788 74.1064H157.442C153.63 74.1064 150.539 78.1454 150.539 83.1277C150.539 88.11 153.63 92.149 157.442 92.149H190.788C194.6 92.149 197.691 88.11 197.691 83.1277C197.691 78.1454 194.6 74.1064 190.788 74.1064Z" fill="#9D6B5A"/>
<path d="M191.378 76.4014H156.987C154.012 76.4014 151.6 79.4135 151.6 83.1291C151.6 86.8447 154.012 89.8568 156.987 89.8568H191.378C194.353 89.8568 196.765 86.8447 196.765 83.1291C196.765 79.4135 194.353 76.4014 191.378 76.4014Z" fill="#81584A"/>
<path d="M181.05 48.751H171.426C163.452 48.751 156.988 57.2319 156.988 67.6936V90.1413C156.988 100.603 163.452 109.084 171.426 109.084H181.05C189.023 109.084 195.487 100.603 195.487 90.1413V67.6936C195.487 57.2319 189.023 48.751 181.05 48.751Z" fill="#9D6B5A"/>
<path d="M181.513 106.594H170.876C169.725 106.594 168.793 107.628 168.793 108.904C168.793 110.18 169.725 111.214 170.876 111.214H181.513C182.663 111.214 183.595 110.18 183.595 108.904C183.595 107.628 182.663 106.594 181.513 106.594Z" fill="#9D6B5A"/>
<path d="M170.805 169.362H165.98C163.678 169.362 161.812 171.038 161.812 173.105C161.812 175.172 163.678 176.847 165.98 176.847H170.805C173.106 176.847 174.972 175.172 174.972 173.105C174.972 171.038 173.106 169.362 170.805 169.362Z" fill="#9D6B5A"/>
<path d="M170.805 178.187H165.98C163.678 178.187 161.812 179.862 161.812 181.929C161.812 183.996 163.678 185.671 165.98 185.671H170.805C173.106 185.671 174.972 183.996 174.972 181.929C174.972 179.862 173.106 178.187 170.805 178.187Z" fill="#9D6B5A"/>
<path d="M170.805 187.011H165.98C163.678 187.011 161.812 188.686 161.812 190.753C161.812 192.82 163.678 194.495 165.98 194.495H170.805C173.106 194.495 174.972 192.82 174.972 190.753C174.972 188.686 173.106 187.011 170.805 187.011Z" fill="#9D6B5A"/>
<path d="M185.543 169.362H180.718C178.416 169.362 176.551 171.038 176.551 173.105C176.551 175.172 178.416 176.847 180.718 176.847H185.543C187.844 176.847 189.71 175.172 189.71 173.105C189.71 171.038 187.844 169.362 185.543 169.362Z" fill="#9D6B5A"/>
<path d="M185.543 178.187H180.718C178.416 178.187 176.551 179.862 176.551 181.929C176.551 183.996 178.416 185.671 180.718 185.671H185.543C187.844 185.671 189.71 183.996 189.71 181.929C189.71 179.862 187.844 178.187 185.543 178.187Z" fill="#9D6B5A"/>
<path d="M185.543 187.011H180.718C178.416 187.011 176.551 188.686 176.551 190.753C176.551 192.82 178.416 194.495 180.718 194.495H185.543C187.844 194.495 189.71 192.82 189.71 190.753C189.71 188.686 187.844 187.011 185.543 187.011Z" fill="#9D6B5A"/>
<path d="M168.972 124.742L160.71 120.77C159.79 120.328 158.687 120.715 158.245 121.635C157.803 122.554 158.19 123.658 159.109 124.1L167.372 128.071C168.291 128.513 169.395 128.126 169.837 127.207C170.279 126.287 169.892 125.184 168.972 124.742Z" fill="#81584A"/>
<path d="M178.813 124.742L187.075 120.77C187.995 120.328 189.099 120.715 189.541 121.635C189.982 122.554 189.595 123.658 188.676 124.1L180.414 128.071C179.494 128.513 178.391 128.126 177.949 127.207C177.507 126.287 177.894 125.184 178.813 124.742Z" fill="#81584A"/>
<path d="M158.182 199.656C157.091 199.656 156.039 199.9 155.043 200.348C156.209 218.147 164.998 231.898 175.741 231.898C186.623 231.898 195.501 217.79 196.482 199.656C196.481 199.656 196.48 199.656 196.479 199.656H158.182Z" fill="#4F4F4F"/>
<path d="M194.988 197.691H156.562C155.723 197.691 155.043 198.771 155.043 200.103V203.836C155.043 205.168 155.723 206.248 156.562 206.248H194.988C195.827 206.248 196.508 205.168 196.508 203.836V200.103C196.508 198.771 195.827 197.691 194.988 197.691Z" fill="#5B5B5B"/>
<path d="M200.421 153.728C200.421 134.158 188.903 134.087 174.552 134.087C160.2 134.087 150.871 134.158 150.871 153.728L154.317 178.105L174.552 230.554L192.903 197.808L195.651 178.105L200.421 153.728Z" fill="#81584A"/>
<path d="M202.241 120.719H144.38C138.117 120.719 133.039 124.749 133.039 129.72C133.039 134.691 138.117 138.721 144.38 138.721H202.241C208.505 138.721 213.582 134.691 213.582 129.72C213.582 124.749 208.505 120.719 202.241 120.719Z" fill="#906253"/>
<path d="M203.371 136.809C203.371 123.596 190.561 112.884 174.759 112.884C158.957 112.884 146.146 123.596 146.146 136.809C146.146 150.023 158.957 160.735 174.759 160.735C190.561 160.735 203.371 150.023 203.371 136.809Z" fill="#81584A"/>
<path d="M177.397 158.354H173.052C162.691 158.354 154.291 167.694 154.291 179.214V194.285C154.291 205.805 162.691 215.144 173.052 215.144H177.397C187.759 215.144 196.159 205.805 196.159 194.285V179.214C196.159 167.694 187.759 158.354 177.397 158.354Z" fill="#906253"/>
<path d="M189.98 117.112H160.103C152.395 117.112 146.146 124.241 146.146 133.034V142.631C146.146 151.424 152.395 158.553 160.103 158.553H189.98C197.688 158.553 203.936 151.424 203.936 142.631V133.034C203.936 124.241 197.688 117.112 189.98 117.112Z" fill="#906253"/>
<path d="M192.587 117.112H157.496C151.228 117.112 146.146 124.241 146.146 133.034V142.631C146.146 151.424 151.228 158.553 157.496 158.553H192.587C198.855 158.553 203.936 151.424 203.936 142.631V133.034C203.936 124.241 198.855 117.112 192.587 117.112Z" fill="#9D6B5A"/>
<path d="M178.189 150.692C178.189 149.428 176.984 148.403 175.498 148.403C174.011 148.403 172.807 149.428 172.807 150.692V155.129C172.807 156.393 174.011 157.418 175.498 157.418C176.984 157.418 178.189 156.393 178.189 155.129V150.692Z" fill="#81584A"/>
<path d="M189.622 141.611H183.441C181.666 141.611 180.227 143.548 180.227 145.936C180.227 148.325 181.666 150.261 183.441 150.261H189.622C191.398 150.261 192.837 148.325 192.837 145.936C192.837 143.548 191.398 141.611 189.622 141.611Z" fill="#AC7967"/>
<path d="M167.806 141.611H161.625C159.849 141.611 158.41 143.548 158.41 145.936C158.41 148.325 159.849 150.261 161.625 150.261H167.806C169.581 150.261 171.02 148.325 171.02 145.936C171.02 143.548 169.581 141.611 167.806 141.611Z" fill="#AC7967"/>
<path d="M185.733 103.665C185.733 93.6557 180.833 85.542 174.788 85.542C168.744 85.542 163.844 93.6557 163.844 103.665V111.099C163.844 121.108 168.744 129.222 174.788 129.222C180.833 129.222 185.733 121.108 185.733 111.099V103.665Z" fill="#9D6B5A"/>
<path d="M157.44 150.891H155.002C154.029 150.891 153.24 151.87 153.24 153.078C153.24 154.286 154.029 155.265 155.002 155.265H157.44C158.413 155.265 159.202 154.286 159.202 153.078C159.202 151.87 158.413 150.891 157.44 150.891Z" fill="#81584A"/>
<path d="M197.308 150.891H194.869C193.896 150.891 193.107 151.87 193.107 153.078C193.107 154.286 193.896 155.265 194.869 155.265H197.308C198.28 155.265 199.069 154.286 199.069 153.078C199.069 151.87 198.28 150.891 197.308 150.891Z" fill="#81584A"/>
<path d="M177.31 85.542H171.44C164.701 85.542 159.238 90.3106 159.238 96.193V100.563C159.238 106.445 164.701 111.214 171.44 111.214H177.31C184.049 111.214 189.511 106.445 189.511 100.563V96.193C189.511 90.3106 184.049 85.542 177.31 85.542Z" fill="#81584A"/>
<path d="M143.179 120.581H141.441C136.801 120.581 133.039 124.552 133.039 129.449C133.039 134.347 136.801 138.318 141.441 138.318H143.179C147.82 138.318 151.581 134.347 151.581 129.449C151.581 124.552 147.82 120.581 143.179 120.581Z" fill="#9D6B5A"/>
<path d="M142.169 123.354H138.888C137.076 123.354 135.607 124.587 135.607 126.107C135.607 127.627 137.076 128.859 138.888 128.859H142.169C143.981 128.859 145.45 127.627 145.45 126.107C145.45 124.587 143.981 123.354 142.169 123.354Z" fill="#AC7967"/>
<path d="M205.444 120.984H207.129C211.626 120.984 215.271 124.955 215.271 129.853C215.271 134.751 211.626 138.721 207.129 138.721H205.444C200.947 138.721 197.301 134.751 197.301 129.853C197.301 124.955 200.947 120.984 205.444 120.984Z" fill="#9D6B5A"/>
<path d="M207.349 124.215H210.629C212.441 124.215 213.91 125.447 213.91 126.967C213.91 128.487 212.441 129.719 210.629 129.719H207.349C205.537 129.719 204.068 128.487 204.068 126.967C204.068 125.447 205.537 124.215 207.349 124.215Z" fill="#AC7967"/>
<path d="M189.998 74.1064H157.307C153.569 74.1064 150.539 78.1454 150.539 83.1277C150.539 88.11 153.569 92.149 157.307 92.149H189.998C193.736 92.149 196.766 88.11 196.766 83.1277C196.766 78.1454 193.736 74.1064 189.998 74.1064Z" fill="#9D6B5A"/>
<path d="M190.251 76.4014H156.835C153.943 76.4014 151.6 79.4135 151.6 83.1291C151.6 86.8447 153.943 89.8568 156.835 89.8568H190.251C193.142 89.8568 195.486 86.8447 195.486 83.1291C195.486 79.4135 193.142 76.4014 190.251 76.4014Z" fill="#81584A"/>
<path d="M177.927 48.751H168.01C159.792 48.751 153.131 57.2319 153.131 67.6936V90.1413C153.131 100.603 159.792 109.084 168.01 109.084H177.927C186.144 109.084 192.806 100.603 192.806 90.1413V67.6936C192.806 57.2319 186.144 48.751 177.927 48.751Z" fill="#9D6B5A"/>
<path d="M180.657 106.594H168.859C167.583 106.594 166.549 107.628 166.549 108.904C166.549 110.18 167.583 111.214 168.859 111.214H180.657C181.933 111.214 182.967 110.18 182.967 108.904C182.967 107.628 181.933 106.594 180.657 106.594Z" fill="#9D6B5A"/>
<path d="M170.807 169.361H165.982C163.68 169.361 161.814 171.037 161.814 173.104C161.814 175.171 163.68 176.846 165.982 176.846H170.807C173.108 176.846 174.974 175.171 174.974 173.104C174.974 171.037 173.108 169.361 170.807 169.361Z" fill="#9D6B5A"/>
<path d="M170.807 178.186H165.982C163.68 178.186 161.814 179.861 161.814 181.928C161.814 183.995 163.68 185.67 165.982 185.67H170.807C173.108 185.67 174.974 183.995 174.974 181.928C174.974 179.861 173.108 178.186 170.807 178.186Z" fill="#9D6B5A"/>
<path d="M170.807 187.01H165.982C163.68 187.01 161.814 188.685 161.814 190.752C161.814 192.819 163.68 194.494 165.982 194.494H170.807C173.108 194.494 174.974 192.819 174.974 190.752C174.974 188.685 173.108 187.01 170.807 187.01Z" fill="#9D6B5A"/>
<path d="M185.545 169.361H180.72C178.418 169.361 176.553 171.037 176.553 173.104C176.553 175.171 178.418 176.846 180.72 176.846H185.545C187.846 176.846 189.712 175.171 189.712 173.104C189.712 171.037 187.846 169.361 185.545 169.361Z" fill="#9D6B5A"/>
<path d="M185.545 178.186H180.72C178.418 178.186 176.553 179.861 176.553 181.928C176.553 183.995 178.418 185.67 180.72 185.67H185.545C187.846 185.67 189.712 183.995 189.712 181.928C189.712 179.861 187.846 178.186 185.545 178.186Z" fill="#9D6B5A"/>
<path d="M185.545 187.01H180.72C178.418 187.01 176.553 188.685 176.553 190.752C176.553 192.819 178.418 194.494 180.72 194.494H185.545C187.846 194.494 189.712 192.819 189.712 190.752C189.712 188.685 187.846 187.01 185.545 187.01Z" fill="#9D6B5A"/>
<path d="M168.972 124.743L160.71 120.771C159.79 120.329 158.687 120.716 158.245 121.636C157.803 122.555 158.19 123.659 159.109 124.101L167.372 128.072C168.291 128.514 169.395 128.127 169.837 127.208C170.279 126.288 169.892 125.185 168.972 124.743Z" fill="#81584A"/>
<path d="M178.813 124.743L187.075 120.771C187.995 120.329 189.099 120.716 189.541 121.635C189.982 122.555 189.595 123.659 188.676 124.101L180.414 128.072C179.494 128.514 178.391 128.127 177.949 127.208C177.507 126.288 177.894 125.185 178.813 124.743Z" fill="#81584A"/>
<path d="M158.182 199.656C157.091 199.656 156.039 199.9 155.043 200.348C156.209 218.147 164.998 231.898 175.741 231.898C186.623 231.898 195.501 217.79 196.482 199.656C196.481 199.656 196.48 199.656 196.479 199.656H158.182Z" fill="#4F4F4F"/>
<path d="M194.988 197.692H156.562C155.723 197.692 155.043 198.772 155.043 200.104V203.837C155.043 205.169 155.723 206.249 156.562 206.249H194.988C195.827 206.249 196.508 205.169 196.508 203.837V200.104C196.508 198.772 195.827 197.692 194.988 197.692Z" fill="#5B5B5B"/>
<path d="M175.168 104.484H172.406C172.185 104.484 172.006 104.717 172.006 105.004V105.311C172.006 105.598 172.185 105.831 172.406 105.831H175.168C175.388 105.831 175.568 105.598 175.568 105.311V105.004C175.568 104.717 175.388 104.484 175.168 104.484Z" fill="#81584A"/>
<path d="M177.261 81.7732C177.261 79.6284 175.924 77.8896 174.274 77.8896C172.624 77.8896 171.287 79.6284 171.287 81.7732V88.6266C171.287 90.7714 172.624 92.5101 174.274 92.5101C175.924 92.5101 177.261 90.7714 177.261 88.6266V81.7732Z" fill="#81584A"/>
<path d="M166.967 77.9558C166.967 76.6135 166.13 75.5254 165.098 75.5254C164.065 75.5254 163.229 76.6135 163.229 77.9558V78.928C163.229 80.2703 164.065 81.3585 165.098 81.3585C166.13 81.3585 166.967 80.2703 166.967 78.928V77.9558Z" fill="#61534B"/>
<path d="M185.1 77.9558C185.1 76.6135 184.263 75.5254 183.231 75.5254C182.198 75.5254 181.361 76.6135 181.361 77.9558V78.928C181.361 80.2703 182.198 81.3585 183.231 81.3585C184.263 81.3585 185.1 80.2703 185.1 78.928V77.9558Z" fill="#61534B"/>
<path d="M177.622 101.785C180.373 101.785 182.588 98.7093 182.588 94.8877V93.7715H165.863V94.8877C165.863 98.7093 168.078 101.785 170.83 101.785H177.622Z" fill="white"/>
<path d="M173.874 89.5767L171.097 86.5079C170.638 86.0009 169.949 86.0736 169.56 86.6703C169.17 87.2669 169.225 88.1617 169.684 88.6687L172.462 91.7375C172.921 92.2445 173.609 92.1718 173.999 91.5751C174.389 90.9784 174.333 90.0837 173.874 89.5767Z" fill="#81584A"/>
<path d="M174.672 89.5767L177.45 86.5079C177.909 86.0009 178.597 86.0736 178.987 86.6703C179.377 87.2669 179.321 88.1617 178.862 88.6687L176.085 91.7375C175.626 92.2445 174.937 92.1718 174.547 91.5751C174.158 90.9784 174.213 90.0837 174.672 89.5767Z" fill="#81584A"/>
<path d="M176.005 87.6046C176.005 86.5755 175.363 85.7412 174.572 85.7412C173.78 85.7412 173.139 86.5755 173.139 87.6046V89.3059C173.139 90.335 173.78 91.1692 174.572 91.1692C175.363 91.1692 176.005 90.335 176.005 89.3059V87.6046Z" fill="#906253"/>
<path d="M168.143 75.6655L162.192 73.5753C161.546 73.3487 160.958 73.6552 160.877 74.2599C160.795 74.8645 161.253 75.5384 161.898 75.765L167.849 77.8552C168.494 78.0818 169.083 77.7753 169.164 77.1706C169.245 76.566 168.788 75.8921 168.143 75.6655Z" fill="#4D4D4D"/>
<path d="M162.286 75.2439C162.338 74.7959 162.042 74.2974 161.624 74.1305C161.206 73.9635 160.825 74.1913 160.773 74.6392L160.557 76.497C160.505 76.945 160.802 77.4435 161.22 77.6104C161.637 77.7774 162.018 77.5496 162.07 77.1016L162.286 75.2439Z" fill="#4D4D4D"/>
<path d="M180.05 75.6621L186.002 73.5731C186.647 73.3467 187.236 73.6532 187.317 74.2579C187.398 74.8625 186.94 75.5363 186.295 75.7627L180.344 77.8517C179.699 78.0782 179.11 77.7716 179.029 77.167C178.948 76.5623 179.405 75.8886 180.05 75.6621Z" fill="#4D4D4D"/>
<path d="M185.909 75.242C185.857 74.794 186.154 74.2955 186.572 74.1285C186.989 73.9615 187.37 74.1893 187.422 74.6373L187.638 76.495C187.69 76.943 187.394 77.4415 186.976 77.6085C186.558 77.7755 186.177 77.5477 186.125 77.0997L185.909 75.242Z" fill="#4D4D4D"/>
<path d="M172.354 74.692C172.354 74.0908 171.979 73.6035 171.517 73.6035C171.055 73.6035 170.68 74.0908 170.68 74.692V76.0095C170.68 76.6107 171.055 77.098 171.517 77.098C171.979 77.098 172.354 76.6107 172.354 76.0095V74.692Z" fill="#81584A"/>
<path d="M177.909 74.692C177.909 74.0908 177.534 73.6035 177.072 73.6035C176.609 73.6035 176.234 74.0908 176.234 74.692V76.0095C176.234 76.6107 176.609 77.098 177.072 77.098C177.534 77.098 177.909 76.6107 177.909 76.0095V74.692Z" fill="#81584A"/>
<path d="M175.999 87.6026C175.999 86.5735 175.358 85.7393 174.566 85.7393C173.774 85.7393 173.133 86.5735 173.133 87.6026V89.3039C173.133 90.333 173.774 91.1673 174.566 91.1673C175.358 91.1673 175.999 90.333 175.999 89.3039V87.6026Z" fill="#906253"/>
<path d="M167.948 75.2073L161.992 74.1532C161.346 74.0389 160.839 74.3915 160.859 74.9406C160.879 75.4898 161.419 76.0276 162.065 76.1419L168.022 77.196C168.668 77.3103 169.175 76.9577 169.154 76.4086C169.134 75.8594 168.594 75.3216 167.948 75.2073Z" fill="#4D4D4D"/>
<path d="M162.138 75.7895C162.125 75.3335 161.806 74.8893 161.425 74.7973C161.045 74.7054 160.747 75.0005 160.76 75.4566L160.814 77.3477C160.827 77.8037 161.146 78.2479 161.527 78.3398C161.907 78.4318 162.205 78.1366 162.192 77.6806L162.138 75.7895Z" fill="#4D4D4D"/>
<path d="M180.39 74.8089L186.203 74.1237C186.833 74.0495 187.287 74.5241 187.218 75.1838C187.148 75.8435 186.581 76.4385 185.951 76.5128L180.138 77.1979C179.508 77.2722 179.053 76.7976 179.123 76.1379C179.192 75.4782 179.759 74.8831 180.39 74.8089Z" fill="#4D4D4D"/>
<path d="M186.141 75.9801C186.177 75.5079 186.468 75.0826 186.79 75.0303C187.113 74.978 187.346 75.3184 187.31 75.7906L187.16 77.7489C187.124 78.2212 186.833 78.6464 186.511 78.6987C186.188 78.751 185.955 78.4106 185.991 77.9384L186.141 75.9801Z" fill="#4D4D4D"/>
<path d="M195.204 71.1289C195.13 71.121 195.055 71.1209 194.98 71.1298C194.893 71.1399 194.806 71.1616 194.72 71.195L194.542 71.2636C193.967 71.4864 193.606 72.1708 193.619 72.9077C193.563 72.8046 193.496 72.7148 193.426 72.6316V74.9148C195.917 76.2462 197.662 79.4063 197.662 83.1116C197.662 86.8367 195.898 90.0097 193.386 91.3285C193.314 92.6589 193.131 93.9479 192.856 95.1855V96.4622C192.792 96.3307 192.716 96.2105 192.632 96.1008C191.379 100.8 188.717 104.635 185.288 106.777V109.641C185.288 110.793 186.007 111.72 186.901 111.72H187.645C188.539 111.72 189.258 110.793 189.258 109.641V109.082C189.5 109.834 190.074 110.361 190.747 110.361H191.492C192.385 110.361 193.105 109.433 193.105 108.281V107.622C193.389 108.209 193.891 108.601 194.469 108.601C195.363 108.601 196.082 107.674 196.082 106.521V94.8391L196.414 96.2623C196.621 97.1535 197.345 97.6561 198.037 97.3884C198.728 97.1207 199.117 96.1872 198.909 95.2959L197.14 87.7007C197.466 88.1732 197.983 88.3889 198.486 88.1943L198.664 88.1249C199.355 87.8572 199.744 86.9245 199.537 86.0332L196.342 72.3204C196.183 71.638 195.722 71.1842 195.204 71.1289V71.1289ZM153.269 71.2419C152.751 71.2971 152.29 71.7509 152.131 72.4333L148.937 86.1462C148.729 87.0374 149.118 87.9701 149.809 88.2378L149.988 88.3073C150.49 88.5018 151.008 88.2861 151.334 87.8136L149.564 95.4088C149.357 96.3001 149.746 97.2336 150.437 97.5013C151.128 97.769 151.852 97.2673 152.06 96.376L152.126 96.0891V106.521C152.126 107.674 152.845 108.601 153.739 108.601C154.317 108.601 154.82 108.209 155.104 107.622V108.281C155.104 109.433 155.823 110.361 156.717 110.361H157.461C158.134 110.361 158.707 109.835 158.95 109.084V109.641C158.95 110.793 159.669 111.72 160.563 111.72H161.307C162.201 111.72 162.92 110.793 162.92 109.641V106.701C159.523 104.529 156.893 100.686 155.667 95.9928C155.545 96.129 155.438 96.2852 155.352 96.4622V94.6174C155.144 93.5546 155.003 92.4564 154.942 91.3284C152.429 90.0097 150.666 86.8367 150.666 83.1116C150.666 79.4062 152.41 76.2461 154.902 74.9148V72.9461C154.886 72.9714 154.869 72.9941 154.854 73.0206C154.867 72.2841 154.507 71.5993 153.932 71.3766L153.754 71.308C153.667 71.2745 153.58 71.2529 153.494 71.2427C153.418 71.2338 153.343 71.234 153.269 71.2418V71.2419Z" fill="#4D4D4D"/>
<path d="M158.783 55.7646C155.995 59.107 154.25 63.9373 154.25 69.3269V91.0074C154.25 101.143 160.422 109.303 168.089 109.303H180.235C187.901 109.303 194.073 101.143 194.073 91.0074V69.3269C194.073 63.9373 192.328 59.107 189.541 55.7646C191.665 59.0244 192.949 63.2703 192.949 67.9297V90.005C192.949 100.325 186.664 108.633 178.858 108.633H169.466C161.66 108.633 155.375 100.325 155.375 90.005V67.9297C155.375 63.2703 156.659 59.0244 158.783 55.7646Z" fill="#565656"/>
<path d="M166.916 109.093C166.916 108.125 166.322 107.34 165.59 107.34C164.857 107.34 164.264 108.125 164.264 109.093V111.129C164.264 112.098 164.857 112.883 165.59 112.883C166.322 112.883 166.916 112.098 166.916 111.129V109.093Z" fill="#565656"/>
<path d="M169.401 110.691C169.401 109.723 168.807 108.938 168.074 108.938C167.342 108.938 166.748 109.723 166.748 110.691V112.727C166.748 113.695 167.342 114.48 168.074 114.48C168.807 114.48 169.401 113.695 169.401 112.727V110.691Z" fill="#565656"/>
<path d="M171.852 111.573C171.852 110.604 171.258 109.819 170.525 109.819C169.793 109.819 169.199 110.604 169.199 111.573V113.609C169.199 114.577 169.793 115.362 170.525 115.362C171.258 115.362 171.852 114.577 171.852 113.609V111.573Z" fill="#565656"/>
<path d="M174.27 111.772C174.27 110.804 173.676 110.019 172.943 110.019C172.211 110.019 171.617 110.804 171.617 111.772V113.808C171.617 114.776 172.211 115.562 172.943 115.562C173.676 115.562 174.27 114.776 174.27 113.808V111.772Z" fill="#565656"/>
<path d="M164.685 105.578C164.685 104.422 163.977 103.485 163.103 103.485C162.228 103.485 161.52 104.422 161.52 105.578V108.008C161.52 109.164 162.228 110.101 163.103 110.101C163.977 110.101 164.685 109.164 164.685 108.008V105.578Z" fill="#565656"/>
<path d="M161.949 103.431C161.949 102.275 161.24 101.338 160.366 101.338C159.492 101.338 158.783 102.275 158.783 103.431V105.861C158.783 107.017 159.492 107.954 160.366 107.954C161.24 107.954 161.949 107.017 161.949 105.861V103.431Z" fill="#565656"/>
<path d="M159.639 100.828C159.639 99.6723 158.93 98.7354 158.056 98.7354C157.181 98.7354 156.473 99.6723 156.473 100.828V103.258C156.473 104.414 157.181 105.351 158.056 105.351C158.93 105.351 159.639 104.414 159.639 103.258V100.828Z" fill="#565656"/>
<path d="M181.42 109.093C181.42 108.125 182.014 107.34 182.746 107.34C183.478 107.34 184.072 108.125 184.072 109.093V111.129C184.072 112.098 183.478 112.883 182.746 112.883C182.014 112.883 181.42 112.098 181.42 111.129V109.093Z" fill="#565656"/>
<path d="M178.935 110.691C178.935 109.723 179.529 108.938 180.262 108.938C180.994 108.938 181.588 109.723 181.588 110.691V112.727C181.588 113.695 180.994 114.48 180.262 114.48C179.529 114.48 178.935 113.695 178.935 112.727V110.691Z" fill="#565656"/>
<path d="M176.486 111.573C176.486 110.604 177.08 109.819 177.812 109.819C178.545 109.819 179.139 110.604 179.139 111.573V113.609C179.139 114.577 178.545 115.362 177.812 115.362C177.08 115.362 176.486 114.577 176.486 113.609V111.573Z" fill="#565656"/>
<path d="M174.066 111.772C174.066 110.804 174.66 110.019 175.392 110.019C176.125 110.019 176.719 110.804 176.719 111.772V113.808C176.719 114.776 176.125 115.562 175.392 115.562C174.66 115.562 174.066 114.776 174.066 113.808V111.772Z" fill="#565656"/>
<path d="M183.65 105.578C183.65 104.422 184.359 103.485 185.233 103.485C186.108 103.485 186.816 104.422 186.816 105.578V108.008C186.816 109.164 186.108 110.101 185.233 110.101C184.359 110.101 183.65 109.164 183.65 108.008V105.578Z" fill="#565656"/>
<path d="M186.387 103.432C186.387 102.276 187.096 101.339 187.97 101.339C188.844 101.339 189.553 102.276 189.553 103.432V105.862C189.553 107.018 188.844 107.955 187.97 107.955C187.096 107.955 186.387 107.018 186.387 105.862V103.432Z" fill="#565656"/>
<path d="M188.697 100.828C188.697 99.6723 189.406 98.7354 190.28 98.7354C191.155 98.7354 191.863 99.6723 191.863 100.828V103.258C191.863 104.414 191.155 105.351 190.28 105.351C189.406 105.351 188.697 104.414 188.697 103.258V100.828Z" fill="#565656"/>
<path d="M168.17 88.459C165.075 88.459 162.584 91.7527 162.584 95.8442V104.484C162.584 108.575 165.075 111.869 168.17 111.869H180.157C183.251 111.869 185.743 108.575 185.743 104.484V95.8442C185.743 91.7527 183.251 88.459 180.157 88.459H178.984C179.025 88.9091 178.9 89.3762 178.618 89.6931L178.144 90.2252C178.425 90.5737 178.634 91.0231 178.725 91.5379H180.351C182.081 91.5379 183.474 93.379 183.474 95.6668V99.3816C183.474 100.25 183.273 101.052 182.93 101.716V102.735C182.93 106.001 180.941 108.63 178.471 108.63H169.856C167.386 108.63 165.397 106.001 165.397 102.735V101.716C165.054 101.052 164.853 100.25 164.853 99.3816V95.6668C164.853 93.379 166.245 91.5379 167.976 91.5379H168.999C169.121 90.8451 169.451 90.2643 169.895 89.9031L169.709 89.6931C169.427 89.3762 169.302 88.9091 169.343 88.459H168.17Z" fill="#565656"/>
<path d="M165.546 48.2783C158.249 48.2783 152.375 55.8521 152.375 65.26C152.375 65.7019 152.392 66.1379 152.418 66.5711C152.393 66.7927 152.375 67.0179 152.375 67.2488V77.6518C152.375 79.8843 153.599 81.7339 155.233 82.1522V68.5766C155.233 58.8585 161.301 51.0343 168.837 51.0343H179.481C187.018 51.0343 193.086 58.8585 193.086 68.5766V82.1707C194.766 81.8003 196.038 79.9268 196.038 77.6518V67.2488C196.038 67.0178 196.021 66.7927 195.995 66.5711C196.021 66.1379 196.038 65.7019 196.038 65.26C196.038 55.8521 190.164 48.2783 182.868 48.2783H165.546Z" fill="#4D4D4D"/>
<path d="M180.491 46.1367H168.626C164.629 46.1367 161.389 50.315 161.389 55.4691C161.389 60.6232 164.629 64.8014 168.626 64.8014H180.491C184.488 64.8014 187.729 60.6232 187.729 55.4691C187.729 50.315 184.488 46.1367 180.491 46.1367Z" fill="#4D4D4D"/>
<path d="M165.425 52.0658C165.425 50.6083 164.509 49.4268 163.379 49.4268C162.248 49.4268 161.332 50.6083 161.332 52.0658V58.1854C161.332 59.6429 162.248 60.8245 163.379 60.8245C164.509 60.8245 165.425 59.6429 165.425 58.1854V52.0658Z" fill="#4D4D4D"/>
<path d="M188.679 52.2953C188.679 50.8378 187.763 49.6562 186.633 49.6562C185.502 49.6562 184.586 50.8378 184.586 52.2953V58.4149C184.586 59.8724 185.502 61.054 186.633 61.054C187.763 61.054 188.679 59.8724 188.679 58.4149V52.2953Z" fill="#4D4D4D"/>
<path d="M160.553 55.082C160.446 54.1202 159.755 53.4525 159.009 53.5906C158.263 53.7288 157.745 54.6205 157.852 55.5823L158.198 58.6867C158.305 59.6485 158.997 60.3162 159.743 60.1781C160.489 60.0399 161.006 59.1482 160.899 58.1864L160.553 55.082Z" fill="#4D4D4D"/>
<path d="M189.49 55.8388C189.597 54.877 190.288 54.2093 191.034 54.3475C191.78 54.4856 192.298 55.3774 192.191 56.3392L191.845 59.4436C191.738 60.4054 191.046 61.0731 190.3 60.9349C189.554 60.7967 189.037 59.905 189.144 58.9432L189.49 55.8388Z" fill="#4D4D4D"/>
<path d="M173.137 50.7715H174.415C175.168 50.7715 175.779 51.5592 175.779 52.5309V58.9564C175.779 59.9281 175.168 60.7158 174.415 60.7158H173.137C172.384 60.7158 171.773 59.9281 171.773 58.9564V52.5309C171.773 51.5592 172.384 50.7715 173.137 50.7715Z" fill="#565656"/>
<path d="M167.624 50.9619H169.311C169.901 50.9619 170.379 51.5784 170.379 52.3388V59.1469C170.379 59.9073 169.901 60.5238 169.311 60.5238H167.624C167.035 60.5238 166.557 59.9073 166.557 59.1469V52.3388C166.557 51.5784 167.035 50.9619 167.624 50.9619Z" fill="#565656"/>
<path d="M179.93 50.9619H178.244C177.654 50.9619 177.176 51.5784 177.176 52.3388V59.1469C177.176 59.9073 177.654 60.5238 178.244 60.5238H179.93C180.52 60.5238 180.998 59.9073 180.998 59.1469V52.3388C180.998 51.5784 180.52 50.9619 179.93 50.9619Z" fill="#565656"/>
</svg>
