<?xml version="1.0" encoding="UTF-8" standalone="no"?><!DOCTYPE svg PUBLIC "-//W3C//DTD SVG 1.1//EN" "http://www.w3.org/Graphics/SVG/1.1/DTD/svg11.dtd"><svg width="100%" height="100%" viewBox="0 0 571 571" version="1.1" xmlns="http://www.w3.org/2000/svg" xmlns:xlink="http://www.w3.org/1999/xlink" xml:space="preserve" xmlns:serif="http://www.serif.com/" style="fill-rule:evenodd;clip-rule:evenodd;stroke-linejoin:round;stroke-miterlimit:2;"><path d="M508.096,298.99c-0,28.924 -5.773,57.564 -16.991,84.286c-11.216,26.721 -27.657,51.002 -48.384,71.454c-20.725,20.451 -45.33,36.674 -72.41,47.743c-27.08,11.07 -56.104,16.765 -85.413,16.765c-29.312,0 -58.336,-5.695 -85.416,-16.765c-27.08,-11.069 -51.685,-27.292 -72.411,-47.743c-20.726,-20.452 -37.167,-44.733 -48.383,-71.454c-11.217,-26.722 -16.99,-55.362 -16.99,-84.286c-0,-58.414 23.515,-114.435 65.373,-155.74c41.858,-41.305 98.63,-64.51 157.827,-64.51c29.309,0 58.333,5.697 85.413,16.766c27.08,11.069 51.685,27.292 72.41,47.744c20.727,20.452 37.168,44.732 48.384,71.454c11.218,26.722 16.991,55.362 16.991,84.286Z" style="fill:#99d5da;fill-rule:nonzero;"/><path d="M334.115,89.611c-6.932,-0 -12.514,5.582 -12.514,12.515l0,15.296c0,3.215 1.209,6.13 3.189,8.342l-126.947,0c-6.933,0 -12.514,5.583 -12.514,12.516c-0,6.933 5.581,12.514 12.514,12.514l147.397,-0c6.933,-0 12.515,-5.581 12.515,-12.514c0,-3.216 -1.211,-6.131 -3.191,-8.343l73.326,0c-21.886,-17.988 -47.061,-31.677 -74.163,-40.326l-19.612,-0Zm31.287,66.746c-8.858,-0 -15.992,7.132 -15.992,15.991l0,2.78c0,8.859 7.134,15.992 15.992,15.992l25.409,0c-2.403,2.796 -3.855,6.436 -3.855,10.429l0,5.563c0,8.859 7.132,15.99 15.992,15.99l91.3,0c-4.884,-13.057 -11.009,-25.628 -18.298,-37.545l-41.4,0c2.402,-2.796 3.856,-6.436 3.856,-10.429l0,-2.78c0,-8.859 -7.132,-15.991 -15.992,-15.991l-57.012,-0Zm-285.477,55.621c-6.237,14.304 -10.919,29.22 -13.968,44.498l119.375,-0c2.875,4.202 7.707,6.952 13.206,6.952l166.864,-0c8.86,-0 15.992,-7.132 15.992,-15.991c-0,-8.859 -7.132,-15.992 -15.992,-15.992l-74.57,-0c-1.361,-11.003 -10.689,-19.467 -22.073,-19.467l-188.834,0Zm392.549,45.888c-6.548,-0 -11.819,5.271 -11.819,11.819l-0,13.209l-150.873,0c-6.548,0 -11.82,5.272 -11.82,11.82c0,6.547 5.272,11.821 11.82,11.821l197.932,-0c0.172,-2.513 0.299,-5.029 0.382,-7.547c-0.052,-13.803 -1.421,-27.572 -4.086,-41.122l-31.536,-0Z" style="fill:#b3e0e4;fill-rule:nonzero;"/><path d="M375.135,353.812c-14.681,0 -28.108,4.144 -38.562,11.056c-5.314,-4.306 -12.089,-6.883 -19.491,-6.883l-125.15,-0c-11.653,-0 -21.755,6.382 -27.033,15.851l-47.013,-0c-33.51,-0 -60.488,21.581 -60.488,48.389c0,6.541 1.61,12.768 4.524,18.449c-13.924,3.422 -23.991,13.759 -23.991,26.048c0,15.099 15.194,27.256 34.068,27.256l11.125,0c17.224,0 31.377,-10.124 33.72,-23.37c0.347,0.005 0.693,0.009 1.042,0.009l189.113,0c8.596,0 16.76,-1.425 24.15,-3.987c11.012,9.315 26.622,15.112 43.986,15.112l82.041,0c6.153,0 12.086,-0.73 17.671,-2.086c4.439,10.919 17.222,18.772 32.389,18.772c18.872,0 34.068,-12.157 34.068,-27.256l-0,-20.023c-0,-12.186 -9.899,-22.449 -23.639,-25.958l0,-22.989c0,-26.809 -26.978,-48.39 -60.489,-48.39l-82.041,0Z" style="fill:#bda559;fill-opacity:0.99;fill-rule:nonzero;"/><path d="M71.672,459.39l445.415,-0c17.704,-0 31.956,14.252 31.956,31.954c0,17.704 -14.252,31.957 -31.956,31.957l-445.415,-0c-17.703,-0 -31.956,-14.253 -31.956,-31.957c0,-17.702 14.253,-31.954 31.956,-31.954Z" style="fill:#b6951a;fill-rule:nonzero;"/><path d="M122.225,326.468c7.808,-0 14.094,8.379 14.094,18.789l0,104.772c0,10.41 -6.286,18.791 -14.094,18.791c-7.808,0 -14.095,-8.381 -14.095,-18.791l0,-104.772c0,-10.41 6.287,-18.789 14.095,-18.789Z" style="fill:#694621;fill-opacity:0.99;fill-rule:nonzero;"/><path d="M188.728,89.97c-3.337,0.045 -6.099,2.609 -6.391,5.934l-1.78,17.393l-15.45,-16.946c-1.317,-1.485 -3.24,-2.288 -5.223,-2.179c-5.519,0.301 -8.171,6.912 -4.39,10.944l21.553,23.641c0.512,0.557 1.117,1.02 1.788,1.37l-2.758,26.959c-0.086,0.826 -0.013,1.661 0.215,2.459l-7.134,2.725c-1.676,0.64 -3.012,1.943 -3.695,3.601l-22.24,54.007l-9.855,-27.291l-4.121,-74.134c-0.14,-3.411 -2.893,-6.133 -6.305,-6.235c-3.847,-0.114 -6.951,3.118 -6.681,6.957l1.891,34.041l-27.478,-22.092c-1.181,-0.977 -2.669,-1.506 -4.201,-1.493c-6.158,0.052 -8.802,7.838 -3.949,11.629l35.459,28.509c0.349,0.29 0.728,0.543 1.13,0.755l1.319,23.739c0.036,0.63 0.162,1.251 0.377,1.844l27.115,75.089c0.126,0.365 0.286,0.706 0.467,1.032l-12.346,3.989c-2.515,0.812 -4.288,3.066 -4.486,5.702l-6.346,21.093l-11.97,-48.47c-0.09,-1.086 -0.451,-2.133 -1.051,-3.043l-24.048,-36.41l-18.556,-41.241c-1.067,-2.46 -3.534,-4.013 -6.213,-3.911c-4.651,0.174 -7.619,5.034 -5.65,9.251l18.773,41.714c0.143,0.319 0.311,0.627 0.503,0.919l23.423,35.464l8.041,86.734c0.261,3.612 2.193,0.663 5.802,0.361c0.5,-0.043 1.285,-0.112 2.204,-0.201c-0.179,3.953 -0.345,7.859 -0.412,10.449c-0.094,3.632 -0.129,6.844 -0.071,9.48c0.058,2.634 -0.035,4.227 0.686,6.749c2.38,8.339 19.267,-17.479 19.267,-17.479l-0.192,-3.459l0.071,-8.861l6.505,-24.484l10.264,-22.732l51.367,-25.896c1.301,-0.421 2.437,-1.24 3.246,-2.343l30.885,-42.12l61.312,-10.38c0.881,-0.148 1.724,-0.476 2.474,-0.965l13.415,-8.773l30.655,3.26c1.395,0.149 2.802,-0.158 4.009,-0.874l44.497,-26.421c5.721,-3.284 3.482,-12.015 -3.114,-12.143c-1.242,-0.023 -2.466,0.31 -3.524,0.96l-42.639,25.313l-14.975,-1.593c0.698,-2.308 0.025,-4.898 -1.666,-6.595l-1.041,-19.233l15.247,-31.16c2.142,-4.224 -0.806,-9.248 -5.538,-9.44c-2.608,-0.105 -5.028,1.362 -6.142,3.724l-15.996,32.679c-0.486,0.996 -0.71,2.1 -0.65,3.207l1.221,22.55l-19.74,12.908l-28.508,4.825l9.161,-13.167c0.391,-0.561 0.69,-1.18 0.889,-1.834l10.813,-35.891c1.344,-4.251 -1.89,-8.564 -6.348,-8.464c-2.848,0.063 -5.321,1.972 -6.106,4.709l-10.518,34.9l-15.139,21.766c-0.236,0.32 -0.43,0.656 -0.598,1l-16.221,2.745c-1.668,0.282 -3.161,1.201 -4.161,2.565l-31.201,42.552l-37.431,12.093c-0.06,-0.511 -0.176,-1.022 -0.365,-1.525l-10.369,-28.716c0.06,-0.125 0.116,-0.252 0.167,-0.381l26.461,-64.267l51.458,-19.643c1.073,-0.412 2.018,-1.1 2.739,-1.996l24.58,-30.481c3.588,-4.323 0.376,-10.855 -5.239,-10.653c-1.914,0.07 -3.702,0.981 -4.882,2.489l-23.478,29.112l-32.181,12.29l5.862,-57.31c0.454,-3.899 -2.624,-7.309 -6.549,-7.255Z" style="fill:url(#_Linear1);fill-rule:nonzero;"/><path d="M104.675,351.726c-10.014,-0 -18.076,8.061 -18.076,18.076l-0,6.608c-2.444,-1.047 -5.138,-1.632 -7.975,-1.632c-11.167,0 -20.157,8.991 -20.157,20.157l-0,82.594c-0,11.166 8.99,20.157 20.157,20.157c10.096,-0 18.41,-7.348 19.913,-17.008c1.915,0.686 3.981,1.062 6.138,1.062c10.015,0 18.077,-8.061 18.077,-18.076l0,-8.142c2.888,5.275 8.487,8.836 14.949,8.836c9.437,0 17.033,-7.596 17.033,-17.032l0,-24.856c0.562,0.114 1.143,0.174 1.738,0.174c4.815,-0 8.691,-3.876 8.691,-8.69l0,-23.641c0,-4.814 -3.876,-8.69 -8.691,-8.69c-4.814,0 -8.69,3.876 -8.69,8.69l-0,6.417c-2.82,-2.067 -6.302,-3.287 -10.081,-3.287c-6.462,-0 -12.061,3.563 -14.949,8.838l0,-32.479c0,-10.015 -8.062,-18.076 -18.077,-18.076Zm77.522,0.696c-8.282,-0 -14.947,6.665 -14.947,14.947l-0,86.909c-0,8.282 6.665,14.949 14.947,14.949c8.281,-0 14.948,-6.667 14.948,-14.949l0,-86.909c0,-8.282 -6.667,-14.947 -14.948,-14.947Zm239.868,13.904c-4.816,-0 -8.692,3.877 -8.692,8.691l0,70.918c0,4.815 3.876,8.692 8.692,8.692l7.647,0c4.815,0 8.69,-3.877 8.69,-8.692l0,-3.624c1.547,2.39 4.229,3.971 7.3,3.971l9.039,0c4.815,0 8.692,-3.875 8.692,-8.691l0,-44.496c0,-4.814 -3.877,-8.691 -8.692,-8.691l-9.039,-0c-3.071,-0 -5.753,1.581 -7.3,3.973l0,-13.36c0,-4.814 -3.875,-8.691 -8.69,-8.691l-7.647,-0Zm-195.718,3.476c-8.089,-0 -14.601,6.513 -14.601,14.602l-0,7.716c-7.431,0.696 -13.211,6.914 -13.211,14.532l0,41.023c0,7.756 5.993,14.061 13.619,14.563c1.54,6.416 7.29,11.159 14.193,11.159c8.088,0 14.601,-6.511 14.601,-14.599l0,-74.394c0,-8.089 -6.513,-14.602 -14.601,-14.602Zm103.942,6.953c-4.816,-0 -8.69,3.877 -8.69,8.692l0,68.831c0,4.815 3.874,8.69 8.69,8.69l18.772,0c1.963,0 3.764,-0.651 5.216,-1.739l-0,4.173c-0,4.814 3.875,8.692 8.69,8.692l13.905,-0c3.029,-0 5.684,-1.535 7.238,-3.872c1.462,1.116 3.286,1.785 5.276,1.785l14.601,0c4.815,0 8.69,-3.875 8.69,-8.69l0,-69.527c0,-4.815 -3.875,-8.69 -8.69,-8.69l-14.601,-0c-4.815,-0 -8.69,3.875 -8.69,8.69l-0,0.541c-1.155,-0.563 -2.449,-0.888 -3.824,-0.888l-13.905,-0c-1.963,-0 -3.764,0.651 -5.214,1.741l0,-9.737c0,-4.815 -3.877,-8.692 -8.692,-8.692l-18.772,-0Zm-60.489,6.258c-4.814,0 -8.69,3.876 -8.69,8.69l0,63.965c0,4.815 3.876,8.69 8.69,8.69l30.592,0c4.814,0 8.692,-3.875 8.692,-8.69l-0,-63.965c-0,-4.814 -3.878,-8.69 -8.692,-8.69l-30.592,0Zm206.495,10.43c-4.814,-0 -8.691,3.875 -8.691,8.69l-0,77.174c-0,4.815 3.877,8.692 8.691,8.692l9.734,0c4.814,0 8.691,-3.877 8.691,-8.692l0,-77.174c0,-4.815 -3.877,-8.69 -8.691,-8.69l-9.734,-0Zm30.592,51.449c-4.815,0 -8.69,3.876 -8.69,8.69l-0,33.374c-0,4.814 3.875,8.69 8.69,8.69l5.561,-0c4.814,-0 8.691,-3.876 8.691,-8.69l0,-33.374c0,-4.814 -3.877,-8.69 -8.691,-8.69l-5.561,0Z" style="fill:#b6951a;fill-rule:nonzero;"/><path d="M189.773,417.081l85.661,0c7.857,0 14.182,6.326 14.182,14.181l-0,56.461c-0,7.857 -6.325,14.182 -14.182,14.182l-85.661,-0c-7.857,-0 -14.181,-6.325 -14.181,-14.182l-0,-56.461c-0,-7.855 6.324,-14.181 14.181,-14.181Z" style="fill:#8c7b21;fill-rule:nonzero;"/><path d="M286.415,410.128l26.565,0c7.856,0 14.182,6.327 14.182,14.182l-0,84.272c-0,7.855 -6.326,14.181 -14.182,14.181l-26.565,-0c-7.855,-0 -14.179,-6.326 -14.179,-14.181l-0,-84.272c-0,-7.855 6.324,-14.182 14.179,-14.182Z" style="fill:#8c7b21;fill-rule:nonzero;"/><path d="M364.355,432.377l9.039,-0c24.844,-0 44.844,20.002 44.844,44.846c0,24.844 -20,44.844 -44.844,44.844l-9.039,-0c-24.844,-0 -44.844,-20 -44.844,-44.844c-0,-24.844 20,-44.846 44.844,-44.846Z" style="fill:#8c7b21;fill-rule:nonzero;"/><path d="M250.334,402.482c7.126,-0 12.863,5.736 12.863,12.862l-0,15.99c-0,7.126 -5.737,12.862 -12.863,12.862c-7.124,0 -12.862,-5.736 -12.862,-12.862l-0,-15.99c-0,-7.126 5.738,-12.862 12.862,-12.862Z" style="fill:#8c7b21;fill-rule:nonzero;"/><path d="M333.764,420.558l13.209,-0c7.126,-0 12.863,5.738 12.863,12.862l-0,29.201c-0,7.127 -5.737,12.863 -12.863,12.863l-13.209,-0c-7.127,-0 -12.863,-5.736 -12.863,-12.863l0,-29.201c0,-7.124 5.736,-12.862 12.863,-12.862Z" style="fill:#8c7b21;fill-rule:nonzero;"/><path d="M380.696,421.948c3.852,-0 6.953,3.102 6.953,6.953l-0,24.334c-0,3.853 -3.101,6.953 -6.953,6.953c-3.853,-0 -6.953,-3.1 -6.953,-6.953l0,-24.334c0,-3.851 3.1,-6.953 6.953,-6.953Z" style="fill:#8c7b21;fill-rule:nonzero;"/><path d="M110.161,422.424c14.926,-0 26.942,12.016 26.942,26.943l0,40.952c0,14.925 -12.016,26.941 -26.942,26.941c-14.925,0 -26.942,-12.016 -26.942,-26.941l0,-40.952c0,-14.927 12.017,-26.943 26.942,-26.943Z" style="fill:#8c7b21;fill-rule:nonzero;"/><path d="M171.19,390.573l2.747,0c21.965,0 39.647,17.683 39.647,39.648l0,40.44c0,21.964 -17.682,39.646 -39.647,39.646l-2.747,0c-21.965,0 -39.647,-17.682 -39.647,-39.646l-0,-40.44c-0,-21.965 17.682,-39.648 39.647,-39.648Z" style="fill:#8c7b21;fill-rule:nonzero;"/><path d="M423.822,402.709l22.944,0c19.258,0 34.762,12.552 34.762,28.143l0,61.911c0,15.591 -15.504,28.143 -34.762,28.143l-22.944,0c-19.258,0 -34.764,-12.552 -34.764,-28.143l-0,-61.911c-0,-15.591 15.506,-28.143 34.764,-28.143Z" style="fill:#8c7b21;fill-rule:nonzero;"/><path d="M110.139,486.148l349.517,0c16.765,0 30.26,13.495 30.26,30.26c-0,16.763 -13.495,30.258 -30.26,30.258l-349.517,-0c-16.764,-0 -30.26,-13.495 -30.26,-30.258c0,-16.765 13.496,-30.26 30.26,-30.26Z" style="fill:#b78260;fill-rule:nonzero;"/><path d="M102.838,486.148l364.118,0c12.719,0 22.96,10.24 22.96,22.958c-0,12.72 -10.241,22.96 -22.96,22.96l-364.118,0c-12.719,0 -22.959,-10.24 -22.959,-22.96c0,-12.718 10.24,-22.958 22.959,-22.958Z" style="fill:#bca068;fill-rule:nonzero;"/><path d="M179.805,457.793c3.517,0 6.348,3.558 6.348,7.977l0,25.393c0,4.419 -2.831,7.977 -6.348,7.977c-3.517,-0 -6.348,-3.558 -6.348,-7.977l-0,-25.393c-0,-4.419 2.831,-7.977 6.348,-7.977Z" style="fill:#898d44;fill-rule:nonzero;"/><path d="M158.216,472.921c2.322,-2.396 6.121,-2.456 8.517,-0.135l17.537,16.989c2.397,2.321 2.457,6.12 0.135,8.516c-2.321,2.397 -6.12,2.459 -8.516,0.137l-17.537,-16.99c-2.397,-2.322 -2.457,-6.12 -0.136,-8.517Z" style="fill:#898d44;fill-rule:nonzero;"/><path d="M201.26,472.239c2.396,2.321 2.457,6.12 0.135,8.516l-16.989,17.536c-2.322,2.397 -6.12,2.459 -8.517,0.137c-2.396,-2.323 -2.457,-6.122 -0.135,-8.516l16.989,-17.538c2.322,-2.397 6.12,-2.457 8.517,-0.135Z" style="fill:#898d44;fill-rule:nonzero;"/><path d="M352.707,454.28c3.756,0 6.78,3.799 6.78,8.517l-0,27.115c-0,4.718 -3.024,8.516 -6.78,8.516c-3.756,0 -6.779,-3.798 -6.779,-8.516l0,-27.115c0,-4.718 3.023,-8.517 6.779,-8.517Z" style="fill:#bca068;fill-rule:nonzero;"/><path d="M329.655,470.434c2.479,-2.559 6.536,-2.624 9.095,-0.145l18.726,18.142c2.558,2.478 2.624,6.534 0.144,9.093c-2.479,2.559 -6.534,2.624 -9.095,0.145l-18.726,-18.142c-2.558,-2.478 -2.622,-6.534 -0.144,-9.093Z" style="fill:#bca068;fill-rule:nonzero;"/><path d="M375.617,469.703c2.561,2.48 2.624,6.537 0.145,9.095l-18.14,18.726c-2.479,2.559 -6.536,2.624 -9.095,0.145c-2.558,-2.48 -2.624,-6.535 -0.144,-9.095l18.141,-18.726c2.48,-2.559 6.535,-2.622 9.093,-0.145Z" style="fill:#bca068;fill-rule:nonzero;"/><path d="M126.07,450.76c3.517,-0 6.349,3.557 6.349,7.974l-0,25.395c-0,4.418 -2.832,7.975 -6.349,7.975c-3.517,0 -6.348,-3.557 -6.348,-7.975l-0,-25.395c-0,-4.417 2.831,-7.974 6.348,-7.974Z" style="fill:#bca068;fill-rule:nonzero;"/><path d="M104.478,465.887c2.322,-2.396 6.12,-2.456 8.517,-0.134l17.537,16.988c2.396,2.322 2.456,6.12 0.135,8.517c-2.322,2.396 -6.12,2.456 -8.517,0.135l-17.537,-16.989c-2.396,-2.321 -2.457,-6.12 -0.135,-8.517Z" style="fill:#bca068;fill-rule:nonzero;"/><path d="M147.521,465.205c2.397,2.321 2.457,6.12 0.135,8.516l-16.989,17.537c-2.321,2.396 -6.12,2.456 -8.516,0.135c-2.397,-2.322 -2.457,-6.12 -0.135,-8.517l16.989,-17.536c2.321,-2.397 6.12,-2.457 8.516,-0.135Z" style="fill:#bca068;fill-rule:nonzero;"/><path d="M435.446,452.194c3.756,0 6.78,3.798 6.78,8.517l-0,27.115c-0,4.718 -3.024,8.516 -6.78,8.516c-3.756,0 -6.779,-3.798 -6.779,-8.516l0,-27.115c0,-4.719 3.023,-8.517 6.779,-8.517Z" style="fill:#bca068;fill-rule:nonzero;"/><path d="M412.39,468.348c2.48,-2.559 6.536,-2.624 9.095,-0.145l18.726,18.142c2.558,2.479 2.624,6.534 0.144,9.093c-2.479,2.56 -6.534,2.624 -9.093,0.144l-18.727,-18.139c-2.559,-2.48 -2.623,-6.537 -0.145,-9.095Z" style="fill:#bca068;fill-rule:nonzero;"/><path d="M458.354,467.619c2.559,2.478 2.623,6.534 0.143,9.093l-18.14,18.726c-2.479,2.56 -6.536,2.624 -9.095,0.144c-2.558,-2.477 -2.622,-6.534 -0.144,-9.093l18.141,-18.725c2.48,-2.561 6.535,-2.625 9.095,-0.145Z" style="fill:#bca068;fill-rule:nonzero;"/><path d="M180.827,496.703l214.75,-0c6.872,-0 12.405,5.531 12.405,12.405c0,6.872 -5.533,12.406 -12.405,12.406l-214.75,-0c-6.872,-0 -12.405,-5.534 -12.405,-12.406c-0,-6.874 5.533,-12.405 12.405,-12.405Z" style="fill:#b6985b;fill-rule:nonzero;"/><path d="M197.012,502.109l182.38,0c3.878,0 6.997,3.122 6.997,6.999c0,3.876 -3.119,6.997 -6.997,6.997l-182.38,0c-3.876,0 -6.997,-3.121 -6.997,-6.997c0,-3.877 3.121,-6.999 6.997,-6.999Z" style="fill:#a98a4b;fill-rule:nonzero;"/><path d="M107.958,508.994c2.321,-2.396 6.12,-2.456 8.516,-0.135l17.537,16.989c2.397,2.321 2.457,6.12 0.136,8.516c-2.322,2.397 -6.121,2.457 -8.517,0.135l-17.537,-16.988c-2.397,-2.322 -2.457,-6.12 -0.135,-8.517l-0,0Z" style="fill:#d5b982;fill-rule:nonzero;"/><path d="M151.001,508.31c2.396,2.321 2.457,6.12 0.135,8.516l-16.989,17.538c-2.322,2.397 -6.12,2.457 -8.517,0.135c-2.396,-2.321 -2.457,-6.119 -0.135,-8.516l16.989,-17.536c2.322,-2.397 6.12,-2.459 8.517,-0.137Z" style="fill:#d5b982;fill-rule:nonzero;"/><path d="M129.55,493.866c3.517,0 6.348,3.558 6.348,7.975l0,25.393c0,4.419 -2.831,7.977 -6.348,7.977c-3.517,-0 -6.349,-3.558 -6.349,-7.977l0,-25.393c0,-4.417 2.832,-7.975 6.349,-7.975Z" style="fill:#d5b982;fill-rule:nonzero;"/><path d="M445.845,489.846c3.754,0 6.779,3.799 6.779,8.517l0,27.115c0,4.718 -3.025,8.516 -6.779,8.516c-3.756,0 -6.779,-3.798 -6.779,-8.516l-0,-27.115c-0,-4.718 3.023,-8.517 6.779,-8.517Z" style="fill:#d5b982;fill-rule:nonzero;"/><path d="M422.788,506c2.48,-2.559 6.535,-2.624 9.095,-0.145l18.726,18.142c2.559,2.479 2.622,6.534 0.145,9.093c-2.48,2.559 -6.537,2.624 -9.095,0.145l-18.726,-18.142c-2.559,-2.478 -2.624,-6.534 -0.145,-9.093Z" style="fill:#d5b982;fill-rule:nonzero;"/><path d="M468.751,505.271c2.558,2.478 2.624,6.534 0.144,9.093l-18.141,18.726c-2.478,2.56 -6.535,2.624 -9.093,0.145c-2.559,-2.48 -2.624,-6.535 -0.145,-9.093l18.142,-18.728c2.477,-2.559 6.534,-2.622 9.093,-0.143Z" style="fill:#d5b982;fill-rule:nonzero;"/><path d="M156.993,409.434c4.333,0 7.821,3.488 7.821,7.821l0,10.429c0,4.334 -3.488,7.822 -7.821,7.822c-4.334,0 -7.822,-3.488 -7.822,-7.822l-0,-10.429c-0,-4.333 3.488,-7.821 7.822,-7.821Z" style="fill:#9c8725;fill-rule:nonzero;"/><path d="M177.678,429.597c3.659,-0 6.605,2.946 6.605,6.605l-0,3.824c-0,3.659 -2.946,6.605 -6.605,6.605c-3.659,0 -6.605,-2.946 -6.605,-6.605l-0,-3.824c-0,-3.659 2.946,-6.605 6.605,-6.605Z" style="fill:#9c8725;fill-rule:nonzero;"/><path d="M206.878,417.081l1.391,0c3.659,0 6.605,2.946 6.605,6.606l0,19.468c0,3.658 -2.946,6.604 -6.605,6.604l-1.391,-0c-3.659,-0 -6.605,-2.946 -6.605,-6.604l0,-19.468c0,-3.66 2.946,-6.606 6.605,-6.606Z" style="fill:#9c8725;fill-rule:nonzero;"/><path d="M102.936,425.424c2.889,0 5.215,2.327 5.215,5.216l-0,3.823c-0,2.888 -2.326,5.216 -5.215,5.216c-2.889,-0 -5.214,-2.328 -5.214,-5.216l-0,-3.823c-0,-2.889 2.325,-5.216 5.214,-5.216Z" style="fill:#9c8725;fill-rule:nonzero;"/><path d="M294.658,412.911c4.332,-0 7.82,3.488 7.82,7.82l0,10.429c0,4.335 -3.488,7.823 -7.82,7.823c-4.335,-0 -7.823,-3.488 -7.823,-7.823l0,-10.429c0,-4.332 3.488,-7.82 7.823,-7.82Z" style="fill:#9c8725;fill-rule:nonzero;"/><path d="M315.342,433.073c3.66,-0 6.604,2.946 6.604,6.606l0,3.823c0,3.66 -2.944,6.606 -6.604,6.606c-3.659,-0 -6.605,-2.946 -6.605,-6.606l-0,-3.823c-0,-3.66 2.946,-6.606 6.605,-6.606Z" style="fill:#9c8725;fill-rule:nonzero;"/><path d="M344.542,420.558l1.392,-0c3.657,-0 6.604,2.946 6.604,6.605l-0,19.468c-0,3.658 -2.947,6.604 -6.604,6.604l-1.392,0c-3.658,0 -6.604,-2.946 -6.604,-6.604l-0,-19.468c-0,-3.659 2.946,-6.605 6.604,-6.605Z" style="fill:#9c8725;fill-rule:nonzero;"/><path d="M240.601,428.901c2.888,-0 5.214,2.327 5.214,5.215l-0,3.824c-0,2.888 -2.326,5.215 -5.214,5.215c-2.89,0 -5.215,-2.327 -5.215,-5.215l-0,-3.824c-0,-2.888 2.325,-5.215 5.215,-5.215Z" style="fill:#9c8725;fill-rule:nonzero;"/><path d="M419.11,413.605c4.334,-0 7.822,3.49 7.822,7.822l-0,10.429c-0,4.333 -3.488,7.823 -7.822,7.823c-4.333,-0 -7.821,-3.49 -7.821,-7.823l0,-10.429c0,-4.332 3.488,-7.822 7.821,-7.822Z" style="fill:#9c8725;fill-rule:nonzero;"/><path d="M439.796,433.769c3.66,-0 6.604,2.944 6.604,6.604l0,3.825c0,3.658 -2.944,6.604 -6.604,6.604c-3.659,-0 -6.605,-2.946 -6.605,-6.604l-0,-3.825c-0,-3.66 2.946,-6.604 6.605,-6.604Z" style="fill:#9c8725;fill-rule:nonzero;"/><path d="M468.996,421.254l1.39,-0c3.659,-0 6.605,2.946 6.605,6.605l0,19.467c0,3.659 -2.946,6.605 -6.605,6.605l-1.39,0c-3.66,0 -6.604,-2.946 -6.604,-6.605l-0,-19.467c-0,-3.659 2.944,-6.605 6.604,-6.605Z" style="fill:#9c8725;fill-rule:nonzero;"/><path d="M365.055,429.597c2.888,-0 5.214,2.325 5.214,5.213l-0,3.826c-0,2.888 -2.326,5.213 -5.214,5.213c-2.89,0 -5.216,-2.325 -5.216,-5.213l0,-3.826c0,-2.888 2.326,-5.213 5.216,-5.213Z" style="fill:#9c8725;fill-rule:nonzero;"/><path d="M177.511,103.467c-7.301,-0 -13.371,5.066 -14.913,11.887c-0.47,-0.042 -0.945,-0.067 -1.426,-0.067l-53.535,-0c-8.667,-0 -15.644,6.977 -15.644,15.643c0,8.667 6.977,15.644 15.644,15.644l53.535,-0c7.607,-0 13.912,-5.376 15.34,-12.552c0.33,0.021 0.662,0.037 0.999,0.037l96.643,-0c8.472,-0 15.294,-6.822 15.294,-15.296c-0,-8.474 -6.822,-15.296 -15.294,-15.296l-96.643,-0Zm164.96,39.805c-7.284,0 -13.372,4.928 -15.13,11.645l-74.045,-0c-4.238,-0 -7.649,3.41 -7.649,7.647l-0,11.821c-0,4.237 3.411,7.648 7.649,7.648l78.175,-0c2.823,2.786 6.702,4.503 11,4.503l48.849,-0c8.667,-0 15.642,-6.977 15.642,-15.644l0,-11.976c0,-8.666 -6.975,-15.644 -15.642,-15.644l-48.849,0Zm-267.86,16.511c-8.473,0 -15.295,6.823 -15.295,15.297c0,5.187 2.559,9.75 6.485,12.514l-31.516,-0c-4.237,-0 -7.647,3.412 -7.647,7.649c-0,4.237 3.41,7.647 7.647,7.647l64.661,0c4.237,0 7.648,-3.41 7.648,-7.647c-0,-1.853 -0.653,-3.547 -1.741,-4.868l1.741,0c8.473,0 15.295,-6.821 15.295,-15.295c-0,-8.474 -6.822,-15.297 -15.295,-15.297l-31.983,0Z" style="fill:#796a1c;fill-rule:nonzero;"/><path d="M193.323,66.667c-9.472,-0 -17.16,7.354 -17.697,16.686l-25.756,0c-6.331,0 -11.934,2.996 -15.485,7.648l-21.713,0c-9.437,0 -17.034,7.598 -17.034,17.035l0,2.433l-33.025,0c-9.437,0 -17.034,7.597 -17.034,17.034c0,9.437 7.597,17.035 17.034,17.035l-3.476,-0c-9.437,-0 -17.034,7.596 -17.034,17.033l0,6.605l-5.214,-0c-8.667,-0 -15.644,6.977 -15.644,15.643c-0,8.667 6.977,15.644 15.644,15.644l40.324,-0c7.838,-0 14.294,-5.707 15.457,-13.209l2.621,-0c9.437,-0 17.034,-7.598 17.034,-17.035l-0,-7.648c-0,-9.437 -7.597,-17.033 -17.034,-17.033l20.162,-0c7.87,-0 14.457,-5.287 16.429,-12.516l6.516,0c6.821,0 12.678,-3.97 15.403,-9.734l46.823,0c1.327,0 2.621,-0.132 3.873,-0.383c2.792,3.62 7.173,5.946 12.118,5.946l50.06,-0c8.474,-0 15.294,-6.822 15.294,-15.295c-0,-5.684 -3.07,-10.62 -7.647,-13.258l-0,-10.382c-0,-8.474 -6.822,-15.297 -15.296,-15.297l-13.905,0c-6.751,0 -12.448,4.332 -14.488,10.377c-1.121,-0.408 -2.324,-0.643 -3.588,-0.643l-5.563,0c-0.972,0 -1.907,0.143 -2.798,0.389c-0.343,-9.516 -8.11,-17.075 -17.712,-17.075l-7.649,-0Zm135.717,44.158c-5.584,0 -10.079,4.495 -10.079,10.079l0,0.492c0,0.761 0.091,1.499 0.249,2.211l-6.885,-0c-5.584,-0 -10.078,4.496 -10.078,10.079l-0,5.653l-7.246,0c0.075,-0.398 0.117,-0.808 0.117,-1.228c0,-3.677 -2.959,-6.637 -6.636,-6.637l-4.18,-0c-3.677,-0 -6.637,2.96 -6.637,6.637c0,0.42 0.043,0.83 0.118,1.228l-9.46,0c-5.583,0 -10.078,4.495 -10.078,10.078l0,11.309c0,5.583 4.495,10.078 10.078,10.078l40.807,-0c5.584,-0 10.078,-4.495 10.078,-10.078l0,-6.147l31.218,0l0,7.062c0,3.25 1.101,6.227 2.937,8.605c0.921,6.896 6.795,12.183 13.95,12.183l43.803,0c7.799,0 14.079,-6.279 14.079,-14.079c-0,-7.799 -6.28,-14.08 -14.079,-14.08l-10.385,0c-1.73,-3.047 -4.996,-5.097 -8.763,-5.097l-0.737,-0l-0,-0.179c-0,-5.564 -3.203,-10.341 -7.867,-12.63l0,-2.678c0,-5.583 -4.494,-10.079 -10.078,-10.079l-14.906,-0c-0.814,-4.756 -4.925,-8.358 -9.92,-8.358l-9.101,0c-1.809,-2.672 -4.869,-4.424 -8.353,-4.424l-1.966,0Z" style="fill:#8c7b21;fill-rule:nonzero;"/><path d="M52.878,166.091l13.905,-0c4.237,-0 7.648,3.411 7.648,7.648l-0,6.257c-0,4.237 -3.411,7.648 -7.648,7.648l-13.905,-0c-4.237,-0 -7.648,-3.411 -7.648,-7.648l-0,-6.257c-0,-4.237 3.411,-7.648 7.648,-7.648Z" style="fill:#a79327;fill-rule:nonzero;"/><path d="M66.437,145.233l14.601,-0c3.467,-0 6.258,2.79 6.258,6.257c-0,3.467 -2.791,6.257 -6.258,6.257l-14.601,0c-3.466,0 -6.257,-2.79 -6.257,-6.257c0,-3.467 2.791,-6.257 6.257,-6.257Z" style="fill:#a79327;fill-rule:nonzero;"/><path d="M86.076,127.156l23.987,-0c4.719,-0 8.517,3.798 8.517,8.517c0,4.718 -3.798,8.517 -8.517,8.517l-23.987,-0c-4.718,-0 -8.516,-3.799 -8.516,-8.517c-0,-4.719 3.798,-8.517 8.516,-8.517Z" style="fill:#a79327;fill-rule:nonzero;"/><path d="M99.809,122.289l1.738,-0c3.274,-0 5.91,2.635 5.91,5.909c0,3.274 -2.636,5.91 -5.91,5.91l-1.738,0c-3.274,0 -5.91,-2.636 -5.91,-5.91c0,-3.274 2.636,-5.909 5.91,-5.909Z" style="fill:#a79327;fill-rule:nonzero;"/><path d="M130.053,97.259l14.253,0c3.274,0 5.909,2.636 5.909,5.91l0,3.476c0,3.274 -2.635,5.91 -5.909,5.91l-14.253,-0c-3.274,-0 -5.91,-2.636 -5.91,-5.91l-0,-3.476c-0,-3.274 2.636,-5.91 5.91,-5.91Z" style="fill:#a79327;fill-rule:nonzero;"/><path d="M162.733,98.997l4.171,0c3.274,0 5.91,2.636 5.91,5.91c0,3.274 -2.636,5.91 -5.91,5.91l-4.171,-0c-3.274,-0 -5.91,-2.636 -5.91,-5.91c-0,-3.274 2.636,-5.91 5.91,-5.91Z" style="fill:#a79327;fill-rule:nonzero;"/><path d="M204.97,77.444l1.043,0c9.339,0 16.859,7.52 16.859,16.86c0,9.341 -7.52,16.861 -16.859,16.861l-1.043,-0c-9.341,-0 -16.86,-7.52 -16.86,-16.861c-0,-9.34 7.519,-16.86 16.86,-16.86Z" style="fill:#a79327;fill-rule:nonzero;"/><path d="M227.563,96.564l4.173,-0c4.911,-0 8.865,3.953 8.865,8.864c0,4.911 -3.954,8.865 -8.865,8.865l-4.173,-0c-4.911,-0 -8.863,-3.954 -8.863,-8.865c-0,-4.911 3.952,-8.864 8.863,-8.864Z" style="fill:#a79327;fill-rule:nonzero;"/><path d="M255.899,104.56l5.562,-0c3.658,-0 6.604,2.945 6.604,6.605c0,3.659 -2.946,6.605 -6.604,6.605l-5.562,-0c-3.66,-0 -6.606,-2.946 -6.606,-6.605c-0,-3.66 2.946,-6.605 6.606,-6.605Z" style="fill:#a79327;fill-rule:nonzero;"/><path d="M317.699,128.77l6.947,-0c3.659,-0 6.605,2.946 6.605,6.605l0,3.997c0,3.659 -2.946,6.605 -6.605,6.605l-6.947,-0c-3.658,-0 -6.604,-2.946 -6.604,-6.605l-0,-3.997c-0,-3.659 2.946,-6.605 6.604,-6.605Z" style="fill:#a79327;fill-rule:nonzero;"/><path d="M275.914,146.714l18.254,-0c3.659,-0 6.606,2.946 6.606,6.605l-0,3.751c-0,3.659 -2.947,6.605 -6.606,6.605l-18.254,0c-3.659,0 -6.605,-2.946 -6.605,-6.605l-0,-3.751c-0,-3.659 2.946,-6.605 6.605,-6.605Z" style="fill:#a79327;fill-rule:nonzero;"/><path d="M293.119,139.585l5.472,0c3.66,0 6.606,2.946 6.606,6.605l-0,3.506c-0,3.659 -2.946,6.605 -6.606,6.605l-5.472,-0c-3.658,-0 -6.604,-2.946 -6.604,-6.605l0,-3.506c0,-3.659 2.946,-6.605 6.604,-6.605Z" style="fill:#a79327;fill-rule:nonzero;"/><path d="M365.142,144.501l7.683,0c3.66,0 6.606,2.946 6.606,6.606l-0,0.801c-0,3.659 -2.946,6.605 -6.606,6.605l-7.683,-0c-3.66,-0 -6.606,-2.946 -6.606,-6.605l-0,-0.801c-0,-3.66 2.946,-6.606 6.606,-6.606Z" style="fill:#a79327;fill-rule:nonzero;"/><path d="M344.37,144.748l9.527,-0c3.659,-0 6.606,2.946 6.606,6.605l-0,5.472c-0,3.659 -2.947,6.605 -6.606,6.605l-9.527,-0c-3.659,-0 -6.606,-2.946 -6.606,-6.605l0,-5.472c0,-3.659 2.947,-6.605 6.606,-6.605Z" style="fill:#a79327;fill-rule:nonzero;"/><path d="M397.989,159.25l4.178,0c3.336,0 6.022,2.686 6.022,6.023c-0,3.336 -2.686,6.022 -6.022,6.022l-4.178,0c-3.338,0 -6.023,-2.686 -6.023,-6.022c-0,-3.337 2.685,-6.023 6.023,-6.023Z" style="fill:#a79327;fill-rule:nonzero;"/><path d="M387.051,162.2l1.475,-0c1.907,-0 3.442,1.535 3.442,3.441c-0,1.907 -1.535,3.442 -3.442,3.442l-1.475,-0c-1.907,-0 -3.442,-1.535 -3.442,-3.442c0,-1.906 1.535,-3.441 3.442,-3.441Z" style="fill:#a79327;fill-rule:nonzero;"/><path d="M373.531,169.083l38.101,0c1.907,0 3.442,1.535 3.442,3.441l0,1.721c0,1.907 -1.535,3.442 -3.442,3.442l-38.101,-0c-1.905,-0 -3.44,-1.535 -3.44,-3.442l0,-1.721c0,-1.906 1.535,-3.441 3.44,-3.441Z" style="fill:#a79327;fill-rule:nonzero;"/><path d="M355.588,133.44l2.95,-0c1.905,-0 3.44,1.535 3.44,3.441c-0,1.907 -1.535,3.442 -3.44,3.442l-2.95,-0c-1.907,-0 -3.442,-1.535 -3.442,-3.442c0,-1.906 1.535,-3.441 3.442,-3.441Z" style="fill:#a79327;fill-rule:nonzero;"/><path d="M357.063,149.172l19.912,0c1.906,0 3.441,1.535 3.441,3.441l0,2.95c0,1.907 -1.535,3.442 -3.441,3.442l-19.912,-0c-1.905,-0 -3.442,-1.535 -3.442,-3.442l0,-2.95c0,-1.906 1.537,-3.441 3.442,-3.441Z" style="fill:#a79327;fill-rule:nonzero;"/><path d="M311.831,141.061l20.404,-0c1.907,-0 3.441,1.534 3.441,3.441l0,2.95c0,1.906 -1.534,3.441 -3.441,3.441l-20.404,-0c-1.905,-0 -3.439,-1.535 -3.439,-3.441l-0,-2.95c-0,-1.907 1.534,-3.441 3.439,-3.441Z" style="fill:#a79327;fill-rule:nonzero;"/><path d="M184.946,94.478l35.876,-0c1.905,-0 3.44,1.535 3.44,3.441l0,11.194c0,1.907 -1.535,3.442 -3.44,3.442l-35.876,-0c-1.907,-0 -3.442,-1.535 -3.442,-3.442l0,-11.194c0,-1.906 1.535,-3.441 3.442,-3.441Z" style="fill:#a79327;fill-rule:nonzero;"/><path d="M68.476,163.429l8.357,0c1.907,0 3.442,1.535 3.442,3.441l-0,6.146c-0,1.906 -1.535,3.441 -3.442,3.441l-8.357,0c-1.907,0 -3.442,-1.535 -3.442,-3.441l0,-6.146c0,-1.906 1.535,-3.441 3.442,-3.441Z" style="fill:#a79327;fill-rule:nonzero;"/><path d="M70.445,174.491l16.716,-0c1.906,-0 3.441,1.535 3.441,3.441l-0,0.738c-0,1.906 -1.535,3.441 -3.441,3.441l-16.716,0c-1.906,0 -3.441,-1.535 -3.441,-3.441l-0,-0.738c-0,-1.906 1.535,-3.441 3.441,-3.441Z" style="fill:#a79327;fill-rule:nonzero;"/><path d="M290.663,363.198l8.692,0c1.54,0 2.78,1.242 2.78,2.782c-0,1.541 -1.24,2.781 -2.78,2.781l-8.692,-0c-1.541,-0 -2.781,-1.24 -2.781,-2.781c0,-1.54 1.24,-2.782 2.781,-2.782Z" style="fill:#cfae35;fill-rule:nonzero;"/><path d="M266.675,372.584l8.69,0c1.54,0 2.782,1.24 2.782,2.782c0,1.541 -1.242,2.781 -2.782,2.781l-8.69,-0c-1.541,-0 -2.782,-1.24 -2.782,-2.781c-0,-1.542 1.241,-2.782 2.782,-2.782Z" style="fill:#cfae35;fill-rule:nonzero;"/><path d="M394.393,362.215l8.69,-0c1.541,-0 2.782,1.242 2.782,2.782c0,1.541 -1.241,2.78 -2.782,2.78l-8.69,0c-1.54,0 -2.78,-1.239 -2.78,-2.78c-0,-1.54 1.24,-2.782 2.78,-2.782Z" style="fill:#cfae35;fill-rule:nonzero;"/><path d="M370.409,371.601l8.69,-0c1.541,-0 2.781,1.242 2.781,2.782c-0,1.541 -1.24,2.78 -2.781,2.78l-8.69,0c-1.542,0 -2.782,-1.239 -2.782,-2.78c0,-1.54 1.24,-2.782 2.782,-2.782Z" style="fill:#cfae35;fill-rule:nonzero;"/><path d="M470.106,363.198l8.69,0c1.541,0 2.781,1.242 2.781,2.782c-0,1.541 -1.24,2.781 -2.781,2.781l-8.69,-0c-1.542,-0 -2.782,-1.24 -2.782,-2.781c-0,-1.54 1.24,-2.782 2.782,-2.782Z" style="fill:#cfae35;fill-rule:nonzero;"/><path d="M446.117,372.584l8.692,0c1.54,0 2.78,1.24 2.78,2.782c-0,1.541 -1.24,2.781 -2.78,2.781l-8.692,-0c-1.541,-0 -2.781,-1.24 -2.781,-2.781c0,-1.542 1.24,-2.782 2.781,-2.782Z" style="fill:#cfae35;fill-rule:nonzero;"/><path d="M350.835,214.373l-5.418,2.768c-5.782,2.955 -8.059,9.988 -5.104,15.771l29.404,57.54c2.954,5.783 9.988,8.06 15.77,5.104l5.418,-2.767c5.783,-2.956 8.058,-9.989 5.104,-15.772l-29.404,-57.541c-2.954,-5.782 -9.987,-8.058 -15.77,-5.103Z" style="fill:#68371e;fill-rule:nonzero;"/><path d="M370.471,246.99c-4.045,1.664 -5.964,6.261 -4.3,10.306l2.185,5.311c1.666,4.045 6.26,5.963 10.308,4.297c4.045,-1.664 5.961,-6.26 4.297,-10.305l-2.184,-5.31c-1.664,-4.046 -6.261,-5.963 -10.306,-4.299Z" style="fill:#773f23;fill-rule:nonzero;"/><path d="M280.777,434.61l0.897,-0.13c10.714,-1.529 20.573,5.866 22.102,16.578l3.125,21.89c1.531,10.715 -5.863,20.571 -16.578,22.102l-0.896,0.127c-10.715,1.531 -20.571,-5.863 -22.102,-16.577l-3.126,-21.89c-1.529,-10.713 5.866,-20.571 16.578,-22.1Z" style="fill:#68371e;fill-rule:nonzero;"/><path d="M265.653,339.442l3.457,-0c8.216,-0 16.052,8.381 17.569,18.791l24.017,164.688c1.519,10.412 -3.872,18.793 -12.088,18.793l-3.459,0c-8.213,0 -16.051,-8.381 -17.569,-18.793l-24.016,-164.688c-1.52,-10.41 3.873,-18.791 12.089,-18.791Z" style="fill:#773f23;fill-rule:nonzero;"/><path d="M250.822,339.442l33.117,-0l10.886,74.653l-33.117,-0l-10.886,-74.653Z" style="fill:#62341c;fill-rule:nonzero;"/><path d="M277.79,507.407l16.428,0c9.504,0 17.154,7.649 17.154,17.153c0,9.504 -7.65,17.154 -17.154,17.154l-16.428,0c-9.503,0 -17.154,-7.65 -17.154,-17.154c0,-9.504 7.651,-17.153 17.154,-17.153Z" style="fill:#854727;fill-rule:nonzero;"/><path d="M266.316,522.923l39.376,-0c3.147,-0 5.68,2.534 5.68,5.682l0,7.429c0,3.147 -2.533,5.68 -5.68,5.68l-39.376,0c-3.146,0 -5.68,-2.533 -5.68,-5.68l0,-7.429c0,-3.148 2.534,-5.682 5.68,-5.682Z" style="fill:#854727;fill-rule:nonzero;"/><path d="M238.118,217.898l5.464,2.633c5.831,2.81 8.273,9.788 5.476,15.645l-27.84,58.287c-2.798,5.857 -9.745,8.31 -15.577,5.501l-5.464,-2.634c-5.831,-2.809 -8.274,-9.787 -5.476,-15.645l27.839,-58.287c2.798,-5.857 9.745,-8.31 15.578,-5.5Z" style="fill:#68371e;fill-rule:nonzero;"/><path d="M226.47,248.981c3.833,2.079 5.246,6.841 3.17,10.678l-2.725,5.036c-2.076,3.837 -6.835,5.25 -10.668,3.171c-3.834,-2.078 -5.248,-6.84 -3.172,-10.676l2.727,-5.036c2.076,-3.837 6.833,-5.252 10.668,-3.173Z" style="fill:#773f23;fill-rule:nonzero;"/><path d="M200.525,280c6.933,-4.537 16.166,-2.609 20.702,4.323l30.268,46.244c4.537,6.933 2.609,16.165 -4.323,20.704c-6.933,4.537 -16.165,2.609 -20.704,-4.325l-30.266,-46.244c-4.537,-6.931 -2.609,-16.165 4.323,-20.702Z" style="fill:#773f23;fill-rule:nonzero;"/><path d="M235.195,305.661c-9.132,2.842 -15.728,11.338 -15.728,21.431l0,9.157l7.001,10.697c4.539,6.932 13.773,8.862 20.704,4.323c6.932,-4.537 8.862,-13.771 4.323,-20.702l-16.3,-24.906Z" style="fill:#68371e;fill-rule:nonzero;"/><path d="M246.891,312.56l5.56,0c2.312,0 4.173,1.861 4.173,4.173l-0,6.605c-0,2.31 -1.861,4.171 -4.173,4.171l-5.56,-0c-2.312,-0 -4.173,-1.861 -4.173,-4.171l0,-6.605c0,-2.312 1.861,-4.173 4.173,-4.173Z" style="fill:#773f23;fill-rule:nonzero;"/><path d="M296.418,244.857c21.047,-0 37.992,25.076 37.992,56.223l-0,40.622c-0,31.148 -16.945,56.225 -37.992,56.225c-21.049,0 -37.993,-25.077 -37.993,-56.225l-0,-40.622c-0,-31.147 16.944,-56.223 37.993,-56.223Z" style="fill:#62341c;fill-rule:nonzero;"/><path d="M296.275,188.171c25.586,-0 46.184,16.42 46.184,36.818c0,20.397 -20.598,36.817 -46.184,36.817c-25.586,0 -46.184,-16.42 -46.184,-36.817c0,-20.398 20.598,-36.818 46.184,-36.818Z" style="fill:#68371e;fill-rule:nonzero;"/><path d="M247.182,201.289l99.575,-0c10.811,-0 19.516,9.778 19.516,21.924c0,12.146 -8.705,21.924 -19.516,21.924l-99.575,-0c-10.811,-0 -19.517,-9.778 -19.517,-21.924c0,-12.146 8.706,-21.924 19.517,-21.924Z" style="fill:#68371e;fill-rule:nonzero;"/><path d="M296.418,200.377c25.434,0 45.908,26.225 45.908,58.799c0,32.574 -20.474,58.798 -45.908,58.798c-25.434,0 -45.908,-26.224 -45.908,-58.798c-0,-32.574 20.474,-58.799 45.908,-58.799Z" style="fill:#62341c;fill-rule:nonzero;"/><path d="M270.442,198.389l51.672,-0c13.371,-0 24.138,14.328 24.138,32.126l-0,19.362c-0,17.799 -10.767,32.126 -24.138,32.126l-51.672,0c-13.373,0 -24.14,-14.327 -24.14,-32.126l0,-19.362c0,-17.798 10.767,-32.126 24.14,-32.126Z" style="fill:#68371e;fill-rule:nonzero;"/><path d="M350.725,205.158c-7.959,2.097 -12.679,10.192 -10.583,18.152l3.455,13.118c2.096,7.959 10.19,12.68 18.151,10.584c7.959,-2.096 12.679,-10.192 10.584,-18.152l-3.456,-13.118c-2.095,-7.959 -10.192,-12.68 -18.151,-10.584Z" style="fill:#773f23;fill-rule:nonzero;"/><path d="M293.188,280.214l6.458,0c15.446,0 27.882,14.877 27.882,33.356l0,24.1c0,18.481 -12.436,33.358 -27.882,33.358l-6.458,0c-15.448,0 -27.882,-14.877 -27.882,-33.358l-0,-24.1c-0,-18.479 12.434,-33.356 27.882,-33.356Z" style="fill:#68371e;fill-rule:nonzero;"/><path d="M240.775,204.371c7.681,2.956 11.485,11.521 8.53,19.202l-4.875,12.661c-2.956,7.681 -11.52,11.485 -19.202,8.528c-7.681,-2.956 -11.486,-11.521 -8.528,-19.202l4.873,-12.661c2.955,-7.681 11.52,-11.485 19.202,-8.528Z" style="fill:#773f23;fill-rule:nonzero;"/><path d="M266.378,202.768l59.793,0c10.714,0 19.341,12.274 19.341,27.52l-0,16.587c-0,15.246 -8.627,27.52 -19.341,27.52l-59.793,0c-10.715,0 -19.341,-12.274 -19.341,-27.52l0,-16.587c0,-15.246 8.626,-27.52 19.341,-27.52Z" style="fill:#783f23;fill-opacity:0.99;fill-rule:nonzero;"/><path d="M291.918,266.363c2.175,-0 3.925,2.431 3.925,5.452l0,10.58c0,3.021 -1.75,5.453 -3.925,5.453c-2.175,-0 -3.928,-2.432 -3.928,-5.453l0,-10.58c0,-3.021 1.753,-5.452 3.928,-5.452Z" style="fill:#68371e;fill-rule:nonzero;"/><path d="M296.414,146.022c9.916,-0 17.899,15.6 17.899,34.978l-0,14.351c-0,19.378 -7.983,34.978 -17.899,34.978c-9.914,0 -17.899,-15.6 -17.899,-34.978l0,-14.351c0,-19.378 7.985,-34.978 17.899,-34.978Z" style="fill:#773f23;fill-rule:nonzero;"/><path d="M263.79,263.42l3.745,0c1.496,0 2.703,1.254 2.703,2.811c0,1.556 -1.207,2.81 -2.703,2.81l-3.745,-0c-1.496,-0 -2.703,-1.254 -2.703,-2.81c0,-1.557 1.207,-2.811 2.703,-2.811Z" style="fill:#62341c;fill-rule:nonzero;"/><path d="M324.975,263.42l3.743,0c1.498,0 2.703,1.254 2.703,2.811c-0,1.556 -1.205,2.81 -2.703,2.81l-3.743,-0c-1.498,-0 -2.703,-1.254 -2.703,-2.81c0,-1.557 1.205,-2.811 2.703,-2.811Z" style="fill:#62341c;fill-rule:nonzero;"/><path d="M287.643,148.996l7.231,0c8.325,0 15.027,8.598 15.027,19.279l0,7.91c0,10.68 -6.702,19.279 -15.027,19.279l-7.231,-0c-8.325,-0 -15.028,-8.599 -15.028,-19.279l0,-7.91c0,-10.681 6.703,-19.279 15.028,-19.279Z" style="fill:#68371e;fill-rule:nonzero;"/><path d="M236.323,202.363l2.666,-0c7.14,-0 12.888,6.25 12.888,14.013c-0,7.763 -5.748,14.012 -12.888,14.012l-2.666,0c-7.142,0 -12.89,-6.249 -12.89,-14.012c0,-7.763 5.748,-14.013 12.89,-14.013Z" style="fill:#773f23;fill-rule:nonzero;"/><path d="M351.342,203.73l2.667,-0c7.14,-0 12.887,6.25 12.887,14.013c0,7.763 -5.747,14.012 -12.887,14.012l-2.667,0c-7.14,0 -12.889,-6.249 -12.889,-14.012c-0,-7.763 5.749,-14.013 12.889,-14.013Z" style="fill:#773f23;fill-rule:nonzero;"/><path d="M234.807,207.071l3.999,-0c2.217,-0 4.001,1.939 4.001,4.348c-0,2.41 -1.784,4.349 -4.001,4.349l-3.999,0c-2.217,0 -4.001,-1.939 -4.001,-4.349c0,-2.409 1.784,-4.348 4.001,-4.348Z" style="fill:#854727;fill-rule:nonzero;"/><path d="M354.849,207.412l4.001,0c2.216,0 4.001,1.94 4.001,4.349c0,2.409 -1.785,4.349 -4.001,4.349l-4.001,-0c-2.215,-0 -3.998,-1.94 -3.998,-4.349c-0,-2.409 1.783,-4.349 3.998,-4.349Z" style="fill:#854727;fill-rule:nonzero;"/><path d="M404.577,265.559c6.136,5.229 6.866,14.377 1.637,20.513l-10.344,12.135c-5.229,6.136 -14.378,6.866 -20.513,1.637c-6.135,-5.229 -6.866,-14.378 -1.637,-20.513l10.344,-12.137c5.229,-6.136 14.378,-6.864 20.513,-1.635Z" style="fill:#773f23;fill-rule:nonzero;"/><path d="M411.906,252.975c6.211,3.292 8.561,10.943 5.268,17.153l-6.513,12.286c-3.294,6.211 -10.944,8.561 -17.155,5.268c-6.21,-3.292 -8.559,-10.942 -5.267,-17.155l6.513,-12.284c3.293,-6.211 10.944,-8.561 17.154,-5.268Z" style="fill:#68371e;fill-rule:nonzero;"/><path d="M404.207,239.475l9.591,0c6.426,0 11.599,5.174 11.599,11.6l0,20.274c0,6.426 -5.173,11.601 -11.599,11.601l-9.591,0c-6.426,0 -11.601,-5.175 -11.601,-11.601l-0,-20.274c-0,-6.426 5.175,-11.6 11.601,-11.6Z" style="fill:#773f23;fill-rule:nonzero;"/><path d="M393.257,246.643l0.425,-0c2.649,-0 4.781,2.133 4.781,4.782l0,7.686c0,2.649 -2.132,4.782 -4.781,4.782l-0.425,-0c-2.649,-0 -4.781,-2.133 -4.781,-4.782l-0,-7.686c-0,-2.649 2.132,-4.782 4.781,-4.782Z" style="fill:#854727;fill-rule:nonzero;"/><path d="M417.829,243.398l0.326,-0c2.034,-0 3.673,1.637 3.673,3.672l0,6.66c0,2.034 -1.639,3.672 -3.673,3.672l-0.326,0c-2.034,0 -3.671,-1.638 -3.671,-3.672l0,-6.66c0,-2.035 1.637,-3.672 3.671,-3.672Z" style="fill:#854727;fill-rule:nonzero;"/><path d="M294.505,513.414l3.758,-0c3.029,-0 5.466,2.439 5.466,5.466c0,3.029 -2.437,5.468 -5.466,5.468l-3.758,-0c-3.029,-0 -5.468,-2.439 -5.468,-5.468c0,-3.027 2.439,-5.466 5.468,-5.466Z" style="fill:#97512c;fill-rule:nonzero;"/><path d="M328.885,127.037l-2.761,25.441c-1.839,16.963 -25.096,36.6 -36.042,36.6l-13.173,0c-10.947,0 -23.37,-19.486 -24.34,-36.6l-1.439,-25.441c-0.51,-27.307 18.233,-38.031 39.172,-36.566c20.939,1.465 41.321,15.119 38.583,36.566Z" style="fill:#68371e;fill-rule:nonzero;"/><path d="M281.751,291.906l7.635,0c3.654,0 6.594,3.264 6.594,7.321c0,4.055 -2.94,7.321 -6.594,7.321l-7.635,0c-3.654,0 -6.594,-3.266 -6.594,-7.321c-0,-4.057 2.94,-7.321 6.594,-7.321Z" style="fill:#773f23;fill-rule:nonzero;"/><path d="M281.751,309.169l7.635,-0c3.654,-0 6.594,3.264 6.594,7.321c0,4.054 -2.94,7.321 -6.594,7.321l-7.635,-0c-3.654,-0 -6.594,-3.267 -6.594,-7.321c-0,-4.057 2.94,-7.321 6.594,-7.321Z" style="fill:#773f23;fill-rule:nonzero;"/><path d="M281.751,326.429l7.635,0c3.654,0 6.594,3.266 6.594,7.321c0,4.057 -2.94,7.321 -6.594,7.321l-7.635,0c-3.654,0 -6.594,-3.264 -6.594,-7.321c-0,-4.055 2.94,-7.321 6.594,-7.321Z" style="fill:#773f23;fill-rule:nonzero;"/><path d="M305.073,291.906l7.636,0c3.651,0 6.594,3.264 6.594,7.321c-0,4.055 -2.943,7.321 -6.594,7.321l-7.636,0c-3.653,0 -6.594,-3.266 -6.594,-7.321c0,-4.057 2.941,-7.321 6.594,-7.321Z" style="fill:#773f23;fill-rule:nonzero;"/><path d="M305.073,309.169l7.636,-0c3.651,-0 6.594,3.264 6.594,7.321c-0,4.054 -2.943,7.321 -6.594,7.321l-7.636,-0c-3.653,-0 -6.594,-3.267 -6.594,-7.321c0,-4.057 2.941,-7.321 6.594,-7.321Z" style="fill:#773f23;fill-rule:nonzero;"/><path d="M305.073,326.429l7.636,0c3.651,0 6.594,3.266 6.594,7.321c-0,4.057 -2.943,7.321 -6.594,7.321l-7.636,0c-3.653,0 -6.594,-3.264 -6.594,-7.321c0,-4.055 2.941,-7.321 6.594,-7.321Z" style="fill:#773f23;fill-rule:nonzero;"/><path d="M277.669,212.26l9.132,4.748c1.018,0.531 1.444,1.845 0.954,2.947c-0.49,1.103 -1.704,1.564 -2.724,1.034l-9.13,-4.748c-1.018,-0.53 -1.444,-1.845 -0.954,-2.947c0.489,-1.103 1.704,-1.564 2.722,-1.034Z" style="fill:#68371e;fill-rule:nonzero;"/><path d="M305.947,212.26l-9.13,4.748c-1.02,0.531 -1.446,1.845 -0.956,2.947c0.49,1.103 1.706,1.564 2.724,1.034l9.13,-4.748c1.02,-0.53 1.446,-1.845 0.956,-2.947c-0.49,-1.103 -1.704,-1.564 -2.724,-1.034Z" style="fill:#68371e;fill-rule:nonzero;"/><path d="M306.475,352.194l0.669,-0.8c5.374,-6.426 14.875,-7.273 21.302,-1.899l58.397,48.845c6.426,5.374 7.272,14.875 1.899,21.302l-0.669,0.798c-5.376,6.426 -14.876,7.273 -21.302,1.899l-58.399,-48.845c-6.426,-5.373 -7.273,-14.875 -1.897,-21.3Z" style="fill:#62341c;fill-rule:nonzero;"/><path d="M258.725,347.719c-2.338,0 -4.596,0.386 -6.731,1.094c2.499,28.125 21.346,49.851 44.383,49.851c23.333,-0 42.371,-22.291 44.474,-50.945l-82.126,0Z" style="fill:#4f4f4f;fill-rule:nonzero;"/><path d="M254.098,344.615l83.992,0c1.842,0 3.322,1.701 3.322,3.81l0,5.9c0,2.111 -1.48,3.81 -3.322,3.81l-83.992,-0c-1.84,-0 -3.32,-1.699 -3.32,-3.81l-0,-5.9c-0,-2.109 1.48,-3.81 3.32,-3.81Z" style="fill:#5b5b5b;fill-rule:nonzero;"/><path d="M276.62,431.714l4.977,-0c3.628,-0 6.972,2.89 7.494,6.48l0.696,4.766c0.523,3.592 -1.976,6.483 -5.605,6.483l-4.976,-0c-3.629,-0 -6.972,-2.891 -7.497,-6.483l-0.694,-4.766c-0.524,-3.59 1.976,-6.48 5.605,-6.48Z" style="fill:#854727;fill-rule:nonzero;"/><path d="M244.166,319.125l4.317,0c7.855,0 14.18,6.325 14.18,14.182l-0,18.496c-0,7.855 -6.325,14.181 -14.18,14.181l-4.317,0c-7.855,0 -14.181,-6.326 -14.181,-14.181l-0,-18.496c-0,-7.857 6.326,-14.182 14.181,-14.182Z" style="fill:#773f23;fill-rule:nonzero;"/><path d="M211.099,280.962c3.544,-2.184 8.158,-1.091 10.342,2.453l7.892,12.793c2.187,3.544 1.093,8.158 -2.45,10.342c-3.544,2.187 -8.158,1.093 -10.343,-2.45l-7.892,-12.795c-2.186,-3.544 -1.092,-8.156 2.451,-10.343Z" style="fill:#854727;fill-rule:nonzero;"/><path d="M240.478,323.066l3.613,0c3.187,0 5.753,2.567 5.753,5.754l0,7.277c0,3.187 -2.566,5.753 -5.753,5.753l-3.613,0c-3.189,0 -5.756,-2.566 -5.756,-5.753l0,-7.277c0,-3.187 2.567,-5.754 5.756,-5.754Z" style="fill:#854727;fill-rule:nonzero;"/><path d="M256.545,243.042c2.959,0 5.342,2.578 5.342,5.78l0,0.825c0,3.202 -2.383,5.78 -5.342,5.78c-2.96,-0 -5.343,-2.578 -5.343,-5.78l-0,-0.825c-0,-3.202 2.383,-5.78 5.343,-5.78Z" style="fill:#854727;fill-rule:nonzero;"/><path d="M334.356,244.194c2.957,0 5.34,2.578 5.34,5.78l0,0.825c0,3.202 -2.383,5.78 -5.34,5.78c-2.96,-0 -5.343,-2.578 -5.343,-5.78l-0,-0.825c-0,-3.202 2.383,-5.78 5.343,-5.78Z" style="fill:#854727;fill-rule:nonzero;"/><path d="M265.206,281.595l7.163,3.908c1.548,0.846 2.259,2.921 1.592,4.654c-0.665,1.734 -2.448,2.449 -3.999,1.605l-7.163,-3.911c-1.548,-0.844 -2.259,-2.921 -1.592,-4.654c0.667,-1.733 2.45,-2.449 3.999,-1.602Z" style="fill:#68371e;fill-rule:nonzero;"/><path d="M329.485,281.595l-7.163,3.908c-1.548,0.846 -2.26,2.921 -1.592,4.654c0.665,1.734 2.448,2.449 3.998,1.605l7.161,-3.911c1.551,-0.844 2.262,-2.921 1.595,-4.654c-0.667,-1.733 -2.451,-2.449 -3.999,-1.602Z" style="fill:#68371e;fill-rule:nonzero;"/><path d="M269.158,358.671c9.024,-1.543 17.594,4.863 19.218,14.361l3.089,18.083c1.623,9.498 -4.337,18.385 -13.358,19.927c-9.024,1.541 -17.596,-4.864 -19.218,-14.362l-3.089,-18.082c-1.623,-9.498 4.335,-18.386 13.358,-19.927Z" style="fill:#62341c;fill-rule:nonzero;"/><path d="M344.488,384.068l0.707,-0.848c5.376,-6.425 14.876,-7.271 21.302,-1.898l20.346,17.018c6.424,5.374 7.271,14.873 1.897,21.3l-0.708,0.846c-5.375,6.427 -14.875,7.273 -21.302,1.899l-20.345,-17.017c-6.426,-5.374 -7.273,-14.875 -1.897,-21.3Z" style="fill:#68371e;fill-rule:nonzero;"/><path d="M297.575,432.934c-4.19,1.153 -7.981,3.814 -10.503,7.788l-10.606,16.722c-5.381,8.484 -2.887,19.644 5.597,25.025c7.273,4.614 16.514,3.432 22.393,-2.344l-6.881,-47.191Z" style="fill:#68371e;fill-rule:nonzero;"/><path d="M335.863,402.991l17.022,-4.51c10.099,-2.677 20.386,3.299 23.062,13.4l0.139,0.525c2.676,10.101 -3.301,20.387 -13.401,23.064l-17.021,4.509c-10.1,2.677 -20.386,-3.3 -23.062,-13.4l-0.139,-0.526c-2.676,-10.1 3.301,-20.386 13.4,-23.062Z" style="fill:#773f23;fill-rule:nonzero;"/><path d="M314.88,423.652c8.481,5.382 10.978,16.543 5.599,25.025l-10.609,16.723c-5.381,8.481 -16.543,10.978 -25.025,5.597c-8.483,-5.381 -10.98,-16.541 -5.599,-25.025l10.607,-16.723c5.381,-8.481 16.543,-10.978 25.027,-5.597Z" style="fill:#773f23;fill-rule:nonzero;"/><path d="M294.837,440.442l-0.297,-1c-2.383,-8.031 2.163,-16.416 10.196,-18.8l72.987,-21.654c8.03,-2.383 16.416,2.163 18.799,10.196l0.297,0.998c2.381,8.033 -2.166,16.416 -10.196,18.799l-72.987,21.657c-8.032,2.383 -16.416,-2.165 -18.799,-10.196Z" style="fill:#773f23;fill-rule:nonzero;"/><path d="M386.771,411.837c0.891,2.545 -0.439,5.312 -2.984,6.202l-5.085,1.782c-2.545,0.893 -5.31,-0.438 -6.203,-2.983c-0.89,-2.545 0.44,-5.31 2.983,-6.202l5.087,-1.782c2.543,-0.891 5.31,0.44 6.202,2.983Z" style="fill:#854727;fill-rule:nonzero;"/><path d="M286.249,452.316c3.274,-0 5.91,2.635 5.91,5.909l-0,1.564c-0,3.274 -2.636,5.91 -5.91,5.91c-3.274,-0 -5.91,-2.636 -5.91,-5.91l0,-1.564c0,-3.274 2.636,-5.909 5.91,-5.909Z" style="fill:#854727;fill-rule:nonzero;"/><path d="M320.554,127.037l-2.464,25.441c-1.643,16.963 -22.409,36.6 -32.182,36.6l-11.762,0c-9.773,0 -20.868,-19.486 -21.731,-36.6l-1.286,-25.441c-0.455,-27.307 16.279,-38.031 34.976,-36.566c18.696,1.465 36.894,15.119 34.449,36.566Z" style="fill:#773f23;fill-rule:nonzero;"/><path d="M314.504,133.175l7.899,-0c4.749,-0 8.573,3.823 8.573,8.573l-0,10.317c-0,4.749 -3.824,8.573 -8.573,8.573l-7.899,-0c-4.749,-0 -8.573,-3.824 -8.573,-8.573l0,-10.317c0,-4.75 3.824,-8.573 8.573,-8.573Z" style="fill:#773f23;fill-rule:nonzero;"/><path d="M315.954,138.621l4.656,0c2.798,0 5.052,2.253 5.052,5.052l-0,6.081c-0,2.798 -2.254,5.052 -5.052,5.052l-4.656,-0c-2.798,-0 -5.052,-2.254 -5.052,-5.052l-0,-6.081c-0,-2.799 2.254,-5.052 5.052,-5.052Z" style="fill:#68371e;fill-rule:nonzero;"/><path d="M308.216,129.758l2.757,0c2.8,0 5.054,2.254 5.054,5.052l-0,26.745c-0,2.799 -2.254,5.052 -5.054,5.052l-2.757,0c-2.8,0 -5.052,-2.253 -5.052,-5.052l0,-26.745c0,-2.798 2.252,-5.052 5.052,-5.052Z" style="fill:#773f23;fill-rule:nonzero;"/><path d="M269.716,178.2l9.308,-0c2.75,-0 4.963,2.213 4.963,4.963l0,1.074c0,2.749 -2.213,4.963 -4.963,4.963l-9.308,-0c-2.75,-0 -4.963,-2.214 -4.963,-4.963l-0,-1.074c-0,-2.75 2.213,-4.963 4.963,-4.963Z" style="fill:#773f23;fill-rule:nonzero;"/><path d="M297.155,321.509l0.333,-0c1.882,-0 3.397,1.515 3.397,3.399l0,3.281c0,1.884 -1.515,3.398 -3.397,3.398l-0.333,-0c-1.882,-0 -3.398,-1.514 -3.398,-3.398l0,-3.281c0,-1.884 1.516,-3.399 3.398,-3.399Z" style="fill:#62341c;fill-rule:nonzero;"/><path d="M274.542,134.056l-3.319,-0c-2.587,-0 -4.67,2.082 -4.67,4.67c0,2.587 2.083,4.67 4.67,4.67l3.319,0c2.587,0 4.671,-2.083 4.671,-4.67c0,-2.588 -2.084,-4.67 -4.671,-4.67Z" style="fill:#68371e;fill-rule:nonzero;"/><path d="M272.56,136.36c-2.137,-0 -3.857,1.749 -3.857,3.923l0,1.569c0,2.173 1.72,3.923 3.857,3.923c2.136,-0 3.856,-1.75 3.856,-3.923l-0,-1.569c-0,-2.174 -1.72,-3.923 -3.856,-3.923Z" style="fill:#502a17;fill-rule:nonzero;"/><path d="M281.514,130.199l-12.267,0.122c-1.334,0.013 -2.399,1.098 -2.385,2.432c0.013,1.334 1.097,2.397 2.431,2.384l12.269,-0.121c1.334,-0.014 2.398,-1.098 2.385,-2.432c-0.014,-1.334 -1.099,-2.398 -2.433,-2.385Z" style="fill:#3e302e;fill-rule:nonzero;"/><path d="M253.936,136.36c-1.319,-0 -2.381,1.555 -2.381,3.487l-0,1.395c-0,1.933 1.062,3.488 2.381,3.488c1.319,0 2.381,-1.555 2.381,-3.488l0,-1.395c0,-1.932 -1.062,-3.487 -2.381,-3.487Z" style="fill:#502a17;fill-rule:nonzero;"/><path d="M260.173,141.625c2.36,0.331 3.993,2.498 3.662,4.858l-1.498,10.672c-0.332,2.36 -2.499,3.993 -4.859,3.662c-2.36,-0.332 -3.993,-2.499 -3.662,-4.859l1.498,-10.672c0.332,-2.36 2.499,-3.993 4.859,-3.661Z" style="fill:#68371e;fill-rule:nonzero;"/><path d="M260.258,152.758l2.214,0c1.702,0 3.073,1.371 3.073,3.073c0,1.702 -1.371,3.072 -3.073,3.072l-2.214,0c-1.7,0 -3.071,-1.37 -3.071,-3.072c-0,-1.702 1.371,-3.073 3.071,-3.073Z" style="fill:#68371e;fill-rule:nonzero;"/><path d="M259.713,164.04l10.132,-0c2.778,-0 5.21,2.228 5.449,4.997c0.241,2.768 -1.801,4.997 -4.582,4.997l-10.13,0c-2.778,0 -5.21,-2.229 -5.451,-4.997c-0.241,-2.769 1.803,-4.997 4.582,-4.997Z" style="fill:#68371e;fill-rule:nonzero;"/><path d="M259.043,167.864l8.735,-0c0.507,-0 0.914,0.407 0.914,0.912c-0,0.506 -0.407,0.913 -0.914,0.913l-8.735,-0c-0.505,-0 -0.912,-0.407 -0.912,-0.913c0,-0.505 0.407,-0.912 0.912,-0.912Z" style="fill:#502a17;fill-rule:nonzero;"/><path d="M252.324,131.452l1.542,0.08c1.402,0.073 2.472,1.26 2.399,2.661c-0.073,1.402 -1.259,2.471 -2.661,2.398l-1.544,-0.08c-1.402,-0.073 -2.47,-1.26 -2.397,-2.661c0.072,-1.402 1.259,-2.471 2.661,-2.398Z" style="fill:#3e302e;fill-rule:nonzero;"/><path d="M278.334,148.136l5.04,-0c2.168,-0 3.911,1.744 3.911,3.91c-0,2.167 -1.743,3.911 -3.911,3.911l-5.04,0c-2.167,0 -3.912,-1.744 -3.912,-3.911c0,-2.166 1.745,-3.91 3.912,-3.91Z" style="fill:#854727;fill-rule:nonzero;"/><path d="M279.331,153.002c1.228,0 2.217,0.989 2.217,2.217l0,4.171c0,1.228 -0.989,2.216 -2.217,2.216c-1.228,0 -2.215,-0.988 -2.215,-2.216l-0,-4.171c-0,-1.228 0.987,-2.217 2.215,-2.217Z" style="fill:#854727;fill-rule:nonzero;"/><path d="M268.086,176.033l-2.869,0c-0.478,0 -0.867,0.389 -0.867,0.869c-0,0.481 0.389,0.87 0.867,0.87l2.869,-0c0.48,-0 0.87,-0.389 0.87,-0.87c-0,-0.48 -0.39,-0.869 -0.87,-0.869Z" style="fill:#68371e;fill-rule:nonzero;"/><path d="M283.8,131.586l1.194,1.437c0.669,0.805 0.561,1.992 -0.245,2.662c-0.804,0.67 -1.992,0.56 -2.661,-0.245l-1.195,-1.436c-0.669,-0.806 -0.561,-1.993 0.245,-2.663c0.804,-0.669 1.991,-0.56 2.662,0.245Z" style="fill:#3e302e;fill-rule:nonzero;"/><path d="M277.191,88.753c-0.233,0.009 -0.465,0.049 -0.688,0.12c-0,-0 -9.67,2.709 -15.472,7.69c-5.302,4.551 -8.138,9.283 -8.624,14.598c-0.031,0.34 0.006,0.683 0.106,1.01c0.102,0.326 0.266,0.63 0.486,0.892c0.218,0.263 0.486,0.48 0.788,0.639c0.303,0.159 0.635,0.257 0.974,0.288c0.341,0.031 0.685,-0.005 1.01,-0.106c0.328,-0.102 0.631,-0.267 0.893,-0.486c0.262,-0.218 0.48,-0.487 0.638,-0.789c0.16,-0.303 0.257,-0.634 0.288,-0.974c0.353,-3.862 2.132,-7.09 6.827,-11.121c4.196,-3.602 13.593,-6.658 13.593,-6.658c0.615,-0.174 1.144,-0.566 1.487,-1.104c0.343,-0.537 0.476,-1.182 0.374,-1.812c-0.1,-0.63 -0.43,-1.2 -0.924,-1.603c-0.493,-0.403 -1.118,-0.611 -1.756,-0.584Zm10.07,4.834c-0.41,0.017 -0.809,0.13 -1.168,0.332c-2.678,1.442 -4.94,3.092 -6.862,4.78c0.127,-0.411 0.152,-0.847 0.069,-1.269c-0.081,-0.422 -0.266,-0.817 -0.54,-1.15c-0.272,-0.334 -0.621,-0.594 -1.02,-0.758c-0.397,-0.165 -0.829,-0.228 -1.257,-0.185c-0.146,0.015 -0.293,0.042 -0.436,0.082c-11.977,3.238 -15.043,15.738 -15.043,15.738c-0.096,0.335 -0.125,0.687 -0.083,1.034c0.043,0.347 0.155,0.682 0.328,0.985c0.176,0.302 0.409,0.567 0.687,0.778c0.279,0.21 0.597,0.362 0.937,0.447c0.339,0.085 0.692,0.101 1.037,0.046c0.345,-0.054 0.675,-0.178 0.972,-0.362c0.297,-0.185 0.551,-0.428 0.752,-0.714c0.2,-0.287 0.341,-0.61 0.414,-0.952c0,-0 2.445,-9.523 11.295,-11.958c-5.175,5.215 -7.134,10.253 -7.134,10.253c-0.131,0.32 -0.197,0.664 -0.193,1.01c0.004,0.346 0.076,0.688 0.214,1.005c0.137,0.318 0.336,0.605 0.587,0.845c0.248,0.239 0.545,0.426 0.867,0.551c0.324,0.124 0.667,0.182 1.014,0.171c0.345,-0.01 0.687,-0.09 1.001,-0.234c0.314,-0.144 0.598,-0.349 0.831,-0.603c0.235,-0.255 0.417,-0.554 0.534,-0.879c0,-0 3.261,-8.571 13.497,-14.082c0.526,-0.271 0.945,-0.715 1.186,-1.256c0.241,-0.541 0.289,-1.149 0.137,-1.721c-0.151,-0.573 -0.494,-1.077 -0.97,-1.429c-0.478,-0.351 -1.061,-0.53 -1.653,-0.505Zm10.133,0.892c-0.407,0.041 -0.801,0.176 -1.146,0.397c0,-0 -3.189,1.963 -6.706,4.899c-3.517,2.935 -7.51,6.749 -9.114,11.417c-0.114,0.324 -0.162,0.666 -0.141,1.008c0.02,0.343 0.106,0.677 0.257,0.986c0.148,0.308 0.358,0.583 0.615,0.811c0.256,0.227 0.555,0.402 0.879,0.513c0.324,0.112 0.667,0.158 1.009,0.137c0.341,-0.021 0.676,-0.11 0.983,-0.261c0.308,-0.151 0.582,-0.361 0.81,-0.618c0.225,-0.258 0.399,-0.557 0.509,-0.881c0.956,-2.78 4.321,-6.441 7.527,-9.118c3.206,-2.677 6.106,-4.464 6.106,-4.464c0.509,-0.303 0.899,-0.77 1.107,-1.324c0.208,-0.555 0.22,-1.164 0.035,-1.727c-0.185,-0.562 -0.557,-1.045 -1.053,-1.367c-0.497,-0.323 -1.087,-0.467 -1.677,-0.408Z" style="fill:#49221a;fill-rule:nonzero;"/><path d="M316.096,100.882c-8.474,-0 -15.297,7.093 -15.297,15.904c-0,6.146 3.322,11.453 8.206,14.103l-0,15.109l1.727,-0c2.038,-0 3.681,-1.343 3.681,-3.012l0,-9.716c0.021,0 0.041,0.007 0.062,0.007l12.045,-0c1.122,-0 2.026,-0.904 2.026,-2.027c0,-1.124 -0.904,-2.029 -2.026,-2.029l-0.872,-0c3.504,-2.91 5.742,-7.389 5.742,-12.435c0,-8.811 -6.822,-15.904 -15.294,-15.904l0,-0Z" style="fill:#3e302e;fill-rule:nonzero;"/><path d="M311.664,91.642c-0.65,-0.017 -1.285,0.21 -1.776,0.638c-0.492,0.428 -0.806,1.025 -0.879,1.672c-0.072,0.648 0.1,1.299 0.485,1.825c0.384,0.527 0.953,0.89 1.591,1.017c9.263,1.996 14.295,7.606 17.174,13.901c2.877,6.295 3.32,13.35 2.871,16.955c-1.07,8.553 -0.32,12.646 -0.32,12.646c0.065,0.335 0.196,0.654 0.387,0.939c0.189,0.284 0.432,0.529 0.718,0.719c0.283,0.19 0.601,0.322 0.937,0.389c0.335,0.067 0.68,0.068 1.016,0.001c0.335,-0.066 0.653,-0.198 0.939,-0.388c0.283,-0.189 0.528,-0.433 0.719,-0.717c0.189,-0.285 0.322,-0.603 0.387,-0.939c0.068,-0.335 0.068,-0.68 0.002,-1.015c0,-0 -0.636,-2.896 0.376,-10.99c0.592,-4.738 0.077,-12.371 -3.303,-19.764c-3.379,-7.393 -9.904,-14.473 -20.806,-16.823c-0.169,-0.039 -0.343,-0.061 -0.518,-0.066Z" style="fill:#48211a;fill-rule:nonzero;"/><path d="M308.395,90.052c-0.684,0.006 -1.338,0.28 -1.822,0.765c-0.482,0.484 -0.755,1.14 -0.757,1.823c-0.004,0.685 0.262,1.342 0.74,1.832c0.478,0.489 1.13,0.77 1.812,0.783c1.672,0.09 4.558,1.197 7.46,3.241c2.902,2.045 5.875,4.962 8.179,8.343c4.61,6.761 6.639,14.928 1.485,23.011c-0.185,0.288 -0.31,0.61 -0.37,0.946c-0.06,0.337 -0.052,0.682 0.021,1.016c0.075,0.334 0.214,0.65 0.409,0.93c0.196,0.28 0.445,0.519 0.734,0.703c0.288,0.184 0.61,0.309 0.947,0.369c0.336,0.059 0.681,0.052 1.016,-0.022c0.334,-0.074 0.65,-0.213 0.93,-0.409c0.279,-0.196 0.518,-0.445 0.701,-0.734c6.382,-10.007 3.799,-20.863 -1.575,-28.742c-2.686,-3.939 -6.05,-7.248 -9.48,-9.663c-3.429,-2.416 -6.866,-4.008 -10.171,-4.187c-0.087,-0.006 -0.174,-0.008 -0.261,-0.005l0.002,-0Z" style="fill:#49211a;fill-opacity:0.99;fill-rule:nonzero;"/><path d="M300.567,102.835c-0.493,-0.016 -0.983,0.11 -1.409,0.362c-0.426,0.253 -0.769,0.622 -0.993,1.063c-0.224,0.442 -0.316,0.938 -0.268,1.431c0.048,0.493 0.237,0.961 0.542,1.35c-0,0 3.484,4.556 8.51,9.695c5.027,5.138 11.54,10.95 18.348,13.576c0.32,0.137 0.667,0.208 1.016,0.209c0.349,0 0.694,-0.07 1.016,-0.205c0.322,-0.137 0.614,-0.336 0.858,-0.587c0.243,-0.251 0.432,-0.549 0.558,-0.875c0.127,-0.326 0.185,-0.674 0.173,-1.023c-0.011,-0.349 -0.094,-0.693 -0.241,-1.009c-0.148,-0.317 -0.358,-0.601 -0.617,-0.835c-0.26,-0.234 -0.563,-0.414 -0.894,-0.528c-5.361,-2.067 -11.71,-7.467 -16.503,-12.366c-4.793,-4.9 -8.089,-9.212 -8.089,-9.212c-0.233,-0.314 -0.536,-0.571 -0.883,-0.753c-0.347,-0.181 -0.73,-0.281 -1.124,-0.293Z" style="fill:#49211a;fill-opacity:0.99;fill-rule:nonzero;"/><path d="M305.897,101.968c-0.496,0.028 -0.972,0.197 -1.375,0.487c-0.401,0.29 -0.714,0.689 -0.895,1.15c-0.183,0.46 -0.231,0.964 -0.139,1.451c0.095,0.487 0.324,0.937 0.666,1.297c6.835,7.457 12.492,11.788 16.518,14.272c4.024,2.484 6.681,3.18 6.681,3.18c0.337,0.097 0.69,0.125 1.037,0.082c0.347,-0.043 0.682,-0.155 0.987,-0.331c0.303,-0.176 0.567,-0.411 0.777,-0.692c0.21,-0.28 0.361,-0.601 0.444,-0.941c0.084,-0.34 0.098,-0.694 0.04,-1.04c-0.056,-0.346 -0.183,-0.677 -0.37,-0.973c-0.189,-0.295 -0.434,-0.55 -0.723,-0.749c-0.289,-0.198 -0.615,-0.336 -0.958,-0.406c-0,0 -1.603,-0.347 -5.183,-2.556c-3.579,-2.209 -8.868,-6.219 -15.415,-13.362c-0.261,-0.293 -0.585,-0.524 -0.947,-0.674c-0.363,-0.151 -0.754,-0.217 -1.145,-0.195Z" style="fill:#49211a;fill-opacity:0.99;fill-rule:nonzero;"/><path d="M319.8,170.699c-0.69,0.001 -1.351,0.275 -1.839,0.762c-0.488,0.488 -0.762,1.15 -0.764,1.84c-0.088,5.814 0.378,10.116 1.84,13.723c1.463,3.607 3.945,6.317 7.205,8.739c3.181,2.363 5.578,3.649 7.265,4.354c1.687,0.705 2.989,0.849 2.989,0.849c0.343,0.026 0.688,-0.016 1.016,-0.124c0.328,-0.109 0.628,-0.281 0.889,-0.507c0.26,-0.226 0.472,-0.502 0.626,-0.811c0.153,-0.309 0.241,-0.646 0.264,-0.99c0.022,-0.344 -0.027,-0.688 -0.138,-1.014c-0.114,-0.326 -0.29,-0.626 -0.521,-0.883c-0.229,-0.257 -0.507,-0.465 -0.819,-0.614c-0.311,-0.148 -0.648,-0.233 -0.993,-0.25c-0,0 -0.085,0.055 -1.311,-0.457c-1.225,-0.512 -3.261,-1.573 -6.163,-3.729c-2.822,-2.097 -4.429,-3.907 -5.487,-6.514c-1.057,-2.607 -1.543,-6.212 -1.458,-11.696c0.01,-0.348 -0.05,-0.694 -0.175,-1.019c-0.127,-0.324 -0.316,-0.62 -0.559,-0.87c-0.243,-0.249 -0.533,-0.448 -0.855,-0.583c-0.32,-0.136 -0.665,-0.206 -1.012,-0.206Z" style="fill:#48211a;fill-rule:nonzero;"/><path d="M328.6,157.668c-0.555,0.016 -1.089,0.209 -1.527,0.551c-0.436,0.342 -0.752,0.814 -0.902,1.349c-6.681,22.646 10.782,36.841 10.782,36.841c0.268,0.212 0.574,0.37 0.902,0.464c0.33,0.094 0.673,0.122 1.012,0.083c0.34,-0.039 0.669,-0.144 0.966,-0.31c0.299,-0.166 0.563,-0.389 0.775,-0.656c0.212,-0.268 0.371,-0.575 0.465,-0.903c0.095,-0.329 0.122,-0.673 0.083,-1.012c-0.039,-0.34 -0.145,-0.668 -0.31,-0.967c-0.166,-0.298 -0.39,-0.562 -0.656,-0.774c-0,-0 -14.862,-11.527 -9.029,-31.293c0.123,-0.395 0.15,-0.815 0.079,-1.223c-0.074,-0.408 -0.241,-0.793 -0.492,-1.123c-0.249,-0.33 -0.575,-0.595 -0.949,-0.774c-0.374,-0.179 -0.784,-0.266 -1.199,-0.253Z" style="fill:#48211a;fill-rule:nonzero;"/><path d="M325.419,159.583c-0.467,0.024 -0.918,0.173 -1.308,0.431c-0.387,0.258 -0.699,0.617 -0.902,1.037c-4.315,8.63 -4.475,17.092 -1.286,22.33c2.441,4.01 4.186,6.804 4.186,6.804c0.174,0.304 0.407,0.569 0.686,0.781c0.28,0.212 0.598,0.365 0.937,0.45c0.34,0.086 0.695,0.102 1.04,0.048c0.345,-0.054 0.676,-0.178 0.973,-0.364c0.297,-0.185 0.554,-0.429 0.756,-0.716c0.201,-0.287 0.342,-0.611 0.413,-0.954c0.071,-0.343 0.075,-0.696 0.008,-1.04c-0.07,-0.343 -0.205,-0.67 -0.401,-0.959c-0,-0 -1.726,-2.767 -4.152,-6.753c-1.679,-2.757 -2.188,-9.938 1.493,-17.3c0.212,-0.406 0.31,-0.861 0.289,-1.319c-0.021,-0.458 -0.164,-0.901 -0.411,-1.286c-0.249,-0.385 -0.594,-0.698 -1.001,-0.907c-0.408,-0.209 -0.863,-0.307 -1.32,-0.283Z" style="fill:#48211a;fill-rule:nonzero;"/><path d="M326.838,161.488c-0.365,0.012 -0.721,0.1 -1.047,0.258c-0.328,0.158 -0.619,0.383 -0.854,0.66c-0.234,0.277 -0.409,0.6 -0.511,0.949c-0.102,0.349 -0.131,0.715 -0.083,1.075c0.384,3.26 2.076,13.923 9.343,21.954c0.23,0.254 0.506,0.46 0.814,0.606c0.311,0.147 0.644,0.231 0.985,0.249c0.342,0.017 0.683,-0.033 1.005,-0.148c0.322,-0.115 0.619,-0.292 0.873,-0.521c0.253,-0.229 0.459,-0.506 0.606,-0.815c0.146,-0.309 0.231,-0.643 0.247,-0.985c0.017,-0.341 -0.033,-0.683 -0.147,-1.005c-0.116,-0.322 -0.293,-0.618 -0.521,-0.871c-5.944,-6.57 -7.727,-16.424 -8.038,-19.074c-0.067,-0.654 -0.382,-1.259 -0.877,-1.692c-0.496,-0.432 -1.138,-0.661 -1.795,-0.64Z" style="fill:#48211a;fill-rule:nonzero;"/><path d="M280.257,87.791c-11.862,0.625 -22.476,5.391 -29.389,13.855c-0.229,0.263 -0.405,0.57 -0.515,0.901c-0.108,0.332 -0.15,0.683 -0.121,1.031c0.029,0.348 0.129,0.687 0.291,0.996c0.164,0.31 0.386,0.583 0.658,0.804c0.27,0.22 0.582,0.385 0.917,0.482c0.336,0.098 0.689,0.126 1.036,0.085c0.347,-0.041 0.682,-0.152 0.985,-0.326c0.303,-0.174 0.569,-0.407 0.779,-0.685c7.819,-9.573 21.576,-13.899 36.648,-11.249c15.029,2.642 20.954,10.997 22.061,13.454c0.895,1.989 4.346,8.915 7.672,15.567c3.326,6.653 6.457,12.865 6.457,12.865c0.089,0.176 0.195,0.341 0.32,0.493c1.709,2.058 3.301,8.21 2.592,13.723c-0.71,5.513 -3.103,10.03 -8.017,11.3c-0.452,0.116 -0.862,0.351 -1.19,0.68c-4.03,4.03 -6.424,9.079 -7.174,15.441c-0.847,7.2 3.221,14.526 3.221,14.526c0.157,0.304 0.371,0.575 0.631,0.796c0.26,0.222 0.561,0.39 0.887,0.495c0.326,0.105 0.669,0.145 1.008,0.117c0.342,-0.027 0.673,-0.122 0.978,-0.278c0.304,-0.155 0.574,-0.37 0.796,-0.63c0.222,-0.26 0.39,-0.562 0.494,-0.887c0.106,-0.325 0.146,-0.668 0.117,-1.009c-0.027,-0.34 -0.121,-0.672 -0.277,-0.977c-0,0 -3.232,-6.929 -2.688,-11.548c0.632,-5.372 2.391,-8.968 5.564,-12.199c6.647,-2.331 9.992,-8.789 10.811,-15.166c0.868,-6.747 -0.339,-13.599 -3.748,-17.707l0.324,0.493c-0,-0 -3.129,-6.21 -6.451,-12.855c-3.323,-6.644 -6.913,-13.888 -7.582,-15.374c-2.022,-4.496 -9.301,-13.522 -25.906,-16.442c-4.142,-0.728 -8.235,-0.98 -12.189,-0.772Z" style="fill:#58281f;fill-opacity:0.99;fill-rule:nonzero;"/><path d="M298.354,86.14c-6.081,-0.211 -12.269,0.564 -16.808,3.465c-0.295,0.18 -0.551,0.418 -0.753,0.699c-0.203,0.28 -0.347,0.598 -0.425,0.935c-0.079,0.337 -0.088,0.687 -0.029,1.028c0.058,0.341 0.186,0.666 0.371,0.958c0.187,0.292 0.43,0.543 0.713,0.74c0.285,0.197 0.605,0.335 0.945,0.406c0.337,0.071 0.688,0.074 1.028,0.009c0.339,-0.066 0.663,-0.198 0.95,-0.39c2.96,-1.892 8.387,-2.841 13.83,-2.652c5.442,0.188 10.946,1.468 13.931,3.012c2.979,1.541 6.513,4.945 9.257,8.191c2.746,3.246 4.93,6.668 5.102,7.011c0.152,0.306 0.364,0.579 0.622,0.802c0.259,0.224 0.558,0.395 0.882,0.503c0.324,0.108 0.667,0.152 1.008,0.127c0.339,-0.024 0.673,-0.115 0.98,-0.268c0.304,-0.152 0.576,-0.364 0.8,-0.622c0.225,-0.258 0.395,-0.558 0.503,-0.882c0.108,-0.325 0.152,-0.667 0.127,-1.008c-0.025,-0.341 -0.116,-0.673 -0.268,-0.979c-0.812,-1.623 -2.811,-4.529 -5.782,-8.043c-2.971,-3.514 -6.687,-7.303 -10.838,-9.45c-4.142,-2.143 -10.067,-3.381 -16.146,-3.592Z" style="fill:#48211a;fill-rule:nonzero;"/><path d="M262.697,101.448c-0.671,-0.019 -1.324,0.223 -1.822,0.675c-0.497,0.452 -0.802,1.079 -0.846,1.75c-0.047,0.671 0.169,1.334 0.603,1.849c0.432,0.515 1.047,0.842 1.716,0.914c38.586,4.557 54.039,1.89 54.039,1.89c0.336,-0.06 0.658,-0.185 0.947,-0.368c0.287,-0.184 0.536,-0.423 0.733,-0.703c0.196,-0.28 0.335,-0.596 0.409,-0.929c0.075,-0.334 0.083,-0.679 0.023,-1.016c-0.06,-0.336 -0.185,-0.658 -0.369,-0.946c-0.183,-0.289 -0.422,-0.538 -0.701,-0.734c-0.282,-0.196 -0.598,-0.335 -0.932,-0.409c-0.333,-0.074 -0.678,-0.081 -1.014,-0.022c0,0 -14.328,2.58 -52.525,-1.931c-0.087,-0.011 -0.174,-0.017 -0.261,-0.02l0,0Z" style="fill:#49211a;fill-opacity:0.99;fill-rule:nonzero;"/><path d="M272.238,96.759c-0.671,-0.008 -1.321,0.245 -1.811,0.705c-0.49,0.46 -0.783,1.092 -0.817,1.764c-0.035,0.672 0.192,1.33 0.634,1.838c0.439,0.508 1.06,0.825 1.729,0.885c0,0 19.781,1.992 38.26,3.511c0.341,0.028 0.682,-0.011 1.008,-0.115c0.326,-0.105 0.629,-0.272 0.889,-0.493c0.26,-0.221 0.474,-0.492 0.631,-0.796c0.156,-0.304 0.252,-0.635 0.279,-0.976c0.029,-0.341 -0.011,-0.684 -0.115,-1.009c-0.105,-0.326 -0.272,-0.627 -0.494,-0.888c-0.22,-0.261 -0.492,-0.475 -0.794,-0.631c-0.305,-0.157 -0.637,-0.251 -0.978,-0.279c-18.412,-1.514 -38.161,-3.501 -38.161,-3.501c-0.087,-0.009 -0.174,-0.015 -0.26,-0.015Z" style="fill:#49211a;fill-opacity:0.99;fill-rule:nonzero;"/><path d="M297.01,87.619c-4.201,-0.293 -8.711,-0.13 -13.246,0.66c-9.07,1.581 -18.298,5.768 -24.769,14.115c-0.223,0.268 -0.389,0.579 -0.489,0.913c-0.101,0.334 -0.134,0.685 -0.095,1.032c0.039,0.347 0.145,0.683 0.316,0.987c0.17,0.305 0.399,0.572 0.677,0.786c0.276,0.213 0.592,0.369 0.929,0.459c0.338,0.089 0.689,0.109 1.034,0.059c0.345,-0.049 0.677,-0.168 0.975,-0.349c0.299,-0.18 0.56,-0.419 0.764,-0.702c5.522,-7.123 13.414,-10.755 21.552,-12.173c8.137,-1.418 16.47,-0.533 22.208,1.244c5.135,1.591 9.861,6.821 13.135,12.504c1.637,2.842 2.921,5.758 3.775,8.246c0.854,2.488 1.244,4.653 1.244,5.447c-0.004,0.345 0.059,0.687 0.187,1.007c0.129,0.32 0.32,0.611 0.563,0.856c0.241,0.246 0.53,0.441 0.848,0.574c0.318,0.133 0.659,0.201 1.003,0.201c0.345,0 0.686,-0.068 1.004,-0.201c0.318,-0.133 0.608,-0.328 0.849,-0.574c0.242,-0.245 0.433,-0.536 0.561,-0.856c0.129,-0.32 0.192,-0.662 0.189,-1.007c-0,-1.987 -0.565,-4.32 -1.531,-7.133c-0.964,-2.814 -2.364,-6.001 -4.18,-9.156c-3.637,-6.31 -8.901,-12.644 -16.108,-14.877c-3.301,-1.023 -7.196,-1.77 -11.395,-2.062Z" style="fill:#58281f;fill-opacity:0.99;fill-rule:nonzero;"/><path d="M290.562,90.606c-12.756,0.199 -20.999,11.833 -20.999,11.833c-0.206,0.275 -0.358,0.588 -0.443,0.921c-0.087,0.333 -0.104,0.68 -0.056,1.021c0.05,0.341 0.166,0.668 0.343,0.964c0.177,0.295 0.411,0.552 0.688,0.757c0.276,0.204 0.59,0.351 0.926,0.433c0.333,0.082 0.681,0.097 1.022,0.043c0.339,-0.053 0.665,-0.173 0.958,-0.354c0.293,-0.18 0.548,-0.416 0.75,-0.696c0,0 7.402,-9.571 16.892,-9.719c5.158,-0.081 9.928,0.978 15.126,4.471c5.199,3.492 10.819,9.536 17.041,19.51c0.366,0.585 0.949,1.002 1.622,1.158c0.671,0.155 1.378,0.038 1.962,-0.327c0.586,-0.366 1.003,-0.948 1.159,-1.621c0.156,-0.672 0.039,-1.378 -0.328,-1.964c-6.465,-10.362 -12.498,-17.006 -18.554,-21.075c-6.056,-4.068 -12.141,-5.448 -18.109,-5.355Z" style="fill:#58281f;fill-opacity:0.99;fill-rule:nonzero;"/><path d="M303.619,94.508c-2.923,-0.054 -6.006,0.254 -9.089,0.914c-6.166,1.322 -12.34,4.084 -16.894,8.638c-0.248,0.24 -0.449,0.527 -0.586,0.844c-0.137,0.318 -0.21,0.66 -0.214,1.006c-0.002,0.346 0.064,0.69 0.193,1.01c0.131,0.32 0.326,0.612 0.569,0.856c0.245,0.245 0.536,0.438 0.858,0.569c0.32,0.131 0.663,0.197 1.008,0.193c0.347,-0.003 0.688,-0.076 1.007,-0.213c0.318,-0.138 0.605,-0.337 0.844,-0.586c3.615,-3.616 8.914,-6.07 14.307,-7.226c5.393,-1.155 10.867,-0.979 14.507,0.209c1.311,0.428 3.131,1.889 4.857,4.105c1.725,2.216 3.378,5.102 4.739,8.033c1.363,2.931 2.443,5.921 3.1,8.322c0.328,1.201 0.552,2.259 0.656,3.044c0.104,0.784 0.015,1.354 0.071,1.148c-0.532,1.95 -0.808,3.132 -0.956,3.871c-0.147,0.739 -0.183,1.337 -0.183,1.337c-0.004,0.344 0.06,0.687 0.187,1.006c0.129,0.32 0.32,0.612 0.563,0.857c0.241,0.246 0.53,0.441 0.848,0.574c0.318,0.133 0.66,0.201 1.003,0.201c0.345,0 0.686,-0.068 1.004,-0.201c0.319,-0.133 0.608,-0.328 0.849,-0.574c0.243,-0.245 0.434,-0.537 0.563,-0.857c0.127,-0.319 0.191,-0.662 0.187,-1.006c-0,-0 -0.033,0.249 0.081,-0.315c0.112,-0.565 0.356,-1.648 0.867,-3.521c0.319,-1.162 0.22,-2.089 0.072,-3.206c-0.149,-1.118 -0.419,-2.366 -0.793,-3.735c-0.748,-2.737 -1.918,-5.939 -3.403,-9.135c-1.484,-3.196 -3.28,-6.377 -5.35,-9.039c-2.073,-2.661 -4.4,-4.89 -7.348,-5.853c-2.439,-0.796 -5.2,-1.216 -8.124,-1.27Z" style="fill:#58281f;fill-opacity:0.99;fill-rule:nonzero;"/><path d="M332.684,151.758c-0.555,0.034 -1.084,0.245 -1.51,0.602c-0.426,0.356 -0.727,0.84 -0.858,1.38c-3.503,13.488 -4.508,20.964 -2.048,28.726c1.144,3.608 1.9,5.662 2.399,6.875c0.249,0.606 0.434,1.002 0.584,1.29c0.151,0.288 0.423,0.671 0.423,0.671c0.418,0.521 1.023,0.861 1.689,0.948c0.663,0.087 1.334,-0.086 1.874,-0.482c0.541,-0.396 0.908,-0.985 1.023,-1.644c0.118,-0.66 -0.025,-1.339 -0.395,-1.896c0,0.003 -0.006,-0.008 -0.006,-0.005c-0.052,-0.1 -0.175,-0.366 -0.381,-0.864c-0.413,-1.004 -1.134,-2.944 -2.25,-6.463c-2.058,-6.49 -1.327,-12.572 2.122,-25.851c0.11,-0.399 0.124,-0.819 0.039,-1.224c-0.085,-0.405 -0.266,-0.784 -0.526,-1.106c-0.261,-0.321 -0.594,-0.576 -0.974,-0.742c-0.378,-0.167 -0.793,-0.24 -1.205,-0.215l-0,0Z" style="fill:#582920;fill-rule:nonzero;"/><path d="M275.434,92.994c-0.605,0.023 -1.185,0.257 -1.639,0.663c-0.451,0.405 -0.748,0.956 -0.836,1.557c-0.089,0.601 0.036,1.214 0.352,1.733c0.315,0.518 0.803,0.91 1.377,1.108c16.272,5.877 27.007,8.529 33.758,9.714c6.748,1.186 9.846,0.869 9.846,0.869c0.34,-0.041 0.668,-0.149 0.964,-0.317c0.297,-0.168 0.56,-0.393 0.77,-0.663c0.212,-0.269 0.366,-0.577 0.459,-0.906c0.09,-0.329 0.117,-0.673 0.075,-1.013c-0.041,-0.339 -0.149,-0.667 -0.316,-0.964c-0.168,-0.298 -0.394,-0.56 -0.664,-0.77c-0.268,-0.211 -0.576,-0.367 -0.906,-0.458c-0.33,-0.092 -0.673,-0.118 -1.012,-0.076c-0,-0 -1.947,0.296 -8.318,-0.823c-6.37,-1.119 -16.834,-3.687 -32.888,-9.486c-0.326,-0.124 -0.673,-0.181 -1.022,-0.168Z" style="fill:#582920;fill-rule:nonzero;"/><path d="M326.954,159.928c-0.511,0.032 -0.999,0.214 -1.408,0.522c-0.407,0.308 -0.715,0.729 -0.885,1.211c-3.781,10.262 -2.746,14.981 -2.063,23.702c0.679,8.637 -0.077,14.446 -1.228,17.467c-0.122,0.32 -0.18,0.66 -0.17,1.001c0.01,0.342 0.087,0.678 0.226,0.99c0.138,0.312 0.339,0.593 0.588,0.828c0.248,0.235 0.54,0.418 0.86,0.54c0.318,0.122 0.659,0.179 1,0.17c0.342,-0.01 0.677,-0.087 0.989,-0.227c0.313,-0.139 0.594,-0.339 0.828,-0.587c0.235,-0.249 0.418,-0.541 0.539,-0.86c1.632,-4.279 2.27,-10.637 1.556,-19.729c-0.707,-9.008 -1.762,-11.944 1.759,-21.497c0.156,-0.407 0.208,-0.846 0.15,-1.279c-0.058,-0.432 -0.223,-0.843 -0.482,-1.194c-0.258,-0.352 -0.599,-0.633 -0.995,-0.818c-0.395,-0.185 -0.831,-0.267 -1.264,-0.24Z" style="fill:#582920;fill-rule:nonzero;"/><path d="M276.487,93.289c-5.385,0.362 -9.365,1.825 -13.961,4.029c-4.772,2.288 -7.983,4.907 -10.009,7.001c-2.027,2.095 -2.968,3.846 -2.968,3.846c-0.167,0.304 -0.271,0.637 -0.308,0.982c-0.037,0.344 -0.006,0.693 0.094,1.025c0.101,0.331 0.265,0.64 0.486,0.907c0.22,0.267 0.492,0.488 0.799,0.649c0.306,0.16 0.644,0.258 0.989,0.287c0.345,0.029 0.692,-0.011 1.022,-0.118c0.329,-0.107 0.634,-0.279 0.896,-0.505c0.262,-0.226 0.476,-0.503 0.631,-0.813c-0,-0 0.468,-0.958 2.097,-2.642c1.632,-1.685 4.323,-3.916 8.523,-5.93c4.375,-2.098 7.398,-3.217 12.06,-3.531c4.662,-0.313 11.06,0.262 21.564,1.911c0.343,0.068 0.698,0.066 1.039,-0.007c0.343,-0.072 0.669,-0.213 0.957,-0.414c0.287,-0.2 0.53,-0.457 0.715,-0.754c0.187,-0.298 0.31,-0.63 0.364,-0.976c0.054,-0.346 0.037,-0.7 -0.048,-1.039c-0.087,-0.34 -0.241,-0.659 -0.453,-0.938c-0.212,-0.279 -0.478,-0.512 -0.783,-0.686c-0.304,-0.173 -0.64,-0.283 -0.989,-0.323c-10.635,-1.67 -17.33,-2.324 -22.717,-1.961Z" style="fill:#57281f;fill-rule:nonzero;"/><path d="M288.819,105.772c-0.607,-0.002 -1.195,0.209 -1.664,0.595c-0.468,0.386 -0.786,0.924 -0.9,1.521c-0.112,0.596 -0.014,1.214 0.279,1.745c0.295,0.531 0.766,0.943 1.331,1.164c14.424,5.901 30.638,3.237 30.638,3.237c0.337,-0.053 0.661,-0.172 0.952,-0.35c0.291,-0.178 0.546,-0.411 0.748,-0.687c0.201,-0.276 0.345,-0.589 0.426,-0.921c0.081,-0.332 0.095,-0.677 0.043,-1.015c-0.052,-0.337 -0.172,-0.661 -0.349,-0.953c-0.18,-0.292 -0.413,-0.546 -0.689,-0.747c-0.275,-0.201 -0.588,-0.347 -0.921,-0.427c-0.332,-0.081 -0.677,-0.095 -1.014,-0.042c-0,-0 -15.248,2.249 -27.864,-2.912c-0.32,-0.136 -0.667,-0.207 -1.016,-0.208Z" style="fill:#57281f;fill-rule:nonzero;"/><path d="M211.016,249.604l25.231,10.338c0.97,0.397 1.433,1.5 1.034,2.47l-3.191,7.791c-0.397,0.97 -1.5,1.433 -2.472,1.034l-25.23,-10.337c-0.971,-0.399 -1.433,-1.5 -1.035,-2.472l3.192,-7.789c0.398,-0.971 1.5,-1.433 2.471,-1.035Z" style="fill:#5b5b5b;fill-rule:nonzero;"/><path d="M233.75,292.955c2.779,3.224 2.418,8.058 -0.807,10.836l-20.113,17.324c-3.225,2.779 -8.058,2.418 -10.836,-0.808c-2.778,-3.225 -2.418,-8.059 0.807,-10.836l20.112,-17.324c3.225,-2.778 8.059,-2.418 10.837,0.808Z" style="fill:#5b5b5b;fill-rule:nonzero;"/><path d="M241.735,305.756c1.421,1.652 1.238,4.126 -0.415,5.549l-24.724,21.296c-1.65,1.423 -4.125,1.238 -5.547,-0.415c-1.423,-1.65 -1.238,-4.124 0.413,-5.547l24.724,-21.296c1.652,-1.423 4.126,-1.238 5.549,0.413Z" style="fill:#c0292f;fill-rule:nonzero;"/><path d="M319.314,416.715l2.391,-0.712c0.97,-0.287 1.982,0.261 2.27,1.231l8.632,29.014c0.289,0.97 -0.261,1.982 -1.228,2.271l-2.393,0.712c-0.968,0.287 -1.98,-0.261 -2.27,-1.231l-8.632,-29.014c-0.287,-0.97 0.26,-1.982 1.23,-2.271Z" style="fill:#5b5b5b;fill-rule:nonzero;"/><path d="M281.732,321.256c-7.603,-0 -14.847,1.463 -21.476,4.118c1.522,2.262 2.41,4.988 2.41,7.931l0,18.498c0,5.86 -3.522,10.865 -8.572,13.03l-0,64.469c8.194,4.477 17.606,7.022 27.638,7.022l7.646,-0c29.435,-0 53.569,-21.884 57.09,-50.336c1.934,-1.61 3.708,-3.031 4.893,-4.045c5.177,-4.425 12.907,-3.821 17.33,1.356l-26.833,-31.39c-0.879,-1.03 -1.892,-1.868 -2.987,-2.533c-10.009,-16.86 -28.384,-28.12 -49.493,-28.12l-7.646,-0Z" style="fill:#c0292f;fill-rule:nonzero;"/><path d="M257.439,322.299c3.191,2.597 5.225,6.554 5.225,11.006l0,11.939l74.861,-0c3.853,-0 6.953,-3.101 6.953,-6.953l0,-9.039c0,-3.853 -3.1,-6.953 -6.953,-6.953l-80.086,0Z" style="fill:#9d2226;fill-rule:nonzero;"/><path d="M283.432,338.225l26.546,0c9.535,0 17.209,7.674 17.209,17.207c-0,9.532 -7.674,17.206 -17.209,17.206l-26.546,0c-9.532,0 -17.208,-7.674 -17.208,-17.206c-0,-9.533 7.676,-17.207 17.208,-17.207Z" style="fill:#a52428;fill-rule:nonzero;"/><path d="M293.221,283.043c-15.511,-0 -30.794,12.17 -34.264,27.288l-2.569,11.187c3.789,2.541 6.276,6.862 6.276,11.787l0,12.286l44.181,-0c2.505,-3.523 4.36,-7.458 5.316,-11.621l5.426,-23.639c3.47,-15.118 -6.222,-27.288 -21.734,-27.288l-2.632,-0Z" style="fill:#9d2226;fill-rule:nonzero;"/><path d="M301.009,282.347l2.792,-0c14.345,-0 28.493,11.25 31.725,25.227l5.052,21.853c3.231,13.975 -5.717,25.228 -20.061,25.228l-2.793,-0c-14.346,-0 -28.494,-11.253 -31.726,-25.228l-5.051,-21.853c-3.23,-13.977 5.717,-25.227 20.062,-25.227Z" style="fill:#c0292f;fill-rule:nonzero;"/><path d="M323.09,192.671c-0.957,-0.325 -1.99,0.183 -2.316,1.14l-20.951,61.539c-0.328,0.957 0.181,1.99 1.138,2.315c0.958,0.326 1.991,-0.182 2.317,-1.139l20.951,-61.538c0.326,-0.958 -0.183,-1.99 -1.139,-2.317Z" style="fill:#4f3f3f;fill-rule:nonzero;"/><path d="M292.166,265.913c-5.77,-1.392 -11.589,2.399 -13.043,8.499l-5.339,22.38c-1.456,6.101 2.019,12.134 7.789,13.526c5.771,1.392 11.59,-2.399 13.044,-8.501l5.339,-22.378c1.456,-6.102 -2.019,-12.134 -7.79,-13.526Z" style="fill:#9d2226;fill-rule:nonzero;"/><path d="M301.389,253.055c-2.511,-0.603 -5.012,0.948 -5.609,3.478l-11.7,49.554c-0.596,2.53 0.943,5.052 3.453,5.656c2.511,0.601 5.011,-0.949 5.609,-3.479l11.7,-49.554c0.598,-2.531 -0.943,-5.053 -3.453,-5.655Z" style="fill:#9d2226;fill-rule:nonzero;"/><path d="M262.107,198.979c0.941,-0.214 1.878,0.408 2.104,1.394l13.545,59.525c0.225,0.987 -0.351,1.953 -1.292,2.167c-0.941,0.214 -1.878,-0.409 -2.102,-1.394l-13.547,-59.526c-0.225,-0.986 0.351,-1.952 1.292,-2.166Z" style="fill:#4f3f3f;fill-rule:nonzero;"/><path d="M284.793,267.814c5.845,-1.021 11.409,3.13 12.477,9.309l3.92,22.667c1.068,6.18 -2.776,11.978 -8.621,13c-5.842,1.023 -11.406,-3.13 -12.476,-9.307l-3.918,-22.669c-1.068,-6.18 2.774,-11.978 8.618,-13Z" style="fill:#c0292f;fill-rule:nonzero;"/><path d="M276.395,254.399c2.537,-0.442 4.934,1.264 5.369,3.827l8.569,50.189c0.438,2.56 -1.253,4.98 -3.791,5.422c-2.539,0.443 -4.934,-1.263 -5.372,-3.826l-8.568,-50.189c-0.438,-2.561 1.255,-4.98 3.793,-5.423Z" style="fill:#c0292f;fill-rule:nonzero;"/><path d="M262.067,199.996c-0.17,0.002 -0.34,0.039 -0.496,0.106c-0.156,0.068 -0.299,0.166 -0.418,0.289c-0.118,0.123 -0.212,0.267 -0.276,0.426c-0.062,0.159 -0.092,0.329 -0.091,0.5l0,21.568c0,11.671 9.435,21.105 21.106,21.105c0.173,0.003 0.345,-0.029 0.503,-0.093c0.16,-0.065 0.306,-0.16 0.43,-0.281c0.121,-0.121 0.22,-0.265 0.285,-0.424c0.068,-0.159 0.102,-0.33 0.102,-0.502c0,-0.173 -0.034,-0.343 -0.102,-0.502c-0.065,-0.16 -0.164,-0.304 -0.285,-0.425c-0.124,-0.121 -0.27,-0.216 -0.43,-0.28c-0.158,-0.065 -0.33,-0.097 -0.503,-0.094c-10.275,-0 -18.505,-8.229 -18.505,-18.504l0,-21.568c0.004,-0.175 -0.028,-0.348 -0.094,-0.509c-0.066,-0.162 -0.162,-0.308 -0.285,-0.432c-0.124,-0.123 -0.27,-0.22 -0.432,-0.285c-0.162,-0.066 -0.334,-0.098 -0.509,-0.095Zm67.092,-0c-0.171,0.002 -0.339,0.039 -0.495,0.106c-0.158,0.068 -0.299,0.166 -0.419,0.289c-0.119,0.123 -0.212,0.267 -0.275,0.426c-0.062,0.159 -0.095,0.329 -0.091,0.5l-0,21.568c-0,10.275 -8.229,18.504 -18.504,18.504c-0.174,-0.003 -0.343,0.029 -0.503,0.094c-0.16,0.064 -0.307,0.159 -0.428,0.28c-0.124,0.121 -0.222,0.265 -0.288,0.425c-0.067,0.159 -0.1,0.329 -0.1,0.502c0,0.172 0.033,0.343 0.1,0.502c0.066,0.159 0.164,0.303 0.288,0.424c0.121,0.121 0.268,0.216 0.428,0.281c0.16,0.064 0.329,0.096 0.503,0.093c11.671,0 21.105,-9.434 21.105,-21.105l0,-21.568c0.002,-0.175 -0.029,-0.348 -0.094,-0.509c-0.066,-0.162 -0.164,-0.308 -0.288,-0.432c-0.121,-0.123 -0.27,-0.22 -0.43,-0.285c-0.162,-0.066 -0.335,-0.098 -0.509,-0.095Z" style="fill:#453737;fill-rule:nonzero;"/><path d="M331.693,197.389c-0.158,0.002 -0.316,0.032 -0.461,0.088c-0.145,0.055 -0.278,0.136 -0.388,0.236c-0.109,0.101 -0.196,0.22 -0.254,0.35c-0.06,0.13 -0.089,0.269 -0.085,0.41l0,29.797c0,19.547 -15.841,35.144 -35.39,35.144c-19.551,0 -35.391,-15.597 -35.391,-35.144l0,-29.193c0.002,-0.142 -0.027,-0.282 -0.087,-0.413c-0.059,-0.131 -0.148,-0.251 -0.26,-0.351c-0.114,-0.101 -0.247,-0.181 -0.393,-0.236c-0.149,-0.054 -0.307,-0.082 -0.467,-0.082c-0.16,-0 -0.318,0.028 -0.465,0.082c-0.148,0.055 -0.281,0.135 -0.395,0.236c-0.112,0.1 -0.2,0.22 -0.26,0.351c-0.058,0.131 -0.089,0.271 -0.087,0.413l0,29.193c0,20.571 16.806,37.277 37.805,37.277c20.997,-0 37.802,-16.706 37.802,-37.277l0,-29.797c0.002,-0.143 -0.027,-0.285 -0.089,-0.418c-0.059,-0.132 -0.15,-0.252 -0.264,-0.353c-0.113,-0.102 -0.25,-0.181 -0.401,-0.235c-0.148,-0.054 -0.31,-0.08 -0.47,-0.078Z" style="fill:#582920;fill-rule:nonzero;"/><path d="M310.212,315.599c1.691,-0.729 3.636,0.044 4.365,1.733l12.124,28.11c0.727,1.691 -0.046,3.637 -1.735,4.365c-1.689,0.729 -3.637,-0.044 -4.366,-1.733l-12.122,-28.11c-0.728,-1.691 0.045,-3.636 1.734,-4.365Z" style="fill:#9d2226;fill-rule:nonzero;"/><path d="M292.893,308.573c2.035,-0.877 4.377,0.054 5.255,2.088l14.591,33.836c0.878,2.035 -0.054,4.377 -2.088,5.254c-2.032,0.878 -4.377,-0.053 -5.254,-2.088l-14.592,-33.836c-0.877,-2.034 0.054,-4.377 2.088,-5.254Z" style="fill:#9d2226;fill-rule:nonzero;"/><path d="M262.663,343.853l-0,7.95c-0,1.469 -0.222,2.884 -0.633,4.217l77.531,-0c3.371,-0 6.084,-2.713 6.084,-6.083c-0,-3.371 -2.713,-6.084 -6.084,-6.084l-76.898,0Z" style="fill:#874e3a;fill-opacity:0.99;fill-rule:nonzero;"/><path d="M347.133,358.571l11.528,14.158c1.227,1.506 1.003,3.706 -0.505,4.932c-1.506,1.226 -3.706,1.001 -4.932,-0.505l-11.528,-14.156c-1.226,-1.506 -1.001,-3.706 0.505,-4.933c1.506,-1.226 3.706,-1.002 4.932,0.504Z" style="fill:#d53a40;fill-rule:nonzero;"/><path d="M258.613,367.839c2.505,0 4.52,2.015 4.52,4.52l-0,33.371c-0,2.505 -2.015,4.52 -4.52,4.52c-2.502,-0 -4.519,-2.015 -4.519,-4.52l-0,-33.371c-0,-2.505 2.017,-4.52 4.519,-4.52Z" style="fill:#d53a40;fill-rule:nonzero;"/><path d="M259.707,416.64l4.924,-0c3.129,-0 5.649,2.52 5.649,5.649l0,8.366c0,3.129 -2.52,5.649 -5.649,5.649l-4.924,0c-3.13,0 -5.65,-2.52 -5.65,-5.649l0,-8.366c0,-3.129 2.52,-5.649 5.65,-5.649Z" style="fill:#c0292f;fill-rule:nonzero;"/><path d="M281.113,379.024l22.518,5.95c4.097,1.082 6.523,5.251 5.441,9.348c-1.081,4.095 -5.252,6.523 -9.347,5.439l-22.519,-5.948c-4.097,-1.084 -6.523,-5.252 -5.441,-9.348c1.082,-4.097 5.25,-6.524 9.348,-5.441Z" style="fill:#b4272c;fill-rule:nonzero;"/><path d="M302.815,386.029l10.835,-5.804c2.701,-1.448 6.04,-0.437 7.486,2.262c1.448,2.701 0.438,6.041 -2.263,7.489l-10.834,5.803c-2.7,1.446 -6.039,0.438 -7.487,-2.263c-1.446,-2.701 -0.438,-6.041 2.263,-7.487Z" style="fill:#b4272c;fill-rule:nonzero;"/><path d="M199.391,307.025l24.167,-19.596c1.084,-0.879 2.665,-0.715 3.544,0.37c0.88,1.084 0.716,2.665 -0.37,3.544l-24.166,19.598c-1.084,0.879 -2.665,0.713 -3.545,-0.371c-0.879,-1.085 -0.714,-2.666 0.37,-3.545Z" style="fill:#fffffe;fill-rule:nonzero;"/><path d="M267.552,406.878l7.518,3.619c3.513,1.691 4.98,5.882 3.289,9.395c-1.691,3.515 -5.882,4.983 -9.395,3.292l-7.518,-3.619c-3.515,-1.691 -4.982,-5.883 -3.291,-9.396c1.692,-3.515 5.882,-4.982 9.397,-3.291Z" style="fill:#d53a40;fill-rule:nonzero;"/><path d="M276.256,412.336l9.039,0c2.261,0 4.083,1.822 4.083,4.086c0,2.261 -1.822,4.084 -4.083,4.084l-9.039,-0c-2.264,-0 -4.086,-1.823 -4.086,-4.084c0,-2.264 1.822,-4.086 4.086,-4.086Z" style="fill:#d53a40;fill-rule:nonzero;"/><path d="M274.858,189.412c-5.921,2.26 -11.191,5.418 -15.514,9.274l0,1.883c0,16.614 13.376,29.989 29.988,29.989l10.817,-0c16.614,-0 29.99,-13.375 29.99,-29.989l-0,-4.385c-3.598,-2.685 -7.705,-4.943 -12.194,-6.681l-0.883,0l0,4.852c0,8.537 -11.005,15.411 -19.543,15.411l-5.557,-0c-8.538,-0 -15.411,-6.874 -15.411,-15.411l-0,-4.855c-0.571,-0.002 -1.136,-0.031 -1.693,-0.088Z" style="fill:#5b5b5b;fill-rule:nonzero;"/><path d="M313.389,88.876c15.915,9.974 18.148,19.753 17.816,34.449l-18.558,-0.62c-0.995,-15.235 -5.717,-29.696 -21.473,-35.825c-2.769,-1.278 13.481,-1.748 22.215,1.996Z" style="fill:#efead9;fill-rule:nonzero;"/><path d="M296.241,85.952c-1.4,-0.013 -2.58,0.036 -3.498,0.126c3.06,2.074 5.692,4.285 7.923,6.515c2.03,1.801 3.738,3.827 5.171,6.032c2.566,3.519 4.22,6.761 5.175,9.146c1.762,4.409 1.98,10.758 2.252,14.953l6.897,0.231c0.081,-14.465 -3.353,-27.088 -20.17,-36.845c-1.336,-0.096 -2.607,-0.147 -3.75,-0.158Z" style="fill:#50691d;fill-opacity:0.99;fill-rule:nonzero;"/><path d="M289.191,86.711c11.195,6.099 22.698,19.687 22.698,33.236l0,33.525c0,18.722 -14.397,33.963 -32.951,35.667l11,-0c14.401,-5.641 24.552,-19.454 24.552,-35.667l0,-33.525c0,-13.369 -10.257,-26.706 -21.271,-33.821l-2.973,-0c-0.239,-0.073 -1.407,0.299 -1.055,0.585Z" style="fill:#be9775;fill-rule:nonzero;"/><path d="M307.95,87.212l0.068,0.16c10.693,6.882 15.854,15.732 17.821,20.648c1.82,4.554 1.849,11.507 2.169,15.197l3.203,0.108c0.331,-14.697 -1.903,-24.475 -17.816,-34.449c-1.614,-0.692 -3.486,-1.239 -5.445,-1.664Z" style="fill:#9d2226;fill-rule:nonzero;"/><path d="M251.744,122.236l84.997,0c1.01,0 1.824,0.814 1.824,1.826l-0,2.781c-0,1.011 -0.814,1.825 -1.824,1.825l-84.997,-0c-1.013,-0 -1.826,-0.814 -1.826,-1.825l-0,-2.781c-0,-1.012 0.813,-1.826 1.826,-1.826Z" style="fill:#5b5b5b;fill-rule:nonzero;"/><path d="M270.095,477.159l33.366,-4.857c0.88,-0.129 1.689,0.477 1.817,1.354l0.462,3.172c0.128,0.877 -0.476,1.687 -1.355,1.814l-33.366,4.859c-0.879,0.127 -1.689,-0.476 -1.816,-1.354l-0.461,-3.171c-0.129,-0.878 0.476,-1.688 1.353,-1.817Z" style="fill:#bf9876;fill-opacity:0.99;fill-rule:nonzero;"/><path d="M275.993,474.564l2.434,-0c1.83,-0 3.303,1.471 3.303,3.301l-0,17.555c-0,1.83 -1.473,3.303 -3.303,3.303l-2.434,0c-1.829,0 -3.302,-1.473 -3.302,-3.303l-0,-17.555c-0,-1.83 1.473,-3.301 3.302,-3.301Z" style="fill:#d7bfaa;fill-opacity:0.99;fill-rule:nonzero;"/><path d="M335.42,199.823c-0.172,0.003 -0.34,0.039 -0.496,0.107c-0.158,0.068 -0.299,0.165 -0.418,0.288c-0.12,0.123 -0.212,0.268 -0.276,0.427c-0.062,0.158 -0.092,0.328 -0.09,0.499l-0,36.333c-0,23.834 -17.08,42.851 -38.158,42.851c-21.078,-0 -38.155,-19.017 -38.155,-42.851l-0,-35.596c0.002,-0.173 -0.031,-0.344 -0.095,-0.504c-0.063,-0.16 -0.16,-0.305 -0.281,-0.428c-0.12,-0.123 -0.264,-0.22 -0.424,-0.287c-0.158,-0.066 -0.33,-0.101 -0.502,-0.101c-0.171,0 -0.343,0.035 -0.501,0.101c-0.16,0.067 -0.305,0.164 -0.424,0.287c-0.122,0.123 -0.218,0.268 -0.282,0.428c-0.063,0.16 -0.096,0.331 -0.094,0.504l-0,35.596c-0,25.081 18.118,45.452 40.758,45.452c22.64,-0 40.759,-20.371 40.759,-45.452l-0,-36.333c0.003,-0.174 -0.029,-0.347 -0.095,-0.509c-0.065,-0.161 -0.162,-0.308 -0.285,-0.431c-0.124,-0.124 -0.27,-0.221 -0.432,-0.286c-0.162,-0.066 -0.336,-0.098 -0.509,-0.095Z" style="fill:#be9775;fill-rule:nonzero;"/><path d="M288.721,238.136c-3.966,-0 -7.2,3.233 -7.2,7.199c0,3.967 3.234,7.2 7.2,7.2l12.538,-0c3.969,-0 7.2,-3.233 7.2,-7.2c0,-3.966 -3.231,-7.199 -7.2,-7.199l-12.538,-0Zm-0,2.601l12.538,0c2.571,0 4.599,2.028 4.599,4.598c0,2.571 -2.028,4.599 -4.599,4.599l-12.538,-0c-2.57,-0 -4.599,-2.028 -4.599,-4.599c0,-2.57 2.029,-4.598 4.599,-4.598Z" style="fill:#be9775;fill-rule:nonzero;"/><path d="M321.009,190.8l0,2.834c0,11.05 -8.852,19.902 -19.902,19.902l-10.08,0c-11.05,0 -19.906,-8.852 -19.906,-19.902l0,-2.626c-0.883,0.415 -1.754,0.842 -2.601,1.298l0,1.328c0,12.446 10.061,22.503 22.507,22.503l10.08,0c12.446,0 22.505,-10.057 22.505,-22.503l0,-1.547c-0.85,-0.448 -1.718,-0.88 -2.603,-1.287Zm5.655,3.03l0,3.096c0,13.941 -11.183,25.125 -25.125,25.125l-10.95,0c-13.94,0 -25.123,-11.184 -25.123,-25.125l-0,-2.824c-0.889,0.562 -1.762,1.142 -2.601,1.751l-0,1.073c-0,15.337 12.388,27.726 27.724,27.726l10.95,0c15.338,0 27.726,-12.389 27.726,-27.726l0,-1.37c-0.84,-0.598 -1.708,-1.174 -2.601,-1.726Z" style="fill:#525252;fill-rule:nonzero;"/><path d="M285.619,208.5l19.221,-0c3.5,-0 6.316,2.817 6.316,6.315l0,8.902c0,3.499 -2.816,6.315 -6.316,6.315l-19.221,0c-3.5,0 -6.315,-2.816 -6.315,-6.315l0,-8.902c0,-3.498 2.815,-6.315 6.315,-6.315Z" style="fill:#b48760;fill-rule:nonzero;"/><path d="M295.616,210.441c4.911,-0 8.865,3.954 8.865,8.865c0,4.911 -3.954,8.864 -8.865,8.864c-4.911,0 -8.864,-3.953 -8.864,-8.864c0,-4.911 3.953,-8.865 8.864,-8.865Z" style="fill:#be9775;fill-rule:nonzero;"/><path d="M379.649,244.628l-25.231,10.338c-0.972,0.398 -1.518,1.538 -1.036,2.471l1.103,2.137c0.397,0.97 1.5,1.432 2.47,1.033l25.231,-10.337c0.972,-0.398 1.433,-1.5 1.036,-2.471l-1.103,-2.136c-0.48,-0.933 -1.5,-1.433 -2.47,-1.035Z" style="fill:#be9775;fill-rule:nonzero;"/><path d="M268.26,88.692l66.977,26.982c0.678,0.274 1.004,1.041 0.73,1.721c-0.271,0.679 -1.041,1.006 -1.719,0.732l-66.975,-26.982c-0.681,-0.273 -1.007,-1.041 -0.733,-1.72c0.274,-0.68 1.041,-1.007 1.72,-0.733Z" style="fill:#c0292f;fill-rule:nonzero;"/><path d="M265.74,125.017c-0,0.799 -0.149,1.59 -0.436,2.328c-0.289,0.739 -0.711,1.409 -1.244,1.974c-0.534,0.565 -1.166,1.013 -1.86,1.319c-0.696,0.306 -1.442,0.463 -2.196,0.463c-0.754,-0 -1.498,-0.157 -2.195,-0.463c-0.696,-0.306 -1.328,-0.754 -1.86,-1.319c-0.534,-0.565 -0.957,-1.235 -1.244,-1.974c-0.289,-0.738 -0.437,-1.529 -0.437,-2.328c-0,-0.799 0.148,-1.59 0.437,-2.328c0.287,-0.738 0.71,-1.408 1.244,-1.973c0.532,-0.565 1.164,-1.013 1.86,-1.319c0.697,-0.306 1.441,-0.463 2.195,-0.463c1.521,-0 2.981,0.641 4.056,1.782c1.076,1.141 1.68,2.688 1.68,4.301Z" style="fill:#be9775;fill-rule:nonzero;"/><path d="M403.974,294.702l10.298,-0c0.428,-0 0.771,0.343 0.771,0.771l0,247.498c0,0.427 -0.343,0.772 -0.771,0.772l-10.298,-0c-0.426,-0 -0.771,-0.345 -0.771,-0.772l-0,-247.498c-0,-0.428 0.345,-0.771 0.771,-0.771Z" style="fill:#a56d4e;fill-opacity:0.99;fill-rule:nonzero;"/><path d="M409.124,76.29c7.126,0 16.429,10.6 15.992,23.745l-3.13,94.008c-0.437,13.144 -5.736,23.744 -12.862,23.744c-7.125,0 -12.425,-10.6 -12.863,-23.744l-3.127,-94.008c-0.438,-13.145 8.865,-23.745 15.99,-23.745Z" style="fill:#707070;fill-rule:nonzero;"/><path d="M400.561,187.191l17.122,-0c2.383,-0 4.301,2.29 4.301,5.134l0,20.328c0,2.845 -1.918,5.134 -4.301,5.134l-17.122,0c-2.383,0 -4.302,-2.289 -4.302,-5.134l0,-20.328c0,-2.844 1.919,-5.134 4.302,-5.134Z" style="fill:#707070;fill-rule:nonzero;"/><path d="M424.863,107.684l-31.222,7.597l1.251,37.551l28.7,-6.985l1.271,-38.163Zm-1.733,52.042l-27.784,6.76l0.715,21.459l26.344,-6.411l0.725,-21.808Z" style="fill:#7a7a7a;fill-rule:nonzero;"/><path d="M403.405,294.702l11.436,-0c0.112,-0 0.202,0.091 0.202,0.202l0,65.084c0,0.114 -0.09,0.204 -0.202,0.204l-11.436,0c-0.112,0 -0.202,-0.09 -0.202,-0.204l-0,-65.084c-0,-0.111 0.09,-0.202 0.202,-0.202Z" style="fill:#8c5d42;fill-opacity:0.99;fill-rule:nonzero;"/><path d="M409.124,200.112c-4.369,0 -7.886,5.271 -7.886,11.819l-0,28.199l15.772,0l-0,-28.199c-0,-6.548 -3.517,-11.819 -7.886,-11.819Zm-7.886,82.468l-0,28.247c-0,6.548 3.517,11.821 7.886,11.821c4.369,0 7.886,-5.273 7.886,-11.821l-0,-28.247l-15.772,-0Z" style="fill:#5b5b5b;fill-rule:nonzero;"/><path d="M403.924,309.095l10.398,0c2.566,0 4.633,2.067 4.633,4.634l0,4.621c0,2.569 -2.067,4.634 -4.633,4.634l-10.398,-0c-2.567,-0 -4.634,-2.065 -4.634,-4.634l0,-4.621c0,-2.567 2.067,-4.634 4.634,-4.634Z" style="fill:#5b5b5b;fill-rule:nonzero;"/><path d="M409.124,96.854c1.498,0 2.703,1.479 2.703,3.316l0,115.765c0,1.837 -1.205,3.316 -2.703,3.316c-1.498,-0 -2.705,-1.479 -2.705,-3.316l-0,-115.765c-0,-1.837 1.207,-3.316 2.705,-3.316Z" style="fill:#5b5b5b;fill-rule:nonzero;"/><path d="M412.178,214.881c1.203,-0 2.171,0.969 2.171,2.173l0,14.079c0,1.203 -0.968,2.172 -2.171,2.172c-1.205,0 -2.173,-0.969 -2.173,-2.172l0,-14.079c0,-1.204 0.968,-2.173 2.173,-2.173Z" style="fill:#707070;fill-rule:nonzero;"/><path d="M410.267,311l3.826,0c1.203,0 2.171,0.97 2.171,2.173l-0,1.217c-0,1.205 -0.968,2.173 -2.171,2.173l-3.826,-0c-1.203,-0 -2.173,-0.968 -2.173,-2.173l0,-1.217c0,-1.203 0.97,-2.173 2.173,-2.173Z" style="fill:#707070;fill-rule:nonzero;"/><path d="M223.103,296.507l-4.565,3.7c-1.68,1.361 -1.938,3.829 -0.577,5.51l0.771,0.951c1.362,1.681 3.83,1.94 5.511,0.576l4.566,-3.7c1.681,-1.361 1.939,-3.829 0.576,-5.51l-0.771,-0.951c-1.361,-1.681 -3.829,-1.939 -5.511,-0.576Z" style="fill:#7a7a7a;fill-rule:nonzero;"/><path d="M229.43,262.206c-0,-2.106 -1.705,-3.81 -3.81,-3.81c-2.104,-0 -3.81,1.704 -3.81,3.81l-0,0.244c-0,2.104 1.706,3.81 3.81,3.81c2.105,0 3.81,-1.706 3.81,-3.81l-0,-0.244Z" style="fill:#7a7a7a;fill-rule:nonzero;"/><path d="M376.228,247.642l-0.37,0c-1.153,0 -2.088,0.936 -2.088,2.09c-0,1.154 0.935,2.089 2.088,2.089l0.37,0c1.153,0 2.088,-0.935 2.088,-2.089c0,-1.154 -0.935,-2.09 -2.088,-2.09Z" style="fill:#d2b69f;fill-rule:nonzero;"/><path d="M277.844,122.4l-8.971,0c-0.544,0 -0.983,0.44 -0.983,0.983l-0,4.179c-0,0.543 0.439,0.984 0.983,0.984l8.971,-0c0.544,-0 0.984,-0.441 0.984,-0.984l-0,-4.179c-0,-0.543 -0.44,-0.983 -0.984,-0.983Z" style="fill:#50691e;fill-rule:nonzero;"/><path d="M290.215,122.4l-8.971,0c-0.544,0 -0.984,0.44 -0.984,0.983l0,4.179c0,0.543 0.44,0.984 0.984,0.984l8.971,-0c0.544,-0 0.984,-0.441 0.984,-0.984l-0,-4.179c-0,-0.543 -0.44,-0.983 -0.984,-0.983Z" style="fill:#9d2226;fill-rule:nonzero;"/><path d="M302.59,122.4l-8.972,0c-0.543,0 -0.983,0.44 -0.983,0.983l0,4.179c0,0.543 0.44,0.984 0.983,0.984l8.972,-0c0.544,-0 0.983,-0.441 0.983,-0.984l0,-4.179c0,-0.543 -0.439,-0.983 -0.983,-0.983Z" style="fill:#efead9;fill-rule:nonzero;"/><path d="M314.964,122.4l-8.971,0c-0.544,0 -0.983,0.44 -0.983,0.983l-0,4.179c-0,0.543 0.439,0.984 0.983,0.984l8.971,-0c0.544,-0 0.984,-0.441 0.984,-0.984l-0,-4.179c-0,-0.543 -0.44,-0.983 -0.984,-0.983Z" style="fill:#9d2226;fill-rule:nonzero;"/><path d="M252.341,122.4l-2.337,0c-0.541,0 -0.983,0.44 -0.983,0.983l0,4.179c0,0.543 0.442,0.984 0.983,0.984l2.337,-0c0.542,-0 0.984,-0.441 0.984,-0.984l-0,-4.179c-0,-0.543 -0.442,-0.983 -0.984,-0.983Z" style="fill:#9d2226;fill-rule:nonzero;"/><path d="M327.37,122.4l-8.973,0c-0.542,0 -0.984,0.44 -0.984,0.983l0,4.179c0,0.543 0.442,0.984 0.984,0.984l8.973,-0c0.542,-0 0.981,-0.441 0.981,-0.984l0,-4.179c0,-0.543 -0.439,-0.983 -0.981,-0.983Z" style="fill:#50691e;fill-rule:nonzero;"/><defs><linearGradient id="_Linear1" x1="0" y1="0" x2="1" y2="0" gradientUnits="userSpaceOnUse" gradientTransform="matrix(5.89964,-133.723,133.723,5.89964,140.01,314.851)"><stop offset="0" style="stop-color:#694622;stop-opacity:1"/><stop offset="1" style="stop-color:#54381b;stop-opacity:1"/></linearGradient></defs></svg>