<svg width="274" height="250" viewBox="0 0 274 250" fill="none" xmlns="http://www.w3.org/2000/svg">
<path d="M252.763 121.271C252.763 136.272 249.769 151.126 243.951 164.985C238.134 178.844 229.607 191.437 218.857 202.044C208.108 212.651 195.347 221.065 181.302 226.806C167.257 232.547 152.204 235.501 137.003 235.501C121.801 235.501 106.748 232.547 92.703 226.806C78.6583 221.065 65.897 212.651 55.1476 202.044C44.3983 191.437 35.8714 178.844 30.0539 164.985C24.2364 151.126 21.2422 136.272 21.2422 121.271C21.2422 90.975 33.4383 61.92 55.1476 40.4976C76.8569 19.0752 106.301 7.04028 137.003 7.04028C152.204 7.04028 167.257 9.99494 181.302 15.7356C195.347 21.4762 208.108 29.8903 218.857 40.4976C229.607 51.1049 238.134 63.6976 243.951 77.5566C249.769 91.4157 252.763 106.27 252.763 121.271Z" fill="#99D5DA"/>
<path d="M162.529 12.6782C158.934 12.6782 156.039 15.5734 156.039 19.1692V27.1021C156.039 28.7697 156.666 30.2817 157.693 31.4289H91.8528C88.257 31.4289 85.3625 34.3241 85.3625 37.9199C85.3625 41.5158 88.257 44.4102 91.8528 44.4102H168.299C171.895 44.4102 174.79 41.5158 174.79 37.9199C174.79 36.2523 174.162 34.7403 173.135 33.5931H211.165C199.814 24.2634 186.757 17.164 172.701 12.6782H162.529ZM178.756 47.2953C174.162 47.2953 170.462 50.9946 170.462 55.5893V57.0311C170.462 61.6258 174.162 65.3251 178.756 65.3251H191.934C190.688 66.7754 189.935 68.6629 189.935 70.734V73.619C189.935 78.2137 193.634 81.9123 198.229 81.9123H245.581C243.048 75.1403 239.871 68.6203 236.091 62.44H214.619C215.865 60.9897 216.619 59.102 216.619 57.0311V55.5893C216.619 50.9946 212.92 47.2953 208.325 47.2953H178.756ZM30.6959 76.1429C27.461 83.5613 25.0325 91.2974 23.4512 99.2212H85.3639C86.8553 101.401 89.3612 102.827 92.2133 102.827H178.756C183.351 102.827 187.05 99.1279 187.05 94.5332C187.05 89.9385 183.351 86.2392 178.756 86.2392H140.081C139.375 80.5328 134.537 76.1429 128.633 76.1429H30.6959ZM234.288 99.9421C230.892 99.9421 228.158 102.676 228.158 106.072V112.923H149.909C146.513 112.923 143.779 115.657 143.779 119.053C143.779 122.449 146.513 125.184 149.909 125.184H252.565C252.654 123.881 252.72 122.576 252.763 121.27C252.736 114.111 252.026 106.97 250.644 99.9421H234.288Z" fill="#B3E0E4"/>
<path d="M183.804 149.704C176.19 149.704 169.226 151.853 163.804 155.438C161.048 153.205 157.534 151.868 153.695 151.868H88.7874C82.7435 151.868 77.5039 155.178 74.7666 160.089H50.3838C33.0039 160.089 19.0123 171.282 19.0123 185.186C19.0123 188.578 19.8472 191.808 21.3584 194.754C14.137 196.529 8.91602 201.89 8.91602 208.264C8.91602 216.095 16.796 222.4 26.5847 222.4H32.3547C41.2881 222.4 48.6282 217.149 49.8435 210.279C50.0236 210.282 50.203 210.284 50.3838 210.284H148.466C152.924 210.284 157.158 209.545 160.991 208.216C166.702 213.047 174.798 216.054 183.804 216.054H226.354C229.545 216.054 232.622 215.675 235.519 214.972C237.821 220.635 244.451 224.708 252.317 224.708C262.105 224.708 269.986 218.403 269.986 210.572V200.187C269.986 193.867 264.852 188.544 257.726 186.724V174.801C257.726 160.897 243.734 149.704 226.354 149.704H183.804Z" fill="#BDA559" fill-opacity="0.996078"/>
<path d="M26.4154 204.461H257.426C266.608 204.461 274 211.853 274 221.034C274 230.216 266.608 237.608 257.426 237.608H26.4154C17.2336 237.608 9.8418 230.216 9.8418 221.034C9.8418 211.853 17.2336 204.461 26.4154 204.461Z" fill="#B6951A"/>
<path d="M52.6342 135.522C56.684 135.522 59.9442 139.868 59.9442 145.267V199.606C59.9442 205.005 56.684 209.352 52.6342 209.352C48.5845 209.352 45.3242 205.005 45.3242 199.606V145.267C45.3242 139.868 48.5845 135.522 52.6342 135.522V135.522Z" fill="#694621" fill-opacity="0.996078"/>
<path d="M87.1253 12.8643C85.3945 12.8878 83.9624 14.2175 83.8108 15.9418L82.8877 24.963L74.8747 16.174C74.1916 15.4036 73.1941 14.9874 72.166 15.0438C69.3036 15.1996 67.9278 18.6288 69.8889 20.7198L81.0673 32.9809C81.3327 33.2698 81.6465 33.5102 81.9946 33.6913L80.5639 47.6738C80.5193 48.1021 80.5572 48.535 80.6754 48.949L76.9754 50.3623C76.1065 50.6941 75.4133 51.37 75.0594 52.2301L63.5248 80.2404L58.4136 66.0857L56.276 27.6368C56.2035 25.8678 54.7757 24.4559 53.0061 24.4031C51.0111 24.3439 49.4012 26.0202 49.5409 28.0112L50.5219 45.6666L36.2703 34.2087C35.658 33.7018 34.8864 33.4275 34.0915 33.4341C30.8978 33.4614 29.5268 37.4995 32.0438 39.4656L50.4341 54.2513C50.6153 54.402 50.8118 54.5333 51.0204 54.6431L51.7044 66.9551C51.7227 67.2817 51.7885 67.604 51.8996 67.9117L65.963 106.856C66.0283 107.045 66.1112 107.222 66.2049 107.391L59.8017 109.46C58.4975 109.881 57.5781 111.05 57.4752 112.417L54.1837 123.357L47.9757 98.2186C47.9291 97.655 47.7417 97.1123 47.4305 96.6401L34.9582 77.7562L25.3346 56.3673C24.7813 55.0914 23.5018 54.2858 22.1121 54.3384C19.6999 54.4287 18.1604 56.9494 19.1817 59.1366L28.9182 80.771C28.9922 80.9367 29.0794 81.0962 29.179 81.2479L41.3271 99.6409L45.4978 144.625C45.6328 146.498 46.635 144.969 48.507 144.812C48.7663 144.79 49.1735 144.754 49.6497 144.708C49.5569 146.758 49.471 148.784 49.4364 150.127C49.3877 152.011 49.3695 153.677 49.3994 155.044C49.4293 156.41 49.3813 157.236 49.755 158.544C50.9898 162.869 59.7481 149.479 59.7481 149.479L59.6484 147.685L59.6853 143.089L63.0591 130.391L68.3823 118.601L95.0233 105.17C95.6983 104.952 96.2874 104.527 96.707 103.955L112.725 82.1096L144.524 76.7265C144.981 76.6496 145.418 76.4793 145.807 76.2259L152.765 71.6759L168.664 73.3666C169.387 73.4438 170.117 73.2848 170.743 72.9134L193.821 59.2105C196.788 57.5069 195.627 52.9787 192.206 52.9126C191.562 52.9004 190.927 53.0731 190.378 53.4104L168.264 66.5389L160.497 65.7127C160.859 64.5154 160.51 63.1721 159.633 62.2922L159.093 52.3172L167.001 36.156C168.112 33.9652 166.583 31.3599 164.129 31.2602C162.776 31.2058 161.521 31.9663 160.943 33.1914L152.647 50.1405C152.395 50.657 152.279 51.2294 152.31 51.8034L152.943 63.499L142.705 70.1936L127.92 72.6959L132.671 65.8668C132.874 65.5759 133.029 65.255 133.132 64.9158L138.74 46.301C139.437 44.0964 137.76 41.8598 135.448 41.9114C133.971 41.9443 132.688 42.934 132.281 44.3537L126.826 62.4546L118.974 73.7431C118.852 73.9091 118.751 74.0833 118.664 74.2618L110.251 75.6855C109.386 75.8316 108.612 76.3085 108.093 77.0158L91.9109 99.0852L72.4979 105.357C72.4664 105.092 72.4064 104.827 72.3083 104.566L66.9307 89.6729C66.9616 89.6078 66.9905 89.5418 67.0172 89.4749L80.741 56.1435L107.429 45.9559C107.986 45.7423 108.476 45.3851 108.85 44.9205L121.598 29.1121C123.459 26.8698 121.793 23.482 118.881 23.5867C117.888 23.6231 116.961 24.0955 116.349 24.8779L104.172 39.9766L87.4816 46.3505L90.5221 16.6272C90.7574 14.6048 89.1611 12.8365 87.1253 12.8643V12.8643Z" fill="url(#paint0_linear_2065_11438)"/>
<path d="M43.5322 148.622C38.3382 148.622 34.1569 152.803 34.1569 157.997V161.424C32.8894 160.881 31.4921 160.578 30.021 160.578C24.2294 160.578 19.5664 165.241 19.5664 171.032V213.869C19.5664 219.66 24.2294 224.323 30.021 224.323C35.257 224.323 39.5693 220.512 40.3488 215.502C41.342 215.858 42.4134 216.053 43.5322 216.053C48.7262 216.053 52.9076 211.872 52.9076 206.678V202.455C54.4055 205.191 57.3092 207.038 60.6605 207.038C65.5549 207.038 69.4948 203.098 69.4948 198.204V185.313C69.786 185.372 70.0873 185.403 70.3963 185.403C72.8934 185.403 74.9038 183.393 74.9038 180.896V168.635C74.9038 166.138 72.8934 164.128 70.3963 164.128C67.8992 164.128 65.8889 166.138 65.8889 168.635V171.963C64.4266 170.891 62.6207 170.258 60.6605 170.258C57.3092 170.258 54.4055 172.106 52.9076 174.842V157.997C52.9076 152.803 48.7262 148.622 43.5322 148.622V148.622ZM83.7381 148.983C79.443 148.983 75.9858 152.44 75.9858 156.735V201.81C75.9858 206.105 79.443 209.563 83.7381 209.563C88.0331 209.563 91.491 206.105 91.491 201.81V156.735C91.491 152.44 88.0331 148.983 83.7381 148.983ZM208.144 156.194C205.646 156.194 203.636 158.205 203.636 160.702V197.483C203.636 199.98 205.646 201.991 208.144 201.991H212.11C214.607 201.991 216.617 199.98 216.617 197.483V195.603C217.419 196.843 218.81 197.663 220.403 197.663H225.091C227.588 197.663 229.599 195.653 229.599 193.155V170.078C229.599 167.581 227.588 165.57 225.091 165.57H220.403C218.81 165.57 217.419 166.39 216.617 167.631V160.702C216.617 158.205 214.607 156.194 212.11 156.194H208.144ZM106.636 157.997C102.441 157.997 99.0634 161.375 99.0634 165.57V169.572C95.2093 169.933 92.2119 173.158 92.2119 177.109V198.385C92.2119 202.408 95.3198 205.678 99.2754 205.938C100.074 209.266 103.056 211.726 106.636 211.726C110.831 211.726 114.209 208.349 114.209 204.154V165.57C114.209 161.375 110.831 157.997 106.636 157.997V157.997ZM160.545 161.603C158.047 161.603 156.038 163.614 156.038 166.111V201.81C156.038 204.307 158.047 206.317 160.545 206.317H170.281C171.299 206.317 172.233 205.979 172.986 205.415V207.579C172.986 210.076 174.996 212.087 177.493 212.087H184.705C186.276 212.087 187.653 211.291 188.459 210.079C189.217 210.658 190.163 211.005 191.195 211.005H198.768C201.265 211.005 203.275 208.995 203.275 206.498V170.438C203.275 167.941 201.265 165.931 198.768 165.931H191.195C188.698 165.931 186.688 167.941 186.688 170.438V170.719C186.089 170.427 185.418 170.258 184.705 170.258H177.493C176.475 170.258 175.541 170.596 174.789 171.161V166.111C174.789 163.614 172.778 161.603 170.281 161.603H160.545ZM129.173 164.849C126.676 164.849 124.666 166.859 124.666 169.356V202.531C124.666 205.028 126.676 207.038 129.173 207.038H145.039C147.536 207.038 149.547 205.028 149.547 202.531V169.356C149.547 166.859 147.536 164.849 145.039 164.849H129.173ZM236.27 170.258C233.773 170.258 231.762 172.268 231.762 174.765V214.791C231.762 217.288 233.773 219.299 236.27 219.299H241.318C243.815 219.299 245.826 217.288 245.826 214.791V174.765C245.826 172.268 243.815 170.258 241.318 170.258H236.27ZM252.136 196.942C249.639 196.942 247.629 198.952 247.629 201.449V218.758C247.629 221.255 249.639 223.265 252.136 223.265H255.02C257.517 223.265 259.528 221.255 259.528 218.758V201.449C259.528 198.952 257.517 196.942 255.02 196.942H252.136Z" fill="#B6951A"/>
<path d="M87.6673 182.518H132.095C136.17 182.518 139.45 185.799 139.45 189.873V219.156C139.45 223.231 136.17 226.511 132.095 226.511H87.6673C83.5927 226.511 80.3125 223.231 80.3125 219.156V189.873C80.3125 185.799 83.5927 182.518 87.6673 182.518Z" fill="#8C7B21"/>
<path d="M137.79 178.912H151.568C155.642 178.912 158.923 182.193 158.923 186.267V229.974C158.923 234.048 155.642 237.329 151.568 237.329H137.79C133.716 237.329 130.436 234.048 130.436 229.974V186.267C130.436 182.193 133.716 178.912 137.79 178.912Z" fill="#8C7B21"/>
<path d="M178.213 190.451H182.901C195.786 190.451 206.159 200.825 206.159 213.71C206.159 226.595 195.786 236.968 182.901 236.968H178.213C165.328 236.968 154.955 226.595 154.955 213.71C154.955 200.825 165.328 190.451 178.213 190.451Z" fill="#8C7B21"/>
<path d="M119.077 174.946C122.773 174.946 125.748 177.921 125.748 181.617V189.91C125.748 193.606 122.773 196.581 119.077 196.581C115.382 196.581 112.406 193.606 112.406 189.91V181.617C112.406 177.921 115.382 174.946 119.077 174.946Z" fill="#8C7B21"/>
<path d="M162.347 184.321H169.198C172.894 184.321 175.869 187.297 175.869 190.992V206.137C175.869 209.833 172.894 212.808 169.198 212.808H162.347C158.651 212.808 155.676 209.833 155.676 206.137V190.992C155.676 187.297 158.651 184.321 162.347 184.321V184.321Z" fill="#8C7B21"/>
<path d="M186.688 185.042C188.686 185.042 190.294 186.651 190.294 188.648V201.269C190.294 203.267 188.686 204.875 186.688 204.875C184.69 204.875 183.082 203.267 183.082 201.269V188.648C183.082 186.651 184.69 185.042 186.688 185.042Z" fill="#8C7B21"/>
<path d="M46.3775 185.289C54.1187 185.289 60.3508 191.521 60.3508 199.263V220.502C60.3508 228.243 54.1187 234.475 46.3775 234.475C38.6364 234.475 32.4043 228.243 32.4043 220.502V199.263C32.4043 191.521 38.6364 185.289 46.3775 185.289Z" fill="#8C7B21"/>
<path d="M78.0294 168.77H79.4543C90.846 168.77 100.017 177.941 100.017 189.333V210.307C100.017 221.698 90.846 230.869 79.4543 230.869H78.0294C66.6377 230.869 57.4668 221.698 57.4668 210.307V189.333C57.4668 177.941 66.6377 168.77 78.0294 168.77Z" fill="#8C7B21"/>
<path d="M209.055 175.064H220.955C230.943 175.064 238.984 181.574 238.984 189.66V221.77C238.984 229.856 230.943 236.366 220.955 236.366H209.055C199.067 236.366 191.025 229.856 191.025 221.77V189.66C191.025 181.574 199.067 175.064 209.055 175.064Z" fill="#8C7B21"/>
<path d="M46.3657 218.339H227.64C236.335 218.339 243.334 225.338 243.334 234.033C243.334 242.727 236.335 249.726 227.64 249.726H46.3657C37.6713 249.726 30.6719 242.727 30.6719 234.033C30.6719 225.338 37.6713 218.339 46.3657 218.339Z" fill="#B78260"/>
<path d="M42.5794 218.339H231.426C238.023 218.339 243.334 223.65 243.334 230.246C243.334 236.843 238.023 242.154 231.426 242.154H42.5794C35.9826 242.154 30.6719 236.843 30.6719 230.246C30.6719 223.65 35.9826 218.339 42.5794 218.339Z" fill="#BCA068"/>
<path d="M82.4976 203.633C84.3217 203.633 85.7902 205.478 85.7902 207.77V220.94C85.7902 223.232 84.3217 225.077 82.4976 225.077C80.6736 225.077 79.2051 223.232 79.2051 220.94V207.77C79.2051 205.478 80.6736 203.633 82.4976 203.633Z" fill="#898D44"/>
<path d="M71.3009 211.479C72.505 210.236 74.475 210.205 75.718 211.409L84.8135 220.22C86.0564 221.424 86.0877 223.394 84.8836 224.637C83.6795 225.88 81.7095 225.912 80.4666 224.708L71.3711 215.896C70.1281 214.692 70.0969 212.722 71.3009 211.479Z" fill="#898D44"/>
<path d="M93.6249 211.125C94.8679 212.329 94.8992 214.299 93.6951 215.542L84.8838 224.637C83.6797 225.88 81.7097 225.912 80.4668 224.708C79.2238 223.503 79.1925 221.533 80.3966 220.291L89.2079 211.195C90.412 209.952 92.382 209.921 93.6249 211.125Z" fill="#898D44"/>
<path d="M172.172 201.811C174.12 201.811 175.688 203.781 175.688 206.228V220.291C175.688 222.738 174.12 224.708 172.172 224.708C170.224 224.708 168.656 222.738 168.656 220.291V206.228C168.656 203.781 170.224 201.811 172.172 201.811Z" fill="#BCA068"/>
<path d="M160.216 210.189C161.502 208.862 163.606 208.828 164.933 210.114L174.645 219.523C175.972 220.808 176.006 222.912 174.72 224.239C173.434 225.566 171.331 225.6 170.003 224.314L160.291 214.905C158.964 213.62 158.931 211.516 160.216 210.189Z" fill="#BCA068"/>
<path d="M184.054 209.81C185.382 211.096 185.415 213.2 184.129 214.527L174.721 224.239C173.435 225.566 171.331 225.6 170.004 224.314C168.677 223.028 168.643 220.925 169.929 219.597L179.338 209.885C180.624 208.558 182.727 208.525 184.054 209.81H184.054Z" fill="#BCA068"/>
<path d="M54.6285 199.985C56.4526 199.985 57.921 201.83 57.921 204.121V217.292C57.921 219.583 56.4526 221.428 54.6285 221.428C52.8044 221.428 51.3359 219.583 51.3359 217.292V204.121C51.3359 201.83 52.8044 199.985 54.6285 199.985Z" fill="#BCA068"/>
<path d="M43.4298 207.831C44.6339 206.588 46.6039 206.557 47.8469 207.761L56.9424 216.572C58.1853 217.776 58.2166 219.746 57.0125 220.989C55.8084 222.232 53.8384 222.263 52.5955 221.059L43.5 212.248C42.257 211.044 42.2258 209.074 43.4298 207.831V207.831Z" fill="#BCA068"/>
<path d="M65.7539 207.477C66.9968 208.681 67.0281 210.651 65.824 211.894L57.0127 220.989C55.8086 222.232 53.8386 222.263 52.5957 221.059C51.3527 219.855 51.3215 217.885 52.5256 216.642L61.3368 207.547C62.5409 206.304 64.5109 206.273 65.7539 207.477H65.7539Z" fill="#BCA068"/>
<path d="M215.084 200.729C217.032 200.729 218.6 202.699 218.6 205.146V219.209C218.6 221.656 217.032 223.626 215.084 223.626C213.136 223.626 211.568 221.656 211.568 219.209V205.146C211.568 202.699 213.136 200.729 215.084 200.729Z" fill="#BCA068"/>
<path d="M203.126 209.107C204.412 207.78 206.516 207.746 207.843 209.032L217.555 218.441C218.882 219.727 218.916 221.83 217.63 223.157C216.344 224.485 214.241 224.518 212.914 223.232L203.201 213.824C201.874 212.538 201.841 210.434 203.126 209.107H203.126Z" fill="#BCA068"/>
<path d="M226.965 208.729C228.292 210.014 228.325 212.118 227.039 213.445L217.631 223.157C216.345 224.485 214.241 224.518 212.914 223.232C211.587 221.947 211.554 219.843 212.839 218.516L222.248 208.804C223.534 207.476 225.637 207.443 226.965 208.729V208.729Z" fill="#BCA068"/>
<path d="M83.0277 223.813H194.406C197.97 223.813 200.84 226.682 200.84 230.247C200.84 233.811 197.97 236.681 194.406 236.681H83.0277C79.4633 236.681 76.5938 233.811 76.5938 230.247C76.5938 226.682 79.4633 223.813 83.0277 223.813Z" fill="#B6985B"/>
<path d="M91.4221 226.617H186.012C188.023 226.617 189.641 228.236 189.641 230.247C189.641 232.257 188.023 233.876 186.012 233.876H91.4221C89.4116 233.876 87.793 232.257 87.793 230.247C87.793 228.236 89.4116 226.617 91.4221 226.617Z" fill="#A98A4B"/>
<path d="M45.2346 230.188C46.4386 228.945 48.4086 228.914 49.6516 230.118L58.7471 238.929C59.99 240.133 60.0213 242.103 58.8172 243.346C57.6131 244.589 55.6431 244.62 54.4002 243.416L45.3046 234.605C44.0617 233.401 44.0304 231.431 45.2345 230.188L45.2346 230.188Z" fill="#D5B982"/>
<path d="M67.5585 229.833C68.8015 231.037 68.8328 233.007 67.6287 234.25L58.8174 243.346C57.6133 244.589 55.6433 244.62 54.4003 243.416C53.1574 242.212 53.1261 240.242 54.3302 238.999L63.1415 229.904C64.3456 228.661 66.3156 228.629 67.5585 229.833V229.833Z" fill="#D5B982"/>
<path d="M56.4332 222.342C58.2572 222.342 59.7257 224.187 59.7257 226.478V239.648C59.7257 241.94 58.2572 243.785 56.4332 243.785C54.6091 243.785 53.1406 241.94 53.1406 239.648V226.478C53.1406 224.187 54.6091 222.342 56.4332 222.342Z" fill="#D5B982"/>
<path d="M220.477 220.257C222.424 220.257 223.993 222.227 223.993 224.674V238.737C223.993 241.184 222.424 243.154 220.477 243.154C218.529 243.154 216.961 241.184 216.961 238.737V224.674C216.961 222.227 218.529 220.257 220.477 220.257V220.257Z" fill="#D5B982"/>
<path d="M208.519 228.635C209.805 227.308 211.908 227.274 213.236 228.56L222.948 237.969C224.275 239.255 224.308 241.358 223.023 242.685C221.737 244.012 219.633 244.046 218.306 242.76L208.594 233.351C207.267 232.066 207.233 229.962 208.519 228.635Z" fill="#D5B982"/>
<path d="M232.357 228.257C233.684 229.542 233.718 231.646 232.432 232.973L223.023 242.685C221.738 244.013 219.634 244.046 218.307 242.76C216.98 241.474 216.946 239.371 218.232 238.044L227.641 228.331C228.926 227.004 231.03 226.971 232.357 228.257H232.357Z" fill="#D5B982"/>
<path d="M70.6661 178.552C72.9135 178.552 74.7228 180.361 74.7228 182.608V188.017C74.7228 190.265 72.9135 192.074 70.6661 192.074C68.4187 192.074 66.6094 190.265 66.6094 188.017V182.608C66.6094 180.361 68.4187 178.552 70.6661 178.552Z" fill="#9C8725"/>
<path d="M81.3944 189.009C83.2922 189.009 84.82 190.537 84.82 192.435V194.418C84.82 196.316 83.2922 197.844 81.3944 197.844C79.4966 197.844 77.9688 196.316 77.9688 194.418V192.435C77.9688 190.537 79.4966 189.009 81.3944 189.009Z" fill="#9C8725"/>
<path d="M96.5389 182.518H97.2601C99.1579 182.518 100.686 184.046 100.686 185.944V196.041C100.686 197.938 99.1579 199.466 97.2601 199.466H96.5389C94.6411 199.466 93.1133 197.938 93.1133 196.041V185.944C93.1133 184.046 94.6411 182.518 96.5389 182.518Z" fill="#9C8725"/>
<path d="M42.6302 186.845C44.1285 186.845 45.3347 188.052 45.3347 189.55V191.533C45.3347 193.031 44.1285 194.238 42.6302 194.238C41.132 194.238 39.9258 193.031 39.9258 191.533V189.55C39.9258 188.052 41.132 186.845 42.6302 186.845Z" fill="#9C8725"/>
<path d="M142.065 180.355C144.312 180.355 146.121 182.164 146.121 184.411V189.82C146.121 192.068 144.312 193.877 142.065 193.877C139.817 193.877 138.008 192.068 138.008 189.82V184.411C138.008 182.164 139.817 180.355 142.065 180.355Z" fill="#9C8725"/>
<path d="M152.793 190.812C154.691 190.812 156.218 192.34 156.218 194.238V196.221C156.218 198.119 154.691 199.647 152.793 199.647C150.895 199.647 149.367 198.119 149.367 196.221V194.238C149.367 192.34 150.895 190.812 152.793 190.812Z" fill="#9C8725"/>
<path d="M167.937 184.321H168.659C170.556 184.321 172.084 185.849 172.084 187.747V197.844C172.084 199.741 170.556 201.269 168.659 201.269H167.937C166.04 201.269 164.512 199.741 164.512 197.844V187.747C164.512 185.849 166.04 184.321 167.937 184.321Z" fill="#9C8725"/>
<path d="M114.029 188.648C115.527 188.648 116.733 189.855 116.733 191.353V193.336C116.733 194.834 115.527 196.041 114.029 196.041C112.53 196.041 111.324 194.834 111.324 193.336V191.353C111.324 189.855 112.53 188.648 114.029 188.648Z" fill="#9C8725"/>
<path d="M206.611 180.715C208.859 180.715 210.668 182.525 210.668 184.772V190.181C210.668 192.428 208.859 194.238 206.611 194.238C204.364 194.238 202.555 192.428 202.555 190.181V184.772C202.555 182.525 204.364 180.715 206.611 180.715Z" fill="#9C8725"/>
<path d="M217.34 191.173C219.238 191.173 220.765 192.7 220.765 194.598V196.582C220.765 198.479 219.238 200.007 217.34 200.007C215.442 200.007 213.914 198.479 213.914 196.582V194.598C213.914 192.7 215.442 191.173 217.34 191.173Z" fill="#9C8725"/>
<path d="M232.484 184.682H233.205C235.103 184.682 236.631 186.21 236.631 188.108V198.204C236.631 200.102 235.103 201.63 233.205 201.63H232.484C230.586 201.63 229.059 200.102 229.059 198.204V188.108C229.059 186.21 230.586 184.682 232.484 184.682Z" fill="#9C8725"/>
<path d="M178.576 189.009C180.074 189.009 181.28 190.215 181.28 191.713V193.697C181.28 195.195 180.074 196.401 178.576 196.401C177.077 196.401 175.871 195.195 175.871 193.697V191.713C175.871 190.215 177.077 189.009 178.576 189.009Z" fill="#9C8725"/>
<path d="M81.3076 19.8643C77.5211 19.8643 74.3732 22.4919 73.5735 26.0297C73.3297 26.0078 73.0833 25.9948 72.8337 25.9948H45.0681C40.5733 25.9948 36.9547 29.6134 36.9547 34.1082C36.9547 38.603 40.5733 42.2216 45.0681 42.2216H72.8337C76.7792 42.2216 80.0491 39.4333 80.7896 35.7118C80.9611 35.7227 81.1332 35.7306 81.3076 35.7306H131.431C135.825 35.7306 139.363 32.1927 139.363 27.7978C139.363 23.4029 135.825 19.8643 131.431 19.8643L81.3076 19.8643ZM166.863 40.5093C163.085 40.5093 159.928 43.0651 159.016 46.5485H120.613C118.415 46.5485 116.646 48.3174 116.646 50.5149V56.6454C116.646 58.8429 118.415 60.6119 120.613 60.6119H161.158C162.622 62.0569 164.634 62.9475 166.863 62.9475H192.198C196.693 62.9475 200.311 59.3289 200.311 54.8341V48.6227C200.311 44.1279 196.693 40.5093 192.198 40.5093H166.863ZM27.9398 49.0724C23.5449 49.0724 20.007 52.611 20.007 57.0059C20.007 59.696 21.334 62.063 23.3703 63.4962H7.02501C4.82755 63.4962 3.05859 65.2659 3.05859 67.4633C3.05859 69.6608 4.82755 71.4297 7.02501 71.4297H40.5607C42.7582 71.4297 44.5271 69.6608 44.5271 67.4633C44.5271 66.5025 44.1886 65.6237 43.6242 64.9387H44.5271C48.922 64.9387 52.4599 61.4008 52.4599 57.0059C52.4599 52.611 48.922 49.0724 44.5271 49.0724H27.9398Z" fill="#796A1C"/>
<path d="M89.5085 0.77832C84.5961 0.77832 80.6088 4.59251 80.3304 9.43276H66.9719C63.6885 9.43276 60.7825 10.9862 58.9408 13.3992H47.6795C42.7852 13.3992 38.8452 17.3398 38.8452 22.2342V23.4961H21.7169C16.8225 23.4961 12.8826 27.4361 12.8826 32.3304C12.8826 37.2248 16.8225 41.1655 21.7169 41.1655H19.9139C15.0196 41.1655 11.0796 45.1054 11.0796 49.9998V53.4252H8.37512C3.88031 53.4252 0.261719 57.0438 0.261719 61.5386C0.261719 66.0334 3.88031 69.652 8.37512 69.652H29.2893C33.3544 69.652 36.7027 66.6921 37.3057 62.8012H38.6653C43.5596 62.8012 47.4996 58.8605 47.4996 53.9662V49.9998C47.4996 45.1054 43.5596 41.1655 38.6653 41.1655H49.122C53.2039 41.1655 56.6202 38.4235 57.6426 34.6745H61.022C64.5596 34.6745 67.5975 32.6155 69.0106 29.626H93.295C93.9832 29.626 94.6548 29.5572 95.3037 29.4273C96.7519 31.3046 99.024 32.511 101.589 32.511H127.552C131.947 32.511 135.484 28.9731 135.484 24.5782C135.484 21.6307 133.892 19.0703 131.518 17.7023V12.3178C131.518 7.92287 127.98 4.38428 123.585 4.38428H116.373C112.872 4.38428 109.917 6.63097 108.859 9.76602C108.278 9.55422 107.654 9.43276 106.998 9.43276H104.113C103.609 9.43276 103.124 9.50656 102.662 9.63425C102.484 4.69889 98.4558 0.77832 93.4756 0.77832H89.5085ZM159.897 23.6809C157.001 23.6809 154.67 26.0121 154.67 28.9079V29.163C154.67 29.5579 154.717 29.9405 154.799 30.3099H151.228C148.332 30.3099 146.001 32.6418 146.001 35.5376V38.4694H142.243C142.282 38.2626 142.304 38.0503 142.304 37.8321C142.304 35.9251 140.769 34.39 138.862 34.39H136.694C134.787 34.39 133.252 35.9251 133.252 37.8321C133.252 38.0503 133.274 38.2626 133.313 38.4694H128.407C125.511 38.4694 123.18 40.8005 123.18 43.6963V49.5612C123.18 52.457 125.511 54.7882 128.407 54.7882H149.571C152.467 54.7882 154.798 52.457 154.798 49.5612V46.3736H170.989V50.036C170.989 51.7218 171.56 53.2656 172.512 54.4989C172.99 58.0757 176.036 60.8177 179.747 60.8177H202.465C206.51 60.8177 209.767 57.5611 209.767 53.5158C209.767 49.4705 206.51 46.2132 202.465 46.2132H197.079C196.182 44.6328 194.488 43.5694 192.534 43.5694H192.152V43.4767C192.152 40.5909 190.491 38.1136 188.072 36.9264V35.5376C188.072 32.6418 185.741 30.3099 182.845 30.3099H175.114C174.692 27.8434 172.56 25.9754 169.969 25.9754H165.249C164.311 24.5891 162.724 23.6809 160.917 23.6809H159.897Z" fill="#8C7B21"/>
<path d="M16.6677 52.3438H23.8796C26.0771 52.3438 27.8461 54.1128 27.8461 56.3103V59.5556C27.8461 61.7531 26.0771 63.5222 23.8796 63.5222H16.6677C14.4703 63.5222 12.7012 61.7531 12.7012 59.5556V56.3103C12.7012 54.1128 14.4703 52.3438 16.6677 52.3438Z" fill="#A79327"/>
<path d="M23.7004 41.5259H31.2729C33.0708 41.5259 34.5183 42.9733 34.5183 44.7712C34.5183 46.5692 33.0708 48.0166 31.2729 48.0166H23.7004C21.9025 48.0166 20.4551 46.5692 20.4551 44.7712C20.4551 42.9733 21.9025 41.5259 23.7004 41.5259Z" fill="#A79327"/>
<path d="M33.886 32.1504H46.3265C48.7737 32.1504 50.7438 34.1205 50.7438 36.5677C50.7438 39.0148 48.7737 40.985 46.3265 40.985H33.886C31.4389 40.985 29.4688 39.0148 29.4688 36.5677C29.4688 34.1205 31.4389 32.1504 33.886 32.1504Z" fill="#A79327"/>
<path d="M41.0084 29.6262H41.9099C43.6079 29.6262 44.975 30.9932 44.975 32.6913C44.975 34.3893 43.6079 35.7563 41.9099 35.7563H41.0084C39.3104 35.7563 37.9434 34.3893 37.9434 32.6913C37.9434 30.9932 39.3104 29.6262 41.0084 29.6262Z" fill="#A79327"/>
<path d="M56.694 16.6448H64.0861C65.7842 16.6448 67.1512 18.0118 67.1512 19.7098V21.5128C67.1512 23.2108 65.7842 24.5779 64.0861 24.5779H56.694C54.9959 24.5779 53.6289 23.2108 53.6289 21.5128V19.7098C53.6289 18.0118 54.9959 16.6448 56.694 16.6448Z" fill="#A79327"/>
<path d="M73.6432 17.5464H75.8067C77.5048 17.5464 78.8718 18.9134 78.8718 20.6114C78.8718 22.3095 77.5048 23.6765 75.8067 23.6765H73.6432C71.9451 23.6765 70.5781 22.3095 70.5781 20.6114C70.5781 18.9134 71.9451 17.5464 73.6432 17.5464V17.5464Z" fill="#A79327"/>
<path d="M95.5491 6.36792H96.09C100.934 6.36792 104.834 10.2679 104.834 15.1123C104.834 19.9567 100.934 23.8568 96.09 23.8568H95.5491C90.7047 23.8568 86.8047 19.9567 86.8047 15.1123C86.8047 10.2679 90.7047 6.36792 95.5491 6.36792Z" fill="#A79327"/>
<path d="M107.267 16.2842H109.431C111.978 16.2842 114.029 18.3347 114.029 20.8818C114.029 23.4288 111.978 25.4793 109.431 25.4793H107.267C104.72 25.4793 102.67 23.4288 102.67 20.8818C102.67 18.3347 104.72 16.2842 107.267 16.2842Z" fill="#A79327"/>
<path d="M121.963 20.4312H124.848C126.745 20.4312 128.273 21.959 128.273 23.8568C128.273 25.7546 126.745 27.2824 124.848 27.2824H121.963C120.065 27.2824 118.537 25.7546 118.537 23.8568C118.537 21.959 120.065 20.4312 121.963 20.4312Z" fill="#A79327"/>
<path d="M154.015 32.9875H157.618C159.516 32.9875 161.044 34.5154 161.044 36.4132V38.4862C161.044 40.384 159.516 41.9118 157.618 41.9118H154.015C152.118 41.9118 150.59 40.384 150.59 38.4862V36.4132C150.59 34.5154 152.118 32.9875 154.015 32.9875Z" fill="#A79327"/>
<path d="M132.344 42.2942H141.811C143.709 42.2942 145.237 43.822 145.237 45.7198V47.6653C145.237 49.5631 143.709 51.091 141.811 51.091H132.344C130.446 51.091 128.918 49.5631 128.918 47.6653V45.7198C128.918 43.822 130.446 42.2942 132.344 42.2942Z" fill="#A79327"/>
<path d="M141.267 38.5969H144.105C146.003 38.5969 147.531 40.1248 147.531 42.0226V43.8406C147.531 45.7384 146.003 47.2662 144.105 47.2662H141.267C139.37 47.2662 137.842 45.7384 137.842 43.8406V42.0226C137.842 40.1248 139.37 38.5969 141.267 38.5969Z" fill="#A79327"/>
<path d="M178.621 41.1467H182.606C184.504 41.1467 186.032 42.6746 186.032 44.5724V44.988C186.032 46.8858 184.504 48.4136 182.606 48.4136H178.621C176.723 48.4136 175.195 46.8858 175.195 44.988V44.5724C175.195 42.6746 176.723 41.1467 178.621 41.1467Z" fill="#A79327"/>
<path d="M167.848 41.2744H172.789C174.687 41.2744 176.215 42.8023 176.215 44.7001V47.538C176.215 49.4358 174.687 50.9636 172.789 50.9636H167.848C165.95 50.9636 164.422 49.4358 164.422 47.538V44.7001C164.422 42.8023 165.95 41.2744 167.848 41.2744Z" fill="#A79327"/>
<path d="M195.657 48.7961H197.824C199.554 48.7961 200.947 50.1892 200.947 51.9196C200.947 53.65 199.554 55.0431 197.824 55.0431H195.657C193.926 55.0431 192.533 53.65 192.533 51.9196C192.533 50.1892 193.926 48.7961 195.657 48.7961Z" fill="#A79327"/>
<path d="M189.984 50.3259H190.749C191.738 50.3259 192.534 51.122 192.534 52.1108C192.534 53.0996 191.738 53.8956 190.749 53.8956H189.984C188.995 53.8956 188.199 53.0996 188.199 52.1108C188.199 51.122 188.995 50.3259 189.984 50.3259Z" fill="#A79327"/>
<path d="M182.972 53.8958H202.733C203.722 53.8958 204.518 54.6918 204.518 55.6806V56.573C204.518 57.5618 203.722 58.3579 202.733 58.3579H182.972C181.984 58.3579 181.188 57.5618 181.188 56.573V55.6806C181.188 54.6918 181.984 53.8958 182.972 53.8958Z" fill="#A79327"/>
<path d="M173.666 35.4097H175.196C176.184 35.4097 176.98 36.2057 176.98 37.1945C176.98 38.1833 176.184 38.9794 175.196 38.9794H173.666C172.677 38.9794 171.881 38.1833 171.881 37.1945C171.881 36.2057 172.677 35.4097 173.666 35.4097Z" fill="#A79327"/>
<path d="M174.431 43.5691H184.758C185.747 43.5691 186.543 44.3651 186.543 45.3539V46.8838C186.543 47.8726 185.747 48.6687 184.758 48.6687H174.431C173.443 48.6687 172.646 47.8726 172.646 46.8838V45.3539C172.646 44.3651 173.443 43.5691 174.431 43.5691V43.5691Z" fill="#A79327"/>
<path d="M150.972 39.3621H161.554C162.543 39.3621 163.339 40.1581 163.339 41.1469V42.6768C163.339 43.6656 162.543 44.4616 161.554 44.4616H150.972C149.984 44.4616 149.188 43.6656 149.188 42.6768V41.1469C149.188 40.1581 149.984 39.3621 150.972 39.3621Z" fill="#A79327"/>
<path d="M85.1638 15.2024H103.771C104.759 15.2024 105.555 15.9984 105.555 16.9872V22.793C105.555 23.7818 104.759 24.5778 103.771 24.5778H85.1638C84.1749 24.5778 83.3789 23.7818 83.3789 22.793V16.9872C83.3789 15.9984 84.1749 15.2024 85.1638 15.2024V15.2024Z" fill="#A79327"/>
<path d="M24.7575 50.9634H29.0921C30.081 50.9634 30.877 51.7594 30.877 52.7482V55.9355C30.877 56.9243 30.081 57.7203 29.0921 57.7203H24.7575C23.7687 57.7203 22.9727 56.9243 22.9727 55.9355V52.7482C22.9727 51.7594 23.7687 50.9634 24.7575 50.9634V50.9634Z" fill="#A79327"/>
<path d="M25.779 56.7004H34.4483C35.4371 56.7004 36.2331 57.4965 36.2331 58.4853V58.8678C36.2331 59.8566 35.4371 60.6526 34.4483 60.6526H25.779C24.7902 60.6526 23.9941 59.8566 23.9941 58.8678V58.4853C23.9941 57.4965 24.7902 56.7004 25.779 56.7004V56.7004Z" fill="#A79327"/>
<path d="M139.993 154.572H144.501C145.3 154.572 145.943 155.216 145.943 156.015C145.943 156.814 145.3 157.457 144.501 157.457H139.993C139.194 157.457 138.551 156.814 138.551 156.015C138.551 155.216 139.194 154.572 139.993 154.572Z" fill="#CFAE35"/>
<path d="M127.552 159.44H132.059C132.858 159.44 133.502 160.083 133.502 160.883C133.502 161.682 132.858 162.325 132.059 162.325H127.552C126.753 162.325 126.109 161.682 126.109 160.883C126.109 160.083 126.753 159.44 127.552 159.44Z" fill="#CFAE35"/>
<path d="M193.792 154.062H198.299C199.098 154.062 199.742 154.706 199.742 155.505C199.742 156.304 199.098 156.947 198.299 156.947H193.792C192.993 156.947 192.35 156.304 192.35 155.505C192.35 154.706 192.993 154.062 193.792 154.062Z" fill="#CFAE35"/>
<path d="M181.353 158.93H185.86C186.659 158.93 187.302 159.574 187.302 160.373C187.302 161.172 186.659 161.815 185.86 161.815H181.353C180.553 161.815 179.91 161.172 179.91 160.373C179.91 159.574 180.553 158.93 181.353 158.93Z" fill="#CFAE35"/>
<path d="M233.06 154.572H237.567C238.366 154.572 239.009 155.216 239.009 156.015C239.009 156.814 238.366 157.457 237.567 157.457H233.06C232.26 157.457 231.617 156.814 231.617 156.015C231.617 155.216 232.26 154.572 233.06 154.572Z" fill="#CFAE35"/>
<path d="M220.618 159.44H225.126C225.925 159.44 226.568 160.083 226.568 160.883C226.568 161.682 225.925 162.325 225.126 162.325H220.618C219.819 162.325 219.176 161.682 219.176 160.883C219.176 160.083 219.819 159.44 220.618 159.44Z" fill="#CFAE35"/>
<path d="M171.201 77.3848L168.391 78.8206C165.392 80.353 164.211 84.001 165.744 86.9999L180.994 116.843C182.526 119.842 186.174 121.023 189.173 119.49L191.983 118.055C194.982 116.522 196.162 112.874 194.63 109.875L179.38 80.0319C177.848 77.0329 174.2 75.8523 171.201 77.3848Z" fill="#68371E"/>
<path d="M181.385 94.3017C179.287 95.1648 178.292 97.5488 179.155 99.6469L180.288 102.401C181.152 104.499 183.535 105.494 185.634 104.63C187.732 103.767 188.726 101.383 187.863 99.2853L186.73 96.531C185.867 94.4329 183.483 93.4386 181.385 94.3017V94.3017Z" fill="#773F23"/>
<path d="M134.866 191.609L135.331 191.542C140.888 190.749 146.001 194.584 146.794 200.14L148.415 211.493C149.209 217.05 145.374 222.162 139.817 222.956L139.352 223.022C133.795 223.816 128.683 219.981 127.889 214.424L126.268 203.071C125.475 197.515 129.31 192.402 134.866 191.609Z" fill="#68371E"/>
<path d="M127.022 142.251H128.815C133.076 142.251 137.14 146.598 137.927 151.997L150.383 237.411C151.171 242.811 148.375 247.158 144.114 247.158H142.32C138.06 247.158 133.995 242.811 133.208 237.411L120.752 151.997C119.964 146.598 122.761 142.251 127.022 142.251V142.251Z" fill="#773F23"/>
<path d="M119.33 142.251H136.506L142.152 180.969H124.976L119.33 142.251Z" fill="#62341C"/>
<path d="M133.317 229.365H141.837C146.766 229.365 150.734 233.332 150.734 238.261C150.734 243.19 146.766 247.158 141.837 247.158H133.317C128.388 247.158 124.42 243.19 124.42 238.261C124.42 233.332 128.388 229.365 133.317 229.365Z" fill="#854727"/>
<path d="M127.366 237.412H147.788C149.42 237.412 150.734 238.726 150.734 240.359V244.212C150.734 245.844 149.42 247.158 147.788 247.158H127.366C125.734 247.158 124.42 245.844 124.42 244.212V240.359C124.42 238.726 125.734 237.412 127.366 237.412Z" fill="#854727"/>
<path d="M112.741 79.2132L115.575 80.5788C118.599 82.0363 119.866 85.6553 118.415 88.6931L103.976 118.923C102.525 121.961 98.9222 123.233 95.8975 121.776L93.0636 120.41C90.039 118.953 88.7721 115.334 90.2231 112.296L104.662 82.0657C106.113 79.0279 109.716 77.7557 112.741 79.2132Z" fill="#68371E"/>
<path d="M106.7 95.3342C108.688 96.4123 109.421 98.8821 108.344 100.872L106.931 103.484C105.854 105.474 103.386 106.207 101.398 105.129C99.4095 104.051 98.6759 101.581 99.7529 99.5918L101.167 96.9797C102.244 94.99 104.711 94.2561 106.7 95.3342V95.3342Z" fill="#773F23"/>
<path d="M93.2441 111.422C96.8394 109.069 101.628 110.069 103.981 113.664L119.679 137.648C122.032 141.244 121.032 146.032 117.437 148.386C113.841 150.739 109.053 149.739 106.699 146.143L91.0019 122.159C88.6487 118.564 89.6488 113.775 93.2441 111.422V111.422Z" fill="#773F23"/>
<path d="M111.225 124.731C106.489 126.205 103.068 130.611 103.068 135.846V140.595L106.699 146.143C109.053 149.738 113.842 150.739 117.437 148.385C121.032 146.032 122.033 141.243 119.679 137.648L111.225 124.731Z" fill="#68371E"/>
<path d="M117.291 128.309H120.175C121.374 128.309 122.339 129.274 122.339 130.473V133.899C122.339 135.097 121.374 136.062 120.175 136.062H117.291C116.092 136.062 115.127 135.097 115.127 133.899V130.473C115.127 129.274 116.092 128.309 117.291 128.309Z" fill="#773F23"/>
<path d="M142.978 93.1951C153.894 93.1951 162.682 106.201 162.682 122.355V143.423C162.682 159.578 153.894 172.584 142.978 172.584C132.061 172.584 123.273 159.578 123.273 143.423V122.355C123.273 106.201 132.061 93.1951 142.978 93.1951V93.1951Z" fill="#62341C"/>
<path d="M142.904 63.7954C156.174 63.7954 166.857 72.3119 166.857 82.8908C166.857 93.4696 156.174 101.986 142.904 101.986C129.634 101.986 118.951 93.4696 118.951 82.8908C118.951 72.3119 129.634 63.7954 142.904 63.7954Z" fill="#68371E"/>
<path d="M117.442 70.5991H169.086C174.693 70.5991 179.208 75.6705 179.208 81.9698C179.208 88.2692 174.693 93.3405 169.086 93.3405H117.442C111.835 93.3405 107.32 88.2692 107.32 81.9698C107.32 75.6705 111.835 70.5991 117.442 70.5991Z" fill="#68371E"/>
<path d="M142.978 70.1262C156.169 70.1262 166.788 83.7273 166.788 100.622C166.788 117.516 156.169 131.117 142.978 131.117C129.787 131.117 119.168 117.516 119.168 100.622C119.168 83.7273 129.787 70.1262 142.978 70.1262V70.1262Z" fill="#62341C"/>
<path d="M129.506 69.095H156.305C163.24 69.095 168.824 76.5262 168.824 85.7569V95.799C168.824 105.03 163.24 112.461 156.305 112.461H129.506C122.57 112.461 116.986 105.03 116.986 95.799V85.7569C116.986 76.5262 122.57 69.095 129.506 69.095Z" fill="#68371E"/>
<path d="M171.144 72.6059C167.016 73.6931 164.568 77.8917 165.655 82.0199L167.447 88.8236C168.534 92.9518 172.732 95.4 176.861 94.3128C180.989 93.2257 183.437 89.0271 182.35 84.8988L180.558 78.0952C179.471 73.967 175.272 71.5188 171.144 72.6059Z" fill="#773F23"/>
<path d="M141.303 111.533H144.652C152.663 111.533 159.113 119.249 159.113 128.833V141.332C159.113 150.917 152.663 158.633 144.652 158.633H141.303C133.291 158.633 126.842 150.917 126.842 141.332V128.833C126.842 119.249 133.291 111.533 141.303 111.533V111.533Z" fill="#68371E"/>
<path d="M114.119 72.1974C118.103 73.7308 120.076 78.1727 118.543 82.1567L116.015 88.7228C114.482 92.7068 110.04 94.6797 106.056 93.1462C102.072 91.6128 100.099 87.1709 101.633 83.1869L104.16 76.6208C105.693 72.6368 110.135 70.6639 114.119 72.1974Z" fill="#773F23"/>
<path d="M127.398 71.3662H158.409C163.966 71.3662 168.44 77.7321 168.44 85.6394V94.2419C168.44 102.149 163.966 108.515 158.409 108.515H127.398C121.841 108.515 117.367 102.149 117.367 94.2419V85.6394C117.367 77.7321 121.841 71.3662 127.398 71.3662Z" fill="#783F23" fill-opacity="0.996078"/>
<path d="M140.644 104.349C141.772 104.349 142.68 105.61 142.68 107.177V112.664C142.68 114.231 141.772 115.492 140.644 115.492C139.516 115.492 138.607 114.231 138.607 112.664V107.177C138.607 105.61 139.516 104.349 140.644 104.349Z" fill="#68371E"/>
<path d="M142.976 41.9351C148.119 41.9351 152.259 50.0262 152.259 60.0766V67.5192C152.259 77.5696 148.119 85.6607 142.976 85.6607C137.834 85.6607 133.693 77.5696 133.693 67.5192V60.0766C133.693 50.0262 137.834 41.9351 142.976 41.9351Z" fill="#773F23"/>
<path d="M126.056 102.823H127.998C128.774 102.823 129.4 103.473 129.4 104.281C129.4 105.088 128.774 105.738 127.998 105.738H126.056C125.28 105.738 124.654 105.088 124.654 104.281C124.654 103.473 125.28 102.823 126.056 102.823Z" fill="#62341C"/>
<path d="M157.789 102.823H159.73C160.507 102.823 161.132 103.473 161.132 104.281C161.132 105.088 160.507 105.738 159.73 105.738H157.789C157.012 105.738 156.387 105.088 156.387 104.281C156.387 103.473 157.012 102.823 157.789 102.823Z" fill="#62341C"/>
<path d="M138.427 43.4778H142.177C146.495 43.4778 149.971 47.9373 149.971 53.4768V57.5789C149.971 63.1184 146.495 67.5779 142.177 67.5779H138.427C134.109 67.5779 130.633 63.1184 130.633 57.5789V53.4768C130.633 47.9373 134.109 43.4778 138.427 43.4778V43.4778Z" fill="#68371E"/>
<path d="M111.81 71.156H113.193C116.896 71.156 119.877 74.3974 119.877 78.4237C119.877 82.4499 116.896 85.6913 113.193 85.6913H111.81C108.106 85.6913 105.125 82.4499 105.125 78.4237C105.125 74.3974 108.106 71.156 111.81 71.156Z" fill="#773F23"/>
<path d="M171.464 71.865H172.847C176.55 71.865 179.531 75.1064 179.531 79.1326C179.531 83.1589 176.55 86.4003 172.847 86.4003H171.464C167.761 86.4003 164.779 83.1589 164.779 79.1326C164.779 75.1064 167.761 71.865 171.464 71.865Z" fill="#773F23"/>
<path d="M111.024 73.5977H113.098C114.248 73.5977 115.173 74.6036 115.173 75.8531C115.173 77.1027 114.248 78.1086 113.098 78.1086H111.024C109.874 78.1086 108.949 77.1027 108.949 75.8531C108.949 74.6036 109.874 73.5977 111.024 73.5977Z" fill="#854727"/>
<path d="M173.283 73.7749H175.358C176.507 73.7749 177.433 74.7808 177.433 76.0304C177.433 77.2799 176.507 78.2859 175.358 78.2859H173.283C172.134 78.2859 171.209 77.2799 171.209 76.0304C171.209 74.7808 172.134 73.7749 173.283 73.7749Z" fill="#854727"/>
<path d="M199.074 103.932C202.256 106.644 202.635 111.389 199.923 114.571L194.558 120.865C191.846 124.047 187.101 124.426 183.919 121.714C180.737 119.002 180.358 114.257 183.07 111.075L188.435 104.78C191.147 101.598 195.892 101.22 199.074 103.932Z" fill="#773F23"/>
<path d="M202.875 97.4056C206.096 99.1132 207.315 103.081 205.607 106.302L202.229 112.674C200.521 115.895 196.553 117.114 193.332 115.406C190.111 113.699 188.893 109.731 190.6 106.509L193.978 100.138C195.686 96.9164 199.654 95.698 202.875 97.4056Z" fill="#68371E"/>
<path d="M198.882 90.4041H203.856C207.189 90.4041 209.872 93.0874 209.872 96.4204V106.935C209.872 110.268 207.189 112.952 203.856 112.952H198.882C195.549 112.952 192.865 110.268 192.865 106.935V96.4204C192.865 93.0874 195.549 90.4041 198.882 90.4041Z" fill="#773F23"/>
<path d="M193.203 94.1216H193.423C194.797 94.1216 195.903 95.2277 195.903 96.6017V100.588C195.903 101.962 194.797 103.068 193.423 103.068H193.203C191.829 103.068 190.723 101.962 190.723 100.588V96.6017C190.723 95.2277 191.829 94.1216 193.203 94.1216Z" fill="#854727"/>
<path d="M205.947 92.4385H206.116C207.171 92.4385 208.021 93.2878 208.021 94.3429V97.7973C208.021 98.8523 207.171 99.7017 206.116 99.7017H205.947C204.892 99.7017 204.043 98.8523 204.043 97.7973V94.3429C204.043 93.2878 204.892 92.4385 205.947 92.4385Z" fill="#854727"/>
<path d="M141.986 232.48H143.935C145.506 232.48 146.77 233.745 146.77 235.315C146.77 236.886 145.506 238.151 143.935 238.151H141.986C140.415 238.151 139.15 236.886 139.15 235.315C139.15 233.745 140.415 232.48 141.986 232.48Z" fill="#97512C"/>
<path d="M159.817 32.0891L158.385 45.2835C157.431 54.0815 145.369 64.266 139.692 64.266H132.86C127.182 64.266 120.739 54.1596 120.236 45.2835L119.49 32.0891C119.225 17.9262 128.946 12.3643 139.806 13.1242C150.666 13.884 161.237 20.9654 159.817 32.0891Z" fill="#68371E"/>
<path d="M135.371 117.597H139.331C141.226 117.597 142.751 119.29 142.751 121.394C142.751 123.497 141.226 125.191 139.331 125.191H135.371C133.476 125.191 131.951 123.497 131.951 121.394C131.951 119.29 133.476 117.597 135.371 117.597Z" fill="#773F23"/>
<path d="M135.371 126.55H139.331C141.226 126.55 142.751 128.243 142.751 130.347C142.751 132.45 141.226 134.144 139.331 134.144H135.371C133.476 134.144 131.951 132.45 131.951 130.347C131.951 128.243 133.476 126.55 135.371 126.55Z" fill="#773F23"/>
<path d="M135.371 135.502H139.331C141.226 135.502 142.751 137.196 142.751 139.299C142.751 141.403 141.226 143.096 139.331 143.096H135.371C133.476 143.096 131.951 141.403 131.951 139.299C131.951 137.196 133.476 135.502 135.371 135.502Z" fill="#773F23"/>
<path d="M147.467 117.597H151.427C153.321 117.597 154.847 119.29 154.847 121.394C154.847 123.497 153.321 125.191 151.427 125.191H147.467C145.572 125.191 144.047 123.497 144.047 121.394C144.047 119.29 145.572 117.597 147.467 117.597Z" fill="#773F23"/>
<path d="M147.467 126.55H151.427C153.321 126.55 154.847 128.243 154.847 130.347C154.847 132.45 153.321 134.144 151.427 134.144H147.467C145.572 134.144 144.047 132.45 144.047 130.347C144.047 128.243 145.572 126.55 147.467 126.55Z" fill="#773F23"/>
<path d="M147.467 135.502H151.427C153.321 135.502 154.847 137.196 154.847 139.299C154.847 141.403 153.321 143.096 151.427 143.096H147.467C145.572 143.096 144.047 141.403 144.047 139.299C144.047 137.196 145.572 135.502 147.467 135.502Z" fill="#773F23"/>
<path d="M133.254 76.2893L137.99 78.7519C138.518 79.0268 138.739 79.7084 138.485 80.2803C138.231 80.8521 137.601 81.0912 137.072 80.8163L132.337 78.3537C131.809 78.0788 131.588 77.3972 131.842 76.8253C132.096 76.2535 132.726 76.0144 133.254 76.2893V76.2893Z" fill="#68371E"/>
<path d="M147.92 76.2893L143.185 78.7519C142.656 79.0268 142.435 79.7084 142.689 80.2803C142.943 80.8521 143.574 81.0912 144.102 80.8163L148.837 78.3537C149.366 78.0788 149.587 77.3972 149.333 76.8253C149.079 76.2535 148.449 76.0144 147.92 76.2893V76.2893Z" fill="#68371E"/>
<path d="M148.194 148.865L148.541 148.45C151.328 145.117 156.256 144.678 159.589 147.465L189.876 172.798C193.209 175.585 193.648 180.513 190.861 183.846L190.514 184.26C187.726 187.593 182.799 188.032 179.466 185.245L149.178 159.912C145.845 157.125 145.406 152.197 148.194 148.865Z" fill="#62341C"/>
<path d="M123.429 146.544C122.216 146.544 121.045 146.744 119.938 147.111C121.234 161.698 131.009 172.966 142.957 172.966C155.058 172.966 164.932 161.405 166.023 146.544C166.021 146.544 166.02 146.544 166.019 146.544H123.429Z" fill="#4F4F4F"/>
<path d="M121.029 144.934H164.591C165.546 144.934 166.314 145.816 166.314 146.91V149.97C166.314 151.065 165.546 151.946 164.591 151.946H121.029C120.075 151.946 119.307 151.065 119.307 149.97V146.91C119.307 145.816 120.075 144.934 121.029 144.934Z" fill="#5B5B5B"/>
<path d="M132.71 190.107H135.291C137.173 190.107 138.907 191.606 139.178 193.468L139.539 195.94C139.81 197.803 138.514 199.302 136.632 199.302H134.051C132.169 199.302 130.435 197.803 130.163 195.94L129.803 193.468C129.531 191.606 130.828 190.107 132.71 190.107Z" fill="#854727"/>
<path d="M115.878 131.714H118.117C122.191 131.714 125.471 134.994 125.471 139.069V148.662C125.471 152.736 122.191 156.017 118.117 156.017H115.878C111.804 156.017 108.523 152.736 108.523 148.662V139.069C108.523 134.994 111.804 131.714 115.878 131.714V131.714Z" fill="#773F23"/>
<path d="M98.7282 111.921C100.566 110.788 102.959 111.355 104.092 113.193L108.185 119.828C109.319 121.666 108.752 124.059 106.914 125.192C105.076 126.326 102.683 125.759 101.55 123.921L97.4568 117.285C96.3231 115.447 96.8902 113.055 98.7282 111.921V111.921Z" fill="#854727"/>
<path d="M113.965 133.758H115.839C117.492 133.758 118.823 135.089 118.823 136.742V140.516C118.823 142.169 117.492 143.5 115.839 143.5H113.965C112.311 143.5 110.98 142.169 110.98 140.516V136.742C110.98 135.089 112.311 133.758 113.965 133.758Z" fill="#854727"/>
<path d="M122.298 92.2542C123.833 92.2542 125.069 93.591 125.069 95.2516V95.6798C125.069 97.3404 123.833 98.6772 122.298 98.6772C120.763 98.6772 119.527 97.3404 119.527 95.6798V95.2516C119.527 93.591 120.763 92.2542 122.298 92.2542Z" fill="#854727"/>
<path d="M162.654 92.8516C164.188 92.8516 165.424 94.1884 165.424 95.849V96.2772C165.424 97.9378 164.188 99.2747 162.654 99.2747C161.119 99.2747 159.883 97.9378 159.883 96.2772V95.849C159.883 94.1884 161.119 92.8516 162.654 92.8516Z" fill="#854727"/>
<path d="M126.79 112.249L130.505 114.276C131.308 114.715 131.677 115.791 131.331 116.69C130.986 117.589 130.061 117.96 129.257 117.522L125.542 115.494C124.739 115.056 124.37 113.979 124.716 113.08C125.062 112.181 125.987 111.81 126.79 112.249V112.249Z" fill="#68371E"/>
<path d="M160.128 112.249L156.413 114.276C155.61 114.715 155.241 115.791 155.587 116.69C155.932 117.589 156.857 117.96 157.661 117.522L161.375 115.494C162.179 115.056 162.548 113.979 162.202 113.08C161.856 112.181 160.931 111.81 160.128 112.249Z" fill="#68371E"/>
<path d="M128.84 152.224C133.52 151.424 137.965 154.746 138.807 159.672L140.409 169.051C141.251 173.977 138.16 178.586 133.481 179.386C128.801 180.185 124.355 176.863 123.514 171.937L121.912 162.559C121.07 157.633 124.16 153.023 128.84 152.224Z" fill="#62341C"/>
<path d="M167.909 165.396L168.276 164.956C171.064 161.624 175.991 161.185 179.324 163.972L189.876 172.798C193.208 175.585 193.647 180.512 190.86 183.845L190.493 184.284C187.705 187.617 182.778 188.056 179.445 185.269L168.893 176.443C165.56 173.656 165.121 168.728 167.909 165.396V165.396Z" fill="#68371E"/>
<path d="M143.578 190.74C141.405 191.338 139.439 192.718 138.131 194.779L132.63 203.452C129.839 207.852 131.133 213.64 135.533 216.431C139.305 218.824 144.098 218.211 147.147 215.215L143.578 190.74Z" fill="#68371E"/>
<path d="M163.436 175.21L172.264 172.871C177.502 171.483 182.837 174.582 184.225 179.821L184.297 180.093C185.685 185.332 182.585 190.667 177.347 192.055L168.519 194.394C163.281 195.782 157.946 192.682 156.558 187.444L156.486 187.171C155.098 181.933 158.198 176.598 163.436 175.21Z" fill="#773F23"/>
<path d="M152.553 185.926C156.952 188.717 158.247 194.506 155.457 198.905L149.955 207.578C147.164 211.977 141.375 213.272 136.976 210.481C132.576 207.69 131.281 201.902 134.072 197.502L139.573 188.829C142.364 184.43 148.153 183.135 152.553 185.926Z" fill="#773F23"/>
<path d="M142.158 194.634L142.004 194.115C140.768 189.95 143.126 185.601 147.292 184.365L185.146 173.134C189.311 171.898 193.66 174.256 194.896 178.422L195.05 178.94C196.285 183.106 193.927 187.454 189.762 188.69L151.908 199.922C147.742 201.158 143.394 198.799 142.158 194.634Z" fill="#773F23"/>
<path d="M189.839 179.798C190.301 181.118 189.611 182.553 188.291 183.015L185.654 183.939C184.334 184.402 182.9 183.712 182.437 182.392C181.975 181.072 182.665 179.638 183.984 179.175L186.622 178.251C187.941 177.789 189.376 178.479 189.839 179.798Z" fill="#854727"/>
<path d="M137.704 200.792C139.402 200.792 140.769 202.159 140.769 203.857V204.668C140.769 206.366 139.402 207.733 137.704 207.733C136.006 207.733 134.639 206.366 134.639 204.668V203.857C134.639 202.159 136.006 200.792 137.704 200.792Z" fill="#854727"/>
<path d="M155.496 32.0891L154.218 45.2835C153.366 54.0815 142.596 64.266 137.527 64.266H131.427C126.358 64.266 120.604 54.1596 120.156 45.2835L119.489 32.0891C119.253 17.9262 127.932 12.3643 137.629 13.1242C147.326 13.884 156.764 20.9654 155.496 32.0891Z" fill="#773F23"/>
<path d="M152.358 35.2722H156.455C158.918 35.2722 160.901 37.2552 160.901 39.7184V45.0695C160.901 47.5327 158.918 49.5157 156.455 49.5157H152.358C149.895 49.5157 147.912 47.5327 147.912 45.0695V39.7184C147.912 37.2552 149.895 35.2722 152.358 35.2722Z" fill="#773F23"/>
<path d="M153.11 38.0969H155.525C156.976 38.0969 158.145 39.2655 158.145 40.7171V43.8707C158.145 45.3223 156.976 46.4909 155.525 46.4909H153.11C151.659 46.4909 150.49 45.3223 150.49 43.8707V40.7171C150.49 39.2655 151.659 38.0969 153.11 38.0969Z" fill="#68371E"/>
<path d="M149.097 33.5002H150.527C151.979 33.5002 153.148 34.6689 153.148 36.1205V49.9915C153.148 51.4431 151.979 52.6117 150.527 52.6117H149.097C147.645 52.6117 146.477 51.4431 146.477 49.9915V36.1205C146.477 34.6689 147.645 33.5002 149.097 33.5002Z" fill="#773F23"/>
<path d="M129.129 58.624H133.957C135.383 58.624 136.531 59.772 136.531 61.198V61.7552C136.531 63.1812 135.383 64.3292 133.957 64.3292H129.129C127.703 64.3292 126.555 63.1812 126.555 61.7552V61.198C126.555 59.772 127.703 58.624 129.129 58.624V58.624Z" fill="#773F23"/>
<path d="M143.36 132.95H143.533C144.509 132.95 145.295 133.736 145.295 134.713V136.415C145.295 137.392 144.509 138.177 143.533 138.177H143.36C142.384 138.177 141.598 137.392 141.598 136.415V134.713C141.598 133.736 142.384 132.95 143.36 132.95Z" fill="#62341C"/>
<path d="M131.632 35.729H129.911C128.569 35.729 127.489 36.8093 127.489 38.1513C127.489 39.4933 128.569 40.5736 129.911 40.5736H131.632C132.974 40.5736 134.055 39.4933 134.055 38.1513C134.055 36.8093 132.974 35.729 131.632 35.729Z" fill="#68371E"/>
<path d="M130.604 36.9241C129.496 36.9241 128.604 37.8315 128.604 38.9587V39.7725C128.604 40.8997 129.496 41.8071 130.604 41.8071C131.712 41.8071 132.604 40.8997 132.604 39.7725V38.9587C132.604 37.8315 131.712 36.9241 130.604 36.9241Z" fill="#502A17"/>
<path d="M135.248 33.7291L128.886 33.792C128.194 33.7989 127.642 34.3614 127.649 35.0533C127.656 35.7453 128.218 36.2968 128.91 36.29L135.273 36.227C135.965 36.2201 136.517 35.6576 136.51 34.9657C136.503 34.2738 135.94 33.7222 135.248 33.7291V33.7291Z" fill="#3E302E"/>
<path d="M120.945 36.9241C120.261 36.9241 119.71 37.7308 119.71 38.7329V39.4564C119.71 40.4585 120.261 41.2653 120.945 41.2653C121.629 41.2653 122.18 40.4585 122.18 39.4564V38.7329C122.18 37.7308 121.629 36.9241 120.945 36.9241V36.9241Z" fill="#502A17"/>
<path d="M124.18 39.6547C125.404 39.8266 126.251 40.9505 126.079 42.1746L125.302 47.7094C125.13 48.9335 124.006 49.7804 122.782 49.6085C121.558 49.4365 120.711 48.3126 120.883 47.0886L121.66 41.5537C121.832 40.3297 122.956 39.4827 124.18 39.6547Z" fill="#68371E"/>
<path d="M124.224 45.429H125.372C126.255 45.429 126.966 46.1397 126.966 47.0226C126.966 47.9054 126.255 48.6162 125.372 48.6162H124.224C123.342 48.6162 122.631 47.9054 122.631 47.0226C122.631 46.1397 123.342 45.429 124.224 45.429Z" fill="#68371E"/>
<path d="M123.941 51.28H129.196C130.637 51.28 131.898 52.436 132.022 53.8718C132.147 55.3076 131.088 56.4636 129.646 56.4636H124.392C122.951 56.4636 121.69 55.3076 121.565 53.8718C121.44 52.436 122.5 51.28 123.941 51.28Z" fill="#68371E"/>
<path d="M123.594 53.2634H128.124C128.387 53.2634 128.598 53.4745 128.598 53.7367C128.598 53.9989 128.387 54.21 128.124 54.21H123.594C123.332 54.21 123.121 53.9989 123.121 53.7367C123.121 53.4745 123.332 53.2634 123.594 53.2634Z" fill="#502A17"/>
<path d="M120.109 34.3786L120.909 34.4202C121.636 34.458 122.191 35.0736 122.153 35.8004C122.115 36.5272 121.5 37.0818 120.773 37.044L119.972 37.0024C119.245 36.9646 118.691 36.349 118.729 35.6222C118.766 34.8954 119.382 34.3407 120.109 34.3786Z" fill="#3E302E"/>
<path d="M133.599 43.0315H136.213C137.337 43.0315 138.241 43.9361 138.241 45.0598C138.241 46.1835 137.337 47.0882 136.213 47.0882H133.599C132.475 47.0882 131.57 46.1835 131.57 45.0598C131.57 43.9361 132.475 43.0315 133.599 43.0315Z" fill="#854727"/>
<path d="M134.116 45.5557C134.753 45.5557 135.266 46.0683 135.266 46.7051V48.8686C135.266 49.5054 134.753 50.018 134.116 50.018C133.479 50.018 132.967 49.5054 132.967 48.8686V46.7051C132.967 46.0683 133.479 45.5557 134.116 45.5557Z" fill="#854727"/>
<path d="M128.284 57.5005H126.796C126.548 57.5005 126.346 57.7023 126.346 57.9512C126.346 58.2002 126.548 58.402 126.796 58.402H128.284C128.533 58.402 128.735 58.2002 128.735 57.9512C128.735 57.7023 128.533 57.5005 128.284 57.5005Z" fill="#68371E"/>
<path d="M136.434 34.4483L137.053 35.1934C137.4 35.611 137.344 36.2268 136.926 36.5741C136.509 36.9214 135.893 36.8648 135.546 36.4472L134.926 35.7021C134.579 35.2845 134.635 34.6687 135.053 34.3214C135.47 33.9742 136.086 34.0308 136.434 34.4483Z" fill="#3E302E"/>
<path d="M133.006 12.2334C132.885 12.2379 132.765 12.2587 132.649 12.2954C132.649 12.2954 127.634 13.7006 124.625 16.284C121.875 18.6444 120.404 21.0986 120.152 23.8548C120.136 24.0313 120.155 24.2094 120.207 24.3787C120.26 24.548 120.345 24.7053 120.459 24.8416C120.572 24.9779 120.711 25.0905 120.868 25.173C121.025 25.2555 121.197 25.3063 121.373 25.3224C121.55 25.3385 121.728 25.3197 121.897 25.2671C122.067 25.2144 122.224 25.1289 122.36 25.0154C122.496 24.902 122.609 24.7628 122.691 24.6058C122.774 24.4488 122.824 24.2771 122.84 24.1006C123.023 22.0979 123.946 20.4238 126.381 18.3329C128.557 16.465 133.431 14.8799 133.431 14.8799C133.75 14.7898 134.024 14.5861 134.202 14.3073C134.38 14.0285 134.449 13.6941 134.396 13.3675C134.344 13.041 134.173 12.7451 133.917 12.536C133.661 12.3269 133.337 12.2193 133.006 12.2334V12.2334ZM138.229 14.7401C138.016 14.7489 137.809 14.8079 137.623 14.9125C136.234 15.6604 135.061 16.5163 134.064 17.3916C134.13 17.1787 134.143 16.9526 134.1 16.7336C134.058 16.5146 133.962 16.3095 133.82 16.1368C133.679 15.964 133.498 15.829 133.291 15.7437C133.085 15.6584 132.861 15.6255 132.639 15.648C132.563 15.6556 132.487 15.6698 132.413 15.6903C126.201 17.3699 124.611 23.8527 124.611 23.8527C124.561 24.0268 124.546 24.2092 124.568 24.3891C124.59 24.5691 124.648 24.7427 124.738 24.8998C124.829 25.0568 124.95 25.194 125.094 25.3033C125.239 25.4125 125.404 25.4914 125.58 25.5354C125.756 25.5794 125.939 25.5876 126.118 25.5593C126.297 25.5311 126.468 25.4671 126.622 25.3712C126.776 25.2753 126.908 25.1493 127.012 25.0009C127.116 24.8525 127.189 24.6847 127.227 24.5074C127.227 24.5074 128.495 19.5686 133.085 18.3056C130.401 21.0101 129.385 23.6231 129.385 23.6231C129.317 23.7893 129.283 23.9674 129.285 24.1469C129.287 24.3263 129.324 24.5036 129.396 24.6684C129.467 24.8331 129.57 24.982 129.7 25.1062C129.829 25.2305 129.983 25.3276 130.15 25.392C130.318 25.4564 130.496 25.4867 130.676 25.4811C130.855 25.4756 131.032 25.4343 131.195 25.3597C131.358 25.2851 131.505 25.1786 131.626 25.0466C131.748 24.9146 131.842 24.7596 131.903 24.5908C131.903 24.5908 133.594 20.1454 138.903 17.2875C139.176 17.1466 139.393 16.9168 139.518 16.636C139.643 16.3552 139.668 16.0402 139.589 15.7432C139.511 15.4462 139.333 15.1849 139.086 15.0025C138.838 14.8201 138.536 14.7276 138.229 14.7401V14.7401ZM143.484 15.2032C143.273 15.2241 143.069 15.2945 142.89 15.4088C142.89 15.4088 141.236 16.4269 139.412 17.9495C137.588 19.4721 135.517 21.4502 134.685 23.8712C134.626 24.0389 134.601 24.2166 134.612 24.394C134.622 24.5715 134.667 24.7451 134.745 24.905C134.822 25.0648 134.931 25.2078 135.064 25.3257C135.197 25.4436 135.352 25.5341 135.52 25.5919C135.688 25.6498 135.866 25.6739 136.043 25.6628C136.22 25.6518 136.394 25.6058 136.553 25.5276C136.713 25.4494 136.855 25.3404 136.973 25.2069C137.09 25.0734 137.18 24.9181 137.237 24.7499C137.733 23.3081 139.478 21.4098 141.141 20.0213C142.804 18.6328 144.308 17.7058 144.308 17.7058C144.572 17.5489 144.774 17.3066 144.882 17.019C144.99 16.7314 144.996 16.4156 144.9 16.1238C144.804 15.8321 144.611 15.5818 144.354 15.4145C144.096 15.2471 143.79 15.1725 143.484 15.2032V15.2032Z" fill="#49221A"/>
<path d="M153.184 18.5237C148.789 18.5237 145.25 22.2026 145.25 26.7723C145.25 29.9601 146.973 32.7124 149.506 34.0867V41.9227H150.402C151.459 41.9227 152.311 41.2261 152.311 40.3609V35.3215C152.322 35.3218 152.332 35.3251 152.343 35.3251H158.59C159.172 35.3251 159.641 34.8564 159.641 34.2737C159.641 33.691 159.172 33.2216 158.59 33.2216H158.138C159.955 31.7126 161.116 29.3894 161.116 26.7724C161.116 22.2027 157.578 18.5238 153.184 18.5238L153.184 18.5237Z" fill="#3E302E"/>
<path d="M150.885 13.7317C150.548 13.7226 150.219 13.8407 149.964 14.0626C149.709 14.2844 149.546 14.5939 149.508 14.9298C149.471 15.2656 149.56 15.6034 149.76 15.8764C149.959 16.1493 150.254 16.3375 150.585 16.4037C155.389 17.439 157.999 20.3484 159.492 23.6134C160.984 26.8783 161.214 30.5372 160.981 32.4067C160.426 36.843 160.815 38.9655 160.815 38.9655C160.849 39.1395 160.917 39.3049 161.016 39.4524C161.114 39.6 161.24 39.7267 161.388 39.8253C161.535 39.924 161.7 39.9926 161.874 40.0274C162.048 40.0621 162.227 40.0623 162.401 40.0279C162.575 39.9934 162.74 39.9251 162.888 39.8267C163.035 39.7283 163.162 39.6018 163.261 39.4545C163.359 39.3071 163.428 39.1418 163.462 38.9679C163.497 38.7941 163.497 38.6151 163.463 38.4412C163.463 38.4412 163.133 36.9391 163.658 32.7414C163.965 30.2838 163.698 26.3251 161.945 22.4908C160.192 18.6566 156.808 14.9844 151.154 13.7659C151.066 13.7455 150.976 13.7341 150.885 13.7317V13.7317Z" fill="#48211A"/>
<path d="M149.19 12.9069C148.835 12.9098 148.496 13.0523 148.245 13.3036C147.995 13.5549 147.853 13.8947 147.852 14.2494C147.85 14.6042 147.988 14.9454 148.236 15.1991C148.484 15.4529 148.822 15.5988 149.176 15.6053C150.043 15.6522 151.54 16.2261 153.045 17.2865C154.55 18.3469 156.092 19.8601 157.287 21.6133C159.678 25.1198 160.73 29.3558 158.057 33.5478C157.961 33.6973 157.896 33.8641 157.865 34.0387C157.834 34.2133 157.838 34.3923 157.876 34.5655C157.915 34.7386 157.987 34.9025 158.088 35.0478C158.19 35.1932 158.319 35.317 158.469 35.4124C158.618 35.5077 158.785 35.5727 158.96 35.6036C159.134 35.6344 159.313 35.6306 159.487 35.5923C159.66 35.554 159.824 35.4819 159.969 35.3802C160.114 35.2786 160.238 35.1493 160.333 34.9997C163.643 29.8097 162.303 24.1789 159.516 20.0929C158.123 18.0499 156.378 16.3337 154.599 15.0809C152.821 13.828 151.038 13.0025 149.324 12.9095C149.279 12.9064 149.234 12.9055 149.189 12.9068L149.19 12.9069Z" fill="#49211A" fill-opacity="0.996078"/>
<path d="M145.13 19.5366C144.874 19.5284 144.62 19.5937 144.399 19.7246C144.178 19.8556 144 20.0469 143.884 20.276C143.768 20.5051 143.72 20.7625 143.745 21.018C143.77 21.2735 143.868 21.5165 144.026 21.7184C144.026 21.7184 145.833 24.0812 148.44 26.7462C151.047 29.4113 154.425 32.4255 157.956 33.7873C158.122 33.8584 158.302 33.8953 158.483 33.8956C158.664 33.896 158.843 33.8598 159.01 33.7893C159.177 33.7187 159.328 33.6153 159.455 33.4851C159.581 33.3549 159.679 33.2006 159.744 33.0315C159.81 32.8624 159.84 32.6818 159.834 32.5007C159.828 32.3196 159.785 32.1415 159.709 31.9772C159.632 31.8128 159.523 31.6656 159.389 31.5442C159.254 31.4228 159.097 31.3298 158.925 31.2707C156.145 30.1985 152.852 27.3979 150.366 24.8569C147.88 22.3158 146.171 20.0794 146.171 20.0794C146.05 19.9164 145.893 19.7829 145.713 19.6889C145.533 19.5949 145.334 19.5428 145.13 19.5366V19.5366Z" fill="#49211A" fill-opacity="0.996078"/>
<path d="M147.894 19.0872C147.637 19.1018 147.39 19.1894 147.181 19.3398C146.973 19.4902 146.811 19.697 146.717 19.9359C146.622 20.1749 146.597 20.436 146.645 20.6885C146.694 20.941 146.813 21.1744 146.99 21.3613C150.535 25.229 153.469 27.475 155.557 28.7633C157.644 30.0516 159.022 30.4129 159.022 30.4129C159.197 30.4631 159.38 30.4776 159.56 30.4553C159.74 30.4331 159.914 30.3746 160.072 30.2834C160.229 30.1922 160.366 30.0702 160.475 29.9247C160.584 29.7792 160.662 29.6131 160.705 29.4366C160.749 29.26 160.756 29.0765 160.726 28.8972C160.697 28.7178 160.631 28.5463 160.534 28.3928C160.436 28.2394 160.309 28.1072 160.159 28.0042C160.009 27.9013 159.84 27.8296 159.662 27.7936C159.662 27.7936 158.831 27.6138 156.974 26.4681C155.118 25.3224 152.375 23.2425 148.979 19.5378C148.844 19.3856 148.676 19.2661 148.488 19.188C148.3 19.11 148.097 19.0755 147.894 19.0872V19.0872Z" fill="#49211A" fill-opacity="0.996078"/>
<path d="M155.105 54.7341C154.747 54.7342 154.404 54.8763 154.151 55.1293C153.898 55.3823 153.756 55.7255 153.755 56.0833C153.709 59.0989 153.951 61.33 154.709 63.2008C155.468 65.0715 156.755 66.4769 158.446 67.7332C160.096 68.9588 161.339 69.6258 162.214 69.9914C163.089 70.3571 163.764 70.4315 163.764 70.4315C163.942 70.4452 164.121 70.4233 164.291 70.3671C164.461 70.3109 164.617 70.2216 164.752 70.1042C164.887 69.9869 164.997 69.8439 165.077 69.6836C165.156 69.5233 165.202 69.3489 165.214 69.1705C165.225 68.992 165.2 68.8132 165.142 68.6442C165.083 68.4753 164.992 68.3197 164.872 68.1865C164.753 68.0532 164.609 67.945 164.447 67.8681C164.286 67.7912 164.111 67.7471 163.932 67.7384C163.932 67.7384 163.888 67.7667 163.252 67.5013C162.617 67.2359 161.561 66.6853 160.056 65.5671C158.592 64.4795 157.759 63.5409 157.21 62.1889C156.662 60.8368 156.41 58.9669 156.454 56.1228C156.459 55.9424 156.428 55.7627 156.363 55.5944C156.297 55.4261 156.199 55.2727 156.073 55.1432C155.947 55.0137 155.797 54.9108 155.63 54.8405C155.464 54.7702 155.285 54.7341 155.105 54.7341V54.7341Z" fill="#48211A"/>
<path d="M159.669 47.9752C159.381 47.9837 159.104 48.0839 158.877 48.2612C158.651 48.4385 158.487 48.6836 158.409 48.9607C154.944 60.7058 164.001 68.0679 164.001 68.0679C164.14 68.1782 164.299 68.26 164.469 68.3088C164.64 68.3575 164.818 68.3722 164.994 68.352C165.17 68.3318 165.341 68.2772 165.495 68.1912C165.65 68.1051 165.787 67.9894 165.897 67.8506C166.007 67.7119 166.089 67.5527 166.138 67.3823C166.187 67.212 166.201 67.0336 166.181 66.8576C166.161 66.6815 166.106 66.5111 166.02 66.3562C165.934 66.2013 165.818 66.0648 165.68 65.9546C165.68 65.9546 157.972 59.9761 160.997 49.7249C161.061 49.5197 161.075 49.3023 161.038 49.0906C161 48.879 160.913 48.6793 160.783 48.5081C160.654 48.337 160.485 48.1993 160.291 48.1066C160.097 48.0139 159.884 47.9689 159.669 47.9752V47.9752Z" fill="#48211A"/>
<path d="M158.019 48.9686C157.777 48.981 157.543 49.0582 157.341 49.1922C157.14 49.3262 156.978 49.512 156.873 49.7301C154.635 54.2058 154.552 58.5948 156.206 61.3115C157.472 63.3912 158.377 64.8399 158.377 64.8399C158.467 64.9976 158.588 65.1354 158.733 65.2452C158.878 65.355 159.043 65.4345 159.219 65.4788C159.395 65.5232 159.579 65.5315 159.758 65.5033C159.937 65.4752 160.109 65.4111 160.263 65.3149C160.417 65.2187 160.55 65.0924 160.655 64.9435C160.759 64.7947 160.832 64.6263 160.869 64.4486C160.906 64.2709 160.908 64.0875 160.873 63.9093C160.837 63.7311 160.767 63.5618 160.665 63.4117C160.665 63.4117 159.77 61.9767 158.512 59.9096C157.641 58.4794 157.377 54.7551 159.286 50.937C159.396 50.7261 159.447 50.4901 159.436 50.2528C159.425 50.0155 159.351 49.7853 159.223 49.5856C159.094 49.3859 158.915 49.2237 158.704 49.1153C158.492 49.007 158.256 48.9563 158.019 48.9686Z" fill="#48211A"/>
<path d="M158.755 49.9568C158.566 49.9629 158.381 50.0084 158.212 50.0904C158.042 50.1723 157.891 50.2889 157.769 50.4327C157.648 50.5764 157.557 50.7441 157.504 50.9249C157.451 51.1057 157.436 51.2957 157.461 51.4825C157.66 53.1735 158.538 58.7038 162.307 62.8688C162.426 63.0004 162.569 63.1072 162.729 63.1832C162.89 63.2593 163.063 63.303 163.24 63.312C163.417 63.3209 163.594 63.2949 163.761 63.2354C163.928 63.1759 164.082 63.0841 164.214 62.9652C164.345 62.8463 164.452 62.7027 164.528 62.5425C164.604 62.3824 164.648 62.2088 164.656 62.0317C164.665 61.8547 164.639 61.6776 164.58 61.5106C164.52 61.3436 164.428 61.19 164.31 61.0585C161.227 57.6511 160.302 52.5403 160.141 51.1663C160.106 50.8267 159.943 50.5132 159.686 50.2887C159.429 50.0643 159.096 49.9457 158.755 49.9568Z" fill="#48211A"/>
<path d="M134.596 11.7343C128.444 12.0586 122.939 14.5305 119.354 18.9203C119.235 19.0565 119.144 19.2155 119.087 19.3876C119.031 19.5597 119.009 19.7415 119.024 19.9221C119.039 20.1027 119.091 20.2785 119.175 20.4388C119.26 20.5992 119.375 20.7409 119.516 20.8554C119.656 20.97 119.818 21.0551 119.992 21.1057C120.166 21.1562 120.349 21.1712 120.529 21.1497C120.709 21.1283 120.883 21.0707 121.04 20.9806C121.197 20.8905 121.335 20.7696 121.444 20.6252C125.499 15.6604 132.634 13.4167 140.451 14.791C148.246 16.1615 151.319 20.4945 151.893 21.7688C152.357 22.8008 154.147 26.3925 155.872 29.8428C157.597 33.2931 159.221 36.5149 159.221 36.5149C159.267 36.6061 159.322 36.6919 159.387 36.7705C160.273 37.8382 161.099 41.0285 160.731 43.888C160.363 46.7474 159.122 49.0898 156.573 49.7485C156.339 49.809 156.126 49.9309 155.956 50.1016C153.866 52.1916 152.624 54.8099 152.235 58.1097C151.796 61.844 153.906 65.6435 153.906 65.6435C153.987 65.8013 154.098 65.9416 154.233 66.0565C154.368 66.1714 154.524 66.2585 154.693 66.313C154.862 66.3674 155.04 66.3881 155.216 66.3738C155.393 66.3595 155.565 66.3106 155.723 66.2298C155.881 66.149 156.021 66.0379 156.136 65.9029C156.251 65.7678 156.338 65.6115 156.392 65.4428C156.447 65.2741 156.468 65.0963 156.453 64.9196C156.439 64.7429 156.39 64.5707 156.309 64.4129C156.309 64.4129 154.633 60.8191 154.915 58.4233C155.243 55.6375 156.155 53.7721 157.801 52.0964C161.248 50.8874 162.983 47.5381 163.408 44.2306C163.858 40.7315 163.232 37.1777 161.464 35.0472L161.632 35.3028C161.632 35.3028 160.009 32.082 158.286 28.6359C156.563 25.1899 154.701 21.4331 154.354 20.6621C153.305 18.3305 149.53 13.6492 140.918 12.1349C138.77 11.7573 136.647 11.6262 134.596 11.7343V11.7343Z" fill="#58281F" fill-opacity="0.996078"/>
<path d="M143.982 10.878C140.828 10.7686 137.619 11.1704 135.265 12.6751C135.112 12.7687 134.979 12.8918 134.874 13.0374C134.769 13.1829 134.694 13.3479 134.654 13.5228C134.613 13.6976 134.608 13.8788 134.639 14.0556C134.669 14.2324 134.735 14.4014 134.831 14.5527C134.928 14.7039 135.054 14.8344 135.201 14.9364C135.349 15.0385 135.515 15.11 135.691 15.147C135.866 15.1839 136.048 15.1854 136.224 15.1515C136.4 15.1175 136.568 15.0488 136.717 14.9492C138.252 13.9679 141.067 13.4758 143.89 13.5737C146.712 13.6715 149.567 14.3353 151.115 15.1363C152.66 15.9352 154.493 17.7006 155.916 19.3841C157.34 21.0676 158.473 22.8425 158.562 23.0206C158.641 23.1791 158.751 23.3205 158.885 23.4366C159.019 23.5528 159.174 23.6414 159.342 23.6975C159.51 23.7535 159.688 23.7759 159.865 23.7634C160.041 23.7508 160.214 23.7036 160.373 23.6243C160.531 23.5451 160.672 23.4354 160.788 23.3015C160.905 23.1676 160.993 23.0121 161.049 22.844C161.105 22.6758 161.128 22.4983 161.115 22.3215C161.102 22.1447 161.055 21.9722 160.976 21.8137C160.555 20.9719 159.518 19.4648 157.977 17.6423C156.436 15.8198 154.509 13.8544 152.356 12.741C150.208 11.6297 147.135 10.9873 143.982 10.878V10.878Z" fill="#48211A"/>
<path d="M125.489 18.8174C125.141 18.8075 124.802 18.9329 124.544 19.1674C124.286 19.4019 124.128 19.7272 124.105 20.0752C124.081 20.4232 124.193 20.7668 124.418 21.0339C124.642 21.301 124.961 21.4709 125.308 21.5079C145.32 23.8713 153.335 22.4882 153.335 22.4882C153.509 22.4574 153.676 22.3925 153.826 22.2973C153.975 22.202 154.104 22.0782 154.206 21.933C154.308 21.7878 154.38 21.6239 154.418 21.4508C154.457 21.2777 154.461 21.0988 154.43 20.9242C154.399 20.7496 154.334 20.5828 154.239 20.4333C154.144 20.2838 154.02 20.1545 153.875 20.0528C153.729 19.9511 153.565 19.8791 153.392 19.8407C153.219 19.8024 153.04 19.7985 152.866 19.8293C152.866 19.8293 145.435 21.1676 125.624 18.828C125.579 18.8222 125.534 18.8187 125.489 18.8175V18.8174Z" fill="#49211A" fill-opacity="0.996078"/>
<path d="M130.437 16.3853C130.089 16.3812 129.752 16.5123 129.498 16.751C129.244 16.9898 129.092 17.3177 129.074 17.666C129.056 18.0143 129.174 18.3559 129.403 18.6192C129.631 18.8826 129.953 19.0471 130.3 19.0784C130.3 19.0784 140.559 20.1113 150.143 20.8993C150.32 20.9139 150.497 20.8935 150.666 20.8394C150.835 20.7852 150.992 20.6984 151.127 20.5837C151.262 20.4691 151.373 20.3289 151.454 20.1712C151.535 20.0136 151.585 19.8415 151.599 19.6648C151.614 19.4881 151.593 19.3103 151.539 19.1415C151.485 18.9727 151.398 18.8162 151.283 18.681C151.169 18.5458 151.028 18.4345 150.871 18.3535C150.713 18.2725 150.541 18.2233 150.364 18.2088C140.815 17.4237 130.572 16.3933 130.572 16.3933C130.527 16.3884 130.482 16.3857 130.437 16.3853V16.3853Z" fill="#49211A" fill-opacity="0.996078"/>
<path d="M143.285 11.6449C141.106 11.4931 138.767 11.5776 136.415 11.9874C131.711 12.8071 126.925 14.9788 123.569 19.3078C123.453 19.447 123.367 19.6082 123.315 19.7815C123.263 19.9549 123.246 20.1369 123.266 20.3168C123.286 20.4967 123.341 20.6708 123.43 20.8288C123.518 20.9867 123.637 21.1252 123.781 21.2361C123.924 21.347 124.088 21.4279 124.263 21.4742C124.438 21.5204 124.62 21.5309 124.799 21.5052C124.978 21.4794 125.15 21.4179 125.305 21.3242C125.46 21.2306 125.595 21.1067 125.701 20.96C128.565 17.2657 132.658 15.3817 136.879 14.6463C141.099 13.9109 145.421 14.3698 148.397 15.2919C151.06 16.117 153.511 18.8295 155.209 21.7769C156.058 23.2506 156.724 24.7633 157.167 26.0537C157.61 27.3441 157.812 28.4665 157.812 28.8785C157.81 29.0573 157.843 29.2348 157.909 29.4007C157.976 29.5666 158.075 29.7176 158.201 29.8449C158.326 29.9723 158.476 30.0734 158.641 30.1424C158.806 30.2114 158.983 30.2469 159.161 30.2469C159.34 30.2469 159.517 30.2114 159.682 30.1424C159.847 30.0734 159.997 29.9723 160.122 29.8449C160.248 29.7176 160.347 29.5666 160.413 29.4007C160.48 29.2348 160.513 29.0573 160.511 28.8785C160.511 27.8481 160.218 26.638 159.717 25.1788C159.217 23.7197 158.491 22.0668 157.549 20.4303C155.663 17.1575 152.933 13.8729 149.195 12.7147C147.483 12.1841 145.463 11.7966 143.285 11.6449V11.6449Z" fill="#58281F" fill-opacity="0.996078"/>
<path d="M139.941 13.1942C133.325 13.2975 129.05 19.3314 129.05 19.3314C128.943 19.4738 128.864 19.6361 128.82 19.809C128.775 19.9819 128.766 20.1619 128.791 20.3386C128.817 20.5152 128.877 20.6851 128.969 20.8383C129.061 20.9914 129.182 21.1249 129.326 21.2309C129.469 21.3369 129.632 21.4133 129.806 21.4557C129.979 21.4982 130.159 21.5058 130.336 21.4781C130.512 21.4505 130.681 21.3881 130.833 21.2946C130.985 21.2011 131.117 21.0784 131.222 20.9335C131.222 20.9335 135.061 15.9694 139.983 15.8925C142.658 15.8507 145.132 16.4001 147.828 18.2114C150.524 20.0228 153.439 23.1573 156.666 28.3303C156.856 28.6339 157.158 28.8499 157.507 28.9307C157.855 29.0115 158.222 28.9505 158.525 28.7611C158.829 28.5717 159.045 28.2695 159.126 27.9208C159.207 27.5722 159.146 27.2057 158.956 26.902C155.603 21.5276 152.474 18.0817 149.333 15.9716C146.192 13.8615 143.036 13.1458 139.941 13.1942V13.1942Z" fill="#58281F" fill-opacity="0.996078"/>
<path d="M146.713 15.218C145.197 15.1898 143.598 15.3497 141.999 15.6923C138.801 16.3776 135.599 17.81 133.237 20.172C133.108 20.2964 133.004 20.4453 132.933 20.61C132.862 20.7748 132.824 20.9521 132.822 21.1316C132.821 21.3111 132.855 21.4892 132.922 21.6554C132.99 21.8216 133.091 21.9726 133.217 22.0995C133.344 22.2264 133.495 22.3267 133.662 22.3946C133.828 22.4624 134.006 22.4965 134.185 22.4946C134.365 22.4928 134.542 22.4552 134.707 22.3839C134.872 22.3127 135.021 22.2093 135.145 22.0799C137.02 20.2049 139.768 18.9321 142.565 18.3327C145.362 17.7334 148.201 17.8245 150.089 18.4408C150.769 18.6628 151.713 19.4206 152.608 20.5699C153.503 21.7193 154.36 23.2159 155.066 24.7361C155.773 26.2562 156.333 27.8068 156.674 29.0524C156.844 29.6752 156.96 30.2239 157.014 30.6308C157.068 31.0377 157.022 31.333 157.051 31.2263C156.775 32.238 156.632 32.851 156.555 33.2343C156.479 33.6176 156.46 33.9273 156.46 33.9273C156.458 34.1061 156.491 34.2836 156.557 34.4495C156.624 34.6154 156.723 34.7664 156.849 34.8938C156.974 35.0211 157.124 35.1222 157.289 35.1912C157.454 35.2602 157.631 35.2957 157.809 35.2957C157.988 35.2957 158.165 35.2602 158.33 35.1912C158.495 35.1222 158.645 35.0211 158.77 34.8938C158.896 34.7664 158.995 34.6154 159.062 34.4495C159.128 34.2836 159.161 34.1061 159.159 33.9273C159.159 33.9273 159.142 34.0568 159.201 33.764C159.259 33.4711 159.386 32.9094 159.651 31.9378C159.816 31.3353 159.765 30.8548 159.688 30.2751C159.611 29.6953 159.471 29.048 159.277 28.3383C158.889 26.9188 158.282 25.2579 157.512 23.6003C156.742 21.9427 155.811 20.2929 154.737 18.9125C153.662 17.532 152.455 16.3759 150.926 15.8768C149.661 15.4637 148.229 15.2462 146.713 15.218L146.713 15.218Z" fill="#58281F" fill-opacity="0.996078"/>
<path d="M161.787 44.9103C161.499 44.928 161.225 45.0374 161.004 45.2223C160.783 45.4072 160.627 45.658 160.559 45.938C158.742 52.9338 158.221 56.8109 159.497 60.8369C160.09 62.7079 160.482 63.7734 160.741 64.4022C160.87 64.7167 160.966 64.9223 161.044 65.0716C161.122 65.2209 161.263 65.4194 161.263 65.4194C161.48 65.6899 161.794 65.866 162.139 65.911C162.483 65.9561 162.831 65.8666 163.111 65.6612C163.392 65.4558 163.582 65.1503 163.642 64.8084C163.703 64.4664 163.629 64.1142 163.437 63.8252C163.437 63.8268 163.434 63.8212 163.434 63.8225C163.407 63.7709 163.343 63.6329 163.236 63.3745C163.022 62.8539 162.648 61.8477 162.069 60.0226C161.002 56.6565 161.381 53.5023 163.17 46.6152C163.227 46.4081 163.234 46.1905 163.19 45.9803C163.146 45.7702 163.052 45.5736 162.917 45.4068C162.782 45.2401 162.609 45.1081 162.412 45.0217C162.216 44.9353 162.001 44.8971 161.787 44.9102L161.787 44.9103Z" fill="#582920"/>
<path d="M132.095 14.4328C131.781 14.4447 131.48 14.5663 131.245 14.7766C131.011 14.9868 130.857 15.2726 130.811 15.5842C130.765 15.8958 130.83 16.2137 130.994 16.4828C131.157 16.7518 131.41 16.9551 131.708 17.0574C140.147 20.1056 145.715 21.4809 149.216 22.0957C152.716 22.7106 154.323 22.5463 154.323 22.5463C154.499 22.5249 154.669 22.469 154.823 22.3818C154.977 22.2947 155.113 22.178 155.222 22.0384C155.332 21.8988 155.412 21.739 155.46 21.5682C155.507 21.3975 155.521 21.219 155.499 21.043C155.478 20.8671 155.422 20.697 155.335 20.5427C155.248 20.3883 155.131 20.2526 154.991 20.1434C154.852 20.0341 154.692 19.9534 154.521 19.9059C154.35 19.8584 154.172 19.845 153.996 19.8664C153.996 19.8664 152.986 20.0199 149.682 19.4395C146.378 18.8592 140.951 17.5273 132.625 14.5198C132.456 14.4556 132.276 14.4261 132.095 14.4328V14.4328Z" fill="#582920"/>
<path d="M158.815 49.1477C158.55 49.1642 158.297 49.2583 158.085 49.4181C157.874 49.5779 157.714 49.7963 157.626 50.0463C155.665 55.3686 156.202 57.8162 156.556 62.3391C156.908 66.8188 156.516 69.8317 155.919 71.3986C155.856 71.5642 155.826 71.7406 155.831 71.9177C155.836 72.0949 155.876 72.2693 155.948 72.431C156.02 72.5928 156.124 72.7387 156.253 72.8604C156.382 72.9821 156.533 73.0772 156.699 73.1404C156.864 73.2036 157.041 73.2335 157.218 73.2285C157.395 73.2234 157.569 73.1836 157.731 73.1111C157.893 73.0387 158.039 72.9351 158.16 72.8063C158.282 72.6775 158.377 72.526 158.44 72.3604C159.286 70.1411 159.617 66.8437 159.247 62.1283C158.88 57.456 158.333 55.9337 160.159 50.9791C160.24 50.768 160.267 50.5399 160.237 50.3157C160.207 50.0915 160.121 49.8784 159.987 49.6961C159.853 49.5137 159.676 49.3679 159.471 49.2721C159.266 49.1763 159.04 49.1335 158.815 49.1477V49.1477Z" fill="#582920"/>
<path d="M132.641 14.5856C129.848 14.7736 127.784 15.5324 125.4 16.6753C122.925 17.8622 121.26 19.2202 120.209 20.3065C119.158 21.3928 118.67 22.3013 118.67 22.3013C118.583 22.4586 118.529 22.6317 118.51 22.8103C118.491 22.989 118.507 23.1697 118.559 23.3418C118.611 23.5139 118.696 23.674 118.811 23.8125C118.925 23.9511 119.066 24.0654 119.225 24.1488C119.384 24.2322 119.559 24.2829 119.738 24.298C119.917 24.3131 120.097 24.2923 120.268 24.2368C120.439 24.1813 120.597 24.0922 120.733 23.9748C120.869 23.8574 120.98 23.7139 121.06 23.5529C121.06 23.5529 121.303 23.0565 122.148 22.1827C122.994 21.3089 124.39 20.1516 126.568 19.1075C128.837 18.0194 130.405 17.4388 132.823 17.2761C135.241 17.1134 138.559 17.4117 144.007 18.2669C144.185 18.3022 144.369 18.3011 144.546 18.2636C144.724 18.2262 144.893 18.1532 145.042 18.049C145.191 17.9449 145.317 17.8117 145.413 17.6575C145.51 17.5032 145.574 17.3312 145.602 17.1516C145.63 16.972 145.621 16.7886 145.577 16.6124C145.532 16.4361 145.452 16.2708 145.342 16.1261C145.232 15.9815 145.094 15.8605 144.936 15.7706C144.778 15.6807 144.604 15.6236 144.423 15.6028C138.907 14.7369 135.435 14.3977 132.641 14.5856V14.5856Z" fill="#57281F"/>
<path d="M139.037 21.0601C138.722 21.059 138.417 21.1682 138.174 21.3686C137.931 21.569 137.766 21.848 137.707 22.1574C137.649 22.4668 137.7 22.7869 137.852 23.0625C138.005 23.3381 138.249 23.5516 138.542 23.6662C146.023 26.7266 154.432 25.3448 154.432 25.3448C154.607 25.3174 154.775 25.2559 154.926 25.1636C155.077 25.0713 155.209 24.9502 155.314 24.807C155.418 24.6639 155.493 24.5016 155.535 24.3293C155.577 24.1571 155.584 23.9783 155.557 23.8032C155.53 23.6281 155.468 23.4601 155.376 23.3088C155.283 23.1575 155.162 23.0258 155.019 22.9214C154.876 22.8169 154.714 22.7416 154.541 22.6999C154.369 22.6581 154.19 22.6507 154.015 22.678C154.015 22.678 146.107 23.8447 139.564 21.1681C139.398 21.0971 139.218 21.0603 139.037 21.0601V21.0601Z" fill="#57281F"/>
<path d="M98.6848 95.6573L111.771 101.019C112.274 101.225 112.514 101.797 112.307 102.3L110.652 106.341C110.446 106.844 109.874 107.084 109.37 106.877L96.2846 101.516C95.7809 101.309 95.5416 100.738 95.7479 100.234L97.4032 96.194C97.6096 95.6903 98.1812 95.451 98.6848 95.6573Z" fill="#5B5B5B"/>
<path d="M110.476 118.141C111.917 119.813 111.73 122.32 110.057 123.761L99.626 132.746C97.9532 134.187 95.4465 134 94.0057 132.327C92.5648 130.654 92.7516 128.147 94.4244 126.707L104.855 117.722C106.528 116.281 109.035 116.468 110.476 118.141Z" fill="#5B5B5B"/>
<path d="M114.617 124.78C115.354 125.637 115.259 126.92 114.402 127.658L101.579 138.703C100.723 139.441 99.4395 139.345 98.7019 138.488C97.9642 137.632 98.0598 136.349 98.9162 135.611L111.739 124.566C112.596 123.828 113.879 123.924 114.617 124.78Z" fill="#C0292F"/>
<path d="M154.853 182.328L156.093 181.959C156.596 181.81 157.121 182.094 157.27 182.597L161.747 197.645C161.897 198.148 161.612 198.673 161.11 198.823L159.869 199.192C159.367 199.341 158.842 199.057 158.692 198.554L154.215 183.506C154.066 183.003 154.35 182.478 154.853 182.328Z" fill="#5B5B5B"/>
<path d="M135.361 132.819C131.418 132.819 127.661 133.578 124.223 134.955C125.012 136.128 125.473 137.542 125.473 139.068V148.662C125.473 151.701 123.646 154.297 121.027 155.42V188.856C125.277 191.178 130.158 192.498 135.361 192.498H139.327C154.593 192.498 167.11 181.148 168.936 166.392C169.939 165.557 170.859 164.82 171.474 164.294C174.159 161.999 178.168 162.312 180.462 164.997L166.545 148.717C166.089 148.183 165.564 147.748 164.996 147.403C159.805 138.659 150.275 132.819 139.327 132.819H135.361Z" fill="#C0292F"/>
<path d="M122.762 133.36C124.417 134.707 125.472 136.759 125.472 139.068V145.26H164.298C166.296 145.26 167.904 143.652 167.904 141.654V136.966C167.904 134.968 166.296 133.36 164.298 133.36H122.762Z" fill="#9D2226"/>
<path d="M136.243 141.62H150.011C154.956 141.62 158.936 145.6 158.936 150.544C158.936 155.488 154.956 159.468 150.011 159.468H136.243C131.299 159.468 127.318 155.488 127.318 150.544C127.318 145.6 131.299 141.62 136.243 141.62V141.62Z" fill="#A52428"/>
<path d="M141.32 113C133.275 113 125.349 119.312 123.549 127.153L122.217 132.955C124.182 134.273 125.472 136.514 125.472 139.068V145.44H148.386C149.685 143.613 150.647 141.572 151.143 139.413L153.957 127.153C155.757 119.312 150.73 113 142.685 113H141.32Z" fill="#9D2226"/>
<path d="M145.359 112.639H146.807C154.247 112.639 161.585 118.474 163.261 125.723L165.881 137.057C167.557 144.305 162.916 150.141 155.477 150.141H154.028C146.588 150.141 139.25 144.305 137.574 137.057L134.954 125.723C133.279 118.474 137.919 112.639 145.359 112.639V112.639Z" fill="#C0292F"/>
<path d="M156.811 66.1297C156.315 65.9607 155.779 66.2243 155.61 66.7207L144.744 98.6372C144.574 99.1336 144.838 99.6693 145.334 99.8383C145.831 100.007 146.367 99.7438 146.536 99.2474L157.402 67.3309C157.571 66.8345 157.307 66.2988 156.811 66.1297V66.1297Z" fill="#4F3F3F"/>
<path d="M140.773 104.116C137.78 103.394 134.762 105.36 134.008 108.524L131.239 120.131C130.484 123.295 132.286 126.424 135.279 127.146C138.272 127.868 141.29 125.902 142.044 122.737L144.813 111.131C145.568 107.966 143.766 104.838 140.773 104.116Z" fill="#9D2226"/>
<path d="M145.556 97.4469C144.254 97.1342 142.957 97.9388 142.647 99.2509L136.579 124.952C136.27 126.264 137.068 127.572 138.37 127.885C139.672 128.197 140.969 127.393 141.279 126.081L147.347 100.38C147.657 99.0675 146.858 97.7595 145.556 97.4469Z" fill="#9D2226"/>
<path d="M125.183 69.4012C125.671 69.2902 126.157 69.6125 126.274 70.1238L133.299 100.996C133.416 101.508 133.117 102.009 132.629 102.12C132.141 102.231 131.655 101.908 131.539 101.397L124.513 70.5245C124.396 70.0132 124.695 69.5122 125.183 69.4012Z" fill="#4F3F3F"/>
<path d="M136.949 105.102C139.98 104.572 142.866 106.725 143.42 109.93L145.453 121.686C146.007 124.891 144.013 127.898 140.982 128.428C137.952 128.959 135.066 126.805 134.511 123.601L132.479 111.844C131.925 108.639 133.918 105.632 136.949 105.102Z" fill="#C0292F"/>
<path d="M132.593 98.1444C133.909 97.915 135.152 98.8 135.378 100.129L139.822 126.159C140.049 127.487 139.172 128.742 137.856 128.971C136.539 129.201 135.297 128.316 135.07 126.987L130.626 100.957C130.399 99.6284 131.277 98.3739 132.593 98.1444Z" fill="#C0292F"/>
<path d="M125.162 69.9283C125.074 69.9297 124.986 69.9485 124.905 69.9837C124.824 70.0189 124.75 70.0697 124.688 70.1333C124.627 70.197 124.578 70.2721 124.545 70.3545C124.513 70.4368 124.497 70.5248 124.498 70.6134V81.7995C124.498 87.8527 129.391 92.7458 135.444 92.7458C135.534 92.747 135.623 92.7305 135.705 92.6972C135.788 92.6639 135.864 92.6144 135.928 92.5516C135.991 92.4888 136.042 92.414 136.076 92.3316C136.111 92.2491 136.129 92.1606 136.129 92.0712C136.129 91.9818 136.111 91.8933 136.076 91.8108C136.042 91.7283 135.991 91.6535 135.928 91.5908C135.864 91.528 135.788 91.4785 135.705 91.4452C135.623 91.4118 135.534 91.3953 135.444 91.3966C130.115 91.3966 125.847 87.1286 125.847 81.7995V70.6134C125.849 70.5231 125.832 70.4333 125.798 70.3496C125.764 70.2658 125.714 70.1897 125.65 70.1258C125.586 70.0619 125.51 70.0115 125.426 69.9776C125.342 69.9436 125.253 69.9269 125.162 69.9283V69.9283ZM159.959 69.9283C159.87 69.9297 159.783 69.9485 159.702 69.9837C159.62 70.0189 159.547 70.0697 159.485 70.1333C159.423 70.197 159.375 70.2721 159.342 70.3545C159.31 70.4368 159.293 70.5248 159.295 70.6134V81.7995C159.295 87.1286 155.027 91.3966 149.698 91.3966C149.608 91.3953 149.52 91.4118 149.437 91.4452C149.354 91.4785 149.278 91.528 149.215 91.5908C149.151 91.6535 149.1 91.7283 149.066 91.8108C149.031 91.8933 149.014 91.9818 149.014 92.0712C149.014 92.1606 149.031 92.2491 149.066 92.3316C149.1 92.414 149.151 92.4888 149.215 92.5516C149.278 92.6144 149.354 92.6639 149.437 92.6972C149.52 92.7305 149.608 92.747 149.698 92.7458C155.751 92.7458 160.644 87.8527 160.644 81.7995V70.6134C160.645 70.5231 160.629 70.4333 160.595 70.3496C160.561 70.2658 160.51 70.1897 160.446 70.1258C160.383 70.0619 160.306 70.0115 160.223 69.9776C160.139 69.9436 160.049 69.9269 159.959 69.9283V69.9283Z" fill="#453737"/>
<path d="M161.273 68.5765C161.191 68.5776 161.109 68.593 161.034 68.6219C160.959 68.6507 160.89 68.6925 160.833 68.7446C160.776 68.7968 160.731 68.8584 160.701 68.926C160.67 68.9936 160.655 69.0657 160.657 69.1384V84.5927C160.657 94.7306 152.441 102.82 142.302 102.82C132.162 102.82 123.947 94.7306 123.947 84.5927V69.4517C123.948 69.3784 123.933 69.3056 123.902 69.2376C123.871 69.1696 123.825 69.1076 123.767 69.0554C123.708 69.0032 123.639 68.9617 123.563 68.9334C123.486 68.9051 123.404 68.8906 123.321 68.8906C123.238 68.8906 123.156 68.9051 123.08 68.9334C123.003 68.9617 122.934 69.0032 122.875 69.0554C122.817 69.1076 122.771 69.1696 122.74 69.2376C122.71 69.3056 122.694 69.3784 122.695 69.4517V84.5927C122.695 95.2614 131.411 103.926 142.302 103.926C153.192 103.926 161.908 95.2614 161.908 84.5927V69.1384C161.909 69.0643 161.894 68.9907 161.862 68.922C161.831 68.8533 161.784 68.7909 161.725 68.7385C161.666 68.6861 161.595 68.6447 161.517 68.6169C161.44 68.5891 161.356 68.5753 161.273 68.5765V68.5765Z" fill="#582920"/>
<path d="M150.132 129.885C151.009 129.507 152.018 129.908 152.396 130.784L158.684 145.363C159.061 146.24 158.66 147.249 157.784 147.627C156.908 148.005 155.898 147.604 155.52 146.728L149.233 132.149C148.855 131.272 149.256 130.263 150.132 129.885Z" fill="#9D2226"/>
<path d="M141.15 126.241C142.205 125.786 143.42 126.269 143.875 127.324L151.443 144.873C151.898 145.928 151.415 147.143 150.36 147.598C149.306 148.053 148.09 147.57 147.635 146.515L140.067 128.966C139.612 127.911 140.095 126.696 141.15 126.241Z" fill="#9D2226"/>
<path d="M125.471 144.539V148.662C125.471 149.424 125.356 150.158 125.143 150.849H165.354C167.102 150.849 168.509 149.442 168.509 147.694C168.509 145.946 167.102 144.539 165.354 144.539H125.471Z" fill="#874E3A" fill-opacity="0.996078"/>
<path d="M169.281 152.172L175.26 159.515C175.896 160.296 175.78 161.437 174.998 162.073C174.217 162.709 173.076 162.592 172.44 161.811L166.461 154.469C165.825 153.688 165.942 152.547 166.723 151.911C167.504 151.275 168.645 151.391 169.281 152.172Z" fill="#D53A40"/>
<path d="M123.371 156.979C124.67 156.979 125.715 158.024 125.715 159.323V176.631C125.715 177.93 124.67 178.975 123.371 178.975C122.073 178.975 121.027 177.93 121.027 176.631V159.323C121.027 158.024 122.073 156.979 123.371 156.979Z" fill="#D53A40"/>
<path d="M123.938 182.289H126.492C128.115 182.289 129.422 183.596 129.422 185.219V189.558C129.422 191.181 128.115 192.488 126.492 192.488H123.938C122.315 192.488 121.008 191.181 121.008 189.558V185.219C121.008 183.596 122.315 182.289 123.938 182.289Z" fill="#C0292F"/>
<path d="M135.04 162.78L146.719 165.866C148.844 166.427 150.102 168.589 149.541 170.714C148.98 172.838 146.817 174.097 144.693 173.535L133.014 170.45C130.889 169.888 129.631 167.726 130.192 165.602C130.753 163.477 132.915 162.218 135.04 162.78Z" fill="#B4272C"/>
<path d="M146.296 166.413L151.915 163.403C153.316 162.652 155.048 163.176 155.798 164.576C156.549 165.977 156.025 167.709 154.624 168.46L149.005 171.47C147.605 172.22 145.873 171.697 145.122 170.296C144.372 168.895 144.895 167.163 146.296 166.413Z" fill="#B4272C"/>
<path d="M92.6559 125.438L105.19 115.275C105.752 114.819 106.572 114.904 107.028 115.467C107.484 116.029 107.399 116.849 106.836 117.305L94.3025 127.469C93.7401 127.925 92.92 127.839 92.4639 127.277C92.0078 126.714 92.0934 125.894 92.6559 125.438Z" fill="#FFFFFE"/>
<path d="M128.007 177.226L131.906 179.103C133.728 179.98 134.489 182.154 133.612 183.976C132.735 185.799 130.561 186.56 128.739 185.683L124.84 183.806C123.017 182.929 122.256 180.755 123.133 178.933C124.011 177.11 126.184 176.349 128.007 177.226Z" fill="#D53A40"/>
<path d="M132.521 180.057H137.209C138.382 180.057 139.327 181.002 139.327 182.176C139.327 183.349 138.382 184.294 137.209 184.294H132.521C131.347 184.294 130.402 183.349 130.402 182.176C130.402 181.002 131.347 180.057 132.521 180.057Z" fill="#D53A40"/>
<path d="M131.796 64.439C128.725 65.6112 125.992 67.2494 123.75 69.249V70.2258C123.75 78.8425 130.687 85.7791 139.303 85.7791H144.913C153.53 85.7791 160.467 78.8425 160.467 70.2258V67.9515C158.601 66.5587 156.471 65.3877 154.143 64.4864H153.685V67.0026C153.685 71.4306 147.977 74.9954 143.549 74.9954H140.667C136.239 74.9954 132.674 71.4306 132.674 67.0026V64.485C132.378 64.4836 132.085 64.4686 131.796 64.439V64.439Z" fill="#5B5B5B"/>
<path d="M151.78 12.2971C160.034 17.47 161.192 22.5417 161.02 30.1639L151.395 29.8419C150.879 21.9409 148.43 14.4406 140.258 11.2618C138.822 10.599 147.25 10.3552 151.78 12.2971Z" fill="#EFEAD9" fill-opacity="0.998039"/>
<path d="M142.886 10.7806C142.16 10.7739 141.548 10.7994 141.072 10.8461C142.659 11.9215 144.024 13.0682 145.181 14.2248C146.234 15.1588 147.12 16.2098 147.863 17.3532C149.194 19.1786 150.052 20.8596 150.547 22.097C151.461 24.3835 151.574 27.6761 151.715 29.852L155.292 29.9719C155.334 22.4697 153.553 15.9228 144.831 10.8622C144.138 10.8126 143.479 10.786 142.886 10.7806V10.7806Z" fill="#50691D" fill-opacity="0.996078"/>
<path d="M139.23 11.1744C145.036 14.3372 151.002 21.3849 151.002 28.4115V45.7992C151.002 55.5094 143.535 63.4136 133.912 64.2975H139.617C147.086 61.3722 152.351 54.2081 152.351 45.7992V28.4115C152.351 21.4779 147.031 14.5607 141.319 10.8705H139.777C139.653 10.833 139.047 11.026 139.23 11.1744Z" fill="#BE9775"/>
<path d="M148.959 11.4338L148.994 11.5168C154.54 15.0865 157.217 19.6762 158.237 22.226C159.181 24.5879 159.196 28.1938 159.362 30.1078L161.023 30.1636C161.195 22.5414 160.036 17.4699 151.783 12.297C150.946 11.9382 149.975 11.6545 148.959 11.4338H148.959Z" fill="#9D2226"/>
<path d="M119.808 29.5991H163.891C164.415 29.5991 164.837 30.0213 164.837 30.5457V31.9881C164.837 32.5125 164.415 32.9346 163.891 32.9346H119.808C119.283 32.9346 118.861 32.5125 118.861 31.9881V30.5457C118.861 30.0213 119.283 29.5991 119.808 29.5991Z" fill="#5B5B5B"/>
<path d="M129.326 213.677L146.631 211.158C147.087 211.091 147.507 211.405 147.573 211.86L147.813 213.505C147.879 213.96 147.566 214.38 147.11 214.446L129.805 216.966C129.349 217.032 128.929 216.719 128.863 216.264L128.624 214.619C128.557 214.164 128.871 213.744 129.326 213.677Z" fill="#BF9876" fill-opacity="0.996078"/>
<path d="M132.385 212.331H133.647C134.596 212.331 135.36 213.094 135.36 214.043V223.148C135.36 224.097 134.596 224.861 133.647 224.861H132.385C131.436 224.861 130.672 224.097 130.672 223.148V214.043C130.672 213.094 131.436 212.331 132.385 212.331Z" fill="#D7BFAA" fill-opacity="0.996078"/>
<path d="M163.206 69.8387C163.117 69.8401 163.03 69.8589 162.949 69.8941C162.867 69.9293 162.794 69.9801 162.732 70.0437C162.67 70.1074 162.622 70.1825 162.589 70.2649C162.557 70.3472 162.541 70.4352 162.542 70.5238V89.3675C162.542 101.729 153.684 111.592 142.752 111.592C131.82 111.592 122.963 101.729 122.963 89.3675V70.9059C122.964 70.8165 122.947 70.7278 122.914 70.6448C122.881 70.5619 122.831 70.4864 122.768 70.4227C122.706 70.3591 122.631 70.3085 122.548 70.274C122.466 70.2395 122.377 70.2217 122.288 70.2217C122.199 70.2217 122.11 70.2395 122.028 70.274C121.945 70.3085 121.87 70.3591 121.808 70.4227C121.745 70.4864 121.695 70.5619 121.662 70.6448C121.629 70.7278 121.612 70.8165 121.613 70.9059V89.3675C121.613 102.376 131.01 112.941 142.752 112.941C154.494 112.941 163.891 102.376 163.891 89.3675V70.5238C163.893 70.4335 163.876 70.3437 163.842 70.26C163.808 70.1762 163.758 70.1001 163.694 70.0362C163.63 69.9723 163.554 69.9219 163.47 69.888C163.386 69.854 163.296 69.8373 163.206 69.8387V69.8387Z" fill="#BE9775"/>
<path d="M138.986 89.7095C136.929 89.7095 135.252 91.3863 135.252 93.4434C135.252 95.5006 136.929 97.1774 138.986 97.1774H145.489C147.547 97.1774 149.223 95.5006 149.223 93.4434C149.223 91.3863 147.547 89.7095 145.489 89.7095H138.986ZM138.986 91.0587H145.489C146.822 91.0587 147.874 92.1104 147.874 93.4434C147.874 94.7765 146.822 95.8282 145.489 95.8282H138.986C137.653 95.8282 136.601 94.7765 136.601 93.4434C136.601 92.1104 137.653 91.0587 138.986 91.0587Z" fill="#BE9775"/>
<path d="M155.732 65.1592V66.6289C155.732 72.3598 151.141 76.9511 145.41 76.9511H140.182C134.451 76.9511 129.858 72.3598 129.858 66.6289V65.2672C129.4 65.482 128.948 65.7038 128.509 65.9401V66.6289C128.509 73.0839 133.727 78.3001 140.182 78.3001H145.41C151.865 78.3001 157.082 73.0839 157.082 66.6289V65.8264C156.641 65.594 156.191 65.3701 155.732 65.1592V65.1592ZM158.665 66.7307V68.3364C158.665 75.5668 152.865 81.3672 145.634 81.3672H139.955C132.725 81.3672 126.925 75.5668 126.925 68.3364V66.8715C126.464 67.1633 126.011 67.4638 125.576 67.78V68.3364C125.576 76.2909 132.001 82.7163 139.955 82.7163H145.634C153.589 82.7163 160.014 76.2909 160.014 68.3364V67.6259C159.578 67.3155 159.128 67.0169 158.665 66.7307V66.7307Z" fill="#525252"/>
<path d="M137.377 74.3389H147.346C149.161 74.3389 150.622 75.7998 150.622 77.6144V82.2311C150.622 84.0458 149.161 85.5067 147.346 85.5067H137.377C135.562 85.5067 134.102 84.0458 134.102 82.2311V77.6144C134.102 75.7998 135.562 74.3389 137.377 74.3389Z" fill="#B48760"/>
<path d="M142.562 75.3457C145.109 75.3457 147.16 77.3962 147.16 79.9433C147.16 82.4903 145.109 84.5409 142.562 84.5409C140.015 84.5409 137.965 82.4903 137.965 79.9433C137.965 77.3962 140.015 75.3457 142.562 75.3457Z" fill="#BE9775"/>
<path d="M186.145 93.0766L173.059 98.4381C172.555 98.6445 172.272 99.2361 172.522 99.7198L173.094 100.828C173.3 101.331 173.872 101.571 174.375 101.364L187.461 96.0026C187.965 95.7963 188.204 95.2247 187.998 94.721L187.426 93.6132C187.177 93.1295 186.648 92.8702 186.145 93.0766Z" fill="#BE9775"/>
<path d="M128.374 12.2016L163.111 26.1955C163.463 26.3375 163.632 26.7356 163.49 27.088C163.349 27.4405 162.95 27.6099 162.598 27.4679L127.862 13.474C127.509 13.332 127.34 12.934 127.482 12.5815C127.624 12.2291 128.022 12.0596 128.374 12.2016Z" fill="#C0292F"/>
<path d="M127.067 31.0414C127.067 31.4558 126.99 31.8661 126.841 32.2489C126.691 32.6317 126.472 32.9795 126.196 33.2725C125.919 33.5655 125.591 33.7979 125.231 33.9565C124.87 34.115 124.483 34.1966 124.092 34.1966C123.701 34.1966 123.315 34.115 122.954 33.9565C122.593 33.7979 122.265 33.5655 121.989 33.2725C121.712 32.9795 121.493 32.6317 121.344 32.2489C121.194 31.8661 121.117 31.4558 121.117 31.0414C121.117 30.6271 121.194 30.2168 121.344 29.834C121.493 29.4512 121.712 29.1034 121.989 28.8104C122.265 28.5174 122.593 28.285 122.954 28.1264C123.315 27.9678 123.701 27.8862 124.092 27.8862C124.881 27.8862 125.638 28.2187 126.196 28.8104C126.754 29.4021 127.067 30.2046 127.067 31.0414V31.0414Z" fill="#BE9775"/>
<path d="M198.761 119.047H204.102C204.324 119.047 204.502 119.225 204.502 119.447V247.81C204.502 248.031 204.324 248.21 204.102 248.21H198.761C198.54 248.21 198.361 248.031 198.361 247.81V119.447C198.361 119.225 198.54 119.047 198.761 119.047V119.047Z" fill="#A56D4E" fill-opacity="0.996078"/>
<path d="M201.432 5.76953C205.128 5.76953 209.953 11.267 209.726 18.0844L208.103 66.841C207.876 73.658 205.128 79.1558 201.432 79.1558C197.737 79.1558 194.988 73.658 194.761 66.841L193.139 18.0844C192.912 11.267 197.737 5.76953 201.432 5.76953V5.76953Z" fill="#707070"/>
<path d="M196.991 63.2871H205.871C207.107 63.2871 208.102 64.4748 208.102 65.95V76.493C208.102 77.9683 207.107 79.1559 205.871 79.1559H196.991C195.755 79.1559 194.76 77.9683 194.76 76.493V65.95C194.76 64.4748 195.755 63.2871 196.991 63.2871Z" fill="#707070"/>
<path d="M209.595 22.0518L193.402 25.9917L194.051 45.4675L208.936 41.8448L209.595 22.0518ZM208.696 49.0428L194.286 52.549L194.657 63.6785L208.32 60.3536L208.696 49.0428Z" fill="#7A7A7A"/>
<path d="M198.466 119.047H204.397C204.455 119.047 204.502 119.094 204.502 119.152V152.907C204.502 152.966 204.455 153.013 204.397 153.013H198.466C198.408 153.013 198.361 152.966 198.361 152.907V119.152C198.361 119.094 198.408 119.047 198.466 119.047Z" fill="#8C5D42" fill-opacity="0.996078"/>
<path d="M201.432 69.9888C199.166 69.9888 197.342 72.7225 197.342 76.1186V90.7439H205.522V76.1186C205.522 72.7225 203.698 69.9888 201.432 69.9888ZM197.342 112.76V127.41C197.342 130.806 199.166 133.541 201.432 133.541C203.698 133.541 205.522 130.806 205.522 127.41V112.76H197.342Z" fill="#5B5B5B"/>
<path d="M198.735 126.512H204.128C205.459 126.512 206.531 127.584 206.531 128.915V131.312C206.531 132.644 205.459 133.715 204.128 133.715H198.735C197.404 133.715 196.332 132.644 196.332 131.312V128.915C196.332 127.584 197.404 126.512 198.735 126.512Z" fill="#5B5B5B"/>
<path d="M201.432 16.4348C202.209 16.4348 202.834 17.2019 202.834 18.1547V78.1949C202.834 79.1478 202.209 79.9148 201.432 79.9148C200.655 79.9148 200.029 79.1478 200.029 78.1949V18.1547C200.029 17.2019 200.655 16.4348 201.432 16.4348V16.4348Z" fill="#5B5B5B"/>
<path d="M203.016 77.6484C203.64 77.6484 204.142 78.151 204.142 78.7753V86.0773C204.142 86.7016 203.64 87.2042 203.016 87.2042C202.391 87.2042 201.889 86.7016 201.889 86.0773V78.7753C201.889 78.151 202.391 77.6484 203.016 77.6484Z" fill="#707070"/>
<path d="M202.025 127.5H204.009C204.633 127.5 205.135 128.003 205.135 128.627V129.258C205.135 129.883 204.633 130.385 204.009 130.385H202.025C201.401 130.385 200.898 129.883 200.898 129.258V128.627C200.898 128.003 201.401 127.5 202.025 127.5Z" fill="#707070"/>
<path d="M104.954 119.983L102.586 121.902C101.715 122.608 101.581 123.888 102.287 124.76L102.687 125.253C103.393 126.125 104.673 126.259 105.545 125.552L107.913 123.633C108.785 122.927 108.919 121.647 108.212 120.775L107.812 120.282C107.106 119.41 105.826 119.276 104.954 119.983Z" fill="#7A7A7A"/>
<path d="M108.235 102.193C108.235 101.101 107.351 100.217 106.259 100.217C105.168 100.217 104.283 101.101 104.283 102.193V102.32C104.283 103.411 105.168 104.296 106.259 104.296C107.351 104.296 108.235 103.411 108.235 102.32V102.193Z" fill="#7A7A7A"/>
<path d="M184.371 94.6399H184.179C183.581 94.6399 183.096 95.1251 183.096 95.7236C183.096 96.322 183.581 96.8072 184.179 96.8072H184.371C184.969 96.8072 185.454 96.322 185.454 95.7236C185.454 95.1251 184.969 94.6399 184.371 94.6399Z" fill="#D2B69F"/>
<path d="M133.345 29.6841H128.692C128.41 29.6841 128.182 29.9124 128.182 30.194V32.3614C128.182 32.643 128.41 32.8713 128.692 32.8713H133.345C133.627 32.8713 133.855 32.643 133.855 32.3614V30.194C133.855 29.9124 133.627 29.6841 133.345 29.6841Z" fill="#50691E"/>
<path d="M139.761 29.6841H135.108C134.826 29.6841 134.598 29.9124 134.598 30.194V32.3614C134.598 32.643 134.826 32.8713 135.108 32.8713H139.761C140.043 32.8713 140.271 32.643 140.271 32.3614V30.194C140.271 29.9124 140.043 29.6841 139.761 29.6841Z" fill="#9D2226"/>
<path d="M146.179 29.6841H141.526C141.244 29.6841 141.016 29.9124 141.016 30.194V32.3614C141.016 32.643 141.244 32.8713 141.526 32.8713H146.179C146.461 32.8713 146.689 32.643 146.689 32.3614V30.194C146.689 29.9124 146.461 29.6841 146.179 29.6841Z" fill="#EFEAD9" fill-opacity="0.998039"/>
<path d="M152.597 29.6841H147.944C147.662 29.6841 147.434 29.9124 147.434 30.194V32.3614C147.434 32.643 147.662 32.8713 147.944 32.8713H152.597C152.879 32.8713 153.107 32.643 153.107 32.3614V30.194C153.107 29.9124 152.879 29.6841 152.597 29.6841Z" fill="#9D2226"/>
<path d="M120.118 29.6841H118.906C118.625 29.6841 118.396 29.9124 118.396 30.194V32.3614C118.396 32.643 118.625 32.8713 118.906 32.8713H120.118C120.399 32.8713 120.628 32.643 120.628 32.3614V30.194C120.628 29.9124 120.399 29.6841 120.118 29.6841Z" fill="#9D2226"/>
<path d="M159.031 29.6841H154.377C154.096 29.6841 153.867 29.9124 153.867 30.194V32.3614C153.867 32.643 154.096 32.8713 154.377 32.8713H159.031C159.312 32.8713 159.54 32.643 159.54 32.3614V30.194C159.54 29.9124 159.312 29.6841 159.031 29.6841Z" fill="#50691E"/>
<defs>
<linearGradient id="paint0_linear_2065_11438" x1="61.8584" y1="129.497" x2="64.9182" y2="60.1426" gradientUnits="userSpaceOnUse">
<stop stop-color="#694622"/>
<stop offset="1" stop-color="#54381B"/>
</linearGradient>
</defs>
</svg>
