<svg width="308" height="241" viewBox="0 0 308 241" fill="none" xmlns="http://www.w3.org/2000/svg">
<path d="M88.7977 78.8909L92.1119 75.5445C94.5803 73.2647 97.9708 73.3681 99.1898 75.7608L103.241 83.7151C103.698 84.6117 104.021 85.5954 104.204 86.6415L104.995 91.1739C105.415 93.5769 105.395 96.1418 104.936 98.7574L104.11 103.467C103.989 104.153 103.928 104.834 103.928 105.501V107.121C103.928 107.899 103.734 108.712 103.362 109.489C102.861 110.537 102.721 111.634 102.744 112.676C102.828 116.676 100.64 120.597 98.336 121.56L98.2953 121.577C95.6904 122.667 92.9221 119.908 92.1119 115.417L90.7071 111.106L88.2118 102.086C87.5359 99.6444 87.3478 96.9805 87.6564 94.2256L88.0949 90.3185L88.4811 86.3996C88.5668 85.5353 88.3628 84.7392 87.9025 84.1396C86.8396 82.7526 87.228 80.4758 88.7977 78.8909Z" fill="#AD6F4B"/>
<path d="M98.0098 96.3534L98.0585 96.3556C101.164 96.4949 103.74 100.163 103.809 104.55L104.336 137.484C104.405 141.87 101.944 145.313 98.8382 145.174L98.7896 145.172C95.6837 145.032 93.1092 141.364 93.0388 136.978L92.5132 104.044C92.4428 99.6573 94.9039 96.2149 98.0098 96.3534Z" fill="#AD6F4B"/>
<path d="M96.2039 131.449L98.2468 131.598C102.162 131.884 105.394 136.247 105.464 141.343L105.527 145.871C105.597 150.967 102.48 154.866 98.5641 154.58L96.5211 154.431C92.6057 154.145 89.375 149.782 89.3046 144.685L89.2414 140.159C89.171 135.063 92.2885 131.163 96.2039 131.449Z" fill="#AD6F4B"/>
<path d="M94.8674 144.168C95.8606 141.041 99.1058 139.684 102.117 141.135C105.127 142.587 106.763 146.299 105.77 149.426L103.058 157.965C102.065 161.092 98.8191 162.45 95.809 160.997C92.7982 159.545 91.1625 155.834 92.1557 152.707L94.8674 144.168Z" fill="#AD6F4B"/>
<path d="M88.4651 142.016C88.4419 139.765 89.7843 138.037 91.4629 138.156C93.1414 138.276 94.5208 140.199 94.5433 142.45L94.605 148.601C94.6275 150.853 93.2859 152.581 91.6073 152.461C89.9288 152.342 88.5494 150.419 88.5269 148.167L88.4651 142.016Z" fill="#AD6F4B"/>
<path d="M29.4657 150.456L27.2988 150.456C23.3702 150.456 20.1855 153.641 20.1855 157.569L20.1853 172.279L20.1856 183.561L18.7812 195.125C18.7812 197.652 21.6511 199.7 25.1913 199.7H26.6858C30.226 199.7 33.0958 197.652 33.0958 195.125V178.307C33.0958 177.093 33.4308 175.903 34.0637 174.868C34.6967 173.832 35.0316 172.642 35.0316 171.429V169.295C35.0316 167.982 34.8445 166.676 34.4759 165.416C34.1073 164.156 33.9201 162.85 33.9201 161.537V154.911C33.9201 154.609 33.8894 154.307 33.8285 154.012C33.4019 151.941 31.5793 150.456 29.4657 150.456Z" fill="#AD6F4B"/>
<path d="M40.8751 128.411L53.4991 140.784C55.2529 142.502 55.6526 145.287 54.4598 147.477C54.1754 147.998 53.8108 148.465 53.381 148.858L48.5766 153.246L44.6555 156.131C43.5631 156.935 42.398 157.62 41.1773 158.177L36.4579 160.331C36.0007 160.54 35.5884 160.846 35.2462 161.23C33.8548 162.794 31.5341 162.855 30.0629 161.366L24.5767 155.813C23.1759 154.396 23.1144 152.039 24.4391 150.551C24.858 150.08 25.1536 149.5 25.2965 148.868L25.6239 147.422C25.7748 146.755 25.9942 146.109 26.2784 145.495L28.0295 141.708L30.0005 138.113C30.7727 136.705 31.6942 135.396 32.747 134.213L37.8148 128.518C38.6339 127.597 39.9961 127.55 40.8751 128.411Z" fill="#AD6F4B"/>
<path d="M83.6809 96.4299C83.6809 81.4741 72.4056 75.7046 60.9652 75.7046C49.5247 75.7046 39.0801 81.4741 39.0801 96.4299L40.2504 122.349C40.2504 137.305 49.5247 149.429 60.9652 149.429C72.4056 149.429 81.68 140.711 81.68 125.755L83.6809 96.4299Z" fill="#AD6F4B"/>
<path d="M89.3718 62.7896H32.208C26.0202 62.7896 21.0039 68.1394 21.0039 74.7387C21.0039 81.338 26.0202 86.6878 32.208 86.6878H89.3718C95.5597 86.6878 100.576 81.338 100.576 74.7387C100.576 68.1394 95.5597 62.7896 89.3718 62.7896Z" fill="#AD6F4B"/>
<path d="M62.6394 97.0686H59.2864C51.2905 97.0686 44.8086 103.326 44.8086 111.044V121.142C44.8086 128.86 51.2905 135.117 59.2864 135.117H62.6394C70.6353 135.117 77.1172 128.86 77.1172 121.142V111.044C77.1172 103.326 70.6353 97.0686 62.6394 97.0686Z" fill="#AD6F4B"/>
<path d="M76.6573 62.7319H45.2727C37.1754 62.7319 30.6113 68.8935 30.6113 76.4943V84.7889C30.6113 92.3896 37.1754 98.5512 45.2727 98.5512H76.6573C84.7546 98.5512 91.3187 92.3896 91.3187 84.7889V76.4943C91.3187 68.8935 84.7546 62.7319 76.6573 62.7319Z" fill="#AD6F4B"/>
<path d="M79.396 62.7319H42.534C35.9493 62.7319 30.6113 68.458 30.6113 75.5214V83.2297C30.6113 90.2931 35.9493 96.0191 42.534 96.0191H79.396C85.9807 96.0191 91.3187 90.2931 91.3187 83.2297V75.5214C91.3187 68.458 85.9807 62.7319 79.396 62.7319Z" fill="#AD6F4B"/>
<path d="M63.4475 90.7414C63.4475 89.8695 62.3028 89.1626 60.8907 89.1626C59.4787 89.1626 58.334 89.8695 58.334 90.7414V93.8034C58.334 94.6753 59.4787 95.3822 60.8907 95.3822C62.3028 95.3822 63.4475 94.6753 63.4475 93.8034V90.7414Z" fill="#AD6F4B"/>
<path d="M74.2305 85.9285H68.271C66.5594 85.9285 65.1719 87.2644 65.1719 88.9124C65.1719 90.5603 66.5594 91.8963 68.271 91.8963H74.2305C75.9421 91.8963 77.3296 90.5603 77.3296 88.9124C77.3296 87.2644 75.9421 85.9285 74.2305 85.9285Z" fill="#AD6F4B"/>
<path d="M53.1954 85.9287H47.2358C45.5242 85.9287 44.1367 87.2647 44.1367 88.9126C44.1367 90.5606 45.5242 91.8965 47.2358 91.8965H53.1954C54.907 91.8965 56.2945 90.5606 56.2945 88.9126C56.2945 87.2647 54.907 85.9287 53.1954 85.9287Z" fill="#AD6F4B"/>
<path d="M44.634 92.0513H42.4638C41.5982 92.0513 40.8965 92.7269 40.8965 93.5604C40.8965 94.3938 41.5982 95.0694 42.4638 95.0694H44.634C45.4996 95.0694 46.2014 94.3938 46.2014 93.5604C46.2014 92.7269 45.4996 92.0513 44.634 92.0513Z" fill="#AD6F4B"/>
<path d="M80.1086 92.0513H77.9384C77.0728 92.0513 76.3711 92.7269 76.3711 93.5604C76.3711 94.3938 77.0728 95.0694 77.9384 95.0694H80.1086C80.9742 95.0694 81.676 94.3938 81.676 93.5604C81.676 92.7269 80.9742 92.0513 80.1086 92.0513Z" fill="#AD6F4B"/>
<path d="M33.3691 64.749H32.0543C28.5445 64.749 25.6992 67.7835 25.6992 71.5266C25.6992 75.2698 28.5445 78.3042 32.0543 78.3042H33.3691C36.8789 78.3042 39.7241 75.2698 39.7241 71.5266C39.7241 67.7835 36.8789 64.749 33.3691 64.749Z" fill="#AD6F4B"/>
<path d="M90.08 65.4097H88.7652C85.2554 65.4097 82.4102 68.4441 82.4102 72.1873C82.4102 75.9304 85.2554 78.9649 88.7652 78.9649H90.08C93.5898 78.9649 96.4351 75.9304 96.4351 72.1873C96.4351 68.4441 93.5898 65.4097 90.08 65.4097Z" fill="#AD6F4B"/>
<path d="M33.2765 67.0264H31.3043C30.215 67.0264 29.332 67.9681 29.332 69.1298C29.332 70.2914 30.215 71.2332 31.3043 71.2332H33.2765C34.3658 71.2332 35.2488 70.2914 35.2488 69.1298C35.2488 67.9681 34.3658 67.0264 33.2765 67.0264Z" fill="#AD6F4B"/>
<path d="M92.4718 67.1914H90.4996C89.4103 67.1914 88.5273 68.1331 88.5273 69.2948C88.5273 70.4565 89.4103 71.3982 90.4996 71.3982H92.4718C93.5611 71.3982 94.4441 70.4565 94.4441 69.2948C94.4441 68.1331 93.5611 67.1914 92.4718 67.1914Z" fill="#AD6F4B"/>
<path d="M71.3256 177.524L72.5528 177.524C76.2875 177.524 79.3151 180.552 79.3151 184.287L79.3154 204.183L79.3151 217.965L80.6758 232.091C80.6758 235.178 77.8951 237.68 74.4648 237.68H73.0168C69.5865 237.68 66.8058 235.178 66.8058 232.091V211.048C66.8058 209.713 66.4841 208.398 65.868 207.214C65.2519 206.029 64.9302 204.714 64.9302 203.379V200.445C64.9302 198.9 65.1065 197.36 65.4558 195.855L65.4715 195.787C65.8274 194.253 66.0071 192.684 66.0071 191.109V182.843C66.0071 182.555 66.0304 182.268 66.0768 181.985C66.4972 179.413 68.7194 177.524 71.3256 177.524Z" fill="#AD6F4B"/>
<path d="M72.7324 124.314H78.0761C79.5615 124.314 80.8775 125.272 81.3342 126.685C81.397 126.879 81.4422 127.079 81.4694 127.281L85.1426 154.54V165.135C85.1426 166.203 85.0598 167.27 84.8951 168.326L84.1329 173.209C83.7764 175.494 83.0394 177.703 81.9525 179.744L79.8985 183.602C79.4951 184.36 79.2841 185.205 79.2841 186.063C79.2841 188.956 76.9395 191.3 74.0473 191.3H71.626C68.536 191.3 66.031 188.795 66.031 185.705C66.031 185.077 65.9252 184.453 65.718 183.86L65.0067 181.824C64.7049 180.96 64.4683 180.074 64.2989 179.175L63.2394 173.551L61.9661 164.591V150.261V135.081C61.9661 129.134 66.7863 124.314 72.7324 124.314Z" fill="#AD6F4B"/>
<path d="M71.4224 226.135H77.2544C80.6175 226.135 83.3438 228.719 83.3438 231.907C83.3438 235.095 80.6175 237.679 77.2544 237.679H71.4224C68.0593 237.679 65.333 235.095 65.333 231.907C65.333 228.719 68.0593 226.135 71.4224 226.135Z" fill="#AD6F4B"/>
<path d="M67.3496 228.511H81.3272C82.4409 228.511 83.3438 229.752 83.3438 231.283V234.907C83.3438 236.438 82.4409 237.679 81.3272 237.679H67.3496C66.2359 237.679 65.333 236.438 65.333 234.907V231.283C65.333 229.752 66.2359 228.511 67.3496 228.511Z" fill="#AD6F4B"/>
<path d="M57.3873 101.774H53.5429C51.7092 101.774 50.2227 103.156 50.2227 104.861C50.2227 106.566 51.7092 107.948 53.5429 107.948H57.3873C59.221 107.948 60.7075 106.566 60.7075 104.861C60.7075 103.156 59.221 101.774 57.3873 101.774Z" fill="#AD6F4B"/>
<path d="M57.3873 109.052H53.5429C51.7092 109.052 50.2227 110.434 50.2227 112.139C50.2227 113.844 51.7092 115.226 53.5429 115.226H57.3873C59.221 115.226 60.7075 113.844 60.7075 112.139C60.7075 110.434 59.221 109.052 57.3873 109.052Z" fill="#AD6F4B"/>
<path d="M57.3873 116.332H53.5429C51.7092 116.332 50.2227 117.714 50.2227 119.418C50.2227 121.123 51.7092 122.505 53.5429 122.505H57.3873C59.221 122.505 60.7075 121.123 60.7075 119.418C60.7075 117.714 59.221 116.332 57.3873 116.332Z" fill="#AD6F4B"/>
<path d="M69.1314 101.774H65.287C63.4533 101.774 61.9668 103.156 61.9668 104.861C61.9668 106.566 63.4533 107.948 65.287 107.948H69.1314C70.9651 107.948 72.4516 106.566 72.4516 104.861C72.4516 103.156 70.9651 101.774 69.1314 101.774Z" fill="#AD6F4B"/>
<path d="M69.1314 109.052H65.287C63.4533 109.052 61.9668 110.434 61.9668 112.139C61.9668 113.844 63.4533 115.226 65.287 115.226H69.1314C70.9651 115.226 72.4516 113.844 72.4516 112.139C72.4516 110.434 70.9651 109.052 69.1314 109.052Z" fill="#AD6F4B"/>
<path d="M69.1314 116.332H65.287C63.4533 116.332 61.9668 117.714 61.9668 119.418C61.9668 121.123 63.4533 122.505 65.287 122.505H69.1314C70.9651 122.505 72.4516 121.123 72.4516 119.418C72.4516 117.714 70.9651 116.332 69.1314 116.332Z" fill="#AD6F4B"/>
<path d="M43.4337 125.815C42.3443 125.815 41.2933 126.002 40.2988 126.344C41.4633 139.947 50.2398 150.456 60.9671 150.456C71.8331 150.456 80.6983 139.674 81.6774 125.815C81.6764 125.815 81.6753 125.815 81.6743 125.815H43.4337Z" fill="#4F4F4F"/>
<path d="M80.161 124.314H41.8151C40.9777 124.314 40.2988 125.139 40.2988 126.157V129.01C40.2988 130.028 40.9777 130.853 41.8151 130.853H80.161C80.9983 130.853 81.6772 130.028 81.6772 129.01V126.157C81.6772 125.139 80.9983 124.314 80.161 124.314Z" fill="#5B5B5B"/>
<path d="M40.25 124.135C41.3169 138.393 50.9565 149.43 60.7874 149.43C70.747 149.43 80.8925 138.662 81.7897 124.135H40.25Z" fill="#4F4F4F"/>
<path d="M81.8459 124.135L61.4645 127.626L61.3047 154.019L61.4645 165.586H85.6301C85.7635 144.188 86.149 136.759 81.8459 124.135Z" fill="#4B4B4B"/>
<path d="M40.3379 124.018L61.0432 127.689L61.0431 150.125L47.3749 155.711L37.9928 161.179L23.6908 147.795C31.5412 132.859 31.5401 132.145 40.3379 124.018Z" fill="#4B4B4B"/>
<path d="M83.8587 94.8872C83.8587 81.3006 72.1316 80.9197 60.4995 80.9197C48.8681 80.9197 38.5117 81.3006 38.5117 94.8872L40.258 124.135H81.7676L83.8587 94.8872Z" fill="#DCB051"/>
<path d="M91.1326 80.807C91.1326 67.1738 75.2465 80.807 58.3282 80.807C41.4093 80.807 29.8633 67.1738 29.8633 80.807C29.8633 94.4411 43.5786 105.493 60.4983 105.493C77.4166 105.493 91.1326 94.4411 91.1326 80.807Z" fill="#DCB051"/>
<path d="M79.9515 78.6676L43.9369 80.1706C35.765 80.1706 29.8633 68.9434 29.8633 76.4192V84.5764C29.8633 92.0507 36.4881 98.1109 44.66 98.1109H76.3352C84.5078 98.1109 91.1326 92.0507 91.1326 84.5764V76.4192C91.1326 68.9434 88.1241 78.6676 79.9515 78.6676Z" fill="#478563"/>
<path d="M78.5292 81.8248H41.9346C35.2678 81.8248 29.8633 68.1155 29.8633 75.8034V84.192C29.8633 91.8783 35.2678 98.1107 41.9346 98.1107H79.2546C85.9214 98.1107 91.3259 91.8783 91.3259 84.192V75.8034C91.3259 68.1155 85.196 81.8248 78.5292 81.8248Z" fill="#DCB051"/>
<path d="M31.7283 73.3355L28.1506 70.1203C25.4928 67.9381 25.4549 70.8968 24.2576 73.3356L23.1431 75.0781C22.6946 75.9919 30.426 69.4505 23.1431 76.0542L20.3201 76.0542L16.8096 83.0129C15.7288 85.1553 14.8542 87.4352 14.7618 89.8292C14.5596 95.0656 16.2965 98.3765 16.7635 100.519C16.7635 100.519 18.2295 106.601 18.24 107.643C18.24 107.643 20.701 115.478 23.1431 116.351L23.1862 116.366C25.9478 117.353 28.7544 114.488 29.4553 109.968L30.7844 105.606L33.1004 96.4937C33.7278 94.0271 33.8374 91.3575 33.4244 88.6164L32.8376 84.7287L32.3052 80.8272C32.1873 79.9668 32.3747 79.1633 32.8368 78.546C33.9037 77.1185 33.4227 74.8582 31.7283 73.3355Z" fill="#AD6F4B"/>
<path d="M31.2761 62.886C24.9842 62.886 19.918 68.2324 19.918 74.8731C19.918 81.5137 24.9842 86.8609 31.2761 86.8609H89.2207C95.5127 86.8609 100.578 81.5137 100.578 74.8731C100.578 68.2324 95.5127 62.886 89.2207 62.886H82.1542C81.9105 70.2223 72.2096 76.0519 65.1975 76.0519H54.7916C47.7795 76.0519 39.2145 70.2223 38.9715 62.886H31.2761Z" fill="#DCB051"/>
<path d="M81.997 62.2537C81.812 62.2485 81.6329 62.3103 81.4987 62.4241C81.3638 62.5379 81.2854 62.6947 81.2796 62.8598C80.9467 69.7416 74.6765 75.1792 66.9093 75.1792H54.778C47.0101 75.1792 40.7399 69.7416 40.407 62.8598C40.4027 62.7783 40.3809 62.6969 40.3432 62.6223C40.304 62.5492 40.2496 62.4814 40.1815 62.4256C40.114 62.3706 40.0349 62.3276 39.9494 62.2997C39.8631 62.2711 39.7717 62.2583 39.6796 62.262C39.5889 62.2658 39.499 62.2854 39.4156 62.3201C39.3321 62.3555 39.2574 62.4037 39.1958 62.4648C39.1349 62.5251 39.0863 62.5959 39.0551 62.6736C39.0239 62.7505 39.0101 62.8319 39.0145 62.914C39.3778 70.4479 46.2827 76.429 54.778 76.429H66.9093C75.4047 76.429 82.3088 70.4479 82.6729 62.914C82.6787 62.8304 82.6649 62.7474 82.6338 62.6691C82.6026 62.5899 82.554 62.5168 82.4909 62.4557C82.4278 62.3939 82.3516 62.3449 82.266 62.3103C82.1812 62.2748 82.0898 62.256 81.997 62.2537Z" fill="#E8CB8C"/>
<path d="M17.5564 110.202L17.5571 110.254C17.6066 113.537 20.2788 116.308 23.5264 116.442L47.9094 117.453C51.1564 117.587 53.7491 115.034 53.6996 111.751L53.6988 111.699C53.6494 108.416 50.9771 105.645 47.7301 105.511L23.3471 104.501C20.0995 104.366 17.5075 106.919 17.5564 110.202Z" fill="#AD6F4B"/>
<path d="M46.8105 109.281L46.9441 111.459C47.2007 115.633 50.6233 119.047 54.5885 119.086L58.1111 119.119C62.0763 119.158 65.0825 115.805 64.8259 111.631L64.6917 109.453C64.4352 105.28 61.0126 101.866 57.0474 101.828L53.5253 101.793C49.5601 101.755 46.554 105.108 46.8105 109.281Z" fill="#AD6F4B"/>
<path d="M48.4476 100.286C48.4221 97.8012 49.8946 95.8944 51.7357 96.0262C53.5769 96.1581 55.0899 98.2801 55.1146 100.765L55.1823 107.553C55.207 110.038 53.7353 111.946 51.8942 111.813C50.053 111.681 48.54 109.559 48.5153 107.074L48.4476 100.286Z" fill="#AD6F4B"/>
<ellipse cx="18.6423" cy="217.919" rx="18.3278" ry="19.5472" fill="white"/>
<mask id="mask0_2188_7608" style="mask-type:alpha" maskUnits="userSpaceOnUse" x="0" y="198" width="37" height="40">
<path d="M30.5215 217.919C30.5215 225.55 24.8177 231.018 18.641 231.018C12.4643 231.018 6.76053 225.55 6.76053 217.919C6.76053 210.287 12.4643 204.819 18.641 204.819C24.8177 204.819 30.5215 210.287 30.5215 217.919Z" fill="#0B0B0B" stroke="black" stroke-width="12.8961"/>
</mask>
<g mask="url(#mask0_2188_7608)">
<path d="M19.1596 211.305L24.0689 215.109L29.6126 212.477L30.2469 206.04L25.3375 202.236L19.7939 204.869L19.1596 211.305Z" fill="white"/>
<path d="M19.8806 204.932L19.257 211.259L24.0828 214.998L29.5259 212.413L30.1494 206.086L25.3236 202.347L19.8806 204.932Z" stroke="black" stroke-opacity="0.14" stroke-width="0.188792"/>
<path d="M14.8354 201.095L19.7447 204.899L25.2884 202.266L25.9227 195.83L21.0133 192.026L15.4697 194.658L14.8354 201.095Z" fill="black"/>
<path d="M15.5563 194.722L14.9328 201.048L19.7586 204.788L25.2017 202.203L25.8252 195.876L20.9994 192.137L15.5563 194.722Z" stroke="black" stroke-opacity="0.14" stroke-width="0.188792"/>
<path d="M29.6596 212.372L34.5689 216.176L40.1126 213.543L40.7469 207.107L35.8375 203.303L30.2939 205.935L29.6596 212.372Z" fill="black"/>
<path d="M30.3806 205.999L29.757 212.325L34.5828 216.065L40.0259 213.48L40.6494 207.153L35.8236 203.414L30.3806 205.999Z" stroke="black" stroke-opacity="0.14" stroke-width="0.188792"/>
<path d="M27.4838 231.554L32.3931 235.358L37.9368 232.726L38.5711 226.289L33.6618 222.485L28.1181 225.118L27.4838 231.554Z" fill="black"/>
<path d="M28.2048 225.181L27.5813 231.508L32.4071 235.247L37.8501 232.663L38.4737 226.336L33.6478 222.596L28.2048 225.181Z" stroke="black" stroke-opacity="0.14" stroke-width="0.188792"/>
<path d="M11.2651 239.439L16.1744 243.243L21.718 240.61L22.3523 234.174L17.443 230.37L11.8994 233.002L11.2651 239.439Z" fill="black"/>
<path d="M11.986 233.066L11.3625 239.392L16.1883 243.132L21.6314 240.547L22.2549 234.22L17.4291 230.481L11.986 233.066Z" stroke="black" stroke-opacity="0.14" stroke-width="0.188792"/>
<path d="M-1.62947 208.795L3.27987 212.599L8.82351 209.967L9.45782 203.531L4.54848 199.727L-0.99516 202.359L-1.62947 208.795Z" fill="black"/>
<path d="M-0.90851 202.422L-1.53203 208.749L3.29379 212.488L8.73686 209.904L9.36038 203.577L4.53456 199.838L-0.90851 202.422Z" stroke="black" stroke-opacity="0.14" stroke-width="0.188792"/>
<path d="M-3.4908 228.155L1.41854 231.959L6.96218 229.327L7.59649 222.891L2.68715 219.087L-2.85649 221.719L-3.4908 228.155Z" fill="black"/>
<path d="M-2.76984 221.782L-3.39335 228.109L1.43246 231.848L6.87553 229.264L7.49905 222.937L2.67324 219.198L-2.76984 221.782Z" stroke="black" stroke-opacity="0.14" stroke-width="0.188792"/>
<path d="M13.101 220.313L18.0103 224.117L23.554 221.484L24.1883 215.048L19.279 211.244L13.7353 213.876L13.101 220.313Z" fill="black"/>
<path d="M13.822 213.94L13.1984 220.266L18.0243 224.006L23.4673 221.421L24.0908 215.094L19.265 211.355L13.822 213.94Z" stroke="black" stroke-opacity="0.14" stroke-width="0.188792"/>
<path d="M23.3647 221.457L28.274 225.261L33.8177 222.628L34.452 216.192L29.5426 212.388L23.999 215.02L23.3647 221.457Z" fill="white"/>
<path d="M24.0856 215.084L23.4621 221.41L28.2879 225.15L33.731 222.565L34.3545 216.238L29.5287 212.499L24.0856 215.084Z" stroke="black" stroke-opacity="0.14" stroke-width="0.188792"/>
<path d="M17.224 230.378L22.1334 234.182L27.677 231.55L28.3113 225.113L23.402 221.309L17.8584 223.942L17.224 230.378Z" fill="white"/>
<path d="M17.945 224.005L17.3215 230.332L22.1473 234.071L27.5904 231.487L28.2139 225.16L23.3881 221.42L17.945 224.005Z" stroke="black" stroke-opacity="0.14" stroke-width="0.188792"/>
<path d="M6.96819 229.109L11.8775 232.913L17.4212 230.28L18.0555 223.844L13.1461 220.04L7.6025 222.672L6.96819 229.109Z" fill="white"/>
<path d="M7.68915 222.736L7.06563 229.063L11.8914 232.802L17.3345 230.217L17.958 223.89L13.1322 220.151L7.68915 222.736Z" stroke="black" stroke-opacity="0.14" stroke-width="0.188792"/>
<path d="M2.70061 219.077L7.60995 222.881L13.1536 220.249L13.7879 213.812L8.87856 210.008L3.33492 212.64L2.70061 219.077Z" fill="white"/>
<path d="M3.42157 212.704L2.79805 219.031L7.62387 222.77L13.0669 220.185L13.6905 213.858L8.86464 210.119L3.42157 212.704Z" stroke="black" stroke-opacity="0.14" stroke-width="0.188792"/>
<path d="M8.82952 210.191L13.7389 213.995L19.2825 211.363L19.9168 204.926L15.0075 201.122L9.46382 203.755L8.82952 210.191Z" fill="white"/>
<path d="M9.55047 203.818L8.92696 210.145L13.7528 213.884L19.1958 211.299L19.8194 204.972L14.9935 201.233L9.55047 203.818Z" stroke="black" stroke-opacity="0.14" stroke-width="0.188792"/>
</g>
<path d="M78.7671 214.669H67.3457C66.7389 214.669 66.2461 215.344 66.2461 216.177V229.386C66.2461 230.219 66.7389 230.894 67.3457 230.894H78.7671C79.3739 230.894 79.866 230.219 79.866 229.386V216.177C79.866 215.344 79.3739 214.669 78.7671 214.669Z" fill="white"/>
<path d="M74.9632 219.343H71.3384C70.4774 219.343 69.7793 220.299 69.7793 221.477V223.392C69.7793 224.57 70.4774 225.525 71.3384 225.525H74.9632C75.8242 225.525 76.5223 224.57 76.5223 223.392V221.477C76.5223 220.299 75.8242 219.343 74.9632 219.343Z" fill="#4B4B4B"/>
<path d="M77.0321 222.609H71.2793C67.9614 222.609 65.2715 226.027 65.2715 230.245C65.2715 234.462 67.9614 237.88 71.2793 237.88H77.0321C80.3501 237.88 83.2821 234.522 83.2821 230.305C83.2821 226.088 80.3501 222.609 77.0321 222.609Z" fill="#4F4F4F"/>
<path d="M81.4989 229.546H66.8662C65.7015 229.546 64.7559 230.678 64.7559 232.074V235.38C64.7559 236.778 65.7015 237.91 66.8662 237.91H81.4989C82.6645 237.91 83.6093 236.778 83.6093 235.38V232.074C83.6093 230.678 82.6645 229.546 81.4989 229.546Z" fill="#4F4F4F"/>
<path d="M82.6478 235H65.8978C65.4724 235 65.127 235.426 65.127 235.951V237.195C65.127 237.72 65.4724 238.146 65.8978 238.146H82.6478C83.0732 238.146 83.4179 237.72 83.4179 237.195V235.951C83.4179 235.426 83.0732 235 82.6478 235Z" fill="white"/>
<path d="M75.9849 222.993H71.7474C71.5265 222.993 71.3477 223.238 71.3477 223.54C71.3477 223.842 71.5265 224.087 71.7474 224.087H75.9849C76.2052 224.087 76.3847 223.842 76.3847 223.54C76.3847 223.238 76.2052 222.993 75.9849 222.993Z" fill="white"/>
<path d="M77.4015 226.536H75.3666C74.6484 226.536 74.0664 227.333 74.0664 228.316C74.0664 229.298 74.6484 230.095 75.3666 230.095H77.4015C78.1197 230.095 78.7017 229.298 78.7017 228.316C78.7017 227.333 78.1197 226.536 77.4015 226.536Z" fill="#585858"/>
<path d="M75.9849 224.764H71.7474C71.5265 224.764 71.3477 225.01 71.3477 225.311C71.3477 225.613 71.5265 225.858 71.7474 225.858H75.9849C76.2052 225.858 76.3847 225.613 76.3847 225.311C76.3847 225.01 76.2052 224.764 75.9849 224.764Z" fill="white"/>
<path d="M32.5488 177.167H20.5259C19.8872 177.167 19.3691 177.842 19.3691 178.674V191.884C19.3691 192.717 19.8872 193.391 20.5259 193.391H32.5488C33.1875 193.391 33.7063 192.717 33.7063 191.884V178.674C33.7063 177.842 33.1875 177.167 32.5488 177.167Z" fill="white"/>
<path d="M24.6193 180.21H20.9484C20.0763 180.21 19.3691 181.165 19.3691 182.343V184.258C19.3691 185.437 20.0763 186.392 20.9484 186.392H24.6193C25.4921 186.392 26.1985 185.437 26.1985 184.258V182.343C26.1985 181.165 25.4921 180.21 24.6193 180.21Z" fill="#4B4B4B"/>
<path d="M25.8781 185.107H18.3969C18.1067 185.107 10.5859 188.525 10.5859 192.742C10.5859 196.959 14.0836 200.377 18.3969 200.377H25.8781C30.1915 200.377 33.6881 196.959 33.6881 192.742C33.6881 188.525 30.1915 185.107 25.8781 185.107Z" fill="#4F4F4F"/>
<path d="M30.8402 192.043H9.837C9.837 192.043 2.91797 193.208 2.91797 194.643V198.043C2.91797 199.48 4.49379 200.644 6.43759 200.644H30.8402C32.7852 200.644 34.3611 199.48 34.3611 198.043V194.643C34.3611 193.208 32.7852 192.043 30.8402 192.043Z" fill="#4F4F4F"/>
<path d="M33.0371 197.498H4.24321C3.51064 197.498 2.91797 197.923 2.91797 198.449V199.693C2.91797 200.218 3.51064 200.644 4.24321 200.644H33.0371C33.7684 200.644 34.3611 200.218 34.3611 199.693V198.449C34.3611 197.923 33.7684 197.498 33.0371 197.498Z" fill="white"/>
<path d="M19.9175 185.28H17.6496C17.5313 185.28 17.4355 185.525 17.4355 185.827C17.4355 186.129 17.5313 186.374 17.6496 186.374H19.9175C20.0354 186.374 20.1315 186.129 20.1315 185.827C20.1315 185.525 20.0354 185.28 19.9175 185.28Z" fill="white"/>
<path d="M15.6113 189.833H13.5494C12.8226 189.833 12.2324 190.629 12.2324 191.612C12.2324 192.595 12.8226 193.392 13.5494 193.392H15.6113C16.3387 193.392 16.9275 192.595 16.9275 191.612C16.9275 190.629 16.3387 189.833 15.6113 189.833Z" fill="#585858"/>
<path d="M19.3117 187.051H15.0202C14.7964 187.051 14.6152 187.295 14.6152 187.597C14.6152 187.899 14.7964 188.144 15.0202 188.144H19.3117C19.5348 188.144 19.7167 187.899 19.7167 187.597C19.7167 187.295 19.5348 187.051 19.3117 187.051Z" fill="white"/>
<path d="M238.836 84.3453C239.634 82.5573 239.982 82.6098 241.087 82.7901C241.64 82.8803 242.171 83.0241 242.634 83.2491C243.096 83.474 243.664 83.6745 244.215 83.4146C246.08 82.5353 247.504 78.9212 246.017 82.7571C245.517 83.9275 245.263 85.1206 245.266 86.2836L245.303 99.3415L242.789 120.789C242.593 122.463 240.767 123.961 238.664 124.175L237.296 124.29C235.84 124.412 234.421 124.31 233.117 123.989L231.556 123.604C231.374 123.559 231.177 123.543 230.975 123.556C229.596 123.643 228.966 122.447 229.89 121.498L232.255 119.068C232.966 118.337 233.28 117.448 233.108 116.648L231.596 109.589C231.317 108.29 231.236 106.941 231.353 105.568L231.928 98.8095L233.285 92.5433C233.645 90.8804 234.669 89.2552 236.201 87.9177C237.402 86.8683 238.262 85.6315 238.836 84.3453Z" fill="#AD6F4B"/>
<path d="M278.581 181.967H280.024C283.555 181.967 286.417 185.165 286.417 189.111L286.417 207.968L286.417 221.41L287.696 235.187C287.696 238.198 285.082 240.638 281.857 240.638H280.497C277.272 240.638 274.658 238.198 274.658 235.187V214.697C274.658 213.376 274.354 212.076 273.777 210.924C273.198 209.771 272.895 208.472 272.895 207.151V204.332C272.895 202.819 273.061 201.312 273.389 199.844L273.401 199.791C273.737 198.288 273.907 196.745 273.907 195.195V187.19C273.907 186.886 273.931 186.583 273.978 186.285C274.371 183.787 276.312 181.967 278.581 181.967Z" fill="#AD6F4B"/>
<path d="M280.511 131.731H284.194C286.266 131.731 288.126 133.155 288.876 135.313C289.02 135.729 289.12 136.164 289.172 136.606L291.894 159.551V169.508C291.894 170.8 291.797 172.09 291.606 173.364L290.981 177.519C290.622 179.905 289.887 182.2 288.811 184.298L286.984 187.856C286.593 188.619 286.387 189.483 286.387 190.363C286.387 193.147 284.367 195.404 281.877 195.404H278.761C276.093 195.404 273.929 192.985 273.929 190.003C273.929 189.353 273.824 188.709 273.619 188.102L272.964 186.155C272.681 185.317 272.46 184.453 272.3 183.576L271.304 178.092L270.347 171.103C270.188 169.938 270.107 168.761 270.107 167.583V143.357C270.107 136.936 274.765 131.731 280.511 131.731Z" fill="#AD6F4B"/>
<path d="M278.989 229.379H284.472C287.633 229.379 290.196 231.899 290.196 235.008C290.196 238.117 287.633 240.637 284.472 240.637H278.989C275.828 240.637 273.266 238.117 273.266 235.008C273.266 231.899 275.828 229.379 278.989 229.379Z" fill="#AD6F4B"/>
<path d="M275.161 231.696H288.301C289.347 231.696 290.196 232.907 290.196 234.399V237.935C290.196 239.428 289.347 240.638 288.301 240.638H275.161C274.115 240.638 273.266 239.428 273.266 237.935V234.399C273.266 232.907 274.115 231.696 275.161 231.696Z" fill="#AD6F4B"/>
<path d="M258.057 181.967H256.613C253.083 181.967 250.22 185.165 250.22 189.11V207.968V221.41L248.941 235.187C248.941 238.198 251.555 240.638 254.779 240.638H256.141C259.365 240.638 261.979 238.198 261.979 235.187V214.697C261.979 213.375 262.282 212.076 262.861 210.924C263.439 209.771 263.742 208.472 263.742 207.15V204.332C263.742 202.819 263.576 201.312 263.248 199.844L263.236 199.791C262.9 198.288 262.73 196.745 262.73 195.195V187.189C262.73 186.885 262.706 186.583 262.659 186.284C262.266 183.788 260.325 181.967 258.057 181.967Z" fill="#AD6F4B"/>
<path d="M257.036 131.731H251.308C249.229 131.731 247.543 133.615 247.543 135.94L244.742 159.55V169.507C244.742 170.799 244.838 172.089 245.03 173.363L245.655 177.518C246.014 179.904 246.748 182.199 247.825 184.297L249.651 187.855C250.043 188.619 250.249 189.484 250.249 190.363C250.249 193.146 252.268 195.403 254.759 195.403H257.875C260.543 195.403 262.707 192.985 262.707 190.003C262.707 189.353 262.812 188.709 263.016 188.101L263.672 186.155C263.954 185.316 264.176 184.453 264.336 183.575L265.331 178.092L266.289 171.102C266.448 169.937 266.528 168.761 266.528 167.583V142.339C266.528 136.48 262.278 131.731 257.036 131.731Z" fill="#AD6F4B"/>
<path d="M257.644 229.378H252.161C249 229.378 246.438 231.898 246.438 235.007C246.438 238.117 249 240.637 252.161 240.637H257.644C260.805 240.637 263.367 238.117 263.367 235.007C263.367 231.898 260.805 229.378 257.644 229.378Z" fill="#AD6F4B"/>
<path d="M261.472 231.696H248.333C247.286 231.696 246.438 232.906 246.438 234.399V237.934C246.438 239.427 247.286 240.637 248.333 240.637H261.472C262.519 240.637 263.367 239.427 263.367 237.934V234.399C263.367 232.906 262.519 231.696 261.472 231.696Z" fill="#AD6F4B"/>
<path d="M267.817 67.686C268.656 67.686 269.492 67.7406 270.321 67.8469C280.317 69.1283 289.226 77.9036 289.226 88.6059L287.657 100.064L284.595 119.791C284.595 131.38 278.779 133.09 267.817 133.09C256.855 133.09 251.723 131.38 251.723 119.791L248.029 100.064V88.6059C248.029 77.0161 256.855 67.686 267.817 67.686Z" fill="#AD6F4B"/>
<path d="M268.859 44.29C274.491 44.29 279.026 51.5678 279.026 60.6087V67.3036C279.026 76.3445 274.491 83.623 268.859 83.623C263.226 83.623 258.691 76.3445 258.691 67.3036V60.6087C258.691 51.5678 263.226 44.29 268.859 44.29Z" fill="#AD6F4B"/>
<path d="M267.326 45.5127H270.389C273.916 45.5127 276.755 49.7458 276.755 55.0044V58.8981C276.755 64.1567 273.916 68.3898 270.389 68.3898H267.326C263.8 68.3898 260.961 64.1567 260.961 58.8981V55.0044C260.961 49.7458 263.8 45.5127 267.326 45.5127Z" fill="#9A5731"/>
<path d="M267.783 114.604H268.459C279.644 114.604 283.275 108.138 285.11 116.901L288.649 134.486C290.483 143.241 279.644 150.507 268.459 150.507H267.783C256.598 150.507 245.759 143.241 247.593 134.486L251.504 116.901C253.34 108.138 256.598 114.604 267.783 114.604Z" fill="#AD6F4B"/>
<path d="M267.762 106.672C275.823 106.672 282.314 116.423 282.314 128.535H253.209C253.209 116.423 259.699 106.672 267.762 106.672Z" fill="#AD6F4B"/>
<path d="M292.993 84.2361C296.41 83.4976 300.523 85.0454 301.275 89.3943L303.613 97.2475C304.332 99.6658 304.595 102.226 304.385 104.764L303.755 112.377C303.612 114.114 303.786 115.864 303.765 117.608C303.727 120.663 302.481 122.904 299.786 123.486C296.843 124.122 294.888 122.485 293.922 119.239C293.594 118.138 293.338 117.007 292.953 115.928L291.205 111.033C290.243 108.34 289.863 105.431 290.096 102.543L290.457 98.0649C290.551 96.8993 290.54 95.7285 290.493 94.5599C290.364 91.3471 290.423 84.7916 292.993 84.2361Z" fill="#AD6F4B"/>
<path d="M298.348 109.092L298.391 109.09C301.192 108.993 303.62 112.467 303.815 116.849L305.282 149.752C305.478 154.134 303.367 157.764 300.566 157.861L300.522 157.862C297.722 157.959 295.294 154.485 295.098 150.103L293.631 117.2C293.436 112.818 295.547 109.187 298.348 109.092Z" fill="#AD6F4B"/>
<path d="M298.405 142.992L300.165 142.981C303.538 142.961 306.431 147.051 306.628 152.117L306.802 156.617C306.999 161.682 304.424 165.805 301.051 165.824L299.292 165.835C295.919 165.855 293.026 161.765 292.829 156.7L292.654 152.2C292.458 147.135 295.033 143.012 298.405 142.992Z" fill="#AD6F4B"/>
<path d="M297.972 155.792C298.705 152.57 301.293 150.939 303.75 152.148C306.207 153.357 307.605 156.949 306.871 160.17L304.867 168.969C304.133 172.19 301.546 173.821 299.089 172.612C296.631 171.402 295.234 167.811 295.968 164.589L297.972 155.792Z" fill="#AD6F4B"/>
<path d="M292.221 154.071C292.139 151.826 293.265 149.998 294.738 149.987C296.21 149.977 297.471 151.79 297.554 154.035L297.781 160.168C297.864 162.414 296.737 164.243 295.264 164.253C293.792 164.262 292.531 162.451 292.448 160.205L292.221 154.071Z" fill="#AD6F4B"/>
<path d="M242.438 74.1406H293.452C298.508 74.1406 302.578 78.3789 302.578 83.6441C302.578 88.9093 298.508 93.1476 293.452 93.1476H242.438C237.383 93.1476 233.312 88.9093 233.312 83.6441C233.312 78.3789 237.383 74.1406 242.438 74.1406Z" fill="#AD6F4B"/>
<path d="M259.942 73.0132H275.85C284.738 73.0132 291.893 80.3108 291.893 89.3761C291.893 98.4406 284.738 105.738 275.85 105.738H259.942C251.054 105.738 243.898 98.4406 243.898 89.3761C243.898 80.3108 251.054 73.0132 259.942 73.0132Z" fill="#AD6F4B"/>
<path d="M268.325 93.1477C270.394 93.1477 272.061 95.0105 272.061 97.3233V101.196C272.061 103.509 270.394 105.371 268.325 105.371C266.254 105.371 264.588 103.509 264.588 101.196V97.3233C264.588 95.0105 266.254 93.1477 268.325 93.1477Z" fill="#AD6F4B"/>
<path d="M258.888 88.7661C257.9 88.7661 256.983 89.0523 256.219 89.5429C253.682 89.7023 251.304 90.772 249.566 92.5345C247.829 94.2969 246.861 96.6207 246.861 99.0353C246.861 101.558 247.917 103.979 249.797 105.763C251.675 107.547 254.224 108.549 256.882 108.549C259.303 108.547 261.641 107.712 263.464 106.199C265.287 104.687 266.472 102.599 266.8 100.321C266.867 100.009 266.903 99.6853 266.903 99.3533V93.4404C266.903 90.8509 264.75 88.7661 262.075 88.7661H258.888ZM273.73 88.7661C271.057 88.7661 268.903 90.8509 268.903 93.4404V99.3533C268.903 99.6853 268.939 100.009 269.007 100.321C269.334 102.599 270.519 104.687 272.342 106.199C274.165 107.712 276.503 108.547 278.924 108.549C281.582 108.549 284.13 107.547 286.01 105.763C287.889 103.979 288.945 101.558 288.945 99.0353C288.944 96.6207 287.978 94.2969 286.24 92.5345C284.502 90.772 282.124 89.7023 279.587 89.5429C278.823 89.0523 277.907 88.7661 276.918 88.7661H273.73Z" fill="#AD6F4B"/>
<path d="M249.618 93.8998C248.474 93.435 247.231 96.2089 246.162 96.6655C246.067 97.2564 246.016 97.8548 246.012 98.4545C246.012 104.585 250.678 109.554 256.433 109.554C259.344 109.547 262.118 108.243 264.086 105.959C263.982 100.398 259.507 97.9093 254.687 95.9551L249.618 93.8998ZM280.816 95.9551C276.095 97.8702 271.686 100.22 271.425 105.622C273.4 108.108 276.299 109.546 279.356 109.554C285.111 109.554 289.777 104.585 289.777 98.4545C289.772 97.9012 289.729 97.3494 289.648 96.8027C288.496 96.2583 287.139 93.39 285.884 93.8998L280.816 95.9551Z" fill="#444444"/>
<path d="M263.813 103.687H272.406C272.93 103.687 273.352 104.145 273.352 104.714C273.352 105.283 272.93 105.74 272.406 105.74H263.813C263.289 105.74 262.867 105.283 262.867 104.714C262.867 104.145 263.289 103.687 263.813 103.687Z" fill="#444444"/>
<path d="M285.935 93.8413C285.856 93.848 285.778 93.8664 285.701 93.8981L280.684 95.9313C276.725 97.5366 272.989 99.4511 271.782 103.248C273.718 105.42 276.41 106.665 279.239 106.672C284.483 106.672 288.81 102.506 289.466 97.1139C289.452 96.9996 289.443 96.8837 289.426 96.7701C288.358 96.2648 287.111 93.7403 285.935 93.8413ZM249.592 93.8487C248.519 93.7735 247.375 96.2102 246.383 96.6344C246.359 96.7834 246.339 96.9324 246.32 97.0822C246.963 102.49 251.296 106.672 256.55 106.672C259.267 106.665 261.862 105.517 263.783 103.492C262.648 99.5809 258.857 97.5669 254.822 95.9313L249.805 93.8981C249.734 93.8694 249.663 93.8539 249.592 93.8487Z" fill="#4F4F4F"/>
<path d="M264.708 110.292H262.22C261.083 110.292 260.162 111.05 260.162 111.984V113.943C260.162 114.878 261.083 115.636 262.22 115.636H264.708C265.844 115.636 266.766 114.878 266.766 113.943V111.984C266.766 111.05 265.844 110.292 264.708 110.292Z" fill="#9A5731"/>
<path d="M264.707 116.211H260.917C259.78 116.211 258.859 116.969 258.859 117.904V119.862C258.859 120.797 259.78 121.555 260.917 121.555H264.707C265.844 121.555 266.765 120.797 266.765 119.862V117.904C266.765 116.969 265.844 116.211 264.707 116.211Z" fill="#9A5731"/>
<path d="M264.707 122.006H260.917C259.78 122.006 258.859 122.763 258.859 123.698V125.657C258.859 126.592 259.78 127.349 260.917 127.349H264.707C265.844 127.349 266.765 126.592 266.765 125.657V123.698C266.765 122.763 265.844 122.006 264.707 122.006Z" fill="#9A5731"/>
<path d="M270.796 110.292H273.284C274.421 110.292 275.342 111.05 275.342 111.984V113.943C275.342 114.878 274.421 115.636 273.284 115.636H270.796C269.659 115.636 268.738 114.878 268.738 113.943V111.984C268.738 111.05 269.659 110.292 270.796 110.292Z" fill="#9A5731"/>
<path d="M270.796 116.211H274.587C275.723 116.211 276.645 116.969 276.645 117.904V119.862C276.645 120.797 275.723 121.555 274.587 121.555H270.796C269.66 121.555 268.738 120.797 268.738 119.862V117.904C268.738 116.969 269.66 116.211 270.796 116.211Z" fill="#9A5731"/>
<path d="M270.796 122.006H274.587C275.723 122.006 276.645 122.763 276.645 123.698V125.657C276.645 126.592 275.723 127.349 274.587 127.349H270.796C269.66 127.349 268.738 126.592 268.738 125.657V123.698C268.738 122.763 269.66 122.006 270.796 122.006Z" fill="#9A5731"/>
<path d="M248.803 128.993C249.87 145.763 258.065 158.743 267.895 158.743C277.855 158.743 286.633 146.079 287.531 128.993H248.803Z" fill="#4F4F4F"/>
<path d="M287.549 128.99L268.57 132.279L268.41 158.673L270.191 170.24H291.941C292.075 148.842 291.852 141.614 287.549 128.99Z" fill="#4B4B4B"/>
<path d="M248.815 128.966L268.244 132.267V158.671L266.431 170.238H244.732C244.594 148.768 244.386 141.631 248.815 128.966Z" fill="#4B4B4B"/>
<path d="M278.265 88.2218H258.907C254.007 88.2218 243.316 80.8739 243.316 88.2218L244.951 94.8518C244.951 104.41 246.132 109.543 254.142 109.543H281.574C288.699 109.543 290.447 105.66 290.447 96.2394L293.507 88.5995C293.507 81.2517 283.165 88.2218 278.265 88.2218Z" fill="#DCB051"/>
<path d="M242.492 74.1282C236.585 74.1282 233.283 79.4339 233.283 83.4848C233.283 90.3081 236.014 93.1181 244.072 93.1181H291.475C299.736 93.1181 302.763 91.2104 302.763 83.493C302.763 79.4413 299.237 74.1282 293.423 74.1282H283.86C283.652 78.604 280.003 82.1606 272.883 82.1606H264.21C255.86 82.1606 252.244 78.604 252.037 74.1282H242.492Z" fill="#DCB051"/>
<path d="M283.462 74.1283C283.328 74.1261 283.196 74.1622 283.098 74.2293C283 74.2965 282.941 74.3894 282.938 74.4876C282.695 78.5576 278.106 81.7734 272.423 81.7734H263.546C257.864 81.7734 253.275 78.5576 253.032 74.4876C253.028 74.4389 253.012 74.3909 252.985 74.3466C252.956 74.3031 252.916 74.2633 252.867 74.2301C252.817 74.1976 252.76 74.1725 252.697 74.1556C252.634 74.1386 252.567 74.1312 252.5 74.1334C252.433 74.1356 252.367 74.1475 252.306 74.1681C252.245 74.1888 252.191 74.2175 252.146 74.2537C252.101 74.2891 252.065 74.3312 252.042 74.3769C252.02 74.4226 252.009 74.4706 252.012 74.5193C252.279 78.9752 257.331 82.5126 263.546 82.5126H272.423C278.639 82.5126 283.691 78.9752 283.957 74.5193C283.961 74.4698 283.952 74.4204 283.928 74.3739C283.906 74.3275 283.87 74.2847 283.824 74.2485C283.778 74.2116 283.722 74.1829 283.66 74.1622C283.598 74.1416 283.53 74.1297 283.462 74.1283Z" fill="#E8CB8C"/>
<path d="M248.803 128.992C249.87 145.763 258.065 158.743 267.895 158.743C277.855 158.743 286.633 146.078 287.531 128.992H248.803Z" fill="#4F4F4F"/>
<path d="M287.549 128.989L268.57 132.279L268.41 158.673L270.191 170.24H291.941C292.075 148.842 291.852 141.613 287.549 128.989Z" fill="#4B4B4B"/>
<path d="M248.815 128.966L268.244 132.267V158.67L266.431 170.237H244.732C244.594 148.768 244.386 141.631 248.815 128.966Z" fill="#4B4B4B"/>
<path d="M261.457 217.426H249.864C249.248 217.426 248.748 218.101 248.748 218.933V232.143C248.748 232.976 249.248 233.65 249.864 233.65H261.457C262.073 233.65 262.573 232.976 262.573 232.143V218.933C262.573 218.101 262.073 217.426 261.457 217.426Z" fill="white"/>
<path d="M256.776 222.078H253.105C252.233 222.078 251.525 223.033 251.525 224.211V226.126C251.525 227.305 252.233 228.26 253.105 228.26H256.776C257.648 228.26 258.355 227.305 258.355 226.126V224.211C258.355 223.033 257.648 222.078 256.776 222.078Z" fill="#4B4B4B"/>
<path d="M257.772 225.365H252.36C249.239 225.365 246.709 228.783 246.709 233.001C246.709 237.218 249.239 240.636 252.36 240.636H257.772C260.893 240.636 263.423 237.218 263.423 233.001C263.423 228.783 260.893 225.365 257.772 225.365Z" fill="#4F4F4F"/>
<path d="M261.878 232.302H248.384C247.309 232.302 246.438 233.434 246.438 234.83V238.136C246.438 239.534 247.309 240.666 248.384 240.666H261.878C262.954 240.666 263.825 239.534 263.825 238.136V234.83C263.825 233.434 262.954 232.302 261.878 232.302Z" fill="#4F4F4F"/>
<path d="M262.719 237.466H247.413C247.024 237.466 246.709 237.892 246.709 238.417V239.661C246.709 240.186 247.024 240.613 247.413 240.613H262.719C263.108 240.613 263.423 240.186 263.423 239.661V238.417C263.423 237.892 263.108 237.466 262.719 237.466Z" fill="white"/>
<path d="M257.157 225.749H252.866C252.642 225.749 252.461 225.994 252.461 226.296C252.461 226.598 252.642 226.843 252.866 226.843H257.157C257.381 226.843 257.562 226.598 257.562 226.296C257.562 225.994 257.381 225.749 257.157 225.749Z" fill="white"/>
<path d="M258.617 229.271H256.555C255.828 229.271 255.238 230.067 255.238 231.05C255.238 232.033 255.828 232.83 256.555 232.83H258.617C259.345 232.83 259.933 232.033 259.933 231.05C259.933 230.067 259.345 229.271 258.617 229.271Z" fill="#585858"/>
<path d="M257.157 227.5H252.866C252.642 227.5 252.461 227.745 252.461 228.046C252.461 228.348 252.642 228.593 252.866 228.593H257.157C257.381 228.593 257.562 228.348 257.562 228.046C257.562 227.745 257.381 227.5 257.157 227.5Z" fill="white"/>
<path d="M286.707 217.425H274.45C273.798 217.425 273.27 218.1 273.27 218.933V232.142C273.27 232.975 273.798 233.65 274.45 233.65H286.707C287.359 233.65 287.887 232.975 287.887 232.142V218.933C287.887 218.1 287.359 217.425 286.707 217.425Z" fill="white"/>
<path d="M283.243 222.099H279.618C278.757 222.099 278.059 223.055 278.059 224.233V226.148C278.059 227.326 278.757 228.281 279.618 228.281H283.243C284.103 228.281 284.802 227.326 284.802 226.148V224.233C284.802 223.055 284.103 222.099 283.243 222.099Z" fill="#4B4B4B"/>
<path d="M284.192 225.365H278.849C275.768 225.365 273.27 228.783 273.27 233.001C273.27 237.218 275.768 240.636 278.849 240.636H284.192C287.273 240.636 289.997 237.278 289.997 233.062C289.997 228.844 287.273 225.365 284.192 225.365Z" fill="#4F4F4F"/>
<path d="M288.282 232.302H274.959C273.898 232.302 273.037 233.434 273.037 234.83V238.136C273.037 239.534 273.898 240.666 274.959 240.666H288.282C289.343 240.666 290.203 239.534 290.203 238.136V234.83C290.203 233.434 289.343 232.302 288.282 232.302Z" fill="#4F4F4F"/>
<path d="M289.076 237.466H273.965C273.581 237.466 273.27 237.892 273.27 238.417V239.661C273.27 240.186 273.581 240.613 273.965 240.613H289.076C289.46 240.613 289.771 240.186 289.771 239.661V238.417C289.771 237.892 289.46 237.466 289.076 237.466Z" fill="white"/>
<path d="M284.241 225.749H280.003C279.782 225.749 279.604 225.994 279.604 226.296C279.604 226.598 279.782 226.843 280.003 226.843H284.241C284.461 226.843 284.641 226.598 284.641 226.296C284.641 225.994 284.461 225.749 284.241 225.749Z" fill="white"/>
<path d="M285.681 229.292H283.646C282.928 229.292 282.346 230.089 282.346 231.071C282.346 232.054 282.928 232.851 283.646 232.851H285.681C286.399 232.851 286.981 232.054 286.981 231.071C286.981 230.089 286.399 229.292 285.681 229.292Z" fill="#585858"/>
<path d="M284.241 227.52H280.003C279.782 227.52 279.604 227.766 279.604 228.067C279.604 228.369 279.782 228.614 280.003 228.614H284.241C284.461 228.614 284.641 228.369 284.641 228.067C284.641 227.766 284.461 227.52 284.241 227.52Z" fill="white"/>
<path d="M257.665 74.9988C257.015 74.9988 256.492 75.5565 256.492 76.2492C256.492 76.942 257.015 77.499 257.665 77.499H264.184L266.055 78.9538C266.581 79.3632 267.314 79.2407 267.698 78.6793C268.082 78.1179 267.967 77.3367 267.44 76.9272L265.503 75.4208C265.483 75.4053 265.461 75.3964 265.44 75.3824C265.227 75.1463 264.929 74.9988 264.597 74.9988H257.665ZM272.911 74.9988C272.578 74.9988 272.28 75.1463 272.067 75.3824C272.047 75.3964 272.024 75.4053 272.004 75.4208L270.067 76.9272C269.54 77.3367 269.426 78.1179 269.81 78.6793C270.193 79.2407 270.926 79.3632 271.452 78.9538L273.324 77.499H279.842C280.492 77.499 281.015 76.942 281.015 76.2492C281.015 75.5565 280.492 74.9988 279.842 74.9988H272.911Z" fill="#9A5731"/>
<path d="M209.279 116.88L209.285 116.835C209.675 113.913 212.326 111.748 215.204 112L225.534 112.399L236.819 113.888C239.698 114.139 241.714 116.711 241.324 119.633L241.317 119.678C240.927 122.6 238.353 126.587 235.474 126.335L213.86 124.447C210.981 124.196 208.888 119.802 209.279 116.88Z" fill="#AD6F4B"/>
<path d="M232.485 124.794C232.719 126.684 235.303 127.519 238.256 126.661C241.209 125.803 243.414 123.575 243.179 121.686L242.539 116.525C242.376 115.211 241.797 114.127 240.465 113.878C239.073 113.618 237.572 114.512 236.228 115.358L234.375 116.525C232.637 117.841 231.702 119.96 232.012 121.877L232.485 124.794Z" fill="#AD6F4B"/>
<path d="M201.27 86.7069L208.335 105.221L215.261 86.6838L208.557 88.2147L208.146 88.3085L207.736 88.2129L201.27 86.7069Z" stroke="#DCB051" stroke-width="3.65248"/>
<path d="M204.772 96.3801L211.802 96.3937L212.462 123.923L204.656 123.996L204.772 96.3801Z" fill="#DCB051"/>
<line x1="208.894" y1="29.251" x2="208.894" y2="86.1638" stroke="#CCBDAB" stroke-width="0.608746"/>
<line x1="206.943" y1="29.251" x2="206.943" y2="86.1638" stroke="#CCBDAB" stroke-width="0.608746"/>
<line x1="205.123" y1="29.251" x2="205.123" y2="86.1638" stroke="#CCBDAB" stroke-width="0.608746"/>
<line x1="203.166" y1="29.251" x2="203.166" y2="86.1638" stroke="#CCBDAB" stroke-width="0.608746"/>
<line x1="201.297" y1="29.251" x2="201.297" y2="86.1638" stroke="#CCBDAB" stroke-width="0.608746"/>
<line x1="199.203" y1="29.251" x2="199.203" y2="86.1638" stroke="#CCBDAB" stroke-width="0.608746"/>
<path d="M197.301 31.5322L197.301 83.9949" stroke="#CCBDAB" stroke-width="0.608746"/>
<path d="M195.35 33.5728L195.35 81.5755" stroke="#CCBDAB" stroke-width="0.608746"/>
<path d="M193.393 35.5383L193.393 78.5518" stroke="#CCBDAB" stroke-width="0.608746"/>
<path d="M191.604 39.0159L191.604 75.2258" stroke="#CCBDAB" stroke-width="0.608746"/>
<line x1="210.812" y1="29.251" x2="210.812" y2="86.1638" stroke="#CCBDAB" stroke-width="0.608746"/>
<line x1="212.847" y1="29.251" x2="212.847" y2="86.1638" stroke="#CCBDAB" stroke-width="0.608746"/>
<line x1="214.8" y1="29.251" x2="214.8" y2="86.1638" stroke="#CCBDAB" stroke-width="0.608746"/>
<line x1="216.836" y1="29.251" x2="216.836" y2="86.1638" stroke="#CCBDAB" stroke-width="0.608746"/>
<path d="M218.992 32.2122L218.992 83.6922" stroke="#CCBDAB" stroke-width="0.608746"/>
<path d="M220.947 34.48L220.947 80.8197" stroke="#CCBDAB" stroke-width="0.608746"/>
<path d="M222.898 37.4282L222.898 78.3251" stroke="#CCBDAB" stroke-width="0.608746"/>
<path d="M224.773 39.772L224.773 74.9991" stroke="#CCBDAB" stroke-width="0.608746"/>
<path d="M227.82 65.4441L188.302 65.4441" stroke="#CCBDAB" stroke-width="0.608746"/>
<path d="M227.414 67.5273L188.812 67.5273" stroke="#CCBDAB" stroke-width="0.608746"/>
<path d="M226.498 69.4702L189.221 69.4702" stroke="#CCBDAB" stroke-width="0.608746"/>
<path d="M225.986 71.554L189.931 71.554" stroke="#CCBDAB" stroke-width="0.608746"/>
<path d="M225.176 73.5505L191.056 73.5505" stroke="#CCBDAB" stroke-width="0.608746"/>
<path d="M224.459 75.7825L192.07 75.7825" stroke="#CCBDAB" stroke-width="0.608746"/>
<path d="M223.342 77.7786L193.907 77.7786" stroke="#CCBDAB" stroke-width="0.608746"/>
<path d="M221.305 79.8625L194.214 79.8626" stroke="#CCBDAB" stroke-width="0.608746"/>
<path d="M220.793 81.9465L195.433 81.9465" stroke="#CCBDAB" stroke-width="0.608746"/>
<path d="M218.35 83.8557L197.674 83.8557" stroke="#CCBDAB" stroke-width="0.608746"/>
<path d="M228.434 63.4001L188.204 63.4001" stroke="#CCBDAB" stroke-width="0.608746"/>
<path d="M228.33 61.2302L187.794 61.2302" stroke="#CCBDAB" stroke-width="0.608746"/>
<path d="M228.533 59.1462L187.895 59.1462" stroke="#CCBDAB" stroke-width="0.608746"/>
<path d="M228.434 56.9763L188.407 56.9763" stroke="#CCBDAB" stroke-width="0.608746"/>
<path d="M227.924 54.6458L188.406 54.6458" stroke="#CCBDAB" stroke-width="0.608746"/>
<path d="M227.719 52.5618L188.405 52.5618" stroke="#CCBDAB" stroke-width="0.608746"/>
<path d="M227.316 50.4778L188.308 50.4778" stroke="#CCBDAB" stroke-width="0.608746"/>
<path d="M226.396 48.4817L188.712 48.4817" stroke="#CCBDAB" stroke-width="0.608746"/>
<path d="M226.703 46.4426L189.732 46.4426" stroke="#CCBDAB" stroke-width="0.608746"/>
<path d="M225.275 44.404L190.85 44.4038" stroke="#CCBDAB" stroke-width="0.608746"/>
<path d="M224.66 42.365L191.458 42.365" stroke="#CCBDAB" stroke-width="0.608746"/>
<path d="M224.154 40.3262L191.664 40.3262" stroke="#CCBDAB" stroke-width="0.608746"/>
<path d="M222.625 38.2871L192.579 38.2871" stroke="#CCBDAB" stroke-width="0.608746"/>
<path d="M220.996 36.248L193.497 36.248" stroke="#CCBDAB" stroke-width="0.608746"/>
<path d="M219.777 34.1279L195.639 34.1279" stroke="#CCBDAB" stroke-width="0.608746"/>
<path d="M218.758 32.0894L198.387 32.0894" stroke="#CCBDAB" stroke-width="0.608746"/>
<path d="M227.452 57.5261C227.522 66.0147 225.287 73.6384 221.714 79.0989C218.133 84.5723 213.349 87.6966 208.285 87.7438C203.22 87.7909 198.387 84.7561 194.716 79.3502C191.054 73.957 188.695 66.376 188.626 57.8875C188.556 49.3989 190.791 41.7752 194.364 36.3146C197.945 30.8412 202.729 27.7169 207.793 27.6698C212.858 27.6226 217.691 30.6575 221.362 36.0634C225.024 41.4565 227.383 49.0375 227.452 57.5261Z" stroke="#DCB051" stroke-width="3.65248"/>
<path d="M209.799 109.728C210.669 111.152 212.176 111.647 213.165 110.834C214.155 110.021 214.252 108.208 213.383 106.784L211.008 102.895C210.139 101.471 208.632 100.976 207.642 101.789C206.653 102.602 206.555 104.416 207.425 105.84L209.799 109.728Z" fill="#AD6F4B"/>
<path d="M203.539 120.457C203.896 123.339 206.744 124.93 209.9 124.013C213.057 123.096 215.326 120.016 214.968 117.135L213.992 109.266C213.663 106.606 206.765 107.504 203.225 108.379C202.705 108.508 202.237 108.854 201.916 109.315C201.148 110.419 200.895 111.738 201.237 112.865L203.539 120.457Z" fill="#AD6F4B"/>
<path d="M289.506 103.266L287.405 110.553C285.903 115.758 278.232 114.674 278.232 109.257L274.025 77.069V65.0105C274.025 56.8403 280.648 50.2171 288.818 50.2166L291.784 73.6662C292.07 75.9275 292.1 78.2139 291.874 80.4819L289.703 102.243C289.668 102.589 289.602 102.931 289.506 103.266Z" fill="#444444"/>
<path d="M252.904 37.4275H284.69C288.335 37.4275 291.27 40.5577 291.27 44.4455C291.27 48.3334 288.335 51.4628 284.69 51.4628H252.904C249.259 51.4628 246.324 48.3334 246.324 44.4455C246.324 40.5577 249.259 37.4275 252.904 37.4275Z" fill="#AD6F4B"/>
<path d="M253.138 39.2119H284.46C287.179 39.2119 289.367 41.5461 289.367 44.4454C289.367 47.3447 287.179 49.6789 284.46 49.6789H253.138C250.419 49.6789 248.23 47.3447 248.23 44.4454C248.23 41.5461 250.419 39.2119 253.138 39.2119Z" fill="#9A5731"/>
<path d="M265.223 17.7029H272.368C278.306 17.7029 287.699 26.6449 287.699 35.4387V47.916C287.699 56.7097 278.896 66.3342 272.589 66.3342H265.002C258.696 66.3342 249.893 56.7097 249.893 47.916V35.4387C249.893 26.6449 259.284 17.7029 265.223 17.7029Z" fill="#AD6F4B"/>
<path d="M267.191 61.5962H269.248C269.413 61.5962 269.546 61.7201 269.546 61.8736V62.0374C269.546 62.1908 269.413 62.3147 269.248 62.3147H267.191C267.025 62.3147 266.893 62.1908 266.893 62.0374V61.8736C266.893 61.7201 267.025 61.5962 267.191 61.5962Z" fill="#9A5731"/>
<path d="M268.794 41.8389C270.055 41.8389 271.071 42.9838 271.071 44.4054V48.9358C271.071 50.3575 270.055 51.5024 268.794 51.5024C267.533 51.5024 266.518 50.3575 266.518 48.9358V44.4054C266.518 42.9838 267.533 41.8389 268.794 41.8389Z" fill="#9A5731"/>
<path d="M272.588 48.5911C272.588 49.7243 271.689 50.6354 270.573 50.6354H267.017C265.901 50.6354 265.002 49.7243 265.002 48.5911C265.002 47.4587 265.901 46.5476 267.017 46.5476H270.573C271.689 46.5476 272.588 47.4587 272.588 48.5911Z" fill="#9A5731"/>
<path d="M263.053 53.5808C262.788 53.5808 262.535 53.6715 262.349 53.8324C262.161 53.9932 262.057 54.2123 262.057 54.4403V55.0873C262.057 56.3643 262.483 57.5343 263.236 58.4262C263.99 59.3189 265.13 59.9504 266.434 59.9504H271.06C272.364 59.9504 273.504 59.3189 274.257 58.4262C275.011 57.5343 275.438 56.3643 275.438 55.0873V54.4403C275.438 54.2123 275.332 53.9932 275.146 53.8324C274.959 53.6715 274.705 53.5808 274.441 53.5808H263.053Z" fill="white"/>
<path d="M257.556 36.278L263.959 36.835C264.656 36.8955 265.17 37.5425 265.114 38.2846C265.057 39.0275 264.45 39.5764 263.754 39.5159L257.35 38.9589C256.654 38.8984 256.139 38.2522 256.196 37.5093C256.252 36.7664 256.859 36.2175 257.556 36.278Z" fill="#4D4D4D"/>
<path d="M255.388 37.4887L256.648 36.5968C257.159 36.2353 257.842 36.3829 258.182 36.9273C258.521 37.4725 258.383 38.2021 257.872 38.5636L256.612 39.4555C256.101 39.817 255.417 39.6695 255.078 39.125C254.739 38.5798 254.877 37.8502 255.388 37.4887Z" fill="#4D4D4D"/>
<path d="M280.025 36.278L273.622 36.835C272.925 36.8955 272.41 37.5425 272.467 38.2846C272.524 39.0275 273.131 39.5764 273.826 39.5159L280.231 38.9589C280.926 38.8984 281.442 38.2522 281.385 37.5093C281.328 36.7664 280.722 36.2175 280.025 36.278Z" fill="#4D4D4D"/>
<path d="M282.19 37.4887L280.931 36.5968C280.42 36.2353 279.735 36.3829 279.396 36.9273C279.058 37.4725 279.196 38.2021 279.706 38.5636L280.967 39.4555C281.477 39.817 282.161 39.6695 282.5 39.125C282.839 38.5798 282.702 37.8502 282.19 37.4887Z" fill="#4D4D4D"/>
<path d="M257.556 36.278L263.959 36.835C264.656 36.8955 265.17 37.5425 265.114 38.2846C265.057 39.0275 264.45 39.5764 263.754 39.5159L257.35 38.9589C256.654 38.8984 256.139 38.2522 256.196 37.5093C256.252 36.7664 256.859 36.2175 257.556 36.278Z" fill="#4D4D4D"/>
<path d="M280.025 36.278L273.622 36.835C272.925 36.8955 272.41 37.5425 272.467 38.2846C272.524 39.0275 273.131 39.5764 273.826 39.5159L280.231 38.9589C280.926 38.8984 281.442 38.2522 281.385 37.5093C281.328 36.7664 280.722 36.2175 280.025 36.278Z" fill="#4D4D4D"/>
<path d="M259.686 41.332H260.523C261.284 41.332 261.896 41.9857 261.896 42.7964V44.8584C261.896 45.6692 261.284 46.3221 260.523 46.3221H259.686C258.925 46.3221 258.312 45.6692 258.312 44.8584V42.7964C258.312 41.9857 258.925 41.332 259.686 41.332Z" fill="#61534B"/>
<path d="M276.131 41.332H275.293C274.532 41.332 273.92 41.9857 273.92 42.7964V44.8584C273.92 45.6692 274.532 46.3221 275.293 46.3221H276.131C276.892 46.3221 277.504 45.6692 277.504 44.8584V42.7964C277.504 41.9857 276.892 41.332 276.131 41.332Z" fill="#61534B"/>
<path d="M265.713 15.9951C255.386 15.9951 247.072 24.8612 247.072 35.8755C247.072 39.7492 246.248 39.7689 247.758 42.2924C248.002 42.7007 248.45 42.9429 248.926 42.9429C249.698 42.9429 250.324 42.3172 250.324 41.5454V38.6715C250.324 38.0811 250.375 37.4899 250.473 36.9014C251.313 31.857 256.903 29.6746 262.017 29.6653C264.344 29.6606 270.564 30.0913 273.928 30.3378C275.411 30.4465 276.9 30.3449 278.353 30.0288L279.313 29.8201C279.741 29.727 280.177 29.6801 280.615 29.6801C282.479 29.6801 284.298 30.4963 285.229 32.1107C286.425 34.1834 287.168 36.4327 287.168 38.6715C287.168 41.1461 289.756 41.7217 290.149 39.2786C290.327 38.1734 290.419 37.0365 290.419 35.8755C290.419 24.8612 282.105 15.9951 271.778 15.9951H265.713Z" fill="#444444"/>
<path d="M72.7358 52.5877C72.7358 44.6925 67.3911 38.2925 60.7964 38.2925C54.201 38.2925 48.8555 44.6925 48.8555 52.5877V58.453C48.8555 66.3482 54.201 72.749 60.7964 72.749C67.3911 72.749 72.7358 66.3482 72.7358 58.453V52.5877Z" fill="#AD6F4B"/>
<path d="M56.4048 69.2856L49.8877 66.1536C49.1622 65.8047 48.292 66.1101 47.9431 66.8348C47.5943 67.561 47.8996 68.4304 48.6251 68.7793L55.143 71.9129C55.8676 72.2617 56.7387 71.9564 57.0875 71.2301C57.4364 70.5055 57.131 69.6345 56.4048 69.2856Z" fill="#9A5731"/>
<path d="M64.3274 69.2856L70.8453 66.1536C71.5708 65.8047 72.4418 66.1101 72.7907 66.8348C73.138 67.561 72.8334 68.4304 72.108 68.7793L65.5908 71.9129C64.8646 72.2617 63.9944 71.9564 63.6463 71.2301C63.2974 70.5055 63.6028 69.6345 64.3274 69.2856Z" fill="#9A5731"/>
<path d="M62.8366 39.2537H58.2054C52.8892 39.2537 48.5801 43.5628 48.5801 48.8782V52.8274C48.5801 58.1429 52.8892 62.452 58.2054 62.452H62.8366C68.152 62.452 72.4612 58.1429 72.4612 52.8274V48.8782C72.4612 43.5628 68.152 39.2537 62.8366 39.2537Z" fill="#9A5731"/>
<path d="M77.8442 30.8767H44.193C40.3459 30.8767 37.2266 34.0625 37.2266 37.9927C37.2266 41.9237 40.3459 45.1095 44.193 45.1095H77.8442C81.6914 45.1095 84.8115 41.9237 84.8115 37.9927C84.8115 34.0625 81.6914 30.8767 77.8442 30.8767Z" fill="#AD6F4B"/>
<path d="M77.3448 31.9529H44.0852C41.2072 31.9529 38.875 34.3286 38.875 37.2596C38.875 40.1907 41.2072 42.5671 44.0852 42.5671H77.3448C80.2221 42.5671 82.5551 40.1907 82.5551 37.2596C82.5551 34.3286 80.2221 31.9529 77.3448 31.9529Z" fill="#9A5731"/>
<path d="M65.7001 10.187H55.7393C47.4872 10.187 40.7969 16.8766 40.7969 25.1294V42.8375C40.7969 51.0911 47.4872 57.7815 55.7393 57.7815H65.7001C73.9521 57.7815 80.6424 51.0911 80.6424 42.8375V25.1294C80.6424 16.8766 73.9521 10.187 65.7001 10.187Z" fill="#AD6F4B"/>
<path d="M65.3851 55.7556H56.0778C55.0715 55.7556 54.2559 56.572 54.2559 57.5775C54.2559 58.5846 55.0715 59.401 56.0778 59.401H65.3851C66.3914 59.401 67.207 58.5846 67.207 57.5775C67.207 56.572 66.3914 55.7556 65.3851 55.7556Z" fill="#AD6F4B"/>
<path d="M62.2349 53.7185H59.5435C59.3283 53.7185 59.1543 53.8933 59.1543 54.1085V54.3379C59.1543 54.5531 59.3283 54.728 59.5435 54.728H62.2349C62.4492 54.728 62.6241 54.5531 62.6241 54.3379V54.1085C62.6241 53.8933 62.4492 53.7185 62.2349 53.7185Z" fill="#9A5731"/>
<path d="M63.6291 36.5039C63.6291 34.8877 62.3199 33.5776 60.7028 33.5776C59.0874 33.5776 57.7773 34.8877 57.7773 36.5039V41.6667C57.7773 43.2821 59.0874 44.593 60.7028 44.593C62.3199 44.593 63.6291 43.2821 63.6291 41.6667V36.5039Z" fill="#9A5731"/>
<path d="M60.3813 42.3471L57.6606 40.0347C57.2105 39.6526 56.5365 39.7071 56.1544 40.1565C55.7731 40.6066 55.8269 41.2807 56.277 41.6628L58.9976 43.9752C59.447 44.3565 60.1218 44.3019 60.5031 43.8525C60.8852 43.4032 60.8306 42.7284 60.3813 42.3471Z" fill="#9A5731"/>
<path d="M61.1269 42.3471L63.8475 40.0347C64.2969 39.6526 64.9709 39.7071 65.353 40.1565C65.7351 40.6066 65.6797 41.2807 65.2312 41.6628L62.5098 43.9752C62.0596 44.3565 61.3864 44.3019 61.0043 43.8525C60.6222 43.4032 60.6768 42.7284 61.1269 42.3471Z" fill="#9A5731"/>
<path d="M58.8704 31.1483C58.8704 30.695 58.5033 30.3279 58.0508 30.3279C57.5975 30.3279 57.2305 30.695 57.2305 31.1483V32.1411C57.2305 32.5936 57.5975 32.9615 58.0508 32.9615C58.5033 32.9615 58.8704 32.5936 58.8704 32.1411V31.1483Z" fill="#9A5731"/>
<path d="M64.3118 31.1483C64.3118 30.695 63.9456 30.3279 63.4915 30.3279C63.039 30.3279 62.6719 30.695 62.6719 31.1483V32.1411C62.6719 32.5936 63.039 32.9615 63.4915 32.9615C63.9456 32.9615 64.3118 32.5936 64.3118 32.1411V31.1483Z" fill="#9A5731"/>
<path d="M53.6152 32.845C53.6152 31.834 52.7956 31.0144 51.7845 31.0144C50.7727 31.0144 49.9531 31.834 49.9531 32.845V33.5784C49.9531 34.5894 50.7727 35.409 51.7845 35.409C52.7956 35.409 53.6152 34.5894 53.6152 33.5784V32.845Z" fill="#61534B"/>
<path d="M71.4218 32.845C71.4218 31.834 70.6022 31.0144 69.5912 31.0144C68.5794 31.0144 67.7598 31.834 67.7598 32.845V33.5776C67.7598 34.5894 68.5794 35.409 69.5912 35.409C70.6022 35.409 71.4218 34.5894 71.4218 33.5776V32.845Z" fill="#61534B"/>
<path d="M64.1712 51.6758C66.8665 51.6758 69.0357 49.3587 69.0357 46.4799V45.6389H52.6543V46.4799C52.6543 49.3587 54.8243 51.6758 57.5188 51.6758H64.1712Z" fill="white"/>
<path fill-rule="evenodd" clip-rule="evenodd" d="M73.5665 29.28C73.5665 29.0624 73.3893 28.886 73.1717 28.886H67.6498C67.4323 28.886 67.2559 29.0624 67.2559 29.28V30.0687C67.2559 30.287 67.4323 30.4635 67.6498 30.4635H73.1717C73.3893 30.4635 73.5665 30.287 73.5665 30.0687V29.28Z" fill="#61534B"/>
<path fill-rule="evenodd" clip-rule="evenodd" d="M54.6161 29.2568C54.6161 29.0392 54.4389 28.8628 54.2214 28.8628H48.6994C48.4819 28.8628 48.3047 29.0392 48.3047 29.2568V30.0463C48.3047 30.2638 48.4819 30.4403 48.6994 30.4403H54.2214C54.4389 30.4403 54.6161 30.2638 54.6161 30.0463V29.2568Z" fill="#61534B"/>
<path d="M51.6221 10.0835C44.5363 10.0835 38.832 16.1188 38.832 23.6185C38.832 23.9693 38.8483 24.317 38.8732 24.6631C38.8483 24.8389 38.832 25.0188 38.832 25.2026V33.4935C38.832 35.2735 40.0203 36.7474 41.6069 37.0815V26.2609C41.6069 18.5159 47.4998 12.2799 54.8194 12.2799H65.1562C72.475 12.2799 78.3688 18.5159 78.3688 26.2609V37.0951C79.9996 36.8009 81.236 35.3071 81.236 33.4935V25.2026C81.236 25.0188 81.2182 24.8389 81.1941 24.6631C81.2189 24.317 81.236 23.9693 81.236 23.6185C81.236 16.1188 75.531 10.0835 68.4452 10.0835H51.6221Z" fill="#4D4D4D"/>
<path d="M66.1475 8.44116H54.6241C50.7426 8.44116 47.5957 11.7709 47.5957 15.88C47.5957 19.9875 50.7426 23.3173 54.6241 23.3173H66.1475C70.029 23.3173 73.1759 19.9875 73.1759 15.88C73.1759 11.7709 70.029 8.44116 66.1475 8.44116Z" fill="#4D4D4D"/>
<path d="M51.5712 13.1346C51.5712 11.9733 50.6812 11.0317 49.5831 11.0317C48.4857 11.0317 47.5957 11.9733 47.5957 13.1346V18.0126C47.5957 19.1732 48.4857 20.1155 49.5831 20.1155C50.6812 20.1155 51.5712 19.1732 51.5712 18.0126V13.1346Z" fill="#4D4D4D"/>
<path d="M74.129 13.412C74.129 12.2498 73.2398 11.3091 72.1416 11.3091C71.0435 11.3091 70.1543 12.2498 70.1543 13.412V18.2892C70.1543 19.4513 71.0435 20.3921 72.1416 20.3921C73.2398 20.3921 74.129 19.4513 74.129 18.2892V13.412Z" fill="#4D4D4D"/>
<path d="M46.7737 15.5179C46.6697 14.7514 45.9979 14.2191 45.2741 14.3294C44.5495 14.4389 44.0463 15.1503 44.1503 15.9168L44.4866 18.3905C44.5899 19.1578 45.2617 19.6902 45.9863 19.5791C46.7108 19.4696 47.2133 18.759 47.1093 17.9925L46.7737 15.5179Z" fill="#4D4D4D"/>
<path d="M74.7718 16.1877C74.8751 15.4212 75.5468 14.8897 76.2714 14.9992C76.996 15.1095 77.4985 15.82 77.3944 16.5873L77.0589 19.0611C76.9548 19.8276 76.2831 20.3599 75.5593 20.2496C74.8347 20.1393 74.3314 19.4295 74.4355 18.6622L74.7718 16.1877Z" fill="#4D4D4D"/>
<path d="M58.9858 12.1174H60.2261C60.9577 12.1174 61.551 12.7457 61.551 13.5194V18.6411C61.551 19.4148 60.9577 20.0431 60.2261 20.0431H58.9858C58.2535 20.0431 57.6602 19.4148 57.6602 18.6411V13.5194C57.6602 12.7457 58.2535 12.1174 58.9858 12.1174Z" fill="#565656"/>
<path d="M53.6657 12.2568H55.3036C55.8767 12.2568 56.3403 12.7484 56.3403 13.3542V18.7797C56.3403 19.3864 55.8767 19.8779 55.3036 19.8779H53.6657C53.0925 19.8779 52.6289 19.3864 52.6289 18.7797V13.3542C52.6289 12.7484 53.0925 12.2568 53.6657 12.2568Z" fill="#565656"/>
<path d="M65.6833 12.2808H64.0454C63.473 12.2808 63.0078 12.7723 63.0078 13.3782V18.8037C63.0078 19.4103 63.473 19.9011 64.0454 19.9011H65.6833C66.2556 19.9011 66.72 19.4103 66.72 18.8037V13.3782C66.72 12.7723 66.2556 12.2808 65.6833 12.2808Z" fill="#565656"/>
<path d="M80.3605 28.3782C80.2883 28.3726 80.2153 28.3718 80.1423 28.379C80.0592 28.3862 79.973 28.4038 79.8891 28.4293L79.7167 28.4829C79.1583 28.6563 78.8081 29.1878 78.8213 29.7609C78.7669 29.681 78.7017 29.6107 78.6333 29.5459V31.3211C81.0525 32.3562 82.7471 34.8132 82.7471 37.6929C82.7471 40.5887 81.0346 43.0553 78.5937 44.0808C78.5246 45.115 78.3468 46.1165 78.0796 47.0789V48.0716C78.0175 47.9692 77.9437 47.8757 77.8621 47.7902C76.6452 51.4429 74.0598 54.1972 70.7297 55.8621V58.3167C70.7297 59.2119 71.4287 59.9328 72.2961 59.9328H73.0192C73.8874 59.9328 74.5856 59.2119 74.5856 58.3167V57.8811C74.8209 58.467 75.3785 58.8754 76.0317 58.8754H76.7539C77.623 58.8754 78.3211 58.1552 78.3211 57.2584V56.7469C78.5976 57.2033 79.0845 57.5078 79.646 57.5078C80.5135 57.5078 81.2125 56.7869 81.2125 55.8917V46.8103L81.5348 47.9165C81.7359 48.6087 82.4395 49.0003 83.1105 48.7917C83.7823 48.5831 84.1597 47.8581 83.9586 47.1644L82.2399 41.2601C82.5568 41.6278 83.0593 41.7956 83.547 41.6446L83.7201 41.5902C84.3919 41.3824 84.7701 40.6575 84.5674 39.9645L81.4649 29.3045C81.3111 28.7738 80.863 28.4213 80.3605 28.3782ZM39.6348 28.4661C39.1315 28.5093 38.6834 28.8617 38.5297 29.3925L35.4271 40.0524C35.2259 40.7454 35.6034 41.4703 36.2752 41.6781L36.4483 41.7325C36.9361 41.8828 37.4377 41.7157 37.7546 41.348L36.0367 47.2523C35.8348 47.9461 36.2122 48.671 36.884 48.8796C37.5558 49.0874 38.2586 48.6974 38.4598 48.0052L38.525 47.7814V55.8917C38.525 56.7869 39.2232 57.5078 40.0907 57.5078C40.6529 57.5078 41.1399 57.2033 41.4164 56.7469V57.2584C41.4164 58.1544 42.1145 58.8754 42.9828 58.8754H43.7058C44.3589 58.8754 44.9158 58.4678 45.1511 57.8835V58.3167C45.1511 59.2119 45.85 59.9328 46.7183 59.9328H47.4413C48.3088 59.9328 49.0078 59.2119 49.0078 58.3167V55.8621C45.7079 54.1732 43.1544 51.355 41.9631 47.7063C41.845 47.8118 41.7402 47.9341 41.6571 48.0716V46.6377C41.4552 45.8112 41.3185 44.9576 41.2595 44.0808C38.108 42.0194 36.9819 40.4065 37.1061 37.6929C37.2389 34.8156 38.8007 32.3562 41.2199 31.3211V29.7913C41.2051 29.8105 41.188 29.8289 41.174 29.8488C41.1865 29.2766 40.8362 28.7442 40.2778 28.5708L40.1054 28.5172C40.0216 28.4917 39.9369 28.4741 39.853 28.4669C39.7792 28.4597 39.7062 28.4597 39.6348 28.4661Z" fill="#4D4D4D"/>
<path d="M74.129 13.4118C74.129 12.2497 73.2398 11.3081 72.1417 11.3081C71.0435 11.3081 70.1543 12.2497 70.1543 13.4118V18.2882C70.1543 19.4503 71.0435 20.3919 72.1417 20.3919C73.2398 20.3919 74.129 19.4503 74.129 18.2882V13.4118Z" fill="#4D4D4D"/>
<path d="M46.7698 15.5173C46.6658 14.7515 45.994 14.2192 45.2702 14.3287C44.5456 14.439 44.0424 15.1504 44.1464 15.9169L44.4827 18.3907C44.586 19.1572 45.2578 19.6895 45.9824 19.5792C46.7069 19.4689 47.2094 18.7591 47.1053 17.9918L46.7698 15.5173Z" fill="#4D4D4D"/>
<path d="M74.7718 16.1877C74.8751 15.4212 75.5468 14.8897 76.2714 14.9992C76.996 15.1095 77.4985 15.82 77.3944 16.5873L77.0589 19.0611C76.9548 19.8276 76.2831 20.3599 75.5593 20.2496C74.8347 20.1393 74.3314 19.4295 74.4355 18.6622L74.7718 16.1877Z" fill="#4D4D4D"/>
<path d="M58.9858 12.1174H60.2261C60.9577 12.1174 61.551 12.7457 61.551 13.5194V18.6411C61.551 19.4148 60.9577 20.0431 60.2261 20.0431H58.9858C58.2535 20.0431 57.6602 19.4148 57.6602 18.6411V13.5194C57.6602 12.7457 58.2535 12.1174 58.9858 12.1174Z" fill="#565656"/>
<path d="M53.6665 12.2568H55.3036C55.8767 12.2568 56.3404 12.7484 56.3404 13.3542V18.7797C56.3404 19.3864 55.8767 19.8779 55.3036 19.8779H53.6665C53.0925 19.8779 52.6289 19.3864 52.6289 18.7797V13.3542C52.6289 12.7484 53.0925 12.2568 53.6665 12.2568Z" fill="#565656"/>
<path d="M65.6833 12.2803H64.0454C63.473 12.2803 63.0078 12.7718 63.0078 13.3777V18.804C63.0078 19.4106 63.473 19.9014 64.0454 19.9014H65.6833C66.2556 19.9014 66.72 19.4106 66.72 18.804V13.3777C66.72 12.7718 66.2556 12.2803 65.6833 12.2803Z" fill="#565656"/>
<path d="M51.6202 10.0835C44.5343 10.0835 38.8301 16.1188 38.8301 23.6185C38.8301 23.9693 38.8464 24.317 38.8712 24.6631C38.8464 24.8389 38.8301 25.0188 38.8301 25.2026V33.4935C38.8301 35.2735 40.0183 36.7474 41.6049 37.0815V26.2609C41.6049 18.5159 47.4979 12.2799 54.8175 12.2799H65.1542C72.4731 12.2799 78.3668 18.5159 78.3668 26.2609V37.0951C79.9977 36.8009 81.2341 35.3071 81.2341 33.4935V25.2026C81.2341 25.0188 81.2162 24.8389 81.1921 24.6631C81.217 24.317 81.2341 23.9693 81.2341 23.6185C81.2341 16.1188 75.529 10.0835 68.4432 10.0835H51.6202Z" fill="#4D4D4D"/>
<path d="M66.1475 8.44116H54.6241C50.7426 8.44116 47.5957 11.7709 47.5957 15.88C47.5957 19.9875 50.7426 23.3173 54.6241 23.3173H66.1475C70.029 23.3173 73.1759 19.9875 73.1759 15.88C73.1759 11.7709 70.029 8.44116 66.1475 8.44116Z" fill="#4D4D4D"/>
<path d="M51.5712 13.1346C51.5712 11.9733 50.6812 11.0317 49.5831 11.0317C48.4857 11.0317 47.5957 11.9733 47.5957 13.1346V18.0126C47.5957 19.1732 48.4857 20.1155 49.5831 20.1155C50.6812 20.1155 51.5712 19.1732 51.5712 18.0126V13.1346Z" fill="#4D4D4D"/>
<path d="M53.6665 12.2568H55.3036C55.8767 12.2568 56.3404 12.7484 56.3404 13.3542V18.7797C56.3404 19.3864 55.8767 19.8779 55.3036 19.8779H53.6665C53.0925 19.8779 52.6289 19.3864 52.6289 18.7797V13.3542C52.6289 12.7484 53.0925 12.2568 53.6665 12.2568Z" fill="#565656"/>
<path d="M65.6833 12.2803H64.0454C63.473 12.2803 63.0078 12.7718 63.0078 13.3777V18.804C63.0078 19.4106 63.473 19.9014 64.0454 19.9014H65.6833C66.2556 19.9014 66.72 19.4106 66.72 18.804V13.3777C66.72 12.7718 66.2556 12.2803 65.6833 12.2803Z" fill="#565656"/>
<path d="M58.9858 12.1174H60.2261C60.9577 12.1174 61.551 12.7457 61.551 13.5194V18.6411C61.551 19.4148 60.9577 20.0431 60.2261 20.0431H58.9858C58.2535 20.0431 57.6602 19.4148 57.6602 18.6411V13.5194C57.6602 12.7457 58.2535 12.1174 58.9858 12.1174Z" fill="#565656"/>
<path d="M51.6221 10.0837C44.5363 10.0837 38.832 16.1191 38.832 23.6187C38.832 23.9696 38.8483 24.3173 38.8732 24.6634C38.8483 24.8392 38.832 25.019 38.832 25.2029V33.4938C38.832 35.2738 40.0203 36.7476 41.6069 37.0817V26.2611C41.6069 18.5161 47.4998 12.2802 54.8194 12.2802H65.1562C72.475 12.2802 78.3688 18.5161 78.3688 26.2611V37.0953C79.9996 36.8012 81.236 35.3073 81.236 33.4938V25.2029C81.236 25.019 81.2182 24.8392 81.1941 24.6634C81.2189 24.3173 81.236 23.9696 81.236 23.6187C81.236 16.1191 75.531 10.0837 68.4452 10.0837H51.6221Z" fill="#4D4D4D"/>
<path d="M55.3356 2.45728C46.3626 2.45728 39.1387 9.69749 39.1387 18.69V26.3487C39.1387 29.0717 39.8041 31.6317 40.977 33.8809V24.7523C40.977 16.8143 47.3532 10.4245 55.2725 10.4245H64.8012C72.7206 10.4245 79.096 16.8143 79.096 24.7523V33.8809C80.2689 31.6317 80.9343 29.0717 80.9343 26.3487V18.69C80.9343 9.69749 73.7104 2.45728 64.7373 2.45728H55.3356Z" fill="#4D4D4D"/>
<path d="M45.3146 17.0986C45.3146 15.3139 44.088 13.8669 42.5757 13.8669C41.0626 13.8669 39.8359 15.3139 39.8359 17.0986V21.6973C39.8359 23.4829 41.0626 24.9298 42.5757 24.9298C44.088 24.9298 45.3146 23.4829 45.3146 21.6973V17.0986Z" fill="#4D4D4D"/>
<path d="M80.842 17.0986C80.842 15.3139 79.6154 13.8669 78.1022 13.8669C76.5899 13.8669 75.3633 15.3139 75.3633 17.0986V21.6973C75.3633 23.4829 76.5899 24.9298 78.1022 24.9298C79.6154 24.9298 80.842 23.4829 80.842 21.6973V17.0986Z" fill="#4D4D4D"/>
<path d="M67.8283 2.7793H52.2391C47.5963 2.7793 43.832 6.55209 43.832 11.2054V15.1807C43.832 19.834 47.5963 23.6068 52.2391 23.6068H67.8283C72.4712 23.6068 76.2355 19.834 76.2355 15.1807V11.2054C76.2355 6.55209 72.4712 2.7793 67.8283 2.7793Z" fill="#4F4F4F"/>
<path d="M41.9531 0.0598554C41.444 0.00843339 40.9365 0.138176 40.5347 0.421392C40.1337 0.7054 39.8685 1.12152 39.7943 1.58432C39.762 1.78289 39.7359 1.98146 39.7162 2.17923C39.1179 8.15051 43.9414 13.5498 50.4597 14.2056L58.0728 14.9706C64.591 15.6265 70.3886 11.2952 70.9861 5.32388C71.0075 5.11108 71.0177 4.91172 71.0256 4.72897C71.0453 4.25985 70.8685 3.79863 70.5315 3.43947C70.1937 3.08109 69.7216 2.85246 69.2125 2.80104L41.9531 0.0598554Z" fill="#4F4F4F"/>
<path d="M59.3452 11.4727H60.5855C61.317 11.4727 61.9104 12.1009 61.9104 12.8746V17.9964C61.9104 18.7701 61.317 19.3983 60.5855 19.3983H59.3452C58.6129 19.3983 58.0195 18.7701 58.0195 17.9964V12.8746C58.0195 12.1009 58.6129 11.4727 59.3452 11.4727Z" fill="#565656"/>
<path d="M54.0258 11.6113H55.6629C56.2361 11.6113 56.6997 12.1029 56.6997 12.7087V18.1342C56.6997 18.7409 56.2361 19.2324 55.6629 19.2324H54.0258C53.4519 19.2324 52.9883 18.7409 52.9883 18.1342V12.7087C52.9883 12.1029 53.4519 11.6113 54.0258 11.6113Z" fill="#565656"/>
<path d="M66.0446 11.6348H64.4067C63.8343 11.6348 63.3691 12.1263 63.3691 12.7322V18.1585C63.3691 18.7651 63.8343 19.2559 64.4067 19.2559H66.0446C66.617 19.2559 67.0814 18.7651 67.0814 18.1585V12.7322C67.0814 12.1263 66.617 11.6348 66.0446 11.6348Z" fill="#565656"/>
<path d="M51.6221 10.0837C44.5363 10.0837 38.832 16.1191 38.832 23.6187C38.832 23.9696 38.8483 24.3173 38.8732 24.6634C38.8483 24.8392 38.832 25.019 38.832 25.2029V33.4938C38.832 35.2738 40.0203 36.7476 41.6069 37.0817V26.2611C41.6069 18.5161 47.4998 12.2802 54.8194 12.2802H65.1562C72.475 12.2802 78.3688 18.5161 78.3688 26.2611V37.0953C79.9996 36.8012 81.236 35.3073 81.236 33.4938V25.2029C81.236 25.019 81.2182 24.8392 81.1941 24.6634C81.2189 24.3173 81.236 23.9696 81.236 23.6187C81.236 16.1191 75.531 10.0837 68.4452 10.0837H51.6221Z" fill="#4D4D4D"/>
<path d="M66.1475 8.44141H54.6241C50.7426 8.44141 47.5957 11.7712 47.5957 15.8803C47.5957 19.9878 50.7426 23.3175 54.6241 23.3175H66.1475C70.029 23.3175 73.1759 19.9878 73.1759 15.8803C73.1759 11.7712 70.029 8.44141 66.1475 8.44141Z" fill="#4D4D4D"/>
<path d="M51.5712 13.1349C51.5712 11.9735 50.6812 11.032 49.5831 11.032C48.4857 11.032 47.5957 11.9735 47.5957 13.1349V18.0129C47.5957 19.1734 48.4857 20.1158 49.5831 20.1158C50.6812 20.1158 51.5712 19.1734 51.5712 18.0129V13.1349Z" fill="#4D4D4D"/>
<path d="M74.131 13.412C74.131 12.2499 73.2417 11.3083 72.1436 11.3083C71.0455 11.3083 70.1562 12.2499 70.1562 13.412V18.2884C70.1562 19.4506 71.0455 20.3921 72.1436 20.3921C73.2417 20.3921 74.131 19.4506 74.131 18.2884V13.412Z" fill="#4D4D4D"/>
<path d="M46.7698 15.5173C46.6658 14.7515 45.994 14.2192 45.2702 14.3287C44.5456 14.439 44.0424 15.1504 44.1464 15.9169L44.4827 18.3907C44.586 19.1572 45.2578 19.6895 45.9824 19.5792C46.7069 19.4689 47.2094 18.7591 47.1053 17.9918L46.7698 15.5173Z" fill="#4D4D4D"/>
<path d="M74.7718 16.1879C74.8751 15.4214 75.5468 14.8899 76.2714 14.9994C76.996 15.1097 77.4985 15.8203 77.3944 16.5876L77.0589 19.0613C76.9548 19.8278 76.2831 20.3602 75.5593 20.2499C74.8347 20.1395 74.3314 19.4298 74.4355 18.6625L74.7718 16.1879Z" fill="#4D4D4D"/>
<path d="M58.9858 12.1177H60.2261C60.9577 12.1177 61.551 12.7459 61.551 13.5196V18.6414C61.551 19.4151 60.9577 20.0433 60.2261 20.0433H58.9858C58.2535 20.0433 57.6602 19.4151 57.6602 18.6414V13.5196C57.6602 12.7459 58.2535 12.1177 58.9858 12.1177Z" fill="#565656"/>
<path d="M53.6645 12.2571H55.3016C55.8748 12.2571 56.3384 12.7486 56.3384 13.3545V18.78C56.3384 19.3866 55.8748 19.8782 55.3016 19.8782H53.6645C53.0906 19.8782 52.627 19.3866 52.627 18.78V13.3545C52.627 12.7486 53.0906 12.2571 53.6645 12.2571Z" fill="#565656"/>
<path d="M65.6833 12.2805H64.0454C63.473 12.2805 63.0078 12.7721 63.0078 13.3779V18.8042C63.0078 19.4109 63.473 19.9016 64.0454 19.9016H65.6833C66.2556 19.9016 66.72 19.4109 66.72 18.8042V13.3779C66.72 12.7721 66.2556 12.2805 65.6833 12.2805Z" fill="#565656"/>
<path d="M51.6221 10.0837C44.5363 10.0837 38.832 16.1191 38.832 23.6187C38.832 23.9696 38.8483 24.3173 38.8732 24.6634C38.8483 24.8392 38.832 25.019 38.832 25.2029V33.4938C38.832 35.2738 40.0203 36.7476 41.6069 37.0817V26.2611C41.6069 18.5161 47.4998 12.2802 54.8194 12.2802H65.1562C72.475 12.2802 78.3688 18.5161 78.3688 26.2611V37.0953C79.9996 36.8012 81.236 35.3073 81.236 33.4938V25.2029C81.236 25.019 81.2182 24.8392 81.1941 24.6634C81.2189 24.3173 81.236 23.9696 81.236 23.6187C81.236 16.1191 75.531 10.0837 68.4452 10.0837H51.6221Z" fill="#4D4D4D"/>
<path fill-rule="evenodd" clip-rule="evenodd" d="M46.6943 11.9649C45.3987 12.7777 44.717 13.6987 44.717 14.6364C44.717 17.5864 51.3286 19.9807 59.4728 19.9807C67.617 19.9807 74.2285 17.5864 74.2285 14.6364C74.2285 13.6987 73.5469 12.7777 72.2512 11.9649L46.6943 11.9649Z" fill="#4D4D4D"/>
</svg>
