<svg width="330" height="233" viewBox="0 0 330 233" fill="none" xmlns="http://www.w3.org/2000/svg">
<path d="M95.3753 70.2211L98.9313 66.8545C101.58 64.561 105.217 64.665 106.525 67.0721L110.872 75.0745C111.362 75.9764 111.709 76.9661 111.905 78.0185L112.754 82.5783C113.204 84.9958 113.183 87.5762 112.691 90.2075L111.804 94.9458C111.675 95.6361 111.61 96.3212 111.61 96.9923V98.6222C111.61 99.4039 111.401 100.222 111.002 101.004C110.464 102.058 110.314 103.162 110.338 104.21C110.429 108.234 108.081 112.179 105.609 113.148L105.566 113.165C102.771 114.261 99.8006 111.486 98.9313 106.967L97.424 102.631L94.7467 93.5564C94.0215 91.0999 93.8197 88.4199 94.1508 85.6484L94.6213 81.7177L95.0357 77.7751C95.1276 76.9056 94.9087 76.1047 94.4148 75.5015C93.2744 74.1062 93.6912 71.8155 95.3753 70.2211Z" fill="#9D6B5A"/>
<path d="M105.258 87.7892L105.311 87.7914C108.643 87.9315 111.406 91.6219 111.481 96.035L112.046 129.168C112.12 133.581 109.48 137.045 106.147 136.905L106.095 136.902C102.763 136.762 100 133.072 99.9249 128.66L99.361 95.5261C99.2854 91.113 101.926 87.6498 105.258 87.7892Z" fill="#9D6B5A"/>
<path d="M103.317 123.097L105.509 123.246C109.71 123.534 113.177 127.923 113.253 133.05L113.32 137.605C113.395 142.732 110.051 146.655 105.85 146.367L103.658 146.217C99.4567 145.929 95.9903 141.54 95.9147 136.413L95.847 131.859C95.7714 126.732 99.1163 122.809 103.317 123.097Z" fill="#906253"/>
<path d="M101.883 135.892C102.949 132.747 106.431 131.381 109.661 132.841C112.892 134.302 114.647 138.036 113.581 141.182L110.671 149.773C109.606 152.918 106.123 154.284 102.894 152.823C99.6632 151.362 97.9082 147.628 98.9738 144.483L101.883 135.892Z" fill="#906253"/>
<path d="M95.0179 133.728C94.993 131.462 96.4333 129.724 98.2342 129.844C100.035 129.964 101.515 131.899 101.539 134.164L101.606 140.352C101.63 142.617 100.19 144.356 98.3892 144.235C96.5883 144.115 95.1083 142.181 95.0841 139.915L95.0179 133.728Z" fill="#9D6B5A"/>
<path d="M31.9842 142.219L29.4405 142.219C25.2001 142.219 21.7626 145.656 21.7625 149.897L21.7623 164.174L21.7626 175.524L20.2559 187.157C20.2559 189.699 23.335 191.76 27.1334 191.76H28.7369C32.5353 191.76 35.6145 189.699 35.6145 187.157V170.272C35.6145 169.031 35.9753 167.817 36.6529 166.778C37.3306 165.738 37.6914 164.524 37.6914 163.284V161.182C37.6914 159.855 37.4904 158.536 37.0951 157.269C36.6999 156.002 36.4989 154.683 36.4989 153.356V146.733C36.4989 146.408 36.4636 146.083 36.3936 145.764C35.9386 143.694 34.1042 142.219 31.9842 142.219Z" fill="#906253"/>
<path d="M43.9567 120.036L57.5197 132.499C59.3944 134.222 59.8185 137.017 58.5394 139.218C58.2333 139.745 57.8406 140.217 57.3779 140.613L52.2256 145.026L47.9128 148.001C46.811 148.761 45.6361 149.409 44.4055 149.936L39.2245 152.153C38.733 152.363 38.2896 152.672 37.9215 153.06C36.4294 154.632 33.9451 154.697 32.3728 153.205L26.4645 147.598C24.9675 146.178 24.9056 143.812 26.3261 142.316C26.7766 141.841 27.0944 141.256 27.248 140.62L27.599 139.166C27.7608 138.496 27.9962 137.846 28.3011 137.227L30.1799 133.418L32.3689 129.674C33.148 128.342 34.0781 127.104 35.1406 125.984L40.6789 120.148C41.5577 119.222 43.0168 119.172 43.9567 120.036Z" fill="#906253"/>
<path d="M89.8869 87.8663C89.8869 72.8202 77.7893 67.0159 65.5144 67.0159C53.2396 67.0159 42.0332 72.8202 42.0332 87.8663L43.2889 113.942C43.2889 128.988 53.2396 141.186 65.5144 141.186C77.7893 141.186 87.74 132.415 87.74 117.369L89.8869 87.8663Z" fill="#81584A"/>
<path d="M95.9929 54.0225H34.6599C28.0208 54.0225 22.6387 59.4046 22.6387 66.0437C22.6387 72.6829 28.0208 78.065 34.6599 78.065H95.9929C102.632 78.065 108.014 72.6829 108.014 66.0437C108.014 59.4046 102.632 54.0225 95.9929 54.0225Z" fill="#906253"/>
<path d="M98.0861 72.2336C98.0861 58.2869 83.5052 46.981 65.5186 46.981C47.5321 46.981 32.9512 58.2869 32.9512 72.2336C32.9512 86.1802 47.5321 97.4862 65.5186 97.4862C83.5052 97.4862 98.0861 86.1802 98.0861 72.2336Z" fill="#81584A"/>
<path d="M67.3149 88.5085H63.7173C55.1383 88.5085 48.1836 94.8035 48.1836 102.569V112.727C48.1836 120.492 55.1383 126.787 63.7173 126.787H67.3149C75.8939 126.787 82.8486 120.492 82.8486 112.727V102.569C82.8486 94.8035 75.8939 88.5085 67.3149 88.5085Z" fill="#906253"/>
<path d="M82.3554 53.9648H48.6818C39.994 53.9648 32.9512 60.1637 32.9512 67.8103V76.155C32.9512 83.8016 39.994 90.0004 48.6818 90.0004H82.3554C91.0432 90.0004 98.0861 83.8016 98.0861 76.155V67.8103C98.0861 60.1637 91.0432 53.9648 82.3554 53.9648Z" fill="#906253"/>
<path d="M85.2938 53.9648H45.7434C38.6785 53.9648 32.9512 59.7255 32.9512 66.8316V74.5863C32.9512 81.6924 38.6785 87.4531 45.7434 87.4531H85.2938C92.3588 87.4531 98.0861 81.6924 98.0861 74.5863V66.8316C98.0861 59.7255 92.3588 53.9648 85.2938 53.9648Z" fill="#9D6B5A"/>
<path d="M68.1779 82.1435C68.1779 81.2663 66.9497 80.5552 65.4346 80.5552C63.9196 80.5552 62.6914 81.2663 62.6914 82.1435V85.224C62.6914 86.1012 63.9196 86.8123 65.4346 86.8123C66.9497 86.8123 68.1779 86.1012 68.1779 85.224V82.1435Z" fill="#81584A"/>
<path d="M79.7506 77.3015H73.3564C71.52 77.3015 70.0312 78.6455 70.0312 80.3034C70.0312 81.9613 71.52 83.3053 73.3564 83.3053H79.7506C81.587 83.3053 83.0757 81.9613 83.0757 80.3034C83.0757 78.6455 81.587 77.3015 79.7506 77.3015Z" fill="#AC7967"/>
<path d="M57.1803 77.3018H50.7861C48.9497 77.3018 47.4609 78.6458 47.4609 80.3037C47.4609 81.9616 48.9497 83.3056 50.7861 83.3056H57.1803C59.0167 83.3056 60.5054 81.9616 60.5054 80.3037C60.5054 78.6458 59.0167 77.3018 57.1803 77.3018Z" fill="#AC7967"/>
<path d="M77.1567 43.6248C77.1567 35.9295 71.9462 29.6912 65.5188 29.6912C59.0913 29.6912 53.8809 35.9295 53.8809 43.6248V49.3412C53.8809 57.0366 59.0913 63.2749 65.5188 63.2749C71.9462 63.2749 77.1567 57.0366 77.1567 49.3412V43.6248Z" fill="#9D6B5A"/>
<path d="M47.9945 83.4612H45.666C44.7373 83.4612 43.9844 84.1409 43.9844 84.9794C43.9844 85.8179 44.7373 86.4976 45.666 86.4976H47.9945C48.9232 86.4976 49.6762 85.8179 49.6762 84.9794C49.6762 84.1409 48.9232 83.4612 47.9945 83.4612Z" fill="#81584A"/>
<path d="M86.057 83.4614H83.7285C82.7998 83.4614 82.0469 84.1411 82.0469 84.9796C82.0469 85.8181 82.7998 86.4978 83.7285 86.4978H86.057C86.9857 86.4978 87.7386 85.8181 87.7386 84.9796C87.7386 84.1411 86.9857 83.4614 86.057 83.4614Z" fill="#81584A"/>
<path d="M67.7756 29.6912H63.262C58.0809 29.6912 53.8809 33.8912 53.8809 39.0723V42.9209C53.8809 48.1019 58.0809 52.302 63.262 52.302H67.7756C72.9567 52.302 77.1567 48.1019 77.1567 42.9209V39.0723C77.1567 33.8912 72.9567 29.6912 67.7756 29.6912Z" fill="#81584A"/>
<path d="M35.905 55.9937H34.4943C30.7285 55.9937 27.6758 59.0464 27.6758 62.8122C27.6758 66.5779 30.7285 69.6307 34.4943 69.6307H35.905C39.6708 69.6307 42.7236 66.5779 42.7236 62.8122C42.7236 59.0464 39.6708 55.9937 35.905 55.9937Z" fill="#9D6B5A"/>
<path d="M96.7547 56.6587H95.3439C91.5781 56.6587 88.5254 59.7114 88.5254 63.4772C88.5254 67.243 91.5781 70.2957 95.3439 70.2957H96.7547C100.52 70.2957 103.573 67.243 103.573 63.4772C103.573 59.7114 100.52 56.6587 96.7547 56.6587Z" fill="#9D6B5A"/>
<path d="M35.8064 58.2852H33.6903C32.5216 58.2852 31.5742 59.2326 31.5742 60.4012C31.5742 61.5699 32.5216 62.5173 33.6903 62.5173H35.8064C36.9751 62.5173 37.9225 61.5699 37.9225 60.4012C37.9225 59.2326 36.9751 58.2852 35.8064 58.2852Z" fill="#AC7967"/>
<path d="M99.3181 58.4512H97.202C96.0333 58.4512 95.0859 59.3986 95.0859 60.5673C95.0859 61.7359 96.0333 62.6834 97.202 62.6834H99.3181C100.487 62.6834 101.434 61.7359 101.434 60.5673C101.434 59.3986 100.487 58.4512 99.3181 58.4512Z" fill="#AC7967"/>
<path d="M76.3054 169.45L77.911 169.45C81.9378 169.45 85.2022 172.714 85.2022 176.741L85.2025 196.27L85.2021 210.135L86.6621 224.346C86.6621 227.452 83.6786 229.969 79.9982 229.969H78.4445C74.7641 229.969 71.7806 227.452 71.7806 224.346V203.206C71.7806 201.846 71.4343 200.508 70.7743 199.319C70.1144 198.129 69.7681 196.792 69.7681 195.432V192.518C69.7681 190.958 69.9576 189.404 70.3323 187.89L70.3459 187.835C70.7296 186.285 70.9236 184.693 70.9236 183.096V174.832C70.9236 174.522 70.9504 174.213 71.0036 173.908C71.4527 171.331 73.6897 169.45 76.3054 169.45Z" fill="#906253"/>
<path d="M78.2388 115.919H84.046C85.5425 115.919 86.8742 116.869 87.3617 118.283C87.4338 118.493 87.486 118.708 87.5174 118.927L91.2506 144.905C91.3868 145.852 91.4551 146.808 91.4551 147.765V156.939C91.4551 158.045 91.3638 159.149 91.1823 160.24L90.38 165.06C89.9923 167.39 89.1971 169.633 88.0309 171.686L85.8486 175.53C85.4034 176.314 85.1693 177.2 85.1693 178.101C85.1693 180.978 82.8376 183.309 79.9613 183.309H76.5279C73.4471 183.309 70.9496 180.812 70.9496 177.731C70.9496 177.066 70.8308 176.407 70.5987 175.784L69.8488 173.771C69.5263 172.905 69.2728 172.015 69.0908 171.109L67.9544 165.453L66.8152 157.936C66.6641 156.939 66.5882 155.932 66.5882 154.924V142.023V127.57C66.5882 121.135 71.8044 115.919 78.2388 115.919Z" fill="#906253"/>
<path d="M76.7326 218.355H82.99C86.5983 218.355 89.5234 220.955 89.5234 224.162C89.5234 227.369 86.5983 229.969 82.99 229.969H76.7326C73.1243 229.969 70.1991 227.369 70.1991 224.162C70.1991 220.955 73.1243 218.355 76.7326 218.355Z" fill="#9D6B5A"/>
<path d="M72.3627 220.746H87.3598C88.5548 220.746 89.5234 221.994 89.5234 223.534V227.18C89.5234 228.72 88.5548 229.969 87.3598 229.969H72.3627C71.1678 229.969 70.1991 228.72 70.1991 227.18V223.534C70.1991 221.994 71.1678 220.746 72.3627 220.746Z" fill="#9D6B5A"/>
<path d="M82.614 21.5369H50.359C46.6712 21.5369 43.6816 24.6423 43.6816 28.473C43.6816 32.3036 46.6712 35.409 50.359 35.409H82.614C86.3018 35.409 89.2913 32.3036 89.2913 28.473C89.2913 24.6423 86.3018 21.5369 82.614 21.5369Z" fill="#9D6B5A"/>
<path d="M82.3554 22.6636H49.3387C46.4819 22.6636 44.166 24.9795 44.166 27.8363C44.166 30.693 46.4819 33.0089 49.3387 33.0089H82.3554C85.2122 33.0089 87.528 30.693 87.528 27.8363C87.528 24.9795 85.2122 22.6636 82.3554 22.6636Z" fill="#81584A"/>
<path d="M70.7036 1.4043H60.9959C52.9523 1.4043 46.4316 7.92492 46.4316 15.9685V33.2277C46.4316 41.2713 52.9523 47.7919 60.9959 47.7919H70.7036C78.7472 47.7919 85.2679 41.2713 85.2679 33.2277V15.9685C85.2679 7.92492 78.7472 1.4043 70.7036 1.4043Z" fill="#9D6B5A"/>
<path d="M70.3495 45.877H61.2781C60.2972 45.877 59.502 46.6722 59.502 47.6531C59.502 48.634 60.2972 49.4292 61.2781 49.4292H70.3495C71.3304 49.4292 72.1256 48.634 72.1256 47.6531C72.1256 46.6722 71.3304 45.877 70.3495 45.877Z" fill="#9D6B5A"/>
<path d="M61.6775 93.2424H57.5526C55.5852 93.2424 53.9902 94.6328 53.9902 96.348C53.9902 98.0631 55.5852 99.4535 57.5526 99.4535H61.6775C63.6449 99.4535 65.2398 98.0631 65.2398 96.348C65.2398 94.6328 63.6449 93.2424 61.6775 93.2424Z" fill="#9D6B5A"/>
<path d="M61.6775 100.565H57.5526C55.5852 100.565 53.9902 101.955 53.9902 103.67C53.9902 105.385 55.5852 106.776 57.5526 106.776H61.6775C63.6449 106.776 65.2398 105.385 65.2398 103.67C65.2398 101.955 63.6449 100.565 61.6775 100.565Z" fill="#9D6B5A"/>
<path d="M61.6775 107.888H57.5526C55.5852 107.888 53.9902 109.278 53.9902 110.993C53.9902 112.709 55.5852 114.099 57.5526 114.099H61.6775C63.6449 114.099 65.2398 112.709 65.2398 110.993C65.2398 109.278 63.6449 107.888 61.6775 107.888Z" fill="#9D6B5A"/>
<path d="M74.277 93.2424H70.1522C68.1848 93.2424 66.5898 94.6328 66.5898 96.348C66.5898 98.0631 68.1848 99.4535 70.1522 99.4535H74.277C76.2445 99.4535 77.8394 98.0631 77.8394 96.348C77.8394 94.6328 76.2445 93.2424 74.277 93.2424Z" fill="#9D6B5A"/>
<path d="M74.277 100.565H70.1522C68.1848 100.565 66.5898 101.955 66.5898 103.67C66.5898 105.385 68.1848 106.776 70.1522 106.776H74.277C76.2445 106.776 77.8394 105.385 77.8394 103.67C77.8394 101.955 76.2445 100.565 74.277 100.565Z" fill="#9D6B5A"/>
<path d="M74.277 107.888H70.1522C68.1848 107.888 66.5898 109.278 66.5898 110.993C66.5898 112.709 68.1848 114.099 70.1522 114.099H74.277C76.2445 114.099 77.8394 112.709 77.8394 110.993C77.8394 109.278 76.2445 107.888 74.277 107.888Z" fill="#9D6B5A"/>
<path d="M61.365 59.8311L55.0124 56.7774C54.3055 56.4376 53.4569 56.7352 53.1171 57.4421C52.7773 58.149 53.0749 58.9976 53.7818 59.3374L60.1344 62.3911C60.8413 62.731 61.6899 62.4334 62.0297 61.7264C62.3695 61.0195 62.0719 60.171 61.365 59.8311Z" fill="#81584A"/>
<path d="M68.9299 59.8311L75.2825 56.7774C75.9894 56.4376 76.838 56.7352 77.1778 57.4421C77.5176 58.149 77.22 58.9976 76.5131 59.3374L70.1605 62.3911C69.4536 62.731 68.605 62.4334 68.2652 61.7264C67.9254 61.0195 68.223 60.171 68.9299 59.8311Z" fill="#81584A"/>
<path d="M46.7073 117.429C45.5385 117.429 44.4108 117.617 43.3438 117.961C44.5931 131.646 54.0098 142.218 65.5195 142.218C77.1779 142.218 86.6897 131.372 87.7402 117.429C87.7391 117.429 87.738 117.429 87.7368 117.429H46.7073Z" fill="#4F4F4F"/>
<path d="M86.1131 115.919H44.9706C44.0721 115.919 43.3438 116.749 43.3438 117.773V120.644C43.3438 121.667 44.0721 122.498 44.9706 122.498H86.1131C87.0116 122.498 87.74 121.667 87.74 120.644V117.773C87.74 116.749 87.0116 115.919 86.1131 115.919Z" fill="#5B5B5B"/>
<path d="M43.2891 115.738C44.4337 130.083 54.7765 141.186 65.3243 141.186C76.0103 141.186 86.8957 130.353 87.8584 115.738H43.2891Z" fill="#4F4F4F"/>
<path d="M87.9182 115.738L66.0503 119.25L65.8789 145.803L66.0503 157.44H91.9785C92.1215 135.913 92.5352 128.439 87.9182 115.738Z" fill="#4B4B4B"/>
<path d="M43.3858 115.622L65.6013 119.315L65.6011 141.886L50.9361 147.505L40.8697 153.007L25.5246 139.542C33.9475 124.516 33.9464 123.797 43.3858 115.622Z" fill="#4B4B4B"/>
<path d="M67.8408 43.7014H65.204C64.9932 43.7014 64.8223 43.8723 64.8223 44.0832V44.3081C64.8223 44.5189 64.9932 44.6899 65.204 44.6899H67.8408C68.0516 44.6899 68.2225 44.5189 68.2225 44.3081V44.0832C68.2225 43.8723 68.0516 43.7014 67.8408 43.7014Z" fill="#81584A"/>
<path d="M69.84 27.0245C69.84 25.4496 68.5633 24.1729 66.9884 24.1729C65.4135 24.1729 64.1367 25.4496 64.1367 27.0245V32.0569C64.1367 33.6318 65.4135 34.9085 66.9884 34.9085C68.5633 34.9085 69.84 33.6318 69.84 32.0569V27.0245Z" fill="#81584A"/>
<path d="M61.5518 25.9575C61.5518 24.9719 60.7527 24.1729 59.7671 24.1729C58.7815 24.1729 57.9824 24.9719 57.9824 25.9575V26.6714C57.9824 27.657 58.7815 28.456 59.7671 28.456C60.7527 28.456 61.5518 27.657 61.5518 26.6714V25.9575Z" fill="#61534B"/>
<path d="M77.2705 25.9746C77.2705 24.989 76.4715 24.1899 75.4858 24.1899C74.5002 24.1899 73.7012 24.989 73.7012 25.9746V26.6885C73.7012 27.6741 74.5002 28.4731 75.4858 28.4731C76.4715 28.4731 77.2705 27.6741 77.2705 26.6885V25.9746Z" fill="#61534B"/>
<path d="M70.1827 41.7188C72.8093 41.7188 74.9241 39.4603 74.9241 36.6541V35.8345H58.957V36.6541C58.957 39.4603 61.0719 41.7188 63.6984 41.7188H70.1827Z" fill="white"/>
<path d="M66.6055 32.7547L63.9535 30.5013C63.5153 30.129 62.8584 30.1823 62.4861 30.6205C62.1138 31.0586 62.1672 31.7156 62.6053 32.0879L65.2573 34.3413C65.6954 34.7136 66.3524 34.6602 66.7247 34.2221C67.097 33.7839 67.0436 33.127 66.6055 32.7547Z" fill="#81584A"/>
<path d="M67.3691 32.7547L70.0211 30.5012C70.4593 30.129 71.1163 30.1823 71.4885 30.6205C71.8608 31.0586 71.8075 31.7156 71.3693 32.0879L68.7173 34.3413C68.2792 34.7136 67.6222 34.6602 67.2499 34.2221C66.8776 33.7839 66.931 33.127 67.3691 32.7547Z" fill="#81584A"/>
<path d="M68.6388 31.3067C68.6388 30.5511 68.0262 29.9385 67.2706 29.9385C66.5149 29.9385 65.9023 30.5511 65.9023 31.3067V32.556C65.9023 33.3116 66.5149 33.9242 67.2706 33.9242C68.0262 33.9242 68.6388 33.3116 68.6388 32.556V31.3067Z" fill="#906253"/>
<path d="M61.1318 22.546L55.4478 21.0061C54.8316 20.8392 54.27 21.0622 54.1935 21.5043C54.117 21.9463 54.5546 22.44 55.1708 22.6069L60.8548 24.1468C61.4711 24.3137 62.0326 24.0907 62.1091 23.6486C62.1856 23.2066 61.748 22.7129 61.1318 22.546Z" fill="#4D4D4D"/>
<path d="M55.5426 22.228C55.5914 21.8987 55.3061 21.533 54.9053 21.411C54.5046 21.2891 54.1401 21.4571 54.0913 21.7863L53.8889 23.1516C53.8401 23.4809 54.1254 23.8466 54.5262 23.9686C54.9269 24.0906 55.2914 23.9225 55.3402 23.5933L55.5426 22.228Z" fill="#4D4D4D"/>
<path d="M72.501 22.545L78.185 21.0051C78.8012 20.8382 79.3628 21.0612 79.4393 21.5033C79.5158 21.9453 79.0782 22.439 78.462 22.606L72.778 24.1458C72.1618 24.3127 71.6002 24.0897 71.5237 23.6477C71.4472 23.2056 71.8848 22.7119 72.501 22.545Z" fill="#4D4D4D"/>
<path d="M78.0921 22.2275C78.0433 21.8983 78.3286 21.5325 78.7294 21.4105C79.1302 21.2886 79.4946 21.4566 79.5435 21.7858L79.7459 23.1512C79.7947 23.4804 79.5094 23.8462 79.1086 23.9681C78.7078 24.0901 78.3434 23.9221 78.2946 23.5928L78.0921 22.2275Z" fill="#4D4D4D"/>
<path d="M65.1551 21.8244C65.1551 21.383 64.7973 21.0251 64.3559 21.0251C63.9145 21.0251 63.5566 21.383 63.5566 21.8244V22.7919C63.5566 23.2333 63.9145 23.5911 64.3559 23.5911C64.7973 23.5911 65.1551 23.2333 65.1551 22.7919V21.8244Z" fill="#81584A"/>
<path d="M70.4559 21.8244C70.4559 21.383 70.098 21.0251 69.6566 21.0251C69.2152 21.0251 68.8574 21.383 68.8574 21.8244V22.7919C68.8574 23.2333 69.2152 23.5911 69.6566 23.5911C70.098 23.5911 70.4559 23.2333 70.4559 22.7919V21.8244Z" fill="#81584A"/>
<path d="M68.6369 31.3045C68.6369 30.5489 68.0243 29.9363 67.2686 29.9363C66.513 29.9363 65.9004 30.5489 65.9004 31.3045V32.5538C65.9004 33.3094 66.513 33.922 67.2686 33.922C68.0243 33.922 68.6369 33.3094 68.6369 32.5538V31.3045Z" fill="#906253"/>
<path d="M60.9536 22.222L55.2683 21.4324C54.652 21.3467 54.1685 21.5994 54.1885 21.9966C54.2085 22.3938 54.7244 22.7852 55.3407 22.8708L61.026 23.6605C61.6423 23.7461 62.1258 23.4935 62.1058 23.0963C62.0858 22.699 61.5699 22.3076 60.9536 22.222Z" fill="#4D4D4D"/>
<path d="M55.3981 22.6272C55.3844 22.2917 55.0808 21.966 54.7199 21.8996C54.359 21.8333 54.0774 22.0515 54.0911 22.387L54.1476 23.7782C54.1612 24.1137 54.4648 24.4395 54.8257 24.5058C55.1866 24.5721 55.4682 24.3539 55.4546 24.0184L55.3981 22.6272Z" fill="#4D4D4D"/>
<path d="M72.8337 21.9346L78.3817 21.4115C78.9831 21.3548 79.4164 21.6953 79.3493 22.1721C79.2823 22.6488 78.7404 23.0812 78.1389 23.1379L72.591 23.661C71.9895 23.7177 71.5563 23.3772 71.6233 22.9004C71.6903 22.4237 72.2323 21.9913 72.8337 21.9346Z" fill="#4D4D4D"/>
<path d="M78.3257 22.7674C78.3611 22.4201 78.6379 22.1082 78.944 22.0709C79.25 22.0335 79.4693 22.2847 79.4339 22.6321L79.2869 24.0724C79.2514 24.4197 78.9746 24.7316 78.6686 24.769C78.3626 24.8064 78.1433 24.5551 78.1787 24.2078L78.3257 22.7674Z" fill="#4D4D4D"/>
<path d="M86.3545 19.3204C86.2854 19.3144 86.2154 19.3142 86.1448 19.3211C86.0642 19.3289 85.9825 19.3455 85.9018 19.3713L85.7358 19.424C85.1985 19.5953 84.8619 20.1215 84.8741 20.6881C84.8219 20.6088 84.7596 20.5397 84.6935 20.4758V22.2313C87.0205 23.2549 88.6492 25.6845 88.6492 28.5334C88.6492 31.3975 87.0028 33.8371 84.656 34.8511C84.589 35.874 84.4186 36.8651 84.1615 37.8166V38.7982C84.1019 38.6971 84.0309 38.6047 83.9524 38.5203C82.7822 42.133 80.296 45.0822 77.0936 46.7285V48.9311C77.0936 49.8169 77.7655 50.5296 78.6 50.5296H79.295C80.1295 50.5296 80.8015 49.8169 80.8015 48.9311V48.5007C81.0277 49.0793 81.5634 49.4843 82.1921 49.4843H82.8872C83.7216 49.4843 84.3936 48.771 84.3936 47.8851V47.3789C84.6593 47.8301 85.1277 48.1315 85.6679 48.1315C86.5024 48.1315 87.1743 47.4182 87.1743 46.5323V37.5502L87.484 38.6445C87.6779 39.3297 88.354 39.7161 88.9995 39.5103C89.645 39.3045 90.0084 38.5867 89.8145 37.9015L88.162 32.0618C88.4665 32.4251 88.9497 32.5909 89.4188 32.4414L89.5854 32.388C90.2309 32.1821 90.5944 31.465 90.4005 30.7798L87.4173 20.2365C87.2689 19.7118 86.838 19.3629 86.3545 19.3205V19.3204ZM47.1919 19.4073C46.7084 19.4498 46.2775 19.7987 46.129 20.3233L43.1459 30.8666C42.952 31.5518 43.3154 32.269 43.9609 32.4748L44.1275 32.5282C44.5967 32.6778 45.0798 32.5119 45.3843 32.1486L43.7319 37.9883C43.538 38.6736 43.9014 39.3913 44.5469 39.5971C45.1924 39.803 45.8685 39.4172 46.0624 38.7319L46.1248 38.5113V46.5323C46.1248 47.4181 46.7961 48.1315 47.6306 48.1315C48.1709 48.1315 48.6398 47.8301 48.9055 47.3788V47.8851C48.9055 48.771 49.5769 49.4843 50.4114 49.4843H51.107C51.7351 49.4843 52.2704 49.0802 52.4971 48.5026V48.9311C52.4971 49.8169 53.169 50.5296 54.0035 50.5296H54.6985C55.533 50.5296 56.2049 49.8169 56.2049 48.9311V46.6706C53.0319 45.0007 50.5764 42.0456 49.4309 38.4373C49.3175 38.542 49.2171 38.6621 49.137 38.7982V37.3798C48.9424 36.5626 48.8108 35.7183 48.7541 34.851C46.4073 33.8371 44.7608 31.3975 44.7608 28.5334C44.7608 25.6845 46.3895 23.2549 48.7165 22.2313V20.7176C48.7021 20.737 48.6857 20.7545 48.6722 20.7749C48.6842 20.2086 48.3476 19.6821 47.8106 19.5108L47.6445 19.4581C47.5639 19.4324 47.4822 19.4157 47.4015 19.4079C47.331 19.4011 47.261 19.4012 47.1919 19.4073V19.4073Z" fill="#4D4D4D"/>
<path d="M52.3403 7.50806C49.7374 10.0779 48.1074 13.7917 48.1074 17.9356V34.6048C48.1074 42.3975 53.8715 48.6713 61.0312 48.6713H72.374C79.5337 48.6713 85.2978 42.3975 85.2978 34.6048V17.9356C85.2978 13.7917 83.6678 10.0779 81.065 7.50806C83.0483 10.0144 84.2476 13.2788 84.2476 16.8613V33.8341C84.2476 41.7689 78.3788 48.1567 71.0886 48.1567H62.3173C55.0271 48.1567 49.1577 41.7689 49.1577 33.8341V16.8613C49.1577 13.2788 50.357 10.0144 52.3403 7.50806Z" fill="#565656"/>
<path d="M59.9284 48.5102C59.9284 47.7657 59.3738 47.1621 58.6898 47.1621C58.0057 47.1621 57.4512 47.7657 57.4512 48.5102V50.0758C57.4512 50.8203 58.0057 51.4239 58.6898 51.4239C59.3738 51.4239 59.9284 50.8203 59.9284 50.0758V48.5102Z" fill="#565656"/>
<path d="M62.2448 49.7382C62.2448 48.9937 61.6902 48.3901 61.0062 48.3901C60.3221 48.3901 59.7676 48.9937 59.7676 49.7382V51.3038C59.7676 52.0483 60.3221 52.6519 61.0062 52.6519C61.6902 52.6519 62.2448 52.0483 62.2448 51.3038V49.7382Z" fill="#565656"/>
<path d="M64.5338 50.4162C64.5338 49.6717 63.9793 49.0681 63.2952 49.0681C62.6112 49.0681 62.0566 49.6717 62.0566 50.4162V51.9818C62.0566 52.7263 62.6112 53.3299 63.2952 53.3299C63.9793 53.3299 64.5338 52.7263 64.5338 51.9818V50.4162Z" fill="#565656"/>
<path d="M66.7936 50.5698C66.7936 49.8252 66.239 49.2217 65.555 49.2217C64.8709 49.2217 64.3164 49.8252 64.3164 50.5698V52.1353C64.3164 52.8799 64.8709 53.4834 65.555 53.4834C66.239 53.4834 66.7936 52.8799 66.7936 52.1353V50.5698Z" fill="#565656"/>
<path d="M57.8434 45.8073C57.8434 44.9186 57.1815 44.1982 56.365 44.1982C55.5486 44.1982 54.8867 44.9186 54.8867 45.8073V47.6758C54.8867 48.5645 55.5486 49.2849 56.365 49.2849C57.1815 49.2849 57.8434 48.5645 57.8434 47.6758V45.8073Z" fill="#565656"/>
<path d="M55.2848 44.1564C55.2848 43.2678 54.6229 42.5474 53.8064 42.5474C52.99 42.5474 52.3281 43.2678 52.3281 44.1564V46.0249C52.3281 46.9136 52.99 47.634 53.8064 47.634C54.6229 47.634 55.2848 46.9136 55.2848 46.0249V44.1564Z" fill="#565656"/>
<path d="M53.1285 42.1554C53.1285 41.2668 52.4666 40.5464 51.6502 40.5464C50.8337 40.5464 50.1719 41.2668 50.1719 42.1554V44.024C50.1719 44.9126 50.8337 45.633 51.6502 45.633C52.4666 45.633 53.1285 44.9126 53.1285 44.024V42.1554Z" fill="#565656"/>
<path d="M73.472 48.5102C73.472 47.7657 74.0266 47.1621 74.7106 47.1621C75.3947 47.1621 75.9492 47.7657 75.9492 48.5102V50.0758C75.9492 50.8203 75.3947 51.4239 74.7106 51.4239C74.0266 51.4239 73.472 50.8203 73.472 50.0758V48.5102Z" fill="#565656"/>
<path d="M71.1537 49.7382C71.1537 48.9937 71.7082 48.3901 72.3923 48.3901C73.0763 48.3901 73.6309 48.9937 73.6309 49.7382V51.3038C73.6309 52.0483 73.0763 52.6519 72.3923 52.6519C71.7082 52.6519 71.1537 52.0483 71.1537 51.3038V49.7382Z" fill="#565656"/>
<path d="M68.8646 50.4167C68.8646 49.6722 69.4192 49.0686 70.1032 49.0686C70.7873 49.0686 71.3418 49.6722 71.3418 50.4167V51.9822C71.3418 52.7268 70.7873 53.3304 70.1032 53.3304C69.4192 53.3304 68.8646 52.7268 68.8646 51.9822V50.4167Z" fill="#565656"/>
<path d="M66.6049 50.5698C66.6049 49.8252 67.1594 49.2217 67.8434 49.2217C68.5275 49.2217 69.082 49.8252 69.082 50.5698V52.1353C69.082 52.8799 68.5275 53.4834 67.8434 53.4834C67.1594 53.4834 66.6049 52.8799 66.6049 52.1353V50.5698Z" fill="#565656"/>
<path d="M75.5551 45.8075C75.5551 44.9189 76.2169 44.1985 77.0334 44.1985C77.8499 44.1985 78.5117 44.9189 78.5117 45.8075V47.6761C78.5117 48.5647 77.8499 49.2851 77.0334 49.2851C76.2169 49.2851 75.5551 48.5647 75.5551 47.6761V45.8075Z" fill="#565656"/>
<path d="M78.1137 44.1571C78.1137 43.2685 78.7755 42.5481 79.592 42.5481C80.4084 42.5481 81.0703 43.2685 81.0703 44.1571V46.0257C81.0703 46.9143 80.4084 47.6347 79.592 47.6347C78.7755 47.6347 78.1137 46.9143 78.1137 46.0257V44.1571Z" fill="#565656"/>
<path d="M80.2699 42.1554C80.2699 41.2668 80.9318 40.5464 81.7482 40.5464C82.5647 40.5464 83.2266 41.2668 83.2266 42.1554V44.024C83.2266 44.9126 82.5647 45.633 81.7482 45.633C80.9318 45.633 80.2699 44.9126 80.2699 44.024V42.1554Z" fill="#565656"/>
<path d="M61.1056 32.645C58.2153 32.645 55.8887 35.1774 55.8887 38.3232V44.9657C55.8887 48.1115 58.2153 50.6439 61.1056 50.6439H72.2995C75.1897 50.6439 77.5164 48.1115 77.5164 44.9657V38.3232C77.5164 35.1774 75.1897 32.645 72.2995 32.645H71.2043C71.2428 32.9911 71.1261 33.3503 70.8627 33.5939L70.42 34.003C70.6826 34.2709 70.8777 34.6165 70.9626 35.0123H72.4809C74.097 35.0123 75.3976 36.4278 75.3976 38.1868V41.043C75.3976 41.7104 75.2101 42.3277 74.8893 42.8377V43.6212C74.8893 46.1323 73.0321 48.1538 70.725 48.1538H62.6801C60.373 48.1538 58.5157 46.1323 58.5157 43.6212V42.8377C58.195 42.3277 58.0075 41.7104 58.0075 41.043V38.1868C58.0075 36.4278 59.308 35.0123 60.9241 35.0123H61.8792C61.9934 34.4796 62.3019 34.0331 62.7167 33.7553L62.5424 33.5939C62.279 33.3503 62.1623 32.9911 62.2007 32.645H61.1056Z" fill="#565656"/>
<path d="M58.6631 1.75146C51.8493 1.75146 46.3633 7.57465 46.3633 14.808C46.3633 15.1478 46.3795 15.483 46.4033 15.8161C46.3797 15.9864 46.3633 16.1595 46.3633 16.3371V24.3356C46.3633 26.052 47.5067 27.4741 49.0319 27.7958V17.358C49.0319 9.88615 54.6987 3.87042 61.7371 3.87042H71.6773C78.7157 3.87042 84.3824 9.88615 84.3824 17.358V27.8099C85.9513 27.5252 87.1395 26.0847 87.1395 24.3356V16.3371C87.1395 16.1595 87.1231 15.9864 87.0995 15.8161C87.1233 15.483 87.1395 15.1478 87.1395 14.808C87.1395 7.57465 81.6541 1.75146 74.8404 1.75146H58.6631Z" fill="#4D4D4D"/>
<path d="M72.6188 0.105225H61.5383C57.8054 0.105225 54.7793 3.31771 54.7793 7.28051C54.7793 11.2433 57.8054 14.4558 61.5383 14.4558H72.6188C76.3517 14.4558 79.3778 11.2433 79.3778 7.28051C79.3778 3.31771 76.3517 0.105225 72.6188 0.105225Z" fill="#4D4D4D"/>
<path d="M58.5474 4.6636C58.5474 3.54297 57.6916 2.63452 56.636 2.63452C55.5804 2.63452 54.7246 3.54297 54.7246 4.6636V9.3687C54.7246 10.4893 55.5804 11.3978 56.636 11.3978C57.6916 11.3978 58.5474 10.4893 58.5474 9.3687V4.6636Z" fill="#4D4D4D"/>
<path d="M80.2642 4.84035C80.2642 3.71973 79.4084 2.81128 78.3528 2.81128C77.2972 2.81128 76.4414 3.71973 76.4414 4.84035V9.54546C76.4414 10.6661 77.2972 11.5745 78.3528 11.5745C79.4084 11.5745 80.2642 10.6661 80.2642 9.54546V4.84035Z" fill="#4D4D4D"/>
<path d="M53.9968 6.98259C53.8967 6.24309 53.2509 5.72973 52.5543 5.83597C51.8577 5.9422 51.3741 6.6278 51.4742 7.36729L51.7972 9.75415C51.8972 10.4936 52.5431 11.007 53.2397 10.9008C53.9363 10.7945 54.4198 10.1089 54.3198 9.36945L53.9968 6.98259Z" fill="#4D4D4D"/>
<path d="M81.0208 7.56438C81.1209 6.82488 81.7667 6.31152 82.4633 6.41776C83.1599 6.52399 83.6435 7.20959 83.5434 7.94908L83.2204 10.3359C83.1203 11.0754 82.4745 11.5888 81.7779 11.4826C81.0813 11.3763 80.5978 10.6907 80.6978 9.95124L81.0208 7.56438Z" fill="#4D4D4D"/>
<path d="M65.7494 3.6687H66.9426C67.6463 3.6687 68.2168 4.27433 68.2168 5.02142V9.96178C68.2168 10.7089 67.6463 11.3145 66.9426 11.3145H65.7494C65.0457 11.3145 64.4752 10.7089 64.4752 9.96178V5.02142C64.4752 4.27433 65.0457 3.6687 65.7494 3.6687Z" fill="#565656"/>
<path d="M60.6015 3.81494H62.1766C62.7274 3.81494 63.1738 4.28892 63.1738 4.87359V10.108C63.1738 10.6927 62.7274 11.1667 62.1766 11.1667H60.6015C60.0507 11.1667 59.6043 10.6927 59.6043 10.108V4.87359C59.6043 4.28892 60.0507 3.81494 60.6015 3.81494Z" fill="#565656"/>
<path d="M72.0899 3.81494H70.5148C69.9641 3.81494 69.5176 4.28892 69.5176 4.87359V10.108C69.5176 10.6927 69.9641 11.1667 70.5148 11.1667H72.0899C72.6407 11.1667 73.0872 10.6927 73.0872 10.108V4.87359C73.0872 4.28892 72.6407 3.81494 72.0899 3.81494Z" fill="#565656"/>
<path d="M256.361 75.6853C257.211 73.907 257.585 73.9632 258.771 74.1445C259.361 74.2348 259.927 74.3789 260.424 74.6054C260.921 74.8318 261.522 75.0372 262.122 74.7712C264.122 73.8854 265.65 70.2525 264.054 74.1105C263.518 75.287 263.245 76.4861 263.248 77.6491L263.288 90.795L260.609 112.227C260.39 113.98 258.406 115.565 256.165 115.778L254.701 115.894C253.135 116.017 251.614 115.914 250.213 115.591L248.522 115.2C248.338 115.158 248.139 115.142 247.934 115.154C246.457 115.242 245.832 113.97 246.864 112.976L249.249 110.679C250.033 109.924 250.384 108.992 250.195 108.167L248.575 101.079C248.281 99.7896 248.195 98.4434 248.319 97.0692L248.938 90.2598L250.385 83.9909C250.776 82.2997 251.884 80.6431 253.526 79.2993C254.81 78.2471 255.736 76.9915 256.361 75.6853Z" fill="#9D6B5A"/>
<path d="M298.997 173.921H300.546C304.334 173.921 307.405 177.138 307.405 181.107L307.405 200.078L307.405 213.602L308.777 227.462C308.777 230.491 305.973 232.946 302.513 232.946H301.053C297.593 232.946 294.788 230.491 294.788 227.462V206.848C294.788 205.519 294.463 204.212 293.843 203.052C293.222 201.892 292.896 200.585 292.896 199.256V196.421C292.896 194.899 293.075 193.382 293.427 191.905L293.44 191.852C293.8 190.34 293.983 188.787 293.983 187.228V179.175C293.983 178.869 294.009 178.565 294.059 178.264C294.481 175.752 296.564 173.921 298.997 173.921Z" fill="#906253"/>
<path d="M301.068 123.381H305.02C307.244 123.381 309.239 124.813 310.044 126.985C310.199 127.403 310.305 127.84 310.362 128.286L313.281 151.368V161.386C313.281 162.685 313.178 163.983 312.973 165.265L312.302 169.445C311.917 171.845 311.129 174.154 309.973 176.265L308.014 179.845C307.594 180.613 307.373 181.482 307.373 182.367C307.373 185.168 305.206 187.438 302.534 187.438H299.191C296.328 187.438 294.006 185.005 294.006 182.004C294.006 181.351 293.893 180.703 293.674 180.092L292.971 178.134C292.668 177.29 292.43 176.422 292.259 175.539L291.19 170.022L290.163 162.99C289.993 161.818 289.906 160.635 289.906 159.449V135.077C289.906 128.617 294.904 123.381 301.068 123.381Z" fill="#81584A"/>
<path d="M299.44 221.619H305.323C308.714 221.619 311.464 224.154 311.464 227.282C311.464 230.41 308.714 232.945 305.323 232.945H299.44C296.049 232.945 293.299 230.41 293.299 227.282C293.299 224.154 296.049 221.619 299.44 221.619Z" fill="#9D6B5A"/>
<path d="M295.332 223.95H309.431C310.553 223.95 311.464 225.168 311.464 226.67V230.226C311.464 231.728 310.553 232.945 309.431 232.945H295.332C294.21 232.945 293.299 231.728 293.299 230.226V226.67C293.299 225.168 294.21 223.95 295.332 223.95Z" fill="#9D6B5A"/>
<path d="M276.973 173.92H275.425C271.637 173.92 268.565 177.138 268.565 181.107V200.079V213.601L267.193 227.462C267.193 230.49 269.998 232.946 273.457 232.946H274.918C278.377 232.946 281.182 230.49 281.182 227.462V206.847C281.182 205.518 281.507 204.211 282.128 203.052C282.748 201.892 283.074 200.585 283.074 199.255V196.42C283.074 194.898 282.896 193.382 282.544 191.905L282.531 191.851C282.17 190.34 281.988 188.787 281.988 187.228V179.174C281.988 178.868 281.962 178.564 281.912 178.263C281.49 175.752 279.407 173.92 276.973 173.92Z" fill="#906253"/>
<path d="M275.877 123.381H269.733C267.501 123.381 265.692 125.276 265.692 127.615L262.688 151.368V161.385C262.688 162.685 262.79 163.983 262.996 165.265L263.666 169.445C264.052 171.845 264.84 174.154 265.995 176.265L267.955 179.844C268.375 180.612 268.596 181.482 268.596 182.367C268.596 185.167 270.763 187.438 273.435 187.438H276.778C279.641 187.438 281.963 185.005 281.963 182.005C281.963 181.351 282.075 180.703 282.294 180.091L282.998 178.133C283.301 177.29 283.539 176.421 283.71 175.538L284.778 170.021L285.806 162.99C285.976 161.818 286.063 160.634 286.063 159.449V134.053C286.063 128.159 281.502 123.381 275.877 123.381Z" fill="#81584A"/>
<path d="M276.529 221.618H270.647C267.256 221.618 264.506 224.153 264.506 227.281C264.506 230.409 267.256 232.945 270.647 232.945H276.529C279.921 232.945 282.67 230.409 282.67 227.281C282.67 224.153 279.921 221.618 276.529 221.618Z" fill="#9D6B5A"/>
<path d="M280.637 223.949H266.539C265.416 223.949 264.506 225.167 264.506 226.669V230.225C264.506 231.727 265.416 232.945 266.539 232.945H280.637C281.76 232.945 282.67 231.727 282.67 230.225V226.669C282.67 225.167 281.76 223.949 280.637 223.949Z" fill="#9D6B5A"/>
<path d="M287.443 58.9487C288.344 58.9487 289.241 59.0036 290.13 59.1105C300.855 60.3997 310.414 69.228 310.414 79.9949L308.73 91.5226L305.445 111.368C305.445 123.028 299.205 124.748 287.443 124.748C275.682 124.748 270.176 123.028 270.176 111.368L266.213 91.5226V79.9949C266.213 68.3352 275.682 58.9487 287.443 58.9487Z" fill="#815848" fill-opacity="0.99"/>
<path d="M287.413 106.15H288.138C300.139 106.15 304.034 99.6454 306.004 108.461L309.801 126.152C311.769 134.96 300.139 142.27 288.138 142.27H287.413C275.412 142.27 263.782 134.96 265.75 126.152L269.946 108.461C271.916 99.6454 275.412 106.15 287.413 106.15Z" fill="#815848"/>
<path d="M287.387 98.1699C296.037 98.1699 303.001 107.98 303.001 120.165H271.773C271.773 107.98 278.737 98.1699 287.387 98.1699Z" fill="#8E6051"/>
<path d="M314.464 75.5992C318.13 74.8563 322.543 76.4134 323.35 80.7886L325.858 88.6892C326.63 91.1221 326.912 93.6975 326.687 96.2506L326.011 103.91C325.857 105.657 326.044 107.418 326.021 109.173C325.981 112.246 324.644 114.5 321.752 115.086C318.594 115.726 316.497 114.079 315.461 110.814C315.109 109.706 314.834 108.568 314.421 107.483L312.545 102.558C311.513 99.8487 311.106 96.9223 311.355 94.0166L311.743 89.5115C311.843 88.3389 311.831 87.161 311.781 85.9854C311.643 82.7532 311.706 76.1581 314.464 75.5992Z" fill="#9D6B5A"/>
<path d="M320.204 100.605L320.251 100.603C323.256 100.506 325.861 104.001 326.071 108.409L327.645 141.51C327.854 145.919 325.589 149.571 322.584 149.669L322.538 149.67C319.533 149.767 316.928 146.272 316.718 141.864L315.144 108.762C314.934 104.354 317.2 100.701 320.204 100.605Z" fill="#9D6B5A"/>
<path d="M320.27 134.71L322.159 134.699C325.778 134.679 328.882 138.793 329.093 143.889L329.28 148.416C329.491 153.512 326.728 157.66 323.109 157.68L321.222 157.691C317.603 157.711 314.499 153.596 314.288 148.5L314.1 143.973C313.89 138.877 316.652 134.73 320.27 134.71Z" fill="#906253"/>
<path d="M319.805 147.587C320.592 144.346 323.368 142.705 326.004 143.921C328.64 145.137 330.14 148.751 329.353 151.992L327.203 160.843C326.416 164.083 323.64 165.724 321.003 164.508C318.366 163.291 316.867 159.678 317.654 156.437L319.805 147.587Z" fill="#906253"/>
<path d="M313.632 145.856C313.543 143.597 314.752 141.758 316.332 141.747C317.912 141.737 319.265 143.561 319.354 145.82L319.597 151.99C319.686 154.249 318.477 156.089 316.897 156.099C315.317 156.109 313.964 154.286 313.875 152.027L313.632 145.856Z" fill="#9D6B5A"/>
<path d="M260.219 65.4424H314.954C320.378 65.4424 324.745 69.7063 324.745 75.0032C324.745 80.3002 320.378 84.5641 314.954 84.5641H260.219C254.795 84.5641 250.428 80.3002 250.428 75.0032C250.428 69.7063 254.795 65.4424 260.219 65.4424Z" fill="#906253"/>
<path d="M279.003 64.3081H296.07C305.608 64.3081 313.284 71.6498 313.284 80.7698C313.284 89.8891 305.608 97.2308 296.07 97.2308H279.003C269.467 97.2308 261.789 89.8891 261.789 80.7698C261.789 71.6498 269.467 64.3081 279.003 64.3081Z" fill="#9D6B5A"/>
<path d="M287.988 84.564C290.208 84.564 291.996 86.438 291.996 88.7647V92.6605C291.996 94.988 290.208 96.8613 287.988 96.8613C285.766 96.8613 283.979 94.988 283.979 92.6605V88.7647C283.979 86.438 285.766 84.564 287.988 84.564Z" fill="#815848" fill-opacity="0.99"/>
<path d="M277.865 80.1562C276.804 80.1562 275.821 80.4442 275.002 80.9378C272.279 81.0981 269.727 82.1743 267.863 83.9473C265.999 85.7204 264.961 88.0583 264.961 90.4875C264.961 93.0258 266.094 95.4609 268.11 97.2555C270.126 99.0509 272.861 100.059 275.713 100.059C278.31 100.057 280.818 99.2164 282.775 97.6949C284.731 96.1734 286.002 94.073 286.353 91.7811C286.426 91.4672 286.465 91.1414 286.465 90.8074V84.8587C286.465 82.2537 284.154 80.1562 281.285 80.1562H277.865ZM293.79 80.1562C290.921 80.1562 288.61 82.2537 288.61 84.8587V90.8074C288.61 91.1414 288.649 91.4672 288.721 91.7811C289.073 94.073 290.344 96.1734 292.3 97.6949C294.256 99.2164 296.765 100.057 299.362 100.059C302.214 100.059 304.948 99.0509 306.965 97.2555C308.981 95.4609 310.114 93.0258 310.114 90.4875C310.113 88.0583 309.076 85.7204 307.211 83.9473C305.347 82.1743 302.795 81.0981 300.073 80.9378C299.254 80.4442 298.271 80.1562 297.209 80.1562H293.79Z" fill="#9D6B5A"/>
<path d="M267.922 85.3205C266.694 84.853 265.361 87.6436 264.214 88.103C264.112 88.6975 264.058 89.2994 264.053 89.9028C264.053 96.0704 269.059 101.07 275.235 101.07C278.357 101.062 281.334 99.7509 283.445 97.4523C283.334 91.8585 278.532 89.3543 273.361 87.3883L267.922 85.3205ZM301.396 87.3883C296.33 89.315 291.6 91.6789 291.319 97.1132C293.438 99.6151 296.548 101.062 299.829 101.07C306.004 101.07 311.01 96.0704 311.01 89.9028C311.005 89.3462 310.959 88.791 310.871 88.241C309.636 87.6933 308.18 84.8077 306.833 85.3205L301.396 87.3883Z" fill="#444444"/>
<path d="M283.154 95.167H292.373C292.935 95.167 293.388 95.6271 293.388 96.2001C293.388 96.7723 292.935 97.2325 292.373 97.2325H283.154C282.591 97.2325 282.139 96.7723 282.139 96.2001C282.139 95.6271 282.591 95.167 283.154 95.167Z" fill="#444444"/>
<path d="M306.889 85.2618C306.804 85.2684 306.721 85.287 306.637 85.3189L301.255 87.3644C297.007 88.9794 292.999 90.9054 291.704 94.7254C293.781 96.9104 296.669 98.1625 299.705 98.1699C305.331 98.1699 309.973 93.9788 310.677 88.5541C310.662 88.4391 310.653 88.3225 310.634 88.2082C309.488 87.6998 308.15 85.1601 306.889 85.2618ZM267.895 85.2692C266.744 85.1935 265.517 87.6449 264.452 88.0717C264.427 88.2216 264.405 88.3715 264.385 88.5222C265.074 93.9624 269.724 98.1699 275.36 98.1699C278.275 98.1625 281.06 97.0084 283.121 94.9711C281.903 91.036 277.836 89.0098 273.506 87.3644L268.123 85.3189C268.048 85.29 267.971 85.2744 267.895 85.2692Z" fill="#4F4F4F"/>
<path d="M284.112 101.812H281.442C280.223 101.812 279.234 102.575 279.234 103.514V105.486C279.234 106.426 280.223 107.188 281.442 107.188H284.112C285.331 107.188 286.32 106.426 286.32 105.486V103.514C286.32 102.575 285.331 101.812 284.112 101.812Z" fill="#9D6B5A"/>
<path d="M284.112 107.767H280.046C278.826 107.767 277.838 108.529 277.838 109.47V111.44C277.838 112.381 278.826 113.143 280.046 113.143H284.112C285.332 113.143 286.32 112.381 286.32 111.44V109.47C286.32 108.529 285.332 107.767 284.112 107.767Z" fill="#9D6B5A"/>
<path d="M284.112 113.597H280.046C278.826 113.597 277.838 114.358 277.838 115.299V117.27C277.838 118.21 278.826 118.973 280.046 118.973H284.112C285.332 118.973 286.32 118.21 286.32 117.27V115.299C286.32 114.358 285.332 113.597 284.112 113.597Z" fill="#9D6B5A"/>
<path d="M290.645 101.812H293.315C294.534 101.812 295.523 102.575 295.523 103.514V105.486C295.523 106.426 294.534 107.188 293.315 107.188H290.645C289.426 107.188 288.438 106.426 288.438 105.486V103.514C288.438 102.575 289.426 101.812 290.645 101.812Z" fill="#9D6B5A"/>
<path d="M290.645 107.767H294.713C295.932 107.767 296.921 108.529 296.921 109.47V111.44C296.921 112.381 295.932 113.143 294.713 113.143H290.645C289.426 113.143 288.438 112.381 288.438 111.44V109.47C288.438 108.529 289.426 107.767 290.645 107.767Z" fill="#9D6B5A"/>
<path d="M290.645 113.597H294.713C295.932 113.597 296.921 114.358 296.921 115.299V117.27C296.921 118.21 295.932 118.973 294.713 118.973H290.645C289.426 118.973 288.438 118.21 288.438 117.27V115.299C288.438 114.358 289.426 113.597 290.645 113.597Z" fill="#9D6B5A"/>
<path d="M287.68 37.2749C293.723 37.2749 298.589 44.5966 298.589 53.6921V60.4274C298.589 69.5229 293.723 76.8454 287.68 76.8454C281.637 76.8454 276.771 69.5229 276.771 60.4274V53.6921C276.771 44.5966 281.637 37.2749 287.68 37.2749Z" fill="#9D6B5A"/>
<path d="M286.037 38.5046H289.323C293.107 38.5046 296.153 42.7633 296.153 48.0536V51.9709C296.153 57.2612 293.107 61.5199 289.323 61.5199H286.037C282.253 61.5199 279.207 57.2612 279.207 51.9709V48.0536C279.207 42.7633 282.253 38.5046 286.037 38.5046Z" fill="#815848"/>
<path d="M275.637 65.9893C274.94 65.9893 274.379 66.5504 274.379 67.2473C274.379 67.9442 274.94 68.5045 275.637 68.5045H282.631L284.639 69.9681C285.204 70.38 285.99 70.2568 286.402 69.692C286.814 69.1272 286.69 68.3412 286.126 67.9293L284.047 66.4138C284.025 66.3982 284.001 66.3893 283.979 66.3752C283.751 66.1377 283.431 65.9893 283.074 65.9893H275.637ZM291.995 65.9893C291.638 65.9893 291.318 66.1377 291.09 66.3752C291.068 66.3893 291.044 66.3982 291.022 66.4138L288.944 67.9293C288.379 68.3412 288.256 69.1272 288.667 69.692C289.079 70.2568 289.865 70.38 290.429 69.9681L292.438 68.5045H299.432C300.129 68.5045 300.69 67.9442 300.69 67.2473C300.69 66.5504 300.129 65.9893 299.432 65.9893H291.995Z" fill="#815747"/>
<path d="M270.968 29.5562H305.072C308.983 29.5562 312.132 32.7053 312.132 36.6166C312.132 40.5279 308.983 43.6763 305.072 43.6763H270.968C267.057 43.6763 263.908 40.5279 263.908 36.6166C263.908 32.7053 267.057 29.5562 270.968 29.5562Z" fill="#8E6051"/>
<path d="M271.216 31.3516H304.823C307.74 31.3516 310.088 33.6998 310.088 36.6166C310.088 39.5334 307.74 41.8817 304.823 41.8817H271.216C268.299 41.8817 265.951 39.5334 265.951 36.6166C265.951 33.6998 268.299 31.3516 271.216 31.3516Z" fill="#815848"/>
<path d="M284.189 9.7124H291.855C298.226 9.7124 308.304 18.7084 308.304 27.5553V40.1079C308.304 48.9548 298.859 58.6374 292.092 58.6374H283.952C277.185 58.6374 267.74 48.9548 267.74 40.1079V27.5553C267.74 18.7084 277.817 9.7124 284.189 9.7124Z" fill="#9D6B5A"/>
<path d="M286.296 53.8711H288.504C288.681 53.8711 288.824 53.9958 288.824 54.1502V54.3149C288.824 54.4693 288.681 54.594 288.504 54.594H286.296C286.119 54.594 285.977 54.4693 285.977 54.3149V54.1502C285.977 53.9958 286.119 53.8711 286.296 53.8711Z" fill="#815848"/>
<path d="M288.017 33.9941C289.37 33.9941 290.459 35.146 290.459 36.5762V41.134C290.459 42.5642 289.37 43.716 288.017 43.716C286.664 43.716 285.574 42.5642 285.574 41.134V36.5762C285.574 35.146 286.664 33.9941 288.017 33.9941Z" fill="#8E6051"/>
<path d="M292.089 40.7873C292.089 41.9273 291.124 42.8439 289.926 42.8439H286.111C284.913 42.8439 283.949 41.9273 283.949 40.7873C283.949 39.648 284.913 38.7314 286.111 38.7314H289.926C291.124 38.7314 292.089 39.648 292.089 40.7873Z" fill="#8E6051"/>
<path d="M281.864 45.8071C281.58 45.8071 281.309 45.8984 281.108 46.0602C280.907 46.222 280.795 46.4424 280.795 46.6718V47.3227C280.795 48.6074 281.252 49.7845 282.06 50.6818C282.869 51.5799 284.092 52.2152 285.491 52.2152H290.454C291.854 52.2152 293.077 51.5799 293.886 50.6818C294.695 49.7845 295.152 48.6074 295.152 47.3227V46.6718C295.152 46.4424 295.039 46.222 294.839 46.0602C294.638 45.8984 294.366 45.8071 294.082 45.8071H281.864Z" fill="white"/>
<path d="M275.968 28.3998L282.838 28.9602C283.585 29.0211 284.138 29.672 284.077 30.4186C284.016 31.166 283.365 31.7182 282.618 31.6573L275.747 31.097C275.001 31.0361 274.448 30.3859 274.508 29.6386C274.569 28.8912 275.22 28.339 275.968 28.3998Z" fill="#4D4D4D"/>
<path d="M273.641 29.6179L274.993 28.7205C275.541 28.3569 276.274 28.5053 276.639 29.0531C277.002 29.6015 276.854 30.3355 276.306 30.6992L274.954 31.5965C274.406 31.9602 273.672 31.8118 273.309 31.264C272.945 30.7155 273.093 29.9815 273.641 29.6179Z" fill="#4D4D4D"/>
<path d="M300.075 28.3998L293.204 28.9602C292.457 29.0211 291.905 29.672 291.966 30.4186C292.026 31.166 292.677 31.7182 293.424 31.6573L300.295 31.097C301.042 31.0361 301.595 30.3859 301.534 29.6386C301.472 28.8912 300.822 28.339 300.075 28.3998Z" fill="#4D4D4D"/>
<path d="M302.4 29.6179L301.048 28.7205C300.5 28.3569 299.766 28.5053 299.402 29.0531C299.039 29.6015 299.187 30.3355 299.735 30.6992L301.087 31.5965C301.635 31.9602 302.369 31.8118 302.732 31.264C303.096 30.7155 302.948 29.9815 302.4 29.6179Z" fill="#4D4D4D"/>
<path d="M275.968 28.3998L282.838 28.9602C283.585 29.0211 284.138 29.672 284.077 30.4186C284.016 31.166 283.365 31.7182 282.618 31.6573L275.747 31.097C275.001 31.0361 274.448 30.3859 274.508 29.6386C274.569 28.8912 275.22 28.339 275.968 28.3998Z" fill="#4D4D4D"/>
<path d="M300.075 28.3998L293.204 28.9602C292.457 29.0211 291.905 29.672 291.966 30.4186C292.026 31.166 292.677 31.7182 293.424 31.6573L300.295 31.097C301.042 31.0361 301.595 30.3859 301.534 29.6386C301.472 28.8912 300.822 28.339 300.075 28.3998Z" fill="#4D4D4D"/>
<path d="M278.245 33.4844H279.144C279.96 33.4844 280.617 34.142 280.617 34.9576V37.032C280.617 37.8477 279.96 38.5045 279.144 38.5045H278.245C277.428 38.5045 276.771 37.8477 276.771 37.032V34.9576C276.771 34.142 277.428 33.4844 278.245 33.4844Z" fill="#61534B"/>
<path d="M295.888 33.4844H294.989C294.172 33.4844 293.516 34.142 293.516 34.9576V37.032C293.516 37.8477 294.172 38.5045 294.989 38.5045H295.888C296.704 38.5045 297.361 37.8477 297.361 37.032V34.9576C297.361 34.142 296.704 33.4844 295.888 33.4844Z" fill="#61534B"/>
<path d="M284.778 7.67749C273.698 7.67749 264.777 16.5971 264.777 27.6779C264.777 31.8839 266.065 35.7767 268.266 38.9911V30.4908C268.266 27.3217 269.844 24.1318 272.132 21.4451L280.812 21.4302C284.308 21.4235 287.122 18.6151 287.122 15.1194C287.122 14.916 287.11 14.7149 287.092 14.5167H288.95C288.932 14.7149 288.921 14.916 288.921 15.1194C288.921 18.6151 291.734 21.4235 295.231 21.4302L303.931 21.4451C306.219 24.1318 307.797 27.3217 307.797 30.4908V38.9911C309.997 35.7767 311.286 31.8839 311.286 27.6779C311.286 16.5971 302.365 7.67749 291.285 7.67749H284.778Z" fill="#444444"/>
<path d="M294.097 3.19629H281.936C278.828 3.19629 276.309 5.71527 276.309 8.82355V11.6869C276.309 14.7952 278.828 17.3149 281.936 17.3149H294.097C297.205 17.3149 299.725 14.7952 299.725 11.6869V8.82355C299.725 5.71527 297.205 3.19629 294.097 3.19629Z" fill="#3B3B3B"/>
<path d="M267.049 120.625C268.194 137.497 276.986 150.556 287.534 150.556C298.22 150.556 307.639 137.815 308.601 120.625H267.049Z" fill="#4F4F4F"/>
<path d="M308.621 120.623L288.257 123.932L288.086 150.485L289.997 162.122H313.333C313.476 140.595 313.238 133.323 308.621 120.623Z" fill="#4B4B4B"/>
<path d="M267.06 120.599L287.906 123.92V150.483L285.961 162.12H262.679C262.531 140.52 262.308 133.34 267.06 120.599Z" fill="#4B4B4B"/>
<path d="M298.654 79.6084H277.884C272.626 79.6084 261.156 72.2162 261.156 79.6084L262.91 86.2785C262.91 95.8942 264.177 101.058 272.772 101.058H302.204C309.849 101.058 311.724 97.1515 311.724 87.6745L315.008 79.9884C315.008 72.5962 303.911 79.6084 298.654 79.6084Z" fill="#DCB051"/>
<path d="M260.271 65.4297C253.933 65.4297 250.391 70.7675 250.391 74.8429C250.391 81.7073 253.321 84.5343 261.966 84.5343H312.826C321.69 84.5343 324.938 82.615 324.938 74.851C324.938 70.7749 321.155 65.4297 314.917 65.4297H304.656C304.433 69.9325 300.518 73.5106 292.878 73.5106H283.573C274.614 73.5106 270.734 69.9325 270.512 65.4297H260.271Z" fill="#DCB051"/>
<path d="M304.229 65.4298C304.084 65.4276 303.943 65.4639 303.838 65.5315C303.732 65.599 303.67 65.6925 303.666 65.7912C303.405 69.8859 298.482 73.1211 292.384 73.1211H282.86C276.763 73.1211 271.84 69.8859 271.579 65.7912C271.575 65.7423 271.558 65.694 271.528 65.6495C271.498 65.6057 271.455 65.5656 271.402 65.5322C271.348 65.4995 271.287 65.4743 271.22 65.4572C271.152 65.4402 271.08 65.4328 271.008 65.435C270.936 65.4372 270.865 65.4491 270.8 65.4699C270.735 65.4906 270.676 65.5196 270.628 65.556C270.58 65.5916 270.542 65.6339 270.517 65.6799C270.493 65.7259 270.481 65.7742 270.485 65.8231C270.771 70.306 276.191 73.8647 282.86 73.8647H292.384C299.054 73.8647 304.474 70.306 304.76 65.8231C304.764 65.7734 304.754 65.7237 304.729 65.6769C304.705 65.6302 304.667 65.5871 304.617 65.5508C304.567 65.5137 304.507 65.4847 304.441 65.4639C304.374 65.4431 304.302 65.4313 304.229 65.4298Z" fill="#E8CB8C"/>
<path d="M267.049 120.625C268.194 137.497 276.986 150.556 287.534 150.556C298.22 150.556 307.639 137.815 308.601 120.625H267.049Z" fill="#4F4F4F"/>
<path d="M308.621 120.623L288.257 123.932L288.086 150.485L289.997 162.122H313.333C313.476 140.595 313.238 133.323 308.621 120.623Z" fill="#4B4B4B"/>
<path d="M267.06 120.599L287.906 123.92V150.483L285.961 162.12H262.679C262.531 140.52 262.308 133.34 267.06 120.599Z" fill="#4B4B4B"/>
<path d="M280.62 209.593H268.181C267.52 209.593 266.984 210.271 266.984 211.109V224.399C266.984 225.237 267.52 225.915 268.181 225.915H280.62C281.281 225.915 281.818 225.237 281.818 224.399V211.109C281.818 210.271 281.281 209.593 280.62 209.593Z" fill="white"/>
<path d="M275.596 214.273H271.657C270.722 214.273 269.963 215.234 269.963 216.419V218.345C269.963 219.531 270.722 220.492 271.657 220.492H275.596C276.532 220.492 277.29 219.531 277.29 218.345V216.419C277.29 215.234 276.532 214.273 275.596 214.273Z" fill="#4B4B4B"/>
<path d="M276.669 217.58H270.862C267.514 217.58 264.799 221.019 264.799 225.262C264.799 229.504 267.514 232.943 270.862 232.943H276.669C280.017 232.943 282.732 229.504 282.732 225.262C282.732 221.019 280.017 217.58 276.669 217.58Z" fill="#4F4F4F"/>
<path d="M281.073 224.558H266.594C265.441 224.558 264.506 225.697 264.506 227.102V230.428C264.506 231.834 265.441 232.973 266.594 232.973H281.073C282.227 232.973 283.162 231.834 283.162 230.428V227.102C283.162 225.697 282.227 224.558 281.073 224.558Z" fill="#4F4F4F"/>
<path d="M281.977 229.754H265.555C265.137 229.754 264.799 230.182 264.799 230.711V231.962C264.799 232.491 265.137 232.92 265.555 232.92H281.977C282.394 232.92 282.732 232.491 282.732 231.962V230.711C282.732 230.182 282.394 229.754 281.977 229.754Z" fill="white"/>
<path d="M276.01 217.966H271.405C271.165 217.966 270.971 218.212 270.971 218.517C270.971 218.82 271.165 219.066 271.405 219.066H276.01C276.249 219.066 276.444 218.82 276.444 218.517C276.444 218.212 276.249 217.966 276.01 217.966Z" fill="white"/>
<path d="M277.573 221.509H275.36C274.58 221.509 273.947 222.31 273.947 223.299C273.947 224.288 274.58 225.089 275.36 225.089H277.573C278.353 225.089 278.985 224.288 278.985 223.299C278.985 222.31 278.353 221.509 277.573 221.509Z" fill="#585858"/>
<path d="M276.01 219.727H271.405C271.165 219.727 270.971 219.973 270.971 220.277C270.971 220.581 271.165 220.827 271.405 220.827H276.01C276.249 220.827 276.444 220.581 276.444 220.277C276.444 219.973 276.249 219.727 276.01 219.727Z" fill="white"/>
<path d="M307.713 209.592H294.561C293.862 209.592 293.295 210.271 293.295 211.109V224.398C293.295 225.236 293.862 225.915 294.561 225.915H307.713C308.411 225.915 308.978 225.236 308.978 224.398V211.109C308.978 210.271 308.411 209.592 307.713 209.592Z" fill="white"/>
<path d="M303.996 214.294H300.106C299.183 214.294 298.434 215.256 298.434 216.441V218.368C298.434 219.553 299.183 220.514 300.106 220.514H303.996C304.919 220.514 305.668 219.553 305.668 218.368V216.441C305.668 215.256 304.919 214.294 303.996 214.294Z" fill="#4B4B4B"/>
<path d="M305.014 217.58H299.282C295.975 217.58 293.295 221.019 293.295 225.262C293.295 229.504 295.975 232.943 299.282 232.943H305.014C308.32 232.943 311.242 229.565 311.242 225.323C311.242 221.079 308.32 217.58 305.014 217.58Z" fill="#4F4F4F"/>
<path d="M309.401 224.558H295.107C293.969 224.558 293.045 225.698 293.045 227.102V230.428C293.045 231.834 293.969 232.973 295.107 232.973H309.401C310.54 232.973 311.463 231.834 311.463 230.428V227.102C311.463 225.698 310.54 224.558 309.401 224.558Z" fill="#4F4F4F"/>
<path d="M310.254 229.754H294.041C293.629 229.754 293.295 230.182 293.295 230.711V231.962C293.295 232.491 293.629 232.92 294.041 232.92H310.254C310.666 232.92 311 232.491 311 231.962V230.711C311 230.182 310.666 229.754 310.254 229.754Z" fill="white"/>
<path d="M305.069 217.966H300.523C300.286 217.966 300.094 218.212 300.094 218.517C300.094 218.82 300.286 219.066 300.523 219.066H305.069C305.306 219.066 305.498 218.82 305.498 218.517C305.498 218.212 305.306 217.966 305.069 217.966Z" fill="white"/>
<path d="M306.614 221.531H304.43C303.66 221.531 303.035 222.332 303.035 223.321C303.035 224.309 303.66 225.111 304.43 225.111H306.614C307.384 225.111 308.009 224.309 308.009 223.321C308.009 222.332 307.384 221.531 306.614 221.531Z" fill="#585858"/>
<path d="M305.069 219.748H300.523C300.286 219.748 300.094 219.995 300.094 220.298C300.094 220.602 300.286 220.849 300.523 220.849H305.069C305.306 220.849 305.498 220.602 305.498 220.298C305.498 219.995 305.306 219.748 305.069 219.748Z" fill="white"/>
<path d="M224.64 108.44L224.646 108.394C225.065 105.455 227.909 103.277 230.997 103.53L242.081 103.932L254.189 105.429C257.277 105.682 259.441 108.27 259.022 111.209L259.015 111.255C258.596 114.194 255.834 118.205 252.746 117.952L229.555 116.053C226.466 115.8 224.22 111.379 224.64 108.44Z" fill="#9D6B5A"/>
<path d="M249.537 116.402C249.788 118.303 252.561 119.143 255.729 118.28C258.898 117.416 261.263 115.175 261.012 113.274L260.325 108.083C260.138 106.667 259.438 105.517 257.784 105.379C256.451 105.268 255.095 105.998 253.847 106.735L251.565 108.083C249.709 109.401 248.71 111.611 249.058 113.628L249.537 116.402Z" fill="#906253"/>
<path d="M215.814 77.9637L223.626 97.1622L231.286 77.942L223.798 79.5452L223.422 79.6255L223.048 79.5436L215.814 77.9637Z" stroke="#DCB051" stroke-width="3.54825"/>
<path d="M219.797 87.8157L227.34 87.8293L228.048 115.525L219.672 115.598L219.797 87.8157Z" fill="#DCB051"/>
<line x1="224.19" y1="20.2813" x2="224.19" y2="77.5377" stroke="#CCBDAB" stroke-width="0.591374"/>
<line x1="222.095" y1="20.2813" x2="222.095" y2="77.5377" stroke="#CCBDAB" stroke-width="0.591374"/>
<line x1="220.141" y1="20.2813" x2="220.141" y2="77.5377" stroke="#CCBDAB" stroke-width="0.591374"/>
<line x1="218.044" y1="20.2813" x2="218.044" y2="77.5377" stroke="#CCBDAB" stroke-width="0.591374"/>
<line x1="216.036" y1="20.2813" x2="216.036" y2="77.5377" stroke="#CCBDAB" stroke-width="0.591374"/>
<line x1="213.79" y1="20.2813" x2="213.79" y2="77.5377" stroke="#CCBDAB" stroke-width="0.591374"/>
<path d="M211.781 22.5762L211.781 75.3556" stroke="#CCBDAB" stroke-width="0.591374"/>
<path d="M209.685 24.6294L209.686 72.922" stroke="#CCBDAB" stroke-width="0.591374"/>
<path d="M207.588 26.6067L207.588 69.8799" stroke="#CCBDAB" stroke-width="0.591374"/>
<path d="M205.668 30.105L205.668 66.5336" stroke="#CCBDAB" stroke-width="0.591374"/>
<line x1="226.247" y1="20.2813" x2="226.247" y2="77.5377" stroke="#CCBDAB" stroke-width="0.591374"/>
<line x1="228.43" y1="20.2813" x2="228.43" y2="77.5377" stroke="#CCBDAB" stroke-width="0.591374"/>
<line x1="230.526" y1="20.2813" x2="230.526" y2="77.5377" stroke="#CCBDAB" stroke-width="0.591374"/>
<line x1="232.71" y1="20.2813" x2="232.71" y2="77.5377" stroke="#CCBDAB" stroke-width="0.591374"/>
<path d="M235.055 23.2605L235.055 75.0514" stroke="#CCBDAB" stroke-width="0.591374"/>
<path d="M237.15 25.542L237.15 72.1615" stroke="#CCBDAB" stroke-width="0.591374"/>
<path d="M239.246 28.5081L239.246 69.6519" stroke="#CCBDAB" stroke-width="0.591374"/>
<path d="M241.256 30.8657L241.256 66.3056" stroke="#CCBDAB" stroke-width="0.591374"/>
<path d="M244.529 56.6926L202.129 56.6926" stroke="#CCBDAB" stroke-width="0.591374"/>
<path d="M244.092 58.7891L202.675 58.7891" stroke="#CCBDAB" stroke-width="0.591374"/>
<path d="M243.107 60.7434L203.112 60.7434" stroke="#CCBDAB" stroke-width="0.591374"/>
<path d="M242.561 62.8396L203.876 62.8396" stroke="#CCBDAB" stroke-width="0.591374"/>
<path d="M241.688 64.8484L205.079 64.8484" stroke="#CCBDAB" stroke-width="0.591374"/>
<path d="M240.922 67.0938L206.171 67.0938" stroke="#CCBDAB" stroke-width="0.591374"/>
<path d="M239.721 69.1023L208.139 69.1023" stroke="#CCBDAB" stroke-width="0.591374"/>
<path d="M237.535 71.1987L208.468 71.1987" stroke="#CCBDAB" stroke-width="0.591374"/>
<path d="M236.988 73.2949L209.779 73.2949" stroke="#CCBDAB" stroke-width="0.591374"/>
<path d="M234.365 75.2158L212.182 75.2158" stroke="#CCBDAB" stroke-width="0.591374"/>
<path d="M245.184 54.6367L202.019 54.6367" stroke="#CCBDAB" stroke-width="0.591374"/>
<path d="M245.074 52.4536L201.582 52.4536" stroke="#CCBDAB" stroke-width="0.591374"/>
<path d="M245.293 50.3574L201.691 50.3574" stroke="#CCBDAB" stroke-width="0.591374"/>
<path d="M245.184 48.1743L202.238 48.1743" stroke="#CCBDAB" stroke-width="0.591374"/>
<path d="M244.639 45.8296L202.238 45.8296" stroke="#CCBDAB" stroke-width="0.591374"/>
<path d="M244.418 43.7332L202.237 43.7332" stroke="#CCBDAB" stroke-width="0.591374"/>
<path d="M243.982 41.6367L202.129 41.6367" stroke="#CCBDAB" stroke-width="0.591374"/>
<path d="M243 39.6282L202.568 39.6282" stroke="#CCBDAB" stroke-width="0.591374"/>
<path d="M243.326 37.5771L203.658 37.5772" stroke="#CCBDAB" stroke-width="0.591374"/>
<path d="M241.797 35.5261L204.86 35.5259" stroke="#CCBDAB" stroke-width="0.591374"/>
<path d="M241.139 33.4746L205.515 33.4746" stroke="#CCBDAB" stroke-width="0.591374"/>
<path d="M240.594 31.4236L205.734 31.4236" stroke="#CCBDAB" stroke-width="0.591374"/>
<path d="M238.955 29.3723L206.718 29.3723" stroke="#CCBDAB" stroke-width="0.591374"/>
<path d="M237.207 27.321L207.702 27.321" stroke="#CCBDAB" stroke-width="0.591374"/>
<path d="M235.895 25.188L209.996 25.188" stroke="#CCBDAB" stroke-width="0.591374"/>
<path d="M234.803 23.1367L212.947 23.1367" stroke="#CCBDAB" stroke-width="0.591374"/>
<path d="M244.319 48.7258C244.393 57.2525 242 64.9188 238.161 70.42C234.319 75.9252 229.136 79.1422 223.569 79.1908C218.001 79.2393 212.763 76.1133 208.825 70.6761C204.891 65.2426 202.365 57.6192 202.29 49.0926C202.216 40.566 204.609 32.8997 208.448 27.3984C212.289 21.8932 217.473 18.6763 223.04 18.6277C228.608 18.5791 233.846 21.7051 237.783 27.1424C241.718 32.5758 244.244 40.1992 244.319 48.7258Z" stroke="#DCB051" stroke-width="3.54825"/>
<path d="M225.2 101.245C226.133 102.678 227.75 103.176 228.812 102.358C229.874 101.54 229.978 99.7153 229.045 98.2829L226.498 94.3706C225.565 92.9382 223.948 92.4401 222.886 93.2582C221.824 94.0762 221.72 95.9006 222.653 97.333L225.2 101.245Z" fill="#9D6B5A"/>
<path d="M218.48 112.039C218.864 114.938 221.919 116.539 225.306 115.616C228.692 114.693 231.127 111.595 230.743 108.697L229.696 100.78C229.34 98.0856 221.842 99.0196 218.067 99.9059C217.557 100.026 217.096 100.348 216.773 100.784C215.932 101.917 215.658 103.31 216.042 104.5L218.48 112.039Z" fill="#906253"/>
<path d="M90.0742 86.3143C90.0742 72.6457 77.4918 72.2625 65.0113 72.2625C52.5316 72.2625 41.4199 72.6457 41.4199 86.3143L43.2936 115.738H87.8306L90.0742 86.3143Z" fill="#DCB051"/>
<path d="M97.8805 72.1493C97.8805 58.4337 80.8357 72.1493 62.6836 72.1493C44.5307 72.1493 32.1426 58.4337 32.1426 72.1493C32.1426 85.8657 46.8582 96.9848 65.0119 96.9848C83.1641 96.9848 97.8805 85.8657 97.8805 72.1493Z" fill="#DCB051"/>
<path d="M85.8839 69.9966L47.2426 71.5087C38.4747 71.5087 32.1426 60.2136 32.1426 67.7346V75.941C32.1426 83.4605 39.2506 89.5573 48.0185 89.5573H82.0038C90.7725 89.5573 97.8805 83.4605 97.8805 75.941V67.7346C97.8805 60.2136 94.6526 69.9966 85.8839 69.9966Z" fill="#478563"/>
<path d="M84.3578 73.1729H45.0943C37.9412 73.1729 32.1426 59.3808 32.1426 67.1152V75.5544C32.1426 83.2871 37.9412 89.5571 45.0943 89.5571H85.1361C92.2892 89.5571 98.0879 83.2871 98.0879 75.5544V67.1152C98.0879 59.3808 91.5109 73.1729 84.3578 73.1729Z" fill="#DCB051"/>
<path d="M34.1438 64.6324L30.3052 61.3979C27.4536 59.2025 27.4128 62.1791 26.1282 64.6325L24.9325 66.3856C24.4513 67.3049 32.7466 60.7241 24.9325 67.3676L21.9036 67.3676L18.1312 74.3792C16.976 76.5263 16.0341 78.8281 15.9384 81.2643C15.7321 86.51 17.5878 89.83 18.0876 91.9806C18.0876 91.9806 19.6605 98.0993 19.6718 99.1475C19.6718 99.1475 22.3122 107.029 24.9325 107.907L24.9788 107.923C27.9418 108.916 30.9531 106.034 31.7051 101.486L33.131 97.0976L35.616 87.9306C36.2892 85.449 36.4068 82.7633 35.9636 80.0056L35.3341 76.0945L34.7628 72.1694C34.6363 71.3038 34.8374 70.4954 35.3332 69.8745C36.4778 68.4383 35.9618 66.1644 34.1438 64.6324Z" fill="#9D6B5A"/>
<path d="M33.6592 54.1199C26.9083 54.1199 21.4727 59.4986 21.4727 66.1793C21.4727 72.8601 26.9083 78.2395 33.6592 78.2395H95.8299C102.581 78.2395 108.016 72.8601 108.016 66.1793C108.016 59.4986 102.581 54.1199 95.8299 54.1199H88.2479C87.9865 61.5005 77.5781 67.3653 70.0545 67.3653H58.8898C51.3662 67.3653 42.1765 61.5005 41.9158 54.1199H33.6592Z" fill="#DCB051"/>
<path d="M88.0791 53.4837C87.8807 53.4784 87.6885 53.5406 87.5445 53.6551C87.3998 53.7696 87.3157 53.9273 87.3095 54.0934C86.9523 61.0168 80.2248 66.4873 71.8911 66.4873H58.8751C50.5406 66.4873 43.8131 61.0168 43.4559 54.0934C43.4512 54.0115 43.4279 53.9296 43.3874 53.8545C43.3454 53.781 43.2871 53.7127 43.2139 53.6566C43.1415 53.6013 43.0567 53.558 42.9649 53.53C42.8723 53.5012 42.7742 53.4883 42.6754 53.4921C42.5781 53.4958 42.4816 53.5156 42.3921 53.5504C42.3026 53.5861 42.2225 53.6346 42.1563 53.696C42.091 53.7567 42.0388 53.828 42.0054 53.9061C41.9719 53.9834 41.9571 54.0653 41.9618 54.148C42.3517 61.7273 49.7601 67.7445 58.8751 67.7445H71.8911C81.0061 67.7445 88.4137 61.7273 88.8044 54.148C88.8106 54.0638 88.7958 53.9804 88.7624 53.9015C88.7289 53.8219 88.6768 53.7484 88.6091 53.6869C88.5414 53.6248 88.4597 53.5755 88.3678 53.5406C88.2768 53.5049 88.1787 53.486 88.0791 53.4837Z" fill="#E8CB8C"/>
<path d="M18.9344 101.722L18.9352 101.773C18.9883 105.076 21.8554 107.864 25.3399 107.999L51.5012 109.016C54.985 109.15 57.7667 106.582 57.7137 103.279L57.7128 103.227C57.6598 99.9244 54.7927 97.1372 51.3088 97.0015L25.1475 95.986C21.6631 95.8503 18.8819 98.4185 18.9344 101.722Z" fill="#9D6B5A"/>
<path d="M50.3256 100.796L50.4689 102.986C50.7442 107.185 54.4164 110.62 58.6708 110.659L62.4503 110.693C66.7048 110.731 69.9301 107.358 69.6549 103.159L69.5109 100.969C69.2356 96.7699 65.5635 93.3354 61.309 93.297L57.5301 93.2622C53.2757 93.2237 50.0503 96.5969 50.3256 100.796Z" fill="#906253"/>
<path d="M52.0824 91.7458C52.055 89.2455 53.6349 87.3272 55.6103 87.4599C57.5858 87.5925 59.2092 89.7273 59.2356 92.2276L59.3083 99.0561C59.3348 101.556 57.7558 103.475 55.7803 103.342C53.8049 103.209 52.1815 101.075 52.155 98.5743L52.0824 91.7458Z" fill="#9D6B5A"/>
<ellipse cx="20.104" cy="210.089" rx="19.6645" ry="19.6653" fill="white"/>
<mask id="mask0_2087_15706" style="mask-type:alpha" maskUnits="userSpaceOnUse" x="0" y="190" width="40" height="40">
<circle cx="20.1028" cy="210.089" r="13.4013" fill="#0B0B0B" stroke="black" stroke-width="12.528"/>
</mask>
<g mask="url(#mask0_2087_15706)">
<path d="M20.656 203.435L25.9234 207.262L31.8714 204.614L32.5519 198.138L27.2845 194.311L21.3366 196.96L20.656 203.435Z" fill="white"/>
<path d="M21.4222 197.022L20.7527 203.392L25.9345 207.156L31.7857 204.551L32.4552 198.181L27.2735 194.417L21.4222 197.022Z" stroke="black" stroke-opacity="0.14" stroke-width="0.183404"/>
<path d="M16.0173 193.163L21.2847 196.99L27.2327 194.342L27.9133 187.866L22.6459 184.039L16.6979 186.688L16.0173 193.163Z" fill="black"/>
<path d="M16.7836 186.75L16.1141 193.12L21.2958 196.884L27.147 194.279L27.8165 187.909L22.6348 184.145L16.7836 186.75Z" stroke="black" stroke-opacity="0.14" stroke-width="0.183404"/>
<path d="M31.9216 204.508L37.189 208.335L43.137 205.687L43.8176 199.212L38.5502 195.385L32.6022 198.033L31.9216 204.508Z" fill="black"/>
<path d="M32.6879 198.095L32.0184 204.465L37.2001 208.23L43.0513 205.625L43.7208 199.255L38.5391 195.49L32.6879 198.095Z" stroke="black" stroke-opacity="0.14" stroke-width="0.183404"/>
<path d="M29.5857 223.806L34.8531 227.633L40.801 224.985L41.4816 218.51L36.2142 214.683L30.2663 217.331L29.5857 223.806Z" fill="black"/>
<path d="M30.3519 217.393L29.6824 223.763L34.8642 227.528L40.7154 224.923L41.3849 218.553L36.2032 214.788L30.3519 217.393Z" stroke="black" stroke-opacity="0.14" stroke-width="0.183404"/>
<path d="M12.1853 231.738L17.4527 235.565L23.4007 232.917L24.0812 226.442L18.8138 222.615L12.8659 225.263L12.1853 231.738Z" fill="black"/>
<path d="M12.9515 225.325L12.282 231.695L17.4638 235.46L23.315 232.855L23.9845 226.485L18.8028 222.72L12.9515 225.325Z" stroke="black" stroke-opacity="0.14" stroke-width="0.183404"/>
<path d="M-1.64867 200.91L3.61872 204.737L9.56667 202.089L10.2472 195.613L4.97985 191.786L-0.968104 194.435L-1.64867 200.91Z" fill="black"/>
<path d="M-0.882439 194.497L-1.55194 200.867L3.62978 204.632L9.48101 202.026L10.1505 195.657L4.96879 191.892L-0.882439 194.497Z" stroke="black" stroke-opacity="0.14" stroke-width="0.183404"/>
<path d="M-3.64672 220.387L1.62067 224.214L7.56863 221.565L8.2492 215.09L2.98181 211.263L-2.96615 213.911L-3.64672 220.387Z" fill="black"/>
<path d="M-2.88049 213.974L-3.54999 220.344L1.63174 224.108L7.48296 221.503L8.15246 215.133L2.97074 211.369L-2.88049 213.974Z" stroke="black" stroke-opacity="0.14" stroke-width="0.183404"/>
<path d="M14.156 212.497L19.4234 216.324L25.3714 213.676L26.0519 207.201L20.7845 203.374L14.8366 206.022L14.156 212.497Z" fill="black"/>
<path d="M14.9222 206.084L14.2527 212.454L19.4345 216.219L25.2857 213.614L25.9552 207.244L20.7735 203.479L14.9222 206.084Z" stroke="black" stroke-opacity="0.14" stroke-width="0.183404"/>
<path d="M25.1697 213.648L30.4371 217.475L36.385 214.826L37.0656 208.351L31.7982 204.524L25.8503 207.172L25.1697 213.648Z" fill="white"/>
<path d="M25.9359 207.235L25.2664 213.605L30.4481 217.369L36.2994 214.764L36.9689 208.394L31.7871 204.63L25.9359 207.235Z" stroke="black" stroke-opacity="0.14" stroke-width="0.183404"/>
<path d="M18.5779 222.623L23.8453 226.45L29.7932 223.802L30.4738 217.327L25.2064 213.5L19.2585 216.148L18.5779 222.623Z" fill="white"/>
<path d="M19.3441 216.21L18.6746 222.58L23.8563 226.345L29.7076 223.74L30.3771 217.37L25.1953 213.605L19.3441 216.21Z" stroke="black" stroke-opacity="0.14" stroke-width="0.183404"/>
<path d="M7.57594 221.346L12.8433 225.173L18.7913 222.525L19.4719 216.05L14.2045 212.223L8.25651 214.871L7.57594 221.346Z" fill="white"/>
<path d="M8.34217 214.933L7.67267 221.303L12.8544 225.068L18.7056 222.463L19.3751 216.093L14.1934 212.328L8.34217 214.933Z" stroke="black" stroke-opacity="0.14" stroke-width="0.183404"/>
<path d="M2.99781 211.253L8.2652 215.08L14.2132 212.432L14.8937 205.957L9.62634 202.13L3.67838 204.778L2.99781 211.253Z" fill="white"/>
<path d="M3.76405 204.84L3.09454 211.21L8.27627 214.975L14.1275 212.37L14.797 206L9.61527 202.235L3.76405 204.84Z" stroke="black" stroke-opacity="0.14" stroke-width="0.183404"/>
<path d="M9.57008 202.314L14.8375 206.141L20.7854 203.492L21.466 197.017L16.1986 193.19L10.2506 195.838L9.57008 202.314Z" fill="white"/>
<path d="M10.3363 195.901L9.66681 202.271L14.8485 206.035L20.6998 203.43L21.3693 197.06L16.1875 193.296L10.3363 195.901Z" stroke="black" stroke-opacity="0.14" stroke-width="0.183404"/>
</g>
<path d="M84.6159 206.819H72.3614C71.7104 206.819 71.1816 207.498 71.1816 208.336V221.625C71.1816 222.463 71.7104 223.142 72.3614 223.142H84.6159C85.2668 223.142 85.7949 222.463 85.7949 221.625V208.336C85.7949 207.498 85.2668 206.819 84.6159 206.819Z" fill="white"/>
<path d="M80.5327 211.522H76.6435C75.7197 211.522 74.9707 212.484 74.9707 213.668V215.595C74.9707 216.78 75.7197 217.741 76.6435 217.741H80.5327C81.4565 217.741 82.2055 216.78 82.2055 215.595V213.668C82.2055 212.484 81.4565 211.522 80.5327 211.522Z" fill="#4B4B4B"/>
<path d="M82.7511 214.807H76.5788C73.0189 214.807 70.1328 218.246 70.1328 222.489C70.1328 226.731 73.0189 230.17 76.5788 230.17H82.7511C86.3111 230.17 89.457 226.792 89.457 222.55C89.457 218.307 86.3111 214.807 82.7511 214.807Z" fill="#4F4F4F"/>
<path d="M87.5462 221.786H71.8463C70.5966 221.786 69.582 222.925 69.582 224.329V227.656C69.582 229.061 70.5966 230.201 71.8463 230.201H87.5462C88.7968 230.201 89.8105 229.061 89.8105 227.656V224.329C89.8105 222.925 88.7968 221.786 87.5462 221.786Z" fill="#4F4F4F"/>
<path d="M88.7811 227.273H70.8095C70.3531 227.273 69.9824 227.701 69.9824 228.23V229.481C69.9824 230.009 70.3531 230.438 70.8095 230.438H88.7811C89.2375 230.438 89.6074 230.009 89.6074 229.481V228.23C89.6074 227.701 89.2375 227.273 88.7811 227.273Z" fill="white"/>
<path d="M81.6298 215.193H77.0832C76.8462 215.193 76.6543 215.44 76.6543 215.744C76.6543 216.047 76.8462 216.294 77.0832 216.294H81.6298C81.8661 216.294 82.0587 216.047 82.0587 215.744C82.0587 215.44 81.8661 215.193 81.6298 215.193Z" fill="white"/>
<path d="M83.1506 218.758H80.9672C80.1967 218.758 79.5723 219.559 79.5723 220.548C79.5723 221.537 80.1967 222.338 80.9672 222.338H83.1506C83.9212 222.338 84.5456 221.537 84.5456 220.548C84.5456 219.559 83.9212 218.758 83.1506 218.758Z" fill="#585858"/>
<path d="M81.6298 216.975H77.0832C76.8462 216.975 76.6543 217.222 76.6543 217.525C76.6543 217.83 76.8462 218.076 77.0832 218.076H81.6298C81.8661 218.076 82.0587 217.83 82.0587 217.525C82.0587 217.222 81.8661 216.975 81.6298 216.975Z" fill="white"/>
<path d="M35.0257 169.091H22.1259C21.4406 169.091 20.8848 169.769 20.8848 170.607V183.897C20.8848 184.735 21.4406 185.413 22.1259 185.413H35.0257C35.7109 185.413 36.2676 184.735 36.2676 183.897V170.607C36.2676 169.769 35.7109 169.091 35.0257 169.091Z" fill="white"/>
<path d="M26.5178 172.152H22.5792C21.6435 172.152 20.8848 173.113 20.8848 174.298V176.224C20.8848 177.41 21.6435 178.371 22.5792 178.371H26.5178C27.4543 178.371 28.2123 177.41 28.2123 176.224V174.298C28.2123 173.113 27.4543 172.152 26.5178 172.152Z" fill="#4B4B4B"/>
<path d="M27.8703 177.078H19.8436C19.5322 177.078 11.4629 180.517 11.4629 184.76C11.4629 189.002 15.2156 192.441 19.8436 192.441H27.8703C32.4983 192.441 36.25 189.002 36.25 184.76C36.25 180.517 32.4983 177.078 27.8703 177.078Z" fill="#4F4F4F"/>
<path d="M33.1931 184.056H10.658C10.658 184.056 3.23438 185.228 3.23438 186.672V190.092C3.23438 191.538 4.92512 192.709 7.01069 192.709H33.1931C35.2799 192.709 36.9707 191.538 36.9707 190.092V186.672C36.9707 185.228 35.2799 184.056 33.1931 184.056Z" fill="#4F4F4F"/>
<path d="M35.5502 189.544H4.65627C3.87028 189.544 3.23438 189.972 3.23438 190.501V191.752C3.23438 192.28 3.87028 192.709 4.65627 192.709H35.5502C36.3348 192.709 36.9707 192.28 36.9707 191.752V190.501C36.9707 189.972 36.3348 189.544 35.5502 189.544Z" fill="white"/>
<path d="M21.4755 177.252H19.0421C18.9152 177.252 18.8125 177.499 18.8125 177.803C18.8125 178.106 18.9152 178.353 19.0421 178.353H21.4755C21.602 178.353 21.7051 178.106 21.7051 177.803C21.7051 177.499 21.602 177.252 21.4755 177.252Z" fill="white"/>
<path d="M16.8558 181.833H14.6434C13.8637 181.833 13.2305 182.634 13.2305 183.623C13.2305 184.612 13.8637 185.413 14.6434 185.413H16.8558C17.6362 185.413 18.268 184.612 18.268 183.623C18.268 182.634 17.6362 181.833 16.8558 181.833Z" fill="#585858"/>
<path d="M20.8242 179.034H16.2196C15.9795 179.034 15.7852 179.28 15.7852 179.584C15.7852 179.887 15.9795 180.134 16.2196 180.134H20.8242C21.0635 180.134 21.2587 179.887 21.2587 179.584C21.2587 179.28 21.0635 179.034 20.8242 179.034Z" fill="white"/>
</svg>
