<svg width="189" height="271" viewBox="0 0 189 271" fill="none" xmlns="http://www.w3.org/2000/svg">
<path fill-rule="evenodd" clip-rule="evenodd" d="M125.342 41.112C129.012 36.8039 131.496 31.5243 131.081 25.6084C129.885 8.56293 106.157 12.3127 101.542 20.9158C96.9262 29.5189 97.4746 51.3413 103.44 52.8789C105.819 53.4921 110.887 51.99 116.044 48.8812L112.807 71.785H131.923L125.342 41.112Z" fill="#B28B67"/>
<path fill-rule="evenodd" clip-rule="evenodd" d="M139.415 19.9342C140.033 19.3223 140.37 18.449 140.661 17.6197C140.963 16.7583 141.257 15.888 141.458 14.9914C141.86 13.1998 141.863 11.1396 140.585 9.74848C139.56 8.63295 138.023 8.1326 136.603 8.02386C135.658 7.95135 134.686 8.08378 133.78 8.38179C132.88 8.67741 132.105 9.2666 131.233 9.63229C131.2 7.70169 130.869 5.68161 129.89 4.03316C128.947 2.44709 127.445 1.55704 125.733 1.32157C123.977 1.07992 122.242 1.49094 120.67 2.34128C120.276 2.55424 119.886 2.77735 119.513 3.02986C119.201 3.24131 118.876 3.49596 118.509 3.58195C118.1 3.67793 117.897 3.44183 117.632 3.14359C117.32 2.79391 116.969 2.48592 116.598 2.21288C114.956 1.00581 112.801 0.50951 110.899 1.23304C110.022 1.56639 109.17 2.13252 108.575 2.91264C108.045 3.60803 107.667 4.71112 106.935 5.19561C106.625 5.40128 106.405 5.1288 106.123 4.92741C105.698 4.62481 105.293 4.2909 104.863 3.99654C104.26 3.58299 103.606 3.27365 102.906 3.11173C101.882 2.87467 100.466 2.93023 100.173 4.2722C100.063 4.77627 100.147 5.31537 100.183 5.82324C100.231 6.52061 100.282 7.21775 100.343 7.91409C100.389 8.44281 100.447 8.95346 100.547 9.47267C100.6 9.74943 100.766 10.2654 100.648 10.5425C100.499 10.889 99.815 10.692 99.5225 10.7041C98.9449 10.7279 98.3649 10.8292 97.8308 11.076C97.4169 11.2673 96.9817 11.5487 96.807 12.0231C96.6996 12.3146 96.7279 12.6139 96.7786 12.9137C96.8395 13.2736 96.7699 13.4644 96.7244 13.8275C95.9487 13.4455 93.2603 12.5967 92.9221 13.987C92.8095 14.45 93.0659 14.973 93.2616 15.3635C93.6048 16.0482 94.0547 16.6741 94.5146 17.271C95.474 18.5162 96.6195 19.5902 97.8518 20.5087C96.408 21.1506 96.0311 23.0439 97.2812 24.172C97.8331 24.67 98.5753 24.7809 99.2715 24.7491C99.5263 24.7374 99.8937 24.6394 100.094 24.6838C100.202 24.7077 100.318 24.7991 100.467 24.8094C101.45 24.8767 102.559 24.6399 103.519 24.4219C105.231 24.0334 106.851 23.2225 108.175 21.9875C108.514 21.6707 108.794 21.4884 109.251 21.4931C109.652 21.4971 110.044 21.6069 110.444 21.617C111.503 21.644 112.457 21.1267 113.44 20.7823C113.5 22.1099 113.878 23.5721 114.421 24.7665C114.864 25.7405 115.789 25.882 116.697 25.9675C119.604 26.2409 122.52 25.9358 125.43 25.9398C122.613 26.5765 119.702 26.8389 116.911 27.5881C115.649 27.9267 116.612 28.7772 117.152 29.3668C118.04 30.3376 118.701 31.5406 119.159 32.8079C120.537 31.0118 122.972 29.8283 125.13 30.3801C127.514 30.9897 129.193 34.2137 127.669 36.5316C126.783 37.8771 125.185 38.3966 123.855 38.9747C124.893 40.0533 125.144 41.6465 125.768 42.9884C126.076 43.6502 126.508 44.3985 127.197 44.6291C127.452 44.7145 127.751 44.7218 127.952 44.9295C128.201 45.1867 128.26 45.4742 128.578 45.6953C129.847 46.5775 131.829 46.5095 132.954 45.3582C133.971 44.3169 133.707 42.6692 132.857 41.6135C134.21 41.0498 136.673 40.3249 136.136 38.2181C139.066 38.0235 146.181 33.2712 142.248 29.7985C144.406 28.5786 146.389 25.5975 145.003 22.9696C143.935 20.946 141.452 20.0415 139.415 19.9342Z" fill="#191847"/>
<path fill-rule="evenodd" clip-rule="evenodd" d="M166.471 171.349H104.938L96.8753 270.114H188.473L166.471 171.349Z" fill="#C5CFD6"/>
<path fill-rule="evenodd" clip-rule="evenodd" d="M166.471 171.349H147.546L136.219 270.114H188.473L166.471 171.349Z" fill="black" fill-opacity="0.1"/>
<path fill-rule="evenodd" clip-rule="evenodd" d="M34.7878 154.425C28.2272 150.486 17.2201 155.547 17.2277 161.181C17.2503 178.039 32.6346 257.488 33.4378 262.511C34.2411 267.533 42.8457 268.86 43.3468 262.527C44.1441 252.451 45.6254 217.569 44.1433 201.424C43.5315 194.759 42.8727 188.412 42.2241 182.75C50.2968 197.328 62.7816 218.201 79.6786 245.368L88.8516 241.177C81.6484 217.444 75.7418 200.69 71.132 190.913C63.2388 174.173 55.8377 159.838 52.7228 154.788C47.8231 146.845 39.2943 149.617 34.7878 154.425Z" fill="#B28B67"/>
<path fill-rule="evenodd" clip-rule="evenodd" d="M88.1961 227.998L56.7124 153.415C49.1701 141.283 28.0235 155.884 30.5956 162.921C36.435 178.897 66.1331 230.618 67.8729 235.377L88.1961 227.998Z" fill="#1F28CF"/>
<path fill-rule="evenodd" clip-rule="evenodd" d="M89.9444 236.474C91.9054 238.089 93.1812 239.408 93.7717 240.43C94.4898 241.674 95.3306 243.609 96.2939 246.235C94.8509 247.068 81.8825 254.555 57.3886 268.697C54.4479 265.938 53.9897 263.797 56.0141 262.272C58.0385 260.748 59.709 259.463 61.0258 258.416L74.4544 239.915C74.7128 239.559 75.2108 239.48 75.5668 239.738C75.5729 239.743 75.5789 239.747 75.5849 239.752L78.3751 241.9C80.9348 241.677 82.845 241.201 84.1057 240.473C85.13 239.882 86.3058 238.651 87.6329 236.782L87.6329 236.782C88.1422 236.065 89.1367 235.896 89.854 236.405C89.885 236.427 89.9151 236.45 89.9444 236.474Z" fill="#E4E4E4"/>
<path fill-rule="evenodd" clip-rule="evenodd" d="M45.3616 258.485C46.2527 260.864 46.6982 262.644 46.6982 263.825C46.6982 265.261 46.459 267.357 45.9804 270.112C44.3142 270.112 29.3395 270.112 1.05643 270.112C-0.110989 266.253 0.56291 264.169 3.07812 263.862C5.59334 263.554 7.68277 263.276 9.34642 263.028L30.2267 253.72C30.6284 253.54 31.0993 253.721 31.2784 254.123C31.2815 254.13 31.2845 254.137 31.2873 254.144L32.6295 257.399C34.9579 258.486 36.85 259.029 38.3058 259.029C39.4886 259.029 41.122 258.551 43.206 257.596L43.206 257.596C44.0058 257.229 44.9513 257.58 45.3179 258.38C45.3337 258.415 45.3483 258.45 45.3616 258.485Z" fill="#E4E4E4"/>
<path fill-rule="evenodd" clip-rule="evenodd" d="M15.0216 166.912C15.0216 188.073 25.0709 237.432 25.0772 242.092L46.6987 242.108C43.534 198.065 42.4118 175.807 43.3322 175.332C44.7127 174.621 99.9241 180.845 116.483 180.845C140.361 180.845 150.239 165.787 151.04 137.894H103.739C94.1079 138.924 43.8721 149.057 25.2154 152.54C17.2282 154.031 15.0216 161.083 15.0216 166.912Z" fill="#2B44FF"/>
<path fill-rule="evenodd" clip-rule="evenodd" d="M96.3672 88.2711L68.7209 73.1293C64.1235 67.6699 59.5937 63.4299 55.1317 60.4093C53.7682 59.8401 51.3839 59.4955 53.6137 63.4532C55.8435 67.4109 58.011 71.6741 56.875 72.8934C55.739 74.1127 52.9062 72.4094 51.551 74.4352C50.6475 75.7858 55.487 77.9193 66.0695 80.8358L86.1579 99.2289L96.3672 88.2711ZM53.068 101.047L40.9241 94.3755C39.2202 87.8917 37.1833 84.6295 34.8135 84.5889C32.993 83.7418 36.1634 91.9346 32.7123 91.2242C29.2613 90.5137 20.8382 84.2492 19.3869 85.5211C17.2397 87.4028 19.1542 93.1809 21.41 96.0552C25.6261 101.427 29.1168 103.264 37.7446 105.67C42.2557 106.928 47.133 109.449 52.3764 113.233L53.068 101.047Z" fill="#997659"/>
<path fill-rule="evenodd" clip-rule="evenodd" d="M109.833 84.8988C100.15 84.7966 87.2369 82.7513 73.4586 74.0054L68.0476 86.0723C77.5515 95.5042 90.9149 103.254 102.6 102.925C111.808 102.667 116.514 91.5287 109.833 84.8988Z" fill="#2026A2"/>
<path fill-rule="evenodd" clip-rule="evenodd" d="M96.7927 104.251C86.5125 106.815 69.2731 103.791 45.0747 95.1806C39.0725 107.598 36.2978 116.451 36.7507 121.739C57.5094 132.582 75.3014 137.417 89.9596 137.736C89.4938 146.434 90.5524 154.71 94.1088 162.272C101.42 177.818 144.232 163.42 158.626 166.254C167.64 136.979 150.211 125.082 150.197 106.35C150.182 85.8366 133.71 54.2617 131.287 54.2617H109.187C107.967 69.9281 101.83 87.1937 96.7927 104.251Z" fill="#1F28CF"/>
</svg>
