<svg width="104" height="217" viewBox="0 0 104 217" fill="none" xmlns="http://www.w3.org/2000/svg">
<path d="M45.2544 65.9024C45.9456 64.1541 46.2415 64.1982 47.1877 64.3714C47.6675 64.4592 48.1269 64.5987 48.523 64.8148C48.9191 65.0309 49.4169 65.2176 49.8762 64.9754C51.4762 64.1314 52.6996 60.6479 51.4234 64.3413C50.9941 65.469 50.7768 66.6192 50.7797 67.749L50.8113 80.3017L48.6323 101.173C48.4758 102.673 46.9438 103.993 45.1194 104.201L43.9416 104.312C42.6991 104.429 41.48 104.33 40.364 104.021L39.0517 103.659C38.879 103.611 38.6913 103.593 38.4993 103.607C37.3182 103.69 36.7083 102.65 37.4424 101.803L39.6827 99.2197C40.2608 98.553 40.5095 97.7584 40.3696 97.0253L39.006 89.8833C38.8029 88.8191 38.7429 87.7227 38.8271 86.6127L39.3448 79.7897L40.5179 73.7064C40.8212 72.1337 41.6875 70.6019 43.0031 69.3122C44.0389 68.2968 44.7723 67.1216 45.2544 65.9024Z" fill="#FBC89D"/>
<path d="M79.3496 159.819H80.5869C83.6139 159.819 86.0675 162.897 86.0675 166.694L86.0681 184.841L86.0675 197.778L87.1644 211.036C87.1644 213.934 84.9236 216.282 82.1587 216.282H80.9921C78.2272 216.282 75.9864 213.934 75.9864 211.036V191.317C75.9864 190.045 75.726 188.795 75.2308 187.686C74.735 186.576 74.4746 185.326 74.4746 184.055V181.342C74.4746 179.886 74.6172 178.436 74.8985 177.023L74.9087 176.972C75.1968 175.526 75.3429 174.04 75.3429 172.549V164.845C75.3429 164.552 75.3632 164.261 75.4034 163.974C75.7408 161.57 77.4048 159.819 79.3496 159.819Z" fill="#FBC89D"/>
<path d="M81.005 111.473H84.1628C85.9395 111.473 87.5339 112.843 88.1769 114.92C88.3008 115.32 88.3857 115.739 88.431 116.165L90.7641 138.246V147.828C90.7641 149.071 90.6814 150.313 90.5173 151.539L89.9813 155.538C89.674 157.834 89.044 160.042 88.1208 162.062L86.5553 165.486C86.2196 166.221 86.043 167.052 86.043 167.899C86.043 170.578 84.3116 172.75 82.1761 172.75H79.5051C77.2173 172.75 75.362 170.422 75.362 167.552C75.362 166.927 75.272 166.307 75.0965 165.722L74.535 163.849C74.2928 163.042 74.1026 162.211 73.9656 161.367L73.1121 156.089L72.2914 149.363C72.155 148.242 72.0859 147.11 72.0859 145.976V122.661C72.0859 116.482 76.0791 111.473 81.005 111.473Z" fill="#FBC89D"/>
<path d="M79.7032 205.447H84.4038C87.1138 205.447 89.3111 207.872 89.3111 210.864C89.3111 213.856 87.1138 216.282 84.4038 216.282H79.7032C76.9931 216.282 74.7959 213.856 74.7959 210.864C74.7959 207.872 76.9931 205.447 79.7032 205.447Z" fill="#FBC89D"/>
<path d="M76.4209 207.677H87.6861C88.5832 207.677 89.3111 208.842 89.3111 210.278V213.68C89.3111 215.117 88.5832 216.282 87.6861 216.282H76.4209C75.5238 216.282 74.7959 215.117 74.7959 213.68V210.278C74.7959 208.842 75.5238 207.677 76.4209 207.677Z" fill="#FBC89D"/>
<path d="M61.7523 159.818H60.515C57.488 159.818 55.0339 162.896 55.0339 166.693V184.841V197.777L53.9375 211.036C53.9375 213.933 56.1783 216.282 58.9427 216.282H60.1098C62.8741 216.282 65.1155 213.933 65.1155 211.036V191.316C65.1155 190.045 65.3753 188.795 65.8711 187.686C66.367 186.576 66.6267 185.326 66.6267 184.054V181.342C66.6267 179.886 66.4847 178.435 66.2034 177.022L66.1932 176.971C65.9045 175.525 65.7591 174.04 65.7591 172.548V164.844C65.7591 164.552 65.7387 164.261 65.6985 163.973C65.3612 161.571 63.6971 159.818 61.7523 159.818Z" fill="#FBC89D"/>
<path d="M60.8765 111.473H55.9664C54.1835 111.473 52.7379 113.286 52.7379 115.523L50.3369 138.245V147.828C50.3369 149.071 50.419 150.313 50.5837 151.539L51.1191 155.537C51.427 157.833 52.057 160.042 52.9802 162.061L54.5457 165.485C54.8814 166.22 55.058 167.052 55.058 167.899C55.058 170.577 56.7894 172.749 58.9249 172.749H61.5959C63.8837 172.749 65.739 170.422 65.739 167.552C65.739 166.927 65.8284 166.307 66.0039 165.722L66.566 163.849C66.8082 163.042 66.9984 162.211 67.1354 161.366L67.9883 156.089L68.8096 149.363C68.946 148.242 69.0151 147.109 69.0151 145.975V121.681C69.0151 116.043 65.3711 111.473 60.8765 111.473Z" fill="#FBC89D"/>
<path d="M61.3984 205.446H56.6983C53.9882 205.446 51.791 207.872 51.791 210.863C51.791 213.856 53.9882 216.281 56.6983 216.281H61.3984C64.109 216.281 66.3056 213.856 66.3056 210.863C66.3056 207.872 64.109 205.446 61.3984 205.446Z" fill="#FBC89D"/>
<path d="M64.6806 207.676H53.416C52.5183 207.676 51.791 208.841 51.791 210.278V213.68C51.791 215.117 52.5183 216.281 53.416 216.281H64.6806C65.5783 216.281 66.3056 215.117 66.3056 213.68V210.278C66.3056 208.841 65.5783 207.676 64.6806 207.676Z" fill="#FBC89D"/>
<path d="M70.1167 49.8374C70.8363 49.8374 71.5532 49.8899 72.2638 49.9922C80.8338 51.2254 88.4719 59.6706 88.4719 69.9702L87.1264 80.9975L84.5014 99.9815C84.5014 111.135 79.5149 112.781 70.1167 112.781C60.7186 112.781 56.3191 111.135 56.3191 99.9815L53.1523 80.9975V69.9702C53.1523 58.8165 60.7186 49.8374 70.1167 49.8374Z" fill="#FBC89D"/>
<path d="M71.0126 27.3218C75.8412 27.3218 79.7293 34.3257 79.7293 43.0264V49.4694C79.7293 58.1702 75.8412 65.1748 71.0126 65.1748C66.1834 65.1748 62.2959 58.1702 62.2959 49.4694V43.0264C62.2959 34.3257 66.1834 27.3218 71.0126 27.3218Z" fill="#FBC89D"/>
<path d="M69.6995 28.498H72.3255C75.3489 28.498 77.7828 32.5719 77.7828 37.6326V41.3798C77.7828 46.4405 75.3489 50.5144 72.3255 50.5144H69.6995C66.6761 50.5144 64.2422 46.4405 64.2422 41.3798V37.6326C64.2422 32.5719 66.6761 28.498 69.6995 28.498Z" fill="#F8B277"/>
<path d="M70.0885 94.99H70.6675C80.2573 94.99 83.3698 88.7678 84.9439 97.2009L87.9776 114.124C89.55 122.55 80.2573 129.542 70.6675 129.542H70.0885C60.4987 129.542 51.206 122.55 52.7784 114.124L56.1314 97.2009C57.7055 88.7678 60.4987 94.99 70.0885 94.99Z" fill="#FBC89D"/>
<path d="M70.0712 87.356C76.9826 87.356 82.5476 96.7404 82.5476 108.397H57.5947C57.5947 96.7404 63.1591 87.356 70.0712 87.356Z" fill="#FBC89D"/>
<path d="M91.7047 65.7649C94.6338 65.0542 98.16 66.5437 98.8053 70.729L100.809 78.2867C101.426 80.614 101.651 83.0776 101.471 85.5199L100.931 92.8468C100.808 94.5181 100.958 96.2029 100.94 97.8813C100.907 100.821 99.8388 102.977 97.5284 103.538C95.0051 104.15 93.3292 102.574 92.5011 99.451C92.2198 98.391 92.0002 97.3026 91.6702 96.2647L90.1714 91.5533C89.3468 88.9619 89.0213 86.1624 89.2205 83.3829L89.5302 79.0733C89.6105 77.9516 89.6009 76.8248 89.5607 75.7002C89.4503 72.6083 89.5007 66.2995 91.7047 65.7649Z" fill="#FBC89D"/>
<path d="M96.293 89.685L96.3303 89.6835C98.7313 89.5905 100.813 92.9338 100.981 97.1503L102.238 128.815C102.406 133.032 100.596 136.526 98.1947 136.619L98.1574 136.621C95.7564 136.714 93.6746 133.37 93.5071 129.153L92.2494 97.4883C92.0819 93.271 93.892 89.7773 96.293 89.685Z" fill="#FBC89D"/>
<path d="M96.3437 122.31L97.8527 122.299C100.744 122.28 103.225 126.216 103.393 131.091L103.543 135.422C103.711 140.297 101.504 144.264 98.6122 144.283L97.1038 144.294C94.2121 144.313 91.7319 140.377 91.5632 135.502L91.4132 131.171C91.2451 126.297 93.4525 122.329 96.3437 122.31Z" fill="#FBC89D"/>
<path d="M95.9734 134.628C96.6023 131.527 98.8204 129.958 100.927 131.121C103.034 132.285 104.232 135.742 103.603 138.842L101.885 147.309C101.256 150.409 99.0378 151.978 96.9311 150.815C94.8239 149.651 93.6262 146.195 94.255 143.094L95.9734 134.628Z" fill="#FBC89D"/>
<path d="M91.0425 132.972C90.9717 130.811 91.9373 129.052 93.2001 129.042C94.4623 129.032 95.5433 130.777 95.6147 132.938L95.8088 138.84C95.8801 141.001 94.9139 142.761 93.6512 142.771C92.389 142.78 91.3079 141.036 91.2366 138.875L91.0425 132.972Z" fill="#FBC89D"/>
<path d="M48.359 56.0493H92.0953C96.4298 56.0493 99.9192 60.1281 99.9192 65.1952C99.9192 70.2623 96.4298 74.3411 92.0953 74.3411H48.359C44.0246 74.3411 40.5352 70.2623 40.5352 65.1952C40.5352 60.1281 44.0246 56.0493 48.359 56.0493Z" fill="#FBC89D"/>
<path d="M63.3673 54.9644H77.0052C84.6259 54.9644 90.7602 61.9874 90.7602 70.7116C90.7602 79.435 84.6259 86.4581 77.0052 86.4581H63.3673C55.7472 86.4581 49.6123 79.435 49.6123 70.7116C49.6123 61.9874 55.7472 54.9644 63.3673 54.9644Z" fill="#FBC89D"/>
<path d="M70.5532 74.3408C72.3276 74.3408 73.7562 76.1335 73.7562 78.3593V82.0859C73.7562 84.3124 72.3276 86.1044 70.5532 86.1044C68.7782 86.1044 67.3496 84.3124 67.3496 82.0859V78.3593C67.3496 76.1335 68.7782 74.3408 70.5532 74.3408Z" fill="#FBC89D"/>
<path d="M62.4603 70.1245C61.613 70.1245 60.8274 70.4 60.1725 70.8721C57.9974 71.0255 55.9581 72.0549 54.4683 73.7511C52.9786 75.4472 52.1494 77.6836 52.1494 80.0074C52.1494 82.4355 53.0545 84.7649 54.6659 86.4816C56.2767 88.199 58.4621 89.1632 60.7408 89.1632C62.8163 89.1611 64.8206 88.3574 66.3839 86.9019C67.9466 85.4465 68.9626 83.4372 69.2433 81.2448C69.301 80.9445 69.3322 80.6328 69.3322 80.3134V74.6229C69.3322 72.1309 67.4859 70.1245 65.193 70.1245H62.4603ZM75.1852 70.1245C72.8929 70.1245 71.0466 72.1309 71.0466 74.6229V80.3134C71.0466 80.6328 71.0777 80.9445 71.1355 81.2448C71.4162 83.4372 72.4322 85.4465 73.9949 86.9019C75.5577 88.3574 77.5624 89.1611 79.638 89.1632C81.9167 89.1632 84.1015 88.199 85.7129 86.4816C87.3237 84.7649 88.2294 82.4355 88.2294 80.0074C88.2288 77.6836 87.4002 75.4472 85.9099 73.7511C84.4201 72.0549 82.3814 71.0255 80.2062 70.8721C79.5514 70.4 78.7658 70.1245 77.9179 70.1245H75.1852Z" fill="#FBC89D"/>
<path d="M54.5169 75.0645C53.5354 74.6172 52.4702 77.2867 51.5533 77.7262C51.4718 78.2949 51.4288 78.8707 51.4248 79.4479C51.4254 85.3478 55.4253 90.1301 60.3597 90.1301C62.8547 90.123 65.2336 88.8685 66.9203 86.6697C66.8314 81.3186 62.9945 78.9232 58.8627 77.0425L54.5169 75.0645ZM81.264 77.0425C77.2159 78.8856 73.4367 81.1468 73.2126 86.3453C74.9055 88.7386 77.3908 90.1223 80.012 90.1301C84.9464 90.1301 88.9464 85.3478 88.9464 79.4479C88.9424 78.9154 88.9056 78.3843 88.8354 77.8582C87.8483 77.3343 86.6852 74.5739 85.6086 75.0645L81.264 77.0425Z" fill="#444444"/>
<path d="M66.6871 84.4834H74.0536C74.503 84.4834 74.8647 84.9236 74.8647 85.4717C74.8647 86.0191 74.503 86.4593 74.0536 86.4593H66.6871C66.2377 86.4593 65.876 86.0191 65.876 85.4717C65.876 84.9236 66.2377 84.4834 66.6871 84.4834Z" fill="#444444"/>
<path d="M85.6535 75.0082C85.5862 75.0146 85.5194 75.0323 85.4526 75.0629L81.1521 77.0196C77.7572 78.5645 74.5547 80.4069 73.5201 84.0611C75.1796 86.1513 77.4878 87.349 79.9131 87.3561C84.4089 87.3561 88.1185 83.3469 88.6805 78.1577C88.6686 78.0476 88.6613 77.9361 88.6465 77.8268C87.7307 77.3405 86.6616 74.9109 85.6535 75.0082ZM54.495 75.0153C53.5752 74.9429 52.5949 77.2879 51.7442 77.6962C51.7238 77.8396 51.7063 77.983 51.6904 78.1271C52.2412 83.3312 55.9564 87.3561 60.4607 87.3561C62.7898 87.349 65.0153 86.245 66.6618 84.2961C65.6888 80.5318 62.4389 78.5936 58.9789 77.0196L54.6778 75.0629C54.6172 75.0352 54.5561 75.0203 54.495 75.0153Z" fill="#4F4F4F"/>
<path d="M67.4541 90.8403H65.3209C64.3462 90.8403 63.5566 91.5695 63.5566 92.4683V94.354C63.5566 95.2535 64.3462 95.9827 65.3209 95.9827H67.4541C68.4282 95.9827 69.2184 95.2535 69.2184 94.354V92.4683C69.2184 91.5695 68.4282 90.8403 67.4541 90.8403Z" fill="#F8B277"/>
<path d="M67.4531 96.5361H64.2037C63.229 96.5361 62.4395 97.2653 62.4395 98.1648V100.05C62.4395 100.949 63.229 101.678 64.2037 101.678H67.4531C68.4278 101.678 69.2174 100.949 69.2174 100.05V98.1648C69.2174 97.2653 68.4278 96.5361 67.4531 96.5361Z" fill="#F8B277"/>
<path d="M67.4531 102.113H64.2037C63.229 102.113 62.4395 102.842 62.4395 103.741V105.627C62.4395 106.526 63.229 107.256 64.2037 107.256H67.4531C68.4278 107.256 69.2174 106.526 69.2174 105.627V103.741C69.2174 102.842 68.4278 102.113 67.4531 102.113Z" fill="#F8B277"/>
<path d="M72.6734 90.8403H74.8067C75.7808 90.8403 76.5709 91.5695 76.5709 92.4683V94.354C76.5709 95.2535 75.7808 95.9827 74.8067 95.9827H72.6734C71.6988 95.9827 70.9092 95.2535 70.9092 94.354V92.4683C70.9092 91.5695 71.6988 90.8403 72.6734 90.8403Z" fill="#F8B277"/>
<path d="M72.6734 96.5361H75.9234C76.8975 96.5361 77.6876 97.2653 77.6876 98.1648V100.05C77.6876 100.949 76.8975 101.678 75.9234 101.678H72.6734C71.6993 101.678 70.9092 100.949 70.9092 100.05V98.1648C70.9092 97.2653 71.6993 96.5361 72.6734 96.5361Z" fill="#F8B277"/>
<path d="M72.6734 102.113H75.9234C76.8975 102.113 77.6876 102.842 77.6876 103.741V105.627C77.6876 106.526 76.8975 107.256 75.9234 107.256H72.6734C71.6993 107.256 70.9092 106.526 70.9092 105.627V103.741C70.9092 102.842 71.6993 102.113 72.6734 102.113Z" fill="#F8B277"/>
<path d="M53.8145 108.837C54.7291 124.977 61.7549 137.469 70.1833 137.469C78.722 137.469 86.2482 125.28 87.0174 108.837H53.8145Z" fill="#4F4F4F"/>
<path d="M87.0335 108.834L70.762 112L70.625 137.401L72.1521 148.533H90.7991C90.9134 127.94 90.7227 120.984 87.0335 108.834Z" fill="#4B4B4B"/>
<path d="M53.8253 108.812L70.4822 111.989V137.399L68.9285 148.53H50.3245C50.2062 127.869 50.0285 121 53.8253 108.812Z" fill="#4B4B4B"/>
<path d="M79.0725 69.6003H62.4756C58.2747 69.6003 49.1094 62.529 49.1094 69.6003L50.5108 75.9809C50.5108 85.1793 51.5234 90.1193 58.3907 90.1193H81.9093C88.0176 90.1193 89.5164 86.382 89.5164 77.3164L92.1399 69.9639C92.1399 62.8925 83.2734 69.6003 79.0725 69.6003Z" fill="#DCB051"/>
<path d="M48.403 56.0371C43.3384 56.0371 40.5078 61.1433 40.5078 65.0417C40.5078 71.6083 42.8494 74.3126 49.7575 74.3126H90.3977C97.4807 74.3126 100.076 72.4766 100.076 65.0495C100.076 61.1504 97.0528 56.0371 92.068 56.0371H83.8688C83.6905 60.3445 80.5628 63.7673 74.4579 63.7673H67.0228C59.864 63.7673 56.7635 60.3445 56.5857 56.0371H48.403Z" fill="#DCB051"/>
<path d="M83.5283 56.0372C83.4128 56.0351 83.3002 56.0699 83.2158 56.1345C83.1315 56.1991 83.0817 56.2885 83.0789 56.383C82.87 60.2999 78.9363 63.3947 74.0636 63.3947H66.4536C61.5815 63.3947 57.6477 60.2999 57.4389 56.383C57.436 56.3361 57.4225 56.29 57.3987 56.2474C57.3743 56.2055 57.3398 56.1671 57.2974 56.1352C57.2549 56.1039 57.2057 56.0798 57.1519 56.0635C57.0976 56.0471 57.0404 56.04 56.9827 56.0422C56.9255 56.0443 56.8689 56.0557 56.8168 56.0755C56.7648 56.0954 56.7178 56.1231 56.6793 56.1579C56.6408 56.192 56.6102 56.2324 56.5904 56.2765C56.5712 56.3205 56.5621 56.3666 56.565 56.4135C56.7936 60.7017 61.1247 64.1061 66.4536 64.1061H74.0636C79.393 64.1061 83.7241 60.7017 83.9528 56.4135C83.9562 56.3659 83.9477 56.3184 83.9279 56.2736C83.9086 56.2289 83.8781 56.1877 83.8384 56.1529C83.7988 56.1174 83.7507 56.0897 83.6975 56.0699C83.6443 56.05 83.5866 56.0386 83.5283 56.0372Z" fill="#E8CB8C"/>
<path d="M53.8135 108.837C54.7281 124.977 61.754 137.469 70.1823 137.469C78.7211 137.469 86.2472 125.28 87.0164 108.837H53.8135Z" fill="#4F4F4F"/>
<path d="M87.0325 108.834L70.761 112L70.624 137.401L72.1511 148.533H90.7981C90.9124 127.94 90.7217 120.984 87.0325 108.834Z" fill="#4B4B4B"/>
<path d="M53.8243 108.812L70.4812 111.989V137.399L68.9276 148.53H50.3236C50.2053 127.869 50.0275 121 53.8243 108.812Z" fill="#4B4B4B"/>
<path d="M64.6644 193.943H54.7249C54.1969 193.943 53.7686 194.592 53.7686 195.394V208.107C53.7686 208.908 54.1969 209.557 54.7249 209.557H64.6644C65.1924 209.557 65.6213 208.908 65.6213 208.107V195.394C65.6213 194.592 65.1924 193.943 64.6644 193.943Z" fill="white"/>
<path d="M60.6496 198.42H57.5024C56.7547 198.42 56.1484 199.339 56.1484 200.473V202.316C56.1484 203.45 56.7547 204.37 57.5024 204.37H60.6496C61.3979 204.37 62.0035 203.45 62.0035 202.316V200.473C62.0035 199.339 61.3979 198.42 60.6496 198.42Z" fill="#4B4B4B"/>
<path d="M61.5047 201.584H56.8644C54.189 201.584 52.0195 204.873 52.0195 208.932C52.0195 212.99 54.189 216.28 56.8644 216.28H61.5047C64.1801 216.28 66.349 212.99 66.349 208.932C66.349 204.873 64.1801 201.584 61.5047 201.584Z" fill="#4F4F4F"/>
<path d="M65.0271 208.259H53.4577C52.5362 208.259 51.7891 209.349 51.7891 210.692V213.874C51.7891 215.219 52.5362 216.308 53.4577 216.308H65.0271C65.9492 216.308 66.6963 215.219 66.6963 213.874V210.692C66.6963 209.349 65.9492 208.259 65.0271 208.259Z" fill="#4F4F4F"/>
<path d="M65.7456 213.229H52.6235C52.2896 213.229 52.0195 213.639 52.0195 214.145V215.342C52.0195 215.847 52.2896 216.258 52.6235 216.258H65.7456C66.0789 216.258 66.349 215.847 66.349 215.342V214.145C66.349 213.639 66.0789 213.229 65.7456 213.229Z" fill="white"/>
<path d="M60.9776 201.953H57.2984C57.1065 201.953 56.9512 202.189 56.9512 202.48C56.9512 202.77 57.1065 203.006 57.2984 203.006H60.9776C61.1689 203.006 61.3248 202.77 61.3248 202.48C61.3248 202.189 61.1689 201.953 60.9776 201.953Z" fill="white"/>
<path d="M62.2289 205.342H60.4611C59.838 205.342 59.332 206.108 59.332 207.055C59.332 208 59.838 208.767 60.4611 208.767H62.2289C62.8525 208.767 63.3573 208 63.3573 207.055C63.3573 206.108 62.8525 205.342 62.2289 205.342Z" fill="#585858"/>
<path d="M60.9776 203.638H57.2984C57.1065 203.638 56.9512 203.873 56.9512 204.164C56.9512 204.454 57.1065 204.69 57.2984 204.69H60.9776C61.1689 204.69 61.3248 204.454 61.3248 204.164C61.3248 203.873 61.1689 203.638 60.9776 203.638Z" fill="white"/>
<path d="M86.3128 193.942H75.8037C75.2455 193.942 74.792 194.592 74.792 195.394V208.106C74.792 208.907 75.2455 209.557 75.8037 209.557H86.3128C86.871 209.557 87.3239 208.907 87.3239 208.106V195.394C87.3239 194.592 86.871 193.942 86.3128 193.942Z" fill="white"/>
<path d="M83.3428 198.441H80.2351C79.497 198.441 78.8984 199.361 78.8984 200.494V202.337C78.8984 203.471 79.497 204.391 80.2351 204.391H83.3428C84.081 204.391 84.6795 203.471 84.6795 202.337V200.494C84.6795 199.361 84.081 198.441 83.3428 198.441Z" fill="#4B4B4B"/>
<path d="M84.1562 201.584H79.5757C76.9338 201.584 74.792 204.873 74.792 208.932C74.792 212.99 76.9338 216.28 79.5757 216.28H84.1562C86.7981 216.28 89.1327 213.049 89.1327 208.99C89.1327 204.932 86.7981 201.584 84.1562 201.584Z" fill="#4F4F4F"/>
<path d="M87.6636 208.259H76.2411C75.3319 208.259 74.5938 209.349 74.5938 210.692V213.874C74.5938 215.219 75.3319 216.308 76.2411 216.308H87.6636C88.5734 216.308 89.311 215.219 89.311 213.874V210.692C89.311 209.349 88.5734 208.259 87.6636 208.259Z" fill="#4F4F4F"/>
<path d="M88.3437 213.229H75.3882C75.0592 213.229 74.792 213.639 74.792 214.145V215.342C74.792 215.847 75.0592 216.258 75.3882 216.258H88.3437C88.6727 216.258 88.9393 215.847 88.9393 215.342V214.145C88.9393 213.639 88.6727 213.229 88.3437 213.229Z" fill="white"/>
<path d="M84.1984 201.953H80.5654C80.376 201.953 80.2227 202.188 80.2227 202.479C80.2227 202.77 80.376 203.006 80.5654 203.006H84.1984C84.3872 203.006 84.5411 202.77 84.5411 202.479C84.5411 202.188 84.3872 201.953 84.1984 201.953Z" fill="white"/>
<path d="M85.4336 205.363H83.6889C83.0732 205.363 82.5742 206.13 82.5742 207.075C82.5742 208.021 83.0732 208.788 83.6889 208.788H85.4336C86.0493 208.788 86.5482 208.021 86.5482 207.075C86.5482 206.13 86.0493 205.363 85.4336 205.363Z" fill="#585858"/>
<path d="M84.1984 203.657H80.5654C80.376 203.657 80.2227 203.894 80.2227 204.183C80.2227 204.474 80.376 204.71 80.5654 204.71H84.1984C84.3872 204.71 84.5411 204.474 84.5411 204.183C84.5411 203.894 84.3872 203.657 84.1984 203.657Z" fill="white"/>
<path d="M61.4115 56.875C60.8546 56.875 60.4062 57.4117 60.4062 58.0784C60.4062 58.7451 60.8546 59.2811 61.4115 59.2811H67.0004L68.6046 60.6812C69.0559 61.0752 69.684 60.9574 70.0131 60.4171C70.3422 59.8768 70.2438 59.1249 69.7925 58.7309L68.1313 57.2811C68.1141 57.2662 68.0952 57.2577 68.0774 57.2442C67.8953 57.017 67.6397 56.875 67.3544 56.875H61.4115ZM74.4823 56.875C74.1971 56.875 73.9415 57.017 73.7594 57.2442C73.7416 57.2577 73.7226 57.2662 73.7054 57.2811L72.0443 58.7309C71.593 59.1249 71.4945 59.8768 71.8237 60.4171C72.1528 60.9574 72.7809 61.0752 73.2316 60.6812L74.8364 59.2811H80.4253C80.9822 59.2811 81.4305 58.7451 81.4305 58.0784C81.4305 57.4117 80.9822 56.875 80.4253 56.875H74.4823Z" fill="#F8B277"/>
<path d="M19.9308 97.1808L19.9361 97.1368C20.2711 94.3252 22.5433 92.2421 25.0112 92.484L33.8675 92.8686L43.5423 94.3008C46.0102 94.5428 47.7393 97.0182 47.4043 99.8298L47.399 99.8738C47.064 102.685 44.8574 106.522 42.3895 106.28L23.8584 104.463C21.3905 104.221 19.5958 99.9924 19.9308 97.1808Z" fill="#FBC89D"/>
<path d="M39.8248 104.797C40.0256 106.615 42.241 107.42 44.773 106.594C47.3049 105.767 49.1946 103.624 48.9937 101.805L48.445 96.8389C48.3115 95.6306 47.8519 94.6246 46.8155 94.3282C45.58 93.9748 44.1372 94.9361 42.8941 95.8148L41.4452 96.8389C39.9441 98.1152 39.1374 100.033 39.3836 101.739L39.8248 104.797Z" fill="#FBC89D"/>
<path d="M12.9695 67.9317L19.1196 86.0244L25.1494 67.9104L19.3502 69.3968L18.9576 69.4974L18.5654 69.3949L12.9695 67.9317Z" stroke="#DCB051" stroke-width="3.1314"/>
<path d="M16.0651 77.4516L22.0919 77.4646L22.658 103.959L15.9652 104.028L16.0651 77.4516Z" fill="#DCB051"/>
<line x1="19.594" y1="12.8481" x2="19.594" y2="67.6196" stroke="#CCBDAB" stroke-width="0.5219"/>
<line x1="17.9211" y1="12.8481" x2="17.9211" y2="67.6196" stroke="#CCBDAB" stroke-width="0.5219"/>
<line x1="16.3586" y1="12.8481" x2="16.3586" y2="67.6196" stroke="#CCBDAB" stroke-width="0.5219"/>
<line x1="14.6828" y1="12.8481" x2="14.6828" y2="67.6196" stroke="#CCBDAB" stroke-width="0.5219"/>
<line x1="13.0793" y1="12.8481" x2="13.0793" y2="67.6196" stroke="#CCBDAB" stroke-width="0.5219"/>
<line x1="11.2834" y1="12.8481" x2="11.2834" y2="67.6196" stroke="#CCBDAB" stroke-width="0.5219"/>
<path d="M9.6543 15.0435L9.65429 65.5322" stroke="#CCBDAB" stroke-width="0.5219"/>
<path d="M7.97943 17.0078L7.97949 63.2044" stroke="#CCBDAB" stroke-width="0.5219"/>
<path d="M6.30371 18.8989L6.30371 60.2939" stroke="#CCBDAB" stroke-width="0.5219"/>
<path d="M4.76953 22.2456L4.76953 57.0931" stroke="#CCBDAB" stroke-width="0.5219"/>
<line x1="21.2375" y1="12.8481" x2="21.2375" y2="67.6196" stroke="#CCBDAB" stroke-width="0.5219"/>
<line x1="22.9836" y1="12.8481" x2="22.9836" y2="67.6196" stroke="#CCBDAB" stroke-width="0.5219"/>
<line x1="24.6574" y1="12.8481" x2="24.6574" y2="67.6196" stroke="#CCBDAB" stroke-width="0.5219"/>
<line x1="26.4035" y1="12.8481" x2="26.4035" y2="67.6196" stroke="#CCBDAB" stroke-width="0.5219"/>
<path d="M28.251 15.6978L28.251 65.2408" stroke="#CCBDAB" stroke-width="0.5219"/>
<path d="M29.9268 17.8804L29.9268 62.4765" stroke="#CCBDAB" stroke-width="0.5219"/>
<path d="M31.5996 20.7178L31.5996 60.0759" stroke="#CCBDAB" stroke-width="0.5219"/>
<path d="M33.207 22.9731L33.207 56.8749" stroke="#CCBDAB" stroke-width="0.5219"/>
<path d="M35.8223 47.6792L1.94213 47.6792" stroke="#CCBDAB" stroke-width="0.5219"/>
<path d="M35.4736 49.6846L2.37897 49.6846" stroke="#CCBDAB" stroke-width="0.5219"/>
<path d="M34.6875 51.5542L2.72846 51.5542" stroke="#CCBDAB" stroke-width="0.5219"/>
<path d="M34.25 53.5591L3.33875 53.5591" stroke="#CCBDAB" stroke-width="0.5219"/>
<path d="M33.5537 55.481L4.30164 55.481" stroke="#CCBDAB" stroke-width="0.5219"/>
<path d="M32.9404 57.6289L5.17254 57.6289" stroke="#CCBDAB" stroke-width="0.5219"/>
<path d="M31.9824 59.5503L6.74707 59.5503" stroke="#CCBDAB" stroke-width="0.5219"/>
<path d="M30.2354 61.5557L7.00907 61.5557" stroke="#CCBDAB" stroke-width="0.5219"/>
<path d="M29.7979 63.561L8.05596 63.561" stroke="#CCBDAB" stroke-width="0.5219"/>
<path d="M27.7031 65.3984L9.97734 65.3984" stroke="#CCBDAB" stroke-width="0.5219"/>
<path d="M36.3477 45.7124L1.85689 45.7124" stroke="#CCBDAB" stroke-width="0.5219"/>
<path d="M36.2588 43.6245L1.5055 43.6245" stroke="#CCBDAB" stroke-width="0.5219"/>
<path d="M36.4326 41.6187L1.59222 41.6187" stroke="#CCBDAB" stroke-width="0.5219"/>
<path d="M36.3477 39.5308L2.03154 39.5308" stroke="#CCBDAB" stroke-width="0.5219"/>
<path d="M35.9111 37.2876L2.03064 37.2876" stroke="#CCBDAB" stroke-width="0.5219"/>
<path d="M35.7354 35.2822L2.03022 35.2822" stroke="#CCBDAB" stroke-width="0.5219"/>
<path d="M35.3867 33.2769L1.94313 33.2769" stroke="#CCBDAB" stroke-width="0.5219"/>
<path d="M34.6016 31.3555L2.2936 31.3555" stroke="#CCBDAB" stroke-width="0.5219"/>
<path d="M34.8613 29.3931L3.16445 29.3931" stroke="#CCBDAB" stroke-width="0.5219"/>
<path d="M33.6396 27.4314L4.12526 27.4312" stroke="#CCBDAB" stroke-width="0.5219"/>
<path d="M33.1133 25.4688L4.64747 25.4688" stroke="#CCBDAB" stroke-width="0.5219"/>
<path d="M32.6787 23.5068L4.82384 23.5068" stroke="#CCBDAB" stroke-width="0.5219"/>
<path d="M31.3691 21.5449L5.60966 21.5449" stroke="#CCBDAB" stroke-width="0.5219"/>
<path d="M29.9717 19.5825L6.39535 19.5825" stroke="#CCBDAB" stroke-width="0.5219"/>
<path d="M28.9248 17.542L8.2304 17.542" stroke="#CCBDAB" stroke-width="0.5219"/>
<path d="M28.0527 15.5796L10.5884 15.5796" stroke="#CCBDAB" stroke-width="0.5219"/>
<path d="M35.509 40.0595C35.569 48.295 33.6373 55.6956 30.5473 60.9964C27.4376 66.3312 23.3318 69.2876 19.0775 69.332C14.8232 69.3764 10.6749 66.5063 7.48789 61.2373C4.32111 56.0018 2.2818 48.6428 2.22176 40.4072C2.16173 32.1717 4.09345 24.7711 7.18342 19.4703C10.2932 14.1355 14.3989 11.1791 18.6533 11.1347C22.9076 11.0903 27.0558 13.9604 30.2429 19.2294C33.4096 24.4649 35.4489 31.8239 35.509 40.0595Z" stroke="#DCB051" stroke-width="3.1314"/>
<path d="M20.3778 90.2981C21.1232 91.6684 22.4152 92.1448 23.2636 91.3622C24.112 90.5797 24.1956 88.8345 23.4502 87.4643L21.4144 83.7218C20.6691 82.3516 19.3771 81.8752 18.5287 82.6577C17.6802 83.4402 17.5967 85.1854 18.342 86.5556L20.3778 90.2981Z" fill="#FBC89D"/>
<path d="M15.0096 100.623C15.3159 103.396 17.7578 104.928 20.4638 104.045C23.1697 103.162 25.115 100.199 24.8086 97.4258L23.972 89.8526C23.693 87.3273 17.9348 88.1342 14.8651 88.9654C14.3436 89.1066 13.874 89.488 13.5694 89.9792C12.9358 91.0008 12.7252 92.1656 12.994 93.1607L15.0096 100.623Z" fill="#FBC89D"/>
<path d="M88.7359 83.9837L86.973 90.8456C85.7953 95.4297 79.0464 94.5766 79.0464 89.8437L75.4395 58.8672V45.7084C75.4395 38.7038 81.1176 33.0255 88.122 33.0252L90.7403 56.2639C90.9353 57.995 90.9559 59.7414 90.8017 61.4766L88.8714 83.1947C88.8478 83.4609 88.8024 83.7248 88.7359 83.9837Z" fill="#444444"/>
<path d="M57.3306 20.7173H84.5819C87.7073 20.7173 90.223 23.7297 90.223 27.4713C90.223 31.2128 87.7073 34.2246 84.5819 34.2246H57.3306C54.2052 34.2246 51.6895 31.2128 51.6895 27.4713C51.6895 23.7297 54.2052 20.7173 57.3306 20.7173Z" fill="#FBC89D"/>
<path d="M57.5313 22.4346H84.3853C86.716 22.4346 88.5924 24.6809 88.5924 27.4711C88.5924 30.2613 86.716 32.5077 84.3853 32.5077H57.5313C55.2006 32.5077 53.3242 30.2613 53.3242 27.4711C53.3242 24.6809 55.2006 22.4346 57.5313 22.4346Z" fill="#F8B277"/>
<path d="M67.8932 1.73486H74.0189C79.1102 1.73486 87.1627 10.3405 87.1627 18.8034V30.8112C87.1627 39.2741 79.6155 48.5364 74.2086 48.5364H67.704C62.2972 48.5364 54.75 39.2741 54.75 30.8112V18.8034C54.75 10.3405 62.8019 1.73486 67.8932 1.73486Z" fill="#FBC89D"/>
<path d="M69.5788 43.9771H71.3426C71.4843 43.9771 71.5982 44.0963 71.5982 44.244V44.4016C71.5982 44.5493 71.4843 44.6686 71.3426 44.6686H69.5788C69.4371 44.6686 69.3232 44.5493 69.3232 44.4016V44.244C69.3232 44.0963 69.4371 43.9771 69.5788 43.9771Z" fill="#F8B277"/>
<path d="M70.9547 24.9624C72.0358 24.9624 72.9064 26.0643 72.9064 27.4324V31.7924C72.9064 33.1605 72.0358 34.2624 70.9547 34.2624C69.8735 34.2624 69.0029 33.1605 69.0029 31.7924V27.4324C69.0029 26.0643 69.8735 24.9624 70.9547 24.9624Z" fill="#F8B277"/>
<path d="M74.2071 31.4608C74.2071 32.5513 73.4362 33.4281 72.479 33.4281H69.4307C68.4735 33.4281 67.7031 32.5513 67.7031 31.4608C67.7031 30.371 68.4735 29.4941 69.4307 29.4941H72.479C73.4362 29.4941 74.2071 30.371 74.2071 31.4608Z" fill="#F8B277"/>
<path d="M66.0356 36.2632C65.8091 36.2632 65.592 36.3505 65.4319 36.5053C65.2712 36.6601 65.1816 36.8709 65.1816 37.0903V37.713C65.1816 38.9419 65.547 40.0679 66.1928 40.9263C66.8392 41.7854 67.8166 42.3931 68.9345 42.3931H72.9002C74.0181 42.3931 74.9961 41.7854 75.6419 40.9263C76.2883 40.0679 76.6536 38.9419 76.6536 37.713V37.0903C76.6536 36.8709 76.5635 36.6601 76.4034 36.5053C76.2433 36.3505 76.0256 36.2632 75.7991 36.2632H66.0356Z" fill="white"/>
<path d="M61.3239 19.6113L66.8138 20.1474C67.411 20.2056 67.8522 20.8282 67.8036 21.5425C67.755 22.2574 67.2348 22.7856 66.6382 22.7274L61.1478 22.1914C60.5512 22.1332 60.1093 21.5112 60.158 20.7963C60.2066 20.0813 60.7267 19.5531 61.3239 19.6113Z" fill="#4D4D4D"/>
<path d="M59.464 20.7763L60.5439 19.918C60.9822 19.5701 61.5681 19.7121 61.8593 20.236C62.1499 20.7607 62.0313 21.4629 61.5936 21.8108L60.5131 22.6691C60.0754 23.017 59.4889 22.875 59.1983 22.351C58.9077 21.8264 59.0257 21.1242 59.464 20.7763Z" fill="#4D4D4D"/>
<path d="M80.5859 19.6113L75.096 20.1474C74.4988 20.2056 74.0576 20.8282 74.1062 21.5425C74.1548 22.2574 74.6749 22.7856 75.2715 22.7274L80.762 22.1914C81.3586 22.1332 81.8005 21.5112 81.7518 20.7963C81.7026 20.0813 81.1831 19.5531 80.5859 19.6113Z" fill="#4D4D4D"/>
<path d="M82.4441 20.7763L81.3641 19.918C80.9258 19.5701 80.3393 19.7121 80.0487 20.236C79.7581 20.7607 79.8767 21.4629 80.3144 21.8108L81.3949 22.6691C81.8326 23.017 82.4191 22.875 82.7097 22.351C83.0003 21.8264 82.8823 21.1242 82.4441 20.7763Z" fill="#4D4D4D"/>
<path d="M61.3239 19.6113L66.8138 20.1474C67.411 20.2056 67.8522 20.8282 67.8036 21.5425C67.755 22.2574 67.2348 22.7856 66.6382 22.7274L61.1478 22.1914C60.5512 22.1332 60.1093 21.5112 60.158 20.7963C60.2066 20.0813 60.7267 19.5531 61.3239 19.6113Z" fill="#4D4D4D"/>
<path d="M80.5859 19.6113L75.096 20.1474C74.4988 20.2056 74.0576 20.8282 74.1062 21.5425C74.1548 22.2574 74.6749 22.7856 75.2715 22.7274L80.762 22.1914C81.3586 22.1332 81.8005 21.5112 81.7518 20.7963C81.7026 20.0813 81.1831 19.5531 80.5859 19.6113Z" fill="#4D4D4D"/>
<path d="M63.145 24.4751H63.8632C64.5155 24.4751 65.0404 25.1041 65.0404 25.8844V27.8688C65.0404 28.649 64.5155 29.2774 63.8632 29.2774H63.145C62.4926 29.2774 61.9678 28.649 61.9678 27.8688V25.8844C61.9678 25.1041 62.4926 24.4751 63.145 24.4751Z" fill="#61534B"/>
<path d="M77.2431 24.4751H76.5249C75.8725 24.4751 75.3477 25.1041 75.3477 25.8844V27.8688C75.3477 28.649 75.8725 29.2774 76.5249 29.2774H77.2431C77.8954 29.2774 78.4203 28.649 78.4203 27.8688V25.8844C78.4203 25.1041 77.8954 24.4751 77.2431 24.4751Z" fill="#61534B"/>
<path d="M68.3159 0.0913086C59.4622 0.0913086 52.3343 8.62378 52.3343 19.2237C52.3343 22.9668 51.6214 22.9706 52.9379 25.4289C53.1365 25.7997 53.5286 26.0251 53.9492 26.0251C54.5967 26.0251 55.1217 25.5002 55.1217 24.8526V21.9145C55.1217 21.1195 55.2084 20.3231 55.3693 19.5343C56.2395 15.2695 60.794 13.256 65.1466 13.2471C67.1397 13.2426 72.461 13.656 75.3476 13.8934C76.6248 13.9985 77.9091 13.9007 79.1541 13.5966L79.9587 13.4001C80.3362 13.3079 80.7235 13.2613 81.1122 13.2613C82.6857 13.2613 84.2018 14.0025 84.9391 15.3925C86.0274 17.4443 86.7094 19.6848 86.7094 21.9145C86.7094 24.13 88.9788 24.5788 89.2817 22.3841C89.4235 21.3566 89.4973 20.3009 89.4973 19.2237C89.4973 8.62378 82.3689 0.0913086 73.5152 0.0913086H68.3159Z" fill="#444444"/>
</svg>
