<svg width="240" height="245" viewBox="0 0 240 245" fill="none" xmlns="http://www.w3.org/2000/svg">
<g clip-path="url(#clip0_2081_14342)">
<path d="M130.646 177.643H132.056C135.505 177.643 138.3 180.572 138.3 184.185L138.301 201.457L138.3 213.769L139.55 226.387C139.55 229.145 136.997 231.38 133.847 231.38H132.518C129.367 231.38 126.814 229.145 126.814 226.387V207.62C126.814 206.41 126.518 205.22 125.953 204.164C125.388 203.108 125.092 201.918 125.092 200.708V198.127C125.092 196.741 125.254 195.361 125.575 194.016L125.586 193.967C125.915 192.591 126.081 191.177 126.081 189.758V182.426C126.081 182.147 126.104 181.87 126.15 181.597C126.534 179.31 128.43 177.643 130.646 177.643Z" fill="#9D6B5A"/>
<path d="M132.531 131.631H136.129C138.153 131.631 139.97 132.934 140.702 134.911C140.844 135.293 140.94 135.691 140.992 136.096L143.65 157.111V166.231C143.65 167.414 143.556 168.596 143.369 169.763L142.758 173.568C142.408 175.753 141.69 177.855 140.639 179.777L138.855 183.036C138.472 183.735 138.271 184.527 138.271 185.333C138.271 187.882 136.299 189.949 133.865 189.949H130.822C128.216 189.949 126.102 187.734 126.102 185.002C126.102 184.408 125.999 183.818 125.799 183.261L125.16 181.478C124.884 180.71 124.667 179.92 124.511 179.116L123.538 174.093L122.603 167.692C122.448 166.625 122.369 165.547 122.369 164.468V142.279C122.369 136.398 126.919 131.631 132.531 131.631Z" fill="#9D6B5A"/>
<path d="M131.048 221.067H136.404C139.492 221.067 141.995 223.375 141.995 226.223C141.995 229.071 139.492 231.379 136.404 231.379H131.048C127.96 231.379 125.457 229.071 125.457 226.223C125.457 223.375 127.96 221.067 131.048 221.067Z" fill="#9D6B5A"/>
<path d="M127.308 223.189H140.144C141.166 223.189 141.995 224.298 141.995 225.665V228.903C141.995 230.271 141.166 231.379 140.144 231.379H127.308C126.286 231.379 125.457 230.271 125.457 228.903V225.665C125.457 224.298 126.286 223.189 127.308 223.189Z" fill="#9D6B5A"/>
<path d="M156.532 174.729L157.679 173.911C160.487 171.908 164.464 172.669 166.562 175.611L176.592 189.672L183.741 199.695L192.087 209.243C193.688 211.487 192.907 214.79 190.343 216.619L189.261 217.391C186.696 219.22 183.32 218.883 181.718 216.638L170.82 201.359C170.117 200.374 169.185 199.578 168.112 199.046C167.039 198.514 166.107 197.718 165.404 196.733L163.905 194.631C163.1 193.503 162.431 192.285 161.911 191.004L161.892 190.958C161.36 189.647 160.675 188.399 159.85 187.243L155.593 181.274C155.431 181.048 155.289 180.809 155.168 180.559C154.152 178.474 154.728 176.016 156.532 174.729Z" fill="#9D6B5A"/>
<path d="M131.347 136.176L134.276 134.086C135.924 132.911 138.16 132.917 139.905 134.101C140.241 134.329 140.551 134.597 140.828 134.897L155.196 150.462L160.492 157.887C161.179 158.85 161.788 159.867 162.314 160.925L164.026 164.378C165.01 166.361 165.647 168.489 165.906 170.664L166.346 174.353C166.441 175.144 166.737 175.905 167.205 176.562C168.686 178.637 168.28 181.465 166.299 182.878L163.821 184.646C161.699 186.159 158.692 185.584 157.106 183.359C156.76 182.875 156.334 182.455 155.848 182.118L154.292 181.038C153.622 180.573 152.986 180.055 152.392 179.491L148.684 175.967L144.205 171.298C143.459 170.52 142.769 169.688 142.143 168.81L129.257 150.745C125.842 145.958 126.778 139.435 131.347 136.176Z" fill="#9D6B5A"/>
<path d="M182.075 209.848L186.435 206.738C188.949 204.945 192.328 205.37 193.981 207.688C195.635 210.007 194.937 213.34 192.424 215.133L188.063 218.243C185.55 220.036 182.171 219.611 180.517 217.292C178.864 214.974 179.562 211.641 182.075 209.848Z" fill="#9D6B5A"/>
<path d="M180.263 213.747L190.712 206.294C191.544 205.7 192.864 206.122 193.657 207.234L195.538 209.87C196.332 210.984 196.3 212.368 195.468 212.961L185.019 220.415C184.187 221.008 182.868 220.588 182.074 219.474L180.194 216.838C179.4 215.725 179.431 214.341 180.263 213.747Z" fill="#9D6B5A"/>
<path d="M110.597 177.642H109.188C105.739 177.642 102.942 180.571 102.942 184.185V201.457V213.768L101.693 226.387C101.693 229.144 104.246 231.379 107.396 231.379H108.726C111.875 231.379 114.429 229.144 114.429 226.387V207.619C114.429 206.409 114.725 205.219 115.29 204.164C115.855 203.108 116.151 201.918 116.151 200.708V198.126C116.151 196.741 115.989 195.36 115.669 194.015L115.657 193.967C115.328 192.59 115.162 191.177 115.162 189.757V182.425C115.162 182.147 115.139 181.87 115.093 181.596C114.709 179.31 112.813 177.642 110.597 177.642Z" fill="#9D6B5A"/>
<path d="M109.6 131.63H104.006C101.974 131.63 100.327 133.356 100.327 135.485L97.5918 157.11V166.23C97.5918 167.413 97.6853 168.595 97.873 169.762L98.483 173.567C98.8338 175.753 99.5516 177.855 100.603 179.776L102.387 183.035C102.77 183.735 102.971 184.527 102.971 185.332C102.971 187.881 104.943 189.948 107.377 189.948H110.42C113.026 189.948 115.14 187.733 115.14 185.002C115.14 184.407 115.242 183.817 115.442 183.26L116.082 181.478C116.358 180.71 116.575 179.919 116.731 179.115L117.703 174.092L118.639 167.691C118.794 166.624 118.873 165.546 118.873 164.467V141.346C118.873 135.981 114.721 131.63 109.6 131.63Z" fill="#9D6B5A"/>
<path d="M110.194 221.067H104.839C101.751 221.067 99.248 223.375 99.248 226.222C99.248 229.07 101.751 231.379 104.839 231.379H110.194C113.283 231.379 115.785 229.07 115.785 226.222C115.785 223.375 113.283 221.067 110.194 221.067Z" fill="#9D6B5A"/>
<path d="M113.934 223.189H101.099C100.077 223.189 99.248 224.298 99.248 225.665V228.903C99.248 230.27 100.077 231.378 101.099 231.378H113.934C114.957 231.378 115.785 230.27 115.785 228.903V225.665C115.785 224.298 114.957 223.189 113.934 223.189Z" fill="#9D6B5A"/>
<path d="M83.9043 175.161L82.7425 174.362C79.9003 172.409 75.9368 173.239 73.89 176.217L64.1069 190.452L57.1338 200.598L48.9571 210.289C47.3952 212.562 48.2332 215.85 50.8289 217.634L51.9248 218.387C54.5204 220.171 57.8911 219.776 59.4529 217.503L70.0829 202.036C70.7684 201.039 71.6863 200.226 72.7497 199.676C73.8134 199.126 74.7313 198.313 75.4168 197.315L76.8788 195.188C77.6637 194.046 78.3122 192.817 78.8097 191.527L78.8277 191.48C79.3362 190.16 80.0003 188.901 80.8044 187.731L84.9573 181.689C85.1149 181.459 85.2527 181.218 85.37 180.966C86.3484 178.864 85.7304 176.416 83.9043 175.161Z" fill="#9D6B5A"/>
<path d="M109.144 136.676L104.534 133.508C102.86 132.357 100.525 132.846 99.3191 134.601L84.8161 150.873L79.6506 158.389C78.9804 159.364 78.3881 160.391 77.8818 161.459L76.2291 164.941C75.2805 166.941 74.6814 169.08 74.4597 171.259L74.0839 174.955C74.0029 175.748 73.7202 176.515 73.264 177.178C71.82 179.279 72.275 182.1 74.2802 183.478L76.7882 185.202C78.9364 186.678 81.9331 186.05 83.48 183.799C83.8172 183.309 84.2353 182.88 84.7154 182.535L86.2527 181.429C86.9154 180.952 87.5417 180.423 88.1257 179.849L91.7714 176.26L96.1684 171.514C96.9008 170.723 97.5761 169.879 98.1873 168.99L111.283 149.936C114.322 145.514 113.365 139.577 109.144 136.676Z" fill="#9D6B5A"/>
<path d="M58.9781 210.72L54.5648 207.686C52.0202 205.938 48.6497 206.422 47.0369 208.768C45.4237 211.116 46.1795 214.436 48.7241 216.185L53.1374 219.218C55.6826 220.967 59.0525 220.482 60.6657 218.135C62.2785 215.789 61.5232 212.469 58.9781 210.72Z" fill="#9D6B5A"/>
<path d="M60.8588 214.587L50.2817 207.317C49.4388 206.738 48.1278 207.182 47.3536 208.309L45.5196 210.977C44.745 212.104 44.8002 213.487 45.6431 214.066L56.2203 221.336C57.0632 221.915 58.3738 221.471 59.1484 220.344L60.9824 217.676C61.7566 216.549 61.7017 215.166 60.8588 214.587Z" fill="#9D6B5A"/>
<path d="M120.127 72.9712C120.947 72.9712 121.764 73.0212 122.573 73.1185C132.338 74.2922 141.04 82.3296 141.04 92.1319L139.507 102.627L136.516 120.694C136.516 131.309 130.835 132.876 120.127 132.876C109.419 132.876 104.407 131.309 104.407 120.694L100.799 102.627V92.1319C100.799 81.5167 109.419 72.9712 120.127 72.9712Z" fill="#9D6B5A"/>
<path d="M120.099 115.943H120.759C131.685 115.943 135.231 110.021 137.025 118.047L140.481 134.153C142.273 142.172 131.685 148.827 120.759 148.827H120.099C109.173 148.827 98.5855 142.172 100.377 134.153L104.197 118.047C105.991 110.021 109.173 115.943 120.099 115.943Z" fill="#9D6B5A"/>
<path d="M120.074 108.678C127.949 108.678 134.29 117.609 134.29 128.703H105.859C105.859 117.609 112.199 108.678 120.074 108.678Z" fill="#9D6B5A"/>
<path d="M99.3557 91.9097C100.032 88.5725 98.6144 84.5549 94.6312 83.8197L87.4384 81.5369C85.2235 80.8339 82.8788 80.5773 80.5544 80.7823L73.5812 81.3976C71.9906 81.5375 70.3872 81.3673 68.7899 81.3879C65.9918 81.4246 63.9397 82.6422 63.4066 85.2746C62.8234 88.1494 64.3235 90.0589 67.2959 91.0024C68.3047 91.3229 69.3405 91.5731 70.3284 91.9491L74.8123 93.6567C77.2786 94.5963 79.9429 94.9671 82.5882 94.7401L86.6897 94.3874C87.7573 94.2958 88.8297 94.3068 89.9 94.3525C92.8426 94.4783 98.8469 94.4209 99.3557 91.9097Z" fill="#9D6B5A"/>
<path d="M76.5906 86.6849L76.5919 86.6423C76.6805 83.9067 73.4986 81.5349 69.4856 81.344L39.3496 79.9111C35.336 79.7202 32.0108 81.7825 31.9223 84.5181L31.921 84.5606C31.8325 87.2962 35.0143 89.6681 39.0279 89.859L69.164 91.2919C73.1777 91.4828 76.5028 89.4204 76.5906 86.6849Z" fill="#9D6B5A"/>
<path d="M45.5406 86.6248L45.5507 84.9055C45.569 81.6108 41.8229 78.785 37.1836 78.5928L33.0618 78.4226C28.4225 78.2304 24.6467 80.7454 24.6284 84.0401L24.6183 85.7587C24.6001 89.0534 28.3461 91.8792 32.9855 92.0714L37.1072 92.2423C41.7465 92.4338 45.5223 89.9188 45.5406 86.6248Z" fill="#9D6B5A"/>
<path d="M33.8168 87.0496C36.7675 86.3332 38.2615 83.8059 37.154 81.4057C36.0466 79.0054 32.7566 77.6402 29.8065 78.3567L21.7482 80.3145C18.7981 81.031 17.3041 83.5583 18.4116 85.9585C19.519 88.3594 22.8083 89.724 25.7591 89.0075L33.8168 87.0496Z" fill="#9D6B5A"/>
<path d="M35.3921 92.6686C37.4489 92.7492 39.1233 91.6491 39.1328 90.2104C39.1422 88.7723 37.482 87.5406 35.4252 87.4593L29.8082 87.2381C27.7513 87.1569 26.0763 88.2577 26.0668 89.6964C26.058 91.1345 27.7176 92.3662 29.7744 92.4474L35.3921 92.6686Z" fill="#8E6051"/>
<path d="M95.6366 92.1732C98.1727 89.883 99.2519 85.7179 96.1558 82.6064L91.1197 76.2101C89.5688 74.2404 87.6441 72.5523 85.4691 71.2528L78.9443 67.3544C77.4562 66.4648 76.1369 65.3146 74.7121 64.3237C72.216 62.5884 69.6939 62.2849 67.6938 64.0917C65.5085 66.0643 65.7264 68.5652 67.8076 71.2085C68.5137 72.1059 69.2846 72.9631 69.94 73.8924L72.9143 78.1114C74.55 80.4323 76.6911 82.415 79.1627 83.8992L82.9952 86.1995C83.9926 86.7985 84.9347 87.484 85.8547 88.1965C88.3844 90.1553 93.7283 93.8966 95.6366 92.1732Z" fill="#9D6B5A"/>
<path d="M80.1968 74.7404L80.2228 74.7067C81.9007 72.5433 80.0671 68.322 76.1283 65.278L46.5489 42.4191C42.6094 39.3747 38.0563 38.6602 36.3784 40.8235L36.3523 40.8572C34.6745 43.0206 36.508 47.2419 40.4475 50.2864L70.027 73.1453C73.9665 76.1898 78.5196 76.9042 80.1968 74.7404Z" fill="#9D6B5A"/>
<path d="M48.8925 52.3411L49.9011 50.9487C51.8328 48.2796 49.6935 43.2826 45.1233 39.7866L41.0627 36.6811C36.4926 33.1852 31.2218 32.5149 29.2902 35.184L28.2819 36.5759C26.3503 39.245 28.4896 44.242 33.0598 47.7379L37.1199 50.844C41.6905 54.3393 46.9613 55.0097 48.8925 52.3411Z" fill="#9D6B5A"/>
<path d="M36.8195 44.2488C40.2133 45.7895 43.1885 44.8074 43.4647 42.0561C43.741 39.3049 41.2137 35.8253 37.8206 34.285L28.5516 30.0784C25.1585 28.5382 22.1833 29.5203 21.9071 32.2716C21.6305 35.0233 24.1574 38.5019 27.5512 40.0427L36.8195 44.2488Z" fill="#9D6B5A"/>
<path d="M35.1472 49.9572C37.1761 51.5034 39.5046 51.813 40.3496 50.6485C41.1943 49.4846 40.2342 47.2868 38.2057 45.7401L32.6658 41.5168C30.6373 39.9701 28.3077 39.6605 27.4627 40.825C26.6187 41.9895 27.5782 44.1868 29.6066 45.7334L35.1472 49.9572Z" fill="#8E6051"/>
<path d="M139.17 91.5913C138.522 88.2483 139.975 84.2425 143.964 83.5422L151.177 81.3228C153.398 80.6392 155.745 80.4024 158.067 80.6277L165.035 81.3038C166.624 81.4582 168.229 81.302 169.826 81.3366C172.624 81.3977 174.665 82.6331 175.175 85.2701C175.733 88.1493 174.217 90.0456 171.236 90.9637C170.224 91.2754 169.187 91.516 168.195 91.8833L163.697 93.5524C161.222 94.4704 158.555 94.8179 155.912 94.5679L151.813 94.1793C150.747 94.0785 149.674 94.0794 148.604 94.1159C145.66 94.2159 139.656 94.1068 139.17 91.5913Z" fill="#9D6B5A"/>
<path d="M161.979 86.5649L161.978 86.5217C161.913 83.7861 165.116 81.4421 169.13 81.2862L199.278 80.1157C203.293 79.9605 206.6 82.0517 206.664 84.788L206.665 84.8306C206.73 87.5662 203.528 89.9108 199.513 90.0667L169.365 91.2365C165.35 91.3924 162.043 89.3005 161.979 86.5649Z" fill="#9D6B5A"/>
<path d="M193.03 86.7763L193.035 85.0576C193.045 81.7629 196.816 78.9692 201.457 78.8182L205.58 78.6832C210.221 78.5322 213.974 81.0801 213.964 84.3742L213.959 86.0934C213.949 89.3882 210.178 92.1812 205.537 92.3329L201.414 92.4672C196.773 92.6189 193.02 90.071 193.03 86.7763Z" fill="#906253"/>
<path d="M204.749 87.303C201.804 86.5608 200.332 84.0205 201.461 81.6301C202.589 79.2389 205.891 77.9031 208.835 78.6453L216.876 80.6734C219.819 81.4156 221.291 83.9558 220.163 86.3463C219.034 88.7368 215.733 90.0732 212.789 89.331L204.749 87.303Z" fill="#906253"/>
<path d="M203.123 92.9087C201.066 92.9714 199.401 91.8567 199.404 90.4179C199.407 88.9791 201.078 87.762 203.136 87.6993L208.755 87.5271C210.812 87.4638 212.477 88.5792 212.474 90.0173C212.471 91.4561 210.8 92.6733 208.743 92.7366L203.123 92.9087Z" fill="#9D6B5A"/>
<path d="M145.678 90.5482C143.221 88.1948 142.055 84.1062 144.831 81.2644L149.298 75.3507C150.673 73.5296 152.409 72.0005 154.393 70.8616L160.345 67.4448C161.703 66.6657 162.893 65.6247 164.187 64.7435C166.455 63.2003 168.801 63.0439 170.739 64.9005C172.856 66.927 172.747 69.3346 170.901 71.7792C170.275 72.609 169.587 73.3958 169.009 74.2592L166.388 78.1797C164.947 80.336 163.02 82.1377 160.766 83.4392L157.27 85.4563C156.36 85.9815 155.505 86.5929 154.672 87.2322C152.381 88.9897 147.527 92.3191 145.678 90.5482Z" fill="#9D6B5A"/>
<path d="M157.744 75.7206L157.718 75.6862C156.057 73.5107 158.021 69.2401 162.104 66.148L192.767 42.9277C196.851 39.8357 201.508 39.0926 203.169 41.2687L203.195 41.3026C204.856 43.4781 202.893 47.7493 198.809 50.8418L168.146 74.0616C164.062 77.1541 159.405 77.8967 157.744 75.7206Z" fill="#9D6B5A"/>
<path d="M190.152 52.9577L189.155 51.5573C187.247 48.8718 189.539 43.816 194.276 40.2652L198.485 37.11C203.222 33.5592 208.609 32.8572 210.517 35.5422L211.514 36.9431C213.423 39.6286 211.13 44.6838 206.393 48.2351L202.185 51.3899C197.448 54.9412 192.061 55.6432 190.152 52.9577Z" fill="#906253"/>
<path d="M202.642 44.7293C199.148 46.301 196.138 45.3237 195.918 42.5474C195.698 39.7705 198.353 36.246 201.846 34.6747L211.388 30.3834C214.881 28.8122 217.891 29.7895 218.111 32.5658C218.331 35.3421 215.677 38.8667 212.183 40.4385L202.642 44.7293Z" fill="#906253"/>
<path d="M204.22 50.4853C202.118 52.056 199.737 52.3797 198.902 51.2081C198.067 50.0365 199.095 47.813 201.198 46.2423L206.939 41.9519C209.042 40.3807 211.423 40.0571 212.258 41.2281C213.092 42.4003 212.065 44.6232 209.963 46.1945L204.22 50.4853Z" fill="#9D6B5A"/>
<path d="M95.3419 78.8824H145.173C150.111 78.8824 154.087 82.1705 154.087 86.2553C154.087 90.34 150.111 93.6281 145.173 93.6281H95.3419C90.4034 93.6281 86.4277 90.34 86.4277 86.2553C86.4277 82.1705 90.4034 78.8824 95.3419 78.8824Z" fill="#9D6B5A"/>
<path d="M112.441 77.8503H127.98C136.662 77.8503 143.652 84.5343 143.652 92.8373C143.652 101.14 136.662 107.824 127.98 107.824H112.441C103.759 107.824 96.7695 101.14 96.7695 92.8373C96.7695 84.5343 103.759 77.8503 112.441 77.8503Z" fill="#9D6B5A"/>
<path d="M120.625 96.2913C122.646 96.2913 124.274 97.9974 124.274 100.116V103.662C124.274 105.781 122.646 107.487 120.625 107.487C118.602 107.487 116.975 105.781 116.975 103.662V100.116C116.975 97.9974 118.602 96.2913 120.625 96.2913Z" fill="#815848" fill-opacity="0.99"/>
<path d="M110.462 91.2782C109.386 91.2782 108.387 91.5404 107.555 91.9897C104.79 92.1357 102.198 93.1154 100.305 94.7297C98.4113 96.3439 97.3574 98.4723 97.3574 100.684C97.3574 102.995 98.5077 105.212 100.556 106.846C102.603 108.48 105.381 109.398 108.277 109.398C110.915 109.396 113.462 108.631 115.449 107.246C117.435 105.86 118.727 103.948 119.084 101.862C119.157 101.576 119.196 101.279 119.196 100.975V95.5594C119.196 93.1877 116.85 91.2782 113.936 91.2782H110.462ZM126.636 91.2782C123.722 91.2782 121.375 93.1877 121.375 95.5594V100.975C121.375 101.279 121.415 101.576 121.488 101.862C121.845 103.948 123.137 105.86 125.123 107.246C127.109 108.631 129.657 109.396 132.295 109.398C135.191 109.398 137.968 108.48 140.016 106.846C142.064 105.212 143.215 102.995 143.215 100.684C143.214 98.4723 142.161 96.3439 140.266 94.7297C138.373 93.1154 135.782 92.1357 133.017 91.9897C132.185 91.5404 131.186 91.2782 130.109 91.2782H126.636Z" fill="#9D6B5A"/>
<path d="M112.465 78.3947H128.027C136.723 78.3947 143.723 84.9663 143.723 93.1289C143.723 101.292 143.419 112.036 128.349 110.086H112.465C96.8927 111.883 96.7695 101.292 96.7695 93.1289C96.7695 84.9663 103.77 78.3947 112.465 78.3947Z" fill="#4B4B4B"/>
<path d="M120.162 73.5984C121.035 73.5984 121.906 73.6471 122.768 73.7431C133.168 74.8966 142.436 82.799 142.436 92.4357L140.804 102.753H99.5762V92.4357C99.5762 81.9999 108.758 73.5984 120.162 73.5984Z" fill="#4B4B4B" fill-opacity="0.99"/>
<path d="M117.095 111.995H114.664C113.554 111.995 112.654 112.688 112.654 113.544V115.339C112.654 116.195 113.554 116.889 114.664 116.889H117.095C118.205 116.889 119.105 116.195 119.105 115.339V113.544C119.105 112.688 118.205 111.995 117.095 111.995Z" fill="#815848"/>
<path d="M117.093 117.415H113.391C112.28 117.415 111.381 118.109 111.381 118.965V120.759C111.381 121.616 112.28 122.309 113.391 122.309H117.093C118.204 122.309 119.103 121.616 119.103 120.759V118.965C119.103 118.109 118.204 117.415 117.093 117.415Z" fill="#815848"/>
<path d="M117.093 122.723H113.391C112.28 122.723 111.381 123.417 111.381 124.273V126.067C111.381 126.923 112.28 127.617 113.391 127.617H117.093C118.204 127.617 119.103 126.923 119.103 126.067V124.273C119.103 123.417 118.204 122.723 117.093 122.723Z" fill="#815848"/>
<path d="M123.041 111.995H125.472C126.582 111.995 127.482 112.688 127.482 113.544V115.339C127.482 116.195 126.582 116.889 125.472 116.889H123.041C121.931 116.889 121.031 116.195 121.031 115.339V113.544C121.031 112.688 121.931 111.995 123.041 111.995Z" fill="#815848"/>
<path d="M123.041 117.415H126.744C127.854 117.415 128.754 118.109 128.754 118.965V120.759C128.754 121.616 127.854 122.309 126.744 122.309H123.041C121.931 122.309 121.031 121.616 121.031 120.759V118.965C121.031 118.109 121.931 117.415 123.041 117.415Z" fill="#815848"/>
<path d="M123.041 122.723H126.744C127.854 122.723 128.754 123.417 128.754 124.273V126.067C128.754 126.923 127.854 127.617 126.744 127.617H123.041C121.931 127.617 121.031 126.923 121.031 126.067V124.273C121.031 123.417 121.931 122.723 123.041 122.723Z" fill="#815848"/>
<path d="M120.342 53.2389C125.843 53.2389 130.273 59.9046 130.273 68.1853V74.3172C130.273 82.5979 125.843 89.2643 120.342 89.2643C114.839 89.2643 110.41 82.5979 110.41 74.3172V68.1853C110.41 59.9046 114.839 53.2389 120.342 53.2389Z" fill="#9D6B5A"/>
<path d="M118.845 54.3586H121.837C125.281 54.3586 128.054 58.2358 128.054 63.0522V66.6185C128.054 71.4348 125.281 75.312 121.837 75.312H118.845C115.4 75.312 112.627 71.4348 112.627 66.6185V63.0522C112.627 58.2358 115.4 54.3586 118.845 54.3586Z" fill="#815848"/>
<path d="M112.483 80.3939C112.03 80.3939 111.666 80.7702 111.666 81.2375C111.666 81.7048 112.03 82.0805 112.483 82.0805H117.026L118.33 83.0619C118.697 83.3381 119.207 83.2555 119.475 82.8768C119.742 82.498 119.662 81.971 119.295 81.6948L117.945 80.6786C117.931 80.6681 117.916 80.6622 117.901 80.6527C117.753 80.4935 117.545 80.3939 117.314 80.3939H112.483ZM123.107 80.3939C122.875 80.3939 122.668 80.4935 122.52 80.6527C122.505 80.6622 122.49 80.6681 122.476 80.6786L121.126 81.6948C120.759 81.971 120.679 82.498 120.946 82.8768C121.214 83.2555 121.724 83.3381 122.091 83.0619L123.395 82.0805H127.938C128.39 82.0805 128.755 81.7048 128.755 81.2375C128.755 80.7702 128.39 80.3939 127.938 80.3939H123.107Z" fill="#815747"/>
<path d="M105.128 46.2113H136.177C139.738 46.2113 142.605 49.0783 142.605 52.6392C142.605 56.2001 139.738 59.0664 136.177 59.0664H105.128C101.567 59.0664 98.7012 56.2001 98.7012 52.6392C98.7012 49.0783 101.567 46.2113 105.128 46.2113Z" fill="#8E6051"/>
<path d="M105.354 47.8457H135.95C138.606 47.8457 140.744 49.9836 140.744 52.6391C140.744 55.2946 138.606 57.4325 135.95 57.4325H105.354C102.698 57.4325 100.561 55.2946 100.561 52.6391C100.561 49.9836 102.698 47.8457 105.354 47.8457Z" fill="#815848"/>
<path d="M117.162 28.1455H124.142C129.942 28.1455 139.117 36.3356 139.117 44.3899V55.818C139.117 63.8723 130.518 72.6874 124.358 72.6874H116.947C110.786 72.6874 102.188 63.8723 102.188 55.818V44.3899C102.188 36.3356 111.361 28.1455 117.162 28.1455Z" fill="#9D6B5A"/>
<path d="M119.082 68.348H121.092C121.253 68.348 121.383 68.4615 121.383 68.6021V68.7521C121.383 68.8926 121.253 69.0062 121.092 69.0062H119.082C118.921 69.0062 118.791 68.8926 118.791 68.7521V68.6021C118.791 68.4615 118.921 68.348 119.082 68.348Z" fill="#815848"/>
<path d="M120.649 50.2516C121.881 50.2516 122.873 51.3003 122.873 52.6023V56.7518C122.873 58.0538 121.881 59.1025 120.649 59.1025C119.418 59.1025 118.426 58.0538 118.426 56.7518V52.6023C118.426 51.3003 119.418 50.2516 120.649 50.2516Z" fill="#8E6051"/>
<path d="M124.356 56.4361C124.356 57.474 123.477 58.3085 122.387 58.3085H118.914C117.823 58.3085 116.945 57.474 116.945 56.4361C116.945 55.3989 117.823 54.5645 118.914 54.5645H122.387C123.477 54.5645 124.356 55.3989 124.356 56.4361Z" fill="#8E6051"/>
<path d="M115.043 61.0065C114.785 61.0065 114.538 61.0896 114.355 61.2369C114.172 61.3842 114.07 61.5849 114.07 61.7937V62.3862C114.07 63.5559 114.487 64.6275 115.222 65.4444C115.959 66.262 117.072 66.8404 118.346 66.8404H122.865C124.138 66.8404 125.252 66.262 125.988 65.4444C126.725 64.6275 127.141 63.5559 127.141 62.3862V61.7937C127.141 61.5849 127.038 61.3842 126.856 61.2369C126.673 61.0896 126.425 61.0065 126.167 61.0065H115.043Z" fill="white"/>
<path d="M109.676 45.1588L115.931 45.669C116.612 45.7244 117.114 46.317 117.059 46.9967C117.004 47.6772 116.411 48.1799 115.731 48.1245L109.476 47.6143C108.796 47.5589 108.293 46.967 108.348 46.2866C108.403 45.6061 108.996 45.1034 109.676 45.1588Z" fill="#4D4D4D"/>
<path d="M107.558 46.2676L108.789 45.4506C109.288 45.1195 109.956 45.2547 110.287 45.7534C110.619 46.2527 110.483 46.921 109.985 47.252L108.754 48.069C108.255 48.4001 107.587 48.2649 107.256 47.7663C106.925 47.2669 107.059 46.5986 107.558 46.2676Z" fill="#4D4D4D"/>
<path d="M131.625 45.1588L125.37 45.669C124.69 45.7244 124.187 46.317 124.242 46.9967C124.298 47.6772 124.89 48.1799 125.57 48.1245L131.826 47.6143C132.506 47.5589 133.009 46.967 132.954 46.2866C132.897 45.6061 132.306 45.1034 131.625 45.1588Z" fill="#4D4D4D"/>
<path d="M133.74 46.2676L132.51 45.4506C132.011 45.1195 131.342 45.2547 131.011 45.7534C130.68 46.2527 130.815 46.921 131.314 47.252L132.545 48.069C133.044 48.4001 133.712 48.2649 134.043 47.7663C134.374 47.2669 134.24 46.5986 133.74 46.2676Z" fill="#4D4D4D"/>
<path d="M109.676 45.1588L115.931 45.669C116.612 45.7244 117.114 46.317 117.059 46.9967C117.004 47.6772 116.411 48.1799 115.731 48.1245L109.476 47.6143C108.796 47.5589 108.293 46.967 108.348 46.2866C108.403 45.6061 108.996 45.1034 109.676 45.1588Z" fill="#4D4D4D"/>
<path d="M131.625 45.1588L125.37 45.669C124.69 45.7244 124.187 46.317 124.242 46.9967C124.298 47.6772 124.89 48.1799 125.57 48.1245L131.826 47.6143C132.506 47.5589 133.009 46.967 132.954 46.2866C132.897 45.6061 132.306 45.1034 131.625 45.1588Z" fill="#4D4D4D"/>
<path d="M112.619 48.5981H113.437C114.18 48.5981 114.778 49.1968 114.778 49.9394V51.828C114.778 52.5706 114.18 53.1686 113.437 53.1686H112.619C111.875 53.1686 111.277 52.5706 111.277 51.828V49.9394C111.277 49.1968 111.875 48.5981 112.619 48.5981Z" fill="#61534B"/>
<path d="M128.681 48.5981H127.863C127.119 48.5981 126.521 49.1968 126.521 49.9394V51.828C126.521 52.5706 127.119 53.1686 127.863 53.1686H128.681C129.424 53.1686 130.022 52.5706 130.022 51.828V49.9394C130.022 49.1968 129.424 48.5981 128.681 48.5981Z" fill="#61534B"/>
<path d="M117.701 26.2926C107.613 26.2926 99.4922 34.4131 99.4922 44.5013C99.4922 48.3304 100.665 51.8745 102.668 54.8009V47.0622C102.668 44.1769 104.104 41.2728 106.188 38.8268L114.09 38.8133C117.273 38.8072 119.835 36.2503 119.835 33.0678C119.835 32.8827 119.825 32.6996 119.808 32.5191H121.5C121.483 32.6996 121.473 32.8827 121.473 33.0678C121.473 36.2503 124.034 38.8072 127.217 38.8133L135.138 38.8268C137.221 41.2728 138.658 44.1769 138.658 47.0622V54.8009C140.661 51.8745 141.834 48.3304 141.834 44.5013C141.834 34.4131 133.712 26.2926 123.625 26.2926H117.701Z" fill="#444444"/>
<path d="M126.185 22.2128H115.113C112.284 22.2128 109.99 24.5061 109.99 27.3359V29.9427C109.99 32.7726 112.284 35.0665 115.113 35.0665H126.185C129.014 35.0665 131.308 32.7726 131.308 29.9427V27.3359C131.308 24.5061 129.014 22.2128 126.185 22.2128Z" fill="#3B3B3B"/>
<path d="M101.559 129.122C102.601 144.482 110.606 156.371 120.209 156.371C129.937 156.371 138.512 144.771 139.389 129.122H101.559Z" fill="#4F4F4F"/>
<path d="M139.406 129.119L120.867 132.132L120.711 156.307L122.451 166.901H143.696C143.827 147.302 143.609 140.682 139.406 129.119Z" fill="#4B4B4B"/>
<path d="M139.294 128.873L124.745 140.751L136.697 161.765L143.501 170.07L161.9 159.447C152.214 142.409 148.715 136.784 139.294 128.873Z" fill="#4B4B4B"/>
<path d="M101.558 129.111L116.106 140.99L104.154 162.003L97.3505 170.308L78.9513 159.685C88.6378 142.647 92.1362 137.023 101.558 129.111Z" fill="#4B4B4B"/>
<path d="M101.569 129.098L120.547 132.121V156.305L118.777 166.899H97.58C97.4452 147.235 97.2427 140.698 101.569 129.098Z" fill="#4B4B4B"/>
</g>
<circle cx="119.926" cy="125.434" r="117.371" stroke="black" stroke-width="4.21229"/>
<rect x="13.8345" y="22.5544" width="211.275" height="211.275" stroke="black" stroke-width="4.45026"/>
<defs>
<clipPath id="clip0_2081_14342">
<rect width="231.088" height="231.088" fill="white" transform="translate(7.30078 0.776855)"/>
</clipPath>
</defs>
</svg>
