<svg width="246" height="246" viewBox="0 0 246 246" fill="none" xmlns="http://www.w3.org/2000/svg">
<g clip-path="url(#clip0_2298_4691)">
<path d="M133.812 172.906H135.26C138.805 172.906 141.678 175.852 141.678 179.487L141.678 196.86L141.678 209.244L142.962 221.937C142.962 224.711 140.338 226.959 137.101 226.959H135.735C132.497 226.959 129.874 224.711 129.874 221.937V203.059C129.874 201.842 129.569 200.645 128.989 199.583C128.408 198.521 128.104 197.324 128.104 196.107V193.511C128.104 192.117 128.271 190.728 128.6 189.376L128.612 189.327C128.949 187.942 129.12 186.52 129.12 185.092V177.717C129.12 177.437 129.144 177.158 129.191 176.883C129.586 174.583 131.534 172.906 133.812 172.906Z" fill="#9D6B5A"/>
<path d="M135.748 126.624H139.445C141.526 126.624 143.393 127.935 144.146 129.923C144.291 130.307 144.39 130.707 144.443 131.115L147.175 152.253V161.427C147.175 162.617 147.078 163.806 146.886 164.979L146.258 168.807C145.898 171.005 145.161 173.12 144.08 175.053L142.247 178.331C141.854 179.034 141.647 179.83 141.647 180.641C141.647 183.205 139.62 185.284 137.119 185.284H133.992C131.313 185.284 129.141 183.056 129.141 180.309C129.141 179.71 129.035 179.117 128.83 178.557L128.172 176.764C127.889 175.991 127.666 175.196 127.506 174.387L126.506 169.335L125.545 162.896C125.386 161.823 125.305 160.739 125.305 159.653V137.334C125.305 131.419 129.98 126.624 135.748 126.624Z" fill="#9D6B5A"/>
<path d="M134.224 216.585H139.728C142.902 216.585 145.474 218.907 145.474 221.771C145.474 224.636 142.902 226.958 139.728 226.958H134.224C131.051 226.958 128.479 224.636 128.479 221.771C128.479 218.907 131.051 216.585 134.224 216.585Z" fill="#9D6B5A"/>
<path d="M130.381 218.72H143.572C144.622 218.72 145.474 219.836 145.474 221.211V224.467C145.474 225.843 144.622 226.958 143.572 226.958H130.381C129.331 226.958 128.479 225.843 128.479 224.467V221.211C128.479 219.836 129.331 218.72 130.381 218.72Z" fill="#9D6B5A"/>
<path d="M160.387 169.945L161.561 169.126C164.432 167.123 168.51 167.901 170.671 170.864L180.998 185.023L188.359 195.117L196.944 204.736C198.593 206.997 197.804 210.312 195.182 212.141L194.076 212.913C191.453 214.742 187.992 214.393 186.343 212.132L175.122 196.746C174.398 195.754 173.44 194.951 172.339 194.413C171.237 193.875 170.279 193.072 169.555 192.08L168.012 189.964C167.183 188.828 166.493 187.601 165.956 186.313L165.936 186.266C165.387 184.947 164.68 183.692 163.831 182.528L159.447 176.517C159.281 176.289 159.134 176.048 159.009 175.797C157.961 173.699 158.543 171.231 160.387 169.945Z" fill="#9D6B5A"/>
<path d="M134.49 131.159L137.486 129.069C139.172 127.893 141.465 127.907 143.258 129.103C143.603 129.333 143.922 129.603 144.207 129.906L158.992 145.596L164.447 153.075C165.155 154.045 165.784 155.069 166.326 156.134L168.094 159.61C169.109 161.605 169.769 163.746 170.042 165.933L170.506 169.642C170.606 170.437 170.912 171.203 171.394 171.864C172.919 173.955 172.513 176.796 170.487 178.209L167.952 179.977C165.781 181.491 162.696 180.903 161.062 178.662C160.706 178.175 160.268 177.751 159.768 177.41L158.169 176.32C157.48 175.85 156.827 175.328 156.216 174.759L152.401 171.205L147.793 166.499C147.026 165.714 146.315 164.876 145.67 163.991L132.397 145.794C128.879 140.971 129.816 134.419 134.49 131.159Z" fill="#9D6B5A"/>
<path d="M186.654 205.279L191.124 202.161C193.702 200.363 197.176 200.804 198.884 203.145C200.592 205.486 199.887 208.841 197.31 210.638L192.839 213.756C190.261 215.553 186.787 215.113 185.079 212.772C183.371 210.431 184.076 207.076 186.654 205.279Z" fill="#9D6B5A"/>
<path d="M184.798 209.197L195.516 201.722C196.369 201.127 197.727 201.556 198.547 202.68L200.49 205.343C201.311 206.468 201.283 207.863 200.43 208.458L189.712 215.932C188.858 216.528 187.501 216.099 186.68 214.974L184.737 212.311C183.917 211.187 183.944 209.792 184.798 209.197Z" fill="#9D6B5A"/>
<path d="M113.207 172.905H111.758C108.214 172.905 105.34 175.851 105.34 179.486V196.86V209.244L104.057 221.936C104.057 224.71 106.68 226.958 109.917 226.958H111.284C114.521 226.958 117.145 224.71 117.145 221.936V203.059C117.145 201.841 117.449 200.644 118.03 199.583C118.61 198.52 118.914 197.323 118.914 196.106V193.51C118.914 192.116 118.748 190.727 118.419 189.375L118.407 189.326C118.069 187.941 117.898 186.519 117.898 185.091V177.716C117.898 177.436 117.875 177.158 117.828 176.882C117.433 174.582 115.484 172.905 113.207 172.905Z" fill="#9D6B5A"/>
<path d="M112.183 126.623H106.433C104.346 126.623 102.653 128.359 102.653 130.501L99.8418 152.253V161.426C99.8418 162.616 99.9379 163.805 100.131 164.979L100.758 168.807C101.118 171.005 101.856 173.119 102.937 175.052L104.77 178.33C105.163 179.034 105.37 179.83 105.37 180.64C105.37 183.205 107.397 185.284 109.897 185.284H113.025C115.704 185.284 117.876 183.056 117.876 180.309C117.876 179.71 117.981 179.117 118.186 178.557L118.844 176.764C119.128 175.991 119.351 175.196 119.511 174.387L120.51 169.335L121.471 162.896C121.631 161.822 121.712 160.738 121.712 159.653V136.396C121.712 130.999 117.445 126.623 112.183 126.623Z" fill="#9D6B5A"/>
<path d="M112.794 216.585H107.291C104.118 216.585 101.545 218.907 101.545 221.771C101.545 224.636 104.118 226.958 107.291 226.958H112.794C115.968 226.958 118.54 224.636 118.54 221.771C118.54 218.907 115.968 216.585 112.794 216.585Z" fill="#9D6B5A"/>
<path d="M116.637 218.72H103.448C102.397 218.72 101.545 219.835 101.545 221.21V224.467C101.545 225.843 102.397 226.958 103.448 226.958H116.637C117.688 226.958 118.54 225.843 118.54 224.467V221.21C118.54 219.835 117.688 218.72 116.637 218.72Z" fill="#9D6B5A"/>
<path d="M85.8002 170.376L84.6129 169.579C81.708 167.626 77.6442 168.475 75.5362 171.474L65.4606 185.809L58.2789 196.027L49.8658 205.793C48.2572 208.081 49.1037 211.382 51.7565 213.165L52.8765 213.917C55.5293 215.7 58.9841 215.29 60.5927 213.002L71.5406 197.426C72.2466 196.421 73.19 195.601 74.2815 195.045C75.3734 194.488 76.3168 193.668 77.0228 192.664L78.5285 190.521C79.3369 189.371 80.0059 188.134 80.5203 186.836L80.5389 186.79C81.0648 185.461 81.7498 184.194 82.5779 183.016L86.855 176.93C87.0174 176.699 87.1595 176.456 87.2805 176.203C88.2907 174.088 87.6666 171.631 85.8002 170.376Z" fill="#9D6B5A"/>
<path d="M111.752 131.657L107.038 128.489C105.326 127.339 102.931 127.839 101.688 129.606L86.7618 146.011L81.4391 153.583C80.7486 154.565 80.1376 155.6 79.6147 156.675L77.9077 160.18C76.928 162.193 76.306 164.344 76.0708 166.535L75.6719 170.251C75.586 171.048 75.2934 171.82 74.8233 172.488C73.3354 174.605 73.7914 177.438 75.8418 178.816L78.4062 180.539C80.6028 182.015 83.6769 181.373 85.2709 179.105C85.6184 178.611 86.0485 178.179 86.5419 177.83L88.1219 176.713C88.8029 176.231 89.4469 175.698 90.0477 175.118L93.7979 171.499L98.3226 166.714C99.0763 165.916 99.7716 165.066 100.401 164.17L113.896 144.974C117.027 140.519 116.068 134.556 111.752 131.657Z" fill="#9D6B5A"/>
<path d="M60.1679 206.153L55.6436 203.114C53.035 201.361 49.5687 201.862 47.9017 204.233C46.2344 206.604 46.9982 209.946 49.6069 211.699L54.1312 214.738C56.7404 216.49 60.2062 215.989 61.8735 213.618C63.5404 211.248 62.7772 207.906 60.1679 206.153Z" fill="#9D6B5A"/>
<path d="M62.0919 210.038L51.2445 202.751C50.3801 202.17 49.0303 202.623 48.2298 203.762L46.3335 206.459C45.5326 207.598 45.584 208.991 46.4484 209.572L57.2958 216.859C58.1602 217.44 59.5096 216.987 60.3105 215.848L62.2068 213.151C63.0073 212.013 62.9563 210.619 62.0919 210.038Z" fill="#9D6B5A"/>
<path d="M123 67.6189C123.843 67.6189 124.682 67.6692 125.514 67.7671C135.549 68.9476 144.492 77.0323 144.492 86.8923L142.917 97.4489L139.843 115.623C139.843 126.3 134.005 127.876 123 127.876C111.996 127.876 106.845 126.3 106.845 115.623L103.137 97.4489V86.8923C103.137 76.2147 111.996 67.6189 123 67.6189Z" fill="#9D6B5A"/>
<path d="M122.971 110.843H123.649C134.878 110.843 138.522 104.887 140.365 112.96L143.918 129.161C145.759 137.227 134.878 143.921 123.649 143.921H122.971C111.743 143.921 100.862 137.227 102.703 129.161L106.629 112.96C108.472 104.887 111.743 110.843 122.971 110.843Z" fill="#9D6B5A"/>
<path d="M122.947 103.536C131.039 103.536 137.555 112.52 137.555 123.678H108.338C108.338 112.52 114.853 103.536 122.947 103.536Z" fill="#9D6B5A"/>
<path d="M101.654 86.6687C102.349 83.3118 100.892 79.2706 96.7986 78.5311L89.4067 76.2348C87.1304 75.5278 84.7209 75.2696 82.3321 75.4759L75.1659 76.0947C73.5312 76.2355 71.8834 76.0642 70.2418 76.085C67.3663 76.1219 65.2574 77.3466 64.7095 79.9945C64.1102 82.8863 65.6518 84.807 68.7065 85.756C69.7432 86.0784 70.8078 86.3301 71.823 86.7083L76.4311 88.4259C78.9656 89.371 81.7037 89.744 84.4223 89.5157L88.6373 89.1609C89.7345 89.0688 90.8365 89.0798 91.9364 89.1258C94.9605 89.2523 101.131 89.1946 101.654 86.6687Z" fill="#9D6B5A"/>
<path d="M78.2585 81.4131L78.2599 81.3703C78.3508 78.6186 75.0809 76.2328 70.9568 76.0408L39.9864 74.5995C35.8616 74.4075 32.4445 76.4819 32.3535 79.2336L32.3521 79.2764C32.2611 82.0281 35.5311 84.4139 39.6559 84.6059L70.6263 86.0472C74.751 86.2392 78.1682 84.1648 78.2585 81.4131Z" fill="#9D6B5A"/>
<path d="M46.3489 81.3529L46.3593 79.6235C46.3781 76.3094 42.5283 73.467 37.7605 73.2737L33.5246 73.1024C28.7569 72.9091 24.8765 75.4389 24.8578 78.753L24.8474 80.4817C24.8286 83.7958 28.6784 86.6382 33.4462 86.8315L37.682 87.0034C42.4498 87.1961 46.3301 84.6663 46.3489 81.3529Z" fill="#9D6B5A"/>
<path d="M34.3002 81.7801C37.3326 81.0594 38.868 78.5173 37.7299 76.1029C36.5917 73.6886 33.2107 72.3153 30.1789 73.036L21.8974 75.0054C18.8657 75.7261 17.3303 78.2682 18.4685 80.6825C19.6066 83.0975 22.9869 84.4701 26.0194 83.7495L34.3002 81.7801Z" fill="#9D6B5A"/>
<path d="M35.9214 87.4323C38.0351 87.5134 39.7559 86.4067 39.7656 84.9595C39.7753 83.513 38.0692 82.2741 35.9554 82.1923L30.1828 81.9698C28.069 81.8881 26.3476 82.9954 26.3379 84.4426C26.3289 85.8891 28.0343 87.1281 30.1481 87.2098L35.9214 87.4323Z" fill="#8E6051"/>
<path d="M97.7964 86.9232C100.413 84.6058 101.537 80.403 98.3631 77.2763L93.2044 70.8443C91.6158 68.8637 89.6417 67.1681 87.4088 65.8652L80.7103 61.9565C79.1826 61.0646 77.8294 59.9094 76.3672 58.9151C73.8054 57.1738 71.2122 56.8763 69.1485 58.7045C66.894 60.7005 67.1097 63.2211 69.2414 65.8792C69.9647 66.7816 70.7548 67.6432 71.4258 68.578L74.471 72.8217C76.1457 75.1562 78.3414 77.148 80.8787 78.6361L84.8132 80.9426C85.8371 81.5431 86.8039 82.2311 87.7479 82.9464C90.3433 84.9129 95.8276 88.667 97.7964 86.9232Z" fill="#9D6B5A"/>
<path d="M81.9417 69.378L81.9687 69.3439C83.7029 67.1556 81.8302 62.9025 77.7867 59.8443L47.4216 36.8788C43.3775 33.8202 38.6939 33.1144 36.9597 35.3028L36.9327 35.3368C35.1985 37.5252 37.0712 41.7782 41.1154 44.8369L71.4805 67.8024C75.5246 70.8611 80.2082 71.5668 81.9417 69.378Z" fill="#9D6B5A"/>
<path d="M49.7694 46.8483L50.8114 45.4418C52.8069 42.7457 50.6251 37.7181 45.9387 34.2115L41.7749 31.0964C37.0885 27.5898 31.6717 26.9327 29.6762 29.6288L28.6347 31.0347C26.6392 33.7309 28.8209 38.7585 33.5073 42.2651L37.6708 45.3806C42.3575 48.8867 47.7743 49.5439 49.7694 46.8483Z" fill="#9D6B5A"/>
<path d="M37.3673 38.7274C40.8519 40.2685 43.915 39.2683 44.2089 36.4944C44.5027 33.7205 41.9161 30.2223 38.4322 28.6817L28.9152 24.4741C25.4313 22.9335 22.3682 23.9337 22.0743 26.7076C21.7801 29.482 24.3664 32.9792 27.851 34.5203L37.3673 38.7274Z" fill="#9D6B5A"/>
<path d="M35.6571 44.4758C37.739 46.0281 40.1333 46.3325 41.0066 45.1555C41.8795 43.9791 40.8993 41.7663 38.8178 40.2136L33.1331 35.9736C31.0517 34.4209 28.6562 34.1165 27.7829 35.2935C26.9108 36.4704 27.8903 38.6827 29.9717 40.2354L35.6571 44.4758Z" fill="#8E6051"/>
<path d="M142.572 86.3535C141.907 82.9894 143.401 78.958 147.501 78.2525L154.913 76.0177C157.195 75.3294 159.607 75.0906 161.993 75.317L169.153 75.996C170.786 76.1511 172.436 75.9936 174.077 76.0281C176.952 76.0892 179.049 77.332 179.573 79.9856C180.146 82.8829 178.587 84.7916 175.524 85.7161C174.484 86.0299 173.418 86.2722 172.399 86.642L167.776 88.3225C165.233 89.2468 162.492 89.5971 159.776 89.3459L155.564 88.9557C154.468 88.8543 153.366 88.8555 152.266 88.8924C149.241 88.9936 143.072 88.8849 142.572 86.3535Z" fill="#9D6B5A"/>
<path d="M166.014 81.2973L166.013 81.2538C165.947 78.5002 169.239 76.1402 173.364 75.9826L204.345 74.7988C208.471 74.6418 211.869 76.7462 211.935 79.5004L211.936 79.5433C212.002 82.2969 208.711 84.6576 204.585 84.8152L173.604 85.9983C169.477 86.156 166.08 84.0509 166.014 81.2973Z" fill="#9D6B5A"/>
<path d="M197.924 81.5094L197.93 79.7798C197.942 76.4639 201.817 73.6509 206.586 73.4972L210.822 73.36C215.59 73.2063 219.446 75.7691 219.434 79.0844L219.428 80.8147C219.416 84.1305 215.541 86.9429 210.772 87.0972L206.536 87.2338C201.768 87.3881 197.912 84.8253 197.924 81.5094Z" fill="#9D6B5A"/>
<path d="M209.967 82.0389C206.942 81.293 205.431 78.7368 206.591 76.3303C207.751 73.9233 211.144 72.5776 214.169 73.3235L222.43 75.3619C225.454 76.1078 226.965 78.6641 225.805 81.0705C224.645 83.4769 221.252 84.8233 218.227 84.0773L209.967 82.0389Z" fill="#9D6B5A"/>
<path d="M208.295 87.6752C206.181 87.7386 204.47 86.6172 204.474 85.1693C204.477 83.7215 206.194 82.4963 208.309 82.4329L214.083 82.2586C216.197 82.1945 217.908 83.3166 217.905 84.7638C217.9 86.2116 216.184 87.4368 214.07 87.5009L208.295 87.6752Z" fill="#8E6051"/>
<path d="M149.298 85.2883C146.762 82.9071 145.548 78.7811 148.394 75.9257L152.967 69.9793C154.375 68.148 156.154 66.6125 158.191 65.4712L164.301 62.0472C165.695 61.2664 166.915 60.221 168.243 59.3371C170.57 57.7893 172.983 57.6397 174.982 59.5181C177.167 61.5686 177.063 63.9954 175.174 66.4536C174.533 67.2879 173.827 68.0788 173.236 68.9473L170.555 72.8906C169.08 75.0596 167.104 76.8693 164.79 78.1736L161.202 80.195C160.268 80.7214 159.391 81.3348 158.536 81.9764C156.186 83.7403 151.206 87.0801 149.298 85.2883Z" fill="#9D6B5A"/>
<path d="M161.687 70.3627L161.66 70.3279C159.942 68.1265 161.948 63.8235 166.14 60.7172L197.617 37.3898C201.809 34.2836 206.6 33.5498 208.318 35.7516L208.344 35.7859C210.062 37.9873 208.056 42.2909 203.864 45.3976L172.387 68.7245C168.194 71.8313 163.404 72.5645 161.687 70.3627Z" fill="#9D6B5A"/>
<path d="M194.991 47.4671L193.962 46.0522C191.989 43.3389 194.327 38.2521 199.185 34.6909L203.5 31.5265C208.357 27.9653 213.894 27.2774 215.866 29.9902L216.896 31.4057C218.869 34.119 216.53 39.2053 211.673 42.767L207.357 45.9309C202.5 49.4926 196.964 50.1805 194.991 47.4671Z" fill="#9D6B5A"/>
<path d="M207.823 39.2106C204.236 40.7823 201.137 39.7862 200.9 36.9866C200.664 34.1866 203.38 30.6432 206.967 29.072L216.764 24.7808C220.351 23.2096 223.45 24.2058 223.686 27.0053C223.923 29.8048 221.207 33.3482 217.62 34.9199L207.823 39.2106Z" fill="#9D6B5A"/>
<path d="M209.436 45.0072C207.279 46.5839 204.831 46.9021 203.968 45.7177C203.104 44.5332 204.154 42.2944 206.312 40.7177L212.203 36.4109C214.36 34.8336 216.809 34.5155 217.672 35.6994C218.535 36.8843 217.486 39.1226 215.328 40.6999L209.436 45.0072Z" fill="#8E6051"/>
<path d="M97.5301 73.5649H148.741C153.816 73.5649 157.902 76.8723 157.902 80.9811C157.902 85.0899 153.816 88.3972 148.741 88.3972H97.5301C92.4549 88.3972 88.3691 85.0899 88.3691 80.9811C88.3691 76.8723 92.4549 73.5649 97.5301 73.5649Z" fill="#9D6B5A"/>
<path d="M115.102 72.5266H131.07C139.993 72.5266 147.176 79.2499 147.176 87.6017C147.176 95.9528 139.993 102.676 131.07 102.676H115.102C106.179 102.676 98.9961 95.9528 98.9961 87.6017C98.9961 79.2499 106.179 72.5266 115.102 72.5266Z" fill="#9D6B5A"/>
<path d="M123.511 91.0759C125.589 91.0759 127.261 92.7921 127.261 94.9229V98.4904C127.261 100.622 125.589 102.337 123.511 102.337C121.433 102.337 119.76 100.622 119.76 98.4904V94.9229C119.76 92.7921 121.433 91.0759 123.511 91.0759Z" fill="#815848" fill-opacity="0.99"/>
<path d="M113.067 86.0334C111.961 86.0334 110.935 86.2972 110.079 86.7491C107.238 86.8959 104.574 87.8815 102.629 89.5052C100.683 91.1289 99.5996 93.2699 99.5996 95.4944C99.5996 97.8189 100.782 100.049 102.887 101.692C104.991 103.336 107.845 104.259 110.821 104.259C113.532 104.257 116.15 103.488 118.192 102.095C120.233 100.701 121.561 98.7779 121.927 96.6791C122.003 96.3916 122.043 96.0932 122.043 95.7874V90.3398C122.043 87.9542 119.632 86.0334 116.637 86.0334H113.067ZM129.688 86.0334C126.694 86.0334 124.283 87.9542 124.283 90.3398V95.7874C124.283 96.0932 124.323 96.3916 124.399 96.6791C124.765 98.7779 126.092 100.701 128.134 102.095C130.175 103.488 132.793 104.257 135.504 104.259C138.481 104.259 141.335 103.336 143.439 101.692C145.543 100.049 146.726 97.8189 146.726 95.4944C146.726 93.2699 145.643 91.1289 143.697 89.5052C141.751 87.8815 139.088 86.8959 136.247 86.7491C135.391 86.2972 134.365 86.0334 133.258 86.0334H129.688Z" fill="#9D6B5A"/>
<path d="M115.127 73.0742H131.119C140.056 73.0742 147.249 79.6845 147.249 87.8951C147.249 96.1058 146.937 106.913 131.45 104.952H115.127C99.1227 106.759 98.9961 96.1058 98.9961 87.8951C98.9961 79.6845 106.19 73.0742 115.127 73.0742Z" fill="#4B4B4B"/>
<path d="M123.037 68.2498C123.934 68.2498 124.829 68.2987 125.715 68.3954C136.402 69.5556 145.928 77.5044 145.928 87.1979L144.25 97.5762H101.881V87.1979C101.881 76.7007 111.317 68.2498 123.037 68.2498Z" fill="#4B4B4B" fill-opacity="0.99"/>
<path d="M119.886 106.872H117.388C116.247 106.872 115.322 107.57 115.322 108.43V110.235C115.322 111.096 116.247 111.794 117.388 111.794H119.886C121.026 111.794 121.952 111.096 121.952 110.235V108.43C121.952 107.57 121.026 106.872 119.886 106.872Z" fill="#815848"/>
<path d="M119.884 112.324H116.079C114.938 112.324 114.014 113.022 114.014 113.884V115.688C114.014 116.549 114.938 117.247 116.079 117.247H119.884C121.025 117.247 121.95 116.549 121.95 115.688V113.884C121.95 113.022 121.025 112.324 119.884 112.324Z" fill="#815848"/>
<path d="M119.884 117.663H116.079C114.938 117.663 114.014 118.361 114.014 119.222V121.027C114.014 121.888 114.938 122.586 116.079 122.586H119.884C121.025 122.586 121.95 121.888 121.95 121.027V119.222C121.95 118.361 121.025 117.663 119.884 117.663Z" fill="#815848"/>
<path d="M125.997 106.872H128.495C129.636 106.872 130.561 107.57 130.561 108.43V110.235C130.561 111.096 129.636 111.794 128.495 111.794H125.997C124.856 111.794 123.932 111.096 123.932 110.235V108.43C123.932 107.57 124.856 106.872 125.997 106.872Z" fill="#815848"/>
<path d="M125.997 112.324H129.803C130.943 112.324 131.869 113.022 131.869 113.884V115.688C131.869 116.549 130.943 117.247 129.803 117.247H125.997C124.857 117.247 123.932 116.549 123.932 115.688V113.884C123.932 113.022 124.857 112.324 125.997 112.324Z" fill="#815848"/>
<path d="M125.997 117.663H129.803C130.943 117.663 131.869 118.361 131.869 119.222V121.027C131.869 121.888 130.943 122.586 129.803 122.586H125.997C124.857 122.586 123.932 121.888 123.932 121.027V119.222C123.932 118.361 124.857 117.663 125.997 117.663Z" fill="#815848"/>
<path d="M123.222 47.7705C128.876 47.7705 133.428 54.4754 133.428 62.8048V68.9728C133.428 77.3021 128.876 84.0077 123.222 84.0077C117.567 84.0077 113.016 77.3021 113.016 68.9728V62.8048C113.016 54.4754 117.567 47.7705 123.222 47.7705Z" fill="#9D6B5A"/>
<path d="M121.685 48.8967H124.76C128.3 48.8967 131.15 52.7967 131.15 57.6414V61.2286C131.15 66.0733 128.3 69.9733 124.76 69.9733H121.685C118.145 69.9733 115.295 66.0733 115.295 61.2286V57.6414C115.295 52.7967 118.145 48.8967 121.685 48.8967Z" fill="#815848"/>
<path d="M115.146 75.0852C114.681 75.0852 114.307 75.4637 114.307 75.9337C114.307 76.4038 114.681 76.7817 115.146 76.7817H119.815L121.155 77.7689C121.532 78.0467 122.056 77.9636 122.331 77.5827C122.606 77.2017 122.524 76.6716 122.147 76.3937L120.76 75.3715C120.745 75.361 120.729 75.355 120.714 75.3455C120.562 75.1853 120.349 75.0852 120.111 75.0852H115.146ZM126.065 75.0852C125.826 75.0852 125.613 75.1853 125.461 75.3455C125.446 75.355 125.43 75.361 125.416 75.3715L124.028 76.3937C123.651 76.6716 123.569 77.2017 123.844 77.5827C124.119 77.9636 124.643 78.0467 125.02 77.7689L126.36 76.7817H131.029C131.494 76.7817 131.869 76.4038 131.869 75.9337C131.869 75.4637 131.494 75.0852 131.029 75.0852H126.065Z" fill="#815747"/>
<path d="M107.588 40.7017H139.496C143.156 40.7017 146.101 43.5855 146.101 47.1674C146.101 50.7492 143.156 53.6324 139.496 53.6324H107.588C103.928 53.6324 100.982 50.7492 100.982 47.1674C100.982 43.5855 103.928 40.7017 107.588 40.7017Z" fill="#8E6051"/>
<path d="M107.821 42.3457H139.264C141.993 42.3457 144.19 44.4962 144.19 47.1673C144.19 49.8384 141.993 51.9888 139.264 51.9888H107.821C105.092 51.9888 102.895 49.8384 102.895 47.1673C102.895 44.4962 105.092 42.3457 107.821 42.3457Z" fill="#815848"/>
<path d="M119.956 22.5295H127.128C133.09 22.5295 142.518 30.7678 142.518 38.8695V50.3647C142.518 58.4664 133.681 67.3333 127.35 67.3333H119.734C113.403 67.3333 104.566 58.4664 104.566 50.3647V38.8695C104.566 30.7678 113.994 22.5295 119.956 22.5295Z" fill="#9D6B5A"/>
<path d="M121.928 62.9685H123.993C124.159 62.9685 124.293 63.0827 124.293 63.2241V63.3749C124.293 63.5163 124.159 63.6305 123.993 63.6305H121.928C121.762 63.6305 121.629 63.5163 121.629 63.3749V63.2241C121.629 63.0827 121.762 62.9685 121.928 62.9685Z" fill="#815848"/>
<path d="M123.539 44.7656C124.805 44.7656 125.824 45.8205 125.824 47.1302V51.304C125.824 52.6138 124.805 53.6686 123.539 53.6686C122.273 53.6686 121.254 52.6138 121.254 51.304V47.1302C121.254 45.8205 122.273 44.7656 123.539 44.7656Z" fill="#8E6051"/>
<path d="M127.348 50.9864C127.348 52.0304 126.445 52.8698 125.324 52.8698H121.755C120.634 52.8698 119.732 52.0304 119.732 50.9864C119.732 49.9432 120.634 49.1038 121.755 49.1038H125.324C126.445 49.1038 127.348 49.9432 127.348 50.9864Z" fill="#8E6051"/>
<path d="M117.777 55.5837C117.512 55.5837 117.258 55.6673 117.07 55.8155C116.882 55.9637 116.777 56.1655 116.777 56.3756V56.9716C116.777 58.1481 117.205 59.2261 117.961 60.0478C118.718 60.8702 119.863 61.452 121.172 61.452H125.815C127.124 61.452 128.269 60.8702 129.025 60.0478C129.782 59.2261 130.21 58.1481 130.21 56.9716V56.3756C130.21 56.1655 130.104 55.9637 129.917 55.8155C129.729 55.6673 129.475 55.5837 129.209 55.5837H117.777Z" fill="white"/>
<path d="M112.262 39.6429L118.69 40.156C119.389 40.2118 119.906 40.8078 119.849 41.4916C119.792 42.176 119.183 42.6817 118.485 42.6259L112.056 42.1128C111.357 42.0571 110.84 41.4617 110.897 40.7772C110.954 40.0928 111.563 39.5871 112.262 39.6429Z" fill="#4D4D4D"/>
<path d="M110.085 40.7582L111.35 39.9364C111.863 39.6034 112.549 39.7393 112.89 40.2409C113.23 40.7432 113.091 41.4154 112.579 41.7484L111.314 42.5702C110.801 42.9032 110.115 42.7673 109.774 42.2657C109.434 41.7634 109.572 41.0912 110.085 40.7582Z" fill="#4D4D4D"/>
<path d="M134.818 39.6429L128.39 40.156C127.691 40.2118 127.174 40.8078 127.231 41.4916C127.288 42.176 127.897 42.6817 128.595 42.6259L135.024 42.1128C135.723 42.0571 136.24 41.4617 136.183 40.7772C136.125 40.0928 135.517 39.5871 134.818 39.6429Z" fill="#4D4D4D"/>
<path d="M136.993 40.7582L135.728 39.9364C135.215 39.6034 134.528 39.7393 134.188 40.2409C133.848 40.7432 133.987 41.4154 134.499 41.7484L135.765 42.5702C136.277 42.9032 136.964 42.7673 137.304 42.2657C137.644 41.7634 137.506 41.0912 136.993 40.7582Z" fill="#4D4D4D"/>
<path d="M112.262 39.6429L118.69 40.156C119.389 40.2118 119.906 40.8078 119.849 41.4916C119.792 42.176 119.183 42.6817 118.485 42.6259L112.056 42.1128C111.357 42.0571 110.84 41.4617 110.897 40.7772C110.954 40.0928 111.563 39.5871 112.262 39.6429Z" fill="#4D4D4D"/>
<path d="M134.818 39.6429L128.39 40.156C127.691 40.2118 127.174 40.8078 127.231 41.4916C127.288 42.176 127.897 42.6817 128.595 42.6259L135.024 42.1128C135.723 42.0571 136.24 41.4617 136.183 40.7772C136.125 40.0928 135.517 39.5871 134.818 39.6429Z" fill="#4D4D4D"/>
<path d="M115.285 43.1025H116.126C116.889 43.1025 117.504 43.7047 117.504 44.4517V46.3514C117.504 47.0983 116.889 47.6998 116.126 47.6998H115.285C114.521 47.6998 113.906 47.0983 113.906 46.3514V44.4517C113.906 43.7047 114.521 43.1025 115.285 43.1025Z" fill="#61534B"/>
<path d="M131.792 43.1025H130.951C130.187 43.1025 129.572 43.7047 129.572 44.4517V46.3514C129.572 47.0983 130.187 47.6998 130.951 47.6998H131.792C132.555 47.6998 133.17 47.0983 133.17 46.3514V44.4517C133.17 43.7047 132.555 43.1025 131.792 43.1025Z" fill="#61534B"/>
<path d="M120.508 20.6658C110.141 20.6658 101.795 28.834 101.795 38.9815C101.795 42.8332 103 46.398 105.059 49.3417V41.5574C105.059 38.6553 106.535 35.734 108.676 33.2736L116.797 33.26C120.068 33.2539 122.701 30.6821 122.701 27.4808C122.701 27.2946 122.69 27.1104 122.673 26.9289H124.412C124.394 27.1104 124.384 27.2946 124.384 27.4808C124.384 30.6821 127.016 33.2539 130.288 33.26L138.428 33.2736C140.568 35.734 142.045 38.6553 142.045 41.5574V49.3417C144.104 46.398 145.309 42.8332 145.309 38.9815C145.309 28.834 136.962 20.6658 126.596 20.6658H120.508Z" fill="#444444"/>
<path d="M129.227 16.562H117.849C114.941 16.562 112.584 18.8688 112.584 21.7153V24.3374C112.584 27.1839 114.941 29.4914 117.849 29.4914H129.227C132.135 29.4914 134.492 27.1839 134.492 24.3374V21.7153C134.492 18.8688 132.135 16.562 129.227 16.562Z" fill="#3B3B3B"/>
<path d="M103.918 124.1C104.989 139.55 113.215 151.509 123.084 151.509C133.082 151.509 141.895 139.841 142.795 124.1H103.918Z" fill="#4F4F4F"/>
<path d="M142.814 124.097L123.762 127.128L123.602 151.444L125.39 162.101H147.223C147.357 142.387 147.134 135.727 142.814 124.097Z" fill="#4B4B4B"/>
<path d="M142.697 123.849L127.746 135.798L140.029 156.935L147.021 165.289L165.929 154.603C155.975 137.465 152.38 131.807 142.697 123.849Z" fill="#4B4B4B"/>
<path d="M103.918 124.088L118.87 136.037L106.587 157.174L99.5943 165.528L80.6857 154.843C90.6404 137.705 94.2357 132.047 103.918 124.088Z" fill="#4B4B4B"/>
<path d="M103.929 124.075L123.432 127.117V151.442L121.613 162.099H99.8295C99.691 142.319 99.4829 135.744 103.929 124.075Z" fill="#4B4B4B"/>
</g>
<rect x="16.7785" y="17.686" width="210.966" height="210.966" stroke="black" stroke-width="4.44375"/>
<circle cx="122.714" cy="120.416" r="117.199" stroke="black" stroke-width="4.20612"/>
<defs>
<clipPath id="clip0_2298_4691">
<rect width="245.574" height="245.574" fill="white" transform="translate(0.00585938 0.0712891)"/>
</clipPath>
</defs>
</svg>
