<svg width="176" height="342" viewBox="0 0 176 342" fill="none" xmlns="http://www.w3.org/2000/svg">
<g clip-path="url(#clip0_3044_3079)">
<path d="M123.337 97.715L123.233 97.7312C116.574 98.7696 112.05 104.966 113.088 111.624L120.861 161.467C121.899 168.126 128.095 172.65 134.754 171.612L134.858 171.596C141.516 170.557 146.041 164.361 145.002 157.703L137.23 107.86C136.191 101.201 129.995 96.6767 123.337 97.715V97.715Z" fill="#81584A"/>
<path d="M131.096 132.417C128.585 132.803 126.874 135.136 127.26 137.647L127.768 140.944C128.154 143.455 130.487 145.165 132.998 144.779C135.509 144.393 137.22 142.06 136.833 139.549L136.326 136.252C135.94 133.741 133.607 132.03 131.096 132.417Z" fill="#906253"/>
<path d="M56.9789 195.369H60.1374C67.6426 195.369 73.6847 201.411 73.6847 208.916V327.64C73.6847 335.145 67.6426 341.187 60.1374 341.187H56.9789C49.4737 341.187 43.4316 335.145 43.4316 327.64V208.916C43.4316 201.411 49.4737 195.369 56.9789 195.369V195.369Z" fill="#906253"/>
<path d="M93.4535 195.369H96.612C104.117 195.369 110.159 201.411 110.159 208.916V327.64C110.159 335.145 104.117 341.187 96.612 341.187H93.4535C85.9483 341.187 79.9062 335.145 79.9062 327.64V208.916C79.9062 201.411 85.9483 195.369 93.4535 195.369V195.369Z" fill="#906253"/>
<path d="M43.4316 195.369H73.6847V289.284H43.4316V195.369Z" fill="#81584A"/>
<path d="M79.9062 195.369H110.159V289.284H79.9062V195.369Z" fill="#81584A"/>
<path d="M49.4755 316.455H61.319C68.1698 316.455 73.6851 321.97 73.6851 328.821C73.6851 335.671 68.1698 341.187 61.319 341.187H49.4755C42.6247 341.187 37.1094 335.671 37.1094 328.821C37.1094 321.97 42.6247 316.455 49.4755 316.455Z" fill="#9D6B5A"/>
<path d="M41.2045 327.641H69.59C71.8587 327.641 73.6851 329.467 73.6851 331.736V337.092C73.6851 339.36 71.8587 341.187 69.59 341.187H41.2045C38.9358 341.187 37.1094 339.36 37.1094 337.092V331.736C37.1094 329.467 38.9358 327.641 41.2045 327.641Z" fill="#9D6B5A"/>
<path d="M92.2723 316.455H104.116C110.967 316.455 116.482 321.97 116.482 328.821C116.482 335.671 110.967 341.187 104.116 341.187H92.2723C85.4215 341.187 79.9062 335.671 79.9062 328.821C79.9062 321.97 85.4215 316.455 92.2723 316.455V316.455Z" fill="#9D6B5A"/>
<path d="M84.0014 327.551H112.387C114.656 327.551 116.482 329.378 116.482 331.646V337.002C116.482 339.271 114.656 341.097 112.387 341.097H84.0014C81.7327 341.097 79.9062 339.271 79.9062 337.002V331.646C79.9062 329.378 81.7327 327.551 84.0014 327.551V327.551Z" fill="#9D6B5A"/>
<path d="M76.7967 127.183C97.2653 127.183 113.744 145.26 113.744 167.715V196.999C113.744 219.454 97.2653 237.531 76.7967 237.531C56.328 237.531 39.8496 219.454 39.8496 196.999V167.715C39.8496 145.26 56.328 127.183 76.7967 127.183V127.183Z" fill="#81584A"/>
<path d="M29.5775 96.4831L29.6813 96.4993C36.3397 97.5376 40.8643 103.734 39.8259 110.392L32.0534 160.235C31.0151 166.894 24.8187 171.418 18.1603 170.38L18.0565 170.364C11.398 169.326 6.8735 163.129 7.91182 156.471L15.6844 106.628C16.7227 99.9693 22.919 95.4448 29.5775 96.4831V96.4831Z" fill="#81584A"/>
<path d="M22.6716 135.299C25.1828 135.685 26.8934 138.018 26.5071 140.529L25.9999 143.826C25.6136 146.337 23.2809 148.048 20.7696 147.661C18.2584 147.275 16.5478 144.942 16.9341 142.431L17.4413 139.134C17.8276 136.623 20.1603 134.913 22.6716 135.299Z" fill="#906253"/>
<path d="M31.761 93.7695H122.628C132.494 93.7695 140.438 101.713 140.438 111.579C140.438 121.446 132.494 129.389 122.628 129.389H31.761C21.8944 129.389 13.9512 121.446 13.9512 111.579C13.9512 101.713 21.8944 93.7695 31.761 93.7695Z" fill="#906253"/>
<path d="M76.7964 83.3389C103.193 83.3389 124.444 101.631 124.444 124.353C124.444 147.075 103.193 165.368 76.7964 165.368C50.3994 165.368 29.1484 147.075 29.1484 124.353C29.1484 101.631 50.3994 83.3389 76.7964 83.3389Z" fill="#81584A"/>
<path d="M74.1308 155.484H79.4608C92.2104 155.484 102.474 165.748 102.474 178.498V195.125C102.474 207.875 92.2104 218.139 79.4608 218.139H74.1308C61.3813 218.139 51.1172 207.875 51.1172 195.125V178.498C51.1172 165.748 61.3813 155.484 74.1308 155.484V155.484Z" fill="#906253"/>
<path d="M51.8504 93.6836H101.739C114.65 93.6836 125.044 104.078 125.044 116.989V131.035C125.044 143.947 114.65 154.341 101.739 154.341H51.8504C38.9392 154.341 28.5449 143.947 28.5449 131.035V116.989C28.5449 104.078 38.9392 93.6836 51.8504 93.6836V93.6836Z" fill="#906253"/>
<path d="M47.4971 93.6836H106.092C116.592 93.6836 125.044 102.136 125.044 112.636V124.058C125.044 134.558 116.592 143.01 106.092 143.01H47.4971C36.9976 143.01 28.5449 134.558 28.5449 124.058V112.636C28.5449 102.136 36.9976 93.6836 47.4971 93.6836V93.6836Z" fill="#9D6B5A"/>
<path d="M76.6736 145.959C78.9251 145.959 80.7377 147.772 80.7377 150.023V157.905C80.7377 160.157 78.9251 161.969 76.6736 161.969C74.422 161.969 72.6094 160.157 72.6094 157.905V150.023C72.6094 147.772 74.422 145.959 76.6736 145.959Z" fill="#81584A"/>
<path d="M88.4068 131.982H97.88C100.609 131.982 102.806 134.179 102.806 136.908C102.806 139.637 100.609 141.834 97.88 141.834H88.4068C85.6776 141.834 83.4805 139.637 83.4805 136.908C83.4805 134.179 85.6776 131.982 88.4068 131.982Z" fill="#AC7967"/>
<path d="M54.9712 131.982H64.4444C67.1736 131.982 69.3707 134.179 69.3707 136.908C69.3707 139.637 67.1736 141.834 64.4444 141.834H54.9712C52.242 141.834 50.0449 139.637 50.0449 136.908C50.0449 134.179 52.242 131.982 54.9712 131.982Z" fill="#AC7967"/>
<path d="M76.7967 57.7217C86.3487 57.7217 94.0386 66.9285 94.0386 78.3649V86.8339C94.0386 98.2702 86.3487 107.477 76.7967 107.477C67.2446 107.477 59.5547 98.2702 59.5547 86.8339V78.3649C59.5547 66.9285 67.2446 57.7217 76.7967 57.7217V57.7217Z" fill="#9D6B5A"/>
<path d="M47.3899 142.089H50.8396C52.2198 142.089 53.331 143.201 53.331 144.581C53.331 145.961 52.2198 147.072 50.8396 147.072H47.3899C46.0096 147.072 44.8984 145.961 44.8984 144.581C44.8984 143.201 46.0096 142.089 47.3899 142.089Z" fill="#81584A"/>
<path d="M103.781 142.089H107.23C108.61 142.089 109.722 143.201 109.722 144.581C109.722 145.961 108.61 147.072 107.23 147.072H103.781C102.4 147.072 101.289 145.961 101.289 144.581C101.289 143.201 102.4 142.089 103.781 142.089Z" fill="#81584A"/>
<path d="M73.4531 57.7217H80.1402C87.8399 57.7217 94.0386 63.9204 94.0386 71.6201V77.322C94.0386 85.0217 87.8399 91.2203 80.1402 91.2203H73.4531C65.7534 91.2203 59.5547 85.0217 59.5547 77.322V71.6201C59.5547 63.9204 65.7534 57.7217 73.4531 57.7217Z" fill="#81584A"/>
<path d="M30.8343 96.6904H32.9243C38.5208 96.6904 43.0262 101.196 43.0262 106.792C43.0262 112.389 38.5208 116.894 32.9243 116.894H30.8343C25.2379 116.894 20.7324 112.389 20.7324 106.792C20.7324 101.196 25.2379 96.6904 30.8343 96.6904Z" fill="#9D6B5A"/>
<path d="M120.985 97.6758H123.075C128.671 97.6758 133.177 102.181 133.177 107.778C133.177 113.374 128.671 117.88 123.075 117.88H120.985C115.388 117.88 110.883 113.374 110.883 107.778C110.883 102.181 115.388 97.6758 120.985 97.6758Z" fill="#9D6B5A"/>
<path d="M138.373 155.1H143.69C152.182 155.1 159.018 161.936 159.018 170.428C159.018 178.92 152.182 185.756 143.69 185.756H138.373C129.881 185.756 123.045 178.92 123.045 170.428C123.045 161.936 129.881 155.1 138.373 155.1Z" fill="#9D6B5A"/>
<path d="M147.695 159.478H148.05C155.167 159.478 160.897 165.208 160.897 172.326C160.897 179.443 155.167 185.173 148.05 185.173H147.695C140.578 185.173 134.848 179.443 134.848 172.326C134.848 165.208 140.578 159.478 147.695 159.478Z" fill="#81584A"/>
<path d="M29.6448 100.084H32.7799C34.5167 100.084 35.9149 101.482 35.9149 103.219C35.9149 104.956 34.5167 106.354 32.7799 106.354H29.6448C27.908 106.354 26.5098 104.956 26.5098 103.219C26.5098 101.482 27.908 100.084 29.6448 100.084Z" fill="#AC7967"/>
<path d="M123.737 100.331H126.872C128.609 100.331 130.007 101.729 130.007 103.466C130.007 105.202 128.609 106.601 126.872 106.601H123.737C122 106.601 120.602 105.202 120.602 103.466C120.602 101.729 122 100.331 123.737 100.331Z" fill="#AC7967"/>
<path d="M156.061 149.991H164.516C170.181 149.991 174.741 154.552 174.741 160.217V178.088C174.741 183.753 170.181 188.313 164.516 188.313H156.061C150.396 188.313 145.836 183.753 145.836 178.088V160.217C145.836 154.552 150.396 149.991 156.061 149.991V149.991Z" fill="#9D6B5A"/>
<path d="M146.407 156.309H146.781C149.116 156.309 150.996 158.189 150.996 160.524V167.299C150.996 169.634 149.116 171.514 146.781 171.514H146.407C144.071 171.514 142.191 169.634 142.191 167.299V160.524C142.191 158.189 144.071 156.309 146.407 156.309Z" fill="#AC7967"/>
<path d="M168.069 153.449H168.356C170.149 153.449 171.593 154.893 171.593 156.686V162.557C171.593 164.35 170.149 165.794 168.356 165.794H168.069C166.276 165.794 164.832 164.35 164.832 162.557V156.686C164.832 154.893 166.276 153.449 168.069 153.449Z" fill="#AC7967"/>
<path d="M61.525 320.785H64.2344C66.4178 320.785 68.1755 322.543 68.1755 324.726C68.1755 326.91 66.4178 328.667 64.2344 328.667H61.525C59.3417 328.667 57.584 326.91 57.584 324.726C57.584 322.543 59.3417 320.785 61.525 320.785Z" fill="#AC7967"/>
<path d="M104.382 320.539H107.092C109.275 320.539 111.033 322.296 111.033 324.48C111.033 326.663 109.275 328.421 107.092 328.421H104.382C102.199 328.421 100.441 326.663 100.441 324.48C100.441 322.296 102.199 320.539 104.382 320.539Z" fill="#AC7967"/>
<path d="M52.4694 44.6982H102.108C107.801 44.6982 112.384 49.2814 112.384 54.9743C112.384 60.6672 107.801 65.2503 102.108 65.2503H52.4694C46.7765 65.2503 42.1934 60.6672 42.1934 54.9743C42.1934 49.2814 46.7765 44.6982 52.4694 44.6982Z" fill="#9D6B5A"/>
<path d="M52.8315 47.3105H101.747C105.992 47.3105 109.41 50.7285 109.41 54.974C109.41 59.2196 105.992 62.6375 101.747 62.6375H52.8315C48.5859 62.6375 45.168 59.2196 45.168 54.974C45.168 50.7285 48.5859 47.3105 52.8315 47.3105Z" fill="#81584A"/>
<path d="M70.0969 15.8145H84.4793C96.4331 15.8145 106.057 25.4379 106.057 37.3918V62.9618C106.057 74.9157 96.4331 84.5392 84.4793 84.5392H70.0969C58.143 84.5392 48.5195 74.9157 48.5195 62.9618V37.3918C48.5195 25.4379 58.143 15.8145 70.0969 15.8145Z" fill="#9D6B5A"/>
<path d="M70.5142 81.7026H83.9537C85.4115 81.7026 86.5851 82.8762 86.5851 84.334C86.5851 85.7918 85.4115 86.9654 83.9537 86.9654H70.5142C69.0564 86.9654 67.8828 85.7918 67.8828 84.334C67.8828 82.8762 69.0564 81.7026 70.5142 81.7026Z" fill="#9D6B5A"/>
<path d="M19.7015 150.068L19.8066 150.07C26.5446 150.182 31.8788 155.696 31.7668 162.434L30.9283 212.873C30.8163 219.611 25.3016 224.945 18.5636 224.833L18.4586 224.831C11.7206 224.719 6.3863 219.205 6.49832 212.467L7.33686 162.028C7.44888 155.29 12.9635 149.956 19.7015 150.068Z" fill="#81584A"/>
<path d="M17.2771 204.771H21.2792C28.9734 204.771 35.1677 210.966 35.1677 218.66V225.474C35.1677 233.169 28.9734 239.363 21.2792 239.363H17.2771C9.58292 239.363 3.38867 233.169 3.38867 225.474V218.66C3.38867 210.966 9.58292 204.771 17.2771 204.771V204.771Z" fill="#906253"/>
<path d="M18.7115 156.581C27.078 156.581 33.8136 163.317 33.8136 171.683V183.542C33.8136 191.909 27.078 198.645 18.7115 198.645C10.3449 198.645 3.60938 191.909 3.60938 183.542V171.683C3.60938 163.317 10.3449 156.581 18.7115 156.581Z" fill="#906253"/>
<path d="M28.609 165.368C30.1528 165.368 31.3957 166.611 31.3957 168.154V178.256C31.3957 179.8 30.1528 181.043 28.609 181.043C27.0651 181.043 25.8223 179.8 25.8223 178.256V168.154C25.8223 166.611 27.0651 165.368 28.609 165.368Z" fill="#9D6B5A"/>
<path d="M9.88197 218.636C14.8783 216.762 20.4088 219.276 22.2822 224.273L27.3831 237.877C29.2564 242.874 26.7422 248.404 21.7459 250.277C16.7495 252.151 11.219 249.637 9.34569 244.64L4.24479 231.036C2.37143 226.039 4.88562 220.509 9.88197 218.636Z" fill="#906253"/>
<path d="M29.6148 215.151C33.0489 215.151 35.8136 217.916 35.8136 221.35V230.7C35.8136 234.134 33.0489 236.899 29.6148 236.899C26.1807 236.899 23.416 234.134 23.416 230.7V221.35C23.416 217.916 26.1807 215.151 29.6148 215.151V215.151Z" fill="#9D6B5A"/>
<path d="M64.9926 161.1H71.1037C74.0275 161.1 76.3814 163.454 76.3814 166.378C76.3814 169.302 74.0275 171.656 71.1037 171.656H64.9926C62.0687 171.656 59.7148 169.302 59.7148 166.378C59.7148 163.454 62.0687 161.1 64.9926 161.1Z" fill="#9D6B5A"/>
<path d="M64.9926 173.544H71.1037C74.0275 173.544 76.3814 175.898 76.3814 178.822C76.3814 181.746 74.0275 184.1 71.1037 184.1H64.9926C62.0687 184.1 59.7148 181.746 59.7148 178.822C59.7148 175.898 62.0687 173.544 64.9926 173.544Z" fill="#9D6B5A"/>
<path d="M64.9926 185.989H71.1037C74.0275 185.989 76.3814 188.343 76.3814 191.267C76.3814 194.19 74.0275 196.544 71.1037 196.544H64.9926C62.0687 196.544 59.7148 194.19 59.7148 191.267C59.7148 188.343 62.0687 185.989 64.9926 185.989Z" fill="#9D6B5A"/>
<path d="M83.6586 161.1H89.7697C92.6935 161.1 95.0474 163.454 95.0474 166.378C95.0474 169.302 92.6935 171.656 89.7697 171.656H83.6586C80.7347 171.656 78.3809 169.302 78.3809 166.378C78.3809 163.454 80.7347 161.1 83.6586 161.1Z" fill="#9D6B5A"/>
<path d="M83.6586 173.544H89.7697C92.6935 173.544 95.0474 175.898 95.0474 178.822C95.0474 181.746 92.6935 184.1 89.7697 184.1H83.6586C80.7347 184.1 78.3809 181.746 78.3809 178.822C78.3809 175.898 80.7347 173.544 83.6586 173.544Z" fill="#9D6B5A"/>
<path d="M83.6586 185.989H89.7697C92.6935 185.989 95.0474 188.343 95.0474 191.267C95.0474 194.19 92.6935 196.544 89.7697 196.544H83.6586C80.7347 196.544 78.3809 194.19 78.3809 191.267C78.3809 188.343 80.7347 185.989 83.6586 185.989Z" fill="#9D6B5A"/>
<path d="M61.2303 97.8515L70.6419 102.376C71.6925 102.881 72.1317 104.133 71.6267 105.184C71.1217 106.234 69.8693 106.673 68.8187 106.168L59.4071 101.644C58.3566 101.139 57.9174 99.8869 58.4224 98.8363C58.9274 97.7857 60.1798 97.3465 61.2303 97.8515Z" fill="#81584A"/>
<path d="M91.2618 97.8515L81.8503 102.376C80.7997 102.881 80.3605 104.133 80.8655 105.184C81.3706 106.234 82.6229 106.673 83.6735 106.168L93.085 101.644C94.1356 101.139 94.5748 99.8869 94.0698 98.8363C93.5648 97.7857 92.3124 97.3465 91.2618 97.8515Z" fill="#81584A"/>
<path d="M45.6573 201.336C43.7227 201.336 41.856 201.615 40.0898 202.124C42.1578 222.399 57.745 238.062 76.7965 238.062C96.0943 238.062 111.839 221.992 113.578 201.336C113.576 201.336 113.574 201.336 113.572 201.336H45.6573Z" fill="#4F4F4F"/>
<path d="M41.8287 199.099H111.294C112.816 199.099 114.041 200.324 114.041 201.846V206.099C114.041 207.62 112.816 208.846 111.294 208.846H41.8287C40.3071 208.846 39.082 207.62 39.082 206.099V201.846C39.082 200.324 40.3071 199.099 41.8287 199.099Z" fill="#5B5B5B"/>
<path d="M74.5126 78.5386H78.6191C78.9485 78.5386 79.2137 78.8038 79.2137 79.1332V79.4835C79.2137 79.8129 78.9485 80.078 78.6191 80.078H74.5126C74.1831 80.078 73.918 79.8129 73.918 79.4835V79.1332C73.918 78.8038 74.1831 78.5386 74.5126 78.5386Z" fill="#81584A"/>
<path d="M77.289 50.272C79.7495 50.272 81.7303 52.2528 81.7303 54.7133V62.551C81.7303 65.0115 79.7495 66.9923 77.289 66.9923C74.8285 66.9923 72.8477 65.0115 72.8477 62.551V54.7133C72.8477 52.2528 74.8285 50.272 77.289 50.272Z" fill="#81584A"/>
<path d="M63.6467 47.5684C65.1866 47.5684 66.4262 48.808 66.4262 50.3479V51.4597C66.4262 52.9996 65.1866 54.2392 63.6467 54.2392C62.1069 54.2392 60.8672 52.9996 60.8672 51.4597V50.3479C60.8672 48.808 62.1069 47.5684 63.6467 47.5684Z" fill="#61534B"/>
<path d="M90.6077 47.5684C92.1475 47.5684 93.3872 48.808 93.3872 50.3479V51.4597C93.3872 52.9996 92.1475 54.2392 90.6077 54.2392C89.0678 54.2392 87.8281 52.9996 87.8281 51.4597V50.3479C87.8281 48.808 89.0678 47.5684 90.6077 47.5684Z" fill="#61534B"/>
<path d="M72.5676 60.1304L76.698 63.64C77.3825 64.2217 77.4653 65.241 76.8837 65.9255C76.3021 66.61 75.2828 66.6928 74.5982 66.1112L70.4679 62.6016C69.7833 62.02 69.7005 61.0007 70.2822 60.3161C70.8638 59.6316 71.8831 59.5488 72.5676 60.1304Z" fill="#81584A"/>
<path d="M82.0105 60.1304L77.8801 63.64C77.1956 64.2217 77.1128 65.241 77.6944 65.9255C78.2761 66.61 79.2954 66.6928 79.9799 66.1112L84.1103 62.6016C84.7948 62.02 84.8776 61.0007 84.296 60.3162C83.7143 59.6316 82.695 59.5488 82.0105 60.1304Z" fill="#81584A"/>
<path d="M77.7286 59.2515C78.9092 59.2515 79.8596 60.2019 79.8596 61.3824V63.3281C79.8596 64.5087 78.9092 65.4591 77.7286 65.4591C76.5481 65.4591 75.5977 64.5087 75.5977 63.3281V61.3824C75.5977 60.2019 76.5481 59.2515 77.7286 59.2515Z" fill="#906253"/>
<path d="M59.1723 45.8348L68.0099 46.1819C68.9709 46.2197 69.7142 47.0238 69.6765 47.9849C69.6387 48.946 68.8346 49.6893 67.8736 49.6515L59.036 49.3043C58.0749 49.2666 57.3316 48.4625 57.3693 47.5014C57.4071 46.5403 58.2112 45.797 59.1723 45.8348Z" fill="#4D4D4D"/>
<path d="M58.3565 46.5897C58.9186 46.6118 59.3534 47.0821 59.3313 47.6442L59.24 49.9682C59.2179 50.5303 58.7476 50.9651 58.1855 50.943C57.6233 50.9209 57.1886 50.4506 57.2106 49.8884L57.3019 47.5645C57.324 47.0024 57.7944 46.5676 58.3565 46.5897Z" fill="#4D4D4D"/>
<path d="M94.997 46.1168L86.1562 45.8637C85.1948 45.8362 84.3987 46.5881 84.3711 47.5495C84.3436 48.5109 85.0955 49.307 86.0569 49.3346L94.8976 49.5876C95.8591 49.6152 96.6552 48.8633 96.6827 47.9019C96.7103 46.9405 95.9584 46.1443 94.997 46.1168Z" fill="#4D4D4D"/>
<path d="M95.7623 46.925C95.1999 46.9089 94.7343 47.3487 94.7182 47.911L94.6516 50.2358C94.6355 50.7982 95.0753 51.2638 95.6376 51.2799C96.2 51.296 96.6656 50.8563 96.6817 50.2939L96.7483 47.9692C96.7644 47.4068 96.3246 46.9411 95.7623 46.925Z" fill="#4D4D4D"/>
<path d="M68.5798 71.2397H85.3769C86.0347 71.2397 86.5642 71.7693 86.5642 72.427C86.5642 73.0847 86.0347 73.6142 85.3769 73.6142H68.5798C67.9221 73.6142 67.3926 73.0847 67.3926 72.427C67.3926 71.7693 67.9221 71.2397 68.5798 71.2397Z" fill="#81584A"/>
<path d="M70.1897 3.81592C56.6462 3.81592 45.7422 14.719 45.7422 28.2625V39.7967C45.7422 43.8972 46.7471 47.753 48.5167 51.1401V37.3914C48.5167 25.4376 58.1409 15.8144 70.0948 15.8144H84.4772C96.4311 15.8144 106.054 25.4376 106.054 37.3914V51.1401C107.824 47.753 108.829 43.8972 108.829 39.7967V28.2625C108.829 14.719 97.9248 3.81592 84.3813 3.81592H70.1897Z" fill="#484848"/>
<path d="M50.471 20.8691C52.7618 20.8691 54.606 23.0399 54.606 25.7363V32.6627C54.606 35.3591 52.7618 37.5298 50.471 37.5298C48.1802 37.5298 46.3359 35.3591 46.3359 32.6627V25.7363C46.3359 23.0399 48.1802 20.8691 50.471 20.8691Z" fill="#484848"/>
<path d="M104.102 20.8691C106.393 20.8691 108.237 23.0399 108.237 25.7363V32.6627C108.237 35.3591 106.393 37.5298 104.102 37.5298C101.811 37.5298 99.9668 35.3591 99.9668 32.6627V25.7363C99.9668 23.0399 101.811 20.8691 104.102 20.8691Z" fill="#484848"/>
<path d="M65.0605 4.1709H88.5909C95.6208 4.1709 101.28 9.83037 101.28 16.8603V22.8472C101.28 29.8771 95.6208 35.5366 88.5909 35.5366H65.0605C58.0306 35.5366 52.3711 29.8771 52.3711 22.8472V16.8603C52.3711 9.83037 58.0306 4.1709 65.0605 4.1709V4.1709Z" fill="#4F4F4F"/>
<path d="M49.5326 0.0749979C48.7643 -0.00186667 47.9983 0.193297 47.3921 0.62035C46.7859 1.0474 46.3857 1.67388 46.2737 2.37092C46.2257 2.6702 46.1856 2.96975 46.1557 3.26756C45.2533 12.2604 52.534 20.3913 62.3728 21.3785L73.8635 22.5315C83.7022 23.5187 92.4532 16.9964 93.3555 8.00358C93.3878 7.6822 93.4024 7.38233 93.4146 7.1067C93.445 6.40046 93.178 5.70562 92.6687 5.16545C92.1594 4.62527 91.4466 4.28093 90.6774 4.20343L49.5326 0.0749979Z" fill="#4F4F4F"/>
<path d="M48.1561 15.9468C47.4054 15.947 46.6833 16.2102 46.1383 16.6821C45.5934 17.1541 45.267 17.799 45.2263 18.4842C45.2089 18.7783 45.1992 19.072 45.1992 19.363C45.1992 28.1501 53.0316 35.3091 62.6454 35.3091H73.8732C83.4869 35.3091 91.3194 28.1501 91.3194 19.363C91.3194 19.049 91.3043 18.7575 91.2893 18.4897C91.2502 17.8035 90.9244 17.1572 90.3793 16.6841C89.8342 16.211 89.1113 15.9471 88.3596 15.9468H48.1561Z" fill="#4F4F4F"/>
<path d="M101.28 16.8213V16.893C101.28 23.9229 95.6202 29.5824 88.5903 29.5824H65.0595C64.2386 29.5824 63.4377 29.5022 62.661 29.3547H62.646C54.4493 29.3547 47.5512 24.1492 45.6944 17.1692C45.4154 17.5626 45.254 18.0161 45.2264 18.4843C45.2089 18.7785 45.1992 19.0722 45.1992 19.3632C45.1992 28.1504 53.0322 35.3089 62.646 35.3089H62.661C63.4377 35.4564 64.2386 35.5366 65.0595 35.5366H88.5903C95.6202 35.5366 101.28 29.8771 101.28 22.8472V16.8601C101.28 16.8471 101.279 16.8343 101.279 16.8213L101.28 16.8213Z" fill="#484848"/>
<path d="M125.195 97.5664C124.582 97.5689 123.962 97.6174 123.338 97.7147L123.234 97.7312C116.576 98.7695 112.051 104.966 113.09 111.624L120.862 161.467C121.202 163.651 122.101 165.602 123.385 167.206C124.858 160.272 130.989 155.1 138.375 155.1H143.691C143.998 155.1 144.301 155.111 144.603 155.128L137.231 107.859C136.29 101.825 131.113 97.5435 125.195 97.5665V97.5664Z" fill="#6C4D7B"/>
<path d="M27.7228 96.3355C21.8045 96.3125 16.6275 100.594 15.6865 106.628L9.63448 145.439C8.90362 150.126 10.9313 154.581 14.5168 157.172C15.8484 156.79 17.2544 156.581 18.7121 156.581C21.4939 156.581 24.0937 157.329 26.3273 158.63C30.1736 157.088 33.1223 153.617 33.8097 149.209L39.8618 110.398C40.9001 103.74 36.3756 97.5435 29.7172 96.5051L29.5796 96.4838C28.9553 96.3864 28.335 96.3379 27.7228 96.3355V96.3355Z" fill="#6C4D7B"/>
<path d="M51.5897 127.183H102.004C108.508 127.183 113.744 132.419 113.744 138.923V196.02C113.744 202.524 108.508 207.76 102.004 207.76H51.5897C45.0857 207.76 39.8496 202.524 39.8496 196.02V138.923C39.8496 132.419 45.0857 127.183 51.5897 127.183Z" fill="#533B5E"/>
<path d="M31.7613 93.7695C21.8947 93.7695 13.9512 101.713 13.9512 111.58C13.9512 121.446 21.8947 129.39 31.7613 129.39H122.627C132.494 129.39 140.437 121.446 140.437 111.58C140.437 101.713 132.494 93.7695 122.627 93.7695H105.227C104.845 104.669 95.9516 113.331 84.9553 113.331H68.6376C57.6414 113.331 48.747 104.669 48.365 93.7695H31.7613Z" fill="#8A629D"/>
<path d="M48.7261 91.2207C37.6186 92.857 29.1504 102.303 29.1504 113.784V127.535C29.1504 148.698 39.4145 150.351 52.1646 150.351H101.431C114.181 150.351 124.446 150.351 124.446 127.535V113.784C124.446 102.303 115.977 92.8574 104.87 91.2207C104.407 101.812 95.6571 110.202 84.8552 110.202H68.7411C57.9392 110.202 49.1893 101.812 48.7261 91.2207Z" fill="#8A629D"/>
<path d="M42.8066 206.001H73.6862V253.843H42.8066V206.001Z" fill="#4B4B4B"/>
<path d="M79.9082 206.001H111.289V253.843H79.9082V206.001Z" fill="#4B4B4B"/>
<path d="M45.6573 201.336C43.7227 201.336 41.856 201.615 40.0898 202.124C42.1578 222.399 57.745 238.062 76.7965 238.062C96.0943 238.062 111.839 221.992 113.578 201.336C113.576 201.336 113.574 201.336 113.572 201.336H45.6573Z" fill="#4F4F4F"/>
<path d="M74.3209 202.289H78.2728C79.7306 202.289 80.9042 203.462 80.9042 204.92V225.884C80.9042 227.342 79.7306 228.515 78.2728 228.515H74.3209C72.8631 228.515 71.6895 227.342 71.6895 225.884V204.92C71.6895 203.462 72.8631 202.289 74.3209 202.289Z" fill="#565656"/>
<path d="M108.974 207.428C109.367 207.428 109.683 208.021 109.683 208.757V250.755C109.683 251.491 109.367 252.084 108.974 252.084C108.582 252.084 108.266 251.491 108.266 250.755V208.757C108.266 208.021 108.582 207.428 108.974 207.428Z" fill="white"/>
<path d="M44.4002 207.959C44.7929 207.959 45.1091 208.552 45.1091 209.289V251.287C45.1091 252.023 44.7929 252.616 44.4002 252.616C44.0075 252.616 43.6914 252.023 43.6914 251.287V209.289C43.6914 208.552 44.0075 207.959 44.4002 207.959Z" fill="white"/>
<path d="M40.7716 197.797H113.949C115.754 197.797 117.207 199.25 117.207 201.055V205.065C117.207 206.87 115.754 208.323 113.949 208.323H40.7716C38.9667 208.323 37.5137 206.87 37.5137 205.065V201.055C37.5137 199.25 38.9667 197.797 40.7716 197.797V197.797Z" fill="#6C4D7B"/>
<path d="M43.899 251.229H72.5937C74.0515 251.229 75.2251 252.403 75.2251 253.86C75.2251 255.318 74.0515 256.492 72.5937 256.492H43.899C42.4412 256.492 41.2676 255.318 41.2676 253.86C41.2676 252.403 42.4412 251.229 43.899 251.229Z" fill="#565656"/>
<path d="M81.2525 251.229H109.947C111.405 251.229 112.579 252.403 112.579 253.86C112.579 255.318 111.405 256.492 109.947 256.492H81.2525C79.7947 256.492 78.6211 255.318 78.6211 253.86C78.6211 252.403 79.7947 251.229 81.2525 251.229Z" fill="#565656"/>
<path d="M45.8729 303.632H71.2434C72.5959 303.632 73.6847 304.721 73.6847 306.074V327.468C73.6847 328.821 72.5959 329.91 71.2434 329.91H45.8729C44.5205 329.91 43.4316 328.821 43.4316 327.468V306.074C43.4316 304.721 44.5205 303.632 45.8729 303.632Z" fill="white"/>
<path d="M82.3495 303.632H107.72C109.072 303.632 110.161 304.721 110.161 306.074V327.468C110.161 328.821 109.072 329.91 107.72 329.91H82.3495C80.997 329.91 79.9082 328.821 79.9082 327.468V306.074C79.9082 304.721 80.997 303.632 82.3495 303.632Z" fill="white"/>
<path d="M6.51429 197.565H30.9259C31.5928 197.565 32.1297 198.102 32.1297 198.769V208.399C32.1297 209.066 31.5928 209.602 30.9259 209.602H6.51429C5.84741 209.602 5.31055 209.066 5.31055 208.399V198.769C5.31055 198.102 5.84741 197.565 6.51429 197.565V197.565Z" fill="white"/>
<path d="M52.8384 311.094H60.8716C62.7859 311.094 64.3271 312.635 64.3271 314.549V317.65C64.3271 319.565 62.7859 321.106 60.8716 321.106H52.8384C50.924 321.106 49.3828 319.565 49.3828 317.65V314.549C49.3828 312.635 50.924 311.094 52.8384 311.094Z" fill="#4B4B4B"/>
<path d="M92.7212 311.094H100.754C102.669 311.094 104.21 312.635 104.21 314.549V317.65C104.21 319.565 102.669 321.106 100.754 321.106H92.7212C90.8068 321.106 89.2656 319.565 89.2656 317.65V314.549C89.2656 312.635 90.8068 311.094 92.7212 311.094Z" fill="#4B4B4B"/>
<path d="M49.4755 316.455H61.319C68.1698 316.455 73.6851 321.97 73.6851 328.821C73.6851 335.672 68.1698 341.187 61.319 341.187H49.4755C42.6247 341.187 37.1094 335.672 37.1094 328.821C37.1094 321.97 42.6247 316.455 49.4755 316.455Z" fill="#4F4F4F"/>
<path d="M41.2045 327.641H69.59C71.8587 327.641 73.6851 329.468 73.6851 331.736V337.092C73.6851 339.361 71.8587 341.187 69.59 341.187H41.2045C38.9358 341.187 37.1094 339.361 37.1094 337.092V331.736C37.1094 329.468 38.9358 327.641 41.2045 327.641Z" fill="#4F4F4F"/>
<path d="M92.2743 316.455H104.118C110.969 316.455 116.484 321.97 116.484 328.821C116.484 335.672 110.969 341.187 104.118 341.187H92.2743C85.4235 341.187 79.9082 335.672 79.9082 328.821C79.9082 321.97 85.4235 316.455 92.2743 316.455V316.455Z" fill="#4F4F4F"/>
<path d="M84.0033 327.551H112.389C114.657 327.551 116.484 329.378 116.484 331.646V337.002C116.484 339.271 114.657 341.097 112.389 341.097H84.0033C81.7346 341.097 79.9082 339.271 79.9082 337.002V331.646C79.9082 329.378 81.7346 327.551 84.0033 327.551V327.551Z" fill="#4F4F4F"/>
<path d="M38.6499 336.091H72.1445C72.998 336.091 73.6851 336.778 73.6851 337.631V339.646C73.6851 340.5 72.998 341.187 72.1445 341.187H38.6499C37.7965 341.187 37.1094 340.5 37.1094 339.646V337.631C37.1094 336.778 37.7965 336.091 38.6499 336.091Z" fill="white"/>
<path d="M81.4488 336.057H114.943C115.797 336.057 116.484 336.744 116.484 337.598V339.613C116.484 340.466 115.797 341.153 114.943 341.153H81.4488C80.5953 341.153 79.9082 340.466 79.9082 339.613V337.598C79.9082 336.744 80.5953 336.057 81.4488 336.057Z" fill="white"/>
<path d="M52.1595 317.119H61.5515C62.0423 317.119 62.4375 317.514 62.4375 318.005C62.4375 318.496 62.0423 318.891 61.5515 318.891H52.1595C51.6686 318.891 51.2734 318.496 51.2734 318.005C51.2734 317.514 51.6686 317.119 52.1595 317.119Z" fill="white"/>
<path d="M92.0423 316.942H101.434C101.925 316.942 102.32 317.337 102.32 317.828C102.32 318.319 101.925 318.714 101.434 318.714H92.0423C91.5514 318.714 91.1562 318.319 91.1562 317.828C91.1562 317.337 91.5514 316.942 92.0423 316.942Z" fill="white"/>
<path d="M60.0695 322.851H64.5805C66.1771 322.851 67.4625 324.136 67.4625 325.733C67.4625 327.33 66.1771 328.615 64.5805 328.615H60.0695C58.4729 328.615 57.1875 327.33 57.1875 325.733C57.1875 324.136 58.4729 322.851 60.0695 322.851Z" fill="#585858"/>
<path d="M105.177 321.849H109.688C111.285 321.849 112.57 323.134 112.57 324.731C112.57 326.327 111.285 327.613 109.688 327.613H105.177C103.58 327.613 102.295 326.327 102.295 324.731C102.295 323.134 103.58 321.849 105.177 321.849Z" fill="#585858"/>
<path d="M88.4087 131.982H97.8819C100.611 131.982 102.808 134.18 102.808 136.909C102.808 139.638 100.611 141.835 97.8819 141.835H88.4087C85.6795 141.835 83.4824 139.638 83.4824 136.909C83.4824 134.18 85.6795 131.982 88.4087 131.982Z" fill="#B895C6"/>
<path d="M54.9712 131.982H64.4444C67.1736 131.982 69.3707 134.18 69.3707 136.909C69.3707 139.638 67.1736 141.835 64.4444 141.835H54.9712C52.242 141.835 50.0449 139.638 50.0449 136.909C50.0449 134.18 52.242 131.982 54.9712 131.982Z" fill="#B895C6"/>
<path d="M29.6468 100.084H32.7818C34.5187 100.084 35.9169 101.483 35.9169 103.22C35.9169 104.956 34.5187 106.355 32.7818 106.355H29.6468C27.9099 106.355 26.5117 104.956 26.5117 103.22C26.5117 101.483 27.9099 100.084 29.6468 100.084Z" fill="#B895C6"/>
<path d="M123.739 100.331H126.874C128.61 100.331 130.009 101.729 130.009 103.466C130.009 105.202 128.61 106.601 126.874 106.601H123.739C122.002 106.601 120.604 105.202 120.604 103.466C120.604 101.729 122.002 100.331 123.739 100.331Z" fill="#B895C6"/>
<path d="M76.7967 145.193C79.7419 145.193 82.1129 147.564 82.1129 150.509V155.116C82.1129 158.062 79.7419 160.433 76.7967 160.433C73.8515 160.433 71.4805 158.062 71.4805 155.116V150.509C71.4805 147.564 73.8515 145.193 76.7967 145.193Z" fill="#533B5E"/>
<path d="M52.1595 320.001H61.5515C62.0423 320.001 62.4375 320.396 62.4375 320.887C62.4375 321.378 62.0423 321.773 61.5515 321.773H52.1595C51.6686 321.773 51.2734 321.378 51.2734 320.887C51.2734 320.396 51.6686 320.001 52.1595 320.001Z" fill="white"/>
<path d="M92.0423 320.576H101.434C101.925 320.576 102.32 320.971 102.32 321.462C102.32 321.953 101.925 322.348 101.434 322.348H92.0423C91.5514 322.348 91.1562 321.953 91.1562 321.462C91.1562 320.971 91.5514 320.576 92.0423 320.576Z" fill="white"/>
<path d="M154.615 138.848C151.988 138.848 149.873 140.963 149.873 143.59V152.08C151.59 150.774 153.729 149.991 156.063 149.991H164.517C167.59 149.991 170.33 151.341 172.201 153.473V143.59C172.201 140.963 170.087 138.848 167.46 138.848H154.615ZM172.201 184.832C170.33 186.964 167.59 188.313 164.517 188.313H156.063C153.729 188.313 151.59 187.53 149.873 186.224V192.586C149.873 195.213 151.988 197.327 154.615 197.327H167.46C170.087 197.327 172.201 195.213 172.201 192.586V184.832Z" fill="#2AA2E0"/>
<path d="M157.122 134.143H164.953C165.508 134.143 165.956 134.59 165.956 135.145V138.152C165.956 138.708 165.508 139.155 164.953 139.155H157.122C156.566 139.155 156.119 138.708 156.119 138.152V135.145C156.119 134.59 156.566 134.143 157.122 134.143Z" fill="#1873A2"/>
<path d="M166.076 141.598H166.765C168.084 141.598 169.146 142.66 169.146 143.979V145.859C169.146 147.177 168.084 148.239 166.765 148.239H166.076C164.757 148.239 163.695 147.177 163.695 145.859V143.979C163.695 142.66 164.757 141.598 166.076 141.598Z" fill="#DCD0E1"/>
<path d="M105.25 92.9916C105.002 92.9845 104.76 93.0763 104.58 93.247C104.399 93.4176 104.293 93.6531 104.286 93.9016C103.838 104.231 95.4038 112.393 84.9552 112.393H68.6375C58.189 112.393 49.7547 104.231 49.3068 93.9016C49.3016 93.7784 49.2722 93.6575 49.2202 93.5457C49.1683 93.4339 49.0948 93.3335 49.0039 93.2501C48.9131 93.1667 48.8068 93.1021 48.6909 93.0599C48.5751 93.0177 48.4521 92.9987 48.3289 93.004C48.2058 93.0094 48.0849 93.039 47.9732 93.0911C47.8615 93.1432 47.7611 93.2168 47.6778 93.3077C47.5946 93.3986 47.5301 93.5051 47.488 93.6209C47.4459 93.7368 47.4271 93.8598 47.4326 93.983C47.9229 105.291 57.2094 114.269 68.6375 114.269H84.9552C96.3833 114.269 105.67 105.291 106.16 93.983C106.167 93.8577 106.149 93.7323 106.107 93.614C106.065 93.4958 106 93.3873 105.915 93.2949C105.83 93.2024 105.727 93.1279 105.613 93.0759C105.499 93.0238 105.376 92.9951 105.25 92.9916V92.9916Z" fill="#533B5E"/>
</g>
<defs>
<clipPath id="clip0_3044_3079">
<rect width="174.274" height="341.372" fill="white" transform="translate(0.863281)"/>
</clipPath>
</defs>
</svg>
