<svg xmlns="http://www.w3.org/2000/svg" viewBox="0 0 500 500"><g id="freepik--character-4--inject-156"><g id="freepik--Chartacter--inject-156"><g id="freepik--arm--inject-156"><path d="M319.07,265.77A12.45,12.45,0,0,0,318,268.9c-.49,2.68.49,5.39,1,8.07a2.56,2.56,0,0,1-.4,2.44.57.57,0,0,1-.51.24.63.63,0,0,1-.35-.35,15.35,15.35,0,0,1-1.54-3.46,16.78,16.78,0,0,0,.13,3.47,6.34,6.34,0,0,1,0,2.74c-.28.87-1.26,1.58-2,1.15a2.4,2.4,0,0,1-.91-1.49c-.21-.68-.42-1.36-.64-2a28.64,28.64,0,0,1-.78-2.89,13.62,13.62,0,0,1,2.17-10.25,5,5,0,0,1,2.05-1.85,2.93,2.93,0,0,1,2.47.14C319.15,265.07,319.31,265.26,319.07,265.77Z" style="fill:#9a4a4d"></path><path d="M310.35,270.49a97.55,97.55,0,0,1,1-10.72c.66-3.39,2-16.43,2.66-20.06.82-4.76,2-7.77,2.64-10.72.77-3.3,1.41-7.82,2.78-15s3-11.22,6.59-13.55a16,16,0,0,1,8.88-2.75c.81,2.21.09,9.95.09,9.95s-3.39,16.5-3.72,18.53-4,11.31-6.4,18.86c-1.39,4.33-3.48,10.43-3.48,10.43-.63,2.69-.86,3.55-.31,5.69.23.9.59,1.75.82,2.66a15.9,15.9,0,0,1,.46,3c0,.67,0,1.36.07,2,.06,1.27.27,2.52.42,3.78.11.92-.42,1.48-1.35,1.2a2.84,2.84,0,0,1-1.54-1.41,12.28,12.28,0,0,1-.82-2.89c-.11-.46-.68-3.3-1.58-2.52s-1.57,2.86-2.57,4.37a6.21,6.21,0,0,0-1.33,4.74c.17,2.28,1.28,5.33.91,7.27s-1.43,2.35-1.82,1.55-1.59-5.46-2-7.07A22.39,22.39,0,0,1,310.35,270.49Z" style="fill:#b16668"></path></g><g id="freepik--head--inject-156"><path d="M358.3,163s2.46.09,4.19,3.12c.87,1.52,1.56,4.33-.33,12.51a32.46,32.46,0,0,1-3.55,9.09,4,4,0,0,1-2.25,1.95l-.08-6.23.06-4.35s-3.62-3-4-6.14a10,10,0,0,1,.93-6.33Z" style="fill:#263238"></path><path d="M359.16,163.13c-.75-3.47-5.35-7.47-13.93-7.59-7-.1-11,2.47-13.32,6.66s-.46,9.42-.46,9.42l22-2.31Z" style="fill:#263238"></path><path d="M362,185c-3.17,1.69-4.74-.8-4.74-.8l0,12.85c-5.86,8.53-22.5,6.69-16,.22l-.1-3.43a20.44,20.44,0,0,1-2.81-.16c-2.87-.34-4.75-2.54-5.72-5.6a43.18,43.18,0,0,1-.8-19.69c.27-1.51.85-3.18,2.21-3.92,3.36-1.82,6.62.49,11.47,2.17,2,.69,6.82.84,8.06.2-1.59,1.9-1.35,7.71,1.2,10a5.33,5.33,0,0,0,1.29,1.55c1.08.87,1.84-1.51,2.68-2.46a3.61,3.61,0,0,1,5.65,1.07A5.87,5.87,0,0,1,362,185Z" style="fill:#b16668"></path><path d="M344.86,171.15l3.2,1.24a1.8,1.8,0,0,0-1-2.28A1.68,1.68,0,0,0,344.86,171.15Z" style="fill:#263238"></path><path d="M333,172.15l3.29-1.1a1.67,1.67,0,0,0-2.13-1.13A1.83,1.83,0,0,0,333,172.15Z" style="fill:#263238"></path><path d="M347.24,174.87a1.41,1.41,0,1,1-1.41-1.4A1.42,1.42,0,0,1,347.24,174.87Z" style="fill:#263238"></path><path d="M336.74,174.76a1.4,1.4,0,1,1-1.41-1.4A1.29,1.29,0,0,1,336.74,174.76Z" style="fill:#263238"></path><path d="M342.05,171.91l-.8,9-4.78-1.56A20.92,20.92,0,0,1,342.05,171.91Z" style="fill:#9a4a4d"></path><path d="M354.91,176.07c-.36,6.11-2.47,6.5-4.65,6.83-2.88.44-4.28-1.13-9.42-1.2-3.12,0-4.11.88-5.89,1.58-1.32.53-2.39.35-2.87-.83a20.35,20.35,0,0,1-.9-6.61,49.19,49.19,0,0,0,.12,10c.39,2.87,1.41,5.35,3,6.71,2.18,1.89,6.76,2.7,12.53,1.51s8-3.56,8.68-5.58c2.33-6.56,1.48-9.69,2.25-10.93S354.91,176.07,354.91,176.07Z" style="fill:#263238"></path><path d="M341.55,182.76c2.93,0,3.51.29,4.13,2.69.48,1.88.22,3.74-.88,4.4s-2.61.44-2.65-.38a3.15,3.15,0,0,1,.21-1.84c.46-.54.3-.63-1-.61s-1.27.24-.89.64.24,1.28.23,1.85-.27,1.32-2,.66c-1.4-.54-1.94-1.93-1.39-4.34C337.79,183.73,338.73,182.75,341.55,182.76Z" style="fill:#b16668"></path><path d="M344,183.46l-5,1a2.5,2.5,0,0,0,2.95,2.06A2.66,2.66,0,0,0,344,183.46Z" style="fill:#9a4a4d"></path><path d="M343.37,184.26a2.48,2.48,0,0,1,.61,0,2.63,2.63,0,0,1-2,2.27,2.46,2.46,0,0,1-.81,0A2.34,2.34,0,0,1,343.37,184.26Z" style="fill:#f28f8f"></path></g><g id="freepik--Body--inject-156"><path d="M377.13,401.74a108.34,108.34,0,0,1-2.36-14c-.24-2.78-.62-4.12-.63-6.51.28-10.08.38-20.3.65-28.11a83.58,83.58,0,0,0-.33-14.29,60.13,60.13,0,0,0-2.1-9.31c.07-6.35.07-23.6.21-36.63.24-21.33-.71-31.52-1.09-37.86-.08-4.2-.06-9.86.06-14.16.23-7.43.49-9.36.82-19,.59-17.22-4.92-21.08-4.92-21.08s-7.2-1.39-8.66-2-1.53-1.26-1.46-2.54l-22.66,1.38c-3.68.37-9.66,7.66-10.33,16.26-.55,7.17-.58,10.3.28,14,.12,4.05-.09,9-.13,12.11s-1,14.09-.78,19.2c-.11,3.26-.32,18.45-.91,34.09-.51,13.83-.56,27.24-.27,30,.94,9.29,1.86,24.46,4.29,41.23.45,3.1.73,7.45-1,10.31S317.74,386.6,314,388.82c-2,1.17-3.57,2.05-3.35,3.66s1.24,2.79,5.73,3.09a21.41,21.41,0,0,0,7.83-.76,11.91,11.91,0,0,0,5.83-3.48c2-1.88,4.38-7.72,8.8-9.41,2.89-1.11,3.07-4.55,2.08-7.54-.78-2.35-1.19-2.68-.78-8.09.66-8.65,2.08-16.71,2.69-23.41a77.13,77.13,0,0,0-.7-16.19l4-24c1.92,10.59,7,34.79,7,34.79,1.53,8.19,6.22,28,8.78,38.65,1,4.52,1.48,17.48,1.6,20.49a71.68,71.68,0,0,1,.06,7.24,24.61,24.61,0,0,0,0,8.4c.82,4.13,4.33,4.08,5.13,2.85,0,0,5.55-2.08,6.95-5.11C377.32,406.25,377.83,403.81,377.13,401.74Z" style="fill:#b16668"></path><path d="M325,227.93c-1.15-4.58-.78-9.32-.69-14-.57,4.53-1.15,9.81-.14,14,.14,9.14-.62,18.25-.65,27.38,0,1.31,0,2.62.16,3.92C324.18,248.81,325.47,238.4,325,227.93Z" style="fill:#9a4a4d"></path><path d="M366.74,227.85c1.22,3.37,4.77,14.34,4.77,14.34l.07-2.48c.22-6.47.47-8.71.78-17.8.08-2.41,0-4.54-.08-6.45h-8.23C364,221.12,365.52,224.49,366.74,227.85Z" style="fill:#9a4a4d"></path><path d="M323.7,259.25c5.2,6.35,17.23,11,32.51,6.65s15.41-9.51,15.41-9.51.74,9.29,1.06,15.26c.39,7.23.54,14.48.39,27.23-.12,10.17-.34,17.81-.34,17.81s-2,3.9-12.13,3.89c-12.15,0-12.75-4-12.75-4l-1.75-12.82-1.76,10.51a31,31,0,0,1-13.16,1c-7.69-1-9.1-3.54-9.1-3.54S322.79,275.09,323.7,259.25Z" style="fill:#BA68C8"></path><path d="M329.3,273.89c3.35,7.68,14.37,8.85,14.37,8.85l2.43,21-1.76,10.51s-.5.17-1.39.39l1-8.13-3.49-20.85A15.11,15.11,0,0,1,329.3,273.89Z" style="opacity:0.2"></path><path d="M359.24,234.42c-2.3,1.43-5.84,1.53-7.94,1.27a19.17,19.17,0,0,1-6.74-2.34,18.36,18.36,0,0,0-2.06-1c-1.73-.62-2.93-.07-4.49.11a16.73,16.73,0,0,1-7.28-.82,5.08,5.08,0,0,1-3.07-2.2,12.85,12.85,0,0,0,9.1,1.65,7.28,7.28,0,0,0,2.42-.74,2.64,2.64,0,0,0,1.14-1.77,22,22,0,0,0,.37-2.3c.22-2,1-5,1.78-4.08a.61.61,0,0,1,.11.36c.1,1.71-.63,4.8.06,6.84s2.88,3,5.22,3.8a23,23,0,0,0,7.62,1.24C358.16,234.42,360.72,233.49,359.24,234.42Z" style="fill:#9a4a4d;opacity:0.30000000000000004"></path><path d="M348.81,207.66c2.24-1.19,8.76-1.16,11.31-1.25s2.51.81-1.73,1.22c-3.87.38-7.45.24-9.56,1.4-1.9,1.05-2.67,1.93-2.84,1.31S347.48,208.36,348.81,207.66Z" style="fill:#9a4a4d;opacity:0.30000000000000004"></path><path d="M340.32,207c.45.69,1.21,3.19.65,3.31s-.78-1.71-2.1-3.29-3.55-3.52-4.18-4.22-1.08-2.09,1.16-.06A39.1,39.1,0,0,1,340.32,207Z" style="fill:#9a4a4d;opacity:0.30000000000000004"></path><path d="M338.29,255.59c.13-.1.27-.18.4-.27a.56.56,0,0,0,.17-.53c0-.16-.17-.46-.41-.41.09,0-.09,0-.11,0l-.11,0-.3.13a3.47,3.47,0,0,0-.46.27,3.13,3.13,0,0,0-.72.78c-.49.71-.92,1.89-.27,2.62,0,0,.13.12.2.1.39-.09.44-.49.48-.8v0s0-.06,0-.09a2,2,0,0,1,.05-.26l.09-.26,0-.06,0-.08c0-.09.1-.17.15-.26l0,0a2.37,2.37,0,0,1,.19.35,10,10,0,0,1,.34,1.06c.06.17.24,0,.27-.07a1.74,1.74,0,0,0-.06-1.06,3.34,3.34,0,0,0-.38-.81h0C338,255.83,338.16,255.71,338.29,255.59Z" style="fill:#9a4a4d"></path></g><g id="freepik--arm--inject-156"><path d="M364.54,280.93l0,0A6.67,6.67,0,0,0,363,284a3.21,3.21,0,0,0,3.61-.56,11.73,11.73,0,0,0,2.3-3.13,1.54,1.54,0,0,1,.46-.52c1.13-.61.41,2,.33,2.36a24.26,24.26,0,0,1-1.34,4.44c-.36,1.12-3.17,3.68-3.83,4.72a2.34,2.34,0,0,0-.12,2.72c.51.48,1.6-.22,2.95-1.53a29,29,0,0,0,2.83-2.75c.51-.76,1.05-1.51,1.05-1.51a16.08,16.08,0,0,1-1.11,2.71c-.49.76-2.36,2.65-2.95,3.6a2.11,2.11,0,0,0,.2,2.38c.33.37.5.92,2.3-.86a28.87,28.87,0,0,0,2.49-2.73,2.65,2.65,0,0,0,2.61-.82,26.48,26.48,0,0,0,2.79-4,3.65,3.65,0,0,0,2.22-1.84c.73-1.49,1.69-3.86,2.41-5.77s.5-7.21.89-10.57c.12-1,2.67-12.57,3.72-18.47,1.4-7.83,1.15-9.84.2-13.79-1.19-5-2.13-7.87-5-17.79-2.11-7.22-3.59-12.63-5.76-14.74-3.38-3.28-4.58-4-10.21-5-2.32,7.33-3.58,14.93.84,24.23,2.67,8.87,6.59,21.06,6.59,21.06S372,268.54,372,269c-.09,1.92-1.51,2.59-2.81,3.79C366.88,275,366.29,278.33,364.54,280.93Z" style="fill:#b16668"></path><path d="M372.12,293.34a17.13,17.13,0,0,0,2.57-3.94,21.21,21.21,0,0,0,1.59-4.42c-.59,1.45-1.17,2.9-1.87,4.29A35.53,35.53,0,0,1,372.12,293.34Z" style="fill:#9a4a4d"></path><path d="M377.52,288.53a8.46,8.46,0,0,0,1.21-2,10.08,10.08,0,0,0,.71-2.24c-.37.7-.67,1.42-1,2.12Z" style="fill:#9a4a4d"></path><path d="M371.19,288.24a21.62,21.62,0,0,0,2-3.55,8.58,8.58,0,0,1-2.42,4.83Z" style="fill:#9a4a4d"></path></g></g></g></svg>
