<svg width="573" height="545" viewBox="0 0 573 545" fill="none" xmlns="http://www.w3.org/2000/svg">
  <path d="M98.2252 237.361L235.18 318.679L239.896 351.841L262.673 363.159V528.798L211.609 526.688L140.914 519.832L67.8018 507.27L34.981 499.737L13.4609 488.977L20.4546 454.544L29.6009 417.959L50.5852 350.168L75.8704 284.53L98.2252 237.361Z" fill="#6C4D7B" />
  <path d="M192.098 107.614C224.72 65.0059 286.334 17.7378 286.334 17.7378C286.334 17.7378 339.512 61.7809 385.831 117.6C432.15 173.42 446.621 210.868 446.621 210.868L313.789 289.483L286.334 274.121L259.572 289.483L117.703 204.542C117.703 204.542 157.504 147.21 192.098 107.614Z" fill="white" fill-opacity="0.5" />
  <path d="M248.977 285.416L116.81 206.58L101.04 236.992L237.896 314.712V296.127L248.977 285.416Z" fill="white" />
  <path d="M336.38 314.942L470.99 239.371L454.246 210.853L321.962 288.262L335.487 298.586L336.38 314.942Z" fill="white" />
  <path d="M266.18 370.625L266.179 528.725L304.3 528.725L304.3 370.625L285.692 379.434L266.18 370.625Z" fill="white" />
  <path d="M283.313 540.434C283.313 532.934 283.313 532.934 283.312 532.934H283.306H283.278L283.162 532.933C283.058 532.933 282.901 532.933 282.693 532.932C282.497 532.932 282.255 532.931 281.969 532.929C281.646 532.928 281.267 532.926 280.833 532.923C279.196 532.912 276.78 532.891 273.681 532.848C267.482 532.762 258.551 532.59 247.647 532.247C225.829 531.559 196.154 530.184 164.678 527.437C133.173 524.688 100.024 520.578 71.2069 514.452C44.7716 508.832 22.9284 501.7 9.21677 492.971C50.6611 315.032 104.788 154.529 285.575 10.4768C464.447 155.766 515.051 328.066 557.095 471.22C559.137 478.175 561.16 485.061 563.176 491.872C560.341 492.971 556.508 494.394 551.677 496.046C539.804 500.108 521.909 505.56 498.033 511.024C450.286 521.952 378.602 532.934 283.313 532.934V540.434Z" stroke="black" stroke-width="15" />
  <path d="M286.236 11.9883L286.236 273.935" stroke="black" stroke-width="15" />
  <path d="M263.174 365.381L263.174 530.23" stroke="black" stroke-width="15" />
  <path d="M309.852 361.94L309.852 531.137" stroke="black" stroke-width="15" />
  <path d="M249.48 350.461L11.0467 491.099" stroke="black" stroke-width="15" />
  <path d="M476.236 239.809L333.839 320.298" stroke="black" stroke-width="15" />
  <path d="M454.512 205.242L316.572 285.115" stroke="black" stroke-width="15" />
  <path d="M558.221 487.096L326.525 351.797" stroke="black" stroke-width="15" />
  <path d="M240.976 319.449L95.4591 238.144" stroke="black" stroke-width="15" />
  <path d="M257.396 286.429L116.883 203.521" stroke="black" stroke-width="15" />
  <path d="M242.237 297.418L287.403 271.341L332.569 297.418V349.571L287.403 375.647L242.237 349.571V297.418Z" fill="#4298B4" />
  <path d="M242.237 297.418L287.403 271.341L332.569 297.418V349.571L287.403 375.647L242.237 349.571V297.418Z" fill="white" />
  <path d="M242.237 297.418L287.403 271.341L332.569 297.418V349.571L287.403 375.647L242.237 349.571V297.418Z" stroke="black" stroke-width="15" />
</svg>