<svg width="285" height="269" viewBox="0 0 285 269" fill="none" xmlns="http://www.w3.org/2000/svg">
<path d="M141.335 268.648C141.335 268.399 141.335 268.399 141.334 268.399H141.33H141.315L141.255 268.399L141.016 268.399C140.805 268.398 140.491 268.397 140.08 268.394C139.259 268.389 138.051 268.378 136.502 268.357C133.405 268.314 128.948 268.228 123.508 268.056C112.628 267.714 97.8192 267.028 82.1009 265.656C66.3816 264.284 49.7583 262.227 35.2482 259.143C20.8135 256.074 8.50783 251.996 1.25501 246.591C22.1436 156.293 49.2163 74.2907 142.479 0.940784C233.958 74.1747 259.604 161.523 280.651 233.209C281.976 237.722 283.282 242.173 284.586 246.554C284.496 246.594 284.375 246.646 284.224 246.711C283.848 246.871 283.285 247.106 282.533 247.406C281.03 248.004 278.775 248.861 275.771 249.888C269.762 251.944 260.755 254.686 248.773 257.428C224.809 262.913 188.939 268.399 141.335 268.399V268.648Z" fill="white" stroke="black" stroke-width="0.49675"/>
<path d="M142.787 1.09326L142.787 268.269" stroke="black" stroke-width="2.0264"/>
<path d="M233.307 109.886L1.60032 247.266" stroke="black" stroke-width="2.0264"/>
<path d="M283.127 246.954L48.203 107.963" stroke="black" stroke-width="2.0264"/>
</svg>
