<svg width="291" height="291" viewBox="0 0 291 291" fill="none" xmlns="http://www.w3.org/2000/svg">
<circle cx="145.653" cy="145.351" r="142.105" stroke="black" stroke-width="5.09996"/>
<rect x="23.7316" y="44.0352" width="242.119" height="242.119" stroke="black" stroke-width="5.09996"/>
<path d="M167.287 105.442L167.281 105.397C166.89 102.477 170.66 100.72 175.702 101.473L184.879 101.766L194.988 102.729L204.206 103.829L213.488 106.026C218.53 106.779 223.011 110.857 223.402 113.777L223.408 113.822C223.8 116.742 216.062 116.182 208.579 116.609C205.565 117.272 202.38 117.449 199.098 117.137L197.986 117.031L177.125 112.092C172.083 111.339 167.678 108.362 167.287 105.442Z" fill="#81584A"/>
<path d="M200.314 111.247C198.375 110.867 196.673 109.644 196.514 108.515C196.354 107.387 197.797 106.779 199.736 107.159L202.29 107.659C204.23 108.039 205.931 109.262 206.091 110.39C206.251 111.519 204.808 112.127 202.868 111.747L200.314 111.247Z" fill="#906253"/>
<path d="M192.982 114.326L192.978 114.283C192.714 111.493 196.462 108.569 201.349 107.752L238.049 101.617C242.936 100.8 247.112 102.399 247.376 105.189L247.381 105.232C247.645 108.022 243.897 110.946 239.009 111.763L202.31 117.898C197.423 118.715 193.246 117.116 192.982 114.326Z" fill="#81584A"/>
<path d="M235.9 108.454L235.797 106.899C235.598 103.918 239.489 100.782 244.487 99.8935L248.927 99.1044C253.925 98.2163 258.138 99.9127 258.336 102.894L258.44 104.449C258.638 107.43 254.748 110.566 249.75 111.454L245.309 112.243C240.312 113.131 236.099 111.435 235.9 108.454Z" fill="#906253"/>
<path d="M209.09 116.994C202.986 118.091 197.867 116.259 197.655 112.904C197.443 109.548 202.22 105.938 208.323 104.842L217.002 103.283C223.106 102.186 228.225 104.018 228.437 107.373C228.649 110.729 223.872 114.339 217.769 115.435L209.09 116.994Z" fill="#906253"/>
<path d="M206.609 116.91C205.488 117.082 204.55 116.772 204.513 116.217C204.477 115.662 205.356 115.073 206.477 114.9L213.833 113.771C214.953 113.599 215.891 113.909 215.928 114.464C215.964 115.019 215.085 115.609 213.965 115.781L206.609 116.91Z" fill="#9D6B5A"/>
<path d="M248.617 108.866C245.368 108.688 243.573 106.01 244.608 102.884C245.643 99.759 249.116 97.3699 252.366 97.5482L261.24 98.035C264.49 98.2132 266.284 100.891 265.249 104.017C264.214 107.142 260.741 109.531 257.492 109.353L248.617 108.866Z" fill="#906253"/>
<path d="M247.165 112.962C244.946 113.322 243.078 112.605 242.993 111.358C242.909 110.112 244.639 108.81 246.858 108.45L252.92 107.465C255.139 107.104 257.007 107.822 257.091 109.068C257.176 110.314 255.446 111.617 253.227 111.977L247.165 112.962Z" fill="#9D6B5A"/>
<path d="M172.953 109.017L172.917 108.988C170.618 107.148 172.233 103.482 176.526 100.799L183.596 95.1456L191.826 89.3757L199.483 84.2727L207.941 79.9153C212.233 77.2325 218.39 77.2884 220.689 79.1281L220.725 79.1569C223.024 80.9967 216.847 85.5398 211.538 90.6264C209.748 93.0129 207.486 95.181 204.833 97.0412L203.898 97.6968L184.888 107.49C180.596 110.173 175.253 110.856 172.953 109.017Z" fill="#81584A"/>
<path d="M201.9 92.1884C200.241 93.1996 198.13 93.3933 197.187 92.6209C196.243 91.8485 196.824 90.4025 198.484 89.3912L200.669 88.0595C202.329 87.0483 204.439 86.8546 205.382 87.627C206.326 88.3994 205.745 89.8454 204.086 90.8567L201.9 92.1884Z" fill="#906253"/>
<path d="M203.143 90.0287L203.119 89.9865C201.544 87.2881 203.599 82.8699 207.71 80.1181L238.572 59.4557C242.682 56.704 247.29 56.6607 248.865 59.3591L248.89 59.4013C250.464 62.0997 248.409 66.5179 244.299 69.2697L213.437 89.9321C209.326 92.6839 204.718 92.7271 203.143 90.0287Z" fill="#81584A"/>
<path d="M239.401 66.4309L238.592 64.9606C237.041 62.1427 239.222 57.5988 243.463 54.8116L247.231 52.3354C251.472 49.5482 256.168 49.5731 257.719 52.391L258.529 53.8613C260.08 56.6792 257.899 61.2231 253.658 64.0103L249.889 66.4865C245.648 69.2737 240.952 69.2488 239.401 66.4309Z" fill="#906253"/>
<path d="M219.254 86.3804C214.105 89.8205 208.505 90.0007 206.747 86.783C204.988 83.5653 207.736 78.168 212.885 74.7279L220.206 69.8366C225.355 66.3965 230.955 66.2162 232.713 69.4339C234.472 72.6517 231.724 78.0489 226.575 81.489L219.254 86.3804Z" fill="#906253"/>
<path d="M216.848 87.0339C215.899 87.652 214.888 87.7118 214.59 87.1675C214.291 86.6232 214.818 85.681 215.766 85.0629L221.991 81.0061C222.94 80.388 223.951 80.3282 224.249 80.8725C224.548 81.4168 224.021 82.359 223.073 82.9771L216.848 87.0339Z" fill="#9D6B5A"/>
<path d="M250.719 60.6026C247.628 61.5889 244.994 60.0538 244.835 57.1739C244.677 54.294 247.055 51.1598 250.146 50.1735L258.589 47.4795C261.68 46.4932 264.314 48.0283 264.472 50.9082C264.631 53.7881 262.253 56.9223 259.162 57.9086L250.719 60.6026Z" fill="#906253"/>
<path d="M251.783 66.0971C249.899 67.3183 247.834 67.3323 247.169 66.1284C246.505 64.9244 247.494 62.9585 249.378 61.7374L254.523 58.402C256.407 57.1808 258.472 57.1668 259.136 58.3707C259.801 59.5747 258.812 61.5406 256.928 62.7617L251.783 66.0971Z" fill="#9D6B5A"/>
<path d="M115.715 108.971L115.751 108.942C118.05 107.103 116.435 103.436 112.142 100.754L105.072 95.1002L96.8418 89.3303L89.1853 84.2273L80.7271 79.8699C76.435 77.1871 70.2783 77.2429 67.979 79.0827L67.943 79.1115C65.6437 80.9513 71.8212 85.4944 77.1298 90.581C78.9203 92.9675 81.1824 95.1356 83.835 96.9958L84.7698 97.6514L103.78 107.445C108.072 110.128 113.415 110.811 115.715 108.971Z" fill="#81584A"/>
<path d="M86.7677 92.143C88.4274 93.1542 90.5377 93.3479 91.4811 92.5755C92.4246 91.803 91.844 90.3571 90.1844 89.3458L87.9989 88.0141C86.3392 87.0028 84.229 86.8092 83.2855 87.5816C82.342 88.354 82.9226 89.8 84.5822 90.8113L86.7677 92.143Z" fill="#906253"/>
<path d="M85.5246 89.9833L85.5492 89.9411C87.1239 87.2427 85.0685 82.8245 80.9584 80.0727L50.096 59.4103C45.9859 56.6585 41.3775 56.6153 39.8028 59.3137L39.7782 59.3559C38.2035 62.0543 40.2589 66.4725 44.369 69.2243L75.2314 89.8867C79.3415 92.6385 83.95 92.6817 85.5246 89.9833Z" fill="#81584A"/>
<path d="M49.2668 66.3855L50.0761 64.9152C51.6273 62.0973 49.4464 57.5534 45.2051 54.7662L41.437 52.29C37.1956 49.5028 32.4998 49.5277 30.9487 52.3456L30.1394 53.8159C28.5882 56.6338 30.7691 61.1777 35.0104 63.9649L38.7785 66.4411C43.0199 69.2283 47.7157 69.2034 49.2668 66.3855Z" fill="#906253"/>
<path d="M69.414 86.335C74.5629 89.7751 80.1625 89.9553 81.9212 86.7376C83.6798 83.5199 80.9315 78.1226 75.7827 74.6825L68.4617 69.7911C63.3128 66.351 57.7132 66.1708 55.9546 69.3885C54.1959 72.6062 56.9442 78.0035 62.093 81.4436L69.414 86.335Z" fill="#906253"/>
<path d="M71.8203 86.9885C72.7688 87.6066 73.7797 87.6664 74.0784 87.1221C74.377 86.5778 73.8503 85.6356 72.9018 85.0175L66.6766 80.9607C65.7282 80.3426 64.7172 80.2828 64.4185 80.8271C64.1199 81.3714 64.6467 82.3136 65.5951 82.9317L71.8203 86.9885Z" fill="#9D6B5A"/>
<path d="M37.949 60.5572C41.0402 61.5435 43.6744 60.0084 43.8326 57.1285C43.9909 54.2486 41.6133 51.1144 38.5221 50.1281L30.0792 47.4341C26.988 46.4478 24.3538 47.9829 24.1956 50.8628C24.0373 53.7427 26.4149 56.8769 29.5061 57.8632L37.949 60.5572Z" fill="#906253"/>
<path d="M36.8851 66.0517C38.7689 67.2729 40.8344 67.2869 41.4986 66.083C42.1628 64.879 41.1741 62.9131 39.2902 61.692L34.145 58.3566C32.2612 57.1354 30.1956 57.1214 29.5315 58.3253C28.8673 59.5292 29.856 61.4952 31.7398 62.7163L36.8851 66.0517Z" fill="#9D6B5A"/>
<path d="M122.746 103.29L122.752 103.244C123.144 100.324 119.373 98.5678 114.331 99.3208L105.155 99.6138L95.0453 100.577L85.8269 101.676L76.5454 103.874C71.5032 104.626 67.0223 108.704 66.6309 111.624L66.6248 111.67C66.2335 114.59 73.9713 114.03 81.4543 114.456C84.4678 115.119 87.6528 115.297 90.9351 114.984L92.0473 114.879L112.908 109.94C117.95 109.187 122.355 106.21 122.746 103.29Z" fill="#81584A"/>
<path d="M89.7189 109.095C91.6583 108.715 93.36 107.492 93.5196 106.363C93.6792 105.234 92.2363 104.627 90.2969 105.007L87.7429 105.507C85.8034 105.886 84.1018 107.109 83.9422 108.238C83.7825 109.367 85.2254 109.974 87.1649 109.594L89.7189 109.095Z" fill="#906253"/>
<path d="M97.0548 112.174L97.0589 112.13C97.323 109.341 93.5751 106.417 88.6876 105.6L51.9884 99.4645C47.1009 98.6475 42.9248 100.247 42.6607 103.036L42.6566 103.08C42.3925 105.869 46.1404 108.793 51.0278 109.61L87.7271 115.745C92.6145 116.562 96.7907 114.963 97.0548 112.174Z" fill="#81584A"/>
<path d="M54.1366 106.301L54.2402 104.746C54.4387 101.765 50.548 98.6289 45.55 97.7407L41.1098 96.9517C36.1118 96.0636 31.8993 97.76 31.7008 100.741L31.5972 102.296C31.3987 105.277 35.2895 108.413 40.2874 109.302L44.7276 110.091C49.7256 110.979 53.9381 109.282 54.1366 106.301Z" fill="#906253"/>
<path d="M80.9471 114.842C87.0508 115.938 92.1705 114.107 92.3822 110.751C92.594 107.395 87.8176 103.786 81.7139 102.689L73.0352 101.13C66.9314 100.033 61.8118 101.865 61.6 105.221C61.3883 108.577 66.1647 112.186 72.2684 113.282L80.9471 114.842Z" fill="#906253"/>
<path d="M83.4286 114.758C84.5493 114.93 85.4874 114.619 85.5238 114.064C85.5603 113.509 84.6813 112.92 83.5606 112.748L76.2045 111.618C75.0837 111.446 74.1456 111.757 74.1092 112.312C74.0727 112.867 74.9517 113.456 76.0724 113.628L83.4286 114.758Z" fill="#9D6B5A"/>
<path d="M41.4197 106.713C44.6689 106.535 46.4639 103.857 45.4288 100.732C44.3938 97.6063 40.9207 95.2172 37.6714 95.3955L28.7968 95.8823C25.5476 96.0605 23.7526 98.7385 24.7877 101.864C25.8227 104.989 29.2958 107.378 32.5451 107.2L41.4197 106.713Z" fill="#906253"/>
<path d="M42.8721 110.809C45.0913 111.17 46.9591 110.452 47.0438 109.206C47.1286 107.96 45.3982 106.657 43.179 106.297L37.1175 105.312C34.8982 104.952 33.0304 105.67 32.9457 106.916C32.8609 108.162 34.5913 109.464 36.8106 109.825L42.8721 110.809Z" fill="#9D6B5A"/>
<path d="M135.361 222.188L134.746 222.188C131.242 222.188 128.401 225.029 128.401 228.534L128.401 250.72L128.401 265.471L127.113 280.589C127.113 283.893 129.745 286.571 132.992 286.571H134.362C137.609 286.571 140.241 283.893 140.241 280.589V258.427C140.241 256.941 140.543 255.47 141.128 254.105C141.714 252.739 142.016 251.268 142.016 249.782V246.766C142.016 245.08 141.845 243.399 141.506 241.747C141.167 240.096 140.997 238.414 140.997 236.729V227.824C140.997 227.554 140.977 227.284 140.939 227.017C140.538 224.245 138.162 222.188 135.361 222.188Z" fill="#906253"/>
<path d="M134.427 163.948L131.477 163.948C128.22 163.948 125.419 166.254 124.793 169.451L122.885 195.692V209.151L123.821 216.144C124.172 218.765 124.908 221.319 126.007 223.723L127.894 227.854C128.247 228.627 128.43 229.467 128.43 230.318C128.43 233.592 131.084 236.247 134.359 236.247H134.701C138.165 236.247 140.973 233.418 140.973 229.954C140.973 229.342 141.063 228.73 141.238 228.143L142.372 224.361L143.615 216.665L144.821 206.78V190.972V174.342C144.821 168.601 140.167 163.948 134.427 163.948Z" fill="#81584A"/>
<path d="M136.48 273.91H130.961C127.778 273.91 125.197 276.744 125.197 280.24C125.197 283.736 127.778 286.57 130.961 286.57H136.48C139.664 286.57 142.244 283.736 142.244 280.24C142.244 276.744 139.664 273.91 136.48 273.91Z" fill="#9D6B5A"/>
<path d="M140.335 279.637H127.106C126.052 279.637 125.197 280.575 125.197 281.733V284.474C125.197 285.632 126.052 286.57 127.106 286.57H140.335C141.389 286.57 142.244 285.632 142.244 284.474V281.733C142.244 280.575 141.389 279.637 140.335 279.637Z" fill="#9D6B5A"/>
<path d="M168.341 133.085L145.938 133.085L122.035 133.085L126.192 151.866H147.093H165.223L168.341 133.085Z" fill="#81584A"/>
<path d="M179.541 97.0713H109.003C101.368 97.0713 95.1777 102.244 95.1777 108.625C95.1777 115.006 101.368 120.178 109.003 120.178H179.541C187.177 120.178 193.367 115.006 193.367 108.625C193.367 102.244 187.177 97.0713 179.541 97.0713Z" fill="#906253"/>
<path d="M172.631 117.55C172.631 103.856 160.027 92.7554 144.48 92.7554C128.932 92.7554 116.328 103.856 116.328 117.55C116.328 131.243 128.932 142.344 144.48 142.344C160.027 142.344 172.631 131.243 172.631 117.55Z" fill="#81584A"/>
<path d="M147.856 131.1H143.49C133.077 131.1 124.637 138.82 124.637 148.343V160.8C124.637 170.323 133.077 178.043 143.49 178.043H147.856C158.268 178.043 166.709 170.323 166.709 160.8V148.343C166.709 138.82 158.268 131.1 147.856 131.1Z" fill="#906253"/>
<path d="M159.033 97.0096H129.926C122.416 97.0096 116.328 104.081 116.328 112.804V122.323C116.328 131.046 122.416 138.117 129.926 138.117H159.033C166.543 138.117 172.631 131.046 172.631 122.323V112.804C172.631 104.081 166.543 97.0096 159.033 97.0096Z" fill="#906253"/>
<path d="M161.574 97.0096H127.386C121.279 97.0096 116.328 103.92 116.328 112.444V121.746C116.328 130.271 121.279 137.181 127.386 137.181H161.574C167.681 137.181 172.631 130.271 172.631 121.746V112.444C172.631 103.92 167.681 97.0096 161.574 97.0096Z" fill="#9D6B5A"/>
<path d="M146.947 131.621C146.947 130.576 145.951 129.729 144.722 129.729C143.494 129.729 142.498 130.576 142.498 131.621V135.289C142.498 136.334 143.494 137.181 144.722 137.181C145.951 137.181 146.947 136.334 146.947 135.289V131.621Z" fill="#81584A"/>
<path d="M158.617 124.115H152.394C150.607 124.115 149.158 125.158 149.158 126.445C149.158 127.733 150.607 128.776 152.394 128.776H158.617C160.404 128.776 161.853 127.733 161.853 126.445C161.853 125.158 160.404 124.115 158.617 124.115Z" fill="#AC7967"/>
<path d="M136.654 124.115H130.431C128.644 124.115 127.195 125.158 127.195 126.445C127.195 127.733 128.644 128.776 130.431 128.776H136.654C138.441 128.776 139.89 127.733 139.89 126.445C139.89 125.158 138.441 124.115 136.654 124.115Z" fill="#AC7967"/>
<path d="M156.304 85.8934C156.304 77.6201 151.163 70.9133 144.822 70.9133C138.481 70.9133 133.34 77.6201 133.34 85.8934V92.0391C133.34 100.312 138.481 107.019 144.822 107.019C151.163 107.019 156.304 100.312 156.304 92.0391V85.8934Z" fill="#9D6B5A"/>
<path d="M125.224 129.044H122.722C121.725 129.044 120.916 129.853 120.916 130.852C120.916 131.85 121.725 132.66 122.722 132.66H125.224C126.221 132.66 127.03 131.85 127.03 130.852C127.03 129.853 126.221 129.044 125.224 129.044Z" fill="#81584A"/>
<path d="M166.11 129.044H163.609C162.612 129.044 161.803 129.853 161.803 130.852C161.803 131.85 162.612 132.66 163.609 132.66H166.11C167.108 132.66 167.917 131.85 167.917 130.852C167.917 129.853 167.108 129.044 166.11 129.044Z" fill="#81584A"/>
<path d="M146.905 70.9133H142.052C136.482 70.9133 131.967 75.4288 131.967 80.9989V85.1366C131.967 90.7067 136.482 95.2222 142.052 95.2222H146.905C152.475 95.2222 156.991 90.7067 156.991 85.1366V80.9989C156.991 75.4288 152.475 70.9133 146.905 70.9133Z" fill="#81584A"/>
<path d="M112.788 99.1907H110.98C106.154 99.1907 102.242 102.473 102.242 106.521C102.242 110.57 106.154 113.852 110.98 113.852H112.788C117.614 113.852 121.526 110.57 121.526 106.521C121.526 102.473 117.614 99.1907 112.788 99.1907Z" fill="#9D6B5A"/>
<path d="M178.266 99.9056H176.342C171.206 99.9056 167.043 103.188 167.043 107.236C167.043 111.285 171.206 114.567 176.342 114.567H178.266C183.401 114.567 187.564 111.285 187.564 107.236C187.564 103.188 183.401 99.9056 178.266 99.9056Z" fill="#9D6B5A"/>
<path d="M112.664 101.654H109.952C108.454 101.654 107.24 102.673 107.24 103.929C107.24 105.186 108.454 106.204 109.952 106.204H112.664C114.162 106.204 115.376 105.186 115.376 103.929C115.376 102.673 114.162 101.654 112.664 101.654Z" fill="#AC7967"/>
<path d="M181.762 101.833H178.876C177.282 101.833 175.99 102.851 175.99 104.108C175.99 105.364 177.282 106.383 178.876 106.383H181.762C183.356 106.383 184.648 105.364 184.648 104.108C184.648 102.851 183.356 101.833 181.762 101.833Z" fill="#AC7967"/>
<path d="M155.918 221.168L156.483 221.168C159.985 221.168 162.823 224.007 162.824 227.509L162.824 250.003L162.823 264.909L164.111 280.187C164.111 283.526 161.479 286.232 158.233 286.232H156.862C153.616 286.232 150.984 283.526 150.984 280.187V257.372C150.984 255.96 150.681 254.565 150.096 253.28C149.511 251.995 149.209 250.6 149.209 249.189V245.941C149.209 244.281 149.375 242.624 149.706 240.997L149.718 240.934C150.057 239.265 150.228 237.567 150.228 235.864V226.859C150.228 226.589 150.247 226.32 150.285 226.053C150.686 223.25 153.087 221.168 155.918 221.168Z" fill="#906253"/>
<path d="M156.513 163.617H159.768C163.046 163.617 165.804 166.074 166.181 169.331L168.34 196.309V209.504L167.405 216.351C167.053 218.925 166.316 221.432 165.219 223.788L163.337 227.827C162.98 228.593 162.795 229.428 162.795 230.274C162.795 233.474 160.201 236.068 157.001 236.068H156.409C153.008 236.068 150.251 233.311 150.251 229.91C150.251 229.3 150.161 228.694 149.982 228.11L148.853 224.415L147.609 216.871L146.404 207.179V191.681V173.726C146.404 168.143 150.93 163.617 156.513 163.617Z" fill="#81584A"/>
<path d="M155.353 273.746H160.873C164.056 273.746 166.637 276.541 166.637 279.989C166.637 283.437 164.056 286.232 160.873 286.232H155.353C152.17 286.232 149.59 283.437 149.59 279.989C149.59 276.541 152.17 273.746 155.353 273.746Z" fill="#9D6B5A"/>
<path d="M151.499 276.317H164.728C165.782 276.317 166.637 277.659 166.637 279.314V283.234C166.637 284.89 165.782 286.232 164.728 286.232H151.499C150.445 286.232 149.59 284.89 149.59 283.234V279.314C149.59 277.659 150.445 276.317 151.499 276.317Z" fill="#9D6B5A"/>
<path d="M180.36 214.267L180.467 214.207C183.501 212.52 187.293 213.63 188.937 216.688L199.604 236.527L206.658 249.646L215.003 262.471C216.583 265.409 215.583 269.06 212.769 270.625L211.581 271.286C208.767 272.851 205.205 271.738 203.626 268.8L192.828 248.718C192.161 247.477 191.239 246.396 190.124 245.548C189.009 244.699 188.087 243.618 187.42 242.377L185.882 239.516C185.096 238.055 184.457 236.518 183.973 234.926L183.955 234.865C183.459 233.233 182.803 231.656 181.997 230.157L177.544 221.875C176.485 218.998 177.686 215.754 180.36 214.267Z" fill="#906253"/>
<path d="M153.416 163.449L156.202 161.894C159.061 160.298 162.631 161.116 164.503 163.796L179.177 186.459L185.439 198.054L187.881 204.526C188.797 206.957 189.349 209.515 189.516 212.116L189.804 216.579C189.859 217.422 190.093 218.241 190.493 218.98C192.013 221.796 190.981 225.342 188.187 226.902L187.759 227.14C184.791 228.797 181.074 227.716 179.459 224.725C179.171 224.192 178.807 223.705 178.378 223.281L175.642 220.576L170.985 214.548L165.341 206.614L157.985 192.995L149.428 177.15C146.798 172.281 148.583 166.146 153.416 163.449Z" fill="#81584A"/>
<path d="M204.218 261.188L209.042 258.537C211.823 257.008 215.425 258.195 217.086 261.188C218.748 264.182 217.839 267.848 215.058 269.377L210.234 272.028C207.452 273.557 203.851 272.369 202.189 269.376C200.528 266.383 201.436 262.717 204.218 261.188Z" fill="#9D6B5A"/>
<path d="M202.059 265.285L213.645 258.952C214.568 258.447 215.963 259.202 216.761 260.638L218.649 264.037C219.447 265.473 219.345 267.045 218.422 267.55L206.836 273.883C205.913 274.387 204.518 273.632 203.72 272.197L201.831 268.797C201.034 267.362 201.136 265.789 202.059 265.285Z" fill="#9D6B5A"/>
<path d="M111.111 214.266L111.004 214.207C107.97 212.52 104.178 213.63 102.534 216.688L91.8665 236.527L84.813 249.646L76.4673 262.471C74.8876 265.409 75.888 269.059 78.7019 270.625L79.8898 271.285C82.7037 272.85 86.2654 271.738 87.8451 268.799L98.6426 248.718C99.3098 247.477 100.232 246.396 101.347 245.547C102.462 244.699 103.383 243.618 104.051 242.377L105.589 239.516C106.375 238.055 107.014 236.517 107.497 234.926L107.516 234.865C108.012 233.232 108.668 231.655 109.474 230.157L113.926 221.875C114.985 218.998 113.785 215.754 111.111 214.266Z" fill="#906253"/>
<path d="M138.055 163.449L135.268 161.893C132.41 160.298 128.839 161.116 126.968 163.795L112.294 186.459L106.031 198.054L103.59 204.526C102.673 206.956 102.122 209.514 101.954 212.115L101.667 216.579C101.612 217.421 101.377 218.241 100.978 218.98C99.4574 221.795 100.49 225.342 103.284 226.901L103.712 227.14C106.68 228.797 110.396 227.715 112.012 224.724C112.3 224.191 112.664 223.705 113.093 223.281L115.829 220.576L120.486 214.547L126.129 206.614L133.485 192.994L142.043 177.15C144.673 172.28 142.888 166.146 138.055 163.449Z" fill="#81584A"/>
<path d="M87.2529 261.188L82.4292 258.537C79.6475 257.008 76.0458 258.195 74.3845 261.188C72.7232 264.182 73.6314 267.847 76.413 269.376L81.2368 272.028C84.0184 273.556 87.6201 272.369 89.2814 269.376C90.9427 266.383 90.0345 262.717 87.2529 261.188Z" fill="#9D6B5A"/>
<path d="M89.4119 265.284L77.8258 258.952C76.9027 258.447 75.5077 259.202 74.7101 260.637L72.8214 264.037C72.0238 265.472 72.1256 267.045 73.0487 267.55L84.6348 273.882C85.558 274.387 86.9529 273.632 87.7505 272.197L89.6393 268.797C90.4369 267.362 90.3351 265.789 89.4119 265.284Z" fill="#9D6B5A"/>
<path d="M158.992 61.4609H129.992C126.676 61.4609 123.988 64.7995 123.988 68.9179C123.988 73.0363 126.676 76.3749 129.992 76.3749H158.992C162.308 76.3749 164.995 73.0363 164.995 68.9179C164.995 64.7995 162.308 61.4609 158.992 61.4609Z" fill="#9D6B5A"/>
<path d="M159.594 63.3575H129.404C126.791 63.3575 124.674 65.8474 124.674 68.9187C124.674 71.99 126.791 74.4798 129.404 74.4798H159.594C162.206 74.4798 164.324 71.99 164.324 68.9187C164.324 65.8474 162.206 63.3575 159.594 63.3575Z" fill="#81584A"/>
<path d="M149.437 40.5017H140.236C132.613 40.5017 126.434 47.512 126.434 56.1597V74.715C126.434 83.3627 132.613 90.373 140.236 90.373H149.437C157.06 90.373 163.24 83.3627 163.24 74.715V56.1597C163.24 47.512 157.06 40.5017 149.437 40.5017Z" fill="#9D6B5A"/>
<path d="M149.101 88.3145H140.504C139.574 88.3145 138.82 89.1694 138.82 90.224C138.82 91.2786 139.574 92.1335 140.504 92.1335H149.101C150.03 92.1335 150.784 91.2786 150.784 90.224C150.784 89.1694 150.03 88.3145 149.101 88.3145Z" fill="#9D6B5A"/>
<path d="M141.399 140.199H136.959C134.842 140.199 133.125 141.584 133.125 143.292C133.125 145.001 134.842 146.385 136.959 146.385H141.399C143.516 146.385 145.233 145.001 145.233 143.292C145.233 141.584 143.516 140.199 141.399 140.199Z" fill="#9D6B5A"/>
<path d="M141.399 147.493H136.959C134.842 147.493 133.125 148.878 133.125 150.586C133.125 152.295 134.842 153.68 136.959 153.68H141.399C143.516 153.68 145.233 152.295 145.233 150.586C145.233 148.878 143.516 147.493 141.399 147.493Z" fill="#9D6B5A"/>
<path d="M141.399 154.787H136.959C134.842 154.787 133.125 156.172 133.125 157.88C133.125 159.589 134.842 160.974 136.959 160.974H141.399C143.516 160.974 145.233 159.589 145.233 157.88C145.233 156.172 143.516 154.787 141.399 154.787Z" fill="#9D6B5A"/>
<path d="M154.959 140.199H150.52C148.402 140.199 146.686 141.584 146.686 143.292C146.686 145.001 148.402 146.385 150.52 146.385H154.959C157.077 146.385 158.793 145.001 158.793 143.292C158.793 141.584 157.077 140.199 154.959 140.199Z" fill="#9D6B5A"/>
<path d="M154.959 147.493H150.52C148.402 147.493 146.686 148.878 146.686 150.586C146.686 152.295 148.402 153.68 150.52 153.68H154.959C157.077 153.68 158.793 152.295 158.793 150.586C158.793 148.878 157.077 147.493 154.959 147.493Z" fill="#9D6B5A"/>
<path d="M154.959 154.787H150.52C148.402 154.787 146.686 156.172 146.686 157.88C146.686 159.589 148.402 160.974 150.52 160.974H154.959C157.077 160.974 158.793 159.589 158.793 157.88C158.793 156.172 157.077 154.787 154.959 154.787Z" fill="#9D6B5A"/>
<path d="M140.014 103.316L133.185 100.033C132.425 99.6675 131.512 99.9874 131.147 100.747C130.782 101.507 131.102 102.42 131.862 102.785L138.691 106.068C139.451 106.434 140.364 106.114 140.729 105.354C141.094 104.594 140.774 103.681 140.014 103.316Z" fill="#81584A"/>
<path d="M148.15 103.316L154.979 100.033C155.739 99.6675 156.652 99.9874 157.017 100.747C157.382 101.507 157.062 102.42 156.302 102.785L149.473 106.068C148.713 106.434 147.8 106.114 147.435 105.354C147.07 104.594 147.39 103.681 148.15 103.316Z" fill="#81584A"/>
<path d="M127.817 165.241C126.712 165.241 125.646 165.442 124.637 165.812C125.818 180.525 134.721 191.892 145.602 191.892C156.625 191.892 165.617 180.23 166.61 165.241H166.607H127.817Z" fill="#4F4F4F"/>
<path d="M165.098 163.617H126.176C125.326 163.617 124.637 164.509 124.637 165.61V168.696C124.637 169.797 125.326 170.689 126.176 170.689H165.098C165.948 170.689 166.637 169.797 166.637 168.696V165.61C166.637 164.509 165.948 163.617 165.098 163.617Z" fill="#5B5B5B"/>
<path d="M145.423 85.9767H143.117C142.933 85.9767 142.783 86.1604 142.783 86.3871V86.6289C142.783 86.8556 142.933 87.0394 143.117 87.0394H145.423C145.608 87.0394 145.757 86.8556 145.757 86.6289V86.3871C145.757 86.1604 145.608 85.9767 145.423 85.9767Z" fill="#81584A"/>
<path d="M147.17 68.0478C147.17 66.3546 146.053 64.9819 144.676 64.9819C143.298 64.9819 142.182 66.3546 142.182 68.0478V73.458C142.182 75.1512 143.298 76.5239 144.676 76.5239C146.053 76.5239 147.17 75.1512 147.17 73.458V68.0478Z" fill="#81584A"/>
<path d="M138.575 65.0337C138.575 63.974 137.876 63.115 137.014 63.115C136.152 63.115 135.453 63.974 135.453 65.0337V65.8011C135.453 66.8608 136.152 67.7198 137.014 67.7198C137.876 67.7198 138.575 66.8608 138.575 65.8011V65.0337Z" fill="#61534B"/>
<path d="M153.716 65.0337C153.716 63.974 153.017 63.115 152.155 63.115C151.293 63.115 150.594 63.974 150.594 65.0337V65.8011C150.594 66.8608 151.293 67.7198 152.155 67.7198C153.017 67.7198 153.716 66.8608 153.716 65.8011V65.0337Z" fill="#61534B"/>
<path d="M147.473 83.8454C149.77 83.8454 151.619 81.4172 151.619 78.4004V77.5192H137.654V78.4004C137.654 81.4172 139.504 83.8454 141.801 83.8454H147.473Z" fill="white"/>
<path d="M144.343 74.2086L142.024 71.786C141.641 71.3858 141.066 71.4431 140.74 71.9142C140.415 72.3852 140.462 73.0916 140.845 73.4918L143.164 75.9145C143.548 76.3147 144.122 76.2573 144.448 75.7863C144.773 75.3152 144.727 74.6089 144.343 74.2086Z" fill="#81584A"/>
<path d="M145.008 74.2086L147.328 71.786C147.711 71.3857 148.285 71.4431 148.611 71.9142C148.937 72.3852 148.89 73.0916 148.507 73.4918L146.187 75.9145C145.804 76.3147 145.229 76.2573 144.904 75.7863C144.578 75.3152 144.625 74.6089 145.008 74.2086Z" fill="#81584A"/>
<path d="M146.122 72.6513C146.122 71.8389 145.586 71.1803 144.925 71.1803C144.264 71.1803 143.729 71.8389 143.729 72.6513V73.9944C143.729 74.8068 144.264 75.4654 144.925 75.4654C145.586 75.4654 146.122 74.8068 146.122 73.9944V72.6513Z" fill="#906253"/>
<path d="M139.558 63.2751L134.592 61.5841C134.054 61.4008 133.561 61.6264 133.492 62.088C133.423 62.5496 133.803 63.0724 134.342 63.2557L139.308 64.9467C139.846 65.13 140.338 64.9044 140.407 64.4428C140.476 63.9812 140.096 63.4584 139.558 63.2751Z" fill="#4D4D4D"/>
<path d="M134.659 62.9524C134.706 62.6088 134.467 62.206 134.126 62.0526C133.785 61.8992 133.47 62.0534 133.423 62.397L133.228 63.8219C133.181 64.1655 133.42 64.5684 133.761 64.7218C134.102 64.8751 134.417 64.7209 134.464 64.3773L134.659 62.9524Z" fill="#4D4D4D"/>
<path d="M149.497 63.2746L154.463 61.5836C155.001 61.4003 155.493 61.6259 155.563 62.0875C155.632 62.5491 155.251 63.0719 154.713 63.2552L149.747 64.9462C149.209 65.1295 148.716 64.9039 148.647 64.4423C148.578 63.9807 148.959 63.4579 149.497 63.2746Z" fill="#4D4D4D"/>
<path d="M154.398 62.9528C154.351 62.6092 154.589 62.2063 154.931 62.053C155.272 61.8996 155.587 62.0538 155.634 62.3974L155.829 63.8223C155.876 64.1659 155.637 64.5688 155.296 64.7221C154.954 64.8755 154.639 64.7213 154.593 64.3777L154.398 62.9528Z" fill="#4D4D4D"/>
<path d="M143.072 62.4574C143.072 61.9828 142.759 61.5981 142.373 61.5981C141.987 61.5981 141.674 61.9828 141.674 62.4574V63.4975C141.674 63.9721 141.987 64.3568 142.373 64.3568C142.759 64.3568 143.072 63.9721 143.072 63.4975V62.4574Z" fill="#81584A"/>
<path d="M147.709 62.4574C147.709 61.9828 147.396 61.5981 147.01 61.5981C146.624 61.5981 146.311 61.9828 146.311 62.4574V63.4975C146.311 63.9721 146.624 64.3568 147.01 64.3568C147.396 64.3568 147.709 63.9721 147.709 63.4975V62.4574Z" fill="#81584A"/>
<path d="M146.118 72.6496C146.118 71.8372 145.582 71.1786 144.921 71.1786C144.26 71.1786 143.725 71.8372 143.725 72.6496V73.9927C143.725 74.8051 144.26 75.4637 144.921 75.4637C145.582 75.4637 146.118 74.8051 146.118 73.9927V72.6496Z" fill="#906253"/>
<path d="M139.391 62.7994L134.419 62.0221C133.88 61.9378 133.458 62.2381 133.475 62.6927C133.493 63.1473 133.944 63.5842 134.483 63.6684L139.455 64.4457C139.994 64.53 140.417 64.2297 140.399 63.7751C140.382 63.3205 139.93 62.8836 139.391 62.7994Z" fill="#4D4D4D"/>
<path d="M134.577 63.3908C134.572 63.042 134.3 62.6809 133.969 62.5842C133.639 62.4875 133.375 62.6918 133.38 63.0405L133.401 64.4868C133.406 64.8355 133.678 65.1966 134.008 65.2933C134.339 65.3901 134.602 65.1858 134.597 64.837L134.577 63.3908Z" fill="#4D4D4D"/>
<path d="M149.786 62.4541L154.638 61.9935C155.163 61.9436 155.542 62.3503 155.483 62.9019C155.424 63.4536 154.95 63.9413 154.424 63.9912L149.572 64.4518C149.047 64.5018 148.668 64.095 148.727 63.5434C148.786 62.9917 149.26 62.504 149.786 62.4541Z" fill="#4D4D4D"/>
<path d="M154.551 63.5332C154.576 63.1703 154.824 62.8254 155.105 62.7628C155.386 62.7002 155.593 62.9436 155.568 63.3064L155.465 64.8112C155.441 65.1741 155.193 65.519 154.912 65.5816C154.631 65.6442 154.424 65.4008 154.448 65.038L154.551 63.5332Z" fill="#4D4D4D"/>
<path d="M162.835 59.0796C162.771 59.073 162.706 59.0729 162.64 59.0803C162.565 59.0887 162.489 59.1065 162.415 59.1342L162.26 59.1909C161.762 59.3751 161.449 59.9408 161.46 60.5499C161.412 60.4647 161.354 60.3904 161.293 60.3217V62.209C163.453 63.3095 164.965 65.9216 164.965 68.9845C164.965 72.0636 163.437 74.6864 161.258 75.7765C161.196 76.8763 161.037 77.9418 160.799 78.9647V80.0201C160.743 79.9114 160.677 79.812 160.605 79.7213C159.518 83.6053 157.21 86.776 154.236 88.546V90.9139C154.236 91.8663 154.86 92.6325 155.635 92.6325H156.28C157.055 92.6325 157.679 91.8663 157.679 90.9139V90.4513C157.889 91.0733 158.386 91.5087 158.97 91.5087H159.615C160.39 91.5087 161.014 90.7418 161.014 89.7894V89.2451C161.261 89.7302 161.696 90.0543 162.197 90.0543C162.972 90.0543 163.596 89.2874 163.596 88.335V78.6784L163.884 79.8548C164.064 80.5915 164.691 81.007 165.291 80.7857C165.89 80.5644 166.227 79.7927 166.047 79.056L164.513 72.7778C164.796 73.1684 165.244 73.3467 165.68 73.1858L165.835 73.1284C166.434 72.9072 166.771 72.1362 166.591 71.3995L163.822 60.0644C163.684 59.5004 163.284 59.1253 162.835 59.0796V59.0796ZM126.473 59.1729C126.024 59.2186 125.624 59.5937 125.486 60.1577L122.716 71.4928C122.536 72.2295 122.874 73.0005 123.473 73.2218L123.628 73.2792C124.063 73.44 124.512 73.2617 124.795 72.8712L123.26 79.1494C123.08 79.8861 123.418 80.6577 124.017 80.879C124.616 81.1003 125.244 80.6855 125.424 79.9488L125.482 79.7116V88.335C125.482 89.2874 126.106 90.0543 126.88 90.0543C127.382 90.0543 127.817 89.7302 128.064 89.2451V89.7894C128.064 90.7418 128.687 91.5087 129.462 91.5087H130.108C130.691 91.5087 131.188 91.0743 131.399 90.4533V90.9139C131.399 91.8663 132.023 92.6325 132.797 92.6325H133.443C134.218 92.6325 134.841 91.8663 134.841 90.9139V88.4837C131.895 86.6884 129.616 83.5113 128.552 79.6321C128.447 79.7446 128.353 79.8738 128.279 80.0201V78.4951C128.098 77.6166 127.976 76.7089 127.923 75.7765C125.744 74.6864 124.216 72.0636 124.216 68.9844C124.216 65.9216 125.728 63.3095 127.889 62.209V60.5817C127.875 60.6025 127.86 60.6213 127.848 60.6432C127.859 60.0344 127.546 59.4684 127.047 59.2843L126.893 59.2276C126.818 59.1999 126.743 59.182 126.668 59.1736C126.602 59.1663 126.537 59.1664 126.473 59.1729V59.1729Z" fill="#4D4D4D"/>
<path d="M131.254 46.3804C128.838 49.1432 127.324 53.1359 127.324 57.591V75.512C127.324 83.89 132.676 90.6349 139.324 90.6349H149.855C156.503 90.6349 161.855 83.89 161.855 75.512V57.591C161.855 53.1359 160.341 49.1432 157.925 46.3804C159.766 49.0749 160.88 52.5845 160.88 56.436V74.6835C160.88 83.2142 155.431 90.0816 148.662 90.0816H140.518C133.749 90.0816 128.299 83.2142 128.299 74.6835V56.436C128.299 52.5845 129.413 49.0749 131.254 46.3804Z" fill="#565656"/>
<path d="M138.306 90.4614C138.306 89.661 137.791 89.0121 137.156 89.0121C136.521 89.0121 136.006 89.661 136.006 90.4614V92.1445C136.006 92.945 136.521 93.5939 137.156 93.5939C137.791 93.5939 138.306 92.945 138.306 92.1445V90.4614Z" fill="#565656"/>
<path d="M140.458 91.7822C140.458 90.9818 139.943 90.3329 139.308 90.3329C138.673 90.3329 138.158 90.9818 138.158 91.7822V93.4653C138.158 94.2658 138.673 94.9147 139.308 94.9147C139.943 94.9147 140.458 94.2658 140.458 93.4653V91.7822Z" fill="#565656"/>
<path d="M142.585 92.5106C142.585 91.7102 142.07 91.0613 141.435 91.0613C140.8 91.0613 140.285 91.7102 140.285 92.5106V94.1937C140.285 94.9942 140.8 95.6431 141.435 95.6431C142.07 95.6431 142.585 94.9942 142.585 94.1937V92.5106Z" fill="#565656"/>
<path d="M144.683 92.6753C144.683 91.8748 144.168 91.226 143.533 91.226C142.898 91.226 142.383 91.8748 142.383 92.6753V94.3584C142.383 95.1589 142.898 95.8078 143.533 95.8078C144.168 95.8078 144.683 95.1589 144.683 94.3584V92.6753Z" fill="#565656"/>
<path d="M136.372 87.5556C136.372 86.6002 135.758 85.8257 135 85.8257C134.241 85.8257 133.627 86.6002 133.627 87.5556V89.5644C133.627 90.5198 134.241 91.2943 135 91.2943C135.758 91.2943 136.372 90.5198 136.372 89.5644V87.5556Z" fill="#565656"/>
<path d="M133.999 85.7809C133.999 84.8255 133.385 84.051 132.626 84.051C131.868 84.051 131.254 84.8255 131.254 85.7809V87.7898C131.254 88.7451 131.868 89.5196 132.626 89.5196C133.385 89.5196 133.999 88.7451 133.999 87.7898V85.7809Z" fill="#565656"/>
<path d="M131.995 83.6293C131.995 82.6739 131.381 81.8994 130.623 81.8994C129.865 81.8994 129.25 82.6739 129.25 83.6293V85.6382C129.25 86.5935 129.865 87.368 130.623 87.368C131.381 87.368 131.995 86.5935 131.995 85.6382V83.6293Z" fill="#565656"/>
<path d="M150.882 90.4614C150.882 89.661 151.397 89.0121 152.032 89.0121C152.667 89.0121 153.182 89.661 153.182 90.4614V92.1445C153.182 92.945 152.667 93.5939 152.032 93.5939C151.397 93.5939 150.882 92.945 150.882 92.1445V90.4614Z" fill="#565656"/>
<path d="M148.729 91.7822C148.729 90.9818 149.244 90.3329 149.879 90.3329C150.514 90.3329 151.029 90.9818 151.029 91.7822V93.4653C151.029 94.2658 150.514 94.9147 149.879 94.9147C149.244 94.9147 148.729 94.2658 148.729 93.4653V91.7822Z" fill="#565656"/>
<path d="M146.604 92.5106C146.604 91.7102 147.119 91.0613 147.754 91.0613C148.389 91.0613 148.904 91.7102 148.904 92.5106V94.1937C148.904 94.9942 148.389 95.6431 147.754 95.6431C147.119 95.6431 146.604 94.9942 146.604 94.1937V92.5106Z" fill="#565656"/>
<path d="M144.505 92.6753C144.505 91.8748 145.02 91.226 145.655 91.226C146.29 91.226 146.805 91.8748 146.805 92.6753V94.3584C146.805 95.1589 146.29 95.8078 145.655 95.8078C145.02 95.8078 144.505 95.1589 144.505 94.3584V92.6753Z" fill="#565656"/>
<path d="M152.815 87.5556C152.815 86.6002 153.43 85.8257 154.188 85.8257C154.946 85.8257 155.561 86.6002 155.561 87.5556V89.5644C155.561 90.5198 154.946 91.2943 154.188 91.2943C153.43 91.2943 152.815 90.5198 152.815 89.5644V87.5556Z" fill="#565656"/>
<path d="M155.188 85.7809C155.188 84.8255 155.803 84.051 156.561 84.051C157.319 84.051 157.934 84.8255 157.934 85.7809V87.7898C157.934 88.7451 157.319 89.5196 156.561 89.5196C155.803 89.5196 155.188 88.7451 155.188 87.7898V85.7809Z" fill="#565656"/>
<path d="M157.192 83.6293C157.192 82.6739 157.807 81.8994 158.565 81.8994C159.323 81.8994 159.938 82.6739 159.938 83.6293V85.6382C159.938 86.5935 159.323 87.368 158.565 87.368C157.807 87.368 157.192 86.5935 157.192 85.6382V83.6293Z" fill="#565656"/>
<path d="M139.393 73.4054C136.709 73.4054 134.549 76.128 134.549 79.51V86.6513C134.549 90.0334 136.709 92.7559 139.393 92.7559H149.786C152.47 92.7559 154.63 90.0334 154.63 86.6513V79.51C154.63 76.128 152.47 73.4054 149.786 73.4054H148.769C148.805 73.7774 148.697 74.1636 148.452 74.4255L148.041 74.8653C148.285 75.1534 148.466 75.5249 148.545 75.9504H149.954C151.455 75.9504 152.663 77.4723 152.663 79.3634V82.434C152.663 83.1516 152.488 83.8152 152.191 84.3636V85.2059C152.191 87.9056 150.466 90.0788 148.324 90.0788H140.855C138.712 90.0788 136.988 87.9056 136.988 85.2059V84.3636C136.69 83.8152 136.516 83.1516 136.516 82.434V79.3634C136.516 77.4723 137.724 75.9504 139.224 75.9504H140.111C140.217 75.3778 140.503 74.8977 140.889 74.5991L140.727 74.4255C140.482 74.1636 140.374 73.7774 140.409 73.4054H139.393Z" fill="#565656"/>
<path d="M137.117 40.1913C130.791 40.1913 125.697 46.4518 125.697 54.2284C125.697 54.5936 125.712 54.9541 125.734 55.3121C125.712 55.4953 125.697 55.6814 125.697 55.8723V64.4715C125.697 66.3168 126.759 67.8457 128.175 68.1915V56.9698C128.175 48.9369 133.437 42.4694 139.972 42.4694H149.201C155.736 42.4694 160.997 48.9369 160.997 56.9698V68.2067C162.454 67.9005 163.557 66.3519 163.557 64.4715V55.8723C163.557 55.6814 163.542 55.4953 163.52 55.3121C163.542 54.954 163.557 54.5936 163.557 54.2284C163.557 46.4518 158.464 40.1913 152.138 40.1913H137.117Z" fill="#4D4D4D"/>
<path d="M150.077 38.4213H139.789C136.323 38.4213 133.514 41.875 133.514 46.1354C133.514 50.3958 136.323 53.8495 139.789 53.8495H150.077C153.543 53.8495 156.353 50.3958 156.353 46.1354C156.353 41.875 153.543 38.4213 150.077 38.4213Z" fill="#4D4D4D"/>
<path d="M137.014 43.322C137.014 42.1172 136.22 41.1405 135.24 41.1405C134.259 41.1405 133.465 42.1172 133.465 43.322V48.3804C133.465 49.5852 134.259 50.5619 135.24 50.5619C136.22 50.5619 137.014 49.5852 137.014 48.3804V43.322Z" fill="#4D4D4D"/>
<path d="M157.176 43.512C157.176 42.3072 156.382 41.3306 155.402 41.3306C154.422 41.3306 153.627 42.3072 153.627 43.512V48.5705C153.627 49.7753 154.422 50.7519 155.402 50.7519C156.382 50.7519 157.176 49.7753 157.176 48.5705V43.512Z" fill="#4D4D4D"/>
<path d="M132.788 45.8148C132.695 45.0197 132.095 44.4678 131.448 44.582C130.802 44.6962 130.353 45.4333 130.446 46.2283L130.745 48.7945C130.838 49.5895 131.438 50.1414 132.085 50.0272C132.732 49.913 133.181 49.1759 133.088 48.3809L132.788 45.8148Z" fill="#4D4D4D"/>
<path d="M157.88 46.4407C157.973 45.6457 158.573 45.0938 159.22 45.208C159.866 45.3222 160.315 46.0593 160.222 46.8543L159.922 49.4204C159.83 50.2155 159.23 50.7674 158.583 50.6532C157.936 50.539 157.487 49.8019 157.58 49.0068L157.88 46.4407Z" fill="#4D4D4D"/>
<path d="M143.699 42.2523H144.807C145.461 42.2523 145.99 42.9034 145.99 43.7066V49.018C145.99 49.8212 145.461 50.4723 144.807 50.4723H143.699C143.046 50.4723 142.516 49.8212 142.516 49.018V43.7066C142.516 42.9034 143.046 42.2523 143.699 42.2523Z" fill="#565656"/>
<path d="M138.918 42.4097H140.381C140.892 42.4097 141.307 42.9192 141.307 43.5478V49.1753C141.307 49.8039 140.892 50.3135 140.381 50.3135H138.918C138.407 50.3135 137.992 49.8039 137.992 49.1753V43.5478C137.992 42.9192 138.407 42.4097 138.918 42.4097Z" fill="#565656"/>
<path d="M149.586 42.4097H148.123C147.612 42.4097 147.197 42.9192 147.197 43.5478V49.1753C147.197 49.8039 147.612 50.3135 148.123 50.3135H149.586C150.097 50.3135 150.512 49.8039 150.512 49.1753V43.5478C150.512 42.9192 150.097 42.4097 149.586 42.4097Z" fill="#565656"/>
</svg>
