<svg width="320" height="319" viewBox="0 0 320 319" fill="none" xmlns="http://www.w3.org/2000/svg">
<g clip-path="url(#clip0_1741_5363)">
<path d="M319.303 0.253052H0.865234V318.691H319.303V0.253052Z" fill="#333333"/>
<path d="M285.318 259.69H40.1098C30.3939 259.69 22.5176 267.566 22.5176 277.282C22.5176 286.998 30.3939 294.874 40.1098 294.874H285.318C295.034 294.874 302.91 286.998 302.91 277.282C302.91 267.566 295.034 259.69 285.318 259.69Z" fill="#9FA34F"/>
<path d="M192.063 100.273L192.142 100.26C197.211 99.4698 201.961 102.938 202.752 108.007L208.687 146.07C209.478 151.139 206.009 155.889 200.94 156.679L200.861 156.692C195.792 157.482 191.042 154.014 190.251 148.945L184.316 110.882C183.525 105.813 186.994 101.063 192.063 100.273Z" fill="#81584A"/>
<path d="M195.139 130.754C194.845 128.842 196.156 127.054 198.068 126.76C199.98 126.466 201.768 127.777 202.062 129.689L202.449 132.206C202.743 134.118 201.432 135.906 199.52 136.2C197.608 136.495 195.82 135.183 195.526 133.271L195.139 130.754Z" fill="#906253"/>
<path d="M143.882 174.835H141.47C135.757 174.835 131.125 179.466 131.125 185.18V275.843C131.125 281.557 135.757 286.189 141.47 286.189H143.882C149.596 286.189 154.228 281.557 154.228 275.843V185.18C154.228 179.466 149.596 174.835 143.882 174.835Z" fill="#906253"/>
<path d="M171.736 174.835H169.324C163.61 174.835 158.979 179.466 158.979 185.18V275.843C158.979 281.557 163.61 286.189 169.324 286.189H171.736C177.45 286.189 182.081 281.557 182.081 275.843V185.18C182.081 179.466 177.45 174.835 171.736 174.835Z" fill="#906253"/>
<path d="M154.228 174.835H131.125V246.553H154.228V174.835Z" fill="#81584A"/>
<path d="M182.081 174.835H158.979V246.553H182.081V174.835Z" fill="#81584A"/>
<path d="M144.783 267.301H135.738C130.523 267.301 126.295 271.529 126.295 276.745C126.295 281.96 130.523 286.188 135.738 286.188H144.783C149.998 286.188 154.226 281.96 154.226 276.745C154.226 271.529 149.998 267.301 144.783 267.301Z" fill="#9D6B5A"/>
<path d="M151.099 275.843H129.422C127.695 275.843 126.295 277.243 126.295 278.971V283.06C126.295 284.788 127.695 286.188 129.422 286.188H151.099C152.826 286.188 154.226 284.788 154.226 283.06V278.971C154.226 277.243 152.826 275.843 151.099 275.843Z" fill="#9D6B5A"/>
<path d="M177.466 267.301H168.422C163.206 267.301 158.979 271.529 158.979 276.745C158.979 281.96 163.206 286.188 168.422 286.188H177.466C182.682 286.188 186.91 281.96 186.91 276.745C186.91 271.529 182.682 267.301 177.466 267.301Z" fill="#9D6B5A"/>
<path d="M183.782 275.776H162.106C160.379 275.776 158.979 277.176 158.979 278.903V282.993C158.979 284.72 160.379 286.12 162.106 286.12H183.782C185.51 286.12 186.91 284.72 186.91 282.993V278.903C186.91 277.176 185.51 275.776 183.782 275.776Z" fill="#9D6B5A"/>
<path d="M184.816 153.716C184.816 136.621 172.184 122.764 156.601 122.764C141.019 122.764 128.387 136.621 128.387 153.716V176.079C128.387 193.174 141.019 207.031 156.601 207.031C172.184 207.031 184.816 193.174 184.816 176.079V153.716Z" fill="#81584A"/>
<path d="M120.623 99.3323L120.543 99.3199C115.474 98.5295 110.724 101.998 109.934 107.067L103.998 145.13C103.208 150.199 106.676 154.949 111.745 155.739L111.825 155.751C116.894 156.542 121.644 153.073 122.434 148.004L128.37 109.942C129.16 104.873 125.692 100.123 120.623 99.3323Z" fill="#81584A"/>
<path d="M118.197 132.956C118.491 131.044 117.18 129.256 115.268 128.962C113.356 128.667 111.568 129.979 111.274 131.891L110.887 134.408C110.593 136.32 111.904 138.108 113.816 138.402C115.728 138.696 117.516 137.385 117.81 135.473L118.197 132.956Z" fill="#906253"/>
<path d="M191.6 97.2477H122.21C114.699 97.2477 108.609 103.337 108.609 110.848C108.609 118.36 114.699 124.449 122.21 124.449H191.6C199.112 124.449 205.201 118.36 205.201 110.848C205.201 103.337 199.112 97.2477 191.6 97.2477Z" fill="#906253"/>
<path d="M193.448 126.148C193.448 105.787 176.951 89.281 156.602 89.281C136.252 89.281 119.756 105.787 119.756 126.148C119.756 146.509 136.252 163.015 156.602 163.015C176.951 163.015 193.448 146.509 193.448 126.148Z" fill="#81584A"/>
<path d="M158.637 144.375H154.567C144.861 144.375 136.992 152.244 136.992 161.95V174.647C136.992 184.353 144.861 192.221 154.567 192.221H158.637C168.343 192.221 176.211 184.353 176.211 174.647V161.95C176.211 152.244 168.343 144.375 158.637 144.375Z" fill="#906253"/>
<path d="M175.651 97.1819H137.553C127.724 97.1819 119.756 105.15 119.756 114.979V125.706C119.756 135.535 127.724 143.503 137.553 143.503H175.651C185.48 143.503 193.448 135.535 193.448 125.706V114.979C193.448 105.15 185.48 97.1819 175.651 97.1819Z" fill="#906253"/>
<path d="M178.975 97.1819H134.229C126.236 97.1819 119.756 103.662 119.756 111.655V120.378C119.756 128.371 126.236 134.85 134.229 134.85H178.975C186.968 134.85 193.448 128.371 193.448 120.378V111.655C193.448 103.662 186.968 97.1819 178.975 97.1819Z" fill="#9D6B5A"/>
<path d="M159.61 140.204C159.61 138.49 158.22 137.101 156.506 137.101C154.792 137.101 153.402 138.49 153.402 140.204V146.224C153.402 147.938 154.792 149.327 156.506 149.327C158.22 149.327 159.61 147.938 159.61 146.224V140.204Z" fill="#81584A"/>
<path d="M172.701 126.427H165.467C163.389 126.427 161.705 128.112 161.705 130.189C161.705 132.267 163.389 133.951 165.467 133.951H172.701C174.779 133.951 176.463 132.267 176.463 130.189C176.463 128.112 174.779 126.427 172.701 126.427Z" fill="#AC7967"/>
<path d="M147.168 126.427H139.934C137.856 126.427 136.172 128.112 136.172 130.189C136.172 132.267 137.856 133.951 139.934 133.951H147.168C149.246 133.951 150.93 132.267 150.93 130.189C150.93 128.112 149.246 126.427 147.168 126.427Z" fill="#AC7967"/>
<path d="M169.767 85.4842C169.767 76.7779 163.872 69.72 156.6 69.72C149.329 69.72 143.434 76.7779 143.434 85.4842V91.9515C143.434 100.658 149.329 107.716 156.6 107.716C163.872 107.716 169.767 100.658 169.767 91.9515V85.4842Z" fill="#9D6B5A"/>
<path d="M136.781 134.147H134.147C133.096 134.147 132.244 134.999 132.244 136.05C132.244 137.1 133.096 137.952 134.147 137.952H136.781C137.832 137.952 138.684 137.1 138.684 136.05C138.684 134.999 137.832 134.147 136.781 134.147Z" fill="#81584A"/>
<path d="M179.846 134.147H177.211C176.16 134.147 175.309 134.999 175.309 136.05C175.309 137.1 176.16 137.952 177.211 137.952H179.846C180.896 137.952 181.748 137.1 181.748 136.05C181.748 134.999 180.896 134.147 179.846 134.147Z" fill="#81584A"/>
<path d="M159.154 69.72H154.047C148.185 69.72 143.434 74.4718 143.434 80.3335V84.6878C143.434 90.5495 148.185 95.3013 154.047 95.3013H159.154C165.015 95.3013 169.767 90.5495 169.767 84.6878V80.3335C169.767 74.4718 165.015 69.72 159.154 69.72Z" fill="#81584A"/>
<path d="M123.101 99.4775H121.505C117.245 99.4775 113.791 102.931 113.791 107.192C113.791 111.452 117.245 114.906 121.505 114.906H123.101C127.362 114.906 130.816 111.452 130.816 107.192C130.816 102.931 127.362 99.4775 123.101 99.4775Z" fill="#9D6B5A"/>
<path d="M191.943 100.23H190.347C186.087 100.23 182.633 103.684 182.633 107.944C182.633 112.205 186.087 115.659 190.347 115.659H191.943C196.204 115.659 199.658 112.205 199.658 107.944C199.658 103.684 196.204 100.23 191.943 100.23Z" fill="#9D6B5A"/>
<path d="M207.685 144.083H203.626C197.161 144.083 191.92 149.323 191.92 155.788C191.92 162.253 197.161 167.494 203.626 167.494H207.685C214.15 167.494 219.391 162.253 219.391 155.788C219.391 149.323 214.15 144.083 207.685 144.083Z" fill="#9D6B5A"/>
<path d="M211.015 147.426H210.745C205.326 147.426 200.934 151.818 200.934 157.237C200.934 162.655 205.326 167.048 210.745 167.048H211.015C216.434 167.048 220.826 162.655 220.826 157.237C220.826 151.818 216.434 147.426 211.015 147.426Z" fill="#81584A"/>
<path d="M122.989 102.069H120.595C119.273 102.069 118.201 103.141 118.201 104.463C118.201 105.786 119.273 106.857 120.595 106.857H122.989C124.312 106.857 125.383 105.786 125.383 104.463C125.383 103.141 124.312 102.069 122.989 102.069Z" fill="#AC7967"/>
<path d="M194.843 102.258H192.449C191.127 102.258 190.055 103.33 190.055 104.652C190.055 105.974 191.127 107.046 192.449 107.046H194.843C196.165 107.046 197.237 105.974 197.237 104.652C197.237 103.33 196.165 102.258 194.843 102.258Z" fill="#AC7967"/>
<path d="M223.589 140.182H217.133C212.82 140.182 209.324 143.678 209.324 147.99V161.637C209.324 165.95 212.82 169.446 217.133 169.446H223.589C227.902 169.446 231.398 165.95 231.398 161.637V147.99C231.398 143.678 227.902 140.182 223.589 140.182Z" fill="#9D6B5A"/>
<path d="M210.044 145.007H209.758C207.98 145.007 206.539 146.448 206.539 148.226V153.399C206.539 155.177 207.98 156.618 209.758 156.618H210.044C211.821 156.618 213.263 155.177 213.263 153.399V148.226C213.263 146.448 211.821 145.007 210.044 145.007Z" fill="#AC7967"/>
<path d="M226.519 142.822H226.3C224.935 142.822 223.828 143.929 223.828 145.294V149.777C223.828 151.142 224.935 152.249 226.3 152.249H226.519C227.884 152.249 228.991 151.142 228.991 149.777V145.294C228.991 143.929 227.884 142.822 226.519 142.822Z" fill="#AC7967"/>
<path d="M147.008 270.608H144.939C143.277 270.608 141.93 271.955 141.93 273.617C141.93 275.28 143.277 276.627 144.939 276.627H147.008C148.67 276.627 150.018 275.28 150.018 273.617C150.018 271.955 148.67 270.608 147.008 270.608Z" fill="#AC7967"/>
<path d="M179.739 270.42H177.67C176.008 270.42 174.66 271.767 174.66 273.429C174.66 275.092 176.008 276.439 177.67 276.439H179.739C181.401 276.439 182.748 275.092 182.748 273.429C182.748 271.767 181.401 270.42 179.739 270.42Z" fill="#AC7967"/>
<path d="M175.934 59.7733H138.027C133.693 59.7733 130.18 63.2867 130.18 67.6206C130.18 71.9546 133.693 75.4679 138.027 75.4679H175.934C180.267 75.4679 183.781 71.9546 183.781 67.6206C183.781 63.2867 180.267 59.7733 175.934 59.7733Z" fill="#9D6B5A"/>
<path d="M175.658 61.7687H138.303C135.071 61.7687 132.451 64.3888 132.451 67.6209C132.451 70.853 135.071 73.4731 138.303 73.4731H175.658C178.89 73.4731 181.51 70.853 181.51 67.6209C181.51 64.3888 178.89 61.7687 175.658 61.7687Z" fill="#81584A"/>
<path d="M162.469 37.7164H151.485C142.385 37.7164 135.008 45.0937 135.008 54.194V73.7206C135.008 82.8209 142.385 90.1982 151.485 90.1982H162.469C171.569 90.1982 178.946 82.8209 178.946 73.7206V54.194C178.946 45.0937 171.569 37.7164 162.469 37.7164Z" fill="#9D6B5A"/>
<path d="M162.068 88.032H151.804C150.695 88.032 149.795 88.9317 149.795 90.0415C149.795 91.1512 150.695 92.0509 151.804 92.0509H162.068C163.177 92.0509 164.077 91.1512 164.077 90.0415C164.077 88.9317 163.177 88.032 162.068 88.032Z" fill="#9D6B5A"/>
<path d="M113.083 140.241L113.003 140.24C107.873 140.154 103.646 144.244 103.56 149.373L102.92 187.891C102.835 193.02 106.924 197.248 112.054 197.333L112.134 197.334C117.263 197.419 121.491 193.33 121.576 188.201L122.216 149.683C122.302 144.554 118.212 140.326 113.083 140.241Z" fill="#81584A"/>
<path d="M114.207 182.013H111.151C105.293 182.013 100.545 186.762 100.545 192.619V197.823C100.545 203.681 105.293 208.429 111.151 208.429H114.207C120.065 208.429 124.813 203.681 124.813 197.823V192.619C124.813 186.762 120.065 182.013 114.207 182.013Z" fill="#906253"/>
<path d="M123.778 156.746C123.778 150.377 118.615 145.214 112.246 145.214C105.876 145.214 100.713 150.377 100.713 156.746V165.803C100.713 172.172 105.876 177.336 112.246 177.336C118.615 177.336 123.778 172.172 123.778 165.803V156.746Z" fill="#906253"/>
<path d="M121.932 154.051C121.932 152.876 120.979 151.923 119.804 151.923C118.629 151.923 117.676 152.876 117.676 154.051V161.766C117.676 162.941 118.629 163.894 119.804 163.894C120.979 163.894 121.932 162.941 121.932 161.766V154.051Z" fill="#9D6B5A"/>
<path d="M114.974 196.906C113.548 193.102 109.308 191.175 105.504 192.601C101.701 194.027 99.7733 198.267 101.199 202.071L105.095 212.46C106.521 216.263 110.761 218.191 114.564 216.764C118.368 215.338 120.295 211.099 118.869 207.295L114.974 196.906Z" fill="#906253"/>
<path d="M125.305 194.674C125.305 192.059 123.186 189.94 120.572 189.94C117.957 189.94 115.838 192.059 115.838 194.674V201.814C115.838 204.429 117.957 206.548 120.572 206.548C123.186 206.548 125.305 204.429 125.305 201.814V194.674Z" fill="#9D6B5A"/>
<path d="M152.254 148.664H147.587C145.361 148.664 143.557 150.469 143.557 152.695C143.557 154.92 145.361 156.725 147.587 156.725H152.254C154.48 156.725 156.284 154.92 156.284 152.695C156.284 150.469 154.48 148.664 152.254 148.664Z" fill="#9D6B5A"/>
<path d="M152.254 158.167H147.587C145.361 158.167 143.557 159.972 143.557 162.198C143.557 164.424 145.361 166.228 147.587 166.228H152.254C154.48 166.228 156.284 164.424 156.284 162.198C156.284 159.972 154.48 158.167 152.254 158.167Z" fill="#9D6B5A"/>
<path d="M152.254 167.671H147.587C145.361 167.671 143.557 169.476 143.557 171.702C143.557 173.927 145.361 175.732 147.587 175.732H152.254C154.48 175.732 156.284 173.927 156.284 171.702C156.284 169.476 154.48 167.671 152.254 167.671Z" fill="#9D6B5A"/>
<path d="M166.51 148.664H161.843C159.617 148.664 157.812 150.469 157.812 152.695C157.812 154.92 159.617 156.725 161.843 156.725H166.51C168.735 156.725 170.54 154.92 170.54 152.695C170.54 150.469 168.735 148.664 166.51 148.664Z" fill="#9D6B5A"/>
<path d="M166.51 158.167H161.843C159.617 158.167 157.812 159.972 157.812 162.198C157.812 164.424 159.617 166.228 161.843 166.228H166.51C168.735 166.228 170.54 164.424 170.54 162.198C170.54 159.972 168.735 158.167 166.51 158.167Z" fill="#9D6B5A"/>
<path d="M166.51 167.671H161.843C159.617 167.671 157.812 169.476 157.812 171.702C157.812 173.927 159.617 175.732 161.843 175.732H166.51C168.735 175.732 170.54 173.927 170.54 171.702C170.54 169.476 168.735 167.671 166.51 167.671Z" fill="#9D6B5A"/>
<path d="M151.905 103.819L144.718 100.364C143.918 99.9795 142.958 100.316 142.573 101.116C142.189 101.916 142.526 102.876 143.325 103.26L150.513 106.715C151.312 107.1 152.272 106.763 152.657 105.963C153.041 105.163 152.705 104.203 151.905 103.819Z" fill="#81584A"/>
<path d="M160.462 103.819L167.649 100.364C168.449 99.9795 169.409 100.316 169.794 101.116C170.178 101.916 169.842 102.876 169.042 103.26L161.855 106.715C161.055 107.1 160.095 106.763 159.71 105.963C159.326 105.163 159.663 104.203 160.462 103.819Z" fill="#81584A"/>
<path d="M132.822 179.391C131.345 179.391 129.919 179.603 128.57 179.992C130.15 195.475 142.053 207.437 156.601 207.437C171.338 207.437 183.362 195.165 184.69 179.391C184.688 179.391 184.687 179.391 184.685 179.391H132.822Z" fill="#4F4F4F"/>
<path d="M182.946 177.683H129.898C128.74 177.683 127.801 178.622 127.801 179.78V183.028C127.801 184.186 128.74 185.125 129.898 185.125H182.946C184.104 185.125 185.043 184.186 185.043 183.028V179.78C185.043 178.622 184.104 177.683 182.946 177.683Z" fill="#5B5B5B"/>
<path d="M157.988 85.6167H154.852C154.602 85.6167 154.398 85.82 154.398 86.0708V86.3383C154.398 86.589 154.602 86.7923 154.852 86.7923H157.988C158.239 86.7923 158.443 86.589 158.443 86.3383V86.0708C158.443 85.82 158.239 85.6167 157.988 85.6167Z" fill="#81584A"/>
<path d="M160.363 67.4223C160.363 65.5491 158.845 64.0306 156.972 64.0306C155.099 64.0306 153.58 65.5491 153.58 67.4223V73.4075C153.58 75.2807 155.099 76.7992 156.972 76.7992C158.845 76.7992 160.363 75.2807 160.363 73.4075V67.4223Z" fill="#81584A"/>
<path d="M148.677 64.0883C148.677 62.916 147.727 61.9657 146.554 61.9657C145.382 61.9657 144.432 62.916 144.432 64.0883V64.9373C144.432 66.1096 145.382 67.0599 146.554 67.0599C147.727 67.0599 148.677 66.1096 148.677 64.9373V64.0883Z" fill="#61534B"/>
<path d="M169.267 64.0883C169.267 62.916 168.316 61.9657 167.144 61.9657C165.972 61.9657 165.021 62.916 165.021 64.0883V64.9373C165.021 66.1096 165.972 67.0599 167.144 67.0599C168.316 67.0599 169.267 66.1096 169.267 64.9373V64.0883Z" fill="#61534B"/>
<path d="M160.775 84.8991C163.899 84.8991 166.414 82.2129 166.414 78.8753V77.9005H147.424V78.8753C147.424 82.2129 149.939 84.8991 153.063 84.8991H160.775Z" fill="white"/>
<path d="M156.522 74.2384L153.367 71.5583C152.846 71.1155 152.065 71.179 151.622 71.7001C151.179 72.2213 151.243 73.0027 151.764 73.4454L154.918 76.1255C155.439 76.5683 156.221 76.5048 156.663 75.9837C157.106 75.4626 157.043 74.6812 156.522 74.2384Z" fill="#81584A"/>
<path d="M157.424 74.2384L160.578 71.5583C161.099 71.1155 161.88 71.179 162.323 71.7001C162.766 72.2213 162.703 73.0027 162.181 73.4454L159.027 76.1255C158.506 76.5683 157.725 76.5048 157.282 75.9837C156.839 75.4626 156.903 74.6812 157.424 74.2384Z" fill="#81584A"/>
<path d="M158.938 72.5154C158.938 71.6166 158.21 70.8881 157.311 70.8881C156.412 70.8881 155.684 71.6166 155.684 72.5154V74.0012C155.684 74.8999 156.412 75.6285 157.311 75.6285C158.21 75.6285 158.938 74.8999 158.938 74.0012V72.5154Z" fill="#906253"/>
<path d="M150.034 61.4982L143.413 60.1662C142.695 60.0218 141.996 60.4867 141.852 61.2045C141.707 61.9224 142.172 62.6214 142.89 62.7658L149.512 64.0977C150.229 64.2421 150.928 63.7772 151.073 63.0594C151.217 62.3415 150.752 61.6426 150.034 61.4982Z" fill="#4D4D4D"/>
<path d="M143.311 61.5491C143.395 61.1292 143.123 60.7204 142.704 60.636C142.284 60.5515 141.875 60.8234 141.79 61.2433L141.44 62.9845C141.356 63.4043 141.628 63.8132 142.048 63.8976C142.467 63.9821 142.876 63.7102 142.961 63.2903L143.311 61.5491Z" fill="#4D4D4D"/>
<path d="M163.503 61.4983L170.124 60.1664C170.842 60.022 171.541 60.4868 171.685 61.2047C171.83 61.9225 171.365 62.6215 170.647 62.7659L164.026 64.0978C163.308 64.2422 162.609 63.7773 162.464 63.0595C162.32 62.3417 162.785 61.6427 163.503 61.4983Z" fill="#4D4D4D"/>
<path d="M170.226 61.5491C170.142 61.1292 170.414 60.7204 170.834 60.636C171.253 60.5515 171.662 60.8234 171.747 61.2433L172.097 62.9845C172.181 63.4043 171.909 63.8132 171.49 63.8976C171.07 63.9821 170.661 63.7102 170.576 63.2903L170.226 61.5491Z" fill="#4D4D4D"/>
<path d="M154.792 61.2378C154.792 60.7128 154.366 60.2872 153.841 60.2872C153.316 60.2872 152.891 60.7128 152.891 61.2378V62.3885C152.891 62.9135 153.316 63.3391 153.841 63.3391C154.366 63.3391 154.792 62.9135 154.792 62.3885V61.2378Z" fill="#81584A"/>
<path d="M161.096 61.2378C161.096 60.7128 160.671 60.2872 160.146 60.2872C159.621 60.2872 159.195 60.7128 159.195 61.2378V62.3885C159.195 62.9135 159.621 63.3391 160.146 63.3391C160.671 63.3391 161.096 62.9135 161.096 62.3885V61.2378Z" fill="#81584A"/>
<path d="M158.938 72.5135C158.938 71.6148 158.21 70.8862 157.311 70.8862C156.412 70.8862 155.684 71.6148 155.684 72.5135V73.9994C155.684 74.8981 156.412 75.6267 157.311 75.6267C158.21 75.6267 158.938 74.8981 158.938 73.9994V72.5135Z" fill="#906253"/>
<path d="M149.888 60.9056L143.139 60.6404C142.408 60.6117 141.791 61.1815 141.762 61.9132C141.734 62.6448 142.303 63.2612 143.035 63.29L149.784 63.5551C150.516 63.5838 151.132 63.014 151.161 62.2824C151.19 61.5507 150.62 60.9343 149.888 60.9056Z" fill="#4D4D4D"/>
<path d="M143.261 62.0214C143.278 61.5935 142.945 61.2329 142.517 61.2161C142.089 61.1993 141.729 61.5326 141.712 61.9605L141.642 63.7352C141.625 64.1632 141.959 64.5237 142.386 64.5405C142.814 64.5573 143.175 64.2241 143.192 63.7961L143.261 62.0214Z" fill="#4D4D4D"/>
<path d="M163.744 60.6632L170.495 60.8565C171.227 60.8774 171.803 61.4877 171.782 62.2197C171.761 62.9516 171.151 63.5279 170.419 63.507L163.668 63.3137C162.936 63.2928 162.36 62.6824 162.381 61.9505C162.402 61.2186 163.012 60.6423 163.744 60.6632Z" fill="#4D4D4D"/>
<path d="M170.281 62.2264C170.293 61.7983 170.65 61.4612 171.078 61.4734C171.506 61.4857 171.844 61.8427 171.831 62.2708L171.781 64.0461C171.768 64.4742 171.411 64.8113 170.983 64.799C170.555 64.7868 170.218 64.4298 170.23 64.0017L170.281 62.2264Z" fill="#4D4D4D"/>
<path d="M180.975 57.0223C180.89 57.0153 180.805 57.0152 180.719 57.023C180.62 57.032 180.521 57.0512 180.422 57.0808L180.219 57.1414C179.563 57.3385 179.152 57.9439 179.167 58.5957C179.103 58.5045 179.027 58.425 178.946 58.3514V60.3711C181.788 61.5487 183.777 64.3439 183.777 67.6214C183.777 70.9164 181.767 73.723 178.9 74.8895C178.819 76.0663 178.611 77.2065 178.297 78.3012V79.4305C178.224 79.3141 178.137 79.2078 178.041 79.1108C176.612 83.267 173.576 86.6599 169.665 88.5539V91.0879C169.665 92.107 170.485 92.9269 171.504 92.9269H172.353C173.372 92.9269 174.193 92.107 174.193 91.0879V90.5928C174.469 91.2584 175.123 91.7243 175.891 91.7243H176.74C177.759 91.7243 178.58 90.9037 178.58 89.8845V89.3021C178.904 89.8212 179.476 90.168 180.136 90.168C181.155 90.168 181.976 89.3473 181.976 88.3282V77.9948L182.354 79.2536C182.591 80.042 183.417 80.4865 184.205 80.2497C184.993 80.0129 185.437 79.1872 185.201 78.3988L183.182 71.6806C183.554 72.0986 184.144 72.2893 184.717 72.1172L184.921 72.0558C185.709 71.819 186.153 70.994 185.916 70.2057L182.273 58.0761C182.092 57.4726 181.565 57.0712 180.975 57.0223V57.0223ZM133.146 57.1222C132.555 57.1711 132.029 57.5725 131.848 58.176L128.204 70.3056C127.968 71.0939 128.411 71.9189 129.2 72.1557L129.403 72.2171C129.976 72.3892 130.566 72.1985 130.938 71.7805L128.92 78.4987C128.683 79.2871 129.127 80.1128 129.915 80.3496C130.704 80.5864 131.529 80.1426 131.766 79.3542L131.842 79.1004V88.3282C131.842 89.3473 132.662 90.1679 133.681 90.1679C134.341 90.1679 134.914 89.8212 135.239 89.3021V89.8845C135.239 90.9036 136.058 91.7243 137.078 91.7243H137.927C138.694 91.7243 139.348 91.2594 139.625 90.595V91.0878C139.625 92.107 140.446 92.9269 141.465 92.9269H142.313C143.333 92.9269 144.153 92.107 144.153 91.0878V88.4873C140.278 86.5662 137.279 83.1664 135.88 79.0153C135.742 79.1357 135.619 79.2739 135.521 79.4305V77.7986C135.284 76.8586 135.123 75.8872 135.054 74.8895C132.187 73.723 130.177 70.9163 130.177 67.6214C130.177 64.3439 132.166 61.5486 135.008 60.371V58.6297C134.99 58.652 134.97 58.6721 134.954 58.6956C134.968 58.044 134.557 57.4383 133.901 57.2413L133.698 57.1807C133.6 57.1511 133.5 57.1319 133.402 57.1229C133.316 57.1151 133.23 57.1152 133.146 57.1222V57.1222Z" fill="#4D4D4D"/>
<path d="M139.437 43.4336C136.258 46.3901 134.268 50.6626 134.268 55.4299V74.607C134.268 83.5722 141.307 90.7898 150.051 90.7898H163.904C172.648 90.7898 179.688 83.5722 179.688 74.607V55.4299C179.688 50.6626 177.697 46.3901 174.519 43.4336C176.941 46.317 178.405 50.0726 178.405 54.194V73.7204C178.405 82.849 171.238 90.1978 162.334 90.1978H151.622C142.719 90.1978 135.55 82.849 135.55 73.7204V54.194C135.55 50.0726 137.015 46.317 139.437 43.4336Z" fill="#565656"/>
<path d="M148.711 90.6056C148.711 89.7491 148.034 89.0547 147.198 89.0547C146.363 89.0547 145.686 89.7491 145.686 90.6056V92.4067C145.686 93.2632 146.363 93.9576 147.198 93.9576C148.034 93.9576 148.711 93.2632 148.711 92.4067V90.6056Z" fill="#565656"/>
<path d="M151.539 92.0189C151.539 91.1624 150.862 90.468 150.026 90.468C149.191 90.468 148.514 91.1624 148.514 92.0189V93.82C148.514 94.6766 149.191 95.371 150.026 95.371C150.862 95.371 151.539 94.6766 151.539 93.82V92.0189Z" fill="#565656"/>
<path d="M154.334 92.7982C154.334 91.9417 153.657 91.2473 152.821 91.2473C151.986 91.2473 151.309 91.9417 151.309 92.7982V94.5993C151.309 95.4559 151.986 96.1502 152.821 96.1502C153.657 96.1502 154.334 95.4559 154.334 94.5993V92.7982Z" fill="#565656"/>
<path d="M157.094 92.9752C157.094 92.1187 156.416 91.4243 155.581 91.4243C154.746 91.4243 154.068 92.1187 154.068 92.9752V94.7763C154.068 95.6329 154.746 96.3273 155.581 96.3273C156.416 96.3273 157.094 95.6329 157.094 94.7763V92.9752Z" fill="#565656"/>
<path d="M146.164 87.4965C146.164 86.4742 145.355 85.6454 144.358 85.6454C143.361 85.6454 142.553 86.4742 142.553 87.4965V89.6462C142.553 90.6685 143.361 91.4973 144.358 91.4973C145.355 91.4973 146.164 90.6685 146.164 89.6462V87.4965Z" fill="#565656"/>
<path d="M143.041 85.5971C143.041 84.5747 142.232 83.746 141.235 83.746C140.238 83.746 139.43 84.5747 139.43 85.5971V87.7468C139.43 88.7691 140.238 89.5979 141.235 89.5979C142.232 89.5979 143.041 88.7691 143.041 87.7468V85.5971Z" fill="#565656"/>
<path d="M140.406 83.2948C140.406 82.2725 139.598 81.4437 138.6 81.4437C137.603 81.4437 136.795 82.2725 136.795 83.2948V85.4445C136.795 86.4668 137.603 87.2956 138.6 87.2956C139.598 87.2956 140.406 86.4668 140.406 85.4445V83.2948Z" fill="#565656"/>
<path d="M165.25 90.6056C165.25 89.7491 165.927 89.0547 166.763 89.0547C167.598 89.0547 168.275 89.7491 168.275 90.6056V92.4067C168.275 93.2632 167.598 93.9576 166.763 93.9576C165.927 93.9576 165.25 93.2632 165.25 92.4067V90.6056Z" fill="#565656"/>
<path d="M162.42 92.0189C162.42 91.1624 163.097 90.468 163.933 90.468C164.768 90.468 165.445 91.1624 165.445 92.0189V93.82C165.445 94.6766 164.768 95.371 163.933 95.371C163.097 95.371 162.42 94.6766 162.42 93.82V92.0189Z" fill="#565656"/>
<path d="M159.625 92.7982C159.625 91.9417 160.302 91.2473 161.138 91.2473C161.973 91.2473 162.65 91.9417 162.65 92.7982V94.5993C162.65 95.4559 161.973 96.1502 161.138 96.1502C160.302 96.1502 159.625 95.4559 159.625 94.5993V92.7982Z" fill="#565656"/>
<path d="M156.867 92.9752C156.867 92.1187 157.544 91.4243 158.38 91.4243C159.215 91.4243 159.893 92.1187 159.893 92.9752V94.7763C159.893 95.6329 159.215 96.3273 158.38 96.3273C157.544 96.3273 156.867 95.6329 156.867 94.7763V92.9752Z" fill="#565656"/>
<path d="M167.795 87.4965C167.795 86.4742 168.604 85.6454 169.601 85.6454C170.598 85.6454 171.406 86.4742 171.406 87.4965V89.6462C171.406 90.6685 170.598 91.4973 169.601 91.4973C168.604 91.4973 167.795 90.6685 167.795 89.6462V87.4965Z" fill="#565656"/>
<path d="M170.92 85.5971C170.92 84.5747 171.729 83.746 172.726 83.746C173.723 83.746 174.531 84.5747 174.531 85.5971V87.7468C174.531 88.7691 173.723 89.5979 172.726 89.5979C171.729 89.5979 170.92 88.7691 170.92 87.7468V85.5971Z" fill="#565656"/>
<path d="M173.553 83.2948C173.553 82.2725 174.361 81.4437 175.359 81.4437C176.356 81.4437 177.164 82.2725 177.164 83.2948V85.4445C177.164 86.4668 176.356 87.2956 175.359 87.2956C174.361 87.2956 173.553 86.4668 173.553 85.4445V83.2948Z" fill="#565656"/>
<path d="M150.143 72.3535C146.613 72.3535 143.771 75.2669 143.771 78.886V86.5278C143.771 90.1469 146.613 93.0603 150.143 93.0603H163.814C167.344 93.0603 170.185 90.1469 170.185 86.5278V78.886C170.185 75.2669 167.344 72.3535 163.814 72.3535H162.476C162.523 72.7516 162.381 73.1649 162.059 73.4451L161.519 73.9158C161.839 74.224 162.078 74.6216 162.181 75.0769H164.036C166.009 75.0769 167.598 76.7055 167.598 78.7291V82.015C167.598 82.7828 167.369 83.4929 166.977 84.0797V84.9811C166.977 87.87 164.709 90.1955 161.891 90.1955H152.066C149.248 90.1955 146.98 87.87 146.98 84.9811V84.0797C146.588 83.4929 146.359 82.7828 146.359 82.015V78.7291C146.359 76.7055 147.948 75.0769 149.921 75.0769H151.088C151.227 74.4641 151.604 73.9504 152.111 73.6309L151.898 73.4451C151.576 73.1649 151.433 72.7516 151.48 72.3535H150.143Z" fill="#565656"/>
<path d="M147.151 36.8101C138.829 36.8101 132.129 43.5093 132.129 51.831C132.129 52.2218 132.149 52.6075 132.178 52.9907C132.149 53.1867 132.129 53.3858 132.129 53.5901V62.792C132.129 64.7666 133.525 66.4027 135.388 66.7727V54.7646C135.388 46.1686 142.309 39.2478 150.905 39.2478H163.045C171.641 39.2478 178.562 46.1686 178.562 54.7646V66.789C180.478 66.4614 181.929 64.8042 181.929 62.792V53.5901C181.929 53.3858 181.909 53.1867 181.88 52.9907C181.909 52.6075 181.929 52.2218 181.929 51.831C181.929 43.5093 175.23 36.8101 166.908 36.8101H147.151Z" fill="#4D4D4D"/>
<path d="M164.199 34.9163H150.667C146.108 34.9163 142.412 38.6121 142.412 43.1711C142.412 47.7301 146.108 51.4259 150.667 51.4259H164.199C168.758 51.4259 172.454 47.7301 172.454 43.1711C172.454 38.6121 168.758 34.9163 164.199 34.9163Z" fill="#4D4D4D"/>
<path d="M147.012 40.1606C147.012 38.8714 145.967 37.8263 144.678 37.8263C143.389 37.8263 142.344 38.8714 142.344 40.1606V45.5736C142.344 46.8629 143.389 47.908 144.678 47.908C145.967 47.908 147.012 46.8629 147.012 45.5736V40.1606Z" fill="#4D4D4D"/>
<path d="M173.536 40.3639C173.536 39.0747 172.491 38.0295 171.202 38.0295C169.912 38.0295 168.867 39.0747 168.867 40.3639V45.7769C168.867 47.0661 169.912 48.1112 171.202 48.1112C172.491 48.1112 173.536 47.0661 173.536 45.7769V40.3639Z" fill="#4D4D4D"/>
<path d="M141.454 42.8287C141.332 41.9779 140.544 41.3873 139.693 41.5095C138.842 41.6318 138.251 42.4205 138.374 43.2713L138.768 46.0172C138.89 46.868 139.679 47.4586 140.53 47.3364C141.381 47.2141 141.971 46.4254 141.849 45.5746L141.454 42.8287Z" fill="#4D4D4D"/>
<path d="M174.46 43.4979C174.582 42.6471 175.371 42.0565 176.221 42.1787C177.072 42.3009 177.663 43.0897 177.54 43.9404L177.146 46.6864C177.024 47.5372 176.235 48.1278 175.384 48.0055C174.533 47.8833 173.943 47.0946 174.065 46.2438L174.46 43.4979Z" fill="#4D4D4D"/>
<path d="M155.805 39.0166H157.262C158.122 39.0166 158.818 39.7134 158.818 40.5728V46.2565C158.818 47.116 158.122 47.8127 157.262 47.8127H155.805C154.945 47.8127 154.249 47.116 154.249 46.2565V40.5728C154.249 39.7134 154.945 39.0166 155.805 39.0166Z" fill="#565656"/>
<path d="M149.517 39.1853H151.44C152.113 39.1853 152.658 39.7306 152.658 40.4032V46.4252C152.658 47.0978 152.113 47.6431 151.44 47.6431H149.517C148.844 47.6431 148.299 47.0978 148.299 46.4252V40.4032C148.299 39.7306 148.844 39.1853 149.517 39.1853Z" fill="#565656"/>
<path d="M163.55 39.1853H161.626C160.953 39.1853 160.408 39.7306 160.408 40.4032V46.4252C160.408 47.0978 160.953 47.6431 161.626 47.6431H163.55C164.222 47.6431 164.768 47.0978 164.768 46.4252V40.4032C164.768 39.7306 164.222 39.1853 163.55 39.1853Z" fill="#565656"/>
<path d="M151.558 28.5531C141.216 28.5531 132.889 36.8792 132.889 47.2218V56.0299C132.889 59.1613 133.656 62.1057 135.007 64.6923V54.1931C135.007 45.0645 142.357 37.7157 151.486 37.7157H162.469C171.597 37.7157 178.946 45.0645 178.946 54.1931V64.6923C180.297 62.1057 181.065 59.1613 181.065 56.0299V47.2218C181.065 36.8792 172.738 28.5531 162.395 28.5531H151.558Z" fill="#484848"/>
<path d="M139.657 45.2923C139.657 43.2395 138.244 41.5754 136.5 41.5754C134.756 41.5754 133.342 43.2395 133.342 45.2923V50.5816C133.342 52.6343 134.756 54.2984 136.5 54.2984C138.244 54.2984 139.657 52.6343 139.657 50.5816V45.2923Z" fill="#484848"/>
<path d="M180.612 45.2923C180.612 43.2395 179.199 41.5754 177.455 41.5754C175.711 41.5754 174.297 43.2395 174.297 45.2923V50.5816C174.297 52.6343 175.711 54.2984 177.455 54.2984C179.199 54.2984 180.612 52.6343 180.612 50.5816V45.2923Z" fill="#484848"/>
<path d="M165.61 28.8243H147.641C142.29 28.8243 137.951 33.1628 137.951 38.5146V43.0865C137.951 48.4383 142.29 52.7768 147.641 52.7768H165.61C170.962 52.7768 175.301 48.4383 175.301 43.0865V38.5146C175.301 33.1628 170.962 28.8243 165.61 28.8243Z" fill="#4F4F4F"/>
<path d="M135.783 25.6967C135.196 25.638 134.611 25.7871 134.148 26.1132C133.685 26.4393 133.38 26.9177 133.294 27.45C133.258 27.6786 133.227 27.9073 133.204 28.1347C132.515 35.0021 138.075 41.2113 145.588 41.9652L154.363 42.8457C161.877 43.5996 168.559 38.6188 169.248 31.7514C169.273 31.506 169.284 31.277 169.294 31.0665C169.317 30.5272 169.113 29.9966 168.724 29.5841C168.335 29.1716 167.791 28.9086 167.203 28.8494L135.783 25.6967Z" fill="#4F4F4F"/>
<path d="M134.733 37.8174C134.159 37.8176 133.608 38.0185 133.192 38.3789C132.776 38.7393 132.526 39.2318 132.495 39.7551C132.482 39.9797 132.475 40.204 132.475 40.4262C132.475 47.1365 138.456 52.6035 145.797 52.6035H154.372C161.713 52.6035 167.694 47.1365 167.694 40.4262C167.694 40.1864 167.683 39.9638 167.671 39.7593C167.642 39.2353 167.393 38.7418 166.976 38.3805C166.56 38.0192 166.008 37.8176 165.434 37.8174H134.733Z" fill="#4F4F4F"/>
<path d="M175.3 38.4849V38.5396C175.3 43.908 170.978 48.2299 165.61 48.2299H147.641C147.014 48.2299 146.402 48.1687 145.809 48.056H145.798C139.538 48.056 134.271 44.0809 132.853 38.7505C132.64 39.051 132.516 39.3972 132.495 39.7548C132.482 39.9795 132.475 40.2038 132.475 40.426C132.475 47.1363 138.456 52.6029 145.798 52.6029H145.81C146.403 52.7156 147.014 52.7768 147.641 52.7768H165.611C170.979 52.7768 175.301 48.455 175.301 43.0865V38.5145C175.301 38.5045 175.3 38.4948 175.3 38.4849L175.3 38.4849Z" fill="#484848"/>
<path d="M207.68 137.041C207.548 137.041 207.416 137.048 207.283 137.062L190.57 138.818C188.437 139.042 186.901 140.94 187.125 143.073L187.312 144.847C187.536 146.979 189.434 148.516 191.566 148.292L194.927 147.939C197.066 145.569 200.165 144.083 203.624 144.083H207.684C208.555 144.083 209.402 144.18 210.217 144.358C210.61 143.609 211.123 142.933 211.727 142.353C211.725 142.329 211.726 142.305 211.723 142.281L211.537 140.507C211.327 138.508 209.646 137.033 207.679 137.041L207.68 137.041Z" fill="#F7E1DA"/>
<path d="M220.928 10.5953C219.16 10.5953 217.736 12.3744 217.736 14.585V140.182H223.589C223.768 140.182 223.944 140.19 224.12 140.201V14.585C224.12 12.3744 222.697 10.5953 220.928 10.5953ZM224.12 169.426C223.944 169.438 223.768 169.446 223.589 169.446H217.736V283.256C217.736 285.467 219.16 287.246 220.928 287.246C222.697 287.246 224.12 285.467 224.12 283.256V169.426Z" fill="#87A4B4"/>
<path d="M218.59 129.114C218.117 129.114 217.736 129.494 217.736 129.967V140.182H223.589C223.768 140.182 223.944 140.19 224.12 140.202V129.967C224.12 129.494 223.74 129.114 223.267 129.114L218.59 129.114ZM224.12 169.427C223.944 169.439 223.768 169.447 223.589 169.447H217.736V187.437C217.736 187.91 218.117 188.291 218.59 188.291H223.267C223.74 188.291 224.12 187.91 224.12 187.437V169.427Z" fill="#7093A6"/>
<path d="M224.1 20.4861C224.1 15.3613 222.679 11.2069 220.926 11.2069C219.173 11.2069 217.752 15.3613 217.752 20.4861V50.0108C217.752 55.1355 219.173 59.2899 220.926 59.2899C222.679 59.2899 224.1 55.1355 224.1 50.0108V20.4861Z" fill="#95AEBD"/>
<path d="M193.56 100.147C193.093 100.149 192.619 100.186 192.142 100.26L192.063 100.273C186.979 101.066 183.523 105.797 184.316 110.882L190.252 148.945C190.512 150.612 191.198 152.103 192.179 153.327C193.303 148.032 197.985 144.083 203.625 144.083H207.685C207.919 144.083 208.151 144.091 208.382 144.104L202.752 108.007C202.033 103.399 198.08 100.129 193.56 100.147V100.147Z" fill="#1774A3" fill-opacity="0.996078"/>
<path d="M119.126 99.2062C114.606 99.1887 110.653 102.458 109.934 107.066L105.312 136.704C104.754 140.283 106.303 143.685 109.041 145.664C110.058 145.372 111.131 145.213 112.244 145.213C114.369 145.213 116.354 145.784 118.06 146.778C120.997 145.6 123.249 142.949 123.774 139.583L128.395 109.945C129.188 104.86 125.733 100.129 120.649 99.3358L120.543 99.3195C120.067 99.2451 119.593 99.2081 119.126 99.2062V99.2062Z" fill="#1774A3" fill-opacity="0.996078"/>
<path d="M175.849 122.764H137.35C132.399 122.764 128.385 126.777 128.385 131.729V175.332C128.385 180.283 132.399 184.297 137.35 184.297H175.849C180.8 184.297 184.814 180.283 184.814 175.332V131.729C184.814 126.777 180.8 122.764 175.849 122.764Z" fill="#1774A3" fill-opacity="0.996078"/>
<path d="M122.208 97.2477C114.673 97.2477 108.607 103.314 108.607 110.848C108.607 118.383 114.673 124.449 122.208 124.449H191.598C199.133 124.449 205.199 118.383 205.199 110.848C205.199 103.314 199.133 97.2477 191.598 97.2477H178.31C178.019 105.571 171.227 112.186 162.83 112.186H150.369C141.972 112.186 135.179 105.571 134.888 97.2477H122.208Z" fill="#1B83B9"/>
<path d="M137.441 109.346C127.071 113.369 119.754 123.415 119.754 135.239C119.754 150.627 132.142 163.015 147.53 163.015H165.669C181.057 163.015 193.446 150.627 193.446 135.239C193.446 123.484 186.212 113.486 175.939 109.417C175.292 112.857 172.29 115.447 168.656 115.447H144.734C141.076 115.447 138.059 112.821 137.441 109.346Z" fill="#1774A3" fill-opacity="0.996078"/>
<path d="M134.892 97.3792C126.302 98.6555 119.754 106.024 119.754 114.979V125.706C119.754 135.565 127.691 143.503 137.551 143.503H175.648C185.508 143.503 193.446 135.565 193.446 125.706V114.979C193.446 106.024 186.897 98.6558 178.308 97.3792C177.95 105.641 171.183 112.185 162.83 112.185H150.369C142.016 112.185 135.25 105.641 134.892 97.3792Z" fill="#1B83B9"/>
<path d="M154.224 182.953H130.643V219.487H154.224V182.953Z" fill="#4B4B4B"/>
<path d="M182.943 182.953H158.979V219.487H182.943V182.953Z" fill="#4B4B4B"/>
<path d="M132.822 179.391C131.345 179.391 129.919 179.603 128.57 179.992C130.15 195.475 142.053 207.437 156.601 207.437C171.338 207.437 183.362 195.165 184.69 179.391C184.688 179.391 184.687 179.391 184.685 179.391H132.822Z" fill="#4F4F4F"/>
<path d="M157.729 180.117H154.711C153.601 180.117 152.701 181.017 152.701 182.127V198.136C152.701 199.246 153.601 200.145 154.711 200.145H157.729C158.838 200.145 159.738 199.246 159.738 198.136V182.127C159.738 181.017 158.838 180.117 157.729 180.117Z" fill="#565656"/>
<path d="M181.715 185.057C181.715 184.496 181.473 184.042 181.174 184.042C180.875 184.042 180.633 184.496 180.633 185.057V217.129C180.633 217.689 180.875 218.144 181.174 218.144C181.473 218.144 181.715 217.689 181.715 217.129V185.057Z" fill="white"/>
<path d="M132.401 185.463C132.401 184.903 132.159 184.448 131.86 184.448C131.561 184.448 131.318 184.903 131.318 185.463V217.535C131.318 218.096 131.561 218.55 131.86 218.55C132.159 218.55 132.401 218.096 132.401 217.535V185.463Z" fill="white"/>
<path d="M184.97 176.688H129.088C127.713 176.688 126.6 177.802 126.6 179.176V182.238C126.6 183.612 127.713 184.726 129.088 184.726H184.97C186.344 184.726 187.458 183.612 187.458 182.238V179.176C187.458 177.802 186.344 176.688 184.97 176.688Z" fill="#1B83B9"/>
<path d="M153.391 217.491H131.478C130.368 217.491 129.469 218.391 129.469 219.501C129.469 220.611 130.368 221.51 131.478 221.51H153.391C154.501 221.51 155.4 220.611 155.4 219.501C155.4 218.391 154.501 217.491 153.391 217.491Z" fill="#565656"/>
<path d="M181.914 217.491H160.002C158.892 217.491 157.992 218.391 157.992 219.501C157.992 220.611 158.892 221.51 160.002 221.51H181.914C183.024 221.51 183.924 220.611 183.924 219.501C183.924 218.391 183.024 217.491 181.914 217.491Z" fill="#565656"/>
<path d="M152.362 257.509H132.987C131.958 257.509 131.123 258.344 131.123 259.374V275.712C131.123 276.741 131.958 277.576 132.987 277.576H152.362C153.391 277.576 154.226 276.741 154.226 275.712V259.374C154.226 258.344 153.391 257.509 152.362 257.509Z" fill="white"/>
<path d="M180.217 257.509H160.843C159.813 257.509 158.979 258.344 158.979 259.374V275.712C158.979 276.741 159.813 277.576 160.843 277.576H180.217C181.247 277.576 182.081 276.741 182.081 275.712V259.374C182.081 258.344 181.247 257.509 180.217 257.509Z" fill="white"/>
<path d="M121.571 176.511H102.929C102.421 176.511 102.01 176.922 102.01 177.43V184.784C102.01 185.292 102.421 185.703 102.929 185.703H121.571C122.079 185.703 122.49 185.292 122.49 184.784V177.43C122.49 176.922 122.079 176.511 121.571 176.511Z" fill="white"/>
<path d="M144.439 263.207H138.305C136.847 263.207 135.666 264.389 135.666 265.846V268.214C135.666 269.672 136.847 270.853 138.305 270.853H144.439C145.897 270.853 147.078 269.672 147.078 268.214V265.846C147.078 264.389 145.897 263.207 144.439 263.207Z" fill="#4B4B4B"/>
<path d="M174.895 263.207H168.76C167.303 263.207 166.121 264.389 166.121 265.846V268.214C166.121 269.672 167.303 270.853 168.76 270.853H174.895C176.352 270.853 177.533 269.672 177.533 268.214V265.846C177.533 264.389 176.352 263.207 174.895 263.207Z" fill="#4B4B4B"/>
<path d="M144.781 267.302H135.736C130.521 267.302 126.293 271.53 126.293 276.745C126.293 281.96 130.521 286.188 135.736 286.188H144.781C149.996 286.188 154.224 281.96 154.224 276.745C154.224 271.53 149.996 267.302 144.781 267.302Z" fill="#4F4F4F"/>
<path d="M151.097 275.844H129.42C127.693 275.844 126.293 277.244 126.293 278.971V283.061C126.293 284.788 127.693 286.188 129.42 286.188H151.097C152.824 286.188 154.224 284.788 154.224 283.061V278.971C154.224 277.244 152.824 275.844 151.097 275.844Z" fill="#4F4F4F"/>
<path d="M177.464 267.302H168.42C163.205 267.302 158.977 271.53 158.977 276.745C158.977 281.96 163.205 286.188 168.42 286.188H177.464C182.68 286.188 186.908 281.96 186.908 276.745C186.908 271.53 182.68 267.302 177.464 267.302Z" fill="#4F4F4F"/>
<path d="M183.78 275.775H162.104C160.377 275.775 158.977 277.175 158.977 278.902V282.992C158.977 284.719 160.377 286.12 162.104 286.12H183.78C185.508 286.12 186.908 284.719 186.908 282.992V278.902C186.908 277.175 185.508 275.775 183.78 275.775Z" fill="#4F4F4F"/>
<path d="M153.048 282.297H127.469C126.82 282.297 126.293 282.824 126.293 283.473V285.012C126.293 285.662 126.82 286.188 127.469 286.188H153.048C153.697 286.188 154.224 285.662 154.224 285.012V283.473C154.224 282.824 153.697 282.297 153.048 282.297Z" fill="white"/>
<path d="M185.731 282.271H160.153C159.503 282.271 158.977 282.797 158.977 283.447V284.986C158.977 285.635 159.503 286.162 160.153 286.162H185.731C186.381 286.162 186.908 285.635 186.908 284.986V283.447C186.908 282.797 186.381 282.271 185.731 282.271Z" fill="white"/>
<path d="M144.958 267.809H137.786C137.412 267.809 137.109 268.112 137.109 268.485C137.109 268.859 137.412 269.162 137.786 269.162H144.958C145.332 269.162 145.635 268.859 145.635 268.485C145.635 268.112 145.332 267.809 144.958 267.809Z" fill="white"/>
<path d="M175.415 267.673H168.243C167.869 267.673 167.566 267.976 167.566 268.35C167.566 268.723 167.869 269.026 168.243 269.026H175.415C175.789 269.026 176.092 268.723 176.092 268.35C176.092 267.976 175.789 267.673 175.415 267.673Z" fill="white"/>
<path d="M147.271 272.186H143.826C142.61 272.186 141.625 273.171 141.625 274.386C141.625 275.602 142.61 276.587 143.826 276.587H147.271C148.486 276.587 149.472 275.602 149.472 274.386C149.472 273.171 148.486 272.186 147.271 272.186Z" fill="#585858"/>
<path d="M181.718 271.421H178.273C177.058 271.421 176.072 272.406 176.072 273.621C176.072 274.837 177.058 275.822 178.273 275.822H181.718C182.933 275.822 183.919 274.837 183.919 273.621C183.919 272.406 182.933 271.421 181.718 271.421Z" fill="#585858"/>
<path d="M172.699 126.429H165.465C163.387 126.429 161.703 128.113 161.703 130.191C161.703 132.269 163.387 133.953 165.465 133.953H172.699C174.777 133.953 176.461 132.269 176.461 130.191C176.461 128.113 174.777 126.429 172.699 126.429Z" fill="#1D8CC6"/>
<path d="M147.166 126.429H139.932C137.854 126.429 136.17 128.113 136.17 130.191C136.17 132.269 137.854 133.953 139.932 133.953H147.166C149.244 133.953 150.928 132.269 150.928 130.191C150.928 128.113 149.244 126.429 147.166 126.429Z" fill="#1D8CC6"/>
<path d="M122.985 102.07H120.591C119.269 102.07 118.197 103.142 118.197 104.464C118.197 105.786 119.269 106.858 120.591 106.858H122.985C124.308 106.858 125.38 105.786 125.38 104.464C125.38 103.142 124.308 102.07 122.985 102.07Z" fill="#1D8CC6"/>
<path d="M194.841 102.258H192.447C191.125 102.258 190.053 103.33 190.053 104.653C190.053 105.975 191.125 107.047 192.447 107.047H194.841C196.163 107.047 197.235 105.975 197.235 104.653C197.235 103.33 196.163 102.258 194.841 102.258Z" fill="#1D8CC6"/>
<path d="M160.66 142.091C160.66 139.849 158.843 138.031 156.601 138.031C154.359 138.031 152.541 139.849 152.541 142.091V145.61C152.541 147.852 154.359 149.669 156.601 149.669C158.843 149.669 160.66 147.852 160.66 145.61V142.091Z" fill="#1773A3"/>
<path d="M144.958 270.009H137.786C137.412 270.009 137.109 270.312 137.109 270.686C137.109 271.06 137.412 271.363 137.786 271.363H144.958C145.332 271.363 145.635 271.06 145.635 270.686C145.635 270.312 145.332 270.009 144.958 270.009Z" fill="white"/>
<path d="M175.415 270.448H168.243C167.869 270.448 167.566 270.751 167.566 271.125C167.566 271.499 167.869 271.802 168.243 271.802H175.415C175.789 271.802 176.092 271.499 176.092 271.125C176.092 270.751 175.789 270.448 175.415 270.448Z" fill="white"/>
<path d="M216.027 131.672C214.021 131.672 212.406 133.287 212.406 135.293V141.776C213.718 140.779 215.351 140.181 217.133 140.181H223.589C225.936 140.181 228.028 141.211 229.457 142.84V135.293C229.457 133.287 227.843 131.672 225.837 131.672H216.027ZM229.457 166.787C228.028 168.416 225.936 169.446 223.589 169.446H217.133C215.351 169.446 213.718 168.847 212.406 167.85V172.709C212.406 174.714 214.021 176.329 216.027 176.329H225.837C227.843 176.329 229.457 174.714 229.457 172.709V166.787Z" fill="#2AA2E0"/>
<path d="M223.922 128.079H217.941C217.519 128.079 217.176 128.422 217.176 128.844V131.141C217.176 131.564 217.519 131.906 217.941 131.906H223.922C224.345 131.906 224.687 131.564 224.687 131.141V128.844C224.687 128.422 224.345 128.079 223.922 128.079Z" fill="#1873A2"/>
<path d="M225.305 133.771H224.779C223.775 133.771 222.961 134.585 222.961 135.589V137.025C222.961 138.029 223.775 138.843 224.779 138.843H225.305C226.309 138.843 227.123 138.029 227.123 137.025V135.589C227.123 134.585 226.309 133.771 225.305 133.771Z" fill="#48AFE4"/>
<path d="M178.331 96.6528C178.141 96.6473 177.957 96.7175 177.819 96.8478C177.681 96.9781 177.6 97.1579 177.595 97.3477C177.253 105.236 170.812 111.469 162.833 111.469H150.372C142.393 111.469 135.952 105.236 135.61 97.3477C135.606 97.2536 135.583 97.1613 135.544 97.0759C135.504 96.9905 135.448 96.9138 135.378 96.8502C135.309 96.7865 135.228 96.7372 135.139 96.7049C135.051 96.6727 134.957 96.6582 134.863 96.6623C134.769 96.6663 134.677 96.6889 134.591 96.7287C134.506 96.7685 134.429 96.8247 134.366 96.8942C134.302 96.9636 134.253 97.0449 134.221 97.1334C134.189 97.2218 134.174 97.3158 134.178 97.4098C134.553 106.045 141.645 112.901 150.372 112.901H162.833C171.56 112.901 178.651 106.045 179.026 97.4098C179.031 97.3142 179.018 97.2184 178.985 97.1281C178.953 97.0378 178.903 96.9549 178.839 96.8843C178.774 96.8138 178.695 96.7569 178.608 96.7171C178.521 96.6773 178.427 96.6554 178.331 96.6528Z" fill="#1D8CC6"/>
</g>
<defs>
<clipPath id="clip0_1741_5363">
<rect width="318.438" height="318.438" fill="white" transform="translate(0.865234 0.253052)"/>
</clipPath>
</defs>
</svg>
