<svg width="145" height="145" viewBox="0 0 145 145" fill="none" xmlns="http://www.w3.org/2000/svg">
<rect x="2.6875" y="2.5" width="139.56" height="139.56" rx="22.5" fill="white"/>
<path d="M66.4448 126.49V114.443H54.3982V102.397H66.4448V89.7477C58.5141 88.3423 52.0149 84.5516 46.9473 78.3757C41.8757 72.2038 39.3398 65.0521 39.3398 56.9206C39.3398 47.7852 42.5784 40.0311 49.0555 33.6584C55.5286 27.2817 63.3328 24.0934 72.4682 24.0934C81.6036 24.0934 89.4078 27.2817 95.8809 33.6584C102.358 40.0311 105.597 47.7852 105.597 56.9206C105.597 65.0521 103.063 72.2038 97.9951 78.3757C92.9234 84.5516 86.4222 88.3423 78.4915 89.7477V102.397H90.5382V114.443H78.4915V126.49H66.4448ZM72.4682 78.3034C78.2907 78.3034 83.26 76.2454 87.3759 72.1295C91.4919 68.0135 93.5498 63.0443 93.5498 57.2217C93.5498 51.3992 91.4919 46.4299 87.3759 42.314C83.26 38.198 78.2907 36.1401 72.4682 36.1401C66.6456 36.1401 61.6764 38.198 57.5604 42.314C53.4445 46.4299 51.3865 51.3992 51.3865 57.2217C51.3865 63.0443 53.4445 68.0135 57.5604 72.1295C61.6764 76.2454 66.6456 78.3034 72.4682 78.3034Z" fill="black"/>
<rect x="2.6875" y="2.5" width="139.56" height="139.56" rx="22.5" stroke="black" stroke-width="5"/>
</svg>
