<svg width="324" height="234" viewBox="0 0 324 234" fill="none" xmlns="http://www.w3.org/2000/svg">
<path d="M84.1624 70.4456L87.7184 67.079C90.3668 64.7855 94.0046 64.8894 95.3125 67.2966L99.6591 75.299C100.149 76.2009 100.496 77.1906 100.692 78.243L101.541 82.8028C101.991 85.2202 101.97 87.8007 101.478 90.432L100.591 95.1703C100.462 95.8606 100.397 96.5457 100.397 97.2168V98.8466C100.397 99.6284 100.188 100.447 99.7892 101.229C99.2509 102.283 99.1013 103.387 99.1255 104.435C99.2158 108.459 96.8681 112.404 94.3964 113.373L94.3528 113.39C91.5579 114.486 88.5877 111.71 87.7184 107.192L86.2111 102.856L83.5338 93.7809C82.8086 91.3244 82.6068 88.6444 82.9379 85.8729L83.4084 81.9422L83.8228 77.9996C83.9147 77.1301 83.6958 76.3292 83.2019 75.726C82.0615 74.3306 82.4783 72.04 84.1624 70.4456Z" fill="#9D6B5A"/>
<path d="M94.0456 88.0138L94.0978 88.016C97.4302 88.1562 100.193 91.8465 100.268 96.2596L100.833 129.393C100.907 133.805 98.2668 137.269 94.9344 137.129L94.8822 137.127C91.5498 136.987 88.7876 133.296 88.712 128.884L88.1481 95.7507C88.0725 91.3376 90.7132 87.8744 94.0456 88.0138Z" fill="#9D6B5A"/>
<path d="M92.1043 123.321L94.2963 123.471C98.4972 123.759 101.964 128.148 102.04 133.275L102.107 137.83C102.183 142.957 98.8377 146.879 94.6367 146.592L92.4447 146.441C88.2438 146.154 84.7774 141.764 84.7018 136.637L84.6341 132.083C84.5585 126.956 87.9034 123.034 92.1043 123.321Z" fill="#9D6B5A"/>
<path d="M90.6703 136.116C91.7359 132.971 95.2179 131.605 98.4483 133.065C101.679 134.526 103.434 138.26 102.368 141.406L99.4578 149.997C98.3929 153.143 94.9102 154.508 91.6806 153.047C88.4503 151.586 86.6953 147.853 87.7609 144.707L90.6703 136.116Z" fill="#9D6B5A"/>
<path d="M83.805 133.952C83.7801 131.687 85.2204 129.949 87.0214 130.069C88.8223 130.189 90.3023 132.123 90.3265 134.389L90.3927 140.576C90.4168 142.842 88.9773 144.581 87.1764 144.46C85.3754 144.34 83.8954 142.405 83.8712 140.14L83.805 133.952Z" fill="#81584A"/>
<path d="M20.7593 65.2507C20.3999 64.1769 19.9697 64.1439 18.9881 64.07C18.3924 64.0251 17.8082 64.0382 17.2731 64.147C16.738 64.2559 16.1065 64.3208 15.5813 63.9266C13.8317 62.6136 13.1606 58.7302 13.8477 62.8483C14.1032 64.1041 13.9864 65.3005 13.5087 66.3195L8.638 76.7095C7.75073 78.6022 7.34344 80.7392 7.43734 83.0092L8.16645 100.635C8.24455 102.523 9.95538 104.488 12.1615 105.223L13.562 105.665C15.0601 106.137 16.5651 106.379 18.0027 106.379L19.5239 106.379C19.8548 106.379 20.2004 106.431 20.5458 106.532C22.2814 107.043 23.7321 106.244 23.7321 104.778L23.7321 99.3157C23.7321 97.9228 24.1749 96.6685 25.0144 95.6834L25.6978 94.8814C26.6387 93.7772 27.258 92.4482 27.5204 90.9697L27.6036 90.501C27.8015 89.3861 27.8297 88.2118 27.6875 87.0043L26.5338 77.2051C26.2875 75.1139 25.2886 72.9478 23.6794 71.0157C22.1846 69.2211 21.4217 67.2294 20.7593 65.2507Z" fill="#9D6B5A"/>
<path d="M44.4533 171.236L42.7593 171.237C38.7258 171.237 35.456 174.506 35.456 178.54L35.4557 197.504L35.4561 211.084L33.9961 225.002C33.9961 228.043 36.9796 230.509 40.66 230.509H42.2137C45.8941 230.509 48.8776 228.043 48.8776 225.002V204.68C48.8776 203.265 49.223 201.871 49.8839 200.62C50.5447 199.368 50.8901 197.974 50.8901 196.559V193.887C50.8901 192.321 50.696 190.761 50.3123 189.243C49.9286 187.725 49.7346 186.164 49.7346 184.598V176.518C49.7346 176.207 49.7072 175.898 49.6529 175.592C49.2043 173.072 47.0131 171.236 44.4533 171.236Z" fill="#9D6B5A"/>
<path d="M43.2348 116.143H33.2832C32.7952 116.143 32.3997 116.539 32.3997 117.027L29.2031 146.843V157.588C29.2031 158.683 29.2927 159.777 29.4709 160.858L30.2879 165.814C30.6692 168.127 31.4523 170.356 32.6017 172.399L34.8125 176.33C35.2559 177.118 35.4889 178.008 35.4889 178.912C35.4889 181.821 37.847 184.179 40.7559 184.179H44.0692C47.1838 184.179 49.7086 181.654 49.7086 178.54C49.7086 177.874 49.8266 177.213 50.0573 176.588L50.8091 174.55C51.1319 173.675 51.3854 172.777 51.5673 171.862L52.7038 166.152L53.8472 158.535C53.9955 157.547 54.07 156.549 54.07 155.55V142.497V126.979C54.07 120.994 49.2189 116.143 43.2348 116.143Z" fill="#9D6B5A"/>
<path d="M44.617 218.854H38.3596C34.7513 218.854 31.8262 221.463 31.8262 224.681C31.8262 227.899 34.7513 230.508 38.3596 230.508H44.617C48.2253 230.508 51.1505 227.899 51.1505 224.681C51.1505 221.463 48.2253 218.854 44.617 218.854Z" fill="#9D6B5A"/>
<path d="M48.9869 224.125H33.9898C32.7949 224.125 31.8262 224.989 31.8262 226.055V228.578C31.8262 229.644 32.7949 230.508 33.9898 230.508H48.9869C50.1818 230.508 51.1505 229.644 51.1505 228.578V226.055C51.1505 224.989 50.1818 224.125 48.9869 224.125Z" fill="#9D6B5A"/>
<path d="M78.6759 88.0908C78.6759 73.0447 66.5783 67.2404 54.3035 67.2404C42.0287 67.2404 30.8223 73.0447 30.8223 88.0908L32.0779 114.167C32.0779 129.213 42.0287 141.41 54.3035 141.41C66.5783 141.41 76.5291 132.639 76.5291 117.593L78.6759 88.0908Z" fill="#81584A"/>
<path d="M84.7819 54.2468H23.449C16.8098 54.2468 11.4277 59.6289 11.4277 66.2681C11.4277 72.9072 16.8098 78.2893 23.449 78.2893H84.7819C91.4211 78.2893 96.8032 72.9072 96.8032 66.2681C96.8032 59.6289 91.4211 54.2468 84.7819 54.2468Z" fill="#906253"/>
<path d="M86.8752 72.458C86.8752 58.5114 72.2942 47.2054 54.3077 47.2054C36.3212 47.2054 21.7402 58.5114 21.7402 72.458C21.7402 86.4047 36.3212 97.7106 54.3077 97.7106C72.2942 97.7106 86.8752 86.4047 86.8752 72.458Z" fill="#9D6B5A"/>
<path d="M56.1039 88.7332H52.5064C43.9273 88.7332 36.9727 95.0281 36.9727 102.793V112.952C36.9727 120.717 43.9273 127.012 52.5064 127.012H56.1039C64.683 127.012 71.6376 120.717 71.6376 112.952V102.793C71.6376 95.0281 64.683 88.7332 56.1039 88.7332Z" fill="#906253"/>
<path d="M71.1445 54.1893H37.4709C28.7831 54.1893 21.7402 60.3882 21.7402 68.0348V76.3794C21.7402 84.0261 28.7831 90.2249 37.4709 90.2249H71.1445C79.8323 90.2249 86.8752 84.0261 86.8752 76.3794V68.0348C86.8752 60.3882 79.8323 54.1893 71.1445 54.1893Z" fill="#906253"/>
<path d="M74.0829 54.1893H34.5325C27.4675 54.1893 21.7402 59.95 21.7402 67.0561V74.8108C21.7402 81.9169 27.4675 87.6776 34.5325 87.6776H74.0829C81.1479 87.6776 86.8752 81.9169 86.8752 74.8108V67.0561C86.8752 59.95 81.1479 54.1893 74.0829 54.1893Z" fill="#9D6B5A"/>
<path d="M56.965 82.368C56.965 81.4908 55.7368 80.7797 54.2217 80.7797C52.7067 80.7797 51.4785 81.4908 51.4785 82.368V85.4485C51.4785 86.3257 52.7067 87.0368 54.2217 87.0368C55.7368 87.0368 56.965 86.3257 56.965 85.4485V82.368Z" fill="#81584A"/>
<path d="M68.5397 77.526H62.1454C60.309 77.526 58.8203 78.87 58.8203 80.5279C58.8203 82.1858 60.309 83.5298 62.1454 83.5298H68.5397C70.3761 83.5298 71.8648 82.1858 71.8648 80.5279C71.8648 78.87 70.3761 77.526 68.5397 77.526Z" fill="#AC7967"/>
<path d="M45.9693 77.5262H39.5751C37.7387 77.5262 36.25 78.8703 36.25 80.5282C36.25 82.1861 37.7387 83.5301 39.5751 83.5301H45.9693C47.8058 83.5301 49.2945 82.1861 49.2945 80.5282C49.2945 78.8703 47.8058 77.5262 45.9693 77.5262Z" fill="#AC7967"/>
<path d="M65.9458 43.8495C65.9458 36.1541 60.7353 29.9158 54.3078 29.9158C47.8804 29.9158 42.6699 36.1541 42.6699 43.8495V49.5658C42.6699 57.2612 47.8804 63.4995 54.3078 63.4995C60.7353 63.4995 65.9458 57.2612 65.9458 49.5658V43.8495Z" fill="#9D6B5A"/>
<path d="M36.7836 83.6858H34.4551C33.5263 83.6858 32.7734 84.3655 32.7734 85.204C32.7734 86.0425 33.5263 86.7222 34.4551 86.7222H36.7836C37.7123 86.7222 38.4652 86.0425 38.4652 85.204C38.4652 84.3655 37.7123 83.6858 36.7836 83.6858Z" fill="#81584A"/>
<path d="M74.846 83.686H72.5176C71.5888 83.686 70.8359 84.3658 70.8359 85.2042C70.8359 86.0427 71.5888 86.7224 72.5176 86.7224H74.846C75.7748 86.7224 76.5277 86.0427 76.5277 85.2042C76.5277 84.3658 75.7748 83.686 74.846 83.686Z" fill="#81584A"/>
<path d="M56.5647 29.9158H52.051C46.87 29.9158 42.6699 34.1158 42.6699 39.2969V43.1455C42.6699 48.3265 46.87 52.5266 52.051 52.5266H56.5647C61.7457 52.5266 65.9458 48.3265 65.9458 43.1455V39.2969C65.9458 34.1158 61.7457 29.9158 56.5647 29.9158Z" fill="#81584A"/>
<path d="M24.6941 56.2181H23.2834C19.5176 56.2181 16.4648 59.2709 16.4648 63.0367C16.4648 66.8024 19.5176 69.8552 23.2834 69.8552H24.6941C28.4599 69.8552 31.5126 66.8024 31.5126 63.0367C31.5126 59.2709 28.4599 56.2181 24.6941 56.2181Z" fill="#9D6B5A"/>
<path d="M85.5418 56.8831H84.131C80.3653 56.8831 77.3125 59.9358 77.3125 63.7016C77.3125 67.4674 80.3653 70.5201 84.131 70.5201H85.5418C89.3075 70.5201 92.3603 67.4674 92.3603 63.7016C92.3603 59.9358 89.3075 56.8831 85.5418 56.8831Z" fill="#9D6B5A"/>
<path d="M24.5955 58.5095H22.4794C21.3107 58.5095 20.3633 59.4569 20.3633 60.6256C20.3633 61.7943 21.3107 62.7417 22.4794 62.7417H24.5955C25.7642 62.7417 26.7116 61.7943 26.7116 60.6256C26.7116 59.4569 25.7642 58.5095 24.5955 58.5095Z" fill="#AC7967"/>
<path d="M88.1072 58.6757H85.9911C84.8224 58.6757 83.875 59.6231 83.875 60.7917C83.875 61.9604 84.8224 62.9078 85.9911 62.9078H88.1072C89.2759 62.9078 90.2233 61.9604 90.2233 60.7917C90.2233 59.6231 89.2759 58.6757 88.1072 58.6757Z" fill="#AC7967"/>
<path d="M65.0925 169.674L66.6981 169.674C70.7249 169.675 73.9893 172.939 73.9893 176.966L73.9896 196.495L73.9893 210.36L75.4492 224.571C75.4492 227.676 72.4657 230.193 68.7853 230.193H67.2316C63.5512 230.193 60.5677 227.676 60.5677 224.571V203.43C60.5677 202.07 60.2214 200.732 59.5615 199.543C58.9015 198.354 58.5552 197.016 58.5552 195.656V192.743C58.5552 191.183 58.7447 189.629 59.1195 188.114L59.133 188.06C59.5167 186.509 59.7107 184.918 59.7107 183.32V175.056C59.7107 174.746 59.7375 174.437 59.7907 174.132C60.2398 171.555 62.4768 169.674 65.0925 169.674Z" fill="#9D6B5A"/>
<path d="M67.0259 116.143H72.8331C74.3296 116.143 75.6613 117.093 76.1488 118.508C76.2209 118.717 76.2731 118.933 76.3045 119.152L80.0377 145.129C80.1739 146.076 80.2422 147.032 80.2422 147.989V157.164C80.2422 158.269 80.1509 159.373 79.9694 160.464L79.1671 165.284C78.7794 167.614 77.9842 169.857 76.818 171.911L74.6357 175.754C74.1905 176.538 73.9565 177.424 73.9565 178.326C73.9565 181.202 71.6247 183.534 68.7484 183.534H65.315C62.2342 183.534 59.7367 181.036 59.7367 177.956C59.7367 177.291 59.6179 176.631 59.3858 176.008L58.6359 173.995C58.3134 173.13 58.0599 172.24 57.8779 171.334L56.7415 165.677L55.6023 158.161C55.4512 157.164 55.3753 156.157 55.3753 155.148V142.247V127.794C55.3753 121.36 60.5915 116.143 67.0259 116.143Z" fill="#9D6B5A"/>
<path d="M65.5197 218.58H71.7771C75.3854 218.58 78.3105 221.18 78.3105 224.387C78.3105 227.594 75.3854 230.194 71.7771 230.194H65.5197C61.9114 230.194 58.9862 227.594 58.9862 224.387C58.9862 221.18 61.9114 218.58 65.5197 218.58Z" fill="#9D6B5A"/>
<path d="M61.1498 220.97H76.1469C77.3419 220.97 78.3105 222.219 78.3105 223.759V227.405C78.3105 228.945 77.3419 230.193 76.1469 230.193H61.1498C59.9549 230.193 58.9862 228.945 58.9862 227.405V223.759C58.9862 222.219 59.9549 220.97 61.1498 220.97Z" fill="#9D6B5A"/>
<path d="M71.403 21.7614H39.1481C35.4603 21.7614 32.4707 24.8667 32.4707 28.6974C32.4707 32.5281 35.4603 35.6335 39.1481 35.6335H71.403C75.0908 35.6335 78.0804 32.5281 78.0804 28.6974C78.0804 24.8667 75.0908 21.7614 71.403 21.7614Z" fill="#9D6B5A"/>
<path d="M71.1444 22.8879H38.1278C35.271 22.8879 32.9551 25.2038 32.9551 28.0606C32.9551 30.9174 35.271 33.2333 38.1278 33.2333H71.1444C74.0012 33.2333 76.3171 30.9174 76.3171 28.0606C76.3171 25.2038 74.0012 22.8879 71.1444 22.8879Z" fill="#81584A"/>
<path d="M59.4927 1.62878H49.7849C41.7413 1.62878 35.2207 8.14941 35.2207 16.193V33.4522C35.2207 41.4958 41.7413 48.0164 49.7849 48.0164H59.4927C67.5363 48.0164 74.0569 41.4958 74.0569 33.4522V16.193C74.0569 8.14941 67.5363 1.62878 59.4927 1.62878Z" fill="#9D6B5A"/>
<path d="M59.1385 46.1016H50.0671C49.0862 46.1016 48.291 46.8968 48.291 47.8777C48.291 48.8586 49.0862 49.6538 50.0671 49.6538H59.1385C60.1194 49.6538 60.9146 48.8586 60.9146 47.8777C60.9146 46.8968 60.1194 46.1016 59.1385 46.1016Z" fill="#9D6B5A"/>
<path d="M50.4646 93.4668H46.3397C44.3723 93.4668 42.7773 94.8572 42.7773 96.5723C42.7773 98.2875 44.3723 99.6778 46.3397 99.6778H50.4646C52.432 99.6778 54.0269 98.2875 54.0269 96.5723C54.0269 94.8572 52.432 93.4668 50.4646 93.4668Z" fill="#9D6B5A"/>
<path d="M50.4646 100.789H46.3397C44.3723 100.789 42.7773 102.179 42.7773 103.895C42.7773 105.61 44.3723 107 46.3397 107H50.4646C52.432 107 54.0269 105.61 54.0269 103.895C54.0269 102.179 52.432 100.789 50.4646 100.789Z" fill="#9D6B5A"/>
<path d="M50.4646 108.112H46.3397C44.3723 108.112 42.7773 109.503 42.7773 111.218C42.7773 112.933 44.3723 114.323 46.3397 114.323H50.4646C52.432 114.323 54.0269 112.933 54.0269 111.218C54.0269 109.503 52.432 108.112 50.4646 108.112Z" fill="#9D6B5A"/>
<path d="M63.0641 93.4668H58.9393C56.9719 93.4668 55.377 94.8572 55.377 96.5723C55.377 98.2875 56.9719 99.6778 58.9393 99.6778H63.0641C65.0316 99.6778 66.6265 98.2875 66.6265 96.5723C66.6265 94.8572 65.0316 93.4668 63.0641 93.4668Z" fill="#9D6B5A"/>
<path d="M63.0641 100.789H58.9393C56.9719 100.789 55.377 102.179 55.377 103.895C55.377 105.61 56.9719 107 58.9393 107H63.0641C65.0316 107 66.6265 105.61 66.6265 103.895C66.6265 102.179 65.0316 100.789 63.0641 100.789Z" fill="#9D6B5A"/>
<path d="M63.0641 108.112H58.9393C56.9719 108.112 55.377 109.503 55.377 111.218C55.377 112.933 56.9719 114.323 58.9393 114.323H63.0641C65.0316 114.323 66.6265 112.933 66.6265 111.218C66.6265 109.503 65.0316 108.112 63.0641 108.112Z" fill="#9D6B5A"/>
<path d="M50.1541 60.0556L43.8015 57.0019C43.0946 56.6621 42.246 56.9597 41.9062 57.6666C41.5664 58.3735 41.864 59.2221 42.5709 59.5619L48.9235 62.6156C49.6304 62.9555 50.4789 62.6579 50.8188 61.9509C51.1586 61.244 50.861 60.3955 50.1541 60.0556Z" fill="#81584A"/>
<path d="M57.719 60.0556L64.0716 57.0019C64.7785 56.6621 65.627 56.9597 65.9669 57.6666C66.3067 58.3735 66.0091 59.2221 65.3022 59.5619L58.9496 62.6156C58.2427 62.9555 57.3941 62.6579 57.0543 61.9509C56.7145 61.244 57.0121 60.3955 57.719 60.0556Z" fill="#81584A"/>
<path d="M35.4963 117.654C34.3275 117.654 33.1998 117.841 32.1328 118.185C33.3822 131.871 42.7988 142.443 54.3085 142.443C65.9669 142.443 75.4788 131.596 76.5293 117.654C76.5282 117.654 76.527 117.654 76.5259 117.654H35.4963Z" fill="#4F4F4F"/>
<path d="M74.9022 116.143H33.7596C32.8612 116.143 32.1328 116.973 32.1328 117.997V120.868C32.1328 121.892 32.8612 122.722 33.7596 122.722H74.9022C75.8007 122.722 76.529 121.892 76.529 120.868V117.997C76.529 116.973 75.8007 116.143 74.9022 116.143Z" fill="#5B5B5B"/>
<path d="M33.6289 116.169C34.7736 133.04 43.5662 146.099 54.114 146.099C64.8 146.099 74.2188 133.358 75.1814 116.169H33.6289Z" fill="#4F4F4F"/>
<path d="M76.7073 115.963L54.8394 119.474L54.668 146.028L54.8394 157.664H80.7675C80.9106 136.137 81.3242 128.663 76.7073 115.963Z" fill="#4B4B4B"/>
<path d="M32.2072 115.963L54.4878 119.463V146.026V157.663H28.3914C28.2434 136.064 27.4557 128.705 32.2072 115.963Z" fill="#4B4B4B"/>
<path d="M56.6298 43.9257H53.9931C53.7823 43.9257 53.6113 44.0966 53.6113 44.3074V44.5323C53.6113 44.7432 53.7823 44.9141 53.9931 44.9141H56.6298C56.8407 44.9141 57.0116 44.7432 57.0116 44.5323V44.3074C57.0116 44.0966 56.8407 43.9257 56.6298 43.9257Z" fill="#81584A"/>
<path d="M58.6291 27.2488C58.6291 25.6738 57.3524 24.3971 55.7774 24.3971C54.2025 24.3971 52.9258 25.6738 52.9258 27.2488V32.2811C52.9258 33.856 54.2025 35.1328 55.7774 35.1328C57.3524 35.1328 58.6291 33.856 58.6291 32.2811V27.2488Z" fill="#81584A"/>
<path d="M50.3408 26.1818C50.3408 25.1961 49.5418 24.3971 48.5562 24.3971C47.5705 24.3971 46.7715 25.1961 46.7715 26.1818V26.8956C46.7715 27.8813 47.5705 28.6803 48.5562 28.6803C49.5418 28.6803 50.3408 27.8813 50.3408 26.8956V26.1818Z" fill="#61534B"/>
<path d="M66.0596 26.199C66.0596 25.2133 65.2605 24.4143 64.2749 24.4143C63.2893 24.4143 62.4902 25.2133 62.4902 26.199V26.9128C62.4902 27.8985 63.2893 28.6975 64.2749 28.6975C65.2605 28.6975 66.0596 27.8985 66.0596 26.9128V26.199Z" fill="#61534B"/>
<path d="M58.9718 41.9432C61.5984 41.9432 63.7132 39.6846 63.7132 36.8785V36.0588H47.7461V36.8785C47.7461 39.6846 49.8609 41.9432 52.4875 41.9432H58.9718Z" fill="white"/>
<path d="M55.3946 32.9791L52.7426 30.7257C52.3044 30.3534 51.6474 30.4068 51.2751 30.845C50.9028 31.2831 50.9562 31.9401 51.3944 32.3124L54.0464 34.5658C54.4845 34.9381 55.1415 34.8847 55.5138 34.4466C55.8861 34.0084 55.8327 33.3514 55.3946 32.9791Z" fill="#81584A"/>
<path d="M56.1582 32.9791L58.8102 30.7257C59.2483 30.3534 59.9053 30.4068 60.2776 30.845C60.6499 31.2831 60.5965 31.9401 60.1584 32.3124L57.5064 34.5658C57.0682 34.9381 56.4112 34.8847 56.0389 34.4466C55.6666 34.0084 55.72 33.3514 56.1582 32.9791Z" fill="#81584A"/>
<path d="M49.9209 22.7703L44.2369 21.2305C43.6206 21.0636 43.0591 21.2866 42.9826 21.7286C42.9061 22.1707 43.3436 22.6644 43.9599 22.8313L49.6439 24.3711C50.2601 24.5381 50.8217 24.315 50.8981 23.873C50.9746 23.4309 50.5371 22.9373 49.9209 22.7703Z" fill="#4D4D4D"/>
<path d="M44.3317 22.4523C44.3805 22.1231 44.0952 21.7574 43.6944 21.6354C43.2936 21.5134 42.9292 21.6814 42.8804 22.0107L42.6779 23.376C42.6291 23.7052 42.9145 24.071 43.3152 24.193C43.716 24.3149 44.0804 24.1469 44.1293 23.8177L44.3317 22.4523Z" fill="#4D4D4D"/>
<path d="M61.29 22.7695L66.9741 21.2296C67.5903 21.0627 68.1519 21.2857 68.2283 21.7278C68.3048 22.1698 67.8673 22.6635 67.2511 22.8305L61.567 24.3703C60.9508 24.5372 60.3893 24.3142 60.3128 23.8721C60.2363 23.4301 60.6738 22.9364 61.29 22.7695Z" fill="#4D4D4D"/>
<path d="M66.8812 22.4519C66.8324 22.1226 67.1177 21.7569 67.5185 21.6349C67.9192 21.5129 68.2837 21.681 68.3325 22.0102L68.5349 23.3755C68.5838 23.7048 68.2984 24.0705 67.8977 24.1925C67.4969 24.3144 67.1324 24.1464 67.0836 23.8172L66.8812 22.4519Z" fill="#4D4D4D"/>
<path d="M53.9442 22.0486C53.9442 21.6072 53.5863 21.2494 53.1449 21.2494C52.7035 21.2494 52.3457 21.6072 52.3457 22.0486V23.0161C52.3457 23.4575 52.7035 23.8153 53.1449 23.8153C53.5863 23.8153 53.9442 23.4575 53.9442 23.0161V22.0486Z" fill="#81584A"/>
<path d="M59.2449 22.0487C59.2449 21.6073 58.8871 21.2495 58.4457 21.2495C58.0043 21.2495 57.6465 21.6073 57.6465 22.0487V23.0162C57.6465 23.4576 58.0043 23.8155 58.4457 23.8155C58.8871 23.8155 59.2449 23.4576 59.2449 23.0162V22.0487Z" fill="#81584A"/>
<path d="M49.7427 22.4464L44.0574 21.6567C43.4411 21.5711 42.9576 21.8237 42.9776 22.221C42.9976 22.6182 43.5134 23.0096 44.1298 23.0952L49.815 23.8849C50.4314 23.9705 50.9148 23.7179 50.8948 23.3206C50.8748 22.9234 50.359 22.532 49.7427 22.4464Z" fill="#4D4D4D"/>
<path d="M44.1871 22.8513C44.1735 22.5158 43.8699 22.1901 43.509 22.1238C43.1481 22.0574 42.8665 22.2756 42.8801 22.6111L42.9366 24.0024C42.9502 24.3379 43.2539 24.6636 43.6148 24.7299C43.9757 24.7962 44.2572 24.578 44.2436 24.2426L44.1871 22.8513Z" fill="#4D4D4D"/>
<path d="M61.6228 22.1588L67.1707 21.6358C67.7722 21.579 68.2054 21.9196 68.1384 22.3963C68.0714 22.873 67.5295 23.3055 66.928 23.3622L61.3801 23.8852C60.7786 23.9419 60.3454 23.6014 60.4124 23.1247C60.4794 22.6479 61.0213 22.2155 61.6228 22.1588Z" fill="#4D4D4D"/>
<path d="M67.1148 22.9918C67.1502 22.6445 67.427 22.3326 67.733 22.2952C68.039 22.2578 68.2584 22.5091 68.2229 22.8564L68.0759 24.2968C68.0405 24.6441 67.7637 24.956 67.4577 24.9933C67.1517 25.0307 66.9323 24.7795 66.9678 24.4321L67.1148 22.9918Z" fill="#4D4D4D"/>
<path d="M75.1435 19.5448C75.0745 19.5387 75.0044 19.5386 74.9339 19.5455C74.8532 19.5533 74.7716 19.5699 74.6909 19.5956L74.5248 19.6484C73.9876 19.8197 73.651 20.3459 73.6632 20.9124C73.6109 20.8332 73.5486 20.7641 73.4826 20.7001V22.4556C75.8096 23.4792 77.4383 25.9089 77.4383 28.7578C77.4383 31.6219 75.7918 34.0615 73.445 35.0754C73.378 36.0983 73.2077 37.0894 72.9506 38.0409V39.0226C72.891 38.9214 72.8199 38.829 72.7415 38.7447C71.5713 42.3573 69.0851 45.3066 65.8826 46.9529V49.1555C65.8826 50.0413 66.5546 50.754 67.3891 50.754H68.0841C68.9186 50.754 69.5905 50.0413 69.5905 49.1555V48.7251C69.8168 49.3037 70.3524 49.7087 70.9812 49.7087H71.6762C72.5107 49.7087 73.1826 48.9953 73.1826 48.1095V47.6032C73.4484 48.0544 73.9167 48.3559 74.457 48.3559C75.2914 48.3559 75.9634 47.6425 75.9634 46.7567V37.7746L76.273 38.8688C76.4669 39.5541 77.143 39.9405 77.7885 39.7347C78.434 39.5288 78.7975 38.8111 78.6036 38.1258L76.9511 32.2862C77.2556 32.6495 77.7387 32.8153 78.2079 32.6657L78.3745 32.6123C79.02 32.4065 79.3834 31.6894 79.1895 31.0041L76.2064 20.4608C76.0579 19.9362 75.627 19.5873 75.1435 19.5448V19.5448ZM35.9809 19.6316C35.4974 19.6741 35.0665 20.023 34.9181 20.5477L31.935 31.091C31.7411 31.7762 32.1045 32.4933 32.75 32.6991L32.9166 32.7525C33.3857 32.9021 33.8689 32.7363 34.1734 32.373L32.5209 38.2127C32.327 38.8979 32.6904 39.6157 33.3359 39.8215C33.9814 40.0273 34.6576 39.6415 34.8514 38.9563L34.9139 38.7356V46.7567C34.9139 47.6425 35.5852 48.3558 36.4197 48.3558C36.9599 48.3558 37.4289 48.0544 37.6946 47.6032V48.1095C37.6946 48.9953 38.366 49.7087 39.2004 49.7087H39.8961C40.5241 49.7087 41.0595 49.3046 41.2861 48.727V49.1554C41.2861 50.0413 41.9581 50.754 42.7925 50.754H43.4876C44.322 50.754 44.994 50.0413 44.994 49.1554V46.895C41.821 45.2251 39.3655 42.2699 38.22 38.6617C38.1066 38.7663 38.0062 38.8865 37.9261 39.0226V37.6041C37.7315 36.787 37.5999 35.9427 37.5431 35.0754C35.1963 34.0614 33.5498 31.6219 33.5498 28.7578C33.5498 25.9089 35.1786 23.4792 37.5055 22.4556V20.942C37.4911 20.9614 37.4748 20.9789 37.4613 20.9992C37.4732 20.4329 37.1367 19.9065 36.5996 19.7352L36.4336 19.6825C36.3529 19.6567 36.2712 19.6401 36.1906 19.6323C36.1201 19.6255 36.05 19.6256 35.9809 19.6316V19.6316Z" fill="#4D4D4D"/>
<path d="M41.1294 7.7323C38.5265 10.3021 36.8965 14.016 36.8965 18.1598V34.829C36.8965 42.6218 42.6606 48.8955 49.8203 48.8955H61.1631C68.3228 48.8955 74.0869 42.6218 74.0869 34.829V18.1598C74.0869 14.016 72.4569 10.3021 69.854 7.7323C71.8374 10.2386 73.0367 13.5031 73.0367 17.0855V34.0584C73.0367 41.9932 67.1678 48.3809 59.8776 48.3809H51.1063C43.8161 48.3809 37.9467 41.9932 37.9467 34.0584V17.0855C37.9467 13.5031 39.146 10.2386 41.1294 7.7323Z" fill="#565656"/>
<path d="M48.7174 48.7346C48.7174 47.99 48.1629 47.3865 47.4788 47.3865C46.7948 47.3865 46.2402 47.99 46.2402 48.7346V50.3001C46.2402 51.0447 46.7948 51.6482 47.4788 51.6482C48.1629 51.6482 48.7174 51.0447 48.7174 50.3001V48.7346Z" fill="#565656"/>
<path d="M51.0338 49.9626C51.0338 49.2181 50.4793 48.6145 49.7952 48.6145C49.1112 48.6145 48.5566 49.2181 48.5566 49.9626V51.5281C48.5566 52.2727 49.1112 52.8763 49.7952 52.8763C50.4793 52.8763 51.0338 52.2727 51.0338 51.5281V49.9626Z" fill="#565656"/>
<path d="M53.3229 50.6407C53.3229 49.8962 52.7683 49.2926 52.0843 49.2926C51.4002 49.2926 50.8457 49.8962 50.8457 50.6407V52.2062C50.8457 52.9508 51.4002 53.5544 52.0843 53.5544C52.7683 53.5544 53.3229 52.9508 53.3229 52.2062V50.6407Z" fill="#565656"/>
<path d="M55.5826 50.794C55.5826 50.0495 55.0281 49.4459 54.3441 49.4459C53.66 49.4459 53.1055 50.0495 53.1055 50.794V52.3596C53.1055 53.1041 53.66 53.7077 54.3441 53.7077C55.0281 53.7077 55.5826 53.1041 55.5826 52.3596V50.794Z" fill="#565656"/>
<path d="M46.6324 46.0318C46.6324 45.1431 45.9706 44.4227 45.1541 44.4227C44.3376 44.4227 43.6758 45.1431 43.6758 46.0318V47.9003C43.6758 48.789 44.3376 49.5093 45.1541 49.5093C45.9706 49.5093 46.6324 48.789 46.6324 47.9003V46.0318Z" fill="#565656"/>
<path d="M44.0738 44.3808C44.0738 43.4921 43.412 42.7717 42.5955 42.7717C41.7791 42.7717 41.1172 43.4921 41.1172 44.3808V46.2493C41.1172 47.138 41.7791 47.8583 42.5955 47.8583C43.412 47.8583 44.0738 47.138 44.0738 46.2493V44.3808Z" fill="#565656"/>
<path d="M41.9176 42.3798C41.9176 41.4911 41.2557 40.7708 40.4393 40.7708C39.6228 40.7708 38.9609 41.4911 38.9609 42.3798V44.2483C38.9609 45.137 39.6228 45.8574 40.4393 45.8574C41.2557 45.8574 41.9176 45.137 41.9176 44.2483V42.3798Z" fill="#565656"/>
<path d="M62.2611 48.7347C62.2611 47.9902 62.8156 47.3866 63.4997 47.3866C64.1837 47.3866 64.7383 47.9902 64.7383 48.7347V50.3002C64.7383 51.0448 64.1837 51.6483 63.4997 51.6483C62.8156 51.6483 62.2611 51.0448 62.2611 50.3002V48.7347Z" fill="#565656"/>
<path d="M59.9427 49.9626C59.9427 49.2181 60.4973 48.6145 61.1813 48.6145C61.8654 48.6145 62.4199 49.2181 62.4199 49.9626V51.5281C62.4199 52.2727 61.8654 52.8763 61.1813 52.8763C60.4973 52.8763 59.9427 52.2727 59.9427 51.5281V49.9626Z" fill="#565656"/>
<path d="M57.6537 50.6411C57.6537 49.8965 58.2082 49.293 58.8923 49.293C59.5763 49.293 60.1309 49.8965 60.1309 50.6411V52.2066C60.1309 52.9512 59.5763 53.5547 58.8923 53.5547C58.2082 53.5547 57.6537 52.9512 57.6537 52.2066V50.6411Z" fill="#565656"/>
<path d="M55.3939 50.7941C55.3939 50.0496 55.9485 49.446 56.6325 49.446C57.3166 49.446 57.8711 50.0496 57.8711 50.7941V52.3597C57.8711 53.1042 57.3166 53.7078 56.6325 53.7078C55.9485 53.7078 55.3939 53.1042 55.3939 52.3597V50.7941Z" fill="#565656"/>
<path d="M64.3441 46.0318C64.3441 45.1431 65.006 44.4227 65.8225 44.4227C66.6389 44.4227 67.3008 45.1431 67.3008 46.0318V47.9003C67.3008 48.789 66.6389 49.5093 65.8225 49.5093C65.006 49.5093 64.3441 48.789 64.3441 47.9003V46.0318Z" fill="#565656"/>
<path d="M66.9027 44.3814C66.9027 43.4927 67.5646 42.7723 68.3811 42.7723C69.1975 42.7723 69.8594 43.4927 69.8594 44.3814V46.2499C69.8594 47.1386 69.1975 47.859 68.3811 47.859C67.5646 47.859 66.9027 47.1386 66.9027 46.2499V44.3814Z" fill="#565656"/>
<path d="M69.059 42.3798C69.059 41.4911 69.7209 40.7708 70.5373 40.7708C71.3538 40.7708 72.0156 41.4911 72.0156 42.3798V44.2483C72.0156 45.137 71.3538 45.8574 70.5373 45.8574C69.7209 45.8574 69.059 45.137 69.059 44.2483V42.3798Z" fill="#565656"/>
<path d="M49.8947 32.8693C47.0044 32.8693 44.6777 35.4017 44.6777 38.5475V45.1899C44.6777 48.3357 47.0044 50.8681 49.8947 50.8681H61.0885C63.9788 50.8681 66.3055 48.3357 66.3055 45.1899V38.5475C66.3055 35.4017 63.9788 32.8693 61.0885 32.8693H59.9934C60.0319 33.2153 59.9152 33.5745 59.6518 33.8181L59.2091 34.2272C59.4717 34.4952 59.6668 34.8407 59.7517 35.2365H61.27C62.8861 35.2365 64.1867 36.6521 64.1867 38.4111V41.2672C64.1867 41.9346 63.9991 42.5519 63.6784 43.062V43.8455C63.6784 46.3566 61.8212 48.378 59.5141 48.378H51.4691C49.162 48.378 47.3048 46.3566 47.3048 43.8455V43.062C46.9841 42.5519 46.7965 41.9346 46.7965 41.2672V38.4111C46.7965 36.6521 48.0971 35.2365 49.7132 35.2365H50.6683C50.7825 34.7039 51.091 34.2573 51.5058 33.9796L51.3314 33.8181C51.068 33.5745 50.9513 33.2153 50.9898 32.8693H49.8947Z" fill="#565656"/>
<path d="M47.4521 1.97583C40.6383 1.97583 35.1523 7.79901 35.1523 15.0324C35.1523 15.3721 35.1686 15.7074 35.1923 16.0404C35.1687 16.2108 35.1523 16.3839 35.1523 16.5615V24.56C35.1523 26.2764 36.2957 27.6985 37.821 28.0201V17.5823C37.821 10.1105 43.4878 4.09478 50.5262 4.09478H60.4663C67.5047 4.09478 73.1715 10.1105 73.1715 17.5823V28.0343C74.7403 27.7495 75.9286 26.309 75.9286 24.56V16.5615C75.9286 16.3839 75.9122 16.2108 75.8886 16.0404C75.9124 15.7074 75.9286 15.3721 75.9286 15.0324C75.9286 7.79901 70.4432 1.97583 63.6294 1.97583H47.4521Z" fill="#4D4D4D"/>
<path d="M61.4078 0.32959H50.3274C46.5945 0.32959 43.5684 3.54207 43.5684 7.50487C43.5684 11.4677 46.5945 14.6802 50.3274 14.6802H61.4078C65.1407 14.6802 68.1669 11.4677 68.1669 7.50487C68.1669 3.54207 65.1407 0.32959 61.4078 0.32959Z" fill="#4D4D4D"/>
<path d="M47.3364 4.88796C47.3364 3.76733 46.4807 2.85889 45.425 2.85889C44.3694 2.85889 43.5137 3.76733 43.5137 4.88796V9.59307C43.5137 10.7137 44.3694 11.6221 45.425 11.6221C46.4807 11.6221 47.3364 10.7137 47.3364 9.59307V4.88796Z" fill="#4D4D4D"/>
<path d="M69.0532 5.06472C69.0532 3.94409 68.1975 3.03564 67.1418 3.03564C66.0862 3.03564 65.2305 3.94409 65.2305 5.06472V9.76982C65.2305 10.8905 66.0862 11.7989 67.1418 11.7989C68.1975 11.7989 69.0532 10.8905 69.0532 9.76982V5.06472Z" fill="#4D4D4D"/>
<path d="M42.7858 7.20695C42.6858 6.46746 42.0399 5.9541 41.3433 6.06033C40.6467 6.16657 40.1632 6.85216 40.2632 7.59166L40.5862 9.97852C40.6863 10.718 41.3321 11.2314 42.0287 11.1251C42.7253 11.0189 43.2089 10.3333 43.1088 9.59381L42.7858 7.20695Z" fill="#4D4D4D"/>
<path d="M69.8099 7.78886C69.91 7.04937 70.5558 6.53601 71.2524 6.64224C71.949 6.74848 72.4325 7.43407 72.3325 8.17357L72.0095 10.5604C71.9094 11.2999 71.2636 11.8133 70.567 11.707C69.8704 11.6008 69.3868 10.9152 69.4869 10.1757L69.8099 7.78886Z" fill="#4D4D4D"/>
<path d="M54.5385 3.89319H55.7316C56.4354 3.89319 57.0059 4.49882 57.0059 5.24591V10.1863C57.0059 10.9334 56.4354 11.539 55.7316 11.539H54.5385C53.8348 11.539 53.2643 10.9334 53.2643 10.1863V5.24591C53.2643 4.49882 53.8348 3.89319 54.5385 3.89319Z" fill="#565656"/>
<path d="M49.3906 4.03943H50.9657C51.5164 4.03943 51.9629 4.5134 51.9629 5.09808V10.3325C51.9629 10.9172 51.5164 11.3912 50.9657 11.3912H49.3906C48.8398 11.3912 48.3933 10.9172 48.3933 10.3325V5.09808C48.3933 4.5134 48.8398 4.03943 49.3906 4.03943Z" fill="#565656"/>
<path d="M60.879 4.03943H59.3039C58.7531 4.03943 58.3066 4.5134 58.3066 5.09808V10.3325C58.3066 10.9172 58.7531 11.3912 59.3039 11.3912H60.879C61.4297 11.3912 61.8762 10.9172 61.8762 10.3325V5.09808C61.8762 4.5134 61.4297 4.03943 60.879 4.03943Z" fill="#565656"/>
<path d="M303.602 76.607C304.03 74.6831 304.408 74.6537 305.604 74.5636C306.199 74.5188 306.784 74.5318 307.319 74.6407C307.854 74.7496 308.485 74.8145 309.011 74.4203C310.76 73.1072 311.431 69.2238 310.744 73.3419C310.486 74.6089 310.49 75.8387 310.755 76.9711L313.751 89.7711L315.962 111.256C316.143 113.013 314.566 115.005 312.43 115.717L311.03 116.158C309.532 116.631 308.027 116.873 306.589 116.873L304.853 116.873C304.664 116.873 304.467 116.902 304.27 116.96C302.85 117.378 301.956 116.279 302.738 115.078L304.545 112.303C305.139 111.391 305.271 110.405 304.902 109.644L301.729 103.102C301.151 101.911 300.765 100.619 300.577 99.2517L299.648 92.4777L299.648 86.0439C299.648 84.3082 300.356 82.4447 301.653 80.7661C302.668 79.4518 303.288 78.0202 303.602 76.607Z" fill="#E0B18D"/>
<path d="M287.786 174.145H289.335C293.123 174.145 296.194 177.362 296.194 181.331L296.194 200.302L296.194 213.826L297.566 227.686C297.566 230.715 294.762 233.17 291.302 233.17H289.842C286.382 233.17 283.578 230.715 283.578 227.686V207.072C283.578 205.743 283.252 204.436 282.632 203.276C282.011 202.116 281.686 200.809 281.686 199.48V196.645C281.686 195.123 281.864 193.606 282.216 192.129L282.229 192.076C282.589 190.564 282.772 189.012 282.772 187.452V179.399C282.772 179.093 282.798 178.789 282.848 178.488C283.27 175.976 285.353 174.145 287.786 174.145Z" fill="#E0B18D"/>
<path d="M289.857 123.605H293.809C296.033 123.605 298.028 125.037 298.833 127.209C298.988 127.627 299.094 128.065 299.151 128.51L302.07 151.593V161.61C302.07 162.909 301.967 164.208 301.762 165.489L301.091 169.669C300.706 172.07 299.918 174.378 298.763 176.489L296.803 180.069C296.383 180.837 296.162 181.706 296.162 182.592C296.162 185.392 293.995 187.662 291.323 187.662H287.98C285.117 187.662 282.795 185.229 282.795 182.229C282.795 181.575 282.683 180.928 282.463 180.316L281.76 178.358C281.457 177.514 281.219 176.646 281.048 175.763L279.98 170.246L278.952 163.215C278.782 162.043 278.695 160.859 278.695 159.674V135.301C278.695 128.842 283.693 123.605 289.857 123.605Z" fill="#E0B18D"/>
<path d="M288.229 221.843H294.112C297.503 221.843 300.253 224.378 300.253 227.506C300.253 230.634 297.503 233.17 294.112 233.17H288.229C284.838 233.17 282.088 230.634 282.088 227.506C282.088 224.378 284.838 221.843 288.229 221.843Z" fill="#E0B18D"/>
<path d="M284.122 224.174H298.22C299.342 224.174 300.253 225.392 300.253 226.894V230.45C300.253 231.952 299.342 233.17 298.22 233.17H284.122C282.999 233.17 282.088 231.952 282.088 230.45V226.894C282.088 225.392 282.999 224.174 284.122 224.174Z" fill="#E0B18D"/>
<path d="M265.762 174.144H264.214C260.426 174.144 257.354 177.362 257.354 181.331V200.303V213.825L255.982 227.686C255.982 230.715 258.787 233.17 262.246 233.17H263.707C267.166 233.17 269.971 230.715 269.971 227.686V207.071C269.971 205.742 270.297 204.435 270.917 203.276C271.538 202.116 271.863 200.809 271.863 199.48V196.644C271.863 195.122 271.685 193.606 271.333 192.129L271.32 192.076C270.959 190.564 270.777 189.011 270.777 187.452V179.398C270.777 179.092 270.751 178.788 270.701 178.488C270.279 175.976 268.196 174.144 265.762 174.144Z" fill="#E0B18D"/>
<path d="M264.667 123.605H258.522C256.29 123.605 254.481 125.501 254.481 127.839L251.477 151.592V161.609C251.477 162.909 251.579 164.207 251.785 165.489L252.455 169.669C252.841 172.069 253.629 174.378 254.784 176.489L256.744 180.068C257.164 180.837 257.385 181.706 257.385 182.591C257.385 185.391 259.552 187.662 262.224 187.662H265.567C268.43 187.662 270.752 185.229 270.752 182.229C270.752 181.575 270.864 180.927 271.083 180.315L271.787 178.358C272.09 177.514 272.328 176.645 272.499 175.762L273.567 170.246L274.595 163.214C274.765 162.042 274.852 160.858 274.852 159.673V134.277C274.852 128.383 270.291 123.605 264.667 123.605Z" fill="#E0B18D"/>
<path d="M265.318 221.842H259.436C256.045 221.842 253.295 224.377 253.295 227.505C253.295 230.633 256.045 233.169 259.436 233.169H265.318C268.71 233.169 271.46 230.633 271.46 227.505C271.46 224.377 268.71 221.842 265.318 221.842Z" fill="#E0B18D"/>
<path d="M269.426 224.173H255.329C254.205 224.173 253.295 225.391 253.295 226.893V230.449C253.295 231.951 254.205 233.169 255.329 233.169H269.426C270.549 233.169 271.46 231.951 271.46 230.449V226.893C271.46 225.391 270.549 224.173 269.426 224.173Z" fill="#E0B18D"/>
<path d="M276.232 59.1731C277.133 59.1731 278.03 59.228 278.919 59.3349C289.644 60.6241 299.203 69.4524 299.203 80.2193L297.519 91.7469L294.234 111.592C294.234 123.252 287.994 124.972 276.232 124.972C264.471 124.972 258.965 123.252 258.965 111.592L255.002 91.7469V80.2193C255.002 68.5595 264.471 59.1731 276.232 59.1731Z" fill="#E0B18D"/>
<path d="M276.202 106.374H276.927C288.928 106.374 292.823 99.8696 294.793 108.685L298.59 126.376C300.558 135.184 288.928 142.494 276.927 142.494H276.202C264.201 142.494 252.571 135.184 254.539 126.376L258.735 108.685C260.705 99.8696 264.201 106.374 276.202 106.374Z" fill="#E0B18D"/>
<path d="M276.176 98.3943C284.826 98.3943 291.79 108.205 291.79 120.39H260.562C260.562 108.205 267.526 98.3943 276.176 98.3943Z" fill="#E0B18D"/>
<path d="M249.149 71.2346C245.483 70.4917 241.071 72.0488 240.263 76.424L237.756 84.3246C236.983 86.7575 236.702 89.3328 236.927 91.886L237.603 99.5453C237.756 101.292 237.569 103.054 237.592 104.808C237.632 107.882 238.97 110.136 241.861 110.721C245.019 111.362 247.116 109.714 248.153 106.449C248.505 105.341 248.779 104.203 249.192 103.118L251.068 98.1931C252.1 95.4841 252.507 92.5577 252.258 89.652L251.871 85.1469C251.77 83.9743 251.782 82.7964 251.832 81.6208C251.97 78.3886 251.907 71.7935 249.149 71.2346Z" fill="#E0B18D"/>
<path d="M243.409 96.2402L243.362 96.2387C240.357 96.1414 237.752 99.6364 237.542 104.044L235.969 137.146C235.759 141.554 238.024 145.207 241.029 145.304L241.076 145.305C244.08 145.403 246.686 141.908 246.895 137.499L248.469 104.398C248.679 99.9889 246.414 96.3366 243.409 96.2402Z" fill="#E0B18D"/>
<path d="M243.343 130.345L241.455 130.334C237.836 130.314 234.732 134.429 234.521 139.524L234.334 144.052C234.123 149.148 236.885 153.295 240.504 153.315L242.392 153.326C246.011 153.346 249.114 149.232 249.326 144.136L249.513 139.608C249.724 134.512 246.961 130.365 243.343 130.345Z" fill="#E0B18D"/>
<path d="M243.809 143.222C243.022 139.981 240.246 138.34 237.609 139.556C234.973 140.773 233.473 144.387 234.26 147.627L236.411 156.478C237.198 159.719 239.974 161.36 242.61 160.143C245.247 158.927 246.746 155.314 245.959 152.073L243.809 143.222Z" fill="#E0B18D"/>
<path d="M249.981 141.492C250.07 139.232 248.861 137.393 247.281 137.383C245.701 137.372 244.349 139.196 244.259 141.455L244.016 147.625C243.927 149.884 245.136 151.724 246.717 151.735C248.296 151.744 249.649 149.921 249.738 147.662L249.981 141.492Z" fill="#CC9B75"/>
<path d="M249.008 65.6666H303.743C309.167 65.6666 313.534 69.9305 313.534 75.2275C313.534 80.5245 309.167 84.7883 303.743 84.7883H249.008C243.584 84.7883 239.217 80.5245 239.217 75.2275C239.217 69.9305 243.584 65.6666 249.008 65.6666Z" fill="#E0B18D"/>
<path d="M267.792 64.5325H284.86C294.397 64.5325 302.074 71.8742 302.074 80.9942C302.074 90.1134 294.397 97.4551 284.86 97.4551H267.792C258.256 97.4551 250.578 90.1134 250.578 80.9942C250.578 71.8742 258.256 64.5325 267.792 64.5325Z" fill="#E0B18D"/>
<path d="M276.777 84.7882C278.997 84.7882 280.785 86.6622 280.785 88.989V92.8847C280.785 95.2122 278.997 97.0855 276.777 97.0855C274.555 97.0855 272.768 95.2122 272.768 92.8847V88.989C272.768 86.6622 274.555 84.7882 276.777 84.7882Z" fill="#815848" fill-opacity="0.99"/>
<path d="M266.654 80.3805C265.593 80.3805 264.61 80.6685 263.791 81.162C261.069 81.3223 258.516 82.3985 256.652 84.1716C254.788 85.9447 253.75 88.2826 253.75 90.7117C253.75 93.25 254.883 95.6851 256.899 97.4797C258.915 99.2751 261.65 100.283 264.502 100.283C267.099 100.281 269.608 99.4406 271.564 97.9191C273.52 96.3976 274.791 94.2972 275.142 92.0054C275.215 91.6914 275.254 91.3656 275.254 91.0316V85.083C275.254 82.4779 272.943 80.3805 270.074 80.3805H266.654ZM282.579 80.3805C279.71 80.3805 277.399 82.4779 277.399 85.083V91.0316C277.399 91.3656 277.438 91.6914 277.51 92.0054C277.862 94.2972 279.133 96.3976 281.089 97.9191C283.045 99.4406 285.554 100.281 288.151 100.283C291.003 100.283 293.737 99.2751 295.754 97.4797C297.77 95.6851 298.903 93.25 298.903 90.7117C298.902 88.2826 297.865 85.9447 296 84.1716C294.136 82.3985 291.584 81.3223 288.862 81.162C288.043 80.6685 287.06 80.3805 285.998 80.3805H282.579Z" fill="#9D6B5A"/>
<path d="M256.711 85.5447C255.483 85.0771 254.15 87.8677 253.003 88.3271C252.901 88.9216 252.847 89.5235 252.842 90.1269C252.843 96.2945 257.848 101.294 264.024 101.294C267.146 101.286 270.123 99.975 272.234 97.6765C272.123 92.0826 267.321 89.5784 262.15 87.6124L256.711 85.5447ZM290.185 87.6124C285.119 89.5391 280.389 91.903 280.109 97.3373C282.227 99.8392 285.337 101.286 288.618 101.294C294.793 101.294 299.799 96.2945 299.799 90.1269C299.794 89.5703 299.748 89.0151 299.66 88.4652C298.425 87.9174 296.969 85.0318 295.622 85.5447L290.185 87.6124Z" fill="#444444"/>
<path d="M271.943 95.3912H281.162C281.724 95.3912 282.177 95.8514 282.177 96.4244C282.177 96.9966 281.724 97.4567 281.162 97.4567H271.943C271.38 97.4567 270.928 96.9966 270.928 96.4244C270.928 95.8514 271.38 95.3912 271.943 95.3912Z" fill="#444444"/>
<path d="M295.678 85.4859C295.593 85.4926 295.51 85.5111 295.426 85.543L290.044 87.5885C285.796 89.2035 281.788 91.1295 280.493 94.9495C282.57 97.1345 285.458 98.3866 288.494 98.394C294.12 98.394 298.762 94.2029 299.466 88.7782C299.451 88.6632 299.442 88.5467 299.423 88.4324C298.277 87.924 296.939 85.3842 295.678 85.4859ZM256.684 85.4933C255.533 85.4176 254.306 87.869 253.241 88.2958C253.216 88.4457 253.194 88.5956 253.174 88.7463C253.863 94.1865 258.513 98.394 264.15 98.394C267.064 98.3866 269.85 97.2325 271.91 95.1952C270.692 91.2601 266.625 89.2339 262.295 87.5885L256.912 85.543C256.837 85.5141 256.76 85.4985 256.684 85.4933Z" fill="#4F4F4F"/>
<path d="M272.901 102.037H270.231C269.012 102.037 268.023 102.799 268.023 103.738V105.71C268.023 106.65 269.012 107.412 270.231 107.412H272.901C274.12 107.412 275.109 106.65 275.109 105.71V103.738C275.109 102.799 274.12 102.037 272.901 102.037Z" fill="#CC9B75"/>
<path d="M272.901 107.991H268.835C267.615 107.991 266.627 108.753 266.627 109.694V111.664C266.627 112.605 267.615 113.367 268.835 113.367H272.901C274.121 113.367 275.109 112.605 275.109 111.664V109.694C275.109 108.753 274.121 107.991 272.901 107.991Z" fill="#CC9B75"/>
<path d="M272.901 113.821H268.835C267.615 113.821 266.627 114.583 266.627 115.523V117.494C266.627 118.435 267.615 119.197 268.835 119.197H272.901C274.121 119.197 275.109 118.435 275.109 117.494V115.523C275.109 114.583 274.121 113.821 272.901 113.821Z" fill="#CC9B75"/>
<path d="M279.434 102.037H282.104C283.323 102.037 284.312 102.799 284.312 103.738V105.71C284.312 106.65 283.323 107.412 282.104 107.412H279.434C278.215 107.412 277.227 106.65 277.227 105.71V103.738C277.227 102.799 278.215 102.037 279.434 102.037Z" fill="#CC9B75"/>
<path d="M279.434 107.991H283.502C284.721 107.991 285.71 108.753 285.71 109.694V111.664C285.71 112.605 284.721 113.367 283.502 113.367H279.434C278.215 113.367 277.227 112.605 277.227 111.664V109.694C277.227 108.753 278.215 107.991 279.434 107.991Z" fill="#CC9B75"/>
<path d="M279.434 113.821H283.502C284.721 113.821 285.71 114.583 285.71 115.523V117.494C285.71 118.435 284.721 119.197 283.502 119.197H279.434C278.215 119.197 277.227 118.435 277.227 117.494V115.523C277.227 114.583 278.215 113.821 279.434 113.821Z" fill="#CC9B75"/>
<path d="M255.838 120.85C256.983 137.721 265.775 150.78 276.323 150.78C287.009 150.78 296.428 138.039 297.39 120.85H255.838Z" fill="#4F4F4F"/>
<path d="M297.41 120.847L277.046 124.156L276.875 150.709L278.786 162.346H302.122C302.265 140.819 302.027 133.547 297.41 120.847Z" fill="#4B4B4B"/>
<path d="M255.849 120.823L276.695 124.144V150.707L274.75 162.344H251.468C251.32 140.745 251.098 133.565 255.849 120.823Z" fill="#4B4B4B"/>
<path d="M287.443 79.8327H266.673C261.415 79.8327 249.945 72.4405 249.945 79.8327L251.699 86.5027C251.699 96.1185 252.966 101.283 261.561 101.283H290.993C298.638 101.283 300.514 97.3757 300.514 87.8988L303.797 80.2127C303.797 72.8205 292.701 79.8327 287.443 79.8327Z" fill="#478563"/>
<path d="M249.06 65.6539C242.722 65.6539 239.18 70.9917 239.18 75.0671C239.18 81.9316 242.11 84.7586 250.755 84.7586H301.615C310.48 84.7586 313.727 82.8393 313.727 75.0753C313.727 70.9992 309.944 65.6539 303.706 65.6539H293.445C293.222 70.1568 289.307 73.7349 281.667 73.7349H272.362C263.403 73.7349 259.523 70.1568 259.301 65.6539H249.06Z" fill="#478563"/>
<path d="M293.018 65.6541C292.873 65.6519 292.732 65.6883 292.627 65.7558C292.521 65.8234 292.459 65.9169 292.455 66.0156C292.194 70.1102 287.271 73.3454 281.173 73.3454H271.649C265.552 73.3454 260.629 70.1102 260.368 66.0156C260.364 65.9666 260.347 65.9184 260.317 65.8738C260.287 65.8301 260.244 65.79 260.191 65.7566C260.138 65.7239 260.076 65.6987 260.009 65.6816C259.941 65.6645 259.869 65.6571 259.797 65.6593C259.725 65.6616 259.654 65.6734 259.589 65.6942C259.524 65.715 259.465 65.744 259.417 65.7803C259.369 65.816 259.331 65.8583 259.306 65.9043C259.282 65.9503 259.271 65.9985 259.274 66.0475C259.56 70.5303 264.98 74.0891 271.649 74.0891H281.173C287.843 74.0891 293.263 70.5303 293.549 66.0475C293.553 65.9978 293.543 65.9481 293.518 65.9013C293.494 65.8545 293.456 65.8115 293.406 65.7751C293.356 65.738 293.296 65.7091 293.23 65.6883C293.163 65.6675 293.091 65.6556 293.018 65.6541Z" fill="#7AB896"/>
<path d="M255.838 120.85C256.983 137.721 265.775 150.78 276.323 150.78C287.009 150.78 296.428 138.039 297.39 120.85H255.838Z" fill="#4F4F4F"/>
<path d="M297.41 120.847L277.046 124.156L276.875 150.709L278.786 162.346H302.122C302.265 140.819 302.027 133.547 297.41 120.847Z" fill="#4B4B4B"/>
<path d="M255.849 120.823L276.695 124.144V150.707L274.75 162.344H251.468C251.32 140.745 251.098 133.565 255.849 120.823Z" fill="#4B4B4B"/>
<path d="M269.409 209.817H256.97C256.309 209.817 255.773 210.495 255.773 211.333V224.623C255.773 225.461 256.309 226.139 256.97 226.139H269.409C270.07 226.139 270.607 225.461 270.607 224.623V211.333C270.607 210.495 270.07 209.817 269.409 209.817Z" fill="white"/>
<path d="M264.385 214.497H260.446C259.511 214.497 258.752 215.458 258.752 216.644V218.57C258.752 219.756 259.511 220.717 260.446 220.717H264.385C265.321 220.717 266.079 219.756 266.079 218.57V216.644C266.079 215.458 265.321 214.497 264.385 214.497Z" fill="#4B4B4B"/>
<path d="M265.458 217.804H259.651C256.303 217.804 253.588 221.243 253.588 225.486C253.588 229.728 256.303 233.167 259.651 233.167H265.458C268.806 233.167 271.521 229.728 271.521 225.486C271.521 221.243 268.806 217.804 265.458 217.804Z" fill="#4F4F4F"/>
<path d="M269.862 224.782H255.383C254.23 224.782 253.295 225.922 253.295 227.326V230.652C253.295 232.058 254.23 233.197 255.383 233.197H269.862C271.016 233.197 271.951 232.058 271.951 230.652V227.326C271.951 225.922 271.016 224.782 269.862 224.782Z" fill="#4F4F4F"/>
<path d="M270.766 229.979H254.344C253.926 229.979 253.588 230.407 253.588 230.935V232.187C253.588 232.715 253.926 233.144 254.344 233.144H270.766C271.183 233.144 271.521 232.715 271.521 232.187V230.935C271.521 230.407 271.183 229.979 270.766 229.979Z" fill="white"/>
<path d="M264.799 218.19H260.194C259.954 218.19 259.76 218.437 259.76 218.741C259.76 219.044 259.954 219.291 260.194 219.291H264.799C265.038 219.291 265.233 219.044 265.233 218.741C265.233 218.437 265.038 218.19 264.799 218.19Z" fill="white"/>
<path d="M266.362 221.733H264.149C263.37 221.733 262.736 222.534 262.736 223.524C262.736 224.512 263.37 225.314 264.149 225.314H266.362C267.142 225.314 267.774 224.512 267.774 223.524C267.774 222.534 267.142 221.733 266.362 221.733Z" fill="#585858"/>
<path d="M264.799 219.951H260.194C259.954 219.951 259.76 220.198 259.76 220.501C259.76 220.805 259.954 221.051 260.194 221.051H264.799C265.038 221.051 265.233 220.805 265.233 220.501C265.233 220.198 265.038 219.951 264.799 219.951Z" fill="white"/>
<path d="M296.502 209.816H283.35C282.651 209.816 282.084 210.495 282.084 211.333V224.622C282.084 225.46 282.651 226.139 283.35 226.139H296.502C297.201 226.139 297.767 225.46 297.767 224.622V211.333C297.767 210.495 297.201 209.816 296.502 209.816Z" fill="white"/>
<path d="M292.785 214.519H288.895C287.972 214.519 287.223 215.481 287.223 216.665V218.592C287.223 219.777 287.972 220.738 288.895 220.738H292.785C293.708 220.738 294.457 219.777 294.457 218.592V216.665C294.457 215.481 293.708 214.519 292.785 214.519Z" fill="#4B4B4B"/>
<path d="M293.803 217.804H288.071C284.764 217.804 282.084 221.243 282.084 225.486C282.084 229.728 284.764 233.167 288.071 233.167H293.803C297.109 233.167 300.031 229.789 300.031 225.547C300.031 221.304 297.109 217.804 293.803 217.804Z" fill="#4F4F4F"/>
<path d="M298.191 224.782H283.896C282.758 224.782 281.834 225.922 281.834 227.326V230.652C281.834 232.058 282.758 233.197 283.896 233.197H298.191C299.329 233.197 300.252 232.058 300.252 230.652V227.326C300.252 225.922 299.329 224.782 298.191 224.782Z" fill="#4F4F4F"/>
<path d="M299.044 229.979H282.83C282.418 229.979 282.084 230.407 282.084 230.935V232.187C282.084 232.715 282.418 233.144 282.83 233.144H299.044C299.455 233.144 299.789 232.715 299.789 232.187V230.935C299.789 230.407 299.455 229.979 299.044 229.979Z" fill="white"/>
<path d="M293.858 218.19H289.312C289.075 218.19 288.883 218.437 288.883 218.741C288.883 219.044 289.075 219.291 289.312 219.291H293.858C294.095 219.291 294.287 219.044 294.287 218.741C294.287 218.437 294.095 218.19 293.858 218.19Z" fill="white"/>
<path d="M295.403 221.755H293.219C292.449 221.755 291.824 222.556 291.824 223.545C291.824 224.534 292.449 225.335 293.219 225.335H295.403C296.173 225.335 296.798 224.534 296.798 223.545C296.798 222.556 296.173 221.755 295.403 221.755Z" fill="#585858"/>
<path d="M293.858 219.972H289.312C289.075 219.972 288.883 220.219 288.883 220.522C288.883 220.827 289.075 221.073 289.312 221.073H293.858C294.095 221.073 294.287 220.827 294.287 220.522C294.287 220.219 294.095 219.972 293.858 219.972Z" fill="white"/>
<rect width="3.59309" height="27.1997" transform="matrix(-1 0 0 1 284.316 84.2711)" fill="#D9D9D9"/>
<path d="M285.99 80.8853L279.138 80.8853V81.1871L280.714 88.3299H284.295L285.99 81.1833V80.8853Z" fill="#D9D9D9"/>
<rect width="0.893266" height="7.63908" transform="matrix(-1 0 0 1 285.99 73.5543)" fill="#D9D9D9"/>
<rect width="0.893266" height="7.63908" transform="matrix(-1 0 0 1 282.967 73.5543)" fill="#D9D9D9"/>
<rect width="0.893266" height="7.63908" transform="matrix(-1 0 0 1 280.031 73.5543)" fill="#D9D9D9"/>
<path d="M286.063 100.566L286.094 100.53C288.026 98.2768 291.595 97.968 294.064 99.8408L303.195 106.135L312.602 113.903C315.071 115.776 315.506 119.121 313.573 121.375L313.543 121.41C311.61 123.664 307.126 125.562 304.657 123.69L286.118 109.627C283.649 107.755 284.131 102.819 286.063 100.566Z" fill="#E0B18D"/>
<path d="M305.971 121.146C306.222 123.047 308.994 123.888 312.163 123.024C315.332 122.16 317.697 119.919 317.445 118.018L316.759 112.827C316.571 111.411 315.871 110.261 314.217 110.123C312.885 110.012 311.529 110.742 310.281 111.479L307.998 112.827C306.143 114.145 305.143 116.356 305.492 118.372L305.971 121.146Z" fill="#E0B18D"/>
<path d="M284.96 96.3566C285.893 97.789 287.51 98.287 288.572 97.469C289.633 96.6509 289.738 94.8266 288.805 93.3942L286.257 89.4819C285.325 88.0495 283.708 87.5515 282.646 88.3695C281.584 89.1876 281.48 91.0119 282.412 92.4443L284.96 96.3566Z" fill="#E0B18D"/>
<path d="M278.416 107.269C278.799 110.168 281.855 111.769 285.241 110.846C288.628 109.923 291.062 106.825 290.679 103.927L289.632 96.0101C289.276 93.3159 281.777 94.2499 278.002 95.1362C277.493 95.2558 277.032 95.5785 276.708 96.0145C275.867 97.1476 275.593 98.5408 275.978 99.7306L278.416 107.269Z" fill="#E0B18D"/>
<path d="M78.8633 86.5387C78.8633 72.87 66.2809 72.4868 53.8004 72.4868C41.3207 72.4868 30.209 72.87 30.209 86.5387L31.3912 115.963H76.6196L78.8633 86.5387Z" fill="#478563"/>
<path d="M86.6696 72.3735C86.6696 58.6579 69.6248 72.3735 51.4726 72.3735C33.3197 72.3735 20.9316 58.6579 20.9316 72.3735C20.9316 86.0899 35.6473 97.209 53.801 97.209C71.9531 97.209 86.6696 86.0899 86.6696 72.3735Z" fill="#478563"/>
<path d="M74.6729 70.2209L36.0317 71.7329C27.2638 71.7329 20.9316 60.4379 20.9316 67.9588V76.1653C20.9316 83.6847 28.0397 89.7816 36.8076 89.7816H70.7929C79.5616 89.7816 86.6696 83.6847 86.6696 76.1653V67.9588C86.6696 60.4379 83.4416 70.2209 74.6729 70.2209Z" fill="#478563"/>
<path d="M73.1469 73.3973H33.8834C26.7303 73.3973 20.9316 59.6052 20.9316 67.3395V75.7788C20.9316 83.5114 26.7303 89.7815 33.8834 89.7815H73.9252C81.0783 89.7815 86.877 83.5114 86.877 75.7788V67.3395C86.877 59.6052 80.3 73.3973 73.1469 73.3973Z" fill="#478563"/>
<path d="M22.4482 54.344C15.6974 54.344 10.2617 59.7227 10.2617 66.4034C10.2617 73.0842 15.6974 78.4637 22.4482 78.4637H84.6189C91.3698 78.4637 96.8047 73.0842 96.8047 66.4034C96.8047 59.7227 91.3698 54.344 84.6189 54.344H77.037C76.7755 61.7247 66.3672 67.5894 58.8436 67.5894H47.6788C40.1553 67.5894 30.9656 61.7247 30.7049 54.344H22.4482Z" fill="#478563"/>
<path d="M76.8682 53.708C76.6697 53.7026 76.4775 53.7648 76.3336 53.8793C76.1888 53.9938 76.1048 54.1516 76.0986 54.3176C75.7414 61.241 69.0139 66.7115 60.6802 66.7115H47.6641C39.3297 66.7115 32.6022 61.241 32.245 54.3176C32.2403 54.2357 32.217 54.1538 32.1765 54.0788C32.1345 54.0052 32.0761 53.937 32.003 53.8809C31.9306 53.8255 31.8458 53.7823 31.7539 53.7542C31.6613 53.7254 31.5633 53.7125 31.4645 53.7163C31.3672 53.7201 31.2707 53.7398 31.1812 53.7747C31.0917 53.8103 31.0115 53.8589 30.9454 53.9203C30.88 53.9809 30.8279 54.0522 30.7944 54.1303C30.761 54.2077 30.7462 54.2896 30.7508 54.3722C31.1407 61.9516 38.5491 67.9688 47.6641 67.9688H60.6802C69.7952 67.9688 77.2028 61.9516 77.5935 54.3722C77.5997 54.2881 77.5849 54.2047 77.5514 54.1258C77.518 54.0462 77.4658 53.9726 77.3981 53.9112C77.3304 53.849 77.2487 53.7997 77.1569 53.7648C77.0658 53.7292 76.9678 53.7102 76.8682 53.708Z" fill="#7AB896"/>
<path d="M276.885 36.8762C282.928 36.8762 287.794 44.1979 287.794 53.2934V60.0287C287.794 69.1243 282.928 76.4467 276.885 76.4467C270.842 76.4467 265.977 69.1243 265.977 60.0287V53.2934C265.977 44.1979 270.842 36.8762 276.885 36.8762Z" fill="#E0B18D"/>
<path d="M275.242 38.106H278.528C282.312 38.106 285.358 42.3646 285.358 47.6549V51.5722C285.358 56.8625 282.312 61.1212 278.528 61.1212H275.242C271.458 61.1212 268.412 56.8625 268.412 51.5722V47.6549C268.412 42.3646 271.458 38.106 275.242 38.106Z" fill="#CC9B75"/>
<path d="M264.842 65.5906C264.145 65.5906 263.584 66.1517 263.584 66.8486C263.584 67.5455 264.145 68.1058 264.842 68.1058H271.836L273.844 69.5694C274.409 69.9814 275.195 69.8582 275.607 69.2933C276.019 68.7285 275.895 67.9426 275.331 67.5307L273.252 66.0151C273.23 65.9995 273.206 65.9906 273.184 65.9765C272.956 65.739 272.636 65.5906 272.279 65.5906H264.842ZM281.2 65.5906C280.843 65.5906 280.523 65.739 280.295 65.9765C280.273 65.9906 280.249 65.9995 280.228 66.0151L278.149 67.5307C277.584 67.9426 277.461 68.7285 277.873 69.2933C278.284 69.8582 279.07 69.9814 279.635 69.5694L281.643 68.1058H288.637C289.334 68.1058 289.895 67.5455 289.895 66.8486C289.895 66.1517 289.334 65.5906 288.637 65.5906H281.2Z" fill="#CC9B75"/>
<path d="M260.173 29.1576H294.277C298.189 29.1576 301.337 32.3067 301.337 36.218C301.337 40.1293 298.189 43.2777 294.277 43.2777H260.173C256.262 43.2777 253.113 40.1293 253.113 36.218C253.113 32.3067 256.262 29.1576 260.173 29.1576Z" fill="#E0B18D"/>
<path d="M260.421 30.9531H294.028C296.945 30.9531 299.293 33.3014 299.293 36.2182C299.293 39.135 296.945 41.4833 294.028 41.4833H260.421C257.505 41.4833 255.156 39.135 255.156 36.2182C255.156 33.3014 257.505 30.9531 260.421 30.9531Z" fill="#CC9B75"/>
<path d="M268.797 61.249L268.921 62.1085C269.236 64.2819 270.044 66.3544 271.284 68.1675C272.92 70.5609 273.795 73.3925 273.795 76.2917V78.6128C273.795 80.1917 273.624 81.7659 273.286 83.308L272.143 88.5138C272.086 88.776 272.057 89.0437 272.057 89.3121V92.791C272.057 95.2434 268.939 96.2896 267.46 94.3339C267.254 94.0621 267.105 93.752 267.021 93.4218L266.55 91.5712C266.104 89.8185 266.059 87.9878 266.419 86.2154L266.824 84.2216C267.04 83.1595 267.149 82.0785 267.149 80.9948V78.5574C267.149 76.7849 266.598 75.0561 265.573 73.6098C264.751 72.4492 264.231 71.102 264.06 69.6899L264.033 69.4626C263.889 68.2802 263.524 67.1354 262.957 66.0884L261.897 64.1342C261.506 63.4142 261.057 62.7276 260.554 62.0813L259.496 60.7217C258.142 58.9827 257.407 56.8419 257.407 54.638C257.407 53.1883 257.088 51.7562 256.474 50.4429L255.209 47.7383C254.979 47.2453 254.859 46.7076 254.859 46.1634C254.859 44.11 256.524 42.4454 258.577 42.4454L263.816 42.4455L264.973 45.0015C265.55 46.2769 265.609 47.7266 265.139 49.0451C264.618 50.5031 264.748 52.1143 265.496 53.47L267.258 56.6663C268.043 58.0889 268.564 59.6413 268.797 61.249Z" fill="#C5873F"/>
<path d="M273.394 9.31384H281.06C287.431 9.31384 297.509 18.3099 297.509 27.1568V39.7094C297.509 48.5562 288.064 58.2388 281.297 58.2388H273.157C266.39 58.2388 256.945 48.5562 256.945 39.7094V27.1568C256.945 18.3099 267.022 9.31384 273.394 9.31384Z" fill="#E0B18D"/>
<path d="M275.502 53.4724H277.709C277.886 53.4724 278.029 53.5971 278.029 53.7515V53.9162C278.029 54.0706 277.886 54.1953 277.709 54.1953H275.502C275.324 54.1953 275.182 54.0706 275.182 53.9162V53.7515C275.182 53.5971 275.324 53.4724 275.502 53.4724Z" fill="#CC9B75"/>
<path d="M277.222 33.5953C278.575 33.5953 279.664 34.7472 279.664 36.1774V40.7352C279.664 42.1654 278.575 43.3172 277.222 43.3172C275.869 43.3172 274.779 42.1654 274.779 40.7352V36.1774C274.779 34.7472 275.869 33.5953 277.222 33.5953Z" fill="#CC9B75"/>
<path d="M281.294 40.3886C281.294 41.5286 280.329 42.4452 279.131 42.4452H275.316C274.118 42.4452 273.154 41.5286 273.154 40.3886C273.154 39.2494 274.118 38.3328 275.316 38.3328H279.131C280.329 38.3328 281.294 39.2494 281.294 40.3886Z" fill="#CC9B75"/>
<path d="M271.069 45.4084C270.785 45.4084 270.514 45.4997 270.313 45.6615C270.112 45.8233 270 46.0438 270 46.2731V46.924C270 48.2087 270.457 49.3858 271.265 50.2831C272.074 51.1812 273.298 51.8165 274.697 51.8165H279.66C281.059 51.8165 282.282 51.1812 283.091 50.2831C283.9 49.3858 284.357 48.2087 284.357 46.924V46.2731C284.357 46.0438 284.244 45.8233 284.044 45.6615C283.843 45.4997 283.571 45.4084 283.287 45.4084H271.069Z" fill="white"/>
<path d="M265.173 28.0012L272.043 28.5615C272.791 28.6224 273.343 29.2733 273.282 30.0199C273.221 30.7673 272.57 31.3195 271.823 31.2586L264.952 30.6983C264.206 30.6374 263.653 29.9873 263.714 29.2399C263.774 28.4925 264.425 27.9403 265.173 28.0012Z" fill="#4D4D4D"/>
<path d="M262.846 29.219L264.198 28.3217C264.746 27.9581 265.479 28.1065 265.844 28.6543C266.208 29.2027 266.059 29.9367 265.511 30.3004L264.159 31.1977C263.611 31.5614 262.877 31.413 262.514 30.8652C262.15 30.3167 262.298 29.5827 262.846 29.219Z" fill="#4D4D4D"/>
<path d="M289.28 28.0012L282.409 28.5615C281.662 28.6224 281.11 29.2733 281.171 30.0199C281.231 30.7673 281.882 31.3195 282.629 31.2586L289.5 30.6983C290.247 30.6374 290.8 29.9873 290.739 29.2399C290.677 28.4925 290.027 27.9403 289.28 28.0012Z" fill="#4D4D4D"/>
<path d="M291.605 29.219L290.253 28.3217C289.705 27.9581 288.971 28.1065 288.607 28.6543C288.244 29.2027 288.392 29.9367 288.94 30.3004L290.292 31.1977C290.84 31.5614 291.574 31.413 291.937 30.8652C292.301 30.3167 292.153 29.5827 291.605 29.219Z" fill="#4D4D4D"/>
<path d="M265.173 28.0012L272.043 28.5615C272.791 28.6224 273.343 29.2733 273.282 30.0199C273.221 30.7673 272.57 31.3195 271.823 31.2586L264.952 30.6983C264.206 30.6374 263.653 29.9873 263.714 29.2399C263.774 28.4925 264.425 27.9403 265.173 28.0012Z" fill="#4D4D4D"/>
<path d="M289.28 28.0012L282.409 28.5615C281.662 28.6224 281.11 29.2733 281.171 30.0199C281.231 30.7673 281.882 31.3195 282.629 31.2586L289.5 30.6983C290.247 30.6374 290.8 29.9873 290.739 29.2399C290.677 28.4925 290.027 27.9403 289.28 28.0012Z" fill="#4D4D4D"/>
<path d="M267.45 33.0858H268.349C269.165 33.0858 269.822 33.7434 269.822 34.5591V36.6335C269.822 37.4491 269.165 38.106 268.349 38.106H267.45C266.633 38.106 265.977 37.4491 265.977 36.6335V34.5591C265.977 33.7434 266.633 33.0858 267.45 33.0858Z" fill="#61534B"/>
<path d="M285.093 33.0858H284.194C283.378 33.0858 282.721 33.7434 282.721 34.5591V36.6335C282.721 37.4491 283.378 38.106 284.194 38.106H285.093C285.909 38.106 286.566 37.4491 286.566 36.6335V34.5591C286.566 33.7434 285.909 33.0858 285.093 33.0858Z" fill="#61534B"/>
<path d="M260.363 11.7248C265.037 9.42831 271.834 8.1804 274.693 7.91752C275.311 7.86067 275.923 7.92257 276.533 8.03748L285.254 9.67966C287.438 10.0911 289.424 11.2187 290.896 12.8843L295.258 17.8191C296.873 19.647 297.765 22.0023 297.765 24.4418V27.2188C297.765 27.6178 297.861 28.011 298.045 28.3651C299.37 30.9156 296.03 33.3069 294.043 31.2305L290.042 27.0506C289.574 26.5624 288.969 26.2287 288.307 26.0943L275.352 23.4648C274.692 23.3309 274.021 23.2639 273.348 23.2649L266.601 23.2749C265.145 23.2771 263.728 23.8468 262.861 25.017C261.784 26.4717 260.743 28.2569 259.963 30.0041C259.104 31.9262 256.188 33.0729 254.504 31.8102C253.681 31.1934 253.314 30.1231 253.601 29.1354C253.666 28.9112 253.699 28.679 253.698 28.4457L253.697 26.3532C253.697 25.6239 254.315 23.1513 254.511 22.4487C255.614 18.4765 256.662 13.5428 260.363 11.7248Z" fill="#C5873F"/>
<rect x="44.0527" y="74.202" width="3.59309" height="27.1997" fill="#D9D9D9"/>
<path d="M42.3789 70.8162L49.2314 70.8162V71.118L47.6551 78.2609H44.0742L42.3789 71.1142V70.8162Z" fill="#D9D9D9"/>
<rect x="42.3789" y="63.4852" width="0.893266" height="7.63908" fill="#D9D9D9"/>
<rect x="45.4023" y="63.4852" width="0.893266" height="7.63908" fill="#D9D9D9"/>
<rect x="48.3379" y="63.4852" width="0.893266" height="7.63908" fill="#D9D9D9"/>
<path d="M42.2865 90.4707L42.2546 90.4336C40.218 88.0589 36.5656 87.6521 34.0966 89.5248L24.9474 95.7984L15.5578 103.587C13.0889 105.46 12.7385 108.903 14.7751 111.278L14.807 111.315C16.8436 113.69 21.4755 115.761 23.9444 113.888L42.4832 99.8259C44.9521 97.9531 44.3231 92.8454 42.2865 90.4707Z" fill="#9D6B5A"/>
<path d="M19.3986 110.077C19.1472 111.978 16.3747 112.818 13.2061 111.955C10.0374 111.091 7.67255 108.85 7.92394 106.949L8.61058 101.758C8.79783 100.342 9.49772 99.1919 11.152 99.0541C12.4845 98.9431 13.8404 99.6734 15.0883 100.41L17.3707 101.758C19.2265 103.076 20.2259 105.287 19.8776 107.303L19.3986 110.077Z" fill="#9D6B5A"/>
<path d="M49.7029 97.1319C49.3195 100.03 45.8688 101.524 41.9956 100.469C38.1223 99.413 35.2932 96.2075 35.6765 93.309L36.7236 85.3922C37.0847 82.6615 45.8697 83.9542 50.1243 84.9958C50.5978 85.1117 51.0319 85.3966 51.3569 85.7852C52.3741 87.0019 52.7177 88.5771 52.2533 89.895L49.7029 97.1319Z" fill="#9D6B5A"/>
<path d="M43.409 86.2875C42.4762 87.7199 40.8593 88.218 39.7975 87.3999C38.7357 86.5819 38.6312 84.7575 39.564 83.3251L42.1117 79.4128C43.0445 77.9804 44.6614 77.4824 45.7232 78.3004C46.7849 79.1185 46.8895 80.9428 45.9567 82.3752L43.409 86.2875Z" fill="#9D6B5A"/>
<rect x="123.102" y="89.5964" width="83.25" height="20.7048" rx="10.3524" fill="#81584A"/>
<rect x="123.102" y="109.752" width="83.25" height="20.7048" rx="10.3524" fill="#CC9454"/>
<rect x="181.754" y="74.7021" width="22.2832" height="20.3479" transform="rotate(45 181.754 74.7021)" fill="#56A278"/>
<path d="M166.682 74.5242L182.438 90.2808L175.288 97.001L167.993 111.591L163.273 97.001L153.832 98.9321L152.294 88.9123L166.682 74.5242Z" fill="#FFC90B"/>
<path d="M144.016 75.4026L159.772 91.1592L152.73 93.1698L145.688 101.186L139.682 96.1045L133.907 93.1698L129.627 89.7907L144.016 75.4026Z" fill="#56A278"/>
<ellipse cx="191.211" cy="89.5964" rx="11.957" ry="6.78052" fill="#EB4B25"/>
<path d="M123.102 70.9221C123.102 67.3794 124.337 63.9476 126.595 61.218L129.237 58.0244C133.514 52.8551 139.578 49.4824 146.225 48.5759L157.377 47.0552C161.994 46.4256 166.676 46.4445 171.287 47.1112L181.476 48.5844C187.763 49.4934 193.579 52.4395 198.03 56.971L202.139 61.1536C204.839 63.9014 206.352 67.5995 206.352 71.4515C206.352 79.567 199.773 86.146 191.657 86.146H138.325C129.918 86.146 123.102 79.33 123.102 70.9221Z" fill="#CC9454"/>
<circle cx="153.005" cy="75.6389" r="2.47754" fill="#E5BE57"/>
<circle cx="164.485" cy="64.614" r="2.47754" fill="#E5BE57"/>
<circle cx="137.021" cy="74.5242" r="2.47754" fill="#E5BE57"/>
<circle cx="137.021" cy="59.2036" r="2.47754" fill="#E5BE57"/>
<circle cx="174.251" cy="59.2036" r="2.47754" fill="#E5BE57"/>
<circle cx="174.251" cy="75.6389" r="2.47754" fill="#E5BE57"/>
<circle cx="184.915" cy="65.4924" r="2.47754" fill="#E5BE57"/>
<circle cx="166.962" cy="51.771" r="2.47754" fill="#E5BE57"/>
<circle cx="150.528" cy="64.614" r="2.47754" fill="#E5BE57"/>
<circle cx="152.132" cy="51.771" r="2.47754" fill="#E5BE57"/>
<circle cx="184.915" cy="51.771" r="2.47754" fill="#E5BE57"/>
<circle cx="193.688" cy="59.2036" r="2.47754" fill="#E5BE57"/>
<circle cx="189.876" cy="79.4734" r="2.47754" transform="rotate(-0.134693 189.876 79.4734)" fill="#E5BE57"/>
<circle cx="199.987" cy="70.4475" r="2.47754" fill="#E5BE57"/>
<path d="M48.1378 207.045H36.1193C35.4808 207.045 34.9629 207.723 34.9629 208.561V221.851C34.9629 222.689 35.4808 223.367 36.1193 223.367H48.1378C48.7763 223.367 49.2949 222.689 49.2949 221.851V208.561C49.2949 207.723 48.7763 207.045 48.1378 207.045Z" fill="white"/>
<path d="M42.9221 211.725H38.9835C38.0478 211.725 37.2891 212.686 37.2891 213.872V215.798C37.2891 216.984 38.0478 217.945 38.9835 217.945H42.9221C43.8586 217.945 44.6166 216.984 44.6166 215.798V213.872C44.6166 212.686 43.8586 211.725 42.9221 211.725Z" fill="#4B4B4B"/>
<path d="M44.3811 215.032H38.2075C34.648 215.032 31.7617 218.471 31.7617 222.714C31.7617 226.956 34.648 230.395 38.2075 230.395H44.3811C47.9406 230.395 50.8262 226.956 50.8262 222.714C50.8262 218.471 47.9406 215.032 44.3811 215.032Z" fill="#4F4F4F"/>
<path d="M49.2842 222.01H33.6017C32.3526 222.01 31.3398 223.182 31.3398 224.626V228.046C31.3398 229.492 32.3526 230.663 33.6017 230.663H49.2842C50.5342 230.663 51.5469 229.492 51.5469 228.046V224.626C51.5469 223.182 50.5342 222.01 49.2842 222.01Z" fill="#4F4F4F"/>
<path d="M49.9879 227.498H32.8624C32.4267 227.498 32.0742 227.926 32.0742 228.455V229.706C32.0742 230.234 32.4267 230.663 32.8624 230.663H49.9879C50.4229 230.663 50.7754 230.234 50.7754 229.706V228.455C50.7754 227.926 50.4229 227.498 49.9879 227.498Z" fill="white"/>
<path d="M43.3359 215.418H38.7314C38.4913 215.418 38.2969 215.665 38.2969 215.969C38.2969 216.272 38.4913 216.519 38.7314 216.519H43.3359C43.5753 216.519 43.7704 216.272 43.7704 215.969C43.7704 215.665 43.5753 215.418 43.3359 215.418Z" fill="white"/>
<path d="M37.5569 218.94H35.3446C34.5649 218.94 33.9316 219.741 33.9316 220.73C33.9316 221.719 34.5649 222.52 35.3446 222.52H37.5569C38.3374 222.52 38.9692 221.719 38.9692 220.73C38.9692 219.741 38.3374 218.94 37.5569 218.94Z" fill="#585858"/>
<path d="M43.3359 217.179H38.7314C38.4913 217.179 38.2969 217.426 38.2969 217.729C38.2969 218.033 38.4913 218.279 38.7314 218.279H43.3359C43.5753 218.279 43.7704 218.033 43.7704 217.729C43.7704 217.426 43.5753 217.179 43.3359 217.179Z" fill="white"/>
<path d="M73.4049 207.044H61.1505C60.4995 207.044 59.9707 207.723 59.9707 208.561V221.85C59.9707 222.688 60.4995 223.367 61.1505 223.367H73.4049C74.0559 223.367 74.584 222.688 74.584 221.85V208.561C74.584 207.723 74.0559 207.044 73.4049 207.044Z" fill="white"/>
<path d="M69.3218 211.747H65.4326C64.5088 211.747 63.7598 212.708 63.7598 213.893V215.82C63.7598 217.005 64.5088 217.966 65.4326 217.966H69.3218C70.2455 217.966 70.9946 217.005 70.9946 215.82V213.893C70.9946 212.708 70.2455 211.747 69.3218 211.747Z" fill="#4B4B4B"/>
<path d="M71.5402 215.032H65.3679C61.8079 215.032 58.9219 218.471 58.9219 222.714C58.9219 226.956 61.8079 230.395 65.3679 230.395H71.5402C75.1002 230.395 78.2461 227.017 78.2461 222.775C78.2461 218.532 75.1002 215.032 71.5402 215.032Z" fill="#4F4F4F"/>
<path d="M76.3353 222.01H60.6354C59.3857 222.01 58.3711 223.15 58.3711 224.554V227.88C58.3711 229.286 59.3857 230.425 60.6354 230.425H76.3353C77.5858 230.425 78.5996 229.286 78.5996 227.88V224.554C78.5996 223.15 77.5858 222.01 76.3353 222.01Z" fill="#4F4F4F"/>
<path d="M77.5702 227.498H59.5986C59.1422 227.498 58.7715 227.926 58.7715 228.455V229.706C58.7715 230.234 59.1422 230.663 59.5986 230.663H77.5702C78.0266 230.663 78.3965 230.234 78.3965 229.706V228.455C78.3965 227.926 78.0266 227.498 77.5702 227.498Z" fill="white"/>
<path d="M70.4189 215.418H65.8723C65.6353 215.418 65.4434 215.664 65.4434 215.969C65.4434 216.272 65.6353 216.519 65.8723 216.519H70.4189C70.6552 216.519 70.8478 216.272 70.8478 215.969C70.8478 215.664 70.6552 215.418 70.4189 215.418Z" fill="white"/>
<path d="M71.9397 218.983H69.7563C68.9858 218.983 68.3613 219.784 68.3613 220.773C68.3613 221.761 68.9858 222.563 69.7563 222.563H71.9397C72.7102 222.563 73.3347 221.761 73.3347 220.773C73.3347 219.784 72.7102 218.983 71.9397 218.983Z" fill="#585858"/>
<path d="M70.4189 217.2H65.8723C65.6353 217.2 65.4434 217.447 65.4434 217.75C65.4434 218.054 65.6353 218.301 65.8723 218.301H70.4189C70.6552 218.301 70.8478 218.054 70.8478 217.75C70.8478 217.447 70.6552 217.2 70.4189 217.2Z" fill="white"/>
</svg>
