<svg width="108" height="202" viewBox="0 0 108 202" fill="none" xmlns="http://www.w3.org/2000/svg">
<path d="M46.9719 61.4512C47.6849 59.8539 47.9952 59.9008 48.9826 60.0619C49.477 60.1425 49.9509 60.271 50.3643 60.4719C50.7777 60.6728 51.2843 60.852 51.7767 60.6198C53.4427 59.8343 54.7155 56.6057 53.3864 60.0324C52.9397 61.0779 52.7127 62.1438 52.7157 63.1827L52.7486 74.8478L50.5033 94.0074C50.3281 95.5026 48.6967 96.8416 46.8178 97.0323L45.5962 97.1349C44.2953 97.244 43.0277 97.1527 41.8626 96.8658L40.4686 96.5226C40.306 96.4825 40.13 96.4679 39.9489 96.4793C38.7176 96.5568 38.1545 95.4888 38.9797 94.6411L41.0929 92.4701C41.7281 91.8175 42.0081 91.0231 41.8549 90.3084L40.5036 84.0024C40.2549 82.842 40.182 81.6367 40.2865 80.4104L40.8007 74.3725L42.0125 68.7747C42.3341 67.2892 43.2493 65.8373 44.6174 64.6426C45.6909 63.705 46.459 62.6002 46.9719 61.4512Z" fill="#FBC89D"/>
<path d="M82.4781 148.66H83.7673C86.9214 148.66 89.4781 151.517 89.4781 155.042L89.4786 171.887L89.4781 183.896L90.621 196.203C90.621 198.893 88.2861 201.073 85.4051 201.073H84.1896C81.3086 201.073 78.9737 198.893 78.9737 196.203V177.899C78.9737 176.718 78.7024 175.558 78.1864 174.528C77.6697 173.498 77.3984 172.338 77.3984 171.157V168.64C77.3984 167.288 77.5471 165.942 77.8402 164.63L77.8508 164.583C78.151 163.24 78.3031 161.861 78.3031 160.477V153.326C78.3031 153.054 78.3244 152.784 78.3662 152.517C78.7177 150.286 80.4517 148.66 82.4781 148.66Z" fill="#FBC89D"/>
<path d="M84.2027 103.783H87.4931C89.3443 103.783 91.0057 105.054 91.6757 106.982C91.8048 107.354 91.8933 107.742 91.9405 108.138L94.3715 128.634V137.53C94.3715 138.684 94.2854 139.836 94.1144 140.974L93.5559 144.686C93.2356 146.817 92.5792 148.868 91.6173 150.742L89.986 153.921C89.6363 154.603 89.4523 155.374 89.4523 156.161C89.4523 158.647 87.6482 160.663 85.423 160.663H82.6399C80.256 160.663 78.3228 158.503 78.3228 155.838C78.3228 155.258 78.229 154.683 78.0462 154.14L77.4611 152.401C77.2087 151.652 77.0105 150.881 76.8678 150.097L75.9784 145.198L75.1233 138.954C74.9811 137.914 74.9092 136.863 74.9092 135.81V114.168C74.9092 108.432 79.07 103.783 84.2027 103.783Z" fill="#FBC89D"/>
<path d="M82.8447 191.014H87.7428C90.5666 191.014 92.856 193.265 92.856 196.043C92.856 198.82 90.5666 201.072 87.7428 201.072H82.8447C80.0209 201.072 77.7314 198.82 77.7314 196.043C77.7314 193.265 80.0209 191.014 82.8447 191.014Z" fill="#FBC89D"/>
<path d="M79.4247 193.084H91.1628C92.0976 193.084 92.856 194.166 92.856 195.499V198.657C92.856 199.991 92.0976 201.072 91.1628 201.072H79.4247C78.4899 201.072 77.7314 199.991 77.7314 198.657V195.499C77.7314 194.166 78.4899 193.084 79.4247 193.084Z" fill="#FBC89D"/>
<path d="M64.1429 148.66H62.8537C59.6996 148.66 57.1424 151.517 57.1424 155.042V171.888V183.896L56 196.203C56 198.893 58.3349 201.073 61.2153 201.073H62.4314C65.3118 201.073 67.6473 198.893 67.6473 196.203V177.898C67.6473 176.718 67.918 175.558 68.4347 174.528C68.9513 173.498 69.222 172.337 69.222 171.157V168.64C69.222 167.288 69.074 165.942 68.7809 164.63L68.7702 164.583C68.4695 163.24 68.3179 161.861 68.3179 160.477V153.325C68.3179 153.054 68.2967 152.784 68.2548 152.517C67.9033 150.287 66.1694 148.66 64.1429 148.66Z" fill="#FBC89D"/>
<path d="M63.2301 103.782H58.1139C56.2561 103.782 54.7498 105.465 54.7498 107.542L52.248 128.634V137.529C52.248 138.683 52.3336 139.836 52.5052 140.974L53.0631 144.686C53.3839 146.817 54.0404 148.867 55.0023 150.742L56.6336 153.92C56.9833 154.602 57.1673 155.375 57.1673 156.16C57.1673 158.647 58.9714 160.663 61.1966 160.663H63.9797C66.3635 160.663 68.2968 158.502 68.2968 155.839C68.2968 155.258 68.39 154.683 68.5728 154.14L69.1585 152.401C69.4109 151.652 69.609 150.881 69.7518 150.096L70.6405 145.198L71.4963 138.954C71.6384 137.913 71.7104 136.862 71.7104 135.81V113.259C71.7104 108.025 67.9135 103.782 63.2301 103.782Z" fill="#FBC89D"/>
<path d="M63.7734 191.014H58.876C56.0522 191.014 53.7627 193.265 53.7627 196.042C53.7627 198.82 56.0522 201.071 58.876 201.071H63.7734C66.5978 201.071 68.8867 198.82 68.8867 196.042C68.8867 193.265 66.5978 191.014 63.7734 191.014Z" fill="#FBC89D"/>
<path d="M67.1935 193.084H55.4559C54.5205 193.084 53.7627 194.165 53.7627 195.499V198.657C53.7627 199.991 54.5205 201.072 55.4559 201.072H67.1935C68.1288 201.072 68.8867 199.991 68.8867 198.657V195.499C68.8867 194.165 68.1288 193.084 67.1935 193.084Z" fill="#FBC89D"/>
<path d="M72.8612 46.5688C73.611 46.5688 74.358 46.6176 75.0984 46.7125C84.0282 47.8573 91.987 55.6966 91.987 65.2573L90.585 75.4935L87.8498 93.1156C87.8498 103.469 82.654 104.997 72.8612 104.997C63.0685 104.997 58.4843 103.469 58.4843 93.1156L55.1846 75.4935V65.2573C55.1846 54.9037 63.0685 46.5688 72.8612 46.5688Z" fill="#FBC89D"/>
<path d="M73.7936 25.6685C78.8249 25.6685 82.8762 32.1699 82.8762 40.2464V46.2272C82.8762 54.3038 78.8249 60.8059 73.7936 60.8059C68.7616 60.8059 64.7109 54.3038 64.7109 46.2272V40.2464C64.7109 32.1699 68.7616 25.6685 73.7936 25.6685Z" fill="#FBC89D"/>
<path d="M72.4247 26.7607H75.161C78.3113 26.7607 80.8473 30.5423 80.8473 35.24V38.7184C80.8473 43.416 78.3113 47.1976 75.161 47.1976H72.4247C69.2744 47.1976 66.7383 43.416 66.7383 38.7184V35.24C66.7383 30.5423 69.2744 26.7607 72.4247 26.7607Z" fill="#F8B277"/>
<path d="M72.8314 88.4823H73.4347C83.4272 88.4823 86.6703 82.7065 88.3104 90.5346L91.4716 106.243C93.11 114.065 83.4272 120.556 73.4347 120.556H72.8314C62.839 120.556 53.1562 114.065 54.7945 106.243L58.2883 90.5346C59.9285 82.7065 62.839 88.4823 72.8314 88.4823Z" fill="#FBC89D"/>
<path d="M72.8127 81.396C80.0144 81.396 85.813 90.1072 85.813 100.927H59.8125C59.8125 90.1072 65.6105 81.396 72.8127 81.396Z" fill="#FBC89D"/>
<path d="M95.3527 61.3537C98.4048 60.694 102.079 62.0767 102.751 65.9617L104.839 72.9772C105.482 75.1376 105.717 77.4244 105.529 79.6915L104.967 86.4928C104.839 88.0442 104.994 89.6081 104.975 91.1661C104.942 93.8952 103.828 95.8967 101.421 96.4167C98.7917 96.9854 97.0454 95.5224 96.1825 92.6232C95.8894 91.6393 95.6606 90.629 95.3168 89.6655L93.755 85.2921C92.8958 82.8866 92.5566 80.288 92.7642 77.7078L93.0868 73.7074C93.1706 72.6662 93.1606 71.6203 93.1187 70.5763C93.0037 67.7062 93.0562 61.85 95.3527 61.3537Z" fill="#FBC89D"/>
<path d="M100.137 83.5578L100.176 83.5564C102.677 83.4701 104.847 86.5735 105.021 90.4876L106.332 119.881C106.506 123.795 104.62 127.039 102.118 127.125L102.079 127.126C99.5775 127.213 97.4084 124.109 97.2338 120.194L95.9233 90.8013C95.7488 86.8866 97.6349 83.6434 100.137 83.5578Z" fill="#FBC89D"/>
<path d="M100.189 113.842L101.761 113.832C104.774 113.814 107.358 117.468 107.534 121.993L107.69 126.013C107.866 130.538 105.565 134.221 102.552 134.239L100.981 134.249C97.9675 134.266 95.3831 130.613 95.2074 126.088L95.0511 122.067C94.8759 117.542 97.176 113.86 100.189 113.842Z" fill="#FBC89D"/>
<path d="M99.8004 125.277C100.456 122.399 102.767 120.941 104.962 122.022C107.157 123.102 108.406 126.311 107.75 129.188L105.96 137.048C105.305 139.925 102.993 141.382 100.798 140.302C98.6026 139.222 97.3546 136.014 98.0098 133.136L99.8004 125.277Z" fill="#FBC89D"/>
<path d="M94.6645 123.74C94.5907 121.734 95.5969 120.101 96.9127 120.091C98.2278 120.082 99.3543 121.701 99.4286 123.708L99.6309 129.186C99.7052 131.192 98.6985 132.826 97.3827 132.835C96.0675 132.844 94.9411 131.225 94.8668 129.219L94.6645 123.74Z" fill="#FBC89D"/>
<path d="M50.1895 52.335H95.762C100.278 52.335 103.914 56.1212 103.914 60.8247C103.914 65.5283 100.278 69.3145 95.762 69.3145H50.1895C45.673 69.3145 42.0371 65.5283 42.0371 60.8247C42.0371 56.1212 45.673 52.335 50.1895 52.335Z" fill="#FBC89D"/>
<path d="M65.8277 51.3276H80.0381C87.9787 51.3276 94.3706 57.8469 94.3706 65.9452C94.3706 74.0428 87.9787 80.562 80.0381 80.562H65.8277C57.8876 80.562 51.4951 74.0428 51.4951 65.9452C51.4951 57.8469 57.8876 51.3276 65.8277 51.3276Z" fill="#FBC89D"/>
<path d="M73.3146 69.3145C75.1636 69.3145 76.6521 70.9785 76.6521 73.0446V76.5039C76.6521 78.5707 75.1636 80.2341 73.3146 80.2341C71.4651 80.2341 69.9766 78.5707 69.9766 76.5039V73.0446C69.9766 70.9785 71.4651 69.3145 73.3146 69.3145Z" fill="#FBC89D"/>
<path d="M64.8854 65.4004C64.0025 65.4004 63.1839 65.6561 62.5016 66.0944C60.2351 66.2367 58.1101 67.1923 56.5579 68.7668C55.0056 70.3412 54.1416 72.4172 54.1416 74.5742C54.1416 76.8282 55.0846 78.9905 56.7637 80.584C58.4422 82.1783 60.7193 83.0732 63.0937 83.0732C65.2564 83.0712 67.3447 82.3252 68.9737 80.9742C70.602 79.6231 71.6606 77.7581 71.9532 75.7229C72.0133 75.4442 72.0458 75.1549 72.0458 74.8583V69.5761C72.0458 67.2628 70.1219 65.4004 67.7328 65.4004H64.8854ZM78.1446 65.4004C75.756 65.4004 73.8322 67.2628 73.8322 69.5761V74.8583C73.8322 75.1549 73.8646 75.4442 73.9248 75.7229C74.2173 77.7581 75.2759 79.6231 76.9043 80.9742C78.5326 82.3252 80.6216 83.0712 82.7843 83.0732C85.1587 83.0732 87.4352 82.1783 89.1142 80.584C90.7927 78.9905 91.7363 76.8282 91.7363 74.5742C91.7357 72.4172 90.8723 70.3412 89.3195 68.7668C87.7672 67.1923 85.6429 66.2367 83.3764 66.0944C82.694 65.6561 81.8754 65.4004 80.9919 65.4004H78.1446Z" fill="#FBC89D"/>
<path d="M56.6047 69.9866C55.5821 69.5714 54.4721 72.0494 53.5167 72.4573C53.4318 72.9852 53.3869 73.5197 53.3828 74.0555C53.3834 79.5321 57.5513 83.9714 62.6929 83.9714C65.2926 83.9648 67.7714 82.8003 69.5289 80.7593C69.4363 75.7921 65.4383 73.5685 61.1329 71.8227L56.6047 69.9866ZM84.4748 71.8227C80.2568 73.5335 76.3189 75.6326 76.0853 80.4581C77.8493 82.6797 80.439 83.9642 83.1702 83.9714C88.3118 83.9714 92.4797 79.5321 92.4797 74.0555C92.4756 73.5612 92.4372 73.0683 92.3641 72.5799C91.3355 72.0935 90.1236 69.5312 89.0018 69.9866L84.4748 71.8227Z" fill="#444444"/>
<path d="M69.2856 78.7295H76.9614C77.4297 78.7295 77.8065 79.1381 77.8065 79.6469C77.8065 80.155 77.4297 80.5636 76.9614 80.5636H69.2856C68.8173 80.5636 68.4404 80.155 68.4404 79.6469C68.4404 79.1381 68.8173 78.7295 69.2856 78.7295Z" fill="#444444"/>
<path d="M89.0482 69.9343C88.978 69.9402 88.9084 69.9567 88.8388 69.985L84.3578 71.8013C80.8203 73.2354 77.4834 74.9456 76.4053 78.3377C78.1345 80.2779 80.5396 81.3897 83.0668 81.3963C87.7513 81.3963 91.6166 77.6747 92.2023 72.8578C92.1899 72.7556 92.1822 72.6522 92.1669 72.5507C91.2126 72.0992 90.0986 69.844 89.0482 69.9343ZM56.5815 69.9409C55.6231 69.8737 54.6016 72.0505 53.7152 72.4294C53.694 72.5625 53.6757 72.6957 53.6592 72.8294C54.233 77.6602 58.1043 81.3963 62.7976 81.3963C65.2245 81.3897 67.5435 80.3649 69.2591 78.5558C68.2453 75.0616 64.8589 73.2624 61.2536 71.8013L56.772 69.985C56.7089 69.9593 56.6452 69.9455 56.5815 69.9409Z" fill="#4F4F4F"/>
<path d="M70.0856 84.6304H67.8627C66.8471 84.6304 66.0244 85.3072 66.0244 86.1416V87.892C66.0244 88.727 66.8471 89.4038 67.8627 89.4038H70.0856C71.1005 89.4038 71.9239 88.727 71.9239 87.892V86.1416C71.9239 85.3072 71.1005 84.6304 70.0856 84.6304Z" fill="#F8B277"/>
<path d="M70.0845 89.918H66.6987C65.6831 89.918 64.8604 90.5948 64.8604 91.4298V93.1796C64.8604 94.0146 65.6831 94.6914 66.6987 94.6914H70.0845C71.1001 94.6914 71.9228 94.0146 71.9228 93.1796V91.4298C71.9228 90.5948 71.1001 89.918 70.0845 89.918Z" fill="#F8B277"/>
<path d="M70.0845 95.0947H66.6987C65.6831 95.0947 64.8604 95.7709 64.8604 96.6059V98.3563C64.8604 99.1913 65.6831 99.8682 66.6987 99.8682H70.0845C71.1001 99.8682 71.9228 99.1913 71.9228 98.3563V96.6059C71.9228 95.7709 71.1001 95.0947 70.0845 95.0947Z" fill="#F8B277"/>
<path d="M75.5248 84.6304H77.7477C78.7627 84.6304 79.586 85.3072 79.586 86.1416V87.892C79.586 88.727 78.7627 89.4038 77.7477 89.4038H75.5248C74.5093 89.4038 73.6865 88.727 73.6865 87.892V86.1416C73.6865 85.3072 74.5093 84.6304 75.5248 84.6304Z" fill="#F8B277"/>
<path d="M75.5248 89.918H78.9113C79.9263 89.918 80.7496 90.5948 80.7496 91.4298V93.1796C80.7496 94.0146 79.9263 94.6914 78.9113 94.6914H75.5248C74.5098 94.6914 73.6865 94.0146 73.6865 93.1796V91.4298C73.6865 90.5948 74.5098 89.918 75.5248 89.918Z" fill="#F8B277"/>
<path d="M75.5248 95.0947H78.9113C79.9263 95.0947 80.7496 95.7709 80.7496 96.6059V98.3563C80.7496 99.1913 79.9263 99.8682 78.9113 99.8682H75.5248C74.5098 99.8682 73.6865 99.1913 73.6865 98.3563V96.6059C73.6865 95.7709 74.5098 95.0947 75.5248 95.0947Z" fill="#F8B277"/>
<path d="M55.876 101.336C56.829 116.317 64.1498 127.913 72.9321 127.913C81.8293 127.913 89.6714 116.599 90.4729 101.336H55.876Z" fill="#4F4F4F"/>
<path d="M90.488 101.333L73.5333 104.272L73.3906 127.85L74.9818 138.183H94.4117C94.5308 119.068 94.3321 112.611 90.488 101.333Z" fill="#4B4B4B"/>
<path d="M55.8863 101.312L73.2426 104.261V127.848L71.6237 138.181H52.2386C52.1153 119.002 51.9301 112.626 55.8863 101.312Z" fill="#4B4B4B"/>
<path d="M82.1957 64.9139H64.902C60.5247 64.9139 50.9746 58.3499 50.9746 64.9139L52.4349 70.8367C52.4349 79.3753 53.49 83.9609 60.6456 83.9609H85.1516C91.5164 83.9609 93.0781 80.4917 93.0781 72.0764L95.8117 65.2514C95.8117 58.6873 86.573 64.9139 82.1957 64.9139Z" fill="#DCB051"/>
<path d="M50.2394 52.3232C44.9621 52.3232 42.0127 57.0631 42.0127 60.6819C42.0127 66.7773 44.4526 69.2876 51.6507 69.2876H93.9972C101.378 69.2876 104.082 67.5833 104.082 60.6891C104.082 57.0697 100.932 52.3232 95.7376 52.3232H87.1942C87.0084 56.3216 83.7494 59.4989 77.3881 59.4989H69.641C62.1816 59.4989 58.9508 56.3216 58.7656 52.3232H50.2394Z" fill="#DCB051"/>
<path d="M86.8381 52.3233C86.7178 52.3214 86.6004 52.3536 86.5125 52.4136C86.4246 52.4736 86.3727 52.5566 86.3698 52.6443C86.1522 56.2802 82.0533 59.153 76.976 59.153H69.0466C63.9698 59.153 59.8709 56.2802 59.6533 52.6443C59.6504 52.6008 59.6362 52.5579 59.6114 52.5184C59.5861 52.4795 59.5501 52.4439 59.5059 52.4143C59.4616 52.3853 59.4103 52.3629 59.3543 52.3477C59.2977 52.3326 59.2381 52.326 59.178 52.3279C59.1184 52.3299 59.0594 52.3405 59.0052 52.3589C58.9509 52.3774 58.902 52.4031 58.8619 52.4354C58.8217 52.467 58.7899 52.5046 58.7693 52.5454C58.7492 52.5863 58.7398 52.6291 58.7427 52.6726C58.981 56.6532 63.4939 59.8133 69.0466 59.8133H76.976C82.5292 59.8133 87.0421 56.6532 87.2804 52.6726C87.2839 52.6285 87.2751 52.5843 87.2544 52.5428C87.2344 52.5013 87.2025 52.463 87.1613 52.4308C87.12 52.3978 87.0698 52.3721 87.0144 52.3536C86.959 52.3352 86.8988 52.3246 86.8381 52.3233Z" fill="#E8CB8C"/>
<path d="M55.877 101.335C56.83 116.317 64.1508 127.913 72.933 127.913C81.8303 127.913 89.6724 116.599 90.4739 101.335H55.877Z" fill="#4F4F4F"/>
<path d="M90.489 101.333L73.5343 104.271L73.3916 127.85L74.9828 138.183H94.4127C94.5318 119.067 94.3331 112.61 90.489 101.333Z" fill="#4B4B4B"/>
<path d="M55.8873 101.312L73.2436 104.261V127.848L71.6246 138.181H52.2396C52.1163 119.001 51.9311 112.626 55.8873 101.312Z" fill="#4B4B4B"/>
<path d="M67.1815 180.336H56.8246C56.2744 180.336 55.8281 180.938 55.8281 181.682V193.483C55.8281 194.227 56.2744 194.83 56.8246 194.83H67.1815C67.7316 194.83 68.1785 194.227 68.1785 193.483V181.682C68.1785 180.938 67.7316 180.336 67.1815 180.336Z" fill="white"/>
<path d="M62.9997 184.492H59.7204C58.9413 184.492 58.3096 185.345 58.3096 186.398V188.108C58.3096 189.161 58.9413 190.014 59.7204 190.014H62.9997C63.7794 190.014 64.4105 189.161 64.4105 188.108V186.398C64.4105 185.345 63.7794 184.492 62.9997 184.492Z" fill="#4B4B4B"/>
<path d="M63.8912 187.429H59.0561C56.2683 187.429 54.0078 190.482 54.0078 194.25C54.0078 198.017 56.2683 201.07 59.0561 201.07H63.8912C66.6789 201.07 68.9388 198.017 68.9388 194.25C68.9388 190.482 66.6789 187.429 63.8912 187.429Z" fill="#4F4F4F"/>
<path d="M67.5594 193.625H55.5043C54.5441 193.625 53.7656 194.636 53.7656 195.883V198.837C53.7656 200.085 54.5441 201.097 55.5043 201.097H67.5594C68.5203 201.097 69.2988 200.085 69.2988 198.837V195.883C69.2988 194.636 68.5203 193.625 67.5594 193.625Z" fill="#4F4F4F"/>
<path d="M68.3102 198.238H54.6371C54.2892 198.238 54.0078 198.619 54.0078 199.088V200.199C54.0078 200.668 54.2892 201.049 54.6371 201.049H68.3102C68.6574 201.049 68.9388 200.668 68.9388 200.199V199.088C68.9388 198.619 68.6574 198.238 68.3102 198.238Z" fill="white"/>
<path d="M63.342 187.771H59.5082C59.3083 187.771 59.1465 187.989 59.1465 188.26C59.1465 188.529 59.3083 188.748 59.5082 188.748H63.342C63.5413 188.748 63.7038 188.529 63.7038 188.26C63.7038 187.989 63.5413 187.771 63.342 187.771Z" fill="white"/>
<path d="M64.6454 190.917H62.8034C62.1542 190.917 61.627 191.628 61.627 192.507C61.627 193.384 62.1542 194.096 62.8034 194.096H64.6454C65.2952 194.096 65.8213 193.384 65.8213 192.507C65.8213 191.628 65.2952 190.917 64.6454 190.917Z" fill="#585858"/>
<path d="M63.342 189.334H59.5082C59.3083 189.334 59.1465 189.553 59.1465 189.823C59.1465 190.092 59.3083 190.311 59.5082 190.311H63.342C63.5413 190.311 63.7038 190.092 63.7038 189.823C63.7038 189.553 63.5413 189.334 63.342 189.334Z" fill="white"/>
<path d="M89.7389 180.335H78.7886C78.2069 180.335 77.7344 180.938 77.7344 181.682V193.482C77.7344 194.226 78.2069 194.829 78.7886 194.829H89.7389C90.3206 194.829 90.7924 194.226 90.7924 193.482V181.682C90.7924 180.938 90.3206 180.335 89.7389 180.335Z" fill="white"/>
<path d="M86.6446 184.51H83.4065C82.6373 184.51 82.0137 185.364 82.0137 186.416V188.127C82.0137 189.18 82.6373 190.033 83.4065 190.033H86.6446C87.4138 190.033 88.0374 189.18 88.0374 188.127V186.416C88.0374 185.364 87.4138 184.51 86.6446 184.51Z" fill="#4B4B4B"/>
<path d="M87.4918 187.428H82.7189C79.9661 187.428 77.7344 190.482 77.7344 194.249C77.7344 198.016 79.9661 201.07 82.7189 201.07H87.4918C90.2446 201.07 92.6772 198.07 92.6772 194.303C92.6772 190.536 90.2446 187.428 87.4918 187.428Z" fill="#4F4F4F"/>
<path d="M91.1469 193.625H79.2449C78.2975 193.625 77.5283 194.636 77.5283 195.883V198.837C77.5283 200.085 78.2975 201.097 79.2449 201.097H91.1469C92.0949 201.097 92.8635 200.085 92.8635 198.837V195.883C92.8635 194.636 92.0949 193.625 91.1469 193.625Z" fill="#4F4F4F"/>
<path d="M91.855 198.238H78.3556C78.0128 198.238 77.7344 198.619 77.7344 199.088V200.199C77.7344 200.668 78.0128 201.049 78.3556 201.049H91.855C92.1978 201.049 92.4757 200.668 92.4757 200.199V199.088C92.4757 198.619 92.1978 198.238 91.855 198.238Z" fill="white"/>
<path d="M87.5362 187.771H83.7507C83.5533 187.771 83.3936 187.989 83.3936 188.26C83.3936 188.529 83.5533 188.748 83.7507 188.748H87.5362C87.733 188.748 87.8933 188.529 87.8933 188.26C87.8933 187.989 87.733 187.771 87.5362 187.771Z" fill="white"/>
<path d="M88.8231 190.936H87.0052C86.3637 190.936 85.8438 191.648 85.8438 192.526C85.8438 193.403 86.3637 194.115 87.0052 194.115H88.8231C89.4647 194.115 89.9846 193.403 89.9846 192.526C89.9846 191.648 89.4647 190.936 88.8231 190.936Z" fill="#585858"/>
<path d="M87.5362 189.353H83.7507C83.5533 189.353 83.3936 189.572 83.3936 189.841C83.3936 190.112 83.5533 190.33 83.7507 190.33H87.5362C87.733 190.33 87.8933 190.112 87.8933 189.841C87.8933 189.572 87.733 189.353 87.5362 189.353Z" fill="white"/>
<path d="M63.7935 53.1011C63.2133 53.1011 62.7461 53.5993 62.7461 54.2181C62.7461 54.837 63.2133 55.3346 63.7935 55.3346H69.6171L71.2886 56.6342C71.7589 57 72.4133 56.8906 72.7563 56.389C73.0992 55.8875 72.9967 55.1896 72.5264 54.8238L70.7955 53.478C70.7776 53.4642 70.7578 53.4563 70.7393 53.4438C70.5496 53.2329 70.2832 53.1011 69.986 53.1011H63.7935ZM77.4132 53.1011C77.1159 53.1011 76.8496 53.2329 76.6599 53.4438C76.6413 53.4563 76.6216 53.4642 76.6037 53.478L74.8728 54.8238C74.4025 55.1896 74.2999 55.8875 74.6429 56.389C74.9859 56.8906 75.6403 57 76.1099 56.6342L77.7821 55.3346H83.6057C84.1859 55.3346 84.6531 54.837 84.6531 54.2181C84.6531 53.5993 84.1859 53.1011 83.6057 53.1011H77.4132Z" fill="#F8B277"/>
<path d="M20.5668 90.5154L20.5723 90.4746C20.9213 87.8647 23.2889 85.931 25.8604 86.1556L35.0886 86.5126L45.1696 87.8421C47.7411 88.0666 49.5428 90.3645 49.1937 92.9744L49.1882 93.0152C48.8392 95.6251 46.5399 99.1866 43.9684 98.962L24.6592 97.2755C22.0877 97.0509 20.2177 93.1254 20.5668 90.5154Z" fill="#FBC89D"/>
<path d="M41.2976 97.5857C41.5069 99.2736 43.8153 100.02 46.4535 99.2533C49.0918 98.4864 51.0608 96.4965 50.8515 94.8086L50.2798 90.1985C50.1342 89.0244 49.6163 88.0562 48.4266 87.8337C47.1834 87.6011 45.842 88.4002 44.6415 89.1561L42.986 90.1985C41.4341 91.3741 40.5983 93.2673 40.8755 94.9792L41.2976 97.5857Z" fill="#FBC89D"/>
<path d="M13.4149 63.5608L19.7256 80.1001L25.9134 63.5402L19.9239 64.9078L19.5571 64.9915L19.1906 64.9062L13.4149 63.5608Z" stroke="#DCB051" stroke-width="3.26288"/>
<path d="M16.5413 72.2023L22.8212 72.2144L23.411 96.8076L16.4372 96.8725L16.5413 72.2023Z" fill="#DCB051"/>
<line x1="20.2241" y1="12.2334" x2="20.2241" y2="63.0755" stroke="#CCBDAB" stroke-width="0.543813"/>
<line x1="18.4799" y1="12.2334" x2="18.4799" y2="63.0755" stroke="#CCBDAB" stroke-width="0.543813"/>
<line x1="16.8549" y1="12.2334" x2="16.8549" y2="63.0755" stroke="#CCBDAB" stroke-width="0.543813"/>
<line x1="15.1069" y1="12.2334" x2="15.1069" y2="63.0755" stroke="#CCBDAB" stroke-width="0.543813"/>
<line x1="13.436" y1="12.2334" x2="13.436" y2="63.0755" stroke="#CCBDAB" stroke-width="0.543813"/>
<line x1="11.5649" y1="12.2334" x2="11.5649" y2="63.0755" stroke="#CCBDAB" stroke-width="0.543813"/>
<path d="M9.86719 14.2715L9.86719 61.1381" stroke="#CCBDAB" stroke-width="0.543813"/>
<path d="M8.12298 16.0942L8.12305 58.9767" stroke="#CCBDAB" stroke-width="0.543813"/>
<path d="M6.37598 17.8501L6.37597 56.2754" stroke="#CCBDAB" stroke-width="0.543813"/>
<path d="M4.77734 20.957L4.77734 53.3046" stroke="#CCBDAB" stroke-width="0.543813"/>
<line x1="21.9369" y1="12.2334" x2="21.9369" y2="63.0755" stroke="#CCBDAB" stroke-width="0.543813"/>
<line x1="23.7553" y1="12.2334" x2="23.7553" y2="63.0755" stroke="#CCBDAB" stroke-width="0.543813"/>
<line x1="25.5004" y1="12.2334" x2="25.5004" y2="63.0755" stroke="#CCBDAB" stroke-width="0.543813"/>
<line x1="27.3178" y1="12.2334" x2="27.3178" y2="63.0755" stroke="#CCBDAB" stroke-width="0.543813"/>
<path d="M29.2441 14.8789L29.2441 60.8677" stroke="#CCBDAB" stroke-width="0.543813"/>
<path d="M30.9902 16.9048L30.9902 58.3015" stroke="#CCBDAB" stroke-width="0.543813"/>
<path d="M32.7344 19.5386L32.7344 56.0731" stroke="#CCBDAB" stroke-width="0.543813"/>
<path d="M34.4082 21.6323L34.4082 53.1019" stroke="#CCBDAB" stroke-width="0.543813"/>
<path d="M37.1318 44.5659L1.82927 44.5659" stroke="#CCBDAB" stroke-width="0.543813"/>
<path d="M36.7686 46.4272L2.28442 46.4272" stroke="#CCBDAB" stroke-width="0.543813"/>
<path d="M35.9502 48.1626L2.64936 48.1626" stroke="#CCBDAB" stroke-width="0.543813"/>
<path d="M35.4941 50.0239L3.2851 50.0239" stroke="#CCBDAB" stroke-width="0.543813"/>
<path d="M34.7705 51.8076L4.29031 51.8076" stroke="#CCBDAB" stroke-width="0.543813"/>
<path d="M34.1289 53.8013L5.19519 53.8013" stroke="#CCBDAB" stroke-width="0.543813"/>
<path d="M33.1299 55.5845L6.83503 55.5845" stroke="#CCBDAB" stroke-width="0.543813"/>
<path d="M31.3115 57.4463L7.1101 57.4463" stroke="#CCBDAB" stroke-width="0.543813"/>
<path d="M30.8545 59.3081L8.19978 59.3081" stroke="#CCBDAB" stroke-width="0.543813"/>
<path d="M28.6709 61.0137L10.2009 61.0137" stroke="#CCBDAB" stroke-width="0.543813"/>
<path d="M37.6797 42.7397L1.74085 42.7397" stroke="#CCBDAB" stroke-width="0.543813"/>
<path d="M37.5859 40.8013L1.37355 40.8013" stroke="#CCBDAB" stroke-width="0.543813"/>
<path d="M37.7676 38.9399L1.46443 38.9399" stroke="#CCBDAB" stroke-width="0.543813"/>
<path d="M37.6797 37.0015L1.92282 37.0015" stroke="#CCBDAB" stroke-width="0.543813"/>
<path d="M37.2236 34.9194L1.92068 34.9194" stroke="#CCBDAB" stroke-width="0.543813"/>
<path d="M37.04 33.0576L1.91981 33.0576" stroke="#CCBDAB" stroke-width="0.543813"/>
<path d="M36.6807 31.1958L1.83297 31.1958" stroke="#CCBDAB" stroke-width="0.543813"/>
<path d="M35.8604 29.4126L2.19596 29.4126" stroke="#CCBDAB" stroke-width="0.543813"/>
<path d="M36.1338 27.5913L3.10613 27.5913" stroke="#CCBDAB" stroke-width="0.543813"/>
<path d="M34.8584 25.7702L4.10486 25.77" stroke="#CCBDAB" stroke-width="0.543813"/>
<path d="M34.3086 23.9482L4.64766 23.9482" stroke="#CCBDAB" stroke-width="0.543813"/>
<path d="M33.8564 22.127L4.8321 22.127" stroke="#CCBDAB" stroke-width="0.543813"/>
<path d="M32.4902 20.3057L5.64926 20.3057" stroke="#CCBDAB" stroke-width="0.543813"/>
<path d="M31.0361 18.4839L6.46997 18.4839" stroke="#CCBDAB" stroke-width="0.543813"/>
<path d="M29.9463 16.5903L8.38305 16.5903" stroke="#CCBDAB" stroke-width="0.543813"/>
<path d="M29.0352 14.7686L10.8376 14.7686" stroke="#CCBDAB" stroke-width="0.543813"/>
<path d="M36.8029 37.4922C36.865 45.0753 34.8687 51.8858 31.6769 56.7639C28.4775 61.6534 24.2043 64.4445 19.6801 64.4866C15.1559 64.5287 10.8378 61.8176 7.55883 56.9883C4.2876 52.1704 2.18024 45.3981 2.11819 37.815C2.05614 30.2319 4.05235 23.4213 7.24424 18.5433C10.4436 13.6537 14.7168 10.8626 19.241 10.8205C23.7652 10.7784 28.0833 13.4895 31.3623 18.3188C34.6335 23.1367 36.7409 29.909 36.8029 37.4922Z" stroke="#DCB051" stroke-width="3.26288"/>
<path d="M21.033 84.1268C21.8096 85.3988 23.1559 85.841 24.0399 85.1146C24.924 84.3882 25.011 82.7682 24.2344 81.4963L22.1131 78.0223C21.3365 76.7504 19.9902 76.3081 19.1062 77.0345C18.2221 77.7609 18.1351 79.3809 18.9117 80.6528L21.033 84.1268Z" fill="#FBC89D"/>
<path d="M15.4401 93.7115C15.7593 96.2853 18.3037 97.7074 21.1233 96.8878C23.9428 96.0682 25.9698 93.3173 25.6506 90.7435L24.7788 83.7136C24.4841 81.3373 18.3223 82.1397 15.1595 82.9218C14.6955 83.0366 14.2772 83.3459 13.9908 83.7573C13.3041 84.7439 13.0785 85.9224 13.3838 86.9293L15.4401 93.7115Z" fill="#FBC89D"/>
<path d="M92.2377 78.3529L90.3603 84.8628C89.0193 89.5129 82.1666 88.5445 82.1666 83.7049L78.4082 54.9507V44.1784C78.4082 36.8797 84.3248 30.963 91.6232 30.9626L94.2726 51.9109C94.5281 53.931 94.555 55.9734 94.3529 57.9996L92.4134 77.4396C92.3826 77.7487 92.3237 78.0544 92.2377 78.3529Z" fill="#444444"/>
<path d="M59.5401 19.5376H87.9355C91.1921 19.5376 93.8135 22.3339 93.8135 25.8071C93.8135 29.2802 91.1921 32.0758 87.9355 32.0758H59.5401C56.2835 32.0758 53.6621 29.2802 53.6621 25.8071C53.6621 22.3339 56.2835 19.5376 59.5401 19.5376Z" fill="#FBC89D"/>
<path d="M59.749 21.1313H87.7304C90.159 21.1313 92.1142 23.2165 92.1142 25.8066C92.1142 28.3966 90.159 30.4818 87.7304 30.4818H59.749C57.3204 30.4818 55.3652 28.3966 55.3652 25.8066C55.3652 23.2165 57.3204 21.1313 59.749 21.1313Z" fill="#F8B277"/>
<path d="M70.5437 1.91699H76.9265C82.2316 1.91699 90.6221 9.90522 90.6221 17.761V28.9073C90.6221 36.7631 82.7581 45.3609 77.1242 45.3609H70.3465C64.7127 45.3609 56.8486 36.7631 56.8486 28.9073V17.761C56.8486 9.90522 65.2386 1.91699 70.5437 1.91699Z" fill="#FBC89D"/>
<path d="M72.3025 41.1284H74.1403C74.2879 41.1284 74.4066 41.2391 74.4066 41.3762V41.5225C74.4066 41.6596 74.2879 41.7703 74.1403 41.7703H72.3025C72.1548 41.7703 72.0361 41.6596 72.0361 41.5225V41.3762C72.0361 41.2391 72.1548 41.1284 72.3025 41.1284Z" fill="#F8B277"/>
<path d="M73.7339 23.479C74.8604 23.479 75.7676 24.5018 75.7676 25.7718V29.819C75.7676 31.0889 74.8604 32.1118 73.7339 32.1118C72.6073 32.1118 71.7002 31.0889 71.7002 29.819V25.7718C71.7002 24.5018 72.6073 23.479 73.7339 23.479Z" fill="#F8B277"/>
<path d="M77.1237 29.5111C77.1237 30.5234 76.3204 31.3373 75.323 31.3373H72.1468C71.1494 31.3373 70.3467 30.5234 70.3467 29.5111C70.3467 28.4995 71.1494 27.6855 72.1468 27.6855H75.323C76.3204 27.6855 77.1237 28.4995 77.1237 29.5111Z" fill="#F8B277"/>
<path d="M68.6057 33.9683C68.3696 33.9683 68.1434 34.0493 67.9766 34.193C67.8091 34.3367 67.7158 34.5324 67.7158 34.736V35.314C67.7158 36.4548 68.0965 37.5001 68.7694 38.2968C69.443 39.0943 70.4614 39.6584 71.6262 39.6584H75.7585C76.9233 39.6584 77.9423 39.0943 78.6152 38.2968C79.2888 37.5001 79.6695 36.4548 79.6695 35.314V34.736C79.6695 34.5324 79.5755 34.3367 79.4087 34.193C79.2418 34.0493 79.0151 33.9683 78.779 33.9683H68.6057Z" fill="white"/>
<path d="M63.6962 18.5109L69.4166 19.0085C70.0389 19.0625 70.4987 19.6405 70.448 20.3035C70.3973 20.9672 69.8554 21.4575 69.2337 21.4034L63.5127 20.9059C62.8911 20.8518 62.4307 20.2745 62.4814 19.6108C62.532 18.9472 63.074 18.4569 63.6962 18.5109Z" fill="#4D4D4D"/>
<path d="M61.7601 19.5927L62.8854 18.7959C63.3421 18.473 63.9526 18.6048 64.256 19.0912C64.5588 19.5782 64.4352 20.23 63.9792 20.5529L62.8533 21.3497C62.3972 21.6726 61.7861 21.5408 61.4833 21.0544C61.1805 20.5674 61.3035 19.9156 61.7601 19.5927Z" fill="#4D4D4D"/>
<path d="M83.7682 18.5109L78.0479 19.0085C77.4256 19.0625 76.9658 19.6405 77.0165 20.3035C77.0672 20.9672 77.6091 21.4575 78.2308 21.4034L83.9518 20.9059C84.5734 20.8518 85.0338 20.2745 84.9831 19.6108C84.9318 18.9472 84.3905 18.4569 83.7682 18.5109Z" fill="#4D4D4D"/>
<path d="M85.7046 19.5927L84.5793 18.7959C84.1227 18.473 83.5115 18.6048 83.2087 19.0912C82.9059 19.5782 83.0295 20.23 83.4856 20.5529L84.6115 21.3497C85.0675 21.6726 85.6787 21.5408 85.9815 21.0544C86.2843 20.5674 86.1613 19.9156 85.7046 19.5927Z" fill="#4D4D4D"/>
<path d="M63.6962 18.5109L69.4166 19.0085C70.0389 19.0625 70.4987 19.6405 70.448 20.3035C70.3973 20.9672 69.8554 21.4575 69.2337 21.4034L63.5127 20.9059C62.8911 20.8518 62.4307 20.2745 62.4814 19.6108C62.532 18.9472 63.074 18.4569 63.6962 18.5109Z" fill="#4D4D4D"/>
<path d="M83.7682 18.5109L78.0479 19.0085C77.4256 19.0625 76.9658 19.6405 77.0165 20.3035C77.0672 20.9672 77.6091 21.4575 78.2308 21.4034L83.9518 20.9059C84.5734 20.8518 85.0338 20.2745 84.9831 19.6108C84.9318 18.9472 84.3905 18.4569 83.7682 18.5109Z" fill="#4D4D4D"/>
<path d="M65.5997 23.0259H66.348C67.0278 23.0259 67.5747 23.6098 67.5747 24.3341V26.1761C67.5747 26.9004 67.0278 27.4836 66.348 27.4836H65.5997C64.9199 27.4836 64.373 26.9004 64.373 26.1761V24.3341C64.373 23.6098 64.9199 23.0259 65.5997 23.0259Z" fill="#61534B"/>
<path d="M80.2904 23.0259H79.5421C78.8623 23.0259 78.3154 23.6098 78.3154 24.3341V26.1761C78.3154 26.9004 78.8623 27.4836 79.5421 27.4836H80.2904C80.9701 27.4836 81.517 26.9004 81.517 26.1761V24.3341C81.517 23.6098 80.9701 23.0259 80.2904 23.0259Z" fill="#61534B"/>
<path d="M70.9823 0.391602C61.7569 0.391602 54.3297 8.31195 54.3297 18.1514C54.3297 21.6119 53.5929 21.6295 54.9421 23.8839C55.1604 24.2486 55.5607 24.4649 55.9857 24.4649V24.4649C56.6752 24.4649 57.2341 23.906 57.2341 23.2166V20.6492C57.2341 20.1217 57.2803 19.5936 57.3678 19.0679C58.1183 14.5616 63.1115 12.612 67.68 12.6036V12.6036C69.7594 12.5994 75.3155 12.9842 78.3206 13.2044C79.6455 13.3015 80.976 13.2108 82.274 12.9284L83.1309 12.742C83.5133 12.6588 83.9035 12.6168 84.2948 12.6168V12.6168C85.9597 12.6168 87.5848 13.3459 88.4165 14.7881C89.4844 16.6398 90.148 18.6492 90.148 20.6492V20.6492C90.148 22.8598 92.4606 23.374 92.8116 21.1915C92.9703 20.2042 93.053 19.1885 93.053 18.1514C93.053 8.31195 85.6253 0.391602 76.3999 0.391602H70.9823Z" fill="#444444"/>
</svg>
