<svg width="247" height="247" viewBox="0 0 247 247" fill="none" xmlns="http://www.w3.org/2000/svg">
<path d="M146.669 86.3482L143.42 83.2105C141.203 80.8701 141.244 77.6015 143.507 76.3872L151.03 72.3513C151.877 71.8963 152.811 71.568 153.806 71.3749L158.118 70.5369C160.404 70.0926 162.852 70.0688 165.355 70.4673L169.864 71.1849C170.521 71.2896 171.172 71.337 171.808 71.3259L173.354 71.2989C174.096 71.286 174.875 71.4599 175.623 71.8051C176.631 72.2711 177.681 72.3871 178.674 72.3481C182.49 72.2003 186.269 74.2434 187.227 76.4469L187.244 76.4858C188.327 78.9776 185.741 81.6909 181.469 82.5464L177.379 83.9718L168.813 86.5263C166.495 87.2183 163.956 87.4438 161.322 87.1924L157.586 86.835L153.839 86.5281C153.013 86.46 152.257 86.6698 151.693 87.1233C150.387 88.1705 148.208 87.8342 146.669 86.3482Z" fill="#E0B18D"/>
<path d="M163.179 77.1801L163.18 77.1332C163.261 74.1383 166.718 71.5959 170.903 71.4557L202.323 70.4C206.507 70.2597 209.834 72.5738 209.753 75.5687L209.752 75.6156C209.671 78.6106 206.214 81.1522 202.03 81.2931L170.61 82.3482C166.425 82.4891 163.099 80.175 163.179 77.1801Z" fill="#E0B18D"/>
<path d="M196.7 78.3396L196.807 76.3687C197.014 72.5913 201.124 69.405 205.986 69.2523L210.305 69.1167C215.167 68.964 218.94 71.9028 218.733 75.6802L218.625 77.6512C218.418 81.4285 214.309 84.6141 209.447 84.7669L205.128 84.9031C200.266 85.0559 196.493 82.117 196.7 78.3396Z" fill="#E0B18D"/>
<path d="M208.86 79.4148C205.859 78.5099 204.509 75.4056 205.844 72.4805C207.179 69.5553 210.693 67.9174 213.694 68.8223L221.889 71.2935C224.889 72.1977 226.239 75.3027 224.904 78.2272C223.569 81.1523 220.054 82.7902 217.054 81.8853L208.86 79.4148Z" fill="#E0B18D"/>
<path d="M206.914 85.6177C204.765 85.6776 203.094 84.4129 203.18 82.7936C203.266 81.1743 205.077 79.8131 207.226 79.7539L213.094 79.592C215.242 79.5328 216.915 80.7968 216.828 82.4161C216.742 84.0354 214.931 85.3966 212.782 85.4558L206.914 85.6177Z" fill="#CC9B75"/>
<path d="M156.256 82.1472L151.528 81.5208C148.193 80.9269 146.432 78.1722 147.854 75.77L152.579 67.7849C153.112 66.8849 153.793 66.038 154.606 65.2663L158.127 61.9212C159.994 60.1476 162.241 58.6258 164.773 57.4225L169.331 55.2556C169.995 54.9401 170.622 54.5803 171.204 54.1805L172.617 53.2095C173.295 52.7437 174.111 52.4106 174.991 52.24C176.179 52.0106 177.212 51.4635 178.108 50.8213C181.55 48.3567 186.165 47.7443 188.262 48.9965L188.299 49.0187C190.671 50.4346 189.776 54.2865 186.301 57.6221L183.309 61.3213L176.804 68.7097C175.044 70.71 172.823 72.4561 170.252 73.8622L166.606 75.8558L162.977 77.898C162.177 78.348 161.594 78.9872 161.322 79.7122C160.692 81.3876 158.495 82.4439 156.256 82.1472Z" fill="#E0B18D"/>
<path d="M166.456 64.3633L166.431 64.3234C164.857 61.7732 166.651 57.5294 170.438 54.8448L198.873 34.6863C202.66 32.0022 207.006 31.893 208.58 34.4432L208.605 34.4831C210.179 37.0333 208.385 41.2765 204.598 43.9613L176.163 64.1192C172.376 66.8044 168.03 66.913 166.456 64.3633Z" fill="#E0B18D"/>
<path d="M198.052 44.7648L197.066 43.053C195.179 39.7721 197.22 34.5905 201.626 31.48L205.54 28.7168C209.946 25.6063 215.048 25.7452 216.936 29.0261L217.921 30.7383C219.808 34.0192 217.767 39.2002 213.361 42.3107L209.448 45.074C205.042 48.1845 199.94 48.0457 198.052 44.7648Z" fill="#E0B18D"/>
<path d="M209.873 38.2027C206.604 39.2878 203.649 37.5242 203.271 34.2631C202.894 31.0016 205.238 27.4779 208.508 26.3923L217.435 23.4281C220.704 22.3424 223.659 24.1066 224.036 27.3676C224.413 30.6291 222.069 34.1527 218.8 35.2379L209.873 38.2027Z" fill="#E0B18D"/>
<path d="M211.491 44.5754C209.539 45.9437 207.3 45.9131 206.488 44.5084C205.676 43.1037 206.6 40.8557 208.551 39.4881L213.881 35.7527C215.833 34.385 218.073 34.4145 218.884 35.8197C219.696 37.2244 218.772 39.4724 216.821 40.84L211.491 44.5754Z" fill="#CC9B75"/>
<path d="M98.1024 85.5379L101.324 82.372C103.521 80.0123 103.45 76.7435 101.177 75.5496L93.6197 71.5795C92.7679 71.132 91.8317 70.8118 90.8349 70.6268L86.5158 69.8264C84.226 69.4021 81.7779 69.4003 79.2778 69.8207L74.7758 70.5776C74.12 70.688 73.4695 70.7404 72.8329 70.7348L71.2867 70.7214C70.5451 70.7149 69.7669 70.8956 69.0222 71.248C68.0182 71.722 66.9697 71.8472 65.9758 71.8176C62.1587 71.7031 58.398 73.7791 57.4594 75.9902L57.4429 76.0293C56.3814 78.5304 58.9908 81.2217 63.2705 82.0399L67.3724 83.4289L75.9602 85.9093C78.2849 86.5802 80.8258 86.7836 83.4575 86.5092L87.1901 86.1199L90.9335 85.7804C91.7591 85.705 92.5172 85.9082 93.0856 86.3561C94.4003 87.3919 96.5766 87.0365 98.1024 85.5379Z" fill="#E0B18D"/>
<path d="M81.5133 76.5117L81.5116 76.4648C81.4048 73.4707 77.9255 70.9593 73.7396 70.8549L42.3117 70.0741C38.1265 69.9697 34.8197 72.3127 34.9265 75.3075L34.9282 75.3537C35.035 78.3485 38.5143 80.8599 42.6995 80.9643L74.1274 81.7452C78.3133 81.8495 81.6194 79.5065 81.5133 76.5117Z" fill="#E0B18D"/>
<path d="M48.0012 77.964L47.8764 75.9941C47.6365 72.2186 43.4995 69.0683 38.6364 68.958L34.3161 68.8601C29.453 68.7498 25.7055 71.7208 25.9454 75.4962L26.071 77.4662C26.2229 79.859 27.9401 82.0009 30.4156 83.2764C31.8463 84.0137 33.53 84.4615 35.311 84.5022L39.6306 84.6001C44.4937 84.7104 48.2412 81.7394 48.0012 77.964Z" fill="#E0B18D"/>
<path d="M35.8508 79.1445C38.843 78.2142 40.166 75.0975 38.8061 72.1848C37.4455 69.2714 33.917 67.6643 30.9241 68.5953L22.7515 71.1373C19.7593 72.0683 18.4363 75.1843 19.797 78.0977C21.1576 81.0111 24.686 82.6182 27.6782 81.6872L35.8508 79.1445Z" fill="#E0B18D"/>
<path d="M37.8543 85.3311C40.0033 85.3716 41.6636 84.0931 41.5637 82.4746C41.4638 80.8561 39.6403 79.5108 37.4913 79.4703L31.622 79.3597C29.473 79.3185 27.812 80.5977 27.9126 82.2162C28.0125 83.8347 29.836 85.18 31.9851 85.2204L37.8543 85.3311Z" fill="#CC9B75"/>
<path d="M87.5153 78.7116L92.1363 77.9401C95.3963 77.2452 97.1118 74.4616 95.7162 72.13L91.0772 64.3779C90.5544 63.5041 89.8864 62.6878 89.0903 61.9494L85.6401 58.7512C83.811 57.0556 81.6095 55.6219 79.1315 54.5121L74.6694 52.5135C74.0193 52.2224 73.4056 51.8859 72.8358 51.5088L71.4522 50.5929C70.7885 50.1537 69.9901 49.8501 69.1283 49.7101C67.9672 49.5205 66.9558 49.0121 66.0777 48.4058C62.7059 46.0767 58.193 45.6185 56.1455 46.9246L56.1094 46.9477C53.7935 48.4252 54.6767 52.2098 58.0818 55.3999L61.0164 58.9649L67.3929 66.07C69.1193 67.9929 71.2945 69.65 73.8114 70.9593L77.3814 72.8163L80.9339 74.7213C81.7176 75.141 82.2891 75.755 82.5568 76.4633C83.176 78.1015 85.3272 79.0765 87.5153 78.7116Z" fill="#E0B18D"/>
<path d="M77.5026 61.4338L77.5267 61.3935C79.0597 58.8189 77.296 54.6764 73.5869 52.14L45.7374 33.0994C42.029 30.5635 37.7791 30.5948 36.2457 33.17L36.2221 33.2098C34.6887 35.7849 36.4524 39.9274 40.1608 42.4634L68.0103 61.504C71.7194 64.0404 75.9686 64.0086 77.5026 61.4338Z" fill="#E0B18D"/>
<path d="M46.5672 43.049L47.5267 41.3231C49.3651 38.0151 47.3574 32.9518 43.0422 30.0143L39.2087 27.4048C34.8936 24.4672 29.9056 24.7677 28.0672 28.0757L27.1083 29.802C25.943 31.8985 26.3225 34.7002 27.8556 37.2185C28.7415 38.6741 30.0126 40.0347 31.5928 41.1108L35.4257 43.7199C39.7408 46.6574 44.7288 46.357 46.5672 43.049Z" fill="#E0B18D"/>
<path d="M34.9931 36.932C38.1912 37.9019 41.0773 36.0609 41.4386 32.8215C41.7997 29.5811 39.4998 26.1686 36.3006 25.1988L27.565 22.5506C24.3664 21.5813 21.4808 23.4217 21.1197 26.6621C20.7586 29.9024 23.0585 33.315 26.257 34.2843L34.9931 36.932Z" fill="#E0B18D"/>
<path d="M33.4243 43.2923C35.3357 44.5834 37.525 44.482 38.3157 43.0656C39.1065 41.6491 38.198 39.4537 36.2866 38.1625L31.0665 34.6361C29.1555 33.3444 26.9651 33.446 26.175 34.8628C25.3843 36.2792 26.2928 38.4747 28.2042 39.7658L33.4243 43.2923Z" fill="#CC9B75"/>
<path d="M113.84 173.069H112.304C108.644 173.069 105.677 176.036 105.677 179.696L105.676 196.904L105.677 209.226L104.352 221.855C104.352 224.615 107.058 226.852 110.398 226.852H111.808C115.148 226.852 117.855 224.615 117.855 221.855V203.415C117.855 202.131 118.169 200.867 118.768 199.731C119.368 198.595 119.681 197.33 119.681 196.046V193.622C119.681 192.201 119.504 190.786 119.157 189.408C118.808 188.03 118.633 186.615 118.633 185.194V177.861C118.633 177.58 118.607 177.299 118.558 177.022C118.151 174.735 116.163 173.069 113.84 173.069Z" fill="#E0B18D"/>
<path d="M112.55 123.094H103.52C103.077 123.094 102.718 123.453 102.718 123.896L99.8184 150.95V160.393C99.8184 161.591 99.9156 162.788 100.112 163.971L100.765 167.94C101.136 170.187 101.896 172.352 103.014 174.338L104.908 177.706C105.31 178.422 105.521 179.228 105.521 180.05C105.521 182.689 107.661 184.828 110.3 184.828H113.307C116.133 184.828 118.425 182.537 118.425 179.711C118.425 179.107 118.531 178.507 118.74 177.94L119.423 176.091C119.715 175.298 119.946 174.482 120.111 173.653L121.142 168.471L122.138 161.837C122.3 160.755 122.382 159.664 122.382 158.571V132.926C122.382 127.495 117.98 123.094 112.55 123.094Z" fill="#E0B18D"/>
<path d="M113.768 216.344H108.09C104.816 216.344 102.162 218.711 102.162 221.632C102.162 224.552 104.816 226.919 108.09 226.919H113.768C117.042 226.919 119.697 224.552 119.697 221.632C119.697 218.711 117.042 216.344 113.768 216.344Z" fill="#E0B18D"/>
<path d="M117.733 221.121H104.125C103.042 221.121 102.162 221.905 102.162 222.872V225.163C102.162 226.13 103.042 226.913 104.125 226.913H117.733C118.818 226.913 119.697 226.13 119.697 225.163V222.872C119.697 221.905 118.818 221.121 117.733 221.121Z" fill="#E0B18D"/>
<path d="M132.063 171.996H133.52C137.173 171.996 140.136 174.959 140.136 178.612L140.136 196.332L140.136 208.914L141.461 221.808C141.461 224.626 138.754 226.91 135.414 226.91H134.004C130.665 226.91 127.958 224.626 127.958 221.808V202.626C127.958 201.392 127.643 200.178 127.044 199.098C126.446 198.019 126.131 196.805 126.131 195.572V192.928C126.131 191.512 126.303 190.102 126.643 188.728L126.656 188.679C127.004 187.272 127.18 185.828 127.18 184.378V176.88C127.18 176.599 127.204 176.318 127.252 176.041C127.66 173.703 129.69 171.996 132.063 171.996Z" fill="#E0B18D"/>
<path d="M134.316 123.074H139.585C140.943 123.074 142.151 123.936 142.594 125.219C142.659 125.409 142.707 125.605 142.735 125.804L146.084 149.109C146.233 150.146 146.308 151.192 146.308 152.238V159.985C146.308 161.194 146.208 162.403 146.01 163.596L145.362 167.489C144.99 169.718 144.229 171.865 143.114 173.83L141.22 177.163C140.816 177.875 140.604 178.679 140.604 179.497C140.604 182.107 138.488 184.223 135.878 184.223H132.763C129.968 184.223 127.701 181.957 127.701 179.161C127.701 178.558 127.594 177.959 127.383 177.395L126.703 175.568C126.41 174.782 126.18 173.974 126.015 173.153L124.984 168.02L123.993 161.479C123.827 160.388 123.744 159.286 123.744 158.183V133.645C123.744 127.807 128.477 123.074 134.316 123.074Z" fill="#E0B18D"/>
<path d="M132.751 216.344H138.429C141.703 216.344 144.357 218.704 144.357 221.613C144.357 224.523 141.703 226.882 138.429 226.882H132.751C129.477 226.882 126.822 224.523 126.822 221.613C126.822 218.704 129.477 216.344 132.751 216.344Z" fill="#E0B18D"/>
<path d="M128.785 218.267H142.394C143.478 218.267 144.357 219.399 144.357 220.797V224.106C144.357 225.503 143.478 226.636 142.394 226.636H128.785C127.702 226.636 126.822 225.503 126.822 224.106V220.797C126.822 219.399 127.702 218.267 128.785 218.267Z" fill="#E0B18D"/>
<path d="M160.582 169.795L161.796 168.991C164.843 166.974 168.948 167.809 170.965 170.856L180.745 185.632L187.689 196.124L195.911 206.145C197.466 208.495 196.47 211.893 193.684 213.737L192.509 214.515C189.724 216.358 186.206 215.948 184.651 213.598L174.064 197.602C173.383 196.573 172.45 195.735 171.355 195.165C170.26 194.595 169.328 193.756 168.647 192.728L167.187 190.523C166.406 189.343 165.772 188.072 165.297 186.739L165.28 186.69C164.794 185.325 164.143 184.024 163.343 182.815L159.205 176.562C159.049 176.328 158.915 176.08 158.802 175.823C157.851 173.648 158.603 171.104 160.582 169.795Z" fill="#E0B18D"/>
<path d="M135.983 129.942L140.377 127.034C141.51 126.284 142.993 126.336 144.071 127.162C144.23 127.285 144.378 127.422 144.511 127.572L160.167 145.157C160.863 145.94 161.503 146.77 162.08 147.643L166.356 154.103C167.024 155.112 167.607 156.174 168.101 157.279L169.709 160.883C170.63 162.947 171.179 165.157 171.334 167.411L171.595 171.235C171.651 172.053 171.918 172.84 172.369 173.522C173.81 175.698 173.214 178.631 171.037 180.071L168.439 181.791C166.109 183.333 162.968 182.695 161.425 180.363C161.092 179.861 160.671 179.421 160.184 179.066L158.609 177.918C157.931 177.425 157.293 176.877 156.702 176.284L153.009 172.573L148.572 167.666C147.833 166.847 147.155 165.974 146.546 165.054L133.003 144.592C129.78 139.724 131.115 133.165 135.983 129.942Z" fill="#E0B18D"/>
<path d="M184.678 205.69L189.413 202.556C192.143 200.749 195.659 201.252 197.265 203.678C198.871 206.105 197.96 209.537 195.229 211.344L190.495 214.478C187.765 216.285 184.249 215.783 182.643 213.357C181.037 210.93 181.948 207.497 184.678 205.69Z" fill="#E0B18D"/>
<path d="M182.434 209.482L193.782 201.971C194.686 201.373 196.044 201.832 196.816 202.997L198.642 205.756C199.413 206.921 199.305 208.351 198.401 208.949L187.053 216.461C186.149 217.059 184.791 216.6 184.019 215.435L182.193 212.676C181.422 211.51 181.53 210.081 182.434 209.482Z" fill="#E0B18D"/>
<path d="M144.9 97.645C144.9 83.9929 133.922 78.726 122.785 78.726C111.646 78.726 101.479 83.9929 101.479 97.645L102.618 121.305C102.618 134.958 111.646 146.026 122.785 146.026C133.922 146.026 142.952 138.067 142.952 124.415L144.9 97.645Z" fill="#E0B18D"/>
<path d="M150.349 66.8848H94.6972C88.6733 66.8848 83.7891 71.0927 83.7891 76.2839C83.7891 81.4744 88.6733 85.6824 94.6972 85.6824H150.349C156.373 85.6824 161.257 81.4744 161.257 76.2839C161.257 71.0927 156.373 66.8848 150.349 66.8848Z" fill="#E0B18D"/>
<path d="M124.346 100.317H121.081C113.297 100.317 106.986 106.028 106.986 113.074C106.986 113.074 107.1 121.438 107.149 121.423L123.191 128.641C123.141 128.6 138.98 121.528 138.777 121.423C138.608 121.337 138.783 121.45 138.777 121.423L138.44 113.074C138.44 106.028 132.13 100.317 124.346 100.317Z" fill="#E0B18D"/>
<path d="M137.926 66.8848H107.371C99.4882 66.8848 93.0977 72.5092 93.0977 79.4482V87.0198C93.0977 93.9574 99.4882 99.5825 107.371 99.5825H137.926C145.809 99.5825 152.2 93.9574 152.2 87.0198V79.4482C152.2 72.5092 145.809 66.8848 137.926 66.8848Z" fill="#CC9B75"/>
<path d="M140.592 66.8848H104.705C98.2946 66.8848 93.0977 72.1111 93.0977 78.5597V85.596C93.0977 92.0439 98.2946 97.2716 104.705 97.2716H140.592C147.003 97.2716 152.2 92.0439 152.2 85.596V78.5597C152.2 72.1111 147.003 66.8848 140.592 66.8848Z" fill="#E0B18D"/>
<path d="M125.121 92.4739C125.121 91.6777 124.007 91.0326 122.631 91.0326C121.257 91.0326 120.143 91.6777 120.143 92.4739V95.2689C120.143 96.0644 121.257 96.7102 122.631 96.7102C124.007 96.7102 125.121 96.0644 125.121 95.2689V92.4739Z" fill="#CC9B75"/>
<path d="M106.819 93.6636H104.706C103.863 93.6636 103.18 94.2807 103.18 95.0419C103.18 95.8017 103.863 96.4188 104.706 96.4188H106.819C107.662 96.4188 108.344 95.8017 108.344 95.0419C108.344 94.2807 107.662 93.6636 106.819 93.6636Z" fill="#CC9B75"/>
<path d="M141.227 93.6636H139.114C138.271 93.6636 137.588 94.2807 137.588 95.0419C137.588 95.8017 138.271 96.4188 139.114 96.4188H141.227C142.07 96.4188 142.753 95.8017 142.753 95.0419C142.753 94.2807 142.07 93.6636 141.227 93.6636Z" fill="#CC9B75"/>
<path d="M119.22 103.909H115.476C113.691 103.909 112.244 105.17 112.244 106.727C112.244 108.283 113.691 109.544 115.476 109.544H119.22C121.005 109.544 122.452 108.283 122.452 106.727C122.452 105.17 121.005 103.909 119.22 103.909Z" fill="#CC9B75"/>
<path d="M119.22 110.608H115.476C113.691 110.608 112.244 111.87 112.244 113.426C112.244 114.982 113.691 116.245 115.476 116.245H119.22C121.005 116.245 122.452 114.982 122.452 113.426C122.452 111.87 121.005 110.608 119.22 110.608Z" fill="#CC9B75"/>
<path d="M119.22 117.187H115.476C113.691 117.187 112.244 118.449 112.244 120.005C112.244 121.561 113.691 122.823 115.476 122.823H119.22C121.005 122.823 122.452 121.561 122.452 120.005C122.452 118.449 121.005 117.187 119.22 117.187Z" fill="#CC9B75"/>
<path d="M130.716 103.909H126.973C125.187 103.909 123.74 105.17 123.74 106.726C123.74 108.283 125.187 109.544 126.973 109.544H130.716C131.163 109.544 131.589 109.465 131.976 109.322C133.134 108.894 133.947 107.893 133.947 106.726C133.947 105.17 132.5 103.909 130.716 103.909Z" fill="#CC9B75"/>
<path d="M130.716 110.608H126.973C125.187 110.608 123.74 111.87 123.74 113.426C123.74 114.982 125.187 116.245 126.973 116.245H130.716C132.5 116.245 133.947 114.982 133.947 113.426C133.947 111.87 132.5 110.608 130.716 110.608Z" fill="#CC9B75"/>
<path d="M130.716 117.187H126.973C125.187 117.187 123.74 118.448 123.74 120.005C123.74 121.561 125.187 122.822 126.973 122.822H130.716C132.5 122.822 133.947 121.561 133.947 120.005C133.947 118.448 132.5 117.187 130.716 117.187Z" fill="#CC9B75"/>
<path d="M132.797 57.4033C132.797 50.4208 128.07 44.7607 122.238 44.7607C116.405 44.7607 111.678 50.4208 111.678 57.4033V62.5904C111.678 69.5728 116.405 75.2336 122.238 75.2336C128.07 75.2336 132.797 69.5728 132.797 62.5904V57.4033Z" fill="#E0B18D"/>
<path d="M118.353 72.1704L112.59 69.4005C111.948 69.0919 111.178 69.362 110.87 70.0029C110.561 70.6451 110.831 71.414 111.473 71.7226L117.237 74.4939C117.878 74.8024 118.648 74.5323 118.957 73.8901C119.266 73.2492 118.995 72.4789 118.353 72.1704Z" fill="#CC9B75"/>
<path d="M125.357 72.1705L131.121 69.4006C131.763 69.0921 132.533 69.3621 132.842 70.003C133.149 70.6453 132.88 71.4142 132.238 71.7227L126.474 74.494C125.832 74.8025 125.062 74.5325 124.755 73.8902C124.446 73.2493 124.716 72.479 125.357 72.1705Z" fill="#CC9B75"/>
<path d="M124.044 45.611H119.948C115.246 45.611 111.436 49.4219 111.436 54.1228V57.6154C111.436 62.3163 115.246 66.1273 119.948 66.1273H124.044C128.745 66.1273 132.556 62.3163 132.556 57.6154V54.1228C132.556 49.4219 128.745 45.611 124.044 45.611Z" fill="#CC9B75"/>
<path d="M137.314 38.202H107.554C104.151 38.202 101.393 41.0195 101.393 44.4953C101.393 47.9718 104.151 50.7893 107.554 50.7893H137.314C140.717 50.7893 143.476 47.9718 143.476 44.4953C143.476 41.0195 140.717 38.202 137.314 38.202Z" fill="#E0B18D"/>
<path d="M136.872 39.1533H107.457C104.912 39.1533 102.85 41.2543 102.85 43.8465C102.85 46.4387 104.912 48.5404 107.457 48.5404H136.872C139.416 48.5404 141.48 46.4387 141.48 43.8465C141.48 41.2543 139.416 39.1533 136.872 39.1533Z" fill="#CC9B75"/>
<path d="M126.577 19.9047H117.768C110.47 19.9047 104.553 25.8208 104.553 33.1195V48.7803C104.553 56.0796 110.47 61.9965 117.768 61.9965H126.577C133.875 61.9965 139.792 56.0796 139.792 48.7803V33.1195C139.792 25.8208 133.875 19.9047 126.577 19.9047Z" fill="#E0B18D"/>
<path d="M126.3 60.2041H118.068C117.178 60.2041 116.457 60.9261 116.457 61.8154C116.457 62.706 117.178 63.4281 118.068 63.4281H126.3C127.19 63.4281 127.911 62.706 127.911 61.8154C127.911 60.9261 127.19 60.2041 126.3 60.2041Z" fill="#E0B18D"/>
<path d="M123.513 58.4025H121.133C120.943 58.4025 120.789 58.5571 120.789 58.7474V58.9503C120.789 59.1406 120.943 59.2952 121.133 59.2952H123.513C123.703 59.2952 123.858 59.1406 123.858 58.9503V58.7474C123.858 58.5571 123.703 58.4025 123.513 58.4025Z" fill="#CC9B75"/>
<path d="M124.746 43.1783C124.746 41.7489 123.588 40.5903 122.158 40.5903C120.729 40.5903 119.57 41.7489 119.57 43.1783V47.7442C119.57 49.1728 120.729 50.3321 122.158 50.3321C123.588 50.3321 124.746 49.1728 124.746 47.7442V43.1783Z" fill="#CC9B75"/>
<path d="M121.875 48.3466L119.469 46.3015C119.071 45.9636 118.475 46.0119 118.137 46.4093C117.8 46.8074 117.847 47.4035 118.245 47.7414L120.651 49.7864C121.049 50.1237 121.645 50.0754 121.983 49.678C122.321 49.2806 122.272 48.6838 121.875 48.3466Z" fill="#CC9B75"/>
<path d="M122.536 48.3466L124.943 46.3015C125.34 45.9636 125.936 46.0119 126.274 46.4093C126.612 46.8074 126.563 47.4035 126.166 47.7414L123.759 49.7864C123.361 50.1237 122.766 50.0754 122.428 49.678C122.09 49.2806 122.138 48.6838 122.536 48.3466Z" fill="#CC9B75"/>
<path d="M120.538 38.4421C120.538 38.0412 120.214 37.7166 119.813 37.7166C119.413 37.7166 119.088 38.0412 119.088 38.4421V39.3201C119.088 39.7203 119.413 40.0457 119.813 40.0457C120.214 40.0457 120.538 39.7203 120.538 39.3201V38.4421Z" fill="#CC9B75"/>
<path d="M125.353 38.4421C125.353 38.0412 125.029 37.7166 124.627 37.7166C124.227 37.7166 123.902 38.0412 123.902 38.4421V39.3201C123.902 39.7203 124.227 40.0457 124.627 40.0457C125.029 40.0457 125.353 39.7203 125.353 39.3201V38.4421Z" fill="#CC9B75"/>
<path d="M115.887 39.9428C115.887 39.0487 115.162 38.3239 114.268 38.3239C113.373 38.3239 112.648 39.0487 112.648 39.9428V40.5914C112.648 41.4855 113.373 42.2104 114.268 42.2104C115.162 42.2104 115.887 41.4855 115.887 40.5914V39.9428Z" fill="#61534B"/>
<path d="M131.635 39.9428C131.635 39.0487 130.91 38.3239 130.016 38.3239C129.121 38.3239 128.396 39.0487 128.396 39.9428V40.5907C128.396 41.4855 129.121 42.2104 130.016 42.2104C130.91 42.2104 131.635 41.4855 131.635 40.5907V39.9428Z" fill="#61534B"/>
<path d="M125.224 56.597C127.608 56.597 129.527 54.5478 129.527 52.0018V51.2581H115.039V52.0018C115.039 54.5478 116.958 56.597 119.341 56.597H125.224Z" fill="white"/>
<path fill-rule="evenodd" clip-rule="evenodd" d="M133.532 36.7902C133.532 36.5978 133.375 36.4418 133.183 36.4418H128.3C128.107 36.4418 127.951 36.5978 127.951 36.7902V37.4877C127.951 37.6808 128.107 37.8369 128.3 37.8369H133.183C133.375 37.8369 133.532 37.6808 133.532 37.4877V36.7902Z" fill="#61534B"/>
<path fill-rule="evenodd" clip-rule="evenodd" d="M116.775 36.7702C116.775 36.5778 116.618 36.4218 116.426 36.4218H111.542C111.35 36.4218 111.193 36.5778 111.193 36.7702V37.4684C111.193 37.6608 111.35 37.8168 111.542 37.8168H116.426C116.618 37.8168 116.775 37.6608 116.775 37.4684V36.7702Z" fill="#61534B"/>
<path d="M115.102 20.1484C108.719 20.1484 103.58 25.4314 103.58 31.9962C103.58 32.3033 103.595 32.6077 103.617 32.9106C103.595 33.0645 103.58 33.2219 103.58 33.3829V40.6402C103.58 42.1984 104.651 43.4885 106.08 43.7809V34.3092C106.08 27.5297 111.389 22.0711 117.983 22.0711H127.295C133.889 22.0711 139.198 27.5297 139.198 34.3092V43.7928C140.667 43.5354 141.781 42.2277 141.781 40.6402V33.3829C141.781 33.2219 141.765 33.0645 141.743 32.9106C141.766 32.6077 141.781 32.3033 141.781 31.9962C141.781 25.4314 136.642 20.1484 130.258 20.1484H115.102Z" fill="#4D4D4D"/>
<path d="M128.188 18.7107H117.806C114.31 18.7107 111.475 21.6254 111.475 25.2223C111.475 28.8177 114.31 31.7324 117.806 31.7324H128.188C131.684 31.7324 134.519 28.8177 134.519 25.2223C134.519 21.6254 131.684 18.7107 128.188 18.7107Z" fill="#4D4D4D"/>
<path d="M115.056 22.8193C115.056 21.8027 114.254 20.9785 113.265 20.9785C112.276 20.9785 111.475 21.8027 111.475 22.8193V27.0892C111.475 28.1051 112.276 28.9299 113.265 28.9299C114.254 28.9299 115.056 28.1051 115.056 27.0892V22.8193Z" fill="#4D4D4D"/>
<path d="M135.378 23.0617C135.378 22.0444 134.577 21.2209 133.587 21.2209C132.598 21.2209 131.797 22.0444 131.797 23.0617V27.3309C131.797 28.3482 132.598 29.1717 133.587 29.1717C134.577 29.1717 135.378 28.3482 135.378 27.3309V23.0617Z" fill="#4D4D4D"/>
<path d="M110.733 24.9056C110.639 24.2346 110.034 23.7687 109.382 23.8652C108.729 23.9611 108.276 24.5837 108.37 25.2547L108.673 27.4201C108.766 28.0917 109.371 28.5577 110.024 28.4605C110.676 28.3646 111.129 27.7426 111.035 27.0717L110.733 24.9056Z" fill="#4D4D4D"/>
<path d="M135.958 25.4917C136.051 24.8208 136.656 24.3555 137.309 24.4514C137.962 24.5479 138.414 25.1699 138.32 25.8415L138.018 28.0069C137.924 28.6779 137.319 29.1439 136.667 29.0473C136.014 28.9508 135.561 28.3295 135.655 27.6578L135.958 25.4917Z" fill="#4D4D4D"/>
<path d="M121.737 21.9291H122.855C123.514 21.9291 124.048 22.479 124.048 23.1562V27.6396C124.048 28.3168 123.514 28.8667 122.855 28.8667H121.737C121.077 28.8667 120.543 28.3168 120.543 27.6396V23.1562C120.543 22.479 121.077 21.9291 121.737 21.9291Z" fill="#565656"/>
<path d="M116.942 22.0507H118.417C118.934 22.0507 119.351 22.4809 119.351 23.0113V27.7604C119.351 28.2915 118.934 28.7217 118.417 28.7217H116.942C116.425 28.7217 116.008 28.2915 116.008 27.7604V23.0113C116.008 22.4809 116.425 22.0507 116.942 22.0507Z" fill="#565656"/>
<path d="M127.77 22.072H126.294C125.778 22.072 125.359 22.5023 125.359 23.0326V27.7818C125.359 28.3128 125.778 28.7424 126.294 28.7424H127.77C128.285 28.7424 128.704 28.3128 128.704 27.7818V23.0326C128.704 22.5023 128.285 22.072 127.77 22.072Z" fill="#565656"/>
<path d="M140.991 36.1625C140.926 36.1576 140.861 36.1569 140.795 36.1632C140.72 36.1695 140.642 36.1849 140.567 36.2073L140.411 36.2542C139.908 36.406 139.593 36.8713 139.605 37.3729C139.556 37.303 139.497 37.2414 139.435 37.1847V38.7386C141.615 39.6447 143.141 41.7954 143.141 44.3162C143.141 46.851 141.599 49.0101 139.4 49.9077C139.337 50.813 139.177 51.6897 138.937 52.5321V53.401C138.881 53.3115 138.814 53.2296 138.741 53.1547C137.644 56.3521 135.315 58.7631 132.315 60.2204V62.369C132.315 63.1526 132.945 63.7837 133.726 63.7837H134.378C135.16 63.7837 135.789 63.1526 135.789 62.369V61.9877C136.001 62.5006 136.503 62.8581 137.092 62.8581H137.742C138.525 62.8581 139.154 62.2277 139.154 61.4427V60.9949C139.403 61.3944 139.842 61.661 140.348 61.661C141.129 61.661 141.759 61.0299 141.759 60.2463V52.297L142.049 53.2653C142.231 53.8712 142.864 54.214 143.469 54.0314C144.074 53.8488 144.414 53.2142 144.233 52.6069L142.685 47.4387C142.97 47.7605 143.423 47.9074 143.862 47.7752L144.018 47.7276C144.623 47.5457 144.964 46.9111 144.781 46.3045L141.986 36.9734C141.848 36.5089 141.444 36.2003 140.991 36.1625ZM104.302 36.2395C103.849 36.2773 103.445 36.5858 103.307 37.0504L100.512 46.3815C100.33 46.9881 100.67 47.6227 101.276 47.8046L101.432 47.8522C101.871 47.9837 102.323 47.8375 102.608 47.5156L101.061 52.6839C100.879 53.2912 101.219 53.9257 101.824 54.1084C102.429 54.2903 103.062 53.9488 103.244 53.3429L103.302 53.147V60.2463C103.302 61.0299 103.931 61.661 104.713 61.661C105.219 61.661 105.658 61.3944 105.907 60.9949V61.4427C105.907 62.227 106.536 62.8581 107.318 62.8581H107.97C108.558 62.8581 109.06 62.5013 109.272 61.9898V62.369C109.272 63.1526 109.901 63.7837 110.684 63.7837H111.335C112.117 63.7837 112.746 63.1526 112.746 62.369V60.2204C109.773 58.7421 107.473 56.2751 106.4 53.0813C106.293 53.1736 106.199 53.2807 106.124 53.401V52.1459C105.942 51.4224 105.819 50.6752 105.766 49.9077C102.927 48.1033 101.912 46.6914 102.024 44.3162C102.144 41.7975 103.551 39.6447 105.73 38.7386V37.3995C105.717 37.4163 105.702 37.4324 105.689 37.4499C105.7 36.9489 105.385 36.483 104.882 36.3312L104.726 36.2843C104.651 36.2619 104.574 36.2465 104.499 36.2402C104.432 36.2339 104.367 36.2339 104.302 36.2395Z" fill="#4D4D4D"/>
<path d="M135.376 23.0619C135.376 22.0446 134.575 21.2205 133.585 21.2205C132.596 21.2205 131.795 22.0446 131.795 23.0619V27.3304C131.795 28.3477 132.596 29.1719 133.585 29.1719C134.575 29.1719 135.376 28.3477 135.376 27.3304V23.0619Z" fill="#4D4D4D"/>
<path d="M110.731 24.9047C110.637 24.2344 110.032 23.7685 109.38 23.8643C108.727 23.9609 108.274 24.5835 108.368 25.2545L108.671 27.4199C108.764 28.0908 109.369 28.5568 110.022 28.4603C110.674 28.3637 111.127 27.7424 111.033 27.0708L110.731 24.9047Z" fill="#4D4D4D"/>
<path d="M135.958 25.4917C136.051 24.8208 136.656 24.3555 137.309 24.4514C137.962 24.5479 138.414 25.1699 138.32 25.8415L138.018 28.0069C137.924 28.6779 137.319 29.1439 136.667 29.0473C136.014 28.9508 135.561 28.3295 135.655 27.6578L135.958 25.4917Z" fill="#4D4D4D"/>
<path d="M121.737 21.9291H122.855C123.514 21.9291 124.048 22.479 124.048 23.1562V27.6396C124.048 28.3168 123.514 28.8667 122.855 28.8667H121.737C121.077 28.8667 120.543 28.3168 120.543 27.6396V23.1562C120.543 22.479 121.077 21.9291 121.737 21.9291Z" fill="#565656"/>
<path d="M116.941 22.0507H118.415C118.932 22.0507 119.349 22.4809 119.349 23.0113V27.7604C119.349 28.2915 118.932 28.7217 118.415 28.7217H116.941C116.424 28.7217 116.006 28.2915 116.006 27.7604V23.0113C116.006 22.4809 116.424 22.0507 116.941 22.0507Z" fill="#565656"/>
<path d="M127.768 22.0714H126.292C125.777 22.0714 125.357 22.5017 125.357 23.032V27.7819C125.357 28.3129 125.777 28.7425 126.292 28.7425H127.768C128.283 28.7425 128.702 28.3129 128.702 27.7819V23.032C128.702 22.5017 128.283 22.0714 127.768 22.0714Z" fill="#565656"/>
<path d="M115.102 20.1484C108.719 20.1484 103.58 25.4314 103.58 31.9962C103.58 32.3033 103.595 32.6077 103.617 32.9106C103.595 33.0645 103.58 33.2219 103.58 33.3829V40.6402C103.58 42.1984 104.651 43.4885 106.08 43.7809V34.3092C106.08 27.5297 111.389 22.0711 117.983 22.0711H127.295C133.889 22.0711 139.198 27.5297 139.198 34.3092V43.7928C140.667 43.5354 141.781 42.2277 141.781 40.6402V33.3829C141.781 33.2219 141.765 33.0645 141.743 32.9106C141.766 32.6077 141.781 32.3033 141.781 31.9962C141.781 25.4314 136.642 20.1484 130.258 20.1484H115.102Z" fill="#4D4D4D"/>
<path d="M128.188 18.7107H117.806C114.31 18.7107 111.475 21.6254 111.475 25.2223C111.475 28.8177 114.31 31.7324 117.806 31.7324H128.188C131.684 31.7324 134.519 28.8177 134.519 25.2223C134.519 21.6254 131.684 18.7107 128.188 18.7107Z" fill="#4D4D4D"/>
<path d="M115.056 22.8193C115.056 21.8027 114.254 20.9785 113.265 20.9785C112.276 20.9785 111.475 21.8027 111.475 22.8193V27.0892C111.475 28.1051 112.276 28.9299 113.265 28.9299C114.254 28.9299 115.056 28.1051 115.056 27.0892V22.8193Z" fill="#4D4D4D"/>
<path d="M116.941 22.0507H118.415C118.932 22.0507 119.349 22.4809 119.349 23.0113V27.7604C119.349 28.2915 118.932 28.7217 118.415 28.7217H116.941C116.424 28.7217 116.006 28.2915 116.006 27.7604V23.0113C116.006 22.4809 116.424 22.0507 116.941 22.0507Z" fill="#565656"/>
<path d="M127.768 22.0714H126.292C125.777 22.0714 125.357 22.5017 125.357 23.032V27.7819C125.357 28.3129 125.777 28.7425 126.292 28.7425H127.768C128.283 28.7425 128.702 28.3129 128.702 27.7819V23.032C128.702 22.5017 128.283 22.0714 127.768 22.0714Z" fill="#565656"/>
<path d="M121.737 21.9291H122.855C123.514 21.9291 124.048 22.479 124.048 23.1562V27.6396C124.048 28.3168 123.514 28.8667 122.855 28.8667H121.737C121.077 28.8667 120.543 28.3168 120.543 27.6396V23.1562C120.543 22.479 121.077 21.9291 121.737 21.9291Z" fill="#565656"/>
<path d="M115.102 20.1486C108.719 20.1486 103.58 25.4316 103.58 31.9963C103.58 32.3034 103.595 32.6078 103.617 32.9107C103.595 33.0646 103.58 33.2221 103.58 33.383V40.6404C103.58 42.1985 104.651 43.4886 106.08 43.7811V34.3093C106.08 27.5298 111.389 22.0712 117.983 22.0712H127.295C133.889 22.0712 139.198 27.5298 139.198 34.3093V43.793C140.667 43.5355 141.781 42.2279 141.781 40.6404V33.383C141.781 33.2221 141.765 33.0646 141.743 32.9107C141.766 32.6078 141.781 32.3034 141.781 31.9963C141.781 25.4316 136.642 20.1486 130.258 20.1486H115.102Z" fill="#4D4D4D"/>
<path d="M128.188 18.7107H117.806C114.31 18.7107 111.475 21.6254 111.475 25.2223C111.475 28.8177 114.31 31.7324 117.806 31.7324H128.188C131.684 31.7324 134.519 28.8177 134.519 25.2223C134.519 21.6254 131.684 18.7107 128.188 18.7107Z" fill="#4D4D4D"/>
<path d="M115.056 22.8193C115.056 21.8027 114.254 20.9785 113.265 20.9785C112.276 20.9785 111.475 21.8027 111.475 22.8193V27.0892C111.475 28.1051 112.276 28.9299 113.265 28.9299C114.254 28.9299 115.056 28.1051 115.056 27.0892V22.8193Z" fill="#4D4D4D"/>
<path d="M135.378 23.062C135.378 22.0448 134.577 21.2206 133.587 21.2206C132.598 21.2206 131.797 22.0448 131.797 23.062V27.3306C131.797 28.3478 132.598 29.172 133.587 29.172C134.577 29.172 135.378 28.3478 135.378 27.3306V23.062Z" fill="#4D4D4D"/>
<path d="M110.733 24.9047C110.639 24.2344 110.034 23.7685 109.382 23.8643C108.729 23.9609 108.276 24.5835 108.37 25.2545L108.673 27.4199C108.766 28.0908 109.371 28.5568 110.024 28.4603C110.676 28.3637 111.129 27.7424 111.035 27.0708L110.733 24.9047Z" fill="#4D4D4D"/>
<path d="M135.956 25.4917C136.049 24.8208 136.654 24.3555 137.307 24.4514C137.96 24.5479 138.412 25.1699 138.319 25.8415L138.016 28.0069C137.923 28.6779 137.317 29.1439 136.665 29.0473C136.013 28.9508 135.559 28.3295 135.653 27.6578L135.956 25.4917Z" fill="#4D4D4D"/>
<path d="M121.737 21.9291H122.855C123.514 21.9291 124.048 22.479 124.048 23.1562V27.6396C124.048 28.3168 123.514 28.8667 122.855 28.8667H121.737C121.077 28.8667 120.543 28.3168 120.543 27.6396V23.1562C120.543 22.479 121.077 21.9291 121.737 21.9291Z" fill="#565656"/>
<path d="M116.944 22.0507H118.419C118.936 22.0507 119.353 22.4809 119.353 23.0113V27.7604C119.353 28.2915 118.936 28.7217 118.419 28.7217H116.944C116.427 28.7217 116.01 28.2915 116.01 27.7604V23.0113C116.01 22.4809 116.427 22.0507 116.944 22.0507Z" fill="#565656"/>
<path d="M127.77 22.0715H126.294C125.778 22.0715 125.359 22.5018 125.359 23.0321V27.782C125.359 28.313 125.778 28.7426 126.294 28.7426H127.77C128.285 28.7426 128.704 28.313 128.704 27.782V23.0321C128.704 22.5018 128.285 22.0715 127.77 22.0715Z" fill="#565656"/>
<path d="M110.542 129.775L106.148 126.867C105.016 126.117 103.532 126.169 102.455 126.995C102.296 127.118 102.148 127.255 102.015 127.405L86.3581 144.99C85.6625 145.772 85.0228 146.603 84.4451 147.476L80.1695 153.936C79.5019 154.945 78.9184 156.007 78.4247 157.112L76.8164 160.716C75.8959 162.78 75.3459 164.99 75.1912 167.244L74.9303 171.068C74.8744 171.885 74.6074 172.673 74.156 173.355C72.7157 175.531 73.3118 178.464 75.4885 179.904L78.0859 181.623C80.4167 183.166 83.5577 182.528 85.1008 180.196C85.4337 179.693 85.8541 179.253 86.3413 178.899L87.9167 177.751C88.5948 177.258 89.2322 176.71 89.8232 176.117L93.516 172.406L97.9529 167.499C98.6926 166.68 99.3703 165.807 99.9792 164.887L113.523 144.425C116.745 139.557 115.411 132.998 110.542 129.775Z" fill="#E0B18D"/>
<path d="M85.9633 169.795L84.7486 168.991C81.702 166.974 77.5968 167.809 75.5803 170.856L65.7995 185.632L58.8558 196.124L50.6339 206.145C49.0785 208.495 50.0753 211.893 52.8606 213.737L54.0361 214.515C56.8208 216.358 60.3385 215.948 61.8939 213.598L72.4812 197.602C73.1624 196.573 74.0949 195.735 75.1902 195.165C76.2849 194.595 77.2174 193.756 77.8982 192.728L79.3575 190.523C80.1387 189.343 80.7733 188.072 81.2481 186.739L81.265 186.69C81.7511 185.325 82.4016 184.024 83.2018 182.815L87.3402 176.562C87.4955 176.328 87.6299 176.08 87.7426 175.823C88.6935 173.648 87.9423 171.104 85.9633 169.795Z" fill="#E0B18D"/>
<path d="M61.8471 205.859L57.1126 202.726C54.3822 200.918 50.8662 201.421 49.2602 203.848C47.6542 206.274 48.5655 209.706 51.2959 211.514L56.0304 214.647C58.7602 216.454 62.2764 215.952 63.8825 213.526C65.4885 211.099 64.5769 207.666 61.8471 205.859Z" fill="#E0B18D"/>
<path d="M64.0914 209.652L52.7433 202.141C51.8396 201.542 50.4814 202.001 49.7099 203.167L47.8837 205.926C47.1126 207.091 47.2208 208.521 48.1245 209.119L59.4726 216.63C60.3763 217.228 61.7349 216.769 62.506 215.604L64.3322 212.845C65.1037 211.679 64.9952 210.25 64.0914 209.652Z" fill="#E0B18D"/>
<path d="M102.957 124.869L118.16 137.707L100.042 165.08L79.5893 151.542C84.8786 143.211 95.1427 133.459 102.957 124.869Z" fill="#4B4B4B"/>
<path d="M105.819 124.531C104.757 124.531 103.732 124.701 102.762 125.013C103.897 137.431 112.456 147.023 122.915 147.023C133.511 147.023 142.155 137.182 143.109 124.531H105.819Z" fill="#4F4F4F"/>
<path d="M142.885 126.068L123.121 128.383V161.209H147.648C147.836 151.342 144.66 137.545 142.885 126.068Z" fill="#4B4B4B"/>
<path d="M142.857 124.85L127.655 137.688L145.772 165.061L166.225 151.523C160.936 143.192 150.672 133.44 142.857 124.85Z" fill="#4B4B4B"/>
<path d="M102.642 126.069L122.838 128.384V161.209H98.9903C98.8035 151.343 100.867 137.546 102.642 126.069Z" fill="#4B4B4B"/>
<rect x="17.2922" y="18.1147" width="210.966" height="210.966" stroke="black" stroke-width="4.44375"/>
<circle cx="123.228" cy="120.844" r="117.199" stroke="black" stroke-width="4.20612"/>
</svg>
